<?xml version="1.0" encoding="utf-8" standalone="no"?>
<!DOCTYPE svg PUBLIC "-//W3C//DTD SVG 1.1//EN"
  "http://www.w3.org/Graphics/SVG/1.1/DTD/svg11.dtd">
<svg xmlns:xlink="http://www.w3.org/1999/xlink" width="460.8pt" height="345.6pt" viewBox="0 0 460.8 345.6" xmlns="http://www.w3.org/2000/svg" version="1.1">
 <metadata>
  <rdf:RDF xmlns:dc="http://purl.org/dc/elements/1.1/" xmlns:cc="http://creativecommons.org/ns#" xmlns:rdf="http://www.w3.org/1999/02/22-rdf-syntax-ns#">
   <cc:Work>
    <dc:type rdf:resource="http://purl.org/dc/dcmitype/StillImage"/>
    <dc:date>2024-05-23T10:38:50.148424</dc:date>
    <dc:format>image/svg+xml</dc:format>
    <dc:creator>
     <cc:Agent>
      <dc:title>Matplotlib v3.8.2, https://matplotlib.org/</dc:title>
     </cc:Agent>
    </dc:creator>
   </cc:Work>
  </rdf:RDF>
 </metadata>
 <defs>
  <style type="text/css">*{stroke-linejoin: round; stroke-linecap: butt}</style>
 </defs>
 <g id="figure_1">
  <g id="patch_1">
   <path d="M 0 345.6 
L 460.8 345.6 
L 460.8 0 
L 0 0 
z
" style="fill: #ffffff"/>
  </g>
  <g id="axes_1">
   <g id="patch_2">
    <path d="M 57.6 307.584 
L 414.72 307.584 
L 414.72 41.472 
L 57.6 41.472 
z
" style="fill: #ffffff"/>
   </g>
   <g id="matplotlib.axis_1">
    <g id="xtick_1">
     <g id="line2d_1">
      <defs>
       <path id="m60ff1803d3" d="M 0 0 
L 0 3.5 
" style="stroke: #000000; stroke-width: 0.8"/>
      </defs>
      <g>
       <use xlink:href="#m60ff1803d3" x="97.030623" y="307.584" style="stroke: #000000; stroke-width: 0.8"/>
      </g>
     </g>
     <g id="text_1">
      <!-- −30 -->
      <g transform="translate(86.478279 322.182437) scale(0.1 -0.1)">
       <defs>
        <path id="DejaVuSans-2212" d="M 678 2272 
L 4684 2272 
L 4684 1741 
L 678 1741 
L 678 2272 
z
" transform="scale(0.015625)"/>
        <path id="DejaVuSans-33" d="M 2597 2516 
Q 3050 2419 3304 2112 
Q 3559 1806 3559 1356 
Q 3559 666 3084 287 
Q 2609 -91 1734 -91 
Q 1441 -91 1130 -33 
Q 819 25 488 141 
L 488 750 
Q 750 597 1062 519 
Q 1375 441 1716 441 
Q 2309 441 2620 675 
Q 2931 909 2931 1356 
Q 2931 1769 2642 2001 
Q 2353 2234 1838 2234 
L 1294 2234 
L 1294 2753 
L 1863 2753 
Q 2328 2753 2575 2939 
Q 2822 3125 2822 3475 
Q 2822 3834 2567 4026 
Q 2313 4219 1838 4219 
Q 1578 4219 1281 4162 
Q 984 4106 628 3988 
L 628 4550 
Q 988 4650 1302 4700 
Q 1616 4750 1894 4750 
Q 2613 4750 3031 4423 
Q 3450 4097 3450 3541 
Q 3450 3153 3228 2886 
Q 3006 2619 2597 2516 
z
" transform="scale(0.015625)"/>
        <path id="DejaVuSans-30" d="M 2034 4250 
Q 1547 4250 1301 3770 
Q 1056 3291 1056 2328 
Q 1056 1369 1301 889 
Q 1547 409 2034 409 
Q 2525 409 2770 889 
Q 3016 1369 3016 2328 
Q 3016 3291 2770 3770 
Q 2525 4250 2034 4250 
z
M 2034 4750 
Q 2819 4750 3233 4129 
Q 3647 3509 3647 2328 
Q 3647 1150 3233 529 
Q 2819 -91 2034 -91 
Q 1250 -91 836 529 
Q 422 1150 422 2328 
Q 422 3509 836 4129 
Q 1250 4750 2034 4750 
z
" transform="scale(0.015625)"/>
       </defs>
       <use xlink:href="#DejaVuSans-2212"/>
       <use xlink:href="#DejaVuSans-33" x="83.789062"/>
       <use xlink:href="#DejaVuSans-30" x="147.412109"/>
      </g>
     </g>
    </g>
    <g id="xtick_2">
     <g id="line2d_2">
      <g>
       <use xlink:href="#m60ff1803d3" x="143.426413" y="307.584" style="stroke: #000000; stroke-width: 0.8"/>
      </g>
     </g>
     <g id="text_2">
      <!-- −20 -->
      <g transform="translate(132.87407 322.182437) scale(0.1 -0.1)">
       <defs>
        <path id="DejaVuSans-32" d="M 1228 531 
L 3431 531 
L 3431 0 
L 469 0 
L 469 531 
Q 828 903 1448 1529 
Q 2069 2156 2228 2338 
Q 2531 2678 2651 2914 
Q 2772 3150 2772 3378 
Q 2772 3750 2511 3984 
Q 2250 4219 1831 4219 
Q 1534 4219 1204 4116 
Q 875 4013 500 3803 
L 500 4441 
Q 881 4594 1212 4672 
Q 1544 4750 1819 4750 
Q 2544 4750 2975 4387 
Q 3406 4025 3406 3419 
Q 3406 3131 3298 2873 
Q 3191 2616 2906 2266 
Q 2828 2175 2409 1742 
Q 1991 1309 1228 531 
z
" transform="scale(0.015625)"/>
       </defs>
       <use xlink:href="#DejaVuSans-2212"/>
       <use xlink:href="#DejaVuSans-32" x="83.789062"/>
       <use xlink:href="#DejaVuSans-30" x="147.412109"/>
      </g>
     </g>
    </g>
    <g id="xtick_3">
     <g id="line2d_3">
      <g>
       <use xlink:href="#m60ff1803d3" x="189.822204" y="307.584" style="stroke: #000000; stroke-width: 0.8"/>
      </g>
     </g>
     <g id="text_3">
      <!-- −10 -->
      <g transform="translate(179.26986 322.182437) scale(0.1 -0.1)">
       <defs>
        <path id="DejaVuSans-31" d="M 794 531 
L 1825 531 
L 1825 4091 
L 703 3866 
L 703 4441 
L 1819 4666 
L 2450 4666 
L 2450 531 
L 3481 531 
L 3481 0 
L 794 0 
L 794 531 
z
" transform="scale(0.015625)"/>
       </defs>
       <use xlink:href="#DejaVuSans-2212"/>
       <use xlink:href="#DejaVuSans-31" x="83.789062"/>
       <use xlink:href="#DejaVuSans-30" x="147.412109"/>
      </g>
     </g>
    </g>
    <g id="xtick_4">
     <g id="line2d_4">
      <g>
       <use xlink:href="#m60ff1803d3" x="236.217995" y="307.584" style="stroke: #000000; stroke-width: 0.8"/>
      </g>
     </g>
     <g id="text_4">
      <!-- 0 -->
      <g transform="translate(233.036745 322.182437) scale(0.1 -0.1)">
       <use xlink:href="#DejaVuSans-30"/>
      </g>
     </g>
    </g>
    <g id="xtick_5">
     <g id="line2d_5">
      <g>
       <use xlink:href="#m60ff1803d3" x="282.613785" y="307.584" style="stroke: #000000; stroke-width: 0.8"/>
      </g>
     </g>
     <g id="text_5">
      <!-- 10 -->
      <g transform="translate(276.251285 322.182437) scale(0.1 -0.1)">
       <use xlink:href="#DejaVuSans-31"/>
       <use xlink:href="#DejaVuSans-30" x="63.623047"/>
      </g>
     </g>
    </g>
    <g id="xtick_6">
     <g id="line2d_6">
      <g>
       <use xlink:href="#m60ff1803d3" x="329.009576" y="307.584" style="stroke: #000000; stroke-width: 0.8"/>
      </g>
     </g>
     <g id="text_6">
      <!-- 20 -->
      <g transform="translate(322.647076 322.182437) scale(0.1 -0.1)">
       <use xlink:href="#DejaVuSans-32"/>
       <use xlink:href="#DejaVuSans-30" x="63.623047"/>
      </g>
     </g>
    </g>
    <g id="xtick_7">
     <g id="line2d_7">
      <g>
       <use xlink:href="#m60ff1803d3" x="375.405367" y="307.584" style="stroke: #000000; stroke-width: 0.8"/>
      </g>
     </g>
     <g id="text_7">
      <!-- 30 -->
      <g transform="translate(369.042867 322.182437) scale(0.1 -0.1)">
       <use xlink:href="#DejaVuSans-33"/>
       <use xlink:href="#DejaVuSans-30" x="63.623047"/>
      </g>
     </g>
    </g>
    <g id="text_8">
     <!-- Frequency [$Hz$] -->
     <g transform="translate(197.96 335.862125) scale(0.1 -0.1)">
      <defs>
       <path id="DejaVuSans-46" d="M 628 4666 
L 3309 4666 
L 3309 4134 
L 1259 4134 
L 1259 2759 
L 3109 2759 
L 3109 2228 
L 1259 2228 
L 1259 0 
L 628 0 
L 628 4666 
z
" transform="scale(0.015625)"/>
       <path id="DejaVuSans-72" d="M 2631 2963 
Q 2534 3019 2420 3045 
Q 2306 3072 2169 3072 
Q 1681 3072 1420 2755 
Q 1159 2438 1159 1844 
L 1159 0 
L 581 0 
L 581 3500 
L 1159 3500 
L 1159 2956 
Q 1341 3275 1631 3429 
Q 1922 3584 2338 3584 
Q 2397 3584 2469 3576 
Q 2541 3569 2628 3553 
L 2631 2963 
z
" transform="scale(0.015625)"/>
       <path id="DejaVuSans-65" d="M 3597 1894 
L 3597 1613 
L 953 1613 
Q 991 1019 1311 708 
Q 1631 397 2203 397 
Q 2534 397 2845 478 
Q 3156 559 3463 722 
L 3463 178 
Q 3153 47 2828 -22 
Q 2503 -91 2169 -91 
Q 1331 -91 842 396 
Q 353 884 353 1716 
Q 353 2575 817 3079 
Q 1281 3584 2069 3584 
Q 2775 3584 3186 3129 
Q 3597 2675 3597 1894 
z
M 3022 2063 
Q 3016 2534 2758 2815 
Q 2500 3097 2075 3097 
Q 1594 3097 1305 2825 
Q 1016 2553 972 2059 
L 3022 2063 
z
" transform="scale(0.015625)"/>
       <path id="DejaVuSans-71" d="M 947 1747 
Q 947 1113 1208 752 
Q 1469 391 1925 391 
Q 2381 391 2643 752 
Q 2906 1113 2906 1747 
Q 2906 2381 2643 2742 
Q 2381 3103 1925 3103 
Q 1469 3103 1208 2742 
Q 947 2381 947 1747 
z
M 2906 525 
Q 2725 213 2448 61 
Q 2172 -91 1784 -91 
Q 1150 -91 751 415 
Q 353 922 353 1747 
Q 353 2572 751 3078 
Q 1150 3584 1784 3584 
Q 2172 3584 2448 3432 
Q 2725 3281 2906 2969 
L 2906 3500 
L 3481 3500 
L 3481 -1331 
L 2906 -1331 
L 2906 525 
z
" transform="scale(0.015625)"/>
       <path id="DejaVuSans-75" d="M 544 1381 
L 544 3500 
L 1119 3500 
L 1119 1403 
Q 1119 906 1312 657 
Q 1506 409 1894 409 
Q 2359 409 2629 706 
Q 2900 1003 2900 1516 
L 2900 3500 
L 3475 3500 
L 3475 0 
L 2900 0 
L 2900 538 
Q 2691 219 2414 64 
Q 2138 -91 1772 -91 
Q 1169 -91 856 284 
Q 544 659 544 1381 
z
M 1991 3584 
L 1991 3584 
z
" transform="scale(0.015625)"/>
       <path id="DejaVuSans-6e" d="M 3513 2113 
L 3513 0 
L 2938 0 
L 2938 2094 
Q 2938 2591 2744 2837 
Q 2550 3084 2163 3084 
Q 1697 3084 1428 2787 
Q 1159 2491 1159 1978 
L 1159 0 
L 581 0 
L 581 3500 
L 1159 3500 
L 1159 2956 
Q 1366 3272 1645 3428 
Q 1925 3584 2291 3584 
Q 2894 3584 3203 3211 
Q 3513 2838 3513 2113 
z
" transform="scale(0.015625)"/>
       <path id="DejaVuSans-63" d="M 3122 3366 
L 3122 2828 
Q 2878 2963 2633 3030 
Q 2388 3097 2138 3097 
Q 1578 3097 1268 2742 
Q 959 2388 959 1747 
Q 959 1106 1268 751 
Q 1578 397 2138 397 
Q 2388 397 2633 464 
Q 2878 531 3122 666 
L 3122 134 
Q 2881 22 2623 -34 
Q 2366 -91 2075 -91 
Q 1284 -91 818 406 
Q 353 903 353 1747 
Q 353 2603 823 3093 
Q 1294 3584 2113 3584 
Q 2378 3584 2631 3529 
Q 2884 3475 3122 3366 
z
" transform="scale(0.015625)"/>
       <path id="DejaVuSans-79" d="M 2059 -325 
Q 1816 -950 1584 -1140 
Q 1353 -1331 966 -1331 
L 506 -1331 
L 506 -850 
L 844 -850 
Q 1081 -850 1212 -737 
Q 1344 -625 1503 -206 
L 1606 56 
L 191 3500 
L 800 3500 
L 1894 763 
L 2988 3500 
L 3597 3500 
L 2059 -325 
z
" transform="scale(0.015625)"/>
       <path id="DejaVuSans-20" transform="scale(0.015625)"/>
       <path id="DejaVuSans-5b" d="M 550 4863 
L 1875 4863 
L 1875 4416 
L 1125 4416 
L 1125 -397 
L 1875 -397 
L 1875 -844 
L 550 -844 
L 550 4863 
z
" transform="scale(0.015625)"/>
       <path id="DejaVuSans-Oblique-48" d="M 1081 4666 
L 1716 4666 
L 1344 2753 
L 3634 2753 
L 4006 4666 
L 4641 4666 
L 3731 0 
L 3097 0 
L 3531 2222 
L 1241 2222 
L 806 0 
L 172 0 
L 1081 4666 
z
" transform="scale(0.015625)"/>
       <path id="DejaVuSans-Oblique-7a" d="M 744 3500 
L 3475 3500 
L 3372 2975 
L 738 459 
L 2913 459 
L 2822 0 
L -19 0 
L 84 525 
L 2719 3041 
L 653 3041 
L 744 3500 
z
" transform="scale(0.015625)"/>
       <path id="DejaVuSans-5d" d="M 1947 4863 
L 1947 -844 
L 622 -844 
L 622 -397 
L 1369 -397 
L 1369 4416 
L 622 4416 
L 622 4863 
L 1947 4863 
z
" transform="scale(0.015625)"/>
      </defs>
      <use xlink:href="#DejaVuSans-46" transform="translate(0 0.015625)"/>
      <use xlink:href="#DejaVuSans-72" transform="translate(57.519531 0.015625)"/>
      <use xlink:href="#DejaVuSans-65" transform="translate(98.632812 0.015625)"/>
      <use xlink:href="#DejaVuSans-71" transform="translate(160.15625 0.015625)"/>
      <use xlink:href="#DejaVuSans-75" transform="translate(223.632812 0.015625)"/>
      <use xlink:href="#DejaVuSans-65" transform="translate(287.011719 0.015625)"/>
      <use xlink:href="#DejaVuSans-6e" transform="translate(348.535156 0.015625)"/>
      <use xlink:href="#DejaVuSans-63" transform="translate(411.914062 0.015625)"/>
      <use xlink:href="#DejaVuSans-79" transform="translate(466.894531 0.015625)"/>
      <use xlink:href="#DejaVuSans-20" transform="translate(526.074219 0.015625)"/>
      <use xlink:href="#DejaVuSans-5b" transform="translate(557.861328 0.015625)"/>
      <use xlink:href="#DejaVuSans-Oblique-48" transform="translate(596.875 0.015625)"/>
      <use xlink:href="#DejaVuSans-Oblique-7a" transform="translate(672.070312 0.015625)"/>
      <use xlink:href="#DejaVuSans-5d" transform="translate(724.560547 0.015625)"/>
     </g>
    </g>
   </g>
   <g id="matplotlib.axis_2">
    <g id="ytick_1">
     <g id="line2d_8">
      <defs>
       <path id="m3c96862fee" d="M 0 0 
L -3.5 0 
" style="stroke: #000000; stroke-width: 0.8"/>
      </defs>
      <g>
       <use xlink:href="#m3c96862fee" x="57.6" y="288.568792" style="stroke: #000000; stroke-width: 0.8"/>
      </g>
     </g>
     <g id="text_9">
      <!-- −20 -->
      <g transform="translate(29.495313 292.368011) scale(0.1 -0.1)">
       <use xlink:href="#DejaVuSans-2212"/>
       <use xlink:href="#DejaVuSans-32" x="83.789062"/>
       <use xlink:href="#DejaVuSans-30" x="147.412109"/>
      </g>
     </g>
    </g>
    <g id="ytick_2">
     <g id="line2d_9">
      <g>
       <use xlink:href="#m3c96862fee" x="57.6" y="250.538376" style="stroke: #000000; stroke-width: 0.8"/>
      </g>
     </g>
     <g id="text_10">
      <!-- −10 -->
      <g transform="translate(29.495313 254.337595) scale(0.1 -0.1)">
       <use xlink:href="#DejaVuSans-2212"/>
       <use xlink:href="#DejaVuSans-31" x="83.789062"/>
       <use xlink:href="#DejaVuSans-30" x="147.412109"/>
      </g>
     </g>
    </g>
    <g id="ytick_3">
     <g id="line2d_10">
      <g>
       <use xlink:href="#m3c96862fee" x="57.6" y="212.50796" style="stroke: #000000; stroke-width: 0.8"/>
      </g>
     </g>
     <g id="text_11">
      <!-- 0 -->
      <g transform="translate(44.2375 216.307179) scale(0.1 -0.1)">
       <use xlink:href="#DejaVuSans-30"/>
      </g>
     </g>
    </g>
    <g id="ytick_4">
     <g id="line2d_11">
      <g>
       <use xlink:href="#m3c96862fee" x="57.6" y="174.477544" style="stroke: #000000; stroke-width: 0.8"/>
      </g>
     </g>
     <g id="text_12">
      <!-- 10 -->
      <g transform="translate(37.875 178.276763) scale(0.1 -0.1)">
       <use xlink:href="#DejaVuSans-31"/>
       <use xlink:href="#DejaVuSans-30" x="63.623047"/>
      </g>
     </g>
    </g>
    <g id="ytick_5">
     <g id="line2d_12">
      <g>
       <use xlink:href="#m3c96862fee" x="57.6" y="136.447129" style="stroke: #000000; stroke-width: 0.8"/>
      </g>
     </g>
     <g id="text_13">
      <!-- 20 -->
      <g transform="translate(37.875 140.246347) scale(0.1 -0.1)">
       <use xlink:href="#DejaVuSans-32"/>
       <use xlink:href="#DejaVuSans-30" x="63.623047"/>
      </g>
     </g>
    </g>
    <g id="ytick_6">
     <g id="line2d_13">
      <g>
       <use xlink:href="#m3c96862fee" x="57.6" y="98.416713" style="stroke: #000000; stroke-width: 0.8"/>
      </g>
     </g>
     <g id="text_14">
      <!-- 30 -->
      <g transform="translate(37.875 102.215932) scale(0.1 -0.1)">
       <use xlink:href="#DejaVuSans-33"/>
       <use xlink:href="#DejaVuSans-30" x="63.623047"/>
      </g>
     </g>
    </g>
    <g id="ytick_7">
     <g id="line2d_14">
      <g>
       <use xlink:href="#m3c96862fee" x="57.6" y="60.386297" style="stroke: #000000; stroke-width: 0.8"/>
      </g>
     </g>
     <g id="text_15">
      <!-- 40 -->
      <g transform="translate(37.875 64.185516) scale(0.1 -0.1)">
       <defs>
        <path id="DejaVuSans-34" d="M 2419 4116 
L 825 1625 
L 2419 1625 
L 2419 4116 
z
M 2253 4666 
L 3047 4666 
L 3047 1625 
L 3713 1625 
L 3713 1100 
L 3047 1100 
L 3047 0 
L 2419 0 
L 2419 1100 
L 313 1100 
L 313 1709 
L 2253 4666 
z
" transform="scale(0.015625)"/>
       </defs>
       <use xlink:href="#DejaVuSans-34"/>
       <use xlink:href="#DejaVuSans-30" x="63.623047"/>
      </g>
     </g>
    </g>
    <g id="text_16">
     <!-- Amplitude [dB] -->
     <g transform="translate(23.415625 212.245969) rotate(-90) scale(0.1 -0.1)">
      <defs>
       <path id="DejaVuSans-41" d="M 2188 4044 
L 1331 1722 
L 3047 1722 
L 2188 4044 
z
M 1831 4666 
L 2547 4666 
L 4325 0 
L 3669 0 
L 3244 1197 
L 1141 1197 
L 716 0 
L 50 0 
L 1831 4666 
z
" transform="scale(0.015625)"/>
       <path id="DejaVuSans-6d" d="M 3328 2828 
Q 3544 3216 3844 3400 
Q 4144 3584 4550 3584 
Q 5097 3584 5394 3201 
Q 5691 2819 5691 2113 
L 5691 0 
L 5113 0 
L 5113 2094 
Q 5113 2597 4934 2840 
Q 4756 3084 4391 3084 
Q 3944 3084 3684 2787 
Q 3425 2491 3425 1978 
L 3425 0 
L 2847 0 
L 2847 2094 
Q 2847 2600 2669 2842 
Q 2491 3084 2119 3084 
Q 1678 3084 1418 2786 
Q 1159 2488 1159 1978 
L 1159 0 
L 581 0 
L 581 3500 
L 1159 3500 
L 1159 2956 
Q 1356 3278 1631 3431 
Q 1906 3584 2284 3584 
Q 2666 3584 2933 3390 
Q 3200 3197 3328 2828 
z
" transform="scale(0.015625)"/>
       <path id="DejaVuSans-70" d="M 1159 525 
L 1159 -1331 
L 581 -1331 
L 581 3500 
L 1159 3500 
L 1159 2969 
Q 1341 3281 1617 3432 
Q 1894 3584 2278 3584 
Q 2916 3584 3314 3078 
Q 3713 2572 3713 1747 
Q 3713 922 3314 415 
Q 2916 -91 2278 -91 
Q 1894 -91 1617 61 
Q 1341 213 1159 525 
z
M 3116 1747 
Q 3116 2381 2855 2742 
Q 2594 3103 2138 3103 
Q 1681 3103 1420 2742 
Q 1159 2381 1159 1747 
Q 1159 1113 1420 752 
Q 1681 391 2138 391 
Q 2594 391 2855 752 
Q 3116 1113 3116 1747 
z
" transform="scale(0.015625)"/>
       <path id="DejaVuSans-6c" d="M 603 4863 
L 1178 4863 
L 1178 0 
L 603 0 
L 603 4863 
z
" transform="scale(0.015625)"/>
       <path id="DejaVuSans-69" d="M 603 3500 
L 1178 3500 
L 1178 0 
L 603 0 
L 603 3500 
z
M 603 4863 
L 1178 4863 
L 1178 4134 
L 603 4134 
L 603 4863 
z
" transform="scale(0.015625)"/>
       <path id="DejaVuSans-74" d="M 1172 4494 
L 1172 3500 
L 2356 3500 
L 2356 3053 
L 1172 3053 
L 1172 1153 
Q 1172 725 1289 603 
Q 1406 481 1766 481 
L 2356 481 
L 2356 0 
L 1766 0 
Q 1100 0 847 248 
Q 594 497 594 1153 
L 594 3053 
L 172 3053 
L 172 3500 
L 594 3500 
L 594 4494 
L 1172 4494 
z
" transform="scale(0.015625)"/>
       <path id="DejaVuSans-64" d="M 2906 2969 
L 2906 4863 
L 3481 4863 
L 3481 0 
L 2906 0 
L 2906 525 
Q 2725 213 2448 61 
Q 2172 -91 1784 -91 
Q 1150 -91 751 415 
Q 353 922 353 1747 
Q 353 2572 751 3078 
Q 1150 3584 1784 3584 
Q 2172 3584 2448 3432 
Q 2725 3281 2906 2969 
z
M 947 1747 
Q 947 1113 1208 752 
Q 1469 391 1925 391 
Q 2381 391 2643 752 
Q 2906 1113 2906 1747 
Q 2906 2381 2643 2742 
Q 2381 3103 1925 3103 
Q 1469 3103 1208 2742 
Q 947 2381 947 1747 
z
" transform="scale(0.015625)"/>
       <path id="DejaVuSans-42" d="M 1259 2228 
L 1259 519 
L 2272 519 
Q 2781 519 3026 730 
Q 3272 941 3272 1375 
Q 3272 1813 3026 2020 
Q 2781 2228 2272 2228 
L 1259 2228 
z
M 1259 4147 
L 1259 2741 
L 2194 2741 
Q 2656 2741 2882 2914 
Q 3109 3088 3109 3444 
Q 3109 3797 2882 3972 
Q 2656 4147 2194 4147 
L 1259 4147 
z
M 628 4666 
L 2241 4666 
Q 2963 4666 3353 4366 
Q 3744 4066 3744 3513 
Q 3744 3084 3544 2831 
Q 3344 2578 2956 2516 
Q 3422 2416 3680 2098 
Q 3938 1781 3938 1306 
Q 3938 681 3513 340 
Q 3088 0 2303 0 
L 628 0 
L 628 4666 
z
" transform="scale(0.015625)"/>
      </defs>
      <use xlink:href="#DejaVuSans-41"/>
      <use xlink:href="#DejaVuSans-6d" x="68.408203"/>
      <use xlink:href="#DejaVuSans-70" x="165.820312"/>
      <use xlink:href="#DejaVuSans-6c" x="229.296875"/>
      <use xlink:href="#DejaVuSans-69" x="257.080078"/>
      <use xlink:href="#DejaVuSans-74" x="284.863281"/>
      <use xlink:href="#DejaVuSans-75" x="324.072266"/>
      <use xlink:href="#DejaVuSans-64" x="387.451172"/>
      <use xlink:href="#DejaVuSans-65" x="450.927734"/>
      <use xlink:href="#DejaVuSans-20" x="512.451172"/>
      <use xlink:href="#DejaVuSans-5b" x="544.238281"/>
      <use xlink:href="#DejaVuSans-64" x="583.251953"/>
      <use xlink:href="#DejaVuSans-42" x="646.728516"/>
      <use xlink:href="#DejaVuSans-5d" x="715.332031"/>
     </g>
    </g>
   </g>
   <g id="line2d_15">
    <path d="M 73.832727 284.387069 
L 84.967717 284.27493 
L 94.594844 283.965671 
L 115.35696 282.935163 
L 125.796013 282.12866 
L 136.119076 281.104259 
L 146.210161 279.86018 
L 158.969003 277.874965 
L 161.404782 277.417883 
L 162.680666 277.196225 
L 165.116445 276.700925 
L 166.160351 276.488803 
L 172.655761 275.053334 
L 175.323519 274.394916 
L 175.671488 274.380645 
L 175.903467 274.232601 
L 176.135446 274.263768 
L 176.483414 274.13185 
L 176.831383 274.061358 
L 177.063362 273.951182 
L 177.643309 273.80381 
L 177.759298 273.872626 
L 177.875288 273.714346 
L 178.107267 273.772138 
L 178.571225 273.546374 
L 178.803204 273.568916 
L 179.035183 273.391922 
L 179.267162 273.470006 
L 179.383151 273.294749 
L 179.61513 273.313347 
L 179.847109 273.178604 
L 180.195077 273.133592 
L 180.427056 272.995928 
L 180.543046 273.09245 
L 180.891014 272.990942 
L 181.586951 272.799895 
L 181.81893 272.565758 
L 181.93492 272.557506 
L 182.166899 272.667756 
L 182.514867 272.407808 
L 182.630856 272.465043 
L 182.746846 272.285678 
L 182.978825 272.342571 
L 183.442783 272.144988 
L 183.558772 272.368897 
L 183.906741 271.945387 
L 184.02273 272.044181 
L 184.254709 271.951368 
L 184.718667 271.68718 
L 184.950646 271.866318 
L 185.182625 271.630874 
L 185.298614 271.466268 
L 185.530593 271.528286 
L 185.762572 271.422066 
L 185.878562 271.692299 
L 185.994551 271.295574 
L 186.110541 271.466668 
L 186.574499 271.180825 
L 186.690488 271.303142 
L 187.038457 270.958038 
L 187.270436 270.810556 
L 187.386425 270.756824 
L 187.502414 271.128729 
L 187.966372 270.635806 
L 188.198351 270.671363 
L 188.314341 270.828954 
L 188.662309 270.384263 
L 189.010278 270.619085 
L 189.126267 270.676451 
L 189.358246 269.965436 
L 189.474236 270.418921 
L 189.590225 269.813502 
L 189.938194 270.031139 
L 190.286162 269.899072 
L 190.402151 269.724841 
L 190.518141 270.137655 
L 190.75012 269.561202 
L 190.866109 269.84589 
L 190.982099 269.6038 
L 191.098088 269.740572 
L 191.214078 269.542364 
L 191.330067 269.865835 
L 191.446057 269.567997 
L 191.562046 268.912619 
L 191.678036 269.571107 
L 191.794025 269.475182 
L 192.141994 268.842279 
L 192.373973 269.779387 
L 192.605951 269.050738 
L 192.721941 269.64311 
L 192.95392 268.520752 
L 193.185899 269.258695 
L 193.301888 269.307674 
L 193.417878 268.008913 
L 193.533867 268.898954 
L 193.765846 268.538877 
L 193.881836 267.636432 
L 194.113815 268.943547 
L 194.229804 267.928388 
L 194.461783 268.578919 
L 194.693762 267.765585 
L 194.925741 268.514798 
L 195.04173 268.172135 
L 195.15772 268.599873 
L 195.273709 268.021921 
L 195.621678 268.402106 
L 195.853657 267.705601 
L 195.969646 267.957189 
L 196.317615 266.738441 
L 196.433604 267.820105 
L 196.549594 266.881211 
L 196.665583 268.111424 
L 196.781573 265.727878 
L 197.013552 267.559289 
L 197.129541 267.335031 
L 197.245531 266.415324 
L 197.47751 268.269756 
L 197.709488 266.554739 
L 197.825478 266.802929 
L 197.941467 268.337795 
L 198.057457 268.281384 
L 198.289436 266.40822 
L 198.405425 266.890431 
L 198.521415 264.841471 
L 198.637404 269.564574 
L 198.753394 265.926809 
L 198.985373 267.165298 
L 199.101362 266.544538 
L 199.217352 267.715636 
L 199.449331 266.255708 
L 199.56532 266.611961 
L 199.68131 264.949412 
L 199.913289 266.738 
L 200.029278 265.683301 
L 200.145267 266.833094 
L 200.493236 264.729281 
L 200.609225 265.599052 
L 200.725215 265.11082 
L 200.841204 262.853648 
L 200.957194 266.350708 
L 201.421152 262.871723 
L 201.537141 263.102774 
L 201.653131 263.65994 
L 201.76912 262.33673 
L 202.117089 266.212277 
L 202.233078 263.258497 
L 202.349068 265.94058 
L 202.465057 264.775316 
L 202.581046 266.241436 
L 202.697036 263.621189 
L 202.813025 264.52947 
L 203.045004 262.789592 
L 203.160994 262.711305 
L 203.392973 266.128675 
L 203.508962 270.392872 
L 203.740941 261.798398 
L 203.856931 264.165001 
L 204.08891 263.168187 
L 204.204899 265.163045 
L 204.320889 272.381321 
L 204.436878 263.550081 
L 204.552868 263.388951 
L 204.668857 264.400996 
L 204.900836 273.215231 
L 205.016825 262.31674 
L 205.132815 265.128506 
L 205.248804 258.971836 
L 205.364794 260.383024 
L 205.480783 266.949388 
L 205.712762 257.581518 
L 205.828752 268.561608 
L 205.944741 262.806691 
L 206.060731 274.769246 
L 206.17672 267.907413 
L 206.29271 269.308113 
L 206.408699 256.505951 
L 206.524689 263.465773 
L 206.640678 260.438463 
L 206.872657 264.231306 
L 206.988647 260.254273 
L 207.104636 260.910003 
L 207.452605 254.897769 
L 207.684583 264.85192 
L 207.800573 262.315134 
L 207.916562 262.636869 
L 208.38052 253.281152 
L 208.612499 263.076517 
L 208.844478 253.870039 
L 208.960468 270.435537 
L 209.076457 265.00465 
L 209.192447 267.172285 
L 209.308436 256.204112 
L 209.424426 271.182018 
L 209.540415 258.783153 
L 209.656405 260.424538 
L 209.888384 255.208863 
L 210.004373 264.899985 
L 210.120362 254.642423 
L 210.236352 257.82077 
L 210.352341 266.510683 
L 210.58432 246.632111 
L 210.816299 266.13983 
L 210.932289 263.149067 
L 211.164268 254.813787 
L 211.280257 253.505293 
L 211.396247 259.130546 
L 211.512236 284.655026 
L 211.628226 252.202684 
L 211.860205 280.52399 
L 212.092184 251.821534 
L 212.208173 252.036849 
L 212.324163 248.075931 
L 212.440152 257.765774 
L 212.556141 252.429704 
L 212.672131 260.03834 
L 212.78812 256.146979 
L 213.020099 269.834328 
L 213.136089 253.884962 
L 213.252078 256.170342 
L 213.368068 245.143852 
L 213.484057 245.552441 
L 213.600047 256.953723 
L 213.716036 248.282691 
L 213.832026 256.477346 
L 213.948015 243.993234 
L 214.179994 270.110543 
L 214.295984 241.497658 
L 214.411973 243.613035 
L 214.527963 256.738538 
L 214.643952 241.714811 
L 214.759942 250.093896 
L 214.875931 236.147966 
L 214.99192 258.665185 
L 215.223899 232.942939 
L 215.339889 234.753749 
L 215.571868 261.061192 
L 215.687857 247.653726 
L 215.803847 268.695396 
L 215.919836 239.777237 
L 216.035826 240.708792 
L 216.151815 236.771252 
L 216.267805 241.323134 
L 216.499784 290.938253 
L 216.615773 243.918212 
L 216.731763 248.819448 
L 216.847752 272.109349 
L 216.963742 262.656679 
L 217.079731 238.044944 
L 217.31171 271.704167 
L 217.4277 238.06973 
L 217.543689 236.827697 
L 217.659678 241.0131 
L 217.775668 235.372049 
L 217.891657 253.439265 
L 218.007647 235.218781 
L 218.123636 254.338511 
L 218.239626 232.554114 
L 218.355615 251.235318 
L 218.587594 244.605842 
L 218.703584 266.758629 
L 218.819573 238.336636 
L 218.935563 240.601203 
L 219.051552 228.06919 
L 219.167542 246.340019 
L 219.283531 233.488118 
L 219.399521 269.898472 
L 219.51551 234.887688 
L 219.6315 251.19983 
L 219.863479 237.990575 
L 219.979468 257.985516 
L 220.211447 234.001285 
L 220.443426 242.893817 
L 220.675405 237.321475 
L 220.791394 240.657398 
L 220.907384 232.609117 
L 221.023373 256.621745 
L 221.139363 241.177326 
L 221.255352 274.071023 
L 221.371342 265.548825 
L 221.487331 247.367574 
L 221.603321 253.711715 
L 221.8353 231.218275 
L 221.951289 244.552913 
L 222.067279 236.549971 
L 222.183268 239.616407 
L 222.299258 246.430182 
L 222.415247 236.324537 
L 222.531236 243.745778 
L 222.763215 228.933866 
L 222.995194 246.225122 
L 223.111184 228.587372 
L 223.343163 247.088468 
L 223.459152 236.080598 
L 223.691131 270.574882 
L 223.807121 242.026609 
L 223.92311 255.898017 
L 224.155089 238.758859 
L 224.271079 238.238828 
L 224.387068 244.828316 
L 224.619047 240.094941 
L 224.735037 257.121347 
L 224.851026 256.616766 
L 224.967015 250.827353 
L 225.083005 236.336543 
L 225.198994 245.573177 
L 225.314984 240.321862 
L 225.430973 243.30215 
L 225.546963 243.199684 
L 225.662952 252.399307 
L 225.778942 276.838654 
L 226.010921 231.91377 
L 226.12691 263.456166 
L 226.2429 245.598481 
L 226.358889 250.448453 
L 226.474879 241.64351 
L 226.706858 249.822485 
L 226.822847 245.615727 
L 226.938837 252.731301 
L 227.054826 244.922012 
L 227.170816 255.028975 
L 227.286805 243.407786 
L 227.402795 252.979686 
L 227.518784 252.854545 
L 227.750763 266.501468 
L 227.866752 241.612639 
L 227.982742 256.964892 
L 228.098731 239.812491 
L 228.33071 250.197759 
L 228.4467 248.630922 
L 228.562689 239.304967 
L 228.678679 242.974699 
L 228.794668 241.620752 
L 228.910658 245.667937 
L 229.026647 242.144985 
L 229.142637 255.458935 
L 229.258626 229.362546 
L 229.490605 234.980995 
L 229.606595 238.667775 
L 229.838574 227.055398 
L 229.954563 230.676453 
L 230.070552 246.513763 
L 230.302531 228.018184 
L 230.418521 228.67348 
L 230.53451 222.520271 
L 230.6505 235.673043 
L 230.882479 223.734569 
L 230.998468 241.699291 
L 231.114458 237.526594 
L 231.230447 221.834952 
L 231.346437 229.000561 
L 231.462426 222.290191 
L 231.578416 233.505592 
L 231.694405 221.256917 
L 231.810395 223.90862 
L 231.926384 234.406227 
L 232.158363 224.678251 
L 232.390342 237.503482 
L 232.506331 229.753996 
L 232.622321 241.283907 
L 232.73831 241.046011 
L 232.8543 225.916893 
L 232.970289 227.77266 
L 233.086279 223.104896 
L 233.202268 227.01232 
L 233.318258 216.957027 
L 233.434247 218.643016 
L 233.666226 256.331671 
L 233.898205 229.1705 
L 234.014195 236.549203 
L 234.478153 201.747999 
L 234.594142 203.629779 
L 234.710132 193.949706 
L 234.826121 211.068631 
L 234.94211 196.911146 
L 235.290079 224.487136 
L 235.406068 200.021398 
L 235.522058 203.771686 
L 235.754037 182.116412 
L 235.870026 172.710867 
L 235.986016 175.944412 
L 236.102005 166.000527 
L 236.217995 53.351345 
L 236.449974 175.944412 
L 236.565963 172.710867 
L 236.913932 203.771686 
L 237.029921 200.021398 
L 237.145911 224.487136 
L 237.37789 207.595231 
L 237.493879 196.911146 
L 237.609868 211.068631 
L 237.725858 193.949706 
L 237.841847 203.629779 
L 237.957837 201.747999 
L 238.421795 236.549203 
L 238.537784 229.1705 
L 238.653774 234.450091 
L 238.769763 256.331671 
L 239.001742 218.643016 
L 239.117732 216.957027 
L 239.233721 227.01232 
L 239.349711 223.104896 
L 239.4657 227.77266 
L 239.58169 225.916893 
L 239.697679 241.046011 
L 239.813669 241.283907 
L 239.929658 229.753996 
L 240.045647 237.503482 
L 240.277626 224.678251 
L 240.509605 234.406227 
L 240.741584 221.256917 
L 240.857574 233.505592 
L 240.973563 222.290191 
L 241.089553 229.000561 
L 241.205542 221.834952 
L 241.437521 241.699291 
L 241.553511 223.734569 
L 241.78549 235.673043 
L 241.901479 222.520271 
L 242.017469 228.67348 
L 242.133458 228.018184 
L 242.249448 232.248702 
L 242.365437 246.513763 
L 242.597416 227.055398 
L 242.713405 229.623816 
L 242.829395 238.667775 
L 243.177363 229.362546 
L 243.293353 255.458935 
L 243.409342 242.144985 
L 243.525332 245.667937 
L 243.641321 241.620752 
L 243.757311 242.974699 
L 243.8733 239.304967 
L 244.105279 250.197759 
L 244.337258 239.812491 
L 244.453248 256.964892 
L 244.569237 241.612639 
L 244.685227 266.501468 
L 245.149184 243.407786 
L 245.265174 255.028975 
L 245.381163 244.922012 
L 245.497153 252.731301 
L 245.613142 245.615727 
L 245.729132 249.822485 
L 245.845121 248.006633 
L 245.961111 241.64351 
L 246.0771 250.448453 
L 246.19309 245.598481 
L 246.309079 263.456166 
L 246.425069 231.91377 
L 246.541058 234.820568 
L 246.657048 276.838654 
L 246.889027 243.199684 
L 247.005016 243.30215 
L 247.121006 240.321862 
L 247.236995 245.573177 
L 247.352985 236.336543 
L 247.584963 256.616766 
L 247.700953 257.121347 
L 247.816942 240.094941 
L 248.048921 244.828316 
L 248.164911 238.238828 
L 248.2809 238.758859 
L 248.39689 241.215033 
L 248.512879 255.898017 
L 248.628869 242.026609 
L 248.744858 270.574882 
L 248.976837 236.080598 
L 249.092827 247.088468 
L 249.208816 245.980732 
L 249.324806 228.587372 
L 249.440795 246.225122 
L 249.672774 228.933866 
L 249.904753 243.745778 
L 250.020742 236.324537 
L 250.136732 246.430182 
L 250.368711 236.549971 
L 250.4847 244.552913 
L 250.60069 231.218275 
L 250.716679 235.340797 
L 250.832669 253.711715 
L 250.948658 247.367574 
L 251.180637 274.071023 
L 251.296627 241.177326 
L 251.412616 256.621745 
L 251.528606 232.609117 
L 251.644595 240.657398 
L 251.760585 237.321475 
L 251.992564 242.893817 
L 252.108553 242.054072 
L 252.224543 234.001285 
L 252.456521 257.985516 
L 252.572511 237.990575 
L 252.80449 251.19983 
L 252.920479 234.887688 
L 253.036469 269.898472 
L 253.152458 233.488118 
L 253.268448 246.340019 
L 253.384437 228.06919 
L 253.500427 240.601203 
L 253.616416 238.336636 
L 253.732406 266.758629 
L 253.848395 244.605842 
L 253.964385 246.743728 
L 254.080374 251.235318 
L 254.196364 232.554114 
L 254.312353 254.338511 
L 254.428343 235.218781 
L 254.544332 253.439265 
L 254.660322 235.372049 
L 254.776311 241.0131 
L 254.8923 236.827697 
L 255.00829 238.06973 
L 255.124279 271.704167 
L 255.356258 238.044944 
L 255.588237 272.109349 
L 255.820216 243.918212 
L 255.936206 290.938253 
L 256.284174 236.771252 
L 256.400164 240.708792 
L 256.516153 239.777237 
L 256.632143 268.695396 
L 256.748132 247.653726 
L 256.864122 261.061192 
L 256.980111 253.700805 
L 257.21209 232.942939 
L 257.32808 238.149636 
L 257.444069 258.665185 
L 257.560058 236.147966 
L 257.676048 250.093896 
L 257.792037 241.714811 
L 257.908027 256.738538 
L 258.140006 241.497658 
L 258.255995 270.110543 
L 258.487974 243.993234 
L 258.603964 256.477346 
L 258.719953 248.282691 
L 258.835943 256.953723 
L 258.951932 245.552441 
L 259.067922 245.143852 
L 259.183911 256.170342 
L 259.299901 253.884962 
L 259.41589 269.834328 
L 259.53188 265.986868 
L 259.647869 256.146979 
L 259.763859 260.03834 
L 259.879848 252.429704 
L 259.995837 257.765774 
L 260.111827 248.075931 
L 260.227816 252.036849 
L 260.343806 251.821534 
L 260.459795 258.254766 
L 260.575785 280.52399 
L 260.807764 252.202684 
L 260.923753 284.655026 
L 261.155732 253.505293 
L 261.387711 255.982723 
L 261.61969 266.13983 
L 261.851669 246.632111 
L 262.083648 266.510683 
L 262.315627 254.642423 
L 262.431616 264.899985 
L 262.547606 255.208863 
L 262.779585 260.424538 
L 262.895574 258.783153 
L 263.011564 271.182018 
L 263.127553 256.204112 
L 263.243543 267.172285 
L 263.359532 265.00465 
L 263.475522 270.435537 
L 263.591511 253.870039 
L 263.82349 263.076517 
L 264.055469 253.281152 
L 264.287448 254.308396 
L 264.519427 262.636869 
L 264.635417 262.315134 
L 264.751406 264.85192 
L 264.983385 254.897769 
L 265.215364 259.284816 
L 265.331353 260.910003 
L 265.447343 260.254273 
L 265.563332 264.231306 
L 265.795311 260.438463 
L 265.911301 263.465773 
L 266.02729 256.505951 
L 266.14328 269.308113 
L 266.259269 267.907413 
L 266.375259 274.769246 
L 266.491248 262.806691 
L 266.607238 268.561608 
L 266.723227 257.581518 
L 266.955206 266.949388 
L 267.187185 258.971836 
L 267.303175 265.128506 
L 267.419164 262.31674 
L 267.535153 273.215231 
L 267.767132 264.400996 
L 267.883122 263.388951 
L 267.999111 263.550081 
L 268.115101 272.381321 
L 268.34708 263.168187 
L 268.463069 263.459693 
L 268.579059 264.165001 
L 268.695048 261.798398 
L 268.927027 270.392872 
L 269.159006 264.032913 
L 269.274996 262.711305 
L 269.390985 262.789592 
L 269.622964 264.52947 
L 269.738954 263.621189 
L 269.854943 266.241436 
L 269.970932 264.775316 
L 270.086922 265.94058 
L 270.202911 263.258497 
L 270.318901 266.212277 
L 270.43489 266.055495 
L 270.666869 262.33673 
L 270.782859 263.65994 
L 271.014838 262.871723 
L 271.246817 265.352566 
L 271.362806 265.4481 
L 271.478796 266.350708 
L 271.594785 262.853648 
L 271.826764 265.599052 
L 271.942754 264.729281 
L 272.058743 264.959745 
L 272.290722 266.833094 
L 272.406711 265.683301 
L 272.522701 266.738 
L 272.63869 266.599862 
L 272.75468 264.949412 
L 272.870669 266.611961 
L 272.986659 266.255708 
L 273.218638 267.715636 
L 273.334627 266.544538 
L 273.450617 267.165298 
L 273.682596 265.926809 
L 273.798585 269.564574 
L 273.914575 264.841471 
L 274.030564 266.890431 
L 274.146554 266.40822 
L 274.494522 268.337795 
L 274.726501 266.554739 
L 274.84249 267.111673 
L 274.95848 268.269756 
L 275.074469 267.706147 
L 275.190459 266.415324 
L 275.422438 267.559289 
L 275.538427 267.403041 
L 275.654417 265.727878 
L 275.770406 268.111424 
L 275.886396 266.881211 
L 276.002385 267.820105 
L 276.118375 266.738441 
L 276.466343 267.957189 
L 276.582333 267.705601 
L 276.930301 268.420904 
L 277.16228 268.021921 
L 277.27827 268.599873 
L 277.394259 268.172135 
L 277.510248 268.514798 
L 277.742227 267.765585 
L 277.974206 268.578919 
L 278.206185 267.928388 
L 278.322175 268.943547 
L 278.554154 267.636432 
L 278.786133 268.696106 
L 278.902122 268.898954 
L 279.018112 268.008913 
L 279.134101 269.307674 
L 279.250091 269.258695 
L 279.48207 268.520752 
L 279.598059 268.825791 
L 279.714049 269.64311 
L 279.830038 269.050738 
L 279.946027 269.17862 
L 280.062017 269.779387 
L 280.178006 269.687811 
L 280.293996 268.842279 
L 280.525975 269.175217 
L 280.757954 269.571107 
L 280.873943 268.912619 
L 281.105922 269.865835 
L 281.221912 269.542364 
L 281.337901 269.740572 
L 281.453891 269.6038 
L 281.56988 269.84589 
L 281.68587 269.561202 
L 281.917849 270.137655 
L 282.033838 269.724841 
L 282.265817 270.041622 
L 282.729775 269.920775 
L 282.845764 269.813502 
L 282.961754 270.418921 
L 283.077743 269.965436 
L 283.309722 270.676451 
L 283.425712 270.619085 
L 283.657691 270.424244 
L 283.77368 270.384263 
L 284.121649 270.828954 
L 284.353628 270.651428 
L 284.585607 270.663633 
L 284.933575 271.128729 
L 285.049564 270.756824 
L 285.513522 271.073399 
L 285.745501 271.303142 
L 285.861491 271.180825 
L 285.97748 271.339616 
L 286.09347 271.256149 
L 286.325449 271.466668 
L 286.441438 271.295574 
L 286.557428 271.692299 
L 286.673417 271.422066 
L 287.021386 271.559226 
L 287.137375 271.466268 
L 287.485343 271.866318 
L 287.949301 271.79102 
L 288.18128 271.951368 
L 288.29727 271.931784 
L 288.413259 272.044181 
L 288.529249 271.945387 
L 288.761228 272.157563 
L 288.877217 272.368897 
L 288.993207 272.144988 
L 289.225186 272.315339 
L 289.689144 272.285678 
L 289.805133 272.465043 
L 289.921122 272.407808 
L 290.269091 272.667756 
L 290.38508 272.683318 
L 290.617059 272.565758 
L 291.081017 272.873295 
L 291.312996 272.87038 
L 291.544975 272.990942 
L 291.660965 272.89688 
L 291.892944 273.09245 
L 292.008933 272.995928 
L 292.472891 273.197422 
L 292.70487 273.218951 
L 292.936849 273.335214 
L 293.052838 273.294749 
L 293.168828 273.470006 
L 293.516796 273.461038 
L 293.748775 273.585677 
L 293.864765 273.546374 
L 293.980754 273.668121 
L 294.096744 273.616899 
L 294.444712 273.794541 
L 294.560702 273.714346 
L 294.676691 273.872626 
L 294.90867 273.828255 
L 295.720596 274.059726 
L 296.648512 274.291134 
L 296.880491 274.397273 
L 299.31627 274.946671 
L 299.664239 275.022094 
L 302.679965 275.725817 
L 304.187828 276.049136 
L 304.419807 276.115084 
L 304.767776 276.199692 
L 305.92767 276.415944 
L 306.275639 276.488803 
L 310.33527 277.305123 
L 311.263186 277.469633 
L 313.930944 277.954207 
L 316.830681 278.4504 
L 324.949944 279.683981 
L 330.749418 280.451014 
L 337.592797 281.244502 
L 346.639977 282.12866 
L 359.16684 283.067834 
L 369.257925 283.570043 
L 388.976136 284.303859 
L 398.487273 284.387057 
L 398.487273 284.387057 
" clip-path="url(#p31dbc639eb)" style="fill: none; stroke: #008000; stroke-width: 1.5; stroke-linecap: square"/>
   </g>
   <g id="patch_3">
    <path d="M 57.6 307.584 
L 57.6 41.472 
" style="fill: none; stroke: #000000; stroke-width: 0.8; stroke-linejoin: miter; stroke-linecap: square"/>
   </g>
   <g id="patch_4">
    <path d="M 414.72 307.584 
L 414.72 41.472 
" style="fill: none; stroke: #000000; stroke-width: 0.8; stroke-linejoin: miter; stroke-linecap: square"/>
   </g>
   <g id="patch_5">
    <path d="M 57.6 307.584 
L 414.72 307.584 
" style="fill: none; stroke: #000000; stroke-width: 0.8; stroke-linejoin: miter; stroke-linecap: square"/>
   </g>
   <g id="patch_6">
    <path d="M 57.6 41.472 
L 414.72 41.472 
" style="fill: none; stroke: #000000; stroke-width: 0.8; stroke-linejoin: miter; stroke-linecap: square"/>
   </g>
  </g>
 </g>
 <defs>
  <clipPath id="p31dbc639eb">
   <rect x="57.6" y="41.472" width="357.12" height="266.112"/>
  </clipPath>
 </defs>
</svg>
