<?xml version="1.0" encoding="utf-8" standalone="no"?>
<!DOCTYPE svg PUBLIC "-//W3C//DTD SVG 1.1//EN"
  "http://www.w3.org/Graphics/SVG/1.1/DTD/svg11.dtd">
<svg xmlns:xlink="http://www.w3.org/1999/xlink" width="460.8pt" height="345.6pt" viewBox="0 0 460.8 345.6" xmlns="http://www.w3.org/2000/svg" version="1.1">
 <metadata>
  <rdf:RDF xmlns:dc="http://purl.org/dc/elements/1.1/" xmlns:cc="http://creativecommons.org/ns#" xmlns:rdf="http://www.w3.org/1999/02/22-rdf-syntax-ns#">
   <cc:Work>
    <dc:type rdf:resource="http://purl.org/dc/dcmitype/StillImage"/>
    <dc:date>2024-05-24T11:06:07.800515</dc:date>
    <dc:format>image/svg+xml</dc:format>
    <dc:creator>
     <cc:Agent>
      <dc:title>Matplotlib v3.8.2, https://matplotlib.org/</dc:title>
     </cc:Agent>
    </dc:creator>
   </cc:Work>
  </rdf:RDF>
 </metadata>
 <defs>
  <style type="text/css">*{stroke-linejoin: round; stroke-linecap: butt}</style>
 </defs>
 <g id="figure_1">
  <g id="patch_1">
   <path d="M 0 345.6 
L 460.8 345.6 
L 460.8 0 
L 0 0 
z
" style="fill: #ffffff"/>
  </g>
  <g id="axes_1">
   <g id="patch_2">
    <path d="M 57.6 307.584 
L 414.72 307.584 
L 414.72 41.472 
L 57.6 41.472 
z
" style="fill: #ffffff"/>
   </g>
   <g id="matplotlib.axis_1">
    <g id="xtick_1">
     <g id="line2d_1">
      <defs>
       <path id="m910b817393" d="M 0 0 
L 0 3.5 
" style="stroke: #000000; stroke-width: 0.8"/>
      </defs>
      <g>
       <use xlink:href="#m910b817393" x="97.030623" y="307.584" style="stroke: #000000; stroke-width: 0.8"/>
      </g>
     </g>
     <g id="text_1">
      <!-- −30 -->
      <g transform="translate(86.478279 322.182437) scale(0.1 -0.1)">
       <defs>
        <path id="DejaVuSans-2212" d="M 678 2272 
L 4684 2272 
L 4684 1741 
L 678 1741 
L 678 2272 
z
" transform="scale(0.015625)"/>
        <path id="DejaVuSans-33" d="M 2597 2516 
Q 3050 2419 3304 2112 
Q 3559 1806 3559 1356 
Q 3559 666 3084 287 
Q 2609 -91 1734 -91 
Q 1441 -91 1130 -33 
Q 819 25 488 141 
L 488 750 
Q 750 597 1062 519 
Q 1375 441 1716 441 
Q 2309 441 2620 675 
Q 2931 909 2931 1356 
Q 2931 1769 2642 2001 
Q 2353 2234 1838 2234 
L 1294 2234 
L 1294 2753 
L 1863 2753 
Q 2328 2753 2575 2939 
Q 2822 3125 2822 3475 
Q 2822 3834 2567 4026 
Q 2313 4219 1838 4219 
Q 1578 4219 1281 4162 
Q 984 4106 628 3988 
L 628 4550 
Q 988 4650 1302 4700 
Q 1616 4750 1894 4750 
Q 2613 4750 3031 4423 
Q 3450 4097 3450 3541 
Q 3450 3153 3228 2886 
Q 3006 2619 2597 2516 
z
" transform="scale(0.015625)"/>
        <path id="DejaVuSans-30" d="M 2034 4250 
Q 1547 4250 1301 3770 
Q 1056 3291 1056 2328 
Q 1056 1369 1301 889 
Q 1547 409 2034 409 
Q 2525 409 2770 889 
Q 3016 1369 3016 2328 
Q 3016 3291 2770 3770 
Q 2525 4250 2034 4250 
z
M 2034 4750 
Q 2819 4750 3233 4129 
Q 3647 3509 3647 2328 
Q 3647 1150 3233 529 
Q 2819 -91 2034 -91 
Q 1250 -91 836 529 
Q 422 1150 422 2328 
Q 422 3509 836 4129 
Q 1250 4750 2034 4750 
z
" transform="scale(0.015625)"/>
       </defs>
       <use xlink:href="#DejaVuSans-2212"/>
       <use xlink:href="#DejaVuSans-33" x="83.789062"/>
       <use xlink:href="#DejaVuSans-30" x="147.412109"/>
      </g>
     </g>
    </g>
    <g id="xtick_2">
     <g id="line2d_2">
      <g>
       <use xlink:href="#m910b817393" x="143.426413" y="307.584" style="stroke: #000000; stroke-width: 0.8"/>
      </g>
     </g>
     <g id="text_2">
      <!-- −20 -->
      <g transform="translate(132.87407 322.182437) scale(0.1 -0.1)">
       <defs>
        <path id="DejaVuSans-32" d="M 1228 531 
L 3431 531 
L 3431 0 
L 469 0 
L 469 531 
Q 828 903 1448 1529 
Q 2069 2156 2228 2338 
Q 2531 2678 2651 2914 
Q 2772 3150 2772 3378 
Q 2772 3750 2511 3984 
Q 2250 4219 1831 4219 
Q 1534 4219 1204 4116 
Q 875 4013 500 3803 
L 500 4441 
Q 881 4594 1212 4672 
Q 1544 4750 1819 4750 
Q 2544 4750 2975 4387 
Q 3406 4025 3406 3419 
Q 3406 3131 3298 2873 
Q 3191 2616 2906 2266 
Q 2828 2175 2409 1742 
Q 1991 1309 1228 531 
z
" transform="scale(0.015625)"/>
       </defs>
       <use xlink:href="#DejaVuSans-2212"/>
       <use xlink:href="#DejaVuSans-32" x="83.789062"/>
       <use xlink:href="#DejaVuSans-30" x="147.412109"/>
      </g>
     </g>
    </g>
    <g id="xtick_3">
     <g id="line2d_3">
      <g>
       <use xlink:href="#m910b817393" x="189.822204" y="307.584" style="stroke: #000000; stroke-width: 0.8"/>
      </g>
     </g>
     <g id="text_3">
      <!-- −10 -->
      <g transform="translate(179.26986 322.182437) scale(0.1 -0.1)">
       <defs>
        <path id="DejaVuSans-31" d="M 794 531 
L 1825 531 
L 1825 4091 
L 703 3866 
L 703 4441 
L 1819 4666 
L 2450 4666 
L 2450 531 
L 3481 531 
L 3481 0 
L 794 0 
L 794 531 
z
" transform="scale(0.015625)"/>
       </defs>
       <use xlink:href="#DejaVuSans-2212"/>
       <use xlink:href="#DejaVuSans-31" x="83.789062"/>
       <use xlink:href="#DejaVuSans-30" x="147.412109"/>
      </g>
     </g>
    </g>
    <g id="xtick_4">
     <g id="line2d_4">
      <g>
       <use xlink:href="#m910b817393" x="236.217995" y="307.584" style="stroke: #000000; stroke-width: 0.8"/>
      </g>
     </g>
     <g id="text_4">
      <!-- 0 -->
      <g transform="translate(233.036745 322.182437) scale(0.1 -0.1)">
       <use xlink:href="#DejaVuSans-30"/>
      </g>
     </g>
    </g>
    <g id="xtick_5">
     <g id="line2d_5">
      <g>
       <use xlink:href="#m910b817393" x="282.613785" y="307.584" style="stroke: #000000; stroke-width: 0.8"/>
      </g>
     </g>
     <g id="text_5">
      <!-- 10 -->
      <g transform="translate(276.251285 322.182437) scale(0.1 -0.1)">
       <use xlink:href="#DejaVuSans-31"/>
       <use xlink:href="#DejaVuSans-30" x="63.623047"/>
      </g>
     </g>
    </g>
    <g id="xtick_6">
     <g id="line2d_6">
      <g>
       <use xlink:href="#m910b817393" x="329.009576" y="307.584" style="stroke: #000000; stroke-width: 0.8"/>
      </g>
     </g>
     <g id="text_6">
      <!-- 20 -->
      <g transform="translate(322.647076 322.182437) scale(0.1 -0.1)">
       <use xlink:href="#DejaVuSans-32"/>
       <use xlink:href="#DejaVuSans-30" x="63.623047"/>
      </g>
     </g>
    </g>
    <g id="xtick_7">
     <g id="line2d_7">
      <g>
       <use xlink:href="#m910b817393" x="375.405367" y="307.584" style="stroke: #000000; stroke-width: 0.8"/>
      </g>
     </g>
     <g id="text_7">
      <!-- 30 -->
      <g transform="translate(369.042867 322.182437) scale(0.1 -0.1)">
       <use xlink:href="#DejaVuSans-33"/>
       <use xlink:href="#DejaVuSans-30" x="63.623047"/>
      </g>
     </g>
    </g>
    <g id="text_8">
     <!-- Frequency [$Hz$] -->
     <g transform="translate(197.96 335.862125) scale(0.1 -0.1)">
      <defs>
       <path id="DejaVuSans-46" d="M 628 4666 
L 3309 4666 
L 3309 4134 
L 1259 4134 
L 1259 2759 
L 3109 2759 
L 3109 2228 
L 1259 2228 
L 1259 0 
L 628 0 
L 628 4666 
z
" transform="scale(0.015625)"/>
       <path id="DejaVuSans-72" d="M 2631 2963 
Q 2534 3019 2420 3045 
Q 2306 3072 2169 3072 
Q 1681 3072 1420 2755 
Q 1159 2438 1159 1844 
L 1159 0 
L 581 0 
L 581 3500 
L 1159 3500 
L 1159 2956 
Q 1341 3275 1631 3429 
Q 1922 3584 2338 3584 
Q 2397 3584 2469 3576 
Q 2541 3569 2628 3553 
L 2631 2963 
z
" transform="scale(0.015625)"/>
       <path id="DejaVuSans-65" d="M 3597 1894 
L 3597 1613 
L 953 1613 
Q 991 1019 1311 708 
Q 1631 397 2203 397 
Q 2534 397 2845 478 
Q 3156 559 3463 722 
L 3463 178 
Q 3153 47 2828 -22 
Q 2503 -91 2169 -91 
Q 1331 -91 842 396 
Q 353 884 353 1716 
Q 353 2575 817 3079 
Q 1281 3584 2069 3584 
Q 2775 3584 3186 3129 
Q 3597 2675 3597 1894 
z
M 3022 2063 
Q 3016 2534 2758 2815 
Q 2500 3097 2075 3097 
Q 1594 3097 1305 2825 
Q 1016 2553 972 2059 
L 3022 2063 
z
" transform="scale(0.015625)"/>
       <path id="DejaVuSans-71" d="M 947 1747 
Q 947 1113 1208 752 
Q 1469 391 1925 391 
Q 2381 391 2643 752 
Q 2906 1113 2906 1747 
Q 2906 2381 2643 2742 
Q 2381 3103 1925 3103 
Q 1469 3103 1208 2742 
Q 947 2381 947 1747 
z
M 2906 525 
Q 2725 213 2448 61 
Q 2172 -91 1784 -91 
Q 1150 -91 751 415 
Q 353 922 353 1747 
Q 353 2572 751 3078 
Q 1150 3584 1784 3584 
Q 2172 3584 2448 3432 
Q 2725 3281 2906 2969 
L 2906 3500 
L 3481 3500 
L 3481 -1331 
L 2906 -1331 
L 2906 525 
z
" transform="scale(0.015625)"/>
       <path id="DejaVuSans-75" d="M 544 1381 
L 544 3500 
L 1119 3500 
L 1119 1403 
Q 1119 906 1312 657 
Q 1506 409 1894 409 
Q 2359 409 2629 706 
Q 2900 1003 2900 1516 
L 2900 3500 
L 3475 3500 
L 3475 0 
L 2900 0 
L 2900 538 
Q 2691 219 2414 64 
Q 2138 -91 1772 -91 
Q 1169 -91 856 284 
Q 544 659 544 1381 
z
M 1991 3584 
L 1991 3584 
z
" transform="scale(0.015625)"/>
       <path id="DejaVuSans-6e" d="M 3513 2113 
L 3513 0 
L 2938 0 
L 2938 2094 
Q 2938 2591 2744 2837 
Q 2550 3084 2163 3084 
Q 1697 3084 1428 2787 
Q 1159 2491 1159 1978 
L 1159 0 
L 581 0 
L 581 3500 
L 1159 3500 
L 1159 2956 
Q 1366 3272 1645 3428 
Q 1925 3584 2291 3584 
Q 2894 3584 3203 3211 
Q 3513 2838 3513 2113 
z
" transform="scale(0.015625)"/>
       <path id="DejaVuSans-63" d="M 3122 3366 
L 3122 2828 
Q 2878 2963 2633 3030 
Q 2388 3097 2138 3097 
Q 1578 3097 1268 2742 
Q 959 2388 959 1747 
Q 959 1106 1268 751 
Q 1578 397 2138 397 
Q 2388 397 2633 464 
Q 2878 531 3122 666 
L 3122 134 
Q 2881 22 2623 -34 
Q 2366 -91 2075 -91 
Q 1284 -91 818 406 
Q 353 903 353 1747 
Q 353 2603 823 3093 
Q 1294 3584 2113 3584 
Q 2378 3584 2631 3529 
Q 2884 3475 3122 3366 
z
" transform="scale(0.015625)"/>
       <path id="DejaVuSans-79" d="M 2059 -325 
Q 1816 -950 1584 -1140 
Q 1353 -1331 966 -1331 
L 506 -1331 
L 506 -850 
L 844 -850 
Q 1081 -850 1212 -737 
Q 1344 -625 1503 -206 
L 1606 56 
L 191 3500 
L 800 3500 
L 1894 763 
L 2988 3500 
L 3597 3500 
L 2059 -325 
z
" transform="scale(0.015625)"/>
       <path id="DejaVuSans-20" transform="scale(0.015625)"/>
       <path id="DejaVuSans-5b" d="M 550 4863 
L 1875 4863 
L 1875 4416 
L 1125 4416 
L 1125 -397 
L 1875 -397 
L 1875 -844 
L 550 -844 
L 550 4863 
z
" transform="scale(0.015625)"/>
       <path id="DejaVuSans-Oblique-48" d="M 1081 4666 
L 1716 4666 
L 1344 2753 
L 3634 2753 
L 4006 4666 
L 4641 4666 
L 3731 0 
L 3097 0 
L 3531 2222 
L 1241 2222 
L 806 0 
L 172 0 
L 1081 4666 
z
" transform="scale(0.015625)"/>
       <path id="DejaVuSans-Oblique-7a" d="M 744 3500 
L 3475 3500 
L 3372 2975 
L 738 459 
L 2913 459 
L 2822 0 
L -19 0 
L 84 525 
L 2719 3041 
L 653 3041 
L 744 3500 
z
" transform="scale(0.015625)"/>
       <path id="DejaVuSans-5d" d="M 1947 4863 
L 1947 -844 
L 622 -844 
L 622 -397 
L 1369 -397 
L 1369 4416 
L 622 4416 
L 622 4863 
L 1947 4863 
z
" transform="scale(0.015625)"/>
      </defs>
      <use xlink:href="#DejaVuSans-46" transform="translate(0 0.015625)"/>
      <use xlink:href="#DejaVuSans-72" transform="translate(57.519531 0.015625)"/>
      <use xlink:href="#DejaVuSans-65" transform="translate(98.632812 0.015625)"/>
      <use xlink:href="#DejaVuSans-71" transform="translate(160.15625 0.015625)"/>
      <use xlink:href="#DejaVuSans-75" transform="translate(223.632812 0.015625)"/>
      <use xlink:href="#DejaVuSans-65" transform="translate(287.011719 0.015625)"/>
      <use xlink:href="#DejaVuSans-6e" transform="translate(348.535156 0.015625)"/>
      <use xlink:href="#DejaVuSans-63" transform="translate(411.914062 0.015625)"/>
      <use xlink:href="#DejaVuSans-79" transform="translate(466.894531 0.015625)"/>
      <use xlink:href="#DejaVuSans-20" transform="translate(526.074219 0.015625)"/>
      <use xlink:href="#DejaVuSans-5b" transform="translate(557.861328 0.015625)"/>
      <use xlink:href="#DejaVuSans-Oblique-48" transform="translate(596.875 0.015625)"/>
      <use xlink:href="#DejaVuSans-Oblique-7a" transform="translate(672.070312 0.015625)"/>
      <use xlink:href="#DejaVuSans-5d" transform="translate(724.560547 0.015625)"/>
     </g>
    </g>
   </g>
   <g id="matplotlib.axis_2">
    <g id="ytick_1">
     <g id="line2d_8">
      <defs>
       <path id="m9616db6fad" d="M 0 0 
L -3.5 0 
" style="stroke: #000000; stroke-width: 0.8"/>
      </defs>
      <g>
       <use xlink:href="#m9616db6fad" x="57.6" y="288.64164" style="stroke: #000000; stroke-width: 0.8"/>
      </g>
     </g>
     <g id="text_9">
      <!-- −20 -->
      <g transform="translate(29.495313 292.440859) scale(0.1 -0.1)">
       <use xlink:href="#DejaVuSans-2212"/>
       <use xlink:href="#DejaVuSans-32" x="83.789062"/>
       <use xlink:href="#DejaVuSans-30" x="147.412109"/>
      </g>
     </g>
    </g>
    <g id="ytick_2">
     <g id="line2d_9">
      <g>
       <use xlink:href="#m9616db6fad" x="57.6" y="250.756921" style="stroke: #000000; stroke-width: 0.8"/>
      </g>
     </g>
     <g id="text_10">
      <!-- −10 -->
      <g transform="translate(29.495313 254.55614) scale(0.1 -0.1)">
       <use xlink:href="#DejaVuSans-2212"/>
       <use xlink:href="#DejaVuSans-31" x="83.789062"/>
       <use xlink:href="#DejaVuSans-30" x="147.412109"/>
      </g>
     </g>
    </g>
    <g id="ytick_3">
     <g id="line2d_10">
      <g>
       <use xlink:href="#m9616db6fad" x="57.6" y="212.872202" style="stroke: #000000; stroke-width: 0.8"/>
      </g>
     </g>
     <g id="text_11">
      <!-- 0 -->
      <g transform="translate(44.2375 216.671421) scale(0.1 -0.1)">
       <use xlink:href="#DejaVuSans-30"/>
      </g>
     </g>
    </g>
    <g id="ytick_4">
     <g id="line2d_11">
      <g>
       <use xlink:href="#m9616db6fad" x="57.6" y="174.987483" style="stroke: #000000; stroke-width: 0.8"/>
      </g>
     </g>
     <g id="text_12">
      <!-- 10 -->
      <g transform="translate(37.875 178.786702) scale(0.1 -0.1)">
       <use xlink:href="#DejaVuSans-31"/>
       <use xlink:href="#DejaVuSans-30" x="63.623047"/>
      </g>
     </g>
    </g>
    <g id="ytick_5">
     <g id="line2d_12">
      <g>
       <use xlink:href="#m9616db6fad" x="57.6" y="137.102764" style="stroke: #000000; stroke-width: 0.8"/>
      </g>
     </g>
     <g id="text_13">
      <!-- 20 -->
      <g transform="translate(37.875 140.901983) scale(0.1 -0.1)">
       <use xlink:href="#DejaVuSans-32"/>
       <use xlink:href="#DejaVuSans-30" x="63.623047"/>
      </g>
     </g>
    </g>
    <g id="ytick_6">
     <g id="line2d_13">
      <g>
       <use xlink:href="#m9616db6fad" x="57.6" y="99.218045" style="stroke: #000000; stroke-width: 0.8"/>
      </g>
     </g>
     <g id="text_14">
      <!-- 30 -->
      <g transform="translate(37.875 103.017264) scale(0.1 -0.1)">
       <use xlink:href="#DejaVuSans-33"/>
       <use xlink:href="#DejaVuSans-30" x="63.623047"/>
      </g>
     </g>
    </g>
    <g id="ytick_7">
     <g id="line2d_14">
      <g>
       <use xlink:href="#m9616db6fad" x="57.6" y="61.333326" style="stroke: #000000; stroke-width: 0.8"/>
      </g>
     </g>
     <g id="text_15">
      <!-- 40 -->
      <g transform="translate(37.875 65.132545) scale(0.1 -0.1)">
       <defs>
        <path id="DejaVuSans-34" d="M 2419 4116 
L 825 1625 
L 2419 1625 
L 2419 4116 
z
M 2253 4666 
L 3047 4666 
L 3047 1625 
L 3713 1625 
L 3713 1100 
L 3047 1100 
L 3047 0 
L 2419 0 
L 2419 1100 
L 313 1100 
L 313 1709 
L 2253 4666 
z
" transform="scale(0.015625)"/>
       </defs>
       <use xlink:href="#DejaVuSans-34"/>
       <use xlink:href="#DejaVuSans-30" x="63.623047"/>
      </g>
     </g>
    </g>
    <g id="text_16">
     <!-- Amplitude [dB] -->
     <g transform="translate(23.415625 212.245969) rotate(-90) scale(0.1 -0.1)">
      <defs>
       <path id="DejaVuSans-41" d="M 2188 4044 
L 1331 1722 
L 3047 1722 
L 2188 4044 
z
M 1831 4666 
L 2547 4666 
L 4325 0 
L 3669 0 
L 3244 1197 
L 1141 1197 
L 716 0 
L 50 0 
L 1831 4666 
z
" transform="scale(0.015625)"/>
       <path id="DejaVuSans-6d" d="M 3328 2828 
Q 3544 3216 3844 3400 
Q 4144 3584 4550 3584 
Q 5097 3584 5394 3201 
Q 5691 2819 5691 2113 
L 5691 0 
L 5113 0 
L 5113 2094 
Q 5113 2597 4934 2840 
Q 4756 3084 4391 3084 
Q 3944 3084 3684 2787 
Q 3425 2491 3425 1978 
L 3425 0 
L 2847 0 
L 2847 2094 
Q 2847 2600 2669 2842 
Q 2491 3084 2119 3084 
Q 1678 3084 1418 2786 
Q 1159 2488 1159 1978 
L 1159 0 
L 581 0 
L 581 3500 
L 1159 3500 
L 1159 2956 
Q 1356 3278 1631 3431 
Q 1906 3584 2284 3584 
Q 2666 3584 2933 3390 
Q 3200 3197 3328 2828 
z
" transform="scale(0.015625)"/>
       <path id="DejaVuSans-70" d="M 1159 525 
L 1159 -1331 
L 581 -1331 
L 581 3500 
L 1159 3500 
L 1159 2969 
Q 1341 3281 1617 3432 
Q 1894 3584 2278 3584 
Q 2916 3584 3314 3078 
Q 3713 2572 3713 1747 
Q 3713 922 3314 415 
Q 2916 -91 2278 -91 
Q 1894 -91 1617 61 
Q 1341 213 1159 525 
z
M 3116 1747 
Q 3116 2381 2855 2742 
Q 2594 3103 2138 3103 
Q 1681 3103 1420 2742 
Q 1159 2381 1159 1747 
Q 1159 1113 1420 752 
Q 1681 391 2138 391 
Q 2594 391 2855 752 
Q 3116 1113 3116 1747 
z
" transform="scale(0.015625)"/>
       <path id="DejaVuSans-6c" d="M 603 4863 
L 1178 4863 
L 1178 0 
L 603 0 
L 603 4863 
z
" transform="scale(0.015625)"/>
       <path id="DejaVuSans-69" d="M 603 3500 
L 1178 3500 
L 1178 0 
L 603 0 
L 603 3500 
z
M 603 4863 
L 1178 4863 
L 1178 4134 
L 603 4134 
L 603 4863 
z
" transform="scale(0.015625)"/>
       <path id="DejaVuSans-74" d="M 1172 4494 
L 1172 3500 
L 2356 3500 
L 2356 3053 
L 1172 3053 
L 1172 1153 
Q 1172 725 1289 603 
Q 1406 481 1766 481 
L 2356 481 
L 2356 0 
L 1766 0 
Q 1100 0 847 248 
Q 594 497 594 1153 
L 594 3053 
L 172 3053 
L 172 3500 
L 594 3500 
L 594 4494 
L 1172 4494 
z
" transform="scale(0.015625)"/>
       <path id="DejaVuSans-64" d="M 2906 2969 
L 2906 4863 
L 3481 4863 
L 3481 0 
L 2906 0 
L 2906 525 
Q 2725 213 2448 61 
Q 2172 -91 1784 -91 
Q 1150 -91 751 415 
Q 353 922 353 1747 
Q 353 2572 751 3078 
Q 1150 3584 1784 3584 
Q 2172 3584 2448 3432 
Q 2725 3281 2906 2969 
z
M 947 1747 
Q 947 1113 1208 752 
Q 1469 391 1925 391 
Q 2381 391 2643 752 
Q 2906 1113 2906 1747 
Q 2906 2381 2643 2742 
Q 2381 3103 1925 3103 
Q 1469 3103 1208 2742 
Q 947 2381 947 1747 
z
" transform="scale(0.015625)"/>
       <path id="DejaVuSans-42" d="M 1259 2228 
L 1259 519 
L 2272 519 
Q 2781 519 3026 730 
Q 3272 941 3272 1375 
Q 3272 1813 3026 2020 
Q 2781 2228 2272 2228 
L 1259 2228 
z
M 1259 4147 
L 1259 2741 
L 2194 2741 
Q 2656 2741 2882 2914 
Q 3109 3088 3109 3444 
Q 3109 3797 2882 3972 
Q 2656 4147 2194 4147 
L 1259 4147 
z
M 628 4666 
L 2241 4666 
Q 2963 4666 3353 4366 
Q 3744 4066 3744 3513 
Q 3744 3084 3544 2831 
Q 3344 2578 2956 2516 
Q 3422 2416 3680 2098 
Q 3938 1781 3938 1306 
Q 3938 681 3513 340 
Q 3088 0 2303 0 
L 628 0 
L 628 4666 
z
" transform="scale(0.015625)"/>
      </defs>
      <use xlink:href="#DejaVuSans-41"/>
      <use xlink:href="#DejaVuSans-6d" x="68.408203"/>
      <use xlink:href="#DejaVuSans-70" x="165.820312"/>
      <use xlink:href="#DejaVuSans-6c" x="229.296875"/>
      <use xlink:href="#DejaVuSans-69" x="257.080078"/>
      <use xlink:href="#DejaVuSans-74" x="284.863281"/>
      <use xlink:href="#DejaVuSans-75" x="324.072266"/>
      <use xlink:href="#DejaVuSans-64" x="387.451172"/>
      <use xlink:href="#DejaVuSans-65" x="450.927734"/>
      <use xlink:href="#DejaVuSans-20" x="512.451172"/>
      <use xlink:href="#DejaVuSans-5b" x="544.238281"/>
      <use xlink:href="#DejaVuSans-64" x="583.251953"/>
      <use xlink:href="#DejaVuSans-42" x="646.728516"/>
      <use xlink:href="#DejaVuSans-5d" x="715.332031"/>
     </g>
    </g>
   </g>
   <g id="line2d_15">
    <path d="M 73.832727 306.876174 
L 87.055528 306.765554 
L 100.742286 306.437792 
L 108.049623 306.034002 
L 129.275697 304.376899 
L 139.482771 303.272176 
L 140.178708 303.173386 
L 142.382508 302.903342 
L 143.658392 302.74015 
L 151.661666 301.585059 
L 153.169529 301.349942 
L 153.749477 301.260801 
L 154.445414 301.13911 
L 154.909372 301.092746 
L 156.533224 300.804977 
L 158.969003 300.382976 
L 159.200982 300.339884 
L 160.244887 300.156185 
L 165.696393 299.075696 
L 165.928372 298.969948 
L 166.27634 299.019391 
L 166.39233 298.85426 
L 166.508319 299.009071 
L 166.624309 298.864158 
L 166.740298 298.912634 
L 166.856288 298.78722 
L 167.088267 298.833202 
L 168.132172 298.470112 
L 168.248161 298.562314 
L 168.48014 298.344497 
L 168.59613 298.546372 
L 168.828109 298.342941 
L 168.944098 298.335722 
L 169.060088 298.493876 
L 169.408056 298.317138 
L 169.524046 298.335598 
L 169.872014 297.993345 
L 170.103993 298.194296 
L 170.219982 298.020794 
L 170.335972 298.226207 
L 170.567951 298.104539 
L 170.68394 297.957898 
L 170.79993 298.067274 
L 170.915919 297.781959 
L 171.031909 297.90416 
L 171.263888 297.766194 
L 171.379877 297.991097 
L 171.495867 297.749024 
L 171.727846 297.839807 
L 172.075814 297.633407 
L 172.307793 297.50949 
L 172.423783 297.717153 
L 172.655761 297.442714 
L 173.00373 297.633115 
L 173.119719 297.376226 
L 173.235709 297.489513 
L 173.351698 297.094746 
L 173.583677 297.253924 
L 174.047635 296.935594 
L 174.279614 297.106528 
L 174.627583 297.250626 
L 174.975551 296.939958 
L 175.09154 297.070406 
L 175.671488 296.736616 
L 175.787477 296.865173 
L 176.599404 296.496825 
L 176.715393 296.755525 
L 176.947372 296.291116 
L 177.063362 296.429879 
L 177.179351 296.369877 
L 177.295341 296.146655 
L 177.41133 296.495544 
L 177.643309 296.057132 
L 177.759298 296.515138 
L 177.875288 295.838963 
L 177.991277 296.418242 
L 178.223256 296.045203 
L 178.339246 296.250443 
L 178.455235 295.825903 
L 178.803204 296.118963 
L 178.919193 295.56004 
L 179.035183 295.804554 
L 179.151172 295.70757 
L 179.383151 295.206846 
L 179.61513 295.77692 
L 179.73112 295.716205 
L 179.963099 296.001983 
L 180.079088 295.917779 
L 180.195077 295.130292 
L 180.427056 295.795721 
L 180.543046 295.572261 
L 180.659035 295.702935 
L 180.775025 295.136058 
L 180.891014 295.517877 
L 181.238983 294.942862 
L 181.354972 295.575087 
L 181.586951 294.967585 
L 181.702941 295.567829 
L 181.81893 295.149826 
L 181.93492 295.386543 
L 182.050909 295.144237 
L 182.166899 294.369082 
L 182.282888 294.944376 
L 182.398878 294.933932 
L 182.514867 295.445848 
L 182.746846 294.596905 
L 182.862835 293.965641 
L 183.094814 295.111872 
L 183.210804 295.069137 
L 183.558772 294.373034 
L 183.674762 295.22373 
L 183.906741 294.102848 
L 184.02273 294.234136 
L 184.13872 294.720476 
L 184.254709 294.073875 
L 184.370699 294.589782 
L 184.486688 293.994093 
L 184.602678 294.099411 
L 184.718667 294.395641 
L 184.834657 294.061179 
L 185.066635 295.1696 
L 185.298614 293.778613 
L 185.414604 294.363219 
L 185.530593 293.26377 
L 185.646583 295.267746 
L 185.878562 293.447068 
L 186.22653 294.190492 
L 186.458509 292.994309 
L 186.574499 293.481254 
L 186.690488 293.366512 
L 186.806478 294.472786 
L 187.270436 292.123235 
L 187.386425 292.807886 
L 187.502414 292.533164 
L 187.618404 294.62109 
L 187.850383 292.969388 
L 187.966372 293.281689 
L 188.082362 292.132586 
L 188.314341 293.674955 
L 188.43033 292.020343 
L 188.54632 292.062851 
L 188.662309 293.294873 
L 188.778299 292.312182 
L 188.894288 293.700498 
L 189.126267 292.973201 
L 189.242257 293.571082 
L 189.358246 292.255814 
L 189.474236 292.555323 
L 189.590225 293.675136 
L 189.706215 290.499516 
L 189.822204 292.100168 
L 189.938194 291.652736 
L 190.054183 293.022065 
L 190.286162 291.57362 
L 190.518141 295.409799 
L 190.75012 292.023733 
L 190.866109 292.202232 
L 190.982099 291.536255 
L 191.214078 293.249145 
L 191.330067 290.867808 
L 191.446057 291.773108 
L 191.562046 294.058704 
L 191.678036 289.155959 
L 191.794025 291.610125 
L 191.910015 291.071663 
L 192.026004 291.479404 
L 192.141994 290.547103 
L 192.373973 291.91943 
L 192.489962 291.506811 
L 192.605951 289.949203 
L 192.95392 292.534472 
L 193.069909 291.963331 
L 193.185899 287.81997 
L 193.301888 290.822237 
L 193.417878 289.886615 
L 193.533867 290.994296 
L 193.649857 293.216237 
L 193.881836 288.17856 
L 193.997825 289.443717 
L 194.113815 289.16895 
L 194.229804 291.207806 
L 194.461783 288.840569 
L 194.577773 293.007931 
L 194.693762 288.914764 
L 194.925741 291.356098 
L 195.15772 291.482808 
L 195.389699 287.236952 
L 195.505688 295.373293 
L 195.737667 288.058625 
L 195.853657 292.190662 
L 195.969646 287.63448 
L 196.201625 290.008857 
L 196.317615 290.509117 
L 196.433604 286.09043 
L 196.549594 292.670741 
L 196.665583 287.451692 
L 196.781573 290.647152 
L 196.897562 285.465436 
L 197.013552 285.821147 
L 197.129541 286.614455 
L 197.245531 292.185237 
L 197.36152 282.785242 
L 197.47751 288.66527 
L 197.593499 282.720063 
L 197.709488 284.547244 
L 197.825478 293.454038 
L 197.941467 289.541705 
L 198.057457 292.436002 
L 198.173446 285.780923 
L 198.289436 286.934947 
L 198.405425 290.024336 
L 198.753394 284.277907 
L 198.869383 284.544461 
L 198.985373 287.085611 
L 199.217352 283.80212 
L 199.449331 294.088885 
L 199.56532 281.852935 
L 199.68131 290.94038 
L 199.797299 289.364361 
L 199.913289 279.13894 
L 200.029278 291.977615 
L 200.145267 292.105309 
L 200.261257 284.866064 
L 200.377246 287.477747 
L 200.493236 281.205549 
L 200.609225 296.332925 
L 200.841204 290.13262 
L 201.073183 279.989365 
L 201.421152 299.868167 
L 201.537141 280.691261 
L 201.653131 283.614556 
L 201.76912 279.113341 
L 202.001099 287.435573 
L 202.117089 284.916833 
L 202.233078 297.711771 
L 202.697036 276.545939 
L 202.813025 298.014869 
L 202.929015 279.570637 
L 203.045004 312.173167 
L 203.276983 276.068138 
L 203.392973 276.484448 
L 203.508962 280.614039 
L 203.624952 303.912296 
L 203.740941 271.705383 
L 203.97292 287.097532 
L 204.08891 272.401438 
L 204.204899 278.414969 
L 204.320889 275.008531 
L 204.436878 275.705259 
L 204.552868 288.702085 
L 204.668857 269.05474 
L 204.900836 274.149855 
L 205.016825 274.121622 
L 205.132815 277.694118 
L 205.364794 270.006787 
L 205.480783 289.926986 
L 205.596773 270.693476 
L 205.712762 285.020404 
L 205.828752 279.609342 
L 205.944741 282.634091 
L 206.060731 279.543778 
L 206.17672 263.146643 
L 206.29271 277.258916 
L 206.524689 264.317692 
L 206.640678 283.879297 
L 206.756668 269.834796 
L 206.872657 276.58693 
L 206.988647 296.14457 
L 207.104636 291.651508 
L 207.220626 271.167784 
L 207.336615 277.823205 
L 207.452605 306.208934 
L 207.568594 261.86805 
L 207.684583 272.128971 
L 207.916562 260.954787 
L 208.032552 274.391385 
L 208.148541 261.662901 
L 208.264531 261.823094 
L 208.38052 284.293325 
L 208.49651 257.417693 
L 208.612499 271.32278 
L 208.728489 265.582334 
L 208.844478 270.662934 
L 208.960468 261.468304 
L 209.076457 302.979217 
L 209.192447 269.463432 
L 209.308436 281.709104 
L 209.424426 279.469866 
L 209.540415 271.426389 
L 209.656405 273.944997 
L 209.772394 254.413013 
L 209.888384 274.355844 
L 210.004373 259.756907 
L 210.120362 271.128859 
L 210.236352 256.524934 
L 210.352341 283.683859 
L 210.468331 254.887094 
L 210.58432 255.059115 
L 210.70031 282.537528 
L 210.816299 265.954149 
L 210.932289 303.987778 
L 211.164268 263.468332 
L 211.512236 254.84469 
L 211.628226 266.14454 
L 211.860205 247.3304 
L 212.092184 270.691387 
L 212.324163 251.160433 
L 212.440152 257.228281 
L 212.556141 254.249547 
L 212.672131 243.116398 
L 212.78812 262.278295 
L 213.020099 244.426428 
L 213.136089 255.204632 
L 213.252078 254.915599 
L 213.484057 268.818962 
L 213.600047 250.817184 
L 213.716036 254.829572 
L 213.948015 244.320059 
L 214.064005 247.410345 
L 214.295984 242.439738 
L 214.411973 246.126608 
L 214.527963 245.973439 
L 214.643952 251.922077 
L 214.759942 244.080562 
L 214.99192 252.975876 
L 215.223899 241.047348 
L 215.455878 260.210419 
L 215.571868 255.263596 
L 215.687857 233.460865 
L 215.919836 270.012406 
L 216.151815 232.97318 
L 216.267805 232.418363 
L 216.383794 253.182622 
L 216.615773 236.108191 
L 216.731763 247.584699 
L 216.847752 226.891449 
L 217.079731 239.120683 
L 217.195721 262.748886 
L 217.4277 246.446204 
L 217.543689 281.142697 
L 217.659678 242.888409 
L 217.775668 242.396562 
L 217.891657 237.387472 
L 218.123636 264.507286 
L 218.355615 235.683721 
L 218.471605 266.582532 
L 218.587594 243.486116 
L 218.703584 260.945142 
L 218.819573 236.605776 
L 219.051552 247.460721 
L 219.167542 231.650774 
L 219.399521 251.442739 
L 219.51551 240.21237 
L 219.6315 243.652304 
L 219.979468 234.650711 
L 220.095457 243.279837 
L 220.327436 239.658607 
L 220.443426 244.250267 
L 220.559415 242.590505 
L 220.675405 264.471415 
L 220.907384 237.506981 
L 221.023373 250.598532 
L 221.139363 243.614417 
L 221.255352 260.254898 
L 221.487331 230.880603 
L 221.603321 255.869248 
L 221.71931 228.923555 
L 221.8353 231.664101 
L 221.951289 237.032673 
L 222.067279 249.287032 
L 222.183268 278.759646 
L 222.299258 240.573503 
L 222.415247 248.956491 
L 222.531236 229.173412 
L 222.647226 249.047595 
L 222.763215 231.681285 
L 222.879205 239.038967 
L 222.995194 238.48596 
L 223.111184 245.658098 
L 223.227173 234.266748 
L 223.343163 238.958128 
L 223.459152 254.032458 
L 223.575142 253.37672 
L 223.807121 235.134353 
L 223.92311 236.741613 
L 224.0391 235.521936 
L 224.155089 243.576833 
L 224.271079 241.413555 
L 224.387068 250.987678 
L 224.503058 233.946904 
L 224.735037 246.291781 
L 224.851026 240.083742 
L 224.967015 242.432769 
L 225.083005 232.53845 
L 225.198994 244.502805 
L 225.314984 232.102203 
L 225.546963 249.730141 
L 225.662952 247.790094 
L 225.778942 233.831522 
L 225.894931 236.419464 
L 226.010921 253.624998 
L 226.12691 248.030583 
L 226.2429 252.077959 
L 226.358889 246.48651 
L 226.590868 249.992604 
L 226.822847 230.261632 
L 227.170816 258.61721 
L 227.402795 239.402295 
L 227.518784 254.167231 
L 227.634773 239.833188 
L 227.750763 255.915252 
L 227.866752 253.623058 
L 227.982742 256.510692 
L 228.214721 241.892098 
L 228.33071 247.638189 
L 228.4467 240.309726 
L 228.794668 260.935129 
L 228.910658 234.241989 
L 229.026647 240.130046 
L 229.142637 236.933575 
L 229.258626 229.689678 
L 229.490605 237.810077 
L 229.606595 240.864094 
L 229.722584 255.961489 
L 229.838574 253.475529 
L 229.954563 226.276251 
L 230.070552 258.896301 
L 230.186542 234.900818 
L 230.302531 244.36935 
L 230.418521 272.198357 
L 230.6505 232.810323 
L 230.766489 235.762793 
L 230.882479 223.791246 
L 230.998468 228.416732 
L 231.114458 210.164359 
L 231.346437 233.284168 
L 231.462426 231.853598 
L 231.578416 253.580275 
L 231.810395 220.028215 
L 231.926384 241.330393 
L 232.158363 222.496207 
L 232.274353 242.639734 
L 232.390342 242.508163 
L 232.73831 231.315293 
L 232.8543 233.671316 
L 232.970289 240.856605 
L 233.086279 235.640479 
L 233.202268 236.3489 
L 233.318258 253.845211 
L 233.434247 217.925528 
L 233.550237 243.883945 
L 233.782216 226.085434 
L 233.898205 225.709484 
L 234.246174 217.701418 
L 234.478153 236.736542 
L 234.710132 204.054307 
L 234.826121 234.236172 
L 235.0581 207.187304 
L 235.174089 223.27337 
L 235.290079 219.155972 
L 235.406068 197.833997 
L 235.522058 203.378591 
L 235.638047 200.662534 
L 235.754037 206.436167 
L 235.986016 182.822336 
L 236.102005 190.365031 
L 236.217995 54.362532 
L 236.333984 190.365031 
L 236.449974 182.822336 
L 236.681953 206.436167 
L 236.797942 200.662534 
L 236.913932 203.378591 
L 237.029921 197.833997 
L 237.2619 223.27337 
L 237.37789 207.187304 
L 237.609868 234.236172 
L 237.725858 204.054307 
L 237.841847 212.105453 
L 237.957837 236.736542 
L 238.073826 230.70278 
L 238.189816 217.701418 
L 238.305805 218.274356 
L 238.537784 225.709484 
L 238.653774 226.085434 
L 238.769763 231.016258 
L 238.885753 243.883945 
L 239.001742 217.925528 
L 239.117732 253.845211 
L 239.233721 236.3489 
L 239.349711 235.640479 
L 239.4657 240.856605 
L 239.697679 231.315293 
L 240.045647 242.508163 
L 240.161637 242.639734 
L 240.277626 222.496207 
L 240.393616 224.353908 
L 240.509605 241.330393 
L 240.625595 220.028215 
L 240.857574 253.580275 
L 240.973563 231.853598 
L 241.089553 233.284168 
L 241.321532 210.164359 
L 241.437521 228.416732 
L 241.553511 223.791246 
L 241.6695 235.762793 
L 241.78549 232.810323 
L 241.901479 245.701361 
L 242.017469 272.198357 
L 242.249448 234.900818 
L 242.365437 258.896301 
L 242.481426 226.276251 
L 242.713405 255.961489 
L 242.945384 237.810077 
L 243.061374 235.778679 
L 243.177363 229.689678 
L 243.409342 240.130046 
L 243.525332 234.241989 
L 243.641321 260.935129 
L 243.98929 240.309726 
L 244.105279 247.638189 
L 244.221269 241.892098 
L 244.453248 256.510692 
L 244.569237 253.623058 
L 244.685227 255.915252 
L 244.801216 239.833188 
L 244.917205 254.167231 
L 245.033195 239.402295 
L 245.265174 258.61721 
L 245.613142 230.261632 
L 245.729132 231.857126 
L 245.845121 249.992604 
L 246.0771 246.48651 
L 246.19309 252.077959 
L 246.309079 248.030583 
L 246.425069 253.624998 
L 246.657048 233.831522 
L 246.889027 249.730141 
L 247.121006 232.102203 
L 247.236995 244.502805 
L 247.352985 232.53845 
L 247.468974 242.432769 
L 247.584963 240.083742 
L 247.700953 246.291781 
L 247.932932 233.946904 
L 248.048921 250.987678 
L 248.164911 241.413555 
L 248.2809 243.576833 
L 248.39689 235.521936 
L 248.512879 236.741613 
L 248.628869 235.134353 
L 248.744858 240.708187 
L 248.976837 254.032458 
L 249.208816 234.266748 
L 249.324806 245.658098 
L 249.440795 238.48596 
L 249.556785 239.038967 
L 249.672774 231.681285 
L 249.788764 249.047595 
L 249.904753 229.173412 
L 250.020742 248.956491 
L 250.136732 240.573503 
L 250.252721 278.759646 
L 250.4847 237.032673 
L 250.716679 228.923555 
L 250.832669 255.869248 
L 250.948658 230.880603 
L 251.064648 238.117217 
L 251.180637 260.254898 
L 251.296627 243.614417 
L 251.412616 250.598532 
L 251.528606 237.506981 
L 251.760585 264.471415 
L 251.876574 242.590505 
L 251.992564 244.250267 
L 252.108553 239.658607 
L 252.224543 240.602687 
L 252.340532 243.279837 
L 252.456521 234.650711 
L 252.80449 243.652304 
L 252.920479 240.21237 
L 253.036469 251.442739 
L 253.268448 231.650774 
L 253.384437 247.460721 
L 253.616416 236.605776 
L 253.732406 260.945142 
L 253.848395 243.486116 
L 253.964385 266.582532 
L 254.080374 235.683721 
L 254.312353 264.507286 
L 254.428343 257.459362 
L 254.544332 237.387472 
L 254.776311 242.888409 
L 254.8923 281.142697 
L 255.00829 246.446204 
L 255.124279 251.194304 
L 255.240269 262.748886 
L 255.472248 234.501986 
L 255.588237 226.891449 
L 255.704227 247.584699 
L 255.820216 236.108191 
L 255.936206 241.593227 
L 256.052195 253.182622 
L 256.168185 232.418363 
L 256.284174 232.97318 
L 256.400164 241.46967 
L 256.516153 270.012406 
L 256.632143 261.044984 
L 256.748132 233.460865 
L 256.980111 260.210419 
L 257.096101 258.558461 
L 257.21209 241.047348 
L 257.444069 252.975876 
L 257.676048 244.080562 
L 257.792037 251.922077 
L 257.908027 245.973439 
L 258.024016 246.126608 
L 258.140006 242.439738 
L 258.371985 247.410345 
L 258.487974 244.320059 
L 258.719953 254.829572 
L 258.835943 250.817184 
L 258.951932 268.818962 
L 259.41589 244.426428 
L 259.647869 262.278295 
L 259.763859 243.116398 
L 259.995837 257.228281 
L 260.111827 251.160433 
L 260.227816 255.716395 
L 260.343806 270.691387 
L 260.575785 247.3304 
L 260.807764 266.14454 
L 260.923753 254.84469 
L 261.271722 263.468332 
L 261.503701 303.987778 
L 261.61969 265.954149 
L 261.73568 282.537528 
L 261.851669 255.059115 
L 261.967659 254.887094 
L 262.083648 283.683859 
L 262.199638 256.524934 
L 262.315627 271.128859 
L 262.431616 259.756907 
L 262.547606 274.355844 
L 262.663595 254.413013 
L 262.779585 273.944997 
L 262.895574 271.426389 
L 263.127553 281.709104 
L 263.243543 269.463432 
L 263.359532 302.979217 
L 263.475522 261.468304 
L 263.591511 270.662934 
L 263.707501 265.582334 
L 263.82349 271.32278 
L 263.93948 257.417693 
L 264.055469 284.293325 
L 264.171459 261.823094 
L 264.287448 261.662901 
L 264.403438 274.391385 
L 264.519427 260.954787 
L 264.635417 264.198342 
L 264.751406 272.128971 
L 264.867395 261.86805 
L 264.983385 306.208934 
L 265.215364 271.167784 
L 265.447343 296.14457 
L 265.679322 269.834796 
L 265.795311 283.879297 
L 265.911301 264.317692 
L 266.14328 277.258916 
L 266.259269 263.146643 
L 266.491248 282.634091 
L 266.607238 279.609342 
L 266.723227 285.020404 
L 266.839217 270.693476 
L 266.955206 289.926986 
L 267.071196 270.006787 
L 267.187185 271.663506 
L 267.303175 277.694118 
L 267.419164 274.121622 
L 267.535153 274.149855 
L 267.651143 272.818672 
L 267.767132 269.05474 
L 267.883122 288.702085 
L 268.115101 275.008531 
L 268.23109 278.414969 
L 268.34708 272.401438 
L 268.463069 287.097532 
L 268.695048 271.705383 
L 268.811038 303.912296 
L 269.043017 276.484448 
L 269.159006 276.068138 
L 269.274996 279.901856 
L 269.390985 312.173167 
L 269.506975 279.570637 
L 269.622964 298.014869 
L 269.738954 276.545939 
L 269.854943 285.852318 
L 269.970932 282.436279 
L 270.202911 297.711771 
L 270.318901 284.916833 
L 270.43489 287.435573 
L 270.666869 279.113341 
L 270.782859 283.614556 
L 270.898848 280.691261 
L 271.014838 299.868167 
L 271.362806 279.989365 
L 271.594785 290.13262 
L 271.710775 291.122625 
L 271.826764 296.332925 
L 271.942754 281.205549 
L 272.058743 287.477747 
L 272.174733 284.866064 
L 272.290722 292.105309 
L 272.406711 291.977615 
L 272.522701 279.13894 
L 272.75468 290.94038 
L 272.870669 281.852935 
L 272.986659 294.088885 
L 273.218638 283.80212 
L 273.334627 285.806421 
L 273.450617 287.085611 
L 273.682596 284.277907 
L 273.914575 288.544382 
L 274.030564 290.024336 
L 274.262543 285.780923 
L 274.378533 292.436002 
L 274.494522 289.541705 
L 274.610512 293.454038 
L 274.84249 282.720063 
L 274.95848 288.66527 
L 275.074469 282.785242 
L 275.190459 292.185237 
L 275.422438 285.821147 
L 275.538427 285.465436 
L 275.654417 290.647152 
L 275.770406 287.451692 
L 275.886396 292.670741 
L 276.002385 286.09043 
L 276.118375 290.509117 
L 276.350354 289.285375 
L 276.466343 287.63448 
L 276.582333 292.190662 
L 276.698322 288.058625 
L 276.814312 290.295798 
L 276.930301 295.373293 
L 277.046291 287.236952 
L 277.394259 291.498716 
L 277.510248 291.356098 
L 277.626238 290.853711 
L 277.742227 288.914764 
L 277.858217 293.007931 
L 277.974206 288.840569 
L 278.206185 291.207806 
L 278.322175 289.16895 
L 278.438164 289.443717 
L 278.554154 288.17856 
L 278.670143 288.448594 
L 278.786133 293.216237 
L 279.018112 289.886615 
L 279.134101 290.822237 
L 279.250091 287.81997 
L 279.48207 292.534472 
L 279.830038 289.949203 
L 280.062017 291.91943 
L 280.293996 290.547103 
L 280.409985 291.479404 
L 280.525975 291.071663 
L 280.641964 291.610125 
L 280.757954 289.155959 
L 280.873943 294.058704 
L 281.105922 290.867808 
L 281.221912 293.249145 
L 281.453891 291.536255 
L 281.56988 292.202232 
L 281.68587 292.023733 
L 281.801859 292.863185 
L 281.917849 295.409799 
L 282.149828 291.57362 
L 282.381806 293.022065 
L 282.497796 291.652736 
L 282.613785 292.100168 
L 282.729775 290.499516 
L 282.845764 293.675136 
L 283.077743 292.255814 
L 283.193733 293.571082 
L 283.309722 292.973201 
L 283.425712 293.103981 
L 283.541701 293.700498 
L 283.657691 292.312182 
L 283.77368 293.294873 
L 283.88967 292.062851 
L 284.005659 292.020343 
L 284.121649 293.674955 
L 284.237638 293.534116 
L 284.353628 292.132586 
L 284.469617 293.281689 
L 284.585607 292.969388 
L 284.701596 293.300261 
L 284.817586 294.62109 
L 284.933575 292.533164 
L 285.049564 292.807886 
L 285.165554 292.123235 
L 285.281543 292.450189 
L 285.629512 294.472786 
L 285.745501 293.366512 
L 285.861491 293.481254 
L 285.97748 292.994309 
L 286.209459 294.190492 
L 286.441438 293.759416 
L 286.557428 293.447068 
L 286.673417 293.861994 
L 286.789407 295.267746 
L 286.905396 293.26377 
L 287.021386 294.363219 
L 287.137375 293.778613 
L 287.253365 294.104114 
L 287.369354 295.1696 
L 287.601333 294.061179 
L 287.717322 294.395641 
L 287.949301 293.994093 
L 288.065291 294.589782 
L 288.18128 294.073875 
L 288.29727 294.720476 
L 288.529249 294.102848 
L 288.761228 295.22373 
L 288.993207 294.338624 
L 289.225186 295.069137 
L 289.341175 295.111872 
L 289.573154 293.965641 
L 289.921122 295.445848 
L 290.037112 294.933932 
L 290.153101 294.944376 
L 290.269091 294.369082 
L 290.50107 295.386543 
L 290.617059 295.149826 
L 290.733049 295.567829 
L 290.849038 294.967585 
L 291.081017 295.575087 
L 291.197007 294.942862 
L 291.544975 295.517877 
L 291.660965 295.136058 
L 291.776954 295.702935 
L 291.892944 295.572261 
L 292.008933 295.795721 
L 292.124923 295.61904 
L 292.240912 295.130292 
L 292.472891 296.001983 
L 292.70487 295.716205 
L 292.820859 295.77692 
L 292.936849 295.691972 
L 293.052838 295.206846 
L 293.400807 295.804554 
L 293.516796 295.56004 
L 293.632786 296.118963 
L 293.980754 295.825903 
L 294.096744 296.250443 
L 294.212733 296.045203 
L 294.444712 296.418242 
L 294.560702 295.838963 
L 294.676691 296.515138 
L 294.792681 296.057132 
L 294.90867 296.133249 
L 295.024659 296.495544 
L 295.140649 296.146655 
L 295.372628 296.429879 
L 295.488617 296.291116 
L 295.720596 296.755525 
L 295.952575 296.473593 
L 296.068565 296.638216 
L 296.184554 296.517198 
L 296.300544 296.709232 
L 296.416533 296.682826 
L 296.648512 296.865173 
L 296.764502 296.736616 
L 296.996481 297.000655 
L 297.11247 296.893316 
L 297.344449 297.070406 
L 297.576428 296.917596 
L 297.808407 297.250626 
L 298.040386 297.143349 
L 298.388354 296.935594 
L 298.504344 297.154408 
L 298.620333 297.003251 
L 298.852312 297.253924 
L 298.968302 297.267779 
L 299.084291 297.094746 
L 299.200281 297.489513 
L 299.31627 297.376226 
L 299.43226 297.633115 
L 299.780228 297.442714 
L 299.896217 297.501874 
L 300.012207 297.717153 
L 300.128196 297.50949 
L 300.824133 297.871476 
L 300.940123 297.749024 
L 301.056112 297.991097 
L 301.172102 297.766194 
L 301.52007 297.781959 
L 301.63606 298.067274 
L 301.752049 297.957898 
L 302.100018 298.226207 
L 302.216007 298.020794 
L 302.447986 298.196408 
L 302.563975 297.993345 
L 302.679965 298.241962 
L 302.795954 298.207888 
L 303.027933 298.317138 
L 303.375902 298.493876 
L 303.607881 298.342941 
L 303.72387 298.357675 
L 303.83986 298.546372 
L 303.955849 298.344497 
L 304.187828 298.562314 
L 304.303818 298.470112 
L 304.651786 298.665827 
L 304.767776 298.551532 
L 305.347723 298.833202 
L 306.971576 299.170768 
L 307.435533 299.27408 
L 307.667512 299.27307 
L 308.595428 299.390873 
L 309.059386 299.56805 
L 309.291365 299.529439 
L 309.639334 299.676667 
L 309.987302 299.762768 
L 310.219281 299.781788 
L 310.45126 299.830309 
L 310.567249 299.91151 
L 310.799228 299.87571 
L 311.263186 300.051421 
L 311.379176 299.914809 
L 311.611155 300.024035 
L 323.558071 302.010169 
L 335.620976 303.572856 
L 343.392271 304.401548 
L 348.379819 304.858296 
L 353.599345 305.287013 
L 359.978766 305.746432 
L 372.621619 306.475246 
L 380.740883 306.683334 
L 395.819515 306.871054 
L 398.487273 306.876166 
L 398.487273 306.876166 
" clip-path="url(#p2caafcdd43)" style="fill: none; stroke: #008000; stroke-width: 1.5; stroke-linecap: square"/>
   </g>
   <g id="patch_3">
    <path d="M 57.6 307.584 
L 57.6 41.472 
" style="fill: none; stroke: #000000; stroke-width: 0.8; stroke-linejoin: miter; stroke-linecap: square"/>
   </g>
   <g id="patch_4">
    <path d="M 414.72 307.584 
L 414.72 41.472 
" style="fill: none; stroke: #000000; stroke-width: 0.8; stroke-linejoin: miter; stroke-linecap: square"/>
   </g>
   <g id="patch_5">
    <path d="M 57.6 307.584 
L 414.72 307.584 
" style="fill: none; stroke: #000000; stroke-width: 0.8; stroke-linejoin: miter; stroke-linecap: square"/>
   </g>
   <g id="patch_6">
    <path d="M 57.6 41.472 
L 414.72 41.472 
" style="fill: none; stroke: #000000; stroke-width: 0.8; stroke-linejoin: miter; stroke-linecap: square"/>
   </g>
  </g>
 </g>
 <defs>
  <clipPath id="p2caafcdd43">
   <rect x="57.6" y="41.472" width="357.12" height="266.112"/>
  </clipPath>
 </defs>
</svg>
