<?xml version="1.0" encoding="utf-8" standalone="no"?>
<!DOCTYPE svg PUBLIC "-//W3C//DTD SVG 1.1//EN"
  "http://www.w3.org/Graphics/SVG/1.1/DTD/svg11.dtd">
<svg xmlns:xlink="http://www.w3.org/1999/xlink" width="460.8pt" height="345.6pt" viewBox="0 0 460.8 345.6" xmlns="http://www.w3.org/2000/svg" version="1.1">
 <metadata>
  <rdf:RDF xmlns:dc="http://purl.org/dc/elements/1.1/" xmlns:cc="http://creativecommons.org/ns#" xmlns:rdf="http://www.w3.org/1999/02/22-rdf-syntax-ns#">
   <cc:Work>
    <dc:type rdf:resource="http://purl.org/dc/dcmitype/StillImage"/>
    <dc:date>2024-05-23T10:38:49.598822</dc:date>
    <dc:format>image/svg+xml</dc:format>
    <dc:creator>
     <cc:Agent>
      <dc:title>Matplotlib v3.8.2, https://matplotlib.org/</dc:title>
     </cc:Agent>
    </dc:creator>
   </cc:Work>
  </rdf:RDF>
 </metadata>
 <defs>
  <style type="text/css">*{stroke-linejoin: round; stroke-linecap: butt}</style>
 </defs>
 <g id="figure_1">
  <g id="patch_1">
   <path d="M 0 345.6 
L 460.8 345.6 
L 460.8 0 
L 0 0 
z
" style="fill: #ffffff"/>
  </g>
  <g id="axes_1">
   <g id="patch_2">
    <path d="M 57.6 307.584 
L 414.72 307.584 
L 414.72 41.472 
L 57.6 41.472 
z
" style="fill: #ffffff"/>
   </g>
   <g id="matplotlib.axis_1">
    <g id="xtick_1">
     <g id="line2d_1">
      <defs>
       <path id="m4fde1674c2" d="M 0 0 
L 0 3.5 
" style="stroke: #000000; stroke-width: 0.8"/>
      </defs>
      <g>
       <use xlink:href="#m4fde1674c2" x="73.832727" y="307.584" style="stroke: #000000; stroke-width: 0.8"/>
      </g>
     </g>
     <g id="text_1">
      <!-- 0 -->
      <g transform="translate(70.651477 322.182437) scale(0.1 -0.1)">
       <defs>
        <path id="DejaVuSans-30" d="M 2034 4250 
Q 1547 4250 1301 3770 
Q 1056 3291 1056 2328 
Q 1056 1369 1301 889 
Q 1547 409 2034 409 
Q 2525 409 2770 889 
Q 3016 1369 3016 2328 
Q 3016 3291 2770 3770 
Q 2525 4250 2034 4250 
z
M 2034 4750 
Q 2819 4750 3233 4129 
Q 3647 3509 3647 2328 
Q 3647 1150 3233 529 
Q 2819 -91 2034 -91 
Q 1250 -91 836 529 
Q 422 1150 422 2328 
Q 422 3509 836 4129 
Q 1250 4750 2034 4750 
z
" transform="scale(0.015625)"/>
       </defs>
       <use xlink:href="#DejaVuSans-30"/>
      </g>
     </g>
    </g>
    <g id="xtick_2">
     <g id="line2d_2">
      <g>
       <use xlink:href="#m4fde1674c2" x="114.414545" y="307.584" style="stroke: #000000; stroke-width: 0.8"/>
      </g>
     </g>
     <g id="text_2">
      <!-- 5 -->
      <g transform="translate(111.233295 322.182437) scale(0.1 -0.1)">
       <defs>
        <path id="DejaVuSans-35" d="M 691 4666 
L 3169 4666 
L 3169 4134 
L 1269 4134 
L 1269 2991 
Q 1406 3038 1543 3061 
Q 1681 3084 1819 3084 
Q 2600 3084 3056 2656 
Q 3513 2228 3513 1497 
Q 3513 744 3044 326 
Q 2575 -91 1722 -91 
Q 1428 -91 1123 -41 
Q 819 9 494 109 
L 494 744 
Q 775 591 1075 516 
Q 1375 441 1709 441 
Q 2250 441 2565 725 
Q 2881 1009 2881 1497 
Q 2881 1984 2565 2268 
Q 2250 2553 1709 2553 
Q 1456 2553 1204 2497 
Q 953 2441 691 2322 
L 691 4666 
z
" transform="scale(0.015625)"/>
       </defs>
       <use xlink:href="#DejaVuSans-35"/>
      </g>
     </g>
    </g>
    <g id="xtick_3">
     <g id="line2d_3">
      <g>
       <use xlink:href="#m4fde1674c2" x="154.996364" y="307.584" style="stroke: #000000; stroke-width: 0.8"/>
      </g>
     </g>
     <g id="text_3">
      <!-- 10 -->
      <g transform="translate(148.633864 322.182437) scale(0.1 -0.1)">
       <defs>
        <path id="DejaVuSans-31" d="M 794 531 
L 1825 531 
L 1825 4091 
L 703 3866 
L 703 4441 
L 1819 4666 
L 2450 4666 
L 2450 531 
L 3481 531 
L 3481 0 
L 794 0 
L 794 531 
z
" transform="scale(0.015625)"/>
       </defs>
       <use xlink:href="#DejaVuSans-31"/>
       <use xlink:href="#DejaVuSans-30" x="63.623047"/>
      </g>
     </g>
    </g>
    <g id="xtick_4">
     <g id="line2d_4">
      <g>
       <use xlink:href="#m4fde1674c2" x="195.578182" y="307.584" style="stroke: #000000; stroke-width: 0.8"/>
      </g>
     </g>
     <g id="text_4">
      <!-- 15 -->
      <g transform="translate(189.215682 322.182437) scale(0.1 -0.1)">
       <use xlink:href="#DejaVuSans-31"/>
       <use xlink:href="#DejaVuSans-35" x="63.623047"/>
      </g>
     </g>
    </g>
    <g id="xtick_5">
     <g id="line2d_5">
      <g>
       <use xlink:href="#m4fde1674c2" x="236.16" y="307.584" style="stroke: #000000; stroke-width: 0.8"/>
      </g>
     </g>
     <g id="text_5">
      <!-- 20 -->
      <g transform="translate(229.7975 322.182437) scale(0.1 -0.1)">
       <defs>
        <path id="DejaVuSans-32" d="M 1228 531 
L 3431 531 
L 3431 0 
L 469 0 
L 469 531 
Q 828 903 1448 1529 
Q 2069 2156 2228 2338 
Q 2531 2678 2651 2914 
Q 2772 3150 2772 3378 
Q 2772 3750 2511 3984 
Q 2250 4219 1831 4219 
Q 1534 4219 1204 4116 
Q 875 4013 500 3803 
L 500 4441 
Q 881 4594 1212 4672 
Q 1544 4750 1819 4750 
Q 2544 4750 2975 4387 
Q 3406 4025 3406 3419 
Q 3406 3131 3298 2873 
Q 3191 2616 2906 2266 
Q 2828 2175 2409 1742 
Q 1991 1309 1228 531 
z
" transform="scale(0.015625)"/>
       </defs>
       <use xlink:href="#DejaVuSans-32"/>
       <use xlink:href="#DejaVuSans-30" x="63.623047"/>
      </g>
     </g>
    </g>
    <g id="xtick_6">
     <g id="line2d_6">
      <g>
       <use xlink:href="#m4fde1674c2" x="276.741818" y="307.584" style="stroke: #000000; stroke-width: 0.8"/>
      </g>
     </g>
     <g id="text_6">
      <!-- 25 -->
      <g transform="translate(270.379318 322.182437) scale(0.1 -0.1)">
       <use xlink:href="#DejaVuSans-32"/>
       <use xlink:href="#DejaVuSans-35" x="63.623047"/>
      </g>
     </g>
    </g>
    <g id="xtick_7">
     <g id="line2d_7">
      <g>
       <use xlink:href="#m4fde1674c2" x="317.323636" y="307.584" style="stroke: #000000; stroke-width: 0.8"/>
      </g>
     </g>
     <g id="text_7">
      <!-- 30 -->
      <g transform="translate(310.961136 322.182437) scale(0.1 -0.1)">
       <defs>
        <path id="DejaVuSans-33" d="M 2597 2516 
Q 3050 2419 3304 2112 
Q 3559 1806 3559 1356 
Q 3559 666 3084 287 
Q 2609 -91 1734 -91 
Q 1441 -91 1130 -33 
Q 819 25 488 141 
L 488 750 
Q 750 597 1062 519 
Q 1375 441 1716 441 
Q 2309 441 2620 675 
Q 2931 909 2931 1356 
Q 2931 1769 2642 2001 
Q 2353 2234 1838 2234 
L 1294 2234 
L 1294 2753 
L 1863 2753 
Q 2328 2753 2575 2939 
Q 2822 3125 2822 3475 
Q 2822 3834 2567 4026 
Q 2313 4219 1838 4219 
Q 1578 4219 1281 4162 
Q 984 4106 628 3988 
L 628 4550 
Q 988 4650 1302 4700 
Q 1616 4750 1894 4750 
Q 2613 4750 3031 4423 
Q 3450 4097 3450 3541 
Q 3450 3153 3228 2886 
Q 3006 2619 2597 2516 
z
" transform="scale(0.015625)"/>
       </defs>
       <use xlink:href="#DejaVuSans-33"/>
       <use xlink:href="#DejaVuSans-30" x="63.623047"/>
      </g>
     </g>
    </g>
    <g id="xtick_8">
     <g id="line2d_8">
      <g>
       <use xlink:href="#m4fde1674c2" x="357.905455" y="307.584" style="stroke: #000000; stroke-width: 0.8"/>
      </g>
     </g>
     <g id="text_8">
      <!-- 35 -->
      <g transform="translate(351.542955 322.182437) scale(0.1 -0.1)">
       <use xlink:href="#DejaVuSans-33"/>
       <use xlink:href="#DejaVuSans-35" x="63.623047"/>
      </g>
     </g>
    </g>
    <g id="xtick_9">
     <g id="line2d_9">
      <g>
       <use xlink:href="#m4fde1674c2" x="398.487273" y="307.584" style="stroke: #000000; stroke-width: 0.8"/>
      </g>
     </g>
     <g id="text_9">
      <!-- 40 -->
      <g transform="translate(392.124773 322.182437) scale(0.1 -0.1)">
       <defs>
        <path id="DejaVuSans-34" d="M 2419 4116 
L 825 1625 
L 2419 1625 
L 2419 4116 
z
M 2253 4666 
L 3047 4666 
L 3047 1625 
L 3713 1625 
L 3713 1100 
L 3047 1100 
L 3047 0 
L 2419 0 
L 2419 1100 
L 313 1100 
L 313 1709 
L 2253 4666 
z
" transform="scale(0.015625)"/>
       </defs>
       <use xlink:href="#DejaVuSans-34"/>
       <use xlink:href="#DejaVuSans-30" x="63.623047"/>
      </g>
     </g>
    </g>
    <g id="text_10">
     <!-- Time [$s$] -->
     <g transform="translate(215.66 335.860562) scale(0.1 -0.1)">
      <defs>
       <path id="DejaVuSans-54" d="M -19 4666 
L 3928 4666 
L 3928 4134 
L 2272 4134 
L 2272 0 
L 1638 0 
L 1638 4134 
L -19 4134 
L -19 4666 
z
" transform="scale(0.015625)"/>
       <path id="DejaVuSans-69" d="M 603 3500 
L 1178 3500 
L 1178 0 
L 603 0 
L 603 3500 
z
M 603 4863 
L 1178 4863 
L 1178 4134 
L 603 4134 
L 603 4863 
z
" transform="scale(0.015625)"/>
       <path id="DejaVuSans-6d" d="M 3328 2828 
Q 3544 3216 3844 3400 
Q 4144 3584 4550 3584 
Q 5097 3584 5394 3201 
Q 5691 2819 5691 2113 
L 5691 0 
L 5113 0 
L 5113 2094 
Q 5113 2597 4934 2840 
Q 4756 3084 4391 3084 
Q 3944 3084 3684 2787 
Q 3425 2491 3425 1978 
L 3425 0 
L 2847 0 
L 2847 2094 
Q 2847 2600 2669 2842 
Q 2491 3084 2119 3084 
Q 1678 3084 1418 2786 
Q 1159 2488 1159 1978 
L 1159 0 
L 581 0 
L 581 3500 
L 1159 3500 
L 1159 2956 
Q 1356 3278 1631 3431 
Q 1906 3584 2284 3584 
Q 2666 3584 2933 3390 
Q 3200 3197 3328 2828 
z
" transform="scale(0.015625)"/>
       <path id="DejaVuSans-65" d="M 3597 1894 
L 3597 1613 
L 953 1613 
Q 991 1019 1311 708 
Q 1631 397 2203 397 
Q 2534 397 2845 478 
Q 3156 559 3463 722 
L 3463 178 
Q 3153 47 2828 -22 
Q 2503 -91 2169 -91 
Q 1331 -91 842 396 
Q 353 884 353 1716 
Q 353 2575 817 3079 
Q 1281 3584 2069 3584 
Q 2775 3584 3186 3129 
Q 3597 2675 3597 1894 
z
M 3022 2063 
Q 3016 2534 2758 2815 
Q 2500 3097 2075 3097 
Q 1594 3097 1305 2825 
Q 1016 2553 972 2059 
L 3022 2063 
z
" transform="scale(0.015625)"/>
       <path id="DejaVuSans-20" transform="scale(0.015625)"/>
       <path id="DejaVuSans-5b" d="M 550 4863 
L 1875 4863 
L 1875 4416 
L 1125 4416 
L 1125 -397 
L 1875 -397 
L 1875 -844 
L 550 -844 
L 550 4863 
z
" transform="scale(0.015625)"/>
       <path id="DejaVuSans-Oblique-73" d="M 3200 3397 
L 3091 2853 
Q 2863 2978 2609 3040 
Q 2356 3103 2088 3103 
Q 1634 3103 1373 2948 
Q 1113 2794 1113 2528 
Q 1113 2219 1719 2053 
Q 1766 2041 1788 2034 
L 1972 1978 
Q 2547 1819 2739 1644 
Q 2931 1469 2931 1166 
Q 2931 609 2489 259 
Q 2047 -91 1331 -91 
Q 1053 -91 747 -37 
Q 441 16 72 128 
L 184 722 
Q 500 559 806 475 
Q 1113 391 1394 391 
Q 1816 391 2080 572 
Q 2344 753 2344 1031 
Q 2344 1331 1650 1516 
L 1591 1531 
L 1394 1581 
Q 956 1697 753 1886 
Q 550 2075 550 2369 
Q 550 2928 970 3256 
Q 1391 3584 2113 3584 
Q 2397 3584 2667 3537 
Q 2938 3491 3200 3397 
z
" transform="scale(0.015625)"/>
       <path id="DejaVuSans-5d" d="M 1947 4863 
L 1947 -844 
L 622 -844 
L 622 -397 
L 1369 -397 
L 1369 4416 
L 622 4416 
L 622 4863 
L 1947 4863 
z
" transform="scale(0.015625)"/>
      </defs>
      <use xlink:href="#DejaVuSans-54" transform="translate(0 0.015625)"/>
      <use xlink:href="#DejaVuSans-69" transform="translate(61.083984 0.015625)"/>
      <use xlink:href="#DejaVuSans-6d" transform="translate(88.867188 0.015625)"/>
      <use xlink:href="#DejaVuSans-65" transform="translate(186.279297 0.015625)"/>
      <use xlink:href="#DejaVuSans-20" transform="translate(247.802734 0.015625)"/>
      <use xlink:href="#DejaVuSans-5b" transform="translate(279.589844 0.015625)"/>
      <use xlink:href="#DejaVuSans-Oblique-73" transform="translate(318.603516 0.015625)"/>
      <use xlink:href="#DejaVuSans-5d" transform="translate(370.703125 0.015625)"/>
     </g>
    </g>
   </g>
   <g id="matplotlib.axis_2">
    <g id="ytick_1">
     <g id="line2d_10">
      <defs>
       <path id="m8ea371b522" d="M 0 0 
L -3.5 0 
" style="stroke: #000000; stroke-width: 0.8"/>
      </defs>
      <g>
       <use xlink:href="#m8ea371b522" x="57.6" y="284.77129" style="stroke: #000000; stroke-width: 0.8"/>
      </g>
     </g>
     <g id="text_11">
      <!-- 5.45 -->
      <g transform="translate(28.334375 288.570508) scale(0.1 -0.1)">
       <defs>
        <path id="DejaVuSans-2e" d="M 684 794 
L 1344 794 
L 1344 0 
L 684 0 
L 684 794 
z
" transform="scale(0.015625)"/>
       </defs>
       <use xlink:href="#DejaVuSans-35"/>
       <use xlink:href="#DejaVuSans-2e" x="63.623047"/>
       <use xlink:href="#DejaVuSans-34" x="95.410156"/>
       <use xlink:href="#DejaVuSans-35" x="159.033203"/>
      </g>
     </g>
    </g>
    <g id="ytick_2">
     <g id="line2d_11">
      <g>
       <use xlink:href="#m8ea371b522" x="57.6" y="243.392971" style="stroke: #000000; stroke-width: 0.8"/>
      </g>
     </g>
     <g id="text_12">
      <!-- 5.46 -->
      <g transform="translate(28.334375 247.19219) scale(0.1 -0.1)">
       <defs>
        <path id="DejaVuSans-36" d="M 2113 2584 
Q 1688 2584 1439 2293 
Q 1191 2003 1191 1497 
Q 1191 994 1439 701 
Q 1688 409 2113 409 
Q 2538 409 2786 701 
Q 3034 994 3034 1497 
Q 3034 2003 2786 2293 
Q 2538 2584 2113 2584 
z
M 3366 4563 
L 3366 3988 
Q 3128 4100 2886 4159 
Q 2644 4219 2406 4219 
Q 1781 4219 1451 3797 
Q 1122 3375 1075 2522 
Q 1259 2794 1537 2939 
Q 1816 3084 2150 3084 
Q 2853 3084 3261 2657 
Q 3669 2231 3669 1497 
Q 3669 778 3244 343 
Q 2819 -91 2113 -91 
Q 1303 -91 875 529 
Q 447 1150 447 2328 
Q 447 3434 972 4092 
Q 1497 4750 2381 4750 
Q 2619 4750 2861 4703 
Q 3103 4656 3366 4563 
z
" transform="scale(0.015625)"/>
       </defs>
       <use xlink:href="#DejaVuSans-35"/>
       <use xlink:href="#DejaVuSans-2e" x="63.623047"/>
       <use xlink:href="#DejaVuSans-34" x="95.410156"/>
       <use xlink:href="#DejaVuSans-36" x="159.033203"/>
      </g>
     </g>
    </g>
    <g id="ytick_3">
     <g id="line2d_12">
      <g>
       <use xlink:href="#m8ea371b522" x="57.6" y="202.014652" style="stroke: #000000; stroke-width: 0.8"/>
      </g>
     </g>
     <g id="text_13">
      <!-- 5.47 -->
      <g transform="translate(28.334375 205.813871) scale(0.1 -0.1)">
       <defs>
        <path id="DejaVuSans-37" d="M 525 4666 
L 3525 4666 
L 3525 4397 
L 1831 0 
L 1172 0 
L 2766 4134 
L 525 4134 
L 525 4666 
z
" transform="scale(0.015625)"/>
       </defs>
       <use xlink:href="#DejaVuSans-35"/>
       <use xlink:href="#DejaVuSans-2e" x="63.623047"/>
       <use xlink:href="#DejaVuSans-34" x="95.410156"/>
       <use xlink:href="#DejaVuSans-37" x="159.033203"/>
      </g>
     </g>
    </g>
    <g id="ytick_4">
     <g id="line2d_13">
      <g>
       <use xlink:href="#m8ea371b522" x="57.6" y="160.636334" style="stroke: #000000; stroke-width: 0.8"/>
      </g>
     </g>
     <g id="text_14">
      <!-- 5.48 -->
      <g transform="translate(28.334375 164.435552) scale(0.1 -0.1)">
       <defs>
        <path id="DejaVuSans-38" d="M 2034 2216 
Q 1584 2216 1326 1975 
Q 1069 1734 1069 1313 
Q 1069 891 1326 650 
Q 1584 409 2034 409 
Q 2484 409 2743 651 
Q 3003 894 3003 1313 
Q 3003 1734 2745 1975 
Q 2488 2216 2034 2216 
z
M 1403 2484 
Q 997 2584 770 2862 
Q 544 3141 544 3541 
Q 544 4100 942 4425 
Q 1341 4750 2034 4750 
Q 2731 4750 3128 4425 
Q 3525 4100 3525 3541 
Q 3525 3141 3298 2862 
Q 3072 2584 2669 2484 
Q 3125 2378 3379 2068 
Q 3634 1759 3634 1313 
Q 3634 634 3220 271 
Q 2806 -91 2034 -91 
Q 1263 -91 848 271 
Q 434 634 434 1313 
Q 434 1759 690 2068 
Q 947 2378 1403 2484 
z
M 1172 3481 
Q 1172 3119 1398 2916 
Q 1625 2713 2034 2713 
Q 2441 2713 2670 2916 
Q 2900 3119 2900 3481 
Q 2900 3844 2670 4047 
Q 2441 4250 2034 4250 
Q 1625 4250 1398 4047 
Q 1172 3844 1172 3481 
z
" transform="scale(0.015625)"/>
       </defs>
       <use xlink:href="#DejaVuSans-35"/>
       <use xlink:href="#DejaVuSans-2e" x="63.623047"/>
       <use xlink:href="#DejaVuSans-34" x="95.410156"/>
       <use xlink:href="#DejaVuSans-38" x="159.033203"/>
      </g>
     </g>
    </g>
    <g id="ytick_5">
     <g id="line2d_14">
      <g>
       <use xlink:href="#m8ea371b522" x="57.6" y="119.258015" style="stroke: #000000; stroke-width: 0.8"/>
      </g>
     </g>
     <g id="text_15">
      <!-- 5.49 -->
      <g transform="translate(28.334375 123.057234) scale(0.1 -0.1)">
       <defs>
        <path id="DejaVuSans-39" d="M 703 97 
L 703 672 
Q 941 559 1184 500 
Q 1428 441 1663 441 
Q 2288 441 2617 861 
Q 2947 1281 2994 2138 
Q 2813 1869 2534 1725 
Q 2256 1581 1919 1581 
Q 1219 1581 811 2004 
Q 403 2428 403 3163 
Q 403 3881 828 4315 
Q 1253 4750 1959 4750 
Q 2769 4750 3195 4129 
Q 3622 3509 3622 2328 
Q 3622 1225 3098 567 
Q 2575 -91 1691 -91 
Q 1453 -91 1209 -44 
Q 966 3 703 97 
z
M 1959 2075 
Q 2384 2075 2632 2365 
Q 2881 2656 2881 3163 
Q 2881 3666 2632 3958 
Q 2384 4250 1959 4250 
Q 1534 4250 1286 3958 
Q 1038 3666 1038 3163 
Q 1038 2656 1286 2365 
Q 1534 2075 1959 2075 
z
" transform="scale(0.015625)"/>
       </defs>
       <use xlink:href="#DejaVuSans-35"/>
       <use xlink:href="#DejaVuSans-2e" x="63.623047"/>
       <use xlink:href="#DejaVuSans-34" x="95.410156"/>
       <use xlink:href="#DejaVuSans-39" x="159.033203"/>
      </g>
     </g>
    </g>
    <g id="ytick_6">
     <g id="line2d_15">
      <g>
       <use xlink:href="#m8ea371b522" x="57.6" y="77.879696" style="stroke: #000000; stroke-width: 0.8"/>
      </g>
     </g>
     <g id="text_16">
      <!-- 5.50 -->
      <g transform="translate(28.334375 81.678915) scale(0.1 -0.1)">
       <use xlink:href="#DejaVuSans-35"/>
       <use xlink:href="#DejaVuSans-2e" x="63.623047"/>
       <use xlink:href="#DejaVuSans-35" x="95.410156"/>
       <use xlink:href="#DejaVuSans-30" x="159.033203"/>
      </g>
     </g>
    </g>
    <g id="text_17">
     <!-- Conductance [$\mu S$] -->
     <g transform="translate(22.234375 219.228) rotate(-90) scale(0.1 -0.1)">
      <defs>
       <path id="DejaVuSans-43" d="M 4122 4306 
L 4122 3641 
Q 3803 3938 3442 4084 
Q 3081 4231 2675 4231 
Q 1875 4231 1450 3742 
Q 1025 3253 1025 2328 
Q 1025 1406 1450 917 
Q 1875 428 2675 428 
Q 3081 428 3442 575 
Q 3803 722 4122 1019 
L 4122 359 
Q 3791 134 3420 21 
Q 3050 -91 2638 -91 
Q 1578 -91 968 557 
Q 359 1206 359 2328 
Q 359 3453 968 4101 
Q 1578 4750 2638 4750 
Q 3056 4750 3426 4639 
Q 3797 4528 4122 4306 
z
" transform="scale(0.015625)"/>
       <path id="DejaVuSans-6f" d="M 1959 3097 
Q 1497 3097 1228 2736 
Q 959 2375 959 1747 
Q 959 1119 1226 758 
Q 1494 397 1959 397 
Q 2419 397 2687 759 
Q 2956 1122 2956 1747 
Q 2956 2369 2687 2733 
Q 2419 3097 1959 3097 
z
M 1959 3584 
Q 2709 3584 3137 3096 
Q 3566 2609 3566 1747 
Q 3566 888 3137 398 
Q 2709 -91 1959 -91 
Q 1206 -91 779 398 
Q 353 888 353 1747 
Q 353 2609 779 3096 
Q 1206 3584 1959 3584 
z
" transform="scale(0.015625)"/>
       <path id="DejaVuSans-6e" d="M 3513 2113 
L 3513 0 
L 2938 0 
L 2938 2094 
Q 2938 2591 2744 2837 
Q 2550 3084 2163 3084 
Q 1697 3084 1428 2787 
Q 1159 2491 1159 1978 
L 1159 0 
L 581 0 
L 581 3500 
L 1159 3500 
L 1159 2956 
Q 1366 3272 1645 3428 
Q 1925 3584 2291 3584 
Q 2894 3584 3203 3211 
Q 3513 2838 3513 2113 
z
" transform="scale(0.015625)"/>
       <path id="DejaVuSans-64" d="M 2906 2969 
L 2906 4863 
L 3481 4863 
L 3481 0 
L 2906 0 
L 2906 525 
Q 2725 213 2448 61 
Q 2172 -91 1784 -91 
Q 1150 -91 751 415 
Q 353 922 353 1747 
Q 353 2572 751 3078 
Q 1150 3584 1784 3584 
Q 2172 3584 2448 3432 
Q 2725 3281 2906 2969 
z
M 947 1747 
Q 947 1113 1208 752 
Q 1469 391 1925 391 
Q 2381 391 2643 752 
Q 2906 1113 2906 1747 
Q 2906 2381 2643 2742 
Q 2381 3103 1925 3103 
Q 1469 3103 1208 2742 
Q 947 2381 947 1747 
z
" transform="scale(0.015625)"/>
       <path id="DejaVuSans-75" d="M 544 1381 
L 544 3500 
L 1119 3500 
L 1119 1403 
Q 1119 906 1312 657 
Q 1506 409 1894 409 
Q 2359 409 2629 706 
Q 2900 1003 2900 1516 
L 2900 3500 
L 3475 3500 
L 3475 0 
L 2900 0 
L 2900 538 
Q 2691 219 2414 64 
Q 2138 -91 1772 -91 
Q 1169 -91 856 284 
Q 544 659 544 1381 
z
M 1991 3584 
L 1991 3584 
z
" transform="scale(0.015625)"/>
       <path id="DejaVuSans-63" d="M 3122 3366 
L 3122 2828 
Q 2878 2963 2633 3030 
Q 2388 3097 2138 3097 
Q 1578 3097 1268 2742 
Q 959 2388 959 1747 
Q 959 1106 1268 751 
Q 1578 397 2138 397 
Q 2388 397 2633 464 
Q 2878 531 3122 666 
L 3122 134 
Q 2881 22 2623 -34 
Q 2366 -91 2075 -91 
Q 1284 -91 818 406 
Q 353 903 353 1747 
Q 353 2603 823 3093 
Q 1294 3584 2113 3584 
Q 2378 3584 2631 3529 
Q 2884 3475 3122 3366 
z
" transform="scale(0.015625)"/>
       <path id="DejaVuSans-74" d="M 1172 4494 
L 1172 3500 
L 2356 3500 
L 2356 3053 
L 1172 3053 
L 1172 1153 
Q 1172 725 1289 603 
Q 1406 481 1766 481 
L 2356 481 
L 2356 0 
L 1766 0 
Q 1100 0 847 248 
Q 594 497 594 1153 
L 594 3053 
L 172 3053 
L 172 3500 
L 594 3500 
L 594 4494 
L 1172 4494 
z
" transform="scale(0.015625)"/>
       <path id="DejaVuSans-61" d="M 2194 1759 
Q 1497 1759 1228 1600 
Q 959 1441 959 1056 
Q 959 750 1161 570 
Q 1363 391 1709 391 
Q 2188 391 2477 730 
Q 2766 1069 2766 1631 
L 2766 1759 
L 2194 1759 
z
M 3341 1997 
L 3341 0 
L 2766 0 
L 2766 531 
Q 2569 213 2275 61 
Q 1981 -91 1556 -91 
Q 1019 -91 701 211 
Q 384 513 384 1019 
Q 384 1609 779 1909 
Q 1175 2209 1959 2209 
L 2766 2209 
L 2766 2266 
Q 2766 2663 2505 2880 
Q 2244 3097 1772 3097 
Q 1472 3097 1187 3025 
Q 903 2953 641 2809 
L 641 3341 
Q 956 3463 1253 3523 
Q 1550 3584 1831 3584 
Q 2591 3584 2966 3190 
Q 3341 2797 3341 1997 
z
" transform="scale(0.015625)"/>
       <path id="DejaVuSans-Oblique-3bc" d="M -84 -1331 
L 856 3500 
L 1434 3500 
L 1009 1322 
Q 997 1256 987 1175 
Q 978 1094 978 1013 
Q 978 722 1161 565 
Q 1344 409 1684 409 
Q 2147 409 2431 671 
Q 2716 934 2816 1459 
L 3213 3500 
L 3788 3500 
L 3266 809 
Q 3253 750 3248 706 
Q 3244 663 3244 628 
Q 3244 531 3283 486 
Q 3322 441 3406 441 
Q 3438 441 3492 456 
Q 3547 472 3647 513 
L 3559 50 
Q 3422 -19 3297 -55 
Q 3172 -91 3053 -91 
Q 2847 -91 2730 40 
Q 2613 172 2613 403 
Q 2438 153 2195 31 
Q 1953 -91 1625 -91 
Q 1334 -91 1117 43 
Q 900 178 831 397 
L 494 -1331 
L -84 -1331 
z
" transform="scale(0.015625)"/>
       <path id="DejaVuSans-Oblique-53" d="M 3859 4513 
L 3738 3897 
Q 3422 4066 3111 4152 
Q 2800 4238 2509 4238 
Q 1944 4238 1609 3991 
Q 1275 3744 1275 3334 
Q 1275 3109 1398 2989 
Q 1522 2869 2034 2731 
L 2413 2638 
Q 3053 2472 3303 2217 
Q 3553 1963 3553 1503 
Q 3553 797 2998 353 
Q 2444 -91 1538 -91 
Q 1166 -91 791 -17 
Q 416 56 38 206 
L 166 856 
Q 513 641 861 531 
Q 1209 422 1556 422 
Q 2147 422 2503 684 
Q 2859 947 2859 1369 
Q 2859 1650 2717 1795 
Q 2575 1941 2106 2059 
L 1728 2156 
Q 1081 2325 845 2545 
Q 609 2766 609 3163 
Q 609 3859 1145 4304 
Q 1681 4750 2541 4750 
Q 2875 4750 3203 4690 
Q 3531 4631 3859 4513 
z
" transform="scale(0.015625)"/>
      </defs>
      <use xlink:href="#DejaVuSans-43" transform="translate(0 0.015625)"/>
      <use xlink:href="#DejaVuSans-6f" transform="translate(69.824219 0.015625)"/>
      <use xlink:href="#DejaVuSans-6e" transform="translate(131.005859 0.015625)"/>
      <use xlink:href="#DejaVuSans-64" transform="translate(194.384766 0.015625)"/>
      <use xlink:href="#DejaVuSans-75" transform="translate(257.861328 0.015625)"/>
      <use xlink:href="#DejaVuSans-63" transform="translate(321.240234 0.015625)"/>
      <use xlink:href="#DejaVuSans-74" transform="translate(376.220703 0.015625)"/>
      <use xlink:href="#DejaVuSans-61" transform="translate(415.429688 0.015625)"/>
      <use xlink:href="#DejaVuSans-6e" transform="translate(476.708984 0.015625)"/>
      <use xlink:href="#DejaVuSans-63" transform="translate(540.087891 0.015625)"/>
      <use xlink:href="#DejaVuSans-65" transform="translate(595.068359 0.015625)"/>
      <use xlink:href="#DejaVuSans-20" transform="translate(656.591797 0.015625)"/>
      <use xlink:href="#DejaVuSans-5b" transform="translate(688.378906 0.015625)"/>
      <use xlink:href="#DejaVuSans-Oblique-3bc" transform="translate(727.392578 0.015625)"/>
      <use xlink:href="#DejaVuSans-Oblique-53" transform="translate(791.015625 0.015625)"/>
      <use xlink:href="#DejaVuSans-5d" transform="translate(854.492188 0.015625)"/>
     </g>
    </g>
   </g>
   <g id="line2d_16">
    <path d="M 73.832727 143.902365 
L 74.296685 204.546582 
L 74.528664 216.99215 
L 74.644654 218.623987 
L 74.760643 218.091696 
L 74.992622 212.810607 
L 75.572569 198.528282 
L 76.036527 194.08691 
L 76.384496 190.568658 
L 76.964443 181.528797 
L 77.776369 168.800627 
L 78.240327 162.270403 
L 78.588296 154.061322 
L 79.516212 125.910823 
L 79.632201 125.577484 
L 79.86418 126.592233 
L 80.096159 127.308203 
L 80.212148 126.739681 
L 80.444127 123.065881 
L 81.372043 101.005479 
L 81.488033 101.148411 
L 81.720012 103.544448 
L 82.18397 109.676326 
L 82.415949 110.312773 
L 82.647928 109.432109 
L 82.879906 108.449583 
L 82.995896 108.34709 
L 83.111885 108.627083 
L 83.343864 110.244231 
L 83.691833 112.902904 
L 83.807822 112.836479 
L 83.923812 111.876483 
L 84.155791 106.90185 
L 84.851728 86.15404 
L 84.967717 85.561437 
L 85.083707 86.036177 
L 85.431675 91.216841 
L 85.779643 95.887049 
L 86.011622 96.52725 
L 86.47558 95.160987 
L 86.59157 95.424629 
L 86.823549 97.445666 
L 87.751464 109.310341 
L 88.331412 111.32887 
L 88.67938 114.790268 
L 89.027349 117.914299 
L 89.143338 118.042151 
L 89.259328 117.469612 
L 89.491307 114.106201 
L 90.187243 100.930698 
L 90.303233 101.153028 
L 90.535212 103.838085 
L 91.463128 118.234872 
L 91.695107 119.237994 
L 91.811096 119.244338 
L 92.275054 118.593894 
L 92.391044 118.999825 
L 92.623023 121.104912 
L 93.782917 136.37394 
L 94.130886 137.492981 
L 94.478854 138.036059 
L 94.594844 137.996 
L 94.710833 137.710753 
L 94.942812 135.918718 
L 95.174791 131.784939 
L 95.986717 112.216316 
L 96.102707 112.426169 
L 96.334686 115.734729 
L 97.030623 128.610888 
L 97.262602 129.193423 
L 97.494581 127.917445 
L 98.190517 122.419452 
L 98.306507 122.448442 
L 98.538486 123.506761 
L 99.002444 126.456205 
L 99.118433 126.678597 
L 99.234423 126.575818 
L 99.466402 125.455559 
L 99.81437 122.11875 
L 100.858275 110.393014 
L 101.206244 108.897899 
L 101.438223 106.157079 
L 101.670202 100.070042 
L 102.482128 74.040743 
L 102.598118 73.593554 
L 102.714107 73.807869 
L 102.946086 74.64685 
L 103.062075 74.527526 
L 103.178065 73.698073 
L 103.410044 69.667536 
L 104.105981 53.984529 
L 104.22197 53.568 
L 104.33796 53.978806 
L 104.569939 56.609297 
L 105.149886 64.548804 
L 105.497854 66.431472 
L 106.193791 68.556261 
L 106.42577 70.044413 
L 106.773739 74.090326 
L 107.121707 78.249259 
L 107.237697 78.748282 
L 107.353686 78.574299 
L 107.585665 76.612867 
L 107.817644 74.683392 
L 107.933633 74.746264 
L 108.049623 75.850089 
L 108.281602 81.094039 
L 108.977539 100.356663 
L 109.209518 101.79287 
L 109.325507 101.524678 
L 109.905455 97.804418 
L 110.021444 97.870146 
L 110.253423 99.614917 
L 110.717381 107.54035 
L 111.297328 115.893959 
L 111.645297 121.501985 
L 112.457223 137.710858 
L 112.573213 137.750802 
L 112.805191 135.562493 
L 113.15316 131.105701 
L 113.269149 130.764084 
L 113.385139 131.386063 
L 113.617118 135.42607 
L 114.429044 154.165185 
L 114.661023 154.995732 
L 114.893002 154.200319 
L 115.24097 152.636567 
L 115.35696 152.542832 
L 115.472949 152.779651 
L 115.704928 154.152313 
L 116.400865 159.071052 
L 116.632844 160.348703 
L 116.864823 162.766044 
L 117.56076 172.40525 
L 117.676749 171.968463 
L 117.908728 168.564644 
L 118.372686 161.195021 
L 118.488676 161.432456 
L 118.720655 164.905541 
L 119.416592 179.154135 
L 119.648571 180.283035 
L 119.76456 180.225211 
L 120.344507 178.654635 
L 120.460497 178.763349 
L 120.692476 179.703374 
L 121.272423 184.379768 
L 121.736381 187.201184 
L 122.08435 188.969081 
L 122.316329 191.099713 
L 122.780286 198.823343 
L 123.012265 201.952039 
L 123.128255 202.384562 
L 123.244244 201.790605 
L 123.476223 197.568365 
L 124.056171 184.5323 
L 124.17216 184.255418 
L 124.28815 184.925676 
L 124.636118 190.335111 
L 124.984087 195.560242 
L 125.216065 197.004517 
L 125.332055 197.104196 
L 125.564034 196.41715 
L 126.259971 193.076696 
L 126.607939 192.523671 
L 126.955908 192.315057 
L 127.071897 192.355664 
L 127.303876 192.842387 
L 127.535855 194.048448 
L 127.999813 198.273757 
L 128.57976 204.569467 
L 128.69575 204.948376 
L 128.811739 204.589876 
L 129.043718 201.297809 
L 129.739655 185.548938 
L 129.855645 185.216145 
L 129.971634 185.834054 
L 130.319602 191.278028 
L 130.667571 196.139924 
L 130.89955 196.819197 
L 131.131529 195.847417 
L 131.479497 193.88217 
L 131.595487 193.620633 
L 131.711476 193.662883 
L 131.943455 194.572495 
L 133.10335 202.367969 
L 133.915276 209.871012 
L 134.031266 209.356335 
L 134.263245 206.456806 
L 134.611213 201.401436 
L 134.727203 200.868569 
L 134.843192 201.212838 
L 135.075171 204.162498 
L 135.655118 213.468245 
L 135.887097 214.351631 
L 136.003087 214.180279 
L 136.583034 212.406288 
L 136.699024 212.615743 
L 136.931003 213.947742 
L 137.278971 217.860989 
L 138.786834 237.919661 
L 138.902824 238.076566 
L 139.018813 237.439715 
L 139.250792 233.841607 
L 139.71475 224.414606 
L 139.946729 223.359794 
L 140.178708 225.217558 
L 140.758655 231.461847 
L 140.990634 231.835945 
L 141.222613 231.301872 
L 141.570582 230.502422 
L 141.686571 230.552976 
L 141.91855 231.319327 
L 143.542403 240.407411 
L 143.658392 240.570639 
L 143.774382 240.094475 
L 144.006361 236.779516 
L 144.586308 224.766479 
L 144.702298 224.624031 
L 144.934277 227.575652 
L 145.630213 241.385995 
L 145.746203 241.781592 
L 145.862192 241.533629 
L 146.44214 238.168737 
L 146.558129 238.41229 
L 146.790108 240.071752 
L 147.370056 244.746174 
L 147.718024 245.50408 
L 147.950003 246.189935 
L 148.181982 247.724295 
L 148.64594 251.586017 
L 148.761929 251.723177 
L 148.877919 251.184266 
L 149.109898 248.097825 
L 149.573856 241.099892 
L 149.689845 241.068821 
L 149.921824 243.763002 
L 150.73375 258.565036 
L 150.84974 258.979767 
L 150.965729 258.926147 
L 151.197708 257.809455 
L 151.893645 253.357328 
L 152.009635 253.296126 
L 152.125624 253.580055 
L 152.357603 255.183048 
L 153.981456 271.647773 
L 154.097445 271.960979 
L 154.213435 271.688199 
L 154.445414 268.899205 
L 155.25734 253.437011 
L 155.373329 253.84501 
L 155.953277 258.402496 
L 156.069266 258.194138 
L 156.301245 256.476368 
L 156.649214 253.790018 
L 156.765203 253.668994 
L 156.881193 254.057397 
L 157.113172 256.063129 
L 157.809108 263.03576 
L 158.041087 263.471448 
L 158.273066 263.0333 
L 158.505045 262.52466 
L 158.621035 262.537832 
L 158.853014 263.447032 
L 159.432961 267.376767 
L 159.548951 267.425384 
L 159.78093 266.64489 
L 160.012909 265.814783 
L 160.128898 265.88325 
L 160.360877 267.571902 
L 161.056814 275.583896 
L 161.172803 274.873306 
L 161.404782 270.764939 
L 161.98473 258.453724 
L 162.100719 258.105502 
L 162.216709 258.543421 
L 162.912645 264.170648 
L 163.028635 264.136522 
L 163.260614 263.096341 
L 163.956551 258.329573 
L 164.07254 258.33275 
L 164.304519 259.565062 
L 165.232435 268.106577 
L 165.348424 267.930266 
L 165.928372 266.224625 
L 166.044361 266.492795 
L 166.27634 268.017923 
L 166.972277 274.354392 
L 167.204256 274.746498 
L 167.436235 274.422121 
L 167.900193 273.245217 
L 168.132172 271.760557 
L 168.364151 268.544884 
L 169.060088 255.462891 
L 169.176077 255.196033 
L 169.292067 255.695681 
L 169.988004 262.414007 
L 170.103993 262.213482 
L 170.335972 260.149043 
L 170.79993 254.638274 
L 170.915919 254.262312 
L 171.031909 254.480554 
L 171.263888 256.257344 
L 171.727846 259.859307 
L 171.843835 259.968976 
L 172.075814 259.290475 
L 172.423783 258.084118 
L 172.539772 258.17583 
L 172.771751 259.334258 
L 173.351698 263.074171 
L 173.467688 263.172953 
L 173.699667 262.851606 
L 173.931646 262.6476 
L 174.047635 262.867432 
L 174.279614 264.145262 
L 175.09154 270.11382 
L 175.20753 269.819103 
L 175.439509 267.530265 
L 176.251435 255.163861 
L 176.367425 255.346407 
L 176.599404 257.230937 
L 177.295341 264.984117 
L 177.41133 265.433945 
L 177.527319 265.433645 
L 177.759298 264.067246 
L 178.455235 257.926708 
L 178.571225 257.966822 
L 178.803204 258.871072 
L 179.383151 261.649558 
L 180.427056 264.875553 
L 180.659035 265.67078 
L 180.775025 265.79986 
L 180.891014 265.702054 
L 181.122993 264.959367 
L 181.81893 261.960442 
L 182.050909 259.29116 
L 182.746846 247.876128 
L 182.862835 247.732468 
L 183.094814 249.319302 
L 183.558772 254.131028 
L 183.790751 254.770542 
L 183.906741 254.509919 
L 184.254709 252.39377 
L 184.486688 251.205989 
L 184.602678 251.079911 
L 184.718667 251.376851 
L 184.950646 253.25248 
L 185.878562 264.318446 
L 186.110541 265.129489 
L 186.22653 265.206783 
L 186.458509 264.865417 
L 186.922467 263.865805 
L 187.038457 263.961549 
L 187.270436 264.940362 
L 187.850383 269.15212 
L 187.966372 269.003045 
L 188.198351 266.353996 
L 189.010278 250.086425 
L 189.242257 253.247585 
L 189.822204 264.634772 
L 189.938194 264.799282 
L 190.170172 262.816187 
L 190.63413 256.813563 
L 190.866109 256.13945 
L 190.982099 256.642194 
L 191.214078 259.037856 
L 191.910015 268.125242 
L 192.141994 269.163756 
L 192.257983 269.255818 
L 192.489962 268.918478 
L 192.83793 268.327348 
L 192.95392 268.342389 
L 193.185899 268.777355 
L 193.649857 270.109105 
L 193.765846 269.951073 
L 193.997825 268.09141 
L 194.345794 261.187674 
L 194.693762 254.610408 
L 194.809752 253.926308 
L 194.925741 254.19352 
L 195.15772 256.993443 
L 195.621678 263.712541 
L 195.737667 264.169502 
L 195.853657 263.932513 
L 196.085636 261.723264 
L 196.549594 255.952494 
L 196.665583 255.391819 
L 196.781573 255.400513 
L 197.013552 257.032239 
L 197.709488 265.131526 
L 197.941467 265.598737 
L 198.405425 264.708172 
L 198.521415 264.834394 
L 198.753394 265.872776 
L 199.217352 269.815416 
L 199.68131 273.576686 
L 199.913289 274.192378 
L 200.029278 273.844719 
L 200.261257 271.468395 
L 200.957194 260.675798 
L 201.073183 260.833502 
L 201.305162 263.214371 
L 201.76912 269.502937 
L 201.88511 270.082363 
L 202.001099 270.04298 
L 202.233078 268.222607 
L 202.929015 259.360661 
L 203.045004 259.217141 
L 203.160994 259.687924 
L 203.392973 262.170371 
L 204.08891 271.268616 
L 204.320889 272.199736 
L 204.552868 272.365364 
L 204.784847 272.402299 
L 205.016825 272.656009 
L 205.596773 273.420025 
L 205.828752 273.667299 
L 206.060731 274.211291 
L 206.408699 275.732844 
L 206.872657 277.855598 
L 206.988647 277.920621 
L 207.104636 277.572493 
L 207.336615 275.266831 
L 208.148541 262.997097 
L 208.38052 265.414717 
L 208.960468 274.621921 
L 209.192447 275.238253 
L 209.424426 274.210977 
L 209.888384 271.782971 
L 210.004373 271.651603 
L 210.120362 271.742654 
L 210.352341 272.457442 
L 210.816299 275.15298 
L 211.164268 278.203441 
L 211.628226 284.925667 
L 212.208173 293.955874 
L 212.440152 295.46056 
L 212.556141 295.488 
L 212.78812 294.157797 
L 213.252078 288.474285 
L 214.064005 279.085361 
L 214.411973 276.515321 
L 214.527963 276.313141 
L 214.643952 276.536985 
L 214.875931 278.193657 
L 215.455878 283.919644 
L 215.571868 283.956346 
L 215.687857 283.241505 
L 215.919836 279.286057 
L 216.731763 257.710475 
L 216.847752 257.69985 
L 217.079731 260.98386 
L 217.775668 276.460331 
L 217.891657 277.054649 
L 218.007647 276.935284 
L 218.239626 275.260995 
L 218.703584 271.265747 
L 218.935563 270.439075 
L 219.167542 270.324476 
L 220.559415 271.577366 
L 221.255352 273.262645 
L 221.371342 273.141144 
L 221.603321 272.29238 
L 222.183268 268.297769 
L 222.647226 265.466439 
L 222.879205 264.834167 
L 222.995194 264.804817 
L 223.227173 265.232048 
L 223.807121 266.860573 
L 224.0391 267.07404 
L 224.155089 267.034913 
L 224.387068 266.576328 
L 224.619047 265.448536 
L 224.851026 263.336025 
L 225.198994 257.309278 
L 226.010921 239.716572 
L 226.12691 239.357889 
L 226.2429 239.571865 
L 227.054826 243.40366 
L 227.170816 243.02229 
L 227.402795 241.01471 
L 227.982742 234.055475 
L 228.098731 233.719048 
L 228.214721 233.907627 
L 228.4467 235.394041 
L 228.910658 238.587901 
L 229.722584 241.311988 
L 229.954563 241.722741 
L 230.070552 241.682008 
L 230.418521 241.131681 
L 230.53451 241.200231 
L 230.6505 241.611029 
L 230.882479 243.654159 
L 231.462426 249.915103 
L 231.578416 249.885266 
L 231.810395 248.131782 
L 232.390342 242.000717 
L 232.506331 241.912497 
L 232.73831 243.131628 
L 233.318258 248.266039 
L 233.434247 248.5502 
L 233.550237 248.315213 
L 233.782216 245.938958 
L 234.130184 237.545258 
L 234.594142 226.308806 
L 234.710132 225.721406 
L 234.826121 226.315409 
L 235.0581 230.226465 
L 235.522058 239.012896 
L 235.638047 239.730955 
L 235.754037 239.645881 
L 235.986016 237.381312 
L 236.681953 227.670071 
L 236.797942 227.600689 
L 237.029921 229.110832 
L 238.189816 241.126169 
L 238.653774 244.203943 
L 239.4657 248.323856 
L 240.045647 252.787285 
L 240.277626 253.145212 
L 240.509605 252.196738 
L 240.973563 249.270873 
L 241.089553 249.185292 
L 241.205542 249.54248 
L 241.553511 252.488863 
L 241.901479 254.76391 
L 242.017469 254.604983 
L 242.249448 252.302469 
L 242.597416 244.227796 
L 243.061374 234.032097 
L 243.177363 233.57675 
L 243.293353 234.205901 
L 243.525332 238.100516 
L 244.105279 250.193604 
L 244.337258 251.267807 
L 244.453248 250.675545 
L 244.685227 247.51908 
L 245.497153 231.821615 
L 245.613142 231.512328 
L 245.729132 232.093243 
L 245.961111 235.569216 
L 246.541058 245.864099 
L 246.657048 246.425141 
L 246.773037 246.363145 
L 247.005016 244.891596 
L 247.352985 242.186205 
L 247.468974 241.848698 
L 247.584963 241.949171 
L 247.816942 243.397037 
L 248.628869 250.710869 
L 248.744858 250.874565 
L 248.860848 250.772556 
L 249.092827 249.958044 
L 249.672774 247.16976 
L 249.788764 246.980537 
L 249.904753 247.034758 
L 250.136732 247.937237 
L 250.716679 251.718211 
L 250.832669 251.455429 
L 251.064648 248.404196 
L 251.412616 237.811079 
L 251.760585 227.446944 
L 251.992564 225.218655 
L 252.108553 225.621783 
L 252.456521 229.866887 
L 252.80449 232.858558 
L 252.920479 232.81223 
L 253.152458 231.15039 
L 253.848395 223.778733 
L 253.964385 223.690115 
L 254.080374 224.071103 
L 254.312353 226.040382 
L 255.240269 236.518915 
L 255.472248 236.776303 
L 255.820216 236.306096 
L 255.936206 236.376374 
L 256.168185 237.248594 
L 256.864122 241.268315 
L 257.096101 241.409533 
L 257.676048 240.777517 
L 257.792037 240.932789 
L 258.024016 241.882731 
L 258.603964 245.635015 
L 258.719953 245.594394 
L 258.835943 244.964964 
L 259.067922 241.705225 
L 259.879848 225.11057 
L 259.995837 225.528659 
L 260.227816 228.902808 
L 260.691774 237.216609 
L 260.923753 238.133396 
L 261.155732 236.444771 
L 261.73568 229.683134 
L 261.851669 229.3074 
L 261.967659 229.504397 
L 262.199638 231.558545 
L 262.895574 240.357187 
L 263.127553 240.865247 
L 263.359532 240.952306 
L 263.475522 241.250218 
L 263.707501 242.894325 
L 264.403438 250.955553 
L 264.519427 251.10798 
L 264.635417 250.734326 
L 265.331353 246.631407 
L 265.563332 248.019753 
L 266.14328 253.914747 
L 266.259269 253.902378 
L 266.491248 251.7917 
L 267.071196 244.397049 
L 267.187185 244.488397 
L 267.419164 246.220241 
L 267.883122 250.362744 
L 268.115101 250.93037 
L 268.34708 250.689207 
L 268.695048 250.23355 
L 269.043017 250.146102 
L 269.274996 249.225918 
L 269.970932 244.210395 
L 270.086922 244.324744 
L 270.318901 245.494113 
L 271.014838 249.986198 
L 271.362806 250.89453 
L 271.478796 250.93658 
L 271.594785 250.784851 
L 271.826764 249.79365 
L 272.63869 244.877913 
L 272.986659 244.450267 
L 273.218638 242.935381 
L 273.566606 236.870631 
L 273.914575 230.186202 
L 274.146554 229.104553 
L 274.378533 231.125071 
L 274.84249 236.566107 
L 274.95848 236.69149 
L 275.074469 236.053463 
L 275.306448 232.668484 
L 276.002385 219.983819 
L 276.118375 219.667622 
L 276.234364 220.062317 
L 276.466343 222.588184 
L 277.16228 231.80751 
L 277.27827 232.086929 
L 277.394259 231.906338 
L 277.626238 230.497806 
L 278.206185 226.441158 
L 278.322175 226.266166 
L 278.438164 226.349924 
L 278.670143 227.077025 
L 279.134101 228.699136 
L 279.250091 228.779988 
L 279.36608 228.665485 
L 279.598059 227.892455 
L 280.293996 224.977616 
L 280.525975 224.833444 
L 280.989933 224.927627 
L 281.221912 224.399234 
L 282.497796 218.663369 
L 283.541701 209.710776 
L 284.237638 197.118652 
L 284.353628 197.072946 
L 284.585607 199.595699 
L 285.281543 211.385465 
L 285.397533 211.664523 
L 285.513522 211.328783 
L 286.09347 207.535639 
L 286.209459 207.792517 
L 286.441438 209.82784 
L 287.137375 218.136222 
L 287.369354 219.063952 
L 287.601333 219.322318 
L 287.833312 219.318121 
L 288.065291 219.144497 
L 288.529249 218.599869 
L 288.645238 218.677216 
L 288.877217 219.422607 
L 289.341175 222.589514 
L 289.805133 225.244895 
L 290.269091 226.833626 
L 290.50107 227.156851 
L 290.617059 227.126722 
L 290.849038 226.65693 
L 291.312996 225.327983 
L 291.428986 225.316122 
L 291.892944 226.003655 
L 292.008933 225.542223 
L 292.240912 222.690577 
L 292.820859 211.622778 
L 292.936849 211.413745 
L 293.052838 212.308794 
L 293.400807 219.545126 
L 293.748775 226.524706 
L 293.980754 227.655655 
L 294.096744 227.064044 
L 294.444712 222.52423 
L 294.90867 216.62123 
L 295.140649 215.302903 
L 295.372628 214.894853 
L 295.604607 214.764883 
L 295.836586 214.23099 
L 296.300544 211.78587 
L 297.808407 203.166381 
L 297.924396 203.109457 
L 298.040386 203.235123 
L 298.272365 203.99406 
L 299.084291 207.610903 
L 299.200281 207.044111 
L 299.43226 203.700772 
L 300.244186 184.128532 
L 300.360175 184.297247 
L 300.592154 187.048791 
L 301.056112 193.440621 
L 301.172102 193.897139 
L 301.288091 193.735232 
L 301.52007 191.720836 
L 301.984028 183.667556 
L 302.331996 178.457649 
L 302.563975 177.578407 
L 302.679965 178.067138 
L 303.027933 181.842446 
L 303.375902 185.450191 
L 303.607881 186.248126 
L 303.72387 186.124434 
L 303.955849 185.178527 
L 304.535797 182.494574 
L 304.883765 181.829334 
L 304.999754 181.883481 
L 305.231733 182.593588 
L 306.04366 186.918057 
L 306.159649 186.438612 
L 306.391628 183.388336 
L 306.739597 173.553447 
L 307.203555 159.891641 
L 307.435533 157.436996 
L 307.551523 157.400108 
L 307.783502 158.832417 
L 308.13147 161.395427 
L 308.24746 161.55339 
L 308.363449 161.166563 
L 308.595428 158.880724 
L 309.059386 153.323054 
L 309.175376 152.891351 
L 309.291365 152.965307 
L 309.871312 155.431227 
L 309.987302 155.246268 
L 310.219281 153.973025 
L 310.567249 151.771487 
L 310.683239 151.536165 
L 310.799228 151.690405 
L 311.031207 153.122023 
L 312.075113 162.562761 
L 312.423081 164.562546 
L 312.771049 168.648083 
L 313.235007 174.804331 
L 313.466986 175.576444 
L 313.582976 174.805396 
L 313.814955 170.442252 
L 314.510892 150.435051 
L 314.626881 150.025076 
L 314.742871 150.881613 
L 315.090839 158.075864 
L 315.438807 164.071068 
L 315.554797 164.543063 
L 315.670786 164.199469 
L 315.902765 161.669698 
L 316.598702 152.318967 
L 316.946671 150.568287 
L 317.410628 148.948768 
L 317.526618 148.995151 
L 317.642607 149.537064 
L 317.874586 152.451318 
L 318.686513 167.130712 
L 318.918492 167.762229 
L 319.38245 166.91837 
L 319.498439 167.13105 
L 319.846407 169.052033 
L 320.078386 169.8965 
L 320.194376 169.625975 
L 320.426355 167.069682 
L 320.774323 158.557667 
L 321.122292 150.139891 
L 321.354271 148.826628 
L 321.58625 151.496345 
L 322.166197 161.842413 
L 322.398176 162.897553 
L 322.514165 162.531796 
L 322.746144 160.371228 
L 323.210102 154.782554 
L 323.326092 154.285869 
L 323.442081 154.46215 
L 323.67406 156.824894 
L 324.369997 167.492035 
L 324.601976 168.203826 
L 324.833955 167.884215 
L 325.181923 167.42044 
L 325.413902 167.641508 
L 325.99385 168.466154 
L 326.341818 168.533013 
L 326.689787 168.470309 
L 326.805776 168.56808 
L 327.037755 169.34075 
L 327.733692 173.727034 
L 327.849681 173.289181 
L 328.08166 170.410884 
L 328.893587 154.290504 
L 329.009576 154.147244 
L 329.241555 155.806105 
L 329.821502 161.636932 
L 330.053481 162.103043 
L 330.169471 161.85872 
L 330.40145 160.551929 
L 330.981397 156.440168 
L 331.097387 156.392055 
L 331.329366 157.443254 
L 332.025303 162.738124 
L 332.257281 163.265673 
L 332.60525 163.688261 
L 332.837229 164.395438 
L 333.301187 166.236982 
L 333.417176 166.317094 
L 333.533166 166.114125 
L 333.765145 164.893197 
L 334.345092 160.904669 
L 334.461082 160.771918 
L 334.577071 160.965123 
L 334.925039 162.770138 
L 335.504987 165.679319 
L 335.852955 167.030404 
L 335.968945 167.122445 
L 336.084934 166.775606 
L 336.316913 164.200377 
L 337.12884 148.437025 
L 337.244829 148.886393 
L 337.476808 152.095713 
L 337.940766 159.81043 
L 338.172745 161.312804 
L 338.288734 161.423574 
L 338.520713 160.845782 
L 339.21665 158.339462 
L 339.33264 158.256193 
L 339.448629 158.345532 
L 339.680608 159.084423 
L 340.144566 162.101186 
L 340.956492 168.676171 
L 341.53644 173.590952 
L 342.116387 176.1774 
L 342.580345 178.843655 
L 342.928313 181.059 
L 343.044303 181.307705 
L 343.160292 181.01483 
L 343.392271 178.236831 
L 344.204198 162.456079 
L 344.320187 163.292831 
L 345.132113 174.803187 
L 345.248103 174.775184 
L 345.480082 173.246162 
L 346.060029 167.092689 
L 346.176019 166.84937 
L 346.292008 167.283457 
L 346.523987 170.153096 
L 347.219924 181.811846 
L 347.451903 182.775818 
L 347.799871 183.061891 
L 348.03185 183.935413 
L 349.075756 189.956881 
L 349.191745 189.978875 
L 349.423724 189.709969 
L 349.771692 189.280223 
L 349.887682 189.357314 
L 350.119661 190.134303 
L 350.467629 192.98151 
L 350.931587 196.893436 
L 351.047577 196.790948 
L 351.163566 195.859437 
L 351.395545 191.253115 
L 351.975493 175.717781 
L 352.091482 175.218007 
L 352.207471 176.112677 
L 352.43945 181.420429 
L 353.135387 201.499856 
L 353.367366 203.209874 
L 353.483356 203.028052 
L 353.715335 201.342413 
L 354.179293 197.783598 
L 354.295282 197.764467 
L 354.527261 199.127024 
L 355.339187 206.742399 
L 355.571166 207.126967 
L 355.919135 207.461129 
L 356.267103 208.422479 
L 356.847051 210.182361 
L 357.07903 210.252952 
L 357.311008 209.788742 
L 357.774966 208.742195 
L 358.122935 208.680724 
L 358.238924 208.466696 
L 358.470903 207.190215 
L 359.050851 202.709084 
L 359.16684 203.009285 
L 359.398819 205.457907 
L 359.862777 211.781904 
L 359.978766 211.843721 
L 360.094756 210.840417 
L 360.326735 205.911708 
L 360.790693 194.600285 
L 360.906682 193.770987 
L 361.022672 194.034483 
L 361.254651 197.165804 
L 361.834598 206.984827 
L 361.950588 207.571576 
L 362.066577 207.580685 
L 362.298556 206.29366 
L 362.762514 203.044911 
L 362.878503 202.932366 
L 362.994493 203.228713 
L 363.226472 204.881491 
L 363.922409 210.79098 
L 364.154388 211.162615 
L 364.386367 210.91721 
L 364.734335 210.549421 
L 364.850324 210.677838 
L 365.082303 211.531827 
L 365.430272 214.331871 
L 366.242198 222.291398 
L 366.474177 223.018882 
L 367.170114 223.807156 
L 367.286103 223.686046 
L 367.518082 222.268868 
L 367.866051 216.674928 
L 368.330009 209.541535 
L 368.445998 209.196788 
L 368.561988 209.509792 
L 368.793967 211.620773 
L 369.489904 219.714965 
L 369.721882 220.261544 
L 369.953861 219.496917 
L 370.30183 218.026341 
L 370.417819 218.053612 
L 370.649798 219.30636 
L 371.229746 224.387495 
L 371.345735 224.535472 
L 371.461725 224.272834 
L 372.041672 221.785177 
L 372.157662 221.937394 
L 372.38964 222.920704 
L 372.969588 225.630335 
L 373.085577 225.691636 
L 373.201567 225.51353 
L 373.549535 223.948037 
L 373.781514 223.035216 
L 373.897504 222.980122 
L 374.013493 223.299656 
L 374.245472 225.014935 
L 374.70943 229.269474 
L 374.941409 229.812851 
L 375.173388 229.354213 
L 375.869325 226.777126 
L 376.101304 224.488424 
L 376.565262 216.071963 
L 376.91323 211.164711 
L 377.02922 210.763476 
L 377.145209 211.061644 
L 377.377188 213.238774 
L 377.841146 217.91025 
L 377.957135 218.187484 
L 378.073125 218.031235 
L 378.305104 216.710107 
L 379.349009 208.874278 
L 379.580988 208.683468 
L 379.812967 209.021124 
L 380.160935 209.544485 
L 380.392914 209.436503 
L 380.740883 209.109778 
L 380.856872 209.286758 
L 381.088851 210.374632 
L 381.784788 215.012804 
L 382.016767 215.271285 
L 382.364735 215.101873 
L 382.480725 215.280249 
L 382.712704 216.340469 
L 383.292651 220.058417 
L 383.52463 220.303127 
L 383.756609 220.300112 
L 383.872599 220.569893 
L 384.104578 222.19542 
L 384.684525 228.148644 
L 384.800514 227.825654 
L 385.032493 224.516328 
L 385.612441 213.108438 
L 385.72843 213.009451 
L 385.960409 215.566881 
L 386.540357 225.611142 
L 386.656346 226.246918 
L 386.772336 226.179422 
L 387.004315 224.221538 
L 387.816241 214.246657 
L 387.93223 214.176954 
L 388.04822 214.633867 
L 388.280199 216.988467 
L 389.208115 230.331801 
L 389.440094 231.28798 
L 389.672072 231.415891 
L 390.020041 231.290792 
L 390.25202 231.583605 
L 390.483999 232.322512 
L 390.947957 234.959384 
L 391.179936 235.928123 
L 391.295925 235.797609 
L 391.411915 235.002235 
L 391.643894 231.067086 
L 392.223841 217.23782 
L 392.33983 216.560159 
L 392.45582 216.942789 
L 392.687799 220.05105 
L 393.267746 228.593833 
L 393.499725 229.328442 
L 393.615715 229.099057 
L 393.847694 227.749065 
L 394.311652 224.395504 
L 394.427641 224.209848 
L 394.543631 224.509971 
L 394.775609 226.51084 
L 395.355557 232.604791 
L 395.587536 232.899911 
L 396.167483 232.037109 
L 396.399462 232.429676 
L 396.747431 233.73972 
L 397.211388 236.776523 
L 397.791336 240.778324 
L 398.023315 241.393492 
L 398.255294 241.566807 
L 398.487273 241.591269 
L 398.487273 241.591269 
" clip-path="url(#p03a46eef34)" style="fill: none; stroke: #1f77b4; stroke-width: 1.5; stroke-linecap: square"/>
   </g>
   <g id="patch_3">
    <path d="M 57.6 307.584 
L 57.6 41.472 
" style="fill: none; stroke: #000000; stroke-width: 0.8; stroke-linejoin: miter; stroke-linecap: square"/>
   </g>
   <g id="patch_4">
    <path d="M 414.72 307.584 
L 414.72 41.472 
" style="fill: none; stroke: #000000; stroke-width: 0.8; stroke-linejoin: miter; stroke-linecap: square"/>
   </g>
   <g id="patch_5">
    <path d="M 57.6 307.584 
L 414.72 307.584 
" style="fill: none; stroke: #000000; stroke-width: 0.8; stroke-linejoin: miter; stroke-linecap: square"/>
   </g>
   <g id="patch_6">
    <path d="M 57.6 41.472 
L 414.72 41.472 
" style="fill: none; stroke: #000000; stroke-width: 0.8; stroke-linejoin: miter; stroke-linecap: square"/>
   </g>
  </g>
 </g>
 <defs>
  <clipPath id="p03a46eef34">
   <rect x="57.6" y="41.472" width="357.12" height="266.112"/>
  </clipPath>
 </defs>
</svg>
