<?xml version="1.0" encoding="utf-8" standalone="no"?>
<!DOCTYPE svg PUBLIC "-//W3C//DTD SVG 1.1//EN"
  "http://www.w3.org/Graphics/SVG/1.1/DTD/svg11.dtd">
<svg xmlns:xlink="http://www.w3.org/1999/xlink" width="460.8pt" height="345.6pt" viewBox="0 0 460.8 345.6" xmlns="http://www.w3.org/2000/svg" version="1.1">
 <metadata>
  <rdf:RDF xmlns:dc="http://purl.org/dc/elements/1.1/" xmlns:cc="http://creativecommons.org/ns#" xmlns:rdf="http://www.w3.org/1999/02/22-rdf-syntax-ns#">
   <cc:Work>
    <dc:type rdf:resource="http://purl.org/dc/dcmitype/StillImage"/>
    <dc:date>2024-05-24T11:06:07.395582</dc:date>
    <dc:format>image/svg+xml</dc:format>
    <dc:creator>
     <cc:Agent>
      <dc:title>Matplotlib v3.8.2, https://matplotlib.org/</dc:title>
     </cc:Agent>
    </dc:creator>
   </cc:Work>
  </rdf:RDF>
 </metadata>
 <defs>
  <style type="text/css">*{stroke-linejoin: round; stroke-linecap: butt}</style>
 </defs>
 <g id="figure_1">
  <g id="patch_1">
   <path d="M 0 345.6 
L 460.8 345.6 
L 460.8 0 
L 0 0 
z
" style="fill: #ffffff"/>
  </g>
  <g id="axes_1">
   <g id="patch_2">
    <path d="M 57.6 307.584 
L 414.72 307.584 
L 414.72 41.472 
L 57.6 41.472 
z
" style="fill: #ffffff"/>
   </g>
   <g id="matplotlib.axis_1">
    <g id="xtick_1">
     <g id="line2d_1">
      <defs>
       <path id="m3870775908" d="M 0 0 
L 0 3.5 
" style="stroke: #000000; stroke-width: 0.8"/>
      </defs>
      <g>
       <use xlink:href="#m3870775908" x="73.832727" y="307.584" style="stroke: #000000; stroke-width: 0.8"/>
      </g>
     </g>
     <g id="text_1">
      <!-- 0 -->
      <g transform="translate(70.651477 322.182437) scale(0.1 -0.1)">
       <defs>
        <path id="DejaVuSans-30" d="M 2034 4250 
Q 1547 4250 1301 3770 
Q 1056 3291 1056 2328 
Q 1056 1369 1301 889 
Q 1547 409 2034 409 
Q 2525 409 2770 889 
Q 3016 1369 3016 2328 
Q 3016 3291 2770 3770 
Q 2525 4250 2034 4250 
z
M 2034 4750 
Q 2819 4750 3233 4129 
Q 3647 3509 3647 2328 
Q 3647 1150 3233 529 
Q 2819 -91 2034 -91 
Q 1250 -91 836 529 
Q 422 1150 422 2328 
Q 422 3509 836 4129 
Q 1250 4750 2034 4750 
z
" transform="scale(0.015625)"/>
       </defs>
       <use xlink:href="#DejaVuSans-30"/>
      </g>
     </g>
    </g>
    <g id="xtick_2">
     <g id="line2d_2">
      <g>
       <use xlink:href="#m3870775908" x="114.414545" y="307.584" style="stroke: #000000; stroke-width: 0.8"/>
      </g>
     </g>
     <g id="text_2">
      <!-- 5 -->
      <g transform="translate(111.233295 322.182437) scale(0.1 -0.1)">
       <defs>
        <path id="DejaVuSans-35" d="M 691 4666 
L 3169 4666 
L 3169 4134 
L 1269 4134 
L 1269 2991 
Q 1406 3038 1543 3061 
Q 1681 3084 1819 3084 
Q 2600 3084 3056 2656 
Q 3513 2228 3513 1497 
Q 3513 744 3044 326 
Q 2575 -91 1722 -91 
Q 1428 -91 1123 -41 
Q 819 9 494 109 
L 494 744 
Q 775 591 1075 516 
Q 1375 441 1709 441 
Q 2250 441 2565 725 
Q 2881 1009 2881 1497 
Q 2881 1984 2565 2268 
Q 2250 2553 1709 2553 
Q 1456 2553 1204 2497 
Q 953 2441 691 2322 
L 691 4666 
z
" transform="scale(0.015625)"/>
       </defs>
       <use xlink:href="#DejaVuSans-35"/>
      </g>
     </g>
    </g>
    <g id="xtick_3">
     <g id="line2d_3">
      <g>
       <use xlink:href="#m3870775908" x="154.996364" y="307.584" style="stroke: #000000; stroke-width: 0.8"/>
      </g>
     </g>
     <g id="text_3">
      <!-- 10 -->
      <g transform="translate(148.633864 322.182437) scale(0.1 -0.1)">
       <defs>
        <path id="DejaVuSans-31" d="M 794 531 
L 1825 531 
L 1825 4091 
L 703 3866 
L 703 4441 
L 1819 4666 
L 2450 4666 
L 2450 531 
L 3481 531 
L 3481 0 
L 794 0 
L 794 531 
z
" transform="scale(0.015625)"/>
       </defs>
       <use xlink:href="#DejaVuSans-31"/>
       <use xlink:href="#DejaVuSans-30" x="63.623047"/>
      </g>
     </g>
    </g>
    <g id="xtick_4">
     <g id="line2d_4">
      <g>
       <use xlink:href="#m3870775908" x="195.578182" y="307.584" style="stroke: #000000; stroke-width: 0.8"/>
      </g>
     </g>
     <g id="text_4">
      <!-- 15 -->
      <g transform="translate(189.215682 322.182437) scale(0.1 -0.1)">
       <use xlink:href="#DejaVuSans-31"/>
       <use xlink:href="#DejaVuSans-35" x="63.623047"/>
      </g>
     </g>
    </g>
    <g id="xtick_5">
     <g id="line2d_5">
      <g>
       <use xlink:href="#m3870775908" x="236.16" y="307.584" style="stroke: #000000; stroke-width: 0.8"/>
      </g>
     </g>
     <g id="text_5">
      <!-- 20 -->
      <g transform="translate(229.7975 322.182437) scale(0.1 -0.1)">
       <defs>
        <path id="DejaVuSans-32" d="M 1228 531 
L 3431 531 
L 3431 0 
L 469 0 
L 469 531 
Q 828 903 1448 1529 
Q 2069 2156 2228 2338 
Q 2531 2678 2651 2914 
Q 2772 3150 2772 3378 
Q 2772 3750 2511 3984 
Q 2250 4219 1831 4219 
Q 1534 4219 1204 4116 
Q 875 4013 500 3803 
L 500 4441 
Q 881 4594 1212 4672 
Q 1544 4750 1819 4750 
Q 2544 4750 2975 4387 
Q 3406 4025 3406 3419 
Q 3406 3131 3298 2873 
Q 3191 2616 2906 2266 
Q 2828 2175 2409 1742 
Q 1991 1309 1228 531 
z
" transform="scale(0.015625)"/>
       </defs>
       <use xlink:href="#DejaVuSans-32"/>
       <use xlink:href="#DejaVuSans-30" x="63.623047"/>
      </g>
     </g>
    </g>
    <g id="xtick_6">
     <g id="line2d_6">
      <g>
       <use xlink:href="#m3870775908" x="276.741818" y="307.584" style="stroke: #000000; stroke-width: 0.8"/>
      </g>
     </g>
     <g id="text_6">
      <!-- 25 -->
      <g transform="translate(270.379318 322.182437) scale(0.1 -0.1)">
       <use xlink:href="#DejaVuSans-32"/>
       <use xlink:href="#DejaVuSans-35" x="63.623047"/>
      </g>
     </g>
    </g>
    <g id="xtick_7">
     <g id="line2d_7">
      <g>
       <use xlink:href="#m3870775908" x="317.323636" y="307.584" style="stroke: #000000; stroke-width: 0.8"/>
      </g>
     </g>
     <g id="text_7">
      <!-- 30 -->
      <g transform="translate(310.961136 322.182437) scale(0.1 -0.1)">
       <defs>
        <path id="DejaVuSans-33" d="M 2597 2516 
Q 3050 2419 3304 2112 
Q 3559 1806 3559 1356 
Q 3559 666 3084 287 
Q 2609 -91 1734 -91 
Q 1441 -91 1130 -33 
Q 819 25 488 141 
L 488 750 
Q 750 597 1062 519 
Q 1375 441 1716 441 
Q 2309 441 2620 675 
Q 2931 909 2931 1356 
Q 2931 1769 2642 2001 
Q 2353 2234 1838 2234 
L 1294 2234 
L 1294 2753 
L 1863 2753 
Q 2328 2753 2575 2939 
Q 2822 3125 2822 3475 
Q 2822 3834 2567 4026 
Q 2313 4219 1838 4219 
Q 1578 4219 1281 4162 
Q 984 4106 628 3988 
L 628 4550 
Q 988 4650 1302 4700 
Q 1616 4750 1894 4750 
Q 2613 4750 3031 4423 
Q 3450 4097 3450 3541 
Q 3450 3153 3228 2886 
Q 3006 2619 2597 2516 
z
" transform="scale(0.015625)"/>
       </defs>
       <use xlink:href="#DejaVuSans-33"/>
       <use xlink:href="#DejaVuSans-30" x="63.623047"/>
      </g>
     </g>
    </g>
    <g id="xtick_8">
     <g id="line2d_8">
      <g>
       <use xlink:href="#m3870775908" x="357.905455" y="307.584" style="stroke: #000000; stroke-width: 0.8"/>
      </g>
     </g>
     <g id="text_8">
      <!-- 35 -->
      <g transform="translate(351.542955 322.182437) scale(0.1 -0.1)">
       <use xlink:href="#DejaVuSans-33"/>
       <use xlink:href="#DejaVuSans-35" x="63.623047"/>
      </g>
     </g>
    </g>
    <g id="xtick_9">
     <g id="line2d_9">
      <g>
       <use xlink:href="#m3870775908" x="398.487273" y="307.584" style="stroke: #000000; stroke-width: 0.8"/>
      </g>
     </g>
     <g id="text_9">
      <!-- 40 -->
      <g transform="translate(392.124773 322.182437) scale(0.1 -0.1)">
       <defs>
        <path id="DejaVuSans-34" d="M 2419 4116 
L 825 1625 
L 2419 1625 
L 2419 4116 
z
M 2253 4666 
L 3047 4666 
L 3047 1625 
L 3713 1625 
L 3713 1100 
L 3047 1100 
L 3047 0 
L 2419 0 
L 2419 1100 
L 313 1100 
L 313 1709 
L 2253 4666 
z
" transform="scale(0.015625)"/>
       </defs>
       <use xlink:href="#DejaVuSans-34"/>
       <use xlink:href="#DejaVuSans-30" x="63.623047"/>
      </g>
     </g>
    </g>
    <g id="text_10">
     <!-- Time [$s$] -->
     <g transform="translate(215.66 335.860562) scale(0.1 -0.1)">
      <defs>
       <path id="DejaVuSans-54" d="M -19 4666 
L 3928 4666 
L 3928 4134 
L 2272 4134 
L 2272 0 
L 1638 0 
L 1638 4134 
L -19 4134 
L -19 4666 
z
" transform="scale(0.015625)"/>
       <path id="DejaVuSans-69" d="M 603 3500 
L 1178 3500 
L 1178 0 
L 603 0 
L 603 3500 
z
M 603 4863 
L 1178 4863 
L 1178 4134 
L 603 4134 
L 603 4863 
z
" transform="scale(0.015625)"/>
       <path id="DejaVuSans-6d" d="M 3328 2828 
Q 3544 3216 3844 3400 
Q 4144 3584 4550 3584 
Q 5097 3584 5394 3201 
Q 5691 2819 5691 2113 
L 5691 0 
L 5113 0 
L 5113 2094 
Q 5113 2597 4934 2840 
Q 4756 3084 4391 3084 
Q 3944 3084 3684 2787 
Q 3425 2491 3425 1978 
L 3425 0 
L 2847 0 
L 2847 2094 
Q 2847 2600 2669 2842 
Q 2491 3084 2119 3084 
Q 1678 3084 1418 2786 
Q 1159 2488 1159 1978 
L 1159 0 
L 581 0 
L 581 3500 
L 1159 3500 
L 1159 2956 
Q 1356 3278 1631 3431 
Q 1906 3584 2284 3584 
Q 2666 3584 2933 3390 
Q 3200 3197 3328 2828 
z
" transform="scale(0.015625)"/>
       <path id="DejaVuSans-65" d="M 3597 1894 
L 3597 1613 
L 953 1613 
Q 991 1019 1311 708 
Q 1631 397 2203 397 
Q 2534 397 2845 478 
Q 3156 559 3463 722 
L 3463 178 
Q 3153 47 2828 -22 
Q 2503 -91 2169 -91 
Q 1331 -91 842 396 
Q 353 884 353 1716 
Q 353 2575 817 3079 
Q 1281 3584 2069 3584 
Q 2775 3584 3186 3129 
Q 3597 2675 3597 1894 
z
M 3022 2063 
Q 3016 2534 2758 2815 
Q 2500 3097 2075 3097 
Q 1594 3097 1305 2825 
Q 1016 2553 972 2059 
L 3022 2063 
z
" transform="scale(0.015625)"/>
       <path id="DejaVuSans-20" transform="scale(0.015625)"/>
       <path id="DejaVuSans-5b" d="M 550 4863 
L 1875 4863 
L 1875 4416 
L 1125 4416 
L 1125 -397 
L 1875 -397 
L 1875 -844 
L 550 -844 
L 550 4863 
z
" transform="scale(0.015625)"/>
       <path id="DejaVuSans-Oblique-73" d="M 3200 3397 
L 3091 2853 
Q 2863 2978 2609 3040 
Q 2356 3103 2088 3103 
Q 1634 3103 1373 2948 
Q 1113 2794 1113 2528 
Q 1113 2219 1719 2053 
Q 1766 2041 1788 2034 
L 1972 1978 
Q 2547 1819 2739 1644 
Q 2931 1469 2931 1166 
Q 2931 609 2489 259 
Q 2047 -91 1331 -91 
Q 1053 -91 747 -37 
Q 441 16 72 128 
L 184 722 
Q 500 559 806 475 
Q 1113 391 1394 391 
Q 1816 391 2080 572 
Q 2344 753 2344 1031 
Q 2344 1331 1650 1516 
L 1591 1531 
L 1394 1581 
Q 956 1697 753 1886 
Q 550 2075 550 2369 
Q 550 2928 970 3256 
Q 1391 3584 2113 3584 
Q 2397 3584 2667 3537 
Q 2938 3491 3200 3397 
z
" transform="scale(0.015625)"/>
       <path id="DejaVuSans-5d" d="M 1947 4863 
L 1947 -844 
L 622 -844 
L 622 -397 
L 1369 -397 
L 1369 4416 
L 622 4416 
L 622 4863 
L 1947 4863 
z
" transform="scale(0.015625)"/>
      </defs>
      <use xlink:href="#DejaVuSans-54" transform="translate(0 0.015625)"/>
      <use xlink:href="#DejaVuSans-69" transform="translate(61.083984 0.015625)"/>
      <use xlink:href="#DejaVuSans-6d" transform="translate(88.867188 0.015625)"/>
      <use xlink:href="#DejaVuSans-65" transform="translate(186.279297 0.015625)"/>
      <use xlink:href="#DejaVuSans-20" transform="translate(247.802734 0.015625)"/>
      <use xlink:href="#DejaVuSans-5b" transform="translate(279.589844 0.015625)"/>
      <use xlink:href="#DejaVuSans-Oblique-73" transform="translate(318.603516 0.015625)"/>
      <use xlink:href="#DejaVuSans-5d" transform="translate(370.703125 0.015625)"/>
     </g>
    </g>
   </g>
   <g id="matplotlib.axis_2">
    <g id="ytick_1">
     <g id="line2d_10">
      <defs>
       <path id="m7ef64ad2ed" d="M 0 0 
L -3.5 0 
" style="stroke: #000000; stroke-width: 0.8"/>
      </defs>
      <g>
       <use xlink:href="#m7ef64ad2ed" x="57.6" y="276.305027" style="stroke: #000000; stroke-width: 0.8"/>
      </g>
     </g>
     <g id="text_11">
      <!-- 5.445 -->
      <g transform="translate(21.971875 280.104246) scale(0.1 -0.1)">
       <defs>
        <path id="DejaVuSans-2e" d="M 684 794 
L 1344 794 
L 1344 0 
L 684 0 
L 684 794 
z
" transform="scale(0.015625)"/>
       </defs>
       <use xlink:href="#DejaVuSans-35"/>
       <use xlink:href="#DejaVuSans-2e" x="63.623047"/>
       <use xlink:href="#DejaVuSans-34" x="95.410156"/>
       <use xlink:href="#DejaVuSans-34" x="159.033203"/>
       <use xlink:href="#DejaVuSans-35" x="222.65625"/>
      </g>
     </g>
    </g>
    <g id="ytick_2">
     <g id="line2d_11">
      <g>
       <use xlink:href="#m7ef64ad2ed" x="57.6" y="230.511583" style="stroke: #000000; stroke-width: 0.8"/>
      </g>
     </g>
     <g id="text_12">
      <!-- 5.450 -->
      <g transform="translate(21.971875 234.310802) scale(0.1 -0.1)">
       <use xlink:href="#DejaVuSans-35"/>
       <use xlink:href="#DejaVuSans-2e" x="63.623047"/>
       <use xlink:href="#DejaVuSans-34" x="95.410156"/>
       <use xlink:href="#DejaVuSans-35" x="159.033203"/>
       <use xlink:href="#DejaVuSans-30" x="222.65625"/>
      </g>
     </g>
    </g>
    <g id="ytick_3">
     <g id="line2d_12">
      <g>
       <use xlink:href="#m7ef64ad2ed" x="57.6" y="184.71814" style="stroke: #000000; stroke-width: 0.8"/>
      </g>
     </g>
     <g id="text_13">
      <!-- 5.455 -->
      <g transform="translate(21.971875 188.517358) scale(0.1 -0.1)">
       <use xlink:href="#DejaVuSans-35"/>
       <use xlink:href="#DejaVuSans-2e" x="63.623047"/>
       <use xlink:href="#DejaVuSans-34" x="95.410156"/>
       <use xlink:href="#DejaVuSans-35" x="159.033203"/>
       <use xlink:href="#DejaVuSans-35" x="222.65625"/>
      </g>
     </g>
    </g>
    <g id="ytick_4">
     <g id="line2d_13">
      <g>
       <use xlink:href="#m7ef64ad2ed" x="57.6" y="138.924696" style="stroke: #000000; stroke-width: 0.8"/>
      </g>
     </g>
     <g id="text_14">
      <!-- 5.460 -->
      <g transform="translate(21.971875 142.723915) scale(0.1 -0.1)">
       <defs>
        <path id="DejaVuSans-36" d="M 2113 2584 
Q 1688 2584 1439 2293 
Q 1191 2003 1191 1497 
Q 1191 994 1439 701 
Q 1688 409 2113 409 
Q 2538 409 2786 701 
Q 3034 994 3034 1497 
Q 3034 2003 2786 2293 
Q 2538 2584 2113 2584 
z
M 3366 4563 
L 3366 3988 
Q 3128 4100 2886 4159 
Q 2644 4219 2406 4219 
Q 1781 4219 1451 3797 
Q 1122 3375 1075 2522 
Q 1259 2794 1537 2939 
Q 1816 3084 2150 3084 
Q 2853 3084 3261 2657 
Q 3669 2231 3669 1497 
Q 3669 778 3244 343 
Q 2819 -91 2113 -91 
Q 1303 -91 875 529 
Q 447 1150 447 2328 
Q 447 3434 972 4092 
Q 1497 4750 2381 4750 
Q 2619 4750 2861 4703 
Q 3103 4656 3366 4563 
z
" transform="scale(0.015625)"/>
       </defs>
       <use xlink:href="#DejaVuSans-35"/>
       <use xlink:href="#DejaVuSans-2e" x="63.623047"/>
       <use xlink:href="#DejaVuSans-34" x="95.410156"/>
       <use xlink:href="#DejaVuSans-36" x="159.033203"/>
       <use xlink:href="#DejaVuSans-30" x="222.65625"/>
      </g>
     </g>
    </g>
    <g id="ytick_5">
     <g id="line2d_14">
      <g>
       <use xlink:href="#m7ef64ad2ed" x="57.6" y="93.131252" style="stroke: #000000; stroke-width: 0.8"/>
      </g>
     </g>
     <g id="text_15">
      <!-- 5.465 -->
      <g transform="translate(21.971875 96.930471) scale(0.1 -0.1)">
       <use xlink:href="#DejaVuSans-35"/>
       <use xlink:href="#DejaVuSans-2e" x="63.623047"/>
       <use xlink:href="#DejaVuSans-34" x="95.410156"/>
       <use xlink:href="#DejaVuSans-36" x="159.033203"/>
       <use xlink:href="#DejaVuSans-35" x="222.65625"/>
      </g>
     </g>
    </g>
    <g id="ytick_6">
     <g id="line2d_15">
      <g>
       <use xlink:href="#m7ef64ad2ed" x="57.6" y="47.337809" style="stroke: #000000; stroke-width: 0.8"/>
      </g>
     </g>
     <g id="text_16">
      <!-- 5.470 -->
      <g transform="translate(21.971875 51.137027) scale(0.1 -0.1)">
       <defs>
        <path id="DejaVuSans-37" d="M 525 4666 
L 3525 4666 
L 3525 4397 
L 1831 0 
L 1172 0 
L 2766 4134 
L 525 4134 
L 525 4666 
z
" transform="scale(0.015625)"/>
       </defs>
       <use xlink:href="#DejaVuSans-35"/>
       <use xlink:href="#DejaVuSans-2e" x="63.623047"/>
       <use xlink:href="#DejaVuSans-34" x="95.410156"/>
       <use xlink:href="#DejaVuSans-37" x="159.033203"/>
       <use xlink:href="#DejaVuSans-30" x="222.65625"/>
      </g>
     </g>
    </g>
    <g id="text_17">
     <!-- Conductance [$\mu S$] -->
     <g transform="translate(15.871875 219.228) rotate(-90) scale(0.1 -0.1)">
      <defs>
       <path id="DejaVuSans-43" d="M 4122 4306 
L 4122 3641 
Q 3803 3938 3442 4084 
Q 3081 4231 2675 4231 
Q 1875 4231 1450 3742 
Q 1025 3253 1025 2328 
Q 1025 1406 1450 917 
Q 1875 428 2675 428 
Q 3081 428 3442 575 
Q 3803 722 4122 1019 
L 4122 359 
Q 3791 134 3420 21 
Q 3050 -91 2638 -91 
Q 1578 -91 968 557 
Q 359 1206 359 2328 
Q 359 3453 968 4101 
Q 1578 4750 2638 4750 
Q 3056 4750 3426 4639 
Q 3797 4528 4122 4306 
z
" transform="scale(0.015625)"/>
       <path id="DejaVuSans-6f" d="M 1959 3097 
Q 1497 3097 1228 2736 
Q 959 2375 959 1747 
Q 959 1119 1226 758 
Q 1494 397 1959 397 
Q 2419 397 2687 759 
Q 2956 1122 2956 1747 
Q 2956 2369 2687 2733 
Q 2419 3097 1959 3097 
z
M 1959 3584 
Q 2709 3584 3137 3096 
Q 3566 2609 3566 1747 
Q 3566 888 3137 398 
Q 2709 -91 1959 -91 
Q 1206 -91 779 398 
Q 353 888 353 1747 
Q 353 2609 779 3096 
Q 1206 3584 1959 3584 
z
" transform="scale(0.015625)"/>
       <path id="DejaVuSans-6e" d="M 3513 2113 
L 3513 0 
L 2938 0 
L 2938 2094 
Q 2938 2591 2744 2837 
Q 2550 3084 2163 3084 
Q 1697 3084 1428 2787 
Q 1159 2491 1159 1978 
L 1159 0 
L 581 0 
L 581 3500 
L 1159 3500 
L 1159 2956 
Q 1366 3272 1645 3428 
Q 1925 3584 2291 3584 
Q 2894 3584 3203 3211 
Q 3513 2838 3513 2113 
z
" transform="scale(0.015625)"/>
       <path id="DejaVuSans-64" d="M 2906 2969 
L 2906 4863 
L 3481 4863 
L 3481 0 
L 2906 0 
L 2906 525 
Q 2725 213 2448 61 
Q 2172 -91 1784 -91 
Q 1150 -91 751 415 
Q 353 922 353 1747 
Q 353 2572 751 3078 
Q 1150 3584 1784 3584 
Q 2172 3584 2448 3432 
Q 2725 3281 2906 2969 
z
M 947 1747 
Q 947 1113 1208 752 
Q 1469 391 1925 391 
Q 2381 391 2643 752 
Q 2906 1113 2906 1747 
Q 2906 2381 2643 2742 
Q 2381 3103 1925 3103 
Q 1469 3103 1208 2742 
Q 947 2381 947 1747 
z
" transform="scale(0.015625)"/>
       <path id="DejaVuSans-75" d="M 544 1381 
L 544 3500 
L 1119 3500 
L 1119 1403 
Q 1119 906 1312 657 
Q 1506 409 1894 409 
Q 2359 409 2629 706 
Q 2900 1003 2900 1516 
L 2900 3500 
L 3475 3500 
L 3475 0 
L 2900 0 
L 2900 538 
Q 2691 219 2414 64 
Q 2138 -91 1772 -91 
Q 1169 -91 856 284 
Q 544 659 544 1381 
z
M 1991 3584 
L 1991 3584 
z
" transform="scale(0.015625)"/>
       <path id="DejaVuSans-63" d="M 3122 3366 
L 3122 2828 
Q 2878 2963 2633 3030 
Q 2388 3097 2138 3097 
Q 1578 3097 1268 2742 
Q 959 2388 959 1747 
Q 959 1106 1268 751 
Q 1578 397 2138 397 
Q 2388 397 2633 464 
Q 2878 531 3122 666 
L 3122 134 
Q 2881 22 2623 -34 
Q 2366 -91 2075 -91 
Q 1284 -91 818 406 
Q 353 903 353 1747 
Q 353 2603 823 3093 
Q 1294 3584 2113 3584 
Q 2378 3584 2631 3529 
Q 2884 3475 3122 3366 
z
" transform="scale(0.015625)"/>
       <path id="DejaVuSans-74" d="M 1172 4494 
L 1172 3500 
L 2356 3500 
L 2356 3053 
L 1172 3053 
L 1172 1153 
Q 1172 725 1289 603 
Q 1406 481 1766 481 
L 2356 481 
L 2356 0 
L 1766 0 
Q 1100 0 847 248 
Q 594 497 594 1153 
L 594 3053 
L 172 3053 
L 172 3500 
L 594 3500 
L 594 4494 
L 1172 4494 
z
" transform="scale(0.015625)"/>
       <path id="DejaVuSans-61" d="M 2194 1759 
Q 1497 1759 1228 1600 
Q 959 1441 959 1056 
Q 959 750 1161 570 
Q 1363 391 1709 391 
Q 2188 391 2477 730 
Q 2766 1069 2766 1631 
L 2766 1759 
L 2194 1759 
z
M 3341 1997 
L 3341 0 
L 2766 0 
L 2766 531 
Q 2569 213 2275 61 
Q 1981 -91 1556 -91 
Q 1019 -91 701 211 
Q 384 513 384 1019 
Q 384 1609 779 1909 
Q 1175 2209 1959 2209 
L 2766 2209 
L 2766 2266 
Q 2766 2663 2505 2880 
Q 2244 3097 1772 3097 
Q 1472 3097 1187 3025 
Q 903 2953 641 2809 
L 641 3341 
Q 956 3463 1253 3523 
Q 1550 3584 1831 3584 
Q 2591 3584 2966 3190 
Q 3341 2797 3341 1997 
z
" transform="scale(0.015625)"/>
       <path id="DejaVuSans-Oblique-3bc" d="M -84 -1331 
L 856 3500 
L 1434 3500 
L 1009 1322 
Q 997 1256 987 1175 
Q 978 1094 978 1013 
Q 978 722 1161 565 
Q 1344 409 1684 409 
Q 2147 409 2431 671 
Q 2716 934 2816 1459 
L 3213 3500 
L 3788 3500 
L 3266 809 
Q 3253 750 3248 706 
Q 3244 663 3244 628 
Q 3244 531 3283 486 
Q 3322 441 3406 441 
Q 3438 441 3492 456 
Q 3547 472 3647 513 
L 3559 50 
Q 3422 -19 3297 -55 
Q 3172 -91 3053 -91 
Q 2847 -91 2730 40 
Q 2613 172 2613 403 
Q 2438 153 2195 31 
Q 1953 -91 1625 -91 
Q 1334 -91 1117 43 
Q 900 178 831 397 
L 494 -1331 
L -84 -1331 
z
" transform="scale(0.015625)"/>
       <path id="DejaVuSans-Oblique-53" d="M 3859 4513 
L 3738 3897 
Q 3422 4066 3111 4152 
Q 2800 4238 2509 4238 
Q 1944 4238 1609 3991 
Q 1275 3744 1275 3334 
Q 1275 3109 1398 2989 
Q 1522 2869 2034 2731 
L 2413 2638 
Q 3053 2472 3303 2217 
Q 3553 1963 3553 1503 
Q 3553 797 2998 353 
Q 2444 -91 1538 -91 
Q 1166 -91 791 -17 
Q 416 56 38 206 
L 166 856 
Q 513 641 861 531 
Q 1209 422 1556 422 
Q 2147 422 2503 684 
Q 2859 947 2859 1369 
Q 2859 1650 2717 1795 
Q 2575 1941 2106 2059 
L 1728 2156 
Q 1081 2325 845 2545 
Q 609 2766 609 3163 
Q 609 3859 1145 4304 
Q 1681 4750 2541 4750 
Q 2875 4750 3203 4690 
Q 3531 4631 3859 4513 
z
" transform="scale(0.015625)"/>
      </defs>
      <use xlink:href="#DejaVuSans-43" transform="translate(0 0.015625)"/>
      <use xlink:href="#DejaVuSans-6f" transform="translate(69.824219 0.015625)"/>
      <use xlink:href="#DejaVuSans-6e" transform="translate(131.005859 0.015625)"/>
      <use xlink:href="#DejaVuSans-64" transform="translate(194.384766 0.015625)"/>
      <use xlink:href="#DejaVuSans-75" transform="translate(257.861328 0.015625)"/>
      <use xlink:href="#DejaVuSans-63" transform="translate(321.240234 0.015625)"/>
      <use xlink:href="#DejaVuSans-74" transform="translate(376.220703 0.015625)"/>
      <use xlink:href="#DejaVuSans-61" transform="translate(415.429688 0.015625)"/>
      <use xlink:href="#DejaVuSans-6e" transform="translate(476.708984 0.015625)"/>
      <use xlink:href="#DejaVuSans-63" transform="translate(540.087891 0.015625)"/>
      <use xlink:href="#DejaVuSans-65" transform="translate(595.068359 0.015625)"/>
      <use xlink:href="#DejaVuSans-20" transform="translate(656.591797 0.015625)"/>
      <use xlink:href="#DejaVuSans-5b" transform="translate(688.378906 0.015625)"/>
      <use xlink:href="#DejaVuSans-Oblique-3bc" transform="translate(727.392578 0.015625)"/>
      <use xlink:href="#DejaVuSans-Oblique-53" transform="translate(791.015625 0.015625)"/>
      <use xlink:href="#DejaVuSans-5d" transform="translate(854.492188 0.015625)"/>
     </g>
    </g>
   </g>
   <g id="line2d_16">
    <path d="M 73.832727 159.788184 
L 74.180696 133.18689 
L 74.528664 122.233195 
L 74.992622 110.826539 
L 75.34059 102.403014 
L 75.45658 101.5346 
L 75.572569 101.942151 
L 75.804548 106.138026 
L 76.268506 117.657404 
L 76.500485 119.060506 
L 76.732464 117.577698 
L 76.964443 116.324733 
L 77.080433 116.688605 
L 77.312412 119.936338 
L 78.008348 133.981676 
L 78.124338 134.359433 
L 78.240327 134.009845 
L 78.704285 131.235179 
L 78.820275 132.136083 
L 79.052254 137.683133 
L 79.86418 165.076074 
L 79.98017 164.640741 
L 80.212148 159.678721 
L 80.908085 137.752523 
L 81.140064 136.902549 
L 81.256054 136.651094 
L 81.372043 135.590837 
L 81.604022 129.823077 
L 81.951991 118.656644 
L 82.06798 117.517315 
L 82.18397 118.645995 
L 82.415949 127.359339 
L 82.879906 149.323923 
L 82.995896 150.511101 
L 83.111885 149.17889 
L 83.459854 135.446613 
L 83.807822 125.207519 
L 83.923812 125.362296 
L 84.155791 130.641717 
L 84.851728 153.928777 
L 85.083707 156.115846 
L 85.199696 155.845085 
L 85.431675 153.117563 
L 86.011622 143.746891 
L 86.127612 143.49826 
L 86.359591 144.98118 
L 86.59157 146.853161 
L 86.707559 147.047753 
L 86.823549 146.560708 
L 87.287507 143.376914 
L 87.519486 145.167101 
L 87.751464 147.288366 
L 87.867454 147.137979 
L 88.099433 143.132603 
L 88.563391 131.770458 
L 88.67938 131.782404 
L 88.911359 136.85207 
L 89.723286 166.163051 
L 89.839275 165.506182 
L 90.071254 159.284996 
L 90.651201 140.137452 
L 90.767191 139.423077 
L 90.88318 139.896128 
L 91.347138 144.594113 
L 91.463128 143.880212 
L 91.695107 139.104307 
L 92.043075 131.233279 
L 92.159065 130.809105 
L 92.275054 132.017578 
L 92.507033 138.939664 
L 93.20297 165.280606 
L 93.318959 166.00417 
L 93.434949 165.335529 
L 93.782917 158.712437 
L 94.014896 155.211941 
L 94.130886 154.690551 
L 94.246875 154.942149 
L 94.594844 156.493165 
L 94.710833 155.698335 
L 94.942812 150.910882 
L 95.40677 139.633309 
L 95.522759 139.17255 
L 95.638749 139.978164 
L 95.986717 147.065409 
L 96.218696 151.054393 
L 96.334686 151.506734 
L 96.450675 150.628846 
L 96.682654 145.172968 
L 97.378591 123.535511 
L 97.61057 120.991981 
L 97.726559 121.043721 
L 97.842549 122.130555 
L 98.074528 127.497007 
L 98.654475 144.723455 
L 98.770465 144.674651 
L 99.002444 139.247069 
L 99.466402 122.777399 
L 99.582391 121.28051 
L 99.698381 121.467844 
L 99.93036 126.357774 
L 100.858275 157.543511 
L 101.090254 159.505473 
L 101.206244 159.321351 
L 101.322233 158.230059 
L 101.554212 152.551283 
L 101.902181 133.617023 
L 102.366139 103.705009 
L 102.598118 99.431993 
L 102.714107 100.977312 
L 103.062075 114.703866 
L 103.526033 131.283527 
L 103.758012 133.640036 
L 103.874002 133.781973 
L 104.453949 132.70786 
L 104.685928 131.720467 
L 104.917907 129.351528 
L 105.729833 117.200418 
L 105.845823 117.337553 
L 106.077802 120.430598 
L 106.889728 138.273944 
L 107.005718 138.353128 
L 107.237697 137.156097 
L 107.701654 134.466274 
L 107.933633 133.898517 
L 108.049623 134.007806 
L 108.281602 135.44582 
L 108.74556 142.111914 
L 109.093528 145.295403 
L 109.209518 145.418394 
L 109.325507 145.08578 
L 109.557486 143.018555 
L 109.789465 138.501861 
L 110.137433 126.049551 
L 110.485402 113.912513 
L 110.601391 112.28101 
L 110.717381 112.250494 
L 110.94936 116.25689 
L 111.529307 130.871553 
L 111.645297 131.493232 
L 111.761286 130.762122 
L 111.993265 125.216838 
L 112.573213 105.266216 
L 112.689202 104.7443 
L 112.805191 106.160713 
L 113.03717 113.926965 
L 113.501128 132.233051 
L 113.617118 133.814361 
L 113.733107 133.804666 
L 113.965086 130.681008 
L 114.197065 127.620553 
L 114.313055 127.393479 
L 114.429044 128.228004 
L 115.124981 137.361827 
L 115.24097 137.030496 
L 115.588939 135.23565 
L 115.704928 135.279636 
L 115.936907 136.76592 
L 116.284876 141.486896 
L 116.632844 149.528826 
L 117.096802 161.040553 
L 117.212792 161.047249 
L 117.328781 158.723409 
L 117.56076 146.695165 
L 118.140707 111.276885 
L 118.256697 110.23482 
L 118.372686 111.394954 
L 118.952634 124.067521 
L 119.068623 123.775878 
L 119.300602 119.927829 
L 119.648571 114.126637 
L 119.76456 114.417785 
L 119.996539 119.464283 
L 120.576486 136.586861 
L 120.692476 136.819887 
L 120.924455 133.574291 
L 121.388413 123.919877 
L 121.504402 123.137093 
L 121.620392 123.257118 
L 121.852371 125.376352 
L 122.200339 128.70806 
L 122.316329 128.980016 
L 122.432318 128.773111 
L 123.012265 125.893431 
L 123.128255 126.070874 
L 123.360234 127.721029 
L 123.708202 132.671084 
L 124.404139 143.814835 
L 124.520129 143.19567 
L 124.752108 136.650092 
L 125.100076 113.121819 
L 125.564034 81.973714 
L 125.680023 80.643212 
L 125.796013 82.717016 
L 126.143981 101.877299 
L 126.49195 118.463976 
L 126.607939 120.247449 
L 126.723929 119.95945 
L 126.955908 113.767177 
L 127.883823 74.746313 
L 127.999813 75.986623 
L 128.811739 91.442448 
L 128.927729 91.333537 
L 129.507676 89.036248 
L 129.739655 89.640018 
L 129.971634 90.390194 
L 130.087624 90.388527 
L 130.203613 89.868947 
L 130.435592 86.464237 
L 130.78356 74.242421 
L 131.247518 55.791267 
L 131.479497 53.568 
L 131.595487 55.057241 
L 131.827466 62.703313 
L 132.407413 88.515286 
L 132.523403 90.233239 
L 132.639392 89.827609 
L 132.871371 83.140212 
L 133.335329 65.787009 
L 133.451318 65.330975 
L 133.567308 67.026883 
L 133.915276 79.995912 
L 134.263245 89.075206 
L 134.379234 88.683712 
L 134.611213 83.1005 
L 135.19116 66.1223 
L 135.30715 65.599771 
L 135.423139 66.202252 
L 135.771108 72.029383 
L 138.322876 121.232589 
L 138.438866 120.857205 
L 138.670845 117.126884 
L 139.018813 110.615231 
L 139.134803 110.755133 
L 139.366782 116.999024 
L 139.946729 143.462027 
L 140.062719 143.581232 
L 140.294697 136.5018 
L 140.874645 111.634062 
L 141.106624 109.010816 
L 141.222613 109.137623 
L 141.802561 112.883367 
L 141.91855 112.18413 
L 142.150529 107.889509 
L 142.614487 96.148606 
L 142.730476 95.778214 
L 142.846466 97.372429 
L 143.078445 106.481852 
L 143.890371 149.211804 
L 144.12235 151.478342 
L 144.23834 151.515823 
L 144.354329 151.403753 
L 144.470319 151.536916 
L 144.586308 152.221418 
L 144.818287 155.887916 
L 145.282245 170.602874 
L 145.630213 179.563905 
L 145.862192 181.388652 
L 145.978182 181.3172 
L 146.210161 180.005403 
L 146.558129 175.710676 
L 146.906098 170.928111 
L 147.022087 170.565445 
L 147.138077 171.355459 
L 147.370056 176.864808 
L 148.065992 201.516775 
L 148.181982 200.765069 
L 148.413961 192.194953 
L 148.993908 159.600199 
L 149.109898 158.048254 
L 149.225887 159.044436 
L 149.457866 166.775359 
L 149.805835 179.360096 
L 149.921824 180.343058 
L 150.037814 179.087385 
L 150.269792 171.23632 
L 150.73375 155.529833 
L 150.84974 155.256651 
L 150.965729 156.698785 
L 151.313698 167.481433 
L 151.777656 180.962041 
L 152.125624 185.176484 
L 152.93755 191.532209 
L 153.285519 198.199985 
L 153.749477 208.556106 
L 153.865466 209.369286 
L 153.981456 208.979871 
L 154.213435 204.950181 
L 154.793382 191.936206 
L 154.909372 191.363037 
L 155.025361 191.84148 
L 155.25734 196.175738 
L 155.953277 219.203597 
L 156.069266 219.186835 
L 156.301245 213.045513 
L 156.997182 185.39214 
L 157.113172 185.543286 
L 157.345151 189.667243 
L 157.925098 202.697343 
L 158.041087 203.478482 
L 158.157077 203.345369 
L 158.389056 200.391335 
L 159.200982 182.965536 
L 159.316972 183.063813 
L 159.548951 186.353452 
L 160.244887 201.96715 
L 160.360877 202.326965 
L 160.476866 201.931685 
L 160.940824 198.969607 
L 161.056814 199.230316 
L 161.404782 202.433667 
L 161.636761 203.604479 
L 161.752751 202.964179 
L 161.98473 199.036229 
L 162.332698 192.633643 
L 162.448688 192.717194 
L 162.680666 198.200015 
L 163.492593 234.23913 
L 163.608582 233.626512 
L 163.840561 224.504045 
L 164.536498 182.696571 
L 164.652488 181.774742 
L 164.768477 183.10098 
L 165.116445 194.841295 
L 165.464414 205.292302 
L 165.696393 207.003036 
L 165.812382 206.140531 
L 166.044361 201.572995 
L 166.740298 184.250167 
L 166.972277 182.737123 
L 167.088267 182.745607 
L 167.552224 183.545774 
L 168.016182 183.013941 
L 168.132172 183.203868 
L 168.48014 184.849142 
L 168.712119 185.658499 
L 168.828109 185.503436 
L 169.060088 183.781402 
L 169.872014 172.809395 
L 170.219982 162.391446 
L 170.68394 149.000188 
L 170.79993 148.51264 
L 170.915919 149.218886 
L 171.495867 156.321283 
L 171.611856 156.477923 
L 171.843835 155.628748 
L 172.191804 153.927907 
L 172.307793 153.770105 
L 172.423783 153.960115 
L 172.655761 155.620288 
L 173.00373 161.287789 
L 173.815656 176.167964 
L 174.047635 176.870687 
L 174.279614 176.107316 
L 174.511593 175.446925 
L 174.627583 175.633221 
L 174.859562 177.412894 
L 175.323519 182.61552 
L 175.439509 182.943175 
L 175.555498 182.623367 
L 175.787477 180.348302 
L 176.251435 175.098422 
L 176.367425 174.972004 
L 176.483414 175.550372 
L 176.947372 180.721742 
L 177.063362 180.64622 
L 177.179351 179.083918 
L 177.41133 170.56416 
L 178.107267 131.371599 
L 178.223256 130.238573 
L 178.339246 131.397422 
L 178.919193 147.306794 
L 179.035183 146.807106 
L 179.267162 138.71423 
L 179.963099 99.796742 
L 180.079088 99.102416 
L 180.195077 100.958553 
L 180.427056 111.028301 
L 181.007004 143.661471 
L 181.238983 147.114144 
L 181.354972 146.201737 
L 181.93492 135.77618 
L 182.050909 136.311474 
L 182.282888 141.703427 
L 182.862835 161.404359 
L 182.978825 161.924562 
L 183.094814 160.430088 
L 183.326793 151.983424 
L 183.790751 130.597164 
L 183.906741 128.692097 
L 184.02273 129.015371 
L 184.254709 135.667678 
L 184.950646 165.993355 
L 185.066635 166.538005 
L 185.182625 164.659761 
L 185.414604 153.849316 
L 185.994551 117.292766 
L 186.110541 115.032813 
L 186.22653 115.215573 
L 186.458509 121.046927 
L 186.922467 135.551068 
L 187.154446 137.290751 
L 187.270436 136.755461 
L 187.850383 132.310628 
L 187.966372 132.784033 
L 188.198351 135.960932 
L 188.54632 145.964426 
L 188.894288 155.744418 
L 189.126267 157.666066 
L 189.242257 157.081227 
L 189.706215 153.258154 
L 189.822204 154.155466 
L 190.170172 161.738195 
L 190.402151 166.098395 
L 190.518141 166.864433 
L 190.63413 166.732481 
L 190.866109 165.594307 
L 190.982099 165.806939 
L 191.098088 167.227926 
L 191.330067 174.086807 
L 191.794025 190.260863 
L 192.026004 191.732652 
L 192.257983 189.852683 
L 192.605951 185.393806 
L 192.83793 179.656782 
L 193.185899 162.987146 
L 193.533867 147.69709 
L 193.649857 146.655635 
L 193.765846 148.33238 
L 193.997825 158.447454 
L 194.461783 181.288504 
L 194.577773 182.905553 
L 194.693762 182.452287 
L 194.925741 177.151604 
L 195.273709 168.012761 
L 195.389699 166.768503 
L 195.505688 166.832317 
L 195.737667 170.835862 
L 196.549594 194.982121 
L 196.665583 194.336891 
L 196.897562 189.247559 
L 197.245531 181.97282 
L 197.36152 182.53369 
L 197.593499 189.476819 
L 198.057457 209.33675 
L 198.173446 211.144782 
L 198.289436 211.008896 
L 198.521415 206.185893 
L 198.985373 194.691688 
L 199.101362 194.432974 
L 199.217352 195.715658 
L 199.449331 202.235344 
L 199.913289 217.595251 
L 200.145267 219.875546 
L 200.261257 219.589945 
L 200.725215 215.386531 
L 201.073183 211.162933 
L 201.305162 204.490525 
L 202.001099 178.856688 
L 202.117089 179.830518 
L 202.349068 186.974195 
L 202.813025 204.147086 
L 203.045004 205.999554 
L 203.276983 202.347029 
L 204.08891 181.843345 
L 204.204899 182.291094 
L 204.436878 187.418656 
L 205.480783 225.332643 
L 205.712762 226.400225 
L 205.828752 225.924614 
L 206.060731 222.917631 
L 206.524689 210.87032 
L 206.872657 204.607923 
L 206.988647 204.282308 
L 207.104636 204.713678 
L 207.916562 210.281852 
L 208.148541 211.20425 
L 208.38052 213.504725 
L 208.960468 224.009233 
L 209.076457 223.883879 
L 209.192447 221.901735 
L 209.424426 212.112617 
L 209.888384 186.314453 
L 210.004373 184.006215 
L 210.120362 184.525841 
L 210.352341 193.043194 
L 211.048278 227.764764 
L 211.164268 229.373667 
L 211.280257 229.368773 
L 211.512236 224.901073 
L 212.440152 193.76856 
L 212.556141 193.62094 
L 212.78812 196.264741 
L 213.716036 214.194179 
L 213.832026 214.437783 
L 213.948015 213.95315 
L 214.527963 208.893268 
L 214.643952 209.634713 
L 214.875931 214.569246 
L 215.571868 238.033143 
L 215.687857 237.488819 
L 215.919836 228.644678 
L 216.615773 182.998773 
L 216.731763 183.054835 
L 216.963742 193.104989 
L 217.659678 235.151767 
L 217.891657 237.686717 
L 218.007647 237.282795 
L 218.239626 234.225764 
L 218.587594 224.733406 
L 219.283531 202.738518 
L 219.399521 201.877762 
L 219.51551 202.162289 
L 219.747489 205.374523 
L 220.907384 226.772957 
L 221.139363 229.641736 
L 221.255352 230.198734 
L 221.371342 230.106822 
L 221.603321 228.310223 
L 222.763215 213.134104 
L 223.459152 201.251768 
L 223.575142 201.745548 
L 223.807121 205.981411 
L 224.387068 218.587012 
L 224.503058 219.113101 
L 224.619047 218.946775 
L 224.851026 217.190369 
L 225.430973 209.821705 
L 225.894931 204.08617 
L 226.010921 203.579516 
L 226.12691 203.829313 
L 226.358889 206.998376 
L 227.750763 239.685349 
L 227.866752 240.567709 
L 227.982742 240.48957 
L 228.098731 239.249604 
L 228.33071 233.218722 
L 228.910658 215.732072 
L 229.026647 216.078695 
L 229.258626 221.353217 
L 229.606595 230.497867 
L 229.722584 230.752349 
L 229.838574 228.911844 
L 230.53451 206.560455 
L 230.6505 207.721462 
L 230.882479 214.767909 
L 231.346437 230.456696 
L 231.462426 231.834098 
L 231.578416 231.828448 
L 231.810395 228.153462 
L 232.622321 206.571784 
L 232.73831 206.546942 
L 232.970289 209.93125 
L 233.550237 221.929712 
L 233.782216 222.995558 
L 233.898205 222.893079 
L 234.362163 221.966488 
L 234.594142 221.867637 
L 234.826121 221.405451 
L 235.174089 220.170035 
L 235.290079 220.214947 
L 235.406068 220.799457 
L 235.638047 223.792838 
L 236.102005 231.756675 
L 236.217995 232.015782 
L 236.333984 230.811877 
L 236.565963 223.626878 
L 237.145911 200.277735 
L 237.2619 200.004848 
L 237.493879 204.901865 
L 238.073826 222.609205 
L 238.189816 223.231563 
L 238.305805 222.519295 
L 238.537784 217.889931 
L 239.001742 207.052089 
L 239.117732 206.679159 
L 239.233721 207.855612 
L 239.4657 214.709121 
L 240.161637 240.795488 
L 240.277626 240.707358 
L 240.509605 236.684245 
L 240.857574 230.868358 
L 240.973563 231.135949 
L 241.205542 235.746928 
L 241.6695 254.842785 
L 242.249448 277.70198 
L 242.597416 283.968465 
L 242.713405 283.83792 
L 242.945384 279.712802 
L 243.8733 251.557486 
L 244.221269 250.253063 
L 244.801216 244.744946 
L 244.917205 245.468465 
L 245.149184 250.139083 
L 245.613142 261.941044 
L 245.729132 262.946251 
L 245.845121 262.792958 
L 246.0771 259.959806 
L 246.309079 257.061069 
L 246.425069 256.971818 
L 246.541058 258.221772 
L 246.889027 267.687838 
L 247.121006 272.934821 
L 247.236995 273.63522 
L 247.352985 272.782168 
L 247.584963 266.970738 
L 248.164911 249.271873 
L 248.2809 248.790077 
L 248.39689 249.647445 
L 248.628869 254.362706 
L 249.208816 273.469563 
L 249.672774 286.922923 
L 249.788764 287.292818 
L 249.904753 285.45473 
L 250.136732 274.123895 
L 250.948658 209.245472 
L 251.064648 209.419452 
L 251.296627 220.600298 
L 251.992564 271.801298 
L 252.108553 273.775249 
L 252.224543 273.218872 
L 252.456521 266.236346 
L 253.036469 244.913833 
L 253.152458 243.904221 
L 253.268448 243.999998 
L 253.500427 245.188876 
L 253.616416 244.847812 
L 253.848395 239.688974 
L 254.544332 213.50776 
L 254.660322 214.999318 
L 254.8923 224.324115 
L 255.356258 244.355625 
L 255.472248 245.150446 
L 255.588237 243.886477 
L 255.936206 232.745283 
L 256.284174 223.519046 
L 256.400164 222.657652 
L 256.516153 222.909524 
L 256.748132 225.634531 
L 257.096101 229.703504 
L 257.21209 229.99427 
L 257.32808 229.748019 
L 257.676048 228.294447 
L 257.792037 228.53831 
L 258.024016 231.266662 
L 258.487974 238.411182 
L 258.603964 237.066029 
L 258.835943 227.400292 
L 259.53188 180.879546 
L 259.647869 179.758991 
L 259.763859 181.456576 
L 260.575785 207.740451 
L 260.691774 208.159642 
L 260.807764 207.929663 
L 261.039743 205.839001 
L 261.271722 200.777003 
L 261.73568 181.074422 
L 261.967659 173.821341 
L 262.083648 172.972687 
L 262.199638 174.154671 
L 262.431616 181.163408 
L 262.895574 196.815528 
L 263.127553 199.153401 
L 263.243543 198.752665 
L 263.475522 194.990743 
L 263.82349 182.39266 
L 264.519427 151.925699 
L 264.751406 147.86163 
L 264.867395 147.71115 
L 264.983385 148.822653 
L 265.331353 157.101584 
L 265.679322 164.662673 
L 265.911301 166.556579 
L 266.02729 166.655209 
L 266.14328 166.275877 
L 266.375259 164.012143 
L 266.607238 159.244972 
L 267.651143 130.436241 
L 267.767132 130.025481 
L 267.883122 130.316424 
L 268.115101 132.542922 
L 268.811038 141.340699 
L 269.854943 148.792276 
L 270.086922 149.59507 
L 270.43489 149.929761 
L 270.666869 150.198311 
L 271.014838 151.194626 
L 271.362806 152.061067 
L 271.710775 152.218692 
L 271.826764 152.510157 
L 272.058743 154.141328 
L 272.406711 159.523373 
L 272.870669 167.873231 
L 272.986659 168.787976 
L 273.102648 168.77637 
L 273.218638 167.698246 
L 273.450617 162.318995 
L 274.146554 140.94836 
L 274.262543 140.844825 
L 274.494522 144.484774 
L 274.84249 152.007971 
L 274.95848 152.641136 
L 275.074469 151.686537 
L 275.306448 145.346313 
L 275.770406 128.842768 
L 276.002385 126.524418 
L 276.118375 127.343457 
L 276.466343 134.709002 
L 277.046291 146.634563 
L 277.510248 155.416042 
L 278.206185 171.022939 
L 278.322175 171.751438 
L 278.438164 171.157226 
L 278.670143 165.883605 
L 279.250091 147.661186 
L 279.36608 146.96415 
L 279.48207 147.802831 
L 279.830038 156.228153 
L 280.062017 159.559146 
L 280.178006 158.412804 
L 280.409985 150.386967 
L 280.873943 130.436456 
L 281.105922 126.337588 
L 281.221912 125.921021 
L 281.337901 126.427207 
L 281.56988 129.784348 
L 282.613785 151.143272 
L 282.845764 151.988481 
L 282.961754 152.050561 
L 283.193733 151.531797 
L 283.425712 150.885024 
L 283.541701 151.093663 
L 283.77368 153.433589 
L 284.237638 159.675378 
L 284.353628 159.641769 
L 284.585607 157.339253 
L 284.933575 152.929001 
L 285.049564 152.556097 
L 285.165554 153.004623 
L 285.629512 157.185129 
L 285.745501 156.127548 
L 285.97748 148.635006 
L 286.673417 116.322315 
L 286.789407 116.796456 
L 287.021386 124.154303 
L 287.601333 151.383746 
L 287.717322 153.019374 
L 287.833312 152.518241 
L 288.065291 145.796477 
L 288.645238 124.39506 
L 288.761228 124.338961 
L 288.993207 128.086807 
L 289.225186 131.996601 
L 289.341175 132.298124 
L 289.457165 131.094822 
L 289.805133 121.150295 
L 290.153101 113.55751 
L 290.269091 113.528072 
L 290.50107 117.161711 
L 291.312996 136.567948 
L 291.428986 134.306451 
L 291.660965 122.659019 
L 292.240912 87.170547 
L 292.356901 86.530957 
L 292.472891 88.714951 
L 292.820859 105.931707 
L 293.284817 128.832092 
L 293.632786 137.120829 
L 293.980754 141.084458 
L 294.444712 144.443901 
L 294.676691 149.306636 
L 295.024659 163.688634 
L 295.488617 182.239443 
L 295.720596 185.43717 
L 295.836586 185.35403 
L 296.068565 182.970314 
L 296.532523 177.614382 
L 296.648512 177.369612 
L 296.764502 177.677217 
L 297.11247 179.900745 
L 297.22846 179.862322 
L 297.344449 178.761114 
L 297.576428 172.592398 
L 298.156375 150.126762 
L 298.272365 149.389732 
L 298.388354 150.58128 
L 298.736323 161.174255 
L 299.084291 169.747648 
L 299.200281 170.556158 
L 299.31627 170.441316 
L 299.664239 167.437749 
L 299.896217 165.872935 
L 300.128196 165.463511 
L 300.476165 165.425419 
L 300.824133 165.05645 
L 300.940123 165.157291 
L 301.172102 166.14123 
L 301.984028 171.785792 
L 302.216007 172.164132 
L 302.563975 172.417798 
L 302.795954 173.329904 
L 303.955849 182.366668 
L 304.303818 186.632128 
L 304.419807 186.535136 
L 304.535797 184.897236 
L 304.767776 176.646028 
L 305.347723 150.326333 
L 305.463712 149.175679 
L 305.579702 149.766933 
L 306.04366 157.24248 
L 306.159649 157.118643 
L 306.391628 152.387442 
L 306.971576 132.859457 
L 307.087565 132.10091 
L 307.203555 133.162804 
L 307.435533 140.136862 
L 308.13147 167.59687 
L 308.363449 170.211391 
L 308.479439 170.171142 
L 308.711418 168.260231 
L 309.407355 160.543861 
L 309.639334 159.782946 
L 309.755323 159.796711 
L 309.987302 160.356891 
L 310.567249 162.470097 
L 310.799228 164.140642 
L 311.611155 172.416498 
L 311.727144 171.860126 
L 311.959123 167.182821 
L 312.771049 140.450305 
L 312.887039 141.791707 
L 313.235007 152.540759 
L 313.582976 162.448534 
L 313.814955 164.704627 
L 313.930944 164.60708 
L 314.510892 161.177932 
L 314.626881 161.526534 
L 314.85886 164.090308 
L 316.366723 188.551809 
L 316.714692 192.15644 
L 316.830681 192.505741 
L 316.946671 192.396189 
L 317.526618 189.849725 
L 317.642607 190.126524 
L 318.338544 193.679166 
L 318.570523 193.471683 
L 318.686513 193.583209 
L 319.034481 194.870477 
L 319.150471 194.704852 
L 319.26646 193.559257 
L 319.498439 187.226622 
L 320.194376 158.300251 
L 320.310365 157.831872 
L 320.426355 159.130081 
L 320.658334 165.841665 
L 321.47026 195.261925 
L 321.702239 197.76116 
L 321.818229 197.696199 
L 322.050208 195.214373 
L 322.630155 186.638037 
L 322.746144 186.586611 
L 323.210102 188.549848 
L 323.326092 188.0304 
L 323.558071 185.03179 
L 323.906039 179.761349 
L 324.022029 179.453369 
L 324.138018 180.426827 
L 324.369997 186.203024 
L 324.833955 201.255346 
L 324.949944 202.44351 
L 325.065934 201.823442 
L 325.297913 195.191403 
L 325.99385 167.460862 
L 326.109839 168.305836 
L 326.341818 176.044913 
L 326.689787 190.439952 
L 326.805776 192.083623 
L 326.921766 191.147478 
L 327.153745 182.098347 
L 327.733692 154.363204 
L 327.849681 153.432036 
L 327.965671 154.117484 
L 328.661608 164.15815 
L 328.777597 163.44294 
L 329.009576 159.415086 
L 329.705513 144.278357 
L 329.821502 144.914498 
L 330.053481 150.86553 
L 330.749418 179.559385 
L 330.865408 180.268388 
L 330.981397 179.188492 
L 331.677334 165.618539 
L 331.793324 166.26867 
L 332.373271 172.183175 
L 332.60525 172.436303 
L 332.721239 172.500137 
L 332.953218 173.214111 
L 333.533166 176.467677 
L 333.649155 176.437611 
L 333.765145 175.945265 
L 333.997124 173.303352 
L 334.80905 159.087275 
L 334.925039 159.830518 
L 335.273008 165.382825 
L 335.968945 180.897029 
L 337.12884 210.663924 
L 337.476808 212.115451 
L 337.708787 214.778352 
L 338.172745 221.239832 
L 338.288734 221.801352 
L 338.404724 221.707692 
L 338.868682 219.165403 
L 338.984671 219.993916 
L 339.21665 225.12197 
L 339.680608 239.082247 
L 339.796597 240.176549 
L 339.912587 239.694605 
L 340.144566 234.554533 
L 340.840503 213.165396 
L 340.956492 213.23679 
L 341.188471 219.038481 
L 342.232376 262.943604 
L 342.464355 264.886779 
L 342.580345 264.925066 
L 342.696334 264.383836 
L 342.928313 261.804349 
L 343.392271 255.636081 
L 343.508261 255.241273 
L 343.62425 255.644764 
L 343.856229 258.886203 
L 344.436177 274.551783 
L 344.900134 283.992513 
L 345.364092 288.795431 
L 346.176019 295.488 
L 346.292008 294.618062 
L 346.523987 289.136923 
L 346.987945 266.118557 
L 347.335913 253.7316 
L 347.451903 253.073135 
L 347.567892 254.118938 
L 347.915861 263.168819 
L 348.263829 271.411722 
L 348.495808 272.869789 
L 348.611798 272.26197 
L 348.843777 268.999208 
L 349.307735 261.335966 
L 349.423724 260.704173 
L 349.539714 260.881316 
L 349.771692 263.320514 
L 350.23565 269.033823 
L 350.35164 269.37911 
L 350.467629 269.356133 
L 350.699608 269.139082 
L 350.815598 269.367168 
L 351.163566 271.61138 
L 351.395545 272.510151 
L 351.511535 272.235336 
L 351.743514 270.339609 
L 352.207471 265.884787 
L 352.43945 264.918554 
L 352.671429 264.679267 
L 352.787419 264.806704 
L 353.019398 265.811922 
L 353.251377 268.393876 
L 353.715335 275.829191 
L 353.831324 275.966444 
L 353.947314 274.377585 
L 354.179293 265.110028 
L 354.875229 223.369953 
L 355.107208 221.026332 
L 355.339187 224.760205 
L 355.687156 230.245771 
L 355.803145 229.610253 
L 356.035124 223.865425 
L 356.499082 209.950466 
L 356.615072 209.718541 
L 356.731061 211.303257 
L 357.07903 223.566665 
L 357.426998 234.442569 
L 357.542987 235.229543 
L 357.658977 234.329997 
L 357.890956 228.69234 
L 358.238924 219.299184 
L 358.354914 218.085333 
L 358.470903 218.185517 
L 358.702882 221.509656 
L 359.398819 234.227234 
L 360.094756 242.573874 
L 360.674703 248.299713 
L 360.906682 250.282335 
L 361.022672 250.154696 
L 361.138661 248.789453 
L 361.37064 241.825375 
L 361.834598 222.957489 
L 361.950588 221.548842 
L 362.066577 222.339433 
L 362.298556 229.09559 
L 362.646524 240.554266 
L 362.762514 241.745855 
L 362.878503 240.951632 
L 363.110482 233.489751 
L 363.806419 198.679723 
L 363.922409 198.347303 
L 364.038398 200.658663 
L 364.386367 218.619214 
L 364.734335 236.46407 
L 364.966314 240.9444 
L 365.082303 240.806258 
L 365.314282 237.257455 
L 365.77824 228.025468 
L 366.010219 226.550033 
L 366.126209 226.707581 
L 367.054125 231.449859 
L 367.286103 236.891927 
L 367.866051 258.824471 
L 367.98204 258.81354 
L 368.214019 250.487818 
L 368.793967 218.803217 
L 368.909956 218.670317 
L 369.141935 225.291313 
L 369.605893 240.468879 
L 369.721882 241.022301 
L 369.837872 240.427228 
L 370.30183 236.732938 
L 370.417819 236.902999 
L 370.881777 238.651453 
L 371.113756 239.172379 
L 371.345735 240.771329 
L 371.809693 245.797754 
L 371.925683 246.002522 
L 372.041672 245.36554 
L 372.273651 241.809542 
L 372.621619 235.885062 
L 372.737609 235.619661 
L 372.853598 236.720909 
L 373.085577 242.6175 
L 373.665525 259.789117 
L 373.781514 260.554019 
L 373.897504 260.074455 
L 374.129483 256.05243 
L 374.593441 246.398442 
L 374.70943 246.048427 
L 374.825419 246.881564 
L 375.405367 256.592427 
L 375.521356 256.125057 
L 375.753335 250.371716 
L 376.333283 226.456233 
L 376.449272 225.530397 
L 376.565262 226.825207 
L 376.797241 234.698636 
L 377.261198 251.972331 
L 377.377188 252.987176 
L 377.493177 252.236065 
L 377.725156 246.294055 
L 378.421093 223.003006 
L 378.537083 222.15022 
L 378.653072 222.378693 
L 378.885051 225.344247 
L 379.349009 236.520831 
L 379.696977 244.008519 
L 379.812967 244.920494 
L 379.928956 244.715242 
L 380.160935 241.33625 
L 380.740883 230.309045 
L 380.972862 229.359953 
L 381.088851 229.852691 
L 381.32083 232.880843 
L 381.784788 240.681501 
L 381.900778 239.959897 
L 382.132757 231.543169 
L 382.480725 202.385304 
L 382.944683 163.668962 
L 383.176662 156.294402 
L 383.408641 154.652839 
L 383.52463 154.066692 
L 383.756609 150.42816 
L 384.452546 132.336215 
L 384.568536 132.52182 
L 384.800514 135.912641 
L 385.612441 153.313846 
L 385.72843 153.88505 
L 385.84442 153.694814 
L 386.192388 150.478507 
L 386.424367 149.033952 
L 386.540357 149.149325 
L 386.772336 150.95605 
L 387.236293 155.112871 
L 387.352283 154.830646 
L 387.584262 151.81485 
L 387.93223 145.325042 
L 388.04822 144.767316 
L 388.164209 145.824488 
L 388.396188 152.857441 
L 388.860146 171.431831 
L 389.092125 173.337449 
L 389.324104 169.529739 
L 389.788062 160.467865 
L 389.904051 160.578779 
L 390.13603 164.413805 
L 390.599988 176.304202 
L 390.715978 177.03035 
L 390.831967 175.889308 
L 391.063946 167.605463 
L 391.643894 138.301406 
L 391.759883 138.043836 
L 391.991862 145.93112 
L 392.687799 183.429426 
L 392.803788 185.001204 
L 392.919778 185.005822 
L 393.151757 181.775826 
L 393.731704 171.816959 
L 393.847694 171.435464 
L 393.963683 171.948471 
L 394.195662 175.848266 
L 395.355557 206.611498 
L 396.051494 214.286657 
L 396.399462 216.250754 
L 396.86342 218.42794 
L 397.791336 224.586187 
L 398.371283 225.768805 
L 398.487273 225.854137 
L 398.487273 225.854137 
" clip-path="url(#pb4d53969b5)" style="fill: none; stroke: #1f77b4; stroke-width: 1.5; stroke-linecap: square"/>
   </g>
   <g id="patch_3">
    <path d="M 57.6 307.584 
L 57.6 41.472 
" style="fill: none; stroke: #000000; stroke-width: 0.8; stroke-linejoin: miter; stroke-linecap: square"/>
   </g>
   <g id="patch_4">
    <path d="M 414.72 307.584 
L 414.72 41.472 
" style="fill: none; stroke: #000000; stroke-width: 0.8; stroke-linejoin: miter; stroke-linecap: square"/>
   </g>
   <g id="patch_5">
    <path d="M 57.6 307.584 
L 414.72 307.584 
" style="fill: none; stroke: #000000; stroke-width: 0.8; stroke-linejoin: miter; stroke-linecap: square"/>
   </g>
   <g id="patch_6">
    <path d="M 57.6 41.472 
L 414.72 41.472 
" style="fill: none; stroke: #000000; stroke-width: 0.8; stroke-linejoin: miter; stroke-linecap: square"/>
   </g>
  </g>
 </g>
 <defs>
  <clipPath id="pb4d53969b5">
   <rect x="57.6" y="41.472" width="357.12" height="266.112"/>
  </clipPath>
 </defs>
</svg>
