<?xml version="1.0" encoding="utf-8" standalone="no"?>
<!DOCTYPE svg PUBLIC "-//W3C//DTD SVG 1.1//EN"
  "http://www.w3.org/Graphics/SVG/1.1/DTD/svg11.dtd">
<svg xmlns:xlink="http://www.w3.org/1999/xlink" width="460.8pt" height="345.6pt" viewBox="0 0 460.8 345.6" xmlns="http://www.w3.org/2000/svg" version="1.1">
 <metadata>
  <rdf:RDF xmlns:dc="http://purl.org/dc/elements/1.1/" xmlns:cc="http://creativecommons.org/ns#" xmlns:rdf="http://www.w3.org/1999/02/22-rdf-syntax-ns#">
   <cc:Work>
    <dc:type rdf:resource="http://purl.org/dc/dcmitype/StillImage"/>
    <dc:date>2024-05-22T21:01:06.185934</dc:date>
    <dc:format>image/svg+xml</dc:format>
    <dc:creator>
     <cc:Agent>
      <dc:title>Matplotlib v3.8.2, https://matplotlib.org/</dc:title>
     </cc:Agent>
    </dc:creator>
   </cc:Work>
  </rdf:RDF>
 </metadata>
 <defs>
  <style type="text/css">*{stroke-linejoin: round; stroke-linecap: butt}</style>
 </defs>
 <g id="figure_1">
  <g id="patch_1">
   <path d="M 0 345.6 
L 460.8 345.6 
L 460.8 0 
L 0 0 
z
" style="fill: #ffffff"/>
  </g>
  <g id="axes_1">
   <g id="patch_2">
    <path d="M 57.6 307.584 
L 414.72 307.584 
L 414.72 41.472 
L 57.6 41.472 
z
" style="fill: #ffffff"/>
   </g>
   <g id="matplotlib.axis_1">
    <g id="xtick_1">
     <g id="line2d_1">
      <defs>
       <path id="m5ad601c302" d="M 0 0 
L 0 3.5 
" style="stroke: #000000; stroke-width: 0.8"/>
      </defs>
      <g>
       <use xlink:href="#m5ad601c302" x="73.832727" y="307.584" style="stroke: #000000; stroke-width: 0.8"/>
      </g>
     </g>
     <g id="text_1">
      <!-- 0.0 -->
      <g transform="translate(65.881165 322.182437) scale(0.1 -0.1)">
       <defs>
        <path id="DejaVuSans-30" d="M 2034 4250 
Q 1547 4250 1301 3770 
Q 1056 3291 1056 2328 
Q 1056 1369 1301 889 
Q 1547 409 2034 409 
Q 2525 409 2770 889 
Q 3016 1369 3016 2328 
Q 3016 3291 2770 3770 
Q 2525 4250 2034 4250 
z
M 2034 4750 
Q 2819 4750 3233 4129 
Q 3647 3509 3647 2328 
Q 3647 1150 3233 529 
Q 2819 -91 2034 -91 
Q 1250 -91 836 529 
Q 422 1150 422 2328 
Q 422 3509 836 4129 
Q 1250 4750 2034 4750 
z
" transform="scale(0.015625)"/>
        <path id="DejaVuSans-2e" d="M 684 794 
L 1344 794 
L 1344 0 
L 684 0 
L 684 794 
z
" transform="scale(0.015625)"/>
       </defs>
       <use xlink:href="#DejaVuSans-30"/>
       <use xlink:href="#DejaVuSans-2e" x="63.623047"/>
       <use xlink:href="#DejaVuSans-30" x="95.410156"/>
      </g>
     </g>
    </g>
    <g id="xtick_2">
     <g id="line2d_2">
      <g>
       <use xlink:href="#m5ad601c302" x="114.414545" y="307.584" style="stroke: #000000; stroke-width: 0.8"/>
      </g>
     </g>
     <g id="text_2">
      <!-- 2.5 -->
      <g transform="translate(106.462983 322.182437) scale(0.1 -0.1)">
       <defs>
        <path id="DejaVuSans-32" d="M 1228 531 
L 3431 531 
L 3431 0 
L 469 0 
L 469 531 
Q 828 903 1448 1529 
Q 2069 2156 2228 2338 
Q 2531 2678 2651 2914 
Q 2772 3150 2772 3378 
Q 2772 3750 2511 3984 
Q 2250 4219 1831 4219 
Q 1534 4219 1204 4116 
Q 875 4013 500 3803 
L 500 4441 
Q 881 4594 1212 4672 
Q 1544 4750 1819 4750 
Q 2544 4750 2975 4387 
Q 3406 4025 3406 3419 
Q 3406 3131 3298 2873 
Q 3191 2616 2906 2266 
Q 2828 2175 2409 1742 
Q 1991 1309 1228 531 
z
" transform="scale(0.015625)"/>
        <path id="DejaVuSans-35" d="M 691 4666 
L 3169 4666 
L 3169 4134 
L 1269 4134 
L 1269 2991 
Q 1406 3038 1543 3061 
Q 1681 3084 1819 3084 
Q 2600 3084 3056 2656 
Q 3513 2228 3513 1497 
Q 3513 744 3044 326 
Q 2575 -91 1722 -91 
Q 1428 -91 1123 -41 
Q 819 9 494 109 
L 494 744 
Q 775 591 1075 516 
Q 1375 441 1709 441 
Q 2250 441 2565 725 
Q 2881 1009 2881 1497 
Q 2881 1984 2565 2268 
Q 2250 2553 1709 2553 
Q 1456 2553 1204 2497 
Q 953 2441 691 2322 
L 691 4666 
z
" transform="scale(0.015625)"/>
       </defs>
       <use xlink:href="#DejaVuSans-32"/>
       <use xlink:href="#DejaVuSans-2e" x="63.623047"/>
       <use xlink:href="#DejaVuSans-35" x="95.410156"/>
      </g>
     </g>
    </g>
    <g id="xtick_3">
     <g id="line2d_3">
      <g>
       <use xlink:href="#m5ad601c302" x="154.996364" y="307.584" style="stroke: #000000; stroke-width: 0.8"/>
      </g>
     </g>
     <g id="text_3">
      <!-- 5.0 -->
      <g transform="translate(147.044801 322.182437) scale(0.1 -0.1)">
       <use xlink:href="#DejaVuSans-35"/>
       <use xlink:href="#DejaVuSans-2e" x="63.623047"/>
       <use xlink:href="#DejaVuSans-30" x="95.410156"/>
      </g>
     </g>
    </g>
    <g id="xtick_4">
     <g id="line2d_4">
      <g>
       <use xlink:href="#m5ad601c302" x="195.578182" y="307.584" style="stroke: #000000; stroke-width: 0.8"/>
      </g>
     </g>
     <g id="text_4">
      <!-- 7.5 -->
      <g transform="translate(187.626619 322.182437) scale(0.1 -0.1)">
       <defs>
        <path id="DejaVuSans-37" d="M 525 4666 
L 3525 4666 
L 3525 4397 
L 1831 0 
L 1172 0 
L 2766 4134 
L 525 4134 
L 525 4666 
z
" transform="scale(0.015625)"/>
       </defs>
       <use xlink:href="#DejaVuSans-37"/>
       <use xlink:href="#DejaVuSans-2e" x="63.623047"/>
       <use xlink:href="#DejaVuSans-35" x="95.410156"/>
      </g>
     </g>
    </g>
    <g id="xtick_5">
     <g id="line2d_5">
      <g>
       <use xlink:href="#m5ad601c302" x="236.16" y="307.584" style="stroke: #000000; stroke-width: 0.8"/>
      </g>
     </g>
     <g id="text_5">
      <!-- 10.0 -->
      <g transform="translate(225.027188 322.182437) scale(0.1 -0.1)">
       <defs>
        <path id="DejaVuSans-31" d="M 794 531 
L 1825 531 
L 1825 4091 
L 703 3866 
L 703 4441 
L 1819 4666 
L 2450 4666 
L 2450 531 
L 3481 531 
L 3481 0 
L 794 0 
L 794 531 
z
" transform="scale(0.015625)"/>
       </defs>
       <use xlink:href="#DejaVuSans-31"/>
       <use xlink:href="#DejaVuSans-30" x="63.623047"/>
       <use xlink:href="#DejaVuSans-2e" x="127.246094"/>
       <use xlink:href="#DejaVuSans-30" x="159.033203"/>
      </g>
     </g>
    </g>
    <g id="xtick_6">
     <g id="line2d_6">
      <g>
       <use xlink:href="#m5ad601c302" x="276.741818" y="307.584" style="stroke: #000000; stroke-width: 0.8"/>
      </g>
     </g>
     <g id="text_6">
      <!-- 12.5 -->
      <g transform="translate(265.609006 322.182437) scale(0.1 -0.1)">
       <use xlink:href="#DejaVuSans-31"/>
       <use xlink:href="#DejaVuSans-32" x="63.623047"/>
       <use xlink:href="#DejaVuSans-2e" x="127.246094"/>
       <use xlink:href="#DejaVuSans-35" x="159.033203"/>
      </g>
     </g>
    </g>
    <g id="xtick_7">
     <g id="line2d_7">
      <g>
       <use xlink:href="#m5ad601c302" x="317.323636" y="307.584" style="stroke: #000000; stroke-width: 0.8"/>
      </g>
     </g>
     <g id="text_7">
      <!-- 15.0 -->
      <g transform="translate(306.190824 322.182437) scale(0.1 -0.1)">
       <use xlink:href="#DejaVuSans-31"/>
       <use xlink:href="#DejaVuSans-35" x="63.623047"/>
       <use xlink:href="#DejaVuSans-2e" x="127.246094"/>
       <use xlink:href="#DejaVuSans-30" x="159.033203"/>
      </g>
     </g>
    </g>
    <g id="xtick_8">
     <g id="line2d_8">
      <g>
       <use xlink:href="#m5ad601c302" x="357.905455" y="307.584" style="stroke: #000000; stroke-width: 0.8"/>
      </g>
     </g>
     <g id="text_8">
      <!-- 17.5 -->
      <g transform="translate(346.772642 322.182437) scale(0.1 -0.1)">
       <use xlink:href="#DejaVuSans-31"/>
       <use xlink:href="#DejaVuSans-37" x="63.623047"/>
       <use xlink:href="#DejaVuSans-2e" x="127.246094"/>
       <use xlink:href="#DejaVuSans-35" x="159.033203"/>
      </g>
     </g>
    </g>
    <g id="xtick_9">
     <g id="line2d_9">
      <g>
       <use xlink:href="#m5ad601c302" x="398.487273" y="307.584" style="stroke: #000000; stroke-width: 0.8"/>
      </g>
     </g>
     <g id="text_9">
      <!-- 20.0 -->
      <g transform="translate(387.35446 322.182437) scale(0.1 -0.1)">
       <use xlink:href="#DejaVuSans-32"/>
       <use xlink:href="#DejaVuSans-30" x="63.623047"/>
       <use xlink:href="#DejaVuSans-2e" x="127.246094"/>
       <use xlink:href="#DejaVuSans-30" x="159.033203"/>
      </g>
     </g>
    </g>
    <g id="text_10">
     <!-- Time [$s$] -->
     <g transform="translate(215.66 335.860562) scale(0.1 -0.1)">
      <defs>
       <path id="DejaVuSans-54" d="M -19 4666 
L 3928 4666 
L 3928 4134 
L 2272 4134 
L 2272 0 
L 1638 0 
L 1638 4134 
L -19 4134 
L -19 4666 
z
" transform="scale(0.015625)"/>
       <path id="DejaVuSans-69" d="M 603 3500 
L 1178 3500 
L 1178 0 
L 603 0 
L 603 3500 
z
M 603 4863 
L 1178 4863 
L 1178 4134 
L 603 4134 
L 603 4863 
z
" transform="scale(0.015625)"/>
       <path id="DejaVuSans-6d" d="M 3328 2828 
Q 3544 3216 3844 3400 
Q 4144 3584 4550 3584 
Q 5097 3584 5394 3201 
Q 5691 2819 5691 2113 
L 5691 0 
L 5113 0 
L 5113 2094 
Q 5113 2597 4934 2840 
Q 4756 3084 4391 3084 
Q 3944 3084 3684 2787 
Q 3425 2491 3425 1978 
L 3425 0 
L 2847 0 
L 2847 2094 
Q 2847 2600 2669 2842 
Q 2491 3084 2119 3084 
Q 1678 3084 1418 2786 
Q 1159 2488 1159 1978 
L 1159 0 
L 581 0 
L 581 3500 
L 1159 3500 
L 1159 2956 
Q 1356 3278 1631 3431 
Q 1906 3584 2284 3584 
Q 2666 3584 2933 3390 
Q 3200 3197 3328 2828 
z
" transform="scale(0.015625)"/>
       <path id="DejaVuSans-65" d="M 3597 1894 
L 3597 1613 
L 953 1613 
Q 991 1019 1311 708 
Q 1631 397 2203 397 
Q 2534 397 2845 478 
Q 3156 559 3463 722 
L 3463 178 
Q 3153 47 2828 -22 
Q 2503 -91 2169 -91 
Q 1331 -91 842 396 
Q 353 884 353 1716 
Q 353 2575 817 3079 
Q 1281 3584 2069 3584 
Q 2775 3584 3186 3129 
Q 3597 2675 3597 1894 
z
M 3022 2063 
Q 3016 2534 2758 2815 
Q 2500 3097 2075 3097 
Q 1594 3097 1305 2825 
Q 1016 2553 972 2059 
L 3022 2063 
z
" transform="scale(0.015625)"/>
       <path id="DejaVuSans-20" transform="scale(0.015625)"/>
       <path id="DejaVuSans-5b" d="M 550 4863 
L 1875 4863 
L 1875 4416 
L 1125 4416 
L 1125 -397 
L 1875 -397 
L 1875 -844 
L 550 -844 
L 550 4863 
z
" transform="scale(0.015625)"/>
       <path id="DejaVuSans-Oblique-73" d="M 3200 3397 
L 3091 2853 
Q 2863 2978 2609 3040 
Q 2356 3103 2088 3103 
Q 1634 3103 1373 2948 
Q 1113 2794 1113 2528 
Q 1113 2219 1719 2053 
Q 1766 2041 1788 2034 
L 1972 1978 
Q 2547 1819 2739 1644 
Q 2931 1469 2931 1166 
Q 2931 609 2489 259 
Q 2047 -91 1331 -91 
Q 1053 -91 747 -37 
Q 441 16 72 128 
L 184 722 
Q 500 559 806 475 
Q 1113 391 1394 391 
Q 1816 391 2080 572 
Q 2344 753 2344 1031 
Q 2344 1331 1650 1516 
L 1591 1531 
L 1394 1581 
Q 956 1697 753 1886 
Q 550 2075 550 2369 
Q 550 2928 970 3256 
Q 1391 3584 2113 3584 
Q 2397 3584 2667 3537 
Q 2938 3491 3200 3397 
z
" transform="scale(0.015625)"/>
       <path id="DejaVuSans-5d" d="M 1947 4863 
L 1947 -844 
L 622 -844 
L 622 -397 
L 1369 -397 
L 1369 4416 
L 622 4416 
L 622 4863 
L 1947 4863 
z
" transform="scale(0.015625)"/>
      </defs>
      <use xlink:href="#DejaVuSans-54" transform="translate(0 0.015625)"/>
      <use xlink:href="#DejaVuSans-69" transform="translate(61.083984 0.015625)"/>
      <use xlink:href="#DejaVuSans-6d" transform="translate(88.867188 0.015625)"/>
      <use xlink:href="#DejaVuSans-65" transform="translate(186.279297 0.015625)"/>
      <use xlink:href="#DejaVuSans-20" transform="translate(247.802734 0.015625)"/>
      <use xlink:href="#DejaVuSans-5b" transform="translate(279.589844 0.015625)"/>
      <use xlink:href="#DejaVuSans-Oblique-73" transform="translate(318.603516 0.015625)"/>
      <use xlink:href="#DejaVuSans-5d" transform="translate(370.703125 0.015625)"/>
     </g>
    </g>
   </g>
   <g id="matplotlib.axis_2">
    <g id="ytick_1">
     <g id="line2d_10">
      <defs>
       <path id="mb96c4adc42" d="M 0 0 
L -3.5 0 
" style="stroke: #000000; stroke-width: 0.8"/>
      </defs>
      <g>
       <use xlink:href="#mb96c4adc42" x="57.6" y="290.438549" style="stroke: #000000; stroke-width: 0.8"/>
      </g>
     </g>
     <g id="text_11">
      <!-- 1.622 -->
      <g transform="translate(21.971875 294.237768) scale(0.1 -0.1)">
       <defs>
        <path id="DejaVuSans-36" d="M 2113 2584 
Q 1688 2584 1439 2293 
Q 1191 2003 1191 1497 
Q 1191 994 1439 701 
Q 1688 409 2113 409 
Q 2538 409 2786 701 
Q 3034 994 3034 1497 
Q 3034 2003 2786 2293 
Q 2538 2584 2113 2584 
z
M 3366 4563 
L 3366 3988 
Q 3128 4100 2886 4159 
Q 2644 4219 2406 4219 
Q 1781 4219 1451 3797 
Q 1122 3375 1075 2522 
Q 1259 2794 1537 2939 
Q 1816 3084 2150 3084 
Q 2853 3084 3261 2657 
Q 3669 2231 3669 1497 
Q 3669 778 3244 343 
Q 2819 -91 2113 -91 
Q 1303 -91 875 529 
Q 447 1150 447 2328 
Q 447 3434 972 4092 
Q 1497 4750 2381 4750 
Q 2619 4750 2861 4703 
Q 3103 4656 3366 4563 
z
" transform="scale(0.015625)"/>
       </defs>
       <use xlink:href="#DejaVuSans-31"/>
       <use xlink:href="#DejaVuSans-2e" x="63.623047"/>
       <use xlink:href="#DejaVuSans-36" x="95.410156"/>
       <use xlink:href="#DejaVuSans-32" x="159.033203"/>
       <use xlink:href="#DejaVuSans-32" x="222.65625"/>
      </g>
     </g>
    </g>
    <g id="ytick_2">
     <g id="line2d_11">
      <g>
       <use xlink:href="#mb96c4adc42" x="57.6" y="260.721413" style="stroke: #000000; stroke-width: 0.8"/>
      </g>
     </g>
     <g id="text_12">
      <!-- 1.624 -->
      <g transform="translate(21.971875 264.520632) scale(0.1 -0.1)">
       <defs>
        <path id="DejaVuSans-34" d="M 2419 4116 
L 825 1625 
L 2419 1625 
L 2419 4116 
z
M 2253 4666 
L 3047 4666 
L 3047 1625 
L 3713 1625 
L 3713 1100 
L 3047 1100 
L 3047 0 
L 2419 0 
L 2419 1100 
L 313 1100 
L 313 1709 
L 2253 4666 
z
" transform="scale(0.015625)"/>
       </defs>
       <use xlink:href="#DejaVuSans-31"/>
       <use xlink:href="#DejaVuSans-2e" x="63.623047"/>
       <use xlink:href="#DejaVuSans-36" x="95.410156"/>
       <use xlink:href="#DejaVuSans-32" x="159.033203"/>
       <use xlink:href="#DejaVuSans-34" x="222.65625"/>
      </g>
     </g>
    </g>
    <g id="ytick_3">
     <g id="line2d_12">
      <g>
       <use xlink:href="#mb96c4adc42" x="57.6" y="231.004278" style="stroke: #000000; stroke-width: 0.8"/>
      </g>
     </g>
     <g id="text_13">
      <!-- 1.626 -->
      <g transform="translate(21.971875 234.803496) scale(0.1 -0.1)">
       <use xlink:href="#DejaVuSans-31"/>
       <use xlink:href="#DejaVuSans-2e" x="63.623047"/>
       <use xlink:href="#DejaVuSans-36" x="95.410156"/>
       <use xlink:href="#DejaVuSans-32" x="159.033203"/>
       <use xlink:href="#DejaVuSans-36" x="222.65625"/>
      </g>
     </g>
    </g>
    <g id="ytick_4">
     <g id="line2d_13">
      <g>
       <use xlink:href="#mb96c4adc42" x="57.6" y="201.287142" style="stroke: #000000; stroke-width: 0.8"/>
      </g>
     </g>
     <g id="text_14">
      <!-- 1.628 -->
      <g transform="translate(21.971875 205.086361) scale(0.1 -0.1)">
       <defs>
        <path id="DejaVuSans-38" d="M 2034 2216 
Q 1584 2216 1326 1975 
Q 1069 1734 1069 1313 
Q 1069 891 1326 650 
Q 1584 409 2034 409 
Q 2484 409 2743 651 
Q 3003 894 3003 1313 
Q 3003 1734 2745 1975 
Q 2488 2216 2034 2216 
z
M 1403 2484 
Q 997 2584 770 2862 
Q 544 3141 544 3541 
Q 544 4100 942 4425 
Q 1341 4750 2034 4750 
Q 2731 4750 3128 4425 
Q 3525 4100 3525 3541 
Q 3525 3141 3298 2862 
Q 3072 2584 2669 2484 
Q 3125 2378 3379 2068 
Q 3634 1759 3634 1313 
Q 3634 634 3220 271 
Q 2806 -91 2034 -91 
Q 1263 -91 848 271 
Q 434 634 434 1313 
Q 434 1759 690 2068 
Q 947 2378 1403 2484 
z
M 1172 3481 
Q 1172 3119 1398 2916 
Q 1625 2713 2034 2713 
Q 2441 2713 2670 2916 
Q 2900 3119 2900 3481 
Q 2900 3844 2670 4047 
Q 2441 4250 2034 4250 
Q 1625 4250 1398 4047 
Q 1172 3844 1172 3481 
z
" transform="scale(0.015625)"/>
       </defs>
       <use xlink:href="#DejaVuSans-31"/>
       <use xlink:href="#DejaVuSans-2e" x="63.623047"/>
       <use xlink:href="#DejaVuSans-36" x="95.410156"/>
       <use xlink:href="#DejaVuSans-32" x="159.033203"/>
       <use xlink:href="#DejaVuSans-38" x="222.65625"/>
      </g>
     </g>
    </g>
    <g id="ytick_5">
     <g id="line2d_14">
      <g>
       <use xlink:href="#mb96c4adc42" x="57.6" y="171.570006" style="stroke: #000000; stroke-width: 0.8"/>
      </g>
     </g>
     <g id="text_15">
      <!-- 1.630 -->
      <g transform="translate(21.971875 175.369225) scale(0.1 -0.1)">
       <defs>
        <path id="DejaVuSans-33" d="M 2597 2516 
Q 3050 2419 3304 2112 
Q 3559 1806 3559 1356 
Q 3559 666 3084 287 
Q 2609 -91 1734 -91 
Q 1441 -91 1130 -33 
Q 819 25 488 141 
L 488 750 
Q 750 597 1062 519 
Q 1375 441 1716 441 
Q 2309 441 2620 675 
Q 2931 909 2931 1356 
Q 2931 1769 2642 2001 
Q 2353 2234 1838 2234 
L 1294 2234 
L 1294 2753 
L 1863 2753 
Q 2328 2753 2575 2939 
Q 2822 3125 2822 3475 
Q 2822 3834 2567 4026 
Q 2313 4219 1838 4219 
Q 1578 4219 1281 4162 
Q 984 4106 628 3988 
L 628 4550 
Q 988 4650 1302 4700 
Q 1616 4750 1894 4750 
Q 2613 4750 3031 4423 
Q 3450 4097 3450 3541 
Q 3450 3153 3228 2886 
Q 3006 2619 2597 2516 
z
" transform="scale(0.015625)"/>
       </defs>
       <use xlink:href="#DejaVuSans-31"/>
       <use xlink:href="#DejaVuSans-2e" x="63.623047"/>
       <use xlink:href="#DejaVuSans-36" x="95.410156"/>
       <use xlink:href="#DejaVuSans-33" x="159.033203"/>
       <use xlink:href="#DejaVuSans-30" x="222.65625"/>
      </g>
     </g>
    </g>
    <g id="ytick_6">
     <g id="line2d_15">
      <g>
       <use xlink:href="#mb96c4adc42" x="57.6" y="141.85287" style="stroke: #000000; stroke-width: 0.8"/>
      </g>
     </g>
     <g id="text_16">
      <!-- 1.632 -->
      <g transform="translate(21.971875 145.652089) scale(0.1 -0.1)">
       <use xlink:href="#DejaVuSans-31"/>
       <use xlink:href="#DejaVuSans-2e" x="63.623047"/>
       <use xlink:href="#DejaVuSans-36" x="95.410156"/>
       <use xlink:href="#DejaVuSans-33" x="159.033203"/>
       <use xlink:href="#DejaVuSans-32" x="222.65625"/>
      </g>
     </g>
    </g>
    <g id="ytick_7">
     <g id="line2d_16">
      <g>
       <use xlink:href="#mb96c4adc42" x="57.6" y="112.135735" style="stroke: #000000; stroke-width: 0.8"/>
      </g>
     </g>
     <g id="text_17">
      <!-- 1.634 -->
      <g transform="translate(21.971875 115.934953) scale(0.1 -0.1)">
       <use xlink:href="#DejaVuSans-31"/>
       <use xlink:href="#DejaVuSans-2e" x="63.623047"/>
       <use xlink:href="#DejaVuSans-36" x="95.410156"/>
       <use xlink:href="#DejaVuSans-33" x="159.033203"/>
       <use xlink:href="#DejaVuSans-34" x="222.65625"/>
      </g>
     </g>
    </g>
    <g id="ytick_8">
     <g id="line2d_17">
      <g>
       <use xlink:href="#mb96c4adc42" x="57.6" y="82.418599" style="stroke: #000000; stroke-width: 0.8"/>
      </g>
     </g>
     <g id="text_18">
      <!-- 1.636 -->
      <g transform="translate(21.971875 86.217818) scale(0.1 -0.1)">
       <use xlink:href="#DejaVuSans-31"/>
       <use xlink:href="#DejaVuSans-2e" x="63.623047"/>
       <use xlink:href="#DejaVuSans-36" x="95.410156"/>
       <use xlink:href="#DejaVuSans-33" x="159.033203"/>
       <use xlink:href="#DejaVuSans-36" x="222.65625"/>
      </g>
     </g>
    </g>
    <g id="ytick_9">
     <g id="line2d_18">
      <g>
       <use xlink:href="#mb96c4adc42" x="57.6" y="52.701463" style="stroke: #000000; stroke-width: 0.8"/>
      </g>
     </g>
     <g id="text_19">
      <!-- 1.638 -->
      <g transform="translate(21.971875 56.500682) scale(0.1 -0.1)">
       <use xlink:href="#DejaVuSans-31"/>
       <use xlink:href="#DejaVuSans-2e" x="63.623047"/>
       <use xlink:href="#DejaVuSans-36" x="95.410156"/>
       <use xlink:href="#DejaVuSans-33" x="159.033203"/>
       <use xlink:href="#DejaVuSans-38" x="222.65625"/>
      </g>
     </g>
    </g>
    <g id="text_20">
     <!-- Conductance [$\mu S$] -->
     <g transform="translate(15.871875 219.228) rotate(-90) scale(0.1 -0.1)">
      <defs>
       <path id="DejaVuSans-43" d="M 4122 4306 
L 4122 3641 
Q 3803 3938 3442 4084 
Q 3081 4231 2675 4231 
Q 1875 4231 1450 3742 
Q 1025 3253 1025 2328 
Q 1025 1406 1450 917 
Q 1875 428 2675 428 
Q 3081 428 3442 575 
Q 3803 722 4122 1019 
L 4122 359 
Q 3791 134 3420 21 
Q 3050 -91 2638 -91 
Q 1578 -91 968 557 
Q 359 1206 359 2328 
Q 359 3453 968 4101 
Q 1578 4750 2638 4750 
Q 3056 4750 3426 4639 
Q 3797 4528 4122 4306 
z
" transform="scale(0.015625)"/>
       <path id="DejaVuSans-6f" d="M 1959 3097 
Q 1497 3097 1228 2736 
Q 959 2375 959 1747 
Q 959 1119 1226 758 
Q 1494 397 1959 397 
Q 2419 397 2687 759 
Q 2956 1122 2956 1747 
Q 2956 2369 2687 2733 
Q 2419 3097 1959 3097 
z
M 1959 3584 
Q 2709 3584 3137 3096 
Q 3566 2609 3566 1747 
Q 3566 888 3137 398 
Q 2709 -91 1959 -91 
Q 1206 -91 779 398 
Q 353 888 353 1747 
Q 353 2609 779 3096 
Q 1206 3584 1959 3584 
z
" transform="scale(0.015625)"/>
       <path id="DejaVuSans-6e" d="M 3513 2113 
L 3513 0 
L 2938 0 
L 2938 2094 
Q 2938 2591 2744 2837 
Q 2550 3084 2163 3084 
Q 1697 3084 1428 2787 
Q 1159 2491 1159 1978 
L 1159 0 
L 581 0 
L 581 3500 
L 1159 3500 
L 1159 2956 
Q 1366 3272 1645 3428 
Q 1925 3584 2291 3584 
Q 2894 3584 3203 3211 
Q 3513 2838 3513 2113 
z
" transform="scale(0.015625)"/>
       <path id="DejaVuSans-64" d="M 2906 2969 
L 2906 4863 
L 3481 4863 
L 3481 0 
L 2906 0 
L 2906 525 
Q 2725 213 2448 61 
Q 2172 -91 1784 -91 
Q 1150 -91 751 415 
Q 353 922 353 1747 
Q 353 2572 751 3078 
Q 1150 3584 1784 3584 
Q 2172 3584 2448 3432 
Q 2725 3281 2906 2969 
z
M 947 1747 
Q 947 1113 1208 752 
Q 1469 391 1925 391 
Q 2381 391 2643 752 
Q 2906 1113 2906 1747 
Q 2906 2381 2643 2742 
Q 2381 3103 1925 3103 
Q 1469 3103 1208 2742 
Q 947 2381 947 1747 
z
" transform="scale(0.015625)"/>
       <path id="DejaVuSans-75" d="M 544 1381 
L 544 3500 
L 1119 3500 
L 1119 1403 
Q 1119 906 1312 657 
Q 1506 409 1894 409 
Q 2359 409 2629 706 
Q 2900 1003 2900 1516 
L 2900 3500 
L 3475 3500 
L 3475 0 
L 2900 0 
L 2900 538 
Q 2691 219 2414 64 
Q 2138 -91 1772 -91 
Q 1169 -91 856 284 
Q 544 659 544 1381 
z
M 1991 3584 
L 1991 3584 
z
" transform="scale(0.015625)"/>
       <path id="DejaVuSans-63" d="M 3122 3366 
L 3122 2828 
Q 2878 2963 2633 3030 
Q 2388 3097 2138 3097 
Q 1578 3097 1268 2742 
Q 959 2388 959 1747 
Q 959 1106 1268 751 
Q 1578 397 2138 397 
Q 2388 397 2633 464 
Q 2878 531 3122 666 
L 3122 134 
Q 2881 22 2623 -34 
Q 2366 -91 2075 -91 
Q 1284 -91 818 406 
Q 353 903 353 1747 
Q 353 2603 823 3093 
Q 1294 3584 2113 3584 
Q 2378 3584 2631 3529 
Q 2884 3475 3122 3366 
z
" transform="scale(0.015625)"/>
       <path id="DejaVuSans-74" d="M 1172 4494 
L 1172 3500 
L 2356 3500 
L 2356 3053 
L 1172 3053 
L 1172 1153 
Q 1172 725 1289 603 
Q 1406 481 1766 481 
L 2356 481 
L 2356 0 
L 1766 0 
Q 1100 0 847 248 
Q 594 497 594 1153 
L 594 3053 
L 172 3053 
L 172 3500 
L 594 3500 
L 594 4494 
L 1172 4494 
z
" transform="scale(0.015625)"/>
       <path id="DejaVuSans-61" d="M 2194 1759 
Q 1497 1759 1228 1600 
Q 959 1441 959 1056 
Q 959 750 1161 570 
Q 1363 391 1709 391 
Q 2188 391 2477 730 
Q 2766 1069 2766 1631 
L 2766 1759 
L 2194 1759 
z
M 3341 1997 
L 3341 0 
L 2766 0 
L 2766 531 
Q 2569 213 2275 61 
Q 1981 -91 1556 -91 
Q 1019 -91 701 211 
Q 384 513 384 1019 
Q 384 1609 779 1909 
Q 1175 2209 1959 2209 
L 2766 2209 
L 2766 2266 
Q 2766 2663 2505 2880 
Q 2244 3097 1772 3097 
Q 1472 3097 1187 3025 
Q 903 2953 641 2809 
L 641 3341 
Q 956 3463 1253 3523 
Q 1550 3584 1831 3584 
Q 2591 3584 2966 3190 
Q 3341 2797 3341 1997 
z
" transform="scale(0.015625)"/>
       <path id="DejaVuSans-Oblique-3bc" d="M -84 -1331 
L 856 3500 
L 1434 3500 
L 1009 1322 
Q 997 1256 987 1175 
Q 978 1094 978 1013 
Q 978 722 1161 565 
Q 1344 409 1684 409 
Q 2147 409 2431 671 
Q 2716 934 2816 1459 
L 3213 3500 
L 3788 3500 
L 3266 809 
Q 3253 750 3248 706 
Q 3244 663 3244 628 
Q 3244 531 3283 486 
Q 3322 441 3406 441 
Q 3438 441 3492 456 
Q 3547 472 3647 513 
L 3559 50 
Q 3422 -19 3297 -55 
Q 3172 -91 3053 -91 
Q 2847 -91 2730 40 
Q 2613 172 2613 403 
Q 2438 153 2195 31 
Q 1953 -91 1625 -91 
Q 1334 -91 1117 43 
Q 900 178 831 397 
L 494 -1331 
L -84 -1331 
z
" transform="scale(0.015625)"/>
       <path id="DejaVuSans-Oblique-53" d="M 3859 4513 
L 3738 3897 
Q 3422 4066 3111 4152 
Q 2800 4238 2509 4238 
Q 1944 4238 1609 3991 
Q 1275 3744 1275 3334 
Q 1275 3109 1398 2989 
Q 1522 2869 2034 2731 
L 2413 2638 
Q 3053 2472 3303 2217 
Q 3553 1963 3553 1503 
Q 3553 797 2998 353 
Q 2444 -91 1538 -91 
Q 1166 -91 791 -17 
Q 416 56 38 206 
L 166 856 
Q 513 641 861 531 
Q 1209 422 1556 422 
Q 2147 422 2503 684 
Q 2859 947 2859 1369 
Q 2859 1650 2717 1795 
Q 2575 1941 2106 2059 
L 1728 2156 
Q 1081 2325 845 2545 
Q 609 2766 609 3163 
Q 609 3859 1145 4304 
Q 1681 4750 2541 4750 
Q 2875 4750 3203 4690 
Q 3531 4631 3859 4513 
z
" transform="scale(0.015625)"/>
      </defs>
      <use xlink:href="#DejaVuSans-43" transform="translate(0 0.015625)"/>
      <use xlink:href="#DejaVuSans-6f" transform="translate(69.824219 0.015625)"/>
      <use xlink:href="#DejaVuSans-6e" transform="translate(131.005859 0.015625)"/>
      <use xlink:href="#DejaVuSans-64" transform="translate(194.384766 0.015625)"/>
      <use xlink:href="#DejaVuSans-75" transform="translate(257.861328 0.015625)"/>
      <use xlink:href="#DejaVuSans-63" transform="translate(321.240234 0.015625)"/>
      <use xlink:href="#DejaVuSans-74" transform="translate(376.220703 0.015625)"/>
      <use xlink:href="#DejaVuSans-61" transform="translate(415.429688 0.015625)"/>
      <use xlink:href="#DejaVuSans-6e" transform="translate(476.708984 0.015625)"/>
      <use xlink:href="#DejaVuSans-63" transform="translate(540.087891 0.015625)"/>
      <use xlink:href="#DejaVuSans-65" transform="translate(595.068359 0.015625)"/>
      <use xlink:href="#DejaVuSans-20" transform="translate(656.591797 0.015625)"/>
      <use xlink:href="#DejaVuSans-5b" transform="translate(688.378906 0.015625)"/>
      <use xlink:href="#DejaVuSans-Oblique-3bc" transform="translate(727.392578 0.015625)"/>
      <use xlink:href="#DejaVuSans-Oblique-53" transform="translate(791.015625 0.015625)"/>
      <use xlink:href="#DejaVuSans-5d" transform="translate(854.492188 0.015625)"/>
     </g>
    </g>
   </g>
   <g id="line2d_19">
    <path d="M 73.832727 53.568 
L 74.296851 119.890746 
L 74.760975 157.522592 
L 74.993037 162.651299 
L 75.225098 160.004393 
L 75.689222 137.933347 
L 76.385408 101.788908 
L 76.61747 96.207804 
L 76.849531 94.695387 
L 77.081593 96.237398 
L 78.009841 109.060949 
L 78.241903 109.975241 
L 78.473965 110.028762 
L 78.706026 109.76421 
L 78.938088 109.792409 
L 79.17015 110.586438 
L 79.402212 112.329656 
L 79.866336 118.226161 
L 80.330459 124.60374 
L 80.562521 126.650284 
L 80.794583 127.276546 
L 81.026645 126.14319 
L 81.258707 123.170203 
L 81.722831 112.892155 
L 82.419016 97.722827 
L 82.651078 95.909806 
L 82.88314 96.362096 
L 83.115202 98.923651 
L 83.579325 108.641583 
L 84.739635 136.788799 
L 85.203759 141.592687 
L 85.43582 142.108377 
L 85.667882 141.674568 
L 86.364068 138.15862 
L 86.828192 136.157888 
L 87.292315 134.967136 
L 87.524377 134.78698 
L 87.756439 134.976722 
L 87.988501 135.571638 
L 88.916748 139.0515 
L 89.14881 138.687789 
L 89.380872 137.338235 
L 89.844996 131.923585 
L 90.541181 122.267314 
L 90.773243 120.637467 
L 91.005305 120.500033 
L 91.237367 122.002942 
L 91.701491 129.241266 
L 92.397676 142.611313 
L 92.629738 145.008387 
L 92.8618 145.546074 
L 93.093862 144.130908 
L 93.557986 136.528801 
L 94.254171 122.178635 
L 94.486233 119.256378 
L 94.718295 118.04157 
L 94.950357 118.722825 
L 95.182419 121.311341 
L 95.646542 131.392965 
L 96.806852 162.59317 
L 97.270975 167.756647 
L 97.503037 167.889061 
L 97.735099 166.288229 
L 97.967161 162.925089 
L 98.431285 151.380988 
L 99.359532 122.379701 
L 99.591594 118.095221 
L 99.823656 116.35424 
L 100.055718 117.50798 
L 100.28778 121.568822 
L 100.751903 136.471001 
L 101.448089 160.678422 
L 101.680151 164.852399 
L 101.912213 166.005715 
L 102.144274 164.224512 
L 102.608398 154.498563 
L 103.072522 143.353271 
L 103.304584 139.60978 
L 103.536646 137.726313 
L 103.768708 137.647894 
L 104.000769 138.961513 
L 104.696955 145.161187 
L 104.929017 146.249341 
L 105.161079 146.41525 
L 105.393141 145.704932 
L 105.857264 142.27995 
L 106.321388 136.692406 
L 106.785512 128.632802 
L 107.945821 104.661966 
L 108.409945 99.881098 
L 108.642007 99.418636 
L 108.874068 100.297843 
L 109.338192 105.501176 
L 110.730563 127.577105 
L 110.962625 129.437028 
L 111.194687 130.21937 
L 111.426749 129.801423 
L 111.658811 128.156724 
L 112.122935 121.618133 
L 113.051182 105.361995 
L 113.283244 103.689516 
L 113.515306 103.870786 
L 113.747368 106.046551 
L 114.211491 115.761797 
L 115.371801 146.810973 
L 115.603862 149.416273 
L 115.835924 149.959748 
L 116.067986 148.460773 
L 116.53211 140.550328 
L 117.228296 125.605079 
L 117.460357 122.563371 
L 117.692419 121.266298 
L 117.924481 121.801027 
L 118.156543 124.013355 
L 118.620667 132.109478 
L 119.548914 150.463239 
L 119.780976 152.793646 
L 120.013038 153.475972 
L 120.2451 152.439953 
L 120.709223 146.380407 
L 123.029842 107.557285 
L 123.261904 105.445615 
L 123.493966 105.440823 
L 123.726028 107.596857 
L 124.886337 125.459872 
L 125.118399 125.880333 
L 125.350461 125.32215 
L 125.814584 123.741013 
L 126.046646 123.749642 
L 126.278708 124.597604 
L 126.742832 128.340937 
L 127.903141 139.261824 
L 128.367265 142.005424 
L 128.599327 142.698681 
L 128.831389 142.65863 
L 129.063451 141.644627 
L 129.295512 139.487785 
L 129.759636 131.854713 
L 130.919945 109.286888 
L 131.152007 107.266725 
L 131.384069 106.500264 
L 131.616131 106.905259 
L 131.848193 108.312729 
L 132.312317 113.374554 
L 133.008502 124.558245 
L 133.704688 134.568944 
L 133.93675 135.990091 
L 134.168811 136.221354 
L 134.400873 135.490166 
L 135.097059 131.667026 
L 135.329121 130.970278 
L 135.561183 130.759469 
L 135.793245 130.965741 
L 136.257368 132.117458 
L 136.953554 134.249942 
L 137.185616 135.268404 
L 137.417678 136.812183 
L 137.881801 142.341722 
L 139.274172 166.05193 
L 139.506234 166.140857 
L 139.738296 164.313416 
L 140.20242 156.698763 
L 140.666544 149.278175 
L 140.898605 147.594991 
L 141.130667 147.694254 
L 141.362729 149.369975 
L 142.290977 160.123281 
L 142.523039 161.043699 
L 142.7551 160.695015 
L 142.987162 159.181087 
L 143.91541 149.988566 
L 144.147472 149.417854 
L 144.379533 150.126477 
L 144.843657 154.736416 
L 145.539843 162.765174 
L 145.771905 163.96793 
L 146.003966 164.181085 
L 146.236028 163.575465 
L 146.932214 160.673118 
L 147.164276 160.862052 
L 147.396338 162.224289 
L 147.860461 168.610982 
L 148.788709 185.284554 
L 149.020771 187.18426 
L 149.252833 187.647585 
L 149.484894 186.831803 
L 149.949018 182.72583 
L 151.109327 170.953156 
L 151.341389 169.713507 
L 151.573451 169.341959 
L 151.805513 170.013018 
L 152.037575 171.738005 
L 152.73376 180.69171 
L 153.197884 185.778344 
L 153.429946 187.111975 
L 153.662008 187.587069 
L 153.89407 187.34086 
L 154.126132 186.542675 
L 154.590255 183.622899 
L 155.054379 178.645646 
L 155.750565 167.103433 
L 156.44675 156.245003 
L 156.678812 154.357061 
L 156.910874 153.630518 
L 157.142936 154.020426 
L 157.374998 155.350588 
L 158.303245 163.37758 
L 158.535307 164.107823 
L 158.767369 163.741218 
L 158.999431 162.268721 
L 160.15974 150.033451 
L 160.391802 149.474505 
L 160.623864 150.168159 
L 160.855926 152.130492 
L 161.320049 159.196599 
L 162.480359 180.919508 
L 162.944482 184.952361 
L 163.176544 185.181095 
L 163.408606 184.335856 
L 164.104792 178.681158 
L 164.568915 175.95603 
L 164.800977 175.595481 
L 165.033039 175.934032 
L 165.497163 178.293804 
L 166.193348 182.967856 
L 166.42541 183.680668 
L 166.657472 183.527688 
L 166.889534 182.427692 
L 167.353658 177.992436 
L 168.049843 171.246758 
L 168.281905 170.313917 
L 168.513967 170.027464 
L 168.746029 169.954651 
L 168.978091 169.496059 
L 169.210153 168.08996 
L 169.674276 161.584188 
L 170.370462 148.815098 
L 170.602524 146.792508 
L 170.834586 146.961379 
L 171.066648 149.481943 
L 171.530771 159.965319 
L 171.994895 171.714989 
L 172.226957 175.622667 
L 172.459019 177.413741 
L 172.691081 177.002539 
L 172.923143 174.709681 
L 173.85139 160.90853 
L 174.083452 159.709188 
L 174.315514 160.127356 
L 174.547576 162.08378 
L 175.011699 169.252128 
L 175.707885 180.623008 
L 175.939947 182.677496 
L 176.172009 183.376515 
L 176.40407 182.704225 
L 176.868194 178.314713 
L 177.332318 173.344337 
L 177.56438 172.095275 
L 177.796442 172.216953 
L 178.028503 173.80598 
L 178.492627 180.190239 
L 178.956751 186.38523 
L 179.188813 187.557951 
L 179.420875 186.870712 
L 179.652937 184.391388 
L 180.581184 169.483564 
L 180.813246 167.939589 
L 181.045308 167.586172 
L 181.509431 168.066835 
L 181.741493 167.542048 
L 181.973555 165.968373 
L 183.133864 153.766966 
L 183.365926 153.878758 
L 183.597988 155.132321 
L 184.526236 163.068797 
L 184.990359 164.642034 
L 185.454483 165.442132 
L 185.918607 167.15416 
L 186.614792 170.385726 
L 186.846854 170.782282 
L 187.078916 170.6995 
L 187.54304 170.047142 
L 187.775102 170.238904 
L 188.007164 171.236105 
L 188.471287 176.037027 
L 189.399535 188.410517 
L 189.631597 189.036858 
L 189.863658 187.860745 
L 190.09572 184.864464 
L 190.559844 174.745043 
L 191.25603 159.857225 
L 191.488091 158.125987 
L 191.720153 158.78463 
L 191.952215 161.798 
L 192.416339 173.184507 
L 193.112525 191.944797 
L 193.344586 195.431295 
L 193.576648 196.768559 
L 193.80871 195.990352 
L 194.272834 189.893333 
L 194.736958 182.946412 
L 194.969019 181.209875 
L 195.201081 181.374777 
L 195.433143 183.581511 
L 195.897267 192.690369 
L 196.361391 202.786488 
L 196.593452 206.094496 
L 196.825514 207.573048 
L 197.057576 207.181445 
L 197.289638 205.224878 
L 198.217886 193.646614 
L 198.449947 192.363182 
L 198.682009 192.060886 
L 198.914071 192.565037 
L 199.378195 195.169592 
L 199.842319 199.274592 
L 201.002628 211.278641 
L 201.23469 211.553856 
L 201.466752 210.305382 
L 201.930875 203.413119 
L 202.859123 184.933723 
L 203.323246 180.786323 
L 203.555308 180.459681 
L 203.78737 181.184356 
L 204.019432 182.928909 
L 204.483556 189.883292 
L 204.94768 202.204973 
L 205.875927 229.851619 
L 206.107989 232.338144 
L 206.340051 231.902854 
L 206.572113 228.75602 
L 207.964484 199.35109 
L 208.196546 198.468724 
L 208.428607 198.502777 
L 208.660669 198.722552 
L 208.892731 198.425927 
L 209.124793 197.152421 
L 209.588917 191.713127 
L 210.05304 185.884967 
L 210.285102 184.693361 
L 210.517164 185.426498 
L 210.749226 188.245075 
L 211.21335 198.704308 
L 211.909535 214.22232 
L 212.141597 216.352677 
L 212.373659 216.681607 
L 212.605721 215.69722 
L 213.069845 212.928855 
L 213.301907 212.615891 
L 213.533968 213.53107 
L 213.998092 218.467429 
L 214.694278 226.911791 
L 214.92634 228.316796 
L 215.158401 228.711602 
L 215.390463 228.178422 
L 215.854587 225.230875 
L 216.550773 218.612794 
L 217.246958 208.470377 
L 217.711082 201.582014 
L 217.943144 199.608776 
L 218.175206 199.27966 
L 218.407268 200.803151 
L 218.871391 208.323983 
L 219.335515 216.570808 
L 219.567577 218.683315 
L 219.799639 218.712756 
L 220.031701 216.640343 
L 220.495824 208.126872 
L 220.959948 199.001401 
L 221.424072 193.991414 
L 221.656134 193.243096 
L 221.888195 193.354302 
L 222.120257 194.066035 
L 222.584381 196.67447 
L 223.976752 206.463426 
L 224.208814 206.050064 
L 224.440876 204.589997 
L 225.137062 197.682918 
L 225.369123 196.679942 
L 225.601185 197.355963 
L 225.833247 200.007583 
L 226.297371 210.871417 
L 227.45768 245.874055 
L 227.921804 253.011063 
L 228.153866 254.49205 
L 228.385928 254.728277 
L 228.617989 253.940329 
L 229.082113 250.52293 
L 229.546237 246.884298 
L 230.010361 244.915814 
L 230.706546 243.845018 
L 230.938608 242.317282 
L 231.17067 239.363124 
L 231.634794 228.526956 
L 232.795103 193.316025 
L 233.027165 190.211556 
L 233.259227 189.509899 
L 233.491289 191.30638 
L 233.72335 195.476975 
L 234.187474 209.312732 
L 235.115722 241.143943 
L 235.579845 251.301343 
L 236.043969 255.876024 
L 236.276031 255.983734 
L 236.508093 254.612098 
L 236.972217 247.921986 
L 238.132526 226.438569 
L 238.364588 224.450673 
L 238.59665 223.568324 
L 238.828711 223.698509 
L 239.060773 224.684825 
L 239.524897 228.356696 
L 239.989021 232.375017 
L 240.221083 233.691192 
L 240.453144 234.128596 
L 240.685206 233.427608 
L 240.917268 231.394432 
L 241.381392 223.207974 
L 242.309639 201.146286 
L 242.541701 198.420533 
L 242.773763 198.071214 
L 243.005825 200.276257 
L 243.469949 210.942318 
L 244.166134 229.067424 
L 244.398196 231.687815 
L 244.630258 231.684003 
L 244.86232 229.224408 
L 246.022629 209.327454 
L 246.254691 209.771058 
L 246.486753 212.429627 
L 246.950877 222.551281 
L 247.647062 238.347162 
L 247.879124 241.029218 
L 248.111186 241.882625 
L 248.343248 240.980447 
L 248.807371 235.372366 
L 249.271495 228.976606 
L 249.503557 227.303456 
L 249.735619 227.297031 
L 249.967681 228.992661 
L 250.895928 241.034757 
L 251.12799 241.183424 
L 251.360052 238.950304 
L 251.824176 227.457701 
L 252.984485 188.090422 
L 253.216547 184.658206 
L 253.448609 183.749424 
L 253.680671 185.243619 
L 254.144794 193.623617 
L 254.84098 208.975643 
L 255.073042 211.829495 
L 255.305104 212.683247 
L 255.537166 211.431953 
L 256.001289 203.742879 
L 256.697475 189.381557 
L 256.929537 187.141058 
L 257.161599 187.197613 
L 257.39366 189.602194 
L 257.857784 199.273602 
L 258.321908 209.284571 
L 258.786032 214.177023 
L 259.018093 214.536223 
L 259.250155 213.987122 
L 259.946341 211.452077 
L 260.178403 211.445652 
L 260.410465 212.118897 
L 260.874588 215.058383 
L 261.338712 218.241945 
L 261.802836 219.7745 
L 262.034898 219.90207 
L 262.499021 219.707607 
L 262.731083 219.827373 
L 262.963145 220.379641 
L 263.195207 221.514434 
L 263.659331 225.466628 
L 264.123454 229.724695 
L 264.355516 230.734381 
L 264.587578 230.323721 
L 264.81964 228.168334 
L 265.283764 218.652893 
L 266.212011 193.139729 
L 266.444073 189.395208 
L 266.676135 187.558017 
L 266.908197 187.607794 
L 267.140259 189.261905 
L 268.300568 202.171879 
L 268.996754 204.353199 
L 269.228815 205.933508 
L 269.692939 212.020285 
L 270.621187 227.862856 
L 270.853248 229.916023 
L 271.08531 230.619936 
L 271.317372 230.024421 
L 271.781496 226.140605 
L 272.24562 221.786485 
L 272.477681 220.577756 
L 272.709743 220.452609 
L 272.941805 221.596112 
L 273.173867 224.055486 
L 273.637991 232.314923 
L 274.566238 250.320795 
L 274.7983 252.04947 
L 275.030362 251.933204 
L 275.262424 249.951642 
L 275.726548 241.610185 
L 276.422733 228.02663 
L 276.654795 226.097504 
L 276.886857 226.151946 
L 277.118919 228.128984 
L 277.583042 236.25341 
L 278.279228 248.778335 
L 278.51129 249.974719 
L 278.743352 248.677943 
L 278.975414 244.731522 
L 279.439537 230.23882 
L 280.367785 196.374529 
L 280.599847 191.411223 
L 280.831909 188.847679 
L 281.06397 188.795716 
L 281.296032 191.111056 
L 281.760156 201.165274 
L 282.688403 226.246289 
L 283.152527 233.917893 
L 283.616651 238.042489 
L 284.544898 243.877312 
L 284.77696 244.500672 
L 285.009022 244.0371 
L 285.241084 242.162745 
L 285.705208 234.191837 
L 286.401393 219.256666 
L 286.633455 216.495005 
L 286.865517 215.761908 
L 287.097579 217.036963 
L 288.025826 228.395117 
L 288.257888 229.039699 
L 288.48995 228.411946 
L 289.186136 224.802717 
L 289.418197 225.11111 
L 289.650259 226.686462 
L 290.114383 232.974989 
L 291.04263 247.452374 
L 291.274692 249.287338 
L 291.506754 249.91646 
L 291.738816 249.29708 
L 291.970878 247.530179 
L 292.435002 241.575794 
L 293.131187 232.294578 
L 293.363249 230.768875 
L 293.595311 230.690805 
L 293.827373 232.379063 
L 294.059435 235.995219 
L 294.523558 248.331757 
L 295.219744 269.862534 
L 295.451806 274.469886 
L 295.683868 276.77925 
L 295.91593 276.667303 
L 296.147991 274.377509 
L 297.540363 252.840526 
L 297.772424 252.276439 
L 298.236548 252.221344 
L 298.46861 251.872679 
L 298.700672 250.983799 
L 299.628919 245.352187 
L 299.860981 245.407114 
L 300.093043 246.73434 
L 300.557167 252.64062 
L 301.253352 261.772333 
L 301.485414 262.881108 
L 301.717476 262.875696 
L 302.1816 261.40369 
L 302.413662 261.287613 
L 302.645724 262.376088 
L 302.877785 264.914686 
L 303.341909 273.597095 
L 304.038095 287.864268 
L 304.270157 290.7942 
L 304.502218 292.20623 
L 304.73428 291.993375 
L 304.966342 290.255669 
L 305.430466 283.503546 
L 306.822837 260.540011 
L 307.751085 245.241433 
L 307.983146 243.211939 
L 308.215208 242.955882 
L 308.44727 244.66897 
L 308.911394 252.861859 
L 309.607579 267.035633 
L 310.071703 272.500422 
L 310.535827 274.903028 
L 310.767889 275.075255 
L 310.999951 274.389149 
L 311.232012 272.653677 
L 311.696136 265.812641 
L 312.624384 248.011318 
L 312.856446 245.795253 
L 313.088507 245.105545 
L 313.320569 245.797507 
L 313.784693 249.736894 
L 314.480879 255.726478 
L 314.945002 257.533775 
L 315.177064 257.755334 
L 315.409126 257.477993 
L 315.641188 256.579888 
L 315.87325 254.89589 
L 316.337373 248.706244 
L 317.033559 233.496642 
L 317.729745 218.688762 
L 317.961806 215.813981 
L 318.193868 214.507178 
L 318.42593 214.851716 
L 318.657992 216.707642 
L 319.354178 227.113578 
L 319.818301 233.168245 
L 320.050363 234.978471 
L 320.282425 235.879263 
L 320.514487 235.926045 
L 320.746549 235.246375 
L 321.210673 232.452931 
L 321.906858 227.967517 
L 322.13892 227.361162 
L 322.370982 227.596229 
L 322.603044 228.817291 
L 323.067167 234.127395 
L 324.227477 251.498692 
L 324.459539 253.185778 
L 324.6916 253.849383 
L 324.923662 253.49491 
L 325.387786 250.550424 
L 325.85191 247.393881 
L 326.083972 246.96778 
L 326.316034 247.791572 
L 326.548095 249.941937 
L 327.012219 257.231093 
L 327.476343 265.03567 
L 327.708405 267.601442 
L 327.940467 268.634194 
L 328.172528 267.946921 
L 328.40459 265.671114 
L 329.5649 249.838802 
L 329.796961 249.136754 
L 330.029023 249.300435 
L 330.493147 250.107987 
L 330.725209 249.567832 
L 330.957271 247.80926 
L 331.421395 240.424739 
L 332.11758 226.36797 
L 332.349642 223.679857 
L 332.581704 222.886023 
L 332.813766 224.096284 
L 333.277889 231.398473 
L 333.974075 245.311268 
L 334.438199 249.893532 
L 334.670261 250.166753 
L 334.902322 249.321727 
L 335.366446 245.572303 
L 336.062632 239.23985 
L 336.526755 236.901103 
L 336.758817 236.643406 
L 336.990879 236.975109 
L 337.919127 239.735656 
L 338.151189 239.513098 
L 338.615312 237.640144 
L 339.079436 235.609132 
L 339.311498 235.241976 
L 339.54356 235.409393 
L 340.007683 236.37691 
L 340.239745 236.45677 
L 340.471807 235.922773 
L 340.935931 233.099355 
L 341.632116 227.895266 
L 341.864178 226.854677 
L 342.09624 226.356828 
L 342.328302 226.415787 
L 342.560364 227.014538 
L 343.024488 229.586262 
L 343.720673 234.212828 
L 343.952735 234.898571 
L 344.184797 234.787094 
L 344.416859 233.819527 
L 344.880983 229.792312 
L 345.80923 220.554059 
L 346.041292 219.249479 
L 346.273354 218.618899 
L 346.505416 218.789836 
L 346.737477 219.861207 
L 347.201601 224.678777 
L 348.826034 247.554737 
L 349.058096 248.332055 
L 349.290158 247.852097 
L 349.52222 246.050917 
L 349.986343 239.119678 
L 350.914591 223.444089 
L 351.146653 221.54498 
L 351.378715 220.863081 
L 351.610777 221.378312 
L 351.842838 222.990058 
L 352.306962 228.787925 
L 353.23521 242.618895 
L 353.467271 244.513911 
L 353.699333 245.218595 
L 353.931395 244.658282 
L 354.163457 242.907295 
L 354.627581 236.74047 
L 355.323766 226.09353 
L 355.555828 223.771428 
L 355.78789 222.659382 
L 356.019952 222.970534 
L 356.252014 224.769475 
L 356.716138 232.282566 
L 357.644385 251.775462 
L 357.876447 254.133977 
L 358.108509 254.172152 
L 358.340571 251.485939 
L 358.804694 238.418628 
L 359.50088 213.712078 
L 359.732942 209.598572 
L 359.965004 209.359525 
L 360.197065 213.24987 
L 360.661189 230.96224 
L 361.357375 261.73953 
L 361.589437 267.505543 
L 361.821498 269.701627 
L 362.05356 268.340204 
L 362.285622 263.937771 
L 363.677993 224.375878 
L 364.142117 219.763348 
L 364.374179 219.295017 
L 364.606241 219.82244 
L 364.838303 221.205312 
L 365.302426 225.957204 
L 366.230674 237.407732 
L 366.462736 239.148831 
L 366.694798 239.918179 
L 366.926859 239.505256 
L 367.158921 237.790009 
L 367.623045 230.791846 
L 368.319231 218.213285 
L 368.551292 216.109425 
L 368.783354 215.795744 
L 369.015416 217.225172 
L 369.47954 223.704101 
L 370.175726 234.022454 
L 370.407787 235.671305 
L 370.639849 235.871591 
L 370.871911 234.401706 
L 371.103973 231.109888 
L 371.568097 219.261403 
L 372.264282 197.446831 
L 372.496344 193.567323 
L 372.728406 193.210517 
L 372.960468 196.770437 
L 373.424592 213.610942 
L 374.120777 243.324212 
L 374.584901 252.37525 
L 374.816963 253.128094 
L 375.513148 251.28339 
L 375.74521 252.652485 
L 375.977272 255.873667 
L 376.441396 266.788507 
L 377.137581 284.696845 
L 377.601705 292.242675 
L 377.833767 294.399693 
L 378.065829 295.488 
L 378.297891 295.39879 
L 378.529953 293.896936 
L 378.762014 290.700565 
L 379.226138 278.78406 
L 380.618509 230.965102 
L 380.850571 227.127826 
L 381.082633 225.493764 
L 381.314695 226.280991 
L 381.546757 229.53231 
L 382.01088 242.14028 
L 382.707066 263.605349 
L 382.939128 267.223229 
L 383.17119 267.777677 
L 383.403252 265.116604 
L 383.867375 252.042568 
L 384.563561 228.532658 
L 384.795623 224.164589 
L 385.027685 222.867677 
L 385.259747 224.837255 
L 385.72387 236.731568 
L 386.420056 258.273048 
L 386.652118 262.002031 
L 386.88418 263.021257 
L 387.116241 261.453482 
L 387.580365 253.0973 
L 388.044489 243.691858 
L 388.508613 238.773171 
L 388.740675 238.511523 
L 388.972736 239.41849 
L 389.668922 245.08886 
L 390.365108 251.845798 
L 391.293355 263.665576 
L 391.525417 264.679593 
L 391.757479 263.793342 
L 391.989541 260.816029 
L 392.453664 249.66212 
L 393.14985 231.747087 
L 393.381912 229.457532 
L 393.613974 230.257575 
L 393.846035 234.278035 
L 394.310159 249.882627 
L 395.006345 275.208475 
L 395.238407 279.571988 
L 395.470469 280.872604 
L 395.70253 279.167402 
L 396.166654 268.812055 
L 397.094902 242.049352 
L 397.559025 234.455747 
L 398.023149 231.367942 
L 398.255211 230.863526 
L 398.487273 230.685749 
L 398.487273 230.685749 
" clip-path="url(#pfc5689d6e0)" style="fill: none; stroke: #1f77b4; stroke-width: 1.5; stroke-linecap: square"/>
   </g>
   <g id="patch_3">
    <path d="M 57.6 307.584 
L 57.6 41.472 
" style="fill: none; stroke: #000000; stroke-width: 0.8; stroke-linejoin: miter; stroke-linecap: square"/>
   </g>
   <g id="patch_4">
    <path d="M 414.72 307.584 
L 414.72 41.472 
" style="fill: none; stroke: #000000; stroke-width: 0.8; stroke-linejoin: miter; stroke-linecap: square"/>
   </g>
   <g id="patch_5">
    <path d="M 57.6 307.584 
L 414.72 307.584 
" style="fill: none; stroke: #000000; stroke-width: 0.8; stroke-linejoin: miter; stroke-linecap: square"/>
   </g>
   <g id="patch_6">
    <path d="M 57.6 41.472 
L 414.72 41.472 
" style="fill: none; stroke: #000000; stroke-width: 0.8; stroke-linejoin: miter; stroke-linecap: square"/>
   </g>
  </g>
 </g>
 <defs>
  <clipPath id="pfc5689d6e0">
   <rect x="57.6" y="41.472" width="357.12" height="266.112"/>
  </clipPath>
 </defs>
</svg>
