<?xml version="1.0" encoding="utf-8" standalone="no"?>
<!DOCTYPE svg PUBLIC "-//W3C//DTD SVG 1.1//EN"
  "http://www.w3.org/Graphics/SVG/1.1/DTD/svg11.dtd">
<svg xmlns:xlink="http://www.w3.org/1999/xlink" width="460.8pt" height="345.6pt" viewBox="0 0 460.8 345.6" xmlns="http://www.w3.org/2000/svg" version="1.1">
 <metadata>
  <rdf:RDF xmlns:dc="http://purl.org/dc/elements/1.1/" xmlns:cc="http://creativecommons.org/ns#" xmlns:rdf="http://www.w3.org/1999/02/22-rdf-syntax-ns#">
   <cc:Work>
    <dc:type rdf:resource="http://purl.org/dc/dcmitype/StillImage"/>
    <dc:date>2024-05-22T21:01:06.508703</dc:date>
    <dc:format>image/svg+xml</dc:format>
    <dc:creator>
     <cc:Agent>
      <dc:title>Matplotlib v3.8.2, https://matplotlib.org/</dc:title>
     </cc:Agent>
    </dc:creator>
   </cc:Work>
  </rdf:RDF>
 </metadata>
 <defs>
  <style type="text/css">*{stroke-linejoin: round; stroke-linecap: butt}</style>
 </defs>
 <g id="figure_1">
  <g id="patch_1">
   <path d="M 0 345.6 
L 460.8 345.6 
L 460.8 0 
L 0 0 
z
" style="fill: #ffffff"/>
  </g>
  <g id="axes_1">
   <g id="patch_2">
    <path d="M 57.6 307.584 
L 414.72 307.584 
L 414.72 41.472 
L 57.6 41.472 
z
" style="fill: #ffffff"/>
   </g>
   <g id="matplotlib.axis_1">
    <g id="xtick_1">
     <g id="line2d_1">
      <defs>
       <path id="m88b077a2de" d="M 0 0 
L 0 3.5 
" style="stroke: #000000; stroke-width: 0.8"/>
      </defs>
      <g>
       <use xlink:href="#m88b077a2de" x="97.038914" y="307.584" style="stroke: #000000; stroke-width: 0.8"/>
      </g>
     </g>
     <g id="text_1">
      <!-- −30 -->
      <g transform="translate(86.48657 322.182437) scale(0.1 -0.1)">
       <defs>
        <path id="DejaVuSans-2212" d="M 678 2272 
L 4684 2272 
L 4684 1741 
L 678 1741 
L 678 2272 
z
" transform="scale(0.015625)"/>
        <path id="DejaVuSans-33" d="M 2597 2516 
Q 3050 2419 3304 2112 
Q 3559 1806 3559 1356 
Q 3559 666 3084 287 
Q 2609 -91 1734 -91 
Q 1441 -91 1130 -33 
Q 819 25 488 141 
L 488 750 
Q 750 597 1062 519 
Q 1375 441 1716 441 
Q 2309 441 2620 675 
Q 2931 909 2931 1356 
Q 2931 1769 2642 2001 
Q 2353 2234 1838 2234 
L 1294 2234 
L 1294 2753 
L 1863 2753 
Q 2328 2753 2575 2939 
Q 2822 3125 2822 3475 
Q 2822 3834 2567 4026 
Q 2313 4219 1838 4219 
Q 1578 4219 1281 4162 
Q 984 4106 628 3988 
L 628 4550 
Q 988 4650 1302 4700 
Q 1616 4750 1894 4750 
Q 2613 4750 3031 4423 
Q 3450 4097 3450 3541 
Q 3450 3153 3228 2886 
Q 3006 2619 2597 2516 
z
" transform="scale(0.015625)"/>
        <path id="DejaVuSans-30" d="M 2034 4250 
Q 1547 4250 1301 3770 
Q 1056 3291 1056 2328 
Q 1056 1369 1301 889 
Q 1547 409 2034 409 
Q 2525 409 2770 889 
Q 3016 1369 3016 2328 
Q 3016 3291 2770 3770 
Q 2525 4250 2034 4250 
z
M 2034 4750 
Q 2819 4750 3233 4129 
Q 3647 3509 3647 2328 
Q 3647 1150 3233 529 
Q 2819 -91 2034 -91 
Q 1250 -91 836 529 
Q 422 1150 422 2328 
Q 422 3509 836 4129 
Q 1250 4750 2034 4750 
z
" transform="scale(0.015625)"/>
       </defs>
       <use xlink:href="#DejaVuSans-2212"/>
       <use xlink:href="#DejaVuSans-33" x="83.789062"/>
       <use xlink:href="#DejaVuSans-30" x="147.412109"/>
      </g>
     </g>
    </g>
    <g id="xtick_2">
     <g id="line2d_2">
      <g>
       <use xlink:href="#m88b077a2de" x="143.451286" y="307.584" style="stroke: #000000; stroke-width: 0.8"/>
      </g>
     </g>
     <g id="text_2">
      <!-- −20 -->
      <g transform="translate(132.898942 322.182437) scale(0.1 -0.1)">
       <defs>
        <path id="DejaVuSans-32" d="M 1228 531 
L 3431 531 
L 3431 0 
L 469 0 
L 469 531 
Q 828 903 1448 1529 
Q 2069 2156 2228 2338 
Q 2531 2678 2651 2914 
Q 2772 3150 2772 3378 
Q 2772 3750 2511 3984 
Q 2250 4219 1831 4219 
Q 1534 4219 1204 4116 
Q 875 4013 500 3803 
L 500 4441 
Q 881 4594 1212 4672 
Q 1544 4750 1819 4750 
Q 2544 4750 2975 4387 
Q 3406 4025 3406 3419 
Q 3406 3131 3298 2873 
Q 3191 2616 2906 2266 
Q 2828 2175 2409 1742 
Q 1991 1309 1228 531 
z
" transform="scale(0.015625)"/>
       </defs>
       <use xlink:href="#DejaVuSans-2212"/>
       <use xlink:href="#DejaVuSans-32" x="83.789062"/>
       <use xlink:href="#DejaVuSans-30" x="147.412109"/>
      </g>
     </g>
    </g>
    <g id="xtick_3">
     <g id="line2d_3">
      <g>
       <use xlink:href="#m88b077a2de" x="189.863658" y="307.584" style="stroke: #000000; stroke-width: 0.8"/>
      </g>
     </g>
     <g id="text_3">
      <!-- −10 -->
      <g transform="translate(179.311315 322.182437) scale(0.1 -0.1)">
       <defs>
        <path id="DejaVuSans-31" d="M 794 531 
L 1825 531 
L 1825 4091 
L 703 3866 
L 703 4441 
L 1819 4666 
L 2450 4666 
L 2450 531 
L 3481 531 
L 3481 0 
L 794 0 
L 794 531 
z
" transform="scale(0.015625)"/>
       </defs>
       <use xlink:href="#DejaVuSans-2212"/>
       <use xlink:href="#DejaVuSans-31" x="83.789062"/>
       <use xlink:href="#DejaVuSans-30" x="147.412109"/>
      </g>
     </g>
    </g>
    <g id="xtick_4">
     <g id="line2d_4">
      <g>
       <use xlink:href="#m88b077a2de" x="236.276031" y="307.584" style="stroke: #000000; stroke-width: 0.8"/>
      </g>
     </g>
     <g id="text_4">
      <!-- 0 -->
      <g transform="translate(233.094781 322.182437) scale(0.1 -0.1)">
       <use xlink:href="#DejaVuSans-30"/>
      </g>
     </g>
    </g>
    <g id="xtick_5">
     <g id="line2d_5">
      <g>
       <use xlink:href="#m88b077a2de" x="282.688403" y="307.584" style="stroke: #000000; stroke-width: 0.8"/>
      </g>
     </g>
     <g id="text_5">
      <!-- 10 -->
      <g transform="translate(276.325903 322.182437) scale(0.1 -0.1)">
       <use xlink:href="#DejaVuSans-31"/>
       <use xlink:href="#DejaVuSans-30" x="63.623047"/>
      </g>
     </g>
    </g>
    <g id="xtick_6">
     <g id="line2d_6">
      <g>
       <use xlink:href="#m88b077a2de" x="329.100776" y="307.584" style="stroke: #000000; stroke-width: 0.8"/>
      </g>
     </g>
     <g id="text_6">
      <!-- 20 -->
      <g transform="translate(322.738276 322.182437) scale(0.1 -0.1)">
       <use xlink:href="#DejaVuSans-32"/>
       <use xlink:href="#DejaVuSans-30" x="63.623047"/>
      </g>
     </g>
    </g>
    <g id="xtick_7">
     <g id="line2d_7">
      <g>
       <use xlink:href="#m88b077a2de" x="375.513148" y="307.584" style="stroke: #000000; stroke-width: 0.8"/>
      </g>
     </g>
     <g id="text_7">
      <!-- 30 -->
      <g transform="translate(369.150648 322.182437) scale(0.1 -0.1)">
       <use xlink:href="#DejaVuSans-33"/>
       <use xlink:href="#DejaVuSans-30" x="63.623047"/>
      </g>
     </g>
    </g>
    <g id="text_8">
     <!-- Frequency [$Hz$] -->
     <g transform="translate(197.96 335.862125) scale(0.1 -0.1)">
      <defs>
       <path id="DejaVuSans-46" d="M 628 4666 
L 3309 4666 
L 3309 4134 
L 1259 4134 
L 1259 2759 
L 3109 2759 
L 3109 2228 
L 1259 2228 
L 1259 0 
L 628 0 
L 628 4666 
z
" transform="scale(0.015625)"/>
       <path id="DejaVuSans-72" d="M 2631 2963 
Q 2534 3019 2420 3045 
Q 2306 3072 2169 3072 
Q 1681 3072 1420 2755 
Q 1159 2438 1159 1844 
L 1159 0 
L 581 0 
L 581 3500 
L 1159 3500 
L 1159 2956 
Q 1341 3275 1631 3429 
Q 1922 3584 2338 3584 
Q 2397 3584 2469 3576 
Q 2541 3569 2628 3553 
L 2631 2963 
z
" transform="scale(0.015625)"/>
       <path id="DejaVuSans-65" d="M 3597 1894 
L 3597 1613 
L 953 1613 
Q 991 1019 1311 708 
Q 1631 397 2203 397 
Q 2534 397 2845 478 
Q 3156 559 3463 722 
L 3463 178 
Q 3153 47 2828 -22 
Q 2503 -91 2169 -91 
Q 1331 -91 842 396 
Q 353 884 353 1716 
Q 353 2575 817 3079 
Q 1281 3584 2069 3584 
Q 2775 3584 3186 3129 
Q 3597 2675 3597 1894 
z
M 3022 2063 
Q 3016 2534 2758 2815 
Q 2500 3097 2075 3097 
Q 1594 3097 1305 2825 
Q 1016 2553 972 2059 
L 3022 2063 
z
" transform="scale(0.015625)"/>
       <path id="DejaVuSans-71" d="M 947 1747 
Q 947 1113 1208 752 
Q 1469 391 1925 391 
Q 2381 391 2643 752 
Q 2906 1113 2906 1747 
Q 2906 2381 2643 2742 
Q 2381 3103 1925 3103 
Q 1469 3103 1208 2742 
Q 947 2381 947 1747 
z
M 2906 525 
Q 2725 213 2448 61 
Q 2172 -91 1784 -91 
Q 1150 -91 751 415 
Q 353 922 353 1747 
Q 353 2572 751 3078 
Q 1150 3584 1784 3584 
Q 2172 3584 2448 3432 
Q 2725 3281 2906 2969 
L 2906 3500 
L 3481 3500 
L 3481 -1331 
L 2906 -1331 
L 2906 525 
z
" transform="scale(0.015625)"/>
       <path id="DejaVuSans-75" d="M 544 1381 
L 544 3500 
L 1119 3500 
L 1119 1403 
Q 1119 906 1312 657 
Q 1506 409 1894 409 
Q 2359 409 2629 706 
Q 2900 1003 2900 1516 
L 2900 3500 
L 3475 3500 
L 3475 0 
L 2900 0 
L 2900 538 
Q 2691 219 2414 64 
Q 2138 -91 1772 -91 
Q 1169 -91 856 284 
Q 544 659 544 1381 
z
M 1991 3584 
L 1991 3584 
z
" transform="scale(0.015625)"/>
       <path id="DejaVuSans-6e" d="M 3513 2113 
L 3513 0 
L 2938 0 
L 2938 2094 
Q 2938 2591 2744 2837 
Q 2550 3084 2163 3084 
Q 1697 3084 1428 2787 
Q 1159 2491 1159 1978 
L 1159 0 
L 581 0 
L 581 3500 
L 1159 3500 
L 1159 2956 
Q 1366 3272 1645 3428 
Q 1925 3584 2291 3584 
Q 2894 3584 3203 3211 
Q 3513 2838 3513 2113 
z
" transform="scale(0.015625)"/>
       <path id="DejaVuSans-63" d="M 3122 3366 
L 3122 2828 
Q 2878 2963 2633 3030 
Q 2388 3097 2138 3097 
Q 1578 3097 1268 2742 
Q 959 2388 959 1747 
Q 959 1106 1268 751 
Q 1578 397 2138 397 
Q 2388 397 2633 464 
Q 2878 531 3122 666 
L 3122 134 
Q 2881 22 2623 -34 
Q 2366 -91 2075 -91 
Q 1284 -91 818 406 
Q 353 903 353 1747 
Q 353 2603 823 3093 
Q 1294 3584 2113 3584 
Q 2378 3584 2631 3529 
Q 2884 3475 3122 3366 
z
" transform="scale(0.015625)"/>
       <path id="DejaVuSans-79" d="M 2059 -325 
Q 1816 -950 1584 -1140 
Q 1353 -1331 966 -1331 
L 506 -1331 
L 506 -850 
L 844 -850 
Q 1081 -850 1212 -737 
Q 1344 -625 1503 -206 
L 1606 56 
L 191 3500 
L 800 3500 
L 1894 763 
L 2988 3500 
L 3597 3500 
L 2059 -325 
z
" transform="scale(0.015625)"/>
       <path id="DejaVuSans-20" transform="scale(0.015625)"/>
       <path id="DejaVuSans-5b" d="M 550 4863 
L 1875 4863 
L 1875 4416 
L 1125 4416 
L 1125 -397 
L 1875 -397 
L 1875 -844 
L 550 -844 
L 550 4863 
z
" transform="scale(0.015625)"/>
       <path id="DejaVuSans-Oblique-48" d="M 1081 4666 
L 1716 4666 
L 1344 2753 
L 3634 2753 
L 4006 4666 
L 4641 4666 
L 3731 0 
L 3097 0 
L 3531 2222 
L 1241 2222 
L 806 0 
L 172 0 
L 1081 4666 
z
" transform="scale(0.015625)"/>
       <path id="DejaVuSans-Oblique-7a" d="M 744 3500 
L 3475 3500 
L 3372 2975 
L 738 459 
L 2913 459 
L 2822 0 
L -19 0 
L 84 525 
L 2719 3041 
L 653 3041 
L 744 3500 
z
" transform="scale(0.015625)"/>
       <path id="DejaVuSans-5d" d="M 1947 4863 
L 1947 -844 
L 622 -844 
L 622 -397 
L 1369 -397 
L 1369 4416 
L 622 4416 
L 622 4863 
L 1947 4863 
z
" transform="scale(0.015625)"/>
      </defs>
      <use xlink:href="#DejaVuSans-46" transform="translate(0 0.015625)"/>
      <use xlink:href="#DejaVuSans-72" transform="translate(57.519531 0.015625)"/>
      <use xlink:href="#DejaVuSans-65" transform="translate(98.632812 0.015625)"/>
      <use xlink:href="#DejaVuSans-71" transform="translate(160.15625 0.015625)"/>
      <use xlink:href="#DejaVuSans-75" transform="translate(223.632812 0.015625)"/>
      <use xlink:href="#DejaVuSans-65" transform="translate(287.011719 0.015625)"/>
      <use xlink:href="#DejaVuSans-6e" transform="translate(348.535156 0.015625)"/>
      <use xlink:href="#DejaVuSans-63" transform="translate(411.914062 0.015625)"/>
      <use xlink:href="#DejaVuSans-79" transform="translate(466.894531 0.015625)"/>
      <use xlink:href="#DejaVuSans-20" transform="translate(526.074219 0.015625)"/>
      <use xlink:href="#DejaVuSans-5b" transform="translate(557.861328 0.015625)"/>
      <use xlink:href="#DejaVuSans-Oblique-48" transform="translate(596.875 0.015625)"/>
      <use xlink:href="#DejaVuSans-Oblique-7a" transform="translate(672.070312 0.015625)"/>
      <use xlink:href="#DejaVuSans-5d" transform="translate(724.560547 0.015625)"/>
     </g>
    </g>
   </g>
   <g id="matplotlib.axis_2">
    <g id="ytick_1">
     <g id="line2d_8">
      <defs>
       <path id="mf7da63e6fb" d="M 0 0 
L -3.5 0 
" style="stroke: #000000; stroke-width: 0.8"/>
      </defs>
      <g>
       <use xlink:href="#mf7da63e6fb" x="57.6" y="285.895283" style="stroke: #000000; stroke-width: 0.8"/>
      </g>
     </g>
     <g id="text_9">
      <!-- −20 -->
      <g transform="translate(29.495313 289.694501) scale(0.1 -0.1)">
       <use xlink:href="#DejaVuSans-2212"/>
       <use xlink:href="#DejaVuSans-32" x="83.789062"/>
       <use xlink:href="#DejaVuSans-30" x="147.412109"/>
      </g>
     </g>
    </g>
    <g id="ytick_2">
     <g id="line2d_9">
      <g>
       <use xlink:href="#mf7da63e6fb" x="57.6" y="242.517848" style="stroke: #000000; stroke-width: 0.8"/>
      </g>
     </g>
     <g id="text_10">
      <!-- −10 -->
      <g transform="translate(29.495313 246.317067) scale(0.1 -0.1)">
       <use xlink:href="#DejaVuSans-2212"/>
       <use xlink:href="#DejaVuSans-31" x="83.789062"/>
       <use xlink:href="#DejaVuSans-30" x="147.412109"/>
      </g>
     </g>
    </g>
    <g id="ytick_3">
     <g id="line2d_10">
      <g>
       <use xlink:href="#mf7da63e6fb" x="57.6" y="199.140414" style="stroke: #000000; stroke-width: 0.8"/>
      </g>
     </g>
     <g id="text_11">
      <!-- 0 -->
      <g transform="translate(44.2375 202.939632) scale(0.1 -0.1)">
       <use xlink:href="#DejaVuSans-30"/>
      </g>
     </g>
    </g>
    <g id="ytick_4">
     <g id="line2d_11">
      <g>
       <use xlink:href="#mf7da63e6fb" x="57.6" y="155.762979" style="stroke: #000000; stroke-width: 0.8"/>
      </g>
     </g>
     <g id="text_12">
      <!-- 10 -->
      <g transform="translate(37.875 159.562198) scale(0.1 -0.1)">
       <use xlink:href="#DejaVuSans-31"/>
       <use xlink:href="#DejaVuSans-30" x="63.623047"/>
      </g>
     </g>
    </g>
    <g id="ytick_5">
     <g id="line2d_12">
      <g>
       <use xlink:href="#mf7da63e6fb" x="57.6" y="112.385545" style="stroke: #000000; stroke-width: 0.8"/>
      </g>
     </g>
     <g id="text_13">
      <!-- 20 -->
      <g transform="translate(37.875 116.184763) scale(0.1 -0.1)">
       <use xlink:href="#DejaVuSans-32"/>
       <use xlink:href="#DejaVuSans-30" x="63.623047"/>
      </g>
     </g>
    </g>
    <g id="ytick_6">
     <g id="line2d_13">
      <g>
       <use xlink:href="#mf7da63e6fb" x="57.6" y="69.00811" style="stroke: #000000; stroke-width: 0.8"/>
      </g>
     </g>
     <g id="text_14">
      <!-- 30 -->
      <g transform="translate(37.875 72.807329) scale(0.1 -0.1)">
       <use xlink:href="#DejaVuSans-33"/>
       <use xlink:href="#DejaVuSans-30" x="63.623047"/>
      </g>
     </g>
    </g>
    <g id="text_15">
     <!-- Amplitude [dB] -->
     <g transform="translate(23.415625 212.245969) rotate(-90) scale(0.1 -0.1)">
      <defs>
       <path id="DejaVuSans-41" d="M 2188 4044 
L 1331 1722 
L 3047 1722 
L 2188 4044 
z
M 1831 4666 
L 2547 4666 
L 4325 0 
L 3669 0 
L 3244 1197 
L 1141 1197 
L 716 0 
L 50 0 
L 1831 4666 
z
" transform="scale(0.015625)"/>
       <path id="DejaVuSans-6d" d="M 3328 2828 
Q 3544 3216 3844 3400 
Q 4144 3584 4550 3584 
Q 5097 3584 5394 3201 
Q 5691 2819 5691 2113 
L 5691 0 
L 5113 0 
L 5113 2094 
Q 5113 2597 4934 2840 
Q 4756 3084 4391 3084 
Q 3944 3084 3684 2787 
Q 3425 2491 3425 1978 
L 3425 0 
L 2847 0 
L 2847 2094 
Q 2847 2600 2669 2842 
Q 2491 3084 2119 3084 
Q 1678 3084 1418 2786 
Q 1159 2488 1159 1978 
L 1159 0 
L 581 0 
L 581 3500 
L 1159 3500 
L 1159 2956 
Q 1356 3278 1631 3431 
Q 1906 3584 2284 3584 
Q 2666 3584 2933 3390 
Q 3200 3197 3328 2828 
z
" transform="scale(0.015625)"/>
       <path id="DejaVuSans-70" d="M 1159 525 
L 1159 -1331 
L 581 -1331 
L 581 3500 
L 1159 3500 
L 1159 2969 
Q 1341 3281 1617 3432 
Q 1894 3584 2278 3584 
Q 2916 3584 3314 3078 
Q 3713 2572 3713 1747 
Q 3713 922 3314 415 
Q 2916 -91 2278 -91 
Q 1894 -91 1617 61 
Q 1341 213 1159 525 
z
M 3116 1747 
Q 3116 2381 2855 2742 
Q 2594 3103 2138 3103 
Q 1681 3103 1420 2742 
Q 1159 2381 1159 1747 
Q 1159 1113 1420 752 
Q 1681 391 2138 391 
Q 2594 391 2855 752 
Q 3116 1113 3116 1747 
z
" transform="scale(0.015625)"/>
       <path id="DejaVuSans-6c" d="M 603 4863 
L 1178 4863 
L 1178 0 
L 603 0 
L 603 4863 
z
" transform="scale(0.015625)"/>
       <path id="DejaVuSans-69" d="M 603 3500 
L 1178 3500 
L 1178 0 
L 603 0 
L 603 3500 
z
M 603 4863 
L 1178 4863 
L 1178 4134 
L 603 4134 
L 603 4863 
z
" transform="scale(0.015625)"/>
       <path id="DejaVuSans-74" d="M 1172 4494 
L 1172 3500 
L 2356 3500 
L 2356 3053 
L 1172 3053 
L 1172 1153 
Q 1172 725 1289 603 
Q 1406 481 1766 481 
L 2356 481 
L 2356 0 
L 1766 0 
Q 1100 0 847 248 
Q 594 497 594 1153 
L 594 3053 
L 172 3053 
L 172 3500 
L 594 3500 
L 594 4494 
L 1172 4494 
z
" transform="scale(0.015625)"/>
       <path id="DejaVuSans-64" d="M 2906 2969 
L 2906 4863 
L 3481 4863 
L 3481 0 
L 2906 0 
L 2906 525 
Q 2725 213 2448 61 
Q 2172 -91 1784 -91 
Q 1150 -91 751 415 
Q 353 922 353 1747 
Q 353 2572 751 3078 
Q 1150 3584 1784 3584 
Q 2172 3584 2448 3432 
Q 2725 3281 2906 2969 
z
M 947 1747 
Q 947 1113 1208 752 
Q 1469 391 1925 391 
Q 2381 391 2643 752 
Q 2906 1113 2906 1747 
Q 2906 2381 2643 2742 
Q 2381 3103 1925 3103 
Q 1469 3103 1208 2742 
Q 947 2381 947 1747 
z
" transform="scale(0.015625)"/>
       <path id="DejaVuSans-42" d="M 1259 2228 
L 1259 519 
L 2272 519 
Q 2781 519 3026 730 
Q 3272 941 3272 1375 
Q 3272 1813 3026 2020 
Q 2781 2228 2272 2228 
L 1259 2228 
z
M 1259 4147 
L 1259 2741 
L 2194 2741 
Q 2656 2741 2882 2914 
Q 3109 3088 3109 3444 
Q 3109 3797 2882 3972 
Q 2656 4147 2194 4147 
L 1259 4147 
z
M 628 4666 
L 2241 4666 
Q 2963 4666 3353 4366 
Q 3744 4066 3744 3513 
Q 3744 3084 3544 2831 
Q 3344 2578 2956 2516 
Q 3422 2416 3680 2098 
Q 3938 1781 3938 1306 
Q 3938 681 3513 340 
Q 3088 0 2303 0 
L 628 0 
L 628 4666 
z
" transform="scale(0.015625)"/>
      </defs>
      <use xlink:href="#DejaVuSans-41"/>
      <use xlink:href="#DejaVuSans-6d" x="68.408203"/>
      <use xlink:href="#DejaVuSans-70" x="165.820312"/>
      <use xlink:href="#DejaVuSans-6c" x="229.296875"/>
      <use xlink:href="#DejaVuSans-69" x="257.080078"/>
      <use xlink:href="#DejaVuSans-74" x="284.863281"/>
      <use xlink:href="#DejaVuSans-75" x="324.072266"/>
      <use xlink:href="#DejaVuSans-64" x="387.451172"/>
      <use xlink:href="#DejaVuSans-65" x="450.927734"/>
      <use xlink:href="#DejaVuSans-20" x="512.451172"/>
      <use xlink:href="#DejaVuSans-5b" x="544.238281"/>
      <use xlink:href="#DejaVuSans-64" x="583.251953"/>
      <use xlink:href="#DejaVuSans-42" x="646.728516"/>
      <use xlink:href="#DejaVuSans-5d" x="715.332031"/>
     </g>
    </g>
   </g>
   <g id="line2d_14">
    <path d="M 73.832727 293.800414 
L 84.275511 293.688787 
L 93.557986 293.374732 
L 111.426749 292.426514 
L 122.333657 291.566923 
L 132.77644 290.475762 
L 140.898605 289.440513 
L 159.231493 286.360722 
L 160.391802 286.100573 
L 161.784173 285.816484 
L 173.85139 282.883567 
L 176.636132 282.110812 
L 176.868194 281.943903 
L 177.100256 281.996077 
L 177.332318 281.896009 
L 177.56438 281.978779 
L 177.796442 281.678013 
L 178.028503 281.775995 
L 178.260565 281.614015 
L 178.724689 281.576092 
L 179.884998 281.007575 
L 180.11706 281.13067 
L 180.813246 280.828173 
L 181.045308 280.80695 
L 181.509431 280.501063 
L 182.205617 280.347723 
L 182.669741 280.298522 
L 182.901803 280.076332 
L 183.133864 280.270284 
L 183.365926 280.194328 
L 184.062112 279.624895 
L 184.294174 279.590641 
L 184.526236 279.351866 
L 184.758297 279.564188 
L 184.990359 279.623131 
L 185.222421 279.040561 
L 185.454483 279.645932 
L 185.686545 279.145184 
L 186.150669 279.271732 
L 186.382731 278.940635 
L 186.846854 278.68553 
L 187.078916 279.052965 
L 187.775102 278.145386 
L 188.007164 278.647963 
L 188.703349 278.100532 
L 188.935411 277.594051 
L 189.167473 278.119006 
L 189.399535 277.996871 
L 189.631597 277.515717 
L 189.863658 277.857343 
L 190.09572 277.369941 
L 190.559844 276.986634 
L 190.791906 277.41588 
L 191.023968 276.484711 
L 191.25603 276.885653 
L 191.720153 276.668478 
L 192.184277 276.491172 
L 192.416339 276.101811 
L 192.648401 276.335159 
L 192.880463 276.107397 
L 193.112525 275.608311 
L 193.344586 275.607747 
L 193.576648 276.669448 
L 193.80871 275.046741 
L 194.040772 276.224456 
L 194.272834 275.503799 
L 194.504896 275.649914 
L 194.736958 276.169561 
L 194.969019 277.030143 
L 195.201081 276.103943 
L 195.433143 276.644505 
L 195.665205 275.539212 
L 195.897267 275.041426 
L 196.129329 275.414343 
L 196.593452 273.311511 
L 196.825514 275.124417 
L 197.057576 274.409525 
L 197.289638 274.150158 
L 197.5217 273.558082 
L 197.753762 273.602054 
L 197.985824 272.410167 
L 198.217886 274.309765 
L 198.449947 273.910127 
L 198.682009 272.529561 
L 198.914071 273.15447 
L 199.146133 275.417102 
L 199.378195 271.800086 
L 199.610257 270.627129 
L 199.842319 271.717483 
L 200.07438 273.38192 
L 200.306442 272.616937 
L 200.538504 272.524738 
L 200.770566 271.92195 
L 201.002628 270.513291 
L 201.23469 267.802858 
L 201.466752 267.918203 
L 201.698813 271.985378 
L 201.930875 272.964641 
L 202.162937 269.307427 
L 202.394999 269.902235 
L 202.627061 274.286536 
L 202.859123 268.459561 
L 203.091185 275.312579 
L 203.323246 269.652231 
L 203.555308 273.325515 
L 203.78737 269.077521 
L 204.019432 267.703092 
L 204.251494 267.749966 
L 204.483556 263.124483 
L 204.715618 269.838136 
L 204.94768 265.183865 
L 205.179741 270.881613 
L 205.411803 265.098096 
L 205.643865 270.588966 
L 205.875927 261.548132 
L 206.107989 284.992314 
L 206.572113 264.147959 
L 206.804174 268.30906 
L 207.268298 257.516562 
L 207.50036 257.036188 
L 207.732422 284.145599 
L 207.964484 260.084593 
L 208.196546 258.504315 
L 208.428607 280.130175 
L 208.660669 261.891417 
L 208.892731 267.875822 
L 209.124793 256.036144 
L 209.356855 262.744748 
L 209.588917 258.74088 
L 209.820979 261.048675 
L 210.05304 255.965722 
L 210.285102 253.536789 
L 210.517164 258.501074 
L 210.749226 253.724794 
L 210.981288 270.833621 
L 211.21335 252.774873 
L 211.445412 253.148695 
L 211.909535 277.72726 
L 212.141597 281.762022 
L 212.605721 264.28737 
L 212.837783 277.220872 
L 213.301907 254.967315 
L 213.533968 240.150004 
L 213.76603 275.792423 
L 213.998092 247.408343 
L 214.230154 246.13671 
L 214.462216 250.497439 
L 214.694278 261.665561 
L 214.92634 286.374261 
L 215.158401 260.339652 
L 215.390463 254.625897 
L 215.854587 261.605533 
L 216.086649 274.94015 
L 216.318711 263.501455 
L 216.550773 258.013508 
L 216.782834 243.092245 
L 217.014896 251.97676 
L 217.246958 236.006022 
L 217.47902 257.729325 
L 217.711082 247.45132 
L 217.943144 246.831283 
L 218.175206 251.282901 
L 218.407268 234.734666 
L 218.639329 267.401582 
L 218.871391 225.634223 
L 219.103453 234.632798 
L 219.335515 251.784092 
L 219.567577 241.62224 
L 219.799639 268.517123 
L 220.031701 234.933173 
L 220.263762 257.763725 
L 220.495824 235.192965 
L 220.727886 234.649213 
L 220.959948 247.247857 
L 221.424072 244.291078 
L 221.656134 274.577519 
L 221.888195 249.551269 
L 222.352319 270.691703 
L 222.584381 250.081383 
L 222.816443 254.490018 
L 223.048505 243.071782 
L 223.512629 275.114466 
L 223.74469 246.014393 
L 223.976752 249.418686 
L 224.208814 241.530996 
L 224.440876 250.592407 
L 224.672938 241.491356 
L 224.905 240.311675 
L 225.137062 233.288124 
L 225.369123 241.179357 
L 225.601185 233.232126 
L 225.833247 258.658112 
L 226.065309 243.474281 
L 226.297371 264.530395 
L 226.529433 244.886527 
L 226.761495 243.852984 
L 226.993556 261.522267 
L 227.225618 229.444925 
L 227.689742 254.291139 
L 227.921804 247.169084 
L 228.153866 234.154995 
L 228.385928 246.840912 
L 228.617989 234.097055 
L 228.850051 246.247915 
L 229.082113 234.971435 
L 229.314175 238.492364 
L 229.546237 229.960744 
L 229.778299 250.265883 
L 230.010361 232.488843 
L 230.242423 230.784068 
L 230.474484 259.117444 
L 230.706546 233.386066 
L 230.938608 248.823224 
L 231.17067 233.376916 
L 231.402732 234.237734 
L 231.634794 219.211513 
L 231.866856 228.541909 
L 232.098917 229.403923 
L 232.330979 250.96639 
L 232.563041 234.573053 
L 232.795103 244.181798 
L 233.027165 234.473242 
L 233.259227 238.583306 
L 233.491289 224.252984 
L 233.72335 218.852825 
L 233.955412 230.909041 
L 234.419536 219.067188 
L 234.651598 213.191656 
L 234.88366 222.768617 
L 235.115722 222.39103 
L 235.347783 204.000383 
L 235.579845 215.863783 
L 236.043969 182.185959 
L 236.276031 53.487639 
L 236.508093 182.185959 
L 236.972217 215.863783 
L 237.204278 204.000383 
L 237.43634 222.39103 
L 237.668402 222.768617 
L 237.900464 213.191656 
L 238.59665 230.909041 
L 238.828711 218.852825 
L 239.060773 224.252984 
L 239.292835 238.583306 
L 239.524897 234.473242 
L 239.756959 244.181798 
L 239.989021 234.573053 
L 240.221083 250.96639 
L 240.453144 229.403923 
L 240.685206 228.541909 
L 240.917268 219.211513 
L 241.14933 234.237734 
L 241.381392 233.376916 
L 241.613454 248.823224 
L 241.845516 233.386066 
L 242.077577 259.117444 
L 242.309639 230.784068 
L 242.541701 232.488843 
L 242.773763 250.265883 
L 243.005825 229.960744 
L 243.237887 238.492364 
L 243.469949 234.971435 
L 243.702011 246.247915 
L 243.934072 234.097055 
L 244.166134 246.840912 
L 244.398196 234.154995 
L 244.86232 254.291139 
L 245.326444 229.444925 
L 245.558505 261.522267 
L 245.790567 243.852984 
L 246.022629 244.886527 
L 246.254691 264.530395 
L 246.486753 243.474281 
L 246.718815 258.658112 
L 246.950877 233.232126 
L 247.182938 241.179357 
L 247.415 233.288124 
L 247.647062 240.311675 
L 247.879124 241.491356 
L 248.111186 250.592407 
L 248.343248 241.530996 
L 248.57531 249.418686 
L 248.807371 246.014393 
L 249.039433 275.114466 
L 249.271495 263.911385 
L 249.503557 243.071782 
L 249.735619 254.490018 
L 249.967681 250.081383 
L 250.199743 270.691703 
L 250.663866 249.551269 
L 250.895928 274.577519 
L 251.12799 244.291078 
L 251.360052 245.355218 
L 251.592114 247.247857 
L 251.824176 234.649213 
L 252.056238 235.192965 
L 252.288299 257.763725 
L 252.520361 234.933173 
L 252.752423 268.517123 
L 252.984485 241.62224 
L 253.216547 251.784092 
L 253.680671 225.634223 
L 253.912732 267.401582 
L 254.144794 234.734666 
L 254.376856 251.282901 
L 254.608918 246.831283 
L 254.84098 247.45132 
L 255.073042 257.729325 
L 255.305104 236.006022 
L 255.537166 251.97676 
L 255.769227 243.092245 
L 256.001289 258.013508 
L 256.233351 263.501455 
L 256.465413 274.94015 
L 256.697475 261.605533 
L 257.161599 254.625897 
L 257.39366 260.339652 
L 257.625722 286.374261 
L 257.857784 261.665561 
L 258.089846 250.497439 
L 258.321908 246.13671 
L 258.55397 247.408343 
L 258.786032 275.792423 
L 259.018093 240.150004 
L 259.482217 266.983567 
L 259.714279 277.220872 
L 259.946341 264.28737 
L 260.178403 270.77558 
L 260.410465 281.762022 
L 260.642526 277.72726 
L 260.874588 268.402073 
L 261.10665 253.148695 
L 261.338712 252.774873 
L 261.570774 270.833621 
L 261.802836 253.724794 
L 262.034898 258.501074 
L 262.26696 253.536789 
L 262.499021 255.965722 
L 262.731083 261.048675 
L 262.963145 258.74088 
L 263.195207 262.744748 
L 263.427269 256.036144 
L 263.659331 267.875822 
L 263.891393 261.891417 
L 264.123454 280.130175 
L 264.355516 258.504315 
L 264.587578 260.084593 
L 264.81964 284.145599 
L 265.051702 257.036188 
L 265.283764 257.516562 
L 265.747887 268.30906 
L 265.979949 264.147959 
L 266.444073 284.992314 
L 266.676135 261.548132 
L 266.908197 270.588966 
L 267.140259 265.098096 
L 267.37232 270.881613 
L 267.604382 265.183865 
L 267.836444 269.838136 
L 268.068506 263.124483 
L 268.300568 267.749966 
L 268.53263 267.703092 
L 268.764692 269.077521 
L 268.996754 273.325515 
L 269.228815 269.652231 
L 269.460877 275.312579 
L 269.692939 268.459561 
L 269.925001 274.286536 
L 270.157063 269.902235 
L 270.389125 269.307427 
L 270.621187 272.964641 
L 270.853248 271.985378 
L 271.08531 267.918203 
L 271.317372 267.802858 
L 271.781496 271.92195 
L 272.013558 272.524738 
L 272.24562 272.616937 
L 272.477681 273.38192 
L 272.941805 270.627129 
L 273.173867 271.800086 
L 273.405929 275.417102 
L 273.637991 273.15447 
L 273.870053 272.529561 
L 274.102114 273.910127 
L 274.334176 274.309765 
L 274.566238 272.410167 
L 274.7983 273.602054 
L 275.030362 273.558082 
L 275.262424 274.150158 
L 275.494486 274.409525 
L 275.726548 275.124417 
L 275.958609 273.311511 
L 276.422733 275.414343 
L 276.654795 275.041426 
L 276.886857 275.539212 
L 277.118919 276.644505 
L 277.350981 276.103943 
L 277.583042 277.030143 
L 278.047166 275.649914 
L 278.279228 275.503799 
L 278.51129 276.224456 
L 278.743352 275.046741 
L 278.975414 276.669448 
L 279.207475 275.607747 
L 279.439537 275.608311 
L 279.671599 276.107397 
L 279.903661 276.335159 
L 280.135723 276.101811 
L 280.367785 276.491172 
L 281.296032 276.885653 
L 281.528094 276.484711 
L 281.760156 277.41588 
L 281.992218 276.986634 
L 282.688403 277.857343 
L 282.920465 277.515717 
L 283.152527 277.996871 
L 283.384589 278.119006 
L 283.616651 277.594051 
L 283.848713 278.100532 
L 284.544898 278.647963 
L 284.77696 278.145386 
L 285.473146 279.052965 
L 285.705208 278.68553 
L 286.633455 279.257526 
L 286.865517 279.145184 
L 287.097579 279.645932 
L 287.329641 279.040561 
L 287.561703 279.623131 
L 287.793764 279.564188 
L 288.025826 279.351866 
L 288.257888 279.590641 
L 288.48995 279.624895 
L 289.186136 280.194328 
L 289.418197 280.270284 
L 289.650259 280.076332 
L 289.882321 280.298522 
L 290.810569 280.417675 
L 291.274692 280.609976 
L 291.506754 280.80695 
L 291.970878 280.924595 
L 292.435002 281.13067 
L 292.667063 281.007575 
L 293.363249 281.463476 
L 293.827373 281.576092 
L 294.523558 281.775995 
L 294.75562 281.678013 
L 294.987682 281.978779 
L 295.219744 281.896009 
L 295.451806 281.996077 
L 295.683868 281.943903 
L 295.91593 282.110812 
L 296.380053 282.225168 
L 296.612115 282.42375 
L 296.844177 282.349314 
L 297.076239 282.501859 
L 297.540363 282.608889 
L 300.325105 283.332859 
L 300.557167 283.331209 
L 301.253352 283.643466 
L 302.413662 283.849807 
L 303.109847 284.042356 
L 304.966342 284.517699 
L 306.358713 284.849067 
L 313.088507 286.291671 
L 314.248817 286.540376 
L 318.193868 287.290815 
L 329.100776 289.071057 
L 340.007683 290.503282 
L 354.395519 291.930817 
L 365.302426 292.672943 
L 383.867375 293.568697 
L 393.381912 293.771731 
L 398.487273 293.80036 
L 398.487273 293.80036 
" clip-path="url(#p4f90222474)" style="fill: none; stroke: #008000; stroke-width: 1.5; stroke-linecap: square"/>
   </g>
   <g id="patch_3">
    <path d="M 57.6 307.584 
L 57.6 41.472 
" style="fill: none; stroke: #000000; stroke-width: 0.8; stroke-linejoin: miter; stroke-linecap: square"/>
   </g>
   <g id="patch_4">
    <path d="M 414.72 307.584 
L 414.72 41.472 
" style="fill: none; stroke: #000000; stroke-width: 0.8; stroke-linejoin: miter; stroke-linecap: square"/>
   </g>
   <g id="patch_5">
    <path d="M 57.6 307.584 
L 414.72 307.584 
" style="fill: none; stroke: #000000; stroke-width: 0.8; stroke-linejoin: miter; stroke-linecap: square"/>
   </g>
   <g id="patch_6">
    <path d="M 57.6 41.472 
L 414.72 41.472 
" style="fill: none; stroke: #000000; stroke-width: 0.8; stroke-linejoin: miter; stroke-linecap: square"/>
   </g>
  </g>
 </g>
 <defs>
  <clipPath id="p4f90222474">
   <rect x="57.6" y="41.472" width="357.12" height="266.112"/>
  </clipPath>
 </defs>
</svg>
