<?xml version="1.0" encoding="utf-8" standalone="no"?>
<!DOCTYPE svg PUBLIC "-//W3C//DTD SVG 1.1//EN"
  "http://www.w3.org/Graphics/SVG/1.1/DTD/svg11.dtd">
<svg xmlns:xlink="http://www.w3.org/1999/xlink" width="460.8pt" height="345.6pt" viewBox="0 0 460.8 345.6" xmlns="http://www.w3.org/2000/svg" version="1.1">
 <metadata>
  <rdf:RDF xmlns:dc="http://purl.org/dc/elements/1.1/" xmlns:cc="http://creativecommons.org/ns#" xmlns:rdf="http://www.w3.org/1999/02/22-rdf-syntax-ns#">
   <cc:Work>
    <dc:type rdf:resource="http://purl.org/dc/dcmitype/StillImage"/>
    <dc:date>2024-05-24T11:06:07.872065</dc:date>
    <dc:format>image/svg+xml</dc:format>
    <dc:creator>
     <cc:Agent>
      <dc:title>Matplotlib v3.8.2, https://matplotlib.org/</dc:title>
     </cc:Agent>
    </dc:creator>
   </cc:Work>
  </rdf:RDF>
 </metadata>
 <defs>
  <style type="text/css">*{stroke-linejoin: round; stroke-linecap: butt}</style>
 </defs>
 <g id="figure_1">
  <g id="patch_1">
   <path d="M 0 345.6 
L 460.8 345.6 
L 460.8 0 
L 0 0 
z
" style="fill: #ffffff"/>
  </g>
  <g id="axes_1">
   <g id="patch_2">
    <path d="M 57.6 307.584 
L 414.72 307.584 
L 414.72 41.472 
L 57.6 41.472 
z
" style="fill: #ffffff"/>
   </g>
   <g id="matplotlib.axis_1">
    <g id="xtick_1">
     <g id="line2d_1">
      <defs>
       <path id="m7e957d6379" d="M 0 0 
L 0 3.5 
" style="stroke: #000000; stroke-width: 0.8"/>
      </defs>
      <g>
       <use xlink:href="#m7e957d6379" x="97.030623" y="307.584" style="stroke: #000000; stroke-width: 0.8"/>
      </g>
     </g>
     <g id="text_1">
      <!-- −30 -->
      <g transform="translate(86.478279 322.182437) scale(0.1 -0.1)">
       <defs>
        <path id="DejaVuSans-2212" d="M 678 2272 
L 4684 2272 
L 4684 1741 
L 678 1741 
L 678 2272 
z
" transform="scale(0.015625)"/>
        <path id="DejaVuSans-33" d="M 2597 2516 
Q 3050 2419 3304 2112 
Q 3559 1806 3559 1356 
Q 3559 666 3084 287 
Q 2609 -91 1734 -91 
Q 1441 -91 1130 -33 
Q 819 25 488 141 
L 488 750 
Q 750 597 1062 519 
Q 1375 441 1716 441 
Q 2309 441 2620 675 
Q 2931 909 2931 1356 
Q 2931 1769 2642 2001 
Q 2353 2234 1838 2234 
L 1294 2234 
L 1294 2753 
L 1863 2753 
Q 2328 2753 2575 2939 
Q 2822 3125 2822 3475 
Q 2822 3834 2567 4026 
Q 2313 4219 1838 4219 
Q 1578 4219 1281 4162 
Q 984 4106 628 3988 
L 628 4550 
Q 988 4650 1302 4700 
Q 1616 4750 1894 4750 
Q 2613 4750 3031 4423 
Q 3450 4097 3450 3541 
Q 3450 3153 3228 2886 
Q 3006 2619 2597 2516 
z
" transform="scale(0.015625)"/>
        <path id="DejaVuSans-30" d="M 2034 4250 
Q 1547 4250 1301 3770 
Q 1056 3291 1056 2328 
Q 1056 1369 1301 889 
Q 1547 409 2034 409 
Q 2525 409 2770 889 
Q 3016 1369 3016 2328 
Q 3016 3291 2770 3770 
Q 2525 4250 2034 4250 
z
M 2034 4750 
Q 2819 4750 3233 4129 
Q 3647 3509 3647 2328 
Q 3647 1150 3233 529 
Q 2819 -91 2034 -91 
Q 1250 -91 836 529 
Q 422 1150 422 2328 
Q 422 3509 836 4129 
Q 1250 4750 2034 4750 
z
" transform="scale(0.015625)"/>
       </defs>
       <use xlink:href="#DejaVuSans-2212"/>
       <use xlink:href="#DejaVuSans-33" x="83.789062"/>
       <use xlink:href="#DejaVuSans-30" x="147.412109"/>
      </g>
     </g>
    </g>
    <g id="xtick_2">
     <g id="line2d_2">
      <g>
       <use xlink:href="#m7e957d6379" x="143.426413" y="307.584" style="stroke: #000000; stroke-width: 0.8"/>
      </g>
     </g>
     <g id="text_2">
      <!-- −20 -->
      <g transform="translate(132.87407 322.182437) scale(0.1 -0.1)">
       <defs>
        <path id="DejaVuSans-32" d="M 1228 531 
L 3431 531 
L 3431 0 
L 469 0 
L 469 531 
Q 828 903 1448 1529 
Q 2069 2156 2228 2338 
Q 2531 2678 2651 2914 
Q 2772 3150 2772 3378 
Q 2772 3750 2511 3984 
Q 2250 4219 1831 4219 
Q 1534 4219 1204 4116 
Q 875 4013 500 3803 
L 500 4441 
Q 881 4594 1212 4672 
Q 1544 4750 1819 4750 
Q 2544 4750 2975 4387 
Q 3406 4025 3406 3419 
Q 3406 3131 3298 2873 
Q 3191 2616 2906 2266 
Q 2828 2175 2409 1742 
Q 1991 1309 1228 531 
z
" transform="scale(0.015625)"/>
       </defs>
       <use xlink:href="#DejaVuSans-2212"/>
       <use xlink:href="#DejaVuSans-32" x="83.789062"/>
       <use xlink:href="#DejaVuSans-30" x="147.412109"/>
      </g>
     </g>
    </g>
    <g id="xtick_3">
     <g id="line2d_3">
      <g>
       <use xlink:href="#m7e957d6379" x="189.822204" y="307.584" style="stroke: #000000; stroke-width: 0.8"/>
      </g>
     </g>
     <g id="text_3">
      <!-- −10 -->
      <g transform="translate(179.26986 322.182437) scale(0.1 -0.1)">
       <defs>
        <path id="DejaVuSans-31" d="M 794 531 
L 1825 531 
L 1825 4091 
L 703 3866 
L 703 4441 
L 1819 4666 
L 2450 4666 
L 2450 531 
L 3481 531 
L 3481 0 
L 794 0 
L 794 531 
z
" transform="scale(0.015625)"/>
       </defs>
       <use xlink:href="#DejaVuSans-2212"/>
       <use xlink:href="#DejaVuSans-31" x="83.789062"/>
       <use xlink:href="#DejaVuSans-30" x="147.412109"/>
      </g>
     </g>
    </g>
    <g id="xtick_4">
     <g id="line2d_4">
      <g>
       <use xlink:href="#m7e957d6379" x="236.217995" y="307.584" style="stroke: #000000; stroke-width: 0.8"/>
      </g>
     </g>
     <g id="text_4">
      <!-- 0 -->
      <g transform="translate(233.036745 322.182437) scale(0.1 -0.1)">
       <use xlink:href="#DejaVuSans-30"/>
      </g>
     </g>
    </g>
    <g id="xtick_5">
     <g id="line2d_5">
      <g>
       <use xlink:href="#m7e957d6379" x="282.613785" y="307.584" style="stroke: #000000; stroke-width: 0.8"/>
      </g>
     </g>
     <g id="text_5">
      <!-- 10 -->
      <g transform="translate(276.251285 322.182437) scale(0.1 -0.1)">
       <use xlink:href="#DejaVuSans-31"/>
       <use xlink:href="#DejaVuSans-30" x="63.623047"/>
      </g>
     </g>
    </g>
    <g id="xtick_6">
     <g id="line2d_6">
      <g>
       <use xlink:href="#m7e957d6379" x="329.009576" y="307.584" style="stroke: #000000; stroke-width: 0.8"/>
      </g>
     </g>
     <g id="text_6">
      <!-- 20 -->
      <g transform="translate(322.647076 322.182437) scale(0.1 -0.1)">
       <use xlink:href="#DejaVuSans-32"/>
       <use xlink:href="#DejaVuSans-30" x="63.623047"/>
      </g>
     </g>
    </g>
    <g id="xtick_7">
     <g id="line2d_7">
      <g>
       <use xlink:href="#m7e957d6379" x="375.405367" y="307.584" style="stroke: #000000; stroke-width: 0.8"/>
      </g>
     </g>
     <g id="text_7">
      <!-- 30 -->
      <g transform="translate(369.042867 322.182437) scale(0.1 -0.1)">
       <use xlink:href="#DejaVuSans-33"/>
       <use xlink:href="#DejaVuSans-30" x="63.623047"/>
      </g>
     </g>
    </g>
    <g id="text_8">
     <!-- Frequency [$Hz$] -->
     <g transform="translate(197.96 335.862125) scale(0.1 -0.1)">
      <defs>
       <path id="DejaVuSans-46" d="M 628 4666 
L 3309 4666 
L 3309 4134 
L 1259 4134 
L 1259 2759 
L 3109 2759 
L 3109 2228 
L 1259 2228 
L 1259 0 
L 628 0 
L 628 4666 
z
" transform="scale(0.015625)"/>
       <path id="DejaVuSans-72" d="M 2631 2963 
Q 2534 3019 2420 3045 
Q 2306 3072 2169 3072 
Q 1681 3072 1420 2755 
Q 1159 2438 1159 1844 
L 1159 0 
L 581 0 
L 581 3500 
L 1159 3500 
L 1159 2956 
Q 1341 3275 1631 3429 
Q 1922 3584 2338 3584 
Q 2397 3584 2469 3576 
Q 2541 3569 2628 3553 
L 2631 2963 
z
" transform="scale(0.015625)"/>
       <path id="DejaVuSans-65" d="M 3597 1894 
L 3597 1613 
L 953 1613 
Q 991 1019 1311 708 
Q 1631 397 2203 397 
Q 2534 397 2845 478 
Q 3156 559 3463 722 
L 3463 178 
Q 3153 47 2828 -22 
Q 2503 -91 2169 -91 
Q 1331 -91 842 396 
Q 353 884 353 1716 
Q 353 2575 817 3079 
Q 1281 3584 2069 3584 
Q 2775 3584 3186 3129 
Q 3597 2675 3597 1894 
z
M 3022 2063 
Q 3016 2534 2758 2815 
Q 2500 3097 2075 3097 
Q 1594 3097 1305 2825 
Q 1016 2553 972 2059 
L 3022 2063 
z
" transform="scale(0.015625)"/>
       <path id="DejaVuSans-71" d="M 947 1747 
Q 947 1113 1208 752 
Q 1469 391 1925 391 
Q 2381 391 2643 752 
Q 2906 1113 2906 1747 
Q 2906 2381 2643 2742 
Q 2381 3103 1925 3103 
Q 1469 3103 1208 2742 
Q 947 2381 947 1747 
z
M 2906 525 
Q 2725 213 2448 61 
Q 2172 -91 1784 -91 
Q 1150 -91 751 415 
Q 353 922 353 1747 
Q 353 2572 751 3078 
Q 1150 3584 1784 3584 
Q 2172 3584 2448 3432 
Q 2725 3281 2906 2969 
L 2906 3500 
L 3481 3500 
L 3481 -1331 
L 2906 -1331 
L 2906 525 
z
" transform="scale(0.015625)"/>
       <path id="DejaVuSans-75" d="M 544 1381 
L 544 3500 
L 1119 3500 
L 1119 1403 
Q 1119 906 1312 657 
Q 1506 409 1894 409 
Q 2359 409 2629 706 
Q 2900 1003 2900 1516 
L 2900 3500 
L 3475 3500 
L 3475 0 
L 2900 0 
L 2900 538 
Q 2691 219 2414 64 
Q 2138 -91 1772 -91 
Q 1169 -91 856 284 
Q 544 659 544 1381 
z
M 1991 3584 
L 1991 3584 
z
" transform="scale(0.015625)"/>
       <path id="DejaVuSans-6e" d="M 3513 2113 
L 3513 0 
L 2938 0 
L 2938 2094 
Q 2938 2591 2744 2837 
Q 2550 3084 2163 3084 
Q 1697 3084 1428 2787 
Q 1159 2491 1159 1978 
L 1159 0 
L 581 0 
L 581 3500 
L 1159 3500 
L 1159 2956 
Q 1366 3272 1645 3428 
Q 1925 3584 2291 3584 
Q 2894 3584 3203 3211 
Q 3513 2838 3513 2113 
z
" transform="scale(0.015625)"/>
       <path id="DejaVuSans-63" d="M 3122 3366 
L 3122 2828 
Q 2878 2963 2633 3030 
Q 2388 3097 2138 3097 
Q 1578 3097 1268 2742 
Q 959 2388 959 1747 
Q 959 1106 1268 751 
Q 1578 397 2138 397 
Q 2388 397 2633 464 
Q 2878 531 3122 666 
L 3122 134 
Q 2881 22 2623 -34 
Q 2366 -91 2075 -91 
Q 1284 -91 818 406 
Q 353 903 353 1747 
Q 353 2603 823 3093 
Q 1294 3584 2113 3584 
Q 2378 3584 2631 3529 
Q 2884 3475 3122 3366 
z
" transform="scale(0.015625)"/>
       <path id="DejaVuSans-79" d="M 2059 -325 
Q 1816 -950 1584 -1140 
Q 1353 -1331 966 -1331 
L 506 -1331 
L 506 -850 
L 844 -850 
Q 1081 -850 1212 -737 
Q 1344 -625 1503 -206 
L 1606 56 
L 191 3500 
L 800 3500 
L 1894 763 
L 2988 3500 
L 3597 3500 
L 2059 -325 
z
" transform="scale(0.015625)"/>
       <path id="DejaVuSans-20" transform="scale(0.015625)"/>
       <path id="DejaVuSans-5b" d="M 550 4863 
L 1875 4863 
L 1875 4416 
L 1125 4416 
L 1125 -397 
L 1875 -397 
L 1875 -844 
L 550 -844 
L 550 4863 
z
" transform="scale(0.015625)"/>
       <path id="DejaVuSans-Oblique-48" d="M 1081 4666 
L 1716 4666 
L 1344 2753 
L 3634 2753 
L 4006 4666 
L 4641 4666 
L 3731 0 
L 3097 0 
L 3531 2222 
L 1241 2222 
L 806 0 
L 172 0 
L 1081 4666 
z
" transform="scale(0.015625)"/>
       <path id="DejaVuSans-Oblique-7a" d="M 744 3500 
L 3475 3500 
L 3372 2975 
L 738 459 
L 2913 459 
L 2822 0 
L -19 0 
L 84 525 
L 2719 3041 
L 653 3041 
L 744 3500 
z
" transform="scale(0.015625)"/>
       <path id="DejaVuSans-5d" d="M 1947 4863 
L 1947 -844 
L 622 -844 
L 622 -397 
L 1369 -397 
L 1369 4416 
L 622 4416 
L 622 4863 
L 1947 4863 
z
" transform="scale(0.015625)"/>
      </defs>
      <use xlink:href="#DejaVuSans-46" transform="translate(0 0.015625)"/>
      <use xlink:href="#DejaVuSans-72" transform="translate(57.519531 0.015625)"/>
      <use xlink:href="#DejaVuSans-65" transform="translate(98.632812 0.015625)"/>
      <use xlink:href="#DejaVuSans-71" transform="translate(160.15625 0.015625)"/>
      <use xlink:href="#DejaVuSans-75" transform="translate(223.632812 0.015625)"/>
      <use xlink:href="#DejaVuSans-65" transform="translate(287.011719 0.015625)"/>
      <use xlink:href="#DejaVuSans-6e" transform="translate(348.535156 0.015625)"/>
      <use xlink:href="#DejaVuSans-63" transform="translate(411.914062 0.015625)"/>
      <use xlink:href="#DejaVuSans-79" transform="translate(466.894531 0.015625)"/>
      <use xlink:href="#DejaVuSans-20" transform="translate(526.074219 0.015625)"/>
      <use xlink:href="#DejaVuSans-5b" transform="translate(557.861328 0.015625)"/>
      <use xlink:href="#DejaVuSans-Oblique-48" transform="translate(596.875 0.015625)"/>
      <use xlink:href="#DejaVuSans-Oblique-7a" transform="translate(672.070312 0.015625)"/>
      <use xlink:href="#DejaVuSans-5d" transform="translate(724.560547 0.015625)"/>
     </g>
    </g>
   </g>
   <g id="matplotlib.axis_2">
    <g id="ytick_1">
     <g id="line2d_8">
      <defs>
       <path id="m79216b644b" d="M 0 0 
L -3.5 0 
" style="stroke: #000000; stroke-width: 0.8"/>
      </defs>
      <g>
       <use xlink:href="#m79216b644b" x="57.6" y="288.649691" style="stroke: #000000; stroke-width: 0.8"/>
      </g>
     </g>
     <g id="text_9">
      <!-- −20 -->
      <g transform="translate(29.495313 292.44891) scale(0.1 -0.1)">
       <use xlink:href="#DejaVuSans-2212"/>
       <use xlink:href="#DejaVuSans-32" x="83.789062"/>
       <use xlink:href="#DejaVuSans-30" x="147.412109"/>
      </g>
     </g>
    </g>
    <g id="ytick_2">
     <g id="line2d_9">
      <g>
       <use xlink:href="#m79216b644b" x="57.6" y="250.781073" style="stroke: #000000; stroke-width: 0.8"/>
      </g>
     </g>
     <g id="text_10">
      <!-- −10 -->
      <g transform="translate(29.495313 254.580291) scale(0.1 -0.1)">
       <use xlink:href="#DejaVuSans-2212"/>
       <use xlink:href="#DejaVuSans-31" x="83.789062"/>
       <use xlink:href="#DejaVuSans-30" x="147.412109"/>
      </g>
     </g>
    </g>
    <g id="ytick_3">
     <g id="line2d_10">
      <g>
       <use xlink:href="#m79216b644b" x="57.6" y="212.912454" style="stroke: #000000; stroke-width: 0.8"/>
      </g>
     </g>
     <g id="text_11">
      <!-- 0 -->
      <g transform="translate(44.2375 216.711673) scale(0.1 -0.1)">
       <use xlink:href="#DejaVuSans-30"/>
      </g>
     </g>
    </g>
    <g id="ytick_4">
     <g id="line2d_11">
      <g>
       <use xlink:href="#m79216b644b" x="57.6" y="175.043836" style="stroke: #000000; stroke-width: 0.8"/>
      </g>
     </g>
     <g id="text_12">
      <!-- 10 -->
      <g transform="translate(37.875 178.843055) scale(0.1 -0.1)">
       <use xlink:href="#DejaVuSans-31"/>
       <use xlink:href="#DejaVuSans-30" x="63.623047"/>
      </g>
     </g>
    </g>
    <g id="ytick_5">
     <g id="line2d_12">
      <g>
       <use xlink:href="#m79216b644b" x="57.6" y="137.175218" style="stroke: #000000; stroke-width: 0.8"/>
      </g>
     </g>
     <g id="text_13">
      <!-- 20 -->
      <g transform="translate(37.875 140.974436) scale(0.1 -0.1)">
       <use xlink:href="#DejaVuSans-32"/>
       <use xlink:href="#DejaVuSans-30" x="63.623047"/>
      </g>
     </g>
    </g>
    <g id="ytick_6">
     <g id="line2d_13">
      <g>
       <use xlink:href="#m79216b644b" x="57.6" y="99.306599" style="stroke: #000000; stroke-width: 0.8"/>
      </g>
     </g>
     <g id="text_14">
      <!-- 30 -->
      <g transform="translate(37.875 103.105818) scale(0.1 -0.1)">
       <use xlink:href="#DejaVuSans-33"/>
       <use xlink:href="#DejaVuSans-30" x="63.623047"/>
      </g>
     </g>
    </g>
    <g id="ytick_7">
     <g id="line2d_14">
      <g>
       <use xlink:href="#m79216b644b" x="57.6" y="61.437981" style="stroke: #000000; stroke-width: 0.8"/>
      </g>
     </g>
     <g id="text_15">
      <!-- 40 -->
      <g transform="translate(37.875 65.2372) scale(0.1 -0.1)">
       <defs>
        <path id="DejaVuSans-34" d="M 2419 4116 
L 825 1625 
L 2419 1625 
L 2419 4116 
z
M 2253 4666 
L 3047 4666 
L 3047 1625 
L 3713 1625 
L 3713 1100 
L 3047 1100 
L 3047 0 
L 2419 0 
L 2419 1100 
L 313 1100 
L 313 1709 
L 2253 4666 
z
" transform="scale(0.015625)"/>
       </defs>
       <use xlink:href="#DejaVuSans-34"/>
       <use xlink:href="#DejaVuSans-30" x="63.623047"/>
      </g>
     </g>
    </g>
    <g id="text_16">
     <!-- Amplitude [dB] -->
     <g transform="translate(23.415625 212.245969) rotate(-90) scale(0.1 -0.1)">
      <defs>
       <path id="DejaVuSans-41" d="M 2188 4044 
L 1331 1722 
L 3047 1722 
L 2188 4044 
z
M 1831 4666 
L 2547 4666 
L 4325 0 
L 3669 0 
L 3244 1197 
L 1141 1197 
L 716 0 
L 50 0 
L 1831 4666 
z
" transform="scale(0.015625)"/>
       <path id="DejaVuSans-6d" d="M 3328 2828 
Q 3544 3216 3844 3400 
Q 4144 3584 4550 3584 
Q 5097 3584 5394 3201 
Q 5691 2819 5691 2113 
L 5691 0 
L 5113 0 
L 5113 2094 
Q 5113 2597 4934 2840 
Q 4756 3084 4391 3084 
Q 3944 3084 3684 2787 
Q 3425 2491 3425 1978 
L 3425 0 
L 2847 0 
L 2847 2094 
Q 2847 2600 2669 2842 
Q 2491 3084 2119 3084 
Q 1678 3084 1418 2786 
Q 1159 2488 1159 1978 
L 1159 0 
L 581 0 
L 581 3500 
L 1159 3500 
L 1159 2956 
Q 1356 3278 1631 3431 
Q 1906 3584 2284 3584 
Q 2666 3584 2933 3390 
Q 3200 3197 3328 2828 
z
" transform="scale(0.015625)"/>
       <path id="DejaVuSans-70" d="M 1159 525 
L 1159 -1331 
L 581 -1331 
L 581 3500 
L 1159 3500 
L 1159 2969 
Q 1341 3281 1617 3432 
Q 1894 3584 2278 3584 
Q 2916 3584 3314 3078 
Q 3713 2572 3713 1747 
Q 3713 922 3314 415 
Q 2916 -91 2278 -91 
Q 1894 -91 1617 61 
Q 1341 213 1159 525 
z
M 3116 1747 
Q 3116 2381 2855 2742 
Q 2594 3103 2138 3103 
Q 1681 3103 1420 2742 
Q 1159 2381 1159 1747 
Q 1159 1113 1420 752 
Q 1681 391 2138 391 
Q 2594 391 2855 752 
Q 3116 1113 3116 1747 
z
" transform="scale(0.015625)"/>
       <path id="DejaVuSans-6c" d="M 603 4863 
L 1178 4863 
L 1178 0 
L 603 0 
L 603 4863 
z
" transform="scale(0.015625)"/>
       <path id="DejaVuSans-69" d="M 603 3500 
L 1178 3500 
L 1178 0 
L 603 0 
L 603 3500 
z
M 603 4863 
L 1178 4863 
L 1178 4134 
L 603 4134 
L 603 4863 
z
" transform="scale(0.015625)"/>
       <path id="DejaVuSans-74" d="M 1172 4494 
L 1172 3500 
L 2356 3500 
L 2356 3053 
L 1172 3053 
L 1172 1153 
Q 1172 725 1289 603 
Q 1406 481 1766 481 
L 2356 481 
L 2356 0 
L 1766 0 
Q 1100 0 847 248 
Q 594 497 594 1153 
L 594 3053 
L 172 3053 
L 172 3500 
L 594 3500 
L 594 4494 
L 1172 4494 
z
" transform="scale(0.015625)"/>
       <path id="DejaVuSans-64" d="M 2906 2969 
L 2906 4863 
L 3481 4863 
L 3481 0 
L 2906 0 
L 2906 525 
Q 2725 213 2448 61 
Q 2172 -91 1784 -91 
Q 1150 -91 751 415 
Q 353 922 353 1747 
Q 353 2572 751 3078 
Q 1150 3584 1784 3584 
Q 2172 3584 2448 3432 
Q 2725 3281 2906 2969 
z
M 947 1747 
Q 947 1113 1208 752 
Q 1469 391 1925 391 
Q 2381 391 2643 752 
Q 2906 1113 2906 1747 
Q 2906 2381 2643 2742 
Q 2381 3103 1925 3103 
Q 1469 3103 1208 2742 
Q 947 2381 947 1747 
z
" transform="scale(0.015625)"/>
       <path id="DejaVuSans-42" d="M 1259 2228 
L 1259 519 
L 2272 519 
Q 2781 519 3026 730 
Q 3272 941 3272 1375 
Q 3272 1813 3026 2020 
Q 2781 2228 2272 2228 
L 1259 2228 
z
M 1259 4147 
L 1259 2741 
L 2194 2741 
Q 2656 2741 2882 2914 
Q 3109 3088 3109 3444 
Q 3109 3797 2882 3972 
Q 2656 4147 2194 4147 
L 1259 4147 
z
M 628 4666 
L 2241 4666 
Q 2963 4666 3353 4366 
Q 3744 4066 3744 3513 
Q 3744 3084 3544 2831 
Q 3344 2578 2956 2516 
Q 3422 2416 3680 2098 
Q 3938 1781 3938 1306 
Q 3938 681 3513 340 
Q 3088 0 2303 0 
L 628 0 
L 628 4666 
z
" transform="scale(0.015625)"/>
      </defs>
      <use xlink:href="#DejaVuSans-41"/>
      <use xlink:href="#DejaVuSans-6d" x="68.408203"/>
      <use xlink:href="#DejaVuSans-70" x="165.820312"/>
      <use xlink:href="#DejaVuSans-6c" x="229.296875"/>
      <use xlink:href="#DejaVuSans-69" x="257.080078"/>
      <use xlink:href="#DejaVuSans-74" x="284.863281"/>
      <use xlink:href="#DejaVuSans-75" x="324.072266"/>
      <use xlink:href="#DejaVuSans-64" x="387.451172"/>
      <use xlink:href="#DejaVuSans-65" x="450.927734"/>
      <use xlink:href="#DejaVuSans-20" x="512.451172"/>
      <use xlink:href="#DejaVuSans-5b" x="544.238281"/>
      <use xlink:href="#DejaVuSans-64" x="583.251953"/>
      <use xlink:href="#DejaVuSans-42" x="646.728516"/>
      <use xlink:href="#DejaVuSans-5d" x="715.332031"/>
     </g>
    </g>
   </g>
   <g id="line2d_15">
    <path d="M 73.832727 314.60191 
L 85.779643 314.491827 
L 97.61057 314.162924 
L 109.209518 313.61939 
L 120.344507 312.877682 
L 131.015539 311.945645 
L 140.990634 310.85528 
L 150.385782 309.607142 
L 159.084993 308.228969 
L 167.088267 306.73768 
L 174.395604 305.152019 
L 181.007004 303.493989 
L 187.038457 301.754766 
L 192.489962 299.952986 
L 197.36152 298.113154 
L 201.76912 296.214598 
L 205.712762 294.278563 
L 209.308436 292.265683 
L 212.556141 290.188085 
L 215.455878 288.064996 
L 218.007647 285.926001 
L 220.327436 283.694554 
L 222.415247 281.378931 
L 224.271079 278.996384 
L 225.894931 276.576745 
L 227.402795 273.947445 
L 228.794668 271.067652 
L 230.070552 267.879943 
L 231.230447 264.288016 
L 232.158363 260.68172 
L 232.970289 256.663881 
L 233.782216 251.243715 
L 234.362163 245.660079 
L 234.826121 239.215668 
L 235.290079 228.898601 
L 235.638047 216.148077 
L 235.986016 183.60515 
L 236.102005 190.841956 
L 236.217995 54.478186 
L 236.333984 190.841956 
L 236.449974 183.60515 
L 236.797942 216.148077 
L 237.2619 232.359209 
L 237.841847 242.770137 
L 238.537784 250.247503 
L 239.233721 255.29414 
L 240.161637 260.173521 
L 241.205542 264.288016 
L 242.249448 267.553568 
L 243.409342 270.5331 
L 244.801216 273.501954 
L 246.309079 276.19834 
L 247.932932 278.672698 
L 249.788764 281.100116 
L 251.876574 283.452985 
L 254.080374 285.610495 
L 256.632143 287.789857 
L 259.41589 289.867179 
L 262.431616 291.843426 
L 265.795311 293.784129 
L 269.506975 295.670908 
L 273.682596 297.540151 
L 278.322175 299.366309 
L 283.425712 301.130845 
L 288.993207 302.820298 
L 295.140649 304.45356 
L 301.984028 306.036898 
L 309.407355 307.523341 
L 317.526618 308.919479 
L 326.341818 310.205956 
L 335.852955 311.364947 
L 345.94404 312.368689 
L 356.615072 313.20614 
L 367.866051 313.86388 
L 379.464999 314.318418 
L 391.295925 314.560784 
L 398.487273 314.601899 
L 398.487273 314.601899 
" clip-path="url(#pfb788b22d3)" style="fill: none; stroke: #00ff00; stroke-width: 1.5; stroke-linecap: square"/>
   </g>
   <g id="line2d_16">
    <path d="M 73.832727 304.650354 
L 76.152517 304.541505 
L 78.588296 304.203127 
L 81.256054 303.600274 
L 84.967717 302.458159 
L 93.318959 299.238824 
L 97.958538 297.391702 
L 102.714107 295.578431 
L 103.758012 295.182159 
L 105.381865 294.592084 
L 106.309781 294.265307 
L 107.005718 294.013421 
L 108.165612 293.620198 
L 108.977539 293.336404 
L 115.008992 291.398146 
L 115.704928 291.200962 
L 116.864823 290.840255 
L 129.739655 287.45816 
L 130.319602 287.325622 
L 137.742929 285.699087 
L 138.206887 285.611545 
L 139.366782 285.35733 
L 139.83074 285.311602 
L 140.178708 285.21282 
L 143.426413 284.566707 
L 143.890371 284.533707 
L 144.12235 284.473396 
L 145.166255 284.190249 
L 145.978182 284.135704 
L 147.370056 283.80057 
L 147.602034 283.852747 
L 147.718024 283.765993 
L 147.950003 283.813336 
L 148.877919 283.505405 
L 149.805835 283.488688 
L 150.153803 283.358325 
L 150.501771 283.2942 
L 150.73375 283.142959 
L 150.84974 283.2391 
L 151.081719 283.176049 
L 151.661666 283.209344 
L 151.777656 283.072913 
L 152.009635 283.100666 
L 152.357603 282.961097 
L 152.473593 282.97548 
L 152.589582 282.854532 
L 152.821561 282.879649 
L 153.05354 282.846162 
L 154.329424 282.670483 
L 154.793382 282.507801 
L 155.025361 282.538617 
L 155.25734 282.512713 
L 155.373329 282.555884 
L 155.489319 282.449088 
L 155.721298 282.560981 
L 155.953277 282.462101 
L 156.185256 282.389657 
L 156.301245 282.282093 
L 156.417235 282.358927 
L 156.765203 282.243726 
L 157.113172 282.166206 
L 157.229161 282.286527 
L 157.46114 282.230178 
L 157.577129 282.266466 
L 157.693119 282.135537 
L 157.809108 282.216587 
L 158.157077 282.070863 
L 158.389056 282.007762 
L 158.505045 281.886136 
L 158.621035 282.008662 
L 158.737024 281.890148 
L 159.084993 281.941416 
L 159.316972 281.868843 
L 159.432961 282.022617 
L 159.548951 281.824567 
L 159.78093 281.93888 
L 160.012909 281.813564 
L 160.360877 281.655702 
L 160.476866 281.75089 
L 160.940824 281.606764 
L 161.288793 281.692401 
L 161.520772 281.556155 
L 161.636761 281.652826 
L 161.752751 281.514827 
L 161.98473 281.578951 
L 162.564677 281.335174 
L 162.680666 281.423637 
L 163.028635 281.313436 
L 163.956551 281.273259 
L 164.07254 281.198187 
L 164.18853 281.282087 
L 164.884467 280.971925 
L 165.000456 281.079749 
L 165.232435 281.019043 
L 165.348424 281.136083 
L 165.464414 281.008267 
L 165.696393 281.095303 
L 166.160351 280.948239 
L 166.27634 280.787201 
L 166.39233 280.899188 
L 166.624309 280.765224 
L 166.972277 280.747808 
L 167.088267 280.692403 
L 167.204256 280.908094 
L 167.320246 280.748395 
L 167.552224 280.959218 
L 167.668214 280.745513 
L 168.016182 280.746909 
L 168.132172 280.564532 
L 168.248161 280.686056 
L 168.712119 280.444857 
L 169.060088 280.596949 
L 170.219982 280.354591 
L 170.335972 280.214561 
L 170.451961 280.380251 
L 170.68394 280.212 
L 170.915919 280.224511 
L 171.147898 280.240181 
L 171.263888 280.402559 
L 171.495867 280.272181 
L 171.611856 280.358022 
L 171.843835 280.150274 
L 172.075814 280.233446 
L 172.191804 280.027834 
L 172.307793 280.127226 
L 172.655761 279.947802 
L 172.88774 280.009472 
L 173.00373 279.941511 
L 173.119719 280.09936 
L 173.235709 279.96885 
L 173.699667 280.056125 
L 173.931646 280.005061 
L 174.047635 279.759764 
L 174.163625 279.92909 
L 174.395604 279.721431 
L 174.511593 279.858158 
L 174.627583 279.657657 
L 174.743572 279.715007 
L 174.859562 279.643841 
L 174.975551 279.830027 
L 175.09154 279.731921 
L 175.20753 279.792842 
L 175.323519 279.990538 
L 175.439509 279.724223 
L 175.787477 279.817947 
L 175.903467 279.5837 
L 176.135446 279.745916 
L 176.251435 279.325832 
L 176.367425 279.608347 
L 176.599404 279.459388 
L 176.947372 279.596592 
L 177.063362 279.38327 
L 177.179351 279.635027 
L 177.295341 279.487007 
L 177.527319 279.613051 
L 177.875288 279.361519 
L 177.991277 279.483394 
L 178.107267 279.232483 
L 178.223256 279.430935 
L 178.339246 279.390689 
L 178.455235 279.174794 
L 178.571225 279.367869 
L 178.803204 279.180727 
L 179.151172 279.267886 
L 179.267162 279.223243 
L 179.383151 279.415661 
L 179.61513 279.201968 
L 179.847109 279.369625 
L 179.963099 279.141656 
L 180.195077 279.213451 
L 180.311067 278.894149 
L 180.543046 279.083957 
L 180.775025 278.929988 
L 180.891014 279.020091 
L 181.122993 278.904033 
L 181.354972 279.143158 
L 181.702941 279.185907 
L 181.81893 278.915243 
L 182.050909 278.999028 
L 182.166899 278.7983 
L 182.282888 278.955358 
L 182.514867 278.609682 
L 182.630856 278.605415 
L 182.746846 278.72836 
L 182.862835 278.615375 
L 183.094814 279.006101 
L 183.210804 278.714383 
L 183.442783 278.885613 
L 183.558772 278.988652 
L 183.674762 278.812025 
L 183.906741 279.0211 
L 184.02273 278.379334 
L 184.13872 278.629833 
L 184.486688 278.443962 
L 184.718667 278.512744 
L 184.834657 278.276875 
L 184.950646 278.689545 
L 185.066635 278.499898 
L 185.298614 278.824735 
L 185.414604 278.706857 
L 185.530593 278.776429 
L 185.646583 278.449473 
L 185.762572 278.654437 
L 185.878562 278.335013 
L 186.110541 278.491192 
L 186.22653 278.125616 
L 186.34252 278.337703 
L 186.574499 278.126193 
L 186.690488 278.195804 
L 186.806478 278.452464 
L 187.038457 278.298292 
L 187.154446 278.622545 
L 187.270436 278.235511 
L 187.618404 278.499246 
L 187.850383 278.234333 
L 187.966372 278.34867 
L 188.082362 277.79918 
L 188.314341 278.186946 
L 188.54632 277.962525 
L 188.662309 278.117682 
L 188.894288 277.866049 
L 189.010278 278.202719 
L 189.358246 278.196824 
L 189.474236 278.237774 
L 189.706215 277.964774 
L 189.822204 278.173541 
L 189.938194 277.893662 
L 190.054183 278.006942 
L 190.402151 277.607259 
L 190.518141 277.77561 
L 190.63413 277.646626 
L 190.75012 277.719082 
L 190.866109 278.170109 
L 190.982099 277.617317 
L 191.214078 278.002798 
L 191.330067 277.872068 
L 191.678036 278.195138 
L 191.794025 277.492916 
L 192.026004 277.711682 
L 192.141994 277.35406 
L 192.373973 277.611599 
L 192.489962 277.600423 
L 192.605951 277.078923 
L 192.721941 277.704748 
L 192.95392 277.419663 
L 193.069909 278.03146 
L 193.185899 277.663976 
L 193.301888 277.864268 
L 193.417878 277.507485 
L 193.533867 277.69692 
L 193.765846 277.439739 
L 193.881836 277.75225 
L 193.997825 277.189937 
L 194.113815 277.423997 
L 194.345794 277.082824 
L 194.693762 277.421921 
L 194.809752 277.101849 
L 194.925741 277.695792 
L 195.04173 277.10056 
L 195.15772 277.215587 
L 195.273709 277.653991 
L 195.505688 277.450799 
L 195.621678 277.279083 
L 195.737667 277.527966 
L 195.853657 276.851348 
L 195.969646 276.983115 
L 196.085636 277.44445 
L 196.201625 276.945836 
L 196.317615 276.952906 
L 196.433604 277.125145 
L 196.665583 276.540711 
L 196.897562 277.131633 
L 197.013552 276.970492 
L 197.129541 277.30217 
L 197.36152 277.048048 
L 197.47751 277.026074 
L 197.709488 277.227433 
L 198.057457 276.77969 
L 198.173446 276.482723 
L 198.289436 276.666888 
L 198.521415 276.42118 
L 198.637404 277.002626 
L 198.753394 276.40271 
L 198.869383 276.39841 
L 198.985373 276.927783 
L 199.101362 276.705084 
L 199.217352 276.864873 
L 199.449331 277.397901 
L 199.56532 276.603939 
L 199.68131 276.93043 
L 199.797299 276.833278 
L 199.913289 276.381717 
L 200.145267 276.499447 
L 200.261257 276.502576 
L 200.377246 275.553048 
L 200.493236 276.286456 
L 200.609225 276.22299 
L 200.725215 275.820233 
L 200.841204 276.920993 
L 200.957194 276.653853 
L 201.073183 276.763057 
L 201.189173 276.55313 
L 201.305162 276.918301 
L 201.537141 276.585392 
L 201.653131 277.057726 
L 201.76912 276.176884 
L 201.88511 276.410162 
L 202.001099 275.721767 
L 202.349068 275.810778 
L 202.465057 276.215526 
L 202.581046 275.558621 
L 202.697036 276.564029 
L 202.813025 275.835596 
L 202.929015 275.95741 
L 203.045004 276.912951 
L 203.160994 276.492149 
L 203.276983 276.649541 
L 203.392973 276.385216 
L 203.508962 276.646136 
L 203.624952 275.520547 
L 203.740941 275.707733 
L 203.856931 276.231726 
L 203.97292 275.506205 
L 204.320889 275.672255 
L 204.436878 274.780451 
L 204.668857 276.27171 
L 204.784847 275.474908 
L 204.900836 276.496642 
L 205.132815 275.779481 
L 205.248804 275.810053 
L 205.364794 276.092243 
L 205.712762 275.814274 
L 205.944741 275.180051 
L 206.060731 274.932478 
L 206.17672 275.30132 
L 206.29271 275.167277 
L 206.408699 275.48697 
L 206.524689 275.39677 
L 206.640678 274.773357 
L 206.756668 275.596968 
L 206.988647 275.325299 
L 207.220626 276.276557 
L 207.336615 275.044034 
L 207.568594 275.725624 
L 207.684583 274.584445 
L 207.800573 275.322171 
L 207.916562 275.343715 
L 208.032552 275.027082 
L 208.148541 274.140409 
L 208.38052 274.908769 
L 208.49651 273.913615 
L 208.612499 275.405549 
L 208.728489 275.439126 
L 208.960468 274.878193 
L 209.076457 275.433688 
L 209.308436 274.822781 
L 209.424426 276.170815 
L 209.540415 274.835471 
L 209.656405 274.993199 
L 209.888384 273.975365 
L 210.004373 274.292325 
L 210.120362 273.879826 
L 210.236352 274.875323 
L 210.352341 273.777657 
L 210.468331 274.57515 
L 210.70031 273.632345 
L 210.816299 275.367859 
L 210.932289 274.76456 
L 211.048278 275.030534 
L 211.164268 274.979412 
L 211.280257 275.266039 
L 211.396247 273.707314 
L 211.512236 273.985324 
L 211.628226 275.164042 
L 211.744215 273.566252 
L 211.860205 274.230917 
L 212.092184 273.669066 
L 212.208173 272.660688 
L 212.324163 273.324492 
L 212.440152 274.854422 
L 212.556141 273.035759 
L 212.78812 274.68005 
L 212.90411 273.285986 
L 213.020099 273.594867 
L 213.136089 274.602429 
L 213.368068 273.994921 
L 213.484057 274.800363 
L 213.716036 273.227352 
L 213.948015 273.024327 
L 214.064005 273.492635 
L 214.179994 273.100971 
L 214.295984 273.111846 
L 214.411973 272.459189 
L 214.527963 272.488318 
L 214.643952 272.933636 
L 214.759942 272.85258 
L 214.99192 274.669069 
L 215.10791 272.921429 
L 215.223899 273.355106 
L 215.339889 274.376495 
L 215.455878 272.410336 
L 215.687857 274.177888 
L 215.919836 271.542857 
L 216.035826 272.100714 
L 216.151815 271.832272 
L 216.267805 270.500091 
L 216.499784 272.600193 
L 216.731763 271.624457 
L 216.847752 273.078261 
L 216.963742 272.815106 
L 217.079731 272.088174 
L 217.195721 275.673724 
L 217.31171 273.146288 
L 217.4277 273.154073 
L 217.891657 270.303054 
L 218.007647 272.117106 
L 218.123636 269.977648 
L 218.239626 270.788572 
L 218.471605 269.574566 
L 218.587594 272.055475 
L 218.703584 271.824689 
L 218.819573 273.321644 
L 218.935563 272.34776 
L 219.051552 274.291875 
L 219.283531 270.863105 
L 219.399521 273.79684 
L 219.51551 269.793497 
L 219.6315 271.440837 
L 219.979468 267.975096 
L 220.095457 268.336658 
L 220.211447 271.257496 
L 220.327436 268.620151 
L 220.559415 271.608321 
L 220.791394 269.749278 
L 221.023373 273.082522 
L 221.139363 269.614115 
L 221.255352 273.756076 
L 221.487331 268.123507 
L 221.603321 268.72793 
L 221.71931 267.459184 
L 221.8353 269.10411 
L 221.951289 268.329199 
L 222.067279 268.813825 
L 222.183268 267.624013 
L 222.531236 268.814105 
L 222.763215 271.251711 
L 222.879205 270.342373 
L 222.995194 268.13448 
L 223.111184 270.5788 
L 223.343163 266.978854 
L 223.459152 271.057074 
L 223.691131 265.720203 
L 223.807121 266.782065 
L 223.92311 266.513053 
L 224.0391 264.231923 
L 224.271079 269.227756 
L 224.503058 266.264575 
L 224.619047 267.92393 
L 224.735037 267.704521 
L 224.851026 265.316252 
L 224.967015 271.616934 
L 225.430973 265.012854 
L 225.546963 264.648916 
L 225.662952 263.613323 
L 225.778942 266.65116 
L 225.894931 264.048706 
L 226.010921 264.279942 
L 226.12691 263.436987 
L 226.2429 261.48009 
L 226.358889 264.791048 
L 226.474879 264.616223 
L 226.590868 268.009306 
L 226.706858 265.513461 
L 226.822847 268.396495 
L 227.054826 261.245507 
L 227.170816 270.158688 
L 227.286805 262.953074 
L 227.518784 264.609636 
L 227.750763 257.815546 
L 227.866752 258.435369 
L 227.982742 263.866151 
L 228.098731 258.306071 
L 228.33071 263.78405 
L 228.562689 258.77752 
L 228.678679 261.945102 
L 228.794668 271.928648 
L 228.910658 258.935896 
L 229.026647 269.456748 
L 229.142637 265.737023 
L 229.258626 256.454206 
L 229.374616 258.262699 
L 229.490605 256.856095 
L 229.606595 258.347148 
L 229.722584 257.704751 
L 229.838574 259.442413 
L 229.954563 254.876357 
L 230.070552 255.418363 
L 230.302531 254.400528 
L 230.418521 262.023444 
L 230.6505 259.591887 
L 230.766489 257.067158 
L 230.882479 260.136812 
L 231.114458 251.435681 
L 231.230447 262.496236 
L 231.346437 262.28112 
L 231.462426 249.832257 
L 231.694405 253.39424 
L 231.810395 243.176666 
L 231.926384 247.101724 
L 232.042374 258.69004 
L 232.158363 246.356768 
L 232.274353 245.909329 
L 232.390342 251.951408 
L 232.506331 248.942019 
L 232.622321 242.498496 
L 232.8543 289.986047 
L 232.970289 251.718745 
L 233.086279 251.229189 
L 233.202268 256.259664 
L 233.434247 234.905933 
L 233.550237 242.753666 
L 233.666226 239.208622 
L 233.782216 239.306838 
L 234.014195 227.409872 
L 234.130184 236.47979 
L 234.246174 229.101257 
L 234.478153 251.558264 
L 234.594142 224.636833 
L 234.710132 245.472154 
L 234.94211 223.136634 
L 235.0581 228.660356 
L 235.290079 211.418272 
L 235.406068 230.602544 
L 235.522058 202.08957 
L 235.638047 200.913761 
L 235.754037 213.811841 
L 235.870026 191.23886 
L 235.986016 241.958778 
L 236.102005 225.170169 
L 236.217995 179.856788 
L 236.449974 241.958778 
L 236.565963 191.23886 
L 236.681953 213.811841 
L 236.797942 200.913761 
L 236.913932 202.08957 
L 237.029921 230.602544 
L 237.145911 211.418272 
L 237.37789 228.660356 
L 237.493879 223.136634 
L 237.609868 230.535607 
L 237.725858 245.472154 
L 237.841847 224.636833 
L 237.957837 251.558264 
L 238.189816 229.101257 
L 238.305805 236.47979 
L 238.421795 227.409872 
L 238.653774 239.306838 
L 238.769763 239.208622 
L 238.885753 242.753666 
L 239.001742 234.905933 
L 239.233721 256.259664 
L 239.349711 251.229189 
L 239.4657 251.718745 
L 239.58169 289.986047 
L 239.813669 242.498496 
L 240.045647 251.951408 
L 240.161637 245.909329 
L 240.277626 246.356768 
L 240.393616 258.69004 
L 240.625595 243.176666 
L 240.741584 253.39424 
L 240.857574 252.504118 
L 240.973563 249.832257 
L 241.089553 262.28112 
L 241.205542 262.496236 
L 241.321532 251.435681 
L 241.553511 260.136812 
L 241.6695 257.067158 
L 241.901479 260.946753 
L 242.017469 262.023444 
L 242.133458 254.400528 
L 242.249448 254.682775 
L 242.365437 255.418363 
L 242.481426 254.876357 
L 242.597416 259.442413 
L 242.713405 257.704751 
L 242.829395 258.347148 
L 242.945384 256.856095 
L 243.061374 258.262699 
L 243.177363 256.454206 
L 243.409342 269.456748 
L 243.525332 258.935896 
L 243.641321 271.928648 
L 243.8733 258.77752 
L 243.98929 259.611717 
L 244.105279 263.78405 
L 244.221269 263.118198 
L 244.337258 258.306071 
L 244.453248 263.866151 
L 244.685227 257.815546 
L 244.917205 264.609636 
L 245.149184 262.953074 
L 245.265174 270.158688 
L 245.381163 261.245507 
L 245.613142 268.396495 
L 245.729132 265.513461 
L 245.845121 268.009306 
L 245.961111 264.616223 
L 246.0771 264.791048 
L 246.19309 261.48009 
L 246.425069 264.279942 
L 246.541058 264.048706 
L 246.657048 266.65116 
L 246.773037 263.613323 
L 247.352985 269.677602 
L 247.468974 271.616934 
L 247.584963 265.316252 
L 247.816942 267.92393 
L 247.932932 266.264575 
L 248.048921 266.460625 
L 248.164911 269.227756 
L 248.39689 264.231923 
L 248.628869 266.782065 
L 248.744858 265.720203 
L 248.976837 271.057074 
L 249.092827 266.978854 
L 249.208816 267.775351 
L 249.324806 270.5788 
L 249.440795 268.13448 
L 249.672774 271.251711 
L 249.788764 270.907874 
L 250.020742 268.568016 
L 250.252721 267.624013 
L 250.368711 268.813825 
L 250.4847 268.329199 
L 250.60069 269.10411 
L 250.716679 267.459184 
L 250.832669 268.72793 
L 250.948658 268.123507 
L 251.064648 269.532659 
L 251.180637 273.756076 
L 251.296627 269.614115 
L 251.412616 273.082522 
L 251.528606 272.216976 
L 251.644595 269.749278 
L 251.760585 270.302303 
L 251.876574 271.608321 
L 251.992564 271.23057 
L 252.108553 268.620151 
L 252.224543 271.257496 
L 252.456521 267.975096 
L 252.80449 271.440837 
L 252.920479 269.793497 
L 253.036469 273.79684 
L 253.152458 270.863105 
L 253.268448 271.13712 
L 253.384437 274.291875 
L 253.500427 272.34776 
L 253.616416 273.321644 
L 253.732406 271.824689 
L 253.848395 272.055475 
L 253.964385 269.574566 
L 254.196364 270.788572 
L 254.312353 269.977648 
L 254.428343 272.117106 
L 254.544332 270.303054 
L 254.660322 271.317226 
L 254.776311 271.28115 
L 255.00829 273.154073 
L 255.124279 273.146288 
L 255.240269 275.673724 
L 255.356258 272.088174 
L 255.588237 273.078261 
L 255.704227 271.624457 
L 255.936206 272.600193 
L 256.052195 272.448235 
L 256.168185 270.500091 
L 256.400164 272.100714 
L 256.516153 271.542857 
L 256.748132 274.177888 
L 256.980111 272.410336 
L 257.096101 274.376495 
L 257.32808 272.921429 
L 257.444069 274.669069 
L 257.676048 272.85258 
L 257.792037 272.933636 
L 258.024016 272.459189 
L 258.140006 273.111846 
L 258.255995 273.100971 
L 258.371985 273.492635 
L 258.487974 273.024327 
L 258.603964 273.055549 
L 258.835943 273.415158 
L 258.951932 274.800363 
L 259.067922 273.994921 
L 259.299901 274.602429 
L 259.53188 273.285986 
L 259.647869 274.68005 
L 259.763859 274.401772 
L 259.879848 273.035759 
L 259.995837 274.854422 
L 260.227816 272.660688 
L 260.459795 273.904406 
L 260.575785 274.230917 
L 260.691774 273.566252 
L 260.807764 275.164042 
L 261.039743 273.707314 
L 261.155732 275.266039 
L 261.271722 274.979412 
L 261.387711 275.030534 
L 261.503701 274.76456 
L 261.61969 275.367859 
L 261.73568 273.632345 
L 261.967659 274.57515 
L 262.083648 273.777657 
L 262.199638 274.875323 
L 262.315627 273.879826 
L 262.431616 274.292325 
L 262.547606 273.975365 
L 262.779585 274.993199 
L 262.895574 274.835471 
L 263.011564 276.170815 
L 263.127553 274.822781 
L 263.359532 275.433688 
L 263.475522 274.878193 
L 263.591511 274.96342 
L 263.707501 275.439126 
L 263.82349 275.405549 
L 263.93948 273.913615 
L 264.055469 274.908769 
L 264.287448 274.140409 
L 264.519427 275.343715 
L 264.635417 275.322171 
L 264.751406 274.584445 
L 264.867395 275.725624 
L 265.099374 275.044034 
L 265.215364 276.276557 
L 265.331353 276.152816 
L 265.447343 275.325299 
L 265.679322 275.596968 
L 265.795311 274.773357 
L 266.02729 275.48697 
L 266.14328 275.167277 
L 266.259269 275.30132 
L 266.375259 274.932478 
L 266.955206 276.014615 
L 267.071196 276.092243 
L 267.303175 275.779481 
L 267.535153 276.496642 
L 267.651143 275.474908 
L 267.767132 276.27171 
L 267.883122 275.817914 
L 267.999111 274.780451 
L 268.115101 275.672255 
L 268.463069 275.506205 
L 268.579059 276.231726 
L 268.811038 275.520547 
L 268.927027 276.646136 
L 269.043017 276.385216 
L 269.159006 276.649541 
L 269.274996 276.492149 
L 269.390985 276.912951 
L 269.622964 275.835596 
L 269.738954 276.564029 
L 269.854943 275.558621 
L 269.970932 276.215526 
L 270.202911 275.707083 
L 270.43489 275.721767 
L 270.55088 276.410162 
L 270.666869 276.176884 
L 270.782859 277.057726 
L 270.898848 276.585392 
L 271.014838 276.658918 
L 271.130827 276.918301 
L 271.246817 276.55313 
L 271.362806 276.763057 
L 271.478796 276.653853 
L 271.594785 276.920993 
L 271.710775 275.820233 
L 271.942754 276.286456 
L 272.058743 275.553048 
L 272.174733 276.502576 
L 272.406711 276.494509 
L 272.522701 276.381717 
L 272.75468 276.93043 
L 272.870669 276.603939 
L 272.986659 277.397901 
L 273.102648 277.292825 
L 273.334627 276.705084 
L 273.450617 276.927783 
L 273.566606 276.39841 
L 273.682596 276.40271 
L 273.798585 277.002626 
L 273.914575 276.42118 
L 274.146554 276.666888 
L 274.262543 276.482723 
L 274.610512 277.116176 
L 274.84249 277.222855 
L 275.074469 277.048048 
L 275.306448 277.30217 
L 275.422438 276.970492 
L 275.654417 277.115005 
L 275.770406 276.540711 
L 276.002385 277.125145 
L 276.234364 276.945836 
L 276.350354 277.44445 
L 276.582333 276.851348 
L 276.698322 277.527966 
L 276.814312 277.279083 
L 277.16228 277.653991 
L 277.394259 277.10056 
L 277.510248 277.695792 
L 277.626238 277.101849 
L 277.742227 277.421921 
L 277.858217 277.360371 
L 278.090196 277.082824 
L 278.206185 277.106876 
L 278.322175 277.423997 
L 278.438164 277.189937 
L 278.554154 277.75225 
L 278.670143 277.439739 
L 278.902122 277.69692 
L 279.018112 277.507485 
L 279.134101 277.864268 
L 279.250091 277.663976 
L 279.36608 278.03146 
L 279.48207 277.419663 
L 279.714049 277.704748 
L 279.830038 277.078923 
L 280.062017 277.611599 
L 280.293996 277.35406 
L 280.409985 277.711682 
L 280.525975 277.667419 
L 280.641964 277.492916 
L 280.757954 278.195138 
L 280.989933 277.99106 
L 281.105922 277.872068 
L 281.221912 278.002798 
L 281.453891 277.617317 
L 281.56988 278.170109 
L 281.801859 277.646626 
L 281.917849 277.77561 
L 282.033838 277.607259 
L 282.149828 277.638056 
L 282.381806 278.006942 
L 282.497796 277.893662 
L 282.613785 278.173541 
L 282.729775 277.964774 
L 283.193733 278.242448 
L 283.425712 278.202719 
L 283.541701 277.866049 
L 283.77368 278.117682 
L 284.005659 277.959484 
L 284.121649 278.186946 
L 284.353628 277.79918 
L 284.469617 278.34867 
L 284.701596 278.245068 
L 284.817586 278.499246 
L 284.933575 278.485025 
L 285.165554 278.235511 
L 285.281543 278.622545 
L 285.397533 278.298292 
L 285.629512 278.452464 
L 285.861491 278.126193 
L 285.97748 278.114678 
L 286.09347 278.337703 
L 286.209459 278.125616 
L 286.325449 278.491192 
L 286.557428 278.335013 
L 286.673417 278.654437 
L 286.789407 278.449473 
L 286.905396 278.776429 
L 287.021386 278.706857 
L 287.137375 278.824735 
L 287.369354 278.499898 
L 287.485343 278.689545 
L 287.601333 278.276875 
L 287.833312 278.539627 
L 288.065291 278.339976 
L 288.29727 278.629833 
L 288.413259 278.379334 
L 288.529249 279.0211 
L 288.761228 278.812025 
L 288.877217 278.988652 
L 289.225186 278.714383 
L 289.341175 279.006101 
L 289.573154 278.615375 
L 289.689144 278.72836 
L 289.921122 278.609682 
L 290.50107 279.036835 
L 290.617059 278.915243 
L 290.733049 279.185907 
L 290.965028 279.128219 
L 291.197007 279.069068 
L 291.428986 278.926406 
L 291.544975 279.020091 
L 291.776954 278.966 
L 291.892944 279.083957 
L 292.124923 278.894149 
L 292.356901 279.220987 
L 292.472891 279.141656 
L 292.70487 279.353328 
L 292.936849 279.195564 
L 293.052838 279.415661 
L 293.168828 279.223243 
L 293.400807 279.377352 
L 293.632786 279.180727 
L 293.748775 279.178037 
L 293.864765 279.367869 
L 293.980754 279.174794 
L 294.212733 279.430935 
L 294.328723 279.232483 
L 294.444712 279.483394 
L 294.560702 279.361519 
L 294.792681 279.543461 
L 295.024659 279.557254 
L 295.140649 279.487007 
L 295.256638 279.635027 
L 295.372628 279.38327 
L 295.488617 279.596592 
L 295.952575 279.447152 
L 296.068565 279.608347 
L 296.184554 279.325832 
L 296.300544 279.745916 
L 296.416533 279.725622 
L 296.532523 279.5837 
L 296.648512 279.817947 
L 296.996481 279.724223 
L 297.11247 279.990538 
L 297.344449 279.731921 
L 297.460438 279.830027 
L 297.576428 279.643841 
L 297.924396 279.858158 
L 298.040386 279.721431 
L 298.968302 280.086824 
L 299.200281 279.96885 
L 299.31627 280.09936 
L 299.43226 279.941511 
L 299.664239 280.028346 
L 299.896217 279.915587 
L 300.128196 280.127226 
L 300.244186 280.027834 
L 300.476165 280.266734 
L 300.592154 280.150274 
L 300.940123 280.272181 
L 301.056112 280.27052 
L 301.172102 280.402559 
L 301.404081 280.209237 
L 302.447986 280.419988 
L 302.795954 280.554914 
L 302.911944 280.496068 
L 303.027933 280.636051 
L 303.143923 280.457371 
L 303.375902 280.596949 
L 303.491891 280.479696 
L 303.607881 280.528247 
L 303.72387 280.444857 
L 303.83986 280.545236 
L 303.955849 280.415894 
L 304.187828 280.686056 
L 304.303818 280.564532 
L 304.535797 280.74689 
L 304.767776 280.745513 
L 304.883765 280.959218 
L 305.115744 280.748395 
L 305.231733 280.908094 
L 305.347723 280.692403 
L 305.695691 280.7973 
L 305.92767 280.744665 
L 306.04366 280.899188 
L 306.159649 280.787201 
L 306.391628 281.015804 
L 306.855586 281.091464 
L 306.971576 281.008267 
L 307.087565 281.136083 
L 307.319544 281.029803 
L 307.435533 281.079749 
L 307.667512 280.99307 
L 308.711418 281.31949 
L 308.827407 281.30238 
L 308.943397 281.423912 
L 309.175376 281.257507 
L 309.407355 281.313436 
L 309.639334 281.344083 
L 309.755323 281.423637 
L 309.871312 281.335174 
L 310.45126 281.578951 
L 311.147197 281.692401 
L 311.263186 281.581181 
L 311.611155 281.651122 
L 311.727144 281.590681 
L 311.959123 281.75089 
L 312.075113 281.655702 
L 312.191102 281.796003 
L 312.53907 281.794484 
L 312.771049 281.936543 
L 312.887039 281.824567 
L 313.003028 282.022617 
L 313.235007 281.896961 
L 313.582976 281.931693 
L 313.698965 281.890148 
L 313.814955 282.008662 
L 313.930944 281.886136 
L 314.162923 282.057467 
L 314.742871 282.135537 
L 314.974849 282.230178 
L 315.090839 282.199214 
L 315.206828 282.286527 
L 315.438807 282.197579 
L 315.902765 282.284442 
L 316.018755 282.358927 
L 316.134744 282.282093 
L 316.482713 282.462101 
L 317.990576 282.604309 
L 318.338544 282.756122 
L 318.570523 282.800857 
L 320.310365 283.033096 
L 320.542344 283.146485 
L 320.658334 283.072913 
L 320.774323 283.209344 
L 321.006302 283.129215 
L 321.238281 283.184892 
L 321.818229 283.221879 
L 322.166197 283.367578 
L 322.514165 283.404313 
L 322.746144 283.512846 
L 322.862134 283.466723 
L 322.978123 283.551865 
L 323.210102 283.48614 
L 323.67406 283.537922 
L 323.79005 283.615004 
L 323.906039 283.5497 
L 324.254008 283.720085 
L 324.601976 283.833818 
L 324.717966 283.765993 
L 324.949944 283.835363 
L 325.181923 283.852016 
L 326.225829 284.064728 
L 326.921766 284.169439 
L 327.965671 284.329699 
L 328.313639 284.473396 
L 328.429629 284.437327 
L 328.661608 284.50742 
L 329.009576 284.566707 
L 340.028576 286.841317 
L 340.724513 287.038636 
L 341.304461 287.090221 
L 341.768419 287.210763 
L 342.580345 287.453764 
L 343.276282 287.550333 
L 344.204198 287.83701 
L 344.668156 287.926728 
L 347.799871 288.698697 
L 348.843777 288.983913 
L 351.395545 289.634474 
L 352.323461 289.94878 
L 353.251377 290.158003 
L 354.411272 290.537021 
L 355.339187 290.753025 
L 356.035124 291.015348 
L 356.383093 291.114174 
L 357.542987 291.423142 
L 358.702882 291.806336 
L 359.514809 292.044749 
L 361.138661 292.571128 
L 361.834598 292.809991 
L 362.762514 293.109257 
L 363.458451 293.336404 
L 366.822146 294.510903 
L 367.634072 294.797652 
L 370.533809 295.875709 
L 371.461725 296.214974 
L 372.621619 296.671896 
L 375.057398 297.607949 
L 377.957135 298.781243 
L 386.192388 302.003806 
L 389.788062 303.207098 
L 392.571809 303.941489 
L 395.239567 304.423459 
L 397.675346 304.632857 
L 398.487273 304.65008 
L 398.487273 304.65008 
" clip-path="url(#pfb788b22d3)" style="fill: none; stroke: #008000; stroke-width: 1.5; stroke-linecap: square"/>
   </g>
   <g id="patch_3">
    <path d="M 57.6 307.584 
L 57.6 41.472 
" style="fill: none; stroke: #000000; stroke-width: 0.8; stroke-linejoin: miter; stroke-linecap: square"/>
   </g>
   <g id="patch_4">
    <path d="M 414.72 307.584 
L 414.72 41.472 
" style="fill: none; stroke: #000000; stroke-width: 0.8; stroke-linejoin: miter; stroke-linecap: square"/>
   </g>
   <g id="patch_5">
    <path d="M 57.6 307.584 
L 414.72 307.584 
" style="fill: none; stroke: #000000; stroke-width: 0.8; stroke-linejoin: miter; stroke-linecap: square"/>
   </g>
   <g id="patch_6">
    <path d="M 57.6 41.472 
L 414.72 41.472 
" style="fill: none; stroke: #000000; stroke-width: 0.8; stroke-linejoin: miter; stroke-linecap: square"/>
   </g>
   <g id="legend_1">
    <g id="patch_7">
     <path d="M 343.42 78.82825 
L 407.72 78.82825 
Q 409.72 78.82825 409.72 76.82825 
L 409.72 48.472 
Q 409.72 46.472 407.72 46.472 
L 343.42 46.472 
Q 341.42 46.472 341.42 48.472 
L 341.42 76.82825 
Q 341.42 78.82825 343.42 78.82825 
z
" style="fill: #ffffff; opacity: 0.8; stroke: #cccccc; stroke-linejoin: miter"/>
    </g>
    <g id="line2d_17">
     <path d="M 345.42 54.570437 
L 355.42 54.570437 
L 365.42 54.570437 
" style="fill: none; stroke: #00ff00; stroke-width: 1.5; stroke-linecap: square"/>
    </g>
    <g id="text_17">
     <!-- tonic -->
     <g transform="translate(373.42 58.070437) scale(0.1 -0.1)">
      <defs>
       <path id="DejaVuSans-6f" d="M 1959 3097 
Q 1497 3097 1228 2736 
Q 959 2375 959 1747 
Q 959 1119 1226 758 
Q 1494 397 1959 397 
Q 2419 397 2687 759 
Q 2956 1122 2956 1747 
Q 2956 2369 2687 2733 
Q 2419 3097 1959 3097 
z
M 1959 3584 
Q 2709 3584 3137 3096 
Q 3566 2609 3566 1747 
Q 3566 888 3137 398 
Q 2709 -91 1959 -91 
Q 1206 -91 779 398 
Q 353 888 353 1747 
Q 353 2609 779 3096 
Q 1206 3584 1959 3584 
z
" transform="scale(0.015625)"/>
      </defs>
      <use xlink:href="#DejaVuSans-74"/>
      <use xlink:href="#DejaVuSans-6f" x="39.208984"/>
      <use xlink:href="#DejaVuSans-6e" x="100.390625"/>
      <use xlink:href="#DejaVuSans-69" x="163.769531"/>
      <use xlink:href="#DejaVuSans-63" x="191.552734"/>
     </g>
    </g>
    <g id="line2d_18">
     <path d="M 345.42 69.248562 
L 355.42 69.248562 
L 365.42 69.248562 
" style="fill: none; stroke: #008000; stroke-width: 1.5; stroke-linecap: square"/>
    </g>
    <g id="text_18">
     <!-- phasic -->
     <g transform="translate(373.42 72.748562) scale(0.1 -0.1)">
      <defs>
       <path id="DejaVuSans-68" d="M 3513 2113 
L 3513 0 
L 2938 0 
L 2938 2094 
Q 2938 2591 2744 2837 
Q 2550 3084 2163 3084 
Q 1697 3084 1428 2787 
Q 1159 2491 1159 1978 
L 1159 0 
L 581 0 
L 581 4863 
L 1159 4863 
L 1159 2956 
Q 1366 3272 1645 3428 
Q 1925 3584 2291 3584 
Q 2894 3584 3203 3211 
Q 3513 2838 3513 2113 
z
" transform="scale(0.015625)"/>
       <path id="DejaVuSans-61" d="M 2194 1759 
Q 1497 1759 1228 1600 
Q 959 1441 959 1056 
Q 959 750 1161 570 
Q 1363 391 1709 391 
Q 2188 391 2477 730 
Q 2766 1069 2766 1631 
L 2766 1759 
L 2194 1759 
z
M 3341 1997 
L 3341 0 
L 2766 0 
L 2766 531 
Q 2569 213 2275 61 
Q 1981 -91 1556 -91 
Q 1019 -91 701 211 
Q 384 513 384 1019 
Q 384 1609 779 1909 
Q 1175 2209 1959 2209 
L 2766 2209 
L 2766 2266 
Q 2766 2663 2505 2880 
Q 2244 3097 1772 3097 
Q 1472 3097 1187 3025 
Q 903 2953 641 2809 
L 641 3341 
Q 956 3463 1253 3523 
Q 1550 3584 1831 3584 
Q 2591 3584 2966 3190 
Q 3341 2797 3341 1997 
z
" transform="scale(0.015625)"/>
       <path id="DejaVuSans-73" d="M 2834 3397 
L 2834 2853 
Q 2591 2978 2328 3040 
Q 2066 3103 1784 3103 
Q 1356 3103 1142 2972 
Q 928 2841 928 2578 
Q 928 2378 1081 2264 
Q 1234 2150 1697 2047 
L 1894 2003 
Q 2506 1872 2764 1633 
Q 3022 1394 3022 966 
Q 3022 478 2636 193 
Q 2250 -91 1575 -91 
Q 1294 -91 989 -36 
Q 684 19 347 128 
L 347 722 
Q 666 556 975 473 
Q 1284 391 1588 391 
Q 1994 391 2212 530 
Q 2431 669 2431 922 
Q 2431 1156 2273 1281 
Q 2116 1406 1581 1522 
L 1381 1569 
Q 847 1681 609 1914 
Q 372 2147 372 2553 
Q 372 3047 722 3315 
Q 1072 3584 1716 3584 
Q 2034 3584 2315 3537 
Q 2597 3491 2834 3397 
z
" transform="scale(0.015625)"/>
      </defs>
      <use xlink:href="#DejaVuSans-70"/>
      <use xlink:href="#DejaVuSans-68" x="63.476562"/>
      <use xlink:href="#DejaVuSans-61" x="126.855469"/>
      <use xlink:href="#DejaVuSans-73" x="188.134766"/>
      <use xlink:href="#DejaVuSans-69" x="240.234375"/>
      <use xlink:href="#DejaVuSans-63" x="268.017578"/>
     </g>
    </g>
   </g>
  </g>
 </g>
 <defs>
  <clipPath id="pfb788b22d3">
   <rect x="57.6" y="41.472" width="357.12" height="266.112"/>
  </clipPath>
 </defs>
</svg>
