<?xml version="1.0" encoding="utf-8" standalone="no"?>
<!DOCTYPE svg PUBLIC "-//W3C//DTD SVG 1.1//EN"
  "http://www.w3.org/Graphics/SVG/1.1/DTD/svg11.dtd">
<svg xmlns:xlink="http://www.w3.org/1999/xlink" width="460.8pt" height="345.6pt" viewBox="0 0 460.8 345.6" xmlns="http://www.w3.org/2000/svg" version="1.1">
 <metadata>
  <rdf:RDF xmlns:dc="http://purl.org/dc/elements/1.1/" xmlns:cc="http://creativecommons.org/ns#" xmlns:rdf="http://www.w3.org/1999/02/22-rdf-syntax-ns#">
   <cc:Work>
    <dc:type rdf:resource="http://purl.org/dc/dcmitype/StillImage"/>
    <dc:date>2024-05-23T10:38:50.240575</dc:date>
    <dc:format>image/svg+xml</dc:format>
    <dc:creator>
     <cc:Agent>
      <dc:title>Matplotlib v3.8.2, https://matplotlib.org/</dc:title>
     </cc:Agent>
    </dc:creator>
   </cc:Work>
  </rdf:RDF>
 </metadata>
 <defs>
  <style type="text/css">*{stroke-linejoin: round; stroke-linecap: butt}</style>
 </defs>
 <g id="figure_1">
  <g id="patch_1">
   <path d="M 0 345.6 
L 460.8 345.6 
L 460.8 0 
L 0 0 
z
" style="fill: #ffffff"/>
  </g>
  <g id="axes_1">
   <g id="patch_2">
    <path d="M 57.6 307.584 
L 414.72 307.584 
L 414.72 41.472 
L 57.6 41.472 
z
" style="fill: #ffffff"/>
   </g>
   <g id="matplotlib.axis_1">
    <g id="xtick_1">
     <g id="line2d_1">
      <defs>
       <path id="m03012aa730" d="M 0 0 
L 0 3.5 
" style="stroke: #000000; stroke-width: 0.8"/>
      </defs>
      <g>
       <use xlink:href="#m03012aa730" x="97.030623" y="307.584" style="stroke: #000000; stroke-width: 0.8"/>
      </g>
     </g>
     <g id="text_1">
      <!-- −30 -->
      <g transform="translate(86.478279 322.182437) scale(0.1 -0.1)">
       <defs>
        <path id="DejaVuSans-2212" d="M 678 2272 
L 4684 2272 
L 4684 1741 
L 678 1741 
L 678 2272 
z
" transform="scale(0.015625)"/>
        <path id="DejaVuSans-33" d="M 2597 2516 
Q 3050 2419 3304 2112 
Q 3559 1806 3559 1356 
Q 3559 666 3084 287 
Q 2609 -91 1734 -91 
Q 1441 -91 1130 -33 
Q 819 25 488 141 
L 488 750 
Q 750 597 1062 519 
Q 1375 441 1716 441 
Q 2309 441 2620 675 
Q 2931 909 2931 1356 
Q 2931 1769 2642 2001 
Q 2353 2234 1838 2234 
L 1294 2234 
L 1294 2753 
L 1863 2753 
Q 2328 2753 2575 2939 
Q 2822 3125 2822 3475 
Q 2822 3834 2567 4026 
Q 2313 4219 1838 4219 
Q 1578 4219 1281 4162 
Q 984 4106 628 3988 
L 628 4550 
Q 988 4650 1302 4700 
Q 1616 4750 1894 4750 
Q 2613 4750 3031 4423 
Q 3450 4097 3450 3541 
Q 3450 3153 3228 2886 
Q 3006 2619 2597 2516 
z
" transform="scale(0.015625)"/>
        <path id="DejaVuSans-30" d="M 2034 4250 
Q 1547 4250 1301 3770 
Q 1056 3291 1056 2328 
Q 1056 1369 1301 889 
Q 1547 409 2034 409 
Q 2525 409 2770 889 
Q 3016 1369 3016 2328 
Q 3016 3291 2770 3770 
Q 2525 4250 2034 4250 
z
M 2034 4750 
Q 2819 4750 3233 4129 
Q 3647 3509 3647 2328 
Q 3647 1150 3233 529 
Q 2819 -91 2034 -91 
Q 1250 -91 836 529 
Q 422 1150 422 2328 
Q 422 3509 836 4129 
Q 1250 4750 2034 4750 
z
" transform="scale(0.015625)"/>
       </defs>
       <use xlink:href="#DejaVuSans-2212"/>
       <use xlink:href="#DejaVuSans-33" x="83.789062"/>
       <use xlink:href="#DejaVuSans-30" x="147.412109"/>
      </g>
     </g>
    </g>
    <g id="xtick_2">
     <g id="line2d_2">
      <g>
       <use xlink:href="#m03012aa730" x="143.426413" y="307.584" style="stroke: #000000; stroke-width: 0.8"/>
      </g>
     </g>
     <g id="text_2">
      <!-- −20 -->
      <g transform="translate(132.87407 322.182437) scale(0.1 -0.1)">
       <defs>
        <path id="DejaVuSans-32" d="M 1228 531 
L 3431 531 
L 3431 0 
L 469 0 
L 469 531 
Q 828 903 1448 1529 
Q 2069 2156 2228 2338 
Q 2531 2678 2651 2914 
Q 2772 3150 2772 3378 
Q 2772 3750 2511 3984 
Q 2250 4219 1831 4219 
Q 1534 4219 1204 4116 
Q 875 4013 500 3803 
L 500 4441 
Q 881 4594 1212 4672 
Q 1544 4750 1819 4750 
Q 2544 4750 2975 4387 
Q 3406 4025 3406 3419 
Q 3406 3131 3298 2873 
Q 3191 2616 2906 2266 
Q 2828 2175 2409 1742 
Q 1991 1309 1228 531 
z
" transform="scale(0.015625)"/>
       </defs>
       <use xlink:href="#DejaVuSans-2212"/>
       <use xlink:href="#DejaVuSans-32" x="83.789062"/>
       <use xlink:href="#DejaVuSans-30" x="147.412109"/>
      </g>
     </g>
    </g>
    <g id="xtick_3">
     <g id="line2d_3">
      <g>
       <use xlink:href="#m03012aa730" x="189.822204" y="307.584" style="stroke: #000000; stroke-width: 0.8"/>
      </g>
     </g>
     <g id="text_3">
      <!-- −10 -->
      <g transform="translate(179.26986 322.182437) scale(0.1 -0.1)">
       <defs>
        <path id="DejaVuSans-31" d="M 794 531 
L 1825 531 
L 1825 4091 
L 703 3866 
L 703 4441 
L 1819 4666 
L 2450 4666 
L 2450 531 
L 3481 531 
L 3481 0 
L 794 0 
L 794 531 
z
" transform="scale(0.015625)"/>
       </defs>
       <use xlink:href="#DejaVuSans-2212"/>
       <use xlink:href="#DejaVuSans-31" x="83.789062"/>
       <use xlink:href="#DejaVuSans-30" x="147.412109"/>
      </g>
     </g>
    </g>
    <g id="xtick_4">
     <g id="line2d_4">
      <g>
       <use xlink:href="#m03012aa730" x="236.217995" y="307.584" style="stroke: #000000; stroke-width: 0.8"/>
      </g>
     </g>
     <g id="text_4">
      <!-- 0 -->
      <g transform="translate(233.036745 322.182437) scale(0.1 -0.1)">
       <use xlink:href="#DejaVuSans-30"/>
      </g>
     </g>
    </g>
    <g id="xtick_5">
     <g id="line2d_5">
      <g>
       <use xlink:href="#m03012aa730" x="282.613785" y="307.584" style="stroke: #000000; stroke-width: 0.8"/>
      </g>
     </g>
     <g id="text_5">
      <!-- 10 -->
      <g transform="translate(276.251285 322.182437) scale(0.1 -0.1)">
       <use xlink:href="#DejaVuSans-31"/>
       <use xlink:href="#DejaVuSans-30" x="63.623047"/>
      </g>
     </g>
    </g>
    <g id="xtick_6">
     <g id="line2d_6">
      <g>
       <use xlink:href="#m03012aa730" x="329.009576" y="307.584" style="stroke: #000000; stroke-width: 0.8"/>
      </g>
     </g>
     <g id="text_6">
      <!-- 20 -->
      <g transform="translate(322.647076 322.182437) scale(0.1 -0.1)">
       <use xlink:href="#DejaVuSans-32"/>
       <use xlink:href="#DejaVuSans-30" x="63.623047"/>
      </g>
     </g>
    </g>
    <g id="xtick_7">
     <g id="line2d_7">
      <g>
       <use xlink:href="#m03012aa730" x="375.405367" y="307.584" style="stroke: #000000; stroke-width: 0.8"/>
      </g>
     </g>
     <g id="text_7">
      <!-- 30 -->
      <g transform="translate(369.042867 322.182437) scale(0.1 -0.1)">
       <use xlink:href="#DejaVuSans-33"/>
       <use xlink:href="#DejaVuSans-30" x="63.623047"/>
      </g>
     </g>
    </g>
    <g id="text_8">
     <!-- Frequency [$Hz$] -->
     <g transform="translate(197.96 335.862125) scale(0.1 -0.1)">
      <defs>
       <path id="DejaVuSans-46" d="M 628 4666 
L 3309 4666 
L 3309 4134 
L 1259 4134 
L 1259 2759 
L 3109 2759 
L 3109 2228 
L 1259 2228 
L 1259 0 
L 628 0 
L 628 4666 
z
" transform="scale(0.015625)"/>
       <path id="DejaVuSans-72" d="M 2631 2963 
Q 2534 3019 2420 3045 
Q 2306 3072 2169 3072 
Q 1681 3072 1420 2755 
Q 1159 2438 1159 1844 
L 1159 0 
L 581 0 
L 581 3500 
L 1159 3500 
L 1159 2956 
Q 1341 3275 1631 3429 
Q 1922 3584 2338 3584 
Q 2397 3584 2469 3576 
Q 2541 3569 2628 3553 
L 2631 2963 
z
" transform="scale(0.015625)"/>
       <path id="DejaVuSans-65" d="M 3597 1894 
L 3597 1613 
L 953 1613 
Q 991 1019 1311 708 
Q 1631 397 2203 397 
Q 2534 397 2845 478 
Q 3156 559 3463 722 
L 3463 178 
Q 3153 47 2828 -22 
Q 2503 -91 2169 -91 
Q 1331 -91 842 396 
Q 353 884 353 1716 
Q 353 2575 817 3079 
Q 1281 3584 2069 3584 
Q 2775 3584 3186 3129 
Q 3597 2675 3597 1894 
z
M 3022 2063 
Q 3016 2534 2758 2815 
Q 2500 3097 2075 3097 
Q 1594 3097 1305 2825 
Q 1016 2553 972 2059 
L 3022 2063 
z
" transform="scale(0.015625)"/>
       <path id="DejaVuSans-71" d="M 947 1747 
Q 947 1113 1208 752 
Q 1469 391 1925 391 
Q 2381 391 2643 752 
Q 2906 1113 2906 1747 
Q 2906 2381 2643 2742 
Q 2381 3103 1925 3103 
Q 1469 3103 1208 2742 
Q 947 2381 947 1747 
z
M 2906 525 
Q 2725 213 2448 61 
Q 2172 -91 1784 -91 
Q 1150 -91 751 415 
Q 353 922 353 1747 
Q 353 2572 751 3078 
Q 1150 3584 1784 3584 
Q 2172 3584 2448 3432 
Q 2725 3281 2906 2969 
L 2906 3500 
L 3481 3500 
L 3481 -1331 
L 2906 -1331 
L 2906 525 
z
" transform="scale(0.015625)"/>
       <path id="DejaVuSans-75" d="M 544 1381 
L 544 3500 
L 1119 3500 
L 1119 1403 
Q 1119 906 1312 657 
Q 1506 409 1894 409 
Q 2359 409 2629 706 
Q 2900 1003 2900 1516 
L 2900 3500 
L 3475 3500 
L 3475 0 
L 2900 0 
L 2900 538 
Q 2691 219 2414 64 
Q 2138 -91 1772 -91 
Q 1169 -91 856 284 
Q 544 659 544 1381 
z
M 1991 3584 
L 1991 3584 
z
" transform="scale(0.015625)"/>
       <path id="DejaVuSans-6e" d="M 3513 2113 
L 3513 0 
L 2938 0 
L 2938 2094 
Q 2938 2591 2744 2837 
Q 2550 3084 2163 3084 
Q 1697 3084 1428 2787 
Q 1159 2491 1159 1978 
L 1159 0 
L 581 0 
L 581 3500 
L 1159 3500 
L 1159 2956 
Q 1366 3272 1645 3428 
Q 1925 3584 2291 3584 
Q 2894 3584 3203 3211 
Q 3513 2838 3513 2113 
z
" transform="scale(0.015625)"/>
       <path id="DejaVuSans-63" d="M 3122 3366 
L 3122 2828 
Q 2878 2963 2633 3030 
Q 2388 3097 2138 3097 
Q 1578 3097 1268 2742 
Q 959 2388 959 1747 
Q 959 1106 1268 751 
Q 1578 397 2138 397 
Q 2388 397 2633 464 
Q 2878 531 3122 666 
L 3122 134 
Q 2881 22 2623 -34 
Q 2366 -91 2075 -91 
Q 1284 -91 818 406 
Q 353 903 353 1747 
Q 353 2603 823 3093 
Q 1294 3584 2113 3584 
Q 2378 3584 2631 3529 
Q 2884 3475 3122 3366 
z
" transform="scale(0.015625)"/>
       <path id="DejaVuSans-79" d="M 2059 -325 
Q 1816 -950 1584 -1140 
Q 1353 -1331 966 -1331 
L 506 -1331 
L 506 -850 
L 844 -850 
Q 1081 -850 1212 -737 
Q 1344 -625 1503 -206 
L 1606 56 
L 191 3500 
L 800 3500 
L 1894 763 
L 2988 3500 
L 3597 3500 
L 2059 -325 
z
" transform="scale(0.015625)"/>
       <path id="DejaVuSans-20" transform="scale(0.015625)"/>
       <path id="DejaVuSans-5b" d="M 550 4863 
L 1875 4863 
L 1875 4416 
L 1125 4416 
L 1125 -397 
L 1875 -397 
L 1875 -844 
L 550 -844 
L 550 4863 
z
" transform="scale(0.015625)"/>
       <path id="DejaVuSans-Oblique-48" d="M 1081 4666 
L 1716 4666 
L 1344 2753 
L 3634 2753 
L 4006 4666 
L 4641 4666 
L 3731 0 
L 3097 0 
L 3531 2222 
L 1241 2222 
L 806 0 
L 172 0 
L 1081 4666 
z
" transform="scale(0.015625)"/>
       <path id="DejaVuSans-Oblique-7a" d="M 744 3500 
L 3475 3500 
L 3372 2975 
L 738 459 
L 2913 459 
L 2822 0 
L -19 0 
L 84 525 
L 2719 3041 
L 653 3041 
L 744 3500 
z
" transform="scale(0.015625)"/>
       <path id="DejaVuSans-5d" d="M 1947 4863 
L 1947 -844 
L 622 -844 
L 622 -397 
L 1369 -397 
L 1369 4416 
L 622 4416 
L 622 4863 
L 1947 4863 
z
" transform="scale(0.015625)"/>
      </defs>
      <use xlink:href="#DejaVuSans-46" transform="translate(0 0.015625)"/>
      <use xlink:href="#DejaVuSans-72" transform="translate(57.519531 0.015625)"/>
      <use xlink:href="#DejaVuSans-65" transform="translate(98.632812 0.015625)"/>
      <use xlink:href="#DejaVuSans-71" transform="translate(160.15625 0.015625)"/>
      <use xlink:href="#DejaVuSans-75" transform="translate(223.632812 0.015625)"/>
      <use xlink:href="#DejaVuSans-65" transform="translate(287.011719 0.015625)"/>
      <use xlink:href="#DejaVuSans-6e" transform="translate(348.535156 0.015625)"/>
      <use xlink:href="#DejaVuSans-63" transform="translate(411.914062 0.015625)"/>
      <use xlink:href="#DejaVuSans-79" transform="translate(466.894531 0.015625)"/>
      <use xlink:href="#DejaVuSans-20" transform="translate(526.074219 0.015625)"/>
      <use xlink:href="#DejaVuSans-5b" transform="translate(557.861328 0.015625)"/>
      <use xlink:href="#DejaVuSans-Oblique-48" transform="translate(596.875 0.015625)"/>
      <use xlink:href="#DejaVuSans-Oblique-7a" transform="translate(672.070312 0.015625)"/>
      <use xlink:href="#DejaVuSans-5d" transform="translate(724.560547 0.015625)"/>
     </g>
    </g>
   </g>
   <g id="matplotlib.axis_2">
    <g id="ytick_1">
     <g id="line2d_8">
      <defs>
       <path id="ma8069639b9" d="M 0 0 
L -3.5 0 
" style="stroke: #000000; stroke-width: 0.8"/>
      </defs>
      <g>
       <use xlink:href="#ma8069639b9" x="57.6" y="288.547962" style="stroke: #000000; stroke-width: 0.8"/>
      </g>
     </g>
     <g id="text_9">
      <!-- −20 -->
      <g transform="translate(29.495313 292.34718) scale(0.1 -0.1)">
       <use xlink:href="#DejaVuSans-2212"/>
       <use xlink:href="#DejaVuSans-32" x="83.789062"/>
       <use xlink:href="#DejaVuSans-30" x="147.412109"/>
      </g>
     </g>
    </g>
    <g id="ytick_2">
     <g id="line2d_9">
      <g>
       <use xlink:href="#ma8069639b9" x="57.6" y="250.475885" style="stroke: #000000; stroke-width: 0.8"/>
      </g>
     </g>
     <g id="text_10">
      <!-- −10 -->
      <g transform="translate(29.495313 254.275103) scale(0.1 -0.1)">
       <use xlink:href="#DejaVuSans-2212"/>
       <use xlink:href="#DejaVuSans-31" x="83.789062"/>
       <use xlink:href="#DejaVuSans-30" x="147.412109"/>
      </g>
     </g>
    </g>
    <g id="ytick_3">
     <g id="line2d_10">
      <g>
       <use xlink:href="#ma8069639b9" x="57.6" y="212.403808" style="stroke: #000000; stroke-width: 0.8"/>
      </g>
     </g>
     <g id="text_11">
      <!-- 0 -->
      <g transform="translate(44.2375 216.203026) scale(0.1 -0.1)">
       <use xlink:href="#DejaVuSans-30"/>
      </g>
     </g>
    </g>
    <g id="ytick_4">
     <g id="line2d_11">
      <g>
       <use xlink:href="#ma8069639b9" x="57.6" y="174.331731" style="stroke: #000000; stroke-width: 0.8"/>
      </g>
     </g>
     <g id="text_12">
      <!-- 10 -->
      <g transform="translate(37.875 178.13095) scale(0.1 -0.1)">
       <use xlink:href="#DejaVuSans-31"/>
       <use xlink:href="#DejaVuSans-30" x="63.623047"/>
      </g>
     </g>
    </g>
    <g id="ytick_5">
     <g id="line2d_12">
      <g>
       <use xlink:href="#ma8069639b9" x="57.6" y="136.259654" style="stroke: #000000; stroke-width: 0.8"/>
      </g>
     </g>
     <g id="text_13">
      <!-- 20 -->
      <g transform="translate(37.875 140.058873) scale(0.1 -0.1)">
       <use xlink:href="#DejaVuSans-32"/>
       <use xlink:href="#DejaVuSans-30" x="63.623047"/>
      </g>
     </g>
    </g>
    <g id="ytick_6">
     <g id="line2d_13">
      <g>
       <use xlink:href="#ma8069639b9" x="57.6" y="98.187577" style="stroke: #000000; stroke-width: 0.8"/>
      </g>
     </g>
     <g id="text_14">
      <!-- 30 -->
      <g transform="translate(37.875 101.986796) scale(0.1 -0.1)">
       <use xlink:href="#DejaVuSans-33"/>
       <use xlink:href="#DejaVuSans-30" x="63.623047"/>
      </g>
     </g>
    </g>
    <g id="ytick_7">
     <g id="line2d_14">
      <g>
       <use xlink:href="#ma8069639b9" x="57.6" y="60.1155" style="stroke: #000000; stroke-width: 0.8"/>
      </g>
     </g>
     <g id="text_15">
      <!-- 40 -->
      <g transform="translate(37.875 63.914719) scale(0.1 -0.1)">
       <defs>
        <path id="DejaVuSans-34" d="M 2419 4116 
L 825 1625 
L 2419 1625 
L 2419 4116 
z
M 2253 4666 
L 3047 4666 
L 3047 1625 
L 3713 1625 
L 3713 1100 
L 3047 1100 
L 3047 0 
L 2419 0 
L 2419 1100 
L 313 1100 
L 313 1709 
L 2253 4666 
z
" transform="scale(0.015625)"/>
       </defs>
       <use xlink:href="#DejaVuSans-34"/>
       <use xlink:href="#DejaVuSans-30" x="63.623047"/>
      </g>
     </g>
    </g>
    <g id="text_16">
     <!-- Amplitude [dB] -->
     <g transform="translate(23.415625 212.245969) rotate(-90) scale(0.1 -0.1)">
      <defs>
       <path id="DejaVuSans-41" d="M 2188 4044 
L 1331 1722 
L 3047 1722 
L 2188 4044 
z
M 1831 4666 
L 2547 4666 
L 4325 0 
L 3669 0 
L 3244 1197 
L 1141 1197 
L 716 0 
L 50 0 
L 1831 4666 
z
" transform="scale(0.015625)"/>
       <path id="DejaVuSans-6d" d="M 3328 2828 
Q 3544 3216 3844 3400 
Q 4144 3584 4550 3584 
Q 5097 3584 5394 3201 
Q 5691 2819 5691 2113 
L 5691 0 
L 5113 0 
L 5113 2094 
Q 5113 2597 4934 2840 
Q 4756 3084 4391 3084 
Q 3944 3084 3684 2787 
Q 3425 2491 3425 1978 
L 3425 0 
L 2847 0 
L 2847 2094 
Q 2847 2600 2669 2842 
Q 2491 3084 2119 3084 
Q 1678 3084 1418 2786 
Q 1159 2488 1159 1978 
L 1159 0 
L 581 0 
L 581 3500 
L 1159 3500 
L 1159 2956 
Q 1356 3278 1631 3431 
Q 1906 3584 2284 3584 
Q 2666 3584 2933 3390 
Q 3200 3197 3328 2828 
z
" transform="scale(0.015625)"/>
       <path id="DejaVuSans-70" d="M 1159 525 
L 1159 -1331 
L 581 -1331 
L 581 3500 
L 1159 3500 
L 1159 2969 
Q 1341 3281 1617 3432 
Q 1894 3584 2278 3584 
Q 2916 3584 3314 3078 
Q 3713 2572 3713 1747 
Q 3713 922 3314 415 
Q 2916 -91 2278 -91 
Q 1894 -91 1617 61 
Q 1341 213 1159 525 
z
M 3116 1747 
Q 3116 2381 2855 2742 
Q 2594 3103 2138 3103 
Q 1681 3103 1420 2742 
Q 1159 2381 1159 1747 
Q 1159 1113 1420 752 
Q 1681 391 2138 391 
Q 2594 391 2855 752 
Q 3116 1113 3116 1747 
z
" transform="scale(0.015625)"/>
       <path id="DejaVuSans-6c" d="M 603 4863 
L 1178 4863 
L 1178 0 
L 603 0 
L 603 4863 
z
" transform="scale(0.015625)"/>
       <path id="DejaVuSans-69" d="M 603 3500 
L 1178 3500 
L 1178 0 
L 603 0 
L 603 3500 
z
M 603 4863 
L 1178 4863 
L 1178 4134 
L 603 4134 
L 603 4863 
z
" transform="scale(0.015625)"/>
       <path id="DejaVuSans-74" d="M 1172 4494 
L 1172 3500 
L 2356 3500 
L 2356 3053 
L 1172 3053 
L 1172 1153 
Q 1172 725 1289 603 
Q 1406 481 1766 481 
L 2356 481 
L 2356 0 
L 1766 0 
Q 1100 0 847 248 
Q 594 497 594 1153 
L 594 3053 
L 172 3053 
L 172 3500 
L 594 3500 
L 594 4494 
L 1172 4494 
z
" transform="scale(0.015625)"/>
       <path id="DejaVuSans-64" d="M 2906 2969 
L 2906 4863 
L 3481 4863 
L 3481 0 
L 2906 0 
L 2906 525 
Q 2725 213 2448 61 
Q 2172 -91 1784 -91 
Q 1150 -91 751 415 
Q 353 922 353 1747 
Q 353 2572 751 3078 
Q 1150 3584 1784 3584 
Q 2172 3584 2448 3432 
Q 2725 3281 2906 2969 
z
M 947 1747 
Q 947 1113 1208 752 
Q 1469 391 1925 391 
Q 2381 391 2643 752 
Q 2906 1113 2906 1747 
Q 2906 2381 2643 2742 
Q 2381 3103 1925 3103 
Q 1469 3103 1208 2742 
Q 947 2381 947 1747 
z
" transform="scale(0.015625)"/>
       <path id="DejaVuSans-42" d="M 1259 2228 
L 1259 519 
L 2272 519 
Q 2781 519 3026 730 
Q 3272 941 3272 1375 
Q 3272 1813 3026 2020 
Q 2781 2228 2272 2228 
L 1259 2228 
z
M 1259 4147 
L 1259 2741 
L 2194 2741 
Q 2656 2741 2882 2914 
Q 3109 3088 3109 3444 
Q 3109 3797 2882 3972 
Q 2656 4147 2194 4147 
L 1259 4147 
z
M 628 4666 
L 2241 4666 
Q 2963 4666 3353 4366 
Q 3744 4066 3744 3513 
Q 3744 3084 3544 2831 
Q 3344 2578 2956 2516 
Q 3422 2416 3680 2098 
Q 3938 1781 3938 1306 
Q 3938 681 3513 340 
Q 3088 0 2303 0 
L 628 0 
L 628 4666 
z
" transform="scale(0.015625)"/>
      </defs>
      <use xlink:href="#DejaVuSans-41"/>
      <use xlink:href="#DejaVuSans-6d" x="68.408203"/>
      <use xlink:href="#DejaVuSans-70" x="165.820312"/>
      <use xlink:href="#DejaVuSans-6c" x="229.296875"/>
      <use xlink:href="#DejaVuSans-69" x="257.080078"/>
      <use xlink:href="#DejaVuSans-74" x="284.863281"/>
      <use xlink:href="#DejaVuSans-75" x="324.072266"/>
      <use xlink:href="#DejaVuSans-64" x="387.451172"/>
      <use xlink:href="#DejaVuSans-65" x="450.927734"/>
      <use xlink:href="#DejaVuSans-20" x="512.451172"/>
      <use xlink:href="#DejaVuSans-5b" x="544.238281"/>
      <use xlink:href="#DejaVuSans-64" x="583.251953"/>
      <use xlink:href="#DejaVuSans-42" x="646.728516"/>
      <use xlink:href="#DejaVuSans-5d" x="715.332031"/>
     </g>
    </g>
   </g>
   <g id="line2d_15">
    <path d="M 73.832727 285.379682 
L 85.779643 285.269022 
L 97.61057 284.938397 
L 109.209518 284.39202 
L 120.344507 283.646441 
L 131.015539 282.709555 
L 140.990634 281.613542 
L 150.385782 280.358975 
L 159.084993 278.973757 
L 167.088267 277.474919 
L 174.395604 275.881331 
L 181.007004 274.21515 
L 187.038457 272.467557 
L 192.489962 270.657345 
L 197.36152 268.809236 
L 201.76912 266.902527 
L 205.712762 264.958773 
L 209.308436 262.938568 
L 212.556141 260.854446 
L 215.455878 258.726109 
L 218.007647 256.583457 
L 220.327436 254.350776 
L 222.415247 252.037681 
L 224.271079 249.662424 
L 226.010921 247.069862 
L 227.518784 244.433938 
L 228.910658 241.556502 
L 230.186542 238.387728 
L 231.346437 234.858896 
L 232.274353 231.365961 
L 233.086279 227.552336 
L 233.898205 222.588482 
L 234.594142 216.682022 
L 235.0581 211.100867 
L 235.406068 205.075564 
L 235.754037 195.746826 
L 235.986016 184.128057 
L 236.102005 169.170165 
L 236.217995 53.086652 
L 236.449974 184.128057 
L 236.913932 202.594302 
L 237.493879 212.65981 
L 238.073826 218.893912 
L 238.769763 224.165899 
L 239.58169 228.736876 
L 240.509605 232.764398 
L 241.553511 236.362213 
L 242.713405 239.611766 
L 243.98929 242.57266 
L 245.497153 245.498515 
L 247.121006 248.156718 
L 248.860848 250.59426 
L 250.832669 252.976858 
L 253.036469 255.281336 
L 255.472248 257.495026 
L 258.140006 259.612163 
L 261.039743 261.631175 
L 264.287448 263.619814 
L 267.883122 265.557102 
L 271.826764 267.428961 
L 276.234364 269.271761 
L 281.105922 271.063375 
L 286.441438 272.787674 
L 292.356901 274.463559 
L 298.852312 276.07036 
L 306.04366 277.614821 
L 313.814955 279.053673 
L 322.282186 280.392813 
L 331.445355 281.613542 
L 341.304461 282.698086 
L 351.743514 283.619447 
L 362.762514 284.365397 
L 374.129483 284.911937 
L 385.84442 285.253431 
L 397.791336 285.379172 
L 398.487273 285.379671 
L 398.487273 285.379671 
" clip-path="url(#pe6f25f7efe)" style="fill: none; stroke: #00ff00; stroke-width: 1.5; stroke-linecap: square"/>
   </g>
   <g id="line2d_16">
    <path d="M 73.832727 282.779842 
L 86.707559 282.667893 
L 100.162338 282.295051 
L 113.965086 281.639092 
L 116.516855 281.457307 
L 118.836644 281.326555 
L 121.504402 281.117969 
L 123.592213 280.966523 
L 125.680023 280.771984 
L 130.087624 280.426395 
L 131.015539 280.302767 
L 131.827466 280.254351 
L 132.755381 280.136579 
L 133.219339 280.122663 
L 134.147255 280.004665 
L 135.075171 279.908289 
L 136.119076 279.819853 
L 137.278971 279.681329 
L 138.090897 279.582613 
L 141.338603 279.229099 
L 141.802561 279.116628 
L 142.150529 279.107524 
L 142.730476 279.092172 
L 144.006361 278.906573 
L 144.354329 278.888697 
L 145.514224 278.675183 
L 146.094171 278.661911 
L 147.138077 278.472584 
L 149.457866 278.158351 
L 149.805835 278.086471 
L 150.73375 277.98687 
L 151.081719 277.893833 
L 151.545677 277.822165 
L 152.473593 277.698783 
L 153.169529 277.559636 
L 153.517498 277.602122 
L 154.329424 277.359661 
L 154.677393 277.30568 
L 155.489319 277.33763 
L 156.069266 277.037148 
L 156.533224 277.037757 
L 156.765203 277.093275 
L 158.157077 276.772308 
L 158.621035 276.83534 
L 158.969003 276.684357 
L 160.244887 276.469225 
L 160.476866 276.417169 
L 161.404782 276.206399 
L 161.86874 276.204182 
L 162.564677 275.931152 
L 162.680666 276.018148 
L 162.912645 275.90544 
L 163.144624 275.977974 
L 163.376603 275.876416 
L 163.492593 275.895149 
L 163.724572 275.7485 
L 165.000456 275.585927 
L 165.812382 275.298423 
L 166.39233 275.372778 
L 166.856288 275.140763 
L 167.320246 274.919828 
L 168.016182 275.114589 
L 168.132172 274.95057 
L 168.364151 274.9634 
L 168.59613 274.69407 
L 168.828109 274.649277 
L 168.944098 274.535961 
L 169.176077 274.624331 
L 169.872014 274.676964 
L 170.79993 274.268567 
L 171.031909 274.326717 
L 171.495867 274.3006 
L 171.611856 274.274922 
L 171.843835 274.072163 
L 172.307793 273.884221 
L 172.88774 273.999194 
L 173.00373 273.86529 
L 173.119719 273.949788 
L 174.047635 273.566576 
L 174.279614 273.505614 
L 174.395604 273.630243 
L 174.627583 273.521796 
L 174.859562 273.459596 
L 174.975551 273.299419 
L 175.20753 273.318294 
L 175.439509 273.170406 
L 175.671488 273.223563 
L 175.787477 273.108675 
L 175.903467 273.219542 
L 177.063362 272.760756 
L 177.179351 272.88759 
L 177.527319 272.787295 
L 177.643309 272.841306 
L 178.339246 272.351834 
L 178.455235 272.472957 
L 178.687214 272.364194 
L 178.919193 272.518588 
L 179.151172 272.4193 
L 179.267162 272.507819 
L 179.499141 272.227469 
L 179.73112 272.108433 
L 179.847109 271.887561 
L 179.963099 271.988795 
L 180.311067 271.942758 
L 180.427056 272.097532 
L 180.659035 271.950943 
L 180.775025 272.174574 
L 181.586951 271.486425 
L 181.81893 271.398586 
L 182.282888 271.652535 
L 182.514867 271.661569 
L 182.746846 271.414799 
L 183.442783 270.906994 
L 184.02273 271.200462 
L 184.13872 271.208141 
L 184.370699 270.9273 
L 184.602678 270.762062 
L 184.718667 270.463163 
L 184.834657 270.584245 
L 185.066635 270.417985 
L 185.182625 270.452139 
L 185.298614 270.655648 
L 185.414604 270.516173 
L 185.530593 270.56841 
L 185.646583 270.803188 
L 185.994551 270.479126 
L 186.110541 270.542053 
L 186.34252 270.092231 
L 186.574499 270.047398 
L 186.690488 269.894795 
L 186.922467 270.091028 
L 187.038457 269.998222 
L 187.154446 270.159635 
L 187.618404 270.035452 
L 187.850383 269.710654 
L 188.198351 269.565555 
L 188.43033 269.558115 
L 188.54632 269.533505 
L 188.662309 269.650178 
L 188.778299 269.500318 
L 188.894288 269.590464 
L 189.242257 269.300426 
L 189.358246 269.308191 
L 189.590225 269.008341 
L 189.706215 269.183043 
L 189.938194 269.007499 
L 190.054183 269.025032 
L 190.170172 269.265335 
L 190.286162 268.980267 
L 190.518141 269.071782 
L 190.75012 268.677972 
L 190.866109 268.767654 
L 190.982099 268.734605 
L 191.098088 268.336609 
L 191.330067 268.636921 
L 191.562046 268.359833 
L 191.678036 268.745936 
L 192.141994 268.500833 
L 192.373973 268.119433 
L 192.489962 268.179808 
L 192.605951 267.836905 
L 192.95392 267.970137 
L 193.069909 267.81105 
L 193.301888 268.157948 
L 193.997825 267.632493 
L 194.229804 267.336325 
L 194.345794 267.155145 
L 194.925741 267.498099 
L 195.04173 267.701657 
L 195.15772 267.376148 
L 195.273709 267.474246 
L 195.505688 267.245916 
L 195.621678 266.788479 
L 195.737667 266.867312 
L 195.969646 266.407271 
L 196.085636 266.533185 
L 196.201625 266.631841 
L 196.433604 266.548853 
L 196.549594 267.101537 
L 196.781573 266.775508 
L 197.013552 266.959927 
L 197.245531 266.26981 
L 197.36152 266.296962 
L 197.593499 265.874208 
L 197.941467 265.723751 
L 198.057457 266.195958 
L 198.405425 266.147861 
L 198.521415 266.345032 
L 198.985373 265.516516 
L 199.101362 265.414151 
L 199.217352 265.136681 
L 199.333341 265.27067 
L 199.449331 265.128769 
L 199.797299 265.42371 
L 199.913289 265.474399 
L 200.029278 265.35734 
L 200.145267 265.498031 
L 200.377246 265.189363 
L 200.493236 264.786724 
L 200.609225 265.017331 
L 200.841204 264.498872 
L 200.957194 264.479872 
L 201.073183 264.688782 
L 201.305162 264.505858 
L 201.421152 264.852345 
L 201.537141 264.574585 
L 201.88511 264.660826 
L 202.001099 264.034366 
L 202.233078 264.243096 
L 202.465057 263.736699 
L 202.697036 264.021527 
L 202.813025 263.717749 
L 202.929015 264.100873 
L 203.160994 263.865288 
L 203.276983 263.774512 
L 203.392973 263.973104 
L 203.624952 263.267029 
L 203.740941 263.467272 
L 204.08891 262.983198 
L 204.204899 263.41567 
L 204.320889 263.118428 
L 204.436878 263.256401 
L 204.552868 263.191312 
L 204.668857 263.380763 
L 204.900836 263.043853 
L 205.364794 262.259936 
L 205.480783 262.387724 
L 205.596773 262.053388 
L 205.944741 262.631267 
L 206.060731 262.372834 
L 206.29271 262.633239 
L 206.756668 261.834291 
L 206.872657 261.280575 
L 206.988647 261.492709 
L 207.220626 261.126638 
L 207.336615 261.126398 
L 207.452605 261.710635 
L 207.684583 261.416695 
L 207.800573 261.901528 
L 207.916562 261.89784 
L 208.148541 261.167372 
L 208.264531 261.378356 
L 208.49651 260.507231 
L 208.728489 260.247745 
L 208.844478 259.889803 
L 209.076457 260.738102 
L 209.192447 260.300411 
L 209.540415 261.171772 
L 209.656405 260.400214 
L 209.772394 260.605788 
L 210.352341 259.128224 
L 210.468331 258.978447 
L 210.58432 259.412069 
L 210.70031 259.204092 
L 211.048278 260.083469 
L 211.164268 259.748237 
L 211.280257 259.784129 
L 211.976194 257.999199 
L 212.092184 258.224726 
L 212.208173 257.966128 
L 212.324163 258.439673 
L 212.440152 258.197616 
L 212.78812 258.880379 
L 213.020099 258.155127 
L 213.136089 258.605431 
L 213.368068 257.303107 
L 213.484057 257.192329 
L 213.600047 257.467738 
L 213.716036 256.68416 
L 213.948015 257.299316 
L 214.064005 257.015218 
L 214.295984 257.776964 
L 214.411973 257.427033 
L 214.527963 256.660458 
L 214.643952 257.513906 
L 214.99192 255.992864 
L 215.10791 256.535923 
L 215.223899 255.861582 
L 215.339889 255.858825 
L 215.455878 256.193544 
L 215.571868 255.883985 
L 215.919836 256.370139 
L 216.035826 255.476895 
L 216.151815 256.104668 
L 216.499784 254.867163 
L 216.615773 255.026208 
L 216.847752 254.707873 
L 216.963742 254.989315 
L 217.079731 254.578045 
L 217.195721 255.156694 
L 217.31171 254.95495 
L 217.4277 255.120836 
L 217.543689 254.581699 
L 217.659678 254.863081 
L 217.775668 254.011507 
L 218.007647 254.007834 
L 218.239626 252.972383 
L 218.471605 253.810443 
L 218.587594 252.634876 
L 218.819573 254.133682 
L 219.051552 253.315178 
L 219.167542 253.963448 
L 219.399521 252.358826 
L 219.51551 252.836731 
L 219.747489 251.164362 
L 219.863479 251.474023 
L 219.979468 252.290558 
L 220.095457 250.868326 
L 220.327436 252.564163 
L 220.443426 252.466398 
L 220.559415 252.16515 
L 220.675405 252.637105 
L 220.791394 252.225091 
L 220.907384 251.186056 
L 221.023373 251.647683 
L 221.255352 249.78238 
L 221.371342 249.395441 
L 221.487331 250.125673 
L 221.603321 249.160375 
L 221.8353 250.08881 
L 222.067279 250.925158 
L 222.183268 250.726816 
L 222.299258 250.934134 
L 222.415247 250.308528 
L 222.531236 250.700418 
L 222.763215 248.723138 
L 223.111184 247.11954 
L 223.227173 247.635137 
L 223.343163 247.50078 
L 223.459152 247.094523 
L 223.575142 249.058628 
L 223.807121 248.640961 
L 223.92311 248.28268 
L 224.0391 249.915268 
L 224.271079 247.104785 
L 224.503058 246.056676 
L 224.619047 245.233977 
L 224.735037 245.240381 
L 224.851026 245.408933 
L 224.967015 244.105208 
L 225.198994 246.418188 
L 225.430973 245.567791 
L 225.546963 247.690363 
L 226.2429 242.662408 
L 226.358889 243.393143 
L 226.474879 241.798698 
L 226.822847 243.700768 
L 226.938837 242.797902 
L 227.170816 244.518526 
L 227.518784 241.557334 
L 227.634773 242.101877 
L 227.750763 240.514386 
L 227.866752 240.645323 
L 227.982742 239.23112 
L 228.098731 240.162322 
L 228.214721 239.897431 
L 228.4467 240.524295 
L 228.562689 240.226913 
L 228.678679 240.684873 
L 228.794668 239.995891 
L 228.910658 241.194789 
L 229.026647 238.12592 
L 229.142637 238.184884 
L 229.258626 237.704217 
L 229.374616 238.100363 
L 229.490605 235.649963 
L 229.722584 237.319673 
L 229.838574 236.194322 
L 229.954563 237.396483 
L 230.070552 237.0013 
L 230.186542 237.255179 
L 230.302531 235.649137 
L 230.418521 238.679326 
L 230.6505 232.920228 
L 230.766489 233.011905 
L 230.882479 234.605235 
L 231.114458 230.192488 
L 231.230447 233.937822 
L 231.346437 231.339621 
L 231.694405 235.13381 
L 231.810395 231.251635 
L 231.926384 234.320499 
L 232.274353 226.629498 
L 232.390342 227.617221 
L 232.622321 222.314664 
L 232.73831 225.632205 
L 232.8543 223.823588 
L 232.970289 225.860575 
L 233.086279 225.773927 
L 233.202268 228.450853 
L 233.318258 227.905783 
L 233.434247 232.353048 
L 234.130184 212.6547 
L 234.246174 212.919813 
L 234.362163 208.704902 
L 234.478153 214.186219 
L 234.594142 212.020065 
L 234.710132 207.045354 
L 234.94211 222.007682 
L 235.174089 219.879692 
L 235.638047 194.802672 
L 235.754037 192.48322 
L 235.870026 180.509992 
L 235.986016 188.92252 
L 236.102005 187.736477 
L 236.217995 170.273683 
L 236.449974 188.92252 
L 236.565963 180.509992 
L 236.797942 194.802672 
L 237.2619 219.879692 
L 237.37789 220.443373 
L 237.493879 222.007682 
L 237.609868 219.837302 
L 237.725858 207.045354 
L 237.957837 214.186219 
L 238.073826 208.704902 
L 238.189816 212.919813 
L 238.305805 212.6547 
L 238.653774 221.496938 
L 238.769763 223.282367 
L 239.001742 232.353048 
L 239.117732 227.905783 
L 239.233721 228.450853 
L 239.349711 225.773927 
L 239.4657 225.860575 
L 239.58169 223.823588 
L 239.697679 225.632205 
L 239.813669 222.314664 
L 240.045647 227.617221 
L 240.161637 226.629498 
L 240.277626 228.223896 
L 240.509605 234.320499 
L 240.625595 231.251635 
L 240.741584 235.13381 
L 240.973563 232.373726 
L 241.089553 231.339621 
L 241.205542 233.937822 
L 241.321532 230.192488 
L 241.437521 230.785383 
L 241.553511 234.605235 
L 241.78549 232.920228 
L 241.901479 234.644822 
L 242.017469 238.679326 
L 242.133458 235.649137 
L 242.249448 237.255179 
L 242.365437 237.0013 
L 242.481426 237.396483 
L 242.597416 236.194322 
L 242.713405 237.319673 
L 242.945384 235.649963 
L 243.061374 238.100363 
L 243.177363 237.704217 
L 243.293353 238.184884 
L 243.409342 238.12592 
L 243.525332 241.194789 
L 243.641321 239.995891 
L 243.757311 240.684873 
L 243.8733 240.226913 
L 243.98929 240.524295 
L 244.221269 239.897431 
L 244.337258 240.162322 
L 244.453248 239.23112 
L 244.569237 240.645323 
L 244.685227 240.514386 
L 244.801216 242.101877 
L 244.917205 241.557334 
L 245.265174 244.518526 
L 245.497153 242.797902 
L 245.613142 243.700768 
L 245.961111 241.798698 
L 246.0771 243.393143 
L 246.19309 242.662408 
L 246.541058 245.022132 
L 246.657048 245.277018 
L 246.889027 247.690363 
L 247.005016 245.567791 
L 247.236995 246.418188 
L 247.352985 246.057872 
L 247.468974 244.105208 
L 247.584963 245.408933 
L 247.816942 245.233977 
L 248.39689 249.915268 
L 248.512879 248.28268 
L 248.860848 249.058628 
L 248.976837 247.094523 
L 249.208816 247.635137 
L 249.324806 247.11954 
L 249.788764 248.896091 
L 249.904753 250.700418 
L 250.020742 250.308528 
L 250.136732 250.934134 
L 250.252721 250.726816 
L 250.368711 250.925158 
L 250.832669 249.160375 
L 250.948658 250.125673 
L 251.064648 249.395441 
L 251.296627 250.392389 
L 251.412616 251.647683 
L 251.528606 251.186056 
L 251.760585 252.637105 
L 251.876574 252.16515 
L 252.108553 252.564163 
L 252.340532 250.868326 
L 252.456521 252.290558 
L 252.6885 251.164362 
L 253.268448 253.963448 
L 253.384437 253.315178 
L 253.616416 254.133682 
L 253.732406 253.813986 
L 253.848395 252.634876 
L 253.964385 253.810443 
L 254.196364 252.972383 
L 254.312353 253.134418 
L 254.428343 254.007834 
L 254.660322 254.011507 
L 254.776311 254.863081 
L 254.8923 254.581699 
L 255.00829 255.120836 
L 255.124279 254.95495 
L 255.240269 255.156694 
L 255.356258 254.578045 
L 255.472248 254.989315 
L 255.588237 254.707873 
L 255.704227 254.778607 
L 255.820216 255.026208 
L 255.936206 254.867163 
L 256.284174 256.104668 
L 256.400164 255.476895 
L 256.516153 256.370139 
L 256.748132 256.107739 
L 256.864122 255.883985 
L 256.980111 256.193544 
L 257.21209 255.861582 
L 257.32808 256.535923 
L 257.444069 255.992864 
L 257.676048 256.974661 
L 257.792037 257.513906 
L 257.908027 256.660458 
L 258.140006 257.776964 
L 258.371985 257.015218 
L 258.487974 257.299316 
L 258.603964 257.161214 
L 258.719953 256.68416 
L 258.835943 257.467738 
L 258.951932 257.192329 
L 259.067922 257.303107 
L 259.183911 257.679432 
L 259.299901 258.605431 
L 259.41589 258.155127 
L 259.53188 258.33535 
L 259.647869 258.880379 
L 259.763859 258.807328 
L 259.995837 258.197616 
L 260.111827 258.439673 
L 260.227816 257.966128 
L 260.343806 258.224726 
L 260.459795 257.999199 
L 261.155732 259.784129 
L 261.271722 259.748237 
L 261.387711 260.083469 
L 261.61969 259.52821 
L 261.73568 259.204092 
L 261.851669 259.412069 
L 261.967659 258.978447 
L 262.315627 259.481167 
L 262.663595 260.605788 
L 262.779585 260.400214 
L 262.895574 261.171772 
L 263.127553 260.651049 
L 263.243543 260.300411 
L 263.359532 260.738102 
L 263.591511 259.889803 
L 263.82349 260.381274 
L 264.055469 260.635747 
L 264.171459 261.378356 
L 264.287448 261.167372 
L 264.519427 261.89784 
L 264.635417 261.901528 
L 264.751406 261.416695 
L 264.983385 261.710635 
L 265.099374 261.126398 
L 265.331353 261.213973 
L 265.447343 261.492709 
L 265.563332 261.280575 
L 265.795311 261.917436 
L 266.14328 262.633239 
L 266.375259 262.372834 
L 266.491248 262.631267 
L 266.723227 262.271503 
L 266.839217 262.053388 
L 266.955206 262.387724 
L 267.071196 262.259936 
L 267.535153 263.043853 
L 267.651143 263.094397 
L 267.767132 263.380763 
L 267.883122 263.191312 
L 267.999111 263.256401 
L 268.115101 263.118428 
L 268.23109 263.41567 
L 268.34708 262.983198 
L 268.463069 262.999199 
L 268.695048 263.467272 
L 268.811038 263.267029 
L 268.927027 263.399637 
L 269.043017 263.973104 
L 269.159006 263.774512 
L 269.506975 264.100873 
L 269.622964 263.717749 
L 269.738954 264.021527 
L 269.854943 263.966891 
L 269.970932 263.736699 
L 270.318901 264.222037 
L 270.43489 264.034366 
L 270.55088 264.660826 
L 270.898848 264.574585 
L 271.014838 264.852345 
L 271.130827 264.505858 
L 271.246817 264.538468 
L 271.362806 264.688782 
L 271.594785 264.498872 
L 271.826764 265.017331 
L 271.942754 264.786724 
L 272.174733 265.337432 
L 272.290722 265.498031 
L 272.406711 265.35734 
L 272.522701 265.474399 
L 272.870669 265.277894 
L 272.986659 265.128769 
L 273.102648 265.27067 
L 273.218638 265.136681 
L 273.566606 265.79053 
L 273.682596 265.739791 
L 273.914575 266.345032 
L 274.146554 266.090491 
L 274.378533 266.195958 
L 274.494522 265.723751 
L 274.610512 265.913197 
L 274.84249 265.874208 
L 274.95848 265.934852 
L 275.074469 266.296962 
L 275.190459 266.26981 
L 275.306448 266.446466 
L 275.422438 266.959927 
L 275.654417 266.775508 
L 275.886396 267.101537 
L 276.002385 266.548853 
L 276.350354 266.533185 
L 276.466343 266.407271 
L 276.698322 266.867312 
L 276.814312 266.788479 
L 277.046291 267.417374 
L 277.16228 267.474246 
L 277.27827 267.376148 
L 277.394259 267.701657 
L 277.742227 267.270944 
L 278.206185 267.336325 
L 278.322175 267.344615 
L 278.670143 267.975315 
L 279.018112 268.082276 
L 279.134101 268.157948 
L 279.36608 267.81105 
L 279.48207 267.970137 
L 279.830038 267.836905 
L 279.946027 268.179808 
L 280.062017 268.119433 
L 280.409985 268.527647 
L 280.525975 268.50632 
L 280.757954 268.745936 
L 280.873943 268.359833 
L 281.105922 268.636921 
L 281.337901 268.336609 
L 281.56988 268.767654 
L 281.68587 268.677972 
L 281.917849 269.071782 
L 282.149828 268.980267 
L 282.265817 269.265335 
L 282.497796 269.007499 
L 282.729775 269.183043 
L 282.845764 269.008341 
L 283.309722 269.424354 
L 283.77368 269.650178 
L 284.005659 269.558115 
L 284.121649 269.49831 
L 284.701596 269.799832 
L 284.817586 270.035452 
L 284.933575 269.934026 
L 285.165554 270.119587 
L 285.281543 270.159635 
L 285.397533 269.998222 
L 285.629512 270.044579 
L 285.745501 269.894795 
L 285.97748 270.122051 
L 286.209459 270.101735 
L 286.325449 270.542053 
L 286.557428 270.452443 
L 286.789407 270.803188 
L 287.021386 270.516173 
L 287.137375 270.655648 
L 287.369354 270.417985 
L 287.601333 270.584245 
L 287.717322 270.463163 
L 287.949301 270.898401 
L 288.18128 271.026011 
L 288.413259 271.200462 
L 288.529249 271.07683 
L 288.645238 271.169443 
L 288.993207 270.906994 
L 289.109196 271.002714 
L 289.225186 270.919694 
L 290.037112 271.64995 
L 290.153101 271.652535 
L 290.269091 271.515838 
L 290.38508 271.608178 
L 290.617059 271.398586 
L 291.081017 271.556584 
L 291.197007 271.824783 
L 291.312996 271.788135 
L 291.660965 272.174574 
L 291.776954 271.950943 
L 292.008933 272.097532 
L 292.240912 271.84873 
L 292.472891 271.988795 
L 292.58888 271.887561 
L 292.820859 272.165205 
L 293.052838 272.305463 
L 293.168828 272.507819 
L 293.400807 272.402484 
L 293.516796 272.518588 
L 293.864765 272.352944 
L 293.980754 272.472957 
L 294.096744 272.351834 
L 294.792681 272.841306 
L 295.024659 272.813047 
L 295.952575 272.974903 
L 296.184554 273.08126 
L 296.532523 273.219542 
L 296.648512 273.108675 
L 296.880491 273.207562 
L 297.11247 273.160244 
L 297.344449 273.3295 
L 297.460438 273.299419 
L 297.692417 273.510698 
L 298.504344 273.545273 
L 298.620333 273.474947 
L 298.852312 273.715513 
L 298.968302 273.639525 
L 299.31627 273.949788 
L 299.43226 273.86529 
L 299.664239 273.984309 
L 299.896217 273.881008 
L 300.128196 273.884221 
L 300.244186 273.825325 
L 300.592154 274.072163 
L 300.708144 274.110149 
L 300.940123 274.3006 
L 301.288091 274.347288 
L 301.984028 274.253448 
L 302.447986 274.610833 
L 302.911944 274.775897 
L 303.143923 274.639869 
L 303.607881 274.649277 
L 304.535797 275.085661 
L 304.767776 274.979026 
L 304.883765 275.041505 
L 305.115744 274.919828 
L 305.347723 275.022503 
L 305.579702 275.140763 
L 305.811681 275.249021 
L 306.159649 275.386071 
L 306.623607 275.298423 
L 307.783502 275.685924 
L 308.015481 275.653262 
L 309.175376 275.869321 
L 309.407355 275.946087 
L 309.639334 275.930258 
L 309.755323 276.018148 
L 309.987302 275.972273 
L 310.219281 276.076849 
L 310.45126 276.153554 
L 310.799228 276.218577 
L 311.843134 276.376387 
L 312.53907 276.516989 
L 312.771049 276.468418 
L 313.698965 276.74995 
L 313.930944 276.790156 
L 314.742871 276.753707 
L 315.322818 277.076682 
L 315.786776 277.085815 
L 316.018755 277.007224 
L 316.250734 277.012916 
L 316.714692 277.177016 
L 317.06266 277.32553 
L 317.410628 277.361733 
L 317.642607 277.3196 
L 318.106565 277.359661 
L 318.802502 277.581185 
L 319.38245 277.574194 
L 320.078386 277.717813 
L 320.310365 277.804638 
L 321.702239 277.98687 
L 322.166197 278.071065 
L 323.210102 278.186882 
L 323.79005 278.273059 
L 324.485987 278.357448 
L 325.413902 278.477265 
L 326.457808 278.646155 
L 326.805776 278.687967 
L 327.385723 278.710112 
L 328.893587 278.894028 
L 329.473534 279.024955 
L 330.053481 279.119009 
L 331.329366 279.262662 
L 331.677334 279.316084 
L 332.48926 279.333984 
L 333.533166 279.506921 
L 334.113113 279.528223 
L 334.693061 279.65814 
L 335.852955 279.747337 
L 336.548892 279.827536 
L 338.520713 280.01236 
L 340.028576 280.160129 
L 340.956492 280.297578 
L 346.407998 280.757043 
L 347.567892 280.87037 
L 349.771692 281.0286 
L 351.627524 281.172313 
L 355.687156 281.456775 
L 357.07903 281.55569 
L 366.938135 282.075345 
L 393.267746 282.760588 
L 398.487273 282.779833 
L 398.487273 282.779833 
" clip-path="url(#pe6f25f7efe)" style="fill: none; stroke: #008000; stroke-width: 1.5; stroke-linecap: square"/>
   </g>
   <g id="patch_3">
    <path d="M 57.6 307.584 
L 57.6 41.472 
" style="fill: none; stroke: #000000; stroke-width: 0.8; stroke-linejoin: miter; stroke-linecap: square"/>
   </g>
   <g id="patch_4">
    <path d="M 414.72 307.584 
L 414.72 41.472 
" style="fill: none; stroke: #000000; stroke-width: 0.8; stroke-linejoin: miter; stroke-linecap: square"/>
   </g>
   <g id="patch_5">
    <path d="M 57.6 307.584 
L 414.72 307.584 
" style="fill: none; stroke: #000000; stroke-width: 0.8; stroke-linejoin: miter; stroke-linecap: square"/>
   </g>
   <g id="patch_6">
    <path d="M 57.6 41.472 
L 414.72 41.472 
" style="fill: none; stroke: #000000; stroke-width: 0.8; stroke-linejoin: miter; stroke-linecap: square"/>
   </g>
   <g id="legend_1">
    <g id="patch_7">
     <path d="M 343.42 78.82825 
L 407.72 78.82825 
Q 409.72 78.82825 409.72 76.82825 
L 409.72 48.472 
Q 409.72 46.472 407.72 46.472 
L 343.42 46.472 
Q 341.42 46.472 341.42 48.472 
L 341.42 76.82825 
Q 341.42 78.82825 343.42 78.82825 
z
" style="fill: #ffffff; opacity: 0.8; stroke: #cccccc; stroke-linejoin: miter"/>
    </g>
    <g id="line2d_17">
     <path d="M 345.42 54.570437 
L 355.42 54.570437 
L 365.42 54.570437 
" style="fill: none; stroke: #00ff00; stroke-width: 1.5; stroke-linecap: square"/>
    </g>
    <g id="text_17">
     <!-- tonic -->
     <g transform="translate(373.42 58.070437) scale(0.1 -0.1)">
      <defs>
       <path id="DejaVuSans-6f" d="M 1959 3097 
Q 1497 3097 1228 2736 
Q 959 2375 959 1747 
Q 959 1119 1226 758 
Q 1494 397 1959 397 
Q 2419 397 2687 759 
Q 2956 1122 2956 1747 
Q 2956 2369 2687 2733 
Q 2419 3097 1959 3097 
z
M 1959 3584 
Q 2709 3584 3137 3096 
Q 3566 2609 3566 1747 
Q 3566 888 3137 398 
Q 2709 -91 1959 -91 
Q 1206 -91 779 398 
Q 353 888 353 1747 
Q 353 2609 779 3096 
Q 1206 3584 1959 3584 
z
" transform="scale(0.015625)"/>
      </defs>
      <use xlink:href="#DejaVuSans-74"/>
      <use xlink:href="#DejaVuSans-6f" x="39.208984"/>
      <use xlink:href="#DejaVuSans-6e" x="100.390625"/>
      <use xlink:href="#DejaVuSans-69" x="163.769531"/>
      <use xlink:href="#DejaVuSans-63" x="191.552734"/>
     </g>
    </g>
    <g id="line2d_18">
     <path d="M 345.42 69.248562 
L 355.42 69.248562 
L 365.42 69.248562 
" style="fill: none; stroke: #008000; stroke-width: 1.5; stroke-linecap: square"/>
    </g>
    <g id="text_18">
     <!-- phasic -->
     <g transform="translate(373.42 72.748562) scale(0.1 -0.1)">
      <defs>
       <path id="DejaVuSans-68" d="M 3513 2113 
L 3513 0 
L 2938 0 
L 2938 2094 
Q 2938 2591 2744 2837 
Q 2550 3084 2163 3084 
Q 1697 3084 1428 2787 
Q 1159 2491 1159 1978 
L 1159 0 
L 581 0 
L 581 4863 
L 1159 4863 
L 1159 2956 
Q 1366 3272 1645 3428 
Q 1925 3584 2291 3584 
Q 2894 3584 3203 3211 
Q 3513 2838 3513 2113 
z
" transform="scale(0.015625)"/>
       <path id="DejaVuSans-61" d="M 2194 1759 
Q 1497 1759 1228 1600 
Q 959 1441 959 1056 
Q 959 750 1161 570 
Q 1363 391 1709 391 
Q 2188 391 2477 730 
Q 2766 1069 2766 1631 
L 2766 1759 
L 2194 1759 
z
M 3341 1997 
L 3341 0 
L 2766 0 
L 2766 531 
Q 2569 213 2275 61 
Q 1981 -91 1556 -91 
Q 1019 -91 701 211 
Q 384 513 384 1019 
Q 384 1609 779 1909 
Q 1175 2209 1959 2209 
L 2766 2209 
L 2766 2266 
Q 2766 2663 2505 2880 
Q 2244 3097 1772 3097 
Q 1472 3097 1187 3025 
Q 903 2953 641 2809 
L 641 3341 
Q 956 3463 1253 3523 
Q 1550 3584 1831 3584 
Q 2591 3584 2966 3190 
Q 3341 2797 3341 1997 
z
" transform="scale(0.015625)"/>
       <path id="DejaVuSans-73" d="M 2834 3397 
L 2834 2853 
Q 2591 2978 2328 3040 
Q 2066 3103 1784 3103 
Q 1356 3103 1142 2972 
Q 928 2841 928 2578 
Q 928 2378 1081 2264 
Q 1234 2150 1697 2047 
L 1894 2003 
Q 2506 1872 2764 1633 
Q 3022 1394 3022 966 
Q 3022 478 2636 193 
Q 2250 -91 1575 -91 
Q 1294 -91 989 -36 
Q 684 19 347 128 
L 347 722 
Q 666 556 975 473 
Q 1284 391 1588 391 
Q 1994 391 2212 530 
Q 2431 669 2431 922 
Q 2431 1156 2273 1281 
Q 2116 1406 1581 1522 
L 1381 1569 
Q 847 1681 609 1914 
Q 372 2147 372 2553 
Q 372 3047 722 3315 
Q 1072 3584 1716 3584 
Q 2034 3584 2315 3537 
Q 2597 3491 2834 3397 
z
" transform="scale(0.015625)"/>
      </defs>
      <use xlink:href="#DejaVuSans-70"/>
      <use xlink:href="#DejaVuSans-68" x="63.476562"/>
      <use xlink:href="#DejaVuSans-61" x="126.855469"/>
      <use xlink:href="#DejaVuSans-73" x="188.134766"/>
      <use xlink:href="#DejaVuSans-69" x="240.234375"/>
      <use xlink:href="#DejaVuSans-63" x="268.017578"/>
     </g>
    </g>
   </g>
  </g>
 </g>
 <defs>
  <clipPath id="pe6f25f7efe">
   <rect x="57.6" y="41.472" width="357.12" height="266.112"/>
  </clipPath>
 </defs>
</svg>
