<?xml version="1.0" encoding="utf-8" standalone="no"?>
<!DOCTYPE svg PUBLIC "-//W3C//DTD SVG 1.1//EN"
  "http://www.w3.org/Graphics/SVG/1.1/DTD/svg11.dtd">
<svg xmlns:xlink="http://www.w3.org/1999/xlink" width="460.8pt" height="345.6pt" viewBox="0 0 460.8 345.6" xmlns="http://www.w3.org/2000/svg" version="1.1">
 <metadata>
  <rdf:RDF xmlns:dc="http://purl.org/dc/elements/1.1/" xmlns:cc="http://creativecommons.org/ns#" xmlns:rdf="http://www.w3.org/1999/02/22-rdf-syntax-ns#">
   <cc:Work>
    <dc:type rdf:resource="http://purl.org/dc/dcmitype/StillImage"/>
    <dc:date>2024-05-15T11:34:01.811329</dc:date>
    <dc:format>image/svg+xml</dc:format>
    <dc:creator>
     <cc:Agent>
      <dc:title>Matplotlib v3.8.2, https://matplotlib.org/</dc:title>
     </cc:Agent>
    </dc:creator>
   </cc:Work>
  </rdf:RDF>
 </metadata>
 <defs>
  <style type="text/css">*{stroke-linejoin: round; stroke-linecap: butt}</style>
 </defs>
 <g id="figure_1">
  <g id="patch_1">
   <path d="M 0 345.6 
L 460.8 345.6 
L 460.8 0 
L 0 0 
z
" style="fill: #ffffff"/>
  </g>
  <g id="axes_1">
   <g id="patch_2">
    <path d="M 57.6 307.584 
L 414.72 307.584 
L 414.72 41.472 
L 57.6 41.472 
z
" style="fill: #ffffff"/>
   </g>
   <g id="matplotlib.axis_1">
    <g id="xtick_1">
     <g id="line2d_1">
      <defs>
       <path id="mf2a211913e" d="M 0 0 
L 0 3.5 
" style="stroke: #000000; stroke-width: 0.8"/>
      </defs>
      <g>
       <use xlink:href="#mf2a211913e" x="73.832727" y="307.584" style="stroke: #000000; stroke-width: 0.8"/>
      </g>
     </g>
     <g id="text_1">
      <!-- 0.0 -->
      <g transform="translate(65.881165 322.182437) scale(0.1 -0.1)">
       <defs>
        <path id="DejaVuSans-30" d="M 2034 4250 
Q 1547 4250 1301 3770 
Q 1056 3291 1056 2328 
Q 1056 1369 1301 889 
Q 1547 409 2034 409 
Q 2525 409 2770 889 
Q 3016 1369 3016 2328 
Q 3016 3291 2770 3770 
Q 2525 4250 2034 4250 
z
M 2034 4750 
Q 2819 4750 3233 4129 
Q 3647 3509 3647 2328 
Q 3647 1150 3233 529 
Q 2819 -91 2034 -91 
Q 1250 -91 836 529 
Q 422 1150 422 2328 
Q 422 3509 836 4129 
Q 1250 4750 2034 4750 
z
" transform="scale(0.015625)"/>
        <path id="DejaVuSans-2e" d="M 684 794 
L 1344 794 
L 1344 0 
L 684 0 
L 684 794 
z
" transform="scale(0.015625)"/>
       </defs>
       <use xlink:href="#DejaVuSans-30"/>
       <use xlink:href="#DejaVuSans-2e" x="63.623047"/>
       <use xlink:href="#DejaVuSans-30" x="95.410156"/>
      </g>
     </g>
    </g>
    <g id="xtick_2">
     <g id="line2d_2">
      <g>
       <use xlink:href="#mf2a211913e" x="114.414545" y="307.584" style="stroke: #000000; stroke-width: 0.8"/>
      </g>
     </g>
     <g id="text_2">
      <!-- 0.5 -->
      <g transform="translate(106.462983 322.182437) scale(0.1 -0.1)">
       <defs>
        <path id="DejaVuSans-35" d="M 691 4666 
L 3169 4666 
L 3169 4134 
L 1269 4134 
L 1269 2991 
Q 1406 3038 1543 3061 
Q 1681 3084 1819 3084 
Q 2600 3084 3056 2656 
Q 3513 2228 3513 1497 
Q 3513 744 3044 326 
Q 2575 -91 1722 -91 
Q 1428 -91 1123 -41 
Q 819 9 494 109 
L 494 744 
Q 775 591 1075 516 
Q 1375 441 1709 441 
Q 2250 441 2565 725 
Q 2881 1009 2881 1497 
Q 2881 1984 2565 2268 
Q 2250 2553 1709 2553 
Q 1456 2553 1204 2497 
Q 953 2441 691 2322 
L 691 4666 
z
" transform="scale(0.015625)"/>
       </defs>
       <use xlink:href="#DejaVuSans-30"/>
       <use xlink:href="#DejaVuSans-2e" x="63.623047"/>
       <use xlink:href="#DejaVuSans-35" x="95.410156"/>
      </g>
     </g>
    </g>
    <g id="xtick_3">
     <g id="line2d_3">
      <g>
       <use xlink:href="#mf2a211913e" x="154.996364" y="307.584" style="stroke: #000000; stroke-width: 0.8"/>
      </g>
     </g>
     <g id="text_3">
      <!-- 1.0 -->
      <g transform="translate(147.044801 322.182437) scale(0.1 -0.1)">
       <defs>
        <path id="DejaVuSans-31" d="M 794 531 
L 1825 531 
L 1825 4091 
L 703 3866 
L 703 4441 
L 1819 4666 
L 2450 4666 
L 2450 531 
L 3481 531 
L 3481 0 
L 794 0 
L 794 531 
z
" transform="scale(0.015625)"/>
       </defs>
       <use xlink:href="#DejaVuSans-31"/>
       <use xlink:href="#DejaVuSans-2e" x="63.623047"/>
       <use xlink:href="#DejaVuSans-30" x="95.410156"/>
      </g>
     </g>
    </g>
    <g id="xtick_4">
     <g id="line2d_4">
      <g>
       <use xlink:href="#mf2a211913e" x="195.578182" y="307.584" style="stroke: #000000; stroke-width: 0.8"/>
      </g>
     </g>
     <g id="text_4">
      <!-- 1.5 -->
      <g transform="translate(187.626619 322.182437) scale(0.1 -0.1)">
       <use xlink:href="#DejaVuSans-31"/>
       <use xlink:href="#DejaVuSans-2e" x="63.623047"/>
       <use xlink:href="#DejaVuSans-35" x="95.410156"/>
      </g>
     </g>
    </g>
    <g id="xtick_5">
     <g id="line2d_5">
      <g>
       <use xlink:href="#mf2a211913e" x="236.16" y="307.584" style="stroke: #000000; stroke-width: 0.8"/>
      </g>
     </g>
     <g id="text_5">
      <!-- 2.0 -->
      <g transform="translate(228.208438 322.182437) scale(0.1 -0.1)">
       <defs>
        <path id="DejaVuSans-32" d="M 1228 531 
L 3431 531 
L 3431 0 
L 469 0 
L 469 531 
Q 828 903 1448 1529 
Q 2069 2156 2228 2338 
Q 2531 2678 2651 2914 
Q 2772 3150 2772 3378 
Q 2772 3750 2511 3984 
Q 2250 4219 1831 4219 
Q 1534 4219 1204 4116 
Q 875 4013 500 3803 
L 500 4441 
Q 881 4594 1212 4672 
Q 1544 4750 1819 4750 
Q 2544 4750 2975 4387 
Q 3406 4025 3406 3419 
Q 3406 3131 3298 2873 
Q 3191 2616 2906 2266 
Q 2828 2175 2409 1742 
Q 1991 1309 1228 531 
z
" transform="scale(0.015625)"/>
       </defs>
       <use xlink:href="#DejaVuSans-32"/>
       <use xlink:href="#DejaVuSans-2e" x="63.623047"/>
       <use xlink:href="#DejaVuSans-30" x="95.410156"/>
      </g>
     </g>
    </g>
    <g id="xtick_6">
     <g id="line2d_6">
      <g>
       <use xlink:href="#mf2a211913e" x="276.741818" y="307.584" style="stroke: #000000; stroke-width: 0.8"/>
      </g>
     </g>
     <g id="text_6">
      <!-- 2.5 -->
      <g transform="translate(268.790256 322.182437) scale(0.1 -0.1)">
       <use xlink:href="#DejaVuSans-32"/>
       <use xlink:href="#DejaVuSans-2e" x="63.623047"/>
       <use xlink:href="#DejaVuSans-35" x="95.410156"/>
      </g>
     </g>
    </g>
    <g id="xtick_7">
     <g id="line2d_7">
      <g>
       <use xlink:href="#mf2a211913e" x="317.323636" y="307.584" style="stroke: #000000; stroke-width: 0.8"/>
      </g>
     </g>
     <g id="text_7">
      <!-- 3.0 -->
      <g transform="translate(309.372074 322.182437) scale(0.1 -0.1)">
       <defs>
        <path id="DejaVuSans-33" d="M 2597 2516 
Q 3050 2419 3304 2112 
Q 3559 1806 3559 1356 
Q 3559 666 3084 287 
Q 2609 -91 1734 -91 
Q 1441 -91 1130 -33 
Q 819 25 488 141 
L 488 750 
Q 750 597 1062 519 
Q 1375 441 1716 441 
Q 2309 441 2620 675 
Q 2931 909 2931 1356 
Q 2931 1769 2642 2001 
Q 2353 2234 1838 2234 
L 1294 2234 
L 1294 2753 
L 1863 2753 
Q 2328 2753 2575 2939 
Q 2822 3125 2822 3475 
Q 2822 3834 2567 4026 
Q 2313 4219 1838 4219 
Q 1578 4219 1281 4162 
Q 984 4106 628 3988 
L 628 4550 
Q 988 4650 1302 4700 
Q 1616 4750 1894 4750 
Q 2613 4750 3031 4423 
Q 3450 4097 3450 3541 
Q 3450 3153 3228 2886 
Q 3006 2619 2597 2516 
z
" transform="scale(0.015625)"/>
       </defs>
       <use xlink:href="#DejaVuSans-33"/>
       <use xlink:href="#DejaVuSans-2e" x="63.623047"/>
       <use xlink:href="#DejaVuSans-30" x="95.410156"/>
      </g>
     </g>
    </g>
    <g id="xtick_8">
     <g id="line2d_8">
      <g>
       <use xlink:href="#mf2a211913e" x="357.905455" y="307.584" style="stroke: #000000; stroke-width: 0.8"/>
      </g>
     </g>
     <g id="text_8">
      <!-- 3.5 -->
      <g transform="translate(349.953892 322.182437) scale(0.1 -0.1)">
       <use xlink:href="#DejaVuSans-33"/>
       <use xlink:href="#DejaVuSans-2e" x="63.623047"/>
       <use xlink:href="#DejaVuSans-35" x="95.410156"/>
      </g>
     </g>
    </g>
    <g id="xtick_9">
     <g id="line2d_9">
      <g>
       <use xlink:href="#mf2a211913e" x="398.487273" y="307.584" style="stroke: #000000; stroke-width: 0.8"/>
      </g>
     </g>
     <g id="text_9">
      <!-- 4.0 -->
      <g transform="translate(390.53571 322.182437) scale(0.1 -0.1)">
       <defs>
        <path id="DejaVuSans-34" d="M 2419 4116 
L 825 1625 
L 2419 1625 
L 2419 4116 
z
M 2253 4666 
L 3047 4666 
L 3047 1625 
L 3713 1625 
L 3713 1100 
L 3047 1100 
L 3047 0 
L 2419 0 
L 2419 1100 
L 313 1100 
L 313 1709 
L 2253 4666 
z
" transform="scale(0.015625)"/>
       </defs>
       <use xlink:href="#DejaVuSans-34"/>
       <use xlink:href="#DejaVuSans-2e" x="63.623047"/>
       <use xlink:href="#DejaVuSans-30" x="95.410156"/>
      </g>
     </g>
    </g>
    <g id="text_10">
     <!-- Time [$s$] -->
     <g transform="translate(215.66 335.860562) scale(0.1 -0.1)">
      <defs>
       <path id="DejaVuSans-54" d="M -19 4666 
L 3928 4666 
L 3928 4134 
L 2272 4134 
L 2272 0 
L 1638 0 
L 1638 4134 
L -19 4134 
L -19 4666 
z
" transform="scale(0.015625)"/>
       <path id="DejaVuSans-69" d="M 603 3500 
L 1178 3500 
L 1178 0 
L 603 0 
L 603 3500 
z
M 603 4863 
L 1178 4863 
L 1178 4134 
L 603 4134 
L 603 4863 
z
" transform="scale(0.015625)"/>
       <path id="DejaVuSans-6d" d="M 3328 2828 
Q 3544 3216 3844 3400 
Q 4144 3584 4550 3584 
Q 5097 3584 5394 3201 
Q 5691 2819 5691 2113 
L 5691 0 
L 5113 0 
L 5113 2094 
Q 5113 2597 4934 2840 
Q 4756 3084 4391 3084 
Q 3944 3084 3684 2787 
Q 3425 2491 3425 1978 
L 3425 0 
L 2847 0 
L 2847 2094 
Q 2847 2600 2669 2842 
Q 2491 3084 2119 3084 
Q 1678 3084 1418 2786 
Q 1159 2488 1159 1978 
L 1159 0 
L 581 0 
L 581 3500 
L 1159 3500 
L 1159 2956 
Q 1356 3278 1631 3431 
Q 1906 3584 2284 3584 
Q 2666 3584 2933 3390 
Q 3200 3197 3328 2828 
z
" transform="scale(0.015625)"/>
       <path id="DejaVuSans-65" d="M 3597 1894 
L 3597 1613 
L 953 1613 
Q 991 1019 1311 708 
Q 1631 397 2203 397 
Q 2534 397 2845 478 
Q 3156 559 3463 722 
L 3463 178 
Q 3153 47 2828 -22 
Q 2503 -91 2169 -91 
Q 1331 -91 842 396 
Q 353 884 353 1716 
Q 353 2575 817 3079 
Q 1281 3584 2069 3584 
Q 2775 3584 3186 3129 
Q 3597 2675 3597 1894 
z
M 3022 2063 
Q 3016 2534 2758 2815 
Q 2500 3097 2075 3097 
Q 1594 3097 1305 2825 
Q 1016 2553 972 2059 
L 3022 2063 
z
" transform="scale(0.015625)"/>
       <path id="DejaVuSans-20" transform="scale(0.015625)"/>
       <path id="DejaVuSans-5b" d="M 550 4863 
L 1875 4863 
L 1875 4416 
L 1125 4416 
L 1125 -397 
L 1875 -397 
L 1875 -844 
L 550 -844 
L 550 4863 
z
" transform="scale(0.015625)"/>
       <path id="DejaVuSans-Oblique-73" d="M 3200 3397 
L 3091 2853 
Q 2863 2978 2609 3040 
Q 2356 3103 2088 3103 
Q 1634 3103 1373 2948 
Q 1113 2794 1113 2528 
Q 1113 2219 1719 2053 
Q 1766 2041 1788 2034 
L 1972 1978 
Q 2547 1819 2739 1644 
Q 2931 1469 2931 1166 
Q 2931 609 2489 259 
Q 2047 -91 1331 -91 
Q 1053 -91 747 -37 
Q 441 16 72 128 
L 184 722 
Q 500 559 806 475 
Q 1113 391 1394 391 
Q 1816 391 2080 572 
Q 2344 753 2344 1031 
Q 2344 1331 1650 1516 
L 1591 1531 
L 1394 1581 
Q 956 1697 753 1886 
Q 550 2075 550 2369 
Q 550 2928 970 3256 
Q 1391 3584 2113 3584 
Q 2397 3584 2667 3537 
Q 2938 3491 3200 3397 
z
" transform="scale(0.015625)"/>
       <path id="DejaVuSans-5d" d="M 1947 4863 
L 1947 -844 
L 622 -844 
L 622 -397 
L 1369 -397 
L 1369 4416 
L 622 4416 
L 622 4863 
L 1947 4863 
z
" transform="scale(0.015625)"/>
      </defs>
      <use xlink:href="#DejaVuSans-54" transform="translate(0 0.015625)"/>
      <use xlink:href="#DejaVuSans-69" transform="translate(61.083984 0.015625)"/>
      <use xlink:href="#DejaVuSans-6d" transform="translate(88.867188 0.015625)"/>
      <use xlink:href="#DejaVuSans-65" transform="translate(186.279297 0.015625)"/>
      <use xlink:href="#DejaVuSans-20" transform="translate(247.802734 0.015625)"/>
      <use xlink:href="#DejaVuSans-5b" transform="translate(279.589844 0.015625)"/>
      <use xlink:href="#DejaVuSans-Oblique-73" transform="translate(318.603516 0.015625)"/>
      <use xlink:href="#DejaVuSans-5d" transform="translate(370.703125 0.015625)"/>
     </g>
    </g>
   </g>
   <g id="matplotlib.axis_2">
    <g id="ytick_1">
     <g id="line2d_10">
      <defs>
       <path id="m1782470312" d="M 0 0 
L -3.5 0 
" style="stroke: #000000; stroke-width: 0.8"/>
      </defs>
      <g>
       <use xlink:href="#m1782470312" x="57.6" y="267.4668" style="stroke: #000000; stroke-width: 0.8"/>
      </g>
     </g>
     <g id="text_11">
      <!-- −40 -->
      <g transform="translate(29.495313 271.266019) scale(0.1 -0.1)">
       <defs>
        <path id="DejaVuSans-2212" d="M 678 2272 
L 4684 2272 
L 4684 1741 
L 678 1741 
L 678 2272 
z
" transform="scale(0.015625)"/>
       </defs>
       <use xlink:href="#DejaVuSans-2212"/>
       <use xlink:href="#DejaVuSans-34" x="83.789062"/>
       <use xlink:href="#DejaVuSans-30" x="147.412109"/>
      </g>
     </g>
    </g>
    <g id="ytick_2">
     <g id="line2d_11">
      <g>
       <use xlink:href="#m1782470312" x="57.6" y="217.635202" style="stroke: #000000; stroke-width: 0.8"/>
      </g>
     </g>
     <g id="text_12">
      <!-- −20 -->
      <g transform="translate(29.495313 221.434421) scale(0.1 -0.1)">
       <use xlink:href="#DejaVuSans-2212"/>
       <use xlink:href="#DejaVuSans-32" x="83.789062"/>
       <use xlink:href="#DejaVuSans-30" x="147.412109"/>
      </g>
     </g>
    </g>
    <g id="ytick_3">
     <g id="line2d_12">
      <g>
       <use xlink:href="#m1782470312" x="57.6" y="167.803605" style="stroke: #000000; stroke-width: 0.8"/>
      </g>
     </g>
     <g id="text_13">
      <!-- 0 -->
      <g transform="translate(44.2375 171.602824) scale(0.1 -0.1)">
       <use xlink:href="#DejaVuSans-30"/>
      </g>
     </g>
    </g>
    <g id="ytick_4">
     <g id="line2d_13">
      <g>
       <use xlink:href="#m1782470312" x="57.6" y="117.972007" style="stroke: #000000; stroke-width: 0.8"/>
      </g>
     </g>
     <g id="text_14">
      <!-- 20 -->
      <g transform="translate(37.875 121.771226) scale(0.1 -0.1)">
       <use xlink:href="#DejaVuSans-32"/>
       <use xlink:href="#DejaVuSans-30" x="63.623047"/>
      </g>
     </g>
    </g>
    <g id="ytick_5">
     <g id="line2d_14">
      <g>
       <use xlink:href="#m1782470312" x="57.6" y="68.140409" style="stroke: #000000; stroke-width: 0.8"/>
      </g>
     </g>
     <g id="text_15">
      <!-- 40 -->
      <g transform="translate(37.875 71.939628) scale(0.1 -0.1)">
       <use xlink:href="#DejaVuSans-34"/>
       <use xlink:href="#DejaVuSans-30" x="63.623047"/>
      </g>
     </g>
    </g>
    <g id="text_16">
     <!-- Voltage [$mV$] -->
     <g transform="translate(23.395312 207.478) rotate(-90) scale(0.1 -0.1)">
      <defs>
       <path id="DejaVuSans-56" d="M 1831 0 
L 50 4666 
L 709 4666 
L 2188 738 
L 3669 4666 
L 4325 4666 
L 2547 0 
L 1831 0 
z
" transform="scale(0.015625)"/>
       <path id="DejaVuSans-6f" d="M 1959 3097 
Q 1497 3097 1228 2736 
Q 959 2375 959 1747 
Q 959 1119 1226 758 
Q 1494 397 1959 397 
Q 2419 397 2687 759 
Q 2956 1122 2956 1747 
Q 2956 2369 2687 2733 
Q 2419 3097 1959 3097 
z
M 1959 3584 
Q 2709 3584 3137 3096 
Q 3566 2609 3566 1747 
Q 3566 888 3137 398 
Q 2709 -91 1959 -91 
Q 1206 -91 779 398 
Q 353 888 353 1747 
Q 353 2609 779 3096 
Q 1206 3584 1959 3584 
z
" transform="scale(0.015625)"/>
       <path id="DejaVuSans-6c" d="M 603 4863 
L 1178 4863 
L 1178 0 
L 603 0 
L 603 4863 
z
" transform="scale(0.015625)"/>
       <path id="DejaVuSans-74" d="M 1172 4494 
L 1172 3500 
L 2356 3500 
L 2356 3053 
L 1172 3053 
L 1172 1153 
Q 1172 725 1289 603 
Q 1406 481 1766 481 
L 2356 481 
L 2356 0 
L 1766 0 
Q 1100 0 847 248 
Q 594 497 594 1153 
L 594 3053 
L 172 3053 
L 172 3500 
L 594 3500 
L 594 4494 
L 1172 4494 
z
" transform="scale(0.015625)"/>
       <path id="DejaVuSans-61" d="M 2194 1759 
Q 1497 1759 1228 1600 
Q 959 1441 959 1056 
Q 959 750 1161 570 
Q 1363 391 1709 391 
Q 2188 391 2477 730 
Q 2766 1069 2766 1631 
L 2766 1759 
L 2194 1759 
z
M 3341 1997 
L 3341 0 
L 2766 0 
L 2766 531 
Q 2569 213 2275 61 
Q 1981 -91 1556 -91 
Q 1019 -91 701 211 
Q 384 513 384 1019 
Q 384 1609 779 1909 
Q 1175 2209 1959 2209 
L 2766 2209 
L 2766 2266 
Q 2766 2663 2505 2880 
Q 2244 3097 1772 3097 
Q 1472 3097 1187 3025 
Q 903 2953 641 2809 
L 641 3341 
Q 956 3463 1253 3523 
Q 1550 3584 1831 3584 
Q 2591 3584 2966 3190 
Q 3341 2797 3341 1997 
z
" transform="scale(0.015625)"/>
       <path id="DejaVuSans-67" d="M 2906 1791 
Q 2906 2416 2648 2759 
Q 2391 3103 1925 3103 
Q 1463 3103 1205 2759 
Q 947 2416 947 1791 
Q 947 1169 1205 825 
Q 1463 481 1925 481 
Q 2391 481 2648 825 
Q 2906 1169 2906 1791 
z
M 3481 434 
Q 3481 -459 3084 -895 
Q 2688 -1331 1869 -1331 
Q 1566 -1331 1297 -1286 
Q 1028 -1241 775 -1147 
L 775 -588 
Q 1028 -725 1275 -790 
Q 1522 -856 1778 -856 
Q 2344 -856 2625 -561 
Q 2906 -266 2906 331 
L 2906 616 
Q 2728 306 2450 153 
Q 2172 0 1784 0 
Q 1141 0 747 490 
Q 353 981 353 1791 
Q 353 2603 747 3093 
Q 1141 3584 1784 3584 
Q 2172 3584 2450 3431 
Q 2728 3278 2906 2969 
L 2906 3500 
L 3481 3500 
L 3481 434 
z
" transform="scale(0.015625)"/>
       <path id="DejaVuSans-Oblique-6d" d="M 5747 2113 
L 5338 0 
L 4763 0 
L 5166 2094 
Q 5191 2228 5203 2325 
Q 5216 2422 5216 2491 
Q 5216 2772 5059 2928 
Q 4903 3084 4622 3084 
Q 4203 3084 3875 2770 
Q 3547 2456 3450 1953 
L 3066 0 
L 2491 0 
L 2900 2094 
Q 2925 2209 2937 2307 
Q 2950 2406 2950 2484 
Q 2950 2769 2794 2926 
Q 2638 3084 2363 3084 
Q 1938 3084 1609 2770 
Q 1281 2456 1184 1953 
L 800 0 
L 225 0 
L 909 3500 
L 1484 3500 
L 1375 2956 
Q 1609 3263 1923 3423 
Q 2238 3584 2597 3584 
Q 2978 3584 3223 3384 
Q 3469 3184 3519 2828 
Q 3781 3197 4126 3390 
Q 4472 3584 4856 3584 
Q 5306 3584 5551 3325 
Q 5797 3066 5797 2591 
Q 5797 2488 5784 2364 
Q 5772 2241 5747 2113 
z
" transform="scale(0.015625)"/>
       <path id="DejaVuSans-Oblique-56" d="M 1319 0 
L 500 4666 
L 1119 4666 
L 1797 653 
L 4063 4666 
L 4750 4666 
L 2053 0 
L 1319 0 
z
" transform="scale(0.015625)"/>
      </defs>
      <use xlink:href="#DejaVuSans-56" transform="translate(0 0.015625)"/>
      <use xlink:href="#DejaVuSans-6f" transform="translate(68.408203 0.015625)"/>
      <use xlink:href="#DejaVuSans-6c" transform="translate(129.589844 0.015625)"/>
      <use xlink:href="#DejaVuSans-74" transform="translate(157.373047 0.015625)"/>
      <use xlink:href="#DejaVuSans-61" transform="translate(196.582031 0.015625)"/>
      <use xlink:href="#DejaVuSans-67" transform="translate(257.861328 0.015625)"/>
      <use xlink:href="#DejaVuSans-65" transform="translate(321.337891 0.015625)"/>
      <use xlink:href="#DejaVuSans-20" transform="translate(382.861328 0.015625)"/>
      <use xlink:href="#DejaVuSans-5b" transform="translate(414.648438 0.015625)"/>
      <use xlink:href="#DejaVuSans-Oblique-6d" transform="translate(453.662109 0.015625)"/>
      <use xlink:href="#DejaVuSans-Oblique-56" transform="translate(551.074219 0.015625)"/>
      <use xlink:href="#DejaVuSans-5d" transform="translate(619.482422 0.015625)"/>
     </g>
    </g>
   </g>
   <g id="line2d_15">
    <path d="M 73.832727 167.132854 
L 74.296685 248.295702 
L 74.528664 179.796649 
L 74.644654 195.00459 
L 74.760643 163.072167 
L 74.992622 230.631844 
L 75.224601 183.67787 
L 75.34059 184.919127 
L 75.45658 205.758158 
L 75.572569 188.675841 
L 75.688559 147.64857 
L 75.804548 151.143509 
L 75.920538 150.786507 
L 76.152517 177.936013 
L 76.500485 118.374765 
L 76.732464 161.250511 
L 76.848454 150.323878 
L 76.964443 170.820156 
L 77.080433 148.13622 
L 77.312412 180.332385 
L 77.428401 150.837819 
L 77.66038 173.727229 
L 77.776369 181.566852 
L 77.892359 179.439108 
L 78.008348 171.006149 
L 78.124338 146.110919 
L 78.240327 150.160639 
L 78.356317 175.28643 
L 78.588296 162.655909 
L 78.704285 160.154374 
L 78.820275 171.196507 
L 79.052254 137.873714 
L 79.168243 180.311568 
L 79.400222 152.717735 
L 79.632201 160.69519 
L 79.86418 200.24818 
L 79.98017 200.801642 
L 80.444127 149.524224 
L 80.560117 172.186962 
L 80.676106 167.132877 
L 80.792096 142.637464 
L 80.908085 157.591123 
L 81.024075 152.485577 
L 81.140064 155.610952 
L 81.256054 176.644784 
L 81.372043 174.155123 
L 81.488033 185.665151 
L 81.604022 180.248403 
L 81.720012 167.726694 
L 81.836001 168.798058 
L 81.951991 178.613276 
L 82.18397 150.604666 
L 82.299959 188.262125 
L 82.531938 142.067673 
L 82.647928 192.217705 
L 82.879906 181.724584 
L 82.995896 146.938394 
L 83.227875 216.192875 
L 83.343864 152.68016 
L 83.459854 157.011331 
L 83.575843 157.092354 
L 83.807822 181.694542 
L 83.923812 153.850205 
L 84.039801 172.554987 
L 84.155791 151.723718 
L 84.27178 155.775167 
L 84.38777 177.403627 
L 84.503759 158.404583 
L 84.735738 176.247673 
L 84.851728 155.718004 
L 84.967717 157.367342 
L 85.083707 156.918626 
L 85.199696 142.844824 
L 85.431675 195.79825 
L 85.547664 190.380956 
L 85.663654 170.937278 
L 85.779643 170.670255 
L 85.895633 201.435315 
L 86.127612 142.281906 
L 86.243601 198.688178 
L 86.47558 108.894645 
L 86.707559 163.137529 
L 86.939538 199.15594 
L 87.287507 153.706482 
L 87.403496 192.493525 
L 87.519486 173.369983 
L 87.635475 133.373069 
L 87.751464 161.844324 
L 87.867454 160.863052 
L 87.983443 157.373836 
L 88.099433 168.840629 
L 88.215422 160.784541 
L 88.331412 164.652848 
L 88.447401 179.047621 
L 88.563391 176.61402 
L 88.79537 153.789081 
L 89.027349 180.481409 
L 89.143338 152.408571 
L 89.259328 167.71247 
L 89.375317 161.772006 
L 89.491307 147.719181 
L 89.607296 193.189845 
L 89.723286 182.318106 
L 89.839275 153.511642 
L 89.955265 184.438046 
L 90.071254 174.258187 
L 90.187243 153.0442 
L 90.303233 186.572894 
L 90.535212 158.508355 
L 90.651201 210.453791 
L 91.115159 152.066577 
L 91.231149 173.802507 
L 91.463128 125.055587 
L 91.579117 199.203988 
L 91.811096 146.418603 
L 91.927086 155.094213 
L 92.043075 148.519466 
L 92.159065 176.156904 
L 92.275054 172.567047 
L 92.391044 172.965309 
L 92.507033 186.873344 
L 92.623023 151.527711 
L 92.855001 179.736942 
L 92.970991 128.077603 
L 93.20297 182.011002 
L 93.318959 151.863038 
L 93.550938 168.729226 
L 93.666928 162.629391 
L 93.782917 165.881072 
L 93.898907 190.668744 
L 94.130886 163.659545 
L 94.246875 177.804744 
L 94.362865 137.994584 
L 94.594844 168.158405 
L 94.710833 165.62757 
L 94.826823 184.648685 
L 94.942812 163.168579 
L 95.058802 165.279015 
L 95.174791 156.735956 
L 95.40677 166.060952 
L 95.522759 167.847757 
L 95.638749 185.462297 
L 95.754738 154.540974 
L 95.870728 184.496788 
L 95.986717 179.074262 
L 96.102707 145.636853 
L 96.218696 204.187921 
L 96.334686 195.856559 
L 96.450675 172.239878 
L 96.566665 194.232356 
L 96.682654 176.695888 
L 96.798644 185.267 
L 96.914633 174.876495 
L 97.030623 128.576684 
L 97.146612 130.161375 
L 97.262602 129.967977 
L 97.494581 179.949945 
L 97.61057 168.976705 
L 97.842549 186.6466 
L 97.958538 165.190231 
L 98.074528 166.931605 
L 98.190517 191.412001 
L 98.306507 180.281786 
L 98.422496 150.99423 
L 98.654475 187.013274 
L 98.886454 132.299472 
L 99.234423 181.498722 
L 99.350412 165.560598 
L 99.582391 200.181016 
L 99.81437 152.198824 
L 99.93036 152.221596 
L 100.162338 167.485764 
L 100.278328 151.777282 
L 100.394317 184.528151 
L 100.626296 160.230546 
L 100.742286 188.934378 
L 100.858275 172.065501 
L 100.974265 177.297692 
L 101.090254 163.946838 
L 101.206244 170.307325 
L 101.322233 192.391921 
L 101.438223 153.958732 
L 101.670202 180.153369 
L 101.786191 137.576082 
L 102.01817 196.742813 
L 102.366139 145.7297 
L 102.482128 143.734623 
L 102.714107 153.305295 
L 102.830096 160.068716 
L 102.946086 193.170534 
L 103.178065 169.245619 
L 103.294054 197.293822 
L 103.526033 143.656098 
L 103.874002 198.873968 
L 103.989991 185.591587 
L 104.105981 199.742612 
L 104.22197 188.503063 
L 104.453949 124.200842 
L 104.569939 129.658399 
L 104.685928 165.213576 
L 104.801918 140.792187 
L 105.033897 202.309304 
L 105.149886 140.436725 
L 105.265875 149.573899 
L 105.381865 188.999408 
L 105.613844 161.23352 
L 105.845823 233.053818 
L 106.077802 164.506573 
L 106.193791 178.049275 
L 106.309781 109.468808 
L 106.773739 183.070611 
L 106.889728 165.685606 
L 107.121707 182.007802 
L 107.237697 178.8111 
L 107.353686 208.033905 
L 107.585665 170.706639 
L 107.701654 166.837566 
L 107.817644 170.737155 
L 107.933633 181.54994 
L 108.049623 132.832855 
L 108.165612 133.406747 
L 108.397591 161.919173 
L 108.513581 168.741389 
L 108.62957 158.980594 
L 108.861549 186.295522 
L 108.977539 178.496205 
L 109.093528 154.403979 
L 109.209518 181.875223 
L 109.325507 179.581473 
L 109.441497 143.940879 
L 109.673476 173.628109 
L 109.789465 179.662922 
L 109.905455 193.343597 
L 110.601391 111.987599 
L 110.83337 138.559312 
L 111.065349 215.917738 
L 111.181339 202.404656 
L 111.297328 207.563533 
L 111.529307 151.315114 
L 111.645297 179.858026 
L 111.761286 142.434033 
L 111.993265 217.936909 
L 112.225244 174.441785 
L 112.341234 160.386191 
L 112.457223 159.851035 
L 112.573213 174.206408 
L 112.921181 150.835475 
L 113.15316 188.725971 
L 113.269149 181.903496 
L 113.385139 160.789211 
L 113.501128 163.722302 
L 113.617118 160.347636 
L 113.849097 138.041108 
L 113.965086 147.885628 
L 114.197065 187.618356 
L 114.313055 172.884714 
L 114.429044 186.459898 
L 114.545034 180.784205 
L 114.661023 161.820106 
L 114.777013 166.154876 
L 114.893002 158.270781 
L 115.124981 166.449663 
L 115.24097 156.37274 
L 115.35696 189.65008 
L 115.472949 185.133811 
L 115.588939 166.768295 
L 115.704928 169.395497 
L 115.820918 161.41584 
L 115.936907 162.505203 
L 116.284876 141.219573 
L 116.516855 195.343807 
L 116.632844 185.906221 
L 116.748834 206.699828 
L 117.212792 137.141827 
L 117.328781 171.719261 
L 117.56076 163.741901 
L 117.792739 147.793036 
L 118.140707 193.979405 
L 118.256697 144.244411 
L 118.372686 145.62551 
L 118.488676 176.299516 
L 118.604665 146.263382 
L 118.720655 179.75574 
L 118.836644 175.203274 
L 119.068623 197.229319 
L 119.184613 165.517045 
L 119.300602 186.17078 
L 119.416592 160.05783 
L 119.648571 193.311415 
L 119.76456 157.18644 
L 119.88055 178.044369 
L 119.996539 178.740793 
L 120.228518 144.74533 
L 120.344507 144.466473 
L 120.576486 186.373097 
L 120.808465 168.172176 
L 120.924455 169.211282 
L 121.040444 158.766814 
L 121.156434 161.706562 
L 121.272423 150.179001 
L 121.388413 154.30481 
L 121.620392 152.243996 
L 121.736381 176.897111 
L 121.852371 171.100332 
L 121.96836 170.878576 
L 122.200339 211.045855 
L 122.432318 143.561543 
L 122.664297 194.825492 
L 122.896276 150.829344 
L 123.012265 195.450438 
L 123.244244 142.331148 
L 123.360234 179.874998 
L 123.476223 145.880799 
L 123.592213 150.876716 
L 123.708202 185.302037 
L 123.824192 156.760461 
L 123.940181 165.386852 
L 124.056171 159.677263 
L 124.17216 172.295001 
L 124.28815 203.985779 
L 124.520129 143.716343 
L 124.636118 143.26106 
L 124.752108 151.018312 
L 124.868097 179.263089 
L 124.984087 173.020842 
L 125.100076 174.339154 
L 125.216065 195.047997 
L 125.448044 180.795021 
L 125.564034 179.738401 
L 125.912002 134.992456 
L 126.143981 180.11025 
L 126.37596 148.539688 
L 126.49195 156.984745 
L 126.607939 189.430147 
L 126.723929 181.56343 
L 126.955908 155.362644 
L 127.071897 154.769625 
L 127.187887 173.948195 
L 127.419866 136.016227 
L 127.535855 186.531683 
L 127.651844 186.429891 
L 127.767834 163.649881 
L 127.883823 179.904557 
L 127.999813 173.39812 
L 128.115802 187.724833 
L 128.231792 185.673263 
L 128.347781 156.328208 
L 128.57976 184.629959 
L 128.811739 143.110085 
L 129.043718 182.308827 
L 129.391687 135.077204 
L 129.507676 156.1647 
L 129.623666 207.017563 
L 129.855645 175.909903 
L 129.971634 190.000232 
L 130.203613 126.368523 
L 130.319602 184.770799 
L 130.551581 159.441774 
L 130.78356 186.849765 
L 130.89955 185.928671 
L 131.015539 198.963524 
L 131.247518 130.028839 
L 131.479497 174.988988 
L 131.595487 164.011886 
L 131.827466 189.499806 
L 131.943455 185.340043 
L 132.059445 149.998988 
L 132.175434 160.609674 
L 132.407413 231.224841 
L 132.639392 165.799974 
L 132.755381 167.07929 
L 132.871371 126.587371 
L 133.10335 179.450459 
L 133.451318 131.868019 
L 133.567308 149.022203 
L 133.683297 128.709235 
L 133.799287 149.647612 
L 133.915276 191.338876 
L 134.147255 117.327671 
L 134.379234 142.453055 
L 134.495224 84.70057 
L 134.611213 91.477588 
L 134.727203 119.581509 
L 134.843192 110.315377 
L 134.959182 132.197733 
L 135.075171 125.174013 
L 135.423139 188.15889 
L 135.655118 276.482317 
L 136.003087 228.27801 
L 136.119076 231.846643 
L 136.235066 196.711778 
L 136.351055 201.721378 
L 136.467045 234.20637 
L 136.583034 223.823179 
L 136.699024 232.783047 
L 136.931003 182.645842 
L 137.162982 105.188426 
L 137.394961 136.199808 
L 137.51095 134.409444 
L 137.742929 142.035799 
L 137.858918 120.347966 
L 137.974908 128.616102 
L 138.090897 172.203138 
L 138.322876 138.588524 
L 138.438866 165.364885 
L 138.554855 160.360141 
L 138.670845 162.790214 
L 138.786834 169.929029 
L 138.902824 154.204633 
L 139.018813 155.943007 
L 139.134803 169.056412 
L 139.250792 135.24323 
L 139.482771 183.376194 
L 139.598761 149.888769 
L 139.83074 187.682683 
L 140.062719 156.643755 
L 140.294697 168.596012 
L 140.526676 138.43204 
L 140.758655 192.32813 
L 140.874645 175.963379 
L 140.990634 193.156317 
L 141.106624 177.783939 
L 141.222613 138.004909 
L 141.454592 208.785129 
L 141.570582 157.093544 
L 141.802561 185.111488 
L 141.91855 152.063506 
L 142.03454 182.956325 
L 142.150529 182.045067 
L 142.266519 182.116484 
L 142.382508 197.17446 
L 142.614487 157.339619 
L 142.730476 159.56323 
L 142.846466 186.532871 
L 143.078445 154.552857 
L 143.194434 185.243567 
L 143.310424 157.15323 
L 143.426413 179.642354 
L 143.542403 171.809475 
L 143.658392 122.280364 
L 143.890371 183.433036 
L 144.12235 148.984791 
L 144.354329 192.393729 
L 144.586308 161.99288 
L 144.818287 145.026937 
L 144.934277 151.956606 
L 145.166255 186.310453 
L 145.398234 151.531639 
L 145.630213 212.103891 
L 145.862192 168.750944 
L 145.978182 174.269046 
L 146.210161 150.488061 
L 146.44214 182.836627 
L 146.674119 153.684706 
L 146.906098 159.581705 
L 147.022087 155.468026 
L 147.254066 180.76576 
L 147.486045 164.543171 
L 147.602034 136.124144 
L 147.718024 141.324213 
L 147.834013 139.748202 
L 147.950003 141.959649 
L 148.181982 216.696195 
L 148.297971 205.948209 
L 148.52995 172.565336 
L 148.761929 156.568028 
L 148.877919 170.782541 
L 149.109898 141.11284 
L 149.457866 185.680289 
L 149.573856 156.69255 
L 149.921824 181.880728 
L 150.037814 176.008861 
L 150.153803 134.491746 
L 150.385782 165.379164 
L 150.617761 193.587679 
L 150.73375 167.955123 
L 150.965729 183.726701 
L 151.081719 157.718573 
L 151.197708 163.642141 
L 151.429687 186.015574 
L 151.545677 151.935818 
L 151.661666 162.086378 
L 151.777656 203.085238 
L 151.893645 160.320024 
L 152.009635 159.947858 
L 152.125624 185.275668 
L 152.241614 152.580154 
L 152.357603 152.910964 
L 152.589582 165.687072 
L 152.821561 162.495427 
L 152.93755 173.820005 
L 153.05354 169.744681 
L 153.169529 173.425572 
L 153.285519 167.769844 
L 153.401508 169.272102 
L 153.517498 191.94912 
L 153.749477 128.769424 
L 153.865466 158.108854 
L 154.097445 139.718118 
L 154.561403 204.554273 
L 154.677393 198.720788 
L 154.909372 154.779667 
L 155.025361 195.881871 
L 155.14135 185.892227 
L 155.373329 139.222359 
L 155.489319 142.583026 
L 155.605308 187.984483 
L 155.721298 178.146539 
L 155.837287 149.350216 
L 155.953277 164.722727 
L 156.069266 155.523793 
L 156.185256 158.298139 
L 156.301245 177.062878 
L 156.417235 170.191694 
L 156.533224 173.319849 
L 156.649214 184.049886 
L 156.765203 166.939692 
L 156.881193 167.386316 
L 156.997182 221.262876 
L 157.113172 201.725966 
L 157.229161 159.108735 
L 157.345151 175.176608 
L 157.577129 119.694622 
L 157.809108 176.270613 
L 157.925098 139.16252 
L 158.041087 155.782237 
L 158.157077 195.41405 
L 158.389056 174.190022 
L 158.505045 172.049715 
L 158.621035 164.208564 
L 158.737024 187.584292 
L 158.853014 186.15719 
L 158.969003 153.437946 
L 159.200982 176.323005 
L 159.316972 143.740838 
L 159.548951 169.91062 
L 159.66494 156.387362 
L 159.78093 167.367514 
L 159.896919 164.682581 
L 160.012909 166.654681 
L 160.244887 179.370743 
L 160.476866 142.080349 
L 160.592856 145.516426 
L 160.824835 168.677933 
L 160.940824 134.758896 
L 161.172803 199.746459 
L 161.404782 171.495024 
L 161.520772 171.390308 
L 161.752751 190.914934 
L 161.86874 183.848515 
L 161.98473 147.764022 
L 162.216709 156.947552 
L 162.332698 156.68102 
L 162.448688 192.855457 
L 162.564677 180.593157 
L 162.680666 183.345551 
L 162.796656 181.637265 
L 162.912645 155.61126 
L 163.144624 198.619786 
L 163.376603 140.197351 
L 163.492593 144.25689 
L 163.608582 154.343626 
L 163.840561 201.700788 
L 163.956551 189.635919 
L 164.18853 138.339141 
L 164.420509 156.304208 
L 164.536498 167.119211 
L 164.768477 149.593058 
L 165.000456 185.539444 
L 165.116445 177.611464 
L 165.232435 156.532745 
L 165.348424 163.505205 
L 165.580403 206.818348 
L 165.812382 143.030677 
L 165.928372 152.46594 
L 166.044361 148.087688 
L 166.27634 163.56107 
L 166.39233 157.424881 
L 166.624309 179.695255 
L 166.740298 167.180909 
L 166.972277 175.707911 
L 167.088267 176.492166 
L 167.204256 163.159531 
L 167.320246 163.129756 
L 167.552224 145.301328 
L 167.668214 182.004051 
L 167.784203 166.508303 
L 168.016182 201.698361 
L 168.132172 169.138973 
L 168.248161 196.504073 
L 168.48014 140.671816 
L 168.712119 185.390396 
L 168.944098 144.478375 
L 169.060088 160.934829 
L 169.292067 144.62815 
L 169.524046 198.979393 
L 169.640035 198.045574 
L 169.756025 183.731361 
L 169.988004 126.827484 
L 170.219982 148.716848 
L 170.335972 154.264896 
L 170.567951 192.741371 
L 170.68394 190.340459 
L 171.031909 167.65631 
L 171.147898 175.432456 
L 171.263888 150.58935 
L 171.379877 160.264736 
L 171.495867 190.74529 
L 171.611856 156.479185 
L 171.727846 173.99828 
L 171.843835 160.862131 
L 171.959825 171.171377 
L 172.075814 216.484258 
L 172.307793 120.912011 
L 172.539772 169.783572 
L 172.655761 176.656831 
L 172.88774 168.634312 
L 173.00373 138.860425 
L 173.235709 169.459242 
L 173.351698 164.356084 
L 173.467688 209.348153 
L 173.699667 159.716843 
L 173.815656 165.275687 
L 173.931646 186.860529 
L 174.163625 129.516044 
L 174.279614 159.948009 
L 174.395604 138.130227 
L 174.511593 151.861613 
L 174.743572 223.655332 
L 174.975551 175.011021 
L 175.09154 187.960521 
L 175.20753 146.512148 
L 175.439509 176.46588 
L 175.555498 176.027044 
L 175.671488 173.473449 
L 175.787477 153.403629 
L 175.903467 183.654207 
L 176.135446 137.368272 
L 176.251435 157.324459 
L 176.367425 117.010028 
L 176.599404 181.481401 
L 176.715393 142.761409 
L 176.831383 167.776343 
L 176.947372 158.622737 
L 177.063362 164.21039 
L 177.179351 200.948961 
L 177.295341 177.200688 
L 177.41133 182.191164 
L 177.527319 178.363713 
L 177.643309 129.96485 
L 177.875288 201.168936 
L 178.107267 159.383256 
L 178.339246 177.020824 
L 178.455235 145.006913 
L 178.571225 155.911978 
L 178.687214 183.104797 
L 178.803204 184.227314 
L 179.035183 145.227965 
L 179.151172 193.764772 
L 179.383151 157.684244 
L 179.499141 160.577202 
L 179.61513 166.417227 
L 179.73112 200.990904 
L 180.311067 152.195178 
L 180.427056 127.761489 
L 180.543046 149.622508 
L 180.659035 195.082922 
L 180.891014 147.619581 
L 181.122993 175.333368 
L 181.354972 196.006988 
L 181.586951 155.367322 
L 181.81893 178.842799 
L 182.050909 129.083063 
L 182.282888 188.637954 
L 182.514867 155.567418 
L 182.746846 187.903556 
L 182.862835 184.584268 
L 183.094814 145.48236 
L 183.326793 164.290359 
L 183.442783 192.980416 
L 183.558772 190.52041 
L 183.674762 191.865088 
L 183.906741 160.478358 
L 184.02273 177.726281 
L 184.13872 153.687608 
L 184.254709 156.347481 
L 184.486688 175.527762 
L 184.602678 171.78212 
L 184.718667 147.925738 
L 184.950646 164.054874 
L 185.066635 154.779673 
L 185.182625 164.050718 
L 185.298614 163.45321 
L 185.414604 140.146982 
L 185.530593 147.752655 
L 185.762572 183.954645 
L 185.878562 185.316092 
L 186.110541 199.611493 
L 186.22653 158.597207 
L 186.458509 165.780803 
L 186.574499 183.256578 
L 186.690488 222.161154 
L 186.806478 156.774786 
L 187.038457 173.738493 
L 187.154446 110.141549 
L 187.386425 154.486982 
L 187.502414 142.670636 
L 187.734393 178.859231 
L 187.850383 196.095536 
L 188.082362 154.856764 
L 188.314341 212.633558 
L 188.43033 157.191102 
L 188.54632 167.112645 
L 188.662309 199.887635 
L 188.778299 149.05181 
L 189.010278 172.979158 
L 189.126267 130.61179 
L 189.358246 185.04163 
L 189.474236 187.740335 
L 189.590225 211.594076 
L 189.706215 211.733228 
L 189.938194 145.537539 
L 190.054183 190.191537 
L 190.286162 131.999973 
L 190.518141 154.560922 
L 190.63413 152.58755 
L 190.75012 113.768357 
L 190.982099 178.475573 
L 191.098088 142.296828 
L 191.330067 167.33085 
L 191.562046 177.795771 
L 191.794025 188.666582 
L 191.910015 152.093373 
L 192.141994 187.222217 
L 192.373973 155.503549 
L 192.489962 171.62088 
L 192.605951 217.251873 
L 192.83793 136.004972 
L 192.95392 159.866611 
L 193.185899 140.835833 
L 193.417878 206.19926 
L 193.765846 149.629086 
L 193.881836 152.136159 
L 194.113815 188.974047 
L 194.345794 161.815293 
L 194.461783 199.807232 
L 194.693762 157.125745 
L 194.809752 205.974979 
L 194.925741 136.045021 
L 195.04173 142.85608 
L 195.15772 175.93529 
L 195.273709 148.648099 
L 195.389699 152.698782 
L 195.505688 142.093892 
L 195.969646 226.812279 
L 196.201625 154.585215 
L 196.317615 162.672527 
L 196.433604 151.930767 
L 196.549594 160.369291 
L 196.665583 155.860009 
L 196.781573 141.897911 
L 196.897562 166.427882 
L 197.013552 164.606209 
L 197.129541 171.940341 
L 197.245531 201.094264 
L 197.36152 164.375673 
L 197.47751 172.760065 
L 197.593499 171.530229 
L 197.709488 145.528409 
L 197.941467 172.964549 
L 198.173446 160.134196 
L 198.289436 191.023615 
L 198.521415 165.084862 
L 198.637404 223.670972 
L 198.869383 130.622977 
L 198.985373 142.476623 
L 199.101362 142.456728 
L 199.217352 177.26436 
L 199.333341 151.029184 
L 199.56532 181.832179 
L 199.68131 140.148386 
L 199.797299 177.112448 
L 200.029278 146.998801 
L 200.145267 187.202483 
L 200.261257 160.888562 
L 200.493236 199.493821 
L 200.725215 151.51022 
L 200.841204 152.913636 
L 201.189173 214.302008 
L 201.305162 209.282627 
L 201.421152 151.51538 
L 201.653131 188.371713 
L 201.76912 148.45439 
L 201.88511 154.140824 
L 202.001099 139.076649 
L 202.117089 144.669967 
L 202.233078 164.367333 
L 202.349068 148.409871 
L 202.465057 170.226084 
L 202.581046 146.135143 
L 202.813025 201.637754 
L 202.929015 148.199853 
L 203.045004 163.900035 
L 203.160994 149.903517 
L 203.276983 155.732175 
L 203.392973 204.001274 
L 203.508962 155.575518 
L 203.856931 182.040082 
L 203.97292 216.36634 
L 204.08891 181.689874 
L 204.204899 182.233858 
L 204.436878 138.048964 
L 204.552868 152.429444 
L 204.668857 137.878798 
L 204.900836 171.477718 
L 205.016825 169.631871 
L 205.248804 203.716333 
L 205.364794 206.164636 
L 205.480783 205.057874 
L 205.712762 165.390262 
L 205.828752 175.604618 
L 205.944741 156.559662 
L 206.17672 183.447206 
L 206.29271 173.471063 
L 206.408699 173.294006 
L 206.524689 132.680829 
L 206.756668 178.760496 
L 206.872657 139.984741 
L 206.988647 142.164302 
L 207.104636 127.282682 
L 207.220626 130.36756 
L 207.336615 136.970494 
L 207.452605 127.010222 
L 207.684583 90.021485 
L 207.800573 116.144384 
L 207.916562 97.66405 
L 208.032552 98.808192 
L 208.38052 192.054302 
L 208.612499 230.427888 
L 208.960468 295.488 
L 209.192447 216.345767 
L 209.308436 181.807477 
L 209.424426 184.767662 
L 209.656405 229.121799 
L 209.772394 237.232232 
L 210.236352 88.92748 
L 210.352341 94.272268 
L 210.468331 123.207708 
L 210.58432 103.422888 
L 210.70031 111.14532 
L 210.816299 149.729961 
L 210.932289 150.43957 
L 211.048278 141.570017 
L 211.164268 184.955558 
L 211.396247 165.216267 
L 211.512236 173.525369 
L 211.628226 139.312579 
L 211.976194 171.985499 
L 212.208173 132.527335 
L 212.440152 162.811453 
L 212.556141 178.72673 
L 212.672131 168.90534 
L 212.78812 173.725418 
L 212.90411 193.614412 
L 213.020099 163.662655 
L 213.136089 167.403693 
L 213.368068 189.059468 
L 213.600047 140.528754 
L 213.716036 170.207568 
L 213.832026 166.876693 
L 213.948015 185.487328 
L 214.064005 155.364315 
L 214.179994 162.834963 
L 214.295984 218.475333 
L 214.411973 175.943716 
L 214.643952 204.230397 
L 214.875931 144.930731 
L 214.99192 136.793107 
L 215.10791 197.580931 
L 215.223899 182.512754 
L 215.339889 142.400452 
L 215.455878 187.361733 
L 215.687857 167.366781 
L 215.803847 163.081945 
L 215.919836 142.342512 
L 216.267805 187.484217 
L 216.383794 179.669151 
L 216.499784 150.918819 
L 216.731763 182.272609 
L 216.847752 179.339982 
L 216.963742 160.882621 
L 217.195721 172.344635 
L 217.31171 160.975159 
L 217.4277 171.869267 
L 217.543689 153.172756 
L 217.775668 171.660032 
L 217.891657 171.629846 
L 218.007647 188.585719 
L 218.239626 110.29888 
L 218.471605 175.383076 
L 218.587594 173.032059 
L 218.703584 178.334722 
L 218.819573 198.075846 
L 218.935563 187.111269 
L 219.051552 129.359176 
L 219.167542 142.718707 
L 219.283531 199.73671 
L 219.747489 148.378788 
L 219.863479 174.937892 
L 219.979468 158.104897 
L 220.211447 188.259705 
L 220.327436 171.180319 
L 220.443426 181.865705 
L 220.675405 142.620901 
L 220.791394 137.358948 
L 221.023373 171.8875 
L 221.139363 164.527527 
L 221.371342 193.9054 
L 221.487331 178.769912 
L 221.71931 194.724832 
L 221.951289 184.963835 
L 222.183268 130.491172 
L 222.299258 136.884506 
L 222.415247 123.386811 
L 222.531236 125.539317 
L 222.763215 188.843035 
L 222.879205 166.600932 
L 222.995194 171.280032 
L 223.111184 204.329778 
L 223.227173 188.344556 
L 223.343163 154.421142 
L 223.459152 170.25038 
L 223.575142 169.270336 
L 223.691131 154.893768 
L 223.807121 168.340817 
L 223.92311 161.874667 
L 224.0391 161.969886 
L 224.155089 167.393282 
L 224.271079 156.896473 
L 224.503058 199.794266 
L 224.619047 169.800293 
L 224.735037 175.31015 
L 224.967015 149.725807 
L 225.083005 180.811439 
L 225.198994 175.104457 
L 225.314984 152.615042 
L 225.430973 155.038154 
L 225.546963 147.49661 
L 225.778942 172.615186 
L 225.894931 152.976021 
L 226.12691 156.379224 
L 226.2429 164.438417 
L 226.358889 156.821603 
L 226.590868 192.227361 
L 226.706858 179.037372 
L 226.822847 195.291043 
L 227.054826 163.410029 
L 227.170816 188.963281 
L 227.286805 146.614163 
L 227.518784 193.119486 
L 227.634773 160.686132 
L 227.750763 168.200835 
L 227.982742 150.184323 
L 228.214721 168.047619 
L 228.33071 190.751906 
L 228.4467 162.977682 
L 228.678679 174.633962 
L 228.794668 144.013106 
L 228.910658 174.294177 
L 229.026647 175.274068 
L 229.258626 171.552415 
L 229.374616 153.929245 
L 229.490605 166.969315 
L 229.606595 155.076152 
L 229.838574 202.977914 
L 230.070552 166.865302 
L 230.186542 153.767861 
L 230.302531 117.998071 
L 230.53451 172.530825 
L 230.6505 152.96775 
L 230.882479 225.807573 
L 231.230447 155.755964 
L 231.346437 188.383755 
L 231.578416 145.50562 
L 231.694405 146.566444 
L 231.810395 156.801078 
L 231.926384 190.526281 
L 232.042374 151.417218 
L 232.274353 188.605261 
L 232.390342 166.290917 
L 232.506331 178.180572 
L 232.622321 146.187518 
L 232.73831 154.414701 
L 232.8543 179.427096 
L 233.086279 139.113572 
L 233.202268 137.436331 
L 233.434247 180.412831 
L 233.550237 170.202061 
L 233.666226 170.596734 
L 233.782216 160.539693 
L 234.014195 191.111786 
L 234.130184 159.892782 
L 234.246174 174.950718 
L 234.362163 171.495507 
L 234.478153 195.999082 
L 234.594142 194.166695 
L 234.710132 154.317907 
L 234.826121 193.308191 
L 235.0581 143.540554 
L 235.174089 184.902055 
L 235.290079 178.650541 
L 235.406068 180.527032 
L 235.522058 170.93878 
L 235.638047 172.336969 
L 235.870026 133.341598 
L 236.102005 161.226726 
L 236.217995 172.129869 
L 236.333984 149.771391 
L 236.449974 150.112972 
L 236.565963 198.236204 
L 236.681953 182.385388 
L 236.797942 187.405404 
L 236.913932 185.048005 
L 237.029921 150.513042 
L 237.145911 189.541204 
L 237.2619 172.167974 
L 237.37789 135.558984 
L 237.493879 145.991099 
L 237.609868 144.486047 
L 237.725858 184.227317 
L 237.957837 139.553538 
L 238.073826 160.580805 
L 238.189816 151.594066 
L 238.537784 189.143903 
L 238.653774 200.244523 
L 238.769763 168.015747 
L 238.885753 171.620364 
L 239.001742 190.638746 
L 239.233721 148.123418 
L 239.4657 178.614628 
L 239.697679 146.30573 
L 239.929658 213.580346 
L 240.393616 128.071286 
L 240.509605 142.679256 
L 240.625595 138.241729 
L 240.973563 192.885517 
L 241.089553 191.894365 
L 241.205542 172.707117 
L 241.321532 183.459988 
L 241.553511 159.36526 
L 241.6695 161.581206 
L 241.78549 160.520671 
L 241.901479 179.949007 
L 242.133458 153.075934 
L 242.249448 169.580999 
L 242.597416 132.57907 
L 242.829395 217.616495 
L 242.945384 190.209311 
L 243.061374 195.752013 
L 243.293353 150.837466 
L 243.409342 196.270453 
L 243.641321 155.410406 
L 243.8733 109.51344 
L 243.98929 161.358658 
L 244.105279 145.687792 
L 244.337258 178.218142 
L 244.453248 170.014823 
L 244.801216 211.668792 
L 244.917205 196.011341 
L 245.033195 208.270654 
L 245.265174 154.530797 
L 245.497153 174.841487 
L 245.729132 147.043871 
L 245.845121 159.514288 
L 246.0771 155.081312 
L 246.309079 143.255227 
L 246.425069 175.369984 
L 246.657048 149.243605 
L 246.773037 148.590048 
L 247.005016 203.396774 
L 247.468974 153.496017 
L 247.584963 183.528663 
L 247.700953 150.342742 
L 247.932932 174.491718 
L 248.048921 143.462668 
L 248.164911 183.553273 
L 248.2809 182.364751 
L 248.39689 163.166142 
L 248.512879 189.327155 
L 248.628869 165.67391 
L 248.860848 172.105153 
L 248.976837 143.585324 
L 249.208816 173.520822 
L 249.440795 163.613935 
L 249.672774 177.767245 
L 249.788764 120.568989 
L 250.020742 172.86427 
L 250.136732 146.692781 
L 250.252721 191.220172 
L 250.4847 181.479499 
L 250.60069 218.426203 
L 250.716679 174.955881 
L 250.832669 180.168296 
L 251.064648 157.624831 
L 251.180637 184.343288 
L 251.296627 147.921782 
L 251.412616 152.861513 
L 251.528606 178.179505 
L 251.644595 177.508246 
L 251.760585 140.16904 
L 251.876574 145.046561 
L 251.992564 180.486412 
L 252.108553 158.810009 
L 252.224543 176.300044 
L 252.340532 172.477378 
L 252.456521 131.629664 
L 252.572511 131.714995 
L 252.80449 199.525367 
L 252.920479 168.183602 
L 253.036469 182.759073 
L 253.152458 180.119234 
L 253.384437 195.44767 
L 253.732406 131.298771 
L 254.196364 198.020383 
L 254.312353 200.414142 
L 254.428343 194.241897 
L 254.660322 133.184813 
L 254.776311 138.678667 
L 254.8923 171.623829 
L 255.124279 154.513667 
L 255.240269 170.747273 
L 255.356258 141.878388 
L 255.472248 145.007723 
L 255.820216 193.539725 
L 255.936206 150.34161 
L 256.052195 149.462689 
L 256.168185 182.337811 
L 256.284174 180.717872 
L 256.400164 134.258718 
L 256.516153 133.783646 
L 256.748132 174.267572 
L 256.864122 185.37343 
L 257.096101 179.792413 
L 257.21209 183.455061 
L 257.32808 197.371655 
L 257.560058 159.312725 
L 257.676048 183.303007 
L 257.792037 179.359658 
L 257.908027 184.776048 
L 258.140006 136.666337 
L 258.255995 168.29515 
L 258.371985 141.903428 
L 258.487974 154.410048 
L 258.603964 192.040935 
L 258.835943 161.117581 
L 258.951932 147.769917 
L 259.067922 158.663011 
L 259.183911 187.113464 
L 259.299901 164.451894 
L 259.53188 192.154915 
L 259.647869 152.506186 
L 259.763859 152.456756 
L 259.879848 162.966554 
L 259.995837 150.375056 
L 260.111827 150.286469 
L 260.227816 169.481868 
L 260.343806 164.430939 
L 260.575785 201.145806 
L 260.807764 158.481518 
L 260.923753 155.134223 
L 261.039743 176.324122 
L 261.271722 136.979931 
L 261.387711 208.811946 
L 261.61969 137.355415 
L 261.73568 191.311938 
L 261.851669 184.646384 
L 261.967659 199.485932 
L 262.083648 170.2808 
L 262.199638 174.7945 
L 262.315627 197.249853 
L 262.431616 145.884746 
L 262.547606 162.554542 
L 262.663595 141.836119 
L 262.779585 155.062661 
L 262.895574 193.259528 
L 263.011564 144.417992 
L 263.243543 189.00171 
L 263.475522 158.994506 
L 263.591511 158.755456 
L 263.707501 170.312234 
L 264.055469 147.729885 
L 264.171459 147.215086 
L 264.403438 177.249803 
L 264.635417 158.986627 
L 264.751406 163.945049 
L 264.867395 155.347115 
L 265.099374 186.072268 
L 265.215364 175.202107 
L 265.331353 147.878716 
L 265.447343 154.872861 
L 265.563332 190.768029 
L 265.679322 159.599576 
L 265.795311 165.932249 
L 265.911301 189.042364 
L 266.02729 177.473715 
L 266.14328 180.69448 
L 266.259269 172.272375 
L 266.375259 177.803069 
L 266.491248 175.709473 
L 266.607238 158.750141 
L 266.723227 158.076883 
L 266.955206 162.314515 
L 267.187185 127.910069 
L 267.419164 211.042277 
L 267.651143 179.9824 
L 267.767132 151.834122 
L 267.883122 174.376246 
L 267.999111 174.563389 
L 268.115101 136.632204 
L 268.34708 191.461415 
L 268.579059 151.087723 
L 268.695048 153.043962 
L 268.811038 198.439744 
L 268.927027 173.644191 
L 269.043017 181.78337 
L 269.159006 175.880369 
L 269.274996 146.374877 
L 269.390985 160.077575 
L 269.506975 159.121775 
L 269.622964 167.923375 
L 269.738954 142.91737 
L 269.970932 194.26759 
L 270.318901 141.794143 
L 270.55088 181.299016 
L 270.666869 161.668357 
L 270.782859 200.739749 
L 271.014838 160.756055 
L 271.130827 209.378083 
L 271.246817 192.147242 
L 271.362806 196.930912 
L 271.478796 185.062572 
L 271.594785 149.140255 
L 271.710775 172.692288 
L 271.826764 154.567965 
L 271.942754 154.83433 
L 272.058743 158.375896 
L 272.174733 111.194941 
L 272.406711 163.963026 
L 272.63869 107.076496 
L 272.75468 88.781647 
L 272.870669 118.326139 
L 272.986659 116.277362 
L 273.102648 108.715405 
L 273.566606 199.777537 
L 273.682596 180.180276 
L 273.798585 227.65169 
L 273.914575 227.738359 
L 274.146554 229.113482 
L 274.262543 217.14117 
L 274.378533 225.989846 
L 274.494522 200.82688 
L 274.726501 244.55785 
L 275.074469 196.163739 
L 275.190459 167.028222 
L 275.306448 109.14584 
L 275.422438 113.179978 
L 275.538427 147.670451 
L 275.770406 137.998054 
L 275.886396 146.323705 
L 276.002385 171.53105 
L 276.350354 109.749562 
L 276.582333 170.044383 
L 276.698322 164.004173 
L 276.930301 126.872532 
L 277.16228 152.706195 
L 277.27827 161.107718 
L 277.394259 189.285095 
L 277.510248 175.097005 
L 277.626238 179.895958 
L 277.742227 173.923751 
L 278.090196 140.746355 
L 278.206185 193.991498 
L 278.322175 182.023767 
L 278.438164 157.089621 
L 278.554154 195.26031 
L 278.670143 166.931865 
L 278.786133 178.177047 
L 278.902122 204.114977 
L 279.018112 182.32779 
L 279.134101 203.567888 
L 279.36608 122.60012 
L 279.48207 140.984411 
L 279.830038 189.452502 
L 279.946027 187.95668 
L 280.062017 174.985083 
L 280.293996 141.53773 
L 280.409985 199.988879 
L 280.525975 199.239669 
L 280.641964 187.199431 
L 280.757954 205.430831 
L 280.873943 160.209114 
L 280.989933 167.056549 
L 281.105922 198.104151 
L 281.221912 162.163963 
L 281.453891 180.653464 
L 281.56988 132.275857 
L 281.801859 180.431771 
L 281.917849 138.966727 
L 282.033838 139.145399 
L 282.149828 138.350192 
L 282.265817 134.843203 
L 282.497796 174.808389 
L 282.729775 152.832295 
L 282.961754 187.408236 
L 283.077743 166.480845 
L 283.309722 176.814399 
L 283.425712 164.643155 
L 283.541701 165.204493 
L 283.657691 167.71334 
L 283.77368 129.882345 
L 284.005659 212.64725 
L 284.121649 166.375566 
L 284.237638 180.351322 
L 284.353628 135.134819 
L 284.469617 147.094872 
L 284.585607 205.592391 
L 284.701596 180.37332 
L 284.817586 198.422801 
L 284.933575 178.220658 
L 285.049564 180.769269 
L 285.281543 135.289196 
L 285.397533 173.533229 
L 285.513522 145.080817 
L 285.745501 202.396614 
L 285.97748 173.218894 
L 286.09347 168.620103 
L 286.209459 176.046927 
L 286.441438 133.87476 
L 286.557428 119.876728 
L 286.673417 134.218581 
L 286.789407 180.100647 
L 286.905396 178.34236 
L 287.021386 196.240988 
L 287.253365 172.635045 
L 287.369354 204.416642 
L 287.601333 139.71381 
L 287.717322 191.989944 
L 287.833312 176.061023 
L 287.949301 187.975299 
L 288.065291 214.400856 
L 288.29727 122.679701 
L 288.529249 163.529608 
L 288.645238 199.540345 
L 288.877217 131.440364 
L 288.993207 171.457434 
L 289.109196 165.07891 
L 289.225186 140.502705 
L 289.457165 174.369443 
L 289.573154 167.384261 
L 289.689144 167.115744 
L 289.921122 188.069466 
L 290.037112 165.867394 
L 290.153101 178.742971 
L 290.269091 204.066175 
L 290.50107 194.979574 
L 290.617059 163.367864 
L 290.849038 173.590993 
L 291.081017 85.72711 
L 291.197007 85.868107 
L 291.776954 254.963543 
L 292.008933 183.490857 
L 292.124923 206.52499 
L 292.356901 142.42576 
L 292.472891 162.574392 
L 292.58888 159.752947 
L 292.70487 159.932373 
L 292.820859 158.372499 
L 292.936849 144.009227 
L 293.052838 162.269314 
L 293.168828 206.215211 
L 293.284817 197.056382 
L 293.400807 143.477204 
L 293.516796 157.275516 
L 293.632786 197.802188 
L 293.864765 148.102336 
L 294.096744 189.52134 
L 294.328723 167.40612 
L 294.444712 174.757507 
L 294.676691 119.524544 
L 294.90867 133.451738 
L 295.140649 197.650338 
L 295.256638 186.950937 
L 295.372628 188.219042 
L 295.488617 194.09177 
L 295.720596 154.743001 
L 295.836586 165.267444 
L 295.952575 143.514126 
L 296.068565 153.15233 
L 296.300544 212.948142 
L 296.416533 193.462727 
L 296.532523 149.952434 
L 296.648512 153.982854 
L 296.880491 172.701866 
L 296.996481 166.498522 
L 297.11247 145.411578 
L 297.22846 148.054924 
L 297.344449 146.328686 
L 297.460438 163.585749 
L 297.576428 203.9723 
L 297.692417 193.475525 
L 297.924396 141.669451 
L 298.040386 124.287756 
L 298.272365 203.293935 
L 298.388354 163.518362 
L 298.620333 185.022981 
L 298.852312 179.627037 
L 298.968302 168.546646 
L 299.084291 218.327446 
L 299.31627 124.043346 
L 299.43226 172.849223 
L 299.664239 129.566853 
L 299.896217 161.568416 
L 300.244186 186.916725 
L 300.360175 172.182287 
L 300.476165 174.263781 
L 300.592154 195.259676 
L 300.708144 184.353561 
L 300.824133 192.375955 
L 300.940123 161.842914 
L 301.056112 162.796953 
L 301.172102 162.741686 
L 301.288091 104.929469 
L 301.52007 132.467048 
L 301.63606 134.970368 
L 301.868039 217.593536 
L 301.984028 241.322976 
L 302.100018 238.477757 
L 302.331996 152.841445 
L 302.447986 143.669247 
L 302.795954 90.511917 
L 302.911944 126.09502 
L 303.143923 259.371624 
L 303.259912 246.80653 
L 303.491891 157.848 
L 303.607881 149.711732 
L 303.72387 123.324895 
L 303.83986 142.489299 
L 303.955849 124.632105 
L 304.187828 183.797965 
L 304.303818 139.855072 
L 304.419807 182.151392 
L 304.535797 172.916369 
L 304.767776 208.58507 
L 305.115744 171.962982 
L 305.231733 187.607552 
L 305.347723 154.813972 
L 305.463712 159.917023 
L 305.579702 175.901588 
L 305.695691 169.816427 
L 305.811681 193.923585 
L 306.275639 64.700833 
L 306.391628 93.166802 
L 306.623607 183.149364 
L 306.855586 249.788055 
L 306.971576 235.810561 
L 307.319544 87.099596 
L 307.435533 68.754572 
L 307.783502 263.94604 
L 307.899491 264.262351 
L 308.015481 232.665343 
L 308.13147 234.998183 
L 308.711418 111.911736 
L 308.827407 118.303536 
L 308.943397 168.952491 
L 309.059386 147.198975 
L 309.175376 183.605929 
L 309.291365 179.946264 
L 309.407355 150.841653 
L 309.523344 195.516484 
L 309.755323 144.120533 
L 310.103291 205.631242 
L 310.219281 200.612615 
L 310.33527 217.560903 
L 310.799228 107.457849 
L 310.915218 117.371089 
L 311.147197 178.144365 
L 311.379176 209.212224 
L 311.727144 146.208287 
L 311.843134 145.012497 
L 311.959123 158.280258 
L 312.075113 143.107374 
L 312.191102 169.365091 
L 312.423081 155.242854 
L 312.53907 165.763109 
L 312.65506 142.123935 
L 312.887039 164.815837 
L 313.003028 168.633995 
L 313.235007 192.948368 
L 313.350997 190.267047 
L 313.466986 179.265701 
L 313.582976 196.911526 
L 313.814955 160.562358 
L 313.930944 186.720182 
L 314.278913 114.149322 
L 314.394902 125.842722 
L 314.626881 201.450789 
L 314.85886 195.241295 
L 314.974849 168.394622 
L 315.206828 196.44679 
L 315.438807 138.503805 
L 315.554797 172.361677 
L 315.786776 144.483235 
L 316.018755 152.870226 
L 316.250734 170.570133 
L 316.366723 176.055742 
L 316.482713 200.941088 
L 316.598702 194.629466 
L 316.714692 165.981923 
L 316.830681 179.419613 
L 317.06266 118.489562 
L 317.294639 173.342111 
L 317.526618 199.209099 
L 317.642607 147.614506 
L 317.874586 184.301146 
L 317.990576 142.567959 
L 318.106565 145.744872 
L 318.338544 179.25629 
L 318.454534 161.061508 
L 318.570523 165.173197 
L 318.686513 176.81505 
L 319.034481 130.977399 
L 319.26646 187.421026 
L 319.38245 162.163592 
L 319.614429 212.692096 
L 319.846407 151.059017 
L 319.962397 150.970804 
L 320.194376 168.238963 
L 320.310365 191.30959 
L 320.542344 152.192418 
L 320.774323 200.993655 
L 321.006302 174.986908 
L 321.122292 123.680803 
L 321.238281 137.196029 
L 321.354271 170.884921 
L 321.47026 156.089644 
L 321.58625 156.30316 
L 321.702239 149.745988 
L 321.818229 157.290301 
L 322.050208 179.245655 
L 322.282186 196.947859 
L 322.514165 144.997284 
L 322.746144 194.703293 
L 322.862134 156.108998 
L 322.978123 157.219372 
L 323.094113 175.874462 
L 323.326092 156.65291 
L 323.442081 150.289837 
L 323.558071 133.059811 
L 323.79005 175.988019 
L 323.906039 166.881166 
L 324.138018 210.366201 
L 324.254008 204.634707 
L 324.485987 141.637125 
L 324.601976 182.110756 
L 324.833955 131.509695 
L 325.065934 147.952126 
L 325.181923 178.616613 
L 325.297913 174.280273 
L 325.413902 160.149968 
L 325.529892 165.806595 
L 325.645881 178.48153 
L 325.761871 172.443339 
L 325.99385 144.890064 
L 326.109839 154.089868 
L 326.225829 186.09426 
L 326.341818 179.495007 
L 326.573797 137.783765 
L 326.689787 151.579776 
L 326.921766 229.217488 
L 327.037755 228.875665 
L 327.385723 151.353526 
L 327.501713 157.59371 
L 327.733692 108.420635 
L 327.849681 115.322074 
L 328.08166 181.60258 
L 328.19765 181.562199 
L 328.313639 212.822008 
L 328.429629 212.387667 
L 328.661608 199.819928 
L 328.777597 158.889306 
L 329.009576 202.424229 
L 329.125566 159.995406 
L 329.241555 159.835993 
L 329.357545 156.496437 
L 329.473534 142.210898 
L 329.589524 167.207885 
L 329.821502 124.626064 
L 330.053481 167.552147 
L 330.169471 166.726089 
L 330.28546 156.599636 
L 330.517439 180.822131 
L 330.633429 175.348247 
L 330.749418 177.333092 
L 330.865408 161.502806 
L 331.097387 191.602759 
L 331.213376 181.34682 
L 331.329366 199.100584 
L 331.445355 190.843028 
L 331.677334 144.708239 
L 331.793324 163.193034 
L 332.025303 129.200521 
L 332.141292 154.093957 
L 332.373271 119.589959 
L 332.60525 161.56094 
L 332.721239 161.158536 
L 332.837229 213.621547 
L 333.069208 181.550454 
L 333.185197 206.403983 
L 333.417176 169.287493 
L 333.533166 157.712082 
L 333.765145 194.751849 
L 333.997124 170.231014 
L 334.113113 153.540953 
L 334.229103 171.323124 
L 334.461082 88.764138 
L 334.80905 202.899875 
L 335.041029 171.358341 
L 335.157018 171.966571 
L 335.273008 134.397794 
L 335.620976 193.022929 
L 335.736966 242.886211 
L 335.968945 131.066263 
L 336.200924 192.37203 
L 336.316913 195.350964 
L 336.432903 215.33676 
L 336.664882 151.601767 
L 336.780871 158.470171 
L 336.896861 139.31857 
L 337.01285 148.108241 
L 337.12884 171.167106 
L 337.244829 171.610039 
L 337.476808 173.050918 
L 337.592797 170.094829 
L 337.940766 121.958153 
L 338.404724 200.057519 
L 338.636703 185.620501 
L 338.752692 189.515668 
L 338.984671 168.124122 
L 339.100661 166.150278 
L 339.21665 148.857253 
L 339.448629 174.496519 
L 339.564619 166.223631 
L 339.680608 175.560025 
L 339.912587 162.957011 
L 340.028576 163.144307 
L 340.144566 166.509358 
L 340.260555 191.431749 
L 340.492534 142.131152 
L 340.608524 186.553232 
L 340.724513 184.491037 
L 340.840503 165.072239 
L 341.072482 189.700393 
L 341.304461 147.513105 
L 341.652429 202.519653 
L 341.884408 161.211178 
L 342.000398 163.963253 
L 342.116387 169.8973 
L 342.232376 186.779077 
L 342.464355 136.381422 
L 342.696334 159.190278 
L 342.928313 148.570534 
L 343.160292 103.838782 
L 343.276282 118.739775 
L 343.392271 111.483733 
L 343.62425 53.568 
L 343.74024 78.664454 
L 343.972219 219.977838 
L 344.088208 204.819545 
L 344.320187 216.544187 
L 344.552166 270.536116 
L 344.668156 269.932233 
L 345.016124 228.080026 
L 345.132113 228.364185 
L 345.248103 206.873167 
L 345.364092 215.326504 
L 345.480082 203.353911 
L 345.596071 153.288948 
L 345.712061 153.2076 
L 345.82805 153.347506 
L 346.060029 192.885622 
L 346.523987 79.338706 
L 346.755966 108.083794 
L 346.871956 158.951275 
L 346.987945 154.525502 
L 347.219924 176.89407 
L 347.335913 140.865238 
L 347.451903 171.842323 
L 347.683882 149.11413 
L 347.799871 175.541224 
L 347.915861 147.400273 
L 348.03185 148.156682 
L 348.14784 167.226561 
L 348.263829 141.109538 
L 348.379819 146.430049 
L 348.495808 182.687425 
L 348.611798 169.556495 
L 348.843777 206.064458 
L 349.075756 162.816918 
L 349.191745 148.65132 
L 349.423724 201.655603 
L 349.539714 138.586779 
L 349.655703 139.183276 
L 349.887682 188.115916 
L 350.003671 180.913032 
L 350.119661 181.363984 
L 350.23565 182.601496 
L 350.35164 172.705384 
L 350.467629 209.174375 
L 350.931587 149.305603 
L 351.163566 171.259572 
L 351.279556 171.080064 
L 351.395545 168.211382 
L 351.627524 197.950742 
L 351.743514 190.442959 
L 351.859503 205.061668 
L 351.975493 193.705783 
L 352.207471 109.521793 
L 352.43945 157.999073 
L 352.55544 114.138452 
L 352.787419 187.333005 
L 352.903408 180.399254 
L 353.019398 230.207182 
L 353.251377 134.02287 
L 353.367366 182.922946 
L 353.483356 182.749844 
L 353.599345 180.475456 
L 353.715335 141.931764 
L 354.179293 192.073345 
L 354.411272 136.691288 
L 354.527261 145.311325 
L 354.643251 172.777487 
L 354.75924 172.729434 
L 354.875229 154.636775 
L 354.991219 203.345989 
L 355.223198 169.216233 
L 355.339187 157.202749 
L 355.455177 157.70921 
L 355.571166 179.668173 
L 355.687156 135.67113 
L 355.803145 206.373755 
L 355.919135 206.133176 
L 356.035124 121.078399 
L 356.151114 150.053466 
L 356.267103 150.444113 
L 356.383093 154.927707 
L 356.615072 183.685828 
L 356.731061 165.825681 
L 356.847051 166.108107 
L 356.96304 203.71966 
L 357.07903 182.544581 
L 357.195019 188.942383 
L 357.426998 152.897119 
L 357.542987 189.516864 
L 357.774966 150.904783 
L 358.122935 170.444499 
L 358.354914 162.195359 
L 358.470903 177.377193 
L 358.586893 170.705679 
L 358.818872 151.728199 
L 358.934861 146.183902 
L 359.16684 170.073601 
L 359.28283 167.7961 
L 359.398819 181.367367 
L 359.514809 181.296263 
L 359.746787 172.060073 
L 359.862777 196.219314 
L 360.094756 148.006081 
L 360.210745 158.217754 
L 360.326735 157.252121 
L 360.442724 179.855959 
L 360.674703 144.92409 
L 360.906682 169.549652 
L 361.138661 178.148724 
L 361.254651 179.258159 
L 361.37064 155.839891 
L 361.48663 155.328053 
L 361.602619 165.838004 
L 361.718609 136.178206 
L 361.834598 154.614999 
L 361.950588 153.947729 
L 362.066577 165.381206 
L 362.182567 204.741496 
L 362.414545 166.77236 
L 362.530535 171.258832 
L 362.646524 183.807522 
L 362.762514 167.268334 
L 362.878503 132.989177 
L 362.994493 194.585083 
L 363.110482 182.50372 
L 363.226472 155.44297 
L 363.458451 186.724007 
L 363.69043 173.460791 
L 363.806419 197.154837 
L 364.038398 134.67545 
L 364.154388 194.993372 
L 364.386367 134.74985 
L 364.502356 161.227341 
L 364.618346 160.251759 
L 364.734335 178.263962 
L 364.966314 143.363932 
L 365.082303 183.713332 
L 365.198293 159.612804 
L 365.314282 162.450871 
L 365.430272 185.631683 
L 365.546261 178.18212 
L 365.662251 209.228818 
L 365.77824 196.462211 
L 366.010219 164.023442 
L 366.126209 158.008246 
L 366.242198 160.750551 
L 366.358188 149.660342 
L 366.590167 176.793402 
L 366.706156 158.794234 
L 366.822146 166.419076 
L 367.054125 155.225993 
L 367.170114 172.937033 
L 367.402093 155.178842 
L 367.518082 166.641248 
L 367.634072 157.409904 
L 367.866051 192.463981 
L 367.98204 163.884577 
L 368.09803 184.597982 
L 368.330009 146.638102 
L 368.445998 169.660265 
L 368.561988 146.53495 
L 368.677977 164.224212 
L 368.793967 147.2469 
L 368.909956 156.989228 
L 369.025946 193.944794 
L 369.141935 146.229263 
L 369.257925 155.855947 
L 369.373914 203.469958 
L 369.489904 196.230395 
L 369.721882 151.668978 
L 369.837872 182.894294 
L 369.953861 181.636923 
L 370.18584 166.090093 
L 370.30183 173.889699 
L 370.417819 201.696636 
L 370.533809 202.501243 
L 370.649798 200.676754 
L 371.113756 118.64153 
L 371.229746 127.16162 
L 371.577714 164.688374 
L 371.809693 173.060145 
L 371.925683 191.19111 
L 372.041672 174.604011 
L 372.157662 138.781355 
L 372.273651 144.811062 
L 372.50563 197.323516 
L 372.621619 152.530319 
L 372.853598 177.136116 
L 372.969588 166.822648 
L 373.085577 195.492548 
L 373.201567 164.13218 
L 373.433546 194.637194 
L 373.549535 141.48353 
L 373.665525 163.626703 
L 373.897504 140.060499 
L 374.013493 162.683037 
L 374.129483 160.450921 
L 374.245472 175.38004 
L 374.477451 146.943372 
L 374.825419 160.637862 
L 374.941409 174.741781 
L 375.173388 207.294063 
L 375.289377 212.434029 
L 375.521356 156.828444 
L 375.637346 184.51511 
L 375.753335 180.93168 
L 375.985314 151.799366 
L 376.101304 149.591213 
L 376.217293 185.055577 
L 376.333283 174.953469 
L 376.449272 153.61064 
L 376.565262 167.605531 
L 376.797241 126.151196 
L 376.91323 168.456334 
L 377.145209 157.226858 
L 377.261198 190.059149 
L 377.493177 149.401064 
L 377.609167 165.513496 
L 377.725156 154.137845 
L 377.841146 165.94147 
L 377.957135 163.137529 
L 378.189114 236.072945 
L 378.421093 156.596309 
L 378.537083 176.918676 
L 378.885051 136.379549 
L 379.11703 183.065189 
L 379.23302 157.044476 
L 379.349009 176.408807 
L 379.580988 138.064958 
L 379.696977 181.986259 
L 379.928956 158.665903 
L 380.044946 198.219085 
L 380.508904 164.101517 
L 380.624893 175.405431 
L 380.856872 159.115769 
L 380.972862 169.661666 
L 381.088851 169.078674 
L 381.204841 157.072655 
L 381.43682 184.762367 
L 381.668799 123.849428 
L 381.900778 125.217129 
L 382.132757 229.428862 
L 382.248746 186.292527 
L 382.364735 186.005842 
L 382.596714 151.047182 
L 382.828693 210.293678 
L 383.060672 157.755151 
L 383.176662 150.33241 
L 383.292651 131.299303 
L 383.408641 166.134011 
L 383.52463 162.833333 
L 383.756609 147.930916 
L 383.872599 141.466702 
L 384.220567 218.895446 
L 384.452546 173.544787 
L 384.568536 174.560397 
L 384.800514 89.906156 
L 385.148483 209.268361 
L 385.380462 189.565002 
L 385.496451 207.435394 
L 385.612441 165.367161 
L 385.72843 172.66707 
L 385.84442 191.4591 
L 385.960409 150.911026 
L 386.076399 152.182706 
L 386.192388 138.69726 
L 386.308378 146.386313 
L 386.424367 179.13181 
L 386.540357 159.514288 
L 386.772336 176.758749 
L 386.888325 173.431168 
L 387.004315 189.218419 
L 387.236293 152.339206 
L 387.352283 172.88556 
L 387.468272 145.410461 
L 387.700251 171.117819 
L 387.816241 157.020701 
L 387.93223 187.46412 
L 388.04822 155.927914 
L 388.164209 159.156468 
L 388.280199 172.745084 
L 388.396188 152.365009 
L 388.512178 207.846266 
L 388.628167 204.914165 
L 388.744157 171.233079 
L 388.860146 182.960847 
L 389.092125 151.091088 
L 389.324104 162.574266 
L 389.440094 163.05969 
L 389.556083 162.027344 
L 389.672072 165.763663 
L 389.788062 165.334397 
L 389.904051 172.226649 
L 390.13603 152.583686 
L 390.25202 174.420522 
L 390.483999 147.304147 
L 390.599988 190.287947 
L 390.715978 152.444488 
L 390.831967 157.051225 
L 391.179936 215.902758 
L 391.411915 166.527335 
L 391.527904 169.402151 
L 391.643894 143.927255 
L 391.759883 150.112649 
L 391.875873 140.753257 
L 392.107852 172.989727 
L 392.223841 172.540041 
L 392.33983 167.446477 
L 392.45582 147.135388 
L 392.571809 148.599118 
L 392.687799 161.773105 
L 392.803788 195.611486 
L 393.035767 178.616194 
L 393.151757 169.245801 
L 393.267746 149.395137 
L 393.383736 208.852699 
L 393.499725 200.99338 
L 393.615715 158.370515 
L 393.731704 178.944746 
L 393.963683 146.147127 
L 394.079673 150.446977 
L 394.195662 142.98436 
L 394.311652 155.751816 
L 394.543631 203.807684 
L 394.775609 144.18012 
L 395.007588 186.547906 
L 395.123578 162.53209 
L 395.239567 176.826152 
L 395.471546 215.848464 
L 396.051494 117.588896 
L 396.283473 151.859682 
L 396.399462 159.245579 
L 396.515452 155.834865 
L 396.631441 148.679136 
L 396.747431 188.044195 
L 396.97941 127.083695 
L 397.095399 183.207031 
L 397.211388 180.0797 
L 397.327378 183.1035 
L 397.443367 202.394315 
L 397.559357 166.075363 
L 397.675346 165.558212 
L 397.791336 166.632689 
L 398.023315 177.334512 
L 398.371283 136.352551 
L 398.487273 163.229227 
L 398.487273 163.229227 
" clip-path="url(#pd63649b44c)" style="fill: none; stroke: #008000; stroke-width: 1.5; stroke-linecap: square"/>
   </g>
   <g id="patch_3">
    <path d="M 57.6 307.584 
L 57.6 41.472 
" style="fill: none; stroke: #000000; stroke-width: 0.8; stroke-linejoin: miter; stroke-linecap: square"/>
   </g>
   <g id="patch_4">
    <path d="M 414.72 307.584 
L 414.72 41.472 
" style="fill: none; stroke: #000000; stroke-width: 0.8; stroke-linejoin: miter; stroke-linecap: square"/>
   </g>
   <g id="patch_5">
    <path d="M 57.6 307.584 
L 414.72 307.584 
" style="fill: none; stroke: #000000; stroke-width: 0.8; stroke-linejoin: miter; stroke-linecap: square"/>
   </g>
   <g id="patch_6">
    <path d="M 57.6 41.472 
L 414.72 41.472 
" style="fill: none; stroke: #000000; stroke-width: 0.8; stroke-linejoin: miter; stroke-linecap: square"/>
   </g>
  </g>
 </g>
 <defs>
  <clipPath id="pd63649b44c">
   <rect x="57.6" y="41.472" width="357.12" height="266.112"/>
  </clipPath>
 </defs>
</svg>
