<?xml version="1.0" encoding="utf-8" standalone="no"?>
<!DOCTYPE svg PUBLIC "-//W3C//DTD SVG 1.1//EN"
  "http://www.w3.org/Graphics/SVG/1.1/DTD/svg11.dtd">
<svg xmlns:xlink="http://www.w3.org/1999/xlink" width="460.8pt" height="345.6pt" viewBox="0 0 460.8 345.6" xmlns="http://www.w3.org/2000/svg" version="1.1">
 <metadata>
  <rdf:RDF xmlns:dc="http://purl.org/dc/elements/1.1/" xmlns:cc="http://creativecommons.org/ns#" xmlns:rdf="http://www.w3.org/1999/02/22-rdf-syntax-ns#">
   <cc:Work>
    <dc:type rdf:resource="http://purl.org/dc/dcmitype/StillImage"/>
    <dc:date>2024-05-15T11:34:02.124385</dc:date>
    <dc:format>image/svg+xml</dc:format>
    <dc:creator>
     <cc:Agent>
      <dc:title>Matplotlib v3.8.2, https://matplotlib.org/</dc:title>
     </cc:Agent>
    </dc:creator>
   </cc:Work>
  </rdf:RDF>
 </metadata>
 <defs>
  <style type="text/css">*{stroke-linejoin: round; stroke-linecap: butt}</style>
 </defs>
 <g id="figure_1">
  <g id="patch_1">
   <path d="M 0 345.6 
L 460.8 345.6 
L 460.8 0 
L 0 0 
z
" style="fill: #ffffff"/>
  </g>
  <g id="axes_1">
   <g id="patch_2">
    <path d="M 57.6 307.584 
L 414.72 307.584 
L 414.72 41.472 
L 57.6 41.472 
z
" style="fill: #ffffff"/>
   </g>
   <g id="matplotlib.axis_1">
    <g id="xtick_1">
     <g id="line2d_1">
      <defs>
       <path id="m81756bb730" d="M 0 0 
L 0 3.5 
" style="stroke: #000000; stroke-width: 0.8"/>
      </defs>
      <g>
       <use xlink:href="#m81756bb730" x="97.030623" y="307.584" style="stroke: #000000; stroke-width: 0.8"/>
      </g>
     </g>
     <g id="text_1">
      <!-- −300 -->
      <g transform="translate(83.297029 322.182437) scale(0.1 -0.1)">
       <defs>
        <path id="DejaVuSans-2212" d="M 678 2272 
L 4684 2272 
L 4684 1741 
L 678 1741 
L 678 2272 
z
" transform="scale(0.015625)"/>
        <path id="DejaVuSans-33" d="M 2597 2516 
Q 3050 2419 3304 2112 
Q 3559 1806 3559 1356 
Q 3559 666 3084 287 
Q 2609 -91 1734 -91 
Q 1441 -91 1130 -33 
Q 819 25 488 141 
L 488 750 
Q 750 597 1062 519 
Q 1375 441 1716 441 
Q 2309 441 2620 675 
Q 2931 909 2931 1356 
Q 2931 1769 2642 2001 
Q 2353 2234 1838 2234 
L 1294 2234 
L 1294 2753 
L 1863 2753 
Q 2328 2753 2575 2939 
Q 2822 3125 2822 3475 
Q 2822 3834 2567 4026 
Q 2313 4219 1838 4219 
Q 1578 4219 1281 4162 
Q 984 4106 628 3988 
L 628 4550 
Q 988 4650 1302 4700 
Q 1616 4750 1894 4750 
Q 2613 4750 3031 4423 
Q 3450 4097 3450 3541 
Q 3450 3153 3228 2886 
Q 3006 2619 2597 2516 
z
" transform="scale(0.015625)"/>
        <path id="DejaVuSans-30" d="M 2034 4250 
Q 1547 4250 1301 3770 
Q 1056 3291 1056 2328 
Q 1056 1369 1301 889 
Q 1547 409 2034 409 
Q 2525 409 2770 889 
Q 3016 1369 3016 2328 
Q 3016 3291 2770 3770 
Q 2525 4250 2034 4250 
z
M 2034 4750 
Q 2819 4750 3233 4129 
Q 3647 3509 3647 2328 
Q 3647 1150 3233 529 
Q 2819 -91 2034 -91 
Q 1250 -91 836 529 
Q 422 1150 422 2328 
Q 422 3509 836 4129 
Q 1250 4750 2034 4750 
z
" transform="scale(0.015625)"/>
       </defs>
       <use xlink:href="#DejaVuSans-2212"/>
       <use xlink:href="#DejaVuSans-33" x="83.789062"/>
       <use xlink:href="#DejaVuSans-30" x="147.412109"/>
       <use xlink:href="#DejaVuSans-30" x="211.035156"/>
      </g>
     </g>
    </g>
    <g id="xtick_2">
     <g id="line2d_2">
      <g>
       <use xlink:href="#m81756bb730" x="143.426413" y="307.584" style="stroke: #000000; stroke-width: 0.8"/>
      </g>
     </g>
     <g id="text_2">
      <!-- −200 -->
      <g transform="translate(129.69282 322.182437) scale(0.1 -0.1)">
       <defs>
        <path id="DejaVuSans-32" d="M 1228 531 
L 3431 531 
L 3431 0 
L 469 0 
L 469 531 
Q 828 903 1448 1529 
Q 2069 2156 2228 2338 
Q 2531 2678 2651 2914 
Q 2772 3150 2772 3378 
Q 2772 3750 2511 3984 
Q 2250 4219 1831 4219 
Q 1534 4219 1204 4116 
Q 875 4013 500 3803 
L 500 4441 
Q 881 4594 1212 4672 
Q 1544 4750 1819 4750 
Q 2544 4750 2975 4387 
Q 3406 4025 3406 3419 
Q 3406 3131 3298 2873 
Q 3191 2616 2906 2266 
Q 2828 2175 2409 1742 
Q 1991 1309 1228 531 
z
" transform="scale(0.015625)"/>
       </defs>
       <use xlink:href="#DejaVuSans-2212"/>
       <use xlink:href="#DejaVuSans-32" x="83.789062"/>
       <use xlink:href="#DejaVuSans-30" x="147.412109"/>
       <use xlink:href="#DejaVuSans-30" x="211.035156"/>
      </g>
     </g>
    </g>
    <g id="xtick_3">
     <g id="line2d_3">
      <g>
       <use xlink:href="#m81756bb730" x="189.822204" y="307.584" style="stroke: #000000; stroke-width: 0.8"/>
      </g>
     </g>
     <g id="text_3">
      <!-- −100 -->
      <g transform="translate(176.08861 322.182437) scale(0.1 -0.1)">
       <defs>
        <path id="DejaVuSans-31" d="M 794 531 
L 1825 531 
L 1825 4091 
L 703 3866 
L 703 4441 
L 1819 4666 
L 2450 4666 
L 2450 531 
L 3481 531 
L 3481 0 
L 794 0 
L 794 531 
z
" transform="scale(0.015625)"/>
       </defs>
       <use xlink:href="#DejaVuSans-2212"/>
       <use xlink:href="#DejaVuSans-31" x="83.789062"/>
       <use xlink:href="#DejaVuSans-30" x="147.412109"/>
       <use xlink:href="#DejaVuSans-30" x="211.035156"/>
      </g>
     </g>
    </g>
    <g id="xtick_4">
     <g id="line2d_4">
      <g>
       <use xlink:href="#m81756bb730" x="236.217995" y="307.584" style="stroke: #000000; stroke-width: 0.8"/>
      </g>
     </g>
     <g id="text_4">
      <!-- 0 -->
      <g transform="translate(233.036745 322.182437) scale(0.1 -0.1)">
       <use xlink:href="#DejaVuSans-30"/>
      </g>
     </g>
    </g>
    <g id="xtick_5">
     <g id="line2d_5">
      <g>
       <use xlink:href="#m81756bb730" x="282.613785" y="307.584" style="stroke: #000000; stroke-width: 0.8"/>
      </g>
     </g>
     <g id="text_5">
      <!-- 100 -->
      <g transform="translate(273.070035 322.182437) scale(0.1 -0.1)">
       <use xlink:href="#DejaVuSans-31"/>
       <use xlink:href="#DejaVuSans-30" x="63.623047"/>
       <use xlink:href="#DejaVuSans-30" x="127.246094"/>
      </g>
     </g>
    </g>
    <g id="xtick_6">
     <g id="line2d_6">
      <g>
       <use xlink:href="#m81756bb730" x="329.009576" y="307.584" style="stroke: #000000; stroke-width: 0.8"/>
      </g>
     </g>
     <g id="text_6">
      <!-- 200 -->
      <g transform="translate(319.465826 322.182437) scale(0.1 -0.1)">
       <use xlink:href="#DejaVuSans-32"/>
       <use xlink:href="#DejaVuSans-30" x="63.623047"/>
       <use xlink:href="#DejaVuSans-30" x="127.246094"/>
      </g>
     </g>
    </g>
    <g id="xtick_7">
     <g id="line2d_7">
      <g>
       <use xlink:href="#m81756bb730" x="375.405367" y="307.584" style="stroke: #000000; stroke-width: 0.8"/>
      </g>
     </g>
     <g id="text_7">
      <!-- 300 -->
      <g transform="translate(365.861617 322.182437) scale(0.1 -0.1)">
       <use xlink:href="#DejaVuSans-33"/>
       <use xlink:href="#DejaVuSans-30" x="63.623047"/>
       <use xlink:href="#DejaVuSans-30" x="127.246094"/>
      </g>
     </g>
    </g>
    <g id="text_8">
     <!-- Frequency [$Hz$] -->
     <g transform="translate(197.96 335.862125) scale(0.1 -0.1)">
      <defs>
       <path id="DejaVuSans-46" d="M 628 4666 
L 3309 4666 
L 3309 4134 
L 1259 4134 
L 1259 2759 
L 3109 2759 
L 3109 2228 
L 1259 2228 
L 1259 0 
L 628 0 
L 628 4666 
z
" transform="scale(0.015625)"/>
       <path id="DejaVuSans-72" d="M 2631 2963 
Q 2534 3019 2420 3045 
Q 2306 3072 2169 3072 
Q 1681 3072 1420 2755 
Q 1159 2438 1159 1844 
L 1159 0 
L 581 0 
L 581 3500 
L 1159 3500 
L 1159 2956 
Q 1341 3275 1631 3429 
Q 1922 3584 2338 3584 
Q 2397 3584 2469 3576 
Q 2541 3569 2628 3553 
L 2631 2963 
z
" transform="scale(0.015625)"/>
       <path id="DejaVuSans-65" d="M 3597 1894 
L 3597 1613 
L 953 1613 
Q 991 1019 1311 708 
Q 1631 397 2203 397 
Q 2534 397 2845 478 
Q 3156 559 3463 722 
L 3463 178 
Q 3153 47 2828 -22 
Q 2503 -91 2169 -91 
Q 1331 -91 842 396 
Q 353 884 353 1716 
Q 353 2575 817 3079 
Q 1281 3584 2069 3584 
Q 2775 3584 3186 3129 
Q 3597 2675 3597 1894 
z
M 3022 2063 
Q 3016 2534 2758 2815 
Q 2500 3097 2075 3097 
Q 1594 3097 1305 2825 
Q 1016 2553 972 2059 
L 3022 2063 
z
" transform="scale(0.015625)"/>
       <path id="DejaVuSans-71" d="M 947 1747 
Q 947 1113 1208 752 
Q 1469 391 1925 391 
Q 2381 391 2643 752 
Q 2906 1113 2906 1747 
Q 2906 2381 2643 2742 
Q 2381 3103 1925 3103 
Q 1469 3103 1208 2742 
Q 947 2381 947 1747 
z
M 2906 525 
Q 2725 213 2448 61 
Q 2172 -91 1784 -91 
Q 1150 -91 751 415 
Q 353 922 353 1747 
Q 353 2572 751 3078 
Q 1150 3584 1784 3584 
Q 2172 3584 2448 3432 
Q 2725 3281 2906 2969 
L 2906 3500 
L 3481 3500 
L 3481 -1331 
L 2906 -1331 
L 2906 525 
z
" transform="scale(0.015625)"/>
       <path id="DejaVuSans-75" d="M 544 1381 
L 544 3500 
L 1119 3500 
L 1119 1403 
Q 1119 906 1312 657 
Q 1506 409 1894 409 
Q 2359 409 2629 706 
Q 2900 1003 2900 1516 
L 2900 3500 
L 3475 3500 
L 3475 0 
L 2900 0 
L 2900 538 
Q 2691 219 2414 64 
Q 2138 -91 1772 -91 
Q 1169 -91 856 284 
Q 544 659 544 1381 
z
M 1991 3584 
L 1991 3584 
z
" transform="scale(0.015625)"/>
       <path id="DejaVuSans-6e" d="M 3513 2113 
L 3513 0 
L 2938 0 
L 2938 2094 
Q 2938 2591 2744 2837 
Q 2550 3084 2163 3084 
Q 1697 3084 1428 2787 
Q 1159 2491 1159 1978 
L 1159 0 
L 581 0 
L 581 3500 
L 1159 3500 
L 1159 2956 
Q 1366 3272 1645 3428 
Q 1925 3584 2291 3584 
Q 2894 3584 3203 3211 
Q 3513 2838 3513 2113 
z
" transform="scale(0.015625)"/>
       <path id="DejaVuSans-63" d="M 3122 3366 
L 3122 2828 
Q 2878 2963 2633 3030 
Q 2388 3097 2138 3097 
Q 1578 3097 1268 2742 
Q 959 2388 959 1747 
Q 959 1106 1268 751 
Q 1578 397 2138 397 
Q 2388 397 2633 464 
Q 2878 531 3122 666 
L 3122 134 
Q 2881 22 2623 -34 
Q 2366 -91 2075 -91 
Q 1284 -91 818 406 
Q 353 903 353 1747 
Q 353 2603 823 3093 
Q 1294 3584 2113 3584 
Q 2378 3584 2631 3529 
Q 2884 3475 3122 3366 
z
" transform="scale(0.015625)"/>
       <path id="DejaVuSans-79" d="M 2059 -325 
Q 1816 -950 1584 -1140 
Q 1353 -1331 966 -1331 
L 506 -1331 
L 506 -850 
L 844 -850 
Q 1081 -850 1212 -737 
Q 1344 -625 1503 -206 
L 1606 56 
L 191 3500 
L 800 3500 
L 1894 763 
L 2988 3500 
L 3597 3500 
L 2059 -325 
z
" transform="scale(0.015625)"/>
       <path id="DejaVuSans-20" transform="scale(0.015625)"/>
       <path id="DejaVuSans-5b" d="M 550 4863 
L 1875 4863 
L 1875 4416 
L 1125 4416 
L 1125 -397 
L 1875 -397 
L 1875 -844 
L 550 -844 
L 550 4863 
z
" transform="scale(0.015625)"/>
       <path id="DejaVuSans-Oblique-48" d="M 1081 4666 
L 1716 4666 
L 1344 2753 
L 3634 2753 
L 4006 4666 
L 4641 4666 
L 3731 0 
L 3097 0 
L 3531 2222 
L 1241 2222 
L 806 0 
L 172 0 
L 1081 4666 
z
" transform="scale(0.015625)"/>
       <path id="DejaVuSans-Oblique-7a" d="M 744 3500 
L 3475 3500 
L 3372 2975 
L 738 459 
L 2913 459 
L 2822 0 
L -19 0 
L 84 525 
L 2719 3041 
L 653 3041 
L 744 3500 
z
" transform="scale(0.015625)"/>
       <path id="DejaVuSans-5d" d="M 1947 4863 
L 1947 -844 
L 622 -844 
L 622 -397 
L 1369 -397 
L 1369 4416 
L 622 4416 
L 622 4863 
L 1947 4863 
z
" transform="scale(0.015625)"/>
      </defs>
      <use xlink:href="#DejaVuSans-46" transform="translate(0 0.015625)"/>
      <use xlink:href="#DejaVuSans-72" transform="translate(57.519531 0.015625)"/>
      <use xlink:href="#DejaVuSans-65" transform="translate(98.632812 0.015625)"/>
      <use xlink:href="#DejaVuSans-71" transform="translate(160.15625 0.015625)"/>
      <use xlink:href="#DejaVuSans-75" transform="translate(223.632812 0.015625)"/>
      <use xlink:href="#DejaVuSans-65" transform="translate(287.011719 0.015625)"/>
      <use xlink:href="#DejaVuSans-6e" transform="translate(348.535156 0.015625)"/>
      <use xlink:href="#DejaVuSans-63" transform="translate(411.914062 0.015625)"/>
      <use xlink:href="#DejaVuSans-79" transform="translate(466.894531 0.015625)"/>
      <use xlink:href="#DejaVuSans-20" transform="translate(526.074219 0.015625)"/>
      <use xlink:href="#DejaVuSans-5b" transform="translate(557.861328 0.015625)"/>
      <use xlink:href="#DejaVuSans-Oblique-48" transform="translate(596.875 0.015625)"/>
      <use xlink:href="#DejaVuSans-Oblique-7a" transform="translate(672.070312 0.015625)"/>
      <use xlink:href="#DejaVuSans-5d" transform="translate(724.560547 0.015625)"/>
     </g>
    </g>
   </g>
   <g id="matplotlib.axis_2">
    <g id="ytick_1">
     <g id="line2d_8">
      <defs>
       <path id="m4c8c6d8935" d="M 0 0 
L -3.5 0 
" style="stroke: #000000; stroke-width: 0.8"/>
      </defs>
      <g>
       <use xlink:href="#m4c8c6d8935" x="57.6" y="307.584" style="stroke: #000000; stroke-width: 0.8"/>
      </g>
     </g>
     <g id="text_9">
      <!-- −15.0 -->
      <g transform="translate(19.954687 311.383219) scale(0.1 -0.1)">
       <defs>
        <path id="DejaVuSans-35" d="M 691 4666 
L 3169 4666 
L 3169 4134 
L 1269 4134 
L 1269 2991 
Q 1406 3038 1543 3061 
Q 1681 3084 1819 3084 
Q 2600 3084 3056 2656 
Q 3513 2228 3513 1497 
Q 3513 744 3044 326 
Q 2575 -91 1722 -91 
Q 1428 -91 1123 -41 
Q 819 9 494 109 
L 494 744 
Q 775 591 1075 516 
Q 1375 441 1709 441 
Q 2250 441 2565 725 
Q 2881 1009 2881 1497 
Q 2881 1984 2565 2268 
Q 2250 2553 1709 2553 
Q 1456 2553 1204 2497 
Q 953 2441 691 2322 
L 691 4666 
z
" transform="scale(0.015625)"/>
        <path id="DejaVuSans-2e" d="M 684 794 
L 1344 794 
L 1344 0 
L 684 0 
L 684 794 
z
" transform="scale(0.015625)"/>
       </defs>
       <use xlink:href="#DejaVuSans-2212"/>
       <use xlink:href="#DejaVuSans-31" x="83.789062"/>
       <use xlink:href="#DejaVuSans-35" x="147.412109"/>
       <use xlink:href="#DejaVuSans-2e" x="211.035156"/>
       <use xlink:href="#DejaVuSans-30" x="242.822266"/>
      </g>
     </g>
    </g>
    <g id="ytick_2">
     <g id="line2d_9">
      <g>
       <use xlink:href="#m4c8c6d8935" x="57.6" y="272.810738" style="stroke: #000000; stroke-width: 0.8"/>
      </g>
     </g>
     <g id="text_10">
      <!-- −12.5 -->
      <g transform="translate(19.954687 276.609957) scale(0.1 -0.1)">
       <use xlink:href="#DejaVuSans-2212"/>
       <use xlink:href="#DejaVuSans-31" x="83.789062"/>
       <use xlink:href="#DejaVuSans-32" x="147.412109"/>
       <use xlink:href="#DejaVuSans-2e" x="211.035156"/>
       <use xlink:href="#DejaVuSans-35" x="242.822266"/>
      </g>
     </g>
    </g>
    <g id="ytick_3">
     <g id="line2d_10">
      <g>
       <use xlink:href="#m4c8c6d8935" x="57.6" y="238.037476" style="stroke: #000000; stroke-width: 0.8"/>
      </g>
     </g>
     <g id="text_11">
      <!-- −10.0 -->
      <g transform="translate(19.954687 241.836694) scale(0.1 -0.1)">
       <use xlink:href="#DejaVuSans-2212"/>
       <use xlink:href="#DejaVuSans-31" x="83.789062"/>
       <use xlink:href="#DejaVuSans-30" x="147.412109"/>
       <use xlink:href="#DejaVuSans-2e" x="211.035156"/>
       <use xlink:href="#DejaVuSans-30" x="242.822266"/>
      </g>
     </g>
    </g>
    <g id="ytick_4">
     <g id="line2d_11">
      <g>
       <use xlink:href="#m4c8c6d8935" x="57.6" y="203.264213" style="stroke: #000000; stroke-width: 0.8"/>
      </g>
     </g>
     <g id="text_12">
      <!-- −7.5 -->
      <g transform="translate(26.317187 207.063432) scale(0.1 -0.1)">
       <defs>
        <path id="DejaVuSans-37" d="M 525 4666 
L 3525 4666 
L 3525 4397 
L 1831 0 
L 1172 0 
L 2766 4134 
L 525 4134 
L 525 4666 
z
" transform="scale(0.015625)"/>
       </defs>
       <use xlink:href="#DejaVuSans-2212"/>
       <use xlink:href="#DejaVuSans-37" x="83.789062"/>
       <use xlink:href="#DejaVuSans-2e" x="147.412109"/>
       <use xlink:href="#DejaVuSans-35" x="179.199219"/>
      </g>
     </g>
    </g>
    <g id="ytick_5">
     <g id="line2d_12">
      <g>
       <use xlink:href="#m4c8c6d8935" x="57.6" y="168.490951" style="stroke: #000000; stroke-width: 0.8"/>
      </g>
     </g>
     <g id="text_13">
      <!-- −5.0 -->
      <g transform="translate(26.317187 172.29017) scale(0.1 -0.1)">
       <use xlink:href="#DejaVuSans-2212"/>
       <use xlink:href="#DejaVuSans-35" x="83.789062"/>
       <use xlink:href="#DejaVuSans-2e" x="147.412109"/>
       <use xlink:href="#DejaVuSans-30" x="179.199219"/>
      </g>
     </g>
    </g>
    <g id="ytick_6">
     <g id="line2d_13">
      <g>
       <use xlink:href="#m4c8c6d8935" x="57.6" y="133.717689" style="stroke: #000000; stroke-width: 0.8"/>
      </g>
     </g>
     <g id="text_14">
      <!-- −2.5 -->
      <g transform="translate(26.317187 137.516908) scale(0.1 -0.1)">
       <use xlink:href="#DejaVuSans-2212"/>
       <use xlink:href="#DejaVuSans-32" x="83.789062"/>
       <use xlink:href="#DejaVuSans-2e" x="147.412109"/>
       <use xlink:href="#DejaVuSans-35" x="179.199219"/>
      </g>
     </g>
    </g>
    <g id="ytick_7">
     <g id="line2d_14">
      <g>
       <use xlink:href="#m4c8c6d8935" x="57.6" y="98.944427" style="stroke: #000000; stroke-width: 0.8"/>
      </g>
     </g>
     <g id="text_15">
      <!-- 0.0 -->
      <g transform="translate(34.696875 102.743645) scale(0.1 -0.1)">
       <use xlink:href="#DejaVuSans-30"/>
       <use xlink:href="#DejaVuSans-2e" x="63.623047"/>
       <use xlink:href="#DejaVuSans-30" x="95.410156"/>
      </g>
     </g>
    </g>
    <g id="ytick_8">
     <g id="line2d_15">
      <g>
       <use xlink:href="#m4c8c6d8935" x="57.6" y="64.171164" style="stroke: #000000; stroke-width: 0.8"/>
      </g>
     </g>
     <g id="text_16">
      <!-- 2.5 -->
      <g transform="translate(34.696875 67.970383) scale(0.1 -0.1)">
       <use xlink:href="#DejaVuSans-32"/>
       <use xlink:href="#DejaVuSans-2e" x="63.623047"/>
       <use xlink:href="#DejaVuSans-35" x="95.410156"/>
      </g>
     </g>
    </g>
    <g id="text_17">
     <!-- Amplitude [dB] -->
     <g transform="translate(13.875 212.245969) rotate(-90) scale(0.1 -0.1)">
      <defs>
       <path id="DejaVuSans-41" d="M 2188 4044 
L 1331 1722 
L 3047 1722 
L 2188 4044 
z
M 1831 4666 
L 2547 4666 
L 4325 0 
L 3669 0 
L 3244 1197 
L 1141 1197 
L 716 0 
L 50 0 
L 1831 4666 
z
" transform="scale(0.015625)"/>
       <path id="DejaVuSans-6d" d="M 3328 2828 
Q 3544 3216 3844 3400 
Q 4144 3584 4550 3584 
Q 5097 3584 5394 3201 
Q 5691 2819 5691 2113 
L 5691 0 
L 5113 0 
L 5113 2094 
Q 5113 2597 4934 2840 
Q 4756 3084 4391 3084 
Q 3944 3084 3684 2787 
Q 3425 2491 3425 1978 
L 3425 0 
L 2847 0 
L 2847 2094 
Q 2847 2600 2669 2842 
Q 2491 3084 2119 3084 
Q 1678 3084 1418 2786 
Q 1159 2488 1159 1978 
L 1159 0 
L 581 0 
L 581 3500 
L 1159 3500 
L 1159 2956 
Q 1356 3278 1631 3431 
Q 1906 3584 2284 3584 
Q 2666 3584 2933 3390 
Q 3200 3197 3328 2828 
z
" transform="scale(0.015625)"/>
       <path id="DejaVuSans-70" d="M 1159 525 
L 1159 -1331 
L 581 -1331 
L 581 3500 
L 1159 3500 
L 1159 2969 
Q 1341 3281 1617 3432 
Q 1894 3584 2278 3584 
Q 2916 3584 3314 3078 
Q 3713 2572 3713 1747 
Q 3713 922 3314 415 
Q 2916 -91 2278 -91 
Q 1894 -91 1617 61 
Q 1341 213 1159 525 
z
M 3116 1747 
Q 3116 2381 2855 2742 
Q 2594 3103 2138 3103 
Q 1681 3103 1420 2742 
Q 1159 2381 1159 1747 
Q 1159 1113 1420 752 
Q 1681 391 2138 391 
Q 2594 391 2855 752 
Q 3116 1113 3116 1747 
z
" transform="scale(0.015625)"/>
       <path id="DejaVuSans-6c" d="M 603 4863 
L 1178 4863 
L 1178 0 
L 603 0 
L 603 4863 
z
" transform="scale(0.015625)"/>
       <path id="DejaVuSans-69" d="M 603 3500 
L 1178 3500 
L 1178 0 
L 603 0 
L 603 3500 
z
M 603 4863 
L 1178 4863 
L 1178 4134 
L 603 4134 
L 603 4863 
z
" transform="scale(0.015625)"/>
       <path id="DejaVuSans-74" d="M 1172 4494 
L 1172 3500 
L 2356 3500 
L 2356 3053 
L 1172 3053 
L 1172 1153 
Q 1172 725 1289 603 
Q 1406 481 1766 481 
L 2356 481 
L 2356 0 
L 1766 0 
Q 1100 0 847 248 
Q 594 497 594 1153 
L 594 3053 
L 172 3053 
L 172 3500 
L 594 3500 
L 594 4494 
L 1172 4494 
z
" transform="scale(0.015625)"/>
       <path id="DejaVuSans-64" d="M 2906 2969 
L 2906 4863 
L 3481 4863 
L 3481 0 
L 2906 0 
L 2906 525 
Q 2725 213 2448 61 
Q 2172 -91 1784 -91 
Q 1150 -91 751 415 
Q 353 922 353 1747 
Q 353 2572 751 3078 
Q 1150 3584 1784 3584 
Q 2172 3584 2448 3432 
Q 2725 3281 2906 2969 
z
M 947 1747 
Q 947 1113 1208 752 
Q 1469 391 1925 391 
Q 2381 391 2643 752 
Q 2906 1113 2906 1747 
Q 2906 2381 2643 2742 
Q 2381 3103 1925 3103 
Q 1469 3103 1208 2742 
Q 947 2381 947 1747 
z
" transform="scale(0.015625)"/>
       <path id="DejaVuSans-42" d="M 1259 2228 
L 1259 519 
L 2272 519 
Q 2781 519 3026 730 
Q 3272 941 3272 1375 
Q 3272 1813 3026 2020 
Q 2781 2228 2272 2228 
L 1259 2228 
z
M 1259 4147 
L 1259 2741 
L 2194 2741 
Q 2656 2741 2882 2914 
Q 3109 3088 3109 3444 
Q 3109 3797 2882 3972 
Q 2656 4147 2194 4147 
L 1259 4147 
z
M 628 4666 
L 2241 4666 
Q 2963 4666 3353 4366 
Q 3744 4066 3744 3513 
Q 3744 3084 3544 2831 
Q 3344 2578 2956 2516 
Q 3422 2416 3680 2098 
Q 3938 1781 3938 1306 
Q 3938 681 3513 340 
Q 3088 0 2303 0 
L 628 0 
L 628 4666 
z
" transform="scale(0.015625)"/>
      </defs>
      <use xlink:href="#DejaVuSans-41"/>
      <use xlink:href="#DejaVuSans-6d" x="68.408203"/>
      <use xlink:href="#DejaVuSans-70" x="165.820312"/>
      <use xlink:href="#DejaVuSans-6c" x="229.296875"/>
      <use xlink:href="#DejaVuSans-69" x="257.080078"/>
      <use xlink:href="#DejaVuSans-74" x="284.863281"/>
      <use xlink:href="#DejaVuSans-75" x="324.072266"/>
      <use xlink:href="#DejaVuSans-64" x="387.451172"/>
      <use xlink:href="#DejaVuSans-65" x="450.927734"/>
      <use xlink:href="#DejaVuSans-20" x="512.451172"/>
      <use xlink:href="#DejaVuSans-5b" x="544.238281"/>
      <use xlink:href="#DejaVuSans-64" x="583.251953"/>
      <use xlink:href="#DejaVuSans-42" x="646.728516"/>
      <use xlink:href="#DejaVuSans-5d" x="715.332031"/>
     </g>
    </g>
   </g>
   <g id="line2d_16">
    <path d="M 236.217995 232.557006 
L 236.565963 232.465894 
L 237.029921 232.07785 
L 237.609868 231.258699 
L 238.421795 229.771277 
L 238.653774 229.341744 
L 238.885753 229.08555 
L 239.001742 228.346807 
L 239.117732 229.392229 
L 239.233721 227.424794 
L 239.4657 235.833913 
L 239.58169 224.53808 
L 239.697679 228.02948 
L 239.813669 210.376489 
L 240.045647 237.874861 
L 240.161637 228.20513 
L 240.277626 265.706116 
L 240.393616 160.325218 
L 240.509605 176.900728 
L 240.625595 300.958687 
L 240.741584 195.216855 
L 240.857574 198.647007 
L 241.089553 131.658639 
L 241.205542 167.80655 
L 241.6695 122.378676 
L 241.78549 147.722218 
L 242.017469 117.491788 
L 242.133458 190.746857 
L 242.365437 105.94949 
L 242.481426 114.099431 
L 242.597416 91.114614 
L 242.829395 134.641483 
L 242.945384 133.056315 
L 243.061374 96.788487 
L 243.177363 96.575755 
L 243.293353 137.713825 
L 243.409342 92.5115 
L 243.525332 113.98662 
L 243.757311 77.76958 
L 243.8733 130.392776 
L 243.98929 98.067977 
L 244.105279 96.916898 
L 244.221269 129.297178 
L 244.337258 82.033283 
L 244.453248 166.502774 
L 244.685227 90.99126 
L 244.801216 90.60535 
L 244.917205 62.369499 
L 245.149184 156.538746 
L 245.381163 64.430531 
L 245.613142 111.900076 
L 245.845121 171.780537 
L 245.961111 68.412332 
L 246.19309 113.074218 
L 246.309079 144.286064 
L 246.541058 72.187399 
L 246.773037 118.806277 
L 246.889027 109.580988 
L 247.005016 86.699452 
L 247.236995 124.54934 
L 247.352985 74.364078 
L 247.468974 184.731315 
L 247.584963 74.003092 
L 247.700953 93.223022 
L 247.816942 144.764641 
L 247.932932 81.064242 
L 248.048921 150.84246 
L 248.164911 91.51511 
L 248.2809 119.323999 
L 248.512879 65.663334 
L 248.860848 134.671098 
L 248.976837 59.134795 
L 249.092827 91.852682 
L 249.208816 84.274287 
L 249.324806 172.898884 
L 249.556785 64.613541 
L 249.672774 119.878339 
L 249.788764 85.965206 
L 249.904753 199.959115 
L 250.136732 78.670483 
L 250.252721 129.831824 
L 250.368711 123.75549 
L 250.716679 74.802959 
L 250.832669 221.877799 
L 250.948658 116.423647 
L 251.064648 152.797762 
L 251.180637 65.835434 
L 251.296627 180.842135 
L 251.412616 108.895688 
L 251.528606 197.319787 
L 251.644595 107.101665 
L 251.760585 114.407494 
L 251.992564 175.437769 
L 252.108553 106.187296 
L 252.224543 109.787699 
L 252.340532 289.679375 
L 252.572511 82.697749 
L 252.6885 88.57302 
L 252.80449 140.119474 
L 252.920479 105.132677 
L 253.036469 211.103804 
L 253.152458 190.441753 
L 253.384437 82.122421 
L 253.500427 121.565223 
L 253.616416 97.409059 
L 253.848395 161.818179 
L 254.080374 108.851495 
L 254.196364 96.181064 
L 254.312353 135.489978 
L 254.428343 95.804746 
L 254.544332 137.514152 
L 254.660322 108.524325 
L 254.776311 110.882296 
L 254.8923 166.532193 
L 255.00829 166.820411 
L 255.124279 110.379604 
L 255.356258 128.557717 
L 255.472248 98.482345 
L 255.588237 154.054824 
L 255.820216 117.582124 
L 255.936206 126.794781 
L 256.052195 200.433441 
L 256.284174 77.103758 
L 256.516153 184.337426 
L 256.748132 109.577374 
L 256.864122 133.002997 
L 257.096101 105.416186 
L 257.21209 103.348184 
L 257.32808 158.127268 
L 257.444069 270.209385 
L 257.676048 120.429567 
L 257.792037 179.926735 
L 257.908027 107.732761 
L 258.024016 220.535452 
L 258.255995 114.268766 
L 258.371985 208.359331 
L 258.487974 174.254786 
L 258.603964 189.062371 
L 258.719953 91.014089 
L 258.835943 120.124708 
L 258.951932 185.756631 
L 259.067922 96.740004 
L 259.183911 130.320368 
L 259.299901 86.041886 
L 259.53188 136.706388 
L 259.647869 113.641692 
L 259.763859 121.930046 
L 259.879848 141.461248 
L 259.995837 85.376224 
L 260.111827 90.354418 
L 260.227816 143.451586 
L 260.575785 91.028502 
L 260.691774 128.748119 
L 260.807764 118.419202 
L 260.923753 148.943004 
L 261.039743 140.603814 
L 261.155732 100.030924 
L 261.387711 132.860928 
L 261.503701 77.764678 
L 261.61969 169.949058 
L 261.73568 89.427478 
L 261.851669 95.269708 
L 261.967659 65.238939 
L 262.083648 116.276979 
L 262.199638 106.934705 
L 262.315627 115.898985 
L 262.431616 77.11953 
L 262.547606 83.604756 
L 262.663595 128.297433 
L 262.895574 97.632513 
L 263.011564 186.913038 
L 263.127553 131.447948 
L 263.243543 205.952147 
L 263.707501 112.486716 
L 263.82349 98.362493 
L 264.055469 137.007102 
L 264.171459 92.49153 
L 264.287448 109.519695 
L 264.403438 143.405689 
L 264.635417 106.712368 
L 264.751406 137.576385 
L 264.867395 110.320651 
L 265.099374 138.799616 
L 265.215364 137.13225 
L 265.331353 137.712634 
L 265.447343 98.330933 
L 265.563332 158.031682 
L 265.795311 96.134113 
L 265.911301 89.138793 
L 266.02729 195.395202 
L 266.14328 99.793926 
L 266.259269 167.461849 
L 266.375259 83.87576 
L 266.723227 182.113171 
L 266.955206 106.92923 
L 267.071196 100.983138 
L 267.303175 133.703231 
L 267.535153 128.767729 
L 267.651143 158.743274 
L 267.767132 124.126777 
L 267.883122 176.694025 
L 268.115101 62.566562 
L 268.23109 124.913707 
L 268.34708 66.174516 
L 268.463069 91.603969 
L 268.579059 91.749052 
L 268.695048 144.813067 
L 268.927027 63.778559 
L 269.043017 194.919704 
L 269.274996 72.411847 
L 269.390985 146.039551 
L 269.622964 97.191307 
L 269.738954 124.909699 
L 269.854943 72.821345 
L 269.970932 153.545047 
L 270.086922 137.585806 
L 270.318901 164.66406 
L 270.43489 146.039178 
L 270.55088 75.562651 
L 270.666869 114.436231 
L 270.782859 206.536708 
L 271.014838 135.441612 
L 271.362806 208.557629 
L 271.594785 83.863431 
L 271.710775 156.984119 
L 271.826764 82.965542 
L 271.942754 168.419877 
L 272.174733 118.98005 
L 272.290722 121.099729 
L 272.406711 161.640767 
L 272.522701 140.720433 
L 272.63869 152.350391 
L 272.75468 104.392759 
L 272.986659 202.129847 
L 273.218638 118.039293 
L 273.334627 104.019673 
L 273.450617 134.023466 
L 273.566606 133.254094 
L 273.682596 138.645767 
L 273.798585 96.195235 
L 273.914575 151.485302 
L 274.030564 128.505523 
L 274.146554 138.518879 
L 274.262543 184.882091 
L 274.378533 179.313093 
L 274.494522 125.217623 
L 274.610512 165.038288 
L 274.726501 85.867331 
L 275.074469 166.313958 
L 275.190459 124.009149 
L 275.306448 153.606773 
L 275.422438 76.321363 
L 275.538427 178.949345 
L 275.770406 85.859886 
L 275.886396 172.524663 
L 276.002385 141.33899 
L 276.118375 195.152 
L 276.350354 91.116295 
L 276.466343 166.621793 
L 276.582333 118.197808 
L 276.814312 197.465634 
L 277.16228 101.170422 
L 277.27827 242.013184 
L 277.394259 204.842775 
L 277.626238 119.839789 
L 277.742227 129.141608 
L 277.858217 102.09431 
L 277.974206 118.332661 
L 278.090196 157.640415 
L 278.206185 154.64848 
L 278.322175 101.763909 
L 278.438164 152.676282 
L 278.554154 96.396722 
L 278.670143 190.665159 
L 278.786133 140.999068 
L 278.902122 146.718747 
L 279.018112 93.110641 
L 279.250091 144.978938 
L 279.36608 136.780584 
L 279.48207 161.641827 
L 279.598059 103.075217 
L 279.714049 118.179097 
L 279.830038 151.968066 
L 279.946027 220.939131 
L 280.062017 142.863523 
L 280.178006 141.924783 
L 280.293996 124.724967 
L 280.409985 125.675148 
L 280.525975 173.549002 
L 280.641964 103.697667 
L 280.757954 151.616702 
L 280.873943 133.733941 
L 280.989933 139.967069 
L 281.105922 185.026542 
L 281.221912 148.36751 
L 281.337901 178.89355 
L 281.68587 102.292795 
L 281.801859 189.074431 
L 281.917849 130.830214 
L 282.033838 137.208355 
L 282.149828 245.407893 
L 282.265817 125.627469 
L 282.381806 136.523951 
L 282.497796 114.228508 
L 282.613785 125.615047 
L 282.729775 172.051188 
L 282.845764 135.158348 
L 282.961754 138.581833 
L 283.077743 152.472935 
L 283.193733 144.126381 
L 283.309722 146.721021 
L 283.425712 114.52899 
L 283.657691 177.838819 
L 283.77368 126.741418 
L 283.88967 128.296097 
L 284.005659 195.649621 
L 284.237638 129.202397 
L 284.353628 192.389912 
L 284.469617 115.730359 
L 284.585607 132.268046 
L 284.701596 129.152828 
L 284.817586 151.479965 
L 285.049564 126.215263 
L 285.165554 216.202695 
L 285.281543 156.928114 
L 285.397533 199.933558 
L 285.513522 130.401321 
L 285.629512 169.17324 
L 285.745501 133.832996 
L 285.97748 212.703512 
L 286.09347 121.121872 
L 286.209459 157.599413 
L 286.325449 157.940059 
L 286.441438 113.849446 
L 286.673417 162.820111 
L 286.789407 141.685859 
L 286.905396 169.641698 
L 287.021386 118.394447 
L 287.137375 224.360083 
L 287.369354 122.74561 
L 287.485343 112.402273 
L 287.601333 194.173811 
L 287.717322 188.173677 
L 287.833312 120.631884 
L 288.065291 183.01063 
L 288.18128 157.900313 
L 288.29727 216.35758 
L 288.413259 142.174001 
L 288.529249 225.988216 
L 288.645238 112.050642 
L 288.761228 167.794008 
L 288.877217 120.273786 
L 288.993207 179.838944 
L 289.109196 145.986291 
L 289.225186 168.208002 
L 289.341175 121.690759 
L 289.457165 130.332142 
L 289.689144 212.291934 
L 289.805133 121.243416 
L 289.921122 172.856017 
L 290.153101 133.132503 
L 290.269091 169.626887 
L 290.50107 128.968052 
L 290.617059 223.043436 
L 290.849038 165.650405 
L 290.965028 145.346422 
L 291.081017 209.756058 
L 291.197007 157.198896 
L 291.312996 180.824197 
L 291.428986 96.957756 
L 291.544975 159.8307 
L 291.660965 148.820383 
L 291.776954 156.911141 
L 292.008933 145.243488 
L 292.124923 150.369188 
L 292.240912 168.635469 
L 292.356901 132.06305 
L 292.472891 139.253962 
L 292.58888 184.592358 
L 292.70487 166.98586 
L 292.936849 177.238271 
L 293.052838 279.454308 
L 293.168828 114.072039 
L 293.400807 202.267319 
L 293.632786 135.655195 
L 293.748775 196.773692 
L 293.864765 142.455699 
L 294.096744 180.697714 
L 294.212733 134.683234 
L 294.328723 184.590612 
L 294.444712 108.614891 
L 294.560702 160.904849 
L 294.676691 121.644743 
L 294.792681 178.366057 
L 295.024659 151.600532 
L 295.140649 154.324042 
L 295.256638 187.083602 
L 295.488617 119.491683 
L 295.720596 207.485469 
L 295.952575 98.918538 
L 296.068565 171.007806 
L 296.184554 123.836313 
L 296.300544 125.493993 
L 296.416533 137.608882 
L 296.648512 204.839991 
L 296.764502 222.780066 
L 296.880491 140.505202 
L 296.996481 222.614748 
L 297.22846 135.006388 
L 297.344449 158.686529 
L 297.460438 138.716406 
L 297.576428 146.412228 
L 297.692417 245.963523 
L 297.924396 156.499314 
L 298.040386 210.098277 
L 298.156375 146.744682 
L 298.388354 174.931654 
L 298.504344 133.606076 
L 298.620333 197.841228 
L 298.736323 145.236243 
L 298.852312 221.602665 
L 298.968302 103.946828 
L 299.084291 205.542103 
L 299.200281 181.31481 
L 299.31627 111.702518 
L 299.43226 185.693173 
L 299.664239 127.692212 
L 299.780228 153.702612 
L 299.896217 148.873419 
L 300.012207 169.131638 
L 300.128196 220.366824 
L 300.244186 119.806632 
L 300.360175 128.980984 
L 300.476165 128.714775 
L 300.708144 188.471257 
L 300.940123 163.583454 
L 301.056112 138.544254 
L 301.172102 158.588287 
L 301.404081 111.201156 
L 301.52007 167.261945 
L 301.63606 124.160377 
L 301.868039 188.413735 
L 301.984028 133.294515 
L 302.100018 237.827306 
L 302.331996 149.441671 
L 302.447986 136.394068 
L 302.563975 135.894556 
L 302.679965 142.022391 
L 302.795954 158.485003 
L 302.911944 145.523978 
L 303.027933 119.638178 
L 303.259912 215.376664 
L 303.375902 139.506068 
L 303.491891 199.138611 
L 303.607881 152.244653 
L 303.72387 194.39725 
L 303.955849 99.348394 
L 304.071839 183.596018 
L 304.187828 166.915057 
L 304.303818 186.271159 
L 304.419807 164.045592 
L 304.535797 177.838341 
L 304.651786 142.710163 
L 304.883765 230.907597 
L 304.999754 172.371972 
L 305.115744 234.018922 
L 305.231733 158.789868 
L 305.347723 196.344473 
L 305.463712 138.413557 
L 305.579702 160.47219 
L 305.695691 138.523418 
L 305.811681 186.307878 
L 305.92767 186.887397 
L 306.04366 140.784086 
L 306.159649 142.296398 
L 306.275639 163.488234 
L 306.391628 141.806061 
L 306.623607 212.162962 
L 306.739597 116.867477 
L 306.855586 139.545687 
L 306.971576 260.709526 
L 307.203555 139.586551 
L 307.319544 176.676217 
L 307.435533 143.163635 
L 307.551523 158.320726 
L 307.667512 122.605442 
L 307.783502 158.062488 
L 307.899491 254.193364 
L 308.13147 116.54154 
L 308.24746 132.995015 
L 308.363449 169.561906 
L 308.479439 148.870191 
L 308.595428 187.171467 
L 308.711418 138.77606 
L 308.827407 139.009426 
L 308.943397 178.874578 
L 309.059386 169.236638 
L 309.175376 145.82881 
L 309.407355 207.236715 
L 309.639334 136.486724 
L 309.755323 193.742639 
L 309.871312 158.037216 
L 309.987302 168.797357 
L 310.103291 112.882107 
L 310.33527 173.915098 
L 310.45126 179.097284 
L 310.683239 127.114421 
L 310.799228 200.216055 
L 310.915218 145.991965 
L 311.031207 145.863504 
L 311.147197 181.774439 
L 311.263186 113.120837 
L 311.495165 251.471893 
L 311.727144 140.538422 
L 311.843134 169.77849 
L 311.959123 258.981836 
L 312.075113 150.881841 
L 312.191102 169.47822 
L 312.307091 290.972991 
L 312.53907 159.243262 
L 312.65506 139.651028 
L 312.771049 174.718874 
L 312.887039 151.956349 
L 313.003028 199.302184 
L 313.235007 152.328272 
L 313.350997 167.917607 
L 313.466986 117.288059 
L 313.582976 234.709149 
L 313.698965 139.241773 
L 313.930944 228.130541 
L 314.046934 151.810874 
L 314.162923 155.179771 
L 314.394902 127.52927 
L 314.510892 113.91073 
L 314.742871 261.622461 
L 314.974849 103.369552 
L 315.090839 201.938552 
L 315.206828 196.118329 
L 315.438807 143.627501 
L 315.554797 162.24433 
L 315.670786 120.498971 
L 315.786776 139.991806 
L 315.902765 137.247652 
L 316.018755 202.716051 
L 316.134744 174.536816 
L 316.250734 174.644603 
L 316.366723 199.93825 
L 316.482713 166.488304 
L 316.598702 199.378029 
L 316.714692 134.799513 
L 316.830681 140.986733 
L 316.946671 103.091875 
L 317.410628 269.108295 
L 317.642607 177.831418 
L 317.758597 153.236762 
L 317.874586 153.19021 
L 317.990576 147.829166 
L 318.106565 215.426141 
L 318.222555 202.522055 
L 318.454534 121.829835 
L 318.570523 116.538235 
L 318.686513 211.8543 
L 318.802502 154.919794 
L 318.918492 175.771854 
L 319.150471 138.418835 
L 319.26646 153.806987 
L 319.38245 281.975607 
L 319.498439 128.756204 
L 319.614429 246.544038 
L 319.846407 139.937132 
L 320.078386 175.662582 
L 320.194376 117.09273 
L 320.426355 294.40853 
L 320.542344 235.997069 
L 320.774323 264.616932 
L 321.006302 186.009906 
L 321.238281 177.349128 
L 321.354271 143.918251 
L 321.47026 166.676617 
L 321.58625 151.600652 
L 321.934218 231.156175 
L 322.050208 219.516583 
L 322.282186 137.300552 
L 322.398176 186.848097 
L 322.514165 150.347814 
L 322.630155 152.986152 
L 322.746144 111.970824 
L 322.862134 158.234578 
L 322.978123 129.320727 
L 323.094113 133.198298 
L 323.210102 176.156805 
L 323.326092 134.823831 
L 323.442081 167.668997 
L 323.558071 158.289501 
L 323.67406 117.670651 
L 323.79005 153.727429 
L 323.906039 113.387508 
L 324.138018 210.094612 
L 324.369997 173.140815 
L 324.485987 190.134443 
L 324.601976 173.801535 
L 324.717966 213.189337 
L 324.833955 145.796189 
L 324.949944 179.872913 
L 325.065934 168.716766 
L 325.181923 243.103355 
L 325.297913 149.618047 
L 325.529892 167.18543 
L 325.761871 265.893393 
L 325.87786 128.90684 
L 325.99385 170.134123 
L 326.109839 119.811501 
L 326.225829 118.016318 
L 326.457808 165.20681 
L 326.573797 169.186411 
L 326.689787 251.783814 
L 326.805776 143.572927 
L 326.921766 162.834878 
L 327.037755 120.298298 
L 327.153745 164.855201 
L 327.269734 142.877678 
L 327.385723 198.008288 
L 327.501713 157.390271 
L 327.617702 179.509124 
L 327.733692 149.327573 
L 327.965671 194.03529 
L 328.19765 119.317192 
L 328.545618 251.530157 
L 328.777597 145.239277 
L 328.893587 186.943738 
L 329.009576 155.841794 
L 329.125566 225.545357 
L 329.241555 160.938496 
L 329.473534 207.68972 
L 329.589524 128.33565 
L 329.937492 201.79664 
L 330.169471 163.480358 
L 330.28546 151.053222 
L 330.40145 107.917127 
L 330.517439 165.431209 
L 330.633429 155.301136 
L 330.865408 158.537586 
L 330.981397 169.578663 
L 331.097387 282.300227 
L 331.213376 132.665278 
L 331.329366 156.035347 
L 331.445355 134.64662 
L 331.561345 247.343142 
L 331.677334 236.533796 
L 331.909313 141.591171 
L 332.025303 131.413433 
L 332.141292 228.062939 
L 332.257281 131.102957 
L 332.48926 218.59081 
L 332.60525 142.957776 
L 332.837229 177.351746 
L 332.953218 171.616935 
L 333.069208 142.011555 
L 333.185197 154.714992 
L 333.301187 198.223631 
L 333.533166 174.180594 
L 333.649155 177.589565 
L 333.765145 123.425046 
L 333.881134 164.41921 
L 333.997124 124.934365 
L 334.113113 136.042665 
L 334.229103 212.500323 
L 334.461082 115.042146 
L 334.577071 168.263287 
L 334.80905 145.747363 
L 334.925039 148.019692 
L 335.041029 234.726983 
L 335.157018 144.275045 
L 335.273008 150.039858 
L 335.388997 228.273615 
L 335.504987 132.020143 
L 335.620976 149.992012 
L 335.736966 185.36423 
L 335.852955 162.879545 
L 335.968945 180.185348 
L 336.084934 162.010574 
L 336.200924 180.643696 
L 336.432903 139.31309 
L 336.548892 247.133282 
L 336.780871 119.042282 
L 337.12884 231.506827 
L 337.244829 179.949695 
L 337.360818 230.723337 
L 337.708787 134.631005 
L 337.824776 236.126653 
L 337.940766 161.279871 
L 338.056755 190.638356 
L 338.172745 123.878514 
L 338.404724 207.4347 
L 338.520713 156.268814 
L 338.752692 235.509296 
L 338.868682 136.374997 
L 338.984671 225.313442 
L 339.100661 158.184011 
L 339.21665 167.82158 
L 339.33264 214.930072 
L 339.564619 142.287102 
L 339.912587 203.918669 
L 340.260555 161.046808 
L 340.376545 200.745664 
L 340.492534 156.441887 
L 340.608524 243.278428 
L 340.724513 164.503083 
L 340.840503 171.314746 
L 340.956492 161.951069 
L 341.072482 125.697318 
L 341.188471 135.322949 
L 341.304461 265.628535 
L 341.42045 124.37578 
L 341.53644 230.100512 
L 341.652429 174.269182 
L 341.768419 193.925388 
L 341.884408 131.944166 
L 342.000398 187.559821 
L 342.116387 151.691202 
L 342.348366 221.816138 
L 342.464355 133.293307 
L 342.696334 187.440895 
L 342.812324 125.36264 
L 343.044303 219.47975 
L 343.160292 166.103359 
L 343.276282 198.721107 
L 343.508261 145.157732 
L 343.74024 189.040869 
L 343.856229 142.244204 
L 343.972219 167.63915 
L 344.088208 168.536848 
L 344.204198 161.476495 
L 344.320187 161.873393 
L 344.436177 181.627646 
L 344.552166 246.52963 
L 344.668156 134.19701 
L 344.784145 147.936209 
L 344.900134 140.273986 
L 345.016124 199.105651 
L 345.132113 125.905826 
L 345.364092 212.798804 
L 345.480082 132.237307 
L 345.596071 170.498665 
L 345.82805 128.042874 
L 345.94404 148.529412 
L 346.060029 140.060001 
L 346.176019 304.071379 
L 346.523987 154.534914 
L 346.639977 214.975674 
L 346.871956 132.830869 
L 346.987945 134.861546 
L 347.103935 133.591565 
L 347.335913 239.926272 
L 347.451903 165.656002 
L 347.567892 184.15997 
L 347.683882 221.777876 
L 347.799871 129.383835 
L 347.915861 180.196347 
L 348.03185 166.371156 
L 348.14784 178.917559 
L 348.379819 142.650396 
L 348.495808 164.840309 
L 348.727787 113.031602 
L 348.843777 219.757206 
L 349.075756 156.132987 
L 349.191745 195.607793 
L 349.307735 119.357011 
L 349.423724 184.435879 
L 349.539714 149.147988 
L 349.655703 195.017588 
L 349.771692 189.133715 
L 349.887682 168.99525 
L 350.003671 172.154612 
L 350.119661 152.386647 
L 350.23565 184.855575 
L 350.35164 152.830904 
L 350.467629 155.493775 
L 350.583619 179.054165 
L 350.699608 168.334501 
L 350.931587 202.27839 
L 351.163566 148.207432 
L 351.279556 238.890773 
L 351.395545 218.431549 
L 351.627524 105.720373 
L 351.859503 166.432674 
L 351.975493 195.689237 
L 352.091482 181.320819 
L 352.207471 216.316166 
L 352.323461 184.923726 
L 352.55544 225.550368 
L 352.671429 112.948592 
L 352.903408 192.480504 
L 353.019398 180.911501 
L 353.135387 176.795478 
L 353.251377 203.934375 
L 353.367366 191.787168 
L 353.483356 229.239658 
L 353.599345 208.092723 
L 353.715335 262.364354 
L 353.831324 136.734207 
L 353.947314 189.405445 
L 354.063303 133.336663 
L 354.295282 224.199503 
L 354.411272 207.391654 
L 354.527261 123.74684 
L 354.643251 158.21751 
L 354.75924 259.38491 
L 354.875229 147.380139 
L 354.991219 190.512151 
L 355.223198 150.210395 
L 355.339187 179.748115 
L 355.571166 163.13532 
L 355.687156 162.737373 
L 355.803145 126.109925 
L 355.919135 159.927272 
L 356.035124 154.837809 
L 356.151114 166.673466 
L 356.267103 136.86951 
L 356.383093 164.104116 
L 356.499082 147.91616 
L 356.615072 147.707261 
L 356.731061 166.014729 
L 356.847051 147.329786 
L 356.96304 162.911012 
L 357.07903 152.219023 
L 357.195019 189.834392 
L 357.311008 140.612424 
L 357.542987 198.295564 
L 357.658977 190.757661 
L 357.774966 134.263112 
L 358.006945 189.311259 
L 358.122935 146.728836 
L 358.238924 168.252199 
L 358.354914 131.4186 
L 358.470903 196.402925 
L 358.586893 177.969772 
L 358.702882 240.322023 
L 358.818872 170.760933 
L 358.934861 177.201027 
L 359.050851 144.841061 
L 359.16684 146.730714 
L 359.28283 193.616307 
L 359.398819 180.670733 
L 359.630798 127.919524 
L 359.746787 157.715991 
L 359.862777 136.617386 
L 359.978766 201.125193 
L 360.210745 159.822103 
L 360.326735 129.456779 
L 360.790693 248.988076 
L 361.022672 150.623862 
L 361.138661 197.266389 
L 361.37064 124.122789 
L 361.48663 182.084986 
L 361.602619 153.857718 
L 361.834598 184.241324 
L 361.950588 228.169367 
L 362.066577 165.118376 
L 362.182567 172.428268 
L 362.298556 135.641417 
L 362.414545 177.989315 
L 362.530535 117.41125 
L 362.646524 276.690956 
L 362.878503 114.30855 
L 362.994493 121.258694 
L 363.110482 201.025949 
L 363.342461 148.492698 
L 363.458451 113.948425 
L 363.57444 158.933472 
L 363.69043 136.829651 
L 363.806419 266.795902 
L 364.038398 92.779856 
L 364.270377 163.323245 
L 364.386367 217.151341 
L 364.618346 122.700569 
L 364.734335 226.605212 
L 364.850324 143.509126 
L 364.966314 229.266093 
L 365.082303 131.772187 
L 365.198293 180.732867 
L 365.314282 154.953967 
L 365.430272 203.960045 
L 365.662251 147.538545 
L 365.77824 198.783633 
L 365.89423 160.171221 
L 366.126209 261.674695 
L 366.358188 140.044619 
L 366.474177 192.247278 
L 366.706156 167.516811 
L 366.822146 227.8399 
L 366.938135 183.966706 
L 367.054125 200.769074 
L 367.170114 123.943316 
L 367.286103 176.783327 
L 367.402093 175.332251 
L 367.518082 162.712909 
L 367.634072 176.434839 
L 367.750061 106.9899 
L 367.98204 199.145168 
L 368.214019 128.045021 
L 368.445998 197.820594 
L 368.677977 114.055757 
L 368.793967 143.53311 
L 368.909956 256.824459 
L 369.025946 244.297112 
L 369.141935 174.399085 
L 369.257925 173.537781 
L 369.373914 158.011043 
L 369.489904 289.320578 
L 369.605893 253.347547 
L 369.837872 152.066148 
L 369.953861 247.975357 
L 370.30183 139.172539 
L 370.417819 212.792426 
L 370.649798 163.663518 
L 370.765788 231.649472 
L 370.881777 175.386307 
L 370.997767 201.744729 
L 371.113756 131.824287 
L 371.229746 137.598919 
L 371.345735 230.134243 
L 371.461725 171.173427 
L 371.577714 207.165241 
L 371.925683 146.393463 
L 372.041672 239.420424 
L 372.273651 175.752878 
L 372.38964 178.148866 
L 372.621619 137.727238 
L 372.853598 217.821704 
L 372.969588 207.157483 
L 373.085577 209.081812 
L 373.201567 154.882579 
L 373.317556 210.660878 
L 373.549535 158.631147 
L 373.781514 310.240525 
L 374.013493 187.127967 
L 374.129483 215.96094 
L 374.245472 211.662994 
L 374.361462 197.679177 
L 374.477451 255.236047 
L 374.70943 178.052963 
L 374.825419 172.730445 
L 374.941409 244.243588 
L 375.057398 174.047973 
L 375.173388 216.652499 
L 375.289377 215.511981 
L 375.521356 273.044054 
L 375.637346 191.820659 
L 375.753335 205.492617 
L 375.869325 166.793986 
L 375.985314 183.472072 
L 376.101304 300.795122 
L 376.333283 179.605916 
L 376.565262 239.361048 
L 376.681251 238.987621 
L 376.797241 242.271762 
L 376.91323 195.355844 
L 377.02922 218.220118 
L 377.145209 183.946675 
L 377.261198 276.229415 
L 377.377188 200.493585 
L 377.493177 266.452153 
L 377.609167 233.48752 
L 377.722993 346.6 
M 377.727097 346.6 
L 377.841146 220.24553 
L 377.994653 346.6 
M 378.107603 346.6 
L 378.305104 227.939384 
L 378.421093 275.488861 
L 378.537083 257.781592 
L 378.653072 271.369327 
L 378.885051 249.467806 
L 379.103088 346.6 
M 379.124778 346.6 
L 379.23302 257.334269 
L 379.349009 289.954344 
L 379.464999 255.213344 
L 379.580988 262.977059 
L 379.696977 288.715719 
L 379.812967 288.443618 
L 379.928956 272.429543 
L 380.044946 341.03476 
L 380.276925 265.390197 
L 380.349569 346.6 
M 380.683612 346.6 
L 380.740883 295.664423 
L 380.833826 346.6 
M 381.082209 346.6 
L 381.088851 342.6039 
L 381.095663 346.6 
M 381.375701 346.6 
L 381.43682 340.111818 
L 381.450897 346.6 
M 381.666735 346.6 
L 381.668799 345.749063 
L 381.670661 346.6 
M 381.875745 346.6 
L 381.900778 332.245217 
L 381.976128 346.6 
M 382.199885 346.6 
L 382.248746 327.142107 
L 382.299108 346.6 
M 90.136881 346.6 
L 90.187243 327.142107 
L 90.236105 346.6 
M 90.459861 346.6 
L 90.535212 332.245217 
L 90.560244 346.6 
M 90.765329 346.6 
L 90.767191 345.749063 
L 90.769255 346.6 
M 90.985093 346.6 
L 90.99917 340.111818 
L 91.060288 346.6 
M 91.340326 346.6 
L 91.347138 342.6039 
L 91.35378 346.6 
M 91.602163 346.6 
L 91.695107 295.664423 
L 91.752377 346.6 
M 92.086421 346.6 
L 92.159065 265.390197 
L 92.391044 341.03476 
L 92.507033 272.429543 
L 92.623023 288.443618 
L 92.739012 288.715719 
L 92.970991 255.213344 
L 93.08698 289.954344 
L 93.20297 257.334269 
L 93.311212 346.6 
M 93.332901 346.6 
L 93.550938 249.467806 
L 93.666928 253.063523 
L 93.782917 271.369327 
L 93.898907 257.781592 
L 94.014896 275.488861 
L 94.130886 227.939384 
L 94.246875 240.429772 
L 94.328386 346.6 
M 94.441336 346.6 
L 94.594844 220.24553 
L 94.708892 346.6 
M 94.712997 346.6 
L 94.826823 233.48752 
L 94.942812 266.452153 
L 95.058802 200.493585 
L 95.174791 276.229415 
L 95.29078 183.946675 
L 95.40677 218.220118 
L 95.522759 195.355844 
L 95.638749 242.271762 
L 95.754738 238.987621 
L 95.870728 239.361048 
L 96.102707 179.605916 
L 96.334686 300.795122 
L 96.566665 166.793986 
L 96.682654 205.492617 
L 96.798644 191.820659 
L 96.914633 273.044054 
L 97.378591 174.047973 
L 97.494581 244.243588 
L 97.61057 172.730445 
L 97.726559 178.052963 
L 97.842549 197.705665 
L 97.958538 255.236047 
L 98.074528 197.679177 
L 98.306507 215.96094 
L 98.422496 187.127967 
L 98.538486 200.124992 
L 98.654475 310.240525 
L 98.886454 158.631147 
L 99.002444 173.707908 
L 99.118433 210.660878 
L 99.234423 154.882579 
L 99.350412 209.081812 
L 99.466402 207.157483 
L 99.582391 217.821704 
L 99.81437 137.727238 
L 100.046349 178.148866 
L 100.162338 175.752878 
L 100.278328 185.35225 
L 100.394317 239.420424 
L 100.510307 146.393463 
L 100.858275 207.165241 
L 100.974265 171.173427 
L 101.090254 230.134243 
L 101.322233 131.824287 
L 101.438223 201.744729 
L 101.554212 175.386307 
L 101.670202 231.649472 
L 101.786191 163.663518 
L 102.01817 212.792426 
L 102.13416 139.172539 
L 102.482128 247.975357 
L 102.598118 152.066148 
L 102.714107 161.239019 
L 102.946086 289.320578 
L 103.062075 158.011043 
L 103.294054 174.399085 
L 103.526033 256.824459 
L 103.758012 114.055757 
L 103.874002 125.45987 
L 103.989991 197.820594 
L 104.22197 128.045021 
L 104.33796 145.861896 
L 104.453949 199.145168 
L 104.569939 170.96521 
L 104.685928 106.9899 
L 104.801918 176.434839 
L 104.917907 162.712909 
L 105.149886 176.783327 
L 105.265875 123.943316 
L 105.381865 200.769074 
L 105.497854 183.966706 
L 105.613844 227.8399 
L 105.729833 167.516811 
L 105.961812 192.247278 
L 106.077802 140.044619 
L 106.309781 261.674695 
L 106.42577 248.215835 
L 106.54176 160.171221 
L 106.657749 198.783633 
L 106.773739 147.538545 
L 106.889728 159.350264 
L 107.005718 203.960045 
L 107.121707 154.953967 
L 107.237697 180.732867 
L 107.353686 131.772187 
L 107.469676 229.266093 
L 107.585665 143.509126 
L 107.701654 226.605212 
L 107.817644 122.700569 
L 108.049623 217.151341 
L 108.397591 92.779856 
L 108.513581 104.50241 
L 108.62957 266.795902 
L 108.74556 136.829651 
L 108.861549 158.933472 
L 108.977539 113.948425 
L 109.325507 201.025949 
L 109.557486 114.30855 
L 109.789465 276.690956 
L 109.905455 117.41125 
L 110.021444 177.989315 
L 110.137433 135.641417 
L 110.253423 172.428268 
L 110.369412 165.118376 
L 110.485402 228.169367 
L 110.717381 169.212676 
L 110.83337 153.857718 
L 110.94936 182.084986 
L 111.065349 124.122789 
L 111.297328 197.266389 
L 111.413318 150.623862 
L 111.645297 248.988076 
L 111.761286 239.764416 
L 111.993265 168.189432 
L 112.109255 129.456779 
L 112.457223 201.125193 
L 112.573213 136.617386 
L 112.689202 157.715991 
L 112.805191 127.919524 
L 113.15316 193.616307 
L 113.269149 146.730714 
L 113.385139 144.841061 
L 113.501128 177.201027 
L 113.617118 170.760933 
L 113.733107 240.322023 
L 113.849097 177.969772 
L 113.965086 196.402925 
L 114.081076 131.4186 
L 114.197065 168.252199 
L 114.313055 146.728836 
L 114.429044 189.311259 
L 114.545034 181.210386 
L 114.661023 134.263112 
L 114.893002 198.295564 
L 115.008992 182.603127 
L 115.124981 140.612424 
L 115.24097 189.834392 
L 115.35696 152.219023 
L 115.472949 162.911012 
L 115.588939 147.329786 
L 115.704928 166.014729 
L 115.820918 147.707261 
L 115.936907 147.91616 
L 116.052897 164.104116 
L 116.168886 136.86951 
L 116.284876 166.673466 
L 116.400865 154.837809 
L 116.516855 159.927272 
L 116.632844 126.109925 
L 116.748834 162.737373 
L 116.864823 163.13532 
L 117.096802 179.748115 
L 117.212792 150.210395 
L 117.444771 190.512151 
L 117.56076 147.380139 
L 117.676749 259.38491 
L 117.908728 123.74684 
L 118.140707 224.199503 
L 118.256697 202.57691 
L 118.372686 133.336663 
L 118.488676 189.405445 
L 118.604665 136.734207 
L 118.720655 262.364354 
L 118.836644 208.092723 
L 118.952634 229.239658 
L 119.068623 191.787168 
L 119.184613 203.934375 
L 119.300602 176.795478 
L 119.416592 180.911501 
L 119.532581 192.480504 
L 119.76456 112.948592 
L 119.88055 225.550368 
L 119.996539 214.084337 
L 120.112529 184.923726 
L 120.228518 216.316166 
L 120.344507 181.320819 
L 120.460497 195.689237 
L 120.808465 105.720373 
L 120.924455 131.449931 
L 121.156434 238.890773 
L 121.272423 148.207432 
L 121.388413 155.707379 
L 121.504402 202.27839 
L 121.736381 168.334501 
L 121.852371 179.054165 
L 122.08435 152.830904 
L 122.200339 184.855575 
L 122.316329 152.386647 
L 122.432318 172.154612 
L 122.548308 168.99525 
L 122.780286 195.017588 
L 122.896276 149.147988 
L 123.012265 184.435879 
L 123.128255 119.357011 
L 123.244244 195.607793 
L 123.360234 156.132987 
L 123.476223 168.31223 
L 123.592213 219.757206 
L 123.708202 113.031602 
L 123.940181 164.840309 
L 124.056171 142.650396 
L 124.28815 178.917559 
L 124.404139 166.371156 
L 124.520129 180.196347 
L 124.636118 129.383835 
L 124.752108 221.777876 
L 124.984087 165.656002 
L 125.100076 239.926272 
L 125.332055 133.591565 
L 125.448044 134.861546 
L 125.564034 132.830869 
L 125.680023 160.066939 
L 125.796013 214.975674 
L 125.912002 154.534914 
L 126.027992 160.827329 
L 126.259971 304.071379 
L 126.37596 140.060001 
L 126.49195 148.529412 
L 126.607939 128.042874 
L 126.723929 135.40481 
L 126.839918 170.498665 
L 126.955908 132.237307 
L 127.071897 212.798804 
L 127.187887 185.378661 
L 127.303876 125.905826 
L 127.419866 199.105651 
L 127.535855 140.273986 
L 127.651844 147.936209 
L 127.767834 134.19701 
L 127.883823 246.52963 
L 128.115802 161.873393 
L 128.231792 161.476495 
L 128.347781 168.536848 
L 128.463771 167.63915 
L 128.57976 142.244204 
L 128.69575 189.040869 
L 128.927729 145.157732 
L 129.043718 157.452639 
L 129.159708 198.721107 
L 129.275697 166.103359 
L 129.391687 219.47975 
L 129.623666 125.36264 
L 129.739655 187.440895 
L 129.855645 170.953318 
L 129.971634 133.293307 
L 130.087624 221.816138 
L 130.319602 151.691202 
L 130.435592 187.559821 
L 130.551581 131.944166 
L 130.667571 193.925388 
L 130.78356 174.269182 
L 130.89955 230.100512 
L 131.015539 124.37578 
L 131.131529 265.628535 
L 131.363508 125.697318 
L 131.595487 171.314746 
L 131.711476 164.503083 
L 131.827466 243.278428 
L 131.943455 156.441887 
L 132.059445 200.745664 
L 132.175434 161.046808 
L 132.291424 189.346048 
L 132.407413 190.218713 
L 132.523403 203.918669 
L 132.871371 142.287102 
L 132.98736 146.599039 
L 133.10335 214.930072 
L 133.335329 158.184011 
L 133.451318 225.313442 
L 133.567308 136.374997 
L 133.683297 235.509296 
L 133.915276 156.268814 
L 134.031266 207.4347 
L 134.147255 194.370592 
L 134.263245 123.878514 
L 134.379234 190.638356 
L 134.495224 161.279871 
L 134.611213 236.126653 
L 134.727203 134.631005 
L 134.843192 148.151669 
L 135.075171 230.723337 
L 135.19116 179.949695 
L 135.30715 231.506827 
L 135.539129 158.09373 
L 135.655118 119.042282 
L 135.771108 133.9914 
L 135.887097 247.133282 
L 136.003087 139.31309 
L 136.235066 180.643696 
L 136.351055 162.010574 
L 136.467045 180.185348 
L 136.583034 162.879545 
L 136.699024 185.36423 
L 136.931003 132.020143 
L 137.046992 228.273615 
L 137.278971 144.275045 
L 137.394961 234.726983 
L 137.51095 148.019692 
L 137.626939 145.747363 
L 137.858918 168.263287 
L 137.974908 115.042146 
L 138.090897 146.797941 
L 138.206887 212.500323 
L 138.438866 124.934365 
L 138.554855 164.41921 
L 138.670845 123.425046 
L 138.786834 177.589565 
L 138.902824 174.180594 
L 139.134803 198.223631 
L 139.366782 142.011555 
L 139.598761 177.351746 
L 139.83074 142.957776 
L 139.946729 218.59081 
L 140.062719 196.156624 
L 140.178708 131.102957 
L 140.294697 228.062939 
L 140.410687 131.413433 
L 140.526676 141.591171 
L 140.874645 247.343142 
L 140.990634 134.64662 
L 141.106624 156.035347 
L 141.222613 132.665278 
L 141.338603 282.300227 
L 141.570582 158.537586 
L 141.802561 155.301136 
L 141.91855 165.431209 
L 142.03454 107.917127 
L 142.266519 163.480358 
L 142.382508 165.512538 
L 142.498498 201.79664 
L 142.846466 128.33565 
L 142.962455 207.68972 
L 143.194434 160.938496 
L 143.310424 225.545357 
L 143.426413 155.841794 
L 143.542403 186.943738 
L 143.658392 145.239277 
L 143.774382 160.897896 
L 143.890371 251.530157 
L 144.23834 119.317192 
L 144.470319 194.03529 
L 144.586308 177.164056 
L 144.702298 149.327573 
L 144.818287 179.509124 
L 144.934277 157.390271 
L 145.050266 198.008288 
L 145.166255 142.877678 
L 145.282245 164.855201 
L 145.398234 120.298298 
L 145.514224 162.834878 
L 145.630213 143.572927 
L 145.746203 251.783814 
L 145.978182 165.20681 
L 146.094171 161.275079 
L 146.210161 118.016318 
L 146.32615 119.811501 
L 146.44214 170.134123 
L 146.558129 128.90684 
L 146.674119 265.893393 
L 147.022087 158.578968 
L 147.138077 149.618047 
L 147.254066 243.103355 
L 147.370056 168.716766 
L 147.486045 179.872913 
L 147.602034 145.796189 
L 147.718024 213.189337 
L 147.834013 173.801535 
L 147.950003 190.134443 
L 148.065992 173.140815 
L 148.297971 210.094612 
L 148.52995 113.387508 
L 148.64594 153.727429 
L 148.761929 117.670651 
L 148.993908 167.668997 
L 149.109898 134.823831 
L 149.225887 176.156805 
L 149.457866 129.320727 
L 149.573856 158.234578 
L 149.689845 111.970824 
L 149.805835 152.986152 
L 149.921824 150.347814 
L 150.037814 186.848097 
L 150.153803 137.300552 
L 150.501771 231.156175 
L 150.73375 182.393485 
L 150.84974 151.600652 
L 150.965729 166.676617 
L 151.081719 143.918251 
L 151.313698 183.055589 
L 151.429687 186.009906 
L 151.545677 200.060097 
L 151.661666 264.616932 
L 151.893645 235.997069 
L 152.009635 294.40853 
L 152.241614 117.09273 
L 152.357603 175.662582 
L 152.473593 166.825 
L 152.589582 139.937132 
L 152.705571 165.405665 
L 152.821561 246.544038 
L 152.93755 128.756204 
L 153.05354 281.975607 
L 153.285519 138.418835 
L 153.401508 150.028492 
L 153.517498 175.771854 
L 153.633487 154.919794 
L 153.749477 211.8543 
L 153.865466 116.538235 
L 153.981456 121.829835 
L 154.329424 215.426141 
L 154.445414 147.829166 
L 154.561403 153.19021 
L 154.677393 153.236762 
L 154.909372 199.261328 
L 155.025361 269.108295 
L 155.25734 216.09003 
L 155.489319 103.091875 
L 155.605308 140.986733 
L 155.721298 134.799513 
L 155.837287 199.378029 
L 155.953277 166.488304 
L 156.069266 199.93825 
L 156.185256 174.644603 
L 156.301245 174.536816 
L 156.417235 202.716051 
L 156.533224 137.247652 
L 156.649214 139.991806 
L 156.765203 120.498971 
L 156.881193 162.24433 
L 156.997182 143.627501 
L 157.229161 196.118329 
L 157.345151 201.938552 
L 157.46114 103.369552 
L 157.693119 261.622461 
L 157.925098 113.91073 
L 158.273066 155.179771 
L 158.389056 151.810874 
L 158.505045 228.130541 
L 158.737024 139.241773 
L 158.853014 234.709149 
L 158.969003 117.288059 
L 159.084993 167.917607 
L 159.200982 152.328272 
L 159.316972 167.166608 
L 159.432961 199.302184 
L 159.548951 151.956349 
L 159.66494 174.718874 
L 159.78093 139.651028 
L 160.012909 166.236645 
L 160.128898 290.972991 
L 160.360877 150.881841 
L 160.476866 258.981836 
L 160.708845 140.538422 
L 160.824835 158.896972 
L 160.940824 251.471893 
L 161.172803 113.120837 
L 161.288793 181.774439 
L 161.404782 145.863504 
L 161.520772 145.991965 
L 161.636761 200.216055 
L 161.752751 127.114421 
L 161.86874 139.490814 
L 161.98473 179.097284 
L 162.100719 173.915098 
L 162.216709 154.866704 
L 162.332698 112.882107 
L 162.448688 168.797357 
L 162.564677 158.037216 
L 162.680666 193.742639 
L 162.796656 136.486724 
L 162.912645 157.187238 
L 163.028635 207.236715 
L 163.144624 200.637137 
L 163.260614 145.82881 
L 163.492593 178.874578 
L 163.608582 139.009426 
L 163.724572 138.77606 
L 163.840561 187.171467 
L 163.956551 148.870191 
L 164.07254 169.561906 
L 164.304519 116.54154 
L 164.536498 254.193364 
L 164.768477 122.605442 
L 164.884467 158.320726 
L 165.000456 143.163635 
L 165.116445 176.676217 
L 165.232435 139.586551 
L 165.464414 260.709526 
L 165.696393 116.867477 
L 165.812382 212.162962 
L 166.044361 141.806061 
L 166.160351 163.488234 
L 166.39233 140.784086 
L 166.508319 186.887397 
L 166.624309 186.307878 
L 166.740298 138.523418 
L 166.856288 160.47219 
L 166.972277 138.413557 
L 167.088267 196.344473 
L 167.204256 158.789868 
L 167.320246 234.018922 
L 167.436235 172.371972 
L 167.552224 230.907597 
L 167.784203 142.710163 
L 167.900193 177.838341 
L 168.016182 164.045592 
L 168.132172 186.271159 
L 168.248161 166.915057 
L 168.364151 183.596018 
L 168.48014 99.348394 
L 168.712119 194.39725 
L 168.828109 152.244653 
L 168.944098 199.138611 
L 169.060088 139.506068 
L 169.176077 215.376664 
L 169.408056 119.638178 
L 169.640035 158.485003 
L 169.872014 135.894556 
L 169.988004 136.394068 
L 170.103993 149.441671 
L 170.335972 237.827306 
L 170.451961 133.294515 
L 170.567951 188.413735 
L 170.68394 167.405888 
L 170.79993 124.160377 
L 170.915919 167.261945 
L 171.031909 111.201156 
L 171.263888 158.588287 
L 171.379877 138.544254 
L 171.611856 176.764516 
L 171.727846 188.471257 
L 171.843835 174.447418 
L 171.959825 128.714775 
L 172.075814 128.980984 
L 172.191804 119.806632 
L 172.307793 220.366824 
L 172.539772 148.873419 
L 172.655761 153.702612 
L 172.771751 127.692212 
L 173.00373 185.693173 
L 173.119719 111.702518 
L 173.351698 205.542103 
L 173.467688 103.946828 
L 173.583677 221.602665 
L 173.699667 145.236243 
L 173.815656 197.841228 
L 173.931646 133.606076 
L 174.047635 174.931654 
L 174.279614 146.744682 
L 174.395604 210.098277 
L 174.511593 156.499314 
L 174.627583 170.403388 
L 174.743572 245.963523 
L 174.975551 138.716406 
L 175.09154 158.686529 
L 175.20753 135.006388 
L 175.323519 147.085879 
L 175.439509 222.614748 
L 175.555498 140.505202 
L 175.671488 222.780066 
L 175.903467 184.942257 
L 176.135446 125.493993 
L 176.251435 123.836313 
L 176.367425 171.007806 
L 176.483414 98.918538 
L 176.715393 207.485469 
L 176.947372 119.491683 
L 177.179351 187.083602 
L 177.41133 151.600532 
L 177.527319 157.17297 
L 177.643309 178.366057 
L 177.759298 121.644743 
L 177.875288 160.904849 
L 177.991277 108.614891 
L 178.107267 184.590612 
L 178.223256 134.683234 
L 178.339246 180.697714 
L 178.455235 174.361222 
L 178.571225 142.455699 
L 178.687214 196.773692 
L 178.803204 135.655195 
L 178.919193 152.086864 
L 179.035183 202.267319 
L 179.151172 173.3432 
L 179.267162 114.072039 
L 179.383151 279.454308 
L 179.499141 177.238271 
L 179.61513 174.546743 
L 179.73112 166.98586 
L 179.847109 184.592358 
L 180.079088 132.06305 
L 180.195077 168.635469 
L 180.427056 145.243488 
L 180.659035 156.911141 
L 180.775025 148.820383 
L 180.891014 159.8307 
L 181.007004 96.957756 
L 181.122993 180.824197 
L 181.238983 157.198896 
L 181.354972 209.756058 
L 181.470962 145.346422 
L 181.81893 223.043436 
L 181.93492 128.968052 
L 182.050909 132.258555 
L 182.166899 169.626887 
L 182.282888 133.132503 
L 182.398878 135.736995 
L 182.514867 172.856017 
L 182.630856 121.243416 
L 182.746846 212.291934 
L 182.978825 130.332142 
L 183.094814 121.690759 
L 183.210804 168.208002 
L 183.326793 145.986291 
L 183.442783 179.838944 
L 183.558772 120.273786 
L 183.674762 167.794008 
L 183.790751 112.050642 
L 183.906741 225.988216 
L 184.02273 142.174001 
L 184.13872 216.35758 
L 184.254709 157.900313 
L 184.370699 183.01063 
L 184.602678 120.631884 
L 184.834657 194.173811 
L 184.950646 112.402273 
L 185.066635 122.74561 
L 185.182625 155.404928 
L 185.298614 224.360083 
L 185.414604 118.394447 
L 185.530593 169.641698 
L 185.646583 141.685859 
L 185.762572 162.820111 
L 185.994551 113.849446 
L 186.110541 157.940059 
L 186.22653 157.599413 
L 186.34252 121.121872 
L 186.458509 212.703512 
L 186.690488 133.832996 
L 186.806478 169.17324 
L 186.922467 130.401321 
L 187.038457 199.933558 
L 187.154446 156.928114 
L 187.270436 216.202695 
L 187.386425 126.215263 
L 187.618404 151.479965 
L 187.734393 129.152828 
L 187.850383 132.268046 
L 187.966372 115.730359 
L 188.082362 192.389912 
L 188.198351 129.202397 
L 188.314341 143.689502 
L 188.43033 195.649621 
L 188.54632 128.296097 
L 188.662309 126.741418 
L 188.778299 177.838819 
L 189.010278 114.52899 
L 189.126267 146.721021 
L 189.242257 144.126381 
L 189.358246 152.472935 
L 189.590225 135.158348 
L 189.706215 172.051188 
L 189.938194 114.228508 
L 190.054183 136.523951 
L 190.170172 125.627469 
L 190.286162 245.407893 
L 190.518141 130.830214 
L 190.63413 189.074431 
L 190.75012 102.292795 
L 191.098088 178.89355 
L 191.214078 148.36751 
L 191.330067 185.026542 
L 191.562046 133.733941 
L 191.678036 151.616702 
L 191.794025 103.697667 
L 191.910015 173.549002 
L 192.026004 125.675148 
L 192.141994 124.724967 
L 192.373973 142.863523 
L 192.489962 220.939131 
L 192.721941 118.179097 
L 192.83793 103.075217 
L 192.95392 161.641827 
L 193.069909 136.780584 
L 193.185899 144.978938 
L 193.301888 136.291087 
L 193.417878 93.110641 
L 193.533867 146.718747 
L 193.649857 140.999068 
L 193.765846 190.665159 
L 193.881836 96.396722 
L 193.997825 152.676282 
L 194.113815 101.763909 
L 194.345794 157.640415 
L 194.577773 102.09431 
L 194.693762 129.141608 
L 194.809752 119.839789 
L 194.925741 131.664439 
L 195.15772 242.013184 
L 195.273709 101.170422 
L 195.621678 197.465634 
L 195.853657 118.197808 
L 195.969646 166.621793 
L 196.085636 91.116295 
L 196.201625 116.857322 
L 196.317615 195.152 
L 196.433604 141.33899 
L 196.549594 172.524663 
L 196.665583 85.859886 
L 196.897562 178.949345 
L 197.013552 76.321363 
L 197.129541 153.606773 
L 197.245531 124.009149 
L 197.36152 166.313958 
L 197.593499 113.866973 
L 197.709488 85.867331 
L 197.825478 165.038288 
L 197.941467 125.217623 
L 198.173446 184.882091 
L 198.405425 128.505523 
L 198.521415 151.485302 
L 198.637404 96.195235 
L 198.753394 138.645767 
L 198.869383 133.254094 
L 198.985373 134.023466 
L 199.101362 104.019673 
L 199.333341 127.849971 
L 199.449331 202.129847 
L 199.68131 104.392759 
L 199.797299 152.350391 
L 199.913289 140.720433 
L 200.029278 161.640767 
L 200.261257 118.98005 
L 200.377246 135.533835 
L 200.493236 168.419877 
L 200.609225 82.965542 
L 200.725215 156.984119 
L 200.841204 83.863431 
L 200.957194 124.856108 
L 201.073183 208.557629 
L 201.305162 161.734109 
L 201.421152 135.441612 
L 201.653131 206.536708 
L 201.88511 75.562651 
L 202.117089 164.66406 
L 202.349068 137.585806 
L 202.465057 153.545047 
L 202.581046 72.821345 
L 202.697036 124.909699 
L 202.813025 97.191307 
L 203.045004 146.039551 
L 203.160994 72.411847 
L 203.276983 80.279155 
L 203.392973 194.919704 
L 203.508962 63.778559 
L 203.624952 71.408296 
L 203.740941 144.813067 
L 203.856931 91.749052 
L 203.97292 91.603969 
L 204.08891 66.174516 
L 204.204899 124.913707 
L 204.320889 62.566562 
L 204.552868 176.694025 
L 204.668857 124.126777 
L 204.784847 158.743274 
L 204.900836 128.767729 
L 205.016825 129.383025 
L 205.132815 133.703231 
L 205.364794 100.983138 
L 205.480783 106.92923 
L 205.596773 120.881498 
L 205.712762 182.113171 
L 206.060731 83.87576 
L 206.17672 167.461849 
L 206.29271 99.793926 
L 206.408699 195.395202 
L 206.524689 89.138793 
L 206.756668 103.195862 
L 206.872657 158.031682 
L 206.988647 98.330933 
L 207.104636 137.712634 
L 207.220626 137.13225 
L 207.336615 138.799616 
L 207.568594 110.320651 
L 207.684583 137.576385 
L 207.800573 106.712368 
L 207.916562 115.629924 
L 208.032552 143.405689 
L 208.264531 92.49153 
L 208.38052 137.007102 
L 208.612499 98.362493 
L 208.844478 128.010699 
L 209.076457 179.048832 
L 209.192447 205.952147 
L 209.308436 131.447948 
L 209.424426 186.913038 
L 209.540415 97.632513 
L 209.772394 128.297433 
L 210.004373 77.11953 
L 210.120362 115.898985 
L 210.236352 106.934705 
L 210.352341 116.276979 
L 210.468331 65.238939 
L 210.58432 95.269708 
L 210.70031 89.427478 
L 210.816299 169.949058 
L 210.932289 77.764678 
L 211.048278 132.860928 
L 211.280257 100.030924 
L 211.512236 148.943004 
L 211.628226 118.419202 
L 211.744215 128.748119 
L 211.860205 91.028502 
L 211.976194 97.702195 
L 212.208173 143.451586 
L 212.440152 85.376224 
L 212.556141 141.461248 
L 212.78812 113.641692 
L 212.90411 136.706388 
L 213.020099 120.605268 
L 213.136089 86.041886 
L 213.252078 130.320368 
L 213.368068 96.740004 
L 213.484057 185.756631 
L 213.716036 91.014089 
L 213.832026 189.062371 
L 213.948015 174.254786 
L 214.064005 208.359331 
L 214.179994 114.268766 
L 214.411973 220.535452 
L 214.527963 107.732761 
L 214.643952 179.926735 
L 214.759942 120.429567 
L 214.875931 153.810136 
L 214.99192 270.209385 
L 215.223899 103.348184 
L 215.339889 105.416186 
L 215.571868 133.002997 
L 215.687857 109.577374 
L 215.803847 122.933115 
L 215.919836 184.337426 
L 216.151815 77.103758 
L 216.383794 200.433441 
L 216.615773 117.582124 
L 216.847752 154.054824 
L 216.963742 98.482345 
L 217.079731 128.557717 
L 217.31171 110.379604 
L 217.4277 166.820411 
L 217.543689 166.532193 
L 217.775668 108.524325 
L 217.891657 137.514152 
L 218.007647 95.804746 
L 218.123636 135.489978 
L 218.239626 96.181064 
L 218.471605 111.062477 
L 218.587594 161.818179 
L 218.819573 97.409059 
L 218.935563 121.565223 
L 219.051552 82.122421 
L 219.167542 92.825487 
L 219.399521 211.103804 
L 219.51551 105.132677 
L 219.6315 140.119474 
L 219.863479 82.697749 
L 219.979468 107.317041 
L 220.095457 289.679375 
L 220.211447 109.787699 
L 220.327436 106.187296 
L 220.443426 175.437769 
L 220.675405 114.407494 
L 220.791394 107.101665 
L 220.907384 197.319787 
L 221.023373 108.895688 
L 221.139363 180.842135 
L 221.255352 65.835434 
L 221.371342 152.797762 
L 221.487331 116.423647 
L 221.603321 221.877799 
L 221.71931 74.802959 
L 221.8353 79.199746 
L 222.067279 123.75549 
L 222.183268 129.831824 
L 222.299258 78.670483 
L 222.415247 112.484411 
L 222.531236 199.959115 
L 222.647226 85.965206 
L 222.763215 119.878339 
L 222.879205 64.613541 
L 222.995194 95.310786 
L 223.111184 172.898884 
L 223.227173 84.274287 
L 223.343163 91.852682 
L 223.459152 59.134795 
L 223.575142 134.671098 
L 223.92311 65.663334 
L 224.155089 119.323999 
L 224.271079 91.51511 
L 224.387068 150.84246 
L 224.503058 81.064242 
L 224.619047 144.764641 
L 224.851026 74.003092 
L 224.967015 184.731315 
L 225.083005 74.364078 
L 225.198994 124.54934 
L 225.430973 86.699452 
L 225.662952 118.806277 
L 225.778942 105.100902 
L 225.894931 72.187399 
L 226.12691 144.286064 
L 226.474879 68.412332 
L 226.590868 171.780537 
L 226.822847 111.900076 
L 226.938837 101.274724 
L 227.054826 64.430531 
L 227.170816 84.726124 
L 227.286805 156.538746 
L 227.518784 62.369499 
L 227.634773 90.60535 
L 227.750763 90.99126 
L 227.866752 116.200449 
L 227.982742 166.502774 
L 228.098731 82.033283 
L 228.214721 129.297178 
L 228.33071 96.916898 
L 228.4467 98.067977 
L 228.562689 130.392776 
L 228.678679 77.76958 
L 228.794668 80.469899 
L 228.910658 113.98662 
L 229.026647 92.5115 
L 229.142637 137.713825 
L 229.258626 96.575755 
L 229.374616 96.788487 
L 229.606595 134.641483 
L 229.838574 91.114614 
L 229.954563 114.099431 
L 230.070552 105.94949 
L 230.302531 190.746857 
L 230.418521 117.491788 
L 230.6505 147.722218 
L 230.766489 122.378676 
L 231.230447 167.80655 
L 231.346437 131.658639 
L 231.578416 198.647007 
L 231.694405 195.216855 
L 231.810395 300.958687 
L 232.042374 160.325218 
L 232.158363 265.706116 
L 232.274353 228.20513 
L 232.390342 237.874861 
L 232.622321 210.376489 
L 232.73831 228.02948 
L 232.8543 224.53808 
L 232.970289 235.833913 
L 233.202268 227.424794 
L 233.318258 229.392229 
L 233.434247 228.346807 
L 233.666226 229.236381 
L 233.898205 229.476682 
L 234.478153 230.653237 
L 235.290079 231.939233 
L 235.870026 232.465894 
L 236.102005 232.546812 
L 236.102005 232.546812 
" clip-path="url(#p8ef2c797e6)" style="fill: none; stroke: #008000; stroke-width: 1.5; stroke-linecap: square"/>
   </g>
   <g id="patch_3">
    <path d="M 57.6 307.584 
L 57.6 41.472 
" style="fill: none; stroke: #000000; stroke-width: 0.8; stroke-linejoin: miter; stroke-linecap: square"/>
   </g>
   <g id="patch_4">
    <path d="M 414.72 307.584 
L 414.72 41.472 
" style="fill: none; stroke: #000000; stroke-width: 0.8; stroke-linejoin: miter; stroke-linecap: square"/>
   </g>
   <g id="patch_5">
    <path d="M 57.6 307.584 
L 414.72 307.584 
" style="fill: none; stroke: #000000; stroke-width: 0.8; stroke-linejoin: miter; stroke-linecap: square"/>
   </g>
   <g id="patch_6">
    <path d="M 57.6 41.472 
L 414.72 41.472 
" style="fill: none; stroke: #000000; stroke-width: 0.8; stroke-linejoin: miter; stroke-linecap: square"/>
   </g>
  </g>
 </g>
 <defs>
  <clipPath id="p8ef2c797e6">
   <rect x="57.6" y="41.472" width="357.12" height="266.112"/>
  </clipPath>
 </defs>
</svg>
