<?xml version="1.0" encoding="utf-8" standalone="no"?>
<!DOCTYPE svg PUBLIC "-//W3C//DTD SVG 1.1//EN"
  "http://www.w3.org/Graphics/SVG/1.1/DTD/svg11.dtd">
<svg xmlns:xlink="http://www.w3.org/1999/xlink" width="460.8pt" height="345.6pt" viewBox="0 0 460.8 345.6" xmlns="http://www.w3.org/2000/svg" version="1.1">
 <metadata>
  <rdf:RDF xmlns:dc="http://purl.org/dc/elements/1.1/" xmlns:cc="http://creativecommons.org/ns#" xmlns:rdf="http://www.w3.org/1999/02/22-rdf-syntax-ns#">
   <cc:Work>
    <dc:type rdf:resource="http://purl.org/dc/dcmitype/StillImage"/>
    <dc:date>2024-05-15T13:43:00.970128</dc:date>
    <dc:format>image/svg+xml</dc:format>
    <dc:creator>
     <cc:Agent>
      <dc:title>Matplotlib v3.8.2, https://matplotlib.org/</dc:title>
     </cc:Agent>
    </dc:creator>
   </cc:Work>
  </rdf:RDF>
 </metadata>
 <defs>
  <style type="text/css">*{stroke-linejoin: round; stroke-linecap: butt}</style>
 </defs>
 <g id="figure_1">
  <g id="patch_1">
   <path d="M 0 345.6 
L 460.8 345.6 
L 460.8 0 
L 0 0 
z
" style="fill: #ffffff"/>
  </g>
  <g id="axes_1">
   <g id="patch_2">
    <path d="M 57.6 307.584 
L 414.72 307.584 
L 414.72 41.472 
L 57.6 41.472 
z
" style="fill: #ffffff"/>
   </g>
   <g id="matplotlib.axis_1">
    <g id="xtick_1">
     <g id="line2d_1">
      <defs>
       <path id="m22db00cb41" d="M 0 0 
L 0 3.5 
" style="stroke: #000000; stroke-width: 0.8"/>
      </defs>
      <g>
       <use xlink:href="#m22db00cb41" x="97.030623" y="307.584" style="stroke: #000000; stroke-width: 0.8"/>
      </g>
     </g>
     <g id="text_1">
      <!-- −300 -->
      <g transform="translate(83.297029 322.182437) scale(0.1 -0.1)">
       <defs>
        <path id="DejaVuSans-2212" d="M 678 2272 
L 4684 2272 
L 4684 1741 
L 678 1741 
L 678 2272 
z
" transform="scale(0.015625)"/>
        <path id="DejaVuSans-33" d="M 2597 2516 
Q 3050 2419 3304 2112 
Q 3559 1806 3559 1356 
Q 3559 666 3084 287 
Q 2609 -91 1734 -91 
Q 1441 -91 1130 -33 
Q 819 25 488 141 
L 488 750 
Q 750 597 1062 519 
Q 1375 441 1716 441 
Q 2309 441 2620 675 
Q 2931 909 2931 1356 
Q 2931 1769 2642 2001 
Q 2353 2234 1838 2234 
L 1294 2234 
L 1294 2753 
L 1863 2753 
Q 2328 2753 2575 2939 
Q 2822 3125 2822 3475 
Q 2822 3834 2567 4026 
Q 2313 4219 1838 4219 
Q 1578 4219 1281 4162 
Q 984 4106 628 3988 
L 628 4550 
Q 988 4650 1302 4700 
Q 1616 4750 1894 4750 
Q 2613 4750 3031 4423 
Q 3450 4097 3450 3541 
Q 3450 3153 3228 2886 
Q 3006 2619 2597 2516 
z
" transform="scale(0.015625)"/>
        <path id="DejaVuSans-30" d="M 2034 4250 
Q 1547 4250 1301 3770 
Q 1056 3291 1056 2328 
Q 1056 1369 1301 889 
Q 1547 409 2034 409 
Q 2525 409 2770 889 
Q 3016 1369 3016 2328 
Q 3016 3291 2770 3770 
Q 2525 4250 2034 4250 
z
M 2034 4750 
Q 2819 4750 3233 4129 
Q 3647 3509 3647 2328 
Q 3647 1150 3233 529 
Q 2819 -91 2034 -91 
Q 1250 -91 836 529 
Q 422 1150 422 2328 
Q 422 3509 836 4129 
Q 1250 4750 2034 4750 
z
" transform="scale(0.015625)"/>
       </defs>
       <use xlink:href="#DejaVuSans-2212"/>
       <use xlink:href="#DejaVuSans-33" x="83.789062"/>
       <use xlink:href="#DejaVuSans-30" x="147.412109"/>
       <use xlink:href="#DejaVuSans-30" x="211.035156"/>
      </g>
     </g>
    </g>
    <g id="xtick_2">
     <g id="line2d_2">
      <g>
       <use xlink:href="#m22db00cb41" x="143.426413" y="307.584" style="stroke: #000000; stroke-width: 0.8"/>
      </g>
     </g>
     <g id="text_2">
      <!-- −200 -->
      <g transform="translate(129.69282 322.182437) scale(0.1 -0.1)">
       <defs>
        <path id="DejaVuSans-32" d="M 1228 531 
L 3431 531 
L 3431 0 
L 469 0 
L 469 531 
Q 828 903 1448 1529 
Q 2069 2156 2228 2338 
Q 2531 2678 2651 2914 
Q 2772 3150 2772 3378 
Q 2772 3750 2511 3984 
Q 2250 4219 1831 4219 
Q 1534 4219 1204 4116 
Q 875 4013 500 3803 
L 500 4441 
Q 881 4594 1212 4672 
Q 1544 4750 1819 4750 
Q 2544 4750 2975 4387 
Q 3406 4025 3406 3419 
Q 3406 3131 3298 2873 
Q 3191 2616 2906 2266 
Q 2828 2175 2409 1742 
Q 1991 1309 1228 531 
z
" transform="scale(0.015625)"/>
       </defs>
       <use xlink:href="#DejaVuSans-2212"/>
       <use xlink:href="#DejaVuSans-32" x="83.789062"/>
       <use xlink:href="#DejaVuSans-30" x="147.412109"/>
       <use xlink:href="#DejaVuSans-30" x="211.035156"/>
      </g>
     </g>
    </g>
    <g id="xtick_3">
     <g id="line2d_3">
      <g>
       <use xlink:href="#m22db00cb41" x="189.822204" y="307.584" style="stroke: #000000; stroke-width: 0.8"/>
      </g>
     </g>
     <g id="text_3">
      <!-- −100 -->
      <g transform="translate(176.08861 322.182437) scale(0.1 -0.1)">
       <defs>
        <path id="DejaVuSans-31" d="M 794 531 
L 1825 531 
L 1825 4091 
L 703 3866 
L 703 4441 
L 1819 4666 
L 2450 4666 
L 2450 531 
L 3481 531 
L 3481 0 
L 794 0 
L 794 531 
z
" transform="scale(0.015625)"/>
       </defs>
       <use xlink:href="#DejaVuSans-2212"/>
       <use xlink:href="#DejaVuSans-31" x="83.789062"/>
       <use xlink:href="#DejaVuSans-30" x="147.412109"/>
       <use xlink:href="#DejaVuSans-30" x="211.035156"/>
      </g>
     </g>
    </g>
    <g id="xtick_4">
     <g id="line2d_4">
      <g>
       <use xlink:href="#m22db00cb41" x="236.217995" y="307.584" style="stroke: #000000; stroke-width: 0.8"/>
      </g>
     </g>
     <g id="text_4">
      <!-- 0 -->
      <g transform="translate(233.036745 322.182437) scale(0.1 -0.1)">
       <use xlink:href="#DejaVuSans-30"/>
      </g>
     </g>
    </g>
    <g id="xtick_5">
     <g id="line2d_5">
      <g>
       <use xlink:href="#m22db00cb41" x="282.613785" y="307.584" style="stroke: #000000; stroke-width: 0.8"/>
      </g>
     </g>
     <g id="text_5">
      <!-- 100 -->
      <g transform="translate(273.070035 322.182437) scale(0.1 -0.1)">
       <use xlink:href="#DejaVuSans-31"/>
       <use xlink:href="#DejaVuSans-30" x="63.623047"/>
       <use xlink:href="#DejaVuSans-30" x="127.246094"/>
      </g>
     </g>
    </g>
    <g id="xtick_6">
     <g id="line2d_6">
      <g>
       <use xlink:href="#m22db00cb41" x="329.009576" y="307.584" style="stroke: #000000; stroke-width: 0.8"/>
      </g>
     </g>
     <g id="text_6">
      <!-- 200 -->
      <g transform="translate(319.465826 322.182437) scale(0.1 -0.1)">
       <use xlink:href="#DejaVuSans-32"/>
       <use xlink:href="#DejaVuSans-30" x="63.623047"/>
       <use xlink:href="#DejaVuSans-30" x="127.246094"/>
      </g>
     </g>
    </g>
    <g id="xtick_7">
     <g id="line2d_7">
      <g>
       <use xlink:href="#m22db00cb41" x="375.405367" y="307.584" style="stroke: #000000; stroke-width: 0.8"/>
      </g>
     </g>
     <g id="text_7">
      <!-- 300 -->
      <g transform="translate(365.861617 322.182437) scale(0.1 -0.1)">
       <use xlink:href="#DejaVuSans-33"/>
       <use xlink:href="#DejaVuSans-30" x="63.623047"/>
       <use xlink:href="#DejaVuSans-30" x="127.246094"/>
      </g>
     </g>
    </g>
    <g id="text_8">
     <!-- Frequency [$Hz$] -->
     <g transform="translate(197.96 335.862125) scale(0.1 -0.1)">
      <defs>
       <path id="DejaVuSans-46" d="M 628 4666 
L 3309 4666 
L 3309 4134 
L 1259 4134 
L 1259 2759 
L 3109 2759 
L 3109 2228 
L 1259 2228 
L 1259 0 
L 628 0 
L 628 4666 
z
" transform="scale(0.015625)"/>
       <path id="DejaVuSans-72" d="M 2631 2963 
Q 2534 3019 2420 3045 
Q 2306 3072 2169 3072 
Q 1681 3072 1420 2755 
Q 1159 2438 1159 1844 
L 1159 0 
L 581 0 
L 581 3500 
L 1159 3500 
L 1159 2956 
Q 1341 3275 1631 3429 
Q 1922 3584 2338 3584 
Q 2397 3584 2469 3576 
Q 2541 3569 2628 3553 
L 2631 2963 
z
" transform="scale(0.015625)"/>
       <path id="DejaVuSans-65" d="M 3597 1894 
L 3597 1613 
L 953 1613 
Q 991 1019 1311 708 
Q 1631 397 2203 397 
Q 2534 397 2845 478 
Q 3156 559 3463 722 
L 3463 178 
Q 3153 47 2828 -22 
Q 2503 -91 2169 -91 
Q 1331 -91 842 396 
Q 353 884 353 1716 
Q 353 2575 817 3079 
Q 1281 3584 2069 3584 
Q 2775 3584 3186 3129 
Q 3597 2675 3597 1894 
z
M 3022 2063 
Q 3016 2534 2758 2815 
Q 2500 3097 2075 3097 
Q 1594 3097 1305 2825 
Q 1016 2553 972 2059 
L 3022 2063 
z
" transform="scale(0.015625)"/>
       <path id="DejaVuSans-71" d="M 947 1747 
Q 947 1113 1208 752 
Q 1469 391 1925 391 
Q 2381 391 2643 752 
Q 2906 1113 2906 1747 
Q 2906 2381 2643 2742 
Q 2381 3103 1925 3103 
Q 1469 3103 1208 2742 
Q 947 2381 947 1747 
z
M 2906 525 
Q 2725 213 2448 61 
Q 2172 -91 1784 -91 
Q 1150 -91 751 415 
Q 353 922 353 1747 
Q 353 2572 751 3078 
Q 1150 3584 1784 3584 
Q 2172 3584 2448 3432 
Q 2725 3281 2906 2969 
L 2906 3500 
L 3481 3500 
L 3481 -1331 
L 2906 -1331 
L 2906 525 
z
" transform="scale(0.015625)"/>
       <path id="DejaVuSans-75" d="M 544 1381 
L 544 3500 
L 1119 3500 
L 1119 1403 
Q 1119 906 1312 657 
Q 1506 409 1894 409 
Q 2359 409 2629 706 
Q 2900 1003 2900 1516 
L 2900 3500 
L 3475 3500 
L 3475 0 
L 2900 0 
L 2900 538 
Q 2691 219 2414 64 
Q 2138 -91 1772 -91 
Q 1169 -91 856 284 
Q 544 659 544 1381 
z
M 1991 3584 
L 1991 3584 
z
" transform="scale(0.015625)"/>
       <path id="DejaVuSans-6e" d="M 3513 2113 
L 3513 0 
L 2938 0 
L 2938 2094 
Q 2938 2591 2744 2837 
Q 2550 3084 2163 3084 
Q 1697 3084 1428 2787 
Q 1159 2491 1159 1978 
L 1159 0 
L 581 0 
L 581 3500 
L 1159 3500 
L 1159 2956 
Q 1366 3272 1645 3428 
Q 1925 3584 2291 3584 
Q 2894 3584 3203 3211 
Q 3513 2838 3513 2113 
z
" transform="scale(0.015625)"/>
       <path id="DejaVuSans-63" d="M 3122 3366 
L 3122 2828 
Q 2878 2963 2633 3030 
Q 2388 3097 2138 3097 
Q 1578 3097 1268 2742 
Q 959 2388 959 1747 
Q 959 1106 1268 751 
Q 1578 397 2138 397 
Q 2388 397 2633 464 
Q 2878 531 3122 666 
L 3122 134 
Q 2881 22 2623 -34 
Q 2366 -91 2075 -91 
Q 1284 -91 818 406 
Q 353 903 353 1747 
Q 353 2603 823 3093 
Q 1294 3584 2113 3584 
Q 2378 3584 2631 3529 
Q 2884 3475 3122 3366 
z
" transform="scale(0.015625)"/>
       <path id="DejaVuSans-79" d="M 2059 -325 
Q 1816 -950 1584 -1140 
Q 1353 -1331 966 -1331 
L 506 -1331 
L 506 -850 
L 844 -850 
Q 1081 -850 1212 -737 
Q 1344 -625 1503 -206 
L 1606 56 
L 191 3500 
L 800 3500 
L 1894 763 
L 2988 3500 
L 3597 3500 
L 2059 -325 
z
" transform="scale(0.015625)"/>
       <path id="DejaVuSans-20" transform="scale(0.015625)"/>
       <path id="DejaVuSans-5b" d="M 550 4863 
L 1875 4863 
L 1875 4416 
L 1125 4416 
L 1125 -397 
L 1875 -397 
L 1875 -844 
L 550 -844 
L 550 4863 
z
" transform="scale(0.015625)"/>
       <path id="DejaVuSans-Oblique-48" d="M 1081 4666 
L 1716 4666 
L 1344 2753 
L 3634 2753 
L 4006 4666 
L 4641 4666 
L 3731 0 
L 3097 0 
L 3531 2222 
L 1241 2222 
L 806 0 
L 172 0 
L 1081 4666 
z
" transform="scale(0.015625)"/>
       <path id="DejaVuSans-Oblique-7a" d="M 744 3500 
L 3475 3500 
L 3372 2975 
L 738 459 
L 2913 459 
L 2822 0 
L -19 0 
L 84 525 
L 2719 3041 
L 653 3041 
L 744 3500 
z
" transform="scale(0.015625)"/>
       <path id="DejaVuSans-5d" d="M 1947 4863 
L 1947 -844 
L 622 -844 
L 622 -397 
L 1369 -397 
L 1369 4416 
L 622 4416 
L 622 4863 
L 1947 4863 
z
" transform="scale(0.015625)"/>
      </defs>
      <use xlink:href="#DejaVuSans-46" transform="translate(0 0.015625)"/>
      <use xlink:href="#DejaVuSans-72" transform="translate(57.519531 0.015625)"/>
      <use xlink:href="#DejaVuSans-65" transform="translate(98.632812 0.015625)"/>
      <use xlink:href="#DejaVuSans-71" transform="translate(160.15625 0.015625)"/>
      <use xlink:href="#DejaVuSans-75" transform="translate(223.632812 0.015625)"/>
      <use xlink:href="#DejaVuSans-65" transform="translate(287.011719 0.015625)"/>
      <use xlink:href="#DejaVuSans-6e" transform="translate(348.535156 0.015625)"/>
      <use xlink:href="#DejaVuSans-63" transform="translate(411.914062 0.015625)"/>
      <use xlink:href="#DejaVuSans-79" transform="translate(466.894531 0.015625)"/>
      <use xlink:href="#DejaVuSans-20" transform="translate(526.074219 0.015625)"/>
      <use xlink:href="#DejaVuSans-5b" transform="translate(557.861328 0.015625)"/>
      <use xlink:href="#DejaVuSans-Oblique-48" transform="translate(596.875 0.015625)"/>
      <use xlink:href="#DejaVuSans-Oblique-7a" transform="translate(672.070312 0.015625)"/>
      <use xlink:href="#DejaVuSans-5d" transform="translate(724.560547 0.015625)"/>
     </g>
    </g>
   </g>
   <g id="matplotlib.axis_2">
    <g id="ytick_1">
     <g id="line2d_8">
      <defs>
       <path id="m0394a9da17" d="M 0 0 
L -3.5 0 
" style="stroke: #000000; stroke-width: 0.8"/>
      </defs>
      <g>
       <use xlink:href="#m0394a9da17" x="57.6" y="307.584" style="stroke: #000000; stroke-width: 0.8"/>
      </g>
     </g>
     <g id="text_9">
      <!-- −15.0 -->
      <g transform="translate(19.954687 311.383219) scale(0.1 -0.1)">
       <defs>
        <path id="DejaVuSans-35" d="M 691 4666 
L 3169 4666 
L 3169 4134 
L 1269 4134 
L 1269 2991 
Q 1406 3038 1543 3061 
Q 1681 3084 1819 3084 
Q 2600 3084 3056 2656 
Q 3513 2228 3513 1497 
Q 3513 744 3044 326 
Q 2575 -91 1722 -91 
Q 1428 -91 1123 -41 
Q 819 9 494 109 
L 494 744 
Q 775 591 1075 516 
Q 1375 441 1709 441 
Q 2250 441 2565 725 
Q 2881 1009 2881 1497 
Q 2881 1984 2565 2268 
Q 2250 2553 1709 2553 
Q 1456 2553 1204 2497 
Q 953 2441 691 2322 
L 691 4666 
z
" transform="scale(0.015625)"/>
        <path id="DejaVuSans-2e" d="M 684 794 
L 1344 794 
L 1344 0 
L 684 0 
L 684 794 
z
" transform="scale(0.015625)"/>
       </defs>
       <use xlink:href="#DejaVuSans-2212"/>
       <use xlink:href="#DejaVuSans-31" x="83.789062"/>
       <use xlink:href="#DejaVuSans-35" x="147.412109"/>
       <use xlink:href="#DejaVuSans-2e" x="211.035156"/>
       <use xlink:href="#DejaVuSans-30" x="242.822266"/>
      </g>
     </g>
    </g>
    <g id="ytick_2">
     <g id="line2d_9">
      <g>
       <use xlink:href="#m0394a9da17" x="57.6" y="277.298293" style="stroke: #000000; stroke-width: 0.8"/>
      </g>
     </g>
     <g id="text_10">
      <!-- −12.5 -->
      <g transform="translate(19.954687 281.097512) scale(0.1 -0.1)">
       <use xlink:href="#DejaVuSans-2212"/>
       <use xlink:href="#DejaVuSans-31" x="83.789062"/>
       <use xlink:href="#DejaVuSans-32" x="147.412109"/>
       <use xlink:href="#DejaVuSans-2e" x="211.035156"/>
       <use xlink:href="#DejaVuSans-35" x="242.822266"/>
      </g>
     </g>
    </g>
    <g id="ytick_3">
     <g id="line2d_10">
      <g>
       <use xlink:href="#m0394a9da17" x="57.6" y="247.012586" style="stroke: #000000; stroke-width: 0.8"/>
      </g>
     </g>
     <g id="text_11">
      <!-- −10.0 -->
      <g transform="translate(19.954687 250.811805) scale(0.1 -0.1)">
       <use xlink:href="#DejaVuSans-2212"/>
       <use xlink:href="#DejaVuSans-31" x="83.789062"/>
       <use xlink:href="#DejaVuSans-30" x="147.412109"/>
       <use xlink:href="#DejaVuSans-2e" x="211.035156"/>
       <use xlink:href="#DejaVuSans-30" x="242.822266"/>
      </g>
     </g>
    </g>
    <g id="ytick_4">
     <g id="line2d_11">
      <g>
       <use xlink:href="#m0394a9da17" x="57.6" y="216.72688" style="stroke: #000000; stroke-width: 0.8"/>
      </g>
     </g>
     <g id="text_12">
      <!-- −7.5 -->
      <g transform="translate(26.317187 220.526098) scale(0.1 -0.1)">
       <defs>
        <path id="DejaVuSans-37" d="M 525 4666 
L 3525 4666 
L 3525 4397 
L 1831 0 
L 1172 0 
L 2766 4134 
L 525 4134 
L 525 4666 
z
" transform="scale(0.015625)"/>
       </defs>
       <use xlink:href="#DejaVuSans-2212"/>
       <use xlink:href="#DejaVuSans-37" x="83.789062"/>
       <use xlink:href="#DejaVuSans-2e" x="147.412109"/>
       <use xlink:href="#DejaVuSans-35" x="179.199219"/>
      </g>
     </g>
    </g>
    <g id="ytick_5">
     <g id="line2d_12">
      <g>
       <use xlink:href="#m0394a9da17" x="57.6" y="186.441173" style="stroke: #000000; stroke-width: 0.8"/>
      </g>
     </g>
     <g id="text_13">
      <!-- −5.0 -->
      <g transform="translate(26.317187 190.240392) scale(0.1 -0.1)">
       <use xlink:href="#DejaVuSans-2212"/>
       <use xlink:href="#DejaVuSans-35" x="83.789062"/>
       <use xlink:href="#DejaVuSans-2e" x="147.412109"/>
       <use xlink:href="#DejaVuSans-30" x="179.199219"/>
      </g>
     </g>
    </g>
    <g id="ytick_6">
     <g id="line2d_13">
      <g>
       <use xlink:href="#m0394a9da17" x="57.6" y="156.155466" style="stroke: #000000; stroke-width: 0.8"/>
      </g>
     </g>
     <g id="text_14">
      <!-- −2.5 -->
      <g transform="translate(26.317187 159.954685) scale(0.1 -0.1)">
       <use xlink:href="#DejaVuSans-2212"/>
       <use xlink:href="#DejaVuSans-32" x="83.789062"/>
       <use xlink:href="#DejaVuSans-2e" x="147.412109"/>
       <use xlink:href="#DejaVuSans-35" x="179.199219"/>
      </g>
     </g>
    </g>
    <g id="ytick_7">
     <g id="line2d_14">
      <g>
       <use xlink:href="#m0394a9da17" x="57.6" y="125.869759" style="stroke: #000000; stroke-width: 0.8"/>
      </g>
     </g>
     <g id="text_15">
      <!-- 0.0 -->
      <g transform="translate(34.696875 129.668978) scale(0.1 -0.1)">
       <use xlink:href="#DejaVuSans-30"/>
       <use xlink:href="#DejaVuSans-2e" x="63.623047"/>
       <use xlink:href="#DejaVuSans-30" x="95.410156"/>
      </g>
     </g>
    </g>
    <g id="ytick_8">
     <g id="line2d_15">
      <g>
       <use xlink:href="#m0394a9da17" x="57.6" y="95.584053" style="stroke: #000000; stroke-width: 0.8"/>
      </g>
     </g>
     <g id="text_16">
      <!-- 2.5 -->
      <g transform="translate(34.696875 99.383271) scale(0.1 -0.1)">
       <use xlink:href="#DejaVuSans-32"/>
       <use xlink:href="#DejaVuSans-2e" x="63.623047"/>
       <use xlink:href="#DejaVuSans-35" x="95.410156"/>
      </g>
     </g>
    </g>
    <g id="ytick_9">
     <g id="line2d_16">
      <g>
       <use xlink:href="#m0394a9da17" x="57.6" y="65.298346" style="stroke: #000000; stroke-width: 0.8"/>
      </g>
     </g>
     <g id="text_17">
      <!-- 5.0 -->
      <g transform="translate(34.696875 69.097565) scale(0.1 -0.1)">
       <use xlink:href="#DejaVuSans-35"/>
       <use xlink:href="#DejaVuSans-2e" x="63.623047"/>
       <use xlink:href="#DejaVuSans-30" x="95.410156"/>
      </g>
     </g>
    </g>
    <g id="text_18">
     <!-- Amplitude [dB] -->
     <g transform="translate(13.875 212.245969) rotate(-90) scale(0.1 -0.1)">
      <defs>
       <path id="DejaVuSans-41" d="M 2188 4044 
L 1331 1722 
L 3047 1722 
L 2188 4044 
z
M 1831 4666 
L 2547 4666 
L 4325 0 
L 3669 0 
L 3244 1197 
L 1141 1197 
L 716 0 
L 50 0 
L 1831 4666 
z
" transform="scale(0.015625)"/>
       <path id="DejaVuSans-6d" d="M 3328 2828 
Q 3544 3216 3844 3400 
Q 4144 3584 4550 3584 
Q 5097 3584 5394 3201 
Q 5691 2819 5691 2113 
L 5691 0 
L 5113 0 
L 5113 2094 
Q 5113 2597 4934 2840 
Q 4756 3084 4391 3084 
Q 3944 3084 3684 2787 
Q 3425 2491 3425 1978 
L 3425 0 
L 2847 0 
L 2847 2094 
Q 2847 2600 2669 2842 
Q 2491 3084 2119 3084 
Q 1678 3084 1418 2786 
Q 1159 2488 1159 1978 
L 1159 0 
L 581 0 
L 581 3500 
L 1159 3500 
L 1159 2956 
Q 1356 3278 1631 3431 
Q 1906 3584 2284 3584 
Q 2666 3584 2933 3390 
Q 3200 3197 3328 2828 
z
" transform="scale(0.015625)"/>
       <path id="DejaVuSans-70" d="M 1159 525 
L 1159 -1331 
L 581 -1331 
L 581 3500 
L 1159 3500 
L 1159 2969 
Q 1341 3281 1617 3432 
Q 1894 3584 2278 3584 
Q 2916 3584 3314 3078 
Q 3713 2572 3713 1747 
Q 3713 922 3314 415 
Q 2916 -91 2278 -91 
Q 1894 -91 1617 61 
Q 1341 213 1159 525 
z
M 3116 1747 
Q 3116 2381 2855 2742 
Q 2594 3103 2138 3103 
Q 1681 3103 1420 2742 
Q 1159 2381 1159 1747 
Q 1159 1113 1420 752 
Q 1681 391 2138 391 
Q 2594 391 2855 752 
Q 3116 1113 3116 1747 
z
" transform="scale(0.015625)"/>
       <path id="DejaVuSans-6c" d="M 603 4863 
L 1178 4863 
L 1178 0 
L 603 0 
L 603 4863 
z
" transform="scale(0.015625)"/>
       <path id="DejaVuSans-69" d="M 603 3500 
L 1178 3500 
L 1178 0 
L 603 0 
L 603 3500 
z
M 603 4863 
L 1178 4863 
L 1178 4134 
L 603 4134 
L 603 4863 
z
" transform="scale(0.015625)"/>
       <path id="DejaVuSans-74" d="M 1172 4494 
L 1172 3500 
L 2356 3500 
L 2356 3053 
L 1172 3053 
L 1172 1153 
Q 1172 725 1289 603 
Q 1406 481 1766 481 
L 2356 481 
L 2356 0 
L 1766 0 
Q 1100 0 847 248 
Q 594 497 594 1153 
L 594 3053 
L 172 3053 
L 172 3500 
L 594 3500 
L 594 4494 
L 1172 4494 
z
" transform="scale(0.015625)"/>
       <path id="DejaVuSans-64" d="M 2906 2969 
L 2906 4863 
L 3481 4863 
L 3481 0 
L 2906 0 
L 2906 525 
Q 2725 213 2448 61 
Q 2172 -91 1784 -91 
Q 1150 -91 751 415 
Q 353 922 353 1747 
Q 353 2572 751 3078 
Q 1150 3584 1784 3584 
Q 2172 3584 2448 3432 
Q 2725 3281 2906 2969 
z
M 947 1747 
Q 947 1113 1208 752 
Q 1469 391 1925 391 
Q 2381 391 2643 752 
Q 2906 1113 2906 1747 
Q 2906 2381 2643 2742 
Q 2381 3103 1925 3103 
Q 1469 3103 1208 2742 
Q 947 2381 947 1747 
z
" transform="scale(0.015625)"/>
       <path id="DejaVuSans-42" d="M 1259 2228 
L 1259 519 
L 2272 519 
Q 2781 519 3026 730 
Q 3272 941 3272 1375 
Q 3272 1813 3026 2020 
Q 2781 2228 2272 2228 
L 1259 2228 
z
M 1259 4147 
L 1259 2741 
L 2194 2741 
Q 2656 2741 2882 2914 
Q 3109 3088 3109 3444 
Q 3109 3797 2882 3972 
Q 2656 4147 2194 4147 
L 1259 4147 
z
M 628 4666 
L 2241 4666 
Q 2963 4666 3353 4366 
Q 3744 4066 3744 3513 
Q 3744 3084 3544 2831 
Q 3344 2578 2956 2516 
Q 3422 2416 3680 2098 
Q 3938 1781 3938 1306 
Q 3938 681 3513 340 
Q 3088 0 2303 0 
L 628 0 
L 628 4666 
z
" transform="scale(0.015625)"/>
      </defs>
      <use xlink:href="#DejaVuSans-41"/>
      <use xlink:href="#DejaVuSans-6d" x="68.408203"/>
      <use xlink:href="#DejaVuSans-70" x="165.820312"/>
      <use xlink:href="#DejaVuSans-6c" x="229.296875"/>
      <use xlink:href="#DejaVuSans-69" x="257.080078"/>
      <use xlink:href="#DejaVuSans-74" x="284.863281"/>
      <use xlink:href="#DejaVuSans-75" x="324.072266"/>
      <use xlink:href="#DejaVuSans-64" x="387.451172"/>
      <use xlink:href="#DejaVuSans-65" x="450.927734"/>
      <use xlink:href="#DejaVuSans-20" x="512.451172"/>
      <use xlink:href="#DejaVuSans-5b" x="544.238281"/>
      <use xlink:href="#DejaVuSans-64" x="583.251953"/>
      <use xlink:href="#DejaVuSans-42" x="646.728516"/>
      <use xlink:href="#DejaVuSans-5d" x="715.332031"/>
     </g>
    </g>
   </g>
   <g id="line2d_17">
    <path d="M 236.217995 216.256956 
L 236.681953 216.130576 
L 237.145911 215.724325 
L 237.609868 214.947333 
L 238.073826 213.607447 
L 238.421795 211.98817 
L 238.885753 208.827129 
L 239.233721 205.042827 
L 239.349711 201.38618 
L 239.4657 206.044433 
L 240.045647 190.50734 
L 240.161637 203.068618 
L 240.277626 186.309567 
L 240.393616 193.44739 
L 240.509605 179.967878 
L 240.625595 229.860948 
L 240.741584 169.862617 
L 240.857574 256.011697 
L 241.089553 151.079414 
L 241.205542 149.462247 
L 241.553511 179.618515 
L 241.6695 160.002392 
L 241.78549 194.551328 
L 241.901479 171.520206 
L 242.017469 185.900557 
L 242.133458 157.642304 
L 242.249448 166.732185 
L 242.365437 163.377794 
L 242.481426 184.71149 
L 242.597416 178.201704 
L 242.713405 130.084879 
L 242.945384 209.134436 
L 243.061374 127.068955 
L 243.177363 173.114076 
L 243.293353 137.660548 
L 243.409342 148.8976 
L 243.641321 128.412194 
L 243.8733 187.93926 
L 244.105279 126.959214 
L 244.337258 162.833945 
L 244.453248 163.295343 
L 244.685227 155.758577 
L 244.801216 171.305058 
L 244.917205 170.237592 
L 245.033195 127.793183 
L 245.149184 243.664274 
L 245.497153 106.838957 
L 245.729132 190.150918 
L 245.961111 130.872831 
L 246.0771 111.113827 
L 246.309079 136.592312 
L 246.541058 112.821475 
L 246.773037 179.041489 
L 246.889027 112.123967 
L 247.121006 150.863255 
L 247.236995 143.417887 
L 247.352985 199.444067 
L 247.700953 103.17005 
L 247.816942 127.608921 
L 247.932932 207.928833 
L 248.164911 133.855856 
L 248.2809 138.71238 
L 248.39689 103.652225 
L 248.512879 116.905564 
L 248.628869 86.394233 
L 248.744858 95.719512 
L 248.860848 121.855445 
L 248.976837 108.245276 
L 249.208816 138.29 
L 249.324806 186.110743 
L 249.440795 134.282039 
L 249.556785 150.725573 
L 249.672774 148.233219 
L 249.788764 134.153977 
L 250.020742 145.78531 
L 250.136732 162.686993 
L 250.252721 159.503516 
L 250.4847 99.056386 
L 250.716679 196.042201 
L 250.832669 131.624583 
L 251.064648 163.960493 
L 251.180637 168.226868 
L 251.296627 204.04037 
L 251.412616 141.673543 
L 251.528606 161.309805 
L 251.644595 152.642222 
L 251.760585 133.94509 
L 251.876574 148.376337 
L 251.992564 74.20332 
L 252.224543 174.745118 
L 252.456521 111.670123 
L 252.6885 196.400472 
L 252.80449 104.035454 
L 252.920479 168.979659 
L 253.036469 109.517214 
L 253.152458 154.041535 
L 253.268448 107.000014 
L 253.384437 121.148193 
L 253.500427 101.041525 
L 253.616416 210.224997 
L 253.848395 107.203508 
L 253.964385 117.850686 
L 254.196364 87.154923 
L 254.428343 190.30547 
L 254.544332 137.937819 
L 254.776311 148.494834 
L 255.00829 87.892136 
L 255.124279 136.723194 
L 255.356258 118.07939 
L 255.588237 139.320419 
L 255.704227 124.705636 
L 255.820216 173.987377 
L 255.936206 124.907868 
L 256.052195 147.982708 
L 256.284174 84.616557 
L 256.516153 169.248221 
L 256.864122 115.902717 
L 256.980111 117.514842 
L 257.096101 69.825558 
L 257.21209 200.983437 
L 257.32808 104.001357 
L 257.444069 142.925166 
L 257.676048 96.622202 
L 257.908027 128.050033 
L 258.024016 131.049303 
L 258.140006 140.484178 
L 258.371985 95.896322 
L 258.487974 184.689928 
L 258.603964 172.577883 
L 258.835943 98.344217 
L 259.067922 126.272436 
L 259.183911 149.436293 
L 259.299901 123.559256 
L 259.41589 136.460212 
L 259.53188 93.733007 
L 259.647869 108.343203 
L 259.763859 91.157604 
L 259.879848 96.643058 
L 259.995837 166.575951 
L 260.111827 80.802543 
L 260.227816 101.106735 
L 260.459795 211.684837 
L 260.575785 135.092985 
L 260.691774 150.715578 
L 260.923753 110.970427 
L 261.039743 239.152439 
L 261.155732 140.925422 
L 261.271722 162.718229 
L 261.387711 93.906669 
L 261.503701 128.718249 
L 261.61969 113.034495 
L 261.73568 116.113373 
L 261.851669 172.188696 
L 261.967659 85.010668 
L 262.083648 137.904482 
L 262.199638 122.322562 
L 262.315627 76.33154 
L 262.547606 196.598669 
L 262.779585 95.379913 
L 262.895574 79.835608 
L 263.011564 197.223578 
L 263.243543 115.180533 
L 263.359532 171.116935 
L 263.475522 123.224419 
L 263.707501 163.388085 
L 263.82349 105.446737 
L 263.93948 125.707648 
L 264.055469 112.358588 
L 264.171459 167.114636 
L 264.519427 65.794184 
L 264.635417 141.607786 
L 264.751406 85.638193 
L 264.983385 139.484199 
L 265.099374 92.533105 
L 265.215364 218.524207 
L 265.447343 105.574232 
L 265.563332 114.389599 
L 265.679322 93.613792 
L 265.795311 106.676429 
L 265.911301 83.387539 
L 266.02729 113.219754 
L 266.14328 113.953243 
L 266.259269 72.546281 
L 266.375259 88.349892 
L 266.491248 61.96434 
L 266.723227 132.900358 
L 266.955206 119.927376 
L 267.071196 120.94554 
L 267.187185 165.694988 
L 267.419164 94.341459 
L 267.535153 108.898284 
L 267.651143 140.822669 
L 267.883122 100.884263 
L 268.115101 155.431426 
L 268.23109 73.497018 
L 268.34708 144.592874 
L 268.579059 111.567864 
L 268.695048 109.321385 
L 268.927027 160.574329 
L 269.043017 267.248622 
L 269.274996 109.554275 
L 269.390985 115.552997 
L 269.506975 131.025198 
L 269.738954 112.422566 
L 269.854943 68.983109 
L 269.970932 140.785267 
L 270.086922 90.143667 
L 270.202911 98.776108 
L 270.318901 157.692375 
L 270.43489 89.357417 
L 270.55088 110.101241 
L 270.666869 110.587857 
L 270.782859 105.58265 
L 270.898848 144.383081 
L 271.014838 73.089372 
L 271.246817 218.252669 
L 271.594785 115.623734 
L 271.710775 121.243962 
L 271.826764 113.971007 
L 271.942754 151.943194 
L 272.174733 76.71714 
L 272.290722 142.893571 
L 272.406711 139.815078 
L 272.63869 99.519863 
L 272.75468 156.909643 
L 272.870669 86.707552 
L 272.986659 98.31486 
L 273.102648 92.015615 
L 273.218638 140.11811 
L 273.450617 109.814757 
L 273.566606 109.990374 
L 273.682596 110.019172 
L 273.798585 78.659987 
L 273.914575 87.568808 
L 274.030564 106.760481 
L 274.146554 85.487343 
L 274.378533 113.515924 
L 274.494522 106.762258 
L 274.726501 87.802403 
L 274.84249 84.152292 
L 274.95848 124.719299 
L 275.190459 98.311544 
L 275.306448 104.828502 
L 275.654417 141.898508 
L 275.770406 102.166498 
L 275.886396 108.409889 
L 276.002385 96.173128 
L 276.118375 155.518812 
L 276.234364 136.790965 
L 276.350354 92.982937 
L 276.466343 92.697371 
L 276.698322 101.768374 
L 276.814312 124.492965 
L 276.930301 123.935944 
L 277.046291 103.126987 
L 277.16228 146.345515 
L 277.27827 76.764399 
L 277.742227 145.806779 
L 277.858217 95.296879 
L 278.090196 182.512847 
L 278.322175 143.673383 
L 278.438164 177.009932 
L 278.670143 105.335469 
L 278.786133 177.412819 
L 278.902122 138.330759 
L 279.018112 189.047672 
L 279.250091 98.779111 
L 279.36608 146.841137 
L 279.598059 111.052067 
L 279.714049 132.219196 
L 279.830038 130.247025 
L 279.946027 109.923757 
L 280.062017 146.791819 
L 280.178006 102.964234 
L 280.293996 155.206801 
L 280.409985 109.23687 
L 280.525975 132.312078 
L 280.641964 126.331935 
L 280.757954 108.7747 
L 280.873943 120.949305 
L 280.989933 91.512266 
L 281.105922 151.678622 
L 281.221912 147.301766 
L 281.337901 105.825867 
L 281.453891 151.605608 
L 281.56988 97.697656 
L 281.68587 221.083301 
L 281.801859 93.707922 
L 281.917849 177.036342 
L 282.149828 81.995197 
L 282.265817 130.396489 
L 282.381806 102.037592 
L 282.613785 188.815873 
L 282.845764 127.87521 
L 282.961754 91.900829 
L 283.077743 98.731438 
L 283.193733 132.418609 
L 283.309722 111.353698 
L 283.541701 197.047367 
L 283.77368 115.845718 
L 283.88967 140.691571 
L 284.121649 129.882486 
L 284.237638 140.66623 
L 284.353628 107.455381 
L 284.469617 156.397192 
L 284.701596 119.259447 
L 284.817586 124.303022 
L 284.933575 142.81219 
L 285.049564 126.978456 
L 285.397533 202.564772 
L 285.513522 122.415769 
L 285.629512 166.09846 
L 285.745501 89.234931 
L 285.861491 133.262367 
L 285.97748 130.407606 
L 286.209459 107.01996 
L 286.441438 126.870151 
L 286.557428 169.161668 
L 286.673417 115.063225 
L 286.789407 132.616043 
L 286.905396 125.18207 
L 287.021386 125.621352 
L 287.137375 99.550618 
L 287.253365 140.53564 
L 287.369354 137.708344 
L 287.717322 98.210103 
L 287.833312 181.668878 
L 287.949301 98.796961 
L 288.065291 123.149242 
L 288.18128 114.348455 
L 288.29727 146.464387 
L 288.413259 117.459536 
L 288.529249 167.4864 
L 288.645238 156.579377 
L 288.761228 103.171669 
L 288.877217 135.615243 
L 288.993207 135.840228 
L 289.109196 105.952382 
L 289.225186 117.081277 
L 289.341175 93.827733 
L 289.573154 223.356097 
L 289.689144 125.673901 
L 289.805133 153.445664 
L 289.921122 249.90335 
L 290.037112 150.869527 
L 290.153101 172.205527 
L 290.617059 110.35924 
L 290.733049 154.635515 
L 290.849038 127.562605 
L 290.965028 164.945279 
L 291.081017 120.51674 
L 291.197007 174.505627 
L 291.312996 135.189384 
L 291.428986 141.996075 
L 291.544975 140.810417 
L 291.660965 198.782442 
L 291.776954 140.41519 
L 291.892944 165.275349 
L 292.008933 131.529986 
L 292.124923 151.849573 
L 292.240912 143.509722 
L 292.356901 124.014919 
L 292.472891 150.845038 
L 292.70487 130.444582 
L 292.820859 127.007572 
L 292.936849 154.918513 
L 293.052838 139.828265 
L 293.168828 141.831998 
L 293.284817 105.598382 
L 293.400807 175.381069 
L 293.516796 169.901214 
L 293.632786 174.883967 
L 293.748775 157.022752 
L 293.864765 169.285182 
L 294.096744 136.762421 
L 294.212733 132.535649 
L 294.328723 133.708764 
L 294.444712 132.071581 
L 294.560702 110.274294 
L 294.676691 114.19907 
L 294.792681 111.897344 
L 294.90867 264.781596 
L 295.024659 139.524796 
L 295.140649 138.1766 
L 295.256638 131.987697 
L 295.372628 183.42005 
L 295.488617 116.79037 
L 295.604607 114.405228 
L 295.720596 130.188566 
L 295.836586 236.900487 
L 295.952575 117.986545 
L 296.068565 215.276484 
L 296.184554 150.465133 
L 296.300544 164.675769 
L 296.532523 132.368388 
L 296.648512 168.129904 
L 296.764502 159.059147 
L 296.880491 193.674577 
L 296.996481 140.981026 
L 297.11247 145.272644 
L 297.344449 188.046421 
L 297.460438 179.060906 
L 297.692417 103.758445 
L 297.924396 172.225255 
L 298.040386 152.904394 
L 298.156375 183.027729 
L 298.388354 141.412744 
L 298.852312 180.095647 
L 298.968302 146.011902 
L 299.084291 148.850737 
L 299.200281 225.977583 
L 299.43226 144.926415 
L 299.548249 159.069582 
L 299.664239 119.98796 
L 299.780228 171.325248 
L 299.896217 120.328145 
L 300.012207 243.2471 
L 300.360175 112.823743 
L 300.476165 129.702647 
L 300.592154 103.842975 
L 300.708144 123.325792 
L 300.824133 190.038286 
L 300.940123 154.48598 
L 301.056112 173.942725 
L 301.172102 133.50792 
L 301.288091 194.83239 
L 301.52007 127.533355 
L 301.63606 166.426054 
L 301.752049 166.802725 
L 301.868039 138.498236 
L 301.984028 186.085835 
L 302.100018 170.473004 
L 302.216007 135.355216 
L 302.447986 183.186614 
L 302.563975 125.973504 
L 302.679965 141.34569 
L 302.795954 188.145972 
L 303.027933 139.245919 
L 303.143923 189.359233 
L 303.375902 148.19012 
L 303.491891 149.553176 
L 303.607881 142.094762 
L 303.72387 195.524203 
L 303.83986 176.646676 
L 303.955849 129.79765 
L 304.303818 250.859469 
L 304.419807 147.197339 
L 304.535797 181.769114 
L 304.651786 129.304527 
L 304.767776 210.499685 
L 305.115744 125.970955 
L 305.231733 133.965877 
L 305.347723 183.9749 
L 305.463712 148.867918 
L 305.579702 185.700307 
L 305.811681 119.934219 
L 305.92767 237.649953 
L 306.04366 171.785305 
L 306.159649 175.649819 
L 306.275639 215.784207 
L 306.507618 150.389047 
L 306.623607 189.883705 
L 306.739597 173.273588 
L 306.855586 135.149943 
L 306.971576 151.858553 
L 307.087565 144.669258 
L 307.203555 129.929498 
L 307.667512 169.1059 
L 307.783502 136.262469 
L 307.899491 202.372759 
L 308.015481 145.110417 
L 308.13147 151.034104 
L 308.24746 146.687413 
L 308.363449 191.10137 
L 308.595428 137.842388 
L 308.711418 148.599714 
L 308.827407 117.383886 
L 309.059386 172.09646 
L 309.175376 141.430297 
L 309.291365 152.646969 
L 309.523344 239.13622 
L 309.871312 170.311672 
L 309.987302 168.603193 
L 310.103291 151.467032 
L 310.219281 163.603691 
L 310.33527 158.551017 
L 310.45126 169.597708 
L 310.567249 152.107758 
L 310.799228 202.914187 
L 310.915218 179.760251 
L 311.031207 226.419002 
L 311.263186 138.151003 
L 311.495165 168.585009 
L 311.611155 157.833246 
L 311.727144 193.994277 
L 312.075113 144.802689 
L 312.191102 143.732528 
L 312.307091 163.675254 
L 312.423081 136.311049 
L 312.53907 148.543065 
L 312.771049 209.599511 
L 312.887039 167.351225 
L 313.003028 201.534787 
L 313.119018 115.408413 
L 313.235007 194.572229 
L 313.350997 179.244568 
L 313.582976 217.670538 
L 313.698965 167.882707 
L 313.814955 184.727097 
L 313.930944 219.40493 
L 314.046934 137.003772 
L 314.162923 179.649208 
L 314.278913 140.619538 
L 314.394902 191.534829 
L 314.510892 193.188514 
L 314.626881 199.912629 
L 314.85886 165.888049 
L 314.974849 181.344377 
L 315.090839 170.447642 
L 315.206828 131.81262 
L 315.322818 141.074138 
L 315.438807 217.031759 
L 315.554797 178.781396 
L 315.670786 198.45841 
L 315.786776 129.698415 
L 316.018755 173.828429 
L 316.134744 163.949677 
L 316.250734 211.373449 
L 316.366723 165.783774 
L 316.482713 190.747089 
L 316.598702 144.406619 
L 316.714692 146.845933 
L 316.830681 135.185219 
L 316.946671 204.760058 
L 317.17865 140.481817 
L 317.294639 190.107935 
L 317.410628 168.409513 
L 317.526618 233.89926 
L 317.642607 137.116565 
L 317.758597 234.654973 
L 317.990576 146.642772 
L 318.106565 138.08278 
L 318.222555 263.121216 
L 318.338544 131.737799 
L 318.570523 174.986676 
L 318.686513 250.646332 
L 318.918492 156.206094 
L 319.034481 143.221881 
L 319.150471 146.393786 
L 319.26646 187.620403 
L 319.38245 148.900069 
L 319.498439 231.23661 
L 319.614429 131.092459 
L 319.730418 215.698053 
L 319.846407 169.625154 
L 319.962397 170.03027 
L 320.194376 195.595116 
L 320.426355 164.97959 
L 320.542344 199.911425 
L 320.658334 278.579525 
L 320.890313 154.997639 
L 321.006302 126.898373 
L 321.122292 219.194814 
L 321.354271 171.738075 
L 321.47026 336.046969 
L 321.58625 126.193861 
L 321.818229 180.75809 
L 321.934218 145.733095 
L 322.166197 195.208789 
L 322.282186 210.027446 
L 322.398176 160.662966 
L 322.514165 185.767319 
L 322.630155 168.37726 
L 322.746144 130.624862 
L 322.978123 202.953102 
L 323.210102 151.506843 
L 323.442081 220.836259 
L 323.558071 142.758258 
L 323.67406 189.261978 
L 323.79005 141.957579 
L 323.906039 205.774339 
L 324.022029 158.868477 
L 324.138018 201.480004 
L 324.254008 154.479385 
L 324.369997 178.256741 
L 324.485987 157.882549 
L 324.601976 211.2609 
L 324.717966 186.591189 
L 324.833955 265.012536 
L 324.949944 252.581428 
L 325.065934 161.317458 
L 325.297913 181.05129 
L 325.413902 149.96103 
L 325.529892 160.947327 
L 325.645881 159.333676 
L 325.761871 175.621872 
L 325.87786 144.032981 
L 325.99385 149.592795 
L 326.109839 138.439145 
L 326.341818 182.362878 
L 326.457808 209.517935 
L 326.573797 164.302782 
L 326.689787 166.630764 
L 326.805776 201.605651 
L 326.921766 143.241299 
L 327.037755 181.625673 
L 327.153745 168.825071 
L 327.269734 185.491896 
L 327.385723 126.785339 
L 327.617702 163.217973 
L 327.849681 227.594767 
L 328.08166 164.987607 
L 328.19765 180.07993 
L 328.313639 134.619516 
L 328.429629 188.812068 
L 328.545618 136.582474 
L 328.661608 202.35304 
L 328.777597 144.11004 
L 328.893587 141.979403 
L 329.009576 222.563058 
L 329.125566 142.034549 
L 329.357545 274.079859 
L 329.473534 155.873755 
L 329.589524 183.403539 
L 329.821502 159.743185 
L 329.937492 170.020801 
L 330.053481 205.287295 
L 330.169471 199.307165 
L 330.28546 151.252024 
L 330.517439 189.549306 
L 330.633429 161.988579 
L 330.749418 186.762137 
L 330.981397 170.570243 
L 331.097387 197.568378 
L 331.329366 168.162175 
L 331.445355 178.976655 
L 331.677334 170.236341 
L 331.793324 203.06992 
L 331.909313 155.597435 
L 332.025303 168.794394 
L 332.257281 154.545248 
L 332.373271 215.218414 
L 332.48926 209.981807 
L 332.60525 141.322317 
L 332.721239 220.182653 
L 332.953218 197.216091 
L 333.069208 214.26492 
L 333.301187 154.837368 
L 333.649155 187.995914 
L 333.997124 146.139653 
L 334.229103 171.281095 
L 334.345092 242.607574 
L 334.577071 152.176997 
L 334.693061 180.714166 
L 334.80905 240.975424 
L 334.925039 152.451963 
L 335.157018 164.092226 
L 335.504987 186.116806 
L 335.620976 182.352231 
L 335.736966 160.687534 
L 335.852955 164.460763 
L 336.316913 209.249097 
L 336.432903 158.210594 
L 336.780871 242.341025 
L 336.896861 164.787491 
L 337.12884 211.03347 
L 337.244829 177.640869 
L 337.360818 180.460882 
L 337.476808 250.995639 
L 337.592797 167.344233 
L 337.708787 172.698525 
L 337.824776 280.828741 
L 338.056755 164.054667 
L 338.172745 192.934456 
L 338.288734 173.479333 
L 338.404724 255.355154 
L 338.520713 247.690279 
L 338.752692 167.096756 
L 338.868682 210.095788 
L 338.984671 172.037482 
L 339.100661 191.644656 
L 339.21665 189.440864 
L 339.33264 195.368501 
L 339.448629 173.503477 
L 339.564619 219.245449 
L 339.796597 168.716242 
L 339.912587 154.22266 
L 340.028576 186.100955 
L 340.144566 182.479116 
L 340.376545 205.65545 
L 340.608524 189.190833 
L 340.724513 206.311567 
L 340.956492 179.259255 
L 341.188471 196.791453 
L 341.304461 206.604768 
L 341.42045 182.514393 
L 341.53644 256.628816 
L 341.652429 145.428585 
L 341.768419 153.170082 
L 342.116387 255.962645 
L 342.232376 252.892833 
L 342.348366 255.990988 
L 342.464355 180.433915 
L 342.696334 249.435376 
L 342.812324 155.105985 
L 342.928313 200.392868 
L 343.044303 170.791594 
L 343.160292 202.036364 
L 343.276282 200.515286 
L 343.392271 223.181526 
L 343.74024 152.760706 
L 343.972219 179.40937 
L 344.088208 157.075153 
L 344.204198 240.416999 
L 344.436177 196.089406 
L 344.552166 185.815232 
L 344.668156 193.309681 
L 344.900134 219.875807 
L 345.016124 183.112436 
L 345.132113 252.42829 
L 345.248103 219.724852 
L 345.364092 150.272876 
L 345.596071 265.114719 
L 345.712061 190.38154 
L 345.82805 224.940342 
L 346.060029 178.531345 
L 346.176019 209.356144 
L 346.292008 155.836259 
L 346.407998 170.58499 
L 346.523987 213.871254 
L 346.639977 166.621831 
L 346.755966 213.294537 
L 346.871956 188.677274 
L 346.987945 213.151112 
L 347.103935 191.197186 
L 347.219924 225.48539 
L 347.335913 183.036003 
L 347.451903 184.329441 
L 347.567892 204.313265 
L 347.683882 181.289274 
L 347.915861 230.652828 
L 348.14784 158.442529 
L 348.263829 233.947472 
L 348.495808 185.639997 
L 348.611798 221.661659 
L 348.727787 169.331314 
L 348.843777 191.013966 
L 348.959766 240.005186 
L 349.075756 192.371147 
L 349.191745 206.859727 
L 349.307735 146.990918 
L 349.423724 209.867719 
L 349.539714 211.668163 
L 349.771692 182.833994 
L 349.887682 169.930734 
L 350.119661 223.307278 
L 350.23565 153.946604 
L 350.35164 191.67544 
L 350.467629 185.918605 
L 350.583619 202.436814 
L 350.699608 167.413303 
L 350.815598 191.071297 
L 350.931587 238.569774 
L 351.163566 193.76927 
L 351.395545 234.135279 
L 351.511535 161.541784 
L 351.627524 164.72246 
L 351.743514 252.361324 
L 351.975493 173.030033 
L 352.091482 185.503538 
L 352.207471 145.277494 
L 352.323461 255.366311 
L 352.43945 154.998262 
L 352.55544 219.104471 
L 352.671429 215.527869 
L 352.903408 170.339655 
L 353.019398 181.569729 
L 353.135387 233.842394 
L 353.251377 156.9771 
L 353.367366 172.446986 
L 353.483356 243.285743 
L 353.599345 241.563828 
L 353.715335 191.629689 
L 353.831324 260.903602 
L 353.947314 211.935019 
L 354.063303 211.623267 
L 354.295282 162.927721 
L 354.411272 235.915993 
L 354.643251 196.712418 
L 354.75924 197.098921 
L 354.991219 223.098224 
L 355.107208 286.763689 
L 355.455177 180.331429 
L 355.571166 185.036901 
L 355.687156 182.796269 
L 355.803145 221.542717 
L 355.919135 318.969982 
L 356.035124 210.68404 
L 356.267103 293.136777 
L 356.383093 208.499131 
L 356.615072 230.033551 
L 356.731061 163.334746 
L 356.847051 255.42204 
L 356.96304 198.139196 
L 357.07903 242.812104 
L 357.195019 233.966215 
L 357.426998 159.057931 
L 357.658977 226.519369 
L 357.774966 172.025568 
L 357.890956 197.996958 
L 358.006945 161.005609 
L 358.238924 191.690533 
L 358.354914 261.072651 
L 358.586893 213.978342 
L 358.702882 235.699629 
L 358.818872 204.567512 
L 358.934861 206.552104 
L 359.050851 200.149284 
L 359.16684 205.138714 
L 359.28283 179.052582 
L 359.398819 219.862358 
L 359.514809 206.565895 
L 359.630798 162.389144 
L 359.746787 177.779113 
L 359.862777 170.89484 
L 360.094756 213.809802 
L 360.210745 174.37573 
L 360.326735 177.073482 
L 360.674703 268.9391 
L 360.790693 151.32169 
L 360.906682 163.945625 
L 361.022672 214.393395 
L 361.138661 208.418887 
L 361.254651 218.076505 
L 361.37064 251.641607 
L 361.602619 201.722001 
L 361.718609 197.042577 
L 361.834598 186.347483 
L 361.950588 248.143673 
L 362.182567 187.709823 
L 362.298556 187.579936 
L 362.414545 173.296895 
L 362.530535 221.179224 
L 362.762514 166.298754 
L 362.878503 212.187393 
L 362.994493 206.797412 
L 363.226472 246.408832 
L 363.342461 198.99539 
L 363.458451 287.696067 
L 363.69043 184.822304 
L 363.806419 231.030502 
L 363.922409 197.927973 
L 364.154388 222.042728 
L 364.270377 317.709536 
L 364.502356 156.413204 
L 364.734335 184.196077 
L 365.082303 236.607505 
L 365.198293 220.2701 
L 365.314282 223.381161 
L 365.430272 198.494322 
L 365.546261 219.178507 
L 366.126209 164.153735 
L 366.358188 267.443711 
L 366.590167 211.722251 
L 366.706156 219.463277 
L 366.822146 181.495717 
L 366.938135 243.430903 
L 367.054125 179.054792 
L 367.170114 211.22628 
L 367.286103 189.325069 
L 367.402093 212.157911 
L 367.634072 184.800892 
L 367.750061 210.758503 
L 367.866051 195.591749 
L 367.98204 261.165718 
L 368.214019 181.500258 
L 368.677977 283.256583 
L 368.793967 208.851469 
L 368.909956 211.070875 
L 369.021063 346.6 
M 369.03674 346.6 
L 369.257925 204.629667 
L 369.373914 212.977865 
L 369.605893 202.801582 
L 369.721882 203.487767 
L 369.837872 207.133551 
L 369.953861 214.470788 
L 370.069851 248.583698 
L 370.18584 247.342393 
L 370.30183 242.543367 
L 370.417819 301.19982 
L 370.533809 205.374038 
L 370.649798 202.533973 
L 370.765788 194.452442 
L 370.881777 231.870348 
L 370.997767 310.506554 
L 371.229746 207.626018 
L 371.345735 220.095063 
L 371.461725 310.293454 
L 371.693704 232.066059 
L 371.809693 248.015771 
L 371.925683 195.239764 
L 372.041672 272.180961 
L 372.157662 225.141169 
L 372.273651 226.340886 
L 372.38964 208.572973 
L 372.50563 238.227208 
L 372.621619 219.726744 
L 372.737609 311.104475 
L 372.853598 216.117421 
L 372.969588 280.402961 
L 373.085577 264.833958 
L 373.201567 193.903755 
L 373.433546 267.716419 
L 373.549535 237.749415 
L 373.665525 259.724725 
L 373.781514 238.598821 
L 373.897504 248.380122 
L 374.013493 231.900672 
L 374.129483 247.001765 
L 374.245472 232.684168 
L 374.361462 246.183531 
L 374.477451 275.841048 
L 374.593441 253.317878 
L 374.681774 346.6 
M 374.72879 346.6 
L 374.825419 200.830182 
L 374.941409 250.901673 
L 375.057398 198.605075 
L 375.289377 255.705942 
L 375.405367 224.444718 
L 375.521356 231.604084 
L 375.637346 296.187509 
L 375.869325 231.963578 
L 375.985314 324.851247 
L 376.101304 263.65234 
L 376.217293 291.595768 
L 376.333283 263.813601 
L 376.416474 346.6 
M 376.487671 346.6 
L 376.681251 258.97859 
L 376.797241 249.20358 
L 377.02922 293.954647 
L 377.145209 259.749654 
L 377.261198 318.764248 
L 377.377188 288.411297 
L 377.493177 306.235379 
L 377.609167 270.572147 
L 377.841146 312.189169 
L 378.073125 285.084611 
L 378.189114 322.416236 
L 378.305104 286.324135 
L 378.421093 318.929098 
L 378.537083 301.105017 
L 378.595168 346.6 
M 378.706293 346.6 
L 378.769062 293.110661 
L 379.001041 345.044434 
L 379.11703 305.271407 
L 379.22975 346.6 
M 379.485335 346.6 
L 379.580988 330.193208 
L 379.696977 338.621929 
L 379.812967 335.113343 
L 379.928956 320.723838 
L 380.044946 290.775143 
L 380.181551 346.6 
M 380.329928 346.6 
L 380.392914 308.356094 
L 380.573454 346.6 
M 381.433763 346.6 
L 381.43682 346.425614 
L 381.437967 346.6 
M 382.09805 346.6 
L 382.132757 325.473968 
L 382.201829 346.6 
M 90.23416 346.6 
L 90.303233 325.473968 
L 90.33794 346.6 
M 90.998023 346.6 
L 90.99917 346.425614 
L 91.002226 346.6 
M 91.862535 346.6 
L 92.043075 308.356094 
L 92.106062 346.6 
M 92.254439 346.6 
L 92.391044 290.775143 
L 92.623023 335.113343 
L 92.739012 338.621929 
L 92.855001 330.193208 
L 92.950654 346.6 
M 93.20624 346.6 
L 93.318959 305.271407 
L 93.434949 345.044434 
L 93.550938 339.736005 
L 93.666928 293.110661 
L 93.729696 346.6 
M 93.840822 346.6 
L 93.898907 301.105017 
L 94.014896 318.929098 
L 94.130886 286.324135 
L 94.246875 322.416236 
L 94.362865 285.084611 
L 94.478854 290.054117 
L 94.594844 312.189169 
L 94.826823 270.572147 
L 94.942812 306.235379 
L 95.058802 288.411297 
L 95.174791 318.764248 
L 95.29078 259.749654 
L 95.40677 293.954647 
L 95.638749 249.20358 
L 95.754738 258.97859 
L 95.870728 280.648533 
L 95.948318 346.6 
M 96.019516 346.6 
L 96.102707 263.813601 
L 96.218696 291.595768 
L 96.334686 263.65234 
L 96.450675 324.851247 
L 96.566665 231.963578 
L 96.798644 296.187509 
L 97.030623 224.444718 
L 97.146612 255.705942 
L 97.262602 247.216097 
L 97.378591 198.605075 
L 97.494581 250.901673 
L 97.61057 200.830182 
L 97.7072 346.6 
M 97.754215 346.6 
L 97.842549 253.317878 
L 97.958538 275.841048 
L 98.190517 232.684168 
L 98.306507 247.001765 
L 98.422496 231.900672 
L 98.538486 248.380122 
L 98.654475 238.598821 
L 98.770465 259.724725 
L 98.886454 237.749415 
L 99.002444 267.716419 
L 99.234423 193.903755 
L 99.466402 280.402961 
L 99.582391 216.117421 
L 99.698381 311.104475 
L 99.81437 219.726744 
L 99.93036 238.227208 
L 100.046349 208.572973 
L 100.162338 226.340886 
L 100.278328 225.141169 
L 100.394317 272.180961 
L 100.510307 195.239764 
L 100.626296 248.015771 
L 100.742286 232.066059 
L 100.858275 241.403404 
L 100.974265 310.293454 
L 101.206244 207.626018 
L 101.322233 226.243376 
L 101.438223 310.506554 
L 101.670202 194.452442 
L 101.902181 205.374038 
L 102.01817 301.19982 
L 102.13416 242.543367 
L 102.366139 248.583698 
L 102.598118 207.133551 
L 102.830096 202.801582 
L 102.946086 204.240742 
L 103.062075 212.977865 
L 103.178065 204.629667 
L 103.399249 346.6 
M 103.414927 346.6 
L 103.526033 211.070875 
L 103.642023 208.851469 
L 103.758012 283.256583 
L 104.22197 181.500258 
L 104.453949 261.165718 
L 104.569939 195.591749 
L 104.685928 210.758503 
L 104.801918 184.800892 
L 104.917907 192.490014 
L 105.033897 212.157911 
L 105.149886 189.325069 
L 105.265875 211.22628 
L 105.381865 179.054792 
L 105.497854 243.430903 
L 105.613844 181.495717 
L 105.729833 219.463277 
L 105.845823 211.722251 
L 106.077802 267.443711 
L 106.309781 164.153735 
L 106.42577 178.438847 
L 106.54176 178.83678 
L 106.773739 205.908277 
L 106.889728 219.178507 
L 107.005718 198.494322 
L 107.121707 223.381161 
L 107.237697 220.2701 
L 107.353686 236.607505 
L 107.701654 184.196077 
L 107.817644 182.660413 
L 107.933633 156.413204 
L 108.165612 317.709536 
L 108.397591 211.679272 
L 108.513581 197.927973 
L 108.62957 231.030502 
L 108.74556 184.822304 
L 108.861549 210.951988 
L 108.977539 287.696067 
L 109.093528 198.99539 
L 109.209518 246.408832 
L 109.325507 242.937418 
L 109.441497 206.797412 
L 109.557486 212.187393 
L 109.673476 166.298754 
L 109.905455 221.179224 
L 110.021444 173.296895 
L 110.137433 187.579936 
L 110.253423 187.709823 
L 110.369412 197.905989 
L 110.485402 248.143673 
L 110.601391 186.347483 
L 110.94936 212.789784 
L 111.065349 251.641607 
L 111.297328 208.418887 
L 111.413318 214.393395 
L 111.645297 151.32169 
L 111.761286 268.9391 
L 111.993265 218.848054 
L 112.225244 174.37573 
L 112.341234 213.809802 
L 112.573213 170.89484 
L 112.689202 177.779113 
L 112.805191 162.389144 
L 113.03717 219.862358 
L 113.15316 179.052582 
L 113.269149 205.138714 
L 113.385139 200.149284 
L 113.501128 206.552104 
L 113.617118 204.567512 
L 113.733107 235.699629 
L 113.849097 213.978342 
L 113.965086 222.333974 
L 114.081076 261.072651 
L 114.313055 173.144404 
L 114.429044 161.005609 
L 114.545034 197.996958 
L 114.661023 172.025568 
L 114.777013 226.519369 
L 115.008992 159.057931 
L 115.35696 242.812104 
L 115.472949 198.139196 
L 115.588939 255.42204 
L 115.704928 163.334746 
L 115.820918 230.033551 
L 116.052897 208.499131 
L 116.168886 293.136777 
L 116.400865 210.68404 
L 116.516855 318.969982 
L 116.748834 182.796269 
L 116.864823 185.036901 
L 116.980813 180.331429 
L 117.096802 197.09789 
L 117.328781 286.763689 
L 117.56076 217.322207 
L 117.676749 197.098921 
L 117.792739 196.712418 
L 117.908728 204.203962 
L 118.024718 235.915993 
L 118.140707 162.927721 
L 118.372686 211.623267 
L 118.488676 211.935019 
L 118.604665 260.903602 
L 118.720655 191.629689 
L 118.836644 241.563828 
L 118.952634 243.285743 
L 119.184613 156.9771 
L 119.300602 233.842394 
L 119.532581 170.339655 
L 119.648571 180.259561 
L 119.88055 219.104471 
L 119.996539 154.998262 
L 120.112529 255.366311 
L 120.228518 145.277494 
L 120.344507 185.503538 
L 120.460497 173.030033 
L 120.576486 178.071085 
L 120.692476 252.361324 
L 120.808465 164.72246 
L 120.924455 161.541784 
L 121.040444 234.135279 
L 121.156434 220.832041 
L 121.272423 193.76927 
L 121.388413 199.231166 
L 121.504402 238.569774 
L 121.736381 167.413303 
L 121.852371 202.436814 
L 121.96836 185.918605 
L 122.08435 191.67544 
L 122.200339 153.946604 
L 122.316329 223.307278 
L 122.548308 169.930734 
L 122.896276 211.668163 
L 123.012265 209.867719 
L 123.128255 146.990918 
L 123.244244 206.859727 
L 123.360234 192.371147 
L 123.476223 240.005186 
L 123.708202 169.331314 
L 123.824192 221.661659 
L 123.940181 185.639997 
L 124.056171 197.60203 
L 124.17216 233.947472 
L 124.28815 158.442529 
L 124.520129 230.652828 
L 124.752108 181.289274 
L 124.868097 204.313265 
L 125.100076 183.036003 
L 125.216065 225.48539 
L 125.332055 191.197186 
L 125.448044 213.151112 
L 125.564034 188.677274 
L 125.680023 213.294537 
L 125.796013 166.621831 
L 125.912002 213.871254 
L 126.143981 155.836259 
L 126.259971 209.356144 
L 126.37596 178.531345 
L 126.49195 186.599176 
L 126.607939 224.940342 
L 126.723929 190.38154 
L 126.839918 265.114719 
L 127.071897 150.272876 
L 127.303876 252.42829 
L 127.419866 183.112436 
L 127.535855 219.875807 
L 127.651844 211.185958 
L 127.883823 185.815232 
L 128.115802 211.213656 
L 128.231792 240.416999 
L 128.347781 157.075153 
L 128.463771 179.40937 
L 128.69575 152.760706 
L 128.811739 155.769961 
L 129.043718 223.181526 
L 129.159708 200.515286 
L 129.275697 202.036364 
L 129.391687 170.791594 
L 129.507676 200.392868 
L 129.623666 155.105985 
L 129.739655 249.435376 
L 129.971634 180.433915 
L 130.087624 255.990988 
L 130.203613 252.892833 
L 130.319602 255.962645 
L 130.551581 184.044641 
L 130.78356 145.428585 
L 130.89955 256.628816 
L 131.015539 182.514393 
L 131.131529 206.604768 
L 131.479497 179.259255 
L 131.711476 206.311567 
L 131.827466 189.190833 
L 131.943455 191.348769 
L 132.059445 205.65545 
L 132.291424 182.479116 
L 132.407413 186.100955 
L 132.523403 154.22266 
L 132.755381 186.629047 
L 132.871371 219.245449 
L 132.98736 173.503477 
L 133.10335 195.368501 
L 133.219339 189.440864 
L 133.335329 191.644656 
L 133.451318 172.037482 
L 133.567308 210.095788 
L 133.683297 167.096756 
L 133.799287 184.880224 
L 134.031266 255.355154 
L 134.147255 173.479333 
L 134.263245 192.934456 
L 134.379234 164.054667 
L 134.495224 185.328854 
L 134.611213 280.828741 
L 134.843192 167.344233 
L 134.959182 250.995639 
L 135.075171 180.460882 
L 135.19116 177.640869 
L 135.30715 211.03347 
L 135.539129 164.787491 
L 135.655118 242.341025 
L 135.771108 183.525637 
L 135.887097 181.602642 
L 136.003087 158.210594 
L 136.119076 209.249097 
L 136.351055 191.927817 
L 136.583034 164.460763 
L 136.699024 160.687534 
L 136.931003 186.116806 
L 137.278971 164.092226 
L 137.394961 163.221793 
L 137.51095 152.451963 
L 137.626939 240.975424 
L 137.858918 152.176997 
L 138.090897 242.607574 
L 138.322876 167.385532 
L 138.438866 146.139653 
L 138.670845 171.579946 
L 138.786834 187.995914 
L 138.902824 183.776928 
L 139.134803 154.837368 
L 139.366782 214.26492 
L 139.482771 197.216091 
L 139.598761 201.042924 
L 139.71475 220.182653 
L 139.83074 141.322317 
L 140.062719 215.218414 
L 140.178708 154.545248 
L 140.294697 155.57825 
L 140.410687 168.794394 
L 140.526676 155.597435 
L 140.642666 203.06992 
L 140.758655 170.236341 
L 140.990634 178.976655 
L 141.106624 168.162175 
L 141.338603 197.568378 
L 141.454592 170.570243 
L 141.570582 171.370508 
L 141.686571 186.762137 
L 141.802561 161.988579 
L 141.91855 189.549306 
L 142.150529 151.252024 
L 142.382508 205.287295 
L 142.614487 159.743185 
L 142.846466 183.403539 
L 142.962455 155.873755 
L 143.078445 274.079859 
L 143.194434 232.599169 
L 143.310424 142.034549 
L 143.426413 222.563058 
L 143.542403 141.979403 
L 143.658392 144.11004 
L 143.774382 202.35304 
L 143.890371 136.582474 
L 144.006361 188.812068 
L 144.12235 134.619516 
L 144.23834 180.07993 
L 144.354329 164.987607 
L 144.470319 176.31326 
L 144.586308 227.594767 
L 144.934277 139.630536 
L 145.050266 126.785339 
L 145.166255 185.491896 
L 145.282245 168.825071 
L 145.398234 181.625673 
L 145.514224 143.241299 
L 145.630213 201.605651 
L 145.862192 164.302782 
L 145.978182 209.517935 
L 146.32615 138.439145 
L 146.44214 149.592795 
L 146.558129 144.032981 
L 146.674119 175.621872 
L 146.790108 159.333676 
L 146.906098 160.947327 
L 147.022087 149.96103 
L 147.138077 181.05129 
L 147.370056 161.317458 
L 147.602034 265.012536 
L 147.718024 186.591189 
L 147.834013 211.2609 
L 147.950003 157.882549 
L 148.065992 178.256741 
L 148.181982 154.479385 
L 148.297971 201.480004 
L 148.413961 158.868477 
L 148.52995 205.774339 
L 148.64594 141.957579 
L 148.761929 189.261978 
L 148.877919 142.758258 
L 148.993908 220.836259 
L 149.225887 151.506843 
L 149.457866 202.953102 
L 149.573856 193.969641 
L 149.689845 130.624862 
L 149.921824 185.767319 
L 150.037814 160.662966 
L 150.153803 210.027446 
L 150.385782 182.491929 
L 150.501771 145.733095 
L 150.617761 180.75809 
L 150.73375 172.861494 
L 150.84974 126.193861 
L 150.965729 336.046969 
L 151.081719 171.738075 
L 151.197708 174.894903 
L 151.313698 219.194814 
L 151.429687 126.898373 
L 151.661666 168.18899 
L 151.777656 278.579525 
L 152.009635 164.97959 
L 152.241614 195.595116 
L 152.589582 169.625154 
L 152.705571 215.698053 
L 152.821561 131.092459 
L 152.93755 231.23661 
L 153.05354 148.900069 
L 153.169529 187.620403 
L 153.401508 143.221881 
L 153.633487 162.380317 
L 153.749477 250.646332 
L 153.981456 153.788386 
L 154.097445 131.737799 
L 154.213435 263.121216 
L 154.329424 138.08278 
L 154.445414 146.642772 
L 154.677393 234.654973 
L 154.793382 137.116565 
L 154.909372 233.89926 
L 155.025361 168.409513 
L 155.14135 190.107935 
L 155.25734 140.481817 
L 155.373329 146.539542 
L 155.489319 204.760058 
L 155.605308 135.185219 
L 155.721298 146.845933 
L 155.837287 144.406619 
L 155.953277 190.747089 
L 156.069266 165.783774 
L 156.185256 211.373449 
L 156.301245 163.949677 
L 156.417235 173.828429 
L 156.533224 166.881626 
L 156.649214 129.698415 
L 156.765203 198.45841 
L 156.881193 178.781396 
L 156.997182 217.031759 
L 157.229161 131.81262 
L 157.46114 181.344377 
L 157.577129 165.888049 
L 157.693119 167.996661 
L 157.809108 199.912629 
L 158.041087 191.534829 
L 158.157077 140.619538 
L 158.273066 179.649208 
L 158.389056 137.003772 
L 158.505045 219.40493 
L 158.737024 167.882707 
L 158.853014 217.670538 
L 158.969003 210.94086 
L 159.084993 179.244568 
L 159.200982 194.572229 
L 159.316972 115.408413 
L 159.432961 201.534787 
L 159.548951 167.351225 
L 159.66494 209.599511 
L 160.012909 136.311049 
L 160.128898 163.675254 
L 160.244887 143.732528 
L 160.360877 144.802689 
L 160.476866 147.850728 
L 160.708845 193.994277 
L 160.824835 157.833246 
L 160.940824 168.585009 
L 161.172803 138.151003 
L 161.288793 144.279338 
L 161.404782 226.419002 
L 161.520772 179.760251 
L 161.636761 202.914187 
L 161.86874 152.107758 
L 161.98473 169.597708 
L 162.100719 158.551017 
L 162.216709 163.603691 
L 162.332698 151.467032 
L 162.912645 239.13622 
L 163.028635 227.971691 
L 163.260614 141.430297 
L 163.376603 172.09646 
L 163.492593 154.252214 
L 163.608582 117.383886 
L 163.724572 148.599714 
L 163.840561 137.842388 
L 164.07254 191.10137 
L 164.18853 146.687413 
L 164.304519 151.034104 
L 164.420509 145.110417 
L 164.536498 202.372759 
L 164.652488 136.262469 
L 164.768477 169.1059 
L 164.884467 154.528913 
L 165.000456 155.598039 
L 165.232435 129.929498 
L 165.464414 151.858553 
L 165.580403 135.149943 
L 165.812382 189.883705 
L 165.928372 150.389047 
L 166.044361 169.215796 
L 166.160351 215.784207 
L 166.39233 171.785305 
L 166.508319 237.649953 
L 166.624309 119.934219 
L 166.856288 185.700307 
L 166.972277 148.867918 
L 167.088267 183.9749 
L 167.320246 125.970955 
L 167.436235 127.198889 
L 167.668214 210.499685 
L 167.784203 129.304527 
L 167.900193 181.769114 
L 168.016182 147.197339 
L 168.132172 250.859469 
L 168.48014 129.79765 
L 168.712119 195.524203 
L 168.828109 142.094762 
L 168.944098 149.553176 
L 169.060088 148.19012 
L 169.292067 189.359233 
L 169.408056 139.245919 
L 169.524046 154.548071 
L 169.640035 188.145972 
L 169.872014 125.973504 
L 169.988004 183.186614 
L 170.219982 135.355216 
L 170.451961 186.085835 
L 170.567951 138.498236 
L 170.68394 166.802725 
L 170.79993 166.426054 
L 170.915919 127.533355 
L 171.031909 148.496209 
L 171.147898 194.83239 
L 171.263888 133.50792 
L 171.379877 173.942725 
L 171.495867 154.48598 
L 171.611856 190.038286 
L 171.843835 103.842975 
L 171.959825 129.702647 
L 172.075814 112.823743 
L 172.307793 203.565475 
L 172.423783 243.2471 
L 172.539772 120.328145 
L 172.655761 171.325248 
L 172.771751 119.98796 
L 172.88774 159.069582 
L 173.00373 144.926415 
L 173.119719 148.226107 
L 173.235709 225.977583 
L 173.351698 148.850737 
L 173.467688 146.011902 
L 173.583677 180.095647 
L 173.699667 176.787628 
L 174.047635 141.412744 
L 174.163625 152.81714 
L 174.279614 183.027729 
L 174.395604 152.904394 
L 174.511593 172.225255 
L 174.627583 156.613857 
L 174.743572 103.758445 
L 174.859562 127.567823 
L 175.09154 188.046421 
L 175.323519 145.272644 
L 175.439509 140.981026 
L 175.555498 193.674577 
L 175.671488 159.059147 
L 175.787477 168.129904 
L 175.903467 132.368388 
L 176.019456 142.523104 
L 176.135446 164.675769 
L 176.251435 150.465133 
L 176.367425 215.276484 
L 176.483414 117.986545 
L 176.599404 236.900487 
L 176.831383 114.405228 
L 176.947372 116.79037 
L 177.063362 183.42005 
L 177.179351 131.987697 
L 177.41133 139.524796 
L 177.527319 264.781596 
L 177.643309 111.897344 
L 177.759298 114.19907 
L 177.875288 110.274294 
L 178.107267 133.708764 
L 178.223256 132.535649 
L 178.455235 138.487883 
L 178.571225 169.285182 
L 178.687214 157.022752 
L 178.803204 174.883967 
L 178.919193 169.901214 
L 179.035183 175.381069 
L 179.151172 105.598382 
L 179.267162 141.831998 
L 179.383151 139.828265 
L 179.499141 154.918513 
L 179.61513 127.007572 
L 179.847109 136.359325 
L 179.963099 150.845038 
L 180.079088 124.014919 
L 180.311067 151.849573 
L 180.427056 131.529986 
L 180.543046 165.275349 
L 180.659035 140.41519 
L 180.775025 198.782442 
L 180.891014 140.810417 
L 181.007004 141.996075 
L 181.122993 135.189384 
L 181.238983 174.505627 
L 181.354972 120.51674 
L 181.470962 164.945279 
L 181.586951 127.562605 
L 181.702941 154.635515 
L 181.81893 110.35924 
L 182.166899 152.149635 
L 182.282888 172.205527 
L 182.398878 150.869527 
L 182.514867 249.90335 
L 182.746846 125.673901 
L 182.862835 223.356097 
L 182.978825 184.292326 
L 183.094814 93.827733 
L 183.210804 117.081277 
L 183.326793 105.952382 
L 183.442783 135.840228 
L 183.558772 135.615243 
L 183.674762 103.171669 
L 183.906741 167.4864 
L 184.02273 117.459536 
L 184.13872 146.464387 
L 184.254709 114.348455 
L 184.370699 123.149242 
L 184.486688 98.796961 
L 184.602678 181.668878 
L 184.718667 98.210103 
L 185.066635 137.708344 
L 185.182625 140.53564 
L 185.298614 99.550618 
L 185.414604 125.621352 
L 185.530593 125.18207 
L 185.646583 132.616043 
L 185.762572 115.063225 
L 185.878562 169.161668 
L 186.110541 118.817806 
L 186.22653 107.01996 
L 186.574499 133.262367 
L 186.690488 89.234931 
L 186.806478 166.09846 
L 186.922467 122.415769 
L 187.038457 202.564772 
L 187.386425 126.978456 
L 187.502414 142.81219 
L 187.734393 119.259447 
L 187.850383 123.724237 
L 187.966372 156.397192 
L 188.082362 107.455381 
L 188.198351 140.66623 
L 188.314341 129.882486 
L 188.43033 130.979787 
L 188.54632 140.691571 
L 188.662309 115.845718 
L 188.778299 133.30899 
L 188.894288 197.047367 
L 189.010278 176.79858 
L 189.126267 111.353698 
L 189.242257 132.418609 
L 189.474236 91.900829 
L 189.822204 188.815873 
L 190.054183 102.037592 
L 190.170172 130.396489 
L 190.286162 81.995197 
L 190.402151 112.804142 
L 190.518141 177.036342 
L 190.63413 93.707922 
L 190.75012 221.083301 
L 190.866109 97.697656 
L 190.982099 151.605608 
L 191.098088 105.825867 
L 191.330067 151.678622 
L 191.446057 91.512266 
L 191.562046 120.949305 
L 191.678036 108.7747 
L 191.910015 132.312078 
L 192.026004 109.23687 
L 192.141994 155.206801 
L 192.257983 102.964234 
L 192.373973 146.791819 
L 192.489962 109.923757 
L 192.721941 132.219196 
L 192.83793 111.052067 
L 193.069909 146.841137 
L 193.185899 98.779111 
L 193.301888 126.116142 
L 193.417878 189.047672 
L 193.533867 138.330759 
L 193.649857 177.412819 
L 193.765846 105.335469 
L 193.881836 120.087182 
L 193.997825 177.009932 
L 194.113815 143.673383 
L 194.229804 149.44297 
L 194.345794 182.512847 
L 194.577773 95.296879 
L 194.693762 145.806779 
L 194.809752 143.452297 
L 195.15772 76.764399 
L 195.273709 146.345515 
L 195.389699 103.126987 
L 195.505688 123.935944 
L 195.621678 124.492965 
L 195.853657 99.348564 
L 195.969646 92.697371 
L 196.085636 92.982937 
L 196.317615 155.518812 
L 196.433604 96.173128 
L 196.549594 108.409889 
L 196.665583 102.166498 
L 196.781573 141.898508 
L 197.245531 98.311544 
L 197.36152 103.638447 
L 197.47751 124.719299 
L 197.593499 84.152292 
L 197.825478 92.210576 
L 198.057457 113.515924 
L 198.289436 85.487343 
L 198.405425 106.760481 
L 198.637404 78.659987 
L 198.753394 110.019172 
L 198.869383 109.990374 
L 198.985373 109.814757 
L 199.217352 140.11811 
L 199.333341 92.015615 
L 199.449331 98.31486 
L 199.56532 86.707552 
L 199.68131 156.909643 
L 199.797299 99.519863 
L 200.029278 139.815078 
L 200.145267 142.893571 
L 200.261257 76.71714 
L 200.377246 85.001902 
L 200.493236 151.943194 
L 200.609225 113.971007 
L 200.725215 121.243962 
L 200.841204 115.623734 
L 200.957194 131.440592 
L 201.189173 218.252669 
L 201.305162 188.768327 
L 201.421152 73.089372 
L 201.537141 144.383081 
L 201.653131 105.58265 
L 201.76912 110.587857 
L 201.88511 110.101241 
L 202.001099 89.357417 
L 202.117089 157.692375 
L 202.349068 90.143667 
L 202.465057 140.785267 
L 202.581046 68.983109 
L 202.813025 122.985662 
L 202.929015 131.025198 
L 203.160994 109.554275 
L 203.276983 134.344559 
L 203.392973 267.248622 
L 203.624952 133.15329 
L 203.740941 109.321385 
L 203.856931 111.567864 
L 203.97292 118.567109 
L 204.08891 144.592874 
L 204.204899 73.497018 
L 204.320889 155.431426 
L 204.552868 100.884263 
L 204.784847 140.822669 
L 205.016825 94.341459 
L 205.132815 115.773963 
L 205.248804 165.694988 
L 205.364794 120.94554 
L 205.480783 119.927376 
L 205.712762 132.900358 
L 205.828752 111.78396 
L 205.944741 61.96434 
L 206.060731 88.349892 
L 206.17672 72.546281 
L 206.29271 113.953243 
L 206.408699 113.219754 
L 206.524689 83.387539 
L 206.640678 106.676429 
L 206.756668 93.613792 
L 206.872657 114.389599 
L 206.988647 105.574232 
L 207.104636 122.534532 
L 207.220626 218.524207 
L 207.336615 92.533105 
L 207.452605 139.484199 
L 207.684583 85.638193 
L 207.800573 141.607786 
L 207.916562 65.794184 
L 208.032552 87.127516 
L 208.264531 167.114636 
L 208.38052 112.358588 
L 208.49651 125.707648 
L 208.612499 105.446737 
L 208.728489 163.388085 
L 208.844478 151.402922 
L 208.960468 123.224419 
L 209.076457 171.116935 
L 209.192447 115.180533 
L 209.424426 197.223578 
L 209.540415 79.835608 
L 209.772394 122.904217 
L 209.888384 196.598669 
L 210.120362 76.33154 
L 210.352341 137.904482 
L 210.468331 85.010668 
L 210.58432 172.188696 
L 210.816299 113.034495 
L 210.932289 128.718249 
L 211.048278 93.906669 
L 211.164268 162.718229 
L 211.280257 140.925422 
L 211.396247 239.152439 
L 211.512236 110.970427 
L 211.744215 150.715578 
L 211.860205 135.092985 
L 211.976194 211.684837 
L 212.324163 80.802543 
L 212.440152 166.575951 
L 212.672131 91.157604 
L 212.78812 108.343203 
L 212.90411 93.733007 
L 213.020099 136.460212 
L 213.136089 123.559256 
L 213.252078 149.436293 
L 213.600047 98.344217 
L 213.948015 184.689928 
L 214.064005 95.896322 
L 214.179994 102.333147 
L 214.295984 140.484178 
L 214.759942 96.622202 
L 214.99192 142.925166 
L 215.10791 104.001357 
L 215.223899 200.983437 
L 215.339889 69.825558 
L 215.455878 117.514842 
L 215.571868 115.902717 
L 215.803847 153.749863 
L 215.919836 169.248221 
L 216.151815 84.616557 
L 216.383794 147.982708 
L 216.499784 124.907868 
L 216.615773 173.987377 
L 216.731763 124.705636 
L 216.847752 139.320419 
L 216.963742 134.195685 
L 217.079731 118.07939 
L 217.195721 120.107885 
L 217.31171 136.723194 
L 217.4277 87.892136 
L 217.543689 106.272241 
L 217.659678 148.494834 
L 217.775668 146.531848 
L 217.891657 137.937819 
L 218.007647 190.30547 
L 218.123636 163.936925 
L 218.239626 87.154923 
L 218.355615 96.858933 
L 218.471605 117.850686 
L 218.587594 107.203508 
L 218.703584 139.781373 
L 218.819573 210.224997 
L 218.935563 101.041525 
L 219.051552 121.148193 
L 219.167542 107.000014 
L 219.283531 154.041535 
L 219.399521 109.517214 
L 219.51551 168.979659 
L 219.6315 104.035454 
L 219.747489 196.400472 
L 219.979468 111.670123 
L 220.211447 174.745118 
L 220.327436 145.076895 
L 220.443426 74.20332 
L 220.559415 148.376337 
L 220.675405 133.94509 
L 220.907384 161.309805 
L 221.023373 141.673543 
L 221.139363 204.04037 
L 221.371342 163.960493 
L 221.603321 131.624583 
L 221.71931 196.042201 
L 221.951289 99.056386 
L 222.299258 162.686993 
L 222.531236 140.14299 
L 222.647226 134.153977 
L 222.879205 150.725573 
L 222.995194 134.282039 
L 223.111184 186.110743 
L 223.343163 121.968755 
L 223.459152 108.245276 
L 223.575142 121.855445 
L 223.807121 86.394233 
L 223.92311 116.905564 
L 224.0391 103.652225 
L 224.155089 138.71238 
L 224.271079 133.855856 
L 224.387068 156.107153 
L 224.503058 207.928833 
L 224.735037 103.17005 
L 224.967015 160.067827 
L 225.083005 199.444067 
L 225.198994 143.417887 
L 225.314984 150.863255 
L 225.430973 141.862843 
L 225.546963 112.123967 
L 225.662952 179.041489 
L 225.778942 173.882099 
L 225.894931 112.821475 
L 226.010921 114.417274 
L 226.12691 136.592312 
L 226.2429 133.33059 
L 226.358889 111.113827 
L 226.590868 140.262207 
L 226.706858 190.150918 
L 226.938837 106.838957 
L 227.054826 115.685575 
L 227.286805 243.664274 
L 227.402795 127.793183 
L 227.518784 170.237592 
L 227.634773 171.305058 
L 227.750763 155.758577 
L 227.866752 157.088936 
L 227.982742 163.295343 
L 228.098731 162.833945 
L 228.214721 154.286884 
L 228.33071 126.959214 
L 228.562689 187.93926 
L 228.678679 170.051372 
L 228.794668 128.412194 
L 229.026647 148.8976 
L 229.142637 137.660548 
L 229.258626 173.114076 
L 229.374616 127.068955 
L 229.490605 209.134436 
L 229.722584 130.084879 
L 229.954563 184.71149 
L 230.070552 163.377794 
L 230.186542 166.732185 
L 230.302531 157.642304 
L 230.418521 185.900557 
L 230.53451 171.520206 
L 230.6505 194.551328 
L 230.766489 160.002392 
L 230.882479 179.618515 
L 231.230447 149.462247 
L 231.346437 151.079414 
L 231.578416 256.011697 
L 231.694405 169.862617 
L 231.810395 229.860948 
L 231.926384 179.967878 
L 232.042374 193.44739 
L 232.158363 186.309567 
L 232.274353 203.068618 
L 232.390342 190.50734 
L 232.73831 199.735472 
L 232.970289 206.044433 
L 233.086279 201.38618 
L 233.318258 206.391868 
L 234.014195 211.98817 
L 234.478153 214.015962 
L 234.94211 215.183988 
L 235.406068 215.8558 
L 235.870026 216.186402 
L 236.102005 216.249184 
L 236.102005 216.249184 
" clip-path="url(#p230c09e128)" style="fill: none; stroke: #008000; stroke-width: 1.5; stroke-linecap: square"/>
   </g>
   <g id="patch_3">
    <path d="M 57.6 307.584 
L 57.6 41.472 
" style="fill: none; stroke: #000000; stroke-width: 0.8; stroke-linejoin: miter; stroke-linecap: square"/>
   </g>
   <g id="patch_4">
    <path d="M 414.72 307.584 
L 414.72 41.472 
" style="fill: none; stroke: #000000; stroke-width: 0.8; stroke-linejoin: miter; stroke-linecap: square"/>
   </g>
   <g id="patch_5">
    <path d="M 57.6 307.584 
L 414.72 307.584 
" style="fill: none; stroke: #000000; stroke-width: 0.8; stroke-linejoin: miter; stroke-linecap: square"/>
   </g>
   <g id="patch_6">
    <path d="M 57.6 41.472 
L 414.72 41.472 
" style="fill: none; stroke: #000000; stroke-width: 0.8; stroke-linejoin: miter; stroke-linecap: square"/>
   </g>
  </g>
 </g>
 <defs>
  <clipPath id="p230c09e128">
   <rect x="57.6" y="41.472" width="357.12" height="266.112"/>
  </clipPath>
 </defs>
</svg>
