<?xml version="1.0" encoding="utf-8" standalone="no"?>
<!DOCTYPE svg PUBLIC "-//W3C//DTD SVG 1.1//EN"
  "http://www.w3.org/Graphics/SVG/1.1/DTD/svg11.dtd">
<svg xmlns:xlink="http://www.w3.org/1999/xlink" width="460.8pt" height="345.6pt" viewBox="0 0 460.8 345.6" xmlns="http://www.w3.org/2000/svg" version="1.1">
 <metadata>
  <rdf:RDF xmlns:dc="http://purl.org/dc/elements/1.1/" xmlns:cc="http://creativecommons.org/ns#" xmlns:rdf="http://www.w3.org/1999/02/22-rdf-syntax-ns#">
   <cc:Work>
    <dc:type rdf:resource="http://purl.org/dc/dcmitype/StillImage"/>
    <dc:date>2024-05-15T13:43:00.405392</dc:date>
    <dc:format>image/svg+xml</dc:format>
    <dc:creator>
     <cc:Agent>
      <dc:title>Matplotlib v3.8.2, https://matplotlib.org/</dc:title>
     </cc:Agent>
    </dc:creator>
   </cc:Work>
  </rdf:RDF>
 </metadata>
 <defs>
  <style type="text/css">*{stroke-linejoin: round; stroke-linecap: butt}</style>
 </defs>
 <g id="figure_1">
  <g id="patch_1">
   <path d="M 0 345.6 
L 460.8 345.6 
L 460.8 0 
L 0 0 
z
" style="fill: #ffffff"/>
  </g>
  <g id="axes_1">
   <g id="patch_2">
    <path d="M 57.6 307.584 
L 414.72 307.584 
L 414.72 41.472 
L 57.6 41.472 
z
" style="fill: #ffffff"/>
   </g>
   <g id="matplotlib.axis_1">
    <g id="xtick_1">
     <g id="line2d_1">
      <defs>
       <path id="mefcd587f5a" d="M 0 0 
L 0 3.5 
" style="stroke: #000000; stroke-width: 0.8"/>
      </defs>
      <g>
       <use xlink:href="#mefcd587f5a" x="73.832727" y="307.584" style="stroke: #000000; stroke-width: 0.8"/>
      </g>
     </g>
     <g id="text_1">
      <!-- 0.0 -->
      <g transform="translate(65.881165 322.182437) scale(0.1 -0.1)">
       <defs>
        <path id="DejaVuSans-30" d="M 2034 4250 
Q 1547 4250 1301 3770 
Q 1056 3291 1056 2328 
Q 1056 1369 1301 889 
Q 1547 409 2034 409 
Q 2525 409 2770 889 
Q 3016 1369 3016 2328 
Q 3016 3291 2770 3770 
Q 2525 4250 2034 4250 
z
M 2034 4750 
Q 2819 4750 3233 4129 
Q 3647 3509 3647 2328 
Q 3647 1150 3233 529 
Q 2819 -91 2034 -91 
Q 1250 -91 836 529 
Q 422 1150 422 2328 
Q 422 3509 836 4129 
Q 1250 4750 2034 4750 
z
" transform="scale(0.015625)"/>
        <path id="DejaVuSans-2e" d="M 684 794 
L 1344 794 
L 1344 0 
L 684 0 
L 684 794 
z
" transform="scale(0.015625)"/>
       </defs>
       <use xlink:href="#DejaVuSans-30"/>
       <use xlink:href="#DejaVuSans-2e" x="63.623047"/>
       <use xlink:href="#DejaVuSans-30" x="95.410156"/>
      </g>
     </g>
    </g>
    <g id="xtick_2">
     <g id="line2d_2">
      <g>
       <use xlink:href="#mefcd587f5a" x="114.414545" y="307.584" style="stroke: #000000; stroke-width: 0.8"/>
      </g>
     </g>
     <g id="text_2">
      <!-- 0.5 -->
      <g transform="translate(106.462983 322.182437) scale(0.1 -0.1)">
       <defs>
        <path id="DejaVuSans-35" d="M 691 4666 
L 3169 4666 
L 3169 4134 
L 1269 4134 
L 1269 2991 
Q 1406 3038 1543 3061 
Q 1681 3084 1819 3084 
Q 2600 3084 3056 2656 
Q 3513 2228 3513 1497 
Q 3513 744 3044 326 
Q 2575 -91 1722 -91 
Q 1428 -91 1123 -41 
Q 819 9 494 109 
L 494 744 
Q 775 591 1075 516 
Q 1375 441 1709 441 
Q 2250 441 2565 725 
Q 2881 1009 2881 1497 
Q 2881 1984 2565 2268 
Q 2250 2553 1709 2553 
Q 1456 2553 1204 2497 
Q 953 2441 691 2322 
L 691 4666 
z
" transform="scale(0.015625)"/>
       </defs>
       <use xlink:href="#DejaVuSans-30"/>
       <use xlink:href="#DejaVuSans-2e" x="63.623047"/>
       <use xlink:href="#DejaVuSans-35" x="95.410156"/>
      </g>
     </g>
    </g>
    <g id="xtick_3">
     <g id="line2d_3">
      <g>
       <use xlink:href="#mefcd587f5a" x="154.996364" y="307.584" style="stroke: #000000; stroke-width: 0.8"/>
      </g>
     </g>
     <g id="text_3">
      <!-- 1.0 -->
      <g transform="translate(147.044801 322.182437) scale(0.1 -0.1)">
       <defs>
        <path id="DejaVuSans-31" d="M 794 531 
L 1825 531 
L 1825 4091 
L 703 3866 
L 703 4441 
L 1819 4666 
L 2450 4666 
L 2450 531 
L 3481 531 
L 3481 0 
L 794 0 
L 794 531 
z
" transform="scale(0.015625)"/>
       </defs>
       <use xlink:href="#DejaVuSans-31"/>
       <use xlink:href="#DejaVuSans-2e" x="63.623047"/>
       <use xlink:href="#DejaVuSans-30" x="95.410156"/>
      </g>
     </g>
    </g>
    <g id="xtick_4">
     <g id="line2d_4">
      <g>
       <use xlink:href="#mefcd587f5a" x="195.578182" y="307.584" style="stroke: #000000; stroke-width: 0.8"/>
      </g>
     </g>
     <g id="text_4">
      <!-- 1.5 -->
      <g transform="translate(187.626619 322.182437) scale(0.1 -0.1)">
       <use xlink:href="#DejaVuSans-31"/>
       <use xlink:href="#DejaVuSans-2e" x="63.623047"/>
       <use xlink:href="#DejaVuSans-35" x="95.410156"/>
      </g>
     </g>
    </g>
    <g id="xtick_5">
     <g id="line2d_5">
      <g>
       <use xlink:href="#mefcd587f5a" x="236.16" y="307.584" style="stroke: #000000; stroke-width: 0.8"/>
      </g>
     </g>
     <g id="text_5">
      <!-- 2.0 -->
      <g transform="translate(228.208438 322.182437) scale(0.1 -0.1)">
       <defs>
        <path id="DejaVuSans-32" d="M 1228 531 
L 3431 531 
L 3431 0 
L 469 0 
L 469 531 
Q 828 903 1448 1529 
Q 2069 2156 2228 2338 
Q 2531 2678 2651 2914 
Q 2772 3150 2772 3378 
Q 2772 3750 2511 3984 
Q 2250 4219 1831 4219 
Q 1534 4219 1204 4116 
Q 875 4013 500 3803 
L 500 4441 
Q 881 4594 1212 4672 
Q 1544 4750 1819 4750 
Q 2544 4750 2975 4387 
Q 3406 4025 3406 3419 
Q 3406 3131 3298 2873 
Q 3191 2616 2906 2266 
Q 2828 2175 2409 1742 
Q 1991 1309 1228 531 
z
" transform="scale(0.015625)"/>
       </defs>
       <use xlink:href="#DejaVuSans-32"/>
       <use xlink:href="#DejaVuSans-2e" x="63.623047"/>
       <use xlink:href="#DejaVuSans-30" x="95.410156"/>
      </g>
     </g>
    </g>
    <g id="xtick_6">
     <g id="line2d_6">
      <g>
       <use xlink:href="#mefcd587f5a" x="276.741818" y="307.584" style="stroke: #000000; stroke-width: 0.8"/>
      </g>
     </g>
     <g id="text_6">
      <!-- 2.5 -->
      <g transform="translate(268.790256 322.182437) scale(0.1 -0.1)">
       <use xlink:href="#DejaVuSans-32"/>
       <use xlink:href="#DejaVuSans-2e" x="63.623047"/>
       <use xlink:href="#DejaVuSans-35" x="95.410156"/>
      </g>
     </g>
    </g>
    <g id="xtick_7">
     <g id="line2d_7">
      <g>
       <use xlink:href="#mefcd587f5a" x="317.323636" y="307.584" style="stroke: #000000; stroke-width: 0.8"/>
      </g>
     </g>
     <g id="text_7">
      <!-- 3.0 -->
      <g transform="translate(309.372074 322.182437) scale(0.1 -0.1)">
       <defs>
        <path id="DejaVuSans-33" d="M 2597 2516 
Q 3050 2419 3304 2112 
Q 3559 1806 3559 1356 
Q 3559 666 3084 287 
Q 2609 -91 1734 -91 
Q 1441 -91 1130 -33 
Q 819 25 488 141 
L 488 750 
Q 750 597 1062 519 
Q 1375 441 1716 441 
Q 2309 441 2620 675 
Q 2931 909 2931 1356 
Q 2931 1769 2642 2001 
Q 2353 2234 1838 2234 
L 1294 2234 
L 1294 2753 
L 1863 2753 
Q 2328 2753 2575 2939 
Q 2822 3125 2822 3475 
Q 2822 3834 2567 4026 
Q 2313 4219 1838 4219 
Q 1578 4219 1281 4162 
Q 984 4106 628 3988 
L 628 4550 
Q 988 4650 1302 4700 
Q 1616 4750 1894 4750 
Q 2613 4750 3031 4423 
Q 3450 4097 3450 3541 
Q 3450 3153 3228 2886 
Q 3006 2619 2597 2516 
z
" transform="scale(0.015625)"/>
       </defs>
       <use xlink:href="#DejaVuSans-33"/>
       <use xlink:href="#DejaVuSans-2e" x="63.623047"/>
       <use xlink:href="#DejaVuSans-30" x="95.410156"/>
      </g>
     </g>
    </g>
    <g id="xtick_8">
     <g id="line2d_8">
      <g>
       <use xlink:href="#mefcd587f5a" x="357.905455" y="307.584" style="stroke: #000000; stroke-width: 0.8"/>
      </g>
     </g>
     <g id="text_8">
      <!-- 3.5 -->
      <g transform="translate(349.953892 322.182437) scale(0.1 -0.1)">
       <use xlink:href="#DejaVuSans-33"/>
       <use xlink:href="#DejaVuSans-2e" x="63.623047"/>
       <use xlink:href="#DejaVuSans-35" x="95.410156"/>
      </g>
     </g>
    </g>
    <g id="xtick_9">
     <g id="line2d_9">
      <g>
       <use xlink:href="#mefcd587f5a" x="398.487273" y="307.584" style="stroke: #000000; stroke-width: 0.8"/>
      </g>
     </g>
     <g id="text_9">
      <!-- 4.0 -->
      <g transform="translate(390.53571 322.182437) scale(0.1 -0.1)">
       <defs>
        <path id="DejaVuSans-34" d="M 2419 4116 
L 825 1625 
L 2419 1625 
L 2419 4116 
z
M 2253 4666 
L 3047 4666 
L 3047 1625 
L 3713 1625 
L 3713 1100 
L 3047 1100 
L 3047 0 
L 2419 0 
L 2419 1100 
L 313 1100 
L 313 1709 
L 2253 4666 
z
" transform="scale(0.015625)"/>
       </defs>
       <use xlink:href="#DejaVuSans-34"/>
       <use xlink:href="#DejaVuSans-2e" x="63.623047"/>
       <use xlink:href="#DejaVuSans-30" x="95.410156"/>
      </g>
     </g>
    </g>
    <g id="text_10">
     <!-- Time [$s$] -->
     <g transform="translate(215.66 335.860562) scale(0.1 -0.1)">
      <defs>
       <path id="DejaVuSans-54" d="M -19 4666 
L 3928 4666 
L 3928 4134 
L 2272 4134 
L 2272 0 
L 1638 0 
L 1638 4134 
L -19 4134 
L -19 4666 
z
" transform="scale(0.015625)"/>
       <path id="DejaVuSans-69" d="M 603 3500 
L 1178 3500 
L 1178 0 
L 603 0 
L 603 3500 
z
M 603 4863 
L 1178 4863 
L 1178 4134 
L 603 4134 
L 603 4863 
z
" transform="scale(0.015625)"/>
       <path id="DejaVuSans-6d" d="M 3328 2828 
Q 3544 3216 3844 3400 
Q 4144 3584 4550 3584 
Q 5097 3584 5394 3201 
Q 5691 2819 5691 2113 
L 5691 0 
L 5113 0 
L 5113 2094 
Q 5113 2597 4934 2840 
Q 4756 3084 4391 3084 
Q 3944 3084 3684 2787 
Q 3425 2491 3425 1978 
L 3425 0 
L 2847 0 
L 2847 2094 
Q 2847 2600 2669 2842 
Q 2491 3084 2119 3084 
Q 1678 3084 1418 2786 
Q 1159 2488 1159 1978 
L 1159 0 
L 581 0 
L 581 3500 
L 1159 3500 
L 1159 2956 
Q 1356 3278 1631 3431 
Q 1906 3584 2284 3584 
Q 2666 3584 2933 3390 
Q 3200 3197 3328 2828 
z
" transform="scale(0.015625)"/>
       <path id="DejaVuSans-65" d="M 3597 1894 
L 3597 1613 
L 953 1613 
Q 991 1019 1311 708 
Q 1631 397 2203 397 
Q 2534 397 2845 478 
Q 3156 559 3463 722 
L 3463 178 
Q 3153 47 2828 -22 
Q 2503 -91 2169 -91 
Q 1331 -91 842 396 
Q 353 884 353 1716 
Q 353 2575 817 3079 
Q 1281 3584 2069 3584 
Q 2775 3584 3186 3129 
Q 3597 2675 3597 1894 
z
M 3022 2063 
Q 3016 2534 2758 2815 
Q 2500 3097 2075 3097 
Q 1594 3097 1305 2825 
Q 1016 2553 972 2059 
L 3022 2063 
z
" transform="scale(0.015625)"/>
       <path id="DejaVuSans-20" transform="scale(0.015625)"/>
       <path id="DejaVuSans-5b" d="M 550 4863 
L 1875 4863 
L 1875 4416 
L 1125 4416 
L 1125 -397 
L 1875 -397 
L 1875 -844 
L 550 -844 
L 550 4863 
z
" transform="scale(0.015625)"/>
       <path id="DejaVuSans-Oblique-73" d="M 3200 3397 
L 3091 2853 
Q 2863 2978 2609 3040 
Q 2356 3103 2088 3103 
Q 1634 3103 1373 2948 
Q 1113 2794 1113 2528 
Q 1113 2219 1719 2053 
Q 1766 2041 1788 2034 
L 1972 1978 
Q 2547 1819 2739 1644 
Q 2931 1469 2931 1166 
Q 2931 609 2489 259 
Q 2047 -91 1331 -91 
Q 1053 -91 747 -37 
Q 441 16 72 128 
L 184 722 
Q 500 559 806 475 
Q 1113 391 1394 391 
Q 1816 391 2080 572 
Q 2344 753 2344 1031 
Q 2344 1331 1650 1516 
L 1591 1531 
L 1394 1581 
Q 956 1697 753 1886 
Q 550 2075 550 2369 
Q 550 2928 970 3256 
Q 1391 3584 2113 3584 
Q 2397 3584 2667 3537 
Q 2938 3491 3200 3397 
z
" transform="scale(0.015625)"/>
       <path id="DejaVuSans-5d" d="M 1947 4863 
L 1947 -844 
L 622 -844 
L 622 -397 
L 1369 -397 
L 1369 4416 
L 622 4416 
L 622 4863 
L 1947 4863 
z
" transform="scale(0.015625)"/>
      </defs>
      <use xlink:href="#DejaVuSans-54" transform="translate(0 0.015625)"/>
      <use xlink:href="#DejaVuSans-69" transform="translate(61.083984 0.015625)"/>
      <use xlink:href="#DejaVuSans-6d" transform="translate(88.867188 0.015625)"/>
      <use xlink:href="#DejaVuSans-65" transform="translate(186.279297 0.015625)"/>
      <use xlink:href="#DejaVuSans-20" transform="translate(247.802734 0.015625)"/>
      <use xlink:href="#DejaVuSans-5b" transform="translate(279.589844 0.015625)"/>
      <use xlink:href="#DejaVuSans-Oblique-73" transform="translate(318.603516 0.015625)"/>
      <use xlink:href="#DejaVuSans-5d" transform="translate(370.703125 0.015625)"/>
     </g>
    </g>
   </g>
   <g id="matplotlib.axis_2">
    <g id="ytick_1">
     <g id="line2d_10">
      <defs>
       <path id="m694dfa05e7" d="M 0 0 
L -3.5 0 
" style="stroke: #000000; stroke-width: 0.8"/>
      </defs>
      <g>
       <use xlink:href="#m694dfa05e7" x="57.6" y="290.250378" style="stroke: #000000; stroke-width: 0.8"/>
      </g>
     </g>
     <g id="text_11">
      <!-- −60 -->
      <g transform="translate(29.495313 294.049597) scale(0.1 -0.1)">
       <defs>
        <path id="DejaVuSans-2212" d="M 678 2272 
L 4684 2272 
L 4684 1741 
L 678 1741 
L 678 2272 
z
" transform="scale(0.015625)"/>
        <path id="DejaVuSans-36" d="M 2113 2584 
Q 1688 2584 1439 2293 
Q 1191 2003 1191 1497 
Q 1191 994 1439 701 
Q 1688 409 2113 409 
Q 2538 409 2786 701 
Q 3034 994 3034 1497 
Q 3034 2003 2786 2293 
Q 2538 2584 2113 2584 
z
M 3366 4563 
L 3366 3988 
Q 3128 4100 2886 4159 
Q 2644 4219 2406 4219 
Q 1781 4219 1451 3797 
Q 1122 3375 1075 2522 
Q 1259 2794 1537 2939 
Q 1816 3084 2150 3084 
Q 2853 3084 3261 2657 
Q 3669 2231 3669 1497 
Q 3669 778 3244 343 
Q 2819 -91 2113 -91 
Q 1303 -91 875 529 
Q 447 1150 447 2328 
Q 447 3434 972 4092 
Q 1497 4750 2381 4750 
Q 2619 4750 2861 4703 
Q 3103 4656 3366 4563 
z
" transform="scale(0.015625)"/>
       </defs>
       <use xlink:href="#DejaVuSans-2212"/>
       <use xlink:href="#DejaVuSans-36" x="83.789062"/>
       <use xlink:href="#DejaVuSans-30" x="147.412109"/>
      </g>
     </g>
    </g>
    <g id="ytick_2">
     <g id="line2d_11">
      <g>
       <use xlink:href="#m694dfa05e7" x="57.6" y="242.852862" style="stroke: #000000; stroke-width: 0.8"/>
      </g>
     </g>
     <g id="text_12">
      <!-- −40 -->
      <g transform="translate(29.495313 246.65208) scale(0.1 -0.1)">
       <use xlink:href="#DejaVuSans-2212"/>
       <use xlink:href="#DejaVuSans-34" x="83.789062"/>
       <use xlink:href="#DejaVuSans-30" x="147.412109"/>
      </g>
     </g>
    </g>
    <g id="ytick_3">
     <g id="line2d_12">
      <g>
       <use xlink:href="#m694dfa05e7" x="57.6" y="195.455346" style="stroke: #000000; stroke-width: 0.8"/>
      </g>
     </g>
     <g id="text_13">
      <!-- −20 -->
      <g transform="translate(29.495313 199.254564) scale(0.1 -0.1)">
       <use xlink:href="#DejaVuSans-2212"/>
       <use xlink:href="#DejaVuSans-32" x="83.789062"/>
       <use xlink:href="#DejaVuSans-30" x="147.412109"/>
      </g>
     </g>
    </g>
    <g id="ytick_4">
     <g id="line2d_13">
      <g>
       <use xlink:href="#m694dfa05e7" x="57.6" y="148.05783" style="stroke: #000000; stroke-width: 0.8"/>
      </g>
     </g>
     <g id="text_14">
      <!-- 0 -->
      <g transform="translate(44.2375 151.857048) scale(0.1 -0.1)">
       <use xlink:href="#DejaVuSans-30"/>
      </g>
     </g>
    </g>
    <g id="ytick_5">
     <g id="line2d_14">
      <g>
       <use xlink:href="#m694dfa05e7" x="57.6" y="100.660314" style="stroke: #000000; stroke-width: 0.8"/>
      </g>
     </g>
     <g id="text_15">
      <!-- 20 -->
      <g transform="translate(37.875 104.459532) scale(0.1 -0.1)">
       <use xlink:href="#DejaVuSans-32"/>
       <use xlink:href="#DejaVuSans-30" x="63.623047"/>
      </g>
     </g>
    </g>
    <g id="ytick_6">
     <g id="line2d_15">
      <g>
       <use xlink:href="#m694dfa05e7" x="57.6" y="53.262797" style="stroke: #000000; stroke-width: 0.8"/>
      </g>
     </g>
     <g id="text_16">
      <!-- 40 -->
      <g transform="translate(37.875 57.062016) scale(0.1 -0.1)">
       <use xlink:href="#DejaVuSans-34"/>
       <use xlink:href="#DejaVuSans-30" x="63.623047"/>
      </g>
     </g>
    </g>
    <g id="text_17">
     <!-- Voltage [$mV$] -->
     <g transform="translate(23.395312 207.478) rotate(-90) scale(0.1 -0.1)">
      <defs>
       <path id="DejaVuSans-56" d="M 1831 0 
L 50 4666 
L 709 4666 
L 2188 738 
L 3669 4666 
L 4325 4666 
L 2547 0 
L 1831 0 
z
" transform="scale(0.015625)"/>
       <path id="DejaVuSans-6f" d="M 1959 3097 
Q 1497 3097 1228 2736 
Q 959 2375 959 1747 
Q 959 1119 1226 758 
Q 1494 397 1959 397 
Q 2419 397 2687 759 
Q 2956 1122 2956 1747 
Q 2956 2369 2687 2733 
Q 2419 3097 1959 3097 
z
M 1959 3584 
Q 2709 3584 3137 3096 
Q 3566 2609 3566 1747 
Q 3566 888 3137 398 
Q 2709 -91 1959 -91 
Q 1206 -91 779 398 
Q 353 888 353 1747 
Q 353 2609 779 3096 
Q 1206 3584 1959 3584 
z
" transform="scale(0.015625)"/>
       <path id="DejaVuSans-6c" d="M 603 4863 
L 1178 4863 
L 1178 0 
L 603 0 
L 603 4863 
z
" transform="scale(0.015625)"/>
       <path id="DejaVuSans-74" d="M 1172 4494 
L 1172 3500 
L 2356 3500 
L 2356 3053 
L 1172 3053 
L 1172 1153 
Q 1172 725 1289 603 
Q 1406 481 1766 481 
L 2356 481 
L 2356 0 
L 1766 0 
Q 1100 0 847 248 
Q 594 497 594 1153 
L 594 3053 
L 172 3053 
L 172 3500 
L 594 3500 
L 594 4494 
L 1172 4494 
z
" transform="scale(0.015625)"/>
       <path id="DejaVuSans-61" d="M 2194 1759 
Q 1497 1759 1228 1600 
Q 959 1441 959 1056 
Q 959 750 1161 570 
Q 1363 391 1709 391 
Q 2188 391 2477 730 
Q 2766 1069 2766 1631 
L 2766 1759 
L 2194 1759 
z
M 3341 1997 
L 3341 0 
L 2766 0 
L 2766 531 
Q 2569 213 2275 61 
Q 1981 -91 1556 -91 
Q 1019 -91 701 211 
Q 384 513 384 1019 
Q 384 1609 779 1909 
Q 1175 2209 1959 2209 
L 2766 2209 
L 2766 2266 
Q 2766 2663 2505 2880 
Q 2244 3097 1772 3097 
Q 1472 3097 1187 3025 
Q 903 2953 641 2809 
L 641 3341 
Q 956 3463 1253 3523 
Q 1550 3584 1831 3584 
Q 2591 3584 2966 3190 
Q 3341 2797 3341 1997 
z
" transform="scale(0.015625)"/>
       <path id="DejaVuSans-67" d="M 2906 1791 
Q 2906 2416 2648 2759 
Q 2391 3103 1925 3103 
Q 1463 3103 1205 2759 
Q 947 2416 947 1791 
Q 947 1169 1205 825 
Q 1463 481 1925 481 
Q 2391 481 2648 825 
Q 2906 1169 2906 1791 
z
M 3481 434 
Q 3481 -459 3084 -895 
Q 2688 -1331 1869 -1331 
Q 1566 -1331 1297 -1286 
Q 1028 -1241 775 -1147 
L 775 -588 
Q 1028 -725 1275 -790 
Q 1522 -856 1778 -856 
Q 2344 -856 2625 -561 
Q 2906 -266 2906 331 
L 2906 616 
Q 2728 306 2450 153 
Q 2172 0 1784 0 
Q 1141 0 747 490 
Q 353 981 353 1791 
Q 353 2603 747 3093 
Q 1141 3584 1784 3584 
Q 2172 3584 2450 3431 
Q 2728 3278 2906 2969 
L 2906 3500 
L 3481 3500 
L 3481 434 
z
" transform="scale(0.015625)"/>
       <path id="DejaVuSans-Oblique-6d" d="M 5747 2113 
L 5338 0 
L 4763 0 
L 5166 2094 
Q 5191 2228 5203 2325 
Q 5216 2422 5216 2491 
Q 5216 2772 5059 2928 
Q 4903 3084 4622 3084 
Q 4203 3084 3875 2770 
Q 3547 2456 3450 1953 
L 3066 0 
L 2491 0 
L 2900 2094 
Q 2925 2209 2937 2307 
Q 2950 2406 2950 2484 
Q 2950 2769 2794 2926 
Q 2638 3084 2363 3084 
Q 1938 3084 1609 2770 
Q 1281 2456 1184 1953 
L 800 0 
L 225 0 
L 909 3500 
L 1484 3500 
L 1375 2956 
Q 1609 3263 1923 3423 
Q 2238 3584 2597 3584 
Q 2978 3584 3223 3384 
Q 3469 3184 3519 2828 
Q 3781 3197 4126 3390 
Q 4472 3584 4856 3584 
Q 5306 3584 5551 3325 
Q 5797 3066 5797 2591 
Q 5797 2488 5784 2364 
Q 5772 2241 5747 2113 
z
" transform="scale(0.015625)"/>
       <path id="DejaVuSans-Oblique-56" d="M 1319 0 
L 500 4666 
L 1119 4666 
L 1797 653 
L 4063 4666 
L 4750 4666 
L 2053 0 
L 1319 0 
z
" transform="scale(0.015625)"/>
      </defs>
      <use xlink:href="#DejaVuSans-56" transform="translate(0 0.015625)"/>
      <use xlink:href="#DejaVuSans-6f" transform="translate(68.408203 0.015625)"/>
      <use xlink:href="#DejaVuSans-6c" transform="translate(129.589844 0.015625)"/>
      <use xlink:href="#DejaVuSans-74" transform="translate(157.373047 0.015625)"/>
      <use xlink:href="#DejaVuSans-61" transform="translate(196.582031 0.015625)"/>
      <use xlink:href="#DejaVuSans-67" transform="translate(257.861328 0.015625)"/>
      <use xlink:href="#DejaVuSans-65" transform="translate(321.337891 0.015625)"/>
      <use xlink:href="#DejaVuSans-20" transform="translate(382.861328 0.015625)"/>
      <use xlink:href="#DejaVuSans-5b" transform="translate(414.648438 0.015625)"/>
      <use xlink:href="#DejaVuSans-Oblique-6d" transform="translate(453.662109 0.015625)"/>
      <use xlink:href="#DejaVuSans-Oblique-56" transform="translate(551.074219 0.015625)"/>
      <use xlink:href="#DejaVuSans-5d" transform="translate(619.482422 0.015625)"/>
     </g>
    </g>
   </g>
   <g id="line2d_16">
    <path d="M 73.832727 175.504359 
L 73.948717 162.160789 
L 74.180696 182.013417 
L 74.296685 171.815892 
L 74.528664 118.658583 
L 74.644654 110.630744 
L 74.876633 157.604448 
L 74.992622 116.705865 
L 75.224601 167.910457 
L 75.45658 245.368251 
L 75.804548 128.530655 
L 76.036527 160.099587 
L 76.152517 158.580807 
L 76.268506 146.213596 
L 76.384496 146.213596 
L 76.500485 157.929901 
L 76.616475 156.519605 
L 76.732464 153.373561 
L 76.848454 160.533525 
L 76.964443 135.47365 
L 77.080433 148.383283 
L 77.196422 184.61704 
L 77.312412 176.589202 
L 77.544391 117.356771 
L 77.66038 122.130081 
L 77.776369 187.87157 
L 77.892359 178.758888 
L 78.008348 180.928574 
L 78.240327 102.494422 
L 78.356317 115.729507 
L 78.588296 215.535067 
L 78.820275 106.833794 
L 79.052254 198.503031 
L 79.168243 111.173166 
L 79.284233 132.219121 
L 79.400222 214.992646 
L 79.748191 186.786726 
L 80.444127 87.198135 
L 80.676106 159.448682 
L 80.908085 222.261094 
L 81.140064 130.808825 
L 81.372043 120.828269 
L 81.488033 147.732377 
L 81.720012 241.245848 
L 82.06798 121.479175 
L 82.18397 132.978511 
L 82.415949 81.556951 
L 82.879906 221.176251 
L 82.995896 159.014744 
L 83.227875 175.938296 
L 83.459854 105.748951 
L 83.691833 147.732377 
L 83.807822 152.939623 
L 83.923812 189.607318 
L 84.039801 177.999498 
L 84.27178 133.412448 
L 84.38777 130.808825 
L 84.619749 144.8033 
L 84.735738 191.017614 
L 84.851728 190.041256 
L 85.083707 119.526457 
L 85.199696 156.085668 
L 85.315685 146.864502 
L 85.779643 186.895211 
L 86.011622 164.43896 
L 86.127612 180.494637 
L 86.359591 127.988233 
L 86.59157 161.509883 
L 86.823549 100.650188 
L 86.939538 84.269058 
L 87.055528 116.271928 
L 87.287507 210.436305 
L 87.403496 213.690834 
L 87.519486 212.172054 
L 87.867454 110.847713 
L 88.099433 152.939623 
L 88.215422 115.187085 
L 88.331412 134.931229 
L 88.447401 199.587874 
L 88.67938 140.789381 
L 88.79537 150.986906 
L 89.027349 116.380413 
L 89.143338 124.191283 
L 89.375317 198.828484 
L 89.491307 183.315229 
L 89.607296 214.34174 
L 89.839275 114.861632 
L 89.955265 116.380413 
L 90.187243 140.463928 
L 90.419222 193.512753 
L 90.651201 144.694816 
L 90.88318 156.62809 
L 90.99917 155.326278 
L 91.115159 159.231713 
L 91.231149 132.761543 
L 91.347138 134.497291 
L 91.579117 162.594726 
L 91.695107 224.105327 
L 91.811096 207.507229 
L 91.927086 148.274798 
L 92.159065 175.721327 
L 92.275054 164.872897 
L 92.391044 125.818547 
L 92.507033 127.66278 
L 92.739012 150.552969 
L 92.855001 123.648861 
L 92.970991 185.484915 
L 93.08698 185.484915 
L 93.318959 98.914439 
L 93.434949 109.545901 
L 93.666928 179.192825 
L 93.782917 161.18443 
L 93.898907 194.814565 
L 94.014896 188.413991 
L 94.246875 168.778332 
L 94.478854 156.411121 
L 94.594844 180.928574 
L 94.710833 141.874224 
L 94.942812 150.119031 
L 95.058802 113.451336 
L 95.174791 117.356771 
L 95.40677 144.694816 
L 95.522759 144.911785 
L 95.754738 151.85478 
L 95.870728 145.562691 
L 96.218696 199.804843 
L 96.334686 193.946691 
L 96.450675 190.041256 
L 96.566665 190.14974 
L 96.682654 111.28165 
L 96.798644 120.177363 
L 96.914633 105.640466 
L 97.030623 67.453991 
L 97.378591 266.197238 
L 97.494581 256.216682 
L 97.726559 155.977184 
L 97.958538 130.917309 
L 98.074528 127.120359 
L 98.190517 138.402726 
L 98.422496 101.301094 
L 98.770465 173.117704 
L 98.886454 177.240108 
L 99.118433 154.024466 
L 99.350412 177.891013 
L 99.466402 169.429238 
L 99.582391 210.978726 
L 99.698381 211.738117 
L 99.81437 182.447354 
L 99.93036 122.130081 
L 100.046349 121.045238 
L 100.162338 125.818547 
L 100.394317 140.572413 
L 100.510307 178.975857 
L 100.626296 174.636484 
L 100.742286 175.070422 
L 100.858275 157.062027 
L 101.090254 93.490224 
L 101.322233 240.377973 
L 101.670202 128.856108 
L 101.786191 152.61417 
L 102.01817 120.502816 
L 102.250149 104.772592 
L 102.366139 101.735031 
L 102.482128 103.47078 
L 102.714107 182.121901 
L 102.830096 190.583677 
L 103.062075 165.089865 
L 103.178065 178.758888 
L 103.526033 130.591857 
L 103.642023 139.053632 
L 103.874002 178.650404 
L 103.989991 95.65991 
L 104.105981 111.064682 
L 104.22197 96.744753 
L 104.453949 175.395874 
L 104.685928 114.319211 
L 104.801918 173.985578 
L 104.917907 175.070422 
L 105.033897 222.15261 
L 105.381865 166.391677 
L 105.729833 125.818547 
L 105.845823 165.95774 
L 106.193791 141.223318 
L 106.309781 109.979839 
L 106.657749 211.521148 
L 106.889728 96.310816 
L 107.121707 199.804843 
L 107.469676 127.337327 
L 107.585665 179.843731 
L 107.701654 123.648861 
L 108.049623 188.739444 
L 108.165612 164.113507 
L 108.281602 181.904933 
L 108.397591 141.331803 
L 108.62957 164.655928 
L 108.861549 137.209399 
L 108.977539 155.000825 
L 109.093528 141.223318 
L 109.209518 141.657256 
L 109.325507 187.87157 
L 109.789465 129.073076 
L 109.905455 134.280323 
L 110.021444 129.940951 
L 110.137433 179.409794 
L 110.253423 140.138475 
L 110.485402 192.210942 
L 110.601391 182.230386 
L 110.83337 118.441614 
L 110.94936 124.733704 
L 111.065349 123.86583 
L 111.413318 151.746296 
L 111.529307 195.899408 
L 111.761286 197.092735 
L 111.877276 189.824287 
L 111.993265 128.639139 
L 112.225244 195.248502 
L 112.457223 109.220448 
L 112.573213 122.130081 
L 112.689202 115.404054 
L 112.805191 120.394332 
L 113.03717 182.013417 
L 113.15316 193.295785 
L 113.269149 147.081471 
L 113.385139 158.797776 
L 113.501128 212.714475 
L 113.733107 97.612628 
L 113.965086 151.85478 
L 114.081076 116.271928 
L 114.197065 115.29557 
L 114.545034 153.590529 
L 114.661023 152.939623 
L 114.893002 127.120359 
L 115.008992 159.882619 
L 115.24097 276.069309 
L 115.588939 174.202547 
L 115.704928 144.477848 
L 115.820918 167.47652 
L 116.052897 227.142888 
L 116.284876 173.334673 
L 116.400865 187.003695 
L 116.632844 153.048108 
L 116.980813 71.142457 
L 117.212792 163.571085 
L 117.328781 137.209399 
L 117.444771 150.769937 
L 117.56076 145.888143 
L 117.792739 154.024466 
L 117.908728 147.732377 
L 118.024718 159.66565 
L 118.140707 148.383283 
L 118.256697 97.504143 
L 118.372686 96.310816 
L 118.488676 93.707193 
L 118.720655 252.853668 
L 118.836644 233.76043 
L 119.184613 148.600251 
L 119.300602 119.960395 
L 119.76456 157.170511 
L 119.88055 157.062027 
L 119.996539 126.252484 
L 120.112529 150.986906 
L 120.344507 133.629417 
L 120.460497 187.220664 
L 120.692476 177.457076 
L 120.808465 146.756018 
L 120.924455 192.861848 
L 121.156434 138.836664 
L 121.388413 171.164987 
L 121.620392 164.872897 
L 121.736381 134.931229 
L 121.852371 137.209399 
L 121.96836 127.120359 
L 122.08435 134.497291 
L 122.200339 153.807498 
L 122.316329 132.544574 
L 122.548308 190.90913 
L 122.780286 135.47365 
L 123.128255 185.593399 
L 123.244244 180.169184 
L 123.476223 130.700341 
L 123.592213 135.582135 
L 123.708202 125.059157 
L 124.056171 186.352789 
L 124.520129 113.451336 
L 124.752108 153.373561 
L 124.868097 139.270601 
L 124.984087 97.612628 
L 125.332055 208.483587 
L 125.448044 170.080143 
L 125.564034 172.466798 
L 125.680023 166.71713 
L 126.027992 91.754475 
L 126.259971 139.48757 
L 126.37596 125.710063 
L 126.49195 200.455749 
L 126.723929 155.977184 
L 126.839918 186.352789 
L 127.071897 181.470996 
L 127.303876 121.262206 
L 127.419866 123.214924 
L 127.535855 122.455534 
L 127.767834 180.277668 
L 127.883823 190.041256 
L 127.999813 185.050978 
L 128.115802 142.959067 
L 128.347781 177.348592 
L 128.69575 131.6767 
L 128.811739 134.605776 
L 128.927729 113.451336 
L 129.043718 119.309489 
L 129.159708 101.084126 
L 129.507676 208.917525 
L 129.623666 196.984251 
L 129.855645 135.582135 
L 129.971634 108.24409 
L 130.087624 112.80043 
L 130.203613 107.593184 
L 130.551581 269.885704 
L 130.78356 175.070422 
L 130.89955 136.016072 
L 131.015539 168.452879 
L 131.247518 136.124556 
L 131.363508 111.715587 
L 131.595487 159.774135 
L 131.827466 138.836664 
L 132.059445 156.194152 
L 132.175434 188.413991 
L 132.291424 188.956413 
L 132.407413 191.343067 
L 132.639392 125.818547 
L 132.755381 134.280323 
L 132.98736 150.119031 
L 133.219339 231.48226 
L 133.567308 175.938296 
L 133.683297 162.052305 
L 133.915276 91.754475 
L 134.263245 153.156592 
L 134.379234 132.761543 
L 134.495224 151.420843 
L 134.611213 136.558493 
L 134.727203 98.914439 
L 135.075171 148.81722 
L 135.30715 217.053848 
L 135.423139 221.067767 
L 135.539129 220.091408 
L 135.887097 96.093848 
L 136.003087 116.705865 
L 136.235066 173.334673 
L 136.351055 149.251157 
L 136.467045 162.594726 
L 136.815013 117.57374 
L 137.278971 213.799318 
L 137.394961 197.635157 
L 137.51095 204.795121 
L 137.742929 176.480717 
L 137.858918 163.137148 
L 137.974908 164.655928 
L 138.090897 101.301094 
L 138.206887 111.715587 
L 138.438866 188.305507 
L 138.670845 126.90339 
L 138.902824 176.372233 
L 139.018813 165.740771 
L 139.134803 111.173166 
L 139.250792 114.536179 
L 139.482771 233.977399 
L 139.71475 159.557166 
L 139.83074 158.038386 
L 139.946729 203.059372 
L 140.062719 199.262422 
L 140.294697 111.932556 
L 140.642666 179.735247 
L 140.758655 159.66565 
L 140.874645 109.328933 
L 140.990634 109.76287 
L 141.338603 163.571085 
L 141.570582 223.454422 
L 141.91855 112.04104 
L 142.03454 121.153722 
L 142.266519 193.729722 
L 142.382508 197.96061 
L 142.614487 164.655928 
L 142.730476 156.62809 
L 142.846466 139.48757 
L 142.962455 139.48757 
L 143.078445 155.977184 
L 143.194434 125.818547 
L 143.310424 149.034188 
L 143.426413 149.359641 
L 143.542403 124.950673 
L 143.658392 126.794906 
L 143.774382 178.324951 
L 144.006361 128.856108 
L 144.12235 129.507013 
L 144.23834 144.8033 
L 144.470319 236.472538 
L 144.702298 167.042583 
L 144.934277 140.138475 
L 145.050266 141.657256 
L 145.166255 119.309489 
L 145.398234 149.359641 
L 145.746203 106.833794 
L 146.094171 215.318099 
L 146.32615 141.440287 
L 146.44214 138.619695 
L 146.674119 114.970117 
L 146.906098 194.380628 
L 147.022087 181.362511 
L 147.138077 214.124771 
L 147.370056 154.458404 
L 147.486045 152.288717 
L 147.602034 161.18443 
L 147.718024 160.967462 
L 147.834013 133.19548 
L 147.950003 132.43609 
L 148.297971 163.896538 
L 148.52995 94.358099 
L 148.761929 142.959067 
L 148.993908 230.505901 
L 149.225887 169.320753 
L 149.457866 130.374888 
L 149.573856 122.238565 
L 149.689845 127.554296 
L 149.805835 172.466798 
L 149.921824 164.43896 
L 150.153803 201.432108 
L 150.269792 196.333345 
L 150.617761 125.059157 
L 150.73375 112.80043 
L 150.84974 144.694816 
L 150.965729 144.911785 
L 151.081719 111.173166 
L 151.313698 190.14974 
L 151.429687 175.395874 
L 151.661666 138.077274 
L 151.777656 156.62809 
L 151.893645 137.100915 
L 152.009635 147.298439 
L 152.125624 189.173381 
L 152.241614 171.381955 
L 152.357603 178.758888 
L 152.589582 133.629417 
L 152.705571 158.580807 
L 152.821561 149.251157 
L 152.93755 121.913112 
L 153.05354 171.598924 
L 153.169529 171.924377 
L 153.401508 146.864502 
L 153.517498 140.572413 
L 153.633487 170.188628 
L 153.749477 144.04391 
L 153.865466 155.326278 
L 153.981456 136.883946 
L 154.097445 147.623892 
L 154.329424 217.704753 
L 154.445414 199.153937 
L 154.793382 110.196807 
L 154.909372 100.216251 
L 155.025361 111.173166 
L 155.14135 141.874224 
L 155.25734 219.332018 
L 155.373329 219.982924 
L 155.605308 126.794906 
L 155.721298 126.90339 
L 156.069266 183.966135 
L 156.185256 177.457076 
L 156.301245 178.324951 
L 156.417235 127.337327 
L 156.533224 133.629417 
L 156.765203 88.933883 
L 157.113172 178.758888 
L 157.229161 173.551641 
L 157.345151 162.920179 
L 157.46114 138.402726 
L 157.809108 172.466798 
L 157.925098 155.326278 
L 158.157077 166.174709 
L 158.389056 137.209399 
L 158.505045 164.655928 
L 158.621035 159.014744 
L 158.737024 119.09252 
L 158.853014 134.822744 
L 158.969003 173.551641 
L 159.084993 156.302637 
L 159.200982 112.258009 
L 159.316972 141.76574 
L 159.432961 236.906475 
L 159.548951 229.854996 
L 159.896919 59.209184 
L 160.012909 78.953327 
L 160.244887 210.653274 
L 160.592856 123.214924 
L 160.708845 139.596054 
L 160.940824 234.411336 
L 161.056814 235.821632 
L 161.404782 120.719785 
L 161.636761 96.961722 
L 161.86874 215.426583 
L 162.100719 166.825614 
L 162.216709 175.28739 
L 162.332698 156.62809 
L 162.448688 155.977184 
L 162.680666 135.365166 
L 162.796656 143.935426 
L 162.912645 138.836664 
L 163.028635 162.269274 
L 163.260614 133.19548 
L 163.492593 112.691946 
L 163.724572 150.444484 
L 163.840561 167.259552 
L 164.07254 165.306834 
L 164.18853 195.031534 
L 164.304519 192.42791 
L 164.536498 153.373561 
L 164.652488 171.381955 
L 164.768477 157.712933 
L 164.884467 162.377758 
L 165.000456 148.600251 
L 165.232435 200.99817 
L 165.464414 132.327605 
L 165.696393 164.655928 
L 165.928372 175.504359 
L 166.044361 155.760215 
L 166.160351 168.778332 
L 166.508319 108.569543 
L 166.740298 192.644879 
L 166.856288 192.644879 
L 166.972277 176.372233 
L 167.204256 116.380413 
L 167.436235 106.725309 
L 167.784203 156.194152 
L 167.900193 245.368251 
L 168.016182 235.279211 
L 168.132172 209.134493 
L 168.248161 208.917525 
L 168.48014 151.637812 
L 168.712119 119.201004 
L 168.944098 176.589202 
L 169.060088 176.263749 
L 169.176077 174.528 
L 169.408056 126.794906 
L 169.524046 106.182888 
L 169.640035 130.591857 
L 169.756025 204.795121 
L 169.872014 196.007892 
L 170.103993 115.837991 
L 170.219982 123.214924 
L 170.451961 215.86052 
L 170.68394 134.388807 
L 170.79993 137.968789 
L 171.263888 220.308377 
L 171.379877 164.113507 
L 171.495867 171.381955 
L 171.611856 142.091193 
L 171.727846 142.742099 
L 171.843835 100.216251 
L 171.959825 106.074404 
L 172.075814 131.025794 
L 172.307793 118.658583 
L 172.423783 102.385937 
L 172.88774 193.838206 
L 173.00373 181.796448 
L 173.351698 139.270601 
L 173.467688 121.262206 
L 173.583677 138.077274 
L 173.815656 185.267946 
L 173.931646 159.014744 
L 174.047635 193.404269 
L 174.163625 189.173381 
L 174.395604 126.252484 
L 174.627583 149.034188 
L 174.743572 133.737901 
L 174.859562 139.596054 
L 175.09154 181.687964 
L 175.20753 178.758888 
L 175.439509 147.515408 
L 175.555498 132.761543 
L 175.671488 161.835336 
L 175.787477 106.182888 
L 175.903467 119.526457 
L 176.019456 91.10357 
L 176.367425 247.971874 
L 176.831383 107.593184 
L 177.179351 203.710278 
L 177.41133 151.963265 
L 177.643309 105.857435 
L 177.875288 174.419516 
L 177.991277 135.256682 
L 178.107267 139.921507 
L 178.223256 175.829812 
L 178.339246 129.290045 
L 178.687214 161.18443 
L 178.803204 162.377758 
L 178.919193 128.856108 
L 179.035183 128.856108 
L 179.151172 112.583462 
L 179.499141 232.675587 
L 179.61513 207.398744 
L 179.73112 209.134493 
L 179.847109 229.095605 
L 179.963099 225.407139 
L 180.079088 200.889686 
L 180.195077 213.58235 
L 180.311067 150.661453 
L 180.427056 150.986906 
L 180.543046 143.826942 
L 180.775025 93.707193 
L 180.891014 100.758673 
L 181.238983 173.00922 
L 181.354972 187.220664 
L 181.586951 168.778332 
L 181.81893 196.224861 
L 182.050909 103.687749 
L 182.166899 107.593184 
L 182.282888 129.507013 
L 182.514867 225.19017 
L 182.746846 135.799103 
L 182.862835 138.836664 
L 182.978825 136.23304 
L 183.210804 176.480717 
L 183.442783 134.822744 
L 183.558772 131.242762 
L 183.674762 174.853453 
L 183.790751 173.334673 
L 183.906741 174.202547 
L 184.13872 157.929901 
L 184.254709 159.448682 
L 184.370699 210.219336 
L 184.486688 199.370906 
L 184.718667 122.780987 
L 184.834657 153.048108 
L 184.950646 129.073076 
L 185.066635 150.119031 
L 185.182625 120.394332 
L 185.530593 159.448682 
L 185.762572 209.134493 
L 185.994551 162.052305 
L 186.110541 128.42217 
L 186.34252 177.131623 
L 186.458509 195.248502 
L 186.806478 108.894996 
L 186.922467 111.498619 
L 187.154446 156.845058 
L 187.270436 123.648861 
L 187.386425 130.157919 
L 187.618404 188.088538 
L 187.734393 184.074619 
L 187.966372 147.515408 
L 188.082362 189.064897 
L 188.198351 189.824287 
L 188.314341 168.561363 
L 188.43033 188.305507 
L 188.778299 64.307946 
L 189.010278 167.910457 
L 189.126267 162.052305 
L 189.358246 217.596269 
L 189.706215 157.062027 
L 189.822204 172.141345 
L 189.938194 172.358314 
L 190.286162 126.035516 
L 190.518141 189.607318 
L 190.982099 110.956197 
L 191.098088 160.316556 
L 191.214078 155.000825 
L 191.330067 161.509883 
L 191.446057 190.366709 
L 191.678036 136.23304 
L 191.794025 134.931229 
L 191.910015 143.826942 
L 192.026004 141.223318 
L 192.257983 220.850798 
L 192.605951 172.24983 
L 192.721941 166.174709 
L 192.83793 145.779659 
L 192.95392 150.986906 
L 193.069909 139.921507 
L 193.185899 150.227516 
L 193.301888 138.619695 
L 193.417878 102.819874 
L 193.533867 119.09252 
L 193.649857 119.634942 
L 193.881836 129.073076 
L 194.113815 174.202547 
L 194.229804 176.589202 
L 194.345794 142.416646 
L 194.461783 146.647534 
L 194.577773 141.223318 
L 194.693762 113.885274 
L 194.809752 136.450009 
L 194.925741 208.917525 
L 195.04173 201.974529 
L 195.15772 159.774135 
L 195.273709 203.710278 
L 195.389699 175.504359 
L 195.621678 185.484915 
L 195.737667 182.013417 
L 195.853657 193.295785 
L 195.969646 181.904933 
L 196.201625 114.210726 
L 196.317615 141.223318 
L 196.549594 107.593184 
L 196.665583 108.027121 
L 197.129541 204.144215 
L 197.245531 203.601794 
L 197.593499 123.86583 
L 197.825478 148.491767 
L 197.941467 133.19548 
L 198.173446 184.834009 
L 198.289436 162.486242 
L 198.405425 170.297112 
L 198.521415 155.977184 
L 198.753394 112.583462 
L 198.869383 118.658583 
L 199.101362 196.550314 
L 199.333341 116.922834 
L 199.68131 239.510099 
L 199.913289 152.180233 
L 200.029278 118.007677 
L 200.145267 116.922834 
L 200.261257 146.647534 
L 200.377246 133.412448 
L 200.493236 163.788054 
L 200.609225 161.726852 
L 200.841204 183.09826 
L 200.957194 188.088538 
L 201.073183 187.87157 
L 201.189173 167.47652 
L 201.305162 112.583462 
L 201.537141 117.790709 
L 201.88511 189.824287 
L 202.001099 178.975857 
L 202.117089 178.541919 
L 202.233078 180.277668 
L 202.349068 170.622565 
L 202.581046 120.828269 
L 202.813025 181.57948 
L 202.929015 194.272143 
L 203.045004 187.003695 
L 203.160994 155.760215 
L 203.276983 193.946691 
L 203.508962 111.715587 
L 203.97292 252.745184 
L 204.204899 133.629417 
L 204.436878 108.569543 
L 204.552868 129.073076 
L 204.668857 204.361184 
L 204.784847 204.795121 
L 205.016825 133.629417 
L 205.132815 130.374888 
L 205.364794 99.348377 
L 205.480783 112.908915 
L 205.828752 193.729722 
L 206.060731 180.603121 
L 206.17672 134.71426 
L 206.29271 137.426368 
L 206.524689 130.157919 
L 206.640678 131.6767 
L 206.988647 181.57948 
L 207.104636 161.618368 
L 207.220626 163.571085 
L 207.452605 126.469453 
L 207.568594 143.826942 
L 207.684583 139.921507 
L 207.916562 160.099587 
L 208.032552 134.931229 
L 208.148541 143.826942 
L 208.264531 179.626762 
L 208.38052 256.867587 
L 208.49651 244.283408 
L 208.728489 134.280323 
L 208.960468 91.971444 
L 209.076457 103.036843 
L 209.308436 179.409794 
L 209.656405 153.156592 
L 209.772394 151.637812 
L 209.888384 144.477848 
L 210.004373 161.401399 
L 210.120362 157.712933 
L 210.236352 168.127426 
L 210.468331 152.831139 
L 210.70031 103.253812 
L 210.816299 128.205202 
L 211.048278 222.586547 
L 211.280257 118.007677 
L 211.396247 136.883946 
L 211.512236 137.100915 
L 211.628226 142.308161 
L 211.860205 193.838206 
L 212.092184 152.939623 
L 212.208173 160.42504 
L 212.440152 99.348377 
L 212.672131 213.799318 
L 212.90411 152.722655 
L 213.136089 172.683767 
L 213.600047 86.981166 
L 213.716036 110.847713 
L 213.948015 192.42791 
L 214.064005 196.116377 
L 214.179994 210.653274 
L 214.295984 163.571085 
L 214.411973 175.504359 
L 214.527963 168.127426 
L 214.643952 122.997955 
L 214.875931 188.413991 
L 215.10791 106.291372 
L 215.571868 168.127426 
L 215.687857 163.245632 
L 215.803847 137.534852 
L 215.919836 138.619695 
L 216.151815 206.313901 
L 216.267805 243.198565 
L 216.383794 211.087211 
L 216.615773 115.729507 
L 216.731763 122.780987 
L 217.079731 189.173381 
L 217.31171 158.797776 
L 217.543689 149.902063 
L 217.891657 76.675157 
L 218.007647 79.170296 
L 218.355615 293.426798 
L 218.471605 272.597812 
L 218.703584 142.850583 
L 218.819573 142.308161 
L 218.935563 75.698798 
L 219.283531 170.948018 
L 219.399521 218.789596 
L 219.51551 213.256897 
L 219.6315 151.85478 
L 219.747489 150.986906 
L 219.979468 98.046565 
L 220.095457 98.480502 
L 220.443426 185.701883 
L 220.559415 191.343067 
L 220.791394 186.027336 
L 221.023373 130.808825 
L 221.255352 158.580807 
L 221.371342 207.832682 
L 221.603321 126.252484 
L 221.71931 134.931229 
L 221.8353 137.751821 
L 222.067279 121.262206 
L 222.299258 223.67139 
L 222.531236 126.035516 
L 222.647226 131.893668 
L 222.763215 153.373561 
L 222.995194 124.733704 
L 223.111184 84.377543 
L 223.343163 194.163659 
L 223.459152 219.332018 
L 223.575142 189.39035 
L 223.691131 188.413991 
L 223.92311 135.148197 
L 224.0391 136.016072 
L 224.271079 141.548771 
L 224.387068 162.052305 
L 224.503058 160.533525 
L 224.619047 173.985578 
L 224.735037 171.815892 
L 224.851026 161.835336 
L 225.083005 117.356771 
L 225.314984 135.365166 
L 225.546963 100.758673 
L 225.778942 191.560036 
L 225.894931 181.470996 
L 226.12691 210.653274 
L 226.2429 208.483587 
L 226.358889 186.786726 
L 226.590868 72.444269 
L 226.706858 76.024251 
L 226.822847 98.480502 
L 227.170816 216.945363 
L 227.402795 143.501489 
L 227.634773 212.389022 
L 228.098731 123.86583 
L 228.214721 133.629417 
L 228.562689 183.532197 
L 228.910658 87.957525 
L 229.374616 219.548987 
L 229.490605 213.473865 
L 229.606595 199.913327 
L 229.722584 144.477848 
L 229.838574 144.477848 
L 230.186542 104.121686 
L 230.302531 133.412448 
L 230.418521 191.777004 
L 230.53451 167.042583 
L 230.6505 178.758888 
L 230.766489 135.148197 
L 230.998468 172.792251 
L 231.114458 161.18443 
L 231.230447 201.974529 
L 231.346437 196.767283 
L 231.578416 104.989561 
L 231.926384 176.372233 
L 232.042374 187.437632 
L 232.390342 116.271928 
L 232.506331 124.733704 
L 232.8543 224.322296 
L 233.202268 95.334457 
L 233.318258 161.18443 
L 233.434247 163.571085 
L 233.666226 128.856108 
L 233.898205 144.260879 
L 234.014195 134.497291 
L 234.130184 151.529327 
L 234.362163 127.337327 
L 234.478153 158.689291 
L 234.594142 229.312574 
L 234.826121 193.621238 
L 234.94211 194.163659 
L 235.174089 126.794906 
L 235.290079 162.052305 
L 235.406068 150.769937 
L 235.522058 159.448682 
L 235.754037 134.280323 
L 235.986016 223.020484 
L 236.217995 161.618368 
L 236.449974 179.626762 
L 236.565963 191.017614 
L 236.797942 146.756018 
L 236.913932 165.740771 
L 237.029921 122.780987 
L 237.145911 141.548771 
L 237.2619 180.494637 
L 237.493879 162.703211 
L 237.725858 127.879749 
L 238.073826 209.351462 
L 238.189816 199.696359 
L 238.421795 127.337327 
L 238.653774 99.348377 
L 238.885753 165.19835 
L 239.117732 157.38748 
L 239.349711 161.509883 
L 239.58169 176.155265 
L 239.697679 157.170511 
L 239.813669 157.929901 
L 239.929658 168.452879 
L 240.045647 136.016072 
L 240.277626 162.052305 
L 240.393616 169.429238 
L 240.625595 137.100915 
L 240.741584 148.166314 
L 240.973563 101.084126 
L 241.089553 103.904717 
L 241.205542 153.373561 
L 241.437521 99.239892 
L 241.553511 117.356771 
L 241.78549 210.002368 
L 241.901479 203.276341 
L 242.133458 169.863175 
L 242.365437 196.984251 
L 242.481426 207.615713 
L 242.597416 204.2527 
L 242.713405 139.270601 
L 242.829395 136.558493 
L 243.177363 168.452879 
L 243.293353 167.47652 
L 243.525332 96.744753 
L 243.641321 100.541704 
L 243.757311 106.508341 
L 244.105279 210.653274 
L 244.221269 165.740771 
L 244.337258 189.173381 
L 244.685227 99.348377 
L 244.801216 104.772592 
L 244.917205 126.686422 
L 245.033195 169.646206 
L 245.149184 137.100915 
L 245.265174 142.52513 
L 245.381163 141.331803 
L 245.497153 108.24409 
L 245.845121 221.284735 
L 246.0771 182.881291 
L 246.19309 188.413991 
L 246.309079 214.775677 
L 246.657048 153.590529 
L 246.773037 166.391677 
L 247.005016 143.826942 
L 247.468974 186.135821 
L 247.584963 189.173381 
L 247.700953 195.356987 
L 247.932932 132.327605 
L 248.048921 130.157919 
L 248.164911 103.687749 
L 248.2809 132.110637 
L 248.39689 131.459731 
L 248.512879 126.686422 
L 248.628869 104.447139 
L 248.860848 201.757561 
L 248.976837 187.220664 
L 249.208816 105.206529 
L 249.440795 173.334673 
L 249.556785 178.324951 
L 249.672774 204.903605 
L 249.788764 195.573955 
L 249.904753 122.130081 
L 250.020742 126.469453 
L 250.136732 161.835336 
L 250.252721 150.336 
L 250.368711 170.080143 
L 250.716679 135.799103 
L 250.832669 140.572413 
L 250.948658 137.209399 
L 251.180637 166.71713 
L 251.296627 159.014744 
L 251.644595 105.640466 
L 251.876574 190.692161 
L 251.992564 157.062027 
L 252.224543 225.19017 
L 252.456521 155.977184 
L 252.6885 82.858762 
L 253.036469 197.635157 
L 253.152458 227.468341 
L 253.616416 87.84904 
L 253.964385 138.945148 
L 254.080374 192.102457 
L 254.196364 173.117704 
L 254.312353 174.528 
L 254.428343 185.593399 
L 254.660322 136.666978 
L 254.776311 151.963265 
L 255.00829 107.4847 
L 255.124279 110.847713 
L 255.356258 179.735247 
L 255.472248 188.088538 
L 255.588237 164.872897 
L 255.704227 108.894996 
L 255.820216 108.678027 
L 255.936206 138.185758 
L 256.052195 202.842404 
L 256.284174 196.116377 
L 256.632143 119.201004 
L 256.748132 128.639139 
L 256.980111 213.473865 
L 257.32808 118.984036 
L 257.560058 176.155265 
L 257.676048 164.655928 
L 257.792037 108.24409 
L 257.908027 128.42217 
L 258.024016 198.936969 
L 258.255995 154.892341 
L 258.487974 175.395874 
L 258.603964 189.607318 
L 258.835943 135.365166 
L 258.951932 142.091193 
L 259.067922 140.355444 
L 259.183911 136.23304 
L 259.299901 157.929901 
L 259.41589 120.502816 
L 259.763859 192.861848 
L 260.111827 124.191283 
L 260.343806 107.701668 
L 260.575785 208.04965 
L 260.691774 191.017614 
L 260.807764 191.560036 
L 261.039743 244.066439 
L 261.387711 113.668305 
L 261.61969 172.466798 
L 261.73568 178.758888 
L 261.967659 153.915982 
L 262.083648 152.288717 
L 262.199638 134.822744 
L 262.315627 139.270601 
L 262.547606 162.052305 
L 262.663595 126.794906 
L 262.779585 132.870027 
L 262.895574 121.913112 
L 263.127553 196.984251 
L 263.243543 192.319426 
L 263.359532 203.601794 
L 263.475522 186.461274 
L 263.591511 140.355444 
L 263.707501 143.826942 
L 263.82349 163.462601 
L 264.171459 82.641794 
L 264.403438 227.576825 
L 264.519427 237.231928 
L 264.867395 172.683767 
L 264.983385 116.271928 
L 265.215364 158.038386 
L 265.331353 153.156592 
L 265.563332 129.073076 
L 265.679322 135.148197 
L 265.911301 200.99817 
L 266.259269 131.568215 
L 266.375259 151.420843 
L 266.723227 116.163444 
L 266.839217 137.100915 
L 267.071196 203.276341 
L 267.303175 246.561578 
L 267.651143 106.833794 
L 267.767132 108.027121 
L 267.883122 108.24409 
L 267.999111 114.536179 
L 268.23109 90.235695 
L 268.463069 176.155265 
L 268.695048 144.260879 
L 268.927027 161.618368 
L 269.159006 231.265291 
L 269.390985 155.543247 
L 269.506975 196.984251 
L 269.970932 119.960395 
L 270.086922 129.507013 
L 270.318901 182.013417 
L 270.55088 179.192825 
L 270.782859 138.619695 
L 270.898848 141.548771 
L 271.014838 148.81722 
L 271.130827 169.212269 
L 271.362806 112.149525 
L 271.478796 127.120359 
L 271.594785 182.772807 
L 271.710775 146.430565 
L 271.942754 209.134493 
L 272.058743 197.635157 
L 272.174733 115.946475 
L 272.290722 127.120359 
L 272.522701 89.801758 
L 272.75468 234.194368 
L 272.986659 167.259552 
L 273.102648 168.344395 
L 273.218638 191.560036 
L 273.334627 168.778332 
L 273.450617 187.220664 
L 273.566606 182.881291 
L 273.682596 165.740771 
L 273.798585 170.731049 
L 274.146554 154.458404 
L 274.262543 138.619695 
L 274.378533 181.145543 
L 274.494522 177.891013 
L 274.610512 163.137148 
L 274.84249 127.337327 
L 275.074469 85.896323 
L 275.190459 83.943605 
L 275.306448 91.320538 
L 275.422438 107.159247 
L 275.538427 138.945148 
L 275.770406 276.069309 
L 275.886396 251.877309 
L 276.118375 154.458404 
L 276.350354 114.644664 
L 276.582333 155.434762 
L 276.698322 159.448682 
L 276.930301 153.915982 
L 277.046291 155.760215 
L 277.16228 135.365166 
L 277.27827 144.694816 
L 277.510248 204.903605 
L 277.742227 153.156592 
L 277.974206 116.705865 
L 278.090196 106.616825 
L 278.438164 193.512753 
L 278.554154 189.932771 
L 278.902122 111.390135 
L 279.134101 124.191283 
L 279.36608 183.640682 
L 279.48207 183.749166 
L 279.598059 153.048108 
L 279.714049 152.722655 
L 279.830038 164.872897 
L 279.946027 147.732377 
L 280.062017 194.597596 
L 280.293996 189.824287 
L 280.641964 124.082798 
L 280.873943 159.231713 
L 281.221912 117.139803 
L 281.337901 119.634942 
L 281.453891 141.657256 
L 281.56988 191.777004 
L 281.801859 138.619695 
L 282.033838 211.304179 
L 282.149828 168.778332 
L 282.265817 172.466798 
L 282.381806 195.682439 
L 282.497796 191.343067 
L 282.845764 79.387265 
L 283.077743 167.693489 
L 283.309722 273.682655 
L 283.77368 114.644664 
L 283.88967 132.002152 
L 284.005659 170.948018 
L 284.121649 170.622565 
L 284.237638 132.327605 
L 284.353628 144.04391 
L 284.469617 120.394332 
L 284.933575 198.72 
L 285.513522 151.637812 
L 285.745501 245.910673 
L 285.861491 227.793794 
L 286.209459 128.856108 
L 286.325449 125.927031 
L 286.441438 98.697471 
L 286.557428 117.139803 
L 286.789407 192.102457 
L 287.021386 147.949345 
L 287.253365 131.351247 
L 287.485343 187.654601 
L 287.833312 159.557166 
L 287.949301 160.099587 
L 288.065291 217.053848 
L 288.18128 213.58235 
L 288.413259 179.735247 
L 288.529249 168.344395 
L 288.645238 115.078601 
L 288.761228 121.696143 
L 288.877217 109.979839 
L 288.993207 142.091193 
L 289.109196 216.511426 
L 289.341175 133.629417 
L 289.457165 133.737901 
L 289.689144 201.323623 
L 289.805133 217.813238 
L 290.153101 113.668305 
L 290.269091 122.672502 
L 290.38508 188.088538 
L 290.50107 176.155265 
L 290.617059 190.692161 
L 290.965028 118.007677 
L 291.081017 115.946475 
L 291.312996 136.666978 
L 291.544975 223.128969 
L 291.660965 221.935641 
L 291.892944 103.904717 
L 292.240912 152.722655 
L 292.356901 181.57948 
L 292.472891 138.619695 
L 292.58888 150.878422 
L 292.70487 204.578152 
L 292.936849 131.893668 
L 293.052838 148.383283 
L 293.284817 192.210942 
L 293.400807 192.42791 
L 293.748775 81.556951 
L 293.864765 90.344179 
L 294.444712 295.488 
L 294.676691 156.085668 
L 294.792681 138.185758 
L 295.024659 182.881291 
L 295.372628 133.412448 
L 295.488617 117.790709 
L 295.604607 148.925704 
L 295.720596 133.737901 
L 295.836586 142.416646 
L 295.952575 123.214924 
L 296.068565 125.38461 
L 296.300544 188.305507 
L 296.416533 160.642009 
L 296.532523 162.269274 
L 296.648512 159.448682 
L 296.880491 109.328933 
L 297.11247 177.782529 
L 297.22846 218.898081 
L 297.344449 208.04965 
L 297.576428 130.157919 
L 297.692417 126.794906 
L 297.924396 137.426368 
L 298.156375 193.729722 
L 298.272365 164.43896 
L 298.504344 202.625435 
L 298.620333 188.522475 
L 298.852312 135.799103 
L 298.968302 114.319211 
L 299.084291 138.728179 
L 299.200281 123.648861 
L 299.31627 130.374888 
L 299.43226 144.694816 
L 299.548249 180.277668 
L 299.664239 158.363839 
L 299.780228 164.005022 
L 300.012207 136.016072 
L 300.244186 125.059157 
L 300.360175 131.025794 
L 300.476165 143.826942 
L 300.592154 143.826942 
L 300.824133 207.398744 
L 300.940123 216.077489 
L 301.288091 159.448682 
L 301.404081 159.774135 
L 301.63606 93.490224 
L 301.752049 63.65704 
L 301.868039 76.566673 
L 302.100018 280.951103 
L 302.216007 257.735462 
L 302.447986 168.561363 
L 302.795954 94.032646 
L 302.911944 104.23017 
L 303.143923 205.662996 
L 303.259912 186.135821 
L 303.375902 209.134493 
L 303.72387 140.572413 
L 303.83986 141.223318 
L 304.071839 144.369363 
L 304.303818 114.861632 
L 304.419807 114.102242 
L 304.535797 114.536179 
L 304.767776 95.225973 
L 304.883765 110.305291 
L 304.999754 157.062027 
L 305.115744 146.647534 
L 305.347723 186.135821 
L 305.579702 213.58235 
L 305.695691 201.974529 
L 305.811681 211.304179 
L 306.04366 139.921507 
L 306.159649 116.705865 
L 306.275639 171.598924 
L 306.507618 154.892341 
L 306.623607 178.541919 
L 306.855586 171.381955 
L 307.087565 117.57374 
L 307.319544 201.974529 
L 307.435533 174.853453 
L 307.667512 109.76287 
L 307.783502 100.650188 
L 308.015481 185.701883 
L 308.13147 172.466798 
L 308.24746 143.826942 
L 308.363449 201.215139 
L 308.479439 141.440287 
L 308.595428 145.996628 
L 309.059386 189.824287 
L 309.175376 115.837991 
L 309.407355 162.920179 
L 309.639334 232.133166 
L 309.871312 145.996628 
L 310.103291 148.491767 
L 310.219281 160.858978 
L 310.33527 139.813022 
L 310.45126 155.8687 
L 310.567249 151.85478 
L 310.799228 85.353901 
L 311.147197 112.908915 
L 311.263186 118.441614 
L 311.379176 153.590529 
L 311.495165 151.09539 
L 311.611155 158.90626 
L 311.843134 219.982924 
L 311.959123 220.199892 
L 312.075113 175.721327 
L 312.307091 206.747839 
L 312.53907 186.569758 
L 312.887039 91.10357 
L 313.119018 140.789381 
L 313.235007 139.704538 
L 313.582976 204.686637 
L 313.698965 218.464143 
L 314.046934 140.789381 
L 314.162923 167.042583 
L 314.278913 143.826942 
L 314.394902 171.164987 
L 314.510892 164.221991 
L 314.742871 88.825399 
L 314.974849 121.587659 
L 315.090839 170.188628 
L 315.206828 139.379085 
L 315.554797 217.921722 
L 315.670786 183.315229 
L 315.786776 198.72 
L 316.018755 177.023139 
L 316.366723 133.95487 
L 316.482713 96.527785 
L 316.598702 97.721112 
L 316.714692 130.157919 
L 316.830681 115.404054 
L 316.946671 132.761543 
L 317.17865 200.889686 
L 317.410628 115.404054 
L 317.526618 93.38174 
L 317.642607 101.843516 
L 317.874586 205.77148 
L 317.990576 191.343067 
L 318.222555 161.18443 
L 318.338544 200.347265 
L 318.570523 186.678242 
L 318.686513 165.849256 
L 318.802502 181.362511 
L 318.918492 181.687964 
L 319.034481 183.09826 
L 319.150471 206.747839 
L 319.26646 170.948018 
L 319.38245 212.605991 
L 319.498439 197.635157 
L 319.614429 155.977184 
L 319.730418 157.929901 
L 319.846407 186.135821 
L 320.078386 127.337327 
L 320.194376 158.363839 
L 320.310365 153.699013 
L 320.542344 102.819874 
L 321.238281 233.109525 
L 321.47026 105.315013 
L 321.58625 107.918637 
L 321.818229 130.808825 
L 321.934218 132.219121 
L 322.166197 179.735247 
L 322.514165 134.280323 
L 322.630155 95.442942 
L 322.862134 185.810368 
L 323.094113 167.910457 
L 323.210102 122.997955 
L 323.67406 213.473865 
L 323.906039 161.401399 
L 324.138018 166.283193 
L 324.369997 197.852126 
L 324.601976 136.666978 
L 324.833955 177.240108 
L 325.065934 159.123229 
L 325.181923 158.363839 
L 325.297913 131.025794 
L 325.413902 131.893668 
L 325.529892 118.33313 
L 325.645881 119.201004 
L 325.761871 108.461058 
L 325.99385 178.758888 
L 326.109839 185.267946 
L 326.457808 154.241435 
L 326.573797 154.675372 
L 326.689787 178.324951 
L 326.805776 119.743426 
L 326.921766 130.808825 
L 327.037755 117.57374 
L 327.269734 166.71713 
L 327.385723 157.712933 
L 327.501713 158.363839 
L 327.733692 187.546117 
L 327.849681 183.966135 
L 328.08166 150.336 
L 328.19765 175.070422 
L 328.313639 160.533525 
L 328.429629 127.66278 
L 328.661608 133.737901 
L 328.893587 171.381955 
L 329.009576 162.703211 
L 329.241555 135.799103 
L 329.357545 121.045238 
L 329.589524 149.034188 
L 329.705513 234.194368 
L 329.821502 226.058045 
L 330.169471 127.120359 
L 330.40145 158.580807 
L 330.633429 144.04391 
L 330.749418 156.62809 
L 330.865408 182.013417 
L 331.097387 93.056287 
L 331.329366 208.917525 
L 331.561345 219.657471 
L 331.677334 205.662996 
L 331.909313 105.640466 
L 332.025303 91.971444 
L 332.141292 94.358099 
L 332.721239 212.605991 
L 332.953218 166.391677 
L 333.069208 160.642009 
L 333.185197 187.437632 
L 333.301187 164.005022 
L 333.533166 80.797561 
L 333.649155 116.163444 
L 333.765145 112.908915 
L 333.881134 146.213596 
L 333.997124 220.525345 
L 334.113113 222.803516 
L 334.461082 164.655928 
L 334.693061 91.754475 
L 334.925039 116.705865 
L 335.041029 109.545901 
L 335.273008 272.272359 
L 335.504987 170.297112 
L 335.620976 164.43896 
L 335.852955 98.046565 
L 336.548892 174.094063 
L 336.664882 150.552969 
L 336.780871 164.655928 
L 337.12884 130.808825 
L 337.244829 113.776789 
L 337.360818 139.379085 
L 337.476808 137.534852 
L 337.708787 169.429238 
L 337.940766 137.426368 
L 338.288734 195.465471 
L 338.520713 147.623892 
L 338.636703 170.948018 
L 338.752692 149.251157 
L 338.868682 193.838206 
L 338.984671 156.62809 
L 339.100661 168.127426 
L 339.21665 149.685094 
L 339.33264 206.205417 
L 339.680608 144.586332 
L 339.796597 136.23304 
L 340.028576 53.568 
L 340.144566 99.131408 
L 340.260555 190.475193 
L 340.492534 180.386152 
L 340.608524 168.344395 
L 340.840503 185.701883 
L 341.188471 136.558493 
L 341.304461 140.355444 
L 341.42045 143.176036 
L 341.652429 156.194152 
L 341.768419 153.699013 
L 341.884408 141.874224 
L 342.000398 147.732377 
L 342.232376 196.767283 
L 342.348366 230.614386 
L 342.580345 173.117704 
L 342.696334 174.311031 
L 342.812324 118.875552 
L 342.928313 126.794906 
L 343.044303 167.47652 
L 343.160292 154.566888 
L 343.276282 169.212269 
L 343.392271 154.566888 
L 343.508261 171.707408 
L 343.74024 144.586332 
L 343.856229 154.892341 
L 343.972219 205.879964 
L 344.204198 133.412448 
L 344.320187 149.034188 
L 344.436177 144.586332 
L 344.552166 123.648861 
L 344.668156 173.76861 
L 344.784145 174.202547 
L 344.900134 131.351247 
L 345.132113 146.756018 
L 345.248103 188.956413 
L 345.364092 184.834009 
L 345.480082 196.767283 
L 345.712061 143.826942 
L 345.82805 124.082798 
L 346.060029 197.96061 
L 346.176019 188.63096 
L 346.639977 119.960395 
L 346.871956 196.44183 
L 347.219924 128.42217 
L 347.335913 126.252484 
L 347.567892 173.551641 
L 347.799871 109.76287 
L 348.03185 194.489112 
L 348.495808 119.309489 
L 348.611798 143.609973 
L 348.727787 125.059157 
L 348.843777 130.808825 
L 349.191745 188.413991 
L 349.307735 159.991103 
L 349.423724 210.110852 
L 349.887682 143.176036 
L 350.003671 139.813022 
L 350.23565 113.451336 
L 350.467629 166.934099 
L 350.583619 165.306834 
L 350.815598 148.491767 
L 350.931587 153.048108 
L 351.047577 122.455534 
L 351.279556 210.436305 
L 351.395545 199.045453 
L 351.627524 165.089865 
L 351.743514 160.642009 
L 351.975493 180.603121 
L 352.207471 155.326278 
L 352.43945 170.839534 
L 352.55544 126.90339 
L 352.787419 167.585004 
L 352.903408 177.023139 
L 353.135387 133.086996 
L 353.251377 132.002152 
L 353.483356 100.43322 
L 353.599345 106.074404 
L 354.063303 237.231928 
L 354.179293 247.537937 
L 354.411272 144.04391 
L 354.527261 144.369363 
L 354.643251 138.402726 
L 354.875229 75.373345 
L 355.107208 180.603121 
L 355.223198 186.569758 
L 355.339187 287.351677 
L 355.571166 197.20122 
L 355.803145 125.601578 
L 355.919135 125.601578 
L 356.151114 95.65991 
L 356.499082 196.658798 
L 356.847051 142.959067 
L 356.96304 161.401399 
L 357.07903 128.205202 
L 357.311008 179.626762 
L 357.426998 158.580807 
L 357.542987 166.608646 
L 357.658977 141.874224 
L 358.122935 184.074619 
L 358.586893 86.33026 
L 358.702882 109.328933 
L 358.934861 177.565561 
L 359.050851 198.503031 
L 359.28283 150.986906 
L 359.398819 177.023139 
L 359.514809 150.119031 
L 359.630798 155.217794 
L 359.862777 172.575283 
L 359.978766 130.591857 
L 360.094756 134.497291 
L 360.326735 173.985578 
L 360.442724 171.707408 
L 360.558714 145.562691 
L 360.674703 150.769937 
L 360.906682 170.514081 
L 361.138661 94.575067 
L 361.254651 120.828269 
L 361.602619 252.528215 
L 361.950588 83.2927 
L 362.066577 95.442942 
L 362.414545 220.416861 
L 362.530535 206.422386 
L 362.878503 121.479175 
L 362.994493 121.913112 
L 363.110482 90.669632 
L 363.226472 94.466583 
L 363.69043 219.115049 
L 363.806419 207.181776 
L 364.038398 132.544574 
L 364.154388 133.737901 
L 364.270377 141.548771 
L 364.386367 131.6767 
L 364.734335 196.550314 
L 364.850324 180.494637 
L 364.966314 146.756018 
L 365.082303 150.444484 
L 365.430272 182.447354 
L 365.77824 133.520933 
L 365.89423 155.651731 
L 366.126209 123.214924 
L 366.474177 157.929901 
L 366.590167 148.708735 
L 366.706156 208.375103 
L 367.054125 113.668305 
L 367.402093 186.352789 
L 367.866051 132.544574 
L 367.98204 126.794906 
L 368.445998 241.896753 
L 368.677977 109.328933 
L 368.793967 136.016072 
L 368.909956 107.593184 
L 369.141935 159.66565 
L 369.257925 153.156592 
L 369.489904 112.04104 
L 369.605893 107.376215 
L 369.721882 181.145543 
L 369.837872 160.316556 
L 369.953861 186.352789 
L 370.30183 147.298439 
L 370.417819 176.80617 
L 370.533809 169.320753 
L 370.881777 82.858762 
L 370.997767 96.744753 
L 371.229746 237.01496 
L 371.461725 217.487785 
L 371.577714 227.142888 
L 371.809693 147.298439 
L 371.925683 143.067552 
L 372.041672 168.344395 
L 372.273651 130.157919 
L 372.38964 176.263749 
L 372.853598 99.999283 
L 372.969588 124.950673 
L 373.085577 123.648861 
L 373.317556 204.2527 
L 373.549535 135.148197 
L 373.665525 166.71713 
L 373.781514 121.696143 
L 373.897504 132.327605 
L 374.013493 132.761543 
L 374.245472 146.105112 
L 374.361462 190.800646 
L 374.477451 185.484915 
L 374.70943 146.756018 
L 374.941409 111.28165 
L 375.173388 188.305507 
L 375.405367 156.62809 
L 375.521356 140.138475 
L 375.637346 141.00635 
L 375.753335 183.749166 
L 376.101304 139.379085 
L 376.333283 191.777004 
L 376.681251 145.779659 
L 376.797241 141.548771 
L 376.91323 131.025794 
L 377.02922 130.591857 
L 377.145209 129.073076 
L 377.261198 170.297112 
L 377.377188 146.864502 
L 377.493177 148.166314 
L 377.609167 154.241435 
L 377.841146 138.077274 
L 378.073125 146.213596 
L 378.189114 168.452879 
L 378.305104 167.042583 
L 378.421093 176.589202 
L 378.537083 174.419516 
L 378.653072 188.956413 
L 378.885051 141.00635 
L 379.001041 137.968789 
L 379.11703 129.723982 
L 379.23302 134.931229 
L 379.464999 236.472538 
L 379.812967 142.52513 
L 380.044946 133.19548 
L 380.276925 159.557166 
L 380.508904 175.070422 
L 380.624893 159.448682 
L 380.972862 185.701883 
L 381.43682 107.593184 
L 381.668799 186.135821 
L 381.784788 176.589202 
L 382.016767 134.931229 
L 382.132757 144.694816 
L 382.248746 136.016072 
L 382.364735 115.29557 
L 382.480725 127.554296 
L 382.712704 206.096933 
L 382.828693 221.39322 
L 382.944683 212.82296 
L 383.292651 122.021596 
L 383.52463 151.637812 
L 383.64062 195.031534 
L 383.756609 195.356987 
L 384.220567 85.462386 
L 384.452546 175.504359 
L 384.568536 179.626762 
L 384.684525 205.446027 
L 385.032493 175.070422 
L 385.148483 113.017399 
L 385.264472 110.847713 
L 385.380462 68.972771 
L 385.496451 105.748951 
L 385.612441 189.173381 
L 385.72843 187.220664 
L 385.960409 174.311031 
L 386.192388 99.022924 
L 386.308378 96.310816 
L 386.656346 206.747839 
L 387.120304 117.248287 
L 387.236293 143.393004 
L 387.352283 202.625435 
L 387.584262 200.130296 
L 387.700251 161.18443 
L 387.93223 213.690834 
L 388.280199 134.931229 
L 388.512178 176.263749 
L 388.744157 167.910457 
L 388.860146 189.824287 
L 389.092125 139.704538 
L 389.208115 149.034188 
L 389.324104 143.826942 
L 389.440094 105.206529 
L 389.672072 157.929901 
L 389.788062 125.818547 
L 390.020041 171.381955 
L 390.25202 137.751821 
L 390.368009 177.457076 
L 390.599988 139.379085 
L 390.831967 199.370906 
L 391.063946 128.530655 
L 391.295925 141.657256 
L 391.411915 131.6767 
L 391.527904 155.000825 
L 391.643894 204.035731 
L 391.759883 195.248502 
L 392.223841 107.376215 
L 392.33983 130.049435 
L 392.571809 184.074619 
L 392.803788 129.290045 
L 392.919778 130.049435 
L 393.035767 138.619695 
L 393.151757 157.712933 
L 393.267746 153.373561 
L 393.499725 129.940951 
L 393.615715 138.077274 
L 393.847694 219.332018 
L 394.079673 171.598924 
L 394.195662 165.19835 
L 394.427641 125.167641 
L 394.543631 155.760215 
L 394.65962 141.223318 
L 394.775609 171.381955 
L 394.891599 168.127426 
L 395.007588 191.343067 
L 395.123578 171.490439 
L 395.355557 116.922834 
L 395.587536 200.99817 
L 396.051494 104.772592 
L 396.167483 151.420843 
L 396.283473 137.534852 
L 396.399462 161.401399 
L 396.515452 123.323408 
L 396.631441 171.598924 
L 396.747431 161.401399 
L 396.86342 177.891013 
L 396.97941 141.657256 
L 397.095399 161.835336 
L 397.211388 155.109309 
L 397.443367 170.188628 
L 397.559357 214.775677 
L 397.675346 204.578152 
L 397.907325 114.319211 
L 398.139304 144.694816 
L 398.255294 110.630744 
L 398.371283 112.366493 
L 398.487273 199.370906 
L 398.487273 199.370906 
" clip-path="url(#p2e46f0c8e1)" style="fill: none; stroke: #1f77b4; stroke-width: 1.5; stroke-linecap: square"/>
   </g>
   <g id="patch_3">
    <path d="M 57.6 307.584 
L 57.6 41.472 
" style="fill: none; stroke: #000000; stroke-width: 0.8; stroke-linejoin: miter; stroke-linecap: square"/>
   </g>
   <g id="patch_4">
    <path d="M 414.72 307.584 
L 414.72 41.472 
" style="fill: none; stroke: #000000; stroke-width: 0.8; stroke-linejoin: miter; stroke-linecap: square"/>
   </g>
   <g id="patch_5">
    <path d="M 57.6 307.584 
L 414.72 307.584 
" style="fill: none; stroke: #000000; stroke-width: 0.8; stroke-linejoin: miter; stroke-linecap: square"/>
   </g>
   <g id="patch_6">
    <path d="M 57.6 41.472 
L 414.72 41.472 
" style="fill: none; stroke: #000000; stroke-width: 0.8; stroke-linejoin: miter; stroke-linecap: square"/>
   </g>
  </g>
 </g>
 <defs>
  <clipPath id="p2e46f0c8e1">
   <rect x="57.6" y="41.472" width="357.12" height="266.112"/>
  </clipPath>
 </defs>
</svg>
