<?xml version="1.0" encoding="utf-8" standalone="no"?>
<!DOCTYPE svg PUBLIC "-//W3C//DTD SVG 1.1//EN"
  "http://www.w3.org/Graphics/SVG/1.1/DTD/svg11.dtd">
<svg xmlns:xlink="http://www.w3.org/1999/xlink" width="460.8pt" height="345.6pt" viewBox="0 0 460.8 345.6" xmlns="http://www.w3.org/2000/svg" version="1.1">
 <metadata>
  <rdf:RDF xmlns:dc="http://purl.org/dc/elements/1.1/" xmlns:cc="http://creativecommons.org/ns#" xmlns:rdf="http://www.w3.org/1999/02/22-rdf-syntax-ns#">
   <cc:Work>
    <dc:type rdf:resource="http://purl.org/dc/dcmitype/StillImage"/>
    <dc:date>2024-05-15T13:43:00.653705</dc:date>
    <dc:format>image/svg+xml</dc:format>
    <dc:creator>
     <cc:Agent>
      <dc:title>Matplotlib v3.8.2, https://matplotlib.org/</dc:title>
     </cc:Agent>
    </dc:creator>
   </cc:Work>
  </rdf:RDF>
 </metadata>
 <defs>
  <style type="text/css">*{stroke-linejoin: round; stroke-linecap: butt}</style>
 </defs>
 <g id="figure_1">
  <g id="patch_1">
   <path d="M 0 345.6 
L 460.8 345.6 
L 460.8 0 
L 0 0 
z
" style="fill: #ffffff"/>
  </g>
  <g id="axes_1">
   <g id="patch_2">
    <path d="M 57.6 307.584 
L 414.72 307.584 
L 414.72 41.472 
L 57.6 41.472 
z
" style="fill: #ffffff"/>
   </g>
   <g id="matplotlib.axis_1">
    <g id="xtick_1">
     <g id="line2d_1">
      <defs>
       <path id="m1a961115c9" d="M 0 0 
L 0 3.5 
" style="stroke: #000000; stroke-width: 0.8"/>
      </defs>
      <g>
       <use xlink:href="#m1a961115c9" x="73.832727" y="307.584" style="stroke: #000000; stroke-width: 0.8"/>
      </g>
     </g>
     <g id="text_1">
      <!-- 0.0 -->
      <g transform="translate(65.881165 322.182437) scale(0.1 -0.1)">
       <defs>
        <path id="DejaVuSans-30" d="M 2034 4250 
Q 1547 4250 1301 3770 
Q 1056 3291 1056 2328 
Q 1056 1369 1301 889 
Q 1547 409 2034 409 
Q 2525 409 2770 889 
Q 3016 1369 3016 2328 
Q 3016 3291 2770 3770 
Q 2525 4250 2034 4250 
z
M 2034 4750 
Q 2819 4750 3233 4129 
Q 3647 3509 3647 2328 
Q 3647 1150 3233 529 
Q 2819 -91 2034 -91 
Q 1250 -91 836 529 
Q 422 1150 422 2328 
Q 422 3509 836 4129 
Q 1250 4750 2034 4750 
z
" transform="scale(0.015625)"/>
        <path id="DejaVuSans-2e" d="M 684 794 
L 1344 794 
L 1344 0 
L 684 0 
L 684 794 
z
" transform="scale(0.015625)"/>
       </defs>
       <use xlink:href="#DejaVuSans-30"/>
       <use xlink:href="#DejaVuSans-2e" x="63.623047"/>
       <use xlink:href="#DejaVuSans-30" x="95.410156"/>
      </g>
     </g>
    </g>
    <g id="xtick_2">
     <g id="line2d_2">
      <g>
       <use xlink:href="#m1a961115c9" x="114.414545" y="307.584" style="stroke: #000000; stroke-width: 0.8"/>
      </g>
     </g>
     <g id="text_2">
      <!-- 0.5 -->
      <g transform="translate(106.462983 322.182437) scale(0.1 -0.1)">
       <defs>
        <path id="DejaVuSans-35" d="M 691 4666 
L 3169 4666 
L 3169 4134 
L 1269 4134 
L 1269 2991 
Q 1406 3038 1543 3061 
Q 1681 3084 1819 3084 
Q 2600 3084 3056 2656 
Q 3513 2228 3513 1497 
Q 3513 744 3044 326 
Q 2575 -91 1722 -91 
Q 1428 -91 1123 -41 
Q 819 9 494 109 
L 494 744 
Q 775 591 1075 516 
Q 1375 441 1709 441 
Q 2250 441 2565 725 
Q 2881 1009 2881 1497 
Q 2881 1984 2565 2268 
Q 2250 2553 1709 2553 
Q 1456 2553 1204 2497 
Q 953 2441 691 2322 
L 691 4666 
z
" transform="scale(0.015625)"/>
       </defs>
       <use xlink:href="#DejaVuSans-30"/>
       <use xlink:href="#DejaVuSans-2e" x="63.623047"/>
       <use xlink:href="#DejaVuSans-35" x="95.410156"/>
      </g>
     </g>
    </g>
    <g id="xtick_3">
     <g id="line2d_3">
      <g>
       <use xlink:href="#m1a961115c9" x="154.996364" y="307.584" style="stroke: #000000; stroke-width: 0.8"/>
      </g>
     </g>
     <g id="text_3">
      <!-- 1.0 -->
      <g transform="translate(147.044801 322.182437) scale(0.1 -0.1)">
       <defs>
        <path id="DejaVuSans-31" d="M 794 531 
L 1825 531 
L 1825 4091 
L 703 3866 
L 703 4441 
L 1819 4666 
L 2450 4666 
L 2450 531 
L 3481 531 
L 3481 0 
L 794 0 
L 794 531 
z
" transform="scale(0.015625)"/>
       </defs>
       <use xlink:href="#DejaVuSans-31"/>
       <use xlink:href="#DejaVuSans-2e" x="63.623047"/>
       <use xlink:href="#DejaVuSans-30" x="95.410156"/>
      </g>
     </g>
    </g>
    <g id="xtick_4">
     <g id="line2d_4">
      <g>
       <use xlink:href="#m1a961115c9" x="195.578182" y="307.584" style="stroke: #000000; stroke-width: 0.8"/>
      </g>
     </g>
     <g id="text_4">
      <!-- 1.5 -->
      <g transform="translate(187.626619 322.182437) scale(0.1 -0.1)">
       <use xlink:href="#DejaVuSans-31"/>
       <use xlink:href="#DejaVuSans-2e" x="63.623047"/>
       <use xlink:href="#DejaVuSans-35" x="95.410156"/>
      </g>
     </g>
    </g>
    <g id="xtick_5">
     <g id="line2d_5">
      <g>
       <use xlink:href="#m1a961115c9" x="236.16" y="307.584" style="stroke: #000000; stroke-width: 0.8"/>
      </g>
     </g>
     <g id="text_5">
      <!-- 2.0 -->
      <g transform="translate(228.208438 322.182437) scale(0.1 -0.1)">
       <defs>
        <path id="DejaVuSans-32" d="M 1228 531 
L 3431 531 
L 3431 0 
L 469 0 
L 469 531 
Q 828 903 1448 1529 
Q 2069 2156 2228 2338 
Q 2531 2678 2651 2914 
Q 2772 3150 2772 3378 
Q 2772 3750 2511 3984 
Q 2250 4219 1831 4219 
Q 1534 4219 1204 4116 
Q 875 4013 500 3803 
L 500 4441 
Q 881 4594 1212 4672 
Q 1544 4750 1819 4750 
Q 2544 4750 2975 4387 
Q 3406 4025 3406 3419 
Q 3406 3131 3298 2873 
Q 3191 2616 2906 2266 
Q 2828 2175 2409 1742 
Q 1991 1309 1228 531 
z
" transform="scale(0.015625)"/>
       </defs>
       <use xlink:href="#DejaVuSans-32"/>
       <use xlink:href="#DejaVuSans-2e" x="63.623047"/>
       <use xlink:href="#DejaVuSans-30" x="95.410156"/>
      </g>
     </g>
    </g>
    <g id="xtick_6">
     <g id="line2d_6">
      <g>
       <use xlink:href="#m1a961115c9" x="276.741818" y="307.584" style="stroke: #000000; stroke-width: 0.8"/>
      </g>
     </g>
     <g id="text_6">
      <!-- 2.5 -->
      <g transform="translate(268.790256 322.182437) scale(0.1 -0.1)">
       <use xlink:href="#DejaVuSans-32"/>
       <use xlink:href="#DejaVuSans-2e" x="63.623047"/>
       <use xlink:href="#DejaVuSans-35" x="95.410156"/>
      </g>
     </g>
    </g>
    <g id="xtick_7">
     <g id="line2d_7">
      <g>
       <use xlink:href="#m1a961115c9" x="317.323636" y="307.584" style="stroke: #000000; stroke-width: 0.8"/>
      </g>
     </g>
     <g id="text_7">
      <!-- 3.0 -->
      <g transform="translate(309.372074 322.182437) scale(0.1 -0.1)">
       <defs>
        <path id="DejaVuSans-33" d="M 2597 2516 
Q 3050 2419 3304 2112 
Q 3559 1806 3559 1356 
Q 3559 666 3084 287 
Q 2609 -91 1734 -91 
Q 1441 -91 1130 -33 
Q 819 25 488 141 
L 488 750 
Q 750 597 1062 519 
Q 1375 441 1716 441 
Q 2309 441 2620 675 
Q 2931 909 2931 1356 
Q 2931 1769 2642 2001 
Q 2353 2234 1838 2234 
L 1294 2234 
L 1294 2753 
L 1863 2753 
Q 2328 2753 2575 2939 
Q 2822 3125 2822 3475 
Q 2822 3834 2567 4026 
Q 2313 4219 1838 4219 
Q 1578 4219 1281 4162 
Q 984 4106 628 3988 
L 628 4550 
Q 988 4650 1302 4700 
Q 1616 4750 1894 4750 
Q 2613 4750 3031 4423 
Q 3450 4097 3450 3541 
Q 3450 3153 3228 2886 
Q 3006 2619 2597 2516 
z
" transform="scale(0.015625)"/>
       </defs>
       <use xlink:href="#DejaVuSans-33"/>
       <use xlink:href="#DejaVuSans-2e" x="63.623047"/>
       <use xlink:href="#DejaVuSans-30" x="95.410156"/>
      </g>
     </g>
    </g>
    <g id="xtick_8">
     <g id="line2d_8">
      <g>
       <use xlink:href="#m1a961115c9" x="357.905455" y="307.584" style="stroke: #000000; stroke-width: 0.8"/>
      </g>
     </g>
     <g id="text_8">
      <!-- 3.5 -->
      <g transform="translate(349.953892 322.182437) scale(0.1 -0.1)">
       <use xlink:href="#DejaVuSans-33"/>
       <use xlink:href="#DejaVuSans-2e" x="63.623047"/>
       <use xlink:href="#DejaVuSans-35" x="95.410156"/>
      </g>
     </g>
    </g>
    <g id="xtick_9">
     <g id="line2d_9">
      <g>
       <use xlink:href="#m1a961115c9" x="398.487273" y="307.584" style="stroke: #000000; stroke-width: 0.8"/>
      </g>
     </g>
     <g id="text_9">
      <!-- 4.0 -->
      <g transform="translate(390.53571 322.182437) scale(0.1 -0.1)">
       <defs>
        <path id="DejaVuSans-34" d="M 2419 4116 
L 825 1625 
L 2419 1625 
L 2419 4116 
z
M 2253 4666 
L 3047 4666 
L 3047 1625 
L 3713 1625 
L 3713 1100 
L 3047 1100 
L 3047 0 
L 2419 0 
L 2419 1100 
L 313 1100 
L 313 1709 
L 2253 4666 
z
" transform="scale(0.015625)"/>
       </defs>
       <use xlink:href="#DejaVuSans-34"/>
       <use xlink:href="#DejaVuSans-2e" x="63.623047"/>
       <use xlink:href="#DejaVuSans-30" x="95.410156"/>
      </g>
     </g>
    </g>
    <g id="text_10">
     <!-- Time [$s$] -->
     <g transform="translate(215.66 335.860562) scale(0.1 -0.1)">
      <defs>
       <path id="DejaVuSans-54" d="M -19 4666 
L 3928 4666 
L 3928 4134 
L 2272 4134 
L 2272 0 
L 1638 0 
L 1638 4134 
L -19 4134 
L -19 4666 
z
" transform="scale(0.015625)"/>
       <path id="DejaVuSans-69" d="M 603 3500 
L 1178 3500 
L 1178 0 
L 603 0 
L 603 3500 
z
M 603 4863 
L 1178 4863 
L 1178 4134 
L 603 4134 
L 603 4863 
z
" transform="scale(0.015625)"/>
       <path id="DejaVuSans-6d" d="M 3328 2828 
Q 3544 3216 3844 3400 
Q 4144 3584 4550 3584 
Q 5097 3584 5394 3201 
Q 5691 2819 5691 2113 
L 5691 0 
L 5113 0 
L 5113 2094 
Q 5113 2597 4934 2840 
Q 4756 3084 4391 3084 
Q 3944 3084 3684 2787 
Q 3425 2491 3425 1978 
L 3425 0 
L 2847 0 
L 2847 2094 
Q 2847 2600 2669 2842 
Q 2491 3084 2119 3084 
Q 1678 3084 1418 2786 
Q 1159 2488 1159 1978 
L 1159 0 
L 581 0 
L 581 3500 
L 1159 3500 
L 1159 2956 
Q 1356 3278 1631 3431 
Q 1906 3584 2284 3584 
Q 2666 3584 2933 3390 
Q 3200 3197 3328 2828 
z
" transform="scale(0.015625)"/>
       <path id="DejaVuSans-65" d="M 3597 1894 
L 3597 1613 
L 953 1613 
Q 991 1019 1311 708 
Q 1631 397 2203 397 
Q 2534 397 2845 478 
Q 3156 559 3463 722 
L 3463 178 
Q 3153 47 2828 -22 
Q 2503 -91 2169 -91 
Q 1331 -91 842 396 
Q 353 884 353 1716 
Q 353 2575 817 3079 
Q 1281 3584 2069 3584 
Q 2775 3584 3186 3129 
Q 3597 2675 3597 1894 
z
M 3022 2063 
Q 3016 2534 2758 2815 
Q 2500 3097 2075 3097 
Q 1594 3097 1305 2825 
Q 1016 2553 972 2059 
L 3022 2063 
z
" transform="scale(0.015625)"/>
       <path id="DejaVuSans-20" transform="scale(0.015625)"/>
       <path id="DejaVuSans-5b" d="M 550 4863 
L 1875 4863 
L 1875 4416 
L 1125 4416 
L 1125 -397 
L 1875 -397 
L 1875 -844 
L 550 -844 
L 550 4863 
z
" transform="scale(0.015625)"/>
       <path id="DejaVuSans-Oblique-73" d="M 3200 3397 
L 3091 2853 
Q 2863 2978 2609 3040 
Q 2356 3103 2088 3103 
Q 1634 3103 1373 2948 
Q 1113 2794 1113 2528 
Q 1113 2219 1719 2053 
Q 1766 2041 1788 2034 
L 1972 1978 
Q 2547 1819 2739 1644 
Q 2931 1469 2931 1166 
Q 2931 609 2489 259 
Q 2047 -91 1331 -91 
Q 1053 -91 747 -37 
Q 441 16 72 128 
L 184 722 
Q 500 559 806 475 
Q 1113 391 1394 391 
Q 1816 391 2080 572 
Q 2344 753 2344 1031 
Q 2344 1331 1650 1516 
L 1591 1531 
L 1394 1581 
Q 956 1697 753 1886 
Q 550 2075 550 2369 
Q 550 2928 970 3256 
Q 1391 3584 2113 3584 
Q 2397 3584 2667 3537 
Q 2938 3491 3200 3397 
z
" transform="scale(0.015625)"/>
       <path id="DejaVuSans-5d" d="M 1947 4863 
L 1947 -844 
L 622 -844 
L 622 -397 
L 1369 -397 
L 1369 4416 
L 622 4416 
L 622 4863 
L 1947 4863 
z
" transform="scale(0.015625)"/>
      </defs>
      <use xlink:href="#DejaVuSans-54" transform="translate(0 0.015625)"/>
      <use xlink:href="#DejaVuSans-69" transform="translate(61.083984 0.015625)"/>
      <use xlink:href="#DejaVuSans-6d" transform="translate(88.867188 0.015625)"/>
      <use xlink:href="#DejaVuSans-65" transform="translate(186.279297 0.015625)"/>
      <use xlink:href="#DejaVuSans-20" transform="translate(247.802734 0.015625)"/>
      <use xlink:href="#DejaVuSans-5b" transform="translate(279.589844 0.015625)"/>
      <use xlink:href="#DejaVuSans-Oblique-73" transform="translate(318.603516 0.015625)"/>
      <use xlink:href="#DejaVuSans-5d" transform="translate(370.703125 0.015625)"/>
     </g>
    </g>
   </g>
   <g id="matplotlib.axis_2">
    <g id="ytick_1">
     <g id="line2d_10">
      <defs>
       <path id="mddc7a15f6b" d="M 0 0 
L -3.5 0 
" style="stroke: #000000; stroke-width: 0.8"/>
      </defs>
      <g>
       <use xlink:href="#mddc7a15f6b" x="57.6" y="303.764595" style="stroke: #000000; stroke-width: 0.8"/>
      </g>
     </g>
     <g id="text_11">
      <!-- −60 -->
      <g transform="translate(29.495313 307.563814) scale(0.1 -0.1)">
       <defs>
        <path id="DejaVuSans-2212" d="M 678 2272 
L 4684 2272 
L 4684 1741 
L 678 1741 
L 678 2272 
z
" transform="scale(0.015625)"/>
        <path id="DejaVuSans-36" d="M 2113 2584 
Q 1688 2584 1439 2293 
Q 1191 2003 1191 1497 
Q 1191 994 1439 701 
Q 1688 409 2113 409 
Q 2538 409 2786 701 
Q 3034 994 3034 1497 
Q 3034 2003 2786 2293 
Q 2538 2584 2113 2584 
z
M 3366 4563 
L 3366 3988 
Q 3128 4100 2886 4159 
Q 2644 4219 2406 4219 
Q 1781 4219 1451 3797 
Q 1122 3375 1075 2522 
Q 1259 2794 1537 2939 
Q 1816 3084 2150 3084 
Q 2853 3084 3261 2657 
Q 3669 2231 3669 1497 
Q 3669 778 3244 343 
Q 2819 -91 2113 -91 
Q 1303 -91 875 529 
Q 447 1150 447 2328 
Q 447 3434 972 4092 
Q 1497 4750 2381 4750 
Q 2619 4750 2861 4703 
Q 3103 4656 3366 4563 
z
" transform="scale(0.015625)"/>
       </defs>
       <use xlink:href="#DejaVuSans-2212"/>
       <use xlink:href="#DejaVuSans-36" x="83.789062"/>
       <use xlink:href="#DejaVuSans-30" x="147.412109"/>
      </g>
     </g>
    </g>
    <g id="ytick_2">
     <g id="line2d_11">
      <g>
       <use xlink:href="#mddc7a15f6b" x="57.6" y="256.190379" style="stroke: #000000; stroke-width: 0.8"/>
      </g>
     </g>
     <g id="text_12">
      <!-- −40 -->
      <g transform="translate(29.495313 259.989597) scale(0.1 -0.1)">
       <use xlink:href="#DejaVuSans-2212"/>
       <use xlink:href="#DejaVuSans-34" x="83.789062"/>
       <use xlink:href="#DejaVuSans-30" x="147.412109"/>
      </g>
     </g>
    </g>
    <g id="ytick_3">
     <g id="line2d_12">
      <g>
       <use xlink:href="#mddc7a15f6b" x="57.6" y="208.616162" style="stroke: #000000; stroke-width: 0.8"/>
      </g>
     </g>
     <g id="text_13">
      <!-- −20 -->
      <g transform="translate(29.495313 212.415381) scale(0.1 -0.1)">
       <use xlink:href="#DejaVuSans-2212"/>
       <use xlink:href="#DejaVuSans-32" x="83.789062"/>
       <use xlink:href="#DejaVuSans-30" x="147.412109"/>
      </g>
     </g>
    </g>
    <g id="ytick_4">
     <g id="line2d_13">
      <g>
       <use xlink:href="#mddc7a15f6b" x="57.6" y="161.041945" style="stroke: #000000; stroke-width: 0.8"/>
      </g>
     </g>
     <g id="text_14">
      <!-- 0 -->
      <g transform="translate(44.2375 164.841164) scale(0.1 -0.1)">
       <use xlink:href="#DejaVuSans-30"/>
      </g>
     </g>
    </g>
    <g id="ytick_5">
     <g id="line2d_14">
      <g>
       <use xlink:href="#mddc7a15f6b" x="57.6" y="113.467729" style="stroke: #000000; stroke-width: 0.8"/>
      </g>
     </g>
     <g id="text_15">
      <!-- 20 -->
      <g transform="translate(37.875 117.266947) scale(0.1 -0.1)">
       <use xlink:href="#DejaVuSans-32"/>
       <use xlink:href="#DejaVuSans-30" x="63.623047"/>
      </g>
     </g>
    </g>
    <g id="ytick_6">
     <g id="line2d_15">
      <g>
       <use xlink:href="#mddc7a15f6b" x="57.6" y="65.893512" style="stroke: #000000; stroke-width: 0.8"/>
      </g>
     </g>
     <g id="text_16">
      <!-- 40 -->
      <g transform="translate(37.875 69.692731) scale(0.1 -0.1)">
       <use xlink:href="#DejaVuSans-34"/>
       <use xlink:href="#DejaVuSans-30" x="63.623047"/>
      </g>
     </g>
    </g>
    <g id="text_17">
     <!-- Voltage [$mV$] -->
     <g transform="translate(23.395312 207.478) rotate(-90) scale(0.1 -0.1)">
      <defs>
       <path id="DejaVuSans-56" d="M 1831 0 
L 50 4666 
L 709 4666 
L 2188 738 
L 3669 4666 
L 4325 4666 
L 2547 0 
L 1831 0 
z
" transform="scale(0.015625)"/>
       <path id="DejaVuSans-6f" d="M 1959 3097 
Q 1497 3097 1228 2736 
Q 959 2375 959 1747 
Q 959 1119 1226 758 
Q 1494 397 1959 397 
Q 2419 397 2687 759 
Q 2956 1122 2956 1747 
Q 2956 2369 2687 2733 
Q 2419 3097 1959 3097 
z
M 1959 3584 
Q 2709 3584 3137 3096 
Q 3566 2609 3566 1747 
Q 3566 888 3137 398 
Q 2709 -91 1959 -91 
Q 1206 -91 779 398 
Q 353 888 353 1747 
Q 353 2609 779 3096 
Q 1206 3584 1959 3584 
z
" transform="scale(0.015625)"/>
       <path id="DejaVuSans-6c" d="M 603 4863 
L 1178 4863 
L 1178 0 
L 603 0 
L 603 4863 
z
" transform="scale(0.015625)"/>
       <path id="DejaVuSans-74" d="M 1172 4494 
L 1172 3500 
L 2356 3500 
L 2356 3053 
L 1172 3053 
L 1172 1153 
Q 1172 725 1289 603 
Q 1406 481 1766 481 
L 2356 481 
L 2356 0 
L 1766 0 
Q 1100 0 847 248 
Q 594 497 594 1153 
L 594 3053 
L 172 3053 
L 172 3500 
L 594 3500 
L 594 4494 
L 1172 4494 
z
" transform="scale(0.015625)"/>
       <path id="DejaVuSans-61" d="M 2194 1759 
Q 1497 1759 1228 1600 
Q 959 1441 959 1056 
Q 959 750 1161 570 
Q 1363 391 1709 391 
Q 2188 391 2477 730 
Q 2766 1069 2766 1631 
L 2766 1759 
L 2194 1759 
z
M 3341 1997 
L 3341 0 
L 2766 0 
L 2766 531 
Q 2569 213 2275 61 
Q 1981 -91 1556 -91 
Q 1019 -91 701 211 
Q 384 513 384 1019 
Q 384 1609 779 1909 
Q 1175 2209 1959 2209 
L 2766 2209 
L 2766 2266 
Q 2766 2663 2505 2880 
Q 2244 3097 1772 3097 
Q 1472 3097 1187 3025 
Q 903 2953 641 2809 
L 641 3341 
Q 956 3463 1253 3523 
Q 1550 3584 1831 3584 
Q 2591 3584 2966 3190 
Q 3341 2797 3341 1997 
z
" transform="scale(0.015625)"/>
       <path id="DejaVuSans-67" d="M 2906 1791 
Q 2906 2416 2648 2759 
Q 2391 3103 1925 3103 
Q 1463 3103 1205 2759 
Q 947 2416 947 1791 
Q 947 1169 1205 825 
Q 1463 481 1925 481 
Q 2391 481 2648 825 
Q 2906 1169 2906 1791 
z
M 3481 434 
Q 3481 -459 3084 -895 
Q 2688 -1331 1869 -1331 
Q 1566 -1331 1297 -1286 
Q 1028 -1241 775 -1147 
L 775 -588 
Q 1028 -725 1275 -790 
Q 1522 -856 1778 -856 
Q 2344 -856 2625 -561 
Q 2906 -266 2906 331 
L 2906 616 
Q 2728 306 2450 153 
Q 2172 0 1784 0 
Q 1141 0 747 490 
Q 353 981 353 1791 
Q 353 2603 747 3093 
Q 1141 3584 1784 3584 
Q 2172 3584 2450 3431 
Q 2728 3278 2906 2969 
L 2906 3500 
L 3481 3500 
L 3481 434 
z
" transform="scale(0.015625)"/>
       <path id="DejaVuSans-Oblique-6d" d="M 5747 2113 
L 5338 0 
L 4763 0 
L 5166 2094 
Q 5191 2228 5203 2325 
Q 5216 2422 5216 2491 
Q 5216 2772 5059 2928 
Q 4903 3084 4622 3084 
Q 4203 3084 3875 2770 
Q 3547 2456 3450 1953 
L 3066 0 
L 2491 0 
L 2900 2094 
Q 2925 2209 2937 2307 
Q 2950 2406 2950 2484 
Q 2950 2769 2794 2926 
Q 2638 3084 2363 3084 
Q 1938 3084 1609 2770 
Q 1281 2456 1184 1953 
L 800 0 
L 225 0 
L 909 3500 
L 1484 3500 
L 1375 2956 
Q 1609 3263 1923 3423 
Q 2238 3584 2597 3584 
Q 2978 3584 3223 3384 
Q 3469 3184 3519 2828 
Q 3781 3197 4126 3390 
Q 4472 3584 4856 3584 
Q 5306 3584 5551 3325 
Q 5797 3066 5797 2591 
Q 5797 2488 5784 2364 
Q 5772 2241 5747 2113 
z
" transform="scale(0.015625)"/>
       <path id="DejaVuSans-Oblique-56" d="M 1319 0 
L 500 4666 
L 1119 4666 
L 1797 653 
L 4063 4666 
L 4750 4666 
L 2053 0 
L 1319 0 
z
" transform="scale(0.015625)"/>
      </defs>
      <use xlink:href="#DejaVuSans-56" transform="translate(0 0.015625)"/>
      <use xlink:href="#DejaVuSans-6f" transform="translate(68.408203 0.015625)"/>
      <use xlink:href="#DejaVuSans-6c" transform="translate(129.589844 0.015625)"/>
      <use xlink:href="#DejaVuSans-74" transform="translate(157.373047 0.015625)"/>
      <use xlink:href="#DejaVuSans-61" transform="translate(196.582031 0.015625)"/>
      <use xlink:href="#DejaVuSans-67" transform="translate(257.861328 0.015625)"/>
      <use xlink:href="#DejaVuSans-65" transform="translate(321.337891 0.015625)"/>
      <use xlink:href="#DejaVuSans-20" transform="translate(382.861328 0.015625)"/>
      <use xlink:href="#DejaVuSans-5b" transform="translate(414.648438 0.015625)"/>
      <use xlink:href="#DejaVuSans-Oblique-6d" transform="translate(453.662109 0.015625)"/>
      <use xlink:href="#DejaVuSans-Oblique-56" transform="translate(551.074219 0.015625)"/>
      <use xlink:href="#DejaVuSans-5d" transform="translate(619.482422 0.015625)"/>
     </g>
    </g>
   </g>
   <g id="line2d_16">
    <path d="M 73.832727 163.719182 
L 73.948717 152.507353 
L 74.064706 159.357534 
L 74.180696 175.801214 
L 74.296685 161.729482 
L 74.528664 111.461382 
L 74.644654 105.649208 
L 74.876633 152.925288 
L 74.992622 115.374158 
L 75.224601 166.947756 
L 75.45658 243.407995 
L 75.804548 135.069959 
L 76.036527 167.180101 
L 76.268506 152.127437 
L 76.384496 148.195645 
L 76.500485 162.462927 
L 76.616475 160.78456 
L 76.732464 157.286645 
L 76.848454 165.642751 
L 76.964443 140.080034 
L 77.080433 152.68989 
L 77.196422 191.376775 
L 77.312412 179.15272 
L 77.544391 117.754643 
L 77.66038 132.872345 
L 77.892359 189.95727 
L 78.008348 181.311485 
L 78.124338 156.218309 
L 78.240327 104.704005 
L 78.356317 122.556576 
L 78.588296 220.093052 
L 78.820275 109.32293 
L 79.052254 201.024788 
L 79.168243 118.313435 
L 79.284233 135.141379 
L 79.400222 221.45101 
L 80.096159 142.976847 
L 80.444127 89.287553 
L 80.676106 161.781325 
L 80.908085 225.37494 
L 81.140064 134.664124 
L 81.372043 126.048308 
L 81.488033 150.552024 
L 81.720012 243.393153 
L 82.06798 129.311823 
L 82.18397 134.441344 
L 82.415949 83.362337 
L 82.879906 225.435538 
L 82.995896 164.772494 
L 83.227875 180.265559 
L 83.459854 108.399797 
L 83.691833 150.011676 
L 83.807822 162.05809 
L 83.923812 193.02249 
L 84.039801 185.778249 
L 84.27178 138.420741 
L 84.38777 139.594604 
L 84.619749 156.262291 
L 84.851728 202.83877 
L 85.083707 131.628064 
L 85.199696 157.968217 
L 85.315685 157.74105 
L 85.431675 162.899416 
L 85.663654 189.875195 
L 85.779643 196.647209 
L 86.011622 174.812408 
L 86.127612 183.843906 
L 86.359591 130.637471 
L 86.47558 165.907392 
L 86.59157 164.630361 
L 86.939538 92.976659 
L 87.055528 121.646864 
L 87.287507 217.064044 
L 87.403496 220.73969 
L 87.519486 219.02434 
L 87.867454 117.422793 
L 88.099433 159.655881 
L 88.215422 120.730581 
L 88.331412 141.223852 
L 88.447401 205.524245 
L 88.67938 146.471954 
L 88.79537 156.722779 
L 89.027349 122.801876 
L 89.143338 127.338463 
L 89.375317 199.946138 
L 89.491307 193.558376 
L 89.607296 213.527462 
L 89.839275 112.802716 
L 90.187243 150.190469 
L 90.419222 201.36848 
L 90.651201 150.360753 
L 90.88318 161.08532 
L 90.99917 159.77139 
L 91.115159 163.462993 
L 91.231149 136.996484 
L 91.347138 139.025031 
L 91.579117 167.391942 
L 91.695107 228.804307 
L 91.811096 211.711095 
L 91.927086 154.190556 
L 92.159065 183.975215 
L 92.507033 126.406535 
L 92.623023 153.484316 
L 92.739012 149.183449 
L 92.855001 134.819959 
L 93.08698 195.786927 
L 93.318959 107.679773 
L 93.434949 111.763286 
L 93.666928 182.035417 
L 93.782917 169.762919 
L 93.898907 197.417535 
L 94.014896 197.586261 
L 94.130886 173.986272 
L 94.246875 178.013986 
L 94.362865 161.985678 
L 94.478854 164.967598 
L 94.594844 184.207601 
L 94.710833 149.137243 
L 94.826823 148.9396 
L 94.942812 156.253884 
L 95.058802 118.130947 
L 95.174791 122.976149 
L 95.40677 150.827532 
L 95.522759 148.302699 
L 95.638749 156.74018 
L 95.870728 151.7458 
L 96.102707 172.265065 
L 96.218696 204.728111 
L 96.450675 196.094351 
L 96.566665 191.795309 
L 96.682654 116.955222 
L 96.798644 121.843443 
L 96.914633 110.011858 
L 97.030623 69.98007 
L 97.378591 269.465293 
L 97.494581 259.454141 
L 97.726559 157.520937 
L 97.958538 131.311571 
L 98.074528 132.596604 
L 98.190517 138.757015 
L 98.422496 102.39585 
L 98.770465 177.177533 
L 98.886454 180.520225 
L 99.118433 157.092027 
L 99.234423 179.263905 
L 99.350412 180.189055 
L 99.466402 177.092295 
L 99.698381 221.593402 
L 100.046349 121.078475 
L 100.278328 138.726756 
L 100.394317 152.836824 
L 100.626296 186.159267 
L 100.742286 180.163685 
L 100.858275 166.653545 
L 101.090254 100.312007 
L 101.322233 245.365281 
L 101.670202 144.929036 
L 101.786191 156.985604 
L 102.13416 121.184594 
L 102.366139 111.025553 
L 102.482128 116.523165 
L 102.714107 196.377227 
L 102.830096 198.612118 
L 103.062075 174.669625 
L 103.178065 189.478611 
L 103.410044 158.166476 
L 103.642023 142.998066 
L 103.758012 188.710254 
L 103.874002 179.560503 
L 104.105981 109.160057 
L 104.22197 117.168796 
L 104.453949 195.878922 
L 104.685928 132.602743 
L 105.033897 224.219685 
L 105.729833 134.270096 
L 105.845823 168.497479 
L 106.193791 145.851885 
L 106.309781 114.596309 
L 106.657749 216.045103 
L 106.889728 100.854274 
L 107.121707 203.371822 
L 107.237697 178.997168 
L 107.353686 129.936633 
L 107.469676 137.540663 
L 107.585665 175.092478 
L 107.701654 138.385355 
L 107.817644 142.304739 
L 107.933633 179.857803 
L 108.049623 180.156547 
L 108.165612 180.831545 
L 108.281602 176.09037 
L 108.513581 151.126294 
L 108.62957 173.035574 
L 108.861549 141.173655 
L 108.977539 163.917061 
L 109.093528 143.168916 
L 109.209518 151.825261 
L 109.325507 191.104207 
L 109.905455 135.795043 
L 110.021444 143.959824 
L 110.137433 180.221134 
L 110.253423 154.171635 
L 110.369412 168.428525 
L 110.485402 204.117114 
L 110.717381 162.330727 
L 110.83337 126.552272 
L 111.181339 141.27337 
L 111.413318 158.736256 
L 111.529307 204.73502 
L 111.645297 203.452246 
L 111.761286 205.575636 
L 111.877276 196.834031 
L 111.993265 136.06418 
L 112.225244 201.074971 
L 112.457223 112.035404 
L 112.573213 132.688123 
L 112.689202 115.866496 
L 112.805191 131.531591 
L 113.03717 191.694933 
L 113.15316 195.122721 
L 113.269149 152.763067 
L 113.385139 163.797588 
L 113.501128 213.993179 
L 113.733107 94.89549 
L 113.965086 148.035459 
L 114.197065 112.274662 
L 114.429044 149.330765 
L 114.545034 156.175724 
L 114.661023 154.505388 
L 114.893002 129.858397 
L 115.008992 158.809302 
L 115.24097 275.845708 
L 115.588939 174.01085 
L 115.704928 146.621467 
L 115.820918 166.310106 
L 116.052897 226.72517 
L 116.284876 174.657214 
L 116.400865 186.8975 
L 116.980813 76.90069 
L 117.212792 168.850038 
L 117.328781 137.862901 
L 117.444771 154.404974 
L 117.56076 149.192671 
L 117.676749 151.956592 
L 117.792739 159.969719 
L 117.908728 147.933827 
L 118.024718 167.895348 
L 118.140707 147.4576 
L 118.372686 95.007785 
L 118.488676 103.473005 
L 118.720655 262.047289 
L 119.300602 128.3583 
L 119.416592 131.846548 
L 119.532581 150.853038 
L 119.648571 149.251238 
L 119.76456 167.073756 
L 119.88055 160.069332 
L 119.996539 133.555951 
L 120.112529 157.426494 
L 120.228518 144.150075 
L 120.344507 143.946656 
L 120.576486 192.242812 
L 120.808465 160.527347 
L 120.924455 191.934098 
L 121.040444 182.737317 
L 121.156434 139.643153 
L 121.388413 174.403296 
L 121.504402 174.13077 
L 121.620392 170.129764 
L 121.736381 141.231594 
L 121.852371 144.037864 
L 121.96836 132.026364 
L 122.200339 157.9162 
L 122.316329 141.480405 
L 122.548308 200.247586 
L 122.780286 144.385115 
L 123.128255 190.821513 
L 123.244244 189.590007 
L 123.592213 139.510307 
L 123.708202 136.61582 
L 123.824192 152.269148 
L 123.940181 190.672628 
L 124.056171 190.523275 
L 124.28815 171.002661 
L 124.520129 123.337829 
L 124.752108 167.464174 
L 124.984087 114.257152 
L 125.332055 210.648464 
L 125.564034 177.174771 
L 125.680023 179.526687 
L 126.027992 99.595459 
L 126.143981 146.837821 
L 126.259971 146.998598 
L 126.37596 137.282849 
L 126.49195 207.176427 
L 126.723929 161.897409 
L 126.839918 198.827938 
L 126.955908 187.781699 
L 127.071897 193.286084 
L 127.303876 131.693785 
L 127.419866 130.265788 
L 127.535855 131.214427 
L 127.767834 187.315702 
L 127.883823 199.630768 
L 127.999813 190.708582 
L 128.115802 152.35234 
L 128.347781 185.158828 
L 128.69575 141.059629 
L 128.811739 136.329608 
L 129.159708 111.386783 
L 129.507676 212.389816 
L 129.623666 201.429608 
L 129.855645 135.607815 
L 130.087624 108.864895 
L 130.203613 120.116287 
L 130.319602 148.341661 
L 130.551581 262.00419 
L 130.78356 167.147232 
L 130.89955 148.799602 
L 131.131529 165.917192 
L 131.363508 118.423944 
L 131.595487 164.499339 
L 131.827466 142.624839 
L 132.059445 160.130642 
L 132.291424 193.343751 
L 132.407413 192.153696 
L 132.523403 171.634363 
L 132.639392 126.667057 
L 132.98736 153.785909 
L 133.219339 235.414016 
L 133.567308 177.25561 
L 133.683297 167.539653 
L 133.915276 98.202895 
L 134.031266 108.497488 
L 134.263245 152.530217 
L 134.379234 139.53559 
L 134.495224 151.596711 
L 134.611213 142.404918 
L 134.727203 99.869291 
L 135.075171 153.524767 
L 135.30715 221.961142 
L 135.539129 224.746267 
L 135.887097 98.928119 
L 136.003087 118.538783 
L 136.235066 173.593863 
L 136.351055 155.14892 
L 136.467045 161.489574 
L 136.583034 154.088711 
L 136.699024 123.051571 
L 136.815013 123.214611 
L 137.046992 172.832674 
L 137.278971 215.055342 
L 137.394961 202.55673 
L 137.51095 203.366556 
L 137.858918 171.296294 
L 137.974908 160.808351 
L 138.090897 109.138778 
L 138.206887 108.459938 
L 138.322876 187.287239 
L 138.438866 187.266443 
L 138.670845 128.53407 
L 138.786834 145.742836 
L 138.902824 181.654441 
L 139.018813 164.323943 
L 139.250792 110.732537 
L 139.482771 230.253314 
L 139.71475 157.167479 
L 139.83074 166.332276 
L 140.062719 205.53753 
L 140.294697 116.537535 
L 140.642666 183.897814 
L 140.758655 165.422612 
L 140.874645 112.593674 
L 140.990634 116.567334 
L 141.222613 133.896461 
L 141.570582 227.603771 
L 141.91855 118.009003 
L 142.03454 127.518035 
L 142.266519 201.467918 
L 142.382508 202.678823 
L 142.614487 168.50651 
L 142.730476 166.244784 
L 142.846466 142.407045 
L 143.078445 158.266345 
L 143.194434 136.914275 
L 143.426413 160.365522 
L 143.542403 127.700685 
L 143.658392 136.710263 
L 143.774382 182.638986 
L 144.006361 134.547536 
L 144.12235 136.495088 
L 144.23834 151.889759 
L 144.470319 244.925245 
L 144.702298 176.093532 
L 144.934277 149.748518 
L 145.050266 145.439761 
L 145.166255 128.935501 
L 145.398234 158.258009 
L 145.746203 114.093417 
L 145.862192 141.230189 
L 146.094171 220.16436 
L 146.44214 146.371343 
L 146.674119 120.200488 
L 146.906098 197.661888 
L 147.022087 193.259753 
L 147.138077 216.665171 
L 147.370056 157.713001 
L 147.718024 169.883479 
L 147.834013 139.12797 
L 147.950003 141.113627 
L 148.297971 166.91245 
L 148.52995 94.503314 
L 148.993908 230.58526 
L 149.341877 151.772994 
L 149.573856 127.66407 
L 149.689845 137.364263 
L 149.805835 175.630727 
L 149.921824 175.497996 
L 150.153803 211.72564 
L 150.269792 200.545432 
L 150.73375 118.995274 
L 150.84974 150.716481 
L 150.965729 151.252989 
L 151.081719 116.939946 
L 151.313698 196.171013 
L 151.429687 181.34782 
L 151.661666 143.550492 
L 151.777656 162.782064 
L 151.893645 141.769875 
L 152.009635 154.30973 
L 152.125624 192.709466 
L 152.241614 179.801514 
L 152.357603 180.830788 
L 152.589582 134.772812 
L 152.705571 168.198034 
L 152.93755 129.943124 
L 153.05354 175.896357 
L 153.169529 177.259053 
L 153.401508 148.878654 
L 153.517498 151.255212 
L 153.633487 170.270392 
L 153.749477 156.044171 
L 153.865466 155.548068 
L 153.981456 147.979234 
L 154.097445 149.955008 
L 154.329424 223.021024 
L 154.445414 206.401552 
L 154.793382 117.220719 
L 154.909372 107.52046 
L 155.025361 117.432666 
L 155.14135 150.775161 
L 155.373329 229.906769 
L 155.605308 135.671473 
L 155.721298 134.995522 
L 155.837287 152.864254 
L 155.953277 189.894237 
L 156.069266 188.803882 
L 156.185256 190.812963 
L 156.301245 181.836188 
L 156.533224 137.525233 
L 156.765203 95.005293 
L 157.113172 185.636246 
L 157.229161 185.791123 
L 157.46114 151.745008 
L 157.577129 152.478638 
L 157.809108 177.457032 
L 157.925098 166.337847 
L 158.041087 168.452771 
L 158.157077 174.831887 
L 158.389056 143.767419 
L 158.505045 173.951111 
L 158.621035 164.744342 
L 158.737024 127.721077 
L 158.853014 140.862686 
L 158.969003 180.594004 
L 159.084993 163.851443 
L 159.200982 116.520552 
L 159.316972 151.015748 
L 159.432961 239.164983 
L 159.548951 240.641759 
L 159.896919 59.166059 
L 160.012909 87.656827 
L 160.244887 217.420702 
L 160.592856 127.284669 
L 160.708845 142.892774 
L 160.940824 239.154365 
L 161.056814 236.881234 
L 161.520772 102.991638 
L 161.636761 109.039271 
L 161.86874 227.5319 
L 162.100719 175.930148 
L 162.216709 172.733323 
L 162.564677 138.874037 
L 162.680666 139.855375 
L 162.912645 144.181921 
L 163.028635 161.241869 
L 163.376603 124.058248 
L 163.492593 115.955229 
L 163.724572 154.729843 
L 163.956551 169.452677 
L 164.07254 167.174291 
L 164.304519 197.527453 
L 164.536498 161.045904 
L 164.768477 166.675732 
L 164.884467 156.638163 
L 165.000456 157.029048 
L 165.232435 207.659531 
L 165.464414 135.999417 
L 165.696393 165.760013 
L 165.812382 174.405746 
L 165.928372 174.743095 
L 166.044361 159.450677 
L 166.160351 167.312168 
L 166.27634 150.093685 
L 166.39233 112.095644 
L 166.508319 110.861235 
L 166.856288 194.813172 
L 167.088267 138.141608 
L 167.204256 113.981599 
L 167.320246 115.744342 
L 167.436235 103.457836 
L 167.784203 161.385352 
L 167.900193 243.60033 
L 168.016182 239.776315 
L 168.132172 208.812778 
L 168.248161 212.092363 
L 168.48014 153.647881 
L 168.712119 120.563918 
L 168.944098 178.000454 
L 169.060088 180.635575 
L 169.176077 176.249908 
L 169.524046 109.773354 
L 169.640035 135.577842 
L 169.756025 207.094866 
L 169.872014 204.22869 
L 170.103993 126.513655 
L 170.219982 122.251922 
L 170.451961 216.287663 
L 170.68394 138.123341 
L 170.79993 145.148356 
L 171.147898 212.235112 
L 171.263888 219.567918 
L 171.495867 169.85649 
L 171.727846 143.913734 
L 171.959825 112.039827 
L 172.075814 140.365294 
L 172.191804 135.914385 
L 172.423783 115.970444 
L 172.655761 141.403356 
L 172.88774 206.0702 
L 173.467688 133.336478 
L 173.583677 143.041889 
L 173.815656 189.894966 
L 173.931646 170.891897 
L 174.047635 198.879834 
L 174.163625 198.932566 
L 174.395604 132.972855 
L 174.627583 153.717856 
L 174.743572 142.533415 
L 174.859562 144.021977 
L 175.09154 188.389822 
L 175.323519 178.434733 
L 175.439509 144.982233 
L 175.555498 146.280098 
L 175.671488 155.715495 
L 175.903467 112.495024 
L 176.019456 103.540991 
L 176.251435 253.56312 
L 176.367425 247.408688 
L 176.599404 189.992308 
L 176.831383 112.112526 
L 177.179351 201.027457 
L 177.643309 106.435075 
L 177.875288 177.606506 
L 177.991277 130.171702 
L 178.223256 170.046572 
L 178.339246 132.853799 
L 178.455235 136.987174 
L 178.687214 160.936524 
L 178.803204 158.082502 
L 179.035183 119.988401 
L 179.151172 120.385024 
L 179.499141 221.384125 
L 179.61513 216.353412 
L 179.73112 199.089366 
L 179.847109 236.601843 
L 180.079088 206.725718 
L 180.195077 207.100228 
L 180.427056 145.794114 
L 180.543046 147.058595 
L 180.775025 95.950414 
L 180.891014 97.708555 
L 181.238983 175.79501 
L 181.354972 184.492218 
L 181.586951 165.442547 
L 181.81893 192.910026 
L 182.050909 100.91333 
L 182.282888 128.685768 
L 182.514867 226.969961 
L 182.862835 138.417724 
L 182.978825 139.839991 
L 183.210804 179.372986 
L 183.442783 136.010654 
L 183.558772 135.038247 
L 183.790751 178.959464 
L 183.906741 172.804804 
L 184.02273 173.791661 
L 184.13872 155.259268 
L 184.254709 168.077339 
L 184.486688 209.736367 
L 184.718667 133.741906 
L 184.834657 147.958654 
L 184.950646 139.450352 
L 185.066635 146.687574 
L 185.182625 128.645442 
L 185.414604 152.478446 
L 185.530593 161.19568 
L 185.646583 210.184957 
L 185.762572 212.011049 
L 185.878562 197.027913 
L 186.110541 134.065 
L 186.34252 184.336271 
L 186.458509 195.357932 
L 186.574499 178.083782 
L 186.806478 117.040754 
L 186.922467 110.899519 
L 187.154446 156.278794 
L 187.386425 129.505293 
L 187.618404 188.384208 
L 187.734393 192.040851 
L 187.966372 153.365244 
L 188.082362 193.52346 
L 188.198351 193.748862 
L 188.314341 174.825187 
L 188.43033 191.207067 
L 188.778299 69.475132 
L 189.010278 171.880916 
L 189.126267 168.691965 
L 189.358246 224.76262 
L 189.706215 162.017396 
L 189.938194 178.289692 
L 190.286162 132.00007 
L 190.518141 197.831207 
L 190.866109 121.313912 
L 190.982099 120.013829 
L 191.098088 163.597544 
L 191.214078 161.930424 
L 191.330067 167.854985 
L 191.446057 194.36063 
L 191.678036 137.938725 
L 191.794025 145.365386 
L 191.910015 145.606196 
L 192.026004 150.681896 
L 192.257983 228.115894 
L 192.489962 179.10146 
L 192.605951 181.114983 
L 192.95392 154.726577 
L 193.069909 147.947168 
L 193.185899 155.808764 
L 193.301888 144.537467 
L 193.417878 110.4778 
L 193.649857 129.175795 
L 193.765846 126.290886 
L 193.997825 154.592233 
L 194.113815 184.879122 
L 194.229804 179.344585 
L 194.345794 151.858608 
L 194.461783 150.986962 
L 194.577773 148.427803 
L 194.693762 120.794589 
L 194.809752 140.647286 
L 194.925741 219.211881 
L 195.04173 203.617823 
L 195.15772 172.099969 
L 195.273709 203.955 
L 195.505688 185.804699 
L 195.621678 196.5228 
L 195.737667 185.308938 
L 195.853657 201.373693 
L 195.969646 188.231175 
L 196.201625 122.618095 
L 196.317615 144.385075 
L 196.433604 134.504164 
L 196.549594 110.323999 
L 196.665583 116.757485 
L 197.129541 210.346157 
L 197.245531 209.758806 
L 197.593499 128.549328 
L 197.825478 153.723576 
L 197.941467 137.55544 
L 198.173446 188.284701 
L 198.289436 168.638823 
L 198.405425 173.314046 
L 198.521415 161.292236 
L 198.753394 115.824492 
L 198.869383 123.754132 
L 199.101362 203.77611 
L 199.333341 125.064543 
L 199.56532 244.809773 
L 199.68131 237.160362 
L 199.913289 151.527068 
L 200.145267 118.936957 
L 200.261257 145.757641 
L 200.377246 137.779464 
L 200.609225 167.208302 
L 200.725215 172.598757 
L 200.841204 188.574905 
L 200.957194 183.723161 
L 201.073183 192.923327 
L 201.421152 110.80717 
L 201.653131 133.769249 
L 201.88511 187.049847 
L 202.117089 177.485123 
L 202.233078 180.500514 
L 202.349068 170.877997 
L 202.581046 120.867303 
L 202.813025 180.307906 
L 202.929015 197.997444 
L 203.160994 161.936493 
L 203.276983 189.318634 
L 203.508962 107.088837 
L 203.856931 221.807535 
L 203.97292 252.696389 
L 204.204899 135.362852 
L 204.320889 128.501909 
L 204.436878 111.989481 
L 204.552868 132.970805 
L 204.668857 209.416244 
L 204.784847 209.16289 
L 205.016825 138.477391 
L 205.132815 136.011796 
L 205.364794 104.316516 
L 205.480783 120.960579 
L 205.828752 196.915892 
L 205.944741 201.298471 
L 206.29271 139.460448 
L 206.408699 146.408416 
L 206.524689 132.784195 
L 206.988647 187.722971 
L 207.220626 171.406915 
L 207.452605 134.978106 
L 207.568594 152.881088 
L 207.684583 148.051369 
L 207.916562 167.222387 
L 208.032552 145.535214 
L 208.148541 150.23408 
L 208.38052 264.1515 
L 208.49651 253.782318 
L 208.728489 141.569518 
L 208.960468 97.897051 
L 209.076457 112.268029 
L 209.308436 187.756311 
L 209.656405 161.911588 
L 209.888384 154.538848 
L 210.120362 168.629137 
L 210.236352 169.451739 
L 210.352341 166.170391 
L 210.468331 153.44719 
L 210.70031 103.44178 
L 211.048278 232.298287 
L 211.280257 125.927809 
L 211.512236 143.620759 
L 211.628226 145.400161 
L 211.860205 197.537588 
L 212.092184 156.560003 
L 212.208173 164.909616 
L 212.440152 102.890026 
L 212.672131 216.767911 
L 212.90411 154.785502 
L 213.136089 175.184119 
L 213.600047 92.890743 
L 213.716036 110.4843 
L 213.948015 191.239635 
L 214.179994 209.884595 
L 214.295984 170.828465 
L 214.411973 176.067401 
L 214.527963 173.773133 
L 214.643952 124.97583 
L 214.875931 191.472362 
L 215.10791 108.715601 
L 215.455878 159.326016 
L 215.687857 171.607008 
L 215.803847 136.35197 
L 215.919836 147.268025 
L 216.151815 213.873768 
L 216.267805 245.395393 
L 216.383794 215.853021 
L 216.615773 116.961772 
L 216.963742 168.117742 
L 217.079731 188.286972 
L 217.195721 179.255988 
L 217.31171 159.614135 
L 217.4277 160.716581 
L 217.543689 153.924407 
L 217.891657 76.36281 
L 218.007647 89.830746 
L 218.239626 205.660784 
L 218.355615 290.071971 
L 218.471605 287.09844 
L 218.703584 156.918477 
L 218.819573 138.596482 
L 218.935563 89.070425 
L 219.051552 99.284157 
L 219.283531 168.913727 
L 219.399521 231.476292 
L 219.51551 212.290565 
L 219.747489 151.043659 
L 219.979468 99.587874 
L 220.095457 107.042082 
L 220.443426 190.340736 
L 220.559415 198.682097 
L 220.675405 192.517701 
L 220.791394 193.990471 
L 221.023373 139.371285 
L 221.139363 147.621888 
L 221.255352 167.151881 
L 221.371342 212.614539 
L 221.603321 132.751169 
L 221.71931 140.059707 
L 221.8353 146.193515 
L 221.951289 129.780138 
L 222.067279 130.053401 
L 222.299258 231.155537 
L 222.531236 129.910644 
L 222.763215 153.930668 
L 222.879205 155.855674 
L 223.111184 99.35176 
L 223.459152 219.809122 
L 223.92311 139.54705 
L 224.0391 143.956219 
L 224.155089 145.127102 
L 224.271079 149.208504 
L 224.503058 168.34571 
L 224.735037 179.340716 
L 224.967015 143.514762 
L 225.083005 122.818909 
L 225.314984 141.576787 
L 225.546963 106.877185 
L 225.778942 197.315994 
L 225.894931 186.404375 
L 226.12691 216.32977 
L 226.2429 212.268834 
L 226.358889 192.707037 
L 226.590868 77.778652 
L 226.706858 78.835753 
L 226.822847 103.324218 
L 227.170816 221.09915 
L 227.402795 147.508255 
L 227.634773 216.214641 
L 227.982742 152.64311 
L 228.098731 125.20315 
L 228.562689 185.573554 
L 228.678679 161.466571 
L 228.910658 88.579149 
L 229.374616 214.312988 
L 229.490605 227.495204 
L 229.838574 144.109775 
L 229.954563 139.124902 
L 230.186542 103.79458 
L 230.418521 187.586767 
L 230.6505 174.008211 
L 230.766489 148.08341 
L 230.998468 182.038788 
L 231.114458 163.416924 
L 231.230447 207.354858 
L 231.346437 202.24768 
L 231.578416 110.915618 
L 231.926384 180.775622 
L 232.042374 190.906751 
L 232.158363 171.211272 
L 232.390342 120.4052 
L 232.506331 128.503649 
L 232.73831 224.47204 
L 232.8543 223.154368 
L 233.202268 103.906004 
L 233.434247 170.423044 
L 233.666226 131.734986 
L 233.898205 142.960571 
L 234.014195 138.97101 
L 234.130184 147.130009 
L 234.362163 121.553957 
L 234.594142 224.163174 
L 234.826121 189.262469 
L 234.94211 196.812956 
L 235.174089 128.024851 
L 235.290079 158.955321 
L 235.406068 151.26336 
L 235.522058 156.836382 
L 235.754037 132.146447 
L 235.986016 221.637494 
L 236.217995 159.91643 
L 236.333984 178.895336 
L 236.449974 177.356744 
L 236.565963 192.524071 
L 236.797942 149.262486 
L 236.913932 162.773416 
L 237.029921 125.550597 
L 237.145911 139.617001 
L 237.2619 182.952583 
L 237.725858 128.720288 
L 238.073826 214.023726 
L 238.189816 201.946279 
L 238.421795 130.744977 
L 238.653774 104.061396 
L 238.885753 171.197613 
L 239.117732 164.140986 
L 239.233721 164.962245 
L 239.349711 169.287972 
L 239.58169 185.542479 
L 239.697679 162.03862 
L 239.929658 172.69586 
L 240.045647 148.051655 
L 240.393616 175.947568 
L 240.625595 146.458965 
L 240.741584 154.774322 
L 240.857574 139.669671 
L 240.973563 105.349447 
L 241.089553 117.319097 
L 241.205542 157.264747 
L 241.437521 103.953187 
L 241.553511 128.390804 
L 241.78549 219.299725 
L 241.901479 211.130898 
L 242.133458 177.225669 
L 242.365437 202.778383 
L 242.481426 217.128921 
L 242.597416 208.093035 
L 242.829395 139.025194 
L 243.177363 175.688651 
L 243.293353 171.927925 
L 243.641321 101.527599 
L 243.757311 114.346383 
L 243.98929 209.945516 
L 244.105279 207.952447 
L 244.221269 175.070137 
L 244.337258 185.417593 
L 244.453248 171.964654 
L 244.685227 107.295436 
L 244.801216 100.818385 
L 245.033195 167.356101 
L 245.149184 141.067288 
L 245.265174 142.466552 
L 245.381163 142.2765 
L 245.497153 110.731466 
L 245.845121 218.082271 
L 246.0771 179.514576 
L 246.309079 212.944499 
L 246.425069 195.93564 
L 246.657048 155.421605 
L 246.773037 168.053233 
L 247.005016 146.058312 
L 247.468974 188.537481 
L 247.700953 198.983987 
L 247.932932 138.028523 
L 248.048921 130.427006 
L 248.164911 111.68383 
L 248.39689 140.688022 
L 248.628869 112.756624 
L 248.860848 208.184266 
L 248.976837 193.376972 
L 249.208816 113.666642 
L 249.440795 182.931244 
L 249.556785 181.96301 
L 249.672774 213.654528 
L 249.788764 201.464222 
L 249.904753 128.496839 
L 250.020742 134.733336 
L 250.136732 166.328954 
L 250.252721 160.604746 
L 250.368711 173.62688 
L 250.4847 166.570446 
L 250.716679 145.797972 
L 250.832669 145.550898 
L 250.948658 145.953521 
L 251.180637 174.529622 
L 251.412616 149.91413 
L 251.644595 112.410559 
L 251.876574 197.509508 
L 251.992564 164.46566 
L 252.224543 232.853888 
L 252.456521 162.968085 
L 252.6885 88.537277 
L 253.036469 207.08505 
L 253.152458 230.791636 
L 253.616416 89.970003 
L 254.080374 195.901328 
L 254.312353 178.38731 
L 254.428343 194.69667 
L 254.660322 146.436481 
L 254.776311 154.283964 
L 255.00829 109.456712 
L 255.124279 120.750035 
L 255.356258 187.807532 
L 255.472248 194.480026 
L 255.588237 169.673389 
L 255.820216 110.137354 
L 256.168185 211.284441 
L 256.400164 176.40196 
L 256.632143 130.585344 
L 256.748132 130.060212 
L 256.980111 216.276884 
L 257.096101 191.888679 
L 257.32808 126.44328 
L 257.560058 182.190298 
L 257.676048 170.6329 
L 257.792037 112.199474 
L 257.908027 135.472441 
L 258.024016 201.789097 
L 258.255995 157.146014 
L 258.371985 179.043602 
L 258.487974 178.548484 
L 258.603964 194.366461 
L 258.835943 136.954199 
L 258.951932 149.388036 
L 259.067922 138.774552 
L 259.299901 153.793274 
L 259.41589 131.137748 
L 259.53188 138.37985 
L 259.763859 187.636609 
L 260.343806 110.957401 
L 260.575785 209.108138 
L 260.807764 190.498329 
L 261.039743 241.759418 
L 261.387711 116.488614 
L 261.73568 176.614655 
L 262.199638 136.391365 
L 262.315627 135.110892 
L 262.431616 164.362948 
L 262.547606 156.395719 
L 262.779585 126.733572 
L 262.895574 126.334549 
L 263.127553 200.229743 
L 263.243543 189.785346 
L 263.359532 204.629865 
L 263.475522 186.689239 
L 263.591511 138.94297 
L 263.707501 146.279597 
L 263.82349 160.853477 
L 263.93948 142.433839 
L 264.171459 85.552149 
L 264.519427 240.052501 
L 264.867395 170.723499 
L 264.983385 122.466033 
L 265.099374 129.483545 
L 265.215364 163.68814 
L 265.563332 133.135109 
L 265.679322 136.073926 
L 265.911301 200.48743 
L 266.02729 190.704938 
L 266.259269 140.191729 
L 266.375259 152.132595 
L 266.723227 121.581215 
L 266.839217 141.904311 
L 267.071196 208.939203 
L 267.303175 251.812194 
L 267.767132 111.350456 
L 267.999111 118.134717 
L 268.23109 94.328809 
L 268.463069 180.990181 
L 268.695048 149.135455 
L 268.927027 166.792455 
L 269.159006 237.346587 
L 269.390985 162.253986 
L 269.506975 198.724772 
L 269.738954 161.312254 
L 269.970932 121.215172 
L 270.086922 134.917478 
L 270.318901 186.123755 
L 270.55088 182.607185 
L 270.898848 142.25946 
L 271.130827 167.208809 
L 271.362806 107.125924 
L 271.594785 176.118793 
L 271.710775 158.250688 
L 271.826764 177.703941 
L 271.942754 221.056649 
L 272.058743 190.861006 
L 272.290722 120.843061 
L 272.406711 112.241793 
L 272.522701 84.020308 
L 272.75468 229.575688 
L 272.986659 163.510001 
L 273.218638 189.76412 
L 273.334627 174.953364 
L 273.450617 187.53239 
L 273.566606 187.613735 
L 273.682596 167.35539 
L 273.798585 175.170007 
L 274.262543 146.156913 
L 274.494522 186.860041 
L 274.95848 110.957181 
L 275.190459 87.219366 
L 275.422438 108.356034 
L 275.538427 148.34481 
L 275.770406 286.021823 
L 275.886396 254.574737 
L 276.118375 159.291571 
L 276.350354 121.647302 
L 276.582333 163.685547 
L 276.698322 164.146926 
L 276.814312 163.135026 
L 276.930301 160.065871 
L 277.046291 162.024069 
L 277.16228 143.575521 
L 277.27827 149.111777 
L 277.510248 208.348573 
L 277.858217 140.542638 
L 278.090196 115.021649 
L 278.438164 203.542544 
L 278.554154 193.313397 
L 278.902122 124.108197 
L 279.018112 124.127414 
L 279.134101 135.811094 
L 279.36608 192.460454 
L 279.48207 190.476812 
L 279.598059 157.687555 
L 279.830038 165.867818 
L 279.946027 160.296233 
L 280.178006 204.146714 
L 280.409985 169.449799 
L 280.641964 130.823052 
L 280.873943 162.624451 
L 281.221912 124.253315 
L 281.337901 119.289701 
L 281.56988 191.23053 
L 281.801859 137.59422 
L 282.033838 210.440214 
L 282.149828 172.287104 
L 282.265817 171.983453 
L 282.381806 196.922826 
L 282.497796 192.439599 
L 282.845764 73.534975 
L 283.309722 266.726889 
L 283.77368 113.003417 
L 283.88967 124.435875 
L 284.005659 172.310839 
L 284.121649 160.092286 
L 284.353628 132.300498 
L 284.469617 121.907518 
L 284.701596 157.831163 
L 284.933575 196.908257 
L 285.165554 164.72348 
L 285.281543 160.588667 
L 285.513522 145.079781 
L 285.745501 241.519319 
L 286.09347 172.323458 
L 286.325449 116.034892 
L 286.441438 95.242617 
L 286.557428 109.103029 
L 286.673417 183.911086 
L 286.789407 186.915468 
L 287.021386 144.719966 
L 287.253365 129.122828 
L 287.485343 185.892248 
L 287.601333 168.145878 
L 287.717322 170.258623 
L 287.833312 152.998147 
L 287.949301 159.406253 
L 288.18128 214.467485 
L 288.29727 174.580254 
L 288.413259 181.353542 
L 288.529249 162.332506 
L 288.645238 115.671929 
L 288.761228 118.374205 
L 288.877217 107.84605 
L 289.109196 211.226997 
L 289.225186 181.656769 
L 289.341175 125.651401 
L 289.457165 141.102617 
L 289.689144 207.56621 
L 289.805133 214.49361 
L 290.153101 110.22845 
L 290.269091 129.857971 
L 290.50107 185.81464 
L 290.617059 184.206099 
L 290.733049 172.695985 
L 290.965028 122.159869 
L 291.081017 117.05516 
L 291.312996 141.824059 
L 291.544975 230.528673 
L 291.660965 218.295245 
L 291.892944 100.720313 
L 292.356901 182.046836 
L 292.472891 140.21799 
L 292.58888 152.532268 
L 292.70487 205.133449 
L 292.936849 131.564007 
L 293.052838 150.696806 
L 293.284817 193.897846 
L 293.400807 193.377592 
L 293.748775 80.220033 
L 293.864765 93.131497 
L 294.444712 295.488 
L 294.676691 157.147317 
L 294.792681 138.312785 
L 295.024659 182.988415 
L 295.372628 133.829816 
L 295.488617 121.332875 
L 295.604607 147.460164 
L 295.720596 139.661959 
L 295.836586 139.626003 
L 296.068565 122.476831 
L 296.300544 186.721155 
L 296.532523 162.326635 
L 296.648512 165.080752 
L 296.880491 113.598535 
L 297.11247 181.21025 
L 297.22846 224.816733 
L 297.344449 210.713699 
L 297.576428 132.150066 
L 297.808407 136.481182 
L 297.924396 145.046379 
L 298.156375 200.497587 
L 298.272365 170.345317 
L 298.388354 184.108969 
L 298.504344 211.126636 
L 298.968302 126.90204 
L 299.084291 138.805725 
L 299.200281 137.440376 
L 299.31627 130.174505 
L 299.548249 181.006932 
L 300.244186 130.460553 
L 300.592154 153.056444 
L 300.824133 217.501099 
L 300.940123 221.815915 
L 301.172102 169.425179 
L 301.288091 171.800848 
L 301.404081 163.206053 
L 301.63606 96.264104 
L 301.752049 76.646413 
L 301.868039 79.783329 
L 302.100018 286.472546 
L 302.216007 268.560309 
L 302.447986 176.295097 
L 302.563975 159.976902 
L 302.795954 107.227935 
L 302.911944 106.154059 
L 303.143923 206.819141 
L 303.259912 201.711825 
L 303.375902 211.020987 
L 303.491891 198.487507 
L 303.72387 151.563184 
L 303.83986 147.564325 
L 304.071839 152.082906 
L 304.303818 121.900028 
L 304.419807 123.104923 
L 304.651786 113.362308 
L 304.767776 98.123757 
L 304.999754 160.102431 
L 305.115744 156.770121 
L 305.231733 166.130198 
L 305.463712 213.83003 
L 305.579702 214.031612 
L 305.695691 217.265459 
L 305.811681 207.873093 
L 306.04366 135.926213 
L 306.159649 131.328766 
L 306.391628 173.652036 
L 306.507618 159.284664 
L 306.623607 183.213953 
L 306.739597 180.746221 
L 306.855586 172.857261 
L 307.087565 118.697599 
L 307.319544 205.627963 
L 307.435533 180.014484 
L 307.667512 111.262315 
L 307.783502 110.089499 
L 307.899491 136.885826 
L 308.015481 197.628096 
L 308.24746 156.770547 
L 308.363449 197.676184 
L 308.595428 142.497144 
L 308.711418 172.400028 
L 308.827407 162.144601 
L 308.943397 199.912543 
L 309.059386 189.512195 
L 309.175376 124.327902 
L 309.291365 135.483961 
L 309.639334 236.704532 
L 309.871312 149.508228 
L 309.987302 153.578376 
L 310.103291 152.599639 
L 310.219281 165.439641 
L 310.33527 145.293327 
L 310.45126 158.882892 
L 310.567249 158.848782 
L 310.799228 93.021361 
L 310.915218 99.455741 
L 311.031207 114.594033 
L 311.147197 114.383522 
L 311.263186 125.262043 
L 311.379176 156.559335 
L 311.495165 156.357215 
L 311.611155 163.621092 
L 311.843134 226.230393 
L 311.959123 223.168708 
L 312.075113 182.068856 
L 312.307091 212.480109 
L 312.53907 191.190213 
L 312.887039 95.916126 
L 313.119018 145.624708 
L 313.235007 143.725645 
L 313.582976 210.95685 
L 313.698965 220.818645 
L 314.046934 150.289608 
L 314.162923 165.91294 
L 314.278913 154.53071 
L 314.510892 175.698 
L 314.742871 100.611481 
L 314.85886 96.332287 
L 315.090839 166.15336 
L 315.206828 152.145586 
L 315.322818 165.872518 
L 315.554797 215.283844 
L 315.670786 193.373728 
L 315.902765 198.345758 
L 316.482713 98.732328 
L 316.598702 101.62997 
L 316.714692 131.300915 
L 316.830681 120.145663 
L 316.946671 132.434255 
L 317.17865 199.563064 
L 317.410628 112.716223 
L 317.642607 97.952659 
L 317.874586 200.939425 
L 317.990576 198.88703 
L 318.106565 160.907266 
L 318.222555 168.351546 
L 318.454534 197.085773 
L 318.686513 167.264572 
L 318.802502 182.21796 
L 318.918492 178.664697 
L 319.150471 200.519154 
L 319.26646 177.349926 
L 319.38245 205.768387 
L 319.498439 203.170519 
L 319.614429 150.968918 
L 319.730418 160.389274 
L 319.846407 184.465041 
L 320.078386 127.854719 
L 320.194376 156.560792 
L 320.310365 154.61833 
L 320.542344 101.879431 
L 321.238281 229.689794 
L 321.47026 103.732114 
L 321.58625 109.465682 
L 321.818229 130.319484 
L 321.934218 135.893452 
L 322.166197 184.546985 
L 322.630155 98.730051 
L 322.862134 188.956686 
L 323.094113 171.708192 
L 323.210102 124.363974 
L 323.442081 199.794426 
L 323.558071 195.100632 
L 323.67406 212.707668 
L 323.906039 160.57521 
L 324.022029 171.626214 
L 324.138018 166.638784 
L 324.254008 203.160234 
L 324.369997 199.934468 
L 324.601976 140.231865 
L 324.833955 182.852889 
L 325.065934 166.851657 
L 325.181923 160.057773 
L 325.413902 132.103703 
L 325.529892 129.147081 
L 325.761871 118.523725 
L 326.109839 191.516598 
L 326.457808 153.755374 
L 326.689787 175.956668 
L 326.921766 128.799994 
L 327.037755 129.923552 
L 327.153745 142.8879 
L 327.269734 176.206628 
L 327.385723 161.198027 
L 327.501713 164.878673 
L 327.733692 192.209273 
L 327.849681 190.888124 
L 328.08166 157.174735 
L 328.19765 178.839238 
L 328.313639 166.694763 
L 328.429629 131.909155 
L 328.777597 149.87184 
L 328.893587 178.818927 
L 329.357545 130.4113 
L 329.473534 135.983544 
L 329.589524 157.339853 
L 329.705513 235.135317 
L 329.821502 232.326483 
L 330.169471 130.990937 
L 330.40145 162.095333 
L 330.633429 146.098899 
L 330.865408 183.377232 
L 331.097387 94.81721 
L 331.329366 213.123692 
L 331.561345 225.993829 
L 331.677334 207.454148 
L 331.909313 107.323947 
L 332.141292 97.761835 
L 332.721239 214.229786 
L 332.953218 167.451749 
L 333.069208 171.537996 
L 333.185197 189.38199 
L 333.301187 174.359469 
L 333.533166 89.615684 
L 333.649155 121.688347 
L 333.765145 120.638701 
L 333.881134 153.547178 
L 333.997124 228.160495 
L 334.113113 231.137368 
L 334.461082 174.147595 
L 334.693061 102.818876 
L 334.925039 129.409649 
L 335.041029 114.043581 
L 335.273008 277.539115 
L 335.504987 176.28967 
L 335.620976 176.450037 
L 335.852955 107.836598 
L 336.548892 178.844614 
L 336.664882 164.131292 
L 336.780871 169.72154 
L 336.896861 167.440599 
L 337.01285 159.831617 
L 337.244829 123.339255 
L 337.476808 149.859922 
L 337.592797 160.899215 
L 337.708787 183.135886 
L 337.940766 149.800459 
L 338.172745 182.077105 
L 338.288734 203.253613 
L 338.520713 160.903717 
L 338.752692 167.331996 
L 338.868682 184.875376 
L 338.984671 176.638986 
L 339.100661 157.900069 
L 339.21665 167.972937 
L 339.33264 198.244033 
L 339.448629 196.137995 
L 339.912587 110.115983 
L 340.028576 53.568 
L 340.260555 191.037236 
L 340.376545 189.028342 
L 340.608524 171.012469 
L 340.840503 187.024535 
L 341.188471 138.392819 
L 341.304461 139.101842 
L 341.652429 157.08108 
L 341.768419 153.107986 
L 341.884408 141.839148 
L 342.000398 147.426871 
L 342.232376 196.360222 
L 342.348366 230.989409 
L 342.580345 173.44255 
L 342.696334 173.681934 
L 342.812324 118.147498 
L 342.928313 127.623983 
L 343.044303 164.887763 
L 343.160292 158.182818 
L 343.276282 164.076315 
L 343.392271 160.971918 
L 343.508261 164.535573 
L 343.62425 157.368941 
L 343.74024 136.521101 
L 343.972219 198.7749 
L 344.204198 128.257765 
L 344.320187 154.944434 
L 344.552166 126.198506 
L 344.668156 176.719358 
L 344.784145 173.18867 
L 344.900134 138.630916 
L 345.016124 141.558011 
L 345.364092 197.035986 
L 345.480082 191.803137 
L 345.82805 132.876285 
L 346.060029 204.656789 
L 346.407998 157.335148 
L 346.639977 124.641297 
L 346.871956 200.635704 
L 347.335913 130.007518 
L 347.567892 178.623747 
L 347.799871 116.288659 
L 348.03185 203.151797 
L 348.495808 129.019963 
L 348.611798 147.136512 
L 348.727787 132.907139 
L 348.843777 136.740948 
L 348.959766 152.423103 
L 349.191745 189.342823 
L 349.307735 172.043332 
L 349.423724 208.845328 
L 349.539714 202.752008 
L 349.771692 157.120684 
L 349.887682 143.845553 
L 350.003671 147.057842 
L 350.23565 116.929799 
L 350.583619 173.181082 
L 350.815598 156.594677 
L 350.931587 151.670852 
L 351.047577 129.866455 
L 351.279556 217.167728 
L 351.627524 165.068151 
L 351.743514 164.559197 
L 351.975493 182.500562 
L 352.091482 174.20501 
L 352.207471 154.391283 
L 352.323461 169.75446 
L 352.43945 167.212471 
L 352.55544 134.617701 
L 352.787419 176.055033 
L 352.903408 172.05386 
L 353.135387 130.462612 
L 353.251377 135.465605 
L 353.483356 99.567057 
L 353.599345 111.668521 
L 353.947314 210.526997 
L 354.063303 247.602056 
L 354.179293 241.951621 
L 354.411272 139.877823 
L 354.527261 152.046413 
L 354.643251 136.17438 
L 354.875229 73.898845 
L 355.107208 179.483361 
L 355.223198 194.455018 
L 355.339187 286.420426 
L 355.455177 265.086968 
L 355.687156 150.724453 
L 355.803145 125.321093 
L 355.919135 133.650692 
L 356.151114 103.910588 
L 356.499082 196.934266 
L 356.615072 187.927257 
L 356.731061 145.170045 
L 356.96304 163.179714 
L 357.07903 136.374474 
L 357.311008 185.341553 
L 357.426998 166.161407 
L 357.542987 169.786264 
L 357.658977 151.66942 
L 357.774966 155.978147 
L 358.006945 184.233192 
L 358.122935 193.934355 
L 358.586893 92.81056 
L 358.702882 115.196597 
L 358.934861 183.202089 
L 359.050851 206.015364 
L 359.28283 159.98275 
L 359.398819 179.131165 
L 359.630798 156.357136 
L 359.746787 178.581178 
L 359.862777 174.419519 
L 359.978766 138.773237 
L 360.094756 137.958738 
L 360.326735 179.486547 
L 360.442724 175.619179 
L 360.558714 152.195503 
L 360.674703 153.337656 
L 360.906682 172.402913 
L 361.138661 95.397703 
L 361.602619 252.317639 
L 361.718609 218.409154 
L 361.950588 90.524256 
L 362.066577 96.124857 
L 362.414545 224.985063 
L 362.530535 209.968569 
L 362.878503 125.781446 
L 362.994493 124.260073 
L 363.110482 95.447613 
L 363.226472 96.612701 
L 363.69043 225.778855 
L 363.806419 207.176131 
L 364.038398 130.162147 
L 364.154388 144.434837 
L 364.270377 138.856642 
L 364.386367 141.993496 
L 364.734335 197.900176 
L 364.850324 187.266799 
L 364.966314 149.726289 
L 365.198293 165.680311 
L 365.430272 185.613342 
L 365.77824 140.190172 
L 365.89423 159.851496 
L 366.126209 129.95219 
L 366.242198 136.631084 
L 366.474177 157.672758 
L 366.590167 160.638332 
L 366.706156 207.204871 
L 366.822146 189.288326 
L 366.938135 124.042361 
L 367.054125 124.997724 
L 367.402093 188.69904 
L 367.634072 160.792454 
L 367.866051 137.294308 
L 367.98204 132.991286 
L 368.445998 249.130229 
L 368.677977 117.728697 
L 368.793967 137.811384 
L 368.909956 118.256754 
L 369.141935 172.956689 
L 369.489904 107.432957 
L 369.605893 123.619194 
L 369.721882 176.496969 
L 369.837872 176.323712 
L 370.069851 184.815024 
L 370.18584 159.354523 
L 370.30183 158.483104 
L 370.417819 179.131923 
L 370.533809 178.002798 
L 370.881777 88.139794 
L 370.997767 103.652622 
L 371.229746 245.34094 
L 371.461725 226.650228 
L 371.577714 231.828406 
L 371.809693 152.514686 
L 371.925683 151.149809 
L 372.041672 175.181398 
L 372.273651 138.085692 
L 372.38964 183.073293 
L 372.853598 110.041102 
L 373.085577 136.380149 
L 373.317556 219.32935 
L 373.549535 151.014179 
L 373.665525 167.434107 
L 373.897504 133.588506 
L 374.013493 147.663833 
L 374.129483 142.190266 
L 374.245472 159.647719 
L 374.477451 197.776296 
L 374.941409 122.03837 
L 375.173388 199.605082 
L 375.521356 144.065376 
L 375.637346 152.498987 
L 375.753335 187.785964 
L 375.869325 181.895455 
L 376.101304 147.868168 
L 376.217293 163.88027 
L 376.333283 197.834645 
L 376.681251 155.801309 
L 376.91323 141.55173 
L 377.02922 131.191787 
L 377.145209 139.096493 
L 377.261198 171.144998 
L 377.493177 149.416117 
L 377.609167 161.945394 
L 377.841146 145.138837 
L 377.957135 146.476272 
L 378.073125 153.457448 
L 378.305104 174.693644 
L 378.421093 175.686531 
L 378.653072 188.441897 
L 379.001041 140.900708 
L 379.11703 133.221163 
L 379.23302 134.887484 
L 379.464999 234.649464 
L 379.928956 137.487665 
L 380.044946 138.056533 
L 380.276925 162.346394 
L 380.508904 176.535485 
L 380.624893 163.184277 
L 380.972862 188.779136 
L 381.32083 113.2234 
L 381.43682 113.354652 
L 381.668799 192.097497 
L 381.784788 178.783731 
L 382.016767 138.933946 
L 382.132757 148.078886 
L 382.248746 141.835924 
L 382.364735 117.771123 
L 382.480725 134.306462 
L 382.712704 212.937105 
L 382.828693 225.892809 
L 382.944683 218.47078 
L 383.292651 130.299548 
L 383.408641 139.470192 
L 383.756609 205.111463 
L 384.220567 92.694783 
L 384.452546 182.853261 
L 384.568536 184.793715 
L 384.684525 213.940605 
L 385.032493 176.976612 
L 385.264472 111.967489 
L 385.380462 78.930757 
L 385.496451 107.797558 
L 385.612441 197.607568 
L 385.960409 180.07996 
L 386.192388 105.210662 
L 386.308378 99.375049 
L 386.656346 210.859647 
L 387.120304 114.985863 
L 387.468272 212.690129 
L 387.700251 171.604442 
L 387.93223 221.654082 
L 388.280199 136.373908 
L 388.512178 180.439634 
L 388.628167 169.870129 
L 388.744157 173.249641 
L 388.860146 187.457968 
L 389.092125 137.979147 
L 389.208115 152.398471 
L 389.324104 143.96568 
L 389.440094 106.288081 
L 389.672072 157.184756 
L 389.788062 130.059037 
L 390.020041 177.305957 
L 390.13603 144.987984 
L 390.25202 144.646007 
L 390.368009 174.020698 
L 390.483999 171.718555 
L 390.599988 136.019398 
L 390.831967 197.244093 
L 391.063946 127.9367 
L 391.295925 143.179045 
L 391.411915 137.485343 
L 391.527904 158.093041 
L 391.643894 210.546937 
L 391.991862 169.806275 
L 392.223841 110.462797 
L 392.571809 196.438403 
L 392.803788 141.357568 
L 392.919778 138.03547 
L 393.151757 168.043246 
L 393.267746 165.241637 
L 393.499725 142.659613 
L 393.615715 150.172457 
L 393.847694 230.902346 
L 394.079673 181.355783 
L 394.195662 185.656623 
L 394.311652 145.499234 
L 394.427641 147.452483 
L 394.543631 163.137857 
L 394.65962 163.546535 
L 395.007588 202.669221 
L 395.123578 187.365019 
L 395.355557 128.766826 
L 395.587536 211.556781 
L 396.051494 119.430811 
L 396.283473 154.840322 
L 396.399462 150.432281 
L 396.515452 140.25453 
L 396.747431 174.339939 
L 397.095399 143.351217 
L 397.211388 151.379462 
L 397.327378 148.742451 
L 397.443367 157.01758 
L 397.559357 194.845716 
L 397.675346 182.905574 
L 397.907325 85.074042 
L 398.139304 109.69585 
L 398.371283 72.333452 
L 398.487273 157.306778 
L 398.487273 157.306778 
" clip-path="url(#pe4d64f90a6)" style="fill: none; stroke: #008000; stroke-width: 1.5; stroke-linecap: square"/>
   </g>
   <g id="patch_3">
    <path d="M 57.6 307.584 
L 57.6 41.472 
" style="fill: none; stroke: #000000; stroke-width: 0.8; stroke-linejoin: miter; stroke-linecap: square"/>
   </g>
   <g id="patch_4">
    <path d="M 414.72 307.584 
L 414.72 41.472 
" style="fill: none; stroke: #000000; stroke-width: 0.8; stroke-linejoin: miter; stroke-linecap: square"/>
   </g>
   <g id="patch_5">
    <path d="M 57.6 307.584 
L 414.72 307.584 
" style="fill: none; stroke: #000000; stroke-width: 0.8; stroke-linejoin: miter; stroke-linecap: square"/>
   </g>
   <g id="patch_6">
    <path d="M 57.6 41.472 
L 414.72 41.472 
" style="fill: none; stroke: #000000; stroke-width: 0.8; stroke-linejoin: miter; stroke-linecap: square"/>
   </g>
  </g>
 </g>
 <defs>
  <clipPath id="pe4d64f90a6">
   <rect x="57.6" y="41.472" width="357.12" height="266.112"/>
  </clipPath>
 </defs>
</svg>
