<?xml version="1.0" encoding="utf-8" standalone="no"?>
<!DOCTYPE svg PUBLIC "-//W3C//DTD SVG 1.1//EN"
  "http://www.w3.org/Graphics/SVG/1.1/DTD/svg11.dtd">
<svg xmlns:xlink="http://www.w3.org/1999/xlink" width="460.8pt" height="345.6pt" viewBox="0 0 460.8 345.6" xmlns="http://www.w3.org/2000/svg" version="1.1">
 <metadata>
  <rdf:RDF xmlns:dc="http://purl.org/dc/elements/1.1/" xmlns:cc="http://creativecommons.org/ns#" xmlns:rdf="http://www.w3.org/1999/02/22-rdf-syntax-ns#">
   <cc:Work>
    <dc:type rdf:resource="http://purl.org/dc/dcmitype/StillImage"/>
    <dc:date>2024-05-15T11:34:01.645756</dc:date>
    <dc:format>image/svg+xml</dc:format>
    <dc:creator>
     <cc:Agent>
      <dc:title>Matplotlib v3.8.2, https://matplotlib.org/</dc:title>
     </cc:Agent>
    </dc:creator>
   </cc:Work>
  </rdf:RDF>
 </metadata>
 <defs>
  <style type="text/css">*{stroke-linejoin: round; stroke-linecap: butt}</style>
 </defs>
 <g id="figure_1">
  <g id="patch_1">
   <path d="M 0 345.6 
L 460.8 345.6 
L 460.8 0 
L 0 0 
z
" style="fill: #ffffff"/>
  </g>
  <g id="axes_1">
   <g id="patch_2">
    <path d="M 57.6 307.584 
L 414.72 307.584 
L 414.72 41.472 
L 57.6 41.472 
z
" style="fill: #ffffff"/>
   </g>
   <g id="matplotlib.axis_1">
    <g id="xtick_1">
     <g id="line2d_1">
      <defs>
       <path id="m07b3e2e2ee" d="M 0 0 
L 0 3.5 
" style="stroke: #000000; stroke-width: 0.8"/>
      </defs>
      <g>
       <use xlink:href="#m07b3e2e2ee" x="73.832727" y="307.584" style="stroke: #000000; stroke-width: 0.8"/>
      </g>
     </g>
     <g id="text_1">
      <!-- 0.0 -->
      <g transform="translate(65.881165 322.182437) scale(0.1 -0.1)">
       <defs>
        <path id="DejaVuSans-30" d="M 2034 4250 
Q 1547 4250 1301 3770 
Q 1056 3291 1056 2328 
Q 1056 1369 1301 889 
Q 1547 409 2034 409 
Q 2525 409 2770 889 
Q 3016 1369 3016 2328 
Q 3016 3291 2770 3770 
Q 2525 4250 2034 4250 
z
M 2034 4750 
Q 2819 4750 3233 4129 
Q 3647 3509 3647 2328 
Q 3647 1150 3233 529 
Q 2819 -91 2034 -91 
Q 1250 -91 836 529 
Q 422 1150 422 2328 
Q 422 3509 836 4129 
Q 1250 4750 2034 4750 
z
" transform="scale(0.015625)"/>
        <path id="DejaVuSans-2e" d="M 684 794 
L 1344 794 
L 1344 0 
L 684 0 
L 684 794 
z
" transform="scale(0.015625)"/>
       </defs>
       <use xlink:href="#DejaVuSans-30"/>
       <use xlink:href="#DejaVuSans-2e" x="63.623047"/>
       <use xlink:href="#DejaVuSans-30" x="95.410156"/>
      </g>
     </g>
    </g>
    <g id="xtick_2">
     <g id="line2d_2">
      <g>
       <use xlink:href="#m07b3e2e2ee" x="114.414545" y="307.584" style="stroke: #000000; stroke-width: 0.8"/>
      </g>
     </g>
     <g id="text_2">
      <!-- 0.5 -->
      <g transform="translate(106.462983 322.182437) scale(0.1 -0.1)">
       <defs>
        <path id="DejaVuSans-35" d="M 691 4666 
L 3169 4666 
L 3169 4134 
L 1269 4134 
L 1269 2991 
Q 1406 3038 1543 3061 
Q 1681 3084 1819 3084 
Q 2600 3084 3056 2656 
Q 3513 2228 3513 1497 
Q 3513 744 3044 326 
Q 2575 -91 1722 -91 
Q 1428 -91 1123 -41 
Q 819 9 494 109 
L 494 744 
Q 775 591 1075 516 
Q 1375 441 1709 441 
Q 2250 441 2565 725 
Q 2881 1009 2881 1497 
Q 2881 1984 2565 2268 
Q 2250 2553 1709 2553 
Q 1456 2553 1204 2497 
Q 953 2441 691 2322 
L 691 4666 
z
" transform="scale(0.015625)"/>
       </defs>
       <use xlink:href="#DejaVuSans-30"/>
       <use xlink:href="#DejaVuSans-2e" x="63.623047"/>
       <use xlink:href="#DejaVuSans-35" x="95.410156"/>
      </g>
     </g>
    </g>
    <g id="xtick_3">
     <g id="line2d_3">
      <g>
       <use xlink:href="#m07b3e2e2ee" x="154.996364" y="307.584" style="stroke: #000000; stroke-width: 0.8"/>
      </g>
     </g>
     <g id="text_3">
      <!-- 1.0 -->
      <g transform="translate(147.044801 322.182437) scale(0.1 -0.1)">
       <defs>
        <path id="DejaVuSans-31" d="M 794 531 
L 1825 531 
L 1825 4091 
L 703 3866 
L 703 4441 
L 1819 4666 
L 2450 4666 
L 2450 531 
L 3481 531 
L 3481 0 
L 794 0 
L 794 531 
z
" transform="scale(0.015625)"/>
       </defs>
       <use xlink:href="#DejaVuSans-31"/>
       <use xlink:href="#DejaVuSans-2e" x="63.623047"/>
       <use xlink:href="#DejaVuSans-30" x="95.410156"/>
      </g>
     </g>
    </g>
    <g id="xtick_4">
     <g id="line2d_4">
      <g>
       <use xlink:href="#m07b3e2e2ee" x="195.578182" y="307.584" style="stroke: #000000; stroke-width: 0.8"/>
      </g>
     </g>
     <g id="text_4">
      <!-- 1.5 -->
      <g transform="translate(187.626619 322.182437) scale(0.1 -0.1)">
       <use xlink:href="#DejaVuSans-31"/>
       <use xlink:href="#DejaVuSans-2e" x="63.623047"/>
       <use xlink:href="#DejaVuSans-35" x="95.410156"/>
      </g>
     </g>
    </g>
    <g id="xtick_5">
     <g id="line2d_5">
      <g>
       <use xlink:href="#m07b3e2e2ee" x="236.16" y="307.584" style="stroke: #000000; stroke-width: 0.8"/>
      </g>
     </g>
     <g id="text_5">
      <!-- 2.0 -->
      <g transform="translate(228.208438 322.182437) scale(0.1 -0.1)">
       <defs>
        <path id="DejaVuSans-32" d="M 1228 531 
L 3431 531 
L 3431 0 
L 469 0 
L 469 531 
Q 828 903 1448 1529 
Q 2069 2156 2228 2338 
Q 2531 2678 2651 2914 
Q 2772 3150 2772 3378 
Q 2772 3750 2511 3984 
Q 2250 4219 1831 4219 
Q 1534 4219 1204 4116 
Q 875 4013 500 3803 
L 500 4441 
Q 881 4594 1212 4672 
Q 1544 4750 1819 4750 
Q 2544 4750 2975 4387 
Q 3406 4025 3406 3419 
Q 3406 3131 3298 2873 
Q 3191 2616 2906 2266 
Q 2828 2175 2409 1742 
Q 1991 1309 1228 531 
z
" transform="scale(0.015625)"/>
       </defs>
       <use xlink:href="#DejaVuSans-32"/>
       <use xlink:href="#DejaVuSans-2e" x="63.623047"/>
       <use xlink:href="#DejaVuSans-30" x="95.410156"/>
      </g>
     </g>
    </g>
    <g id="xtick_6">
     <g id="line2d_6">
      <g>
       <use xlink:href="#m07b3e2e2ee" x="276.741818" y="307.584" style="stroke: #000000; stroke-width: 0.8"/>
      </g>
     </g>
     <g id="text_6">
      <!-- 2.5 -->
      <g transform="translate(268.790256 322.182437) scale(0.1 -0.1)">
       <use xlink:href="#DejaVuSans-32"/>
       <use xlink:href="#DejaVuSans-2e" x="63.623047"/>
       <use xlink:href="#DejaVuSans-35" x="95.410156"/>
      </g>
     </g>
    </g>
    <g id="xtick_7">
     <g id="line2d_7">
      <g>
       <use xlink:href="#m07b3e2e2ee" x="317.323636" y="307.584" style="stroke: #000000; stroke-width: 0.8"/>
      </g>
     </g>
     <g id="text_7">
      <!-- 3.0 -->
      <g transform="translate(309.372074 322.182437) scale(0.1 -0.1)">
       <defs>
        <path id="DejaVuSans-33" d="M 2597 2516 
Q 3050 2419 3304 2112 
Q 3559 1806 3559 1356 
Q 3559 666 3084 287 
Q 2609 -91 1734 -91 
Q 1441 -91 1130 -33 
Q 819 25 488 141 
L 488 750 
Q 750 597 1062 519 
Q 1375 441 1716 441 
Q 2309 441 2620 675 
Q 2931 909 2931 1356 
Q 2931 1769 2642 2001 
Q 2353 2234 1838 2234 
L 1294 2234 
L 1294 2753 
L 1863 2753 
Q 2328 2753 2575 2939 
Q 2822 3125 2822 3475 
Q 2822 3834 2567 4026 
Q 2313 4219 1838 4219 
Q 1578 4219 1281 4162 
Q 984 4106 628 3988 
L 628 4550 
Q 988 4650 1302 4700 
Q 1616 4750 1894 4750 
Q 2613 4750 3031 4423 
Q 3450 4097 3450 3541 
Q 3450 3153 3228 2886 
Q 3006 2619 2597 2516 
z
" transform="scale(0.015625)"/>
       </defs>
       <use xlink:href="#DejaVuSans-33"/>
       <use xlink:href="#DejaVuSans-2e" x="63.623047"/>
       <use xlink:href="#DejaVuSans-30" x="95.410156"/>
      </g>
     </g>
    </g>
    <g id="xtick_8">
     <g id="line2d_8">
      <g>
       <use xlink:href="#m07b3e2e2ee" x="357.905455" y="307.584" style="stroke: #000000; stroke-width: 0.8"/>
      </g>
     </g>
     <g id="text_8">
      <!-- 3.5 -->
      <g transform="translate(349.953892 322.182437) scale(0.1 -0.1)">
       <use xlink:href="#DejaVuSans-33"/>
       <use xlink:href="#DejaVuSans-2e" x="63.623047"/>
       <use xlink:href="#DejaVuSans-35" x="95.410156"/>
      </g>
     </g>
    </g>
    <g id="xtick_9">
     <g id="line2d_9">
      <g>
       <use xlink:href="#m07b3e2e2ee" x="398.487273" y="307.584" style="stroke: #000000; stroke-width: 0.8"/>
      </g>
     </g>
     <g id="text_9">
      <!-- 4.0 -->
      <g transform="translate(390.53571 322.182437) scale(0.1 -0.1)">
       <defs>
        <path id="DejaVuSans-34" d="M 2419 4116 
L 825 1625 
L 2419 1625 
L 2419 4116 
z
M 2253 4666 
L 3047 4666 
L 3047 1625 
L 3713 1625 
L 3713 1100 
L 3047 1100 
L 3047 0 
L 2419 0 
L 2419 1100 
L 313 1100 
L 313 1709 
L 2253 4666 
z
" transform="scale(0.015625)"/>
       </defs>
       <use xlink:href="#DejaVuSans-34"/>
       <use xlink:href="#DejaVuSans-2e" x="63.623047"/>
       <use xlink:href="#DejaVuSans-30" x="95.410156"/>
      </g>
     </g>
    </g>
    <g id="text_10">
     <!-- Time [$s$] -->
     <g transform="translate(215.66 335.860562) scale(0.1 -0.1)">
      <defs>
       <path id="DejaVuSans-54" d="M -19 4666 
L 3928 4666 
L 3928 4134 
L 2272 4134 
L 2272 0 
L 1638 0 
L 1638 4134 
L -19 4134 
L -19 4666 
z
" transform="scale(0.015625)"/>
       <path id="DejaVuSans-69" d="M 603 3500 
L 1178 3500 
L 1178 0 
L 603 0 
L 603 3500 
z
M 603 4863 
L 1178 4863 
L 1178 4134 
L 603 4134 
L 603 4863 
z
" transform="scale(0.015625)"/>
       <path id="DejaVuSans-6d" d="M 3328 2828 
Q 3544 3216 3844 3400 
Q 4144 3584 4550 3584 
Q 5097 3584 5394 3201 
Q 5691 2819 5691 2113 
L 5691 0 
L 5113 0 
L 5113 2094 
Q 5113 2597 4934 2840 
Q 4756 3084 4391 3084 
Q 3944 3084 3684 2787 
Q 3425 2491 3425 1978 
L 3425 0 
L 2847 0 
L 2847 2094 
Q 2847 2600 2669 2842 
Q 2491 3084 2119 3084 
Q 1678 3084 1418 2786 
Q 1159 2488 1159 1978 
L 1159 0 
L 581 0 
L 581 3500 
L 1159 3500 
L 1159 2956 
Q 1356 3278 1631 3431 
Q 1906 3584 2284 3584 
Q 2666 3584 2933 3390 
Q 3200 3197 3328 2828 
z
" transform="scale(0.015625)"/>
       <path id="DejaVuSans-65" d="M 3597 1894 
L 3597 1613 
L 953 1613 
Q 991 1019 1311 708 
Q 1631 397 2203 397 
Q 2534 397 2845 478 
Q 3156 559 3463 722 
L 3463 178 
Q 3153 47 2828 -22 
Q 2503 -91 2169 -91 
Q 1331 -91 842 396 
Q 353 884 353 1716 
Q 353 2575 817 3079 
Q 1281 3584 2069 3584 
Q 2775 3584 3186 3129 
Q 3597 2675 3597 1894 
z
M 3022 2063 
Q 3016 2534 2758 2815 
Q 2500 3097 2075 3097 
Q 1594 3097 1305 2825 
Q 1016 2553 972 2059 
L 3022 2063 
z
" transform="scale(0.015625)"/>
       <path id="DejaVuSans-20" transform="scale(0.015625)"/>
       <path id="DejaVuSans-5b" d="M 550 4863 
L 1875 4863 
L 1875 4416 
L 1125 4416 
L 1125 -397 
L 1875 -397 
L 1875 -844 
L 550 -844 
L 550 4863 
z
" transform="scale(0.015625)"/>
       <path id="DejaVuSans-Oblique-73" d="M 3200 3397 
L 3091 2853 
Q 2863 2978 2609 3040 
Q 2356 3103 2088 3103 
Q 1634 3103 1373 2948 
Q 1113 2794 1113 2528 
Q 1113 2219 1719 2053 
Q 1766 2041 1788 2034 
L 1972 1978 
Q 2547 1819 2739 1644 
Q 2931 1469 2931 1166 
Q 2931 609 2489 259 
Q 2047 -91 1331 -91 
Q 1053 -91 747 -37 
Q 441 16 72 128 
L 184 722 
Q 500 559 806 475 
Q 1113 391 1394 391 
Q 1816 391 2080 572 
Q 2344 753 2344 1031 
Q 2344 1331 1650 1516 
L 1591 1531 
L 1394 1581 
Q 956 1697 753 1886 
Q 550 2075 550 2369 
Q 550 2928 970 3256 
Q 1391 3584 2113 3584 
Q 2397 3584 2667 3537 
Q 2938 3491 3200 3397 
z
" transform="scale(0.015625)"/>
       <path id="DejaVuSans-5d" d="M 1947 4863 
L 1947 -844 
L 622 -844 
L 622 -397 
L 1369 -397 
L 1369 4416 
L 622 4416 
L 622 4863 
L 1947 4863 
z
" transform="scale(0.015625)"/>
      </defs>
      <use xlink:href="#DejaVuSans-54" transform="translate(0 0.015625)"/>
      <use xlink:href="#DejaVuSans-69" transform="translate(61.083984 0.015625)"/>
      <use xlink:href="#DejaVuSans-6d" transform="translate(88.867188 0.015625)"/>
      <use xlink:href="#DejaVuSans-65" transform="translate(186.279297 0.015625)"/>
      <use xlink:href="#DejaVuSans-20" transform="translate(247.802734 0.015625)"/>
      <use xlink:href="#DejaVuSans-5b" transform="translate(279.589844 0.015625)"/>
      <use xlink:href="#DejaVuSans-Oblique-73" transform="translate(318.603516 0.015625)"/>
      <use xlink:href="#DejaVuSans-5d" transform="translate(370.703125 0.015625)"/>
     </g>
    </g>
   </g>
   <g id="matplotlib.axis_2">
    <g id="ytick_1">
     <g id="line2d_10">
      <defs>
       <path id="m1547b5ff1d" d="M 0 0 
L -3.5 0 
" style="stroke: #000000; stroke-width: 0.8"/>
      </defs>
      <g>
       <use xlink:href="#m1547b5ff1d" x="57.6" y="296.013961" style="stroke: #000000; stroke-width: 0.8"/>
      </g>
     </g>
     <g id="text_11">
      <!-- −60 -->
      <g transform="translate(29.495313 299.81318) scale(0.1 -0.1)">
       <defs>
        <path id="DejaVuSans-2212" d="M 678 2272 
L 4684 2272 
L 4684 1741 
L 678 1741 
L 678 2272 
z
" transform="scale(0.015625)"/>
        <path id="DejaVuSans-36" d="M 2113 2584 
Q 1688 2584 1439 2293 
Q 1191 2003 1191 1497 
Q 1191 994 1439 701 
Q 1688 409 2113 409 
Q 2538 409 2786 701 
Q 3034 994 3034 1497 
Q 3034 2003 2786 2293 
Q 2538 2584 2113 2584 
z
M 3366 4563 
L 3366 3988 
Q 3128 4100 2886 4159 
Q 2644 4219 2406 4219 
Q 1781 4219 1451 3797 
Q 1122 3375 1075 2522 
Q 1259 2794 1537 2939 
Q 1816 3084 2150 3084 
Q 2853 3084 3261 2657 
Q 3669 2231 3669 1497 
Q 3669 778 3244 343 
Q 2819 -91 2113 -91 
Q 1303 -91 875 529 
Q 447 1150 447 2328 
Q 447 3434 972 4092 
Q 1497 4750 2381 4750 
Q 2619 4750 2861 4703 
Q 3103 4656 3366 4563 
z
" transform="scale(0.015625)"/>
       </defs>
       <use xlink:href="#DejaVuSans-2212"/>
       <use xlink:href="#DejaVuSans-36" x="83.789062"/>
       <use xlink:href="#DejaVuSans-30" x="147.412109"/>
      </g>
     </g>
    </g>
    <g id="ytick_2">
     <g id="line2d_11">
      <g>
       <use xlink:href="#m1547b5ff1d" x="57.6" y="247.328351" style="stroke: #000000; stroke-width: 0.8"/>
      </g>
     </g>
     <g id="text_12">
      <!-- −40 -->
      <g transform="translate(29.495313 251.12757) scale(0.1 -0.1)">
       <use xlink:href="#DejaVuSans-2212"/>
       <use xlink:href="#DejaVuSans-34" x="83.789062"/>
       <use xlink:href="#DejaVuSans-30" x="147.412109"/>
      </g>
     </g>
    </g>
    <g id="ytick_3">
     <g id="line2d_12">
      <g>
       <use xlink:href="#m1547b5ff1d" x="57.6" y="198.64274" style="stroke: #000000; stroke-width: 0.8"/>
      </g>
     </g>
     <g id="text_13">
      <!-- −20 -->
      <g transform="translate(29.495313 202.441959) scale(0.1 -0.1)">
       <use xlink:href="#DejaVuSans-2212"/>
       <use xlink:href="#DejaVuSans-32" x="83.789062"/>
       <use xlink:href="#DejaVuSans-30" x="147.412109"/>
      </g>
     </g>
    </g>
    <g id="ytick_4">
     <g id="line2d_13">
      <g>
       <use xlink:href="#m1547b5ff1d" x="57.6" y="149.957129" style="stroke: #000000; stroke-width: 0.8"/>
      </g>
     </g>
     <g id="text_14">
      <!-- 0 -->
      <g transform="translate(44.2375 153.756348) scale(0.1 -0.1)">
       <use xlink:href="#DejaVuSans-30"/>
      </g>
     </g>
    </g>
    <g id="ytick_5">
     <g id="line2d_14">
      <g>
       <use xlink:href="#m1547b5ff1d" x="57.6" y="101.271519" style="stroke: #000000; stroke-width: 0.8"/>
      </g>
     </g>
     <g id="text_15">
      <!-- 20 -->
      <g transform="translate(37.875 105.070737) scale(0.1 -0.1)">
       <use xlink:href="#DejaVuSans-32"/>
       <use xlink:href="#DejaVuSans-30" x="63.623047"/>
      </g>
     </g>
    </g>
    <g id="ytick_6">
     <g id="line2d_15">
      <g>
       <use xlink:href="#m1547b5ff1d" x="57.6" y="52.585908" style="stroke: #000000; stroke-width: 0.8"/>
      </g>
     </g>
     <g id="text_16">
      <!-- 40 -->
      <g transform="translate(37.875 56.385127) scale(0.1 -0.1)">
       <use xlink:href="#DejaVuSans-34"/>
       <use xlink:href="#DejaVuSans-30" x="63.623047"/>
      </g>
     </g>
    </g>
    <g id="text_17">
     <!-- Voltage [$mV$] -->
     <g transform="translate(23.395312 207.478) rotate(-90) scale(0.1 -0.1)">
      <defs>
       <path id="DejaVuSans-56" d="M 1831 0 
L 50 4666 
L 709 4666 
L 2188 738 
L 3669 4666 
L 4325 4666 
L 2547 0 
L 1831 0 
z
" transform="scale(0.015625)"/>
       <path id="DejaVuSans-6f" d="M 1959 3097 
Q 1497 3097 1228 2736 
Q 959 2375 959 1747 
Q 959 1119 1226 758 
Q 1494 397 1959 397 
Q 2419 397 2687 759 
Q 2956 1122 2956 1747 
Q 2956 2369 2687 2733 
Q 2419 3097 1959 3097 
z
M 1959 3584 
Q 2709 3584 3137 3096 
Q 3566 2609 3566 1747 
Q 3566 888 3137 398 
Q 2709 -91 1959 -91 
Q 1206 -91 779 398 
Q 353 888 353 1747 
Q 353 2609 779 3096 
Q 1206 3584 1959 3584 
z
" transform="scale(0.015625)"/>
       <path id="DejaVuSans-6c" d="M 603 4863 
L 1178 4863 
L 1178 0 
L 603 0 
L 603 4863 
z
" transform="scale(0.015625)"/>
       <path id="DejaVuSans-74" d="M 1172 4494 
L 1172 3500 
L 2356 3500 
L 2356 3053 
L 1172 3053 
L 1172 1153 
Q 1172 725 1289 603 
Q 1406 481 1766 481 
L 2356 481 
L 2356 0 
L 1766 0 
Q 1100 0 847 248 
Q 594 497 594 1153 
L 594 3053 
L 172 3053 
L 172 3500 
L 594 3500 
L 594 4494 
L 1172 4494 
z
" transform="scale(0.015625)"/>
       <path id="DejaVuSans-61" d="M 2194 1759 
Q 1497 1759 1228 1600 
Q 959 1441 959 1056 
Q 959 750 1161 570 
Q 1363 391 1709 391 
Q 2188 391 2477 730 
Q 2766 1069 2766 1631 
L 2766 1759 
L 2194 1759 
z
M 3341 1997 
L 3341 0 
L 2766 0 
L 2766 531 
Q 2569 213 2275 61 
Q 1981 -91 1556 -91 
Q 1019 -91 701 211 
Q 384 513 384 1019 
Q 384 1609 779 1909 
Q 1175 2209 1959 2209 
L 2766 2209 
L 2766 2266 
Q 2766 2663 2505 2880 
Q 2244 3097 1772 3097 
Q 1472 3097 1187 3025 
Q 903 2953 641 2809 
L 641 3341 
Q 956 3463 1253 3523 
Q 1550 3584 1831 3584 
Q 2591 3584 2966 3190 
Q 3341 2797 3341 1997 
z
" transform="scale(0.015625)"/>
       <path id="DejaVuSans-67" d="M 2906 1791 
Q 2906 2416 2648 2759 
Q 2391 3103 1925 3103 
Q 1463 3103 1205 2759 
Q 947 2416 947 1791 
Q 947 1169 1205 825 
Q 1463 481 1925 481 
Q 2391 481 2648 825 
Q 2906 1169 2906 1791 
z
M 3481 434 
Q 3481 -459 3084 -895 
Q 2688 -1331 1869 -1331 
Q 1566 -1331 1297 -1286 
Q 1028 -1241 775 -1147 
L 775 -588 
Q 1028 -725 1275 -790 
Q 1522 -856 1778 -856 
Q 2344 -856 2625 -561 
Q 2906 -266 2906 331 
L 2906 616 
Q 2728 306 2450 153 
Q 2172 0 1784 0 
Q 1141 0 747 490 
Q 353 981 353 1791 
Q 353 2603 747 3093 
Q 1141 3584 1784 3584 
Q 2172 3584 2450 3431 
Q 2728 3278 2906 2969 
L 2906 3500 
L 3481 3500 
L 3481 434 
z
" transform="scale(0.015625)"/>
       <path id="DejaVuSans-Oblique-6d" d="M 5747 2113 
L 5338 0 
L 4763 0 
L 5166 2094 
Q 5191 2228 5203 2325 
Q 5216 2422 5216 2491 
Q 5216 2772 5059 2928 
Q 4903 3084 4622 3084 
Q 4203 3084 3875 2770 
Q 3547 2456 3450 1953 
L 3066 0 
L 2491 0 
L 2900 2094 
Q 2925 2209 2937 2307 
Q 2950 2406 2950 2484 
Q 2950 2769 2794 2926 
Q 2638 3084 2363 3084 
Q 1938 3084 1609 2770 
Q 1281 2456 1184 1953 
L 800 0 
L 225 0 
L 909 3500 
L 1484 3500 
L 1375 2956 
Q 1609 3263 1923 3423 
Q 2238 3584 2597 3584 
Q 2978 3584 3223 3384 
Q 3469 3184 3519 2828 
Q 3781 3197 4126 3390 
Q 4472 3584 4856 3584 
Q 5306 3584 5551 3325 
Q 5797 3066 5797 2591 
Q 5797 2488 5784 2364 
Q 5772 2241 5747 2113 
z
" transform="scale(0.015625)"/>
       <path id="DejaVuSans-Oblique-56" d="M 1319 0 
L 500 4666 
L 1119 4666 
L 1797 653 
L 4063 4666 
L 4750 4666 
L 2053 0 
L 1319 0 
z
" transform="scale(0.015625)"/>
      </defs>
      <use xlink:href="#DejaVuSans-56" transform="translate(0 0.015625)"/>
      <use xlink:href="#DejaVuSans-6f" transform="translate(68.408203 0.015625)"/>
      <use xlink:href="#DejaVuSans-6c" transform="translate(129.589844 0.015625)"/>
      <use xlink:href="#DejaVuSans-74" transform="translate(157.373047 0.015625)"/>
      <use xlink:href="#DejaVuSans-61" transform="translate(196.582031 0.015625)"/>
      <use xlink:href="#DejaVuSans-67" transform="translate(257.861328 0.015625)"/>
      <use xlink:href="#DejaVuSans-65" transform="translate(321.337891 0.015625)"/>
      <use xlink:href="#DejaVuSans-20" transform="translate(382.861328 0.015625)"/>
      <use xlink:href="#DejaVuSans-5b" transform="translate(414.648438 0.015625)"/>
      <use xlink:href="#DejaVuSans-Oblique-6d" transform="translate(453.662109 0.015625)"/>
      <use xlink:href="#DejaVuSans-Oblique-56" transform="translate(551.074219 0.015625)"/>
      <use xlink:href="#DejaVuSans-5d" transform="translate(619.482422 0.015625)"/>
     </g>
    </g>
   </g>
   <g id="line2d_16">
    <path d="M 73.832727 128.896383 
L 74.296685 217.150939 
L 74.528664 152.965807 
L 74.644654 164.443357 
L 74.760643 138.702445 
L 74.992622 206.899147 
L 75.224601 163.774762 
L 75.34059 162.549004 
L 75.45658 188.624214 
L 75.804548 131.570764 
L 75.920538 140.485365 
L 76.152517 167.117737 
L 76.500485 112.070073 
L 76.732464 159.986056 
L 76.848454 130.456439 
L 76.964443 172.689363 
L 77.080433 128.450653 
L 77.196422 179.486747 
L 77.428401 148.285642 
L 77.776369 174.806581 
L 78.008348 166.114845 
L 78.124338 135.805199 
L 78.240327 144.719801 
L 78.356317 165.89198 
L 78.588296 155.417323 
L 78.704285 150.068562 
L 78.820275 165.223385 
L 79.052254 134.245144 
L 79.168243 165.00052 
L 79.284233 162.771869 
L 79.400222 134.022279 
L 79.516212 160.766084 
L 79.632201 137.030957 
L 79.748191 193.75011 
L 79.86418 171.686471 
L 79.98017 208.013472 
L 80.096159 158.760298 
L 80.212148 177.480962 
L 80.328138 129.899276 
L 80.444127 152.520077 
L 80.560117 149.957129 
L 80.676106 162.771869 
L 80.792096 128.004923 
L 80.908085 145.834126 
L 81.024075 144.162638 
L 81.140064 137.810985 
L 81.256054 171.909336 
L 81.372043 152.965807 
L 81.488033 181.492532 
L 81.604022 159.317461 
L 81.720012 161.880409 
L 81.836001 150.737157 
L 81.951991 169.123523 
L 82.18397 138.47958 
L 82.299959 175.698041 
L 82.531938 133.130819 
L 82.763917 177.480962 
L 82.995896 143.605476 
L 83.111885 159.206029 
L 83.227875 212.470773 
L 83.343864 129.564978 
L 83.459854 152.742942 
L 83.575843 137.365255 
L 83.807822 166.894872 
L 83.923812 139.37104 
L 84.039801 162.771869 
L 84.155791 133.799414 
L 84.38777 158.760298 
L 84.503759 149.511399 
L 84.735738 163.774762 
L 84.967717 142.379718 
L 85.083707 147.171316 
L 85.199696 126.890598 
L 85.431675 179.15245 
L 85.547664 179.486747 
L 85.663654 156.308783 
L 85.779643 159.094596 
L 85.895633 187.175591 
L 86.127612 129.119248 
L 86.243601 187.732754 
L 86.47558 102.821174 
L 86.939538 196.090193 
L 87.055528 155.863053 
L 87.171517 158.648866 
L 87.287507 135.805199 
L 87.403496 185.615536 
L 87.635475 123.547622 
L 87.751464 152.854375 
L 87.867454 147.505614 
L 88.099433 155.528755 
L 88.215422 152.520077 
L 88.331412 154.748728 
L 88.563391 171.017876 
L 88.67938 147.617047 
L 88.911359 156.308783 
L 89.027349 177.926692 
L 89.143338 138.256715 
L 89.259328 161.657544 
L 89.491307 136.25093 
L 89.607296 189.961404 
L 89.839275 155.528755 
L 90.071254 176.366637 
L 90.187243 135.582334 
L 90.303233 185.058373 
L 90.535212 151.851482 
L 90.651201 202.887576 
L 90.99917 159.874624 
L 91.115159 153.07724 
L 91.231149 156.754513 
L 91.463128 112.40437 
L 91.579117 192.635784 
L 91.811096 134.913739 
L 91.927086 152.965807 
L 92.043075 132.127926 
L 92.159065 176.589502 
L 92.275054 154.191565 
L 92.391044 172.577931 
L 92.507033 170.683578 
L 92.623023 147.171316 
L 92.855001 168.56636 
L 92.970991 124.216217 
L 93.20297 180.601072 
L 93.318959 133.576549 
L 93.434949 162.549004 
L 93.550938 151.182887 
L 93.666928 158.983164 
L 93.782917 151.628617 
L 93.898907 182.71829 
L 94.130886 154.748728 
L 94.246875 165.223385 
L 94.362865 131.570764 
L 94.478854 141.15396 
L 94.594844 165.111952 
L 94.710833 145.165531 
L 94.826823 184.166913 
L 94.942812 141.15396 
L 95.058802 164.109059 
L 95.174791 137.922417 
L 95.29078 158.091703 
L 95.522759 153.300105 
L 95.638749 179.486747 
L 95.754738 134.022279 
L 95.870728 182.606858 
L 96.102707 144.719801 
L 96.334686 190.964297 
L 96.450675 152.742942 
L 96.566665 185.949833 
L 96.682654 159.428894 
L 96.798644 175.363744 
L 96.914633 157.645973 
L 97.146612 111.290045 
L 97.378591 130.233573 
L 97.494581 177.480962 
L 97.61057 142.268286 
L 97.726559 182.383993 
L 97.842549 159.651759 
L 97.958538 161.880409 
L 98.074528 144.051206 
L 98.190517 182.161128 
L 98.422496 136.473795 
L 98.654475 167.22917 
L 98.886454 112.8501 
L 99.002444 135.136604 
L 99.118433 135.805199 
L 99.234423 167.340602 
L 99.350412 151.962915 
L 99.466402 159.986056 
L 99.582391 188.735646 
L 99.698381 138.92531 
L 99.81437 141.822556 
L 99.93036 135.248037 
L 100.162338 153.9687 
L 100.278328 134.913739 
L 100.394317 174.137986 
L 100.510307 143.605476 
L 100.626296 151.851482 
L 100.742286 169.123523 
L 101.090254 152.520077 
L 101.206244 155.640188 
L 101.322233 178.595287 
L 101.438223 141.15396 
L 101.670202 166.114845 
L 101.786191 127.336328 
L 102.01817 188.847079 
L 102.13416 157.088811 
L 102.250149 166.114845 
L 102.366139 124.77338 
L 102.482128 141.488258 
L 102.598118 132.016494 
L 102.714107 149.399967 
L 102.830096 142.268286 
L 102.946086 185.726968 
L 103.178065 160.766084 
L 103.294054 182.27256 
L 103.526033 128.339221 
L 103.642023 159.763191 
L 103.758012 153.857268 
L 103.874002 195.0873 
L 103.989991 166.226277 
L 104.105981 195.53303 
L 104.453949 112.627235 
L 104.569939 119.090322 
L 104.685928 157.534541 
L 104.801918 125.553408 
L 105.033897 182.829723 
L 105.265875 130.456439 
L 105.381865 186.061266 
L 105.497854 155.194458 
L 105.613844 157.200243 
L 105.729833 170.795011 
L 105.845823 224.951215 
L 106.077802 155.974485 
L 106.193791 164.554789 
L 106.309781 101.372551 
L 106.42577 117.975996 
L 106.54176 151.182887 
L 106.657749 139.81677 
L 106.773739 174.026554 
L 106.889728 150.960022 
L 107.005718 172.577931 
L 107.121707 166.33771 
L 107.237697 170.572146 
L 107.353686 190.852864 
L 107.585665 152.965807 
L 107.701654 160.988949 
L 107.817644 151.851482 
L 107.933633 175.698041 
L 108.049623 115.078751 
L 108.513581 154.302998 
L 108.62957 148.062777 
L 108.74556 157.200243 
L 108.861549 175.252311 
L 109.093528 147.059884 
L 109.325507 175.363744 
L 109.441497 122.210432 
L 109.557486 167.6749 
L 109.673476 151.071455 
L 109.789465 175.698041 
L 110.021444 172.466498 
L 110.137433 166.78344 
L 110.717381 100.815388 
L 111.065349 214.030828 
L 111.181339 179.821045 
L 111.297328 203.779036 
L 111.529307 147.059884 
L 111.645297 161.657544 
L 111.761286 137.365255 
L 111.877276 151.628617 
L 111.993265 209.796392 
L 112.225244 163.997627 
L 112.457223 143.828341 
L 112.573213 171.463606 
L 112.689202 140.596798 
L 112.805191 157.200243 
L 112.921181 121.987567 
L 113.03717 178.372422 
L 113.15316 157.311676 
L 113.269149 189.292809 
L 113.385139 133.576549 
L 113.501128 165.669115 
L 113.733107 136.25093 
L 113.849097 128.450653 
L 113.965086 132.462224 
L 114.081076 178.929585 
L 114.197065 165.223385 
L 114.313055 174.360851 
L 114.429044 162.103274 
L 114.545034 182.161128 
L 114.661023 139.593905 
L 114.777013 165.223385 
L 114.893002 139.37104 
L 115.008992 160.766084 
L 115.124981 150.068562 
L 115.24097 150.737157 
L 115.472949 179.263882 
L 115.588939 149.845697 
L 115.704928 165.89198 
L 115.820918 142.379718 
L 115.936907 161.546111 
L 116.052897 131.459331 
L 116.168886 152.074347 
L 116.284876 118.978889 
L 116.516855 170.795011 
L 116.632844 188.735646 
L 116.748834 181.603965 
L 116.864823 189.961404 
L 116.980813 142.491151 
L 117.096802 153.634403 
L 117.212792 119.424619 
L 117.328781 166.449142 
L 117.56076 151.74005 
L 117.676749 152.520077 
L 117.792739 130.679304 
L 117.908728 159.651759 
L 118.024718 146.279856 
L 118.140707 191.744324 
L 118.256697 128.004923 
L 118.488676 163.217599 
L 118.604665 138.256715 
L 118.720655 169.01209 
L 118.836644 165.44625 
L 119.068623 187.955619 
L 119.184613 153.634403 
L 119.300602 178.038124 
L 119.416592 148.174209 
L 119.648571 182.71829 
L 119.76456 145.611261 
L 119.88055 170.906443 
L 119.996539 163.663329 
L 120.228518 129.564978 
L 120.460497 149.845697 
L 120.576486 176.589502 
L 120.808465 154.525863 
L 120.924455 162.771869 
L 121.040444 142.714016 
L 121.156434 156.197351 
L 121.272423 134.913739 
L 121.388413 146.391289 
L 121.620392 139.593905 
L 121.736381 169.346388 
L 121.852371 153.188673 
L 122.200339 207.790607 
L 122.432318 140.485365 
L 122.548308 154.637295 
L 122.664297 187.175591 
L 122.780286 138.47958 
L 122.896276 139.81677 
L 123.012265 184.501211 
L 123.244244 136.473795 
L 123.360234 160.766084 
L 123.592213 131.347899 
L 123.708202 180.823937 
L 123.824192 138.47958 
L 123.940181 159.206029 
L 124.056171 144.496936 
L 124.28815 190.964297 
L 124.520129 133.353684 
L 124.636118 133.130819 
L 124.752108 139.036743 
L 124.868097 171.463606 
L 124.984087 157.200243 
L 125.216065 175.586609 
L 125.332055 183.944048 
L 125.448044 160.988949 
L 125.564034 178.372422 
L 125.796013 145.054099 
L 125.912002 125.441975 
L 126.143981 176.366637 
L 126.259971 147.394181 
L 126.37596 149.845697 
L 126.49195 138.702445 
L 126.607939 189.292809 
L 126.839918 158.983164 
L 127.071897 141.933988 
L 127.187887 174.472284 
L 127.303876 128.450653 
L 127.535855 162.549004 
L 127.651844 192.635784 
L 127.767834 142.268286 
L 127.883823 181.492532 
L 127.999813 158.091703 
L 128.115802 181.269667 
L 128.231792 177.703827 
L 128.347781 142.936881 
L 128.463771 180.93537 
L 128.811739 124.439082 
L 128.927729 167.6749 
L 129.043718 164.443357 
L 129.391687 128.004923 
L 129.507676 141.59969 
L 129.623666 197.31595 
L 129.855645 167.563468 
L 129.971634 170.906443 
L 130.203613 106.721312 
L 130.319602 177.146664 
L 130.435592 145.165531 
L 130.551581 150.737157 
L 130.78356 175.029446 
L 130.89955 166.560575 
L 131.015539 185.058373 
L 131.247518 117.530266 
L 131.479497 162.326139 
L 131.595487 142.602583 
L 131.711476 170.572146 
L 131.827466 168.343495 
L 131.943455 169.90355 
L 132.059445 133.799414 
L 132.175434 140.485365 
L 132.291424 210.799285 
L 132.407413 203.556171 
L 132.639392 136.028064 
L 132.755381 165.00052 
L 132.871371 98.363873 
L 132.98736 160.097489 
L 133.10335 154.41443 
L 133.219339 157.645973 
L 133.451318 121.987567 
L 133.567308 134.133712 
L 133.683297 118.310294 
L 133.799287 136.028064 
L 133.915276 181.269667 
L 134.147255 111.06718 
L 134.379234 136.139497 
L 134.495224 76.077369 
L 134.611213 84.991971 
L 134.727203 114.187291 
L 134.843192 101.595416 
L 134.959182 129.899276 
L 135.075171 115.747346 
L 135.655118 266.29268 
L 135.771108 259.495296 
L 136.119076 212.80507 
L 136.235066 208.682067 
L 136.351055 180.48964 
L 136.467045 246.791989 
L 136.583034 202.441846 
L 136.699024 243.003283 
L 137.046992 125.999138 
L 137.162982 106.387014 
L 137.394961 131.570764 
L 137.51095 131.570764 
L 137.626939 132.462224 
L 137.742929 139.148175 
L 137.858918 112.070073 
L 137.974908 125.107678 
L 138.090897 161.657544 
L 138.322876 127.113463 
L 138.438866 160.097489 
L 138.554855 146.725586 
L 138.670845 156.531648 
L 138.786834 155.974485 
L 138.902824 144.942666 
L 139.018813 144.719801 
L 139.134803 153.9687 
L 139.250792 128.673518 
L 139.366782 137.365255 
L 139.482771 179.263882 
L 139.598761 125.330543 
L 139.71475 171.686471 
L 140.062719 137.365255 
L 140.294697 156.085918 
L 140.410687 123.770487 
L 140.642666 147.394181 
L 140.758655 186.618428 
L 140.874645 149.177102 
L 140.990634 184.166913 
L 141.222613 123.88192 
L 141.454592 186.841293 
L 141.686571 145.611261 
L 141.802561 176.143772 
L 141.91855 130.902169 
L 142.03454 170.349281 
L 142.266519 163.663329 
L 142.382508 187.398456 
L 142.498498 139.705338 
L 142.614487 152.520077 
L 142.730476 135.582334 
L 142.846466 181.603965 
L 142.962455 147.839912 
L 143.078445 148.731372 
L 143.194434 165.223385 
L 143.310424 149.511399 
L 143.542403 162.883302 
L 143.658392 107.501339 
L 143.890371 169.234955 
L 144.12235 138.813877 
L 144.354329 185.058373 
L 144.470319 149.622832 
L 144.586308 157.868838 
L 144.702298 128.116356 
L 144.818287 140.596798 
L 144.934277 137.030957 
L 145.166255 176.589502 
L 145.398234 149.511399 
L 145.514224 166.33771 
L 145.630213 213.807963 
L 145.746203 150.291427 
L 145.862192 173.023661 
L 145.978182 148.731372 
L 146.094171 156.977378 
L 146.210161 128.450653 
L 146.32615 174.137986 
L 146.674119 137.030957 
L 146.790108 150.960022 
L 146.906098 142.379718 
L 147.254066 178.260989 
L 147.370056 149.177102 
L 147.486045 163.663329 
L 147.602034 114.633021 
L 147.718024 140.596798 
L 147.834013 119.090322 
L 148.065992 177.258097 
L 148.181982 210.242123 
L 148.52995 157.200243 
L 148.64594 153.9687 
L 148.761929 143.828341 
L 148.877919 158.314568 
L 149.109898 127.113463 
L 149.457866 176.143772 
L 149.573856 142.268286 
L 149.805835 166.33771 
L 149.921824 167.897765 
L 150.037814 165.89198 
L 150.153803 119.758917 
L 150.617761 179.709612 
L 150.73375 154.86016 
L 150.84974 168.12063 
L 150.965729 167.22917 
L 151.197708 145.611261 
L 151.313698 174.806581 
L 151.429687 167.452035 
L 151.545677 144.496936 
L 151.661666 146.279856 
L 151.777656 191.298594 
L 152.009635 145.165531 
L 152.125624 176.366637 
L 152.241614 134.913739 
L 152.357603 146.725586 
L 152.473593 144.385503 
L 152.589582 158.648866 
L 152.705571 146.948451 
L 152.93755 159.651759 
L 153.05354 156.977378 
L 153.169529 161.991842 
L 153.285519 153.07724 
L 153.401508 158.983164 
L 153.517498 176.812367 
L 153.749477 117.307401 
L 153.865466 144.051206 
L 154.097445 122.767595 
L 154.213435 154.525863 
L 154.329424 147.394181 
L 154.445414 183.721183 
L 154.561403 184.05548 
L 154.677393 192.301487 
L 154.793382 142.714016 
L 154.909372 146.502721 
L 155.025361 181.3811 
L 155.14135 173.692256 
L 155.373329 125.999138 
L 155.489319 133.799414 
L 155.605308 173.469391 
L 155.721298 168.009198 
L 155.837287 137.365255 
L 155.953277 152.965807 
L 156.185256 144.719801 
L 156.301245 168.56636 
L 156.417235 155.863053 
L 156.649214 171.240741 
L 156.765203 155.75162 
L 156.881193 158.537433 
L 156.997182 205.339092 
L 157.113172 195.53303 
L 157.229161 142.379718 
L 157.345151 170.795011 
L 157.577129 114.633021 
L 157.809108 165.89198 
L 157.925098 131.570764 
L 158.041087 142.379718 
L 158.157077 189.069944 
L 158.273066 161.657544 
L 158.389056 167.22917 
L 158.621035 153.188673 
L 158.737024 181.492532 
L 159.084993 149.845697 
L 159.200982 175.698041 
L 159.316972 127.336328 
L 159.432961 163.663329 
L 159.66494 147.617047 
L 159.78093 160.766084 
L 159.896919 151.628617 
L 160.012909 162.771869 
L 160.128898 158.760298 
L 160.244887 174.137986 
L 160.476866 134.690874 
L 160.592856 137.810985 
L 160.824835 160.097489 
L 160.940824 128.784951 
L 161.172803 198.876006 
L 161.288793 153.52297 
L 161.404782 178.372422 
L 161.520772 144.719801 
L 161.636761 192.301487 
L 161.752751 163.440464 
L 161.86874 190.629999 
L 161.98473 127.113463 
L 162.100719 151.405752 
L 162.216709 145.388396 
L 162.332698 146.056991 
L 162.448688 188.624214 
L 162.564677 162.994734 
L 162.680666 182.495425 
L 162.912645 152.520077 
L 163.144624 187.621321 
L 163.376603 123.324757 
L 163.492593 143.828341 
L 163.608582 133.130819 
L 163.724572 193.75011 
L 163.840561 180.155342 
L 163.956551 185.392671 
L 164.18853 129.119248 
L 164.420509 141.265393 
L 164.536498 159.428894 
L 164.652488 140.596798 
L 164.768477 141.711123 
L 164.884467 148.508507 
L 165.000456 173.023661 
L 165.116445 165.44625 
L 165.232435 139.81677 
L 165.580403 199.321736 
L 165.812382 135.805199 
L 165.928372 133.353684 
L 166.27634 149.177102 
L 166.39233 144.051206 
L 166.624309 167.006305 
L 166.740298 149.845697 
L 166.856288 159.540326 
L 166.972277 159.317461 
L 167.088267 161.657544 
L 167.320246 147.394181 
L 167.552224 130.233573 
L 167.668214 166.78344 
L 167.784203 152.520077 
L 168.016182 188.401349 
L 168.132172 152.18578 
L 168.248161 183.275453 
L 168.48014 126.890598 
L 168.59613 169.90355 
L 168.712119 168.343495 
L 168.944098 127.782058 
L 169.060088 150.291427 
L 169.292067 131.347899 
L 169.640035 191.521459 
L 169.988004 107.389907 
L 170.103993 140.485365 
L 170.219982 133.353684 
L 170.335972 143.271178 
L 170.567951 175.252311 
L 170.68394 185.504103 
L 170.79993 161.880409 
L 170.915919 177.035232 
L 171.031909 150.291427 
L 171.147898 167.786333 
L 171.263888 139.705338 
L 171.379877 146.279856 
L 171.495867 186.172698 
L 171.611856 136.25093 
L 171.727846 175.252311 
L 171.843835 136.919525 
L 172.075814 191.075729 
L 172.307793 100.481091 
L 172.423783 152.854375 
L 172.539772 153.188673 
L 172.655761 169.01209 
L 173.00373 134.913739 
L 173.119719 140.2625 
L 173.235709 168.12063 
L 173.351698 144.051206 
L 173.467688 206.453417 
L 173.699667 153.857268 
L 173.815656 151.851482 
L 173.931646 175.475176 
L 174.163625 117.084536 
L 174.279614 150.179994 
L 174.395604 127.336328 
L 174.511593 138.256715 
L 174.627583 211.356448 
L 174.743572 203.110441 
L 174.975551 152.742942 
L 175.09154 185.058373 
L 175.20753 126.667733 
L 175.439509 161.434679 
L 175.671488 164.554789 
L 175.787477 135.136604 
L 175.903467 177.926692 
L 176.019456 128.450653 
L 176.251435 138.702445 
L 176.367425 109.952855 
L 176.599404 170.126415 
L 176.715393 129.564978 
L 176.831383 155.194458 
L 176.947372 145.834126 
L 177.063362 151.628617 
L 177.179351 186.841293 
L 177.295341 165.00052 
L 177.41133 167.897765 
L 177.527319 166.78344 
L 177.643309 116.527374 
L 177.875288 185.726968 
L 178.107267 143.605476 
L 178.223256 166.560575 
L 178.339246 158.091703 
L 178.571225 134.133712 
L 178.687214 181.715398 
L 179.035183 124.216217 
L 179.151172 188.067051 
L 179.383151 144.719801 
L 179.499141 155.083025 
L 179.61513 144.496936 
L 179.73112 202.330414 
L 179.847109 163.663329 
L 179.963099 181.046802 
L 180.079088 143.828341 
L 180.195077 163.217599 
L 180.427056 121.876135 
L 180.543046 138.92531 
L 180.659035 178.260989 
L 180.775025 163.886194 
L 180.891014 125.330543 
L 181.007004 175.252311 
L 181.122993 151.182887 
L 181.238983 191.632892 
L 181.586951 142.268286 
L 181.81893 170.906443 
L 182.050909 124.550515 
L 182.282888 181.269667 
L 182.398878 143.828341 
L 182.514867 145.611261 
L 182.746846 174.583716 
L 182.862835 174.472284 
L 182.978825 135.805199 
L 183.094814 135.248037 
L 183.326793 151.182887 
L 183.442783 183.721183 
L 183.558772 174.806581 
L 183.674762 183.944048 
L 183.790751 150.068562 
L 183.906741 152.965807 
L 184.02273 162.883302 
L 184.254709 143.271178 
L 184.486688 162.660437 
L 184.602678 161.880409 
L 184.718667 135.582334 
L 184.950646 150.960022 
L 185.066635 146.279856 
L 185.298614 154.86016 
L 185.414604 127.782058 
L 185.646583 157.645973 
L 185.762572 174.806581 
L 185.878562 172.132201 
L 185.994551 188.178484 
L 186.110541 185.615536 
L 186.22653 151.182887 
L 186.34252 151.29432 
L 186.458509 157.868838 
L 186.574499 170.795011 
L 186.690488 211.02215 
L 186.806478 147.617047 
L 186.922467 150.291427 
L 187.038457 167.006305 
L 187.154446 96.580953 
L 187.386425 140.2625 
L 187.502414 135.916632 
L 187.618404 144.162638 
L 187.850383 187.398456 
L 188.082362 149.399967 
L 188.314341 205.561957 
L 188.43033 143.271178 
L 188.662309 187.955619 
L 188.778299 137.365255 
L 188.894288 159.317461 
L 189.010278 157.423108 
L 189.126267 126.222003 
L 189.242257 144.274071 
L 189.358246 181.3811 
L 189.474236 167.22917 
L 189.590225 208.682067 
L 189.822204 158.091703 
L 189.938194 123.88192 
L 190.054183 188.624214 
L 190.286162 131.347899 
L 190.402151 119.981782 
L 190.518141 152.520077 
L 190.75012 111.06718 
L 190.982099 171.352173 
L 191.098088 127.336328 
L 191.330067 156.531648 
L 191.446057 155.417323 
L 191.562046 171.017876 
L 191.678036 167.006305 
L 191.794025 183.275453 
L 191.910015 132.907954 
L 192.026004 171.463606 
L 192.141994 170.572146 
L 192.373973 144.051206 
L 192.489962 156.308783 
L 192.605951 207.122012 
L 192.83793 127.113463 
L 192.95392 145.834126 
L 193.185899 131.459331 
L 193.417878 199.321736 
L 193.533867 166.114845 
L 193.649857 169.123523 
L 193.765846 128.116356 
L 194.113815 183.052588 
L 194.345794 154.080133 
L 194.461783 182.71829 
L 194.693762 144.719801 
L 194.809752 189.738539 
L 195.04173 123.659055 
L 195.15772 171.352173 
L 195.273709 126.5563 
L 195.389699 149.845697 
L 195.505688 120.761809 
L 195.621678 156.197351 
L 195.737667 147.171316 
L 195.969646 212.470773 
L 196.201625 145.054099 
L 196.317615 146.725586 
L 196.433604 142.045421 
L 196.549594 146.725586 
L 196.665583 142.602583 
L 196.781573 132.685089 
L 197.013552 157.645973 
L 197.129541 153.857268 
L 197.245531 192.635784 
L 197.36152 149.288534 
L 197.47751 160.988949 
L 197.593499 161.434679 
L 197.709488 129.564978 
L 197.825478 165.44625 
L 197.941467 153.745835 
L 198.057457 161.323246 
L 198.173446 142.268286 
L 198.289436 183.944048 
L 198.521415 154.748728 
L 198.637404 212.35934 
L 198.869383 124.216217 
L 198.985373 128.116356 
L 199.101362 136.69666 
L 199.217352 162.326139 
L 199.333341 144.719801 
L 199.56532 173.803689 
L 199.68131 128.673518 
L 199.797299 168.009198 
L 199.913289 138.256715 
L 200.029278 138.03385 
L 200.145267 175.920906 
L 200.261257 152.742942 
L 200.493236 193.75011 
L 200.725215 151.405752 
L 200.841204 131.682196 
L 200.957194 177.258097 
L 201.073183 157.645973 
L 201.189173 217.373804 
L 201.421152 152.965807 
L 201.537141 154.971593 
L 201.653131 182.495425 
L 201.76912 137.030957 
L 201.88511 141.15396 
L 202.117089 125.330543 
L 202.233078 163.997627 
L 202.349068 125.999138 
L 202.465057 169.90355 
L 202.581046 124.996245 
L 202.813025 183.498318 
L 202.929015 138.92531 
L 203.045004 152.074347 
L 203.160994 134.468009 
L 203.276983 149.177102 
L 203.392973 182.161128 
L 203.624952 140.485365 
L 203.740941 169.569253 
L 203.856931 158.091703 
L 203.97292 209.796392 
L 204.08891 162.549004 
L 204.204899 169.234955 
L 204.436878 116.638806 
L 204.552868 151.405752 
L 204.668857 108.058502 
L 204.784847 175.252311 
L 204.900836 136.139497 
L 205.016825 177.592394 
L 205.132815 162.771869 
L 205.248804 210.019257 
L 205.364794 171.797903 
L 205.480783 208.904932 
L 205.596773 150.514292 
L 205.712762 167.897765 
L 205.828752 147.617047 
L 205.944741 157.534541 
L 206.060731 142.268286 
L 206.17672 181.715398 
L 206.29271 151.851482 
L 206.408699 168.56636 
L 206.524689 116.861671 
L 206.756668 166.560575 
L 206.872657 129.787843 
L 206.988647 133.130819 
L 207.104636 118.198861 
L 207.220626 120.316079 
L 207.336615 132.016494 
L 207.684583 71.842933 
L 207.800573 123.547622 
L 207.916562 75.965936 
L 208.264531 175.586609 
L 208.38052 168.789225 
L 208.49651 215.479451 
L 208.612499 209.127797 
L 208.728489 257.712376 
L 208.844478 252.920778 
L 208.960468 295.488 
L 209.308436 174.026554 
L 209.424426 178.372422 
L 209.656405 216.259479 
L 209.772394 238.545982 
L 210.120362 119.536052 
L 210.236352 103.601201 
L 210.352341 68.277093 
L 210.468331 139.148175 
L 210.58432 75.965936 
L 210.70031 125.330543 
L 210.816299 124.32765 
L 210.932289 157.200243 
L 211.048278 123.324757 
L 211.164268 181.492532 
L 211.396247 152.965807 
L 211.512236 169.45782 
L 211.628226 121.541837 
L 211.744215 151.071455 
L 211.860205 144.496936 
L 211.976194 169.680685 
L 212.208173 129.119248 
L 212.324163 136.028064 
L 212.440152 158.091703 
L 212.556141 157.200243 
L 212.672131 165.557682 
L 212.78812 149.177102 
L 212.90411 191.967189 
L 213.020099 136.69666 
L 213.136089 167.22917 
L 213.252078 157.200243 
L 213.368068 186.618428 
L 213.484057 128.450653 
L 213.600047 135.136604 
L 213.948015 169.680685 
L 214.064005 139.37104 
L 214.179994 152.408645 
L 214.295984 196.42449 
L 214.527963 167.340602 
L 214.643952 199.990331 
L 214.759942 135.136604 
L 214.875931 142.714016 
L 214.99192 112.40437 
L 215.10791 192.412919 
L 215.339889 135.470902 
L 215.455878 168.343495 
L 215.687857 151.182887 
L 215.803847 152.18578 
L 215.919836 127.336328 
L 216.035826 149.399967 
L 216.151815 145.276964 
L 216.267805 178.706719 
L 216.499784 145.276964 
L 216.615773 151.851482 
L 216.731763 177.926692 
L 216.847752 158.537433 
L 216.963742 157.868838 
L 217.079731 147.617047 
L 217.195721 167.786333 
L 217.31171 144.385503 
L 217.4277 163.663329 
L 217.543689 141.822556 
L 217.659678 149.622832 
L 217.775668 165.223385 
L 217.891657 154.302998 
L 218.007647 185.169806 
L 218.123636 110.955748 
L 218.239626 108.83853 
L 218.471605 169.680685 
L 218.587594 159.986056 
L 218.703584 168.56636 
L 218.819573 188.624214 
L 218.935563 173.692256 
L 219.051552 124.439082 
L 219.167542 128.339221 
L 219.283531 194.64157 
L 219.399521 171.017876 
L 219.51551 177.703827 
L 219.747489 146.279856 
L 219.863479 156.865946 
L 219.979468 157.200243 
L 220.095457 158.314568 
L 220.211447 186.952726 
L 220.327436 152.965807 
L 220.443426 177.815259 
L 220.675405 132.573656 
L 220.791394 132.907954 
L 220.907384 131.570764 
L 221.023373 175.698041 
L 221.139363 136.25093 
L 221.255352 199.321736 
L 221.371342 160.877516 
L 221.487331 189.515674 
L 221.603321 155.640188 
L 221.71931 200.436061 
L 221.8353 162.883302 
L 221.951289 182.829723 
L 222.183268 121.207539 
L 222.299258 128.450653 
L 222.415247 107.94707 
L 222.531236 121.764702 
L 222.763215 185.281238 
L 222.879205 145.611261 
L 223.111184 182.383993 
L 223.227173 184.278345 
L 223.343163 133.687982 
L 223.459152 166.114845 
L 223.575142 148.285642 
L 223.691131 150.40286 
L 223.807121 148.062777 
L 223.92311 155.528755 
L 224.0391 143.939773 
L 224.155089 157.534541 
L 224.271079 142.936881 
L 224.503058 190.184269 
L 224.619047 148.954237 
L 224.735037 171.575038 
L 224.851026 138.03385 
L 225.198994 175.140879 
L 225.314984 126.444868 
L 225.430973 152.297212 
L 225.546963 125.999138 
L 225.662952 158.314568 
L 225.778942 156.643081 
L 225.894931 138.47958 
L 226.010921 144.051206 
L 226.12691 137.365255 
L 226.2429 157.200243 
L 226.358889 136.139497 
L 226.590868 171.686471 
L 226.706858 169.90355 
L 226.822847 177.258097 
L 227.054826 149.177102 
L 227.170816 173.915121 
L 227.286805 135.359469 
L 227.402795 150.737157 
L 227.518784 182.161128 
L 227.634773 143.939773 
L 227.750763 157.645973 
L 227.866752 138.702445 
L 227.982742 138.813877 
L 228.214721 155.083025 
L 228.33071 176.812367 
L 228.4467 149.957129 
L 228.678679 162.326139 
L 228.794668 129.787843 
L 228.910658 163.551897 
L 229.026647 158.983164 
L 229.142637 162.994734 
L 229.374616 146.168424 
L 229.490605 149.399967 
L 229.606595 147.505614 
L 229.722584 154.302998 
L 229.838574 193.081515 
L 230.070552 154.525863 
L 230.186542 144.274071 
L 230.302531 101.595416 
L 230.53451 149.177102 
L 230.766489 163.997627 
L 230.882479 228.071326 
L 231.114458 166.114845 
L 231.230447 136.139497 
L 231.346437 180.04391 
L 231.578416 128.004923 
L 231.694405 146.948451 
L 231.810395 131.570764 
L 231.926384 194.864435 
L 232.042374 125.107678 
L 232.158363 171.240741 
L 232.390342 161.434679 
L 232.506331 166.449142 
L 232.622321 132.016494 
L 232.8543 156.754513 
L 232.970289 153.07724 
L 233.086279 114.298723 
L 233.202268 142.714016 
L 233.318258 134.913739 
L 233.434247 180.712505 
L 233.550237 152.520077 
L 233.666226 164.666222 
L 233.782216 149.845697 
L 234.014195 184.835508 
L 234.130184 144.496936 
L 234.246174 171.240741 
L 234.362163 154.971593 
L 234.478153 191.744324 
L 234.710132 150.514292 
L 234.826121 176.812367 
L 235.0581 127.336328 
L 235.174089 181.492532 
L 235.290079 160.877516 
L 235.406068 177.146664 
L 235.522058 153.9687 
L 235.638047 167.340602 
L 235.870026 126.222003 
L 236.217995 161.657544 
L 236.333984 138.47958 
L 236.449974 139.705338 
L 236.565963 186.841293 
L 236.681953 168.900658 
L 236.797942 178.706719 
L 236.913932 168.343495 
L 237.029921 145.165531 
L 237.145911 170.349281 
L 237.2619 167.22917 
L 237.37789 117.530266 
L 237.493879 139.81677 
L 237.609868 129.007816 
L 237.725858 172.912228 
L 237.957837 124.661947 
L 238.073826 152.408645 
L 238.189816 134.245144 
L 238.305805 160.766084 
L 238.421795 160.097489 
L 238.653774 188.624214 
L 238.769763 149.734264 
L 239.001742 167.22917 
L 239.117732 168.232063 
L 239.233721 124.996245 
L 239.4657 158.760298 
L 239.58169 156.085918 
L 239.697679 134.468009 
L 239.929658 208.124905 
L 240.045647 164.777655 
L 240.161637 171.352173 
L 240.277626 105.829852 
L 240.393616 133.576549 
L 240.509605 112.627235 
L 240.625595 143.382611 
L 240.741584 132.907954 
L 240.857574 179.821045 
L 240.973563 167.006305 
L 241.089553 189.515674 
L 241.205542 152.18578 
L 241.321532 176.366637 
L 241.553511 147.394181 
L 241.6695 152.965807 
L 241.78549 143.271178 
L 241.901479 176.255204 
L 242.017469 147.171316 
L 242.133458 153.857268 
L 242.249448 145.611261 
L 242.365437 159.763191 
L 242.481426 120.873242 
L 242.713405 145.945559 
L 242.829395 214.476558 
L 242.945384 172.577931 
L 243.061374 189.404241 
L 243.293353 142.936881 
L 243.409342 184.166913 
L 243.641321 144.719801 
L 243.8733 100.815388 
L 243.98929 150.40286 
L 244.105279 139.482473 
L 244.221269 144.608368 
L 244.337258 176.812367 
L 244.453248 148.508507 
L 244.569237 190.295702 
L 244.685227 177.035232 
L 244.801216 216.036614 
L 244.917205 171.240741 
L 245.033195 208.904932 
L 245.265174 148.954237 
L 245.497153 161.434679 
L 245.613142 159.651759 
L 245.729132 130.456439 
L 245.845121 155.640188 
L 245.961111 140.819663 
L 246.0771 148.285642 
L 246.19309 132.796521 
L 246.309079 132.239359 
L 246.425069 166.33771 
L 246.541058 142.491151 
L 246.657048 142.268286 
L 246.773037 133.687982 
L 247.005016 188.178484 
L 247.236995 173.246526 
L 247.468974 139.37104 
L 247.584963 174.360851 
L 247.700953 134.245144 
L 247.816942 159.206029 
L 247.932932 155.640188 
L 248.048921 138.813877 
L 248.2809 176.589502 
L 248.39689 144.942666 
L 248.512879 180.823937 
L 248.628869 150.960022 
L 248.860848 161.880409 
L 248.976837 127.44776 
L 249.092827 162.326139 
L 249.208816 154.080133 
L 249.324806 159.874624 
L 249.440795 144.719801 
L 249.556785 165.557682 
L 249.672774 161.880409 
L 249.788764 110.844315 
L 250.020742 156.308783 
L 250.136732 142.936881 
L 250.368711 181.938263 
L 250.4847 157.534541 
L 250.60069 217.819534 
L 250.716679 153.07724 
L 250.832669 177.035232 
L 250.948658 148.397074 
L 251.064648 149.511399 
L 251.180637 173.246526 
L 251.296627 135.470902 
L 251.644595 170.572146 
L 251.760585 127.336328 
L 251.876574 137.58812 
L 251.992564 168.232063 
L 252.108553 150.40286 
L 252.340532 165.00052 
L 252.456521 118.644591 
L 252.572511 127.559193 
L 252.80449 195.53303 
L 252.920479 151.405752 
L 253.036469 179.15245 
L 253.152458 163.774762 
L 253.268448 181.269667 
L 253.384437 179.486747 
L 253.732406 129.787843 
L 253.848395 131.570764 
L 253.964385 182.829723 
L 254.080374 164.554789 
L 254.196364 200.101763 
L 254.312353 176.700934 
L 254.428343 194.530137 
L 254.660322 128.896383 
L 254.776311 127.113463 
L 255.00829 160.208921 
L 255.124279 136.473795 
L 255.240269 168.12063 
L 255.356258 123.547622 
L 255.820216 184.724076 
L 255.936206 133.353684 
L 256.284174 175.698041 
L 256.400164 118.198861 
L 256.516153 124.550515 
L 256.748132 156.977378 
L 256.864122 180.823937 
L 256.980111 159.317461 
L 257.096101 178.706719 
L 257.21209 158.983164 
L 257.32808 195.0873 
L 257.444069 153.411538 
L 257.560058 154.080133 
L 257.792037 169.01209 
L 257.908027 171.017876 
L 258.140006 126.667733 
L 258.255995 152.63151 
L 258.371985 132.796521 
L 258.487974 138.591012 
L 258.603964 181.715398 
L 258.719953 151.628617 
L 258.835943 151.182887 
L 258.951932 132.462224 
L 259.183911 170.349281 
L 259.299901 155.528755 
L 259.53188 183.721183 
L 259.647869 134.690874 
L 259.879848 145.611261 
L 260.111827 135.805199 
L 260.227816 157.088811 
L 260.343806 153.411538 
L 260.575785 192.858649 
L 260.691774 146.168424 
L 260.807764 153.300105 
L 260.923753 135.693767 
L 261.039743 171.017876 
L 261.271722 131.347899 
L 261.387711 191.075729 
L 261.61969 124.439082 
L 261.73568 178.818152 
L 261.851669 174.472284 
L 261.967659 183.386885 
L 262.199638 157.200243 
L 262.315627 191.298594 
L 262.431616 129.676411 
L 262.547606 155.640188 
L 262.663595 129.007816 
L 262.779585 144.942666 
L 262.895574 182.829723 
L 263.011564 132.350791 
L 263.243543 177.035232 
L 263.591511 143.494043 
L 263.707501 167.452035 
L 263.82349 141.488258 
L 263.93948 158.314568 
L 264.055469 130.010708 
L 264.403438 169.01209 
L 264.635417 145.834126 
L 264.751406 160.543219 
L 264.867395 139.148175 
L 264.983385 173.580824 
L 265.099374 169.01209 
L 265.215364 172.355066 
L 265.331353 133.353684 
L 265.563332 176.812367 
L 265.795311 152.965807 
L 265.911301 182.606858 
L 266.02729 164.109059 
L 266.14328 173.915121 
L 266.259269 159.874624 
L 266.375259 168.789225 
L 266.491248 166.114845 
L 266.607238 145.722694 
L 266.723227 153.411538 
L 266.839217 141.376825 
L 266.955206 161.991842 
L 267.071196 126.222003 
L 267.187185 130.679304 
L 267.303175 141.15396 
L 267.419164 210.910718 
L 267.535153 176.143772 
L 267.651143 176.812367 
L 267.767132 132.573656 
L 267.883122 166.78344 
L 267.999111 157.868838 
L 268.115101 126.667733 
L 268.34708 179.041017 
L 268.579059 139.37104 
L 268.695048 137.030957 
L 268.811038 184.724076 
L 268.927027 157.868838 
L 269.043017 166.449142 
L 269.159006 161.434679 
L 269.274996 130.233573 
L 269.390985 146.056991 
L 269.506975 143.494043 
L 269.622964 150.960022 
L 269.738954 131.459331 
L 269.854943 142.379718 
L 269.970932 186.618428 
L 270.086922 143.159746 
L 270.202911 159.317461 
L 270.318901 114.967318 
L 270.43489 169.234955 
L 270.666869 152.854375 
L 270.782859 181.938263 
L 271.014838 149.511399 
L 271.130827 188.624214 
L 271.246817 184.946941 
L 271.362806 174.360851 
L 271.478796 179.821045 
L 271.594785 128.673518 
L 271.710775 167.006305 
L 271.826764 136.919525 
L 271.942754 147.951344 
L 272.058743 143.605476 
L 272.174733 104.604094 
L 272.406711 156.977378 
L 272.63869 102.821174 
L 272.75468 78.194587 
L 272.870669 114.187291 
L 273.102648 103.044039 
L 273.450617 197.31595 
L 273.566606 183.944048 
L 273.682596 184.612643 
L 273.914575 233.531519 
L 274.030564 209.573527 
L 274.146554 232.974357 
L 274.262543 202.887576 
L 274.378533 223.39116 
L 274.494522 195.310165 
L 274.610512 211.91361 
L 274.726501 246.791989 
L 274.84249 212.136475 
L 274.95848 230.299976 
L 275.074469 175.363744 
L 275.190459 173.915121 
L 275.306448 95.020897 
L 275.538427 142.045421 
L 275.654417 129.564978 
L 275.770406 142.045421 
L 275.886396 124.996245 
L 276.002385 179.821045 
L 276.118375 126.444868 
L 276.234364 124.32765 
L 276.350354 88.557811 
L 276.582333 153.411538 
L 276.698322 156.977378 
L 276.930301 114.855886 
L 277.046291 137.14239 
L 277.16228 137.922417 
L 277.394259 174.806581 
L 277.510248 161.657544 
L 277.626238 168.56636 
L 277.974206 130.679304 
L 278.090196 135.248037 
L 278.322175 175.252311 
L 278.438164 135.136604 
L 278.554154 185.169806 
L 278.670143 148.508507 
L 278.902122 190.407134 
L 279.018112 161.211814 
L 279.134101 195.53303 
L 279.36608 120.650377 
L 279.48207 112.627235 
L 279.598059 154.302998 
L 279.714049 134.245144 
L 279.830038 188.624214 
L 279.946027 158.091703 
L 280.062017 174.026554 
L 280.178006 119.313187 
L 280.525975 195.53303 
L 280.641964 162.771869 
L 280.757954 199.321736 
L 280.873943 140.039635 
L 281.105922 181.715398 
L 281.221912 149.622832 
L 281.453891 164.109059 
L 281.56988 125.999138 
L 281.68587 135.136604 
L 281.801859 175.252311 
L 281.917849 120.538944 
L 282.033838 135.805199 
L 282.149828 120.093214 
L 282.381806 150.737157 
L 282.497796 172.689363 
L 282.613785 136.69666 
L 282.961754 188.958511 
L 283.077743 144.051206 
L 283.193733 176.255204 
L 283.309722 156.197351 
L 283.425712 163.440464 
L 283.541701 149.177102 
L 283.657691 161.880409 
L 283.77368 119.313187 
L 284.005659 202.664711 
L 284.121649 156.085918 
L 284.237638 170.349281 
L 284.353628 127.559193 
L 284.469617 135.136604 
L 284.585607 198.987438 
L 284.701596 165.557682 
L 284.817586 192.858649 
L 284.933575 163.440464 
L 285.049564 174.583716 
L 285.281543 129.342113 
L 285.397533 159.206029 
L 285.513522 140.596798 
L 285.629512 152.520077 
L 285.745501 200.770358 
L 285.861491 157.200243 
L 285.97748 176.255204 
L 286.09347 142.936881 
L 286.209459 179.486747 
L 286.325449 123.101892 
L 286.441438 133.799414 
L 286.557428 103.044039 
L 287.021386 192.190054 
L 287.137375 153.9687 
L 287.369354 180.155342 
L 287.601333 118.198861 
L 287.717322 188.624214 
L 287.833312 155.75162 
L 288.065291 194.418705 
L 288.29727 104.604094 
L 288.645238 195.755895 
L 288.877217 130.233573 
L 289.109196 163.440464 
L 289.225186 119.424619 
L 289.341175 163.663329 
L 289.457165 152.854375 
L 289.573154 165.669115 
L 289.689144 145.834126 
L 289.805133 175.029446 
L 290.037112 165.00052 
L 290.153101 157.200243 
L 290.269091 201.884684 
L 290.38508 177.703827 
L 290.50107 191.075729 
L 290.617059 146.502721 
L 290.733049 163.663329 
L 290.849038 160.097489 
L 291.081017 77.191694 
L 291.197007 75.965936 
L 291.776954 241.666093 
L 292.008933 171.017876 
L 292.124923 195.755895 
L 292.356901 130.679304 
L 292.472891 154.748728 
L 292.58888 143.382611 
L 292.70487 156.308783 
L 292.820859 137.58812 
L 292.936849 144.051206 
L 293.052838 138.702445 
L 293.168828 205.450524 
L 293.516796 138.47958 
L 293.632786 188.067051 
L 293.864765 132.016494 
L 293.980754 171.686471 
L 294.096744 166.114845 
L 294.212733 176.366637 
L 294.328723 141.15396 
L 294.444712 173.915121 
L 294.560702 117.307401 
L 294.676691 118.087429 
L 294.792681 107.278474 
L 295.140649 189.404241 
L 295.256638 165.44625 
L 295.372628 179.709612 
L 295.488617 171.909336 
L 295.720596 132.573656 
L 295.836586 158.314568 
L 295.952575 121.653269 
L 296.300544 201.773251 
L 296.532523 137.365255 
L 296.648512 139.37104 
L 296.880491 160.097489 
L 297.22846 130.456439 
L 297.460438 145.165531 
L 297.576428 194.418705 
L 298.040386 115.301616 
L 298.272365 189.292809 
L 298.388354 154.191565 
L 298.504344 158.648866 
L 298.620333 180.378207 
L 298.736323 160.766084 
L 298.852312 178.706719 
L 298.968302 145.611261 
L 299.084291 216.928074 
L 299.31627 121.876135 
L 299.43226 156.643081 
L 299.664239 120.316079 
L 299.896217 156.977378 
L 300.012207 154.748728 
L 300.128196 174.360851 
L 300.244186 166.78344 
L 300.360175 171.686471 
L 300.476165 155.194458 
L 300.592154 192.412919 
L 300.708144 167.897765 
L 300.824133 186.395563 
L 300.940123 148.954237 
L 301.056112 155.194458 
L 301.172102 150.737157 
L 301.288091 99.255333 
L 301.52007 129.787843 
L 301.63606 116.415941 
L 301.752049 195.867327 
L 301.868039 193.081515 
L 301.984028 242.780418 
L 302.563975 106.609879 
L 302.795954 82.986185 
L 302.911944 112.070073 
L 303.143923 242.223256 
L 303.259912 235.203007 
L 303.491891 145.834126 
L 303.607881 138.145282 
L 303.72387 112.627235 
L 303.83986 128.004923 
L 303.955849 118.644591 
L 304.187828 183.052588 
L 304.303818 112.8501 
L 304.419807 185.504103 
L 304.535797 143.605476 
L 304.651786 193.081515 
L 304.767776 182.941155 
L 304.883765 186.061266 
L 305.115744 158.760298 
L 305.231733 178.260989 
L 305.347723 136.362362 
L 305.579702 156.197351 
L 305.695691 163.217599 
L 305.811681 177.146664 
L 306.275639 58.916761 
L 306.391628 79.19748 
L 306.623607 169.123523 
L 306.855586 238.323117 
L 306.971576 219.825319 
L 307.435533 56.24238 
L 307.783502 248.797774 
L 307.899491 257.378078 
L 308.015481 214.030828 
L 308.13147 231.860031 
L 308.479439 114.187291 
L 308.595428 117.530266 
L 308.711418 101.372551 
L 308.827407 110.62145 
L 308.943397 159.206029 
L 309.059386 138.03385 
L 309.175376 173.023661 
L 309.291365 171.240741 
L 309.407355 139.37104 
L 309.523344 187.509889 
L 309.755323 136.362362 
L 310.103291 196.42449 
L 310.219281 186.618428 
L 310.33527 208.904932 
L 310.799228 95.243762 
L 310.915218 112.070073 
L 311.147197 174.472284 
L 311.263186 170.572146 
L 311.379176 205.561957 
L 311.495165 160.097489 
L 311.611155 159.874624 
L 311.727144 128.004923 
L 311.959123 141.376825 
L 312.075113 136.028064 
L 312.307091 155.417323 
L 312.423081 139.593905 
L 312.53907 156.643081 
L 312.65506 128.004923 
L 312.887039 152.63151 
L 313.003028 154.748728 
L 313.119018 179.041017 
L 313.235007 176.366637 
L 313.350997 181.603965 
L 313.466986 162.883302 
L 313.582976 187.287023 
L 313.814955 149.511399 
L 313.930944 174.806581 
L 314.278913 101.706848 
L 314.394902 117.084536 
L 314.626881 190.184269 
L 314.742871 183.386885 
L 314.85886 183.944048 
L 314.974849 156.754513 
L 315.206828 182.495425 
L 315.438807 123.324757 
L 315.554797 168.789225 
L 315.670786 134.913739 
L 315.786776 143.271178 
L 315.902765 131.682196 
L 316.134744 153.411538 
L 316.250734 165.557682 
L 316.366723 163.997627 
L 316.482713 191.187162 
L 316.598702 186.841293 
L 316.714692 152.854375 
L 316.830681 176.143772 
L 317.06266 119.090322 
L 317.410628 174.137986 
L 317.526618 194.864435 
L 317.642607 137.030957 
L 317.874586 178.372422 
L 317.990576 129.342113 
L 318.338544 178.595287 
L 318.454534 145.611261 
L 318.686513 165.334817 
L 318.918492 150.40286 
L 319.034481 116.861671 
L 319.26646 167.563468 
L 319.38245 164.666222 
L 319.498439 165.223385 
L 319.614429 213.696531 
L 319.846407 150.291427 
L 319.962397 135.248037 
L 320.310365 178.929585 
L 320.426355 166.114845 
L 320.542344 136.028064 
L 320.658334 193.081515 
L 320.774323 180.823937 
L 320.890313 181.603965 
L 321.238281 118.421726 
L 321.354271 165.111952 
L 321.47026 138.92531 
L 321.58625 147.617047 
L 321.702239 135.359469 
L 321.818229 145.165531 
L 321.934218 164.554789 
L 322.050208 163.886194 
L 322.166197 181.938263 
L 322.282186 179.709612 
L 322.514165 128.673518 
L 322.746144 177.480962 
L 322.978123 140.819663 
L 323.094113 163.440464 
L 323.210102 141.822556 
L 323.326092 145.388396 
L 323.558071 123.324757 
L 323.79005 165.780547 
L 323.906039 147.282749 
L 324.022029 192.301487 
L 324.138018 190.629999 
L 324.254008 192.412919 
L 324.485987 129.899276 
L 324.601976 165.44625 
L 324.833955 117.084536 
L 324.949944 126.222003 
L 325.065934 134.913739 
L 325.181923 162.771869 
L 325.297913 163.663329 
L 325.413902 141.822556 
L 325.529892 159.206029 
L 325.645881 156.754513 
L 325.761871 168.789225 
L 325.87786 127.113463 
L 325.99385 142.602583 
L 326.109839 133.130819 
L 326.225829 180.601072 
L 326.573797 126.890598 
L 326.689787 138.03385 
L 326.921766 211.133583 
L 327.037755 222.4997 
L 327.269734 151.628617 
L 327.385723 136.919525 
L 327.501713 150.291427 
L 327.733692 100.369658 
L 327.849681 105.829852 
L 328.08166 169.90355 
L 328.19765 173.580824 
L 328.429629 207.122012 
L 328.545618 184.835508 
L 328.661608 198.20741 
L 328.777597 138.47958 
L 328.893587 180.601072 
L 329.009576 180.04391 
L 329.241555 139.593905 
L 329.357545 154.971593 
L 329.473534 125.107678 
L 329.589524 161.880409 
L 329.821502 116.527374 
L 330.053481 155.194458 
L 330.169471 158.091703 
L 330.28546 141.711123 
L 330.40145 167.897765 
L 330.517439 162.549004 
L 330.633429 171.463606 
L 330.749418 155.863053 
L 330.865408 160.988949 
L 330.981397 158.426001 
L 331.097387 192.858649 
L 331.213376 154.748728 
L 331.329366 200.436061 
L 331.677334 124.661947 
L 331.793324 156.643081 
L 332.025303 117.307401 
L 332.141292 145.611261 
L 332.373271 113.964426 
L 332.60525 152.965807 
L 332.721239 149.177102 
L 332.837229 199.433168 
L 332.953218 189.627106 
L 333.069208 164.554789 
L 333.185197 200.881791 
L 333.417176 162.883302 
L 333.533166 145.834126 
L 333.765145 188.401349 
L 333.881134 156.531648 
L 333.997124 169.346388 
L 334.113113 134.579442 
L 334.229103 171.686471 
L 334.461082 89.226406 
L 334.80905 189.292809 
L 335.041029 158.648866 
L 335.157018 168.343495 
L 335.273008 121.318972 
L 335.388997 153.300105 
L 335.504987 142.714016 
L 335.736966 227.848461 
L 335.968945 122.210432 
L 336.200924 187.287023 
L 336.316913 178.929585 
L 336.432903 215.145153 
L 336.548892 156.308783 
L 336.664882 157.200243 
L 336.780871 132.907954 
L 336.896861 147.394181 
L 337.01285 120.873242 
L 337.12884 177.926692 
L 337.244829 144.719801 
L 337.360818 175.698041 
L 337.476808 149.734264 
L 337.592797 167.22917 
L 337.824776 119.647484 
L 337.940766 111.624343 
L 338.056755 125.441975 
L 338.172745 161.323246 
L 338.288734 158.091703 
L 338.404724 196.87022 
L 338.520713 163.106167 
L 338.636703 184.166913 
L 338.752692 159.317461 
L 338.868682 168.343495 
L 338.984671 138.03385 
L 339.100661 163.440464 
L 339.21665 119.758917 
L 339.33264 160.097489 
L 339.448629 146.056991 
L 339.564619 158.983164 
L 339.680608 149.177102 
L 339.796597 157.423108 
L 339.912587 140.039635 
L 340.028576 148.508507 
L 340.144566 147.728479 
L 340.260555 171.463606 
L 340.492534 119.201754 
L 340.608524 175.363744 
L 340.840503 155.75162 
L 340.956492 162.326139 
L 341.072482 178.818152 
L 341.188471 128.004923 
L 341.304461 135.248037 
L 341.652429 185.504103 
L 341.884408 145.388396 
L 342.000398 152.18578 
L 342.116387 151.851482 
L 342.232376 179.15245 
L 342.464355 135.136604 
L 342.580345 124.884813 
L 342.696334 161.657544 
L 342.812324 129.564978 
L 342.928313 153.411538 
L 343.044303 101.929713 
L 343.160292 109.28426 
L 343.276282 99.032468 
L 343.392271 114.075858 
L 343.62425 53.568 
L 343.74024 70.505743 
L 343.972219 212.693638 
L 344.088208 195.867327 
L 344.320187 208.236337 
L 344.552166 264.398327 
L 344.668156 257.266646 
L 344.784145 252.809345 
L 344.900134 215.479451 
L 345.016124 231.525734 
L 345.132113 208.459202 
L 345.248103 212.693638 
L 345.364092 194.418705 
L 345.480082 208.34777 
L 345.596071 134.913739 
L 345.712061 156.085918 
L 345.82805 137.58812 
L 346.060029 178.929585 
L 346.292008 120.650377 
L 346.523987 70.505743 
L 346.755966 98.809603 
L 346.871956 145.945559 
L 346.987945 144.162638 
L 347.103935 149.845697 
L 347.219924 165.44625 
L 347.335913 125.776273 
L 347.451903 159.094596 
L 347.683882 135.136604 
L 347.799871 159.651759 
L 347.915861 132.573656 
L 348.03185 131.682196 
L 348.14784 152.742942 
L 348.263829 122.210432 
L 348.379819 134.356577 
L 348.495808 160.208921 
L 348.611798 158.091703 
L 348.727787 163.440464 
L 348.843777 191.967189 
L 349.075756 144.274071 
L 349.191745 136.69666 
L 349.423724 195.867327 
L 349.539714 107.167042 
L 349.655703 139.37104 
L 349.771692 128.562086 
L 349.887682 186.952726 
L 350.003671 149.957129 
L 350.119661 176.255204 
L 350.23565 157.423108 
L 350.35164 162.771869 
L 350.467629 188.624214 
L 350.583619 176.923799 
L 350.699608 148.731372 
L 350.815598 151.29432 
L 350.931587 132.239359 
L 351.047577 153.07724 
L 351.163566 152.074347 
L 351.279556 163.106167 
L 351.395545 148.062777 
L 351.511535 177.703827 
L 351.627524 177.703827 
L 351.859503 186.841293 
L 351.975493 184.166913 
L 352.207471 99.701063 
L 352.43945 145.722694 
L 352.55544 104.826959 
L 352.787419 175.029446 
L 352.903408 171.240741 
L 353.019398 213.585098 
L 353.251377 116.193076 
L 353.367366 180.601072 
L 353.483356 162.771869 
L 353.599345 177.703827 
L 353.715335 125.330543 
L 353.947314 147.394181 
L 354.063303 155.083025 
L 354.179293 182.27256 
L 354.411272 128.673518 
L 354.527261 134.245144 
L 354.75924 163.217599 
L 354.875229 142.379718 
L 354.991219 193.972975 
L 355.223198 158.983164 
L 355.455177 144.719801 
L 355.571166 172.355066 
L 355.687156 120.761809 
L 355.803145 199.990331 
L 355.919135 188.624214 
L 356.035124 116.973104 
L 356.267103 145.834126 
L 356.383093 137.810985 
L 356.499082 171.909336 
L 356.847051 148.285642 
L 356.96304 197.538815 
L 357.07903 166.114845 
L 357.195019 180.712505 
L 357.426998 143.605476 
L 357.542987 175.920906 
L 357.774966 135.582334 
L 357.890956 155.083025 
L 358.006945 139.593905 
L 358.122935 171.686471 
L 358.238924 138.256715 
L 358.354914 168.232063 
L 358.470903 147.394181 
L 358.586893 176.700934 
L 358.702882 126.890598 
L 358.818872 152.742942 
L 358.934861 127.224895 
L 359.16684 160.431786 
L 359.28283 149.734264 
L 359.398819 179.263882 
L 359.514809 157.534541 
L 359.630798 177.815259 
L 359.746787 149.288534 
L 359.862777 192.412919 
L 360.094756 137.58812 
L 360.210745 150.291427 
L 360.326735 138.47958 
L 360.442724 178.595287 
L 360.558714 140.2625 
L 360.674703 148.285642 
L 360.790693 139.705338 
L 360.906682 172.577931 
L 361.022672 149.177102 
L 361.138661 178.595287 
L 361.37064 153.07724 
L 361.48663 137.58812 
L 361.602619 158.983164 
L 361.718609 122.433297 
L 361.834598 145.165531 
L 361.950588 141.822556 
L 362.066577 154.748728 
L 362.182567 191.410027 
L 362.414545 152.965807 
L 362.646524 169.01209 
L 362.762514 158.314568 
L 362.878503 121.541837 
L 362.994493 181.269667 
L 363.110482 175.029446 
L 363.226472 137.253822 
L 363.342461 183.275453 
L 363.458451 163.106167 
L 363.57444 180.712505 
L 363.69043 149.399967 
L 363.806419 196.535923 
L 363.922409 128.116356 
L 364.038398 130.233573 
L 364.154388 180.266775 
L 364.386367 126.444868 
L 364.618346 152.965807 
L 364.734335 163.886194 
L 364.966314 133.130819 
L 365.082303 170.014983 
L 365.314282 146.502721 
L 365.430272 179.486747 
L 365.546261 162.549004 
L 365.662251 199.990331 
L 366.126209 138.702445 
L 366.242198 160.877516 
L 366.358188 127.670626 
L 366.474177 172.577931 
L 366.590167 155.528755 
L 366.706156 156.865946 
L 366.822146 150.068562 
L 366.938135 150.291427 
L 367.054125 144.719801 
L 367.170114 160.543219 
L 367.286103 156.754513 
L 367.402093 140.596798 
L 367.518082 161.434679 
L 367.634072 142.714016 
L 367.750061 179.821045 
L 367.866051 178.260989 
L 367.98204 156.977378 
L 368.09803 171.686471 
L 368.330009 134.690874 
L 368.445998 162.771869 
L 368.561988 133.799414 
L 368.677977 158.648866 
L 368.793967 133.353684 
L 369.025946 177.926692 
L 369.257925 140.2625 
L 369.373914 199.098871 
L 369.721882 140.485365 
L 369.953861 175.363744 
L 370.069851 156.977378 
L 370.18584 166.672007 
L 370.30183 150.960022 
L 370.417819 206.564849 
L 370.533809 175.140879 
L 370.649798 207.344877 
L 370.765788 155.640188 
L 370.881777 168.56636 
L 370.997767 121.653269 
L 371.113756 120.650377 
L 371.229746 109.507125 
L 371.345735 140.596798 
L 371.461725 136.139497 
L 371.693704 158.426001 
L 371.809693 164.331924 
L 371.925683 177.926692 
L 372.041672 166.33771 
L 372.157662 125.553408 
L 372.273651 138.03385 
L 372.50563 189.292809 
L 372.621619 138.47958 
L 372.853598 163.774762 
L 372.969588 156.531648 
L 373.085577 183.275453 
L 373.201567 152.074347 
L 373.433546 180.155342 
L 373.549535 133.465117 
L 373.665525 148.285642 
L 373.781514 147.059884 
L 373.897504 124.439082 
L 374.013493 155.194458 
L 374.129483 145.388396 
L 374.245472 165.223385 
L 374.477451 132.685089 
L 374.593441 146.168424 
L 374.70943 133.353684 
L 374.825419 160.543219 
L 374.941409 148.619939 
L 375.057398 206.453417 
L 375.173388 177.258097 
L 375.289377 217.596669 
L 375.405367 160.097489 
L 375.521356 162.994734 
L 375.637346 155.75162 
L 375.753335 184.612643 
L 375.869325 133.799414 
L 375.985314 153.188673 
L 376.101304 128.004923 
L 376.217293 182.161128 
L 376.449272 147.839912 
L 376.565262 153.411538 
L 376.797241 116.193076 
L 376.91323 156.643081 
L 377.145209 143.828341 
L 377.261198 183.275453 
L 377.493177 145.276964 
L 377.725156 151.29432 
L 377.841146 149.177102 
L 378.073125 171.129308 
L 378.189114 231.525734 
L 378.421093 152.18578 
L 378.537083 164.220492 
L 378.653072 157.423108 
L 378.885051 128.227788 
L 379.11703 172.577931 
L 379.23302 150.40286 
L 379.349009 165.334817 
L 379.580988 127.224895 
L 379.696977 176.366637 
L 379.928956 154.525863 
L 380.044946 184.166913 
L 380.160935 184.166913 
L 380.276925 164.109059 
L 380.392914 173.915121 
L 380.508904 150.291427 
L 380.624893 170.906443 
L 380.856872 152.854375 
L 381.088851 159.874624 
L 381.204841 149.177102 
L 381.32083 158.648866 
L 381.43682 177.926692 
L 381.668799 119.313187 
L 381.784788 111.06718 
L 381.900778 120.873242 
L 382.132757 222.276835 
L 382.248746 170.906443 
L 382.364735 178.595287 
L 382.596714 142.268286 
L 382.828693 197.650248 
L 383.060672 144.719801 
L 383.176662 140.2625 
L 383.292651 119.313187 
L 383.408641 153.52297 
L 383.52463 152.63151 
L 383.64062 134.356577 
L 383.756609 141.15396 
L 383.872599 122.767595 
L 384.104578 184.835508 
L 384.220567 210.019257 
L 384.452546 160.877516 
L 384.568536 163.217599 
L 384.800514 85.437701 
L 384.916504 111.290045 
L 385.148483 186.172698 
L 385.264472 183.386885 
L 385.380462 171.240741 
L 385.496451 193.972975 
L 385.612441 154.525863 
L 385.72843 152.965807 
L 385.84442 186.618428 
L 385.960409 126.5563 
L 386.076399 151.851482 
L 386.192388 113.29583 
L 386.424367 155.194458 
L 386.540357 155.417323 
L 386.656346 147.839912 
L 386.772336 168.343495 
L 386.888325 157.868838 
L 387.004315 177.926692 
L 387.236293 141.488258 
L 387.352283 159.428894 
L 387.468272 135.916632 
L 387.700251 162.326139 
L 387.816241 142.936881 
L 387.93223 178.372422 
L 388.04822 143.159746 
L 388.280199 161.657544 
L 388.396188 141.59969 
L 388.512178 197.31595 
L 388.628167 192.970082 
L 388.744157 161.211814 
L 388.860146 173.246526 
L 389.092125 144.719801 
L 389.208115 146.502721 
L 389.324104 158.091703 
L 389.440094 148.285642 
L 389.556083 158.203136 
L 389.672072 151.517185 
L 389.788062 160.320354 
L 389.904051 159.874624 
L 390.020041 157.868838 
L 390.13603 143.159746 
L 390.25202 164.889087 
L 390.483999 137.699552 
L 390.599988 181.269667 
L 390.715978 143.828341 
L 390.831967 146.837019 
L 390.947957 172.577931 
L 391.063946 171.017876 
L 391.179936 210.13069 
L 391.295925 161.100381 
L 391.411915 163.329032 
L 391.759883 131.682196 
L 391.875873 141.15396 
L 391.991862 137.14239 
L 392.107852 174.806581 
L 392.223841 148.285642 
L 392.33983 170.795011 
L 392.45582 122.210432 
L 392.571809 151.851482 
L 392.687799 137.365255 
L 392.803788 195.310165 
L 392.919778 166.449142 
L 393.035767 175.698041 
L 393.267746 145.388396 
L 393.499725 195.97876 
L 393.615715 136.69666 
L 393.731704 175.586609 
L 393.847694 135.248037 
L 393.963683 143.828341 
L 394.079673 127.782058 
L 394.195662 138.813877 
L 394.311652 135.805199 
L 394.543631 187.509889 
L 394.775609 134.356577 
L 395.007588 179.486747 
L 395.123578 141.711123 
L 395.471546 208.013472 
L 395.703525 155.417323 
L 395.819515 152.742942 
L 396.051494 110.287152 
L 396.283473 147.394181 
L 396.399462 140.485365 
L 396.515452 153.188673 
L 396.631441 130.233573 
L 396.747431 184.501211 
L 396.97941 122.879027 
L 397.095399 169.680685 
L 397.327378 174.026554 
L 397.443367 189.069944 
L 397.675346 149.622832 
L 397.791336 165.00052 
L 397.907325 152.965807 
L 398.023315 175.475176 
L 398.139304 144.496936 
L 398.255294 151.628617 
L 398.371283 124.32765 
L 398.487273 152.742942 
L 398.487273 152.742942 
" clip-path="url(#p8c4175118e)" style="fill: none; stroke: #1f77b4; stroke-width: 1.5; stroke-linecap: square"/>
   </g>
   <g id="patch_3">
    <path d="M 57.6 307.584 
L 57.6 41.472 
" style="fill: none; stroke: #000000; stroke-width: 0.8; stroke-linejoin: miter; stroke-linecap: square"/>
   </g>
   <g id="patch_4">
    <path d="M 414.72 307.584 
L 414.72 41.472 
" style="fill: none; stroke: #000000; stroke-width: 0.8; stroke-linejoin: miter; stroke-linecap: square"/>
   </g>
   <g id="patch_5">
    <path d="M 57.6 307.584 
L 414.72 307.584 
" style="fill: none; stroke: #000000; stroke-width: 0.8; stroke-linejoin: miter; stroke-linecap: square"/>
   </g>
   <g id="patch_6">
    <path d="M 57.6 41.472 
L 414.72 41.472 
" style="fill: none; stroke: #000000; stroke-width: 0.8; stroke-linejoin: miter; stroke-linecap: square"/>
   </g>
  </g>
 </g>
 <defs>
  <clipPath id="p8c4175118e">
   <rect x="57.6" y="41.472" width="357.12" height="266.112"/>
  </clipPath>
 </defs>
</svg>
