<?xml version="1.0" encoding="utf-8" standalone="no"?>
<!DOCTYPE svg PUBLIC "-//W3C//DTD SVG 1.1//EN"
  "http://www.w3.org/Graphics/SVG/1.1/DTD/svg11.dtd">
<svg xmlns:xlink="http://www.w3.org/1999/xlink" width="460.8pt" height="345.6pt" viewBox="0 0 460.8 345.6" xmlns="http://www.w3.org/2000/svg" version="1.1">
 <metadata>
  <rdf:RDF xmlns:dc="http://purl.org/dc/elements/1.1/" xmlns:cc="http://creativecommons.org/ns#" xmlns:rdf="http://www.w3.org/1999/02/22-rdf-syntax-ns#">
   <cc:Work>
    <dc:type rdf:resource="http://purl.org/dc/dcmitype/StillImage"/>
    <dc:date>2024-06-05T15:15:54.963418</dc:date>
    <dc:format>image/svg+xml</dc:format>
    <dc:creator>
     <cc:Agent>
      <dc:title>Matplotlib v3.8.2, https://matplotlib.org/</dc:title>
     </cc:Agent>
    </dc:creator>
   </cc:Work>
  </rdf:RDF>
 </metadata>
 <defs>
  <style type="text/css">*{stroke-linejoin: round; stroke-linecap: butt}</style>
 </defs>
 <g id="figure_1">
  <g id="patch_1">
   <path d="M 0 345.6 
L 460.8 345.6 
L 460.8 0 
L 0 0 
z
" style="fill: #ffffff"/>
  </g>
  <g id="axes_1">
   <g id="patch_2">
    <path d="M 44.57 228.08 
L 450 228.08 
L 450 26.88 
L 44.57 26.88 
z
" style="fill: #ffffff"/>
   </g>
   <g id="patch_3">
    <path d="M 62.998636 228.08 
L 65.391966 228.08 
L 65.391966 174.396908 
L 62.998636 174.396908 
z
" clip-path="url(#p5d20bc9247)" style="fill: #1f77b4"/>
   </g>
   <g id="patch_4">
    <path d="M 86.93193 228.08 
L 89.32526 228.08 
L 89.32526 176.0137 
L 86.93193 176.0137 
z
" clip-path="url(#p5d20bc9247)" style="fill: #1f77b4"/>
   </g>
   <g id="patch_5">
    <path d="M 110.865224 228.08 
L 113.258554 228.08 
L 113.258554 120.625083 
L 110.865224 120.625083 
z
" clip-path="url(#p5d20bc9247)" style="fill: #1f77b4"/>
   </g>
   <g id="patch_6">
    <path d="M 134.798518 228.08 
L 137.191848 228.08 
L 137.191848 185.55649 
L 134.798518 185.55649 
z
" clip-path="url(#p5d20bc9247)" style="fill: #1f77b4"/>
   </g>
   <g id="patch_7">
    <path d="M 158.731812 228.08 
L 161.125142 228.08 
L 161.125142 -97.450871 
L 158.731812 -97.450871 
z
" clip-path="url(#p5d20bc9247)" style="fill: #1f77b4"/>
   </g>
   <g id="patch_8">
    <path d="M 182.665106 228.08 
L 185.058436 228.08 
L 185.058436 -38.95317 
L 182.665106 -38.95317 
z
" clip-path="url(#p5d20bc9247)" style="fill: #1f77b4"/>
   </g>
   <g id="patch_9">
    <path d="M 206.5984 228.08 
L 208.99173 228.08 
L 208.99173 -99.751675 
L 206.5984 -99.751675 
z
" clip-path="url(#p5d20bc9247)" style="fill: #1f77b4"/>
   </g>
   <g id="patch_10">
    <path d="M 230.531694 228.08 
L 232.925024 228.08 
L 232.925024 44.064636 
L 230.531694 44.064636 
z
" clip-path="url(#p5d20bc9247)" style="fill: #1f77b4"/>
   </g>
   <g id="patch_11">
    <path d="M 254.464988 228.08 
L 256.858318 228.08 
L 256.858318 -1.826516 
L 254.464988 -1.826516 
z
" clip-path="url(#p5d20bc9247)" style="fill: #1f77b4"/>
   </g>
   <g id="patch_12">
    <path d="M 278.398282 228.08 
L 280.791612 228.08 
L 280.791612 166.381815 
L 278.398282 166.381815 
z
" clip-path="url(#p5d20bc9247)" style="fill: #1f77b4"/>
   </g>
   <g id="patch_13">
    <path d="M 302.331576 228.08 
L 304.724906 228.08 
L 304.724906 65.183694 
L 302.331576 65.183694 
z
" clip-path="url(#p5d20bc9247)" style="fill: #1f77b4"/>
   </g>
   <g id="patch_14">
    <path d="M 326.26487 228.08 
L 328.6582 228.08 
L 328.6582 157.396455 
L 326.26487 157.396455 
z
" clip-path="url(#p5d20bc9247)" style="fill: #1f77b4"/>
   </g>
   <g id="patch_15">
    <path d="M 350.198164 228.08 
L 352.591494 228.08 
L 352.591494 228.08 
L 350.198164 228.08 
z
" clip-path="url(#p5d20bc9247)" style="fill: #1f77b4"/>
   </g>
   <g id="patch_16">
    <path d="M 374.131458 228.08 
L 376.524787 228.08 
L 376.524787 187.109498 
L 374.131458 187.109498 
z
" clip-path="url(#p5d20bc9247)" style="fill: #1f77b4"/>
   </g>
   <g id="patch_17">
    <path d="M 398.064752 228.08 
L 400.458081 228.08 
L 400.458081 -499.439601 
L 398.064752 -499.439601 
z
" clip-path="url(#p5d20bc9247)" style="fill: #1f77b4"/>
   </g>
   <g id="patch_18">
    <path d="M 421.998046 228.08 
L 424.391375 228.08 
L 424.391375 187.109498 
L 421.998046 187.109498 
z
" clip-path="url(#p5d20bc9247)" style="fill: #1f77b4"/>
   </g>
   <g id="patch_19">
    <path d="M 65.391966 228.08 
L 67.785295 228.08 
L 67.785295 173.60505 
L 65.391966 173.60505 
z
" clip-path="url(#p5d20bc9247)" style="fill: #ff7f0e"/>
   </g>
   <g id="patch_20">
    <path d="M 89.32526 228.08 
L 91.718589 228.08 
L 91.718589 177.329373 
L 89.32526 177.329373 
z
" clip-path="url(#p5d20bc9247)" style="fill: #ff7f0e"/>
   </g>
   <g id="patch_21">
    <path d="M 113.258554 228.08 
L 115.651883 228.08 
L 115.651883 149.214601 
L 113.258554 149.214601 
z
" clip-path="url(#p5d20bc9247)" style="fill: #ff7f0e"/>
   </g>
   <g id="patch_22">
    <path d="M 137.191848 228.08 
L 139.585177 228.08 
L 139.585177 185.19625 
L 137.191848 185.19625 
z
" clip-path="url(#p5d20bc9247)" style="fill: #ff7f0e"/>
   </g>
   <g id="patch_23">
    <path d="M 161.125142 228.08 
L 163.518471 228.08 
L 163.518471 4.614961 
L 161.125142 4.614961 
z
" clip-path="url(#p5d20bc9247)" style="fill: #ff7f0e"/>
   </g>
   <g id="patch_24">
    <path d="M 185.058436 228.08 
L 187.451765 228.08 
L 187.451765 44.713862 
L 185.058436 44.713862 
z
" clip-path="url(#p5d20bc9247)" style="fill: #ff7f0e"/>
   </g>
   <g id="patch_25">
    <path d="M 208.99173 228.08 
L 211.385059 228.08 
L 211.385059 3.124408 
L 208.99173 3.124408 
z
" clip-path="url(#p5d20bc9247)" style="fill: #ff7f0e"/>
   </g>
   <g id="patch_26">
    <path d="M 232.925024 228.08 
L 235.318353 228.08 
L 235.318353 98.680778 
L 232.925024 98.680778 
z
" clip-path="url(#p5d20bc9247)" style="fill: #ff7f0e"/>
   </g>
   <g id="patch_27">
    <path d="M 256.858318 228.08 
L 259.251647 228.08 
L 259.251647 69.805797 
L 256.858318 69.805797 
z
" clip-path="url(#p5d20bc9247)" style="fill: #ff7f0e"/>
   </g>
   <g id="patch_28">
    <path d="M 280.791612 228.08 
L 283.184941 228.08 
L 283.184941 171.938695 
L 280.791612 171.938695 
z
" clip-path="url(#p5d20bc9247)" style="fill: #ff7f0e"/>
   </g>
   <g id="patch_29">
    <path d="M 304.724906 228.08 
L 307.118235 228.08 
L 307.118235 72.735316 
L 304.724906 72.735316 
z
" clip-path="url(#p5d20bc9247)" style="fill: #ff7f0e"/>
   </g>
   <g id="patch_30">
    <path d="M 328.6582 228.08 
L 331.051529 228.08 
L 331.051529 158.305045 
L 328.6582 158.305045 
z
" clip-path="url(#p5d20bc9247)" style="fill: #ff7f0e"/>
   </g>
   <g id="patch_31">
    <path d="M 352.591494 228.08 
L 354.984823 228.08 
L 354.984823 228.08 
L 352.591494 228.08 
z
" clip-path="url(#p5d20bc9247)" style="fill: #ff7f0e"/>
   </g>
   <g id="patch_32">
    <path d="M 376.524787 228.08 
L 378.918117 228.08 
L 378.918117 186.713399 
L 376.524787 186.713399 
z
" clip-path="url(#p5d20bc9247)" style="fill: #ff7f0e"/>
   </g>
   <g id="patch_33">
    <path d="M 400.458081 228.08 
L 402.851411 228.08 
L 402.851411 -561.187198 
L 400.458081 -561.187198 
z
" clip-path="url(#p5d20bc9247)" style="fill: #ff7f0e"/>
   </g>
   <g id="patch_34">
    <path d="M 424.391375 228.08 
L 426.784705 228.08 
L 426.784705 186.713399 
L 424.391375 186.713399 
z
" clip-path="url(#p5d20bc9247)" style="fill: #ff7f0e"/>
   </g>
   <g id="patch_35">
    <path d="M 67.785295 228.08 
L 70.178625 228.08 
L 70.178625 171.992349 
L 67.785295 171.992349 
z
" clip-path="url(#p5d20bc9247)" style="fill: #2ca02c"/>
   </g>
   <g id="patch_36">
    <path d="M 91.718589 228.08 
L 94.111919 228.08 
L 94.111919 173.99826 
L 91.718589 173.99826 
z
" clip-path="url(#p5d20bc9247)" style="fill: #2ca02c"/>
   </g>
   <g id="patch_37">
    <path d="M 115.651883 228.08 
L 118.045213 228.08 
L 118.045213 127.180948 
L 115.651883 127.180948 
z
" clip-path="url(#p5d20bc9247)" style="fill: #2ca02c"/>
   </g>
   <g id="patch_38">
    <path d="M 139.585177 228.08 
L 141.978506 228.08 
L 141.978506 185.773015 
L 139.585177 185.773015 
z
" clip-path="url(#p5d20bc9247)" style="fill: #2ca02c"/>
   </g>
   <g id="patch_39">
    <path d="M 163.518471 228.08 
L 165.9118 228.08 
L 165.9118 -88.820632 
L 163.518471 -88.820632 
z
" clip-path="url(#p5d20bc9247)" style="fill: #2ca02c"/>
   </g>
   <g id="patch_40">
    <path d="M 187.451765 228.08 
L 189.845094 228.08 
L 189.845094 -22.365304 
L 187.451765 -22.365304 
z
" clip-path="url(#p5d20bc9247)" style="fill: #2ca02c"/>
   </g>
   <g id="patch_41">
    <path d="M 211.385059 228.08 
L 213.778388 228.08 
L 213.778388 -91.684413 
L 211.385059 -91.684413 
z
" clip-path="url(#p5d20bc9247)" style="fill: #2ca02c"/>
   </g>
   <g id="patch_42">
    <path d="M 235.318353 228.08 
L 237.711682 228.08 
L 237.711682 53.394822 
L 235.318353 53.394822 
z
" clip-path="url(#p5d20bc9247)" style="fill: #2ca02c"/>
   </g>
   <g id="patch_43">
    <path d="M 259.251647 228.08 
L 261.644976 228.08 
L 261.644976 0.956306 
L 259.251647 0.956306 
z
" clip-path="url(#p5d20bc9247)" style="fill: #2ca02c"/>
   </g>
   <g id="patch_44">
    <path d="M 283.184941 228.08 
L 285.57827 228.08 
L 285.57827 162.372992 
L 283.184941 162.372992 
z
" clip-path="url(#p5d20bc9247)" style="fill: #2ca02c"/>
   </g>
   <g id="patch_45">
    <path d="M 307.118235 228.08 
L 309.511564 228.08 
L 309.511564 66.453 
L 307.118235 66.453 
z
" clip-path="url(#p5d20bc9247)" style="fill: #2ca02c"/>
   </g>
   <g id="patch_46">
    <path d="M 331.051529 228.08 
L 333.444858 228.08 
L 333.444858 154.165295 
L 331.051529 154.165295 
z
" clip-path="url(#p5d20bc9247)" style="fill: #2ca02c"/>
   </g>
   <g id="patch_47">
    <path d="M 354.984823 228.08 
L 357.378152 228.08 
L 357.378152 228.08 
L 354.984823 228.08 
z
" clip-path="url(#p5d20bc9247)" style="fill: #2ca02c"/>
   </g>
   <g id="patch_48">
    <path d="M 378.918117 228.08 
L 381.311446 228.08 
L 381.311446 181.567453 
L 378.918117 181.567453 
z
" clip-path="url(#p5d20bc9247)" style="fill: #2ca02c"/>
   </g>
   <g id="patch_49">
    <path d="M 402.851411 228.08 
L 405.24474 228.08 
L 405.24474 -553.04087 
L 402.851411 -553.04087 
z
" clip-path="url(#p5d20bc9247)" style="fill: #2ca02c"/>
   </g>
   <g id="patch_50">
    <path d="M 426.784705 228.08 
L 429.178034 228.08 
L 429.178034 181.567453 
L 426.784705 181.567453 
z
" clip-path="url(#p5d20bc9247)" style="fill: #2ca02c"/>
   </g>
   <g id="patch_51">
    <path d="M 70.178625 228.08 
L 72.571954 228.08 
L 72.571954 167.708357 
L 70.178625 167.708357 
z
" clip-path="url(#p5d20bc9247)" style="fill: #d62728"/>
   </g>
   <g id="patch_52">
    <path d="M 94.111919 228.08 
L 96.505248 228.08 
L 96.505248 173.021345 
L 94.111919 173.021345 
z
" clip-path="url(#p5d20bc9247)" style="fill: #d62728"/>
   </g>
   <g id="patch_53">
    <path d="M 118.045213 228.08 
L 120.438542 228.08 
L 120.438542 148.984465 
L 118.045213 148.984465 
z
" clip-path="url(#p5d20bc9247)" style="fill: #d62728"/>
   </g>
   <g id="patch_54">
    <path d="M 141.978506 228.08 
L 144.371836 228.08 
L 144.371836 183.762337 
L 141.978506 183.762337 
z
" clip-path="url(#p5d20bc9247)" style="fill: #d62728"/>
   </g>
   <g id="patch_55">
    <path d="M 165.9118 228.08 
L 168.30513 228.08 
L 168.30513 0.350116 
L 165.9118 0.350116 
z
" clip-path="url(#p5d20bc9247)" style="fill: #d62728"/>
   </g>
   <g id="patch_56">
    <path d="M 189.845094 228.08 
L 192.238424 228.08 
L 192.238424 51.528062 
L 189.845094 51.528062 
z
" clip-path="url(#p5d20bc9247)" style="fill: #d62728"/>
   </g>
   <g id="patch_57">
    <path d="M 213.778388 228.08 
L 216.171718 228.08 
L 216.171718 -1.887697 
L 213.778388 -1.887697 
z
" clip-path="url(#p5d20bc9247)" style="fill: #d62728"/>
   </g>
   <g id="patch_58">
    <path d="M 237.711682 228.08 
L 240.105012 228.08 
L 240.105012 92.025479 
L 237.711682 92.025479 
z
" clip-path="url(#p5d20bc9247)" style="fill: #d62728"/>
   </g>
   <g id="patch_59">
    <path d="M 261.644976 228.08 
L 264.038306 228.08 
L 264.038306 50.340911 
L 261.644976 50.340911 
z
" clip-path="url(#p5d20bc9247)" style="fill: #d62728"/>
   </g>
   <g id="patch_60">
    <path d="M 285.57827 228.08 
L 287.9716 228.08 
L 287.9716 178.420051 
L 285.57827 178.420051 
z
" clip-path="url(#p5d20bc9247)" style="fill: #d62728"/>
   </g>
   <g id="patch_61">
    <path d="M 309.511564 228.08 
L 311.904894 228.08 
L 311.904894 42.490334 
L 309.511564 42.490334 
z
" clip-path="url(#p5d20bc9247)" style="fill: #d62728"/>
   </g>
   <g id="patch_62">
    <path d="M 333.444858 228.08 
L 335.838188 228.08 
L 335.838188 137.929399 
L 333.444858 137.929399 
z
" clip-path="url(#p5d20bc9247)" style="fill: #d62728"/>
   </g>
   <g id="patch_63">
    <path d="M 357.378152 228.08 
L 359.771482 228.08 
L 359.771482 228.08 
L 357.378152 228.08 
z
" clip-path="url(#p5d20bc9247)" style="fill: #d62728"/>
   </g>
   <g id="patch_64">
    <path d="M 381.311446 228.08 
L 383.704776 228.08 
L 383.704776 180.748724 
L 381.311446 180.748724 
z
" clip-path="url(#p5d20bc9247)" style="fill: #d62728"/>
   </g>
   <g id="patch_65">
    <path d="M 405.24474 228.08 
L 407.63807 228.08 
L 407.63807 -501.066414 
L 405.24474 -501.066414 
z
" clip-path="url(#p5d20bc9247)" style="fill: #d62728"/>
   </g>
   <g id="patch_66">
    <path d="M 429.178034 228.08 
L 431.571364 228.08 
L 431.571364 180.748724 
L 429.178034 180.748724 
z
" clip-path="url(#p5d20bc9247)" style="fill: #d62728"/>
   </g>
   <g id="matplotlib.axis_1">
    <g id="xtick_1">
     <g id="line2d_1">
      <defs>
       <path id="m8788b64436" d="M 0 0 
L 0 3.5 
" style="stroke: #000000; stroke-width: 0.8"/>
      </defs>
      <g>
       <use xlink:href="#m8788b64436" x="67.785295" y="228.08" style="stroke: #000000; stroke-width: 0.8"/>
      </g>
     </g>
     <g id="text_1">
      <!-- RR_Breathing_rate1 -->
      <g transform="translate(70.405608 334.401875) rotate(-90) scale(0.1 -0.1)">
       <defs>
        <path id="DejaVuSans-52" d="M 2841 2188 
Q 3044 2119 3236 1894 
Q 3428 1669 3622 1275 
L 4263 0 
L 3584 0 
L 2988 1197 
Q 2756 1666 2539 1819 
Q 2322 1972 1947 1972 
L 1259 1972 
L 1259 0 
L 628 0 
L 628 4666 
L 2053 4666 
Q 2853 4666 3247 4331 
Q 3641 3997 3641 3322 
Q 3641 2881 3436 2590 
Q 3231 2300 2841 2188 
z
M 1259 4147 
L 1259 2491 
L 2053 2491 
Q 2509 2491 2742 2702 
Q 2975 2913 2975 3322 
Q 2975 3731 2742 3939 
Q 2509 4147 2053 4147 
L 1259 4147 
z
" transform="scale(0.015625)"/>
        <path id="DejaVuSans-5f" d="M 3263 -1063 
L 3263 -1509 
L -63 -1509 
L -63 -1063 
L 3263 -1063 
z
" transform="scale(0.015625)"/>
        <path id="DejaVuSans-42" d="M 1259 2228 
L 1259 519 
L 2272 519 
Q 2781 519 3026 730 
Q 3272 941 3272 1375 
Q 3272 1813 3026 2020 
Q 2781 2228 2272 2228 
L 1259 2228 
z
M 1259 4147 
L 1259 2741 
L 2194 2741 
Q 2656 2741 2882 2914 
Q 3109 3088 3109 3444 
Q 3109 3797 2882 3972 
Q 2656 4147 2194 4147 
L 1259 4147 
z
M 628 4666 
L 2241 4666 
Q 2963 4666 3353 4366 
Q 3744 4066 3744 3513 
Q 3744 3084 3544 2831 
Q 3344 2578 2956 2516 
Q 3422 2416 3680 2098 
Q 3938 1781 3938 1306 
Q 3938 681 3513 340 
Q 3088 0 2303 0 
L 628 0 
L 628 4666 
z
" transform="scale(0.015625)"/>
        <path id="DejaVuSans-72" d="M 2631 2963 
Q 2534 3019 2420 3045 
Q 2306 3072 2169 3072 
Q 1681 3072 1420 2755 
Q 1159 2438 1159 1844 
L 1159 0 
L 581 0 
L 581 3500 
L 1159 3500 
L 1159 2956 
Q 1341 3275 1631 3429 
Q 1922 3584 2338 3584 
Q 2397 3584 2469 3576 
Q 2541 3569 2628 3553 
L 2631 2963 
z
" transform="scale(0.015625)"/>
        <path id="DejaVuSans-65" d="M 3597 1894 
L 3597 1613 
L 953 1613 
Q 991 1019 1311 708 
Q 1631 397 2203 397 
Q 2534 397 2845 478 
Q 3156 559 3463 722 
L 3463 178 
Q 3153 47 2828 -22 
Q 2503 -91 2169 -91 
Q 1331 -91 842 396 
Q 353 884 353 1716 
Q 353 2575 817 3079 
Q 1281 3584 2069 3584 
Q 2775 3584 3186 3129 
Q 3597 2675 3597 1894 
z
M 3022 2063 
Q 3016 2534 2758 2815 
Q 2500 3097 2075 3097 
Q 1594 3097 1305 2825 
Q 1016 2553 972 2059 
L 3022 2063 
z
" transform="scale(0.015625)"/>
        <path id="DejaVuSans-61" d="M 2194 1759 
Q 1497 1759 1228 1600 
Q 959 1441 959 1056 
Q 959 750 1161 570 
Q 1363 391 1709 391 
Q 2188 391 2477 730 
Q 2766 1069 2766 1631 
L 2766 1759 
L 2194 1759 
z
M 3341 1997 
L 3341 0 
L 2766 0 
L 2766 531 
Q 2569 213 2275 61 
Q 1981 -91 1556 -91 
Q 1019 -91 701 211 
Q 384 513 384 1019 
Q 384 1609 779 1909 
Q 1175 2209 1959 2209 
L 2766 2209 
L 2766 2266 
Q 2766 2663 2505 2880 
Q 2244 3097 1772 3097 
Q 1472 3097 1187 3025 
Q 903 2953 641 2809 
L 641 3341 
Q 956 3463 1253 3523 
Q 1550 3584 1831 3584 
Q 2591 3584 2966 3190 
Q 3341 2797 3341 1997 
z
" transform="scale(0.015625)"/>
        <path id="DejaVuSans-74" d="M 1172 4494 
L 1172 3500 
L 2356 3500 
L 2356 3053 
L 1172 3053 
L 1172 1153 
Q 1172 725 1289 603 
Q 1406 481 1766 481 
L 2356 481 
L 2356 0 
L 1766 0 
Q 1100 0 847 248 
Q 594 497 594 1153 
L 594 3053 
L 172 3053 
L 172 3500 
L 594 3500 
L 594 4494 
L 1172 4494 
z
" transform="scale(0.015625)"/>
        <path id="DejaVuSans-68" d="M 3513 2113 
L 3513 0 
L 2938 0 
L 2938 2094 
Q 2938 2591 2744 2837 
Q 2550 3084 2163 3084 
Q 1697 3084 1428 2787 
Q 1159 2491 1159 1978 
L 1159 0 
L 581 0 
L 581 4863 
L 1159 4863 
L 1159 2956 
Q 1366 3272 1645 3428 
Q 1925 3584 2291 3584 
Q 2894 3584 3203 3211 
Q 3513 2838 3513 2113 
z
" transform="scale(0.015625)"/>
        <path id="DejaVuSans-69" d="M 603 3500 
L 1178 3500 
L 1178 0 
L 603 0 
L 603 3500 
z
M 603 4863 
L 1178 4863 
L 1178 4134 
L 603 4134 
L 603 4863 
z
" transform="scale(0.015625)"/>
        <path id="DejaVuSans-6e" d="M 3513 2113 
L 3513 0 
L 2938 0 
L 2938 2094 
Q 2938 2591 2744 2837 
Q 2550 3084 2163 3084 
Q 1697 3084 1428 2787 
Q 1159 2491 1159 1978 
L 1159 0 
L 581 0 
L 581 3500 
L 1159 3500 
L 1159 2956 
Q 1366 3272 1645 3428 
Q 1925 3584 2291 3584 
Q 2894 3584 3203 3211 
Q 3513 2838 3513 2113 
z
" transform="scale(0.015625)"/>
        <path id="DejaVuSans-67" d="M 2906 1791 
Q 2906 2416 2648 2759 
Q 2391 3103 1925 3103 
Q 1463 3103 1205 2759 
Q 947 2416 947 1791 
Q 947 1169 1205 825 
Q 1463 481 1925 481 
Q 2391 481 2648 825 
Q 2906 1169 2906 1791 
z
M 3481 434 
Q 3481 -459 3084 -895 
Q 2688 -1331 1869 -1331 
Q 1566 -1331 1297 -1286 
Q 1028 -1241 775 -1147 
L 775 -588 
Q 1028 -725 1275 -790 
Q 1522 -856 1778 -856 
Q 2344 -856 2625 -561 
Q 2906 -266 2906 331 
L 2906 616 
Q 2728 306 2450 153 
Q 2172 0 1784 0 
Q 1141 0 747 490 
Q 353 981 353 1791 
Q 353 2603 747 3093 
Q 1141 3584 1784 3584 
Q 2172 3584 2450 3431 
Q 2728 3278 2906 2969 
L 2906 3500 
L 3481 3500 
L 3481 434 
z
" transform="scale(0.015625)"/>
        <path id="DejaVuSans-31" d="M 794 531 
L 1825 531 
L 1825 4091 
L 703 3866 
L 703 4441 
L 1819 4666 
L 2450 4666 
L 2450 531 
L 3481 531 
L 3481 0 
L 794 0 
L 794 531 
z
" transform="scale(0.015625)"/>
       </defs>
       <use xlink:href="#DejaVuSans-52"/>
       <use xlink:href="#DejaVuSans-52" x="69.482422"/>
       <use xlink:href="#DejaVuSans-5f" x="138.964844"/>
       <use xlink:href="#DejaVuSans-42" x="188.964844"/>
       <use xlink:href="#DejaVuSans-72" x="257.568359"/>
       <use xlink:href="#DejaVuSans-65" x="296.431641"/>
       <use xlink:href="#DejaVuSans-61" x="357.955078"/>
       <use xlink:href="#DejaVuSans-74" x="419.234375"/>
       <use xlink:href="#DejaVuSans-68" x="458.443359"/>
       <use xlink:href="#DejaVuSans-69" x="521.822266"/>
       <use xlink:href="#DejaVuSans-6e" x="549.605469"/>
       <use xlink:href="#DejaVuSans-67" x="612.984375"/>
       <use xlink:href="#DejaVuSans-5f" x="676.460938"/>
       <use xlink:href="#DejaVuSans-72" x="726.460938"/>
       <use xlink:href="#DejaVuSans-61" x="767.574219"/>
       <use xlink:href="#DejaVuSans-74" x="828.853516"/>
       <use xlink:href="#DejaVuSans-65" x="868.0625"/>
       <use xlink:href="#DejaVuSans-31" x="929.585938"/>
      </g>
     </g>
    </g>
    <g id="xtick_2">
     <g id="line2d_2">
      <g>
       <use xlink:href="#m8788b64436" x="91.718589" y="228.08" style="stroke: #000000; stroke-width: 0.8"/>
      </g>
     </g>
     <g id="text_2">
      <!-- RR_Breathing_rate2 -->
      <g transform="translate(94.338902 334.401875) rotate(-90) scale(0.1 -0.1)">
       <defs>
        <path id="DejaVuSans-32" d="M 1228 531 
L 3431 531 
L 3431 0 
L 469 0 
L 469 531 
Q 828 903 1448 1529 
Q 2069 2156 2228 2338 
Q 2531 2678 2651 2914 
Q 2772 3150 2772 3378 
Q 2772 3750 2511 3984 
Q 2250 4219 1831 4219 
Q 1534 4219 1204 4116 
Q 875 4013 500 3803 
L 500 4441 
Q 881 4594 1212 4672 
Q 1544 4750 1819 4750 
Q 2544 4750 2975 4387 
Q 3406 4025 3406 3419 
Q 3406 3131 3298 2873 
Q 3191 2616 2906 2266 
Q 2828 2175 2409 1742 
Q 1991 1309 1228 531 
z
" transform="scale(0.015625)"/>
       </defs>
       <use xlink:href="#DejaVuSans-52"/>
       <use xlink:href="#DejaVuSans-52" x="69.482422"/>
       <use xlink:href="#DejaVuSans-5f" x="138.964844"/>
       <use xlink:href="#DejaVuSans-42" x="188.964844"/>
       <use xlink:href="#DejaVuSans-72" x="257.568359"/>
       <use xlink:href="#DejaVuSans-65" x="296.431641"/>
       <use xlink:href="#DejaVuSans-61" x="357.955078"/>
       <use xlink:href="#DejaVuSans-74" x="419.234375"/>
       <use xlink:href="#DejaVuSans-68" x="458.443359"/>
       <use xlink:href="#DejaVuSans-69" x="521.822266"/>
       <use xlink:href="#DejaVuSans-6e" x="549.605469"/>
       <use xlink:href="#DejaVuSans-67" x="612.984375"/>
       <use xlink:href="#DejaVuSans-5f" x="676.460938"/>
       <use xlink:href="#DejaVuSans-72" x="726.460938"/>
       <use xlink:href="#DejaVuSans-61" x="767.574219"/>
       <use xlink:href="#DejaVuSans-74" x="828.853516"/>
       <use xlink:href="#DejaVuSans-65" x="868.0625"/>
       <use xlink:href="#DejaVuSans-32" x="929.585938"/>
      </g>
     </g>
    </g>
    <g id="xtick_3">
     <g id="line2d_3">
      <g>
       <use xlink:href="#m8788b64436" x="115.651883" y="228.08" style="stroke: #000000; stroke-width: 0.8"/>
      </g>
     </g>
     <g id="text_3">
      <!-- RR_Max_breath -->
      <g transform="translate(118.272196 312.425313) rotate(-90) scale(0.1 -0.1)">
       <defs>
        <path id="DejaVuSans-4d" d="M 628 4666 
L 1569 4666 
L 2759 1491 
L 3956 4666 
L 4897 4666 
L 4897 0 
L 4281 0 
L 4281 4097 
L 3078 897 
L 2444 897 
L 1241 4097 
L 1241 0 
L 628 0 
L 628 4666 
z
" transform="scale(0.015625)"/>
        <path id="DejaVuSans-78" d="M 3513 3500 
L 2247 1797 
L 3578 0 
L 2900 0 
L 1881 1375 
L 863 0 
L 184 0 
L 1544 1831 
L 300 3500 
L 978 3500 
L 1906 2253 
L 2834 3500 
L 3513 3500 
z
" transform="scale(0.015625)"/>
        <path id="DejaVuSans-62" d="M 3116 1747 
Q 3116 2381 2855 2742 
Q 2594 3103 2138 3103 
Q 1681 3103 1420 2742 
Q 1159 2381 1159 1747 
Q 1159 1113 1420 752 
Q 1681 391 2138 391 
Q 2594 391 2855 752 
Q 3116 1113 3116 1747 
z
M 1159 2969 
Q 1341 3281 1617 3432 
Q 1894 3584 2278 3584 
Q 2916 3584 3314 3078 
Q 3713 2572 3713 1747 
Q 3713 922 3314 415 
Q 2916 -91 2278 -91 
Q 1894 -91 1617 61 
Q 1341 213 1159 525 
L 1159 0 
L 581 0 
L 581 4863 
L 1159 4863 
L 1159 2969 
z
" transform="scale(0.015625)"/>
       </defs>
       <use xlink:href="#DejaVuSans-52"/>
       <use xlink:href="#DejaVuSans-52" x="69.482422"/>
       <use xlink:href="#DejaVuSans-5f" x="138.964844"/>
       <use xlink:href="#DejaVuSans-4d" x="188.964844"/>
       <use xlink:href="#DejaVuSans-61" x="275.244141"/>
       <use xlink:href="#DejaVuSans-78" x="336.523438"/>
       <use xlink:href="#DejaVuSans-5f" x="395.703125"/>
       <use xlink:href="#DejaVuSans-62" x="445.703125"/>
       <use xlink:href="#DejaVuSans-72" x="509.179688"/>
       <use xlink:href="#DejaVuSans-65" x="548.042969"/>
       <use xlink:href="#DejaVuSans-61" x="609.566406"/>
       <use xlink:href="#DejaVuSans-74" x="670.845703"/>
       <use xlink:href="#DejaVuSans-68" x="710.054688"/>
      </g>
     </g>
    </g>
    <g id="xtick_4">
     <g id="line2d_4">
      <g>
       <use xlink:href="#m8788b64436" x="139.585177" y="228.08" style="stroke: #000000; stroke-width: 0.8"/>
      </g>
     </g>
     <g id="text_4">
      <!-- RR_Min_breath -->
      <g transform="translate(142.20549 309.494062) rotate(-90) scale(0.1 -0.1)">
       <use xlink:href="#DejaVuSans-52"/>
       <use xlink:href="#DejaVuSans-52" x="69.482422"/>
       <use xlink:href="#DejaVuSans-5f" x="138.964844"/>
       <use xlink:href="#DejaVuSans-4d" x="188.964844"/>
       <use xlink:href="#DejaVuSans-69" x="275.244141"/>
       <use xlink:href="#DejaVuSans-6e" x="303.027344"/>
       <use xlink:href="#DejaVuSans-5f" x="366.40625"/>
       <use xlink:href="#DejaVuSans-62" x="416.40625"/>
       <use xlink:href="#DejaVuSans-72" x="479.882812"/>
       <use xlink:href="#DejaVuSans-65" x="518.746094"/>
       <use xlink:href="#DejaVuSans-61" x="580.269531"/>
       <use xlink:href="#DejaVuSans-74" x="641.548828"/>
       <use xlink:href="#DejaVuSans-68" x="680.757812"/>
      </g>
     </g>
    </g>
    <g id="xtick_5">
     <g id="line2d_5">
      <g>
       <use xlink:href="#m8788b64436" x="163.518471" y="228.08" style="stroke: #000000; stroke-width: 0.8"/>
      </g>
     </g>
     <g id="text_5">
      <!-- RR_RMSSD -->
      <g transform="translate(166.050502 289.950312) rotate(-90) scale(0.1 -0.1)">
       <defs>
        <path id="DejaVuSans-53" d="M 3425 4513 
L 3425 3897 
Q 3066 4069 2747 4153 
Q 2428 4238 2131 4238 
Q 1616 4238 1336 4038 
Q 1056 3838 1056 3469 
Q 1056 3159 1242 3001 
Q 1428 2844 1947 2747 
L 2328 2669 
Q 3034 2534 3370 2195 
Q 3706 1856 3706 1288 
Q 3706 609 3251 259 
Q 2797 -91 1919 -91 
Q 1588 -91 1214 -16 
Q 841 59 441 206 
L 441 856 
Q 825 641 1194 531 
Q 1563 422 1919 422 
Q 2459 422 2753 634 
Q 3047 847 3047 1241 
Q 3047 1584 2836 1778 
Q 2625 1972 2144 2069 
L 1759 2144 
Q 1053 2284 737 2584 
Q 422 2884 422 3419 
Q 422 4038 858 4394 
Q 1294 4750 2059 4750 
Q 2388 4750 2728 4690 
Q 3069 4631 3425 4513 
z
" transform="scale(0.015625)"/>
        <path id="DejaVuSans-44" d="M 1259 4147 
L 1259 519 
L 2022 519 
Q 2988 519 3436 956 
Q 3884 1394 3884 2338 
Q 3884 3275 3436 3711 
Q 2988 4147 2022 4147 
L 1259 4147 
z
M 628 4666 
L 1925 4666 
Q 3281 4666 3915 4102 
Q 4550 3538 4550 2338 
Q 4550 1131 3912 565 
Q 3275 0 1925 0 
L 628 0 
L 628 4666 
z
" transform="scale(0.015625)"/>
       </defs>
       <use xlink:href="#DejaVuSans-52"/>
       <use xlink:href="#DejaVuSans-52" x="69.482422"/>
       <use xlink:href="#DejaVuSans-5f" x="138.964844"/>
       <use xlink:href="#DejaVuSans-52" x="188.964844"/>
       <use xlink:href="#DejaVuSans-4d" x="258.447266"/>
       <use xlink:href="#DejaVuSans-53" x="344.726562"/>
       <use xlink:href="#DejaVuSans-53" x="408.203125"/>
       <use xlink:href="#DejaVuSans-44" x="471.679688"/>
      </g>
     </g>
    </g>
    <g id="xtick_6">
     <g id="line2d_6">
      <g>
       <use xlink:href="#m8788b64436" x="187.451765" y="228.08" style="stroke: #000000; stroke-width: 0.8"/>
      </g>
     </g>
     <g id="text_6">
      <!-- RR_SDBB -->
      <g transform="translate(189.983796 281.747187) rotate(-90) scale(0.1 -0.1)">
       <use xlink:href="#DejaVuSans-52"/>
       <use xlink:href="#DejaVuSans-52" x="69.482422"/>
       <use xlink:href="#DejaVuSans-5f" x="138.964844"/>
       <use xlink:href="#DejaVuSans-53" x="188.964844"/>
       <use xlink:href="#DejaVuSans-44" x="252.441406"/>
       <use xlink:href="#DejaVuSans-42" x="329.443359"/>
       <use xlink:href="#DejaVuSans-42" x="398.046875"/>
      </g>
     </g>
    </g>
    <g id="xtick_7">
     <g id="line2d_7">
      <g>
       <use xlink:href="#m8788b64436" x="211.385059" y="228.08" style="stroke: #000000; stroke-width: 0.8"/>
      </g>
     </g>
     <g id="text_7">
      <!-- RR_SDSD -->
      <g transform="translate(213.91709 282.07375) rotate(-90) scale(0.1 -0.1)">
       <use xlink:href="#DejaVuSans-52"/>
       <use xlink:href="#DejaVuSans-52" x="69.482422"/>
       <use xlink:href="#DejaVuSans-5f" x="138.964844"/>
       <use xlink:href="#DejaVuSans-53" x="188.964844"/>
       <use xlink:href="#DejaVuSans-44" x="252.441406"/>
       <use xlink:href="#DejaVuSans-53" x="329.443359"/>
       <use xlink:href="#DejaVuSans-44" x="392.919922"/>
      </g>
     </g>
    </g>
    <g id="xtick_8">
     <g id="line2d_8">
      <g>
       <use xlink:href="#m8788b64436" x="235.318353" y="228.08" style="stroke: #000000; stroke-width: 0.8"/>
      </g>
     </g>
     <g id="text_8">
      <!-- RR_CVBB -->
      <g transform="translate(237.850384 281.522187) rotate(-90) scale(0.1 -0.1)">
       <defs>
        <path id="DejaVuSans-43" d="M 4122 4306 
L 4122 3641 
Q 3803 3938 3442 4084 
Q 3081 4231 2675 4231 
Q 1875 4231 1450 3742 
Q 1025 3253 1025 2328 
Q 1025 1406 1450 917 
Q 1875 428 2675 428 
Q 3081 428 3442 575 
Q 3803 722 4122 1019 
L 4122 359 
Q 3791 134 3420 21 
Q 3050 -91 2638 -91 
Q 1578 -91 968 557 
Q 359 1206 359 2328 
Q 359 3453 968 4101 
Q 1578 4750 2638 4750 
Q 3056 4750 3426 4639 
Q 3797 4528 4122 4306 
z
" transform="scale(0.015625)"/>
        <path id="DejaVuSans-56" d="M 1831 0 
L 50 4666 
L 709 4666 
L 2188 738 
L 3669 4666 
L 4325 4666 
L 2547 0 
L 1831 0 
z
" transform="scale(0.015625)"/>
       </defs>
       <use xlink:href="#DejaVuSans-52"/>
       <use xlink:href="#DejaVuSans-52" x="69.482422"/>
       <use xlink:href="#DejaVuSans-5f" x="138.964844"/>
       <use xlink:href="#DejaVuSans-43" x="188.964844"/>
       <use xlink:href="#DejaVuSans-56" x="258.789062"/>
       <use xlink:href="#DejaVuSans-42" x="327.197266"/>
       <use xlink:href="#DejaVuSans-42" x="395.800781"/>
      </g>
     </g>
    </g>
    <g id="xtick_9">
     <g id="line2d_9">
      <g>
       <use xlink:href="#m8788b64436" x="259.251647" y="228.08" style="stroke: #000000; stroke-width: 0.8"/>
      </g>
     </g>
     <g id="text_9">
      <!-- RR_CVSD -->
      <g transform="translate(261.783678 281.84875) rotate(-90) scale(0.1 -0.1)">
       <use xlink:href="#DejaVuSans-52"/>
       <use xlink:href="#DejaVuSans-52" x="69.482422"/>
       <use xlink:href="#DejaVuSans-5f" x="138.964844"/>
       <use xlink:href="#DejaVuSans-43" x="188.964844"/>
       <use xlink:href="#DejaVuSans-56" x="258.789062"/>
       <use xlink:href="#DejaVuSans-53" x="327.197266"/>
       <use xlink:href="#DejaVuSans-44" x="390.673828"/>
      </g>
     </g>
    </g>
    <g id="xtick_10">
     <g id="line2d_10">
      <g>
       <use xlink:href="#m8788b64436" x="283.184941" y="228.08" style="stroke: #000000; stroke-width: 0.8"/>
      </g>
     </g>
     <g id="text_10">
      <!-- RR_MedianBB -->
      <g transform="translate(285.805253 304.072187) rotate(-90) scale(0.1 -0.1)">
       <defs>
        <path id="DejaVuSans-64" d="M 2906 2969 
L 2906 4863 
L 3481 4863 
L 3481 0 
L 2906 0 
L 2906 525 
Q 2725 213 2448 61 
Q 2172 -91 1784 -91 
Q 1150 -91 751 415 
Q 353 922 353 1747 
Q 353 2572 751 3078 
Q 1150 3584 1784 3584 
Q 2172 3584 2448 3432 
Q 2725 3281 2906 2969 
z
M 947 1747 
Q 947 1113 1208 752 
Q 1469 391 1925 391 
Q 2381 391 2643 752 
Q 2906 1113 2906 1747 
Q 2906 2381 2643 2742 
Q 2381 3103 1925 3103 
Q 1469 3103 1208 2742 
Q 947 2381 947 1747 
z
" transform="scale(0.015625)"/>
       </defs>
       <use xlink:href="#DejaVuSans-52"/>
       <use xlink:href="#DejaVuSans-52" x="69.482422"/>
       <use xlink:href="#DejaVuSans-5f" x="138.964844"/>
       <use xlink:href="#DejaVuSans-4d" x="188.964844"/>
       <use xlink:href="#DejaVuSans-65" x="275.244141"/>
       <use xlink:href="#DejaVuSans-64" x="336.767578"/>
       <use xlink:href="#DejaVuSans-69" x="400.244141"/>
       <use xlink:href="#DejaVuSans-61" x="428.027344"/>
       <use xlink:href="#DejaVuSans-6e" x="489.306641"/>
       <use xlink:href="#DejaVuSans-42" x="552.685547"/>
       <use xlink:href="#DejaVuSans-42" x="621.289062"/>
      </g>
     </g>
    </g>
    <g id="xtick_11">
     <g id="line2d_11">
      <g>
       <use xlink:href="#m8788b64436" x="307.118235" y="228.08" style="stroke: #000000; stroke-width: 0.8"/>
      </g>
     </g>
     <g id="text_11">
      <!-- RR_pNN50 -->
      <g transform="translate(309.650266 288.012812) rotate(-90) scale(0.1 -0.1)">
       <defs>
        <path id="DejaVuSans-70" d="M 1159 525 
L 1159 -1331 
L 581 -1331 
L 581 3500 
L 1159 3500 
L 1159 2969 
Q 1341 3281 1617 3432 
Q 1894 3584 2278 3584 
Q 2916 3584 3314 3078 
Q 3713 2572 3713 1747 
Q 3713 922 3314 415 
Q 2916 -91 2278 -91 
Q 1894 -91 1617 61 
Q 1341 213 1159 525 
z
M 3116 1747 
Q 3116 2381 2855 2742 
Q 2594 3103 2138 3103 
Q 1681 3103 1420 2742 
Q 1159 2381 1159 1747 
Q 1159 1113 1420 752 
Q 1681 391 2138 391 
Q 2594 391 2855 752 
Q 3116 1113 3116 1747 
z
" transform="scale(0.015625)"/>
        <path id="DejaVuSans-4e" d="M 628 4666 
L 1478 4666 
L 3547 763 
L 3547 4666 
L 4159 4666 
L 4159 0 
L 3309 0 
L 1241 3903 
L 1241 0 
L 628 0 
L 628 4666 
z
" transform="scale(0.015625)"/>
        <path id="DejaVuSans-35" d="M 691 4666 
L 3169 4666 
L 3169 4134 
L 1269 4134 
L 1269 2991 
Q 1406 3038 1543 3061 
Q 1681 3084 1819 3084 
Q 2600 3084 3056 2656 
Q 3513 2228 3513 1497 
Q 3513 744 3044 326 
Q 2575 -91 1722 -91 
Q 1428 -91 1123 -41 
Q 819 9 494 109 
L 494 744 
Q 775 591 1075 516 
Q 1375 441 1709 441 
Q 2250 441 2565 725 
Q 2881 1009 2881 1497 
Q 2881 1984 2565 2268 
Q 2250 2553 1709 2553 
Q 1456 2553 1204 2497 
Q 953 2441 691 2322 
L 691 4666 
z
" transform="scale(0.015625)"/>
        <path id="DejaVuSans-30" d="M 2034 4250 
Q 1547 4250 1301 3770 
Q 1056 3291 1056 2328 
Q 1056 1369 1301 889 
Q 1547 409 2034 409 
Q 2525 409 2770 889 
Q 3016 1369 3016 2328 
Q 3016 3291 2770 3770 
Q 2525 4250 2034 4250 
z
M 2034 4750 
Q 2819 4750 3233 4129 
Q 3647 3509 3647 2328 
Q 3647 1150 3233 529 
Q 2819 -91 2034 -91 
Q 1250 -91 836 529 
Q 422 1150 422 2328 
Q 422 3509 836 4129 
Q 1250 4750 2034 4750 
z
" transform="scale(0.015625)"/>
       </defs>
       <use xlink:href="#DejaVuSans-52"/>
       <use xlink:href="#DejaVuSans-52" x="69.482422"/>
       <use xlink:href="#DejaVuSans-5f" x="138.964844"/>
       <use xlink:href="#DejaVuSans-70" x="188.964844"/>
       <use xlink:href="#DejaVuSans-4e" x="252.441406"/>
       <use xlink:href="#DejaVuSans-4e" x="327.246094"/>
       <use xlink:href="#DejaVuSans-35" x="402.050781"/>
       <use xlink:href="#DejaVuSans-30" x="465.673828"/>
      </g>
     </g>
    </g>
    <g id="xtick_12">
     <g id="line2d_12">
      <g>
       <use xlink:href="#m8788b64436" x="331.051529" y="228.08" style="stroke: #000000; stroke-width: 0.8"/>
      </g>
     </g>
     <g id="text_12">
      <!-- RR_pNN20 -->
      <g transform="translate(333.58356 288.012812) rotate(-90) scale(0.1 -0.1)">
       <use xlink:href="#DejaVuSans-52"/>
       <use xlink:href="#DejaVuSans-52" x="69.482422"/>
       <use xlink:href="#DejaVuSans-5f" x="138.964844"/>
       <use xlink:href="#DejaVuSans-70" x="188.964844"/>
       <use xlink:href="#DejaVuSans-4e" x="252.441406"/>
       <use xlink:href="#DejaVuSans-4e" x="327.246094"/>
       <use xlink:href="#DejaVuSans-32" x="402.050781"/>
       <use xlink:href="#DejaVuSans-30" x="465.673828"/>
      </g>
     </g>
    </g>
    <g id="xtick_13">
     <g id="line2d_13">
      <g>
       <use xlink:href="#m8788b64436" x="354.984823" y="228.08" style="stroke: #000000; stroke-width: 0.8"/>
      </g>
     </g>
     <g id="text_13">
      <!-- RR_Mean -->
      <g transform="translate(357.466073 281.22375) rotate(-90) scale(0.1 -0.1)">
       <use xlink:href="#DejaVuSans-52"/>
       <use xlink:href="#DejaVuSans-52" x="69.482422"/>
       <use xlink:href="#DejaVuSans-5f" x="138.964844"/>
       <use xlink:href="#DejaVuSans-4d" x="188.964844"/>
       <use xlink:href="#DejaVuSans-65" x="275.244141"/>
       <use xlink:href="#DejaVuSans-61" x="336.767578"/>
       <use xlink:href="#DejaVuSans-6e" x="398.046875"/>
      </g>
     </g>
    </g>
    <g id="xtick_14">
     <g id="line2d_14">
      <g>
       <use xlink:href="#m8788b64436" x="378.918117" y="228.08" style="stroke: #000000; stroke-width: 0.8"/>
      </g>
     </g>
     <g id="text_14">
      <!-- RR_STD -->
      <g transform="translate(381.450148 274.133125) rotate(-90) scale(0.1 -0.1)">
       <defs>
        <path id="DejaVuSans-54" d="M -19 4666 
L 3928 4666 
L 3928 4134 
L 2272 4134 
L 2272 0 
L 1638 0 
L 1638 4134 
L -19 4134 
L -19 4666 
z
" transform="scale(0.015625)"/>
       </defs>
       <use xlink:href="#DejaVuSans-52"/>
       <use xlink:href="#DejaVuSans-52" x="69.482422"/>
       <use xlink:href="#DejaVuSans-5f" x="138.964844"/>
       <use xlink:href="#DejaVuSans-53" x="188.964844"/>
       <use xlink:href="#DejaVuSans-54" x="252.441406"/>
       <use xlink:href="#DejaVuSans-44" x="313.525391"/>
      </g>
     </g>
    </g>
    <g id="xtick_15">
     <g id="line2d_15">
      <g>
       <use xlink:href="#m8788b64436" x="402.851411" y="228.08" style="stroke: #000000; stroke-width: 0.8"/>
      </g>
     </g>
     <g id="text_15">
      <!-- RR_Median -->
      <g transform="translate(405.471723 290.350312) rotate(-90) scale(0.1 -0.1)">
       <use xlink:href="#DejaVuSans-52"/>
       <use xlink:href="#DejaVuSans-52" x="69.482422"/>
       <use xlink:href="#DejaVuSans-5f" x="138.964844"/>
       <use xlink:href="#DejaVuSans-4d" x="188.964844"/>
       <use xlink:href="#DejaVuSans-65" x="275.244141"/>
       <use xlink:href="#DejaVuSans-64" x="336.767578"/>
       <use xlink:href="#DejaVuSans-69" x="400.244141"/>
       <use xlink:href="#DejaVuSans-61" x="428.027344"/>
       <use xlink:href="#DejaVuSans-6e" x="489.306641"/>
      </g>
     </g>
    </g>
    <g id="xtick_16">
     <g id="line2d_16">
      <g>
       <use xlink:href="#m8788b64436" x="426.784705" y="228.08" style="stroke: #000000; stroke-width: 0.8"/>
      </g>
     </g>
     <g id="text_16">
      <!-- RR_RMS -->
      <g transform="translate(429.316736 275.901875) rotate(-90) scale(0.1 -0.1)">
       <use xlink:href="#DejaVuSans-52"/>
       <use xlink:href="#DejaVuSans-52" x="69.482422"/>
       <use xlink:href="#DejaVuSans-5f" x="138.964844"/>
       <use xlink:href="#DejaVuSans-52" x="188.964844"/>
       <use xlink:href="#DejaVuSans-4d" x="258.447266"/>
       <use xlink:href="#DejaVuSans-53" x="344.726562"/>
      </g>
     </g>
    </g>
   </g>
   <g id="matplotlib.axis_2">
    <g id="ytick_1">
     <g id="line2d_17">
      <defs>
       <path id="m4598faac24" d="M 0 0 
L -3.5 0 
" style="stroke: #000000; stroke-width: 0.8"/>
      </defs>
      <g>
       <use xlink:href="#m4598faac24" x="44.57" y="228.08" style="stroke: #000000; stroke-width: 0.8"/>
      </g>
     </g>
     <g id="text_17">
      <!-- 0 -->
      <g transform="translate(31.2075 231.879219) scale(0.1 -0.1)">
       <use xlink:href="#DejaVuSans-30"/>
      </g>
     </g>
    </g>
    <g id="ytick_2">
     <g id="line2d_18">
      <g>
       <use xlink:href="#m4598faac24" x="44.57" y="201.253333" style="stroke: #000000; stroke-width: 0.8"/>
      </g>
     </g>
     <g id="text_18">
      <!-- 10 -->
      <g transform="translate(24.845 205.052552) scale(0.1 -0.1)">
       <use xlink:href="#DejaVuSans-31"/>
       <use xlink:href="#DejaVuSans-30" x="63.623047"/>
      </g>
     </g>
    </g>
    <g id="ytick_3">
     <g id="line2d_19">
      <g>
       <use xlink:href="#m4598faac24" x="44.57" y="174.426667" style="stroke: #000000; stroke-width: 0.8"/>
      </g>
     </g>
     <g id="text_19">
      <!-- 20 -->
      <g transform="translate(24.845 178.225885) scale(0.1 -0.1)">
       <use xlink:href="#DejaVuSans-32"/>
       <use xlink:href="#DejaVuSans-30" x="63.623047"/>
      </g>
     </g>
    </g>
    <g id="ytick_4">
     <g id="line2d_20">
      <g>
       <use xlink:href="#m4598faac24" x="44.57" y="147.6" style="stroke: #000000; stroke-width: 0.8"/>
      </g>
     </g>
     <g id="text_20">
      <!-- 30 -->
      <g transform="translate(24.845 151.399219) scale(0.1 -0.1)">
       <defs>
        <path id="DejaVuSans-33" d="M 2597 2516 
Q 3050 2419 3304 2112 
Q 3559 1806 3559 1356 
Q 3559 666 3084 287 
Q 2609 -91 1734 -91 
Q 1441 -91 1130 -33 
Q 819 25 488 141 
L 488 750 
Q 750 597 1062 519 
Q 1375 441 1716 441 
Q 2309 441 2620 675 
Q 2931 909 2931 1356 
Q 2931 1769 2642 2001 
Q 2353 2234 1838 2234 
L 1294 2234 
L 1294 2753 
L 1863 2753 
Q 2328 2753 2575 2939 
Q 2822 3125 2822 3475 
Q 2822 3834 2567 4026 
Q 2313 4219 1838 4219 
Q 1578 4219 1281 4162 
Q 984 4106 628 3988 
L 628 4550 
Q 988 4650 1302 4700 
Q 1616 4750 1894 4750 
Q 2613 4750 3031 4423 
Q 3450 4097 3450 3541 
Q 3450 3153 3228 2886 
Q 3006 2619 2597 2516 
z
" transform="scale(0.015625)"/>
       </defs>
       <use xlink:href="#DejaVuSans-33"/>
       <use xlink:href="#DejaVuSans-30" x="63.623047"/>
      </g>
     </g>
    </g>
    <g id="ytick_5">
     <g id="line2d_21">
      <g>
       <use xlink:href="#m4598faac24" x="44.57" y="120.773333" style="stroke: #000000; stroke-width: 0.8"/>
      </g>
     </g>
     <g id="text_21">
      <!-- 40 -->
      <g transform="translate(24.845 124.572552) scale(0.1 -0.1)">
       <defs>
        <path id="DejaVuSans-34" d="M 2419 4116 
L 825 1625 
L 2419 1625 
L 2419 4116 
z
M 2253 4666 
L 3047 4666 
L 3047 1625 
L 3713 1625 
L 3713 1100 
L 3047 1100 
L 3047 0 
L 2419 0 
L 2419 1100 
L 313 1100 
L 313 1709 
L 2253 4666 
z
" transform="scale(0.015625)"/>
       </defs>
       <use xlink:href="#DejaVuSans-34"/>
       <use xlink:href="#DejaVuSans-30" x="63.623047"/>
      </g>
     </g>
    </g>
    <g id="ytick_6">
     <g id="line2d_22">
      <g>
       <use xlink:href="#m4598faac24" x="44.57" y="93.946667" style="stroke: #000000; stroke-width: 0.8"/>
      </g>
     </g>
     <g id="text_22">
      <!-- 50 -->
      <g transform="translate(24.845 97.745885) scale(0.1 -0.1)">
       <use xlink:href="#DejaVuSans-35"/>
       <use xlink:href="#DejaVuSans-30" x="63.623047"/>
      </g>
     </g>
    </g>
    <g id="ytick_7">
     <g id="line2d_23">
      <g>
       <use xlink:href="#m4598faac24" x="44.57" y="67.12" style="stroke: #000000; stroke-width: 0.8"/>
      </g>
     </g>
     <g id="text_23">
      <!-- 60 -->
      <g transform="translate(24.845 70.919219) scale(0.1 -0.1)">
       <defs>
        <path id="DejaVuSans-36" d="M 2113 2584 
Q 1688 2584 1439 2293 
Q 1191 2003 1191 1497 
Q 1191 994 1439 701 
Q 1688 409 2113 409 
Q 2538 409 2786 701 
Q 3034 994 3034 1497 
Q 3034 2003 2786 2293 
Q 2538 2584 2113 2584 
z
M 3366 4563 
L 3366 3988 
Q 3128 4100 2886 4159 
Q 2644 4219 2406 4219 
Q 1781 4219 1451 3797 
Q 1122 3375 1075 2522 
Q 1259 2794 1537 2939 
Q 1816 3084 2150 3084 
Q 2853 3084 3261 2657 
Q 3669 2231 3669 1497 
Q 3669 778 3244 343 
Q 2819 -91 2113 -91 
Q 1303 -91 875 529 
Q 447 1150 447 2328 
Q 447 3434 972 4092 
Q 1497 4750 2381 4750 
Q 2619 4750 2861 4703 
Q 3103 4656 3366 4563 
z
" transform="scale(0.015625)"/>
       </defs>
       <use xlink:href="#DejaVuSans-36"/>
       <use xlink:href="#DejaVuSans-30" x="63.623047"/>
      </g>
     </g>
    </g>
    <g id="ytick_8">
     <g id="line2d_24">
      <g>
       <use xlink:href="#m4598faac24" x="44.57" y="40.293333" style="stroke: #000000; stroke-width: 0.8"/>
      </g>
     </g>
     <g id="text_24">
      <!-- 70 -->
      <g transform="translate(24.845 44.092552) scale(0.1 -0.1)">
       <defs>
        <path id="DejaVuSans-37" d="M 525 4666 
L 3525 4666 
L 3525 4397 
L 1831 0 
L 1172 0 
L 2766 4134 
L 525 4134 
L 525 4666 
z
" transform="scale(0.015625)"/>
       </defs>
       <use xlink:href="#DejaVuSans-37"/>
       <use xlink:href="#DejaVuSans-30" x="63.623047"/>
      </g>
     </g>
    </g>
    <g id="text_25">
     <!-- Percentage Change (%) -->
     <g transform="translate(18.765313 186.576875) rotate(-90) scale(0.1 -0.1)">
      <defs>
       <path id="DejaVuSans-50" d="M 1259 4147 
L 1259 2394 
L 2053 2394 
Q 2494 2394 2734 2622 
Q 2975 2850 2975 3272 
Q 2975 3691 2734 3919 
Q 2494 4147 2053 4147 
L 1259 4147 
z
M 628 4666 
L 2053 4666 
Q 2838 4666 3239 4311 
Q 3641 3956 3641 3272 
Q 3641 2581 3239 2228 
Q 2838 1875 2053 1875 
L 1259 1875 
L 1259 0 
L 628 0 
L 628 4666 
z
" transform="scale(0.015625)"/>
       <path id="DejaVuSans-63" d="M 3122 3366 
L 3122 2828 
Q 2878 2963 2633 3030 
Q 2388 3097 2138 3097 
Q 1578 3097 1268 2742 
Q 959 2388 959 1747 
Q 959 1106 1268 751 
Q 1578 397 2138 397 
Q 2388 397 2633 464 
Q 2878 531 3122 666 
L 3122 134 
Q 2881 22 2623 -34 
Q 2366 -91 2075 -91 
Q 1284 -91 818 406 
Q 353 903 353 1747 
Q 353 2603 823 3093 
Q 1294 3584 2113 3584 
Q 2378 3584 2631 3529 
Q 2884 3475 3122 3366 
z
" transform="scale(0.015625)"/>
       <path id="DejaVuSans-20" transform="scale(0.015625)"/>
       <path id="DejaVuSans-28" d="M 1984 4856 
Q 1566 4138 1362 3434 
Q 1159 2731 1159 2009 
Q 1159 1288 1364 580 
Q 1569 -128 1984 -844 
L 1484 -844 
Q 1016 -109 783 600 
Q 550 1309 550 2009 
Q 550 2706 781 3412 
Q 1013 4119 1484 4856 
L 1984 4856 
z
" transform="scale(0.015625)"/>
       <path id="DejaVuSans-25" d="M 4653 2053 
Q 4381 2053 4226 1822 
Q 4072 1591 4072 1178 
Q 4072 772 4226 539 
Q 4381 306 4653 306 
Q 4919 306 5073 539 
Q 5228 772 5228 1178 
Q 5228 1588 5073 1820 
Q 4919 2053 4653 2053 
z
M 4653 2450 
Q 5147 2450 5437 2106 
Q 5728 1763 5728 1178 
Q 5728 594 5436 251 
Q 5144 -91 4653 -91 
Q 4153 -91 3862 251 
Q 3572 594 3572 1178 
Q 3572 1766 3864 2108 
Q 4156 2450 4653 2450 
z
M 1428 4353 
Q 1159 4353 1004 4120 
Q 850 3888 850 3481 
Q 850 3069 1003 2837 
Q 1156 2606 1428 2606 
Q 1700 2606 1854 2837 
Q 2009 3069 2009 3481 
Q 2009 3884 1853 4118 
Q 1697 4353 1428 4353 
z
M 4250 4750 
L 4750 4750 
L 1831 -91 
L 1331 -91 
L 4250 4750 
z
M 1428 4750 
Q 1922 4750 2215 4408 
Q 2509 4066 2509 3481 
Q 2509 2891 2217 2550 
Q 1925 2209 1428 2209 
Q 931 2209 642 2551 
Q 353 2894 353 3481 
Q 353 4063 643 4406 
Q 934 4750 1428 4750 
z
" transform="scale(0.015625)"/>
       <path id="DejaVuSans-29" d="M 513 4856 
L 1013 4856 
Q 1481 4119 1714 3412 
Q 1947 2706 1947 2009 
Q 1947 1309 1714 600 
Q 1481 -109 1013 -844 
L 513 -844 
Q 928 -128 1133 580 
Q 1338 1288 1338 2009 
Q 1338 2731 1133 3434 
Q 928 4138 513 4856 
z
" transform="scale(0.015625)"/>
      </defs>
      <use xlink:href="#DejaVuSans-50"/>
      <use xlink:href="#DejaVuSans-65" x="56.677734"/>
      <use xlink:href="#DejaVuSans-72" x="118.201172"/>
      <use xlink:href="#DejaVuSans-63" x="157.064453"/>
      <use xlink:href="#DejaVuSans-65" x="212.044922"/>
      <use xlink:href="#DejaVuSans-6e" x="273.568359"/>
      <use xlink:href="#DejaVuSans-74" x="336.947266"/>
      <use xlink:href="#DejaVuSans-61" x="376.15625"/>
      <use xlink:href="#DejaVuSans-67" x="437.435547"/>
      <use xlink:href="#DejaVuSans-65" x="500.912109"/>
      <use xlink:href="#DejaVuSans-20" x="562.435547"/>
      <use xlink:href="#DejaVuSans-43" x="594.222656"/>
      <use xlink:href="#DejaVuSans-68" x="664.046875"/>
      <use xlink:href="#DejaVuSans-61" x="727.425781"/>
      <use xlink:href="#DejaVuSans-6e" x="788.705078"/>
      <use xlink:href="#DejaVuSans-67" x="852.083984"/>
      <use xlink:href="#DejaVuSans-65" x="915.560547"/>
      <use xlink:href="#DejaVuSans-20" x="977.083984"/>
      <use xlink:href="#DejaVuSans-28" x="1008.871094"/>
      <use xlink:href="#DejaVuSans-25" x="1047.884766"/>
      <use xlink:href="#DejaVuSans-29" x="1142.904297"/>
     </g>
    </g>
   </g>
   <g id="patch_67">
    <path d="M 44.57 228.08 
L 44.57 26.88 
" style="fill: none; stroke: #000000; stroke-width: 0.8; stroke-linejoin: miter; stroke-linecap: square"/>
   </g>
   <g id="patch_68">
    <path d="M 450 228.08 
L 450 26.88 
" style="fill: none; stroke: #000000; stroke-width: 0.8; stroke-linejoin: miter; stroke-linecap: square"/>
   </g>
   <g id="patch_69">
    <path d="M 44.57 228.08 
L 450 228.08 
" style="fill: none; stroke: #000000; stroke-width: 0.8; stroke-linejoin: miter; stroke-linecap: square"/>
   </g>
   <g id="patch_70">
    <path d="M 44.57 26.88 
L 450 26.88 
" style="fill: none; stroke: #000000; stroke-width: 0.8; stroke-linejoin: miter; stroke-linecap: square"/>
   </g>
   <g id="text_26">
    <!-- Relative difference between extracted and measured feature -->
    <g transform="translate(63.784375 20.88) scale(0.12 -0.12)">
     <defs>
      <path id="DejaVuSans-6c" d="M 603 4863 
L 1178 4863 
L 1178 0 
L 603 0 
L 603 4863 
z
" transform="scale(0.015625)"/>
      <path id="DejaVuSans-76" d="M 191 3500 
L 800 3500 
L 1894 563 
L 2988 3500 
L 3597 3500 
L 2284 0 
L 1503 0 
L 191 3500 
z
" transform="scale(0.015625)"/>
      <path id="DejaVuSans-66" d="M 2375 4863 
L 2375 4384 
L 1825 4384 
Q 1516 4384 1395 4259 
Q 1275 4134 1275 3809 
L 1275 3500 
L 2222 3500 
L 2222 3053 
L 1275 3053 
L 1275 0 
L 697 0 
L 697 3053 
L 147 3053 
L 147 3500 
L 697 3500 
L 697 3744 
Q 697 4328 969 4595 
Q 1241 4863 1831 4863 
L 2375 4863 
z
" transform="scale(0.015625)"/>
      <path id="DejaVuSans-77" d="M 269 3500 
L 844 3500 
L 1563 769 
L 2278 3500 
L 2956 3500 
L 3675 769 
L 4391 3500 
L 4966 3500 
L 4050 0 
L 3372 0 
L 2619 2869 
L 1863 0 
L 1184 0 
L 269 3500 
z
" transform="scale(0.015625)"/>
      <path id="DejaVuSans-6d" d="M 3328 2828 
Q 3544 3216 3844 3400 
Q 4144 3584 4550 3584 
Q 5097 3584 5394 3201 
Q 5691 2819 5691 2113 
L 5691 0 
L 5113 0 
L 5113 2094 
Q 5113 2597 4934 2840 
Q 4756 3084 4391 3084 
Q 3944 3084 3684 2787 
Q 3425 2491 3425 1978 
L 3425 0 
L 2847 0 
L 2847 2094 
Q 2847 2600 2669 2842 
Q 2491 3084 2119 3084 
Q 1678 3084 1418 2786 
Q 1159 2488 1159 1978 
L 1159 0 
L 581 0 
L 581 3500 
L 1159 3500 
L 1159 2956 
Q 1356 3278 1631 3431 
Q 1906 3584 2284 3584 
Q 2666 3584 2933 3390 
Q 3200 3197 3328 2828 
z
" transform="scale(0.015625)"/>
      <path id="DejaVuSans-73" d="M 2834 3397 
L 2834 2853 
Q 2591 2978 2328 3040 
Q 2066 3103 1784 3103 
Q 1356 3103 1142 2972 
Q 928 2841 928 2578 
Q 928 2378 1081 2264 
Q 1234 2150 1697 2047 
L 1894 2003 
Q 2506 1872 2764 1633 
Q 3022 1394 3022 966 
Q 3022 478 2636 193 
Q 2250 -91 1575 -91 
Q 1294 -91 989 -36 
Q 684 19 347 128 
L 347 722 
Q 666 556 975 473 
Q 1284 391 1588 391 
Q 1994 391 2212 530 
Q 2431 669 2431 922 
Q 2431 1156 2273 1281 
Q 2116 1406 1581 1522 
L 1381 1569 
Q 847 1681 609 1914 
Q 372 2147 372 2553 
Q 372 3047 722 3315 
Q 1072 3584 1716 3584 
Q 2034 3584 2315 3537 
Q 2597 3491 2834 3397 
z
" transform="scale(0.015625)"/>
      <path id="DejaVuSans-75" d="M 544 1381 
L 544 3500 
L 1119 3500 
L 1119 1403 
Q 1119 906 1312 657 
Q 1506 409 1894 409 
Q 2359 409 2629 706 
Q 2900 1003 2900 1516 
L 2900 3500 
L 3475 3500 
L 3475 0 
L 2900 0 
L 2900 538 
Q 2691 219 2414 64 
Q 2138 -91 1772 -91 
Q 1169 -91 856 284 
Q 544 659 544 1381 
z
M 1991 3584 
L 1991 3584 
z
" transform="scale(0.015625)"/>
     </defs>
     <use xlink:href="#DejaVuSans-52"/>
     <use xlink:href="#DejaVuSans-65" x="64.982422"/>
     <use xlink:href="#DejaVuSans-6c" x="126.505859"/>
     <use xlink:href="#DejaVuSans-61" x="154.289062"/>
     <use xlink:href="#DejaVuSans-74" x="215.568359"/>
     <use xlink:href="#DejaVuSans-69" x="254.777344"/>
     <use xlink:href="#DejaVuSans-76" x="282.560547"/>
     <use xlink:href="#DejaVuSans-65" x="341.740234"/>
     <use xlink:href="#DejaVuSans-20" x="403.263672"/>
     <use xlink:href="#DejaVuSans-64" x="435.050781"/>
     <use xlink:href="#DejaVuSans-69" x="498.527344"/>
     <use xlink:href="#DejaVuSans-66" x="526.310547"/>
     <use xlink:href="#DejaVuSans-66" x="561.515625"/>
     <use xlink:href="#DejaVuSans-65" x="596.720703"/>
     <use xlink:href="#DejaVuSans-72" x="658.244141"/>
     <use xlink:href="#DejaVuSans-65" x="697.107422"/>
     <use xlink:href="#DejaVuSans-6e" x="758.630859"/>
     <use xlink:href="#DejaVuSans-63" x="822.009766"/>
     <use xlink:href="#DejaVuSans-65" x="876.990234"/>
     <use xlink:href="#DejaVuSans-20" x="938.513672"/>
     <use xlink:href="#DejaVuSans-62" x="970.300781"/>
     <use xlink:href="#DejaVuSans-65" x="1033.777344"/>
     <use xlink:href="#DejaVuSans-74" x="1095.300781"/>
     <use xlink:href="#DejaVuSans-77" x="1134.509766"/>
     <use xlink:href="#DejaVuSans-65" x="1216.296875"/>
     <use xlink:href="#DejaVuSans-65" x="1277.820312"/>
     <use xlink:href="#DejaVuSans-6e" x="1339.34375"/>
     <use xlink:href="#DejaVuSans-20" x="1402.722656"/>
     <use xlink:href="#DejaVuSans-65" x="1434.509766"/>
     <use xlink:href="#DejaVuSans-78" x="1494.283203"/>
     <use xlink:href="#DejaVuSans-74" x="1553.462891"/>
     <use xlink:href="#DejaVuSans-72" x="1592.671875"/>
     <use xlink:href="#DejaVuSans-61" x="1633.785156"/>
     <use xlink:href="#DejaVuSans-63" x="1695.064453"/>
     <use xlink:href="#DejaVuSans-74" x="1750.044922"/>
     <use xlink:href="#DejaVuSans-65" x="1789.253906"/>
     <use xlink:href="#DejaVuSans-64" x="1850.777344"/>
     <use xlink:href="#DejaVuSans-20" x="1914.253906"/>
     <use xlink:href="#DejaVuSans-61" x="1946.041016"/>
     <use xlink:href="#DejaVuSans-6e" x="2007.320312"/>
     <use xlink:href="#DejaVuSans-64" x="2070.699219"/>
     <use xlink:href="#DejaVuSans-20" x="2134.175781"/>
     <use xlink:href="#DejaVuSans-6d" x="2165.962891"/>
     <use xlink:href="#DejaVuSans-65" x="2263.375"/>
     <use xlink:href="#DejaVuSans-61" x="2324.898438"/>
     <use xlink:href="#DejaVuSans-73" x="2386.177734"/>
     <use xlink:href="#DejaVuSans-75" x="2438.277344"/>
     <use xlink:href="#DejaVuSans-72" x="2501.65625"/>
     <use xlink:href="#DejaVuSans-65" x="2540.519531"/>
     <use xlink:href="#DejaVuSans-64" x="2602.042969"/>
     <use xlink:href="#DejaVuSans-20" x="2665.519531"/>
     <use xlink:href="#DejaVuSans-66" x="2697.306641"/>
     <use xlink:href="#DejaVuSans-65" x="2732.511719"/>
     <use xlink:href="#DejaVuSans-61" x="2794.035156"/>
     <use xlink:href="#DejaVuSans-74" x="2855.314453"/>
     <use xlink:href="#DejaVuSans-75" x="2894.523438"/>
     <use xlink:href="#DejaVuSans-72" x="2957.902344"/>
     <use xlink:href="#DejaVuSans-65" x="2996.765625"/>
    </g>
   </g>
   <g id="legend_1">
    <g id="patch_71">
     <path d="M 51.57 93.5925 
L 150.249687 93.5925 
Q 152.249687 93.5925 152.249687 91.5925 
L 152.249687 33.88 
Q 152.249687 31.88 150.249687 31.88 
L 51.57 31.88 
Q 49.57 31.88 49.57 33.88 
L 49.57 91.5925 
Q 49.57 93.5925 51.57 93.5925 
z
" style="fill: #ffffff; opacity: 0.8; stroke: #cccccc; stroke-linejoin: miter"/>
    </g>
    <g id="patch_72">
     <path d="M 53.57 43.478438 
L 73.57 43.478438 
L 73.57 36.478438 
L 53.57 36.478438 
z
" style="fill: #1f77b4"/>
    </g>
    <g id="text_27">
     <!-- soni2019 -->
     <g transform="translate(81.57 43.478438) scale(0.1 -0.1)">
      <defs>
       <path id="DejaVuSans-6f" d="M 1959 3097 
Q 1497 3097 1228 2736 
Q 959 2375 959 1747 
Q 959 1119 1226 758 
Q 1494 397 1959 397 
Q 2419 397 2687 759 
Q 2956 1122 2956 1747 
Q 2956 2369 2687 2733 
Q 2419 3097 1959 3097 
z
M 1959 3584 
Q 2709 3584 3137 3096 
Q 3566 2609 3566 1747 
Q 3566 888 3137 398 
Q 2709 -91 1959 -91 
Q 1206 -91 779 398 
Q 353 888 353 1747 
Q 353 2609 779 3096 
Q 1206 3584 1959 3584 
z
" transform="scale(0.015625)"/>
       <path id="DejaVuSans-39" d="M 703 97 
L 703 672 
Q 941 559 1184 500 
Q 1428 441 1663 441 
Q 2288 441 2617 861 
Q 2947 1281 2994 2138 
Q 2813 1869 2534 1725 
Q 2256 1581 1919 1581 
Q 1219 1581 811 2004 
Q 403 2428 403 3163 
Q 403 3881 828 4315 
Q 1253 4750 1959 4750 
Q 2769 4750 3195 4129 
Q 3622 3509 3622 2328 
Q 3622 1225 3098 567 
Q 2575 -91 1691 -91 
Q 1453 -91 1209 -44 
Q 966 3 703 97 
z
M 1959 2075 
Q 2384 2075 2632 2365 
Q 2881 2656 2881 3163 
Q 2881 3666 2632 3958 
Q 2384 4250 1959 4250 
Q 1534 4250 1286 3958 
Q 1038 3666 1038 3163 
Q 1038 2656 1286 2365 
Q 1534 2075 1959 2075 
z
" transform="scale(0.015625)"/>
      </defs>
      <use xlink:href="#DejaVuSans-73"/>
      <use xlink:href="#DejaVuSans-6f" x="52.099609"/>
      <use xlink:href="#DejaVuSans-6e" x="113.28125"/>
      <use xlink:href="#DejaVuSans-69" x="176.660156"/>
      <use xlink:href="#DejaVuSans-32" x="204.443359"/>
      <use xlink:href="#DejaVuSans-30" x="268.066406"/>
      <use xlink:href="#DejaVuSans-31" x="331.689453"/>
      <use xlink:href="#DejaVuSans-39" x="395.3125"/>
     </g>
    </g>
    <g id="patch_73">
     <path d="M 53.57 58.156563 
L 73.57 58.156563 
L 73.57 51.156563 
L 53.57 51.156563 
z
" style="fill: #ff7f0e"/>
    </g>
    <g id="text_28">
     <!-- vangent2019 -->
     <g transform="translate(81.57 58.156563) scale(0.1 -0.1)">
      <use xlink:href="#DejaVuSans-76"/>
      <use xlink:href="#DejaVuSans-61" x="59.179688"/>
      <use xlink:href="#DejaVuSans-6e" x="120.458984"/>
      <use xlink:href="#DejaVuSans-67" x="183.837891"/>
      <use xlink:href="#DejaVuSans-65" x="247.314453"/>
      <use xlink:href="#DejaVuSans-6e" x="308.837891"/>
      <use xlink:href="#DejaVuSans-74" x="372.216797"/>
      <use xlink:href="#DejaVuSans-32" x="411.425781"/>
      <use xlink:href="#DejaVuSans-30" x="475.048828"/>
      <use xlink:href="#DejaVuSans-31" x="538.671875"/>
      <use xlink:href="#DejaVuSans-39" x="602.294922"/>
     </g>
    </g>
    <g id="patch_74">
     <path d="M 53.57 72.834688 
L 73.57 72.834688 
L 73.57 65.834688 
L 53.57 65.834688 
z
" style="fill: #2ca02c"/>
    </g>
    <g id="text_29">
     <!-- charlton2016 -->
     <g transform="translate(81.57 72.834688) scale(0.1 -0.1)">
      <use xlink:href="#DejaVuSans-63"/>
      <use xlink:href="#DejaVuSans-68" x="54.980469"/>
      <use xlink:href="#DejaVuSans-61" x="118.359375"/>
      <use xlink:href="#DejaVuSans-72" x="179.638672"/>
      <use xlink:href="#DejaVuSans-6c" x="220.751953"/>
      <use xlink:href="#DejaVuSans-74" x="248.535156"/>
      <use xlink:href="#DejaVuSans-6f" x="287.744141"/>
      <use xlink:href="#DejaVuSans-6e" x="348.925781"/>
      <use xlink:href="#DejaVuSans-32" x="412.304688"/>
      <use xlink:href="#DejaVuSans-30" x="475.927734"/>
      <use xlink:href="#DejaVuSans-31" x="539.550781"/>
      <use xlink:href="#DejaVuSans-36" x="603.173828"/>
     </g>
    </g>
    <g id="patch_75">
     <path d="M 53.57 87.512813 
L 73.57 87.512813 
L 73.57 80.512813 
L 53.57 80.512813 
z
" style="fill: #d62728"/>
    </g>
    <g id="text_30">
     <!-- sarkar2015 -->
     <g transform="translate(81.57 87.512813) scale(0.1 -0.1)">
      <defs>
       <path id="DejaVuSans-6b" d="M 581 4863 
L 1159 4863 
L 1159 1991 
L 2875 3500 
L 3609 3500 
L 1753 1863 
L 3688 0 
L 2938 0 
L 1159 1709 
L 1159 0 
L 581 0 
L 581 4863 
z
" transform="scale(0.015625)"/>
      </defs>
      <use xlink:href="#DejaVuSans-73"/>
      <use xlink:href="#DejaVuSans-61" x="52.099609"/>
      <use xlink:href="#DejaVuSans-72" x="113.378906"/>
      <use xlink:href="#DejaVuSans-6b" x="154.492188"/>
      <use xlink:href="#DejaVuSans-61" x="210.652344"/>
      <use xlink:href="#DejaVuSans-72" x="271.931641"/>
      <use xlink:href="#DejaVuSans-32" x="313.044922"/>
      <use xlink:href="#DejaVuSans-30" x="376.667969"/>
      <use xlink:href="#DejaVuSans-31" x="440.291016"/>
      <use xlink:href="#DejaVuSans-35" x="503.914062"/>
     </g>
    </g>
   </g>
  </g>
 </g>
 <defs>
  <clipPath id="p5d20bc9247">
   <rect x="44.57" y="26.88" width="405.43" height="201.2"/>
  </clipPath>
 </defs>
</svg>
