<?xml version="1.0" encoding="utf-8" standalone="no"?>
<!DOCTYPE svg PUBLIC "-//W3C//DTD SVG 1.1//EN"
  "http://www.w3.org/Graphics/SVG/1.1/DTD/svg11.dtd">
<svg xmlns:xlink="http://www.w3.org/1999/xlink" width="460.8pt" height="345.6pt" viewBox="0 0 460.8 345.6" xmlns="http://www.w3.org/2000/svg" version="1.1">
 <metadata>
  <rdf:RDF xmlns:dc="http://purl.org/dc/elements/1.1/" xmlns:cc="http://creativecommons.org/ns#" xmlns:rdf="http://www.w3.org/1999/02/22-rdf-syntax-ns#">
   <cc:Work>
    <dc:type rdf:resource="http://purl.org/dc/dcmitype/StillImage"/>
    <dc:date>2024-05-31T10:27:05.744556</dc:date>
    <dc:format>image/svg+xml</dc:format>
    <dc:creator>
     <cc:Agent>
      <dc:title>Matplotlib v3.8.2, https://matplotlib.org/</dc:title>
     </cc:Agent>
    </dc:creator>
   </cc:Work>
  </rdf:RDF>
 </metadata>
 <defs>
  <style type="text/css">*{stroke-linejoin: round; stroke-linecap: butt}</style>
 </defs>
 <g id="figure_1">
  <g id="patch_1">
   <path d="M 0 345.6 
L 460.8 345.6 
L 460.8 0 
L 0 0 
z
" style="fill: #ffffff"/>
  </g>
  <g id="axes_1">
   <g id="patch_2">
    <path d="M 57.6 307.584 
L 414.72 307.584 
L 414.72 41.472 
L 57.6 41.472 
z
" style="fill: #ffffff"/>
   </g>
   <g id="matplotlib.axis_1">
    <g id="xtick_1">
     <g id="line2d_1">
      <defs>
       <path id="mbf7ff21345" d="M 0 0 
L 0 3.5 
" style="stroke: #000000; stroke-width: 0.8"/>
      </defs>
      <g>
       <use xlink:href="#mbf7ff21345" x="73.832727" y="307.584" style="stroke: #000000; stroke-width: 0.8"/>
      </g>
     </g>
     <g id="text_1">
      <!-- 0 -->
      <g transform="translate(70.651477 322.182437) scale(0.1 -0.1)">
       <defs>
        <path id="DejaVuSans-30" d="M 2034 4250 
Q 1547 4250 1301 3770 
Q 1056 3291 1056 2328 
Q 1056 1369 1301 889 
Q 1547 409 2034 409 
Q 2525 409 2770 889 
Q 3016 1369 3016 2328 
Q 3016 3291 2770 3770 
Q 2525 4250 2034 4250 
z
M 2034 4750 
Q 2819 4750 3233 4129 
Q 3647 3509 3647 2328 
Q 3647 1150 3233 529 
Q 2819 -91 2034 -91 
Q 1250 -91 836 529 
Q 422 1150 422 2328 
Q 422 3509 836 4129 
Q 1250 4750 2034 4750 
z
" transform="scale(0.015625)"/>
       </defs>
       <use xlink:href="#DejaVuSans-30"/>
      </g>
     </g>
    </g>
    <g id="xtick_2">
     <g id="line2d_2">
      <g>
       <use xlink:href="#mbf7ff21345" x="114.414545" y="307.584" style="stroke: #000000; stroke-width: 0.8"/>
      </g>
     </g>
     <g id="text_2">
      <!-- 5 -->
      <g transform="translate(111.233295 322.182437) scale(0.1 -0.1)">
       <defs>
        <path id="DejaVuSans-35" d="M 691 4666 
L 3169 4666 
L 3169 4134 
L 1269 4134 
L 1269 2991 
Q 1406 3038 1543 3061 
Q 1681 3084 1819 3084 
Q 2600 3084 3056 2656 
Q 3513 2228 3513 1497 
Q 3513 744 3044 326 
Q 2575 -91 1722 -91 
Q 1428 -91 1123 -41 
Q 819 9 494 109 
L 494 744 
Q 775 591 1075 516 
Q 1375 441 1709 441 
Q 2250 441 2565 725 
Q 2881 1009 2881 1497 
Q 2881 1984 2565 2268 
Q 2250 2553 1709 2553 
Q 1456 2553 1204 2497 
Q 953 2441 691 2322 
L 691 4666 
z
" transform="scale(0.015625)"/>
       </defs>
       <use xlink:href="#DejaVuSans-35"/>
      </g>
     </g>
    </g>
    <g id="xtick_3">
     <g id="line2d_3">
      <g>
       <use xlink:href="#mbf7ff21345" x="154.996364" y="307.584" style="stroke: #000000; stroke-width: 0.8"/>
      </g>
     </g>
     <g id="text_3">
      <!-- 10 -->
      <g transform="translate(148.633864 322.182437) scale(0.1 -0.1)">
       <defs>
        <path id="DejaVuSans-31" d="M 794 531 
L 1825 531 
L 1825 4091 
L 703 3866 
L 703 4441 
L 1819 4666 
L 2450 4666 
L 2450 531 
L 3481 531 
L 3481 0 
L 794 0 
L 794 531 
z
" transform="scale(0.015625)"/>
       </defs>
       <use xlink:href="#DejaVuSans-31"/>
       <use xlink:href="#DejaVuSans-30" x="63.623047"/>
      </g>
     </g>
    </g>
    <g id="xtick_4">
     <g id="line2d_4">
      <g>
       <use xlink:href="#mbf7ff21345" x="195.578182" y="307.584" style="stroke: #000000; stroke-width: 0.8"/>
      </g>
     </g>
     <g id="text_4">
      <!-- 15 -->
      <g transform="translate(189.215682 322.182437) scale(0.1 -0.1)">
       <use xlink:href="#DejaVuSans-31"/>
       <use xlink:href="#DejaVuSans-35" x="63.623047"/>
      </g>
     </g>
    </g>
    <g id="xtick_5">
     <g id="line2d_5">
      <g>
       <use xlink:href="#mbf7ff21345" x="236.16" y="307.584" style="stroke: #000000; stroke-width: 0.8"/>
      </g>
     </g>
     <g id="text_5">
      <!-- 20 -->
      <g transform="translate(229.7975 322.182437) scale(0.1 -0.1)">
       <defs>
        <path id="DejaVuSans-32" d="M 1228 531 
L 3431 531 
L 3431 0 
L 469 0 
L 469 531 
Q 828 903 1448 1529 
Q 2069 2156 2228 2338 
Q 2531 2678 2651 2914 
Q 2772 3150 2772 3378 
Q 2772 3750 2511 3984 
Q 2250 4219 1831 4219 
Q 1534 4219 1204 4116 
Q 875 4013 500 3803 
L 500 4441 
Q 881 4594 1212 4672 
Q 1544 4750 1819 4750 
Q 2544 4750 2975 4387 
Q 3406 4025 3406 3419 
Q 3406 3131 3298 2873 
Q 3191 2616 2906 2266 
Q 2828 2175 2409 1742 
Q 1991 1309 1228 531 
z
" transform="scale(0.015625)"/>
       </defs>
       <use xlink:href="#DejaVuSans-32"/>
       <use xlink:href="#DejaVuSans-30" x="63.623047"/>
      </g>
     </g>
    </g>
    <g id="xtick_6">
     <g id="line2d_6">
      <g>
       <use xlink:href="#mbf7ff21345" x="276.741818" y="307.584" style="stroke: #000000; stroke-width: 0.8"/>
      </g>
     </g>
     <g id="text_6">
      <!-- 25 -->
      <g transform="translate(270.379318 322.182437) scale(0.1 -0.1)">
       <use xlink:href="#DejaVuSans-32"/>
       <use xlink:href="#DejaVuSans-35" x="63.623047"/>
      </g>
     </g>
    </g>
    <g id="xtick_7">
     <g id="line2d_7">
      <g>
       <use xlink:href="#mbf7ff21345" x="317.323636" y="307.584" style="stroke: #000000; stroke-width: 0.8"/>
      </g>
     </g>
     <g id="text_7">
      <!-- 30 -->
      <g transform="translate(310.961136 322.182437) scale(0.1 -0.1)">
       <defs>
        <path id="DejaVuSans-33" d="M 2597 2516 
Q 3050 2419 3304 2112 
Q 3559 1806 3559 1356 
Q 3559 666 3084 287 
Q 2609 -91 1734 -91 
Q 1441 -91 1130 -33 
Q 819 25 488 141 
L 488 750 
Q 750 597 1062 519 
Q 1375 441 1716 441 
Q 2309 441 2620 675 
Q 2931 909 2931 1356 
Q 2931 1769 2642 2001 
Q 2353 2234 1838 2234 
L 1294 2234 
L 1294 2753 
L 1863 2753 
Q 2328 2753 2575 2939 
Q 2822 3125 2822 3475 
Q 2822 3834 2567 4026 
Q 2313 4219 1838 4219 
Q 1578 4219 1281 4162 
Q 984 4106 628 3988 
L 628 4550 
Q 988 4650 1302 4700 
Q 1616 4750 1894 4750 
Q 2613 4750 3031 4423 
Q 3450 4097 3450 3541 
Q 3450 3153 3228 2886 
Q 3006 2619 2597 2516 
z
" transform="scale(0.015625)"/>
       </defs>
       <use xlink:href="#DejaVuSans-33"/>
       <use xlink:href="#DejaVuSans-30" x="63.623047"/>
      </g>
     </g>
    </g>
    <g id="xtick_8">
     <g id="line2d_8">
      <g>
       <use xlink:href="#mbf7ff21345" x="357.905455" y="307.584" style="stroke: #000000; stroke-width: 0.8"/>
      </g>
     </g>
     <g id="text_8">
      <!-- 35 -->
      <g transform="translate(351.542955 322.182437) scale(0.1 -0.1)">
       <use xlink:href="#DejaVuSans-33"/>
       <use xlink:href="#DejaVuSans-35" x="63.623047"/>
      </g>
     </g>
    </g>
    <g id="xtick_9">
     <g id="line2d_9">
      <g>
       <use xlink:href="#mbf7ff21345" x="398.487273" y="307.584" style="stroke: #000000; stroke-width: 0.8"/>
      </g>
     </g>
     <g id="text_9">
      <!-- 40 -->
      <g transform="translate(392.124773 322.182437) scale(0.1 -0.1)">
       <defs>
        <path id="DejaVuSans-34" d="M 2419 4116 
L 825 1625 
L 2419 1625 
L 2419 4116 
z
M 2253 4666 
L 3047 4666 
L 3047 1625 
L 3713 1625 
L 3713 1100 
L 3047 1100 
L 3047 0 
L 2419 0 
L 2419 1100 
L 313 1100 
L 313 1709 
L 2253 4666 
z
" transform="scale(0.015625)"/>
       </defs>
       <use xlink:href="#DejaVuSans-34"/>
       <use xlink:href="#DejaVuSans-30" x="63.623047"/>
      </g>
     </g>
    </g>
    <g id="text_10">
     <!-- Time [$s$] -->
     <g transform="translate(215.66 335.860562) scale(0.1 -0.1)">
      <defs>
       <path id="DejaVuSans-54" d="M -19 4666 
L 3928 4666 
L 3928 4134 
L 2272 4134 
L 2272 0 
L 1638 0 
L 1638 4134 
L -19 4134 
L -19 4666 
z
" transform="scale(0.015625)"/>
       <path id="DejaVuSans-69" d="M 603 3500 
L 1178 3500 
L 1178 0 
L 603 0 
L 603 3500 
z
M 603 4863 
L 1178 4863 
L 1178 4134 
L 603 4134 
L 603 4863 
z
" transform="scale(0.015625)"/>
       <path id="DejaVuSans-6d" d="M 3328 2828 
Q 3544 3216 3844 3400 
Q 4144 3584 4550 3584 
Q 5097 3584 5394 3201 
Q 5691 2819 5691 2113 
L 5691 0 
L 5113 0 
L 5113 2094 
Q 5113 2597 4934 2840 
Q 4756 3084 4391 3084 
Q 3944 3084 3684 2787 
Q 3425 2491 3425 1978 
L 3425 0 
L 2847 0 
L 2847 2094 
Q 2847 2600 2669 2842 
Q 2491 3084 2119 3084 
Q 1678 3084 1418 2786 
Q 1159 2488 1159 1978 
L 1159 0 
L 581 0 
L 581 3500 
L 1159 3500 
L 1159 2956 
Q 1356 3278 1631 3431 
Q 1906 3584 2284 3584 
Q 2666 3584 2933 3390 
Q 3200 3197 3328 2828 
z
" transform="scale(0.015625)"/>
       <path id="DejaVuSans-65" d="M 3597 1894 
L 3597 1613 
L 953 1613 
Q 991 1019 1311 708 
Q 1631 397 2203 397 
Q 2534 397 2845 478 
Q 3156 559 3463 722 
L 3463 178 
Q 3153 47 2828 -22 
Q 2503 -91 2169 -91 
Q 1331 -91 842 396 
Q 353 884 353 1716 
Q 353 2575 817 3079 
Q 1281 3584 2069 3584 
Q 2775 3584 3186 3129 
Q 3597 2675 3597 1894 
z
M 3022 2063 
Q 3016 2534 2758 2815 
Q 2500 3097 2075 3097 
Q 1594 3097 1305 2825 
Q 1016 2553 972 2059 
L 3022 2063 
z
" transform="scale(0.015625)"/>
       <path id="DejaVuSans-20" transform="scale(0.015625)"/>
       <path id="DejaVuSans-5b" d="M 550 4863 
L 1875 4863 
L 1875 4416 
L 1125 4416 
L 1125 -397 
L 1875 -397 
L 1875 -844 
L 550 -844 
L 550 4863 
z
" transform="scale(0.015625)"/>
       <path id="DejaVuSans-Oblique-73" d="M 3200 3397 
L 3091 2853 
Q 2863 2978 2609 3040 
Q 2356 3103 2088 3103 
Q 1634 3103 1373 2948 
Q 1113 2794 1113 2528 
Q 1113 2219 1719 2053 
Q 1766 2041 1788 2034 
L 1972 1978 
Q 2547 1819 2739 1644 
Q 2931 1469 2931 1166 
Q 2931 609 2489 259 
Q 2047 -91 1331 -91 
Q 1053 -91 747 -37 
Q 441 16 72 128 
L 184 722 
Q 500 559 806 475 
Q 1113 391 1394 391 
Q 1816 391 2080 572 
Q 2344 753 2344 1031 
Q 2344 1331 1650 1516 
L 1591 1531 
L 1394 1581 
Q 956 1697 753 1886 
Q 550 2075 550 2369 
Q 550 2928 970 3256 
Q 1391 3584 2113 3584 
Q 2397 3584 2667 3537 
Q 2938 3491 3200 3397 
z
" transform="scale(0.015625)"/>
       <path id="DejaVuSans-5d" d="M 1947 4863 
L 1947 -844 
L 622 -844 
L 622 -397 
L 1369 -397 
L 1369 4416 
L 622 4416 
L 622 4863 
L 1947 4863 
z
" transform="scale(0.015625)"/>
      </defs>
      <use xlink:href="#DejaVuSans-54" transform="translate(0 0.015625)"/>
      <use xlink:href="#DejaVuSans-69" transform="translate(61.083984 0.015625)"/>
      <use xlink:href="#DejaVuSans-6d" transform="translate(88.867188 0.015625)"/>
      <use xlink:href="#DejaVuSans-65" transform="translate(186.279297 0.015625)"/>
      <use xlink:href="#DejaVuSans-20" transform="translate(247.802734 0.015625)"/>
      <use xlink:href="#DejaVuSans-5b" transform="translate(279.589844 0.015625)"/>
      <use xlink:href="#DejaVuSans-Oblique-73" transform="translate(318.603516 0.015625)"/>
      <use xlink:href="#DejaVuSans-5d" transform="translate(370.703125 0.015625)"/>
     </g>
    </g>
   </g>
   <g id="matplotlib.axis_2">
    <g id="ytick_1">
     <g id="line2d_10">
      <defs>
       <path id="m3a0279a427" d="M 0 0 
L -3.5 0 
" style="stroke: #000000; stroke-width: 0.8"/>
      </defs>
      <g>
       <use xlink:href="#m3a0279a427" x="57.6" y="286.226753" style="stroke: #000000; stroke-width: 0.8"/>
      </g>
     </g>
     <g id="text_11">
      <!-- −30 -->
      <g transform="translate(29.495313 290.025972) scale(0.1 -0.1)">
       <defs>
        <path id="DejaVuSans-2212" d="M 678 2272 
L 4684 2272 
L 4684 1741 
L 678 1741 
L 678 2272 
z
" transform="scale(0.015625)"/>
       </defs>
       <use xlink:href="#DejaVuSans-2212"/>
       <use xlink:href="#DejaVuSans-33" x="83.789062"/>
       <use xlink:href="#DejaVuSans-30" x="147.412109"/>
      </g>
     </g>
    </g>
    <g id="ytick_2">
     <g id="line2d_11">
      <g>
       <use xlink:href="#m3a0279a427" x="57.6" y="246.7445" style="stroke: #000000; stroke-width: 0.8"/>
      </g>
     </g>
     <g id="text_12">
      <!-- −20 -->
      <g transform="translate(29.495313 250.543719) scale(0.1 -0.1)">
       <use xlink:href="#DejaVuSans-2212"/>
       <use xlink:href="#DejaVuSans-32" x="83.789062"/>
       <use xlink:href="#DejaVuSans-30" x="147.412109"/>
      </g>
     </g>
    </g>
    <g id="ytick_3">
     <g id="line2d_12">
      <g>
       <use xlink:href="#m3a0279a427" x="57.6" y="207.262246" style="stroke: #000000; stroke-width: 0.8"/>
      </g>
     </g>
     <g id="text_13">
      <!-- −10 -->
      <g transform="translate(29.495313 211.061465) scale(0.1 -0.1)">
       <use xlink:href="#DejaVuSans-2212"/>
       <use xlink:href="#DejaVuSans-31" x="83.789062"/>
       <use xlink:href="#DejaVuSans-30" x="147.412109"/>
      </g>
     </g>
    </g>
    <g id="ytick_4">
     <g id="line2d_13">
      <g>
       <use xlink:href="#m3a0279a427" x="57.6" y="167.779993" style="stroke: #000000; stroke-width: 0.8"/>
      </g>
     </g>
     <g id="text_14">
      <!-- 0 -->
      <g transform="translate(44.2375 171.579212) scale(0.1 -0.1)">
       <use xlink:href="#DejaVuSans-30"/>
      </g>
     </g>
    </g>
    <g id="ytick_5">
     <g id="line2d_14">
      <g>
       <use xlink:href="#m3a0279a427" x="57.6" y="128.297739" style="stroke: #000000; stroke-width: 0.8"/>
      </g>
     </g>
     <g id="text_15">
      <!-- 10 -->
      <g transform="translate(37.875 132.096958) scale(0.1 -0.1)">
       <use xlink:href="#DejaVuSans-31"/>
       <use xlink:href="#DejaVuSans-30" x="63.623047"/>
      </g>
     </g>
    </g>
    <g id="ytick_6">
     <g id="line2d_15">
      <g>
       <use xlink:href="#m3a0279a427" x="57.6" y="88.815486" style="stroke: #000000; stroke-width: 0.8"/>
      </g>
     </g>
     <g id="text_16">
      <!-- 20 -->
      <g transform="translate(37.875 92.614705) scale(0.1 -0.1)">
       <use xlink:href="#DejaVuSans-32"/>
       <use xlink:href="#DejaVuSans-30" x="63.623047"/>
      </g>
     </g>
    </g>
    <g id="ytick_7">
     <g id="line2d_16">
      <g>
       <use xlink:href="#m3a0279a427" x="57.6" y="49.333232" style="stroke: #000000; stroke-width: 0.8"/>
      </g>
     </g>
     <g id="text_17">
      <!-- 30 -->
      <g transform="translate(37.875 53.132451) scale(0.1 -0.1)">
       <use xlink:href="#DejaVuSans-33"/>
       <use xlink:href="#DejaVuSans-30" x="63.623047"/>
      </g>
     </g>
    </g>
    <g id="text_18">
     <!-- ? -->
     <g transform="translate(23.415625 177.181906) rotate(-90) scale(0.1 -0.1)">
      <defs>
       <path id="DejaVuSans-3f" d="M 1222 794 
L 1856 794 
L 1856 0 
L 1222 0 
L 1222 794 
z
M 1838 1253 
L 1241 1253 
L 1241 1734 
Q 1241 2050 1328 2253 
Q 1416 2456 1697 2725 
L 1978 3003 
Q 2156 3169 2236 3316 
Q 2316 3463 2316 3616 
Q 2316 3894 2111 4066 
Q 1906 4238 1569 4238 
Q 1322 4238 1042 4128 
Q 763 4019 459 3809 
L 459 4397 
Q 753 4575 1054 4662 
Q 1356 4750 1678 4750 
Q 2253 4750 2601 4447 
Q 2950 4144 2950 3647 
Q 2950 3409 2837 3195 
Q 2725 2981 2444 2713 
L 2169 2444 
Q 2022 2297 1961 2214 
Q 1900 2131 1875 2053 
Q 1856 1988 1847 1894 
Q 1838 1800 1838 1638 
L 1838 1253 
z
" transform="scale(0.015625)"/>
      </defs>
      <use xlink:href="#DejaVuSans-3f"/>
     </g>
    </g>
   </g>
   <g id="line2d_17">
    <path d="M 73.832727 167.779993 
L 75.375222 167.877739 
L 75.94351 168.152622 
L 76.430613 168.648206 
L 76.917717 169.464272 
L 77.486004 170.877241 
L 78.21666 173.41759 
L 79.272051 178.128789 
L 80.48981 183.412313 
L 81.058097 185.072079 
L 81.545201 185.857339 
L 81.869937 186.026538 
L 82.194672 185.914285 
L 82.519408 185.534333 
L 82.925328 184.715949 
L 83.493615 183.024747 
L 84.305455 179.822965 
L 86.253869 171.801055 
L 87.30926 168.679878 
L 88.445835 165.282415 
L 89.257674 162.100531 
L 90.313066 156.936352 
L 91.936744 148.931156 
L 92.586216 146.765414 
L 93.073319 145.769265 
L 93.479239 145.340602 
L 93.885159 145.216118 
L 94.372262 145.346034 
L 96.077125 146.085026 
L 96.564228 145.982852 
L 97.132516 145.637976 
L 98.269091 144.583487 
L 98.999746 144.077569 
L 99.568034 143.933935 
L 101.191712 143.765612 
L 101.678816 143.315847 
L 102.16592 142.545309 
L 102.815391 141.068406 
L 104.357886 137.291978 
L 104.763805 136.843469 
L 105.088541 136.814518 
L 105.332093 137.016894 
L 105.656829 137.61149 
L 106.062748 138.896202 
L 106.549852 141.214833 
L 107.199323 145.467619 
L 108.173531 153.60156 
L 112.151543 188.768336 
L 113.775222 200.559351 
L 115.398901 210.733894 
L 117.022579 219.652054 
L 117.834419 223.050358 
L 118.402706 224.534866 
L 118.808626 225.017865 
L 119.052178 225.059449 
L 119.295729 224.91422 
L 119.620465 224.439922 
L 120.026385 223.434099 
L 120.594672 221.397412 
L 121.650063 216.545437 
L 125.30334 198.461136 
L 126.521099 190.14748 
L 131.635687 154.041115 
L 132.203975 151.839575 
L 132.609894 150.95109 
L 132.93463 150.616829 
L 133.259366 150.557988 
L 133.665285 150.76136 
L 134.558309 151.620893 
L 135.370148 152.235671 
L 137.805666 153.542573 
L 138.049218 153.35794 
L 138.29277 152.903711 
L 138.617505 151.731323 
L 139.023425 149.090541 
L 139.429345 144.88178 
L 139.997632 136.150939 
L 140.728288 120.722213 
L 142.43315 82.757384 
L 142.920254 76.507742 
L 143.244989 74.306456 
L 143.488541 73.758891 
L 143.650909 73.923062 
L 143.894461 74.947511 
L 144.219197 77.693264 
L 144.7063 84.410044 
L 145.436956 98.672775 
L 147.304186 137.381455 
L 148.034841 147.405182 
L 148.765497 154.325582 
L 150.470359 168.668237 
L 151.119831 177.110557 
L 151.850486 189.736317 
L 152.74351 209.282245 
L 155.341395 269.124404 
L 155.990867 277.883423 
L 156.47797 281.916817 
L 156.88389 283.722749 
L 157.208626 284.263438 
L 157.370994 284.263951 
L 157.614545 283.957337 
L 157.939281 283.018603 
L 158.345201 281.046194 
L 158.832304 277.488166 
L 159.400592 271.431865 
L 159.968879 262.795513 
L 160.618351 249.035373 
L 161.349006 228.173694 
L 162.323214 193.122639 
L 164.51518 111.862406 
L 165.408203 87.232654 
L 166.138858 72.365449 
L 166.78833 63.211479 
L 167.356617 58.0982 
L 167.843721 55.503465 
L 168.249641 54.302116 
L 168.65556 53.723337 
L 168.980296 53.572631 
L 169.386216 53.658395 
L 169.792135 53.997058 
L 170.198055 54.620934 
L 170.603975 55.646199 
L 171.009894 57.252075 
L 171.496998 60.243893 
L 171.984101 64.729861 
L 172.552389 72.201217 
L 173.20186 83.886051 
L 174.0137 102.819245 
L 175.312643 139.413687 
L 176.936321 183.974413 
L 177.829345 202.456428 
L 178.56 213.181679 
L 179.209471 219.622056 
L 179.858943 223.794835 
L 180.508414 226.489159 
L 181.320254 228.84463 
L 182.781564 232.277176 
L 183.51222 233.548433 
L 183.999323 233.972715 
L 184.324059 233.980619 
L 184.648795 233.725761 
L 185.054715 233.00282 
L 185.541818 231.528518 
L 186.110106 229.033498 
L 186.921945 224.37101 
L 188.951543 212.215783 
L 189.519831 210.211841 
L 189.925751 209.443509 
L 190.250486 209.242643 
L 190.494038 209.321504 
L 190.818774 209.698497 
L 191.305877 210.714377 
L 192.848372 214.384545 
L 193.173108 214.665072 
L 193.41666 214.680099 
L 193.660211 214.515995 
L 193.984947 214.012261 
L 194.390867 212.934136 
L 194.959154 210.662507 
L 195.68981 206.676138 
L 196.664017 200.008716 
L 197.881776 190.073345 
L 199.343087 176.215306 
L 202.671628 141.767063 
L 205.269514 112.07832 
L 206.649641 97.645069 
L 207.705032 88.852157 
L 208.598055 83.189231 
L 209.32871 79.769834 
L 209.978182 77.662648 
L 210.465285 76.68838 
L 210.871205 76.305293 
L 211.195941 76.305887 
L 211.520677 76.607263 
L 211.845412 77.239617 
L 212.251332 78.539979 
L 212.738436 80.898591 
L 213.387907 85.380395 
L 214.28093 93.4814 
L 216.066977 110.102932 
L 216.716448 114.119048 
L 217.203552 116.003501 
L 217.609471 116.818265 
L 217.934207 117.00856 
L 218.177759 116.911866 
L 218.502495 116.512425 
L 218.989598 115.475753 
L 219.963805 112.677977 
L 220.938013 110.096916 
L 221.587484 108.950548 
L 222.074588 108.527355 
L 222.399323 108.489963 
L 222.724059 108.667661 
L 223.129979 109.212009 
L 223.617082 110.357658 
L 224.18537 112.37484 
L 224.916025 115.96388 
L 225.890233 122.028097 
L 229.705877 148.332013 
L 230.680085 157.255543 
L 231.81666 170.066592 
L 234.008626 198.214677 
L 238.554926 256.179727 
L 239.529133 265.39309 
L 240.422156 271.866718 
L 241.152812 275.736125 
L 241.721099 277.796057 
L 242.208203 278.825255 
L 242.532939 279.10381 
L 242.77649 279.092 
L 243.101226 278.78352 
L 243.507146 277.949883 
L 243.994249 276.379678 
L 244.887273 272.527019 
L 245.780296 268.88327 
L 246.2674 267.626215 
L 246.592135 267.216861 
L 246.835687 267.159122 
L 247.079239 267.319553 
L 247.403975 267.86459 
L 247.809894 269.034231 
L 248.378182 271.406762 
L 249.433573 277.015039 
L 250.732516 283.654629 
L 251.463171 286.396816 
L 252.031459 287.7345 
L 252.437378 288.166745 
L 252.68093 288.19593 
L 252.924482 288.045721 
L 253.249218 287.563586 
L 253.655137 286.516871 
L 254.223425 284.288871 
L 254.95408 280.360021 
L 256.009471 273.26471 
L 257.146047 264.128944 
L 258.201438 253.707963 
L 259.338013 240.063106 
L 261.529979 210.273371 
L 265.832727 151.641822 
L 266.725751 143.522029 
L 267.699958 136.670541 
L 271.759154 110.20569 
L 274.76296 89.328328 
L 277.117294 72.057321 
L 278.010317 67.194477 
L 278.984524 63.152921 
L 280.202283 59.127991 
L 281.338858 56.044596 
L 281.98833 54.833546 
L 282.394249 54.425849 
L 282.718985 54.343592 
L 283.043721 54.49955 
L 283.449641 55.034421 
L 283.936744 56.135892 
L 284.586216 58.207312 
L 286.047526 63.882444 
L 290.187907 80.442373 
L 292.217505 90.076815 
L 293.35408 96.487762 
L 294.571839 104.715194 
L 296.276702 116.209914 
L 297.088541 120.200837 
L 297.819197 122.682628 
L 298.549852 124.348444 
L 299.686427 126.253783 
L 300.660634 128.060533 
L 301.39129 129.917668 
L 302.040761 132.156517 
L 302.771416 135.565228 
L 303.502072 140.087857 
L 304.476279 147.74873 
L 307.317717 171.363229 
L 309.509683 185.915675 
L 310.88981 194.262891 
L 311.701649 197.946732 
L 312.432304 200.287363 
L 313.244144 202.113889 
L 314.786638 205.363954 
L 315.43611 207.37386 
L 316.004397 209.801116 
L 316.572685 213.156854 
L 317.140973 217.772901 
L 317.790444 224.935717 
L 318.602283 236.813364 
L 319.98241 261.503626 
L 321.118985 280.037507 
L 321.849641 288.5367 
L 322.417928 292.823779 
L 322.823848 294.62931 
L 323.148584 295.349759 
L 323.392135 295.488 
L 323.635687 295.298851 
L 323.960423 294.56765 
L 324.366342 292.948703 
L 324.93463 289.548628 
L 325.746469 282.980798 
L 327.370148 267.309943 
L 330.373953 236.742952 
L 332.890655 210.354104 
L 335.650909 184.825444 
L 337.11222 172.744588 
L 338.167611 165.776829 
L 339.304186 159.812791 
L 341.171416 150.286393 
L 342.145624 143.881044 
L 343.119831 135.905547 
L 344.33759 123.822878 
L 346.367188 103.452633 
L 347.097844 98.299439 
L 347.666131 95.601467 
L 348.153235 94.204209 
L 348.559154 93.623871 
L 348.88389 93.493195 
L 349.208626 93.61965 
L 349.614545 94.089563 
L 350.101649 95.04534 
L 350.751121 96.902548 
L 351.481776 99.746484 
L 352.293615 103.830827 
L 353.43019 110.818141 
L 355.540973 123.85313 
L 357.570571 135.84655 
L 358.950698 145.893693 
L 360.330825 155.491073 
L 361.142664 159.762939 
L 361.873319 162.522557 
L 362.522791 164.210942 
L 363.172262 165.354642 
L 363.984101 166.309311 
L 365.20186 167.669063 
L 365.770148 168.720763 
L 366.338436 170.310989 
L 366.906723 172.595066 
L 367.556195 176.148301 
L 368.368034 181.881841 
L 369.991712 195.464227 
L 371.615391 208.197599 
L 372.83315 216.136751 
L 373.726173 220.652794 
L 374.456829 223.247337 
L 375.1063 224.732427 
L 375.755772 225.659448 
L 379.246681 229.493325 
L 379.6526 229.516914 
L 380.05852 229.313634 
L 380.545624 228.785031 
L 381.195095 227.681945 
L 382.006934 225.837786 
L 382.981142 223.034852 
L 384.036533 219.223397 
L 385.822579 212.618754 
L 386.472051 211.095554 
L 387.040338 210.310256 
L 387.608626 209.917072 
L 389.313488 209.088483 
L 389.96296 208.319199 
L 390.693615 207.041123 
L 391.424271 205.295178 
L 392.154926 202.918688 
L 392.885581 199.656133 
L 393.616237 195.33495 
L 394.590444 188.100815 
L 398.487273 156.701998 
L 398.487273 156.701998 
" clip-path="url(#p535ea8382d)" style="fill: none; stroke: #1f77b4; stroke-width: 1.5; stroke-linecap: square"/>
   </g>
   <g id="line2d_18">
    <defs>
     <path id="mc6f7e02dc4" d="M 0 3 
C 0.795609 3 1.55874 2.683901 2.12132 2.12132 
C 2.683901 1.55874 3 0.795609 3 0 
C 3 -0.795609 2.683901 -1.55874 2.12132 -2.12132 
C 1.55874 -2.683901 0.795609 -3 0 -3 
C -0.795609 -3 -1.55874 -2.683901 -2.12132 -2.12132 
C -2.683901 -1.55874 -3 -0.795609 -3 0 
C -3 0.795609 -2.683901 1.55874 -2.12132 2.12132 
C -1.55874 2.683901 -0.795609 3 0 3 
z
" style="stroke: #ff7f0e"/>
    </defs>
    <g clip-path="url(#p535ea8382d)">
     <use xlink:href="#mc6f7e02dc4" x="104.926173" y="136.788501" style="fill: #ff7f0e; stroke: #ff7f0e"/>
     <use xlink:href="#mc6f7e02dc4" x="133.178182" y="150.550639" style="fill: #ff7f0e; stroke: #ff7f0e"/>
     <use xlink:href="#mc6f7e02dc4" x="143.488541" y="73.758891" style="fill: #ff7f0e; stroke: #ff7f0e"/>
     <use xlink:href="#mc6f7e02dc4" x="169.06148" y="53.568" style="fill: #ff7f0e; stroke: #ff7f0e"/>
     <use xlink:href="#mc6f7e02dc4" x="190.250486" y="209.242643" style="fill: #ff7f0e; stroke: #ff7f0e"/>
     <use xlink:href="#mc6f7e02dc4" x="211.033573" y="76.269755" style="fill: #ff7f0e; stroke: #ff7f0e"/>
     <use xlink:href="#mc6f7e02dc4" x="222.31814" y="108.479736" style="fill: #ff7f0e; stroke: #ff7f0e"/>
     <use xlink:href="#mc6f7e02dc4" x="246.754503" y="267.154135" style="fill: #ff7f0e; stroke: #ff7f0e"/>
     <use xlink:href="#mc6f7e02dc4" x="282.637801" y="54.342336" style="fill: #ff7f0e; stroke: #ff7f0e"/>
     <use xlink:href="#mc6f7e02dc4" x="348.88389" y="93.493195" style="fill: #ff7f0e; stroke: #ff7f0e"/>
    </g>
   </g>
   <g id="line2d_19">
    <defs>
     <path id="m24646abb0f" d="M 0 3 
C 0.795609 3 1.55874 2.683901 2.12132 2.12132 
C 2.683901 1.55874 3 0.795609 3 0 
C 3 -0.795609 2.683901 -1.55874 2.12132 -2.12132 
C 1.55874 -2.683901 0.795609 -3 0 -3 
C -0.795609 -3 -1.55874 -2.683901 -2.12132 -2.12132 
C -2.683901 -1.55874 -3 -0.795609 -3 0 
C -3 0.795609 -2.683901 1.55874 -2.12132 2.12132 
C -1.55874 2.683901 -0.795609 3 0 3 
z
" style="stroke: #2ca02c"/>
    </defs>
    <g clip-path="url(#p535ea8382d)">
     <use xlink:href="#m24646abb0f" x="81.869937" y="186.026538" style="fill: #2ca02c; stroke: #2ca02c"/>
     <use xlink:href="#m24646abb0f" x="118.970994" y="225.066465" style="fill: #2ca02c; stroke: #2ca02c"/>
     <use xlink:href="#m24646abb0f" x="137.724482" y="153.558589" style="fill: #2ca02c; stroke: #2ca02c"/>
     <use xlink:href="#m24646abb0f" x="157.28981" y="284.28502" style="fill: #2ca02c; stroke: #2ca02c"/>
     <use xlink:href="#m24646abb0f" x="184.161691" y="234.007514" style="fill: #2ca02c; stroke: #2ca02c"/>
     <use xlink:href="#m24646abb0f" x="193.335476" y="214.694625" style="fill: #2ca02c; stroke: #2ca02c"/>
     <use xlink:href="#m24646abb0f" x="217.934207" y="117.00856" style="fill: #2ca02c; stroke: #2ca02c"/>
     <use xlink:href="#m24646abb0f" x="242.614123" y="279.120968" style="fill: #2ca02c; stroke: #2ca02c"/>
     <use xlink:href="#m24646abb0f" x="252.599746" y="288.205946" style="fill: #2ca02c; stroke: #2ca02c"/>
     <use xlink:href="#m24646abb0f" x="323.392135" y="295.488" style="fill: #2ca02c; stroke: #2ca02c"/>
    </g>
   </g>
   <g id="patch_3">
    <path d="M 57.6 307.584 
L 57.6 41.472 
" style="fill: none; stroke: #000000; stroke-width: 0.8; stroke-linejoin: miter; stroke-linecap: square"/>
   </g>
   <g id="patch_4">
    <path d="M 414.72 307.584 
L 414.72 41.472 
" style="fill: none; stroke: #000000; stroke-width: 0.8; stroke-linejoin: miter; stroke-linecap: square"/>
   </g>
   <g id="patch_5">
    <path d="M 57.6 307.584 
L 414.72 307.584 
" style="fill: none; stroke: #000000; stroke-width: 0.8; stroke-linejoin: miter; stroke-linecap: square"/>
   </g>
   <g id="patch_6">
    <path d="M 57.6 41.472 
L 414.72 41.472 
" style="fill: none; stroke: #000000; stroke-width: 0.8; stroke-linejoin: miter; stroke-linecap: square"/>
   </g>
  </g>
 </g>
 <defs>
  <clipPath id="p535ea8382d">
   <rect x="57.6" y="41.472" width="357.12" height="266.112"/>
  </clipPath>
 </defs>
</svg>
