<?xml version="1.0" encoding="utf-8" standalone="no"?>
<!DOCTYPE svg PUBLIC "-//W3C//DTD SVG 1.1//EN"
  "http://www.w3.org/Graphics/SVG/1.1/DTD/svg11.dtd">
<svg xmlns:xlink="http://www.w3.org/1999/xlink" width="460.8pt" height="345.6pt" viewBox="0 0 460.8 345.6" xmlns="http://www.w3.org/2000/svg" version="1.1">
 <metadata>
  <rdf:RDF xmlns:dc="http://purl.org/dc/elements/1.1/" xmlns:cc="http://creativecommons.org/ns#" xmlns:rdf="http://www.w3.org/1999/02/22-rdf-syntax-ns#">
   <cc:Work>
    <dc:type rdf:resource="http://purl.org/dc/dcmitype/StillImage"/>
    <dc:date>2024-05-29T17:16:19.686020</dc:date>
    <dc:format>image/svg+xml</dc:format>
    <dc:creator>
     <cc:Agent>
      <dc:title>Matplotlib v3.8.2, https://matplotlib.org/</dc:title>
     </cc:Agent>
    </dc:creator>
   </cc:Work>
  </rdf:RDF>
 </metadata>
 <defs>
  <style type="text/css">*{stroke-linejoin: round; stroke-linecap: butt}</style>
 </defs>
 <g id="figure_1">
  <g id="patch_1">
   <path d="M 0 345.6 
L 460.8 345.6 
L 460.8 0 
L 0 0 
z
" style="fill: #ffffff"/>
  </g>
  <g id="axes_1">
   <g id="patch_2">
    <path d="M 57.6 307.584 
L 414.72 307.584 
L 414.72 41.472 
L 57.6 41.472 
z
" style="fill: #ffffff"/>
   </g>
   <g id="matplotlib.axis_1">
    <g id="xtick_1">
     <g id="line2d_1">
      <defs>
       <path id="ma44cf6d525" d="M 0 0 
L 0 3.5 
" style="stroke: #000000; stroke-width: 0.8"/>
      </defs>
      <g>
       <use xlink:href="#ma44cf6d525" x="73.832727" y="307.584" style="stroke: #000000; stroke-width: 0.8"/>
      </g>
     </g>
     <g id="text_1">
      <!-- 0 -->
      <g transform="translate(70.651477 322.182437) scale(0.1 -0.1)">
       <defs>
        <path id="DejaVuSans-30" d="M 2034 4250 
Q 1547 4250 1301 3770 
Q 1056 3291 1056 2328 
Q 1056 1369 1301 889 
Q 1547 409 2034 409 
Q 2525 409 2770 889 
Q 3016 1369 3016 2328 
Q 3016 3291 2770 3770 
Q 2525 4250 2034 4250 
z
M 2034 4750 
Q 2819 4750 3233 4129 
Q 3647 3509 3647 2328 
Q 3647 1150 3233 529 
Q 2819 -91 2034 -91 
Q 1250 -91 836 529 
Q 422 1150 422 2328 
Q 422 3509 836 4129 
Q 1250 4750 2034 4750 
z
" transform="scale(0.015625)"/>
       </defs>
       <use xlink:href="#DejaVuSans-30"/>
      </g>
     </g>
    </g>
    <g id="xtick_2">
     <g id="line2d_2">
      <g>
       <use xlink:href="#ma44cf6d525" x="114.414545" y="307.584" style="stroke: #000000; stroke-width: 0.8"/>
      </g>
     </g>
     <g id="text_2">
      <!-- 5 -->
      <g transform="translate(111.233295 322.182437) scale(0.1 -0.1)">
       <defs>
        <path id="DejaVuSans-35" d="M 691 4666 
L 3169 4666 
L 3169 4134 
L 1269 4134 
L 1269 2991 
Q 1406 3038 1543 3061 
Q 1681 3084 1819 3084 
Q 2600 3084 3056 2656 
Q 3513 2228 3513 1497 
Q 3513 744 3044 326 
Q 2575 -91 1722 -91 
Q 1428 -91 1123 -41 
Q 819 9 494 109 
L 494 744 
Q 775 591 1075 516 
Q 1375 441 1709 441 
Q 2250 441 2565 725 
Q 2881 1009 2881 1497 
Q 2881 1984 2565 2268 
Q 2250 2553 1709 2553 
Q 1456 2553 1204 2497 
Q 953 2441 691 2322 
L 691 4666 
z
" transform="scale(0.015625)"/>
       </defs>
       <use xlink:href="#DejaVuSans-35"/>
      </g>
     </g>
    </g>
    <g id="xtick_3">
     <g id="line2d_3">
      <g>
       <use xlink:href="#ma44cf6d525" x="154.996364" y="307.584" style="stroke: #000000; stroke-width: 0.8"/>
      </g>
     </g>
     <g id="text_3">
      <!-- 10 -->
      <g transform="translate(148.633864 322.182437) scale(0.1 -0.1)">
       <defs>
        <path id="DejaVuSans-31" d="M 794 531 
L 1825 531 
L 1825 4091 
L 703 3866 
L 703 4441 
L 1819 4666 
L 2450 4666 
L 2450 531 
L 3481 531 
L 3481 0 
L 794 0 
L 794 531 
z
" transform="scale(0.015625)"/>
       </defs>
       <use xlink:href="#DejaVuSans-31"/>
       <use xlink:href="#DejaVuSans-30" x="63.623047"/>
      </g>
     </g>
    </g>
    <g id="xtick_4">
     <g id="line2d_4">
      <g>
       <use xlink:href="#ma44cf6d525" x="195.578182" y="307.584" style="stroke: #000000; stroke-width: 0.8"/>
      </g>
     </g>
     <g id="text_4">
      <!-- 15 -->
      <g transform="translate(189.215682 322.182437) scale(0.1 -0.1)">
       <use xlink:href="#DejaVuSans-31"/>
       <use xlink:href="#DejaVuSans-35" x="63.623047"/>
      </g>
     </g>
    </g>
    <g id="xtick_5">
     <g id="line2d_5">
      <g>
       <use xlink:href="#ma44cf6d525" x="236.16" y="307.584" style="stroke: #000000; stroke-width: 0.8"/>
      </g>
     </g>
     <g id="text_5">
      <!-- 20 -->
      <g transform="translate(229.7975 322.182437) scale(0.1 -0.1)">
       <defs>
        <path id="DejaVuSans-32" d="M 1228 531 
L 3431 531 
L 3431 0 
L 469 0 
L 469 531 
Q 828 903 1448 1529 
Q 2069 2156 2228 2338 
Q 2531 2678 2651 2914 
Q 2772 3150 2772 3378 
Q 2772 3750 2511 3984 
Q 2250 4219 1831 4219 
Q 1534 4219 1204 4116 
Q 875 4013 500 3803 
L 500 4441 
Q 881 4594 1212 4672 
Q 1544 4750 1819 4750 
Q 2544 4750 2975 4387 
Q 3406 4025 3406 3419 
Q 3406 3131 3298 2873 
Q 3191 2616 2906 2266 
Q 2828 2175 2409 1742 
Q 1991 1309 1228 531 
z
" transform="scale(0.015625)"/>
       </defs>
       <use xlink:href="#DejaVuSans-32"/>
       <use xlink:href="#DejaVuSans-30" x="63.623047"/>
      </g>
     </g>
    </g>
    <g id="xtick_6">
     <g id="line2d_6">
      <g>
       <use xlink:href="#ma44cf6d525" x="276.741818" y="307.584" style="stroke: #000000; stroke-width: 0.8"/>
      </g>
     </g>
     <g id="text_6">
      <!-- 25 -->
      <g transform="translate(270.379318 322.182437) scale(0.1 -0.1)">
       <use xlink:href="#DejaVuSans-32"/>
       <use xlink:href="#DejaVuSans-35" x="63.623047"/>
      </g>
     </g>
    </g>
    <g id="xtick_7">
     <g id="line2d_7">
      <g>
       <use xlink:href="#ma44cf6d525" x="317.323636" y="307.584" style="stroke: #000000; stroke-width: 0.8"/>
      </g>
     </g>
     <g id="text_7">
      <!-- 30 -->
      <g transform="translate(310.961136 322.182437) scale(0.1 -0.1)">
       <defs>
        <path id="DejaVuSans-33" d="M 2597 2516 
Q 3050 2419 3304 2112 
Q 3559 1806 3559 1356 
Q 3559 666 3084 287 
Q 2609 -91 1734 -91 
Q 1441 -91 1130 -33 
Q 819 25 488 141 
L 488 750 
Q 750 597 1062 519 
Q 1375 441 1716 441 
Q 2309 441 2620 675 
Q 2931 909 2931 1356 
Q 2931 1769 2642 2001 
Q 2353 2234 1838 2234 
L 1294 2234 
L 1294 2753 
L 1863 2753 
Q 2328 2753 2575 2939 
Q 2822 3125 2822 3475 
Q 2822 3834 2567 4026 
Q 2313 4219 1838 4219 
Q 1578 4219 1281 4162 
Q 984 4106 628 3988 
L 628 4550 
Q 988 4650 1302 4700 
Q 1616 4750 1894 4750 
Q 2613 4750 3031 4423 
Q 3450 4097 3450 3541 
Q 3450 3153 3228 2886 
Q 3006 2619 2597 2516 
z
" transform="scale(0.015625)"/>
       </defs>
       <use xlink:href="#DejaVuSans-33"/>
       <use xlink:href="#DejaVuSans-30" x="63.623047"/>
      </g>
     </g>
    </g>
    <g id="xtick_8">
     <g id="line2d_8">
      <g>
       <use xlink:href="#ma44cf6d525" x="357.905455" y="307.584" style="stroke: #000000; stroke-width: 0.8"/>
      </g>
     </g>
     <g id="text_8">
      <!-- 35 -->
      <g transform="translate(351.542955 322.182437) scale(0.1 -0.1)">
       <use xlink:href="#DejaVuSans-33"/>
       <use xlink:href="#DejaVuSans-35" x="63.623047"/>
      </g>
     </g>
    </g>
    <g id="xtick_9">
     <g id="line2d_9">
      <g>
       <use xlink:href="#ma44cf6d525" x="398.487273" y="307.584" style="stroke: #000000; stroke-width: 0.8"/>
      </g>
     </g>
     <g id="text_9">
      <!-- 40 -->
      <g transform="translate(392.124773 322.182437) scale(0.1 -0.1)">
       <defs>
        <path id="DejaVuSans-34" d="M 2419 4116 
L 825 1625 
L 2419 1625 
L 2419 4116 
z
M 2253 4666 
L 3047 4666 
L 3047 1625 
L 3713 1625 
L 3713 1100 
L 3047 1100 
L 3047 0 
L 2419 0 
L 2419 1100 
L 313 1100 
L 313 1709 
L 2253 4666 
z
" transform="scale(0.015625)"/>
       </defs>
       <use xlink:href="#DejaVuSans-34"/>
       <use xlink:href="#DejaVuSans-30" x="63.623047"/>
      </g>
     </g>
    </g>
    <g id="text_10">
     <!-- Time [$s$] -->
     <g transform="translate(215.66 335.860562) scale(0.1 -0.1)">
      <defs>
       <path id="DejaVuSans-54" d="M -19 4666 
L 3928 4666 
L 3928 4134 
L 2272 4134 
L 2272 0 
L 1638 0 
L 1638 4134 
L -19 4134 
L -19 4666 
z
" transform="scale(0.015625)"/>
       <path id="DejaVuSans-69" d="M 603 3500 
L 1178 3500 
L 1178 0 
L 603 0 
L 603 3500 
z
M 603 4863 
L 1178 4863 
L 1178 4134 
L 603 4134 
L 603 4863 
z
" transform="scale(0.015625)"/>
       <path id="DejaVuSans-6d" d="M 3328 2828 
Q 3544 3216 3844 3400 
Q 4144 3584 4550 3584 
Q 5097 3584 5394 3201 
Q 5691 2819 5691 2113 
L 5691 0 
L 5113 0 
L 5113 2094 
Q 5113 2597 4934 2840 
Q 4756 3084 4391 3084 
Q 3944 3084 3684 2787 
Q 3425 2491 3425 1978 
L 3425 0 
L 2847 0 
L 2847 2094 
Q 2847 2600 2669 2842 
Q 2491 3084 2119 3084 
Q 1678 3084 1418 2786 
Q 1159 2488 1159 1978 
L 1159 0 
L 581 0 
L 581 3500 
L 1159 3500 
L 1159 2956 
Q 1356 3278 1631 3431 
Q 1906 3584 2284 3584 
Q 2666 3584 2933 3390 
Q 3200 3197 3328 2828 
z
" transform="scale(0.015625)"/>
       <path id="DejaVuSans-65" d="M 3597 1894 
L 3597 1613 
L 953 1613 
Q 991 1019 1311 708 
Q 1631 397 2203 397 
Q 2534 397 2845 478 
Q 3156 559 3463 722 
L 3463 178 
Q 3153 47 2828 -22 
Q 2503 -91 2169 -91 
Q 1331 -91 842 396 
Q 353 884 353 1716 
Q 353 2575 817 3079 
Q 1281 3584 2069 3584 
Q 2775 3584 3186 3129 
Q 3597 2675 3597 1894 
z
M 3022 2063 
Q 3016 2534 2758 2815 
Q 2500 3097 2075 3097 
Q 1594 3097 1305 2825 
Q 1016 2553 972 2059 
L 3022 2063 
z
" transform="scale(0.015625)"/>
       <path id="DejaVuSans-20" transform="scale(0.015625)"/>
       <path id="DejaVuSans-5b" d="M 550 4863 
L 1875 4863 
L 1875 4416 
L 1125 4416 
L 1125 -397 
L 1875 -397 
L 1875 -844 
L 550 -844 
L 550 4863 
z
" transform="scale(0.015625)"/>
       <path id="DejaVuSans-Oblique-73" d="M 3200 3397 
L 3091 2853 
Q 2863 2978 2609 3040 
Q 2356 3103 2088 3103 
Q 1634 3103 1373 2948 
Q 1113 2794 1113 2528 
Q 1113 2219 1719 2053 
Q 1766 2041 1788 2034 
L 1972 1978 
Q 2547 1819 2739 1644 
Q 2931 1469 2931 1166 
Q 2931 609 2489 259 
Q 2047 -91 1331 -91 
Q 1053 -91 747 -37 
Q 441 16 72 128 
L 184 722 
Q 500 559 806 475 
Q 1113 391 1394 391 
Q 1816 391 2080 572 
Q 2344 753 2344 1031 
Q 2344 1331 1650 1516 
L 1591 1531 
L 1394 1581 
Q 956 1697 753 1886 
Q 550 2075 550 2369 
Q 550 2928 970 3256 
Q 1391 3584 2113 3584 
Q 2397 3584 2667 3537 
Q 2938 3491 3200 3397 
z
" transform="scale(0.015625)"/>
       <path id="DejaVuSans-5d" d="M 1947 4863 
L 1947 -844 
L 622 -844 
L 622 -397 
L 1369 -397 
L 1369 4416 
L 622 4416 
L 622 4863 
L 1947 4863 
z
" transform="scale(0.015625)"/>
      </defs>
      <use xlink:href="#DejaVuSans-54" transform="translate(0 0.015625)"/>
      <use xlink:href="#DejaVuSans-69" transform="translate(61.083984 0.015625)"/>
      <use xlink:href="#DejaVuSans-6d" transform="translate(88.867188 0.015625)"/>
      <use xlink:href="#DejaVuSans-65" transform="translate(186.279297 0.015625)"/>
      <use xlink:href="#DejaVuSans-20" transform="translate(247.802734 0.015625)"/>
      <use xlink:href="#DejaVuSans-5b" transform="translate(279.589844 0.015625)"/>
      <use xlink:href="#DejaVuSans-Oblique-73" transform="translate(318.603516 0.015625)"/>
      <use xlink:href="#DejaVuSans-5d" transform="translate(370.703125 0.015625)"/>
     </g>
    </g>
   </g>
   <g id="matplotlib.axis_2">
    <g id="ytick_1">
     <g id="line2d_10">
      <defs>
       <path id="m49f75c70ed" d="M 0 0 
L -3.5 0 
" style="stroke: #000000; stroke-width: 0.8"/>
      </defs>
      <g>
       <use xlink:href="#m49f75c70ed" x="57.6" y="279.037824" style="stroke: #000000; stroke-width: 0.8"/>
      </g>
     </g>
     <g id="text_11">
      <!-- −30 -->
      <g transform="translate(29.495313 282.837042) scale(0.1 -0.1)">
       <defs>
        <path id="DejaVuSans-2212" d="M 678 2272 
L 4684 2272 
L 4684 1741 
L 678 1741 
L 678 2272 
z
" transform="scale(0.015625)"/>
       </defs>
       <use xlink:href="#DejaVuSans-2212"/>
       <use xlink:href="#DejaVuSans-33" x="83.789062"/>
       <use xlink:href="#DejaVuSans-30" x="147.412109"/>
      </g>
     </g>
    </g>
    <g id="ytick_2">
     <g id="line2d_11">
      <g>
       <use xlink:href="#m49f75c70ed" x="57.6" y="245.644151" style="stroke: #000000; stroke-width: 0.8"/>
      </g>
     </g>
     <g id="text_12">
      <!-- −20 -->
      <g transform="translate(29.495313 249.44337) scale(0.1 -0.1)">
       <use xlink:href="#DejaVuSans-2212"/>
       <use xlink:href="#DejaVuSans-32" x="83.789062"/>
       <use xlink:href="#DejaVuSans-30" x="147.412109"/>
      </g>
     </g>
    </g>
    <g id="ytick_3">
     <g id="line2d_12">
      <g>
       <use xlink:href="#m49f75c70ed" x="57.6" y="212.250479" style="stroke: #000000; stroke-width: 0.8"/>
      </g>
     </g>
     <g id="text_13">
      <!-- −10 -->
      <g transform="translate(29.495313 216.049698) scale(0.1 -0.1)">
       <use xlink:href="#DejaVuSans-2212"/>
       <use xlink:href="#DejaVuSans-31" x="83.789062"/>
       <use xlink:href="#DejaVuSans-30" x="147.412109"/>
      </g>
     </g>
    </g>
    <g id="ytick_4">
     <g id="line2d_13">
      <g>
       <use xlink:href="#m49f75c70ed" x="57.6" y="178.856807" style="stroke: #000000; stroke-width: 0.8"/>
      </g>
     </g>
     <g id="text_14">
      <!-- 0 -->
      <g transform="translate(44.2375 182.656026) scale(0.1 -0.1)">
       <use xlink:href="#DejaVuSans-30"/>
      </g>
     </g>
    </g>
    <g id="ytick_5">
     <g id="line2d_14">
      <g>
       <use xlink:href="#m49f75c70ed" x="57.6" y="145.463135" style="stroke: #000000; stroke-width: 0.8"/>
      </g>
     </g>
     <g id="text_15">
      <!-- 10 -->
      <g transform="translate(37.875 149.262354) scale(0.1 -0.1)">
       <use xlink:href="#DejaVuSans-31"/>
       <use xlink:href="#DejaVuSans-30" x="63.623047"/>
      </g>
     </g>
    </g>
    <g id="ytick_6">
     <g id="line2d_15">
      <g>
       <use xlink:href="#m49f75c70ed" x="57.6" y="112.069463" style="stroke: #000000; stroke-width: 0.8"/>
      </g>
     </g>
     <g id="text_16">
      <!-- 20 -->
      <g transform="translate(37.875 115.868682) scale(0.1 -0.1)">
       <use xlink:href="#DejaVuSans-32"/>
       <use xlink:href="#DejaVuSans-30" x="63.623047"/>
      </g>
     </g>
    </g>
    <g id="ytick_7">
     <g id="line2d_16">
      <g>
       <use xlink:href="#m49f75c70ed" x="57.6" y="78.675791" style="stroke: #000000; stroke-width: 0.8"/>
      </g>
     </g>
     <g id="text_17">
      <!-- 30 -->
      <g transform="translate(37.875 82.47501) scale(0.1 -0.1)">
       <use xlink:href="#DejaVuSans-33"/>
       <use xlink:href="#DejaVuSans-30" x="63.623047"/>
      </g>
     </g>
    </g>
    <g id="ytick_8">
     <g id="line2d_17">
      <g>
       <use xlink:href="#m49f75c70ed" x="57.6" y="45.282119" style="stroke: #000000; stroke-width: 0.8"/>
      </g>
     </g>
     <g id="text_18">
      <!-- 40 -->
      <g transform="translate(37.875 49.081337) scale(0.1 -0.1)">
       <use xlink:href="#DejaVuSans-34"/>
       <use xlink:href="#DejaVuSans-30" x="63.623047"/>
      </g>
     </g>
    </g>
    <g id="text_19">
     <!-- ? -->
     <g transform="translate(23.415625 177.181906) rotate(-90) scale(0.1 -0.1)">
      <defs>
       <path id="DejaVuSans-3f" d="M 1222 794 
L 1856 794 
L 1856 0 
L 1222 0 
L 1222 794 
z
M 1838 1253 
L 1241 1253 
L 1241 1734 
Q 1241 2050 1328 2253 
Q 1416 2456 1697 2725 
L 1978 3003 
Q 2156 3169 2236 3316 
Q 2316 3463 2316 3616 
Q 2316 3894 2111 4066 
Q 1906 4238 1569 4238 
Q 1322 4238 1042 4128 
Q 763 4019 459 3809 
L 459 4397 
Q 753 4575 1054 4662 
Q 1356 4750 1678 4750 
Q 2253 4750 2601 4447 
Q 2950 4144 2950 3647 
Q 2950 3409 2837 3195 
Q 2725 2981 2444 2713 
L 2169 2444 
Q 2022 2297 1961 2214 
Q 1900 2131 1875 2053 
Q 1856 1988 1847 1894 
Q 1838 1800 1838 1638 
L 1838 1253 
z
" transform="scale(0.015625)"/>
      </defs>
      <use xlink:href="#DejaVuSans-3f"/>
     </g>
    </g>
   </g>
   <g id="line2d_18">
    <path d="M 73.832727 178.856807 
L 75.13167 178.755117 
L 75.618774 178.466244 
L 76.024693 177.961638 
L 76.511797 176.920479 
L 76.998901 175.327887 
L 77.648372 172.37172 
L 79.759154 161.858646 
L 80.165074 161.138963 
L 80.408626 161.078718 
L 80.652178 161.313902 
L 80.976913 162.091846 
L 81.382833 163.786128 
L 81.951121 167.358749 
L 82.76296 174.28974 
L 84.386638 190.867406 
L 86.091501 207.433057 
L 87.065708 214.90533 
L 87.71518 218.292968 
L 88.121099 219.516951 
L 88.445835 219.922538 
L 88.689387 219.869904 
L 88.932939 219.502986 
L 89.257674 218.523911 
L 89.663594 216.536829 
L 90.231882 212.468939 
L 91.043721 204.704483 
L 93.235687 182.508452 
L 94.047526 176.964414 
L 94.778182 173.45616 
L 95.590021 170.685761 
L 97.132516 166.534404 
L 99.568034 160.222691 
L 100.298689 158.995526 
L 101.029345 158.175748 
L 101.841184 157.620848 
L 102.734207 157.284055 
L 104.03315 157.055464 
L 105.088541 156.812034 
L 105.656829 156.445194 
L 106.143932 155.866504 
L 106.71222 154.788025 
L 107.361691 153.001813 
L 109.472474 146.538887 
L 109.797209 146.31458 
L 110.040761 146.443851 
L 110.284313 146.865693 
L 110.609049 147.929195 
L 111.014968 150.117633 
L 111.502072 154.013398 
L 112.151543 161.129375 
L 113.288118 176.636091 
L 114.34351 190.012714 
L 114.992981 195.614819 
L 115.398901 197.657973 
L 115.723636 198.40166 
L 115.886004 198.470023 
L 116.048372 198.3365 
L 116.291924 197.763073 
L 116.61666 196.325422 
L 117.103763 192.839608 
L 117.753235 186.126255 
L 118.808626 172.17931 
L 120.269937 153.313013 
L 121.000592 146.583028 
L 121.568879 143.095491 
L 122.055983 141.314251 
L 122.461903 140.606327 
L 122.786638 140.490204 
L 123.03019 140.636374 
L 123.354926 141.107394 
L 123.84203 142.327243 
L 124.410317 144.408187 
L 125.140973 147.979396 
L 125.952812 153.05864 
L 126.927019 160.689887 
L 128.063594 171.559959 
L 129.362537 186.2613 
L 130.905032 206.543061 
L 133.096998 235.577248 
L 133.990021 244.385741 
L 134.720677 249.558691 
L 135.370148 252.711739 
L 135.938436 254.540965 
L 136.506723 255.670983 
L 136.993827 256.169846 
L 137.399746 256.283067 
L 137.805666 256.131724 
L 138.211586 255.723151 
L 138.698689 254.909007 
L 139.348161 253.328808 
L 140.241184 250.482266 
L 141.864863 245.259301 
L 142.676702 243.453232 
L 143.650909 241.87592 
L 144.787484 239.978643 
L 145.51814 238.28143 
L 146.167611 236.211293 
L 146.817082 233.416996 
L 147.547738 229.218249 
L 148.359577 223.079566 
L 149.171416 215.21864 
L 150.06444 204.342417 
L 151.119831 188.47095 
L 152.662326 161.337448 
L 157.208626 79.850772 
L 158.264017 65.085703 
L 158.913488 58.553835 
L 159.400592 55.420351 
L 159.725328 54.324078 
L 159.968879 54.074403 
L 160.131247 54.194807 
L 160.374799 54.820576 
L 160.699535 56.506362 
L 161.105455 59.993956 
L 161.592558 66.140145 
L 162.24203 77.26869 
L 163.297421 100.00358 
L 164.839915 133.007902 
L 165.651755 145.997511 
L 166.38241 154.37271 
L 167.113066 160.202163 
L 168.006089 165.348052 
L 169.873319 174.38837 
L 170.766342 177.860606 
L 171.33463 179.337193 
L 171.821734 180.055592 
L 172.227653 180.286863 
L 172.633573 180.241897 
L 173.120677 179.933397 
L 174.257252 178.827065 
L 176.124482 176.840199 
L 177.017505 175.444258 
L 178.96592 172.16309 
L 179.453023 171.827196 
L 179.777759 171.818418 
L 180.102495 171.999794 
L 180.508414 172.496812 
L 180.995518 173.461042 
L 181.726173 175.488558 
L 183.593404 181.0095 
L 184.161691 181.913111 
L 184.567611 182.199311 
L 184.892347 182.210097 
L 185.298266 181.964384 
L 185.78537 181.325837 
L 186.353658 180.177931 
L 187.165497 177.95724 
L 189.113911 172.263108 
L 189.519831 171.786194 
L 189.763383 171.766912 
L 190.006934 171.985977 
L 190.33167 172.694066 
L 190.73759 174.309528 
L 191.224693 177.359668 
L 191.874165 183.164848 
L 192.848372 194.301257 
L 194.228499 209.763535 
L 194.959154 215.731049 
L 195.608626 219.359283 
L 196.176913 221.346908 
L 196.664017 222.305465 
L 197.069937 222.655921 
L 197.394672 222.673138 
L 197.719408 222.472092 
L 198.125328 221.92943 
L 198.612431 220.874752 
L 199.261903 218.853859 
L 200.154926 215.222583 
L 202.346892 205.929329 
L 203.564651 201.998776 
L 205.269514 197.290624 
L 206.162537 195.313713 
L 206.893192 194.215583 
L 207.948584 193.166467 
L 208.516871 192.396997 
L 209.003975 191.332331 
L 209.572262 189.426528 
L 210.221734 186.310737 
L 211.195941 180.30569 
L 212.4137 173.023553 
L 213.063171 170.362033 
L 213.550275 169.180493 
L 213.875011 168.805873 
L 214.199746 168.757832 
L 214.524482 169.020967 
L 214.930402 169.748637 
L 215.498689 171.381953 
L 216.55408 175.394599 
L 217.36592 178.055739 
L 217.771839 178.817015 
L 218.096575 179.031067 
L 218.340127 178.929992 
L 218.664863 178.425382 
L 219.070782 177.197407 
L 219.557886 174.914881 
L 220.288541 170.257582 
L 221.993404 158.932204 
L 222.561691 156.578092 
L 223.048795 155.446249 
L 223.373531 155.150238 
L 223.617082 155.155791 
L 223.941818 155.441056 
L 224.347738 156.188996 
L 224.916025 157.82513 
L 225.646681 160.694278 
L 226.539704 165.187582 
L 227.432727 170.829194 
L 228.650486 180.13105 
L 230.598901 195.023729 
L 231.897844 203.015423 
L 233.602706 211.957873 
L 237.905455 232.500962 
L 238.473742 234.21348 
L 238.798478 234.701554 
L 239.04203 234.780146 
L 239.285581 234.587902 
L 239.610317 233.887595 
L 240.016237 232.292693 
L 240.50334 229.40115 
L 241.233996 223.569818 
L 242.857674 210.06944 
L 243.425962 207.186618 
L 243.831882 206.158983 
L 244.075433 206.003784 
L 244.237801 206.098633 
L 244.481353 206.536969 
L 244.806089 207.652 
L 245.293192 210.315734 
L 246.186216 216.979553 
L 246.998055 222.445383 
L 247.403975 224.030229 
L 247.647526 224.441114 
L 247.809894 224.462201 
L 247.972262 224.271131 
L 248.215814 223.578491 
L 248.54055 221.906492 
L 249.027653 217.947832 
L 249.758309 209.752188 
L 251.138436 194.054635 
L 251.787907 189.062406 
L 252.437378 185.801932 
L 253.411586 182.435971 
L 253.979873 180.080634 
L 254.548161 176.663551 
L 255.116448 171.816202 
L 255.847104 163.368913 
L 256.821311 149.046776 
L 259.500381 108.103586 
L 260.474588 97.144371 
L 261.286427 90.291038 
L 262.017082 85.875553 
L 262.666554 83.208536 
L 263.316025 81.475258 
L 264.290233 79.690565 
L 264.85852 78.412713 
L 265.345624 76.804557 
L 265.913911 74.103403 
L 266.644567 69.30172 
L 268.592981 55.433076 
L 268.998901 54.021357 
L 269.323636 53.576746 
L 269.486004 53.601308 
L 269.729556 53.956255 
L 270.054292 55.024571 
L 270.460211 57.283448 
L 271.028499 61.984058 
L 271.840338 71.020162 
L 273.626385 94.477768 
L 275.737167 123.858866 
L 276.954926 144.361883 
L 280.851755 213.752571 
L 281.501226 220.293382 
L 281.98833 223.135604 
L 282.313066 223.965289 
L 282.475433 224.058282 
L 282.637801 223.940585 
L 282.881353 223.381705 
L 283.206089 221.967988 
L 283.693192 218.612863 
L 284.423848 211.706533 
L 285.641607 200.149685 
L 286.12871 197.389534 
L 286.453446 196.594995 
L 286.615814 196.563733 
L 286.778182 196.795352 
L 287.021734 197.660123 
L 287.346469 199.820221 
L 287.752389 204.176115 
L 288.320677 213.267254 
L 289.051332 229.254564 
L 291.324482 282.782965 
L 291.89277 290.186967 
L 292.298689 293.26027 
L 292.623425 294.491484 
L 292.866977 294.792829 
L 293.029345 294.740896 
L 293.272896 294.349019 
L 293.678816 293.088498 
L 295.140127 287.867171 
L 295.464863 287.431549 
L 295.708414 287.362735 
L 295.951966 287.510567 
L 296.276702 288.017698 
L 296.763805 289.319112 
L 298.71222 295.327365 
L 298.955772 295.488 
L 299.199323 295.39215 
L 299.442875 295.012142 
L 299.767611 294.02588 
L 300.173531 291.975265 
L 300.660634 288.289062 
L 301.310106 281.403454 
L 302.121945 270.216112 
L 303.583256 246.31741 
L 306.34351 201.405682 
L 307.886004 179.885975 
L 309.266131 163.683058 
L 310.88981 147.243282 
L 312.026385 137.656109 
L 312.838224 132.431904 
L 313.568879 129.136703 
L 314.137167 127.486699 
L 314.624271 126.663201 
L 315.03019 126.357594 
L 315.354926 126.336725 
L 315.760846 126.550554 
L 316.329133 127.186494 
L 318.033996 129.36894 
L 318.439915 129.467634 
L 318.764651 129.330835 
L 319.170571 128.86053 
L 319.657674 127.837952 
L 320.225962 126.01063 
L 320.875433 123.111135 
L 321.687273 118.386292 
L 322.905032 109.752234 
L 324.447526 99.117112 
L 325.178182 95.566514 
L 325.665285 94.079445 
L 326.071205 93.456387 
L 326.314757 93.361141 
L 326.558309 93.473444 
L 326.883044 93.935364 
L 327.288964 94.979088 
L 327.857252 97.186386 
L 328.669091 101.432222 
L 330.049218 110.118887 
L 331.591712 121.141936 
L 332.971839 132.741488 
L 334.757886 149.855123 
L 336.219197 165.751109 
L 337.599323 183.377456 
L 343.769302 266.303362 
L 344.499958 272.834246 
L 345.068245 276.238952 
L 345.555349 277.930471 
L 345.880085 278.46304 
L 346.123636 278.580195 
L 346.367188 278.482231 
L 346.691924 278.065143 
L 347.179027 276.968309 
L 347.990867 274.430451 
L 350.507569 266.249641 
L 351.968879 261.367359 
L 353.349006 255.877371 
L 355.135053 247.886835 
L 355.865708 243.613592 
L 356.51518 238.449574 
L 357.164651 231.403886 
L 357.895307 220.81176 
L 358.78833 204.199783 
L 360.65556 163.419043 
L 361.792135 141.792054 
L 362.603975 130.177676 
L 363.33463 122.579297 
L 364.065285 117.227389 
L 364.795941 113.489813 
L 365.60778 110.53554 
L 366.419619 108.385495 
L 367.069091 107.181749 
L 367.556195 106.650754 
L 367.962114 106.51567 
L 368.28685 106.643621 
L 368.611586 107.002387 
L 369.017505 107.788556 
L 369.585793 109.487335 
L 370.478816 113.115282 
L 371.534207 117.227779 
L 372.102495 118.577457 
L 372.508414 118.998352 
L 372.83315 118.993236 
L 373.157886 118.698482 
L 373.563805 117.969519 
L 374.132093 116.431195 
L 375.431036 111.991148 
L 377.135899 105.768704 
L 377.704186 102.594288 
L 378.353658 97.538208 
L 379.327865 87.736778 
L 380.139704 80.262212 
L 380.626808 77.591407 
L 380.870359 77.02714 
L 381.032727 76.978732 
L 381.195095 77.208301 
L 381.438647 78.094437 
L 381.763383 80.312065 
L 382.169302 84.735083 
L 382.73759 93.758058 
L 383.549429 111.004145 
L 387.202706 194.873264 
L 388.501649 217.481376 
L 389.638224 233.621933 
L 390.774799 246.564793 
L 393.778605 276.286138 
L 394.590444 283.185365 
L 395.077548 285.800662 
L 395.402283 286.510904 
L 395.564651 286.483637 
L 395.727019 286.172422 
L 395.970571 285.13268 
L 396.295307 282.602338 
L 396.701226 277.515277 
L 397.269514 266.872105 
L 398.000169 248.154943 
L 398.487273 233.691241 
L 398.487273 233.691241 
" clip-path="url(#p5486d4f296)" style="fill: none; stroke: #1f77b4; stroke-width: 1.5; stroke-linecap: square"/>
   </g>
   <g id="patch_3">
    <path d="M 57.6 307.584 
L 57.6 41.472 
" style="fill: none; stroke: #000000; stroke-width: 0.8; stroke-linejoin: miter; stroke-linecap: square"/>
   </g>
   <g id="patch_4">
    <path d="M 414.72 307.584 
L 414.72 41.472 
" style="fill: none; stroke: #000000; stroke-width: 0.8; stroke-linejoin: miter; stroke-linecap: square"/>
   </g>
   <g id="patch_5">
    <path d="M 57.6 307.584 
L 414.72 307.584 
" style="fill: none; stroke: #000000; stroke-width: 0.8; stroke-linejoin: miter; stroke-linecap: square"/>
   </g>
   <g id="patch_6">
    <path d="M 57.6 41.472 
L 414.72 41.472 
" style="fill: none; stroke: #000000; stroke-width: 0.8; stroke-linejoin: miter; stroke-linecap: square"/>
   </g>
  </g>
 </g>
 <defs>
  <clipPath id="p5486d4f296">
   <rect x="57.6" y="41.472" width="357.12" height="266.112"/>
  </clipPath>
 </defs>
</svg>
