<?xml version="1.0" encoding="utf-8" standalone="no"?>
<!DOCTYPE svg PUBLIC "-//W3C//DTD SVG 1.1//EN"
  "http://www.w3.org/Graphics/SVG/1.1/DTD/svg11.dtd">
<svg xmlns:xlink="http://www.w3.org/1999/xlink" width="460.8pt" height="345.6pt" viewBox="0 0 460.8 345.6" xmlns="http://www.w3.org/2000/svg" version="1.1">
 <metadata>
  <rdf:RDF xmlns:dc="http://purl.org/dc/elements/1.1/" xmlns:cc="http://creativecommons.org/ns#" xmlns:rdf="http://www.w3.org/1999/02/22-rdf-syntax-ns#">
   <cc:Work>
    <dc:type rdf:resource="http://purl.org/dc/dcmitype/StillImage"/>
    <dc:date>2024-05-31T10:27:05.500408</dc:date>
    <dc:format>image/svg+xml</dc:format>
    <dc:creator>
     <cc:Agent>
      <dc:title>Matplotlib v3.8.2, https://matplotlib.org/</dc:title>
     </cc:Agent>
    </dc:creator>
   </cc:Work>
  </rdf:RDF>
 </metadata>
 <defs>
  <style type="text/css">*{stroke-linejoin: round; stroke-linecap: butt}</style>
 </defs>
 <g id="figure_1">
  <g id="patch_1">
   <path d="M 0 345.6 
L 460.8 345.6 
L 460.8 0 
L 0 0 
z
" style="fill: #ffffff"/>
  </g>
  <g id="axes_1">
   <g id="patch_2">
    <path d="M 57.6 307.584 
L 414.72 307.584 
L 414.72 41.472 
L 57.6 41.472 
z
" style="fill: #ffffff"/>
   </g>
   <g id="matplotlib.axis_1">
    <g id="xtick_1">
     <g id="line2d_1">
      <defs>
       <path id="mc6d9d000ca" d="M 0 0 
L 0 3.5 
" style="stroke: #000000; stroke-width: 0.8"/>
      </defs>
      <g>
       <use xlink:href="#mc6d9d000ca" x="57.6" y="307.584" style="stroke: #000000; stroke-width: 0.8"/>
      </g>
     </g>
     <g id="text_1">
      <!-- −20 -->
      <g transform="translate(47.047656 322.182437) scale(0.1 -0.1)">
       <defs>
        <path id="DejaVuSans-2212" d="M 678 2272 
L 4684 2272 
L 4684 1741 
L 678 1741 
L 678 2272 
z
" transform="scale(0.015625)"/>
        <path id="DejaVuSans-32" d="M 1228 531 
L 3431 531 
L 3431 0 
L 469 0 
L 469 531 
Q 828 903 1448 1529 
Q 2069 2156 2228 2338 
Q 2531 2678 2651 2914 
Q 2772 3150 2772 3378 
Q 2772 3750 2511 3984 
Q 2250 4219 1831 4219 
Q 1534 4219 1204 4116 
Q 875 4013 500 3803 
L 500 4441 
Q 881 4594 1212 4672 
Q 1544 4750 1819 4750 
Q 2544 4750 2975 4387 
Q 3406 4025 3406 3419 
Q 3406 3131 3298 2873 
Q 3191 2616 2906 2266 
Q 2828 2175 2409 1742 
Q 1991 1309 1228 531 
z
" transform="scale(0.015625)"/>
        <path id="DejaVuSans-30" d="M 2034 4250 
Q 1547 4250 1301 3770 
Q 1056 3291 1056 2328 
Q 1056 1369 1301 889 
Q 1547 409 2034 409 
Q 2525 409 2770 889 
Q 3016 1369 3016 2328 
Q 3016 3291 2770 3770 
Q 2525 4250 2034 4250 
z
M 2034 4750 
Q 2819 4750 3233 4129 
Q 3647 3509 3647 2328 
Q 3647 1150 3233 529 
Q 2819 -91 2034 -91 
Q 1250 -91 836 529 
Q 422 1150 422 2328 
Q 422 3509 836 4129 
Q 1250 4750 2034 4750 
z
" transform="scale(0.015625)"/>
       </defs>
       <use xlink:href="#DejaVuSans-2212"/>
       <use xlink:href="#DejaVuSans-32" x="83.789062"/>
       <use xlink:href="#DejaVuSans-30" x="147.412109"/>
      </g>
     </g>
    </g>
    <g id="xtick_2">
     <g id="line2d_2">
      <g>
       <use xlink:href="#mc6d9d000ca" x="102.24" y="307.584" style="stroke: #000000; stroke-width: 0.8"/>
      </g>
     </g>
     <g id="text_2">
      <!-- −15 -->
      <g transform="translate(91.687656 322.182437) scale(0.1 -0.1)">
       <defs>
        <path id="DejaVuSans-31" d="M 794 531 
L 1825 531 
L 1825 4091 
L 703 3866 
L 703 4441 
L 1819 4666 
L 2450 4666 
L 2450 531 
L 3481 531 
L 3481 0 
L 794 0 
L 794 531 
z
" transform="scale(0.015625)"/>
        <path id="DejaVuSans-35" d="M 691 4666 
L 3169 4666 
L 3169 4134 
L 1269 4134 
L 1269 2991 
Q 1406 3038 1543 3061 
Q 1681 3084 1819 3084 
Q 2600 3084 3056 2656 
Q 3513 2228 3513 1497 
Q 3513 744 3044 326 
Q 2575 -91 1722 -91 
Q 1428 -91 1123 -41 
Q 819 9 494 109 
L 494 744 
Q 775 591 1075 516 
Q 1375 441 1709 441 
Q 2250 441 2565 725 
Q 2881 1009 2881 1497 
Q 2881 1984 2565 2268 
Q 2250 2553 1709 2553 
Q 1456 2553 1204 2497 
Q 953 2441 691 2322 
L 691 4666 
z
" transform="scale(0.015625)"/>
       </defs>
       <use xlink:href="#DejaVuSans-2212"/>
       <use xlink:href="#DejaVuSans-31" x="83.789062"/>
       <use xlink:href="#DejaVuSans-35" x="147.412109"/>
      </g>
     </g>
    </g>
    <g id="xtick_3">
     <g id="line2d_3">
      <g>
       <use xlink:href="#mc6d9d000ca" x="146.88" y="307.584" style="stroke: #000000; stroke-width: 0.8"/>
      </g>
     </g>
     <g id="text_3">
      <!-- −10 -->
      <g transform="translate(136.327656 322.182437) scale(0.1 -0.1)">
       <use xlink:href="#DejaVuSans-2212"/>
       <use xlink:href="#DejaVuSans-31" x="83.789062"/>
       <use xlink:href="#DejaVuSans-30" x="147.412109"/>
      </g>
     </g>
    </g>
    <g id="xtick_4">
     <g id="line2d_4">
      <g>
       <use xlink:href="#mc6d9d000ca" x="191.52" y="307.584" style="stroke: #000000; stroke-width: 0.8"/>
      </g>
     </g>
     <g id="text_4">
      <!-- −5 -->
      <g transform="translate(184.148906 322.182437) scale(0.1 -0.1)">
       <use xlink:href="#DejaVuSans-2212"/>
       <use xlink:href="#DejaVuSans-35" x="83.789062"/>
      </g>
     </g>
    </g>
    <g id="xtick_5">
     <g id="line2d_5">
      <g>
       <use xlink:href="#mc6d9d000ca" x="236.16" y="307.584" style="stroke: #000000; stroke-width: 0.8"/>
      </g>
     </g>
     <g id="text_5">
      <!-- 0 -->
      <g transform="translate(232.97875 322.182437) scale(0.1 -0.1)">
       <use xlink:href="#DejaVuSans-30"/>
      </g>
     </g>
    </g>
    <g id="xtick_6">
     <g id="line2d_6">
      <g>
       <use xlink:href="#mc6d9d000ca" x="280.8" y="307.584" style="stroke: #000000; stroke-width: 0.8"/>
      </g>
     </g>
     <g id="text_6">
      <!-- 5 -->
      <g transform="translate(277.61875 322.182437) scale(0.1 -0.1)">
       <use xlink:href="#DejaVuSans-35"/>
      </g>
     </g>
    </g>
    <g id="xtick_7">
     <g id="line2d_7">
      <g>
       <use xlink:href="#mc6d9d000ca" x="325.44" y="307.584" style="stroke: #000000; stroke-width: 0.8"/>
      </g>
     </g>
     <g id="text_7">
      <!-- 10 -->
      <g transform="translate(319.0775 322.182437) scale(0.1 -0.1)">
       <use xlink:href="#DejaVuSans-31"/>
       <use xlink:href="#DejaVuSans-30" x="63.623047"/>
      </g>
     </g>
    </g>
    <g id="xtick_8">
     <g id="line2d_8">
      <g>
       <use xlink:href="#mc6d9d000ca" x="370.08" y="307.584" style="stroke: #000000; stroke-width: 0.8"/>
      </g>
     </g>
     <g id="text_8">
      <!-- 15 -->
      <g transform="translate(363.7175 322.182437) scale(0.1 -0.1)">
       <use xlink:href="#DejaVuSans-31"/>
       <use xlink:href="#DejaVuSans-35" x="63.623047"/>
      </g>
     </g>
    </g>
    <g id="xtick_9">
     <g id="line2d_9">
      <g>
       <use xlink:href="#mc6d9d000ca" x="414.72" y="307.584" style="stroke: #000000; stroke-width: 0.8"/>
      </g>
     </g>
     <g id="text_9">
      <!-- 20 -->
      <g transform="translate(408.3575 322.182437) scale(0.1 -0.1)">
       <use xlink:href="#DejaVuSans-32"/>
       <use xlink:href="#DejaVuSans-30" x="63.623047"/>
      </g>
     </g>
    </g>
    <g id="text_10">
     <!-- Frequency [$Hz$] -->
     <g transform="translate(197.96 335.862125) scale(0.1 -0.1)">
      <defs>
       <path id="DejaVuSans-46" d="M 628 4666 
L 3309 4666 
L 3309 4134 
L 1259 4134 
L 1259 2759 
L 3109 2759 
L 3109 2228 
L 1259 2228 
L 1259 0 
L 628 0 
L 628 4666 
z
" transform="scale(0.015625)"/>
       <path id="DejaVuSans-72" d="M 2631 2963 
Q 2534 3019 2420 3045 
Q 2306 3072 2169 3072 
Q 1681 3072 1420 2755 
Q 1159 2438 1159 1844 
L 1159 0 
L 581 0 
L 581 3500 
L 1159 3500 
L 1159 2956 
Q 1341 3275 1631 3429 
Q 1922 3584 2338 3584 
Q 2397 3584 2469 3576 
Q 2541 3569 2628 3553 
L 2631 2963 
z
" transform="scale(0.015625)"/>
       <path id="DejaVuSans-65" d="M 3597 1894 
L 3597 1613 
L 953 1613 
Q 991 1019 1311 708 
Q 1631 397 2203 397 
Q 2534 397 2845 478 
Q 3156 559 3463 722 
L 3463 178 
Q 3153 47 2828 -22 
Q 2503 -91 2169 -91 
Q 1331 -91 842 396 
Q 353 884 353 1716 
Q 353 2575 817 3079 
Q 1281 3584 2069 3584 
Q 2775 3584 3186 3129 
Q 3597 2675 3597 1894 
z
M 3022 2063 
Q 3016 2534 2758 2815 
Q 2500 3097 2075 3097 
Q 1594 3097 1305 2825 
Q 1016 2553 972 2059 
L 3022 2063 
z
" transform="scale(0.015625)"/>
       <path id="DejaVuSans-71" d="M 947 1747 
Q 947 1113 1208 752 
Q 1469 391 1925 391 
Q 2381 391 2643 752 
Q 2906 1113 2906 1747 
Q 2906 2381 2643 2742 
Q 2381 3103 1925 3103 
Q 1469 3103 1208 2742 
Q 947 2381 947 1747 
z
M 2906 525 
Q 2725 213 2448 61 
Q 2172 -91 1784 -91 
Q 1150 -91 751 415 
Q 353 922 353 1747 
Q 353 2572 751 3078 
Q 1150 3584 1784 3584 
Q 2172 3584 2448 3432 
Q 2725 3281 2906 2969 
L 2906 3500 
L 3481 3500 
L 3481 -1331 
L 2906 -1331 
L 2906 525 
z
" transform="scale(0.015625)"/>
       <path id="DejaVuSans-75" d="M 544 1381 
L 544 3500 
L 1119 3500 
L 1119 1403 
Q 1119 906 1312 657 
Q 1506 409 1894 409 
Q 2359 409 2629 706 
Q 2900 1003 2900 1516 
L 2900 3500 
L 3475 3500 
L 3475 0 
L 2900 0 
L 2900 538 
Q 2691 219 2414 64 
Q 2138 -91 1772 -91 
Q 1169 -91 856 284 
Q 544 659 544 1381 
z
M 1991 3584 
L 1991 3584 
z
" transform="scale(0.015625)"/>
       <path id="DejaVuSans-6e" d="M 3513 2113 
L 3513 0 
L 2938 0 
L 2938 2094 
Q 2938 2591 2744 2837 
Q 2550 3084 2163 3084 
Q 1697 3084 1428 2787 
Q 1159 2491 1159 1978 
L 1159 0 
L 581 0 
L 581 3500 
L 1159 3500 
L 1159 2956 
Q 1366 3272 1645 3428 
Q 1925 3584 2291 3584 
Q 2894 3584 3203 3211 
Q 3513 2838 3513 2113 
z
" transform="scale(0.015625)"/>
       <path id="DejaVuSans-63" d="M 3122 3366 
L 3122 2828 
Q 2878 2963 2633 3030 
Q 2388 3097 2138 3097 
Q 1578 3097 1268 2742 
Q 959 2388 959 1747 
Q 959 1106 1268 751 
Q 1578 397 2138 397 
Q 2388 397 2633 464 
Q 2878 531 3122 666 
L 3122 134 
Q 2881 22 2623 -34 
Q 2366 -91 2075 -91 
Q 1284 -91 818 406 
Q 353 903 353 1747 
Q 353 2603 823 3093 
Q 1294 3584 2113 3584 
Q 2378 3584 2631 3529 
Q 2884 3475 3122 3366 
z
" transform="scale(0.015625)"/>
       <path id="DejaVuSans-79" d="M 2059 -325 
Q 1816 -950 1584 -1140 
Q 1353 -1331 966 -1331 
L 506 -1331 
L 506 -850 
L 844 -850 
Q 1081 -850 1212 -737 
Q 1344 -625 1503 -206 
L 1606 56 
L 191 3500 
L 800 3500 
L 1894 763 
L 2988 3500 
L 3597 3500 
L 2059 -325 
z
" transform="scale(0.015625)"/>
       <path id="DejaVuSans-20" transform="scale(0.015625)"/>
       <path id="DejaVuSans-5b" d="M 550 4863 
L 1875 4863 
L 1875 4416 
L 1125 4416 
L 1125 -397 
L 1875 -397 
L 1875 -844 
L 550 -844 
L 550 4863 
z
" transform="scale(0.015625)"/>
       <path id="DejaVuSans-Oblique-48" d="M 1081 4666 
L 1716 4666 
L 1344 2753 
L 3634 2753 
L 4006 4666 
L 4641 4666 
L 3731 0 
L 3097 0 
L 3531 2222 
L 1241 2222 
L 806 0 
L 172 0 
L 1081 4666 
z
" transform="scale(0.015625)"/>
       <path id="DejaVuSans-Oblique-7a" d="M 744 3500 
L 3475 3500 
L 3372 2975 
L 738 459 
L 2913 459 
L 2822 0 
L -19 0 
L 84 525 
L 2719 3041 
L 653 3041 
L 744 3500 
z
" transform="scale(0.015625)"/>
       <path id="DejaVuSans-5d" d="M 1947 4863 
L 1947 -844 
L 622 -844 
L 622 -397 
L 1369 -397 
L 1369 4416 
L 622 4416 
L 622 4863 
L 1947 4863 
z
" transform="scale(0.015625)"/>
      </defs>
      <use xlink:href="#DejaVuSans-46" transform="translate(0 0.015625)"/>
      <use xlink:href="#DejaVuSans-72" transform="translate(57.519531 0.015625)"/>
      <use xlink:href="#DejaVuSans-65" transform="translate(98.632812 0.015625)"/>
      <use xlink:href="#DejaVuSans-71" transform="translate(160.15625 0.015625)"/>
      <use xlink:href="#DejaVuSans-75" transform="translate(223.632812 0.015625)"/>
      <use xlink:href="#DejaVuSans-65" transform="translate(287.011719 0.015625)"/>
      <use xlink:href="#DejaVuSans-6e" transform="translate(348.535156 0.015625)"/>
      <use xlink:href="#DejaVuSans-63" transform="translate(411.914062 0.015625)"/>
      <use xlink:href="#DejaVuSans-79" transform="translate(466.894531 0.015625)"/>
      <use xlink:href="#DejaVuSans-20" transform="translate(526.074219 0.015625)"/>
      <use xlink:href="#DejaVuSans-5b" transform="translate(557.861328 0.015625)"/>
      <use xlink:href="#DejaVuSans-Oblique-48" transform="translate(596.875 0.015625)"/>
      <use xlink:href="#DejaVuSans-Oblique-7a" transform="translate(672.070312 0.015625)"/>
      <use xlink:href="#DejaVuSans-5d" transform="translate(724.560547 0.015625)"/>
     </g>
    </g>
   </g>
   <g id="matplotlib.axis_2">
    <g id="ytick_1">
     <g id="line2d_10">
      <defs>
       <path id="m142ad4dfe6" d="M 0 0 
L -3.5 0 
" style="stroke: #000000; stroke-width: 0.8"/>
      </defs>
      <g>
       <use xlink:href="#m142ad4dfe6" x="57.6" y="289.280755" style="stroke: #000000; stroke-width: 0.8"/>
      </g>
     </g>
     <g id="text_11">
      <!-- −20 -->
      <g transform="translate(29.495313 293.079974) scale(0.1 -0.1)">
       <use xlink:href="#DejaVuSans-2212"/>
       <use xlink:href="#DejaVuSans-32" x="83.789062"/>
       <use xlink:href="#DejaVuSans-30" x="147.412109"/>
      </g>
     </g>
    </g>
    <g id="ytick_2">
     <g id="line2d_11">
      <g>
       <use xlink:href="#m142ad4dfe6" x="57.6" y="252.674266" style="stroke: #000000; stroke-width: 0.8"/>
      </g>
     </g>
     <g id="text_12">
      <!-- −10 -->
      <g transform="translate(29.495313 256.473485) scale(0.1 -0.1)">
       <use xlink:href="#DejaVuSans-2212"/>
       <use xlink:href="#DejaVuSans-31" x="83.789062"/>
       <use xlink:href="#DejaVuSans-30" x="147.412109"/>
      </g>
     </g>
    </g>
    <g id="ytick_3">
     <g id="line2d_12">
      <g>
       <use xlink:href="#m142ad4dfe6" x="57.6" y="216.067777" style="stroke: #000000; stroke-width: 0.8"/>
      </g>
     </g>
     <g id="text_13">
      <!-- 0 -->
      <g transform="translate(44.2375 219.866996) scale(0.1 -0.1)">
       <use xlink:href="#DejaVuSans-30"/>
      </g>
     </g>
    </g>
    <g id="ytick_4">
     <g id="line2d_13">
      <g>
       <use xlink:href="#m142ad4dfe6" x="57.6" y="179.461288" style="stroke: #000000; stroke-width: 0.8"/>
      </g>
     </g>
     <g id="text_14">
      <!-- 10 -->
      <g transform="translate(37.875 183.260507) scale(0.1 -0.1)">
       <use xlink:href="#DejaVuSans-31"/>
       <use xlink:href="#DejaVuSans-30" x="63.623047"/>
      </g>
     </g>
    </g>
    <g id="ytick_5">
     <g id="line2d_14">
      <g>
       <use xlink:href="#m142ad4dfe6" x="57.6" y="142.854799" style="stroke: #000000; stroke-width: 0.8"/>
      </g>
     </g>
     <g id="text_15">
      <!-- 20 -->
      <g transform="translate(37.875 146.654017) scale(0.1 -0.1)">
       <use xlink:href="#DejaVuSans-32"/>
       <use xlink:href="#DejaVuSans-30" x="63.623047"/>
      </g>
     </g>
    </g>
    <g id="ytick_6">
     <g id="line2d_15">
      <g>
       <use xlink:href="#m142ad4dfe6" x="57.6" y="106.24831" style="stroke: #000000; stroke-width: 0.8"/>
      </g>
     </g>
     <g id="text_16">
      <!-- 30 -->
      <g transform="translate(37.875 110.047528) scale(0.1 -0.1)">
       <defs>
        <path id="DejaVuSans-33" d="M 2597 2516 
Q 3050 2419 3304 2112 
Q 3559 1806 3559 1356 
Q 3559 666 3084 287 
Q 2609 -91 1734 -91 
Q 1441 -91 1130 -33 
Q 819 25 488 141 
L 488 750 
Q 750 597 1062 519 
Q 1375 441 1716 441 
Q 2309 441 2620 675 
Q 2931 909 2931 1356 
Q 2931 1769 2642 2001 
Q 2353 2234 1838 2234 
L 1294 2234 
L 1294 2753 
L 1863 2753 
Q 2328 2753 2575 2939 
Q 2822 3125 2822 3475 
Q 2822 3834 2567 4026 
Q 2313 4219 1838 4219 
Q 1578 4219 1281 4162 
Q 984 4106 628 3988 
L 628 4550 
Q 988 4650 1302 4700 
Q 1616 4750 1894 4750 
Q 2613 4750 3031 4423 
Q 3450 4097 3450 3541 
Q 3450 3153 3228 2886 
Q 3006 2619 2597 2516 
z
" transform="scale(0.015625)"/>
       </defs>
       <use xlink:href="#DejaVuSans-33"/>
       <use xlink:href="#DejaVuSans-30" x="63.623047"/>
      </g>
     </g>
    </g>
    <g id="ytick_7">
     <g id="line2d_16">
      <g>
       <use xlink:href="#m142ad4dfe6" x="57.6" y="69.64182" style="stroke: #000000; stroke-width: 0.8"/>
      </g>
     </g>
     <g id="text_17">
      <!-- 40 -->
      <g transform="translate(37.875 73.441039) scale(0.1 -0.1)">
       <defs>
        <path id="DejaVuSans-34" d="M 2419 4116 
L 825 1625 
L 2419 1625 
L 2419 4116 
z
M 2253 4666 
L 3047 4666 
L 3047 1625 
L 3713 1625 
L 3713 1100 
L 3047 1100 
L 3047 0 
L 2419 0 
L 2419 1100 
L 313 1100 
L 313 1709 
L 2253 4666 
z
" transform="scale(0.015625)"/>
       </defs>
       <use xlink:href="#DejaVuSans-34"/>
       <use xlink:href="#DejaVuSans-30" x="63.623047"/>
      </g>
     </g>
    </g>
    <g id="text_18">
     <!-- Amplitude [dB] -->
     <g transform="translate(23.415625 212.245969) rotate(-90) scale(0.1 -0.1)">
      <defs>
       <path id="DejaVuSans-41" d="M 2188 4044 
L 1331 1722 
L 3047 1722 
L 2188 4044 
z
M 1831 4666 
L 2547 4666 
L 4325 0 
L 3669 0 
L 3244 1197 
L 1141 1197 
L 716 0 
L 50 0 
L 1831 4666 
z
" transform="scale(0.015625)"/>
       <path id="DejaVuSans-6d" d="M 3328 2828 
Q 3544 3216 3844 3400 
Q 4144 3584 4550 3584 
Q 5097 3584 5394 3201 
Q 5691 2819 5691 2113 
L 5691 0 
L 5113 0 
L 5113 2094 
Q 5113 2597 4934 2840 
Q 4756 3084 4391 3084 
Q 3944 3084 3684 2787 
Q 3425 2491 3425 1978 
L 3425 0 
L 2847 0 
L 2847 2094 
Q 2847 2600 2669 2842 
Q 2491 3084 2119 3084 
Q 1678 3084 1418 2786 
Q 1159 2488 1159 1978 
L 1159 0 
L 581 0 
L 581 3500 
L 1159 3500 
L 1159 2956 
Q 1356 3278 1631 3431 
Q 1906 3584 2284 3584 
Q 2666 3584 2933 3390 
Q 3200 3197 3328 2828 
z
" transform="scale(0.015625)"/>
       <path id="DejaVuSans-70" d="M 1159 525 
L 1159 -1331 
L 581 -1331 
L 581 3500 
L 1159 3500 
L 1159 2969 
Q 1341 3281 1617 3432 
Q 1894 3584 2278 3584 
Q 2916 3584 3314 3078 
Q 3713 2572 3713 1747 
Q 3713 922 3314 415 
Q 2916 -91 2278 -91 
Q 1894 -91 1617 61 
Q 1341 213 1159 525 
z
M 3116 1747 
Q 3116 2381 2855 2742 
Q 2594 3103 2138 3103 
Q 1681 3103 1420 2742 
Q 1159 2381 1159 1747 
Q 1159 1113 1420 752 
Q 1681 391 2138 391 
Q 2594 391 2855 752 
Q 3116 1113 3116 1747 
z
" transform="scale(0.015625)"/>
       <path id="DejaVuSans-6c" d="M 603 4863 
L 1178 4863 
L 1178 0 
L 603 0 
L 603 4863 
z
" transform="scale(0.015625)"/>
       <path id="DejaVuSans-69" d="M 603 3500 
L 1178 3500 
L 1178 0 
L 603 0 
L 603 3500 
z
M 603 4863 
L 1178 4863 
L 1178 4134 
L 603 4134 
L 603 4863 
z
" transform="scale(0.015625)"/>
       <path id="DejaVuSans-74" d="M 1172 4494 
L 1172 3500 
L 2356 3500 
L 2356 3053 
L 1172 3053 
L 1172 1153 
Q 1172 725 1289 603 
Q 1406 481 1766 481 
L 2356 481 
L 2356 0 
L 1766 0 
Q 1100 0 847 248 
Q 594 497 594 1153 
L 594 3053 
L 172 3053 
L 172 3500 
L 594 3500 
L 594 4494 
L 1172 4494 
z
" transform="scale(0.015625)"/>
       <path id="DejaVuSans-64" d="M 2906 2969 
L 2906 4863 
L 3481 4863 
L 3481 0 
L 2906 0 
L 2906 525 
Q 2725 213 2448 61 
Q 2172 -91 1784 -91 
Q 1150 -91 751 415 
Q 353 922 353 1747 
Q 353 2572 751 3078 
Q 1150 3584 1784 3584 
Q 2172 3584 2448 3432 
Q 2725 3281 2906 2969 
z
M 947 1747 
Q 947 1113 1208 752 
Q 1469 391 1925 391 
Q 2381 391 2643 752 
Q 2906 1113 2906 1747 
Q 2906 2381 2643 2742 
Q 2381 3103 1925 3103 
Q 1469 3103 1208 2742 
Q 947 2381 947 1747 
z
" transform="scale(0.015625)"/>
       <path id="DejaVuSans-42" d="M 1259 2228 
L 1259 519 
L 2272 519 
Q 2781 519 3026 730 
Q 3272 941 3272 1375 
Q 3272 1813 3026 2020 
Q 2781 2228 2272 2228 
L 1259 2228 
z
M 1259 4147 
L 1259 2741 
L 2194 2741 
Q 2656 2741 2882 2914 
Q 3109 3088 3109 3444 
Q 3109 3797 2882 3972 
Q 2656 4147 2194 4147 
L 1259 4147 
z
M 628 4666 
L 2241 4666 
Q 2963 4666 3353 4366 
Q 3744 4066 3744 3513 
Q 3744 3084 3544 2831 
Q 3344 2578 2956 2516 
Q 3422 2416 3680 2098 
Q 3938 1781 3938 1306 
Q 3938 681 3513 340 
Q 3088 0 2303 0 
L 628 0 
L 628 4666 
z
" transform="scale(0.015625)"/>
      </defs>
      <use xlink:href="#DejaVuSans-41"/>
      <use xlink:href="#DejaVuSans-6d" x="68.408203"/>
      <use xlink:href="#DejaVuSans-70" x="165.820312"/>
      <use xlink:href="#DejaVuSans-6c" x="229.296875"/>
      <use xlink:href="#DejaVuSans-69" x="257.080078"/>
      <use xlink:href="#DejaVuSans-74" x="284.863281"/>
      <use xlink:href="#DejaVuSans-75" x="324.072266"/>
      <use xlink:href="#DejaVuSans-64" x="387.451172"/>
      <use xlink:href="#DejaVuSans-65" x="450.927734"/>
      <use xlink:href="#DejaVuSans-20" x="512.451172"/>
      <use xlink:href="#DejaVuSans-5b" x="544.238281"/>
      <use xlink:href="#DejaVuSans-64" x="583.251953"/>
      <use xlink:href="#DejaVuSans-42" x="646.728516"/>
      <use xlink:href="#DejaVuSans-5d" x="715.332031"/>
     </g>
    </g>
   </g>
   <g id="line2d_17">
    <path d="M 57.3768 188.66563 
L 57.6 191.1861 
L 57.8232 190.019594 
L 58.0464 183.124814 
L 58.2696 189.835318 
L 58.4928 202.315327 
L 58.716 191.204632 
L 58.9392 191.585795 
L 59.1624 190.928984 
L 59.3856 184.914464 
L 59.6088 195.745046 
L 59.832 189.253258 
L 60.0552 199.865286 
L 60.2784 185.506681 
L 60.5016 185.392793 
L 60.7248 183.323404 
L 60.948 184.031981 
L 61.1712 182.303305 
L 61.3944 185.200789 
L 61.6176 185.834703 
L 61.8408 185.075908 
L 62.064 185.574403 
L 62.2872 197.003145 
L 62.5104 185.07662 
L 62.7336 187.478174 
L 62.9568 185.980595 
L 63.18 191.472027 
L 63.6264 185.160557 
L 63.8496 184.687954 
L 64.0728 189.36795 
L 64.296 196.974645 
L 64.5192 183.027854 
L 64.7424 182.384025 
L 64.9656 182.156609 
L 65.1888 195.158327 
L 65.6352 176.848963 
L 65.8584 185.378796 
L 66.0816 185.045009 
L 66.3048 188.605094 
L 66.528 184.072269 
L 66.7512 184.442176 
L 66.9744 190.642399 
L 67.1976 186.810095 
L 67.4208 185.702744 
L 67.8672 190.715601 
L 68.0904 183.303401 
L 68.3136 181.290603 
L 68.5368 185.52979 
L 68.76 181.990493 
L 68.9832 195.109172 
L 69.2064 190.990824 
L 69.4296 189.83531 
L 69.6528 186.457525 
L 70.0992 184.77407 
L 70.3224 192.703614 
L 70.5456 189.740263 
L 70.7688 185.029768 
L 70.992 184.469323 
L 71.2152 182.465692 
L 71.4384 189.015418 
L 71.6616 185.703491 
L 71.8848 189.101636 
L 72.108 183.985834 
L 72.3312 190.411407 
L 72.5544 181.795076 
L 72.7776 186.544085 
L 73.224 192.105253 
L 73.4472 207.220315 
L 73.6704 184.095508 
L 73.8936 187.80871 
L 74.1168 187.30698 
L 74.5632 183.843237 
L 74.7864 202.089737 
L 75.0096 185.966795 
L 75.2328 187.867372 
L 75.456 190.720988 
L 75.6792 185.49462 
L 75.9024 185.048191 
L 76.1256 189.864026 
L 76.3488 182.649656 
L 76.572 185.893947 
L 76.7952 179.9352 
L 77.0184 180.69622 
L 77.2416 191.401571 
L 77.4648 187.933484 
L 77.688 181.874087 
L 77.9112 183.266447 
L 78.1344 186.236821 
L 78.3576 183.180028 
L 78.5808 187.040566 
L 78.804 185.284438 
L 79.0272 189.084332 
L 79.2504 183.870038 
L 79.4736 193.168863 
L 79.6968 185.88255 
L 79.92 183.916607 
L 80.1432 186.799637 
L 80.3664 182.653136 
L 80.5896 183.791046 
L 80.8128 181.823794 
L 81.036 184.376067 
L 81.2592 192.159919 
L 81.4824 180.117595 
L 81.7056 187.82288 
L 81.9288 186.481673 
L 82.152 186.590663 
L 82.3752 183.834203 
L 82.5984 192.119604 
L 83.0448 182.288526 
L 83.268 186.953658 
L 83.4912 185.708102 
L 83.7144 175.706384 
L 83.9376 187.269387 
L 84.1608 188.288539 
L 84.384 177.816031 
L 84.6072 182.486589 
L 84.8304 180.155712 
L 85.0536 186.992341 
L 85.2768 186.385307 
L 85.5 184.507802 
L 85.7232 185.18133 
L 85.9464 185.392919 
L 86.1696 180.175283 
L 86.3928 178.855398 
L 86.616 188.852693 
L 86.8392 184.504042 
L 87.0624 188.236296 
L 87.2856 180.185459 
L 87.5088 194.804814 
L 87.732 186.009812 
L 88.1784 181.738994 
L 88.6248 184.176367 
L 89.0712 189.3919 
L 89.5176 186.355554 
L 89.7408 186.343834 
L 89.964 184.774872 
L 90.1872 180.250053 
L 90.4104 179.847521 
L 90.6336 190.306013 
L 90.8568 190.077799 
L 91.08 189.479483 
L 91.5264 180.395989 
L 91.7496 185.520275 
L 91.9728 181.83013 
L 92.196 186.432921 
L 92.4192 182.492625 
L 92.6424 185.710382 
L 92.8656 180.639168 
L 93.0888 203.950463 
L 93.312 183.373926 
L 93.5352 178.479897 
L 93.9816 189.710098 
L 94.2048 180.994345 
L 94.428 181.024062 
L 94.6512 189.899555 
L 94.8744 178.16704 
L 95.3208 196.167283 
L 95.544 182.342651 
L 95.7672 187.79151 
L 96.2136 180.044463 
L 96.4368 178.480431 
L 96.66 187.836153 
L 96.8832 179.014115 
L 97.1064 188.215989 
L 97.3296 185.863949 
L 97.5528 178.559938 
L 97.776 183.018761 
L 97.9992 196.384798 
L 98.2224 187.215385 
L 98.4456 187.419595 
L 98.6688 183.553364 
L 98.892 184.262249 
L 99.1152 179.000878 
L 99.3384 186.38725 
L 99.5616 174.825784 
L 99.7848 179.061571 
L 100.008 187.902968 
L 100.2312 186.024906 
L 100.4544 188.164597 
L 100.6776 183.733273 
L 100.9008 185.290577 
L 101.124 181.9104 
L 101.3472 187.389626 
L 101.5704 197.042467 
L 101.7936 179.137922 
L 102.0168 191.66294 
L 102.24 181.798377 
L 102.4632 196.095094 
L 102.6864 184.607511 
L 102.9096 183.352185 
L 103.1328 177.83006 
L 103.356 186.555067 
L 103.5792 181.617254 
L 103.8024 181.911208 
L 104.0256 203.144906 
L 104.2488 187.867059 
L 104.472 184.749029 
L 104.6952 183.393399 
L 104.9184 189.235684 
L 105.1416 183.873757 
L 105.3648 184.436794 
L 105.588 179.576689 
L 105.8112 192.149919 
L 106.0344 182.623216 
L 106.2576 185.777861 
L 106.4808 184.065564 
L 106.704 186.186448 
L 106.9272 182.689478 
L 107.1504 181.046754 
L 107.3736 189.915 
L 107.82 182.540285 
L 108.0432 185.579193 
L 108.2664 178.01555 
L 108.4896 190.524104 
L 108.7128 187.471128 
L 108.936 176.52836 
L 109.1592 172.742773 
L 109.6056 196.280907 
L 109.8288 199.448574 
L 110.052 179.870714 
L 110.4984 176.255612 
L 110.7216 181.347914 
L 110.9448 181.901046 
L 111.168 195.432897 
L 111.3912 175.916009 
L 111.6144 178.601444 
L 111.8376 175.845462 
L 112.0608 181.844388 
L 112.284 184.020178 
L 112.5072 182.172496 
L 112.9536 181.568083 
L 113.1768 188.863861 
L 113.4 184.489575 
L 113.6232 175.103995 
L 113.8464 176.499071 
L 114.0696 183.16406 
L 114.2928 175.914841 
L 114.516 181.994068 
L 114.7392 193.674962 
L 115.1856 179.095135 
L 115.4088 185.685205 
L 115.632 183.850789 
L 115.8552 176.169613 
L 116.0784 175.34254 
L 116.3016 184.139941 
L 116.748 172.62286 
L 116.9712 183.72178 
L 117.1944 172.423821 
L 117.6408 183.104267 
L 118.0872 176.656757 
L 118.3104 173.223039 
L 118.5336 181.322021 
L 118.7568 179.870474 
L 118.98 177.557925 
L 119.2032 179.417485 
L 119.4264 178.068673 
L 119.6496 181.603962 
L 119.8728 179.945198 
L 120.096 176.95023 
L 120.3192 185.953478 
L 120.5424 179.520087 
L 120.7656 181.635719 
L 120.9888 178.949019 
L 121.4352 186.74534 
L 121.6584 184.137815 
L 121.8816 171.609104 
L 122.1048 171.388807 
L 122.328 170.50957 
L 122.5512 186.965873 
L 122.9976 173.697148 
L 123.444 181.130607 
L 123.6672 176.456668 
L 123.8904 184.824544 
L 124.1136 170.016944 
L 124.3368 178.362717 
L 124.56 179.096411 
L 124.7832 178.835644 
L 125.0064 193.370028 
L 125.2296 192.411282 
L 125.4528 178.606963 
L 125.676 183.110275 
L 125.8992 172.680127 
L 126.1224 172.74544 
L 126.3456 184.200014 
L 126.5688 178.311542 
L 126.792 168.564821 
L 127.2384 188.936415 
L 127.4616 179.065701 
L 127.6848 179.102964 
L 127.908 193.584011 
L 128.1312 180.051003 
L 128.3544 178.255639 
L 128.5776 189.795129 
L 128.8008 179.3821 
L 129.024 180.339043 
L 129.2472 177.785967 
L 129.4704 173.415553 
L 129.6936 175.951147 
L 129.9168 187.234222 
L 130.14 168.517578 
L 130.3632 177.23122 
L 130.5864 171.382056 
L 130.8096 186.347945 
L 131.0328 184.572422 
L 131.256 172.639076 
L 131.7024 173.623717 
L 131.9256 185.457911 
L 132.1488 181.804064 
L 132.372 168.463025 
L 132.8184 180.846552 
L 133.0416 197.023565 
L 133.2648 177.744939 
L 133.488 180.185144 
L 133.7112 170.618537 
L 133.9344 174.340228 
L 134.1576 174.702259 
L 134.3808 206.379775 
L 134.604 178.356189 
L 134.8272 175.519937 
L 135.0504 174.295221 
L 135.4968 178.314926 
L 135.72 187.092816 
L 135.9432 173.439965 
L 136.1664 168.006884 
L 136.3896 174.570662 
L 136.836 203.342795 
L 137.0592 175.640845 
L 137.2824 170.364567 
L 137.5056 173.249278 
L 137.7288 172.355201 
L 137.952 188.636545 
L 138.1752 177.277312 
L 138.3984 174.396015 
L 138.6216 168.921546 
L 138.8448 170.309717 
L 139.2912 199.734031 
L 139.5144 177.989891 
L 139.7376 171.943614 
L 139.9608 179.712025 
L 140.184 179.978132 
L 140.6304 173.968472 
L 140.8536 181.801291 
L 141.0768 173.404847 
L 141.3 176.872992 
L 141.5232 176.806694 
L 141.7464 180.21474 
L 141.9696 177.212309 
L 142.1928 170.33274 
L 142.416 181.654256 
L 142.6392 185.964932 
L 142.8624 173.10304 
L 143.0856 169.394248 
L 143.3088 177.42368 
L 143.532 178.673448 
L 143.7552 174.463105 
L 143.9784 181.297307 
L 144.2016 171.857652 
L 144.4248 176.867786 
L 144.648 178.924865 
L 144.8712 198.438688 
L 145.0944 177.467018 
L 145.3176 170.413952 
L 145.5408 169.180153 
L 145.764 176.243263 
L 145.9872 179.419205 
L 146.2104 179.885314 
L 146.4336 173.868306 
L 146.6568 173.110851 
L 146.88 170.105627 
L 147.1032 192.628652 
L 147.3264 169.501839 
L 147.5496 173.704751 
L 147.7728 170.62064 
L 148.2192 187.011635 
L 148.4424 171.847285 
L 148.6656 169.856006 
L 148.8888 198.674213 
L 149.112 169.971703 
L 149.3352 170.614305 
L 149.5584 194.602361 
L 149.7816 179.271752 
L 150.0048 176.177266 
L 150.228 170.088741 
L 150.4512 171.394184 
L 150.6744 178.527158 
L 150.8976 174.901471 
L 151.1208 174.781651 
L 151.344 166.522468 
L 151.5672 167.883915 
L 151.7904 172.268222 
L 152.0136 185.783213 
L 152.46 174.698444 
L 152.6832 162.529824 
L 153.1296 188.690897 
L 153.3528 168.087412 
L 153.576 175.898862 
L 153.7992 172.625179 
L 154.0224 166.783849 
L 154.2456 182.941908 
L 154.4688 175.3865 
L 154.692 180.13678 
L 154.9152 173.287651 
L 155.1384 222.722114 
L 155.3616 171.386711 
L 155.5848 176.815525 
L 155.808 168.027118 
L 156.0312 182.695694 
L 156.4776 165.442881 
L 156.7008 169.640595 
L 156.924 176.838451 
L 157.1472 163.887903 
L 157.3704 171.243597 
L 157.5936 182.847795 
L 157.8168 169.831802 
L 158.04 169.709488 
L 158.2632 165.767213 
L 158.4864 166.93316 
L 158.7096 178.556669 
L 158.9328 162.863883 
L 159.156 165.080747 
L 159.3792 205.49152 
L 159.6024 162.288222 
L 159.8256 164.142427 
L 160.0488 161.703794 
L 160.272 188.534312 
L 160.4952 156.461768 
L 160.7184 157.731822 
L 160.9416 191.711632 
L 161.1648 186.944051 
L 161.388 165.162116 
L 161.6112 166.472646 
L 161.8344 173.672108 
L 162.0576 170.40952 
L 162.2808 176.316125 
L 162.504 164.85606 
L 162.7272 169.507753 
L 162.9504 165.815256 
L 163.1736 166.860751 
L 163.3968 181.212498 
L 163.62 168.169291 
L 163.8432 171.43682 
L 164.0664 165.576397 
L 164.2896 185.14843 
L 164.5128 180.865275 
L 164.736 152.561103 
L 165.1824 165.262055 
L 165.4056 164.078389 
L 165.6288 168.896064 
L 165.852 151.681152 
L 166.0752 147.95049 
L 166.2984 186.647594 
L 166.968 157.397591 
L 167.1912 158.524998 
L 167.4144 158.821089 
L 167.6376 179.090499 
L 168.084 157.206615 
L 168.5304 171.363377 
L 168.9768 161.317457 
L 169.2 177.184561 
L 169.4232 154.629672 
L 169.6464 172.821767 
L 169.8696 159.722905 
L 170.0928 197.571601 
L 170.316 173.203035 
L 170.7624 165.496029 
L 170.9856 182.381491 
L 171.2088 169.405533 
L 171.6552 176.434474 
L 171.8784 167.241827 
L 172.1016 171.264082 
L 172.3248 164.93872 
L 172.548 162.928576 
L 172.7712 162.995082 
L 173.2176 168.895313 
L 173.4408 156.105973 
L 173.664 161.111902 
L 173.8872 181.525206 
L 174.1104 160.556636 
L 174.5568 168.242793 
L 174.78 180.310278 
L 175.0032 160.973625 
L 175.2264 164.007098 
L 175.4496 179.495162 
L 175.896 155.908008 
L 176.1192 162.953827 
L 176.3424 203.368882 
L 176.5656 167.550797 
L 176.7888 182.651019 
L 177.012 182.562109 
L 177.4584 159.45331 
L 177.6816 172.529248 
L 178.128 159.258178 
L 178.3512 172.281257 
L 178.7976 167.368824 
L 179.0208 172.572035 
L 179.244 162.120673 
L 179.4672 177.709015 
L 179.6904 159.269848 
L 179.9136 173.942235 
L 180.1368 162.093503 
L 180.36 156.535949 
L 180.5832 175.119834 
L 181.0296 160.177412 
L 181.2528 161.679656 
L 181.6992 171.360157 
L 181.9224 174.168891 
L 182.1456 161.563654 
L 182.3688 170.005263 
L 182.592 166.829608 
L 182.8152 166.145854 
L 183.2616 181.635279 
L 183.4848 161.105564 
L 183.708 168.157989 
L 183.9312 154.061576 
L 184.1544 188.132553 
L 184.3776 169.878985 
L 184.6008 163.161817 
L 184.824 175.536224 
L 185.0472 167.468207 
L 185.2704 178.725441 
L 185.4936 183.510592 
L 185.94 157.929937 
L 186.1632 165.324229 
L 186.3864 166.375076 
L 186.6096 163.288342 
L 187.056 171.815829 
L 187.2792 165.082106 
L 187.5024 165.648026 
L 187.7256 160.852872 
L 187.9488 170.702728 
L 188.172 156.226553 
L 188.6184 164.559255 
L 188.8416 166.499991 
L 189.0648 165.85705 
L 189.288 170.529069 
L 189.5112 171.676028 
L 189.7344 152.110259 
L 189.9576 157.121624 
L 190.1808 177.914657 
L 190.404 156.942004 
L 190.6272 148.012579 
L 190.8504 160.519646 
L 191.0736 149.592162 
L 191.2968 156.004513 
L 191.52 170.056472 
L 191.7432 154.703636 
L 192.1896 146.956732 
L 192.4128 150.782915 
L 192.636 169.78727 
L 192.8592 147.478083 
L 193.0824 145.034105 
L 193.3056 164.431058 
L 193.5288 156.924936 
L 193.752 163.366391 
L 193.9752 165.826901 
L 194.1984 162.171602 
L 194.4216 143.985966 
L 194.868 164.40384 
L 195.0912 174.699902 
L 195.3144 157.469833 
L 195.5376 158.682444 
L 195.7608 147.224398 
L 195.984 166.438891 
L 196.2072 155.138027 
L 196.4304 155.027124 
L 196.6536 153.13221 
L 196.8768 148.673514 
L 197.1 157.521841 
L 197.3232 155.880285 
L 197.5464 147.012057 
L 197.7696 152.949597 
L 197.9928 165.547667 
L 198.216 158.979797 
L 198.6624 161.009043 
L 198.8856 170.634707 
L 199.1088 150.677506 
L 199.332 148.181268 
L 199.5552 151.092089 
L 199.7784 149.875235 
L 200.0016 143.298675 
L 200.2248 148.52924 
L 200.448 149.807147 
L 200.6712 168.439662 
L 200.8944 157.685581 
L 201.1176 180.936079 
L 201.564 149.452185 
L 201.7872 177.114919 
L 202.2336 155.982042 
L 202.4568 148.266716 
L 202.68 157.302106 
L 202.9032 154.291939 
L 203.1264 157.849772 
L 203.3496 184.924437 
L 203.796 144.796498 
L 204.0192 139.661574 
L 204.2424 146.651071 
L 204.4656 158.505277 
L 204.6888 147.017539 
L 204.912 143.296213 
L 205.1352 187.331201 
L 205.3584 147.906146 
L 205.5816 163.962376 
L 205.8048 145.815907 
L 206.028 169.994504 
L 206.2512 176.840601 
L 206.6976 148.155377 
L 206.9208 153.506929 
L 207.3672 138.647996 
L 207.5904 141.522104 
L 207.8136 135.557921 
L 208.0368 160.426056 
L 208.26 132.966753 
L 208.4832 142.694432 
L 208.7064 136.818947 
L 208.9296 161.108734 
L 209.1528 137.341585 
L 209.376 150.61033 
L 209.5992 130.078029 
L 209.8224 139.875381 
L 210.0456 144.038092 
L 210.2688 159.140443 
L 210.7152 142.161906 
L 210.9384 148.719871 
L 211.1616 137.731407 
L 211.3848 148.021971 
L 211.608 146.739612 
L 211.8312 140.459442 
L 212.0544 137.920815 
L 212.2776 138.259616 
L 212.5008 145.256106 
L 212.9472 139.160825 
L 213.1704 133.039437 
L 213.3936 141.437279 
L 213.6168 134.633716 
L 214.0632 139.419552 
L 214.2864 146.626778 
L 214.5096 129.620742 
L 214.956 148.565919 
L 215.4024 133.921171 
L 215.6256 131.48007 
L 216.072 148.938972 
L 216.2952 145.053961 
L 216.7416 128.50933 
L 216.9648 149.928145 
L 217.4112 133.921373 
L 217.6344 157.576218 
L 217.8576 151.165175 
L 218.0808 128.205304 
L 218.304 139.256111 
L 218.5272 126.973094 
L 218.7504 123.78452 
L 218.9736 113.081642 
L 219.1968 121.301846 
L 219.42 124.900734 
L 219.8664 111.519057 
L 220.0896 123.43426 
L 220.3128 118.811833 
L 220.536 118.998868 
L 220.7592 127.379585 
L 220.9824 115.261588 
L 221.2056 109.54112 
L 221.4288 118.990962 
L 221.652 111.041437 
L 221.8752 118.991904 
L 222.0984 107.835801 
L 222.3216 111.2543 
L 222.5448 111.464604 
L 222.768 108.419544 
L 223.2144 130.080788 
L 223.4376 127.154371 
L 223.6608 112.238392 
L 223.884 134.001687 
L 224.1072 131.338388 
L 224.3304 131.292786 
L 224.5536 126.296293 
L 224.7768 113.217354 
L 225 109.799003 
L 225.4464 120.734549 
L 225.6696 113.163422 
L 225.8928 111.530087 
L 226.116 104.234684 
L 226.3392 107.622351 
L 226.5624 104.890038 
L 226.7856 110.534295 
L 227.0088 104.145478 
L 227.4552 125.342021 
L 227.6784 131.604565 
L 227.9016 115.616485 
L 228.1248 129.188571 
L 228.348 103.512307 
L 228.5712 107.396561 
L 228.7944 107.076834 
L 229.0176 101.085917 
L 229.2408 117.838235 
L 229.464 108.38073 
L 229.6872 109.340466 
L 229.9104 98.730897 
L 230.1336 116.205491 
L 230.3568 109.083262 
L 230.8032 105.197232 
L 231.2496 115.412143 
L 231.4728 121.761952 
L 231.696 101.267257 
L 231.9192 91.407228 
L 232.3656 83.427222 
L 232.5888 75.66 
L 232.812 79.446521 
L 233.0352 80.321759 
L 233.2584 84.091224 
L 233.4816 80.501373 
L 233.7048 73.506499 
L 233.928 70.966492 
L 234.1512 69.975699 
L 234.3744 73.119271 
L 234.5976 71.288306 
L 234.8208 82.191361 
L 235.044 51.303871 
L 235.2672 62.947882 
L 235.4904 61.300739 
L 235.7136 61.276622 
L 235.9368 80.381264 
L 236.16 70.790041 
L 236.3832 80.381264 
L 236.6064 61.276622 
L 236.8296 61.300739 
L 237.0528 62.947882 
L 237.276 51.303871 
L 237.4992 82.191361 
L 237.7224 71.288306 
L 237.9456 73.119271 
L 238.1688 69.975699 
L 238.392 70.966492 
L 238.6152 73.506499 
L 239.0616 84.091224 
L 239.2848 80.321759 
L 239.508 79.446521 
L 239.7312 75.66 
L 239.9544 83.427222 
L 240.4008 91.407228 
L 240.624 101.267257 
L 240.8472 121.761952 
L 241.5168 105.197232 
L 241.9632 109.083262 
L 242.1864 116.205491 
L 242.4096 98.730897 
L 242.6328 109.340466 
L 242.856 108.38073 
L 243.0792 117.838235 
L 243.3024 101.085917 
L 243.5256 107.076834 
L 243.7488 107.396561 
L 243.972 103.512307 
L 244.1952 129.188571 
L 244.4184 115.616485 
L 244.6416 131.604565 
L 244.8648 125.342021 
L 245.3112 104.145478 
L 245.5344 110.534295 
L 245.7576 104.890038 
L 245.9808 107.622351 
L 246.204 104.234684 
L 246.4272 111.530087 
L 246.6504 113.163422 
L 246.8736 120.734549 
L 247.0968 116.370957 
L 247.32 109.799003 
L 247.5432 113.217354 
L 247.7664 126.296293 
L 247.9896 131.292786 
L 248.2128 131.338388 
L 248.436 134.001687 
L 248.6592 112.238392 
L 248.8824 127.154371 
L 249.1056 130.080788 
L 249.552 108.419544 
L 249.7752 111.464604 
L 249.9984 111.2543 
L 250.2216 107.835801 
L 250.4448 118.991904 
L 250.668 111.041437 
L 250.8912 118.990962 
L 251.1144 109.54112 
L 251.3376 115.261588 
L 251.5608 127.379585 
L 251.784 118.998868 
L 252.0072 118.811833 
L 252.2304 123.43426 
L 252.4536 111.519057 
L 252.6768 116.700621 
L 252.9 124.900734 
L 253.1232 121.301846 
L 253.3464 113.081642 
L 253.5696 123.78452 
L 253.7928 126.973094 
L 254.016 139.256111 
L 254.2392 128.205304 
L 254.4624 151.165175 
L 254.6856 157.576218 
L 254.9088 133.921373 
L 255.132 140.053804 
L 255.3552 149.928145 
L 255.5784 128.50933 
L 256.248 148.938972 
L 256.6944 131.48007 
L 256.9176 133.921171 
L 257.364 148.565919 
L 257.8104 129.620742 
L 258.0336 146.626778 
L 258.2568 139.419552 
L 258.48 137.673686 
L 258.7032 134.633716 
L 258.9264 141.437279 
L 259.1496 133.039437 
L 259.3728 139.160825 
L 259.8192 145.256106 
L 260.0424 138.259616 
L 260.2656 137.920815 
L 260.4888 140.459442 
L 260.712 146.739612 
L 260.9352 148.021971 
L 261.1584 137.731407 
L 261.3816 148.719871 
L 261.6048 142.161906 
L 262.0512 159.140443 
L 262.2744 144.038092 
L 262.4976 139.875381 
L 262.7208 130.078029 
L 262.944 150.61033 
L 263.1672 137.341585 
L 263.3904 161.108734 
L 263.6136 136.818947 
L 263.8368 142.694432 
L 264.06 132.966753 
L 264.2832 160.426056 
L 264.5064 135.557921 
L 264.7296 141.522104 
L 264.9528 138.647996 
L 265.3992 153.506929 
L 265.6224 148.155377 
L 266.0688 176.840601 
L 266.292 169.994504 
L 266.5152 145.815907 
L 266.7384 163.962376 
L 266.9616 147.906146 
L 267.1848 187.331201 
L 267.408 143.296213 
L 267.6312 147.017539 
L 267.8544 158.505277 
L 268.3008 139.661574 
L 268.524 144.796498 
L 268.9704 184.924437 
L 269.1936 157.849772 
L 269.4168 154.291939 
L 269.64 157.302106 
L 269.8632 148.266716 
L 270.3096 165.303028 
L 270.5328 177.114919 
L 270.756 149.452185 
L 271.2024 180.936079 
L 271.4256 157.685581 
L 271.6488 168.439662 
L 271.872 149.807147 
L 272.0952 148.52924 
L 272.3184 143.298675 
L 272.5416 149.875235 
L 272.7648 151.092089 
L 272.988 148.181268 
L 273.2112 150.677506 
L 273.4344 170.634707 
L 273.6576 161.009043 
L 273.8808 160.241501 
L 274.104 158.979797 
L 274.3272 165.547667 
L 274.5504 152.949597 
L 274.7736 147.012057 
L 274.9968 155.880285 
L 275.22 157.521841 
L 275.4432 148.673514 
L 275.6664 153.13221 
L 275.8896 155.027124 
L 276.1128 155.138027 
L 276.336 166.438891 
L 276.5592 147.224398 
L 276.7824 158.682444 
L 277.0056 157.469833 
L 277.2288 174.699902 
L 277.8984 143.985966 
L 278.1216 162.171602 
L 278.3448 165.826901 
L 278.568 163.366391 
L 278.7912 156.924936 
L 279.0144 164.431058 
L 279.2376 145.034105 
L 279.4608 147.478083 
L 279.684 169.78727 
L 279.9072 150.782915 
L 280.1304 146.956732 
L 280.5768 154.703636 
L 280.8 170.056472 
L 281.0232 156.004513 
L 281.2464 149.592162 
L 281.4696 160.519646 
L 281.6928 148.012579 
L 281.916 156.942004 
L 282.1392 177.914657 
L 282.3624 157.121624 
L 282.5856 152.110259 
L 282.8088 171.676028 
L 283.032 170.529069 
L 283.2552 165.85705 
L 283.4784 166.499991 
L 283.9248 161.732468 
L 284.148 156.226553 
L 284.3712 170.702728 
L 284.5944 160.852872 
L 284.8176 165.648026 
L 285.0408 165.082106 
L 285.264 171.815829 
L 285.7104 163.288342 
L 285.9336 166.375076 
L 286.1568 165.324229 
L 286.38 157.929937 
L 286.6032 167.059718 
L 286.8264 183.510592 
L 287.0496 178.725441 
L 287.2728 167.468207 
L 287.496 175.536224 
L 287.7192 163.161817 
L 287.9424 169.878985 
L 288.1656 188.132553 
L 288.3888 154.061576 
L 288.612 168.157989 
L 288.8352 161.105564 
L 289.0584 181.635279 
L 289.5048 166.145854 
L 289.728 166.829608 
L 289.9512 170.005263 
L 290.1744 161.563654 
L 290.3976 174.168891 
L 290.844 167.373321 
L 291.0672 161.679656 
L 291.2904 160.177412 
L 291.5136 165.588274 
L 291.7368 175.119834 
L 291.96 156.535949 
L 292.1832 162.093503 
L 292.4064 173.942235 
L 292.6296 159.269848 
L 292.8528 177.709015 
L 293.076 162.120673 
L 293.2992 172.572035 
L 293.5224 167.368824 
L 293.9688 172.281257 
L 294.192 159.258178 
L 294.6384 172.529248 
L 294.8616 159.45331 
L 295.308 182.562109 
L 295.5312 182.651019 
L 295.7544 167.550797 
L 295.9776 203.368882 
L 296.2008 162.953827 
L 296.424 155.908008 
L 296.8704 179.495162 
L 297.0936 164.007098 
L 297.3168 160.973625 
L 297.54 180.310278 
L 297.7632 168.242793 
L 298.2096 160.556636 
L 298.4328 181.525206 
L 298.656 161.111902 
L 298.8792 156.105973 
L 299.1024 168.895313 
L 299.5488 162.995082 
L 299.772 162.928576 
L 299.9952 164.93872 
L 300.2184 171.264082 
L 300.4416 167.241827 
L 300.6648 176.434474 
L 300.888 173.938806 
L 301.1112 169.405533 
L 301.3344 182.381491 
L 301.5576 165.496029 
L 301.7808 168.364574 
L 302.004 173.203035 
L 302.2272 197.571601 
L 302.4504 159.722905 
L 302.6736 172.821767 
L 302.8968 154.629672 
L 303.12 177.184561 
L 303.3432 161.317457 
L 303.5664 164.791333 
L 303.7896 171.363377 
L 304.236 157.206615 
L 304.4592 164.983816 
L 304.6824 179.090499 
L 304.9056 158.821089 
L 305.1288 158.524998 
L 305.352 157.397591 
L 305.5752 171.170403 
L 306.0216 186.647594 
L 306.2448 147.95049 
L 306.468 151.681152 
L 306.6912 168.896064 
L 306.9144 164.078389 
L 307.1376 165.262055 
L 307.584 152.561103 
L 307.8072 180.865275 
L 308.0304 185.14843 
L 308.2536 165.576397 
L 308.4768 171.43682 
L 308.7 168.169291 
L 308.9232 181.212498 
L 309.1464 166.860751 
L 309.3696 165.815256 
L 309.5928 169.507753 
L 309.816 164.85606 
L 310.0392 176.316125 
L 310.2624 170.40952 
L 310.4856 173.672108 
L 310.7088 166.472646 
L 310.932 165.162116 
L 311.1552 186.944051 
L 311.3784 191.711632 
L 311.6016 157.731822 
L 311.8248 156.461768 
L 312.048 188.534312 
L 312.2712 161.703794 
L 312.4944 164.142427 
L 312.7176 162.288222 
L 312.9408 205.49152 
L 313.164 165.080747 
L 313.3872 162.863883 
L 313.6104 178.556669 
L 313.8336 166.93316 
L 314.0568 165.767213 
L 314.28 169.709488 
L 314.5032 169.831802 
L 314.7264 182.847795 
L 315.1728 163.887903 
L 315.396 176.838451 
L 315.8424 165.442881 
L 316.2888 182.695694 
L 316.512 168.027118 
L 316.7352 176.815525 
L 316.9584 171.386711 
L 317.1816 222.722114 
L 317.4048 173.287651 
L 317.628 180.13678 
L 317.8512 175.3865 
L 318.0744 182.941908 
L 318.2976 166.783849 
L 318.744 175.898862 
L 318.9672 168.087412 
L 319.1904 188.690897 
L 319.6368 162.529824 
L 319.86 174.698444 
L 320.3064 185.783213 
L 320.5296 172.268222 
L 320.7528 167.883915 
L 320.976 166.522468 
L 321.1992 174.781651 
L 321.4224 174.901471 
L 321.6456 178.527158 
L 321.8688 171.394184 
L 322.092 170.088741 
L 322.5384 179.271752 
L 322.7616 194.602361 
L 322.9848 170.614305 
L 323.208 169.971703 
L 323.4312 198.674213 
L 323.6544 169.856006 
L 323.8776 171.847285 
L 324.1008 187.011635 
L 324.5472 170.62064 
L 324.7704 173.704751 
L 324.9936 169.501839 
L 325.2168 192.628652 
L 325.44 170.105627 
L 325.6632 173.110851 
L 325.8864 173.868306 
L 326.1096 179.885314 
L 326.3328 179.419205 
L 326.556 176.243263 
L 326.7792 169.180153 
L 327.0024 170.413952 
L 327.2256 177.467018 
L 327.4488 198.438688 
L 327.672 178.924865 
L 327.8952 176.867786 
L 328.1184 171.857652 
L 328.3416 181.297307 
L 328.5648 174.463105 
L 328.788 178.673448 
L 329.0112 177.42368 
L 329.2344 169.394248 
L 329.4576 173.10304 
L 329.6808 185.964932 
L 329.904 181.654256 
L 330.1272 170.33274 
L 330.3504 177.212309 
L 330.5736 180.21474 
L 330.7968 176.806694 
L 331.02 176.872992 
L 331.2432 173.404847 
L 331.4664 181.801291 
L 331.6896 173.968472 
L 332.136 179.978132 
L 332.3592 179.712025 
L 332.5824 171.943614 
L 332.8056 177.989891 
L 333.0288 199.734031 
L 333.4752 170.309717 
L 333.6984 168.921546 
L 334.1448 177.277312 
L 334.368 188.636545 
L 334.5912 172.355201 
L 334.8144 173.249278 
L 335.0376 170.364567 
L 335.2608 175.640845 
L 335.484 203.342795 
L 335.9304 174.570662 
L 336.1536 168.006884 
L 336.3768 173.439965 
L 336.6 187.092816 
L 336.8232 178.314926 
L 337.2696 174.295221 
L 337.4928 175.519937 
L 337.716 178.356189 
L 337.9392 206.379775 
L 338.1624 174.702259 
L 338.3856 174.340228 
L 338.6088 170.618537 
L 338.832 180.185144 
L 339.0552 177.744939 
L 339.2784 197.023565 
L 339.5016 180.846552 
L 339.7248 176.621296 
L 339.948 168.463025 
L 340.1712 181.804064 
L 340.3944 185.457911 
L 340.6176 173.623717 
L 341.064 172.639076 
L 341.2872 184.572422 
L 341.5104 186.347945 
L 341.7336 171.382056 
L 341.9568 177.23122 
L 342.18 168.517578 
L 342.4032 187.234222 
L 342.6264 175.951147 
L 342.8496 173.415553 
L 343.296 180.339043 
L 343.5192 179.3821 
L 343.7424 189.795129 
L 343.9656 178.255639 
L 344.1888 180.051003 
L 344.412 193.584011 
L 344.6352 179.102964 
L 344.8584 179.065701 
L 345.0816 188.936415 
L 345.528 168.564821 
L 345.9744 184.200014 
L 346.1976 172.74544 
L 346.4208 172.680127 
L 346.644 183.110275 
L 346.8672 178.606963 
L 347.0904 192.411282 
L 347.3136 193.370028 
L 347.5368 178.835644 
L 347.76 179.096411 
L 347.9832 178.362717 
L 348.2064 170.016944 
L 348.4296 184.824544 
L 348.6528 176.456668 
L 348.876 181.130607 
L 349.0992 178.309062 
L 349.3224 173.697148 
L 349.5456 178.762212 
L 349.7688 186.965873 
L 349.992 170.50957 
L 350.2152 171.388807 
L 350.4384 171.609104 
L 350.6616 184.137815 
L 350.8848 186.74534 
L 351.3312 178.949019 
L 351.5544 181.635719 
L 351.7776 179.520087 
L 352.0008 185.953478 
L 352.224 176.95023 
L 352.6704 181.603962 
L 352.8936 178.068673 
L 353.1168 179.417485 
L 353.34 177.557925 
L 353.7864 181.322021 
L 354.0096 173.223039 
L 354.6792 183.104267 
L 354.9024 179.170034 
L 355.1256 172.423821 
L 355.3488 183.72178 
L 355.572 172.62286 
L 356.0184 184.139941 
L 356.2416 175.34254 
L 356.4648 176.169613 
L 356.688 183.850789 
L 356.9112 185.685205 
L 357.1344 179.095135 
L 357.5808 193.674962 
L 358.0272 175.914841 
L 358.2504 183.16406 
L 358.4736 176.499071 
L 358.6968 175.103995 
L 358.92 184.489575 
L 359.1432 188.863861 
L 359.3664 181.568083 
L 359.8128 182.172496 
L 360.036 184.020178 
L 360.2592 181.844388 
L 360.4824 175.845462 
L 360.7056 178.601444 
L 360.9288 175.916009 
L 361.152 195.432897 
L 361.3752 181.901046 
L 361.5984 181.347914 
L 361.8216 176.255612 
L 362.268 179.870714 
L 362.4912 199.448574 
L 362.7144 196.280907 
L 363.1608 172.742773 
L 363.384 176.52836 
L 363.6072 187.471128 
L 363.8304 190.524104 
L 364.0536 178.01555 
L 364.2768 185.579193 
L 364.5 182.540285 
L 364.9464 189.915 
L 365.1696 181.046754 
L 365.3928 182.689478 
L 365.616 186.186448 
L 365.8392 184.065564 
L 366.0624 185.777861 
L 366.2856 182.623216 
L 366.5088 192.149919 
L 366.732 179.576689 
L 366.9552 184.436794 
L 367.1784 183.873757 
L 367.4016 189.235684 
L 367.6248 183.393399 
L 367.848 184.749029 
L 368.0712 187.867059 
L 368.2944 203.144906 
L 368.5176 181.911208 
L 368.7408 181.617254 
L 368.964 186.555067 
L 369.1872 177.83006 
L 369.4104 183.352185 
L 369.6336 184.607511 
L 369.8568 196.095094 
L 370.08 181.798377 
L 370.3032 191.66294 
L 370.5264 179.137922 
L 370.7496 197.042467 
L 371.196 181.9104 
L 371.4192 185.290577 
L 371.6424 183.733273 
L 371.8656 188.164597 
L 372.0888 186.024906 
L 372.312 187.902968 
L 372.5352 179.061571 
L 372.7584 174.825784 
L 372.9816 186.38725 
L 373.2048 179.000878 
L 373.428 184.262249 
L 373.6512 183.553364 
L 373.8744 187.419595 
L 374.0976 187.215385 
L 374.3208 196.384798 
L 374.544 183.018761 
L 374.7672 178.559938 
L 374.9904 185.863949 
L 375.2136 188.215989 
L 375.4368 179.014115 
L 375.66 187.836153 
L 375.8832 178.480431 
L 376.1064 180.044463 
L 376.3296 182.925639 
L 376.5528 187.79151 
L 376.776 182.342651 
L 376.9992 196.167283 
L 377.4456 178.16704 
L 377.6688 189.899555 
L 377.892 181.024062 
L 378.1152 180.994345 
L 378.3384 189.710098 
L 378.7848 178.479897 
L 379.008 183.373926 
L 379.2312 203.950463 
L 379.4544 180.639168 
L 379.6776 185.710382 
L 379.9008 182.492625 
L 380.124 186.432921 
L 380.3472 181.83013 
L 380.5704 185.520275 
L 380.7936 180.395989 
L 381.24 189.479483 
L 381.4632 190.077799 
L 381.6864 190.306013 
L 381.9096 179.847521 
L 382.1328 180.250053 
L 382.356 184.774872 
L 382.5792 186.343834 
L 382.8024 186.355554 
L 383.2488 189.3919 
L 383.472 187.492859 
L 383.6952 184.176367 
L 384.1416 181.738994 
L 384.588 186.009812 
L 384.8112 194.804814 
L 385.0344 180.185459 
L 385.2576 188.236296 
L 385.4808 184.504042 
L 385.704 188.852693 
L 385.9272 178.855398 
L 386.1504 180.175283 
L 386.3736 185.392919 
L 386.5968 185.18133 
L 386.82 184.507802 
L 387.0432 186.385307 
L 387.2664 186.992341 
L 387.4896 180.155712 
L 387.7128 182.486589 
L 387.936 177.816031 
L 388.1592 188.288539 
L 388.3824 187.269387 
L 388.6056 175.706384 
L 388.8288 185.708102 
L 389.052 186.953658 
L 389.2752 182.288526 
L 389.7216 192.119604 
L 389.9448 183.834203 
L 390.168 186.590663 
L 390.3912 186.481673 
L 390.6144 187.82288 
L 390.8376 180.117595 
L 391.0608 192.159919 
L 391.284 184.376067 
L 391.5072 181.823794 
L 391.7304 183.791046 
L 391.9536 182.653136 
L 392.1768 186.799637 
L 392.4 183.916607 
L 392.6232 185.88255 
L 392.8464 193.168863 
L 393.0696 183.870038 
L 393.2928 189.084332 
L 393.516 185.284438 
L 393.7392 187.040566 
L 393.9624 183.180028 
L 394.1856 186.236821 
L 394.4088 183.266447 
L 394.632 181.874087 
L 395.0784 191.401571 
L 395.3016 180.69622 
L 395.5248 179.9352 
L 395.748 185.893947 
L 395.9712 182.649656 
L 396.1944 189.864026 
L 396.4176 185.048191 
L 396.6408 185.49462 
L 396.864 190.720988 
L 397.3104 185.966795 
L 397.5336 202.089737 
L 397.7568 183.843237 
L 398.2032 187.30698 
L 398.4264 187.80871 
L 398.6496 184.095508 
L 398.8728 207.220315 
L 399.096 192.105253 
L 399.7656 181.795076 
L 399.9888 190.411407 
L 400.212 183.985834 
L 400.4352 189.101636 
L 400.6584 185.703491 
L 400.8816 189.015418 
L 401.1048 182.465692 
L 401.328 184.469323 
L 401.5512 185.029768 
L 401.9976 192.703614 
L 402.2208 184.77407 
L 402.6672 186.457525 
L 402.8904 189.83531 
L 403.1136 190.990824 
L 403.3368 195.109172 
L 403.56 181.990493 
L 403.7832 185.52979 
L 404.0064 181.290603 
L 404.2296 183.303401 
L 404.4528 190.715601 
L 404.8992 185.702744 
L 405.1224 186.810095 
L 405.3456 190.642399 
L 405.5688 184.442176 
L 405.792 184.072269 
L 406.0152 188.605094 
L 406.2384 185.045009 
L 406.4616 185.378796 
L 406.6848 176.848963 
L 407.1312 195.158327 
L 407.3544 182.156609 
L 407.5776 182.384025 
L 407.8008 183.027854 
L 408.024 196.974645 
L 408.4704 184.687954 
L 408.6936 185.160557 
L 409.14 191.472027 
L 409.3632 185.980595 
L 409.5864 187.478174 
L 409.8096 185.07662 
L 410.0328 197.003145 
L 410.256 185.574403 
L 410.4792 185.075908 
L 410.7024 185.834703 
L 410.9256 185.200789 
L 411.1488 182.303305 
L 411.372 184.031981 
L 411.5952 183.323404 
L 411.8184 185.392793 
L 412.0416 185.506681 
L 412.2648 199.865286 
L 412.488 189.253258 
L 412.7112 195.745046 
L 412.9344 184.914464 
L 413.1576 190.928984 
L 413.3808 191.585795 
L 413.604 191.204632 
L 413.8272 202.315327 
L 414.2736 183.124814 
L 414.4968 190.019594 
L 414.72 191.1861 
L 414.9432 188.66563 
L 414.9432 188.66563 
" clip-path="url(#p940aee1aad)" style="fill: none; stroke: #1f77b4; stroke-width: 1.5; stroke-linecap: square"/>
   </g>
   <g id="patch_3">
    <path d="M 57.6 307.584 
L 57.6 41.472 
" style="fill: none; stroke: #000000; stroke-width: 0.8; stroke-linejoin: miter; stroke-linecap: square"/>
   </g>
   <g id="patch_4">
    <path d="M 414.72 307.584 
L 414.72 41.472 
" style="fill: none; stroke: #000000; stroke-width: 0.8; stroke-linejoin: miter; stroke-linecap: square"/>
   </g>
   <g id="patch_5">
    <path d="M 57.6 307.584 
L 414.72 307.584 
" style="fill: none; stroke: #000000; stroke-width: 0.8; stroke-linejoin: miter; stroke-linecap: square"/>
   </g>
   <g id="patch_6">
    <path d="M 57.6 41.472 
L 414.72 41.472 
" style="fill: none; stroke: #000000; stroke-width: 0.8; stroke-linejoin: miter; stroke-linecap: square"/>
   </g>
  </g>
 </g>
 <defs>
  <clipPath id="p940aee1aad">
   <rect x="57.6" y="41.472" width="357.12" height="266.112"/>
  </clipPath>
 </defs>
</svg>
