<?xml version="1.0" encoding="utf-8" standalone="no"?>
<!DOCTYPE svg PUBLIC "-//W3C//DTD SVG 1.1//EN"
  "http://www.w3.org/Graphics/SVG/1.1/DTD/svg11.dtd">
<svg xmlns:xlink="http://www.w3.org/1999/xlink" width="460.8pt" height="345.6pt" viewBox="0 0 460.8 345.6" xmlns="http://www.w3.org/2000/svg" version="1.1">
 <metadata>
  <rdf:RDF xmlns:dc="http://purl.org/dc/elements/1.1/" xmlns:cc="http://creativecommons.org/ns#" xmlns:rdf="http://www.w3.org/1999/02/22-rdf-syntax-ns#">
   <cc:Work>
    <dc:type rdf:resource="http://purl.org/dc/dcmitype/StillImage"/>
    <dc:date>2024-05-29T17:16:19.452171</dc:date>
    <dc:format>image/svg+xml</dc:format>
    <dc:creator>
     <cc:Agent>
      <dc:title>Matplotlib v3.8.2, https://matplotlib.org/</dc:title>
     </cc:Agent>
    </dc:creator>
   </cc:Work>
  </rdf:RDF>
 </metadata>
 <defs>
  <style type="text/css">*{stroke-linejoin: round; stroke-linecap: butt}</style>
 </defs>
 <g id="figure_1">
  <g id="patch_1">
   <path d="M 0 345.6 
L 460.8 345.6 
L 460.8 0 
L 0 0 
z
" style="fill: #ffffff"/>
  </g>
  <g id="axes_1">
   <g id="patch_2">
    <path d="M 57.6 307.584 
L 414.72 307.584 
L 414.72 41.472 
L 57.6 41.472 
z
" style="fill: #ffffff"/>
   </g>
   <g id="matplotlib.axis_1">
    <g id="xtick_1">
     <g id="line2d_1">
      <defs>
       <path id="mebf8280d76" d="M 0 0 
L 0 3.5 
" style="stroke: #000000; stroke-width: 0.8"/>
      </defs>
      <g>
       <use xlink:href="#mebf8280d76" x="73.832727" y="307.584" style="stroke: #000000; stroke-width: 0.8"/>
      </g>
     </g>
     <g id="text_1">
      <!-- 0 -->
      <g transform="translate(70.651477 322.182437) scale(0.1 -0.1)">
       <defs>
        <path id="DejaVuSans-30" d="M 2034 4250 
Q 1547 4250 1301 3770 
Q 1056 3291 1056 2328 
Q 1056 1369 1301 889 
Q 1547 409 2034 409 
Q 2525 409 2770 889 
Q 3016 1369 3016 2328 
Q 3016 3291 2770 3770 
Q 2525 4250 2034 4250 
z
M 2034 4750 
Q 2819 4750 3233 4129 
Q 3647 3509 3647 2328 
Q 3647 1150 3233 529 
Q 2819 -91 2034 -91 
Q 1250 -91 836 529 
Q 422 1150 422 2328 
Q 422 3509 836 4129 
Q 1250 4750 2034 4750 
z
" transform="scale(0.015625)"/>
       </defs>
       <use xlink:href="#DejaVuSans-30"/>
      </g>
     </g>
    </g>
    <g id="xtick_2">
     <g id="line2d_2">
      <g>
       <use xlink:href="#mebf8280d76" x="114.414545" y="307.584" style="stroke: #000000; stroke-width: 0.8"/>
      </g>
     </g>
     <g id="text_2">
      <!-- 5 -->
      <g transform="translate(111.233295 322.182437) scale(0.1 -0.1)">
       <defs>
        <path id="DejaVuSans-35" d="M 691 4666 
L 3169 4666 
L 3169 4134 
L 1269 4134 
L 1269 2991 
Q 1406 3038 1543 3061 
Q 1681 3084 1819 3084 
Q 2600 3084 3056 2656 
Q 3513 2228 3513 1497 
Q 3513 744 3044 326 
Q 2575 -91 1722 -91 
Q 1428 -91 1123 -41 
Q 819 9 494 109 
L 494 744 
Q 775 591 1075 516 
Q 1375 441 1709 441 
Q 2250 441 2565 725 
Q 2881 1009 2881 1497 
Q 2881 1984 2565 2268 
Q 2250 2553 1709 2553 
Q 1456 2553 1204 2497 
Q 953 2441 691 2322 
L 691 4666 
z
" transform="scale(0.015625)"/>
       </defs>
       <use xlink:href="#DejaVuSans-35"/>
      </g>
     </g>
    </g>
    <g id="xtick_3">
     <g id="line2d_3">
      <g>
       <use xlink:href="#mebf8280d76" x="154.996364" y="307.584" style="stroke: #000000; stroke-width: 0.8"/>
      </g>
     </g>
     <g id="text_3">
      <!-- 10 -->
      <g transform="translate(148.633864 322.182437) scale(0.1 -0.1)">
       <defs>
        <path id="DejaVuSans-31" d="M 794 531 
L 1825 531 
L 1825 4091 
L 703 3866 
L 703 4441 
L 1819 4666 
L 2450 4666 
L 2450 531 
L 3481 531 
L 3481 0 
L 794 0 
L 794 531 
z
" transform="scale(0.015625)"/>
       </defs>
       <use xlink:href="#DejaVuSans-31"/>
       <use xlink:href="#DejaVuSans-30" x="63.623047"/>
      </g>
     </g>
    </g>
    <g id="xtick_4">
     <g id="line2d_4">
      <g>
       <use xlink:href="#mebf8280d76" x="195.578182" y="307.584" style="stroke: #000000; stroke-width: 0.8"/>
      </g>
     </g>
     <g id="text_4">
      <!-- 15 -->
      <g transform="translate(189.215682 322.182437) scale(0.1 -0.1)">
       <use xlink:href="#DejaVuSans-31"/>
       <use xlink:href="#DejaVuSans-35" x="63.623047"/>
      </g>
     </g>
    </g>
    <g id="xtick_5">
     <g id="line2d_5">
      <g>
       <use xlink:href="#mebf8280d76" x="236.16" y="307.584" style="stroke: #000000; stroke-width: 0.8"/>
      </g>
     </g>
     <g id="text_5">
      <!-- 20 -->
      <g transform="translate(229.7975 322.182437) scale(0.1 -0.1)">
       <defs>
        <path id="DejaVuSans-32" d="M 1228 531 
L 3431 531 
L 3431 0 
L 469 0 
L 469 531 
Q 828 903 1448 1529 
Q 2069 2156 2228 2338 
Q 2531 2678 2651 2914 
Q 2772 3150 2772 3378 
Q 2772 3750 2511 3984 
Q 2250 4219 1831 4219 
Q 1534 4219 1204 4116 
Q 875 4013 500 3803 
L 500 4441 
Q 881 4594 1212 4672 
Q 1544 4750 1819 4750 
Q 2544 4750 2975 4387 
Q 3406 4025 3406 3419 
Q 3406 3131 3298 2873 
Q 3191 2616 2906 2266 
Q 2828 2175 2409 1742 
Q 1991 1309 1228 531 
z
" transform="scale(0.015625)"/>
       </defs>
       <use xlink:href="#DejaVuSans-32"/>
       <use xlink:href="#DejaVuSans-30" x="63.623047"/>
      </g>
     </g>
    </g>
    <g id="xtick_6">
     <g id="line2d_6">
      <g>
       <use xlink:href="#mebf8280d76" x="276.741818" y="307.584" style="stroke: #000000; stroke-width: 0.8"/>
      </g>
     </g>
     <g id="text_6">
      <!-- 25 -->
      <g transform="translate(270.379318 322.182437) scale(0.1 -0.1)">
       <use xlink:href="#DejaVuSans-32"/>
       <use xlink:href="#DejaVuSans-35" x="63.623047"/>
      </g>
     </g>
    </g>
    <g id="xtick_7">
     <g id="line2d_7">
      <g>
       <use xlink:href="#mebf8280d76" x="317.323636" y="307.584" style="stroke: #000000; stroke-width: 0.8"/>
      </g>
     </g>
     <g id="text_7">
      <!-- 30 -->
      <g transform="translate(310.961136 322.182437) scale(0.1 -0.1)">
       <defs>
        <path id="DejaVuSans-33" d="M 2597 2516 
Q 3050 2419 3304 2112 
Q 3559 1806 3559 1356 
Q 3559 666 3084 287 
Q 2609 -91 1734 -91 
Q 1441 -91 1130 -33 
Q 819 25 488 141 
L 488 750 
Q 750 597 1062 519 
Q 1375 441 1716 441 
Q 2309 441 2620 675 
Q 2931 909 2931 1356 
Q 2931 1769 2642 2001 
Q 2353 2234 1838 2234 
L 1294 2234 
L 1294 2753 
L 1863 2753 
Q 2328 2753 2575 2939 
Q 2822 3125 2822 3475 
Q 2822 3834 2567 4026 
Q 2313 4219 1838 4219 
Q 1578 4219 1281 4162 
Q 984 4106 628 3988 
L 628 4550 
Q 988 4650 1302 4700 
Q 1616 4750 1894 4750 
Q 2613 4750 3031 4423 
Q 3450 4097 3450 3541 
Q 3450 3153 3228 2886 
Q 3006 2619 2597 2516 
z
" transform="scale(0.015625)"/>
       </defs>
       <use xlink:href="#DejaVuSans-33"/>
       <use xlink:href="#DejaVuSans-30" x="63.623047"/>
      </g>
     </g>
    </g>
    <g id="xtick_8">
     <g id="line2d_8">
      <g>
       <use xlink:href="#mebf8280d76" x="357.905455" y="307.584" style="stroke: #000000; stroke-width: 0.8"/>
      </g>
     </g>
     <g id="text_8">
      <!-- 35 -->
      <g transform="translate(351.542955 322.182437) scale(0.1 -0.1)">
       <use xlink:href="#DejaVuSans-33"/>
       <use xlink:href="#DejaVuSans-35" x="63.623047"/>
      </g>
     </g>
    </g>
    <g id="xtick_9">
     <g id="line2d_9">
      <g>
       <use xlink:href="#mebf8280d76" x="398.487273" y="307.584" style="stroke: #000000; stroke-width: 0.8"/>
      </g>
     </g>
     <g id="text_9">
      <!-- 40 -->
      <g transform="translate(392.124773 322.182437) scale(0.1 -0.1)">
       <defs>
        <path id="DejaVuSans-34" d="M 2419 4116 
L 825 1625 
L 2419 1625 
L 2419 4116 
z
M 2253 4666 
L 3047 4666 
L 3047 1625 
L 3713 1625 
L 3713 1100 
L 3047 1100 
L 3047 0 
L 2419 0 
L 2419 1100 
L 313 1100 
L 313 1709 
L 2253 4666 
z
" transform="scale(0.015625)"/>
       </defs>
       <use xlink:href="#DejaVuSans-34"/>
       <use xlink:href="#DejaVuSans-30" x="63.623047"/>
      </g>
     </g>
    </g>
    <g id="text_10">
     <!-- Time [$s$] -->
     <g transform="translate(215.66 335.860562) scale(0.1 -0.1)">
      <defs>
       <path id="DejaVuSans-54" d="M -19 4666 
L 3928 4666 
L 3928 4134 
L 2272 4134 
L 2272 0 
L 1638 0 
L 1638 4134 
L -19 4134 
L -19 4666 
z
" transform="scale(0.015625)"/>
       <path id="DejaVuSans-69" d="M 603 3500 
L 1178 3500 
L 1178 0 
L 603 0 
L 603 3500 
z
M 603 4863 
L 1178 4863 
L 1178 4134 
L 603 4134 
L 603 4863 
z
" transform="scale(0.015625)"/>
       <path id="DejaVuSans-6d" d="M 3328 2828 
Q 3544 3216 3844 3400 
Q 4144 3584 4550 3584 
Q 5097 3584 5394 3201 
Q 5691 2819 5691 2113 
L 5691 0 
L 5113 0 
L 5113 2094 
Q 5113 2597 4934 2840 
Q 4756 3084 4391 3084 
Q 3944 3084 3684 2787 
Q 3425 2491 3425 1978 
L 3425 0 
L 2847 0 
L 2847 2094 
Q 2847 2600 2669 2842 
Q 2491 3084 2119 3084 
Q 1678 3084 1418 2786 
Q 1159 2488 1159 1978 
L 1159 0 
L 581 0 
L 581 3500 
L 1159 3500 
L 1159 2956 
Q 1356 3278 1631 3431 
Q 1906 3584 2284 3584 
Q 2666 3584 2933 3390 
Q 3200 3197 3328 2828 
z
" transform="scale(0.015625)"/>
       <path id="DejaVuSans-65" d="M 3597 1894 
L 3597 1613 
L 953 1613 
Q 991 1019 1311 708 
Q 1631 397 2203 397 
Q 2534 397 2845 478 
Q 3156 559 3463 722 
L 3463 178 
Q 3153 47 2828 -22 
Q 2503 -91 2169 -91 
Q 1331 -91 842 396 
Q 353 884 353 1716 
Q 353 2575 817 3079 
Q 1281 3584 2069 3584 
Q 2775 3584 3186 3129 
Q 3597 2675 3597 1894 
z
M 3022 2063 
Q 3016 2534 2758 2815 
Q 2500 3097 2075 3097 
Q 1594 3097 1305 2825 
Q 1016 2553 972 2059 
L 3022 2063 
z
" transform="scale(0.015625)"/>
       <path id="DejaVuSans-20" transform="scale(0.015625)"/>
       <path id="DejaVuSans-5b" d="M 550 4863 
L 1875 4863 
L 1875 4416 
L 1125 4416 
L 1125 -397 
L 1875 -397 
L 1875 -844 
L 550 -844 
L 550 4863 
z
" transform="scale(0.015625)"/>
       <path id="DejaVuSans-Oblique-73" d="M 3200 3397 
L 3091 2853 
Q 2863 2978 2609 3040 
Q 2356 3103 2088 3103 
Q 1634 3103 1373 2948 
Q 1113 2794 1113 2528 
Q 1113 2219 1719 2053 
Q 1766 2041 1788 2034 
L 1972 1978 
Q 2547 1819 2739 1644 
Q 2931 1469 2931 1166 
Q 2931 609 2489 259 
Q 2047 -91 1331 -91 
Q 1053 -91 747 -37 
Q 441 16 72 128 
L 184 722 
Q 500 559 806 475 
Q 1113 391 1394 391 
Q 1816 391 2080 572 
Q 2344 753 2344 1031 
Q 2344 1331 1650 1516 
L 1591 1531 
L 1394 1581 
Q 956 1697 753 1886 
Q 550 2075 550 2369 
Q 550 2928 970 3256 
Q 1391 3584 2113 3584 
Q 2397 3584 2667 3537 
Q 2938 3491 3200 3397 
z
" transform="scale(0.015625)"/>
       <path id="DejaVuSans-5d" d="M 1947 4863 
L 1947 -844 
L 622 -844 
L 622 -397 
L 1369 -397 
L 1369 4416 
L 622 4416 
L 622 4863 
L 1947 4863 
z
" transform="scale(0.015625)"/>
      </defs>
      <use xlink:href="#DejaVuSans-54" transform="translate(0 0.015625)"/>
      <use xlink:href="#DejaVuSans-69" transform="translate(61.083984 0.015625)"/>
      <use xlink:href="#DejaVuSans-6d" transform="translate(88.867188 0.015625)"/>
      <use xlink:href="#DejaVuSans-65" transform="translate(186.279297 0.015625)"/>
      <use xlink:href="#DejaVuSans-20" transform="translate(247.802734 0.015625)"/>
      <use xlink:href="#DejaVuSans-5b" transform="translate(279.589844 0.015625)"/>
      <use xlink:href="#DejaVuSans-Oblique-73" transform="translate(318.603516 0.015625)"/>
      <use xlink:href="#DejaVuSans-5d" transform="translate(370.703125 0.015625)"/>
     </g>
    </g>
   </g>
   <g id="matplotlib.axis_2">
    <g id="ytick_1">
     <g id="line2d_10">
      <defs>
       <path id="m8204349a10" d="M 0 0 
L -3.5 0 
" style="stroke: #000000; stroke-width: 0.8"/>
      </defs>
      <g>
       <use xlink:href="#m8204349a10" x="57.6" y="294.417" style="stroke: #000000; stroke-width: 0.8"/>
      </g>
     </g>
     <g id="text_11">
      <!-- −40 -->
      <g transform="translate(29.495313 298.216219) scale(0.1 -0.1)">
       <defs>
        <path id="DejaVuSans-2212" d="M 678 2272 
L 4684 2272 
L 4684 1741 
L 678 1741 
L 678 2272 
z
" transform="scale(0.015625)"/>
       </defs>
       <use xlink:href="#DejaVuSans-2212"/>
       <use xlink:href="#DejaVuSans-34" x="83.789062"/>
       <use xlink:href="#DejaVuSans-30" x="147.412109"/>
      </g>
     </g>
    </g>
    <g id="ytick_2">
     <g id="line2d_11">
      <g>
       <use xlink:href="#m8204349a10" x="57.6" y="262.161" style="stroke: #000000; stroke-width: 0.8"/>
      </g>
     </g>
     <g id="text_12">
      <!-- −30 -->
      <g transform="translate(29.495313 265.960219) scale(0.1 -0.1)">
       <use xlink:href="#DejaVuSans-2212"/>
       <use xlink:href="#DejaVuSans-33" x="83.789062"/>
       <use xlink:href="#DejaVuSans-30" x="147.412109"/>
      </g>
     </g>
    </g>
    <g id="ytick_3">
     <g id="line2d_12">
      <g>
       <use xlink:href="#m8204349a10" x="57.6" y="229.905" style="stroke: #000000; stroke-width: 0.8"/>
      </g>
     </g>
     <g id="text_13">
      <!-- −20 -->
      <g transform="translate(29.495313 233.704219) scale(0.1 -0.1)">
       <use xlink:href="#DejaVuSans-2212"/>
       <use xlink:href="#DejaVuSans-32" x="83.789062"/>
       <use xlink:href="#DejaVuSans-30" x="147.412109"/>
      </g>
     </g>
    </g>
    <g id="ytick_4">
     <g id="line2d_13">
      <g>
       <use xlink:href="#m8204349a10" x="57.6" y="197.649" style="stroke: #000000; stroke-width: 0.8"/>
      </g>
     </g>
     <g id="text_14">
      <!-- −10 -->
      <g transform="translate(29.495313 201.448219) scale(0.1 -0.1)">
       <use xlink:href="#DejaVuSans-2212"/>
       <use xlink:href="#DejaVuSans-31" x="83.789062"/>
       <use xlink:href="#DejaVuSans-30" x="147.412109"/>
      </g>
     </g>
    </g>
    <g id="ytick_5">
     <g id="line2d_14">
      <g>
       <use xlink:href="#m8204349a10" x="57.6" y="165.393" style="stroke: #000000; stroke-width: 0.8"/>
      </g>
     </g>
     <g id="text_15">
      <!-- 0 -->
      <g transform="translate(44.2375 169.192219) scale(0.1 -0.1)">
       <use xlink:href="#DejaVuSans-30"/>
      </g>
     </g>
    </g>
    <g id="ytick_6">
     <g id="line2d_15">
      <g>
       <use xlink:href="#m8204349a10" x="57.6" y="133.137" style="stroke: #000000; stroke-width: 0.8"/>
      </g>
     </g>
     <g id="text_16">
      <!-- 10 -->
      <g transform="translate(37.875 136.936219) scale(0.1 -0.1)">
       <use xlink:href="#DejaVuSans-31"/>
       <use xlink:href="#DejaVuSans-30" x="63.623047"/>
      </g>
     </g>
    </g>
    <g id="ytick_7">
     <g id="line2d_16">
      <g>
       <use xlink:href="#m8204349a10" x="57.6" y="100.881" style="stroke: #000000; stroke-width: 0.8"/>
      </g>
     </g>
     <g id="text_17">
      <!-- 20 -->
      <g transform="translate(37.875 104.680219) scale(0.1 -0.1)">
       <use xlink:href="#DejaVuSans-32"/>
       <use xlink:href="#DejaVuSans-30" x="63.623047"/>
      </g>
     </g>
    </g>
    <g id="ytick_8">
     <g id="line2d_17">
      <g>
       <use xlink:href="#m8204349a10" x="57.6" y="68.625" style="stroke: #000000; stroke-width: 0.8"/>
      </g>
     </g>
     <g id="text_18">
      <!-- 30 -->
      <g transform="translate(37.875 72.424219) scale(0.1 -0.1)">
       <use xlink:href="#DejaVuSans-33"/>
       <use xlink:href="#DejaVuSans-30" x="63.623047"/>
      </g>
     </g>
    </g>
    <g id="text_19">
     <!-- ? -->
     <g transform="translate(23.415625 177.181906) rotate(-90) scale(0.1 -0.1)">
      <defs>
       <path id="DejaVuSans-3f" d="M 1222 794 
L 1856 794 
L 1856 0 
L 1222 0 
L 1222 794 
z
M 1838 1253 
L 1241 1253 
L 1241 1734 
Q 1241 2050 1328 2253 
Q 1416 2456 1697 2725 
L 1978 3003 
Q 2156 3169 2236 3316 
Q 2316 3463 2316 3616 
Q 2316 3894 2111 4066 
Q 1906 4238 1569 4238 
Q 1322 4238 1042 4128 
Q 763 4019 459 3809 
L 459 4397 
Q 753 4575 1054 4662 
Q 1356 4750 1678 4750 
Q 2253 4750 2601 4447 
Q 2950 4144 2950 3647 
Q 2950 3409 2837 3195 
Q 2725 2981 2444 2713 
L 2169 2444 
Q 2022 2297 1961 2214 
Q 1900 2131 1875 2053 
Q 1856 1988 1847 1894 
Q 1838 1800 1838 1638 
L 1838 1253 
z
" transform="scale(0.015625)"/>
      </defs>
      <use xlink:href="#DejaVuSans-3f"/>
     </g>
    </g>
   </g>
   <g id="line2d_18">
    <path d="M 73.832727 149.328 
L 74.319831 144.918 
L 74.806934 141.453 
L 74.888118 141.453 
L 75.375222 138.303 
L 76.268245 135.153 
L 76.430613 135.153 
L 76.674165 136.413 
L 76.917717 138.303 
L 77.080085 139.248 
L 77.486004 143.028 
L 78.297844 151.533 
L 78.379027 151.533 
L 78.784947 154.053 
L 79.434419 156.258 
L 79.67797 156.258 
L 80.002706 157.833 
L 80.570994 162.873 
L 81.545201 175.473 
L 82.113488 183.348 
L 82.35704 184.608 
L 82.519408 186.498 
L 83.006512 197.838 
L 83.331247 203.508 
L 83.574799 204.768 
L 83.980719 208.233 
L 84.061903 208.548 
L 84.467822 212.013 
L 84.711374 213.273 
L 84.873742 213.588 
L 85.279662 213.588 
L 85.929133 210.753 
L 86.253869 207.918 
L 86.659789 206.028 
L 87.065708 203.508 
L 89.17649 195.318 
L 89.338858 195.633 
L 89.420042 195.633 
L 89.58241 195.948 
L 89.663594 195.948 
L 89.825962 195.633 
L 89.907146 195.633 
L 90.069514 195.948 
L 90.394249 195.948 
L 90.881353 197.523 
L 90.962537 197.523 
L 91.449641 195.948 
L 91.530825 195.948 
L 91.85556 194.373 
L 92.180296 191.538 
L 92.26148 192.168 
L 92.505032 189.648 
L 93.154503 187.443 
L 93.235687 187.443 
L 93.641607 186.183 
L 93.722791 186.183 
L 93.885159 185.868 
L 94.047526 185.868 
L 94.453446 184.608 
L 94.53463 184.608 
L 94.94055 182.718 
L 95.184101 181.458 
L 95.346469 181.143 
L 95.508837 181.143 
L 95.671205 181.458 
L 95.752389 181.458 
L 95.995941 180.828 
L 96.564228 180.828 
L 97.051332 182.403 
L 97.294884 181.773 
L 97.376068 181.773 
L 97.700803 180.828 
L 97.781987 180.828 
L 98.350275 178.308 
L 98.756195 175.788 
L 98.999746 174.843 
L 99.08093 175.158 
L 99.243298 174.528 
L 99.324482 174.528 
L 99.649218 173.583 
L 99.730402 173.583 
L 99.89277 173.268 
L 100.055137 173.583 
L 100.298689 173.583 
L 100.461057 173.268 
L 100.704609 173.268 
L 100.866977 172.638 
L 101.35408 171.063 
L 101.435264 171.063 
L 101.516448 171.378 
L 102.084736 169.488 
L 102.16592 169.488 
L 102.328288 168.543 
L 102.490655 167.913 
L 102.977759 165.708 
L 103.221311 163.503 
L 103.302495 161.928 
L 103.383679 162.873 
L 103.62723 159.408 
L 104.114334 153.423 
L 105.250909 141.453 
L 106.71222 136.098 
L 106.793404 136.098 
L 107.036956 137.358 
L 108.335899 153.423 
L 109.066554 166.023 
L 109.716025 172.638 
L 110.365497 175.473 
L 110.933784 179.253 
L 111.014968 179.253 
L 111.096152 179.568 
L 111.177336 179.253 
L 111.339704 179.568 
L 111.583256 179.568 
L 111.907992 177.993 
L 112.313911 175.473 
L 112.557463 174.528 
L 113.53167 164.448 
L 113.775222 161.928 
L 114.505877 152.163 
L 115.398901 136.728 
L 115.967188 127.593 
L 117.022579 112.788 
L 117.753235 105.543 
L 118.07797 103.653 
L 118.402706 102.393 
L 118.565074 100.188 
L 118.646258 97.983 
L 118.727442 98.928 
L 118.970994 95.148 
L 119.945201 86.958 
L 121.000592 75.618 
L 121.325328 74.673 
L 121.650063 74.673 
L 122.299535 72.468 
L 122.624271 72.468 
L 122.867822 73.098 
L 123.111374 73.098 
L 123.192558 72.783 
L 123.43611 74.043 
L 123.598478 74.988 
L 124.004397 74.988 
L 124.329133 76.563 
L 124.572685 77.823 
L 124.653869 77.823 
L 125.140973 79.398 
L 125.222156 79.398 
L 125.952812 82.548 
L 126.358732 86.328 
L 127.089387 95.148 
L 127.170571 97.668 
L 127.251755 96.408 
L 127.495307 101.133 
L 129.037801 123.498 
L 130.174376 135.468 
L 130.742664 139.248 
L 131.0674 140.823 
L 131.148584 141.453 
L 131.229767 143.028 
L 131.310951 142.398 
L 131.554503 145.863 
L 132.041607 150.273 
L 132.366342 153.423 
L 133.421734 166.653 
L 133.746469 171.693 
L 134.639493 177.993 
L 134.883044 179.253 
L 135.20778 181.143 
L 135.6137 182.403 
L 135.694884 182.403 
L 136.263171 184.608 
L 136.912643 190.908 
L 137.318562 194.688 
L 137.724482 198.468 
L 137.805666 198.153 
L 138.211586 201.618 
L 138.373953 203.508 
L 138.779873 209.178 
L 138.861057 212.013 
L 138.942241 210.753 
L 139.104609 215.478 
L 139.185793 214.533 
L 139.510529 220.518 
L 139.997632 228.708 
L 140.647104 234.378 
L 140.728288 227.133 
L 140.890655 235.638 
L 141.134207 236.898 
L 141.296575 237.843 
L 141.458943 240.048 
L 141.540127 238.473 
L 141.783679 243.513 
L 141.864863 242.253 
L 142.189598 247.293 
L 142.676702 253.593 
L 142.757886 256.113 
L 142.83907 254.853 
L 143.082622 259.263 
L 143.407357 264.303 
L 143.488541 262.413 
L 143.650909 265.563 
L 143.975645 267.453 
L 144.056829 267.453 
L 144.219197 267.768 
L 144.381564 267.768 
L 145.436956 271.863 
L 145.51814 270.918 
L 145.924059 274.383 
L 146.005243 273.753 
L 146.167611 275.328 
L 146.329979 275.643 
L 146.411163 275.643 
L 146.898266 273.438 
L 147.38537 269.028 
L 148.765497 254.223 
L 149.2526 250.758 
L 149.333784 251.073 
L 149.902072 245.718 
L 150.226808 242.568 
L 150.795095 235.008 
L 150.957463 231.543 
L 151.038647 228.078 
L 151.119831 229.968 
L 151.363383 222.408 
L 152.662326 194.688 
L 153.798901 170.748 
L 155.097844 142.713 
L 155.422579 137.358 
L 155.503763 138.303 
L 155.828499 133.263 
L 156.396786 127.593 
L 156.802706 125.703 
L 156.88389 125.073 
L 156.965074 125.388 
L 157.127442 124.758 
L 157.370994 124.758 
L 157.695729 126.333 
L 157.858097 127.908 
L 159.806512 156.573 
L 160.050063 159.093 
L 160.699535 165.708 
L 160.780719 165.708 
L 160.861903 166.023 
L 160.943087 165.078 
L 161.105455 166.023 
L 161.186638 165.708 
L 161.349006 166.023 
L 161.43019 166.023 
L 161.754926 166.968 
L 161.83611 166.968 
L 162.24203 168.228 
L 162.323214 168.228 
L 162.566765 168.858 
L 162.647949 168.858 
L 162.972685 169.803 
L 163.053869 169.803 
L 163.378605 170.748 
L 163.459789 170.748 
L 163.946892 172.953 
L 164.190444 175.473 
L 164.677548 179.883 
L 165.083467 183.348 
L 165.651755 190.593 
L 165.732939 191.223 
L 165.814123 188.388 
L 165.97649 192.168 
L 166.544778 194.058 
L 166.625962 193.428 
L 166.707146 193.743 
L 167.600169 190.593 
L 167.681353 190.593 
L 167.843721 189.648 
L 168.412008 185.868 
L 168.65556 185.238 
L 168.736744 185.238 
L 168.817928 185.553 
L 169.142664 184.608 
L 169.223848 184.608 
L 169.386216 183.978 
L 169.792135 182.718 
L 169.954503 183.348 
L 170.035687 182.718 
L 170.279239 184.608 
L 171.009894 187.128 
L 171.091078 187.128 
L 171.253446 188.073 
L 171.33463 187.758 
L 171.578182 189.333 
L 171.74055 189.333 
L 172.065285 187.758 
L 172.146469 186.813 
L 172.227653 187.443 
L 172.471205 184.923 
L 172.552389 185.553 
L 172.633573 183.348 
L 172.714757 184.293 
L 172.958309 180.513 
L 173.445412 175.788 
L 174.500803 172.008 
L 174.581987 172.008 
L 174.744355 171.693 
L 174.825539 171.693 
L 175.231459 170.433 
L 175.312643 170.433 
L 176.043298 167.913 
L 176.205666 167.913 
L 176.530402 168.858 
L 176.773953 168.858 
L 177.017505 169.488 
L 177.098689 169.488 
L 177.261057 170.118 
L 177.991712 172.638 
L 178.641184 172.638 
L 178.803552 172.008 
L 179.534207 169.488 
L 179.615391 169.488 
L 179.696575 169.173 
L 179.858943 169.488 
L 179.940127 169.488 
L 180.102495 169.803 
L 180.346047 169.803 
L 180.83315 167.598 
L 180.914334 168.228 
L 181.157886 166.023 
L 181.320254 165.078 
L 182.294461 157.833 
L 182.700381 157.833 
L 182.781564 157.518 
L 182.862748 157.833 
L 183.268668 155.943 
L 183.593404 154.053 
L 183.674588 153.738 
L 184.080507 150.273 
L 184.486427 146.493 
L 184.567611 145.233 
L 184.648795 145.863 
L 184.892347 143.028 
L 185.866554 132.948 
L 185.947738 132.948 
L 186.272474 132.003 
L 186.353658 132.003 
L 186.516025 131.688 
L 186.678393 131.688 
L 187.084313 133.578 
L 187.409049 136.728 
L 187.733784 141.453 
L 188.302072 150.588 
L 188.707992 155.628 
L 189.113911 159.408 
L 189.519831 164.133 
L 189.925751 166.653 
L 190.169302 167.283 
L 190.250486 167.283 
L 190.33167 167.598 
L 190.412854 167.283 
L 190.494038 167.598 
L 190.981142 166.023 
L 191.062326 166.023 
L 192.036533 170.118 
L 192.523636 173.268 
L 192.767188 174.213 
L 193.173108 177.678 
L 193.741395 181.458 
L 194.147315 183.348 
L 194.390867 185.238 
L 194.553235 185.553 
L 194.715603 185.553 
L 194.796786 185.868 
L 194.959154 185.553 
L 195.121522 185.553 
L 195.446258 183.978 
L 196.420465 177.048 
L 196.745201 177.048 
L 196.907569 176.733 
L 197.069937 176.733 
L 197.232304 176.418 
L 197.313488 176.418 
L 197.394672 176.103 
L 197.475856 176.418 
L 197.638224 176.103 
L 197.719408 176.418 
L 197.881776 176.103 
L 197.96296 176.103 
L 198.287696 177.048 
L 198.531247 177.048 
L 198.774799 177.678 
L 198.855983 177.678 
L 198.937167 177.993 
L 199.099535 177.678 
L 199.424271 178.623 
L 199.505455 178.623 
L 199.667822 178.938 
L 199.992558 177.993 
L 200.073742 177.993 
L 200.723214 175.158 
L 201.210317 172.008 
L 201.372685 172.008 
L 201.535053 171.693 
L 201.616237 171.693 
L 201.778605 171.378 
L 202.10334 171.378 
L 202.265708 171.063 
L 202.671628 171.063 
L 202.833996 170.748 
L 202.996364 171.063 
L 203.077548 171.063 
L 203.321099 172.638 
L 203.483467 172.638 
L 204.214123 175.788 
L 204.538858 178.308 
L 204.863594 179.253 
L 205.431882 177.048 
L 206.000169 169.173 
L 206.487273 163.188 
L 206.730825 160.668 
L 207.46148 153.423 
L 208.192135 148.383 
L 208.354503 148.068 
L 208.679239 148.068 
L 208.841607 147.753 
L 209.003975 147.753 
L 209.166342 148.068 
L 209.409894 148.068 
L 209.572262 147.753 
L 209.73463 147.753 
L 209.978182 148.383 
L 210.221734 148.383 
L 210.384101 148.698 
L 210.465285 148.698 
L 210.790021 147.753 
L 210.871205 147.753 
L 211.195941 146.178 
L 211.439493 144.918 
L 211.520677 144.918 
L 211.60186 144.603 
L 212.494884 147.753 
L 212.576068 147.753 
L 213.063171 149.328 
L 213.144355 149.328 
L 213.469091 150.273 
L 213.550275 150.273 
L 213.712643 150.903 
L 213.793827 150.588 
L 214.037378 151.218 
L 214.118562 151.218 
L 214.362114 150.273 
L 214.930402 144.918 
L 215.09277 143.343 
L 215.579873 137.358 
L 216.148161 129.483 
L 216.55408 121.923 
L 217.041184 117.513 
L 218.015391 110.583 
L 218.340127 109.008 
L 218.583679 107.748 
L 218.664863 108.063 
L 219.070782 106.803 
L 219.314334 106.803 
L 219.476702 106.173 
L 219.801438 103.653 
L 219.963805 102.708 
L 220.044989 102.078 
L 220.126173 102.393 
L 220.450909 99.873 
L 220.532093 99.873 
L 220.775645 99.243 
L 220.856829 99.243 
L 221.019197 98.928 
L 221.100381 98.928 
L 221.343932 97.668 
L 222.074588 92.628 
L 222.886427 89.793 
L 223.129979 89.793 
L 223.292347 89.478 
L 223.454715 89.793 
L 223.535899 89.793 
L 224.18537 95.463 
L 224.510106 99.558 
L 224.916025 101.448 
L 225.321945 104.913 
L 225.727865 107.433 
L 225.971416 108.693 
L 226.0526 108.378 
L 226.133784 108.378 
L 226.214968 108.693 
L 226.783256 106.488 
L 226.945624 106.803 
L 227.026808 106.803 
L 227.270359 107.433 
L 227.351543 107.433 
L 227.595095 108.693 
L 227.838647 109.953 
L 228.569302 114.993 
L 228.812854 116.253 
L 229.949429 128.223 
L 230.030613 128.223 
L 230.680085 132.633 
L 230.842452 133.578 
L 231.41074 137.358 
L 231.979027 139.878 
L 232.222579 142.083 
L 234.008626 168.228 
L 235.388753 183.663 
L 235.469937 183.663 
L 235.713488 183.033 
L 235.875856 183.348 
L 236.038224 183.348 
L 236.606512 179.568 
L 236.931247 177.993 
L 237.580719 173.268 
L 237.743087 173.268 
L 237.905455 172.953 
L 238.63611 176.103 
L 239.691501 187.128 
L 239.935053 189.648 
L 241.071628 203.823 
L 242.045835 224.613 
L 243.263594 255.483 
L 243.58833 257.373 
L 244.237801 257.373 
L 244.887273 254.538 
L 245.293192 252.018 
L 245.86148 249.498 
L 245.942664 248.238 
L 246.023848 248.868 
L 246.2674 246.663 
L 246.754503 245.088 
L 246.916871 246.033 
L 247.079239 249.183 
L 247.160423 253.908 
L 247.241607 251.703 
L 247.485159 260.838 
L 248.702918 292.023 
L 249.190021 295.173 
L 249.271205 295.173 
L 249.433573 295.488 
L 250.083044 292.653 
L 250.326596 291.393 
L 250.40778 291.393 
L 250.732516 289.818 
L 251.057252 287.928 
L 251.381987 286.668 
L 251.463171 285.723 
L 251.544355 286.038 
L 251.869091 284.148 
L 252.275011 282.258 
L 252.762114 279.108 
L 252.924482 278.163 
L 253.49277 274.383 
L 253.655137 273.438 
L 254.385793 268.398 
L 254.629345 267.138 
L 254.95408 264.618 
L 255.928288 256.428 
L 256.009471 254.223 
L 256.090655 255.483 
L 256.334207 251.073 
L 257.714334 236.268 
L 258.363805 231.858 
L 258.769725 229.968 
L 259.662748 223.668 
L 260.31222 220.833 
L 261.124059 213.903 
L 262.017082 202.563 
L 262.423002 193.428 
L 263.478393 163.188 
L 265.26444 130.428 
L 265.507992 129.168 
L 265.589175 129.168 
L 265.751543 128.223 
L 266.238647 125.073 
L 266.401015 124.128 
L 266.969302 120.348 
L 267.294038 118.773 
L 268.187061 111.213 
L 269.080085 102.078 
L 270.21666 92.628 
L 270.460211 90.108 
L 270.703763 88.533 
L 270.866131 88.533 
L 270.947315 88.218 
L 271.028499 88.533 
L 271.272051 87.903 
L 271.434419 87.903 
L 271.515603 88.218 
L 271.759154 87.588 
L 271.921522 87.588 
L 272.652178 93.888 
L 273.139281 100.188 
L 273.626385 101.763 
L 273.707569 101.448 
L 274.35704 107.118 
L 275.087696 114.678 
L 275.168879 114.678 
L 275.818351 117.513 
L 276.224271 120.978 
L 276.386638 121.923 
L 277.117294 127.908 
L 277.523214 132.633 
L 277.604397 132.948 
L 277.847949 135.153 
L 278.010317 135.783 
L 278.172685 134.838 
L 278.822156 126.333 
L 279.552812 111.528 
L 279.958732 103.653 
L 280.364651 93.888 
L 280.689387 89.163 
L 280.851755 87.273 
L 281.338858 80.973 
L 281.501226 80.028 
L 282.069514 72.153 
L 282.394249 68.688 
L 282.718985 65.853 
L 282.881353 65.853 
L 283.124905 67.113 
L 283.530825 70.578 
L 283.693192 71.523 
L 284.180296 78.453 
L 284.505032 84.753 
L 285.641607 113.733 
L 287.265285 155.628 
L 287.671205 159.408 
L 287.914757 159.408 
L 289.2137 149.328 
L 289.294884 149.643 
L 289.457252 148.698 
L 289.781987 150.273 
L 289.944355 152.163 
L 290.593827 163.503 
L 292.461057 205.083 
L 292.866977 208.863 
L 293.597632 218.628 
L 294.003552 222.408 
L 294.247104 224.928 
L 294.490655 227.133 
L 294.571839 229.653 
L 294.653023 228.393 
L 294.896575 234.063 
L 295.789598 249.498 
L 296.195518 254.223 
L 296.682622 257.373 
L 297.088541 258.633 
L 297.332093 258.633 
L 297.494461 258.318 
L 297.656829 258.318 
L 297.981564 259.263 
L 298.062748 259.263 
L 298.3063 259.893 
L 298.468668 259.893 
L 298.631036 260.208 
L 298.71222 260.208 
L 298.874588 259.893 
L 299.036956 259.893 
L 299.199323 259.578 
L 299.605243 260.838 
L 299.686427 260.838 
L 299.929979 261.468 
L 300.417082 261.468 
L 300.660634 262.728 
L 300.823002 263.358 
L 300.98537 263.358 
L 301.553658 260.838 
L 301.797209 258.318 
L 302.446681 252.018 
L 302.527865 252.018 
L 302.771416 250.758 
L 302.8526 250.758 
L 303.25852 248.868 
L 303.66444 246.348 
L 304.151543 244.773 
L 304.476279 244.773 
L 305.288118 241.938 
L 305.369302 241.938 
L 305.53167 242.253 
L 305.612854 242.253 
L 306.099958 240.048 
L 306.668245 235.008 
L 307.480085 226.503 
L 307.80482 224.928 
L 308.129556 223.038 
L 308.373108 221.778 
L 308.454292 221.148 
L 308.535476 221.463 
L 308.697844 220.518 
L 308.779027 220.518 
L 309.022579 219.573 
L 309.266131 220.203 
L 309.509683 220.203 
L 309.590867 219.888 
L 309.672051 220.203 
L 309.753235 219.888 
L 309.834419 220.203 
L 310.07797 219.573 
L 310.240338 219.573 
L 310.727442 221.148 
L 310.808626 221.148 
L 310.970994 220.518 
L 311.295729 219.573 
L 311.376913 219.573 
L 311.701649 217.998 
L 312.026385 216.108 
L 312.107569 216.108 
L 312.188753 215.793 
L 312.351121 216.108 
L 312.432304 216.108 
L 313.244144 219.573 
L 313.568879 221.778 
L 313.731247 221.778 
L 314.137167 220.203 
L 314.299535 220.518 
L 314.380719 220.518 
L 314.867822 217.368 
L 315.03019 216.423 
L 315.354926 214.533 
L 315.84203 212.328 
L 316.897421 203.508 
L 317.465708 198.153 
L 317.628076 197.208 
L 318.521099 189.648 
L 320.063594 160.668 
L 320.144778 161.613 
L 320.38833 157.518 
L 321.200169 146.493 
L 322.093192 134.838 
L 322.499112 129.798 
L 325.096998 109.323 
L 325.584101 103.338 
L 326.314757 96.093 
L 326.964228 90.423 
L 327.370148 86.958 
L 328.750275 81.918 
L 329.156195 81.918 
L 329.48093 80.973 
L 329.805666 80.973 
L 330.211586 77.193 
L 330.29277 77.193 
L 330.617505 75.618 
L 330.942241 73.728 
L 331.348161 72.468 
L 331.510529 72.468 
L 332.078816 69.948 
L 332.16 70.263 
L 332.728288 72.783 
L 332.890655 73.728 
L 332.971839 73.728 
L 333.377759 75.618 
L 334.108414 81.918 
L 334.83907 89.163 
L 335.082622 90.423 
L 335.407357 92.628 
L 335.488541 92.628 
L 335.894461 94.518 
L 335.975645 95.463 
L 336.056829 94.833 
L 336.300381 96.723 
L 336.462748 97.668 
L 336.949852 102.078 
L 337.842875 115.623 
L 337.924059 114.048 
L 338.167611 119.718 
L 338.898266 135.783 
L 339.710106 152.478 
L 340.359577 160.983 
L 340.927865 166.338 
L 341.171416 167.598 
L 341.2526 167.598 
L 341.414968 167.913 
L 341.496152 167.913 
L 341.820888 169.488 
L 342.632727 177.993 
L 342.957463 179.568 
L 343.688118 185.553 
L 344.094038 190.278 
L 344.499958 196.263 
L 344.905877 200.988 
L 346.367188 216.738 
L 346.61074 217.998 
L 347.341395 224.298 
L 347.990867 230.598 
L 348.315603 233.748 
L 349.452178 245.718 
L 349.939281 250.128 
L 350.020465 252.018 
L 350.101649 251.073 
L 350.345201 255.483 
L 351.56296 272.808 
L 352.861903 286.668 
L 353.024271 286.983 
L 353.105455 286.983 
L 353.186638 287.298 
L 353.754926 284.778 
L 353.917294 282.888 
L 354.647949 273.123 
L 356.921099 247.293 
L 357.002283 248.238 
L 357.245835 245.088 
L 357.895307 239.418 
L 358.301226 235.953 
L 359.843721 229.653 
L 360.65556 223.983 
L 360.736744 223.668 
L 361.386216 217.368 
L 362.035687 212.958 
L 362.360423 211.383 
L 362.522791 210.438 
L 362.603975 210.438 
L 362.847526 209.178 
L 364.308837 203.823 
L 364.390021 203.823 
L 364.552389 203.508 
L 364.714757 203.508 
L 364.795941 203.193 
L 364.958309 203.508 
L 365.120677 203.508 
L 365.283044 203.823 
L 365.445412 203.823 
L 366.0137 205.713 
L 366.094884 205.713 
L 366.906723 209.178 
L 367.069091 209.808 
L 367.312643 210.438 
L 367.475011 210.438 
L 367.637378 209.808 
L 368.205666 207.288 
L 368.368034 205.713 
L 368.449218 203.823 
L 368.530402 204.768 
L 368.855137 199.728 
L 369.504609 191.223 
L 370.072896 185.868 
L 370.235264 184.923 
L 371.453023 175.788 
L 371.534207 176.418 
L 371.777759 174.528 
L 371.940127 173.583 
L 372.264863 170.433 
L 372.346047 168.858 
L 372.42723 169.803 
L 372.670782 166.023 
L 374.050909 149.013 
L 374.862748 127.908 
L 375.349852 107.118 
L 376.242875 67.113 
L 376.648795 57.033 
L 376.892347 54.198 
L 377.054715 53.568 
L 377.217082 54.513 
L 377.460634 57.033 
L 378.110106 68.058 
L 378.597209 72.468 
L 378.678393 72.783 
L 379.246681 70.893 
L 379.327865 70.893 
L 379.814968 72.468 
L 379.896152 72.468 
L 380.05852 73.413 
L 380.139704 73.413 
L 380.302072 74.358 
L 380.870359 78.138 
L 381.032727 78.453 
L 381.357463 78.453 
L 381.519831 78.768 
L 381.763383 78.768 
L 381.925751 77.823 
L 382.250486 75.933 
L 382.33167 75.933 
L 382.412854 76.248 
L 382.656406 80.028 
L 382.981142 89.793 
L 383.387061 100.188 
L 384.361268 113.733 
L 384.848372 118.143 
L 386.066131 131.373 
L 386.228499 132.318 
L 387.365074 141.768 
L 387.68981 147.123 
L 387.770994 145.863 
L 388.014545 149.328 
L 388.258097 151.533 
L 388.907569 163.188 
L 389.475856 177.678 
L 389.55704 182.088 
L 389.638224 179.883 
L 389.881776 188.388 
L 390.693615 205.398 
L 390.774799 204.138 
L 391.018351 209.808 
L 391.505455 216.108 
L 391.749006 218.628 
L 392.073742 221.148 
L 392.398478 222.093 
L 392.479662 222.093 
L 392.64203 222.408 
L 392.885581 219.888 
L 393.129133 212.013 
L 394.428076 160.983 
L 395.727019 137.358 
L 396.457674 130.113 
L 396.620042 129.168 
L 396.944778 126.648 
L 397.107146 126.333 
L 397.594249 126.333 
L 397.837801 125.073 
L 398.081353 121.293 
L 398.487273 113.733 
L 398.487273 113.733 
" clip-path="url(#p6646f7a940)" style="fill: none; stroke: #1f77b4; stroke-width: 1.5; stroke-linecap: square"/>
   </g>
   <g id="patch_3">
    <path d="M 57.6 307.584 
L 57.6 41.472 
" style="fill: none; stroke: #000000; stroke-width: 0.8; stroke-linejoin: miter; stroke-linecap: square"/>
   </g>
   <g id="patch_4">
    <path d="M 414.72 307.584 
L 414.72 41.472 
" style="fill: none; stroke: #000000; stroke-width: 0.8; stroke-linejoin: miter; stroke-linecap: square"/>
   </g>
   <g id="patch_5">
    <path d="M 57.6 307.584 
L 414.72 307.584 
" style="fill: none; stroke: #000000; stroke-width: 0.8; stroke-linejoin: miter; stroke-linecap: square"/>
   </g>
   <g id="patch_6">
    <path d="M 57.6 41.472 
L 414.72 41.472 
" style="fill: none; stroke: #000000; stroke-width: 0.8; stroke-linejoin: miter; stroke-linecap: square"/>
   </g>
  </g>
 </g>
 <defs>
  <clipPath id="p6646f7a940">
   <rect x="57.6" y="41.472" width="357.12" height="266.112"/>
  </clipPath>
 </defs>
</svg>
