<?xml version="1.0" encoding="utf-8" standalone="no"?>
<!DOCTYPE svg PUBLIC "-//W3C//DTD SVG 1.1//EN"
  "http://www.w3.org/Graphics/SVG/1.1/DTD/svg11.dtd">
<svg xmlns:xlink="http://www.w3.org/1999/xlink" width="460.8pt" height="345.6pt" viewBox="0 0 460.8 345.6" xmlns="http://www.w3.org/2000/svg" version="1.1">
 <metadata>
  <rdf:RDF xmlns:dc="http://purl.org/dc/elements/1.1/" xmlns:cc="http://creativecommons.org/ns#" xmlns:rdf="http://www.w3.org/1999/02/22-rdf-syntax-ns#">
   <cc:Work>
    <dc:type rdf:resource="http://purl.org/dc/dcmitype/StillImage"/>
    <dc:date>2024-05-31T10:27:05.353435</dc:date>
    <dc:format>image/svg+xml</dc:format>
    <dc:creator>
     <cc:Agent>
      <dc:title>Matplotlib v3.8.2, https://matplotlib.org/</dc:title>
     </cc:Agent>
    </dc:creator>
   </cc:Work>
  </rdf:RDF>
 </metadata>
 <defs>
  <style type="text/css">*{stroke-linejoin: round; stroke-linecap: butt}</style>
 </defs>
 <g id="figure_1">
  <g id="patch_1">
   <path d="M 0 345.6 
L 460.8 345.6 
L 460.8 0 
L 0 0 
z
" style="fill: #ffffff"/>
  </g>
  <g id="axes_1">
   <g id="patch_2">
    <path d="M 57.6 307.584 
L 414.72 307.584 
L 414.72 41.472 
L 57.6 41.472 
z
" style="fill: #ffffff"/>
   </g>
   <g id="matplotlib.axis_1">
    <g id="xtick_1">
     <g id="line2d_1">
      <defs>
       <path id="m17b47cc79a" d="M 0 0 
L 0 3.5 
" style="stroke: #000000; stroke-width: 0.8"/>
      </defs>
      <g>
       <use xlink:href="#m17b47cc79a" x="73.832727" y="307.584" style="stroke: #000000; stroke-width: 0.8"/>
      </g>
     </g>
     <g id="text_1">
      <!-- 0 -->
      <g transform="translate(70.651477 322.182437) scale(0.1 -0.1)">
       <defs>
        <path id="DejaVuSans-30" d="M 2034 4250 
Q 1547 4250 1301 3770 
Q 1056 3291 1056 2328 
Q 1056 1369 1301 889 
Q 1547 409 2034 409 
Q 2525 409 2770 889 
Q 3016 1369 3016 2328 
Q 3016 3291 2770 3770 
Q 2525 4250 2034 4250 
z
M 2034 4750 
Q 2819 4750 3233 4129 
Q 3647 3509 3647 2328 
Q 3647 1150 3233 529 
Q 2819 -91 2034 -91 
Q 1250 -91 836 529 
Q 422 1150 422 2328 
Q 422 3509 836 4129 
Q 1250 4750 2034 4750 
z
" transform="scale(0.015625)"/>
       </defs>
       <use xlink:href="#DejaVuSans-30"/>
      </g>
     </g>
    </g>
    <g id="xtick_2">
     <g id="line2d_2">
      <g>
       <use xlink:href="#m17b47cc79a" x="114.414545" y="307.584" style="stroke: #000000; stroke-width: 0.8"/>
      </g>
     </g>
     <g id="text_2">
      <!-- 5 -->
      <g transform="translate(111.233295 322.182437) scale(0.1 -0.1)">
       <defs>
        <path id="DejaVuSans-35" d="M 691 4666 
L 3169 4666 
L 3169 4134 
L 1269 4134 
L 1269 2991 
Q 1406 3038 1543 3061 
Q 1681 3084 1819 3084 
Q 2600 3084 3056 2656 
Q 3513 2228 3513 1497 
Q 3513 744 3044 326 
Q 2575 -91 1722 -91 
Q 1428 -91 1123 -41 
Q 819 9 494 109 
L 494 744 
Q 775 591 1075 516 
Q 1375 441 1709 441 
Q 2250 441 2565 725 
Q 2881 1009 2881 1497 
Q 2881 1984 2565 2268 
Q 2250 2553 1709 2553 
Q 1456 2553 1204 2497 
Q 953 2441 691 2322 
L 691 4666 
z
" transform="scale(0.015625)"/>
       </defs>
       <use xlink:href="#DejaVuSans-35"/>
      </g>
     </g>
    </g>
    <g id="xtick_3">
     <g id="line2d_3">
      <g>
       <use xlink:href="#m17b47cc79a" x="154.996364" y="307.584" style="stroke: #000000; stroke-width: 0.8"/>
      </g>
     </g>
     <g id="text_3">
      <!-- 10 -->
      <g transform="translate(148.633864 322.182437) scale(0.1 -0.1)">
       <defs>
        <path id="DejaVuSans-31" d="M 794 531 
L 1825 531 
L 1825 4091 
L 703 3866 
L 703 4441 
L 1819 4666 
L 2450 4666 
L 2450 531 
L 3481 531 
L 3481 0 
L 794 0 
L 794 531 
z
" transform="scale(0.015625)"/>
       </defs>
       <use xlink:href="#DejaVuSans-31"/>
       <use xlink:href="#DejaVuSans-30" x="63.623047"/>
      </g>
     </g>
    </g>
    <g id="xtick_4">
     <g id="line2d_4">
      <g>
       <use xlink:href="#m17b47cc79a" x="195.578182" y="307.584" style="stroke: #000000; stroke-width: 0.8"/>
      </g>
     </g>
     <g id="text_4">
      <!-- 15 -->
      <g transform="translate(189.215682 322.182437) scale(0.1 -0.1)">
       <use xlink:href="#DejaVuSans-31"/>
       <use xlink:href="#DejaVuSans-35" x="63.623047"/>
      </g>
     </g>
    </g>
    <g id="xtick_5">
     <g id="line2d_5">
      <g>
       <use xlink:href="#m17b47cc79a" x="236.16" y="307.584" style="stroke: #000000; stroke-width: 0.8"/>
      </g>
     </g>
     <g id="text_5">
      <!-- 20 -->
      <g transform="translate(229.7975 322.182437) scale(0.1 -0.1)">
       <defs>
        <path id="DejaVuSans-32" d="M 1228 531 
L 3431 531 
L 3431 0 
L 469 0 
L 469 531 
Q 828 903 1448 1529 
Q 2069 2156 2228 2338 
Q 2531 2678 2651 2914 
Q 2772 3150 2772 3378 
Q 2772 3750 2511 3984 
Q 2250 4219 1831 4219 
Q 1534 4219 1204 4116 
Q 875 4013 500 3803 
L 500 4441 
Q 881 4594 1212 4672 
Q 1544 4750 1819 4750 
Q 2544 4750 2975 4387 
Q 3406 4025 3406 3419 
Q 3406 3131 3298 2873 
Q 3191 2616 2906 2266 
Q 2828 2175 2409 1742 
Q 1991 1309 1228 531 
z
" transform="scale(0.015625)"/>
       </defs>
       <use xlink:href="#DejaVuSans-32"/>
       <use xlink:href="#DejaVuSans-30" x="63.623047"/>
      </g>
     </g>
    </g>
    <g id="xtick_6">
     <g id="line2d_6">
      <g>
       <use xlink:href="#m17b47cc79a" x="276.741818" y="307.584" style="stroke: #000000; stroke-width: 0.8"/>
      </g>
     </g>
     <g id="text_6">
      <!-- 25 -->
      <g transform="translate(270.379318 322.182437) scale(0.1 -0.1)">
       <use xlink:href="#DejaVuSans-32"/>
       <use xlink:href="#DejaVuSans-35" x="63.623047"/>
      </g>
     </g>
    </g>
    <g id="xtick_7">
     <g id="line2d_7">
      <g>
       <use xlink:href="#m17b47cc79a" x="317.323636" y="307.584" style="stroke: #000000; stroke-width: 0.8"/>
      </g>
     </g>
     <g id="text_7">
      <!-- 30 -->
      <g transform="translate(310.961136 322.182437) scale(0.1 -0.1)">
       <defs>
        <path id="DejaVuSans-33" d="M 2597 2516 
Q 3050 2419 3304 2112 
Q 3559 1806 3559 1356 
Q 3559 666 3084 287 
Q 2609 -91 1734 -91 
Q 1441 -91 1130 -33 
Q 819 25 488 141 
L 488 750 
Q 750 597 1062 519 
Q 1375 441 1716 441 
Q 2309 441 2620 675 
Q 2931 909 2931 1356 
Q 2931 1769 2642 2001 
Q 2353 2234 1838 2234 
L 1294 2234 
L 1294 2753 
L 1863 2753 
Q 2328 2753 2575 2939 
Q 2822 3125 2822 3475 
Q 2822 3834 2567 4026 
Q 2313 4219 1838 4219 
Q 1578 4219 1281 4162 
Q 984 4106 628 3988 
L 628 4550 
Q 988 4650 1302 4700 
Q 1616 4750 1894 4750 
Q 2613 4750 3031 4423 
Q 3450 4097 3450 3541 
Q 3450 3153 3228 2886 
Q 3006 2619 2597 2516 
z
" transform="scale(0.015625)"/>
       </defs>
       <use xlink:href="#DejaVuSans-33"/>
       <use xlink:href="#DejaVuSans-30" x="63.623047"/>
      </g>
     </g>
    </g>
    <g id="xtick_8">
     <g id="line2d_8">
      <g>
       <use xlink:href="#m17b47cc79a" x="357.905455" y="307.584" style="stroke: #000000; stroke-width: 0.8"/>
      </g>
     </g>
     <g id="text_8">
      <!-- 35 -->
      <g transform="translate(351.542955 322.182437) scale(0.1 -0.1)">
       <use xlink:href="#DejaVuSans-33"/>
       <use xlink:href="#DejaVuSans-35" x="63.623047"/>
      </g>
     </g>
    </g>
    <g id="xtick_9">
     <g id="line2d_9">
      <g>
       <use xlink:href="#m17b47cc79a" x="398.487273" y="307.584" style="stroke: #000000; stroke-width: 0.8"/>
      </g>
     </g>
     <g id="text_9">
      <!-- 40 -->
      <g transform="translate(392.124773 322.182437) scale(0.1 -0.1)">
       <defs>
        <path id="DejaVuSans-34" d="M 2419 4116 
L 825 1625 
L 2419 1625 
L 2419 4116 
z
M 2253 4666 
L 3047 4666 
L 3047 1625 
L 3713 1625 
L 3713 1100 
L 3047 1100 
L 3047 0 
L 2419 0 
L 2419 1100 
L 313 1100 
L 313 1709 
L 2253 4666 
z
" transform="scale(0.015625)"/>
       </defs>
       <use xlink:href="#DejaVuSans-34"/>
       <use xlink:href="#DejaVuSans-30" x="63.623047"/>
      </g>
     </g>
    </g>
    <g id="text_10">
     <!-- Time [$s$] -->
     <g transform="translate(215.66 335.860562) scale(0.1 -0.1)">
      <defs>
       <path id="DejaVuSans-54" d="M -19 4666 
L 3928 4666 
L 3928 4134 
L 2272 4134 
L 2272 0 
L 1638 0 
L 1638 4134 
L -19 4134 
L -19 4666 
z
" transform="scale(0.015625)"/>
       <path id="DejaVuSans-69" d="M 603 3500 
L 1178 3500 
L 1178 0 
L 603 0 
L 603 3500 
z
M 603 4863 
L 1178 4863 
L 1178 4134 
L 603 4134 
L 603 4863 
z
" transform="scale(0.015625)"/>
       <path id="DejaVuSans-6d" d="M 3328 2828 
Q 3544 3216 3844 3400 
Q 4144 3584 4550 3584 
Q 5097 3584 5394 3201 
Q 5691 2819 5691 2113 
L 5691 0 
L 5113 0 
L 5113 2094 
Q 5113 2597 4934 2840 
Q 4756 3084 4391 3084 
Q 3944 3084 3684 2787 
Q 3425 2491 3425 1978 
L 3425 0 
L 2847 0 
L 2847 2094 
Q 2847 2600 2669 2842 
Q 2491 3084 2119 3084 
Q 1678 3084 1418 2786 
Q 1159 2488 1159 1978 
L 1159 0 
L 581 0 
L 581 3500 
L 1159 3500 
L 1159 2956 
Q 1356 3278 1631 3431 
Q 1906 3584 2284 3584 
Q 2666 3584 2933 3390 
Q 3200 3197 3328 2828 
z
" transform="scale(0.015625)"/>
       <path id="DejaVuSans-65" d="M 3597 1894 
L 3597 1613 
L 953 1613 
Q 991 1019 1311 708 
Q 1631 397 2203 397 
Q 2534 397 2845 478 
Q 3156 559 3463 722 
L 3463 178 
Q 3153 47 2828 -22 
Q 2503 -91 2169 -91 
Q 1331 -91 842 396 
Q 353 884 353 1716 
Q 353 2575 817 3079 
Q 1281 3584 2069 3584 
Q 2775 3584 3186 3129 
Q 3597 2675 3597 1894 
z
M 3022 2063 
Q 3016 2534 2758 2815 
Q 2500 3097 2075 3097 
Q 1594 3097 1305 2825 
Q 1016 2553 972 2059 
L 3022 2063 
z
" transform="scale(0.015625)"/>
       <path id="DejaVuSans-20" transform="scale(0.015625)"/>
       <path id="DejaVuSans-5b" d="M 550 4863 
L 1875 4863 
L 1875 4416 
L 1125 4416 
L 1125 -397 
L 1875 -397 
L 1875 -844 
L 550 -844 
L 550 4863 
z
" transform="scale(0.015625)"/>
       <path id="DejaVuSans-Oblique-73" d="M 3200 3397 
L 3091 2853 
Q 2863 2978 2609 3040 
Q 2356 3103 2088 3103 
Q 1634 3103 1373 2948 
Q 1113 2794 1113 2528 
Q 1113 2219 1719 2053 
Q 1766 2041 1788 2034 
L 1972 1978 
Q 2547 1819 2739 1644 
Q 2931 1469 2931 1166 
Q 2931 609 2489 259 
Q 2047 -91 1331 -91 
Q 1053 -91 747 -37 
Q 441 16 72 128 
L 184 722 
Q 500 559 806 475 
Q 1113 391 1394 391 
Q 1816 391 2080 572 
Q 2344 753 2344 1031 
Q 2344 1331 1650 1516 
L 1591 1531 
L 1394 1581 
Q 956 1697 753 1886 
Q 550 2075 550 2369 
Q 550 2928 970 3256 
Q 1391 3584 2113 3584 
Q 2397 3584 2667 3537 
Q 2938 3491 3200 3397 
z
" transform="scale(0.015625)"/>
       <path id="DejaVuSans-5d" d="M 1947 4863 
L 1947 -844 
L 622 -844 
L 622 -397 
L 1369 -397 
L 1369 4416 
L 622 4416 
L 622 4863 
L 1947 4863 
z
" transform="scale(0.015625)"/>
      </defs>
      <use xlink:href="#DejaVuSans-54" transform="translate(0 0.015625)"/>
      <use xlink:href="#DejaVuSans-69" transform="translate(61.083984 0.015625)"/>
      <use xlink:href="#DejaVuSans-6d" transform="translate(88.867188 0.015625)"/>
      <use xlink:href="#DejaVuSans-65" transform="translate(186.279297 0.015625)"/>
      <use xlink:href="#DejaVuSans-20" transform="translate(247.802734 0.015625)"/>
      <use xlink:href="#DejaVuSans-5b" transform="translate(279.589844 0.015625)"/>
      <use xlink:href="#DejaVuSans-Oblique-73" transform="translate(318.603516 0.015625)"/>
      <use xlink:href="#DejaVuSans-5d" transform="translate(370.703125 0.015625)"/>
     </g>
    </g>
   </g>
   <g id="matplotlib.axis_2">
    <g id="ytick_1">
     <g id="line2d_10">
      <defs>
       <path id="m8c4369c8af" d="M 0 0 
L -3.5 0 
" style="stroke: #000000; stroke-width: 0.8"/>
      </defs>
      <g>
       <use xlink:href="#m8c4369c8af" x="57.6" y="293.996712" style="stroke: #000000; stroke-width: 0.8"/>
      </g>
     </g>
     <g id="text_11">
      <!-- −40 -->
      <g transform="translate(29.495313 297.795931) scale(0.1 -0.1)">
       <defs>
        <path id="DejaVuSans-2212" d="M 678 2272 
L 4684 2272 
L 4684 1741 
L 678 1741 
L 678 2272 
z
" transform="scale(0.015625)"/>
       </defs>
       <use xlink:href="#DejaVuSans-2212"/>
       <use xlink:href="#DejaVuSans-34" x="83.789062"/>
       <use xlink:href="#DejaVuSans-30" x="147.412109"/>
      </g>
     </g>
    </g>
    <g id="ytick_2">
     <g id="line2d_11">
      <g>
       <use xlink:href="#m8c4369c8af" x="57.6" y="237.438247" style="stroke: #000000; stroke-width: 0.8"/>
      </g>
     </g>
     <g id="text_12">
      <!-- −20 -->
      <g transform="translate(29.495313 241.237465) scale(0.1 -0.1)">
       <use xlink:href="#DejaVuSans-2212"/>
       <use xlink:href="#DejaVuSans-32" x="83.789062"/>
       <use xlink:href="#DejaVuSans-30" x="147.412109"/>
      </g>
     </g>
    </g>
    <g id="ytick_3">
     <g id="line2d_12">
      <g>
       <use xlink:href="#m8c4369c8af" x="57.6" y="180.879781" style="stroke: #000000; stroke-width: 0.8"/>
      </g>
     </g>
     <g id="text_13">
      <!-- 0 -->
      <g transform="translate(44.2375 184.679) scale(0.1 -0.1)">
       <use xlink:href="#DejaVuSans-30"/>
      </g>
     </g>
    </g>
    <g id="ytick_4">
     <g id="line2d_13">
      <g>
       <use xlink:href="#m8c4369c8af" x="57.6" y="124.321315" style="stroke: #000000; stroke-width: 0.8"/>
      </g>
     </g>
     <g id="text_14">
      <!-- 20 -->
      <g transform="translate(37.875 128.120534) scale(0.1 -0.1)">
       <use xlink:href="#DejaVuSans-32"/>
       <use xlink:href="#DejaVuSans-30" x="63.623047"/>
      </g>
     </g>
    </g>
    <g id="ytick_5">
     <g id="line2d_14">
      <g>
       <use xlink:href="#m8c4369c8af" x="57.6" y="67.762849" style="stroke: #000000; stroke-width: 0.8"/>
      </g>
     </g>
     <g id="text_15">
      <!-- 40 -->
      <g transform="translate(37.875 71.562068) scale(0.1 -0.1)">
       <use xlink:href="#DejaVuSans-34"/>
       <use xlink:href="#DejaVuSans-30" x="63.623047"/>
      </g>
     </g>
    </g>
    <g id="text_16">
     <!-- ? -->
     <g transform="translate(23.415625 177.181906) rotate(-90) scale(0.1 -0.1)">
      <defs>
       <path id="DejaVuSans-3f" d="M 1222 794 
L 1856 794 
L 1856 0 
L 1222 0 
L 1222 794 
z
M 1838 1253 
L 1241 1253 
L 1241 1734 
Q 1241 2050 1328 2253 
Q 1416 2456 1697 2725 
L 1978 3003 
Q 2156 3169 2236 3316 
Q 2316 3463 2316 3616 
Q 2316 3894 2111 4066 
Q 1906 4238 1569 4238 
Q 1322 4238 1042 4128 
Q 763 4019 459 3809 
L 459 4397 
Q 753 4575 1054 4662 
Q 1356 4750 1678 4750 
Q 2253 4750 2601 4447 
Q 2950 4144 2950 3647 
Q 2950 3409 2837 3195 
Q 2725 2981 2444 2713 
L 2169 2444 
Q 2022 2297 1961 2214 
Q 1900 2131 1875 2053 
Q 1856 1988 1847 1894 
Q 1838 1800 1838 1638 
L 1838 1253 
z
" transform="scale(0.015625)"/>
      </defs>
      <use xlink:href="#DejaVuSans-3f"/>
     </g>
    </g>
   </g>
   <g id="line2d_15">
    <path d="M 73.832727 185.85074 
L 74.482199 189.717041 
L 74.563383 189.993205 
L 74.888118 192.202521 
L 75.294038 194.411836 
L 75.862326 196.621151 
L 76.511797 201.59211 
L 76.836533 204.077589 
L 76.917717 204.353753 
L 77.242452 207.391562 
L 77.486004 208.496219 
L 77.567188 208.496219 
L 77.891924 209.324712 
L 77.973108 209.324712 
L 78.297844 210.153205 
L 78.379027 209.877041 
L 78.460211 210.153205 
L 78.784947 209.324712 
L 79.028499 209.324712 
L 79.434419 210.981699 
L 79.759154 212.638685 
L 80.002706 213.743342 
L 80.327442 215.400329 
L 81.139281 217.885808 
L 81.220465 217.885808 
L 81.382833 218.161973 
L 81.464017 218.161973 
L 81.626385 218.438137 
L 81.869937 218.438137 
L 81.951121 218.161973 
L 82.032304 218.438137 
L 82.194672 218.161973 
L 82.275856 218.161973 
L 82.35704 217.885808 
L 82.681776 218.990466 
L 82.925328 220.647452 
L 83.087696 221.475945 
L 83.412431 223.132932 
L 83.574799 223.961425 
L 84.224271 229.484712 
L 84.305455 229.484712 
L 84.467822 229.760877 
L 84.63019 229.760877 
L 85.117294 227.827726 
L 85.44203 225.066082 
L 85.685581 223.132932 
L 85.766765 223.132932 
L 85.929133 222.580603 
L 86.091501 222.304438 
L 86.253869 222.304438 
L 86.335053 222.580603 
L 86.497421 222.304438 
L 86.659789 222.304438 
L 86.822156 222.028274 
L 86.984524 222.304438 
L 87.228076 222.304438 
L 87.390444 222.580603 
L 87.471628 222.304438 
L 87.552812 222.580603 
L 87.796364 222.028274 
L 87.958732 222.028274 
L 88.121099 221.75211 
L 88.283467 221.75211 
L 88.445835 221.475945 
L 88.608203 221.475945 
L 88.851755 220.923616 
L 88.932939 220.923616 
L 89.17649 220.371288 
L 90.069514 223.132932 
L 90.150698 223.132932 
L 90.394249 223.961425 
L 90.800169 227.275397 
L 91.287273 227.275397 
L 91.85556 225.066082 
L 92.423848 220.371288 
L 92.6674 219.818959 
L 92.829767 219.818959 
L 92.992135 219.26663 
L 93.073319 219.542795 
L 93.316871 218.990466 
L 93.803975 218.990466 
L 93.885159 219.26663 
L 94.047526 218.990466 
L 94.209894 218.990466 
L 94.372262 218.714301 
L 94.453446 218.714301 
L 94.615814 218.438137 
L 94.696998 218.438137 
L 95.508837 215.400329 
L 95.671205 214.848 
L 95.833573 214.848 
L 96.077125 215.400329 
L 96.483044 215.400329 
L 96.80778 214.571836 
L 97.2137 215.952658 
L 97.457252 215.124164 
L 97.781987 212.914849 
L 98.106723 210.42937 
L 99.324482 195.240329 
L 100.055137 189.717041 
L 100.623425 185.022247 
L 101.922368 176.737315 
L 102.084736 176.737315 
L 102.896575 174.251836 
L 103.058943 174.251836 
L 103.302495 174.804164 
L 103.383679 174.804164 
L 103.464863 175.080329 
L 103.789598 174.251836 
L 103.870782 174.251836 
L 104.682622 171.214027 
L 105.169725 168.452384 
L 105.332093 168.176219 
L 105.413277 168.176219 
L 105.656829 167.62389 
L 106.3063 167.62389 
L 106.468668 167.900055 
L 106.71222 167.900055 
L 106.874588 168.176219 
L 107.036956 168.176219 
L 107.11814 168.452384 
L 107.280507 168.176219 
L 107.442875 168.176219 
L 107.524059 167.900055 
L 108.092347 169.557041 
L 108.254715 169.557041 
L 108.498266 170.10937 
L 108.823002 170.10937 
L 109.228922 171.766356 
L 109.472474 172.871014 
L 110.121945 174.804164 
L 110.203129 174.804164 
L 110.446681 175.356493 
L 110.527865 175.356493 
L 110.690233 175.080329 
L 111.339704 177.565808 
L 111.583256 178.670466 
L 111.66444 178.94663 
L 111.989175 181.155945 
L 112.232727 182.260603 
L 112.476279 183.36526 
L 112.801015 184.746082 
L 113.206934 187.78389 
L 113.694038 193.031014 
L 114.262326 197.449644 
L 114.668245 200.487452 
L 115.317717 202.420603 
L 115.642452 202.420603 
L 116.291924 200.487452 
L 116.373108 200.487452 
L 117.509683 204.629918 
L 117.996786 207.391562 
L 118.402706 209.048548 
L 119.133362 213.743342 
L 119.214545 213.743342 
L 119.539281 215.124164 
L 119.701649 216.504986 
L 119.945201 218.714301 
L 120.675856 220.923616 
L 120.838224 220.923616 
L 121.568879 218.161973 
L 121.650063 218.438137 
L 121.974799 218.438137 
L 122.137167 218.714301 
L 122.218351 218.714301 
L 122.380719 218.990466 
L 122.867822 218.990466 
L 122.949006 219.26663 
L 123.111374 218.990466 
L 123.273742 218.990466 
L 123.517294 218.438137 
L 123.84203 219.818959 
L 124.085581 220.923616 
L 124.247949 220.923616 
L 124.410317 221.199781 
L 124.572685 220.923616 
L 124.978605 224.237589 
L 125.140973 225.066082 
L 125.30334 225.342247 
L 125.465708 225.342247 
L 125.952812 223.409096 
L 126.927019 214.295671 
L 127.738858 211.810192 
L 127.820042 211.810192 
L 128.063594 211.257863 
L 128.307146 211.257863 
L 128.38833 210.981699 
L 128.631882 212.086356 
L 128.794249 213.743342 
L 130.012008 227.275397 
L 130.25556 229.484712 
L 130.417928 228.656219 
L 130.66148 227.275397 
L 130.742664 227.275397 
L 131.0674 225.894575 
L 131.798055 219.542795 
L 131.960423 218.714301 
L 132.122791 218.714301 
L 132.285159 218.990466 
L 132.366342 218.990466 
L 132.52871 219.542795 
L 132.609894 219.26663 
L 132.93463 220.647452 
L 133.178182 222.856767 
L 133.827653 230.313205 
L 134.558309 237.217315 
L 134.639493 237.217315 
L 134.883044 236.112658 
L 134.964228 236.388822 
L 135.370148 241.083616 
L 135.451332 241.083616 
L 135.776068 238.321973 
L 136.019619 231.141699 
L 137.643298 159.062795 
L 138.130402 146.911562 
L 138.779873 137.521973 
L 139.023425 135.864986 
L 139.185793 135.588822 
L 139.348161 135.588822 
L 139.672896 136.417315 
L 140.16 134.760329 
L 140.241184 135.036493 
L 140.647104 138.074301 
L 140.890655 138.074301 
L 141.053023 137.798137 
L 141.377759 137.798137 
L 141.458943 138.074301 
L 141.864863 136.417315 
L 142.270782 133.379507 
L 142.595518 130.341699 
L 142.676702 130.065534 
L 143.326173 124.266082 
L 143.569725 123.161425 
L 143.813277 121.228274 
L 145.355772 101.344438 
L 146.005243 99.411288 
L 146.248795 100.515945 
L 146.654715 103.829918 
L 147.141818 109.077041 
L 148.521945 124.266082 
L 149.577336 139.731288 
L 150.551543 161.27211 
L 151.444567 185.298411 
L 152.094038 196.344986 
L 152.418774 199.382795 
L 152.987061 201.59211 
L 153.392981 206.563068 
L 154.854292 238.321973 
L 155.909683 264.833753 
L 156.234419 268.700055 
L 156.396786 269.252384 
L 156.559154 268.42389 
L 157.046258 264.833753 
L 157.776913 250.74937 
L 158.345201 235.008 
L 158.751121 225.342247 
L 159.319408 211.810192 
L 159.56296 207.115397 
L 159.725328 206.286904 
L 159.806512 206.286904 
L 160.131247 204.906082 
L 160.455983 202.696767 
L 161.024271 198.278137 
L 161.349006 192.754849 
L 161.998478 177.565808 
L 162.647949 156.853479 
L 163.378605 141.940603 
L 163.540973 141.388274 
L 163.622156 141.388274 
L 163.784524 140.007452 
L 165.083467 123.713753 
L 165.245835 122.056767 
L 165.570571 116.533479 
L 166.057674 102.449096 
L 166.869514 75.937315 
L 168.006089 57.434301 
L 168.330825 56.605808 
L 168.412008 56.605808 
L 168.574376 55.777315 
L 168.817928 54.672658 
L 169.142664 53.568 
L 169.305032 53.844164 
L 169.386216 53.844164 
L 169.629767 54.396493 
L 169.710951 54.396493 
L 170.360423 56.329644 
L 170.441607 56.329644 
L 170.522791 56.605808 
L 170.603975 56.329644 
L 170.847526 56.881973 
L 171.009894 56.605808 
L 171.091078 56.605808 
L 171.415814 57.98663 
L 171.821734 60.195945 
L 172.390021 62.40526 
L 172.633573 63.509918 
L 172.795941 64.338411 
L 173.60778 71.518685 
L 174.338436 74.280329 
L 174.419619 74.004164 
L 174.744355 73.175671 
L 174.906723 73.175671 
L 175.799746 70.414027 
L 176.773953 74.004164 
L 177.017505 75.661151 
L 177.585793 77.870466 
L 177.991712 80.908274 
L 178.478816 83.669918 
L 178.722368 84.774575 
L 178.96592 86.431562 
L 179.290655 87.260055 
L 179.371839 87.260055 
L 179.777759 88.364712 
L 180.021311 88.364712 
L 180.102495 88.640877 
L 180.183679 88.364712 
L 180.346047 88.640877 
L 180.589598 88.640877 
L 181.076702 91.402521 
L 181.563805 92.783342 
L 181.726173 92.783342 
L 182.619197 90.021699 
L 182.700381 90.021699 
L 182.781564 89.745534 
L 182.943932 90.021699 
L 183.025116 90.021699 
L 183.268668 89.193205 
L 183.674588 90.850192 
L 183.91814 91.954849 
L 184.324059 93.611836 
L 184.486427 94.440329 
L 184.567611 94.440329 
L 184.811163 94.992658 
L 184.973531 94.716493 
L 185.135899 94.716493 
L 185.541818 96.373479 
L 185.78537 97.478137 
L 186.110106 98.582795 
L 186.921945 107.696219 
L 187.490233 117.085808 
L 188.05852 125.37074 
L 188.302072 128.684712 
L 188.707992 133.931836 
L 189.276279 138.902795 
L 189.438647 139.731288 
L 190.088118 144.426082 
L 190.412854 147.46389 
L 191.630613 160.719781 
L 192.280085 170.10937 
L 193.741395 188.612384 
L 194.472051 195.240329 
L 194.715603 196.344986 
L 194.959154 198.554301 
L 195.852178 206.563068 
L 196.582833 212.086356 
L 199.018351 235.836493 
L 199.180719 236.664986 
L 199.424271 238.045808 
L 199.749006 237.217315 
L 199.83019 237.217315 
L 199.992558 236.941151 
L 200.073742 236.941151 
L 200.479662 238.598137 
L 200.723214 239.702795 
L 201.129133 241.359781 
L 201.535053 243.569096 
L 202.428076 246.33074 
L 202.671628 246.33074 
L 202.833996 246.054575 
L 202.996364 246.054575 
L 204.78241 251.854027 
L 205.18833 251.854027 
L 205.350698 252.130192 
L 205.513066 252.130192 
L 205.594249 252.406356 
L 205.756617 252.130192 
L 205.837801 252.130192 
L 206.162537 251.301699 
L 206.406089 251.301699 
L 207.299112 254.063342 
L 207.380296 254.063342 
L 207.786216 255.168 
L 207.8674 255.168 
L 208.110951 256.272658 
L 208.435687 257.653479 
L 208.760423 259.310466 
L 209.247526 261.243616 
L 209.572262 264.00526 
L 210.790021 281.955945 
L 211.114757 285.822247 
L 211.845412 290.240877 
L 212.332516 291.621699 
L 212.494884 291.621699 
L 213.550275 294.935671 
L 213.631459 294.935671 
L 213.875011 295.488 
L 214.362114 295.488 
L 214.524482 295.211836 
L 214.605666 295.211836 
L 214.849218 294.659507 
L 214.930402 294.659507 
L 215.336321 293.002521 
L 215.579873 291.897863 
L 215.742241 291.621699 
L 215.823425 291.621699 
L 215.985793 291.897863 
L 216.229345 291.345534 
L 216.310529 291.345534 
L 216.55408 290.240877 
L 216.716448 289.688548 
L 216.797632 289.688548 
L 217.041184 291.06937 
L 217.284736 291.06937 
L 217.528288 289.964712 
L 217.771839 288.860055 
L 218.177759 285.546082 
L 219.314334 275.051836 
L 219.476702 274.223342 
L 219.801438 272.566356 
L 220.775645 268.976219 
L 221.262748 266.214575 
L 221.343932 265.938411 
L 221.587484 264.281425 
L 222.074588 262.348274 
L 222.561691 258.481973 
L 222.886427 256.272658 
L 223.129979 255.168 
L 223.454715 252.406356 
L 224.266554 243.016767 
L 224.834841 235.008 
L 226.783256 221.199781 
L 227.189175 217.885808 
L 227.919831 215.400329 
L 228.325751 212.362521 
L 228.569302 211.257863 
L 228.975222 209.600877 
L 229.462326 205.734575 
L 229.705877 203.52526 
L 230.598901 195.516493 
L 231.329556 193.307178 
L 231.41074 193.307178 
L 231.81666 192.202521 
L 231.897844 192.202521 
L 232.060211 191.926356 
L 232.141395 191.926356 
L 232.547315 190.821699 
L 232.628499 190.821699 
L 232.953235 191.650192 
L 233.034419 191.650192 
L 233.196786 191.926356 
L 233.27797 191.650192 
L 233.440338 191.926356 
L 233.927442 190.545534 
L 234.170994 190.545534 
L 234.414545 189.717041 
L 234.658097 188.060055 
L 234.901649 187.507726 
L 234.982833 187.507726 
L 236.038224 184.193753 
L 236.119408 184.193753 
L 236.36296 183.641425 
L 236.444144 183.641425 
L 236.687696 183.089096 
L 236.768879 183.089096 
L 237.499535 180.327452 
L 237.743087 179.222795 
L 237.905455 179.222795 
L 238.067822 179.498959 
L 238.392558 179.498959 
L 238.717294 178.394301 
L 238.960846 176.737315 
L 239.204397 175.632658 
L 239.447949 173.423342 
L 240.259789 164.033753 
L 241.152812 152.987178 
L 241.639915 149.120877 
L 241.964651 146.635397 
L 242.289387 145.254575 
L 242.695307 143.04526 
L 242.77649 143.04526 
L 242.938858 142.769096 
L 243.344778 142.769096 
L 243.669514 143.597589 
L 243.750698 143.597589 
L 243.994249 144.702247 
L 244.237801 145.806904 
L 244.481353 145.806904 
L 244.806089 146.635397 
L 244.887273 146.635397 
L 245.130825 147.187726 
L 245.212008 147.187726 
L 245.374376 146.911562 
L 245.45556 146.911562 
L 245.780296 146.083068 
L 245.86148 146.083068 
L 246.023848 145.806904 
L 246.186216 145.806904 
L 246.348584 146.083068 
L 246.429767 146.083068 
L 247.566342 150.225534 
L 247.891078 152.987178 
L 248.621734 159.338959 
L 249.352389 163.757589 
L 249.677125 164.586082 
L 249.758309 164.586082 
L 250.00186 165.138411 
L 250.083044 165.138411 
L 250.245412 165.414575 
L 250.8137 165.414575 
L 251.706723 170.937863 
L 251.787907 171.214027 
L 252.112643 173.423342 
L 252.762114 178.394301 
L 253.411586 183.917589 
L 253.573953 184.746082 
L 253.979873 187.231562 
L 254.061057 187.231562 
L 254.385793 188.060055 
L 254.466977 188.060055 
L 254.710529 188.612384 
L 254.791712 188.612384 
L 255.522368 186.403068 
L 255.684736 186.403068 
L 257.389598 192.478685 
L 258.282622 198.001973 
L 258.444989 198.278137 
L 258.526173 198.278137 
L 258.850909 199.10663 
L 259.500381 196.621151 
L 259.743932 195.516493 
L 260.068668 194.135671 
L 260.555772 191.097863 
L 260.880507 191.097863 
L 261.448795 193.307178 
L 261.773531 194.964164 
L 261.854715 195.240329 
L 262.098266 196.621151 
L 262.341818 197.725808 
L 262.504186 198.278137 
L 262.747738 199.382795 
L 264.290233 209.324712 
L 264.614968 210.153205 
L 264.777336 210.153205 
L 265.020888 210.705534 
L 265.26444 210.705534 
L 265.832727 209.048548 
L 265.913911 209.048548 
L 266.238647 210.153205 
L 266.563383 212.362521 
L 267.212854 216.228822 
L 268.349429 220.371288 
L 268.998901 224.237589 
L 269.080085 224.237589 
L 269.567188 226.17074 
L 269.973108 228.380055 
L 270.135476 228.656219 
L 270.460211 228.656219 
L 271.028499 226.446904 
L 271.353235 224.789918 
L 271.596786 224.237589 
L 271.759154 224.237589 
L 271.921522 224.513753 
L 272.002706 224.513753 
L 272.165074 224.789918 
L 272.246258 224.789918 
L 272.408626 225.066082 
L 272.733362 225.066082 
L 272.895729 225.342247 
L 272.976913 225.342247 
L 273.139281 225.618411 
L 273.220465 225.618411 
L 273.382833 225.894575 
L 273.464017 225.894575 
L 273.626385 225.618411 
L 273.951121 225.618411 
L 274.194672 226.723068 
L 274.438224 227.275397 
L 274.519408 227.275397 
L 274.681776 227.551562 
L 274.76296 227.551562 
L 274.925328 227.275397 
L 275.006512 227.275397 
L 275.574799 228.932384 
L 275.818351 228.380055 
L 275.899535 228.380055 
L 276.305455 226.723068 
L 277.198478 220.923616 
L 277.360846 220.923616 
L 277.523214 220.647452 
L 277.685581 220.647452 
L 277.929133 220.095123 
L 278.010317 220.095123 
L 278.172685 219.818959 
L 278.253869 219.818959 
L 278.416237 219.542795 
L 278.822156 219.542795 
L 279.228076 218.438137 
L 279.30926 218.438137 
L 279.390444 218.161973 
L 280.121099 220.371288 
L 280.445835 220.371288 
L 280.689387 221.475945 
L 281.17649 224.237589 
L 281.501226 224.237589 
L 281.907146 222.856767 
L 282.394249 218.990466 
L 282.718985 217.333479 
L 282.800169 217.333479 
L 283.043721 216.781151 
L 283.206089 216.781151 
L 283.368457 216.504986 
L 283.85556 216.504986 
L 284.017928 216.781151 
L 284.26148 216.781151 
L 284.342664 217.057315 
L 284.748584 215.952658 
L 284.910951 215.952658 
L 285.235687 216.781151 
L 285.316871 216.781151 
L 285.479239 217.057315 
L 285.641607 217.057315 
L 285.885159 216.228822 
L 286.372262 217.609644 
L 286.453446 217.609644 
L 287.346469 214.295671 
L 287.752389 210.981699 
L 287.995941 209.600877 
L 288.158309 209.600877 
L 288.645412 210.981699 
L 288.726596 210.981699 
L 288.970148 210.42937 
L 289.051332 210.42937 
L 289.2137 210.153205 
L 289.700803 210.153205 
L 289.863171 209.600877 
L 290.106723 208.772384 
L 290.756195 210.705534 
L 290.999746 210.705534 
L 291.243298 210.153205 
L 291.324482 210.153205 
L 291.48685 210.981699 
L 291.811586 212.638685 
L 291.89277 212.638685 
L 292.055137 212.362521 
L 292.136321 212.362521 
L 292.217505 212.638685 
L 292.785793 210.42937 
L 293.435264 204.629918 
L 293.76 203.249096 
L 294.653023 197.725808 
L 294.815391 196.897315 
L 295.62723 191.926356 
L 295.789598 191.926356 
L 296.03315 190.821699 
L 296.682622 186.955397 
L 297.169725 185.022247 
L 298.793404 169.557041 
L 299.11814 167.900055 
L 299.848795 165.138411 
L 300.173531 163.481425 
L 300.660634 162.100603 
L 300.98537 162.100603 
L 301.310106 161.27211 
L 301.39129 161.27211 
L 301.878393 159.891288 
L 301.959577 159.891288 
L 302.203129 158.78663 
L 302.690233 154.920329 
L 303.907992 143.597589 
L 304.313911 141.388274 
L 305.044567 138.62663 
L 305.206934 137.798137 
L 305.288118 137.798137 
L 305.450486 137.521973 
L 305.612854 137.798137 
L 305.694038 137.798137 
L 305.775222 138.074301 
L 305.93759 137.798137 
L 306.099958 137.798137 
L 306.505877 136.141151 
L 306.749429 135.036493 
L 306.830613 135.036493 
L 306.992981 134.208 
L 307.561268 130.065534 
L 308.779027 114.876493 
L 309.915603 104.382247 
L 310.402706 101.620603 
L 310.565074 100.79211 
L 311.620465 94.164164 
L 311.782833 93.335671 
L 312.919408 82.841425 
L 313.325328 80.355945 
L 313.893615 80.355945 
L 314.137167 81.460603 
L 314.299535 82.289096 
L 314.543087 84.498411 
L 315.273742 95.821151 
L 316.410317 113.495671 
L 317.222156 120.675945 
L 317.546892 122.332932 
L 317.871628 123.713753 
L 319.008203 131.998685 
L 320.144778 144.702247 
L 320.631882 149.94937 
L 321.118985 154.091836 
L 321.443721 155.472658 
L 321.687273 156.577315 
L 322.012008 157.405808 
L 322.174376 157.129644 
L 322.25556 157.129644 
L 322.66148 158.78663 
L 323.960423 168.176219 
L 324.93463 177.013479 
L 325.584101 180.879781 
L 326.071205 182.260603 
L 326.152389 182.260603 
L 326.314757 182.536767 
L 326.477125 182.260603 
L 326.558309 182.260603 
L 326.80186 181.708274 
L 327.532516 184.469918 
L 328.506723 191.650192 
L 329.48093 200.487452 
L 329.643298 201.315945 
L 330.455137 206.286904 
L 330.698689 206.839233 
L 330.779873 206.839233 
L 330.861057 207.115397 
L 331.429345 205.458411 
L 331.591712 205.458411 
L 331.75408 206.286904 
L 331.997632 208.220055 
L 332.403552 212.362521 
L 333.296575 217.885808 
L 333.540127 217.333479 
L 333.702495 218.161973 
L 333.946047 220.371288 
L 334.351966 223.409096 
L 334.757886 226.723068 
L 335.244989 233.351014 
L 335.732093 237.217315 
L 336.868668 241.359781 
L 337.193404 243.016767 
L 337.51814 244.397589 
L 337.924059 246.606904 
L 338.573531 248.540055 
L 338.654715 248.540055 
L 339.060634 249.644712 
L 339.141818 249.644712 
L 339.38537 250.197041 
L 339.547738 250.197041 
L 339.872474 249.368548 
L 339.953658 249.368548 
L 340.197209 249.920877 
L 340.278393 249.920877 
L 340.846681 247.711562 
L 342.06444 239.702795 
L 342.145624 239.702795 
L 342.876279 237.493479 
L 342.957463 237.493479 
L 343.363383 236.388822 
L 343.444567 236.388822 
L 344.012854 234.731836 
L 344.256406 235.284164 
L 344.33759 235.284164 
L 344.499958 235.560329 
L 344.662326 235.284164 
L 344.74351 235.284164 
L 345.068245 234.179507 
L 345.311797 234.731836 
L 345.474165 234.731836 
L 345.880085 233.074849 
L 346.691924 226.999233 
L 346.935476 225.342247 
L 347.260211 224.513753 
L 347.503763 224.513753 
L 347.666131 224.237589 
L 348.234419 224.237589 
L 348.47797 224.789918 
L 348.559154 224.789918 
L 348.721522 225.066082 
L 348.802706 225.066082 
L 348.965074 224.789918 
L 349.127442 224.789918 
L 349.614545 226.17074 
L 349.858097 226.17074 
L 350.182833 225.342247 
L 350.345201 225.342247 
L 350.588753 225.894575 
L 350.669937 225.894575 
L 351.15704 223.961425 
L 352.374799 216.228822 
L 352.537167 215.952658 
L 352.699535 215.952658 
L 352.861903 215.676493 
L 353.024271 215.676493 
L 353.105455 215.400329 
L 353.267822 215.676493 
L 353.511374 215.676493 
L 353.673742 215.952658 
L 353.83611 215.952658 
L 354.079662 215.400329 
L 354.972685 218.161973 
L 355.216237 218.161973 
L 355.378605 217.609644 
L 355.70334 218.990466 
L 355.865708 219.542795 
L 355.946892 219.542795 
L 356.10926 218.990466 
L 356.51518 217.333479 
L 357.408203 209.324712 
L 358.869514 204.077589 
L 359.437801 200.763616 
L 359.681353 199.658959 
L 361.629767 185.85074 
L 362.603975 177.013479 
L 364.227653 171.766356 
L 364.471205 171.766356 
L 364.633573 172.042521 
L 364.714757 172.042521 
L 364.877125 171.766356 
L 364.958309 171.766356 
L 365.526596 170.10937 
L 365.60778 170.10937 
L 365.688964 170.385534 
L 365.851332 170.10937 
L 365.932516 170.10937 
L 366.663171 167.347726 
L 367.231459 163.757589 
L 367.312643 163.757589 
L 367.475011 163.481425 
L 368.368034 163.481425 
L 368.449218 163.757589 
L 368.611586 163.481425 
L 368.773953 163.757589 
L 368.936321 163.481425 
L 369.017505 163.481425 
L 369.585793 165.138411 
L 369.666977 165.138411 
L 369.829345 165.414575 
L 370.072896 165.414575 
L 370.235264 165.138411 
L 370.316448 165.138411 
L 370.641184 164.309918 
L 370.722368 164.309918 
L 371.209471 161.548274 
L 371.290655 161.27211 
L 371.615391 159.062795 
L 372.183679 155.472658 
L 372.508414 155.472658 
L 372.589598 155.196493 
L 372.751966 155.472658 
L 372.914334 155.472658 
L 373.157886 156.024986 
L 373.23907 156.024986 
L 373.401438 156.301151 
L 373.563805 156.301151 
L 373.888541 157.681973 
L 374.132093 159.338959 
L 374.619197 160.719781 
L 374.781564 160.719781 
L 374.943932 160.443616 
L 375.1063 160.719781 
L 375.349852 160.719781 
L 376.161691 157.681973 
L 376.729979 154.368 
L 377.054715 153.539507 
L 377.298266 153.539507 
L 377.460634 153.263342 
L 378.110106 153.263342 
L 379.165497 156.577315 
L 379.409049 156.577315 
L 379.571416 156.301151 
L 379.6526 156.301151 
L 379.814968 156.577315 
L 380.383256 154.368 
L 381.113911 149.94937 
L 381.519831 148.844712 
L 381.682199 148.844712 
L 381.844567 149.120877 
L 382.006934 149.120877 
L 382.575222 150.777863 
L 382.656406 150.777863 
L 382.899958 151.882521 
L 383.468245 156.301151 
L 383.874165 159.338959 
L 384.442452 162.652932 
L 384.767188 163.481425 
L 384.848372 163.481425 
L 385.091924 164.033753 
L 385.335476 164.033753 
L 385.41666 163.757589 
L 385.497844 164.033753 
L 385.660211 163.757589 
L 385.741395 163.757589 
L 385.903763 163.481425 
L 386.309683 165.138411 
L 386.715603 167.347726 
L 386.87797 168.176219 
L 387.770994 174.528 
L 388.176913 178.670466 
L 388.582833 181.984438 
L 388.745201 182.812932 
L 389.069937 184.469918 
L 389.55704 185.85074 
L 389.638224 185.85074 
L 389.881776 186.403068 
L 390.125328 186.403068 
L 390.531247 185.298411 
L 390.774799 185.298411 
L 391.018351 185.85074 
L 391.099535 185.85074 
L 391.261903 186.403068 
L 392.398478 190.545534 
L 393.778605 199.382795 
L 394.265708 200.763616 
L 394.428076 200.763616 
L 394.671628 201.315945 
L 394.752812 201.315945 
L 395.077548 199.935123 
L 395.402283 198.278137 
L 395.483467 198.278137 
L 395.645835 198.001973 
L 395.727019 198.001973 
L 395.889387 198.278137 
L 395.970571 198.278137 
L 396.132939 198.554301 
L 396.214123 198.554301 
L 396.538858 199.382795 
L 396.620042 199.382795 
L 397.18833 201.039781 
L 397.269514 201.039781 
L 397.513066 201.59211 
L 397.594249 201.59211 
L 397.837801 202.144438 
L 397.918985 202.144438 
L 398.324905 204.353753 
L 398.487273 205.182247 
L 398.487273 205.182247 
" clip-path="url(#p579a16d0c4)" style="fill: none; stroke: #1f77b4; stroke-width: 1.5; stroke-linecap: square"/>
   </g>
   <g id="patch_3">
    <path d="M 57.6 307.584 
L 57.6 41.472 
" style="fill: none; stroke: #000000; stroke-width: 0.8; stroke-linejoin: miter; stroke-linecap: square"/>
   </g>
   <g id="patch_4">
    <path d="M 414.72 307.584 
L 414.72 41.472 
" style="fill: none; stroke: #000000; stroke-width: 0.8; stroke-linejoin: miter; stroke-linecap: square"/>
   </g>
   <g id="patch_5">
    <path d="M 57.6 307.584 
L 414.72 307.584 
" style="fill: none; stroke: #000000; stroke-width: 0.8; stroke-linejoin: miter; stroke-linecap: square"/>
   </g>
   <g id="patch_6">
    <path d="M 57.6 41.472 
L 414.72 41.472 
" style="fill: none; stroke: #000000; stroke-width: 0.8; stroke-linejoin: miter; stroke-linecap: square"/>
   </g>
  </g>
 </g>
 <defs>
  <clipPath id="p579a16d0c4">
   <rect x="57.6" y="41.472" width="357.12" height="266.112"/>
  </clipPath>
 </defs>
</svg>
