<?xml version="1.0" encoding="utf-8" standalone="no"?>
<!DOCTYPE svg PUBLIC "-//W3C//DTD SVG 1.1//EN"
  "http://www.w3.org/Graphics/SVG/1.1/DTD/svg11.dtd">
<svg xmlns:xlink="http://www.w3.org/1999/xlink" width="460.8pt" height="345.6pt" viewBox="0 0 460.8 345.6" xmlns="http://www.w3.org/2000/svg" version="1.1">
 <metadata>
  <rdf:RDF xmlns:dc="http://purl.org/dc/elements/1.1/" xmlns:cc="http://creativecommons.org/ns#" xmlns:rdf="http://www.w3.org/1999/02/22-rdf-syntax-ns#">
   <cc:Work>
    <dc:type rdf:resource="http://purl.org/dc/dcmitype/StillImage"/>
    <dc:date>2024-05-29T17:16:19.604462</dc:date>
    <dc:format>image/svg+xml</dc:format>
    <dc:creator>
     <cc:Agent>
      <dc:title>Matplotlib v3.8.2, https://matplotlib.org/</dc:title>
     </cc:Agent>
    </dc:creator>
   </cc:Work>
  </rdf:RDF>
 </metadata>
 <defs>
  <style type="text/css">*{stroke-linejoin: round; stroke-linecap: butt}</style>
 </defs>
 <g id="figure_1">
  <g id="patch_1">
   <path d="M 0 345.6 
L 460.8 345.6 
L 460.8 0 
L 0 0 
z
" style="fill: #ffffff"/>
  </g>
  <g id="axes_1">
   <g id="patch_2">
    <path d="M 57.6 307.584 
L 414.72 307.584 
L 414.72 41.472 
L 57.6 41.472 
z
" style="fill: #ffffff"/>
   </g>
   <g id="matplotlib.axis_1">
    <g id="xtick_1">
     <g id="line2d_1">
      <defs>
       <path id="mdac4ea753f" d="M 0 0 
L 0 3.5 
" style="stroke: #000000; stroke-width: 0.8"/>
      </defs>
      <g>
       <use xlink:href="#mdac4ea753f" x="106.3063" y="307.584" style="stroke: #000000; stroke-width: 0.8"/>
      </g>
     </g>
     <g id="text_1">
      <!-- −40 -->
      <g transform="translate(95.753956 322.182437) scale(0.1 -0.1)">
       <defs>
        <path id="DejaVuSans-2212" d="M 678 2272 
L 4684 2272 
L 4684 1741 
L 678 1741 
L 678 2272 
z
" transform="scale(0.015625)"/>
        <path id="DejaVuSans-34" d="M 2419 4116 
L 825 1625 
L 2419 1625 
L 2419 4116 
z
M 2253 4666 
L 3047 4666 
L 3047 1625 
L 3713 1625 
L 3713 1100 
L 3047 1100 
L 3047 0 
L 2419 0 
L 2419 1100 
L 313 1100 
L 313 1709 
L 2253 4666 
z
" transform="scale(0.015625)"/>
        <path id="DejaVuSans-30" d="M 2034 4250 
Q 1547 4250 1301 3770 
Q 1056 3291 1056 2328 
Q 1056 1369 1301 889 
Q 1547 409 2034 409 
Q 2525 409 2770 889 
Q 3016 1369 3016 2328 
Q 3016 3291 2770 3770 
Q 2525 4250 2034 4250 
z
M 2034 4750 
Q 2819 4750 3233 4129 
Q 3647 3509 3647 2328 
Q 3647 1150 3233 529 
Q 2819 -91 2034 -91 
Q 1250 -91 836 529 
Q 422 1150 422 2328 
Q 422 3509 836 4129 
Q 1250 4750 2034 4750 
z
" transform="scale(0.015625)"/>
       </defs>
       <use xlink:href="#DejaVuSans-2212"/>
       <use xlink:href="#DejaVuSans-34" x="83.789062"/>
       <use xlink:href="#DejaVuSans-30" x="147.412109"/>
      </g>
     </g>
    </g>
    <g id="xtick_2">
     <g id="line2d_2">
      <g>
       <use xlink:href="#mdac4ea753f" x="171.253446" y="307.584" style="stroke: #000000; stroke-width: 0.8"/>
      </g>
     </g>
     <g id="text_2">
      <!-- −20 -->
      <g transform="translate(160.701102 322.182437) scale(0.1 -0.1)">
       <defs>
        <path id="DejaVuSans-32" d="M 1228 531 
L 3431 531 
L 3431 0 
L 469 0 
L 469 531 
Q 828 903 1448 1529 
Q 2069 2156 2228 2338 
Q 2531 2678 2651 2914 
Q 2772 3150 2772 3378 
Q 2772 3750 2511 3984 
Q 2250 4219 1831 4219 
Q 1534 4219 1204 4116 
Q 875 4013 500 3803 
L 500 4441 
Q 881 4594 1212 4672 
Q 1544 4750 1819 4750 
Q 2544 4750 2975 4387 
Q 3406 4025 3406 3419 
Q 3406 3131 3298 2873 
Q 3191 2616 2906 2266 
Q 2828 2175 2409 1742 
Q 1991 1309 1228 531 
z
" transform="scale(0.015625)"/>
       </defs>
       <use xlink:href="#DejaVuSans-2212"/>
       <use xlink:href="#DejaVuSans-32" x="83.789062"/>
       <use xlink:href="#DejaVuSans-30" x="147.412109"/>
      </g>
     </g>
    </g>
    <g id="xtick_3">
     <g id="line2d_3">
      <g>
       <use xlink:href="#mdac4ea753f" x="236.200592" y="307.584" style="stroke: #000000; stroke-width: 0.8"/>
      </g>
     </g>
     <g id="text_3">
      <!-- 0 -->
      <g transform="translate(233.019342 322.182437) scale(0.1 -0.1)">
       <use xlink:href="#DejaVuSans-30"/>
      </g>
     </g>
    </g>
    <g id="xtick_4">
     <g id="line2d_4">
      <g>
       <use xlink:href="#mdac4ea753f" x="301.147738" y="307.584" style="stroke: #000000; stroke-width: 0.8"/>
      </g>
     </g>
     <g id="text_4">
      <!-- 20 -->
      <g transform="translate(294.785238 322.182437) scale(0.1 -0.1)">
       <use xlink:href="#DejaVuSans-32"/>
       <use xlink:href="#DejaVuSans-30" x="63.623047"/>
      </g>
     </g>
    </g>
    <g id="xtick_5">
     <g id="line2d_5">
      <g>
       <use xlink:href="#mdac4ea753f" x="366.094884" y="307.584" style="stroke: #000000; stroke-width: 0.8"/>
      </g>
     </g>
     <g id="text_5">
      <!-- 40 -->
      <g transform="translate(359.732384 322.182437) scale(0.1 -0.1)">
       <use xlink:href="#DejaVuSans-34"/>
       <use xlink:href="#DejaVuSans-30" x="63.623047"/>
      </g>
     </g>
    </g>
    <g id="text_6">
     <!-- Frequency [$Hz$] -->
     <g transform="translate(197.96 335.862125) scale(0.1 -0.1)">
      <defs>
       <path id="DejaVuSans-46" d="M 628 4666 
L 3309 4666 
L 3309 4134 
L 1259 4134 
L 1259 2759 
L 3109 2759 
L 3109 2228 
L 1259 2228 
L 1259 0 
L 628 0 
L 628 4666 
z
" transform="scale(0.015625)"/>
       <path id="DejaVuSans-72" d="M 2631 2963 
Q 2534 3019 2420 3045 
Q 2306 3072 2169 3072 
Q 1681 3072 1420 2755 
Q 1159 2438 1159 1844 
L 1159 0 
L 581 0 
L 581 3500 
L 1159 3500 
L 1159 2956 
Q 1341 3275 1631 3429 
Q 1922 3584 2338 3584 
Q 2397 3584 2469 3576 
Q 2541 3569 2628 3553 
L 2631 2963 
z
" transform="scale(0.015625)"/>
       <path id="DejaVuSans-65" d="M 3597 1894 
L 3597 1613 
L 953 1613 
Q 991 1019 1311 708 
Q 1631 397 2203 397 
Q 2534 397 2845 478 
Q 3156 559 3463 722 
L 3463 178 
Q 3153 47 2828 -22 
Q 2503 -91 2169 -91 
Q 1331 -91 842 396 
Q 353 884 353 1716 
Q 353 2575 817 3079 
Q 1281 3584 2069 3584 
Q 2775 3584 3186 3129 
Q 3597 2675 3597 1894 
z
M 3022 2063 
Q 3016 2534 2758 2815 
Q 2500 3097 2075 3097 
Q 1594 3097 1305 2825 
Q 1016 2553 972 2059 
L 3022 2063 
z
" transform="scale(0.015625)"/>
       <path id="DejaVuSans-71" d="M 947 1747 
Q 947 1113 1208 752 
Q 1469 391 1925 391 
Q 2381 391 2643 752 
Q 2906 1113 2906 1747 
Q 2906 2381 2643 2742 
Q 2381 3103 1925 3103 
Q 1469 3103 1208 2742 
Q 947 2381 947 1747 
z
M 2906 525 
Q 2725 213 2448 61 
Q 2172 -91 1784 -91 
Q 1150 -91 751 415 
Q 353 922 353 1747 
Q 353 2572 751 3078 
Q 1150 3584 1784 3584 
Q 2172 3584 2448 3432 
Q 2725 3281 2906 2969 
L 2906 3500 
L 3481 3500 
L 3481 -1331 
L 2906 -1331 
L 2906 525 
z
" transform="scale(0.015625)"/>
       <path id="DejaVuSans-75" d="M 544 1381 
L 544 3500 
L 1119 3500 
L 1119 1403 
Q 1119 906 1312 657 
Q 1506 409 1894 409 
Q 2359 409 2629 706 
Q 2900 1003 2900 1516 
L 2900 3500 
L 3475 3500 
L 3475 0 
L 2900 0 
L 2900 538 
Q 2691 219 2414 64 
Q 2138 -91 1772 -91 
Q 1169 -91 856 284 
Q 544 659 544 1381 
z
M 1991 3584 
L 1991 3584 
z
" transform="scale(0.015625)"/>
       <path id="DejaVuSans-6e" d="M 3513 2113 
L 3513 0 
L 2938 0 
L 2938 2094 
Q 2938 2591 2744 2837 
Q 2550 3084 2163 3084 
Q 1697 3084 1428 2787 
Q 1159 2491 1159 1978 
L 1159 0 
L 581 0 
L 581 3500 
L 1159 3500 
L 1159 2956 
Q 1366 3272 1645 3428 
Q 1925 3584 2291 3584 
Q 2894 3584 3203 3211 
Q 3513 2838 3513 2113 
z
" transform="scale(0.015625)"/>
       <path id="DejaVuSans-63" d="M 3122 3366 
L 3122 2828 
Q 2878 2963 2633 3030 
Q 2388 3097 2138 3097 
Q 1578 3097 1268 2742 
Q 959 2388 959 1747 
Q 959 1106 1268 751 
Q 1578 397 2138 397 
Q 2388 397 2633 464 
Q 2878 531 3122 666 
L 3122 134 
Q 2881 22 2623 -34 
Q 2366 -91 2075 -91 
Q 1284 -91 818 406 
Q 353 903 353 1747 
Q 353 2603 823 3093 
Q 1294 3584 2113 3584 
Q 2378 3584 2631 3529 
Q 2884 3475 3122 3366 
z
" transform="scale(0.015625)"/>
       <path id="DejaVuSans-79" d="M 2059 -325 
Q 1816 -950 1584 -1140 
Q 1353 -1331 966 -1331 
L 506 -1331 
L 506 -850 
L 844 -850 
Q 1081 -850 1212 -737 
Q 1344 -625 1503 -206 
L 1606 56 
L 191 3500 
L 800 3500 
L 1894 763 
L 2988 3500 
L 3597 3500 
L 2059 -325 
z
" transform="scale(0.015625)"/>
       <path id="DejaVuSans-20" transform="scale(0.015625)"/>
       <path id="DejaVuSans-5b" d="M 550 4863 
L 1875 4863 
L 1875 4416 
L 1125 4416 
L 1125 -397 
L 1875 -397 
L 1875 -844 
L 550 -844 
L 550 4863 
z
" transform="scale(0.015625)"/>
       <path id="DejaVuSans-Oblique-48" d="M 1081 4666 
L 1716 4666 
L 1344 2753 
L 3634 2753 
L 4006 4666 
L 4641 4666 
L 3731 0 
L 3097 0 
L 3531 2222 
L 1241 2222 
L 806 0 
L 172 0 
L 1081 4666 
z
" transform="scale(0.015625)"/>
       <path id="DejaVuSans-Oblique-7a" d="M 744 3500 
L 3475 3500 
L 3372 2975 
L 738 459 
L 2913 459 
L 2822 0 
L -19 0 
L 84 525 
L 2719 3041 
L 653 3041 
L 744 3500 
z
" transform="scale(0.015625)"/>
       <path id="DejaVuSans-5d" d="M 1947 4863 
L 1947 -844 
L 622 -844 
L 622 -397 
L 1369 -397 
L 1369 4416 
L 622 4416 
L 622 4863 
L 1947 4863 
z
" transform="scale(0.015625)"/>
      </defs>
      <use xlink:href="#DejaVuSans-46" transform="translate(0 0.015625)"/>
      <use xlink:href="#DejaVuSans-72" transform="translate(57.519531 0.015625)"/>
      <use xlink:href="#DejaVuSans-65" transform="translate(98.632812 0.015625)"/>
      <use xlink:href="#DejaVuSans-71" transform="translate(160.15625 0.015625)"/>
      <use xlink:href="#DejaVuSans-75" transform="translate(223.632812 0.015625)"/>
      <use xlink:href="#DejaVuSans-65" transform="translate(287.011719 0.015625)"/>
      <use xlink:href="#DejaVuSans-6e" transform="translate(348.535156 0.015625)"/>
      <use xlink:href="#DejaVuSans-63" transform="translate(411.914062 0.015625)"/>
      <use xlink:href="#DejaVuSans-79" transform="translate(466.894531 0.015625)"/>
      <use xlink:href="#DejaVuSans-20" transform="translate(526.074219 0.015625)"/>
      <use xlink:href="#DejaVuSans-5b" transform="translate(557.861328 0.015625)"/>
      <use xlink:href="#DejaVuSans-Oblique-48" transform="translate(596.875 0.015625)"/>
      <use xlink:href="#DejaVuSans-Oblique-7a" transform="translate(672.070312 0.015625)"/>
      <use xlink:href="#DejaVuSans-5d" transform="translate(724.560547 0.015625)"/>
     </g>
    </g>
   </g>
   <g id="matplotlib.axis_2">
    <g id="ytick_1">
     <g id="line2d_6">
      <defs>
       <path id="m5629457aaa" d="M 0 0 
L -3.5 0 
" style="stroke: #000000; stroke-width: 0.8"/>
      </defs>
      <g>
       <use xlink:href="#m5629457aaa" x="57.6" y="289.420514" style="stroke: #000000; stroke-width: 0.8"/>
      </g>
     </g>
     <g id="text_7">
      <!-- −20 -->
      <g transform="translate(29.495313 293.219733) scale(0.1 -0.1)">
       <use xlink:href="#DejaVuSans-2212"/>
       <use xlink:href="#DejaVuSans-32" x="83.789062"/>
       <use xlink:href="#DejaVuSans-30" x="147.412109"/>
      </g>
     </g>
    </g>
    <g id="ytick_2">
     <g id="line2d_7">
      <g>
       <use xlink:href="#m5629457aaa" x="57.6" y="253.093543" style="stroke: #000000; stroke-width: 0.8"/>
      </g>
     </g>
     <g id="text_8">
      <!-- −10 -->
      <g transform="translate(29.495313 256.892762) scale(0.1 -0.1)">
       <defs>
        <path id="DejaVuSans-31" d="M 794 531 
L 1825 531 
L 1825 4091 
L 703 3866 
L 703 4441 
L 1819 4666 
L 2450 4666 
L 2450 531 
L 3481 531 
L 3481 0 
L 794 0 
L 794 531 
z
" transform="scale(0.015625)"/>
       </defs>
       <use xlink:href="#DejaVuSans-2212"/>
       <use xlink:href="#DejaVuSans-31" x="83.789062"/>
       <use xlink:href="#DejaVuSans-30" x="147.412109"/>
      </g>
     </g>
    </g>
    <g id="ytick_3">
     <g id="line2d_8">
      <g>
       <use xlink:href="#m5629457aaa" x="57.6" y="216.766572" style="stroke: #000000; stroke-width: 0.8"/>
      </g>
     </g>
     <g id="text_9">
      <!-- 0 -->
      <g transform="translate(44.2375 220.565791) scale(0.1 -0.1)">
       <use xlink:href="#DejaVuSans-30"/>
      </g>
     </g>
    </g>
    <g id="ytick_4">
     <g id="line2d_9">
      <g>
       <use xlink:href="#m5629457aaa" x="57.6" y="180.439601" style="stroke: #000000; stroke-width: 0.8"/>
      </g>
     </g>
     <g id="text_10">
      <!-- 10 -->
      <g transform="translate(37.875 184.23882) scale(0.1 -0.1)">
       <use xlink:href="#DejaVuSans-31"/>
       <use xlink:href="#DejaVuSans-30" x="63.623047"/>
      </g>
     </g>
    </g>
    <g id="ytick_5">
     <g id="line2d_10">
      <g>
       <use xlink:href="#m5629457aaa" x="57.6" y="144.11263" style="stroke: #000000; stroke-width: 0.8"/>
      </g>
     </g>
     <g id="text_11">
      <!-- 20 -->
      <g transform="translate(37.875 147.911849) scale(0.1 -0.1)">
       <use xlink:href="#DejaVuSans-32"/>
       <use xlink:href="#DejaVuSans-30" x="63.623047"/>
      </g>
     </g>
    </g>
    <g id="ytick_6">
     <g id="line2d_11">
      <g>
       <use xlink:href="#m5629457aaa" x="57.6" y="107.785659" style="stroke: #000000; stroke-width: 0.8"/>
      </g>
     </g>
     <g id="text_12">
      <!-- 30 -->
      <g transform="translate(37.875 111.584878) scale(0.1 -0.1)">
       <defs>
        <path id="DejaVuSans-33" d="M 2597 2516 
Q 3050 2419 3304 2112 
Q 3559 1806 3559 1356 
Q 3559 666 3084 287 
Q 2609 -91 1734 -91 
Q 1441 -91 1130 -33 
Q 819 25 488 141 
L 488 750 
Q 750 597 1062 519 
Q 1375 441 1716 441 
Q 2309 441 2620 675 
Q 2931 909 2931 1356 
Q 2931 1769 2642 2001 
Q 2353 2234 1838 2234 
L 1294 2234 
L 1294 2753 
L 1863 2753 
Q 2328 2753 2575 2939 
Q 2822 3125 2822 3475 
Q 2822 3834 2567 4026 
Q 2313 4219 1838 4219 
Q 1578 4219 1281 4162 
Q 984 4106 628 3988 
L 628 4550 
Q 988 4650 1302 4700 
Q 1616 4750 1894 4750 
Q 2613 4750 3031 4423 
Q 3450 4097 3450 3541 
Q 3450 3153 3228 2886 
Q 3006 2619 2597 2516 
z
" transform="scale(0.015625)"/>
       </defs>
       <use xlink:href="#DejaVuSans-33"/>
       <use xlink:href="#DejaVuSans-30" x="63.623047"/>
      </g>
     </g>
    </g>
    <g id="ytick_7">
     <g id="line2d_12">
      <g>
       <use xlink:href="#m5629457aaa" x="57.6" y="71.458688" style="stroke: #000000; stroke-width: 0.8"/>
      </g>
     </g>
     <g id="text_13">
      <!-- 40 -->
      <g transform="translate(37.875 75.257907) scale(0.1 -0.1)">
       <use xlink:href="#DejaVuSans-34"/>
       <use xlink:href="#DejaVuSans-30" x="63.623047"/>
      </g>
     </g>
    </g>
    <g id="text_14">
     <!-- Amplitude [dB] -->
     <g transform="translate(23.415625 212.245969) rotate(-90) scale(0.1 -0.1)">
      <defs>
       <path id="DejaVuSans-41" d="M 2188 4044 
L 1331 1722 
L 3047 1722 
L 2188 4044 
z
M 1831 4666 
L 2547 4666 
L 4325 0 
L 3669 0 
L 3244 1197 
L 1141 1197 
L 716 0 
L 50 0 
L 1831 4666 
z
" transform="scale(0.015625)"/>
       <path id="DejaVuSans-6d" d="M 3328 2828 
Q 3544 3216 3844 3400 
Q 4144 3584 4550 3584 
Q 5097 3584 5394 3201 
Q 5691 2819 5691 2113 
L 5691 0 
L 5113 0 
L 5113 2094 
Q 5113 2597 4934 2840 
Q 4756 3084 4391 3084 
Q 3944 3084 3684 2787 
Q 3425 2491 3425 1978 
L 3425 0 
L 2847 0 
L 2847 2094 
Q 2847 2600 2669 2842 
Q 2491 3084 2119 3084 
Q 1678 3084 1418 2786 
Q 1159 2488 1159 1978 
L 1159 0 
L 581 0 
L 581 3500 
L 1159 3500 
L 1159 2956 
Q 1356 3278 1631 3431 
Q 1906 3584 2284 3584 
Q 2666 3584 2933 3390 
Q 3200 3197 3328 2828 
z
" transform="scale(0.015625)"/>
       <path id="DejaVuSans-70" d="M 1159 525 
L 1159 -1331 
L 581 -1331 
L 581 3500 
L 1159 3500 
L 1159 2969 
Q 1341 3281 1617 3432 
Q 1894 3584 2278 3584 
Q 2916 3584 3314 3078 
Q 3713 2572 3713 1747 
Q 3713 922 3314 415 
Q 2916 -91 2278 -91 
Q 1894 -91 1617 61 
Q 1341 213 1159 525 
z
M 3116 1747 
Q 3116 2381 2855 2742 
Q 2594 3103 2138 3103 
Q 1681 3103 1420 2742 
Q 1159 2381 1159 1747 
Q 1159 1113 1420 752 
Q 1681 391 2138 391 
Q 2594 391 2855 752 
Q 3116 1113 3116 1747 
z
" transform="scale(0.015625)"/>
       <path id="DejaVuSans-6c" d="M 603 4863 
L 1178 4863 
L 1178 0 
L 603 0 
L 603 4863 
z
" transform="scale(0.015625)"/>
       <path id="DejaVuSans-69" d="M 603 3500 
L 1178 3500 
L 1178 0 
L 603 0 
L 603 3500 
z
M 603 4863 
L 1178 4863 
L 1178 4134 
L 603 4134 
L 603 4863 
z
" transform="scale(0.015625)"/>
       <path id="DejaVuSans-74" d="M 1172 4494 
L 1172 3500 
L 2356 3500 
L 2356 3053 
L 1172 3053 
L 1172 1153 
Q 1172 725 1289 603 
Q 1406 481 1766 481 
L 2356 481 
L 2356 0 
L 1766 0 
Q 1100 0 847 248 
Q 594 497 594 1153 
L 594 3053 
L 172 3053 
L 172 3500 
L 594 3500 
L 594 4494 
L 1172 4494 
z
" transform="scale(0.015625)"/>
       <path id="DejaVuSans-64" d="M 2906 2969 
L 2906 4863 
L 3481 4863 
L 3481 0 
L 2906 0 
L 2906 525 
Q 2725 213 2448 61 
Q 2172 -91 1784 -91 
Q 1150 -91 751 415 
Q 353 922 353 1747 
Q 353 2572 751 3078 
Q 1150 3584 1784 3584 
Q 2172 3584 2448 3432 
Q 2725 3281 2906 2969 
z
M 947 1747 
Q 947 1113 1208 752 
Q 1469 391 1925 391 
Q 2381 391 2643 752 
Q 2906 1113 2906 1747 
Q 2906 2381 2643 2742 
Q 2381 3103 1925 3103 
Q 1469 3103 1208 2742 
Q 947 2381 947 1747 
z
" transform="scale(0.015625)"/>
       <path id="DejaVuSans-42" d="M 1259 2228 
L 1259 519 
L 2272 519 
Q 2781 519 3026 730 
Q 3272 941 3272 1375 
Q 3272 1813 3026 2020 
Q 2781 2228 2272 2228 
L 1259 2228 
z
M 1259 4147 
L 1259 2741 
L 2194 2741 
Q 2656 2741 2882 2914 
Q 3109 3088 3109 3444 
Q 3109 3797 2882 3972 
Q 2656 4147 2194 4147 
L 1259 4147 
z
M 628 4666 
L 2241 4666 
Q 2963 4666 3353 4366 
Q 3744 4066 3744 3513 
Q 3744 3084 3544 2831 
Q 3344 2578 2956 2516 
Q 3422 2416 3680 2098 
Q 3938 1781 3938 1306 
Q 3938 681 3513 340 
Q 3088 0 2303 0 
L 628 0 
L 628 4666 
z
" transform="scale(0.015625)"/>
      </defs>
      <use xlink:href="#DejaVuSans-41"/>
      <use xlink:href="#DejaVuSans-6d" x="68.408203"/>
      <use xlink:href="#DejaVuSans-70" x="165.820312"/>
      <use xlink:href="#DejaVuSans-6c" x="229.296875"/>
      <use xlink:href="#DejaVuSans-69" x="257.080078"/>
      <use xlink:href="#DejaVuSans-74" x="284.863281"/>
      <use xlink:href="#DejaVuSans-75" x="324.072266"/>
      <use xlink:href="#DejaVuSans-64" x="387.451172"/>
      <use xlink:href="#DejaVuSans-65" x="450.927734"/>
      <use xlink:href="#DejaVuSans-20" x="512.451172"/>
      <use xlink:href="#DejaVuSans-5b" x="544.238281"/>
      <use xlink:href="#DejaVuSans-64" x="583.251953"/>
      <use xlink:href="#DejaVuSans-42" x="646.728516"/>
      <use xlink:href="#DejaVuSans-5d" x="715.332031"/>
     </g>
    </g>
   </g>
   <g id="line2d_13">
    <path d="M 73.832727 167.001845 
L 73.913911 193.202808 
L 73.995095 179.93934 
L 74.076279 181.867255 
L 74.157463 179.59962 
L 74.401015 185.23087 
L 74.482199 180.601612 
L 74.563383 190.965866 
L 74.644567 187.144259 
L 74.725751 192.144803 
L 74.806934 176.203742 
L 74.888118 182.611619 
L 74.969302 175.00175 
L 75.050486 196.284679 
L 75.13167 174.772575 
L 75.212854 178.907286 
L 75.375222 198.757182 
L 75.53759 171.927464 
L 75.699958 181.770084 
L 75.781142 211.98096 
L 75.94351 175.613044 
L 76.024693 175.045932 
L 76.105877 210.611818 
L 76.349429 180.746996 
L 76.430613 180.38424 
L 76.511797 176.665105 
L 76.674165 200.507692 
L 76.755349 184.897952 
L 76.836533 188.396059 
L 76.998901 201.459242 
L 77.080085 179.837178 
L 77.161268 188.05381 
L 77.242452 180.436844 
L 77.40482 203.569698 
L 77.567188 177.857638 
L 77.729556 193.534617 
L 77.891924 180.361956 
L 78.054292 189.599341 
L 78.297844 174.208415 
L 78.460211 197.267326 
L 78.541395 208.700981 
L 78.703763 177.099385 
L 78.866131 197.055935 
L 78.947315 178.085775 
L 79.109683 191.607453 
L 79.190867 190.431262 
L 79.272051 193.982013 
L 79.353235 183.690297 
L 79.434419 201.086747 
L 79.515603 187.871999 
L 79.67797 218.416909 
L 79.840338 180.441705 
L 80.002706 184.904695 
L 80.08389 208.675818 
L 80.246258 187.072785 
L 80.327442 190.961813 
L 80.408626 201.99634 
L 80.570994 193.241098 
L 80.652178 197.437291 
L 80.733362 179.160545 
L 80.814545 192.408733 
L 80.976913 179.002949 
L 81.058097 179.108762 
L 81.139281 181.94963 
L 81.220465 198.901353 
L 81.382833 184.872517 
L 81.464017 187.508527 
L 81.626385 179.180452 
L 81.707569 189.879308 
L 81.869937 176.92195 
L 82.032304 187.261426 
L 82.113488 184.684616 
L 82.194672 186.387005 
L 82.275856 178.651918 
L 82.35704 185.413546 
L 82.438224 205.237022 
L 82.600592 178.607766 
L 82.681776 183.382243 
L 82.844144 188.586766 
L 82.925328 187.834743 
L 83.006512 179.247894 
L 83.250063 199.317035 
L 83.493615 174.976679 
L 83.655983 191.925243 
L 83.737167 191.6114 
L 83.899535 179.126323 
L 83.980719 192.072998 
L 84.143087 176.836955 
L 84.224271 182.747326 
L 84.305455 186.707739 
L 84.386638 198.676754 
L 84.467822 196.330014 
L 84.549006 192.364475 
L 84.63019 180.222956 
L 84.711374 181.020541 
L 84.792558 185.524369 
L 84.873742 206.967238 
L 85.03611 181.060572 
L 85.117294 186.794239 
L 85.198478 196.168801 
L 85.279662 185.105062 
L 85.360846 186.606192 
L 85.523214 180.380455 
L 85.604397 190.135056 
L 85.685581 218.912316 
L 85.847949 178.328427 
L 85.929133 176.993697 
L 86.010317 201.770609 
L 86.172685 183.447135 
L 86.253869 193.541051 
L 86.335053 189.35438 
L 86.416237 179.106114 
L 86.740973 201.295633 
L 86.822156 196.060901 
L 86.90334 175.989501 
L 86.984524 184.780186 
L 87.065708 181.47182 
L 87.30926 195.743587 
L 87.390444 184.660225 
L 87.471628 185.340866 
L 87.633996 194.45502 
L 87.796364 176.814976 
L 88.121099 193.679719 
L 88.202283 186.700933 
L 88.364651 193.989301 
L 88.527019 180.965864 
L 88.608203 183.459906 
L 88.689387 182.460803 
L 88.851755 193.47496 
L 88.932939 180.54687 
L 89.014123 182.156938 
L 89.095307 180.41074 
L 89.17649 205.56424 
L 89.257674 184.14223 
L 89.338858 194.756247 
L 89.420042 183.233921 
L 89.501226 187.537086 
L 89.58241 183.435758 
L 89.663594 192.400964 
L 89.907146 173.856855 
L 90.069514 194.034071 
L 90.231882 176.521564 
L 90.394249 186.795306 
L 90.475433 179.940119 
L 90.556617 189.717955 
L 90.637801 178.067395 
L 90.718985 189.963009 
L 90.800169 183.309791 
L 90.881353 195.166163 
L 90.962537 175.194855 
L 91.043721 200.221741 
L 91.124905 185.023325 
L 91.206089 193.50623 
L 91.287273 181.597603 
L 91.449641 201.500196 
L 91.530825 189.954907 
L 91.612008 197.869829 
L 91.693192 178.203361 
L 91.774376 219.747369 
L 91.85556 172.056328 
L 91.936744 189.39876 
L 92.017928 185.89433 
L 92.099112 198.726231 
L 92.26148 182.413373 
L 92.342664 182.964162 
L 92.6674 195.238804 
L 92.910951 174.374965 
L 92.992135 175.38329 
L 93.154503 198.15686 
L 93.316871 175.455228 
L 93.479239 191.666287 
L 93.560423 184.103324 
L 93.641607 188.839042 
L 93.722791 222.32967 
L 93.803975 180.486432 
L 93.885159 187.586012 
L 93.966342 194.555748 
L 94.12871 183.540928 
L 94.209894 189.21313 
L 94.291078 185.096565 
L 94.372262 186.207429 
L 94.453446 187.314242 
L 94.53463 194.837416 
L 94.615814 178.993415 
L 94.696998 182.765457 
L 94.859366 189.961696 
L 94.94055 185.008701 
L 95.021734 185.384274 
L 95.102918 192.756959 
L 95.346469 181.879423 
L 95.427653 185.879267 
L 95.508837 177.231079 
L 95.590021 179.010507 
L 95.671205 178.462571 
L 95.752389 183.162056 
L 95.833573 200.721267 
L 96.077125 169.885408 
L 96.158309 186.967494 
L 96.239493 179.239917 
L 96.320677 219.43969 
L 96.40186 185.335757 
L 96.483044 186.763977 
L 96.564228 183.139105 
L 96.645412 205.934122 
L 96.726596 180.147101 
L 96.80778 184.909492 
L 96.888964 184.850906 
L 96.970148 186.947781 
L 97.051332 185.636641 
L 97.2137 216.665072 
L 97.294884 181.105963 
L 97.376068 190.549618 
L 97.457252 207.716141 
L 97.619619 177.184108 
L 97.700803 188.037227 
L 97.781987 180.282303 
L 97.863171 194.115613 
L 98.106723 177.936106 
L 98.187907 202.301484 
L 98.350275 179.521063 
L 98.431459 179.512692 
L 98.512643 178.452168 
L 98.593827 190.886184 
L 98.675011 186.450978 
L 98.756195 183.814599 
L 98.837378 176.893086 
L 99.162114 202.420451 
L 99.324482 177.729959 
L 99.405666 189.998397 
L 99.48685 186.272775 
L 99.568034 178.277589 
L 99.649218 190.969506 
L 99.730402 186.64792 
L 99.811586 192.925098 
L 100.055137 176.163618 
L 100.136321 206.814094 
L 100.379873 173.745092 
L 100.542241 186.618312 
L 100.623425 221.62406 
L 100.785793 174.132016 
L 100.866977 176.856893 
L 101.029345 204.559522 
L 101.110529 180.415244 
L 101.191712 180.577855 
L 101.272896 178.889374 
L 101.35408 187.209267 
L 101.435264 207.87687 
L 101.597632 173.15008 
L 101.841184 188.202743 
L 102.003552 180.898527 
L 102.247104 191.511918 
L 102.409471 173.90925 
L 102.571839 198.15562 
L 102.734207 177.951148 
L 102.815391 175.037601 
L 102.977759 188.256349 
L 103.058943 186.614225 
L 103.140127 175.446045 
L 103.221311 178.795561 
L 103.383679 187.221448 
L 103.464863 189.255624 
L 103.546047 181.56306 
L 103.62723 183.317618 
L 103.789598 188.026727 
L 103.870782 180.224079 
L 104.114334 201.607704 
L 104.195518 180.798602 
L 104.276702 182.77793 
L 104.357886 185.858097 
L 104.43907 181.12622 
L 104.520254 213.941473 
L 104.682622 184.773474 
L 104.763805 178.793241 
L 104.844989 180.830316 
L 104.926173 188.657904 
L 105.007357 186.691341 
L 105.088541 183.219055 
L 105.169725 174.933134 
L 105.332093 186.538111 
L 105.413277 183.24823 
L 105.494461 185.744449 
L 105.575645 178.257915 
L 105.656829 188.797033 
L 105.738013 186.252061 
L 105.819197 186.616844 
L 105.900381 179.382424 
L 106.062748 189.743307 
L 106.143932 177.4048 
L 106.387484 206.910612 
L 106.549852 184.094406 
L 106.71222 193.908065 
L 106.793404 183.684793 
L 106.955772 198.512494 
L 107.036956 182.980198 
L 107.11814 196.044257 
L 107.361691 183.351892 
L 107.442875 185.372801 
L 107.524059 178.497506 
L 107.605243 180.85473 
L 107.686427 178.313428 
L 107.848795 197.556095 
L 107.929979 194.360842 
L 108.011163 176.199224 
L 108.092347 181.2047 
L 108.173531 176.744134 
L 108.335899 193.983131 
L 108.417082 188.14874 
L 108.57945 187.799477 
L 108.660634 185.5782 
L 108.741818 176.663033 
L 108.823002 200.269646 
L 108.904186 188.748618 
L 108.98537 193.100182 
L 109.066554 180.046181 
L 109.228922 196.353939 
L 109.39129 184.443789 
L 109.472474 181.679712 
L 109.553658 182.590884 
L 109.634841 182.440556 
L 109.716025 188.251485 
L 109.878393 180.91019 
L 109.959577 177.48455 
L 110.040761 197.895687 
L 110.121945 194.795418 
L 110.203129 178.007161 
L 110.284313 182.512171 
L 110.365497 178.337923 
L 110.446681 187.098734 
L 110.690233 176.64288 
L 110.8526 197.738237 
L 111.014968 175.730134 
L 111.25852 202.089453 
L 111.339704 174.52996 
L 111.583256 203.530442 
L 111.745624 184.848666 
L 111.826808 194.117767 
L 111.907992 188.316828 
L 112.070359 198.064536 
L 112.151543 194.194159 
L 112.232727 174.040121 
L 112.395095 182.706961 
L 112.557463 176.693348 
L 112.638647 189.72999 
L 112.719831 186.481937 
L 112.801015 190.927322 
L 112.882199 205.625126 
L 112.963383 174.924738 
L 113.044567 178.551247 
L 113.125751 184.154058 
L 113.206934 211.744629 
L 113.288118 179.606443 
L 113.369302 180.564653 
L 113.450486 178.049046 
L 113.53167 195.465617 
L 113.612854 193.418473 
L 113.775222 182.466806 
L 113.856406 184.615404 
L 113.93759 206.283629 
L 114.099958 177.746511 
L 114.181142 177.892242 
L 114.34351 187.536346 
L 114.424693 192.562347 
L 114.505877 184.791384 
L 114.587061 186.441355 
L 114.668245 204.438484 
L 114.749429 201.819801 
L 114.830613 196.975402 
L 114.992981 181.913449 
L 115.074165 178.650837 
L 115.317717 190.489522 
L 115.398901 181.442922 
L 115.480085 184.058792 
L 115.642452 189.354549 
L 115.723636 173.947877 
L 115.80482 179.432047 
L 115.886004 181.854958 
L 115.967188 200.165553 
L 116.129556 179.241598 
L 116.21074 180.290766 
L 116.291924 184.564612 
L 116.373108 198.167955 
L 116.535476 173.685823 
L 116.61666 182.217204 
L 116.697844 204.65763 
L 116.779027 179.896962 
L 116.860211 180.877345 
L 116.941395 186.017673 
L 117.103763 180.651717 
L 117.184947 208.584908 
L 117.347315 174.59785 
L 117.428499 190.251551 
L 117.509683 182.672462 
L 117.590867 193.361464 
L 117.672051 184.710836 
L 117.753235 187.730946 
L 117.834419 183.187935 
L 117.915603 209.128034 
L 118.159154 174.235636 
L 118.402706 194.008272 
L 118.565074 180.871863 
L 118.727442 198.060278 
L 118.808626 194.152802 
L 118.88981 180.914944 
L 118.970994 189.870267 
L 119.052178 180.20253 
L 119.133362 193.486005 
L 119.214545 189.930247 
L 119.295729 194.422252 
L 119.376913 174.37997 
L 119.458097 179.674158 
L 119.539281 180.425581 
L 119.782833 198.91409 
L 119.864017 184.527854 
L 119.945201 187.882479 
L 120.026385 189.500341 
L 120.188753 173.712312 
L 120.351121 193.036477 
L 120.513488 178.459243 
L 120.594672 178.002259 
L 120.675856 243.980027 
L 120.838224 184.874507 
L 120.919408 180.0492 
L 121.000592 182.110941 
L 121.081776 178.141418 
L 121.16296 187.534039 
L 121.244144 185.094223 
L 121.325328 177.704714 
L 121.487696 220.062425 
L 121.568879 213.607904 
L 121.650063 180.970132 
L 121.731247 198.977769 
L 121.812431 185.007554 
L 121.893615 192.121713 
L 122.055983 179.625371 
L 122.137167 180.294049 
L 122.218351 188.725463 
L 122.299535 180.833499 
L 122.461903 184.857308 
L 122.543087 174.558782 
L 122.705455 196.337423 
L 122.867822 178.510367 
L 122.949006 179.654483 
L 123.111374 184.580838 
L 123.192558 180.161123 
L 123.273742 183.586883 
L 123.43611 181.156981 
L 123.598478 193.383398 
L 123.679662 183.826033 
L 123.84203 207.717755 
L 123.923214 177.424382 
L 124.004397 187.196508 
L 124.166765 204.351735 
L 124.247949 189.884511 
L 124.329133 193.537295 
L 124.572685 187.536838 
L 124.653869 188.616716 
L 124.735053 198.532307 
L 124.897421 176.022377 
L 124.978605 183.294802 
L 125.059789 201.289563 
L 125.140973 181.496668 
L 125.222156 187.617195 
L 125.30334 180.216743 
L 125.384524 192.644909 
L 125.546892 181.543696 
L 125.70926 187.337771 
L 125.790444 192.503757 
L 125.952812 183.796565 
L 126.033996 197.280041 
L 126.11518 196.269522 
L 126.196364 198.000273 
L 126.277548 176.374815 
L 126.358732 178.235601 
L 126.439915 177.740364 
L 126.521099 194.421544 
L 126.602283 193.099702 
L 126.683467 182.070632 
L 126.764651 182.273592 
L 126.845835 180.931104 
L 126.927019 216.701848 
L 127.008203 184.202249 
L 127.089387 188.401102 
L 127.170571 176.724239 
L 127.332939 194.287242 
L 127.414123 180.813088 
L 127.495307 184.423522 
L 127.57649 187.154464 
L 127.657674 184.780901 
L 127.738858 177.644246 
L 127.820042 191.44175 
L 127.901226 188.156131 
L 127.98241 195.425515 
L 128.063594 178.216836 
L 128.144778 191.389162 
L 128.307146 175.509995 
L 128.469514 191.103015 
L 128.550698 190.974986 
L 128.713066 175.725766 
L 128.875433 192.493065 
L 128.956617 186.448966 
L 129.118985 176.281665 
L 129.362537 187.39917 
L 129.443721 183.603428 
L 129.606089 187.390328 
L 129.687273 183.932561 
L 129.768457 193.328676 
L 129.849641 190.661204 
L 130.012008 172.598195 
L 130.174376 198.746412 
L 130.336744 175.893337 
L 130.417928 199.257626 
L 130.499112 182.172955 
L 130.66148 192.857241 
L 130.823848 174.350874 
L 130.905032 195.94794 
L 130.986216 192.839523 
L 131.0674 179.716071 
L 131.148584 181.213595 
L 131.229767 181.929688 
L 131.310951 199.849233 
L 131.392135 195.956341 
L 131.473319 174.277187 
L 131.554503 177.528253 
L 131.716871 190.456772 
L 131.798055 187.699502 
L 131.879239 190.576668 
L 131.960423 175.687548 
L 132.122791 192.765885 
L 132.285159 176.873737 
L 132.366342 195.721188 
L 132.447526 190.020267 
L 132.52871 198.907289 
L 132.691078 181.476772 
L 132.772262 178.880282 
L 133.015814 190.026057 
L 133.096998 181.166972 
L 133.178182 184.516304 
L 133.259366 182.411904 
L 133.34055 195.309222 
L 133.502918 176.836926 
L 133.584101 195.742056 
L 133.827653 180.769952 
L 133.990021 185.335982 
L 134.071205 192.650388 
L 134.395941 174.774337 
L 134.477125 201.218814 
L 134.639493 175.392525 
L 134.883044 185.681332 
L 134.964228 210.146455 
L 135.045412 205.360339 
L 135.20778 175.555797 
L 135.370148 190.218836 
L 135.451332 174.904683 
L 135.694884 202.930545 
L 135.776068 183.457751 
L 135.857252 189.34381 
L 135.938436 178.864702 
L 136.019619 182.467301 
L 136.100803 189.744512 
L 136.181987 186.848578 
L 136.263171 174.320026 
L 136.344355 174.684117 
L 136.587907 192.720764 
L 136.669091 181.666941 
L 136.750275 183.027094 
L 136.831459 176.387501 
L 136.912643 189.027386 
L 136.993827 178.59598 
L 137.075011 184.203524 
L 137.156195 175.525883 
L 137.237378 186.606117 
L 137.318562 186.191304 
L 137.399746 179.171482 
L 137.562114 187.985767 
L 137.643298 186.294711 
L 137.724482 178.951702 
L 137.805666 186.073091 
L 137.88685 182.216947 
L 138.049218 203.277113 
L 138.211586 181.303868 
L 138.29277 192.995122 
L 138.373953 184.876906 
L 138.455137 196.9485 
L 138.536321 195.210829 
L 138.698689 177.100015 
L 138.779873 206.323558 
L 138.861057 193.866002 
L 138.942241 200.439206 
L 139.104609 179.838594 
L 139.348161 190.520044 
L 139.429345 175.651447 
L 139.510529 185.56826 
L 139.591712 181.516659 
L 139.672896 182.888275 
L 139.835264 178.794732 
L 139.916448 183.695287 
L 139.997632 178.934416 
L 140.078816 193.155464 
L 140.322368 178.122214 
L 140.403552 189.069657 
L 140.647104 172.638936 
L 140.809471 185.382385 
L 140.890655 181.171221 
L 141.134207 202.955481 
L 141.377759 177.833743 
L 141.540127 196.113238 
L 141.702495 179.375355 
L 141.783679 185.556576 
L 141.864863 217.450823 
L 141.946047 207.540675 
L 142.108414 179.976109 
L 142.189598 177.996433 
L 142.270782 187.058756 
L 142.514334 178.431386 
L 142.757886 188.690372 
L 142.920254 175.402564 
L 143.082622 186.429979 
L 143.407357 176.578143 
L 143.488541 186.760444 
L 143.569725 186.749427 
L 143.650909 175.77642 
L 143.813277 185.271658 
L 143.894461 209.157458 
L 144.056829 175.429291 
L 144.300381 203.906754 
L 144.462748 180.782698 
L 144.625116 183.445508 
L 144.7063 206.021248 
L 144.787484 184.086778 
L 144.868668 188.136032 
L 144.949852 186.858864 
L 145.031036 195.266905 
L 145.193404 180.995257 
L 145.355772 190.900125 
L 145.436956 180.892339 
L 145.599323 192.393706 
L 145.761691 178.208089 
L 145.924059 197.32185 
L 146.086427 174.939887 
L 146.167611 178.188123 
L 146.329979 206.219663 
L 146.492347 178.576525 
L 146.573531 178.275672 
L 146.654715 192.422356 
L 146.817082 174.897245 
L 146.898266 176.080485 
L 147.141818 199.160091 
L 147.223002 180.179909 
L 147.304186 181.59871 
L 147.38537 179.830936 
L 147.547738 188.747134 
L 147.710106 179.590876 
L 147.79129 180.398194 
L 147.872474 193.753307 
L 147.953658 191.697461 
L 148.034841 188.174061 
L 148.116025 176.341356 
L 148.197209 189.351047 
L 148.278393 185.245632 
L 148.359577 186.762138 
L 148.440761 178.497326 
L 148.521945 179.132556 
L 148.684313 202.666613 
L 148.846681 175.307699 
L 148.927865 181.988782 
L 149.009049 181.607999 
L 149.090233 226.112623 
L 149.171416 176.201269 
L 149.2526 178.642816 
L 149.333784 176.497176 
L 149.496152 186.404681 
L 149.577336 176.304359 
L 149.65852 177.859882 
L 149.739704 180.636243 
L 149.820888 190.05807 
L 149.902072 187.167591 
L 149.983256 174.231976 
L 150.06444 177.205789 
L 150.226808 201.216061 
L 150.389175 177.959124 
L 150.470359 190.661158 
L 150.551543 182.355738 
L 150.632727 195.195788 
L 150.795095 183.476223 
L 151.038647 206.293918 
L 151.201015 178.182955 
L 151.282199 178.940807 
L 151.444567 198.5589 
L 151.606934 171.532409 
L 151.850486 208.564951 
L 152.012854 174.214723 
L 152.175222 187.750042 
L 152.256406 178.626579 
L 152.33759 179.103501 
L 152.418774 179.357853 
L 152.499958 186.83577 
L 152.74351 174.967873 
L 152.824693 180.74989 
L 152.905877 198.686574 
L 153.149429 180.405494 
L 153.230613 189.806532 
L 153.474165 179.180799 
L 153.636533 184.46477 
L 153.717717 184.420495 
L 153.798901 200.419276 
L 153.880085 176.275705 
L 153.961268 186.899324 
L 154.042452 182.145115 
L 154.123636 196.788145 
L 154.20482 179.035506 
L 154.286004 188.635936 
L 154.367188 176.787371 
L 154.529556 184.46791 
L 154.61074 174.142575 
L 154.773108 186.951691 
L 154.854292 192.368573 
L 155.01666 176.279462 
L 155.097844 177.434321 
L 155.341395 186.214229 
L 155.503763 177.273059 
L 155.584947 186.754319 
L 155.666131 183.464031 
L 155.747315 179.702775 
L 155.828499 191.992674 
L 155.990867 179.952427 
L 156.072051 181.192189 
L 156.234419 190.200193 
L 156.47797 177.134095 
L 156.640338 186.536539 
L 156.721522 197.711488 
L 156.88389 176.941936 
L 156.965074 192.200377 
L 157.208626 174.80198 
L 157.28981 194.747442 
L 157.370994 173.11727 
L 157.452178 180.544609 
L 157.533362 180.80426 
L 157.695729 186.38216 
L 157.776913 186.297457 
L 157.858097 190.507213 
L 158.020465 181.931426 
L 158.182833 183.86699 
L 158.264017 186.939122 
L 158.345201 179.868884 
L 158.426385 182.507768 
L 158.507569 188.950722 
L 158.588753 186.400205 
L 158.751121 179.545418 
L 159.075856 185.863381 
L 159.15704 182.982313 
L 159.238224 188.225565 
L 159.400592 183.807874 
L 159.481776 175.811977 
L 159.725328 189.922174 
L 159.806512 179.319751 
L 159.887696 182.542659 
L 159.968879 181.956356 
L 160.050063 190.498331 
L 160.131247 189.798739 
L 160.374799 174.386031 
L 160.455983 184.294444 
L 160.537167 180.949902 
L 160.618351 189.379064 
L 160.699535 171.819267 
L 160.943087 186.102553 
L 161.186638 172.700835 
L 161.349006 189.864853 
L 161.511374 173.763224 
L 161.673742 192.815321 
L 161.754926 178.65569 
L 161.83611 180.06683 
L 161.917294 180.131367 
L 161.998478 183.443571 
L 162.079662 182.226272 
L 162.160846 181.970088 
L 162.24203 180.784716 
L 162.404397 186.830459 
L 162.485581 185.665921 
L 162.647949 175.788409 
L 162.810317 189.427109 
L 163.053869 180.391831 
L 163.135053 181.442308 
L 163.216237 189.844653 
L 163.540973 176.206561 
L 163.70334 187.25086 
L 163.865708 173.021899 
L 163.946892 175.191282 
L 164.10926 183.874851 
L 164.271628 172.687135 
L 164.433996 192.555721 
L 164.596364 178.60086 
L 164.677548 178.716985 
L 164.758732 192.385704 
L 164.839915 183.722077 
L 164.921099 185.004914 
L 165.002283 180.620701 
L 165.083467 182.411252 
L 165.327019 191.474191 
L 165.408203 193.441176 
L 165.489387 177.533369 
L 165.570571 179.098978 
L 165.651755 208.59586 
L 165.814123 179.902599 
L 165.895307 178.676257 
L 166.057674 184.745058 
L 166.138858 191.111928 
L 166.301226 174.296452 
L 166.463594 182.041244 
L 166.625962 176.099854 
L 166.707146 178.719692 
L 166.78833 186.81165 
L 167.031882 174.442952 
L 167.194249 184.797136 
L 167.356617 175.227525 
L 167.437801 178.222283 
L 167.518985 180.673709 
L 167.600169 191.218322 
L 167.762537 180.708431 
L 167.843721 179.350246 
L 167.924905 184.254847 
L 168.006089 200.038224 
L 168.168457 181.681458 
L 168.249641 191.709986 
L 168.330825 178.454805 
L 168.412008 187.391826 
L 168.574376 176.955538 
L 168.65556 177.897425 
L 168.736744 179.297888 
L 168.817928 190.851378 
L 168.980296 170.800585 
L 169.142664 189.815621 
L 169.386216 170.768749 
L 169.4674 171.460222 
L 169.629767 184.169916 
L 169.792135 173.353796 
L 169.954503 186.984597 
L 170.116871 174.256752 
L 170.279239 180.969899 
L 170.360423 177.814751 
L 170.441607 183.422918 
L 170.522791 182.51151 
L 170.603975 177.600511 
L 170.685159 182.689623 
L 170.766342 181.523243 
L 170.92871 174.803235 
L 171.009894 175.484342 
L 171.172262 187.201413 
L 171.253446 178.100205 
L 171.33463 178.272734 
L 171.496998 196.96164 
L 171.578182 192.148988 
L 171.659366 174.228168 
L 171.74055 176.338312 
L 171.821734 180.680826 
L 171.902918 191.836379 
L 172.146469 173.313903 
L 172.308837 187.22747 
L 172.390021 172.953133 
L 172.471205 176.632523 
L 172.552389 197.043518 
L 172.714757 179.321462 
L 172.795941 182.252765 
L 172.877125 174.091484 
L 172.958309 176.897268 
L 173.039493 190.808633 
L 173.120677 189.531795 
L 173.283044 176.446065 
L 173.445412 181.781581 
L 173.526596 186.826218 
L 173.688964 172.897544 
L 173.932516 183.445212 
L 174.094884 171.226697 
L 174.257252 185.002957 
L 174.663171 175.133527 
L 174.744355 178.712245 
L 174.825539 176.795869 
L 174.906723 176.802968 
L 175.069091 188.821073 
L 175.231459 175.164648 
L 175.312643 177.206803 
L 175.393827 186.96734 
L 175.475011 180.726152 
L 175.556195 183.511974 
L 175.637378 173.804021 
L 175.799746 178.326666 
L 175.88093 178.73683 
L 175.962114 181.97042 
L 176.043298 172.923115 
L 176.124482 174.244209 
L 176.28685 187.963008 
L 176.449218 171.862236 
L 176.611586 191.059707 
L 176.773953 174.370457 
L 176.855137 174.761451 
L 177.017505 187.260463 
L 177.098689 186.007452 
L 177.179873 175.367063 
L 177.261057 176.583964 
L 177.342241 188.708436 
L 177.423425 185.316741 
L 177.585793 176.023865 
L 177.666977 175.469102 
L 177.829345 188.432303 
L 177.991712 179.492668 
L 178.072896 175.996369 
L 178.235264 195.80366 
L 178.316448 175.162731 
L 178.397632 177.376077 
L 178.478816 176.769217 
L 178.56 184.943013 
L 178.803552 174.329359 
L 178.96592 185.29525 
L 179.128288 172.739817 
L 179.209471 179.722588 
L 179.290655 174.876749 
L 179.371839 191.664247 
L 179.453023 187.496974 
L 179.615391 173.976663 
L 179.696575 188.27319 
L 179.777759 177.732563 
L 179.858943 177.778357 
L 179.940127 171.988564 
L 180.021311 172.686381 
L 180.102495 189.786467 
L 180.183679 185.755755 
L 180.346047 174.683247 
L 180.42723 175.943811 
L 180.589598 189.382656 
L 180.751966 172.726049 
L 180.914334 178.523065 
L 180.995518 177.280307 
L 181.076702 176.046797 
L 181.157886 180.572996 
L 181.23907 173.434838 
L 181.320254 184.469378 
L 181.563805 169.955044 
L 181.726173 182.366716 
L 181.807357 175.304301 
L 181.888541 176.307459 
L 182.050909 177.020091 
L 182.213277 182.667329 
L 182.294461 174.004594 
L 182.375645 175.501248 
L 182.456829 177.817288 
L 182.538013 184.65492 
L 182.700381 170.746426 
L 182.781564 174.068663 
L 182.862748 185.515303 
L 183.025116 175.078794 
L 183.1063 176.46644 
L 183.187484 185.590553 
L 183.268668 177.396977 
L 183.349852 179.093699 
L 183.431036 178.407798 
L 183.51222 173.785958 
L 183.755772 180.531779 
L 183.836956 177.247662 
L 183.91814 179.603859 
L 183.999323 177.825486 
L 184.080507 178.460481 
L 184.161691 177.914153 
L 184.242875 175.916352 
L 184.324059 185.041815 
L 184.486427 176.909838 
L 184.567611 178.708967 
L 184.648795 175.612181 
L 184.729979 176.458109 
L 184.811163 177.94818 
L 184.892347 183.43299 
L 185.217082 172.055265 
L 185.298266 184.703019 
L 185.37945 181.955929 
L 185.541818 173.682301 
L 185.623002 173.725248 
L 185.704186 180.53123 
L 185.78537 179.34031 
L 185.866554 178.583732 
L 185.947738 183.803644 
L 186.110106 174.100941 
L 186.19129 180.445588 
L 186.272474 180.112168 
L 186.434841 173.948103 
L 186.516025 180.704846 
L 186.597209 178.304182 
L 186.759577 172.696531 
L 186.840761 178.339927 
L 187.003129 171.220159 
L 187.084313 171.351898 
L 187.165497 173.087219 
L 187.327865 185.266661 
L 187.409049 169.15672 
L 187.490233 172.630783 
L 187.571416 171.200631 
L 187.6526 175.497048 
L 187.733784 185.687004 
L 187.814968 168.255452 
L 187.896152 172.537121 
L 188.05852 179.845139 
L 188.139704 171.685884 
L 188.220888 184.901762 
L 188.302072 178.718591 
L 188.383256 180.254679 
L 188.545624 178.330619 
L 188.707992 169.377408 
L 188.870359 186.965611 
L 189.032727 169.629257 
L 189.113911 171.630627 
L 189.195095 179.859821 
L 189.438647 172.091803 
L 189.519831 172.225032 
L 189.601015 175.515264 
L 189.682199 184.195621 
L 189.763383 168.422398 
L 189.844567 171.182186 
L 189.925751 173.25745 
L 190.006934 185.428002 
L 190.169302 170.980573 
L 190.250486 171.59862 
L 190.33167 173.815181 
L 190.494038 170.636273 
L 190.575222 172.952982 
L 190.656406 170.078581 
L 190.73759 176.145192 
L 190.818774 174.626663 
L 190.899958 176.16579 
L 190.981142 168.004813 
L 191.062326 175.809521 
L 191.14351 175.005976 
L 191.224693 180.551306 
L 191.468245 170.459027 
L 191.630613 182.048631 
L 191.711797 182.502873 
L 191.792981 171.792144 
L 191.874165 174.282876 
L 192.036533 186.239573 
L 192.198901 173.031466 
L 192.280085 183.288373 
L 192.361268 178.590316 
L 192.442452 186.174071 
L 192.60482 171.240406 
L 192.686004 183.106525 
L 192.767188 172.69705 
L 192.848372 180.430542 
L 193.01074 170.762162 
L 193.091924 185.021137 
L 193.173108 180.541284 
L 193.335476 169.713998 
L 193.41666 168.793742 
L 193.497844 181.239997 
L 193.660211 171.956647 
L 193.741395 175.502796 
L 193.903763 170.335517 
L 194.066131 176.004446 
L 194.228499 169.139426 
L 194.390867 177.807722 
L 194.472051 185.368815 
L 194.553235 177.39007 
L 194.634419 178.736206 
L 194.715603 173.836071 
L 194.796786 179.522913 
L 194.87797 167.11356 
L 194.959154 180.134619 
L 195.040338 177.618238 
L 195.121522 177.50905 
L 195.28389 166.765644 
L 195.365074 179.630361 
L 195.446258 178.468013 
L 195.527442 185.036445 
L 195.608626 174.31213 
L 195.68981 179.920405 
L 195.770994 169.027391 
L 195.852178 171.44532 
L 195.933362 165.727727 
L 196.095729 177.251144 
L 196.176913 173.519959 
L 196.258097 179.347226 
L 196.420465 172.24329 
L 196.501649 175.695682 
L 196.582833 167.749534 
L 196.664017 169.21856 
L 196.745201 176.808517 
L 196.826385 167.448793 
L 196.907569 169.959439 
L 196.988753 170.240467 
L 197.069937 164.521726 
L 197.232304 172.35947 
L 197.313488 163.754577 
L 197.475856 175.377657 
L 197.55704 175.470276 
L 197.638224 164.907454 
L 197.719408 181.906038 
L 197.800592 172.120061 
L 197.881776 181.989355 
L 197.96296 168.284251 
L 198.044144 172.459914 
L 198.125328 169.384655 
L 198.368879 183.717029 
L 198.450063 167.711747 
L 198.531247 175.742642 
L 198.612431 168.940476 
L 198.693615 171.224721 
L 198.774799 166.134503 
L 198.855983 173.972179 
L 198.937167 172.200966 
L 199.018351 166.189737 
L 199.180719 171.816507 
L 199.343087 169.295649 
L 199.424271 176.392513 
L 199.667822 164.790531 
L 199.83019 181.261753 
L 199.911374 166.074129 
L 199.992558 170.322736 
L 200.073742 167.881876 
L 200.154926 161.84735 
L 200.23611 177.156261 
L 200.317294 172.170815 
L 200.560846 164.505479 
L 200.723214 171.326143 
L 200.804397 171.563426 
L 200.885581 168.613917 
L 200.966765 171.635354 
L 201.047949 170.257562 
L 201.129133 171.489744 
L 201.210317 171.136906 
L 201.291501 183.783833 
L 201.535053 172.454084 
L 201.616237 176.257845 
L 201.697421 161.457195 
L 201.859789 176.832164 
L 202.022156 163.591187 
L 202.10334 169.8873 
L 202.184524 162.810856 
L 202.346892 178.948743 
L 202.50926 166.814221 
L 202.590444 181.901518 
L 202.752812 172.262555 
L 202.833996 179.69743 
L 202.91518 166.098156 
L 202.996364 170.898119 
L 203.077548 176.062216 
L 203.158732 174.716828 
L 203.239915 171.648651 
L 203.321099 161.506787 
L 203.483467 168.349947 
L 203.645835 165.406731 
L 203.727019 172.089697 
L 203.808203 172.039627 
L 203.970571 166.420476 
L 204.051755 166.267966 
L 204.132939 171.596115 
L 204.214123 165.69781 
L 204.295307 166.40181 
L 204.37649 170.523535 
L 204.457674 166.545933 
L 204.620042 177.000501 
L 204.701226 160.155026 
L 204.78241 165.912074 
L 204.863594 162.457156 
L 205.025962 171.686988 
L 205.107146 173.632749 
L 205.18833 164.865023 
L 205.269514 170.982697 
L 205.350698 160.658993 
L 205.431882 169.437674 
L 205.513066 168.532704 
L 205.594249 166.449095 
L 205.675433 168.872544 
L 205.756617 164.105445 
L 205.837801 174.802878 
L 205.918985 163.823672 
L 206.000169 171.120306 
L 206.081353 167.801099 
L 206.162537 181.239219 
L 206.243721 167.512011 
L 206.324905 168.242339 
L 206.406089 172.145242 
L 206.487273 182.260465 
L 206.568457 167.862649 
L 206.649641 180.022462 
L 206.730825 167.685687 
L 206.812008 179.061821 
L 206.974376 166.598741 
L 207.05556 178.384615 
L 207.217928 165.792634 
L 207.299112 168.849715 
L 207.380296 162.691951 
L 207.46148 164.300887 
L 207.542664 171.720232 
L 207.623848 162.191035 
L 207.786216 176.102194 
L 207.948584 167.298306 
L 208.029767 184.809959 
L 208.192135 167.522822 
L 208.273319 162.888783 
L 208.354503 168.856687 
L 208.435687 168.240659 
L 208.516871 171.178035 
L 208.598055 171.070388 
L 208.679239 157.588831 
L 208.760423 158.506511 
L 208.841607 177.142449 
L 208.922791 163.882933 
L 209.003975 165.898392 
L 209.166342 161.510062 
L 209.32871 165.57904 
L 209.409894 169.717446 
L 209.572262 155.041407 
L 209.653446 158.531957 
L 209.73463 157.19597 
L 209.815814 161.435907 
L 209.896998 154.7147 
L 210.14055 170.591503 
L 210.221734 158.642665 
L 210.384101 167.844432 
L 210.465285 172.575913 
L 210.546469 154.711169 
L 210.627653 160.924226 
L 210.708837 181.216982 
L 210.790021 159.892396 
L 210.871205 176.665663 
L 210.952389 153.969214 
L 211.033573 159.640608 
L 211.114757 156.268422 
L 211.358309 176.377681 
L 211.439493 165.948247 
L 211.520677 166.386598 
L 211.60186 176.247219 
L 211.683044 159.749699 
L 211.926596 175.297268 
L 212.00778 175.885429 
L 212.251332 164.564687 
L 212.4137 163.587184 
L 212.494884 160.111004 
L 212.576068 165.820497 
L 212.657252 160.489491 
L 212.738436 161.36392 
L 212.819619 162.700072 
L 212.900803 155.401743 
L 213.063171 161.191965 
L 213.144355 158.407577 
L 213.306723 174.695892 
L 213.387907 161.484604 
L 213.469091 179.481017 
L 213.550275 161.872903 
L 213.712643 182.148838 
L 213.875011 158.539596 
L 214.037378 169.33538 
L 214.28093 151.158998 
L 214.362114 158.283345 
L 214.443298 184.488924 
L 214.524482 155.426423 
L 214.605666 156.762369 
L 214.68685 171.898921 
L 214.768034 159.243177 
L 214.849218 165.816162 
L 214.930402 165.022993 
L 215.011586 157.13387 
L 215.09277 173.752972 
L 215.173953 154.530584 
L 215.255137 163.589306 
L 215.336321 153.085194 
L 215.417505 160.017503 
L 215.579873 152.485058 
L 215.661057 159.577986 
L 215.742241 158.352709 
L 215.904609 155.004953 
L 215.985793 161.507088 
L 216.148161 153.142272 
L 216.229345 151.635668 
L 216.310529 162.866717 
L 216.391712 162.003236 
L 216.472896 161.476439 
L 216.55408 157.943188 
L 216.635264 172.728574 
L 216.716448 165.9031 
L 216.797632 184.629512 
L 217.041184 160.331435 
L 217.122368 169.25095 
L 217.284736 163.664624 
L 217.36592 165.964674 
L 217.528288 160.033946 
L 217.609471 159.110839 
L 217.690655 161.727945 
L 217.771839 157.327366 
L 217.853023 160.134124 
L 217.934207 153.700148 
L 218.015391 165.749316 
L 218.258943 152.408657 
L 218.340127 164.336695 
L 218.421311 154.917967 
L 218.502495 170.204138 
L 218.664863 154.50816 
L 218.746047 164.874881 
L 218.82723 155.729935 
L 218.908414 158.06215 
L 219.070782 154.236536 
L 219.151966 160.127392 
L 219.23315 159.314733 
L 219.314334 159.493391 
L 219.476702 144.711973 
L 219.557886 167.167973 
L 219.63907 154.340815 
L 219.720254 165.638573 
L 219.801438 150.281114 
L 219.882622 154.708738 
L 220.044989 157.716975 
L 220.126173 162.649732 
L 220.207357 160.95037 
L 220.288541 158.425439 
L 220.450909 169.541812 
L 220.532093 152.558161 
L 220.613277 165.032056 
L 220.694461 152.820838 
L 220.775645 153.301687 
L 220.856829 162.74772 
L 220.938013 144.539547 
L 221.019197 155.516143 
L 221.181564 145.458779 
L 221.262748 184.472364 
L 221.343932 146.456703 
L 221.425116 157.246405 
L 221.5063 156.589857 
L 221.668668 153.656393 
L 221.831036 155.605096 
L 221.91222 153.958942 
L 221.993404 161.468185 
L 222.155772 145.53489 
L 222.236956 163.393887 
L 222.31814 150.114323 
L 222.399323 153.684679 
L 222.480507 146.45106 
L 222.561691 149.531599 
L 222.642875 157.228581 
L 222.724059 148.70148 
L 222.805243 154.445747 
L 222.886427 154.076201 
L 222.967611 151.397251 
L 223.048795 161.328643 
L 223.129979 157.997739 
L 223.211163 151.491665 
L 223.373531 169.962816 
L 223.454715 153.744975 
L 223.535899 157.861682 
L 223.698266 156.405921 
L 223.77945 165.998194 
L 223.860634 149.099051 
L 223.941818 164.718896 
L 224.104186 144.110595 
L 224.266554 153.242178 
L 224.347738 148.244613 
L 224.428922 155.910498 
L 224.510106 141.441915 
L 224.59129 152.424693 
L 224.834841 144.744641 
L 225.159577 162.671729 
L 225.240761 141.29447 
L 225.321945 146.191791 
L 225.484313 164.532671 
L 225.565497 167.166628 
L 225.646681 139.775306 
L 225.727865 142.701827 
L 225.971416 150.589688 
L 226.0526 141.70014 
L 226.133784 156.375267 
L 226.214968 145.059228 
L 226.296152 155.52909 
L 226.45852 136.018519 
L 226.539704 167.091331 
L 226.620888 143.124479 
L 226.702072 147.055691 
L 226.783256 152.096296 
L 227.270359 129.316705 
L 227.351543 140.553281 
L 227.432727 130.918454 
L 227.595095 140.566149 
L 227.757463 123.622685 
L 227.919831 143.35646 
L 228.001015 129.434981 
L 228.082199 157.571472 
L 228.163383 132.195509 
L 228.244567 151.874499 
L 228.325751 140.170819 
L 228.406934 181.177431 
L 228.569302 131.036209 
L 228.650486 132.18569 
L 228.73167 138.736632 
L 228.894038 125.33966 
L 228.975222 141.827998 
L 229.056406 137.841788 
L 229.13759 128.366463 
L 229.299958 160.03673 
L 229.381142 136.920711 
L 229.462326 157.367829 
L 229.624693 138.81727 
L 229.705877 136.581214 
L 229.787061 146.227377 
L 229.868245 141.594176 
L 229.949429 127.792655 
L 230.030613 133.358981 
L 230.111797 116.386021 
L 230.192981 120.399561 
L 230.436533 143.730218 
L 230.517717 119.682715 
L 230.598901 129.746056 
L 230.761268 110.293679 
L 230.842452 144.230728 
L 230.923636 113.714805 
L 231.00482 120.64603 
L 231.086004 128.054638 
L 231.167188 126.232234 
L 231.248372 125.134811 
L 231.329556 112.606044 
L 231.41074 120.242459 
L 231.491924 118.01338 
L 231.654292 115.930388 
L 231.735476 110.837933 
L 231.81666 114.658315 
L 231.897844 103.209938 
L 231.979027 103.470114 
L 232.060211 135.742234 
L 232.141395 105.930895 
L 232.222579 107.293204 
L 232.303763 120.544112 
L 232.384947 109.318586 
L 232.466131 117.571455 
L 232.547315 116.835894 
L 232.709683 106.200577 
L 232.872051 132.217394 
L 233.034419 102.52894 
L 233.115603 109.932716 
L 233.196786 93.344314 
L 233.27797 119.179157 
L 233.359154 93.456299 
L 233.440338 100.445812 
L 233.521522 134.599442 
L 233.68389 92.181829 
L 233.765074 111.617836 
L 233.846258 112.077987 
L 233.927442 102.453039 
L 234.008626 121.385667 
L 234.08981 100.822463 
L 234.170994 103.008935 
L 234.252178 92.575185 
L 234.333362 109.520968 
L 234.414545 101.601252 
L 234.495729 129.137884 
L 234.576913 81.278319 
L 234.658097 83.911927 
L 234.739281 91.612849 
L 234.901649 82.321025 
L 235.145201 78.127112 
L 235.307569 81.011046 
L 235.388753 89.130164 
L 235.469937 69.403818 
L 235.551121 78.870578 
L 235.713488 51.115239 
L 235.875856 73.330753 
L 235.95704 74.849742 
L 236.119408 86.414427 
L 236.200592 79.736007 
L 236.281776 86.414427 
L 236.36296 85.69645 
L 236.525328 73.330753 
L 236.606512 68.67324 
L 236.687696 51.115239 
L 236.850063 78.870578 
L 236.931247 69.403818 
L 237.012431 89.130164 
L 237.174799 80.431088 
L 237.255983 78.127112 
L 237.337167 78.656222 
L 237.580719 83.706994 
L 237.661903 91.612849 
L 237.824271 81.278319 
L 237.905455 129.137884 
L 237.986638 101.601252 
L 238.067822 109.520968 
L 238.149006 92.575185 
L 238.392558 121.385667 
L 238.473742 102.453039 
L 238.554926 112.077987 
L 238.63611 111.617836 
L 238.717294 92.181829 
L 238.879662 134.599442 
L 239.04203 93.456299 
L 239.123214 119.179157 
L 239.204397 93.344314 
L 239.285581 109.932716 
L 239.366765 102.52894 
L 239.447949 110.446877 
L 239.529133 132.217394 
L 239.691501 106.200577 
L 239.772685 108.762496 
L 239.935053 117.571455 
L 240.016237 109.318586 
L 240.097421 120.544112 
L 240.259789 105.930895 
L 240.340973 135.742234 
L 240.50334 103.209938 
L 240.584524 114.658315 
L 240.665708 110.837933 
L 240.828076 117.177914 
L 240.90926 118.01338 
L 240.990444 120.242459 
L 241.071628 112.606044 
L 241.233996 126.232234 
L 241.31518 128.054638 
L 241.477548 113.714805 
L 241.558732 144.230728 
L 241.639915 110.293679 
L 241.721099 115.192592 
L 241.802283 129.746056 
L 241.883467 119.682715 
L 241.964651 143.730218 
L 242.208203 120.399561 
L 242.289387 116.386021 
L 242.370571 133.358981 
L 242.451755 127.792655 
L 242.614123 146.227377 
L 242.695307 136.581214 
L 242.77649 138.81727 
L 242.857674 143.019551 
L 242.938858 157.367829 
L 243.020042 136.920711 
L 243.101226 160.03673 
L 243.18241 158.823885 
L 243.263594 128.366463 
L 243.344778 137.841788 
L 243.425962 141.827998 
L 243.507146 125.33966 
L 243.58833 127.474502 
L 243.669514 138.736632 
L 243.831882 131.036209 
L 243.913066 132.904815 
L 243.994249 181.177431 
L 244.075433 140.170819 
L 244.156617 151.874499 
L 244.237801 132.195509 
L 244.318985 157.571472 
L 244.400169 129.434981 
L 244.481353 143.35646 
L 244.643721 123.622685 
L 244.806089 140.566149 
L 244.968457 130.918454 
L 245.049641 140.553281 
L 245.130825 129.316705 
L 245.45556 149.884278 
L 245.536744 148.818946 
L 245.617928 152.096296 
L 245.780296 143.124479 
L 245.86148 167.091331 
L 245.942664 136.018519 
L 246.105032 155.52909 
L 246.186216 145.059228 
L 246.2674 156.375267 
L 246.348584 141.70014 
L 246.429767 150.589688 
L 246.510951 148.732153 
L 246.754503 139.775306 
L 246.835687 167.166628 
L 246.916871 164.532671 
L 246.998055 161.804802 
L 247.160423 141.29447 
L 247.241607 162.671729 
L 247.322791 154.409253 
L 247.403975 159.274235 
L 247.566342 144.744641 
L 247.809894 152.424693 
L 247.891078 141.441915 
L 247.972262 155.910498 
L 248.053446 148.244613 
L 248.13463 153.242178 
L 248.296998 144.110595 
L 248.378182 149.22466 
L 248.459366 164.718896 
L 248.54055 149.099051 
L 248.621734 165.998194 
L 248.702918 156.405921 
L 248.784101 157.115198 
L 248.865285 157.861682 
L 248.946469 153.744975 
L 249.027653 169.962816 
L 249.108837 167.678892 
L 249.190021 151.491665 
L 249.352389 161.328643 
L 249.433573 151.397251 
L 249.514757 154.076201 
L 249.595941 154.445747 
L 249.677125 148.70148 
L 249.758309 157.228581 
L 249.920677 146.45106 
L 250.00186 153.684679 
L 250.083044 150.114323 
L 250.164228 163.393887 
L 250.245412 145.53489 
L 250.326596 151.435901 
L 250.40778 161.468185 
L 250.488964 153.958942 
L 250.570148 155.605096 
L 250.732516 153.656393 
L 250.8137 154.462767 
L 250.976068 157.246405 
L 251.057252 146.456703 
L 251.138436 184.472364 
L 251.219619 145.458779 
L 251.300803 149.054431 
L 251.381987 155.516143 
L 251.463171 144.539547 
L 251.544355 162.74772 
L 251.706723 152.820838 
L 251.787907 165.032056 
L 251.869091 152.558161 
L 251.950275 169.541812 
L 252.112643 158.425439 
L 252.275011 162.649732 
L 252.437378 156.333612 
L 252.518562 154.708738 
L 252.599746 150.281114 
L 252.68093 165.638573 
L 252.762114 154.340815 
L 252.843298 167.167973 
L 252.924482 144.711973 
L 253.005666 146.118282 
L 253.08685 159.493391 
L 253.168034 159.314733 
L 253.249218 160.127392 
L 253.330402 154.236536 
L 253.411586 154.972507 
L 253.49277 158.06215 
L 253.573953 155.729935 
L 253.655137 164.874881 
L 253.736321 154.50816 
L 253.898689 170.204138 
L 253.979873 154.917967 
L 254.061057 164.336695 
L 254.142241 152.408657 
L 254.223425 156.361103 
L 254.385793 165.749316 
L 254.466977 153.700148 
L 254.548161 160.134124 
L 254.629345 157.327366 
L 254.710529 161.727945 
L 254.791712 159.110839 
L 254.872896 160.033946 
L 254.95408 160.659054 
L 255.035264 165.964674 
L 255.116448 163.664624 
L 255.197632 164.421179 
L 255.278816 169.25095 
L 255.36 160.331435 
L 255.603552 184.629512 
L 255.684736 165.9031 
L 255.76592 172.728574 
L 255.847104 157.943188 
L 255.928288 161.476439 
L 256.090655 162.866717 
L 256.171839 151.635668 
L 256.253023 153.142272 
L 256.334207 155.20449 
L 256.415391 161.507088 
L 256.496575 155.004953 
L 256.577759 156.534288 
L 256.740127 159.577986 
L 256.821311 152.485058 
L 256.983679 160.017503 
L 257.064863 153.085194 
L 257.146047 163.589306 
L 257.22723 154.530584 
L 257.308414 173.752972 
L 257.389598 157.13387 
L 257.551966 165.816162 
L 257.63315 159.243177 
L 257.714334 171.898921 
L 257.876702 155.426423 
L 257.957886 184.488924 
L 258.120254 151.158998 
L 258.363805 169.33538 
L 258.526173 158.539596 
L 258.607357 165.475594 
L 258.688541 182.148838 
L 258.850909 161.872903 
L 258.932093 179.481017 
L 259.013277 161.484604 
L 259.094461 174.695892 
L 259.175645 171.097874 
L 259.256829 158.407577 
L 259.338013 161.191965 
L 259.419197 160.793475 
L 259.500381 155.401743 
L 259.581564 162.700072 
L 259.662748 161.36392 
L 259.743932 160.489491 
L 259.825116 165.820497 
L 259.9063 160.111004 
L 260.068668 164.082148 
L 260.149852 164.564687 
L 260.393404 175.885429 
L 260.474588 175.297268 
L 260.71814 159.749699 
L 260.799323 176.247219 
L 260.961691 165.948247 
L 261.042875 176.377681 
L 261.286427 156.268422 
L 261.367611 159.640608 
L 261.448795 153.969214 
L 261.529979 176.665663 
L 261.611163 159.892396 
L 261.692347 181.216982 
L 261.854715 154.711169 
L 261.935899 172.575913 
L 262.017082 167.844432 
L 262.098266 167.789194 
L 262.17945 158.642665 
L 262.260634 170.591503 
L 262.341818 166.210804 
L 262.504186 154.7147 
L 262.58537 161.435907 
L 262.666554 157.19597 
L 262.747738 158.531957 
L 262.828922 155.041407 
L 262.910106 157.144331 
L 262.99129 169.717446 
L 263.072474 165.57904 
L 263.234841 161.510062 
L 263.316025 162.141129 
L 263.397209 165.898392 
L 263.478393 163.882933 
L 263.559577 177.142449 
L 263.721945 157.588831 
L 263.884313 171.178035 
L 264.127865 162.888783 
L 264.290233 171.277602 
L 264.371416 184.809959 
L 264.4526 167.298306 
L 264.533784 170.950874 
L 264.614968 176.102194 
L 264.696152 175.415884 
L 264.777336 162.191035 
L 264.85852 171.720232 
L 265.020888 162.691951 
L 265.102072 168.849715 
L 265.183256 165.792634 
L 265.26444 167.979322 
L 265.345624 178.384615 
L 265.426808 166.598741 
L 265.507992 166.80885 
L 265.589175 179.061821 
L 265.670359 167.685687 
L 265.751543 180.022462 
L 265.832727 167.862649 
L 265.913911 182.260465 
L 266.076279 168.242339 
L 266.157463 167.512011 
L 266.238647 181.239219 
L 266.319831 167.801099 
L 266.401015 171.120306 
L 266.482199 163.823672 
L 266.563383 174.802878 
L 266.644567 164.105445 
L 266.725751 168.872544 
L 266.806934 166.449095 
L 266.969302 169.437674 
L 267.050486 160.658993 
L 267.13167 170.982697 
L 267.212854 164.865023 
L 267.294038 173.632749 
L 267.375222 171.686988 
L 267.456406 170.342867 
L 267.53759 162.457156 
L 267.618774 165.912074 
L 267.699958 160.155026 
L 267.781142 177.000501 
L 267.94351 166.545933 
L 268.024693 170.523535 
L 268.187061 165.69781 
L 268.268245 171.596115 
L 268.349429 166.267966 
L 268.430613 166.420476 
L 268.674165 172.089697 
L 268.755349 165.406731 
L 268.836533 167.445343 
L 268.917717 168.349947 
L 268.998901 166.718251 
L 269.080085 161.506787 
L 269.242452 174.716828 
L 269.323636 176.062216 
L 269.486004 166.098156 
L 269.567188 179.69743 
L 269.648372 172.262555 
L 269.729556 173.112498 
L 269.81074 181.901518 
L 269.891924 166.814221 
L 270.054292 178.948743 
L 270.135476 178.658746 
L 270.21666 162.810856 
L 270.297844 169.8873 
L 270.379027 163.591187 
L 270.541395 176.832164 
L 270.703763 161.457195 
L 270.784947 176.257845 
L 270.866131 172.454084 
L 271.109683 183.783833 
L 271.190867 171.136906 
L 271.272051 171.489744 
L 271.353235 170.257562 
L 271.434419 171.635354 
L 271.515603 168.613917 
L 271.596786 171.563426 
L 271.67797 171.326143 
L 271.759154 170.156666 
L 271.840338 164.505479 
L 271.921522 165.280685 
L 272.08389 172.170815 
L 272.165074 177.156261 
L 272.246258 161.84735 
L 272.408626 170.322736 
L 272.48981 166.074129 
L 272.570994 181.261753 
L 272.733362 164.790531 
L 272.976913 176.392513 
L 273.058097 169.295649 
L 273.139281 170.244371 
L 273.220465 171.816507 
L 273.301649 170.744733 
L 273.382833 166.189737 
L 273.545201 173.972179 
L 273.626385 166.134503 
L 273.707569 171.224721 
L 273.788753 168.940476 
L 273.869937 175.742642 
L 273.951121 167.711747 
L 274.032304 183.717029 
L 274.275856 169.384655 
L 274.35704 172.459914 
L 274.438224 168.284251 
L 274.519408 181.989355 
L 274.600592 172.120061 
L 274.681776 181.906038 
L 274.76296 164.907454 
L 274.844144 175.470276 
L 274.925328 175.377657 
L 275.006512 174.335456 
L 275.087696 163.754577 
L 275.168879 172.35947 
L 275.331247 164.521726 
L 275.412431 170.240467 
L 275.493615 169.959439 
L 275.574799 167.448793 
L 275.655983 176.808517 
L 275.818351 167.749534 
L 275.899535 175.695682 
L 275.980719 172.24329 
L 276.143087 179.347226 
L 276.224271 173.519959 
L 276.305455 177.251144 
L 276.386638 177.153831 
L 276.467822 165.727727 
L 276.549006 171.44532 
L 276.63019 169.027391 
L 276.711374 179.920405 
L 276.792558 174.31213 
L 276.873742 185.036445 
L 277.117294 166.765644 
L 277.360846 177.618238 
L 277.44203 180.134619 
L 277.523214 167.11356 
L 277.604397 179.522913 
L 277.685581 173.836071 
L 277.929133 185.368815 
L 278.172685 169.139426 
L 278.253869 171.093165 
L 278.335053 176.004446 
L 278.497421 170.335517 
L 278.578605 171.171787 
L 278.659789 175.502796 
L 278.740973 171.956647 
L 278.822156 174.148099 
L 278.90334 181.239997 
L 278.984524 168.793742 
L 279.065708 169.713998 
L 279.146892 170.078314 
L 279.30926 185.021137 
L 279.390444 170.762162 
L 279.471628 173.33832 
L 279.552812 180.430542 
L 279.633996 172.69705 
L 279.71518 183.106525 
L 279.796364 171.240406 
L 279.877548 172.29905 
L 279.958732 186.174071 
L 280.039915 178.590316 
L 280.121099 183.288373 
L 280.202283 173.031466 
L 280.283467 173.904513 
L 280.364651 186.239573 
L 280.445835 182.122949 
L 280.608203 171.792144 
L 280.689387 182.502873 
L 280.770571 182.048631 
L 280.851755 181.833534 
L 280.932939 170.459027 
L 281.17649 180.551306 
L 281.420042 168.004813 
L 281.501226 176.16579 
L 281.58241 174.626663 
L 281.663594 176.145192 
L 281.744778 170.078581 
L 281.825962 172.952982 
L 281.907146 170.636273 
L 281.98833 171.403429 
L 282.069514 173.815181 
L 282.231882 170.980573 
L 282.394249 185.428002 
L 282.556617 171.182186 
L 282.637801 168.422398 
L 282.718985 184.195621 
L 282.881353 172.225032 
L 282.962537 172.091803 
L 283.043721 177.700368 
L 283.124905 176.772104 
L 283.206089 179.859821 
L 283.368457 169.629257 
L 283.530825 186.965611 
L 283.693192 169.377408 
L 283.774376 171.375619 
L 283.936744 178.440702 
L 284.017928 180.254679 
L 284.099112 178.718591 
L 284.180296 184.901762 
L 284.26148 171.685884 
L 284.342664 179.845139 
L 284.423848 177.631382 
L 284.586216 168.255452 
L 284.6674 185.687004 
L 284.829767 171.200631 
L 284.910951 172.630783 
L 284.992135 169.15672 
L 285.073319 185.266661 
L 285.316871 171.351898 
L 285.398055 171.220159 
L 285.560423 178.339927 
L 285.641607 172.696531 
L 285.722791 173.888975 
L 285.885159 180.704846 
L 285.966342 173.948103 
L 286.209894 180.445588 
L 286.291078 174.100941 
L 286.453446 183.803644 
L 286.53463 178.583732 
L 286.615814 179.34031 
L 286.696998 180.53123 
L 286.859366 173.682301 
L 286.94055 175.267949 
L 287.102918 184.703019 
L 287.184101 172.055265 
L 287.265285 175.537924 
L 287.346469 173.729736 
L 287.508837 183.43299 
L 287.671205 176.458109 
L 287.752389 175.612181 
L 287.833573 178.708967 
L 287.914757 176.909838 
L 287.995941 178.320787 
L 288.077125 185.041815 
L 288.158309 175.916352 
L 288.239493 177.914153 
L 288.320677 178.460481 
L 288.40186 177.825486 
L 288.483044 179.603859 
L 288.564228 177.247662 
L 288.645412 180.531779 
L 288.888964 173.785958 
L 289.051332 179.093699 
L 289.132516 177.396977 
L 289.2137 185.590553 
L 289.376068 175.078794 
L 289.538436 185.515303 
L 289.700803 170.746426 
L 289.863171 184.65492 
L 290.025539 175.501248 
L 290.106723 174.004594 
L 290.187907 182.667329 
L 290.269091 180.275007 
L 290.431459 177.003022 
L 290.593827 175.304301 
L 290.675011 182.366716 
L 290.837378 169.955044 
L 291.08093 184.469378 
L 291.162114 173.434838 
L 291.243298 180.572996 
L 291.324482 176.046797 
L 291.405666 177.280307 
L 291.48685 178.523065 
L 291.649218 172.726049 
L 291.730402 174.278009 
L 291.811586 189.382656 
L 291.89277 186.2334 
L 292.055137 174.683247 
L 292.298689 189.786467 
L 292.461057 171.988564 
L 292.704609 188.27319 
L 292.785793 173.976663 
L 292.866977 176.87017 
L 293.029345 191.664247 
L 293.110529 174.876749 
L 293.191712 179.722588 
L 293.272896 172.739817 
L 293.435264 185.29525 
L 293.516448 180.525366 
L 293.597632 174.329359 
L 293.678816 176.452081 
L 293.76 178.494482 
L 293.841184 184.943013 
L 293.922368 176.769217 
L 294.003552 177.376077 
L 294.084736 175.162731 
L 294.16592 195.80366 
L 294.328288 175.996369 
L 294.571839 188.432303 
L 294.653023 187.497326 
L 294.734207 175.469102 
L 294.815391 176.023865 
L 294.896575 178.039154 
L 295.058943 188.708436 
L 295.221311 175.367063 
L 295.383679 187.260463 
L 295.62723 174.370457 
L 295.708414 174.548393 
L 295.789598 191.059707 
L 295.951966 171.862236 
L 296.03315 176.044628 
L 296.114334 187.963008 
L 296.357886 172.923115 
L 296.43907 181.97042 
L 296.520254 178.73683 
L 296.682622 177.737714 
L 296.763805 173.804021 
L 296.844989 183.511974 
L 296.926173 180.726152 
L 297.007357 186.96734 
L 297.169725 175.164648 
L 297.250909 175.545249 
L 297.332093 188.821073 
L 297.575645 176.795869 
L 297.656829 178.712245 
L 297.738013 175.133527 
L 297.819197 177.110779 
L 297.900381 175.961681 
L 298.143932 185.002957 
L 298.225116 183.291735 
L 298.3063 171.226697 
L 298.468668 183.445212 
L 298.71222 172.897544 
L 298.874588 186.826218 
L 299.11814 176.446065 
L 299.199323 176.898647 
L 299.361691 190.808633 
L 299.524059 174.091484 
L 299.605243 182.252765 
L 299.686427 179.321462 
L 299.848795 197.043518 
L 300.011163 172.953133 
L 300.092347 187.22747 
L 300.173531 186.84786 
L 300.254715 173.313903 
L 300.498266 191.836379 
L 300.660634 176.338312 
L 300.741818 174.228168 
L 300.904186 196.96164 
L 301.147738 178.100205 
L 301.228922 187.201413 
L 301.310106 186.771325 
L 301.472474 174.803235 
L 301.716025 182.689623 
L 301.797209 177.600511 
L 301.959577 183.422918 
L 302.040761 177.814751 
L 302.121945 180.969899 
L 302.284313 174.256752 
L 302.446681 186.984597 
L 302.527865 181.473771 
L 302.609049 173.353796 
L 302.690233 174.594716 
L 302.771416 184.169916 
L 303.014968 170.768749 
L 303.25852 189.815621 
L 303.420888 170.800585 
L 303.583256 190.851378 
L 303.745624 177.897425 
L 303.826808 176.955538 
L 303.989175 187.391826 
L 304.070359 178.454805 
L 304.151543 191.709986 
L 304.232727 181.681458 
L 304.313911 183.675242 
L 304.395095 200.038224 
L 304.557463 179.350246 
L 304.719831 182.865012 
L 304.801015 191.218322 
L 304.963383 178.222283 
L 305.044567 175.227525 
L 305.206934 184.797136 
L 305.369302 174.442952 
L 305.450486 174.453787 
L 305.612854 186.81165 
L 305.775222 176.099854 
L 305.856406 176.960089 
L 305.93759 182.041244 
L 306.099958 174.296452 
L 306.181142 177.683118 
L 306.262326 191.111928 
L 306.505877 178.676257 
L 306.668245 180.742035 
L 306.749429 208.59586 
L 306.911797 177.533369 
L 306.992981 193.441176 
L 307.074165 191.474191 
L 307.155349 190.788701 
L 307.398901 180.620701 
L 307.642452 192.385704 
L 307.80482 178.60086 
L 307.886004 178.686504 
L 307.967188 192.555721 
L 308.129556 172.687135 
L 308.291924 183.874851 
L 308.373108 182.835393 
L 308.535476 173.021899 
L 308.697844 187.25086 
L 308.779027 183.890262 
L 308.860211 176.206561 
L 308.941395 177.110966 
L 309.022579 178.718865 
L 309.184947 189.844653 
L 309.347315 180.391831 
L 309.428499 180.562658 
L 309.590867 189.427109 
L 309.753235 175.788409 
L 309.834419 178.592939 
L 309.996786 186.830459 
L 310.07797 186.776842 
L 310.159154 180.784716 
L 310.240338 181.970088 
L 310.321522 182.226272 
L 310.402706 183.443571 
L 310.565074 180.06683 
L 310.646258 178.65569 
L 310.727442 192.815321 
L 310.88981 173.763224 
L 310.970994 177.105039 
L 311.052178 189.864853 
L 311.214545 172.700835 
L 311.458097 186.102553 
L 311.539281 176.613114 
L 311.620465 179.347566 
L 311.701649 171.819267 
L 311.782833 189.379064 
L 311.864017 180.949902 
L 311.945201 184.294444 
L 312.026385 174.386031 
L 312.351121 190.498331 
L 312.432304 181.956356 
L 312.513488 182.542659 
L 312.594672 179.319751 
L 312.675856 189.922174 
L 312.75704 180.451587 
L 312.838224 182.473421 
L 312.919408 175.811977 
L 313.081776 185.995636 
L 313.16296 188.225565 
L 313.244144 182.982313 
L 313.325328 185.863381 
L 313.406512 184.683759 
L 313.650063 179.545418 
L 313.731247 179.627995 
L 313.893615 188.950722 
L 314.055983 179.868884 
L 314.137167 186.939122 
L 314.299535 182.785468 
L 314.380719 181.931426 
L 314.461903 181.992027 
L 314.543087 190.507213 
L 314.786638 182.518914 
L 314.949006 180.544609 
L 315.03019 173.11727 
L 315.111374 194.747442 
L 315.192558 174.80198 
L 315.273742 181.143655 
L 315.43611 192.200377 
L 315.517294 176.941936 
L 315.679662 197.711488 
L 315.923214 177.134095 
L 316.004397 178.098668 
L 316.166765 190.200193 
L 316.410317 179.952427 
L 316.572685 191.992674 
L 316.653869 179.702775 
L 316.735053 183.464031 
L 316.816237 186.754319 
L 316.897421 177.273059 
L 317.059789 186.214229 
L 317.384524 176.279462 
L 317.465708 176.82603 
L 317.546892 192.368573 
L 317.628076 186.951691 
L 317.70926 186.75468 
L 317.790444 174.142575 
L 317.871628 184.46791 
L 317.952812 182.634207 
L 318.033996 176.787371 
L 318.11518 188.635936 
L 318.196364 179.035506 
L 318.277548 196.788145 
L 318.358732 182.145115 
L 318.439915 186.899324 
L 318.521099 176.275705 
L 318.602283 200.419276 
L 318.683467 184.420495 
L 318.764651 184.46477 
L 318.927019 179.180799 
L 319.008203 179.354511 
L 319.170571 189.806532 
L 319.251755 180.405494 
L 319.495307 198.686574 
L 319.657674 174.967873 
L 319.901226 186.83577 
L 320.063594 179.103501 
L 320.144778 178.626579 
L 320.225962 187.750042 
L 320.38833 174.214723 
L 320.469514 179.143464 
L 320.550698 208.564951 
L 320.794249 171.532409 
L 320.956617 198.5589 
L 321.037801 197.888111 
L 321.200169 178.182955 
L 321.362537 206.293918 
L 321.606089 183.476223 
L 321.768457 195.195788 
L 321.849641 182.355738 
L 321.930825 190.661158 
L 322.012008 177.959124 
L 322.174376 201.216061 
L 322.25556 197.627239 
L 322.417928 174.231976 
L 322.580296 190.05807 
L 322.742664 177.859882 
L 322.823848 176.304359 
L 322.905032 186.404681 
L 322.986216 186.112701 
L 323.0674 176.497176 
L 323.148584 178.642816 
L 323.229767 176.201269 
L 323.310951 226.112623 
L 323.392135 181.607999 
L 323.473319 181.988782 
L 323.554503 175.307699 
L 323.716871 202.666613 
L 323.879239 179.132556 
L 323.960423 178.497326 
L 324.041607 186.762138 
L 324.122791 185.245632 
L 324.203975 189.351047 
L 324.285159 176.341356 
L 324.447526 191.697461 
L 324.52871 193.753307 
L 324.691078 179.590876 
L 324.772262 181.579897 
L 324.853446 188.747134 
L 325.015814 179.830936 
L 325.096998 181.59871 
L 325.178182 180.179909 
L 325.259366 199.160091 
L 325.34055 192.429158 
L 325.584101 174.897245 
L 325.746469 192.422356 
L 325.827653 178.275672 
L 325.908837 178.576525 
L 325.990021 179.872367 
L 326.071205 206.219663 
L 326.233573 178.188123 
L 326.314757 174.939887 
L 326.395941 180.754338 
L 326.477125 197.32185 
L 326.639493 178.208089 
L 326.80186 192.393706 
L 326.964228 180.892339 
L 327.045412 190.900125 
L 327.20778 180.995257 
L 327.288964 182.579545 
L 327.370148 195.266905 
L 327.451332 186.858864 
L 327.532516 188.136032 
L 327.6137 184.086778 
L 327.694884 206.021248 
L 327.857252 182.949696 
L 327.938436 180.782698 
L 328.019619 184.752238 
L 328.100803 203.906754 
L 328.181987 199.551056 
L 328.344355 175.429291 
L 328.425539 182.502116 
L 328.506723 209.157458 
L 328.669091 180.633181 
L 328.750275 175.77642 
L 328.912643 186.760444 
L 328.993827 176.578143 
L 329.075011 179.809975 
L 329.156195 176.834868 
L 329.318562 186.429979 
L 329.48093 175.402564 
L 329.643298 188.690372 
L 329.88685 178.431386 
L 329.968034 179.339284 
L 330.130402 187.058756 
L 330.211586 177.996433 
L 330.29277 179.976109 
L 330.373953 184.025032 
L 330.536321 217.450823 
L 330.698689 179.375355 
L 330.861057 196.113238 
L 331.023425 177.833743 
L 331.104609 181.366182 
L 331.266977 202.955481 
L 331.348161 185.339621 
L 331.429345 186.806726 
L 331.510529 181.171221 
L 331.591712 185.382385 
L 331.672896 183.201712 
L 331.75408 172.638936 
L 331.997632 189.069657 
L 332.078816 178.122214 
L 332.322368 193.155464 
L 332.403552 178.934416 
L 332.484736 183.695287 
L 332.56592 178.794732 
L 332.647104 180.038794 
L 332.728288 182.888275 
L 332.809471 181.516659 
L 332.890655 185.56826 
L 332.971839 175.651447 
L 333.053023 190.520044 
L 333.134207 185.297813 
L 333.215391 185.765011 
L 333.296575 179.838594 
L 333.621311 206.323558 
L 333.702495 177.100015 
L 333.783679 181.255505 
L 333.946047 196.9485 
L 334.02723 184.876906 
L 334.108414 192.995122 
L 334.189598 181.303868 
L 334.270782 184.091664 
L 334.351966 203.277113 
L 334.514334 182.216947 
L 334.595518 186.073091 
L 334.676702 178.951702 
L 334.83907 187.985767 
L 335.001438 179.171482 
L 335.163805 186.606117 
L 335.244989 175.525883 
L 335.326173 184.203524 
L 335.407357 178.59598 
L 335.488541 189.027386 
L 335.569725 176.387501 
L 335.813277 192.720764 
L 335.894461 189.821776 
L 336.138013 174.320026 
L 336.300381 189.744512 
L 336.462748 178.864702 
L 336.543932 189.34381 
L 336.625116 183.457751 
L 336.7063 202.930545 
L 336.787484 183.388408 
L 336.868668 184.30587 
L 336.949852 174.904683 
L 337.031036 190.218836 
L 337.11222 190.184444 
L 337.193404 175.555797 
L 337.274588 176.21479 
L 337.436956 210.146455 
L 337.599323 184.967123 
L 337.761691 175.392525 
L 337.842875 181.081968 
L 337.924059 201.218814 
L 338.005243 174.774337 
L 338.086427 179.207836 
L 338.329979 192.650388 
L 338.492347 182.54308 
L 338.573531 180.769952 
L 338.654715 190.255673 
L 338.735899 188.059557 
L 338.817082 195.742056 
L 338.898266 176.836926 
L 339.060634 195.309222 
L 339.141818 182.411904 
L 339.223002 184.516304 
L 339.304186 181.166972 
L 339.38537 190.026057 
L 339.466554 187.492915 
L 339.547738 185.202706 
L 339.628922 178.880282 
L 339.79129 184.246267 
L 339.872474 198.907289 
L 339.953658 190.020267 
L 340.034841 195.721188 
L 340.116025 176.873737 
L 340.197209 179.666616 
L 340.278393 192.765885 
L 340.440761 175.687548 
L 340.521945 190.576668 
L 340.603129 187.699502 
L 340.684313 190.456772 
L 340.927865 174.277187 
L 341.090233 199.849233 
L 341.2526 181.213595 
L 341.333784 179.716071 
L 341.496152 195.94794 
L 341.577336 174.350874 
L 341.65852 179.132783 
L 341.739704 192.857241 
L 341.820888 190.288145 
L 341.902072 182.172955 
L 341.983256 199.257626 
L 342.06444 175.893337 
L 342.226808 198.746412 
L 342.389175 172.598195 
L 342.632727 193.328676 
L 342.713911 183.932561 
L 342.795095 187.390328 
L 342.957463 183.603428 
L 343.038647 187.39917 
L 343.282199 176.281665 
L 343.525751 192.493065 
L 343.688118 175.725766 
L 343.769302 179.856981 
L 343.93167 191.103015 
L 344.012854 191.069496 
L 344.094038 175.509995 
L 344.175222 179.206469 
L 344.256406 191.389162 
L 344.33759 178.216836 
L 344.418774 195.425515 
L 344.499958 188.156131 
L 344.581142 191.44175 
L 344.662326 177.644246 
L 344.824693 187.154464 
L 344.987061 180.813088 
L 345.068245 194.287242 
L 345.230613 176.724239 
L 345.474165 216.701848 
L 345.555349 180.931104 
L 345.636533 182.273592 
L 345.717717 182.070632 
L 345.880085 194.421544 
L 345.961268 177.740364 
L 346.042452 178.235601 
L 346.123636 176.374815 
L 346.20482 198.000273 
L 346.286004 196.269522 
L 346.367188 197.280041 
L 346.448372 183.796565 
L 346.529556 185.888924 
L 346.61074 192.503757 
L 346.854292 181.543696 
L 346.935476 184.452657 
L 347.01666 192.644909 
L 347.097844 180.216743 
L 347.179027 187.617195 
L 347.260211 181.496668 
L 347.341395 201.289563 
L 347.503763 176.022377 
L 347.666131 198.532307 
L 347.828499 187.536838 
L 348.072051 193.537295 
L 348.153235 189.884511 
L 348.234419 204.351735 
L 348.315603 200.269844 
L 348.47797 177.424382 
L 348.559154 207.717755 
L 348.721522 183.826033 
L 348.802706 193.383398 
L 348.965074 181.156981 
L 349.046258 181.319761 
L 349.127442 183.586883 
L 349.208626 180.161123 
L 349.28981 184.580838 
L 349.370994 184.15896 
L 349.533362 178.510367 
L 349.695729 196.337423 
L 349.858097 174.558782 
L 349.939281 184.857308 
L 350.020465 184.094527 
L 350.101649 180.833499 
L 350.182833 188.725463 
L 350.345201 179.625371 
L 350.426385 180.617001 
L 350.507569 192.121713 
L 350.588753 185.007554 
L 350.669937 198.977769 
L 350.751121 180.970132 
L 350.913488 220.062425 
L 351.075856 177.704714 
L 351.238224 187.534039 
L 351.319408 178.141418 
L 351.400592 182.110941 
L 351.481776 180.0492 
L 351.644144 193.20169 
L 351.725328 243.980027 
L 351.806512 178.002259 
L 351.887696 178.459243 
L 351.968879 178.881174 
L 352.050063 193.036477 
L 352.212431 173.712312 
L 352.293615 180.726119 
L 352.374799 189.500341 
L 352.455983 187.882479 
L 352.537167 184.527854 
L 352.618351 198.91409 
L 352.699535 198.548316 
L 352.861903 180.425581 
L 352.943087 179.674158 
L 353.024271 174.37997 
L 353.105455 194.422252 
L 353.186638 189.930247 
L 353.267822 193.486005 
L 353.349006 180.20253 
L 353.43019 189.870267 
L 353.511374 180.914944 
L 353.673742 198.060278 
L 353.83611 180.871863 
L 353.998478 194.008272 
L 354.079662 192.25465 
L 354.24203 174.235636 
L 354.323214 195.925344 
L 354.404397 189.124561 
L 354.485581 209.128034 
L 354.566765 183.187935 
L 354.647949 187.730946 
L 354.729133 184.710836 
L 354.810317 193.361464 
L 354.891501 182.672462 
L 354.972685 190.251551 
L 355.053869 174.59785 
L 355.216237 208.584908 
L 355.297421 180.651717 
L 355.378605 184.011791 
L 355.459789 186.017673 
L 355.622156 179.896962 
L 355.70334 204.65763 
L 355.865708 173.685823 
L 355.946892 175.06962 
L 356.028076 198.167955 
L 356.190444 180.290766 
L 356.271628 179.241598 
L 356.352812 182.977797 
L 356.433996 200.165553 
L 356.596364 179.432047 
L 356.677548 173.947877 
L 356.758732 189.354549 
L 356.839915 187.615243 
L 357.002283 181.442922 
L 357.083467 190.489522 
L 357.164651 187.95667 
L 357.327019 178.650837 
L 357.489387 183.082841 
L 357.651755 201.819801 
L 357.732939 204.438484 
L 357.895307 184.791384 
L 357.97649 192.562347 
L 358.301226 177.746511 
L 358.38241 184.051055 
L 358.463594 206.283629 
L 358.625962 182.466806 
L 358.707146 183.697333 
L 358.869514 195.465617 
L 358.950698 178.049046 
L 359.031882 180.564653 
L 359.113066 179.606443 
L 359.194249 211.744629 
L 359.356617 178.551247 
L 359.437801 174.924738 
L 359.518985 205.625126 
L 359.681353 186.481937 
L 359.762537 189.72999 
L 359.843721 176.693348 
L 359.924905 179.023841 
L 360.006089 182.706961 
L 360.087273 182.09402 
L 360.168457 174.040121 
L 360.330825 198.064536 
L 360.493192 188.316828 
L 360.574376 194.117767 
L 360.65556 184.848666 
L 360.817928 203.530442 
L 361.06148 174.52996 
L 361.142664 202.089453 
L 361.386216 175.730134 
L 361.4674 182.149729 
L 361.548584 197.738237 
L 361.629767 195.620848 
L 361.710951 176.64288 
L 361.792135 179.774222 
L 361.954503 187.098734 
L 362.035687 178.337923 
L 362.116871 182.512171 
L 362.198055 178.007161 
L 362.360423 197.895687 
L 362.441607 177.48455 
L 362.522791 180.91019 
L 362.685159 188.251485 
L 362.766342 182.440556 
L 362.847526 182.590884 
L 362.92871 181.679712 
L 363.091078 185.346268 
L 363.172262 196.353939 
L 363.253446 194.440046 
L 363.33463 180.046181 
L 363.415814 193.100182 
L 363.496998 188.748618 
L 363.578182 200.269646 
L 363.659366 176.663033 
L 363.821734 187.799477 
L 363.902918 187.840563 
L 363.984101 188.14874 
L 364.065285 193.983131 
L 364.227653 176.744134 
L 364.308837 181.2047 
L 364.390021 176.199224 
L 364.552389 197.556095 
L 364.714757 178.313428 
L 364.795941 180.85473 
L 364.877125 178.497506 
L 365.120677 189.722278 
L 365.20186 190.2589 
L 365.283044 196.044257 
L 365.364228 182.980198 
L 365.445412 198.512494 
L 365.60778 183.684793 
L 365.688964 193.908065 
L 365.770148 191.199462 
L 365.851332 184.094406 
L 365.932516 186.731038 
L 366.0137 206.910612 
L 366.257252 177.4048 
L 366.338436 189.743307 
L 366.500803 179.382424 
L 366.581987 186.616844 
L 366.663171 186.252061 
L 366.744355 188.797033 
L 366.825539 178.257915 
L 366.906723 185.744449 
L 366.987907 183.24823 
L 367.069091 186.538111 
L 367.231459 174.933134 
L 367.475011 188.657904 
L 367.637378 178.793241 
L 367.799746 192.208343 
L 367.88093 213.941473 
L 367.962114 181.12622 
L 368.043298 185.858097 
L 368.205666 180.798602 
L 368.28685 201.607704 
L 368.368034 198.978094 
L 368.530402 180.224079 
L 368.611586 188.026727 
L 368.855137 181.56306 
L 368.936321 189.255624 
L 369.017505 187.221448 
L 369.098689 185.834821 
L 369.261057 175.446045 
L 369.423425 188.256349 
L 369.585793 175.037601 
L 369.666977 177.951148 
L 369.748161 182.295349 
L 369.829345 198.15562 
L 369.991712 173.90925 
L 370.15408 191.511918 
L 370.397632 180.898527 
L 370.478816 181.37564 
L 370.56 188.202743 
L 370.803552 173.15008 
L 370.96592 207.87687 
L 371.128288 178.889374 
L 371.209471 180.577855 
L 371.290655 180.415244 
L 371.371839 204.559522 
L 371.615391 174.132016 
L 371.696575 186.668383 
L 371.777759 221.62406 
L 371.940127 180.852894 
L 372.021311 173.745092 
L 372.264863 206.814094 
L 372.346047 176.163618 
L 372.42723 182.208647 
L 372.508414 185.056674 
L 372.589598 192.925098 
L 372.670782 186.64792 
L 372.751966 190.969506 
L 372.83315 178.277589 
L 372.995518 189.998397 
L 373.076702 177.729959 
L 373.157886 180.074477 
L 373.23907 202.420451 
L 373.401438 181.591107 
L 373.482622 181.942657 
L 373.563805 176.893086 
L 373.807357 190.886184 
L 373.888541 178.452168 
L 373.969725 179.512692 
L 374.050909 179.521063 
L 374.132093 185.582979 
L 374.213277 202.301484 
L 374.294461 177.936106 
L 374.375645 184.820313 
L 374.456829 184.542619 
L 374.538013 194.115613 
L 374.619197 180.282303 
L 374.700381 188.037227 
L 374.781564 177.184108 
L 374.943932 207.716141 
L 375.1063 181.105963 
L 375.187484 216.665072 
L 375.268668 205.409104 
L 375.349852 185.636641 
L 375.431036 186.947781 
L 375.674588 180.147101 
L 375.755772 205.934122 
L 375.836956 183.139105 
L 375.91814 186.763977 
L 375.999323 185.335757 
L 376.080507 219.43969 
L 376.161691 179.239917 
L 376.242875 186.967494 
L 376.324059 169.885408 
L 376.405243 173.878919 
L 376.567611 200.721267 
L 376.729979 178.462571 
L 376.811163 179.010507 
L 376.892347 177.231079 
L 376.973531 185.879267 
L 377.054715 181.879423 
L 377.298266 192.756959 
L 377.460634 185.008701 
L 377.541818 189.961696 
L 377.78537 178.993415 
L 377.866554 194.837416 
L 378.028922 186.207429 
L 378.110106 185.096565 
L 378.19129 189.21313 
L 378.272474 183.540928 
L 378.353658 184.893931 
L 378.434841 194.555748 
L 378.597209 180.486432 
L 378.678393 222.32967 
L 378.840761 184.103324 
L 378.921945 191.666287 
L 379.084313 175.455228 
L 379.246681 198.15686 
L 379.409049 175.38329 
L 379.490233 174.374965 
L 379.733784 195.238804 
L 379.896152 188.644271 
L 380.139704 182.413373 
L 380.220888 182.907166 
L 380.302072 198.726231 
L 380.545624 172.056328 
L 380.626808 219.747369 
L 380.707992 178.203361 
L 380.789175 197.869829 
L 380.870359 189.954907 
L 380.951543 201.500196 
L 381.113911 181.597603 
L 381.195095 193.50623 
L 381.276279 185.023325 
L 381.357463 200.221741 
L 381.438647 175.194855 
L 381.519831 195.166163 
L 381.601015 183.309791 
L 381.682199 189.963009 
L 381.763383 178.067395 
L 381.844567 189.717955 
L 381.925751 179.940119 
L 382.006934 186.795306 
L 382.088118 186.316737 
L 382.169302 176.521564 
L 382.33167 194.034071 
L 382.494038 173.856855 
L 382.575222 179.507786 
L 382.656406 183.283309 
L 382.73759 192.400964 
L 382.818774 183.435758 
L 382.899958 187.537086 
L 382.981142 183.233921 
L 383.062326 194.756247 
L 383.14351 184.14223 
L 383.224693 205.56424 
L 383.305877 180.41074 
L 383.387061 182.156938 
L 383.468245 180.54687 
L 383.549429 193.47496 
L 383.630613 189.448697 
L 383.711797 182.460803 
L 383.792981 183.459906 
L 383.874165 180.965864 
L 384.036533 193.989301 
L 384.117717 192.211949 
L 384.198901 186.700933 
L 384.280085 193.679719 
L 384.60482 176.814976 
L 384.686004 181.957585 
L 384.767188 194.45502 
L 384.848372 193.527323 
L 385.01074 184.660225 
L 385.091924 195.743587 
L 385.335476 181.47182 
L 385.41666 184.780186 
L 385.497844 175.989501 
L 385.660211 201.295633 
L 385.984947 179.106114 
L 386.147315 193.541051 
L 386.228499 183.447135 
L 386.309683 185.330447 
L 386.390867 201.770609 
L 386.472051 176.993697 
L 386.553235 178.328427 
L 386.634419 190.243652 
L 386.715603 218.912316 
L 386.87797 180.380455 
L 387.040338 186.606192 
L 387.121522 185.105062 
L 387.202706 196.168801 
L 387.365074 181.060572 
L 387.527442 206.967238 
L 387.68981 181.020541 
L 387.770994 180.222956 
L 387.933362 196.330014 
L 388.014545 198.676754 
L 388.258097 176.836955 
L 388.420465 192.072998 
L 388.501649 179.126323 
L 388.582833 179.484056 
L 388.745201 191.925243 
L 388.907569 174.976679 
L 389.151121 199.317035 
L 389.232304 197.045407 
L 389.394672 179.247894 
L 389.55704 188.586766 
L 389.638224 187.448707 
L 389.800592 178.607766 
L 389.96296 205.237022 
L 390.125328 178.651918 
L 390.206512 186.387005 
L 390.287696 184.684616 
L 390.368879 187.261426 
L 390.450063 184.643856 
L 390.531247 176.92195 
L 390.612431 177.689533 
L 390.693615 189.879308 
L 390.774799 179.180452 
L 390.937167 187.508527 
L 391.018351 184.872517 
L 391.099535 185.459792 
L 391.180719 198.901353 
L 391.343087 179.108762 
L 391.424271 179.002949 
L 391.586638 192.408733 
L 391.667822 179.160545 
L 391.749006 197.437291 
L 391.83019 193.241098 
L 391.992558 201.99634 
L 392.154926 187.072785 
L 392.23611 189.168998 
L 392.317294 208.675818 
L 392.398478 184.904695 
L 392.479662 184.910664 
L 392.560846 180.441705 
L 392.723214 218.416909 
L 392.804397 214.307987 
L 392.885581 187.871999 
L 392.966765 201.086747 
L 393.047949 183.690297 
L 393.129133 193.982013 
L 393.210317 190.431262 
L 393.291501 191.607453 
L 393.453869 178.085775 
L 393.535053 197.055935 
L 393.697421 177.099385 
L 393.778605 178.235856 
L 393.859789 208.700981 
L 394.10334 174.208415 
L 394.265708 184.722609 
L 394.346892 189.599341 
L 394.50926 180.361956 
L 394.590444 182.990688 
L 394.671628 193.534617 
L 394.833996 177.857638 
L 394.91518 180.224498 
L 394.996364 203.569698 
L 395.158732 180.436844 
L 395.239915 188.05381 
L 395.321099 179.837178 
L 395.402283 201.459242 
L 395.483467 193.827909 
L 395.645835 184.897952 
L 395.727019 200.507692 
L 395.889387 176.665105 
L 395.970571 180.38424 
L 396.051755 180.746996 
L 396.132939 184.261372 
L 396.295307 210.611818 
L 396.37649 175.045932 
L 396.457674 175.613044 
L 396.538858 182.050362 
L 396.620042 211.98096 
L 396.78241 179.968416 
L 396.863594 171.927464 
L 396.944778 176.872697 
L 397.025962 198.757182 
L 397.107146 192.55627 
L 397.269514 174.772575 
L 397.350698 196.284679 
L 397.431882 175.00175 
L 397.513066 182.611619 
L 397.594249 176.203742 
L 397.675433 192.144803 
L 397.756617 187.144259 
L 397.837801 190.965866 
L 397.918985 180.601612 
L 398.000169 185.23087 
L 398.081353 183.525304 
L 398.243721 179.59962 
L 398.324905 181.867255 
L 398.406089 179.93934 
L 398.487273 193.202808 
L 398.487273 193.202808 
" clip-path="url(#p64d051fa47)" style="fill: none; stroke: #1f77b4; stroke-width: 1.5; stroke-linecap: square"/>
   </g>
   <g id="patch_3">
    <path d="M 57.6 307.584 
L 57.6 41.472 
" style="fill: none; stroke: #000000; stroke-width: 0.8; stroke-linejoin: miter; stroke-linecap: square"/>
   </g>
   <g id="patch_4">
    <path d="M 414.72 307.584 
L 414.72 41.472 
" style="fill: none; stroke: #000000; stroke-width: 0.8; stroke-linejoin: miter; stroke-linecap: square"/>
   </g>
   <g id="patch_5">
    <path d="M 57.6 307.584 
L 414.72 307.584 
" style="fill: none; stroke: #000000; stroke-width: 0.8; stroke-linejoin: miter; stroke-linecap: square"/>
   </g>
   <g id="patch_6">
    <path d="M 57.6 41.472 
L 414.72 41.472 
" style="fill: none; stroke: #000000; stroke-width: 0.8; stroke-linejoin: miter; stroke-linecap: square"/>
   </g>
  </g>
 </g>
 <defs>
  <clipPath id="p64d051fa47">
   <rect x="57.6" y="41.472" width="357.12" height="266.112"/>
  </clipPath>
 </defs>
</svg>
