<?xml version="1.0" encoding="UTF-8" standalone="no"?>
<!-- Created with Inkscape (http://www.inkscape.org/) -->

<svg
   width="50mm"
   height="50mm"
   viewBox="0 0 50 50"
   version="1.1"
   id="svg1"
   xml:space="preserve"
   inkscape:version="1.3.2 (091e20e, 2023-11-25, custom)"
   sodipodi:docname="ALLICONS.svg"
   xmlns:inkscape="http://www.inkscape.org/namespaces/inkscape"
   xmlns:sodipodi="http://sodipodi.sourceforge.net/DTD/sodipodi-0.dtd"
   xmlns="http://www.w3.org/2000/svg"
   xmlns:svg="http://www.w3.org/2000/svg"><sodipodi:namedview
     id="namedview1"
     pagecolor="#ffffff"
     bordercolor="#000000"
     borderopacity="0.25"
     inkscape:showpageshadow="2"
     inkscape:pageopacity="0.0"
     inkscape:pagecheckerboard="0"
     inkscape:deskcolor="#d1d1d1"
     inkscape:document-units="mm"
     inkscape:zoom="0.5"
     inkscape:cx="812"
     inkscape:cy="483"
     inkscape:window-width="1920"
     inkscape:window-height="991"
     inkscape:window-x="-9"
     inkscape:window-y="-9"
     inkscape:window-maximized="1"
     inkscape:current-layer="layer1"><inkscape:page
       x="0"
       y="0"
       width="50"
       height="50"
       id="page8"
       margin="0"
       bleed="0"
       inkscape:label="EDA" /></sodipodi:namedview><defs
     id="defs1" /><g
     inkscape:label="Layer 1"
     inkscape:groupmode="layer"
     id="layer1"
     transform="translate(-162.76896,8.4876213)"><g
       id="g22"
       transform="matrix(1.024208,0,0,1.024208,-4.915869,-0.76104513)"
       style="stroke-width:0.976364"><g
         id="rect8"
         transform="translate(1.8678233,-32.596919)"
         style="stroke-width:0.976364"><path
           id="path21"
           style="color:#000000;fill:#000000;stroke-width:0.976364;stroke-linecap:round;stroke-linejoin:round;-inkscape-stroke:none"
           d="m 169.32812,47.929607 c -4.08599,0 -7.47448,3.386936 -7.47448,7.472929 v 10.994161 c 0,4.085993 3.38849,7.474479 7.47448,7.474479 h 33.86925 c 4.08599,0 7.47449,-3.388486 7.47448,-7.474479 V 55.402536 c 1e-5,-4.085993 -3.38849,-7.472929 -7.47448,-7.472929 H 191.9717 c 0.003,0.005 0.004,0.01107 0.007,0.01602 v 0.0026 c 0.20002,0.377068 0.44386,0.774943 0.63251,1.237651 0.19934,0.429964 0.60758,1.596753 0.89866,2.640149 1.01139,1.588504 1.57534,3.355257 1.7694,5.114933 a 3.2092426,3.1209969 0 0 1 0.003,0.02791 c 0.26097,2.591411 -0.22408,5.349881 -1.77508,7.742164 a 3.2092426,3.1209969 0 0 1 -0.0103,0.01499 c -0.98735,1.502413 -2.44606,2.952339 -4.52324,3.720703 -1.94908,0.739993 -4.05197,0.68205 -5.92625,-0.07597 -2.22801,-0.893094 -3.75098,-2.562454 -4.70514,-4.322733 a 3.2092426,3.1209969 0 0 1 0,-0.0026 c -1.61514,-2.984749 -1.874,-6.457515 -0.84336,-9.615434 a 3.2092426,3.1209969 0 0 1 0.0181,-0.05839 c 0.4379,-1.257569 1.0077,-2.377195 1.58233,-3.396175 a 3.2092426,3.1209969 0 0 1 0.0315,-0.05581 c 0.27755,-0.469746 0.59463,-1.005453 0.97979,-1.567863 0.17955,-0.452547 0.33721,-0.929451 0.48214,-1.422135 z" /></g><g
         id="g14"
         transform="translate(-81.177427,-45.644411)"
         style="stroke-width:0.976364"><g
           id="g15"
           transform="translate(32.488428,33.857679)"
           style="stroke-width:0.976364"><path
             id="path8"
             style="stroke:#000000;stroke-width:6.1794;stroke-linecap:round;stroke-linejoin:round"
             d="m 235.11914,31 c -0.11226,0.27827 -0.30128,0.512167 -0.49609,0.736328 -0.40237,0.505162 -0.72518,1.067652 -1.04622,1.626376 -0.3939,0.718244 -0.75505,1.459171 -1.01811,2.236008 -0.57818,1.82166 -0.42379,3.875362 0.46838,5.570686 0.50813,0.96394 1.29989,1.815044 2.32056,2.234899 0.83992,0.350594 1.81281,0.374987 2.66196,0.04082 0.94237,-0.354609 1.69603,-1.087628 2.23133,-1.925202 0.82901,-1.314837 1.12231,-2.920089 0.97194,-4.45546 -0.12885,-1.201406 -0.5438,-2.384549 -1.26562,-3.359375 -0.62703,-0.840614 -1.54762,-1.48406 -2.58912,-1.672679 -0.566,-0.110304 -1.14901,-0.06288 -1.71557,-0.171071 -0.25313,-0.133902 -0.29837,-0.448421 -0.32617,-0.705078 -0.048,-0.115526 0.0332,-0.328476 -0.11719,-0.373047 -0.0267,0.07227 -0.0534,0.144531 -0.0801,0.216797 z"
             sodipodi:nodetypes="sssssss" /><path
             style="fill:#000000;fill-opacity:1;stroke:#000000;stroke-width:0.976364;stroke-linecap:round;stroke-linejoin:round;stroke-dasharray:none"
             d="m 243.41797,4.9375 c -0.93487,1.2184617 -1.52386,2.6498296 -2.14612,4.0416524 -1.7939,4.0694106 -3.56323,8.1495966 -5.33692,12.2278346 -0.60304,1.391241 -1.19219,2.78883 -1.72906,4.207147 -0.69343,1.793562 -1.36312,3.596373 -2.07501,5.382741 -0.14396,0.339208 -0.2709,0.688599 -0.43775,1.01629 -0.18351,0.183233 -0.18902,0.565088 0.12184,0.602838 0.24641,-0.0092 0.48855,-0.08773 0.73974,-0.08007 1.12321,-0.04422 2.24768,-0.07678 3.37165,-0.03956 1.52705,0.03657 3.04959,0.176322 4.56585,0.355962 0.45565,0.147009 0.76752,0.53505 1.05664,0.894531 0.15617,0.160275 0.31987,0.36715 0.56055,0.384766 0.26769,0.01234 0.36729,-0.308729 0.29563,-0.524076 -0.14613,-0.47582 -0.28928,-0.959127 -0.5261,-1.399753 -0.19887,-0.351058 -0.48073,-0.654281 -0.62321,-1.036975 -0.12724,-0.323235 -0.30501,-0.621397 -0.46366,-0.929101 -0.17383,-0.340535 -0.23308,-0.722087 -0.33696,-1.086658 -0.30479,-1.286822 -0.4175,-2.611016 -0.44177,-3.930719 -0.0249,-1.708768 0.20212,-3.408599 0.48939,-5.08944 0.34749,-2.020779 0.7314,-4.035188 1.12492,-6.047465 0.48572,-2.47524 1.00113,-4.9446714 1.55283,-7.4060586 0.0845,-0.3672115 0.1539,-0.7386293 0.24738,-1.1033079 0.0517,-0.1482929 0.107,-0.3201681 0.0292,-0.4698844 l -0.0387,0.029021 z"
             id="path14"
             sodipodi:nodetypes="cssssc" /></g></g></g></g></svg>
