<?xml version="1.0" encoding="UTF-8" standalone="no"?>
<!-- Created with Inkscape (http://www.inkscape.org/) -->

<svg
   width="50mm"
   height="50mm"
   viewBox="0 0 50 50"
   version="1.1"
   id="svg1"
   xml:space="preserve"
   inkscape:version="1.3.2 (091e20e, 2023-11-25, custom)"
   sodipodi:docname="ALLICONS.svg"
   xmlns:inkscape="http://www.inkscape.org/namespaces/inkscape"
   xmlns:sodipodi="http://sodipodi.sourceforge.net/DTD/sodipodi-0.dtd"
   xmlns="http://www.w3.org/2000/svg"
   xmlns:svg="http://www.w3.org/2000/svg"><sodipodi:namedview
     id="namedview1"
     pagecolor="#ffffff"
     bordercolor="#000000"
     borderopacity="0.25"
     inkscape:showpageshadow="2"
     inkscape:pageopacity="0.0"
     inkscape:pagecheckerboard="0"
     inkscape:deskcolor="#d1d1d1"
     inkscape:document-units="mm"
     inkscape:zoom="0.5"
     inkscape:cx="812"
     inkscape:cy="483"
     inkscape:window-width="1920"
     inkscape:window-height="991"
     inkscape:window-x="-9"
     inkscape:window-y="-9"
     inkscape:window-maximized="1"
     inkscape:current-layer="layer1"><inkscape:page
       x="0"
       y="0"
       width="50"
       height="50"
       id="page7"
       margin="0"
       bleed="0"
       inkscape:label="RR" /></sodipodi:namedview><defs
     id="defs1" /><g
     inkscape:label="Layer 1"
     inkscape:groupmode="layer"
     id="layer1"
     transform="translate(-102.76896,8.4876213)"><path
       d="m 126.01331,-8.3039297 c -0.47351,0.3416709 -0.73658,0.9446178 -0.73658,1.6983005 0,0.5024544 0.11575,0.9848122 0.50509,2.1103126 0.67345,1.9696243 0.70501,2.4419332 0.6524,10.5415137 -0.0421,7.0745719 -0.0843,7.6875669 -0.56822,8.6221339 -0.43143,0.864225 -0.83129,0.472309 -1.76779,-1.758593 -1.25219,-2.9443888 -2.16764,-4.4618044 -3.30408,-5.4767644 -2.03087,-1.7887408 -3.87231,-1.4068743 -6.53452,1.3968264 -3.3567,3.507139 -6.79758,9.888322 -9.44928,17.475398 -1.47314,4.210576 -2.04136,6.833394 -2.04136,9.446162 0,1.718395 0.17886,2.61277 0.75762,3.738269 0.79971,1.55761 1.7678,2.100261 3.56716,2.01987 1.16798,-0.0603 2.24129,-0.371817 4.14588,-1.195844 3.19885,-1.386777 3.97753,-1.597807 7.3237,-1.949525 2.62013,-0.281376 3.29357,-0.381868 4.13537,-0.612998 1.29428,-0.371818 2.04138,-0.924516 2.47282,-1.818889 0.46299,-0.964712 0.57874,-1.798789 0.65239,-4.903963 l 0.0737,-2.914244 0.18564,-1.108198 c 0.73657,-1.547563 0.91321,-2.105734 0.91321,-3.673395 0,-0.994859 0.18505,-1.629735 0.0165,-2.383419 -0.35777,-1.617907 -0.2841,-2.632865 0.2315,-3.195617 0.34724,-0.391914 0.87337,-0.271325 1.48367,0.311524 0.63137,0.602946 0.67345,0.894369 0.28411,2.070116 -0.77866,2.321341 -0.71553,4.059839 0.25255,6.823345 0.45248,1.286284 0.48404,1.44707 0.57873,2.964485 0.29464,4.83362 0.39987,5.527009 1.06278,6.692706 0.86286,1.567662 2.40968,2.150511 7.10275,2.703209 3.06206,0.361769 4.07222,0.582852 6.43981,1.447071 2.26235,0.824027 2.98256,0.565633 3.99274,0.746516 2.87384,0 3.87813,0.198104 4.22537,-2.394566 0.15785,-1.15565 0.12629,-5.285832 -0.0526,-6.833395 -0.705,-6.320889 -3.2199,-13.053793 -6.65026,-17.837167 -2.69377,-3.738268 -6.4819,-7.365996 -8.03924,-7.6775178 -1.06277,-0.2210805 -2.17818,0.2009815 -3.27252,1.2159416 -1.13643,1.0752547 -1.59944,1.929429 -2.72534,5.0346022 -0.68397,1.879185 -0.98912,2.512279 -1.17852,2.462032 -0.26308,-0.0804 -0.82077,-1.035058 -1.14697,-1.969625 l -0.3473,-0.974764 V 4.8503533 -2.8372152 c 0.0779,-1.0761397 0.0767,-0.9544178 0.24929,-1.6344805 l 0.1919,-2.6015984 c 0.0118,-0.9548215 -0.74396,-1.5047684 -1.03859,-1.4143272 -0.10522,0.040201 -0.39172,0.4550177 -0.63373,0.7866385 -0.36348,0.4829394 -0.81193,0.1772604 -0.9786,-0.090441 -0.2315,-0.3718175 -0.49458,-0.6833394 -0.57875,-0.6933893 -0.0843,-0.020078 -0.29463,0.07035 -0.45247,0.1808837 z m -7.07116,17.5959885 c 0,0 1.95719,2.4921792 3.11468,4.9642592 0.88391,1.89928 1.62048,3.818662 1.84145,4.793424 0.0947,0.401966 0.30516,1.225991 0.47351,1.838987 0.463,1.678202 0.48405,2.140461 0.16837,3.215715 -0.14732,0.492407 -0.31567,1.085305 -0.37882,1.316434 l -0.11575,0.42206 -0.81024,0.170838 c -3.07303,0.646179 -4.72901,-0.840607 -5.60974,-2.859226 -0.66292,-1.517414 -1.1247,-1.92415 -2.42949,-2.72808 -1.03122,-0.633094 -1.73623,-0.824026 -3.32514,-0.874273 l -1.37846,-0.05024 0.33674,-0.723536 c 0.51559,-1.085304 1.99928,-3.667925 2.91475,-5.104947 1.38897,-2.170607 2.57802,-3.617679 3.504,-4.2708699 0.31273,-0.2209258 0.95378,0.1550989 1.60397,0.6786279 0.94685,0.762395 3.07066,1.672236 3.07066,1.672236 z m 18.85644,0.0804 c 0,0.071249 -1.5827,-0.8286281 -1.35436,-0.6562254 1.22091,0.9218142 5.17057,4.2131316 6.95236,6.7359366 1.07331,1.507367 2.53596,3.818661 2.53596,3.989496 0,0.05024 -0.53665,0.0804 -1.18907,0.0804 -1.34689,0 -2.10449,0.150737 -3.10414,0.612996 -4.16039,1.928168 -2.40476,6.884972 -8.57591,5.888776 -0.47352,-0.09044 -0.99964,-0.180884 -1.16799,-0.19093 -0.29465,-0.03015 -0.32621,-0.0804 -0.5156,-0.733586 -0.12629,-0.44216 -0.19994,-1.085304 -0.21047,-1.758594 -0.0209,-1.185796 -0.063,-1.045107 1.63099,-5.6275 1.62049,-4.361313 2.97791,-7.255457 3.79865,-8.1096315 0.46301,-0.4823579 0.57875,-0.5024557 1.19958,-0.2311307 z M 112.42868,22.144875 c 4.41508,0.77248 2.25856,6.60693 9.58607,6.562069 1.02068,0 1.47314,0.03013 1.42054,0.100488 -0.0317,0.0603 -0.0737,1.215942 -0.0737,2.572571 0,2.210803 -0.0209,2.502228 -0.19992,2.813751 -0.57875,1.045107 -1.05226,1.225991 -3.95649,1.467168 -2.90424,0.24118 -3.48298,0.391917 -6.73445,1.698301 -2.95684,1.195843 -3.95648,1.487268 -4.9456,1.437022 -0.62083,-0.0201 -0.86286,-0.08039 -1.13645,-0.261277 -0.77866,-0.532602 -1.03119,-1.678201 -0.85232,-3.909103 0.24201,-3.185567 1.01016,-6.049563 2.84109,-10.49127 l 0.72607,-1.768643 0.61031,-0.07034 c 0.3262,-0.03015 0.81022,-0.100487 1.07329,-0.150738 0.68397,-0.120588 0.93652,-0.120588 1.64151,0 z m 33.03034,0 c 0.34725,0.0603 0.86286,0.130638 1.15749,0.170835 0.50508,0.07034 0.52612,0.08038 0.71553,0.572801 0.76815,1.979674 2.09401,6.451526 2.55699,8.622133 0.463,2.170608 0.45247,5.808386 -0.0209,7.144917 -0.37884,1.055158 -0.98914,1.095352 -3.26201,0.211029 -1.99928,-0.783828 -3.93544,-1.416921 -4.88248,-1.597805 -0.44194,-0.0804 -1.78883,-0.251229 -2.99892,-0.361769 -2.7043,-0.251228 -3.48297,-0.401963 -4.36687,-0.824027 -1.35741,-0.66324 -1.60996,-1.487268 -1.87301,-6.129954 l -0.0738,-1.38678 c 0.79567,0.110537 6.62431,-0.262552 8.4391,-3.858845 0.63135,-1.447071 1.53629,-2.251003 2.87266,-2.532375 0.7471,-0.160787 0.96808,-0.160787 1.73622,-0.03015 z"
       id="path1-0"
       style="fill:#000000;stroke:none;stroke-width:0.0352777"
       sodipodi:nodetypes="sscccccccscccccccccsccsccccccccccccccccccccccscsssccccccccccccccscssscsscccccccsssccscsccccccccsssccscccccccccss" /></g></svg>
