<?xml version="1.0" encoding="UTF-8" standalone="no"?>
<!-- Created with Inkscape (http://www.inkscape.org/) -->

<svg
   width="50mm"
   height="50mm"
   viewBox="0 0 50 50"
   version="1.1"
   id="svg1"
   xml:space="preserve"
   inkscape:version="1.3.2 (091e20e, 2023-11-25, custom)"
   sodipodi:docname="ALLICONS.svg"
   xmlns:inkscape="http://www.inkscape.org/namespaces/inkscape"
   xmlns:sodipodi="http://sodipodi.sourceforge.net/DTD/sodipodi-0.dtd"
   xmlns="http://www.w3.org/2000/svg"
   xmlns:svg="http://www.w3.org/2000/svg"><sodipodi:namedview
     id="namedview1"
     pagecolor="#ffffff"
     bordercolor="#000000"
     borderopacity="0.25"
     inkscape:showpageshadow="2"
     inkscape:pageopacity="0.0"
     inkscape:pagecheckerboard="0"
     inkscape:deskcolor="#d1d1d1"
     inkscape:document-units="mm"
     inkscape:zoom="0.5"
     inkscape:cx="812"
     inkscape:cy="483"
     inkscape:window-width="1920"
     inkscape:window-height="991"
     inkscape:window-x="-9"
     inkscape:window-y="-9"
     inkscape:window-maximized="1"
     inkscape:current-layer="layer1"><inkscape:page
       x="0"
       y="0"
       width="50"
       height="50"
       id="page25"
       margin="0"
       bleed="0"
       inkscape:label="HRV" /></sodipodi:namedview><defs
     id="defs1" /><g
     inkscape:label="Layer 1"
     inkscape:groupmode="layer"
     id="layer1"
     transform="translate(-342.76896,8.4876213)"><g
       id="g2-8-8"
       style="fill:none;fill-opacity:1;stroke:#000000;stroke-width:13.5344;stroke-dasharray:none;stroke-opacity:1"
       transform="matrix(0.04798586,0,0,0.06657783,324.34655,-38.504356)">
		<path
   fill="none"
   stroke="#ffffff"
   stroke-width="151.662"
   stroke-linecap="round"
   stroke-linejoin="round"
   stroke-miterlimit="10"
   d="m 289.575,942.752 h 188.677 l 27.389,-82.166 25.867,82.166 h 27.389 l 12.173,38.04 30.432,-523.427 45.648,737.971 24.345,-252.584 65.428,-1.522 c 0,0 54.777,-76.079 115.641,0 l 94.339,-1.522 31.953,-79.123 25.867,76.079 25.867,3.043 10.651,39.561 34.997,-509.732 44.126,725.798 22.824,-255.627 74.558,3.043 c 2.707,-0.245 51.68,-76.387 112.598,-1.522 l 176.504,-1.522"
   id="path2-5-3"
   style="fill:none;fill-opacity:1;stroke:#000000;stroke-width:13.5344;stroke-dasharray:none;stroke-opacity:1" />
		
	</g><path
       style="fill:none;fill-opacity:1;stroke:#000000;stroke-width:1.3;stroke-linecap:round;stroke-linejoin:round;stroke-dasharray:1.3, 2.6;stroke-dashoffset:0;stroke-opacity:1"
       d="m 356.1399,-2.6944752 16.7764,5.23e-5"
       id="path25" /></g></svg>
