<?xml version="1.0" encoding="UTF-8" standalone="no"?>
<!-- Created with Inkscape (http://www.inkscape.org/) -->

<svg
   width="50mm"
   height="50mm"
   viewBox="0 0 50 50"
   version="1.1"
   id="svg1"
   xml:space="preserve"
   inkscape:version="1.3.2 (091e20e, 2023-11-25, custom)"
   sodipodi:docname="ALLICONS.svg"
   xmlns:inkscape="http://www.inkscape.org/namespaces/inkscape"
   xmlns:sodipodi="http://sodipodi.sourceforge.net/DTD/sodipodi-0.dtd"
   xmlns="http://www.w3.org/2000/svg"
   xmlns:svg="http://www.w3.org/2000/svg"><sodipodi:namedview
     id="namedview1"
     pagecolor="#ffffff"
     bordercolor="#000000"
     borderopacity="0.25"
     inkscape:showpageshadow="2"
     inkscape:pageopacity="0.0"
     inkscape:pagecheckerboard="0"
     inkscape:deskcolor="#d1d1d1"
     inkscape:document-units="mm"
     inkscape:zoom="0.5"
     inkscape:cx="812"
     inkscape:cy="483"
     inkscape:window-width="1920"
     inkscape:window-height="991"
     inkscape:window-x="-9"
     inkscape:window-y="-9"
     inkscape:window-maximized="1"
     inkscape:current-layer="layer1"><inkscape:page
       x="0"
       y="0"
       width="50"
       height="50"
       id="page4"
       margin="0"
       bleed="0"
       inkscape:label="Wavelet" /></sodipodi:namedview><defs
     id="defs1" /><g
     inkscape:label="Layer 1"
     inkscape:groupmode="layer"
     id="layer1"
     transform="translate(17.231037,8.4876213)"><path
       d="m 25.224537,16.1618 c 0.127059,-1.027598 0.25411,-1.936621 0.349389,-2.648026 0.03173,-0.197618 0.12705,-0.948555 0.317629,-1.857578 0.12705,-0.632362 0.19058,-0.909023 0.28586,-1.146162 0.190579,-0.5928279 0.412918,-1.0275848 0.603497,-1.304245 0.03173,-0.039579 0.12705,-0.1976177 0.317629,-0.2371388 0.190579,-0.039463 0.349389,0.1185753 0.349389,0.1185753 0.127049,0.1580849 0.349389,0.3952237 0.571737,0.7509262 0.317619,0.4347573 0.381149,0.6323613 0.857597,1.4228213 0.158809,0.27666 0.381149,0.592841 0.603488,0.948544 0.06355,0.118574 0.285868,0.434756 0.603497,0.909022 0.285868,0.434756 0.698787,0.988077 1.175226,1.620439 -0.09529,-0.118575 -1.461094,-1.818045 -3.398627,-1.304258 -1.143465,0.316182 -2.223401,1.34378 -2.604541,2.72708 -0.06355,0.197606 -0.09529,0.395223 -0.127059,0.632363 -0.09528,0.632362 -0.127049,1.264725 -0.19057,1.897088 -0.06355,0.632362 -0.158818,1.304258 -0.222348,1.936621 l -0.476439,4.149889 c -0.12705,1.027586 -0.222339,2.055185 -0.349389,3.082772 -0.06355,0.553319 -0.190578,1.343779 -0.317628,2.252801 -0.476448,3.043249 -1.048176,6.481735 -2.858659,8.774058 -0.476448,0.592842 -1.079936,1.106629 -1.778723,1.106629 -0.794066,0 -1.461085,-0.711405 -1.937532,-1.462343 -1.079936,-1.818046 -1.492854,-4.189411 -1.905773,-6.36316 -0.444678,-2.292323 -0.730547,-4.42655 -0.889356,-6.363171 -0.03173,-0.237127 -0.06355,-0.434744 -0.06355,-0.671883 L 12.995818,14.936585 C 12.42408,9.9172061 12.011163,4.8582814 11.121806,-0.08205619 10.867696,-1.544399 10.550068,-3.0462631 9.9783401,-4.3505214 9.5019011,-5.4571618 8.7713541,-6.8404507 7.6914182,-6.9590143 7.1196807,-7.0380567 6.5479526,-6.7218871 6.1032742,-6.2476093 4.1022124,-4.1133824 3.9433934,-0.39823744 3.5304752,2.6450122 3.2446156,4.7397178 3.0222765,6.7553809 2.8316974,8.6920019 2.7681406,9.2848314 2.7046477,9.8381517 2.6411183,10.430992 2.2599601,13.869477 1.8788111,17.307961 1.5294224,20.746436 c -0.5082079,4.545113 -0.82583659,9.129759 -1.68343331,13.595831 -0.34938888,1.857577 -0.85759669,3.833709 -2.09635159,4.97987 -0.3493888,0.316181 -0.7623072,0.592841 -1.2069856,0.632363 -0.4446784,0.03957 -0.8893568,-0.158085 -1.2705149,-0.434745 -0.7623072,-0.553321 -1.3340447,-1.422822 -1.7469629,-2.371367 -0.4129183,-0.948544 -0.6987777,-2.015662 -0.9211169,-3.043248 -0.6670177,-2.885165 -1.0799359,-5.809851 -1.4293339,-8.774058 -0.19057,-1.580919 -0.4129091,-3.161825 -0.6034882,-4.742731 -0.1588188,-1.185684 -0.2541085,-2.331846 -0.4446783,-3.517528 -0.2223478,-1.62044 -1.3658028,-2.924686 -2.6363188,-3.280389 -1.778723,-0.513799 -3.080998,0.909023 -3.208057,1.027587 0.635258,-0.790447 1.111706,-1.501865 1.397574,-2.015664 1.302276,-2.292323 1.651665,-2.924672 1.651665,-2.924672 0.03173,-0.079042 0.158818,-0.2766722 0.317628,-0.5137994 0.158819,-0.1976176 0.317629,-0.3161812 0.444678,-0.3952354 0.09529,0.039579 0.254109,0.1580966 0.412919,0.3161812 0.444678,0.4742779 0.539968,1.1066406 0.603497,1.4623416 0.158809,0.909023 0.412917,1.818046 0.508207,2.766601 0.09529,0.671884 0.22234,1.699483 0.412919,3.043249 M 10.804177,-1.8210592 c -0.349398,-1.9366207 -1.7469634,-3.3594425 -3.3350979,-3.3594425 -1.5881532,0 -2.9539486,1.4228218 -3.3033374,3.3594425 M 15.632128,35.121636 c 1.051525,4.334119 5.982319,4.465695 7.051353,0 M -7.4277121,34.607848 c 0.7912389,4.833118 6.45030738,4.877069 7.30546134,0"
       style="fill:none;stroke:#000000;stroke-width:3.029;stroke-linecap:round;stroke-linejoin:round;stroke-miterlimit:10;stroke-dasharray:none"
       id="path1-3"
       sodipodi:nodetypes="cccccccccccccccccccccsccccccccccccccccsscccccccccccccccsccccc" /></g></svg>
