<?xml version="1.0" encoding="utf-8" standalone="no"?>
<!DOCTYPE svg PUBLIC "-//W3C//DTD SVG 1.1//EN"
  "http://www.w3.org/Graphics/SVG/1.1/DTD/svg11.dtd">
<svg xmlns:xlink="http://www.w3.org/1999/xlink" width="460.8pt" height="345.6pt" viewBox="0 0 460.8 345.6" xmlns="http://www.w3.org/2000/svg" version="1.1">
 <metadata>
  <rdf:RDF xmlns:dc="http://purl.org/dc/elements/1.1/" xmlns:cc="http://creativecommons.org/ns#" xmlns:rdf="http://www.w3.org/1999/02/22-rdf-syntax-ns#">
   <cc:Work>
    <dc:type rdf:resource="http://purl.org/dc/dcmitype/StillImage"/>
    <dc:date>2024-06-11T19:49:44.698260</dc:date>
    <dc:format>image/svg+xml</dc:format>
    <dc:creator>
     <cc:Agent>
      <dc:title>Matplotlib v3.8.2, https://matplotlib.org/</dc:title>
     </cc:Agent>
    </dc:creator>
   </cc:Work>
  </rdf:RDF>
 </metadata>
 <defs>
  <style type="text/css">*{stroke-linejoin: round; stroke-linecap: butt}</style>
 </defs>
 <g id="figure_1">
  <g id="patch_1">
   <path d="M 0 345.6 
L 460.8 345.6 
L 460.8 0 
L 0 0 
z
" style="fill: #ffffff"/>
  </g>
  <g id="axes_1">
   <g id="patch_2">
    <path d="M 57.6 307.584 
L 414.72 307.584 
L 414.72 41.472 
L 57.6 41.472 
z
" style="fill: #ffffff"/>
   </g>
   <g id="matplotlib.axis_1">
    <g id="xtick_1">
     <g id="line2d_1">
      <defs>
       <path id="m22b1656cf0" d="M 0 0 
L 0 3.5 
" style="stroke: #000000; stroke-width: 0.8"/>
      </defs>
      <g>
       <use xlink:href="#m22b1656cf0" x="97.025651" y="307.584" style="stroke: #000000; stroke-width: 0.8"/>
      </g>
     </g>
     <g id="text_1">
      <!-- −300 -->
      <g transform="translate(83.292057 322.182437) scale(0.1 -0.1)">
       <defs>
        <path id="DejaVuSans-2212" d="M 678 2272 
L 4684 2272 
L 4684 1741 
L 678 1741 
L 678 2272 
z
" transform="scale(0.015625)"/>
        <path id="DejaVuSans-33" d="M 2597 2516 
Q 3050 2419 3304 2112 
Q 3559 1806 3559 1356 
Q 3559 666 3084 287 
Q 2609 -91 1734 -91 
Q 1441 -91 1130 -33 
Q 819 25 488 141 
L 488 750 
Q 750 597 1062 519 
Q 1375 441 1716 441 
Q 2309 441 2620 675 
Q 2931 909 2931 1356 
Q 2931 1769 2642 2001 
Q 2353 2234 1838 2234 
L 1294 2234 
L 1294 2753 
L 1863 2753 
Q 2328 2753 2575 2939 
Q 2822 3125 2822 3475 
Q 2822 3834 2567 4026 
Q 2313 4219 1838 4219 
Q 1578 4219 1281 4162 
Q 984 4106 628 3988 
L 628 4550 
Q 988 4650 1302 4700 
Q 1616 4750 1894 4750 
Q 2613 4750 3031 4423 
Q 3450 4097 3450 3541 
Q 3450 3153 3228 2886 
Q 3006 2619 2597 2516 
z
" transform="scale(0.015625)"/>
        <path id="DejaVuSans-30" d="M 2034 4250 
Q 1547 4250 1301 3770 
Q 1056 3291 1056 2328 
Q 1056 1369 1301 889 
Q 1547 409 2034 409 
Q 2525 409 2770 889 
Q 3016 1369 3016 2328 
Q 3016 3291 2770 3770 
Q 2525 4250 2034 4250 
z
M 2034 4750 
Q 2819 4750 3233 4129 
Q 3647 3509 3647 2328 
Q 3647 1150 3233 529 
Q 2819 -91 2034 -91 
Q 1250 -91 836 529 
Q 422 1150 422 2328 
Q 422 3509 836 4129 
Q 1250 4750 2034 4750 
z
" transform="scale(0.015625)"/>
       </defs>
       <use xlink:href="#DejaVuSans-2212"/>
       <use xlink:href="#DejaVuSans-33" x="83.789062"/>
       <use xlink:href="#DejaVuSans-30" x="147.412109"/>
       <use xlink:href="#DejaVuSans-30" x="211.035156"/>
      </g>
     </g>
    </g>
    <g id="xtick_2">
     <g id="line2d_2">
      <g>
       <use xlink:href="#m22b1656cf0" x="143.411498" y="307.584" style="stroke: #000000; stroke-width: 0.8"/>
      </g>
     </g>
     <g id="text_2">
      <!-- −200 -->
      <g transform="translate(129.677905 322.182437) scale(0.1 -0.1)">
       <defs>
        <path id="DejaVuSans-32" d="M 1228 531 
L 3431 531 
L 3431 0 
L 469 0 
L 469 531 
Q 828 903 1448 1529 
Q 2069 2156 2228 2338 
Q 2531 2678 2651 2914 
Q 2772 3150 2772 3378 
Q 2772 3750 2511 3984 
Q 2250 4219 1831 4219 
Q 1534 4219 1204 4116 
Q 875 4013 500 3803 
L 500 4441 
Q 881 4594 1212 4672 
Q 1544 4750 1819 4750 
Q 2544 4750 2975 4387 
Q 3406 4025 3406 3419 
Q 3406 3131 3298 2873 
Q 3191 2616 2906 2266 
Q 2828 2175 2409 1742 
Q 1991 1309 1228 531 
z
" transform="scale(0.015625)"/>
       </defs>
       <use xlink:href="#DejaVuSans-2212"/>
       <use xlink:href="#DejaVuSans-32" x="83.789062"/>
       <use xlink:href="#DejaVuSans-30" x="147.412109"/>
       <use xlink:href="#DejaVuSans-30" x="211.035156"/>
      </g>
     </g>
    </g>
    <g id="xtick_3">
     <g id="line2d_3">
      <g>
       <use xlink:href="#m22b1656cf0" x="189.797346" y="307.584" style="stroke: #000000; stroke-width: 0.8"/>
      </g>
     </g>
     <g id="text_3">
      <!-- −100 -->
      <g transform="translate(176.063752 322.182437) scale(0.1 -0.1)">
       <defs>
        <path id="DejaVuSans-31" d="M 794 531 
L 1825 531 
L 1825 4091 
L 703 3866 
L 703 4441 
L 1819 4666 
L 2450 4666 
L 2450 531 
L 3481 531 
L 3481 0 
L 794 0 
L 794 531 
z
" transform="scale(0.015625)"/>
       </defs>
       <use xlink:href="#DejaVuSans-2212"/>
       <use xlink:href="#DejaVuSans-31" x="83.789062"/>
       <use xlink:href="#DejaVuSans-30" x="147.412109"/>
       <use xlink:href="#DejaVuSans-30" x="211.035156"/>
      </g>
     </g>
    </g>
    <g id="xtick_4">
     <g id="line2d_4">
      <g>
       <use xlink:href="#m22b1656cf0" x="236.183193" y="307.584" style="stroke: #000000; stroke-width: 0.8"/>
      </g>
     </g>
     <g id="text_4">
      <!-- 0 -->
      <g transform="translate(233.001943 322.182437) scale(0.1 -0.1)">
       <use xlink:href="#DejaVuSans-30"/>
      </g>
     </g>
    </g>
    <g id="xtick_5">
     <g id="line2d_5">
      <g>
       <use xlink:href="#m22b1656cf0" x="282.56904" y="307.584" style="stroke: #000000; stroke-width: 0.8"/>
      </g>
     </g>
     <g id="text_5">
      <!-- 100 -->
      <g transform="translate(273.02529 322.182437) scale(0.1 -0.1)">
       <use xlink:href="#DejaVuSans-31"/>
       <use xlink:href="#DejaVuSans-30" x="63.623047"/>
       <use xlink:href="#DejaVuSans-30" x="127.246094"/>
      </g>
     </g>
    </g>
    <g id="xtick_6">
     <g id="line2d_6">
      <g>
       <use xlink:href="#m22b1656cf0" x="328.954888" y="307.584" style="stroke: #000000; stroke-width: 0.8"/>
      </g>
     </g>
     <g id="text_6">
      <!-- 200 -->
      <g transform="translate(319.411138 322.182437) scale(0.1 -0.1)">
       <use xlink:href="#DejaVuSans-32"/>
       <use xlink:href="#DejaVuSans-30" x="63.623047"/>
       <use xlink:href="#DejaVuSans-30" x="127.246094"/>
      </g>
     </g>
    </g>
    <g id="xtick_7">
     <g id="line2d_7">
      <g>
       <use xlink:href="#m22b1656cf0" x="375.340735" y="307.584" style="stroke: #000000; stroke-width: 0.8"/>
      </g>
     </g>
     <g id="text_7">
      <!-- 300 -->
      <g transform="translate(365.796985 322.182437) scale(0.1 -0.1)">
       <use xlink:href="#DejaVuSans-33"/>
       <use xlink:href="#DejaVuSans-30" x="63.623047"/>
       <use xlink:href="#DejaVuSans-30" x="127.246094"/>
      </g>
     </g>
    </g>
    <g id="text_8">
     <!-- Frequency [$Hz$] -->
     <g transform="translate(197.96 335.862125) scale(0.1 -0.1)">
      <defs>
       <path id="DejaVuSans-46" d="M 628 4666 
L 3309 4666 
L 3309 4134 
L 1259 4134 
L 1259 2759 
L 3109 2759 
L 3109 2228 
L 1259 2228 
L 1259 0 
L 628 0 
L 628 4666 
z
" transform="scale(0.015625)"/>
       <path id="DejaVuSans-72" d="M 2631 2963 
Q 2534 3019 2420 3045 
Q 2306 3072 2169 3072 
Q 1681 3072 1420 2755 
Q 1159 2438 1159 1844 
L 1159 0 
L 581 0 
L 581 3500 
L 1159 3500 
L 1159 2956 
Q 1341 3275 1631 3429 
Q 1922 3584 2338 3584 
Q 2397 3584 2469 3576 
Q 2541 3569 2628 3553 
L 2631 2963 
z
" transform="scale(0.015625)"/>
       <path id="DejaVuSans-65" d="M 3597 1894 
L 3597 1613 
L 953 1613 
Q 991 1019 1311 708 
Q 1631 397 2203 397 
Q 2534 397 2845 478 
Q 3156 559 3463 722 
L 3463 178 
Q 3153 47 2828 -22 
Q 2503 -91 2169 -91 
Q 1331 -91 842 396 
Q 353 884 353 1716 
Q 353 2575 817 3079 
Q 1281 3584 2069 3584 
Q 2775 3584 3186 3129 
Q 3597 2675 3597 1894 
z
M 3022 2063 
Q 3016 2534 2758 2815 
Q 2500 3097 2075 3097 
Q 1594 3097 1305 2825 
Q 1016 2553 972 2059 
L 3022 2063 
z
" transform="scale(0.015625)"/>
       <path id="DejaVuSans-71" d="M 947 1747 
Q 947 1113 1208 752 
Q 1469 391 1925 391 
Q 2381 391 2643 752 
Q 2906 1113 2906 1747 
Q 2906 2381 2643 2742 
Q 2381 3103 1925 3103 
Q 1469 3103 1208 2742 
Q 947 2381 947 1747 
z
M 2906 525 
Q 2725 213 2448 61 
Q 2172 -91 1784 -91 
Q 1150 -91 751 415 
Q 353 922 353 1747 
Q 353 2572 751 3078 
Q 1150 3584 1784 3584 
Q 2172 3584 2448 3432 
Q 2725 3281 2906 2969 
L 2906 3500 
L 3481 3500 
L 3481 -1331 
L 2906 -1331 
L 2906 525 
z
" transform="scale(0.015625)"/>
       <path id="DejaVuSans-75" d="M 544 1381 
L 544 3500 
L 1119 3500 
L 1119 1403 
Q 1119 906 1312 657 
Q 1506 409 1894 409 
Q 2359 409 2629 706 
Q 2900 1003 2900 1516 
L 2900 3500 
L 3475 3500 
L 3475 0 
L 2900 0 
L 2900 538 
Q 2691 219 2414 64 
Q 2138 -91 1772 -91 
Q 1169 -91 856 284 
Q 544 659 544 1381 
z
M 1991 3584 
L 1991 3584 
z
" transform="scale(0.015625)"/>
       <path id="DejaVuSans-6e" d="M 3513 2113 
L 3513 0 
L 2938 0 
L 2938 2094 
Q 2938 2591 2744 2837 
Q 2550 3084 2163 3084 
Q 1697 3084 1428 2787 
Q 1159 2491 1159 1978 
L 1159 0 
L 581 0 
L 581 3500 
L 1159 3500 
L 1159 2956 
Q 1366 3272 1645 3428 
Q 1925 3584 2291 3584 
Q 2894 3584 3203 3211 
Q 3513 2838 3513 2113 
z
" transform="scale(0.015625)"/>
       <path id="DejaVuSans-63" d="M 3122 3366 
L 3122 2828 
Q 2878 2963 2633 3030 
Q 2388 3097 2138 3097 
Q 1578 3097 1268 2742 
Q 959 2388 959 1747 
Q 959 1106 1268 751 
Q 1578 397 2138 397 
Q 2388 397 2633 464 
Q 2878 531 3122 666 
L 3122 134 
Q 2881 22 2623 -34 
Q 2366 -91 2075 -91 
Q 1284 -91 818 406 
Q 353 903 353 1747 
Q 353 2603 823 3093 
Q 1294 3584 2113 3584 
Q 2378 3584 2631 3529 
Q 2884 3475 3122 3366 
z
" transform="scale(0.015625)"/>
       <path id="DejaVuSans-79" d="M 2059 -325 
Q 1816 -950 1584 -1140 
Q 1353 -1331 966 -1331 
L 506 -1331 
L 506 -850 
L 844 -850 
Q 1081 -850 1212 -737 
Q 1344 -625 1503 -206 
L 1606 56 
L 191 3500 
L 800 3500 
L 1894 763 
L 2988 3500 
L 3597 3500 
L 2059 -325 
z
" transform="scale(0.015625)"/>
       <path id="DejaVuSans-20" transform="scale(0.015625)"/>
       <path id="DejaVuSans-5b" d="M 550 4863 
L 1875 4863 
L 1875 4416 
L 1125 4416 
L 1125 -397 
L 1875 -397 
L 1875 -844 
L 550 -844 
L 550 4863 
z
" transform="scale(0.015625)"/>
       <path id="DejaVuSans-Oblique-48" d="M 1081 4666 
L 1716 4666 
L 1344 2753 
L 3634 2753 
L 4006 4666 
L 4641 4666 
L 3731 0 
L 3097 0 
L 3531 2222 
L 1241 2222 
L 806 0 
L 172 0 
L 1081 4666 
z
" transform="scale(0.015625)"/>
       <path id="DejaVuSans-Oblique-7a" d="M 744 3500 
L 3475 3500 
L 3372 2975 
L 738 459 
L 2913 459 
L 2822 0 
L -19 0 
L 84 525 
L 2719 3041 
L 653 3041 
L 744 3500 
z
" transform="scale(0.015625)"/>
       <path id="DejaVuSans-5d" d="M 1947 4863 
L 1947 -844 
L 622 -844 
L 622 -397 
L 1369 -397 
L 1369 4416 
L 622 4416 
L 622 4863 
L 1947 4863 
z
" transform="scale(0.015625)"/>
      </defs>
      <use xlink:href="#DejaVuSans-46" transform="translate(0 0.015625)"/>
      <use xlink:href="#DejaVuSans-72" transform="translate(57.519531 0.015625)"/>
      <use xlink:href="#DejaVuSans-65" transform="translate(98.632812 0.015625)"/>
      <use xlink:href="#DejaVuSans-71" transform="translate(160.15625 0.015625)"/>
      <use xlink:href="#DejaVuSans-75" transform="translate(223.632812 0.015625)"/>
      <use xlink:href="#DejaVuSans-65" transform="translate(287.011719 0.015625)"/>
      <use xlink:href="#DejaVuSans-6e" transform="translate(348.535156 0.015625)"/>
      <use xlink:href="#DejaVuSans-63" transform="translate(411.914062 0.015625)"/>
      <use xlink:href="#DejaVuSans-79" transform="translate(466.894531 0.015625)"/>
      <use xlink:href="#DejaVuSans-20" transform="translate(526.074219 0.015625)"/>
      <use xlink:href="#DejaVuSans-5b" transform="translate(557.861328 0.015625)"/>
      <use xlink:href="#DejaVuSans-Oblique-48" transform="translate(596.875 0.015625)"/>
      <use xlink:href="#DejaVuSans-Oblique-7a" transform="translate(672.070312 0.015625)"/>
      <use xlink:href="#DejaVuSans-5d" transform="translate(724.560547 0.015625)"/>
     </g>
    </g>
   </g>
   <g id="matplotlib.axis_2">
    <g id="ytick_1">
     <g id="line2d_8">
      <defs>
       <path id="m9132574355" d="M 0 0 
L -3.5 0 
" style="stroke: #000000; stroke-width: 0.8"/>
      </defs>
      <g>
       <use xlink:href="#m9132574355" x="57.6" y="279.670083" style="stroke: #000000; stroke-width: 0.8"/>
      </g>
     </g>
     <g id="text_9">
      <!-- −10 -->
      <g transform="translate(29.495313 283.469302) scale(0.1 -0.1)">
       <use xlink:href="#DejaVuSans-2212"/>
       <use xlink:href="#DejaVuSans-31" x="83.789062"/>
       <use xlink:href="#DejaVuSans-30" x="147.412109"/>
      </g>
     </g>
    </g>
    <g id="ytick_2">
     <g id="line2d_9">
      <g>
       <use xlink:href="#m9132574355" x="57.6" y="223.842249" style="stroke: #000000; stroke-width: 0.8"/>
      </g>
     </g>
     <g id="text_10">
      <!-- 0 -->
      <g transform="translate(44.2375 227.641468) scale(0.1 -0.1)">
       <use xlink:href="#DejaVuSans-30"/>
      </g>
     </g>
    </g>
    <g id="ytick_3">
     <g id="line2d_10">
      <g>
       <use xlink:href="#m9132574355" x="57.6" y="168.014415" style="stroke: #000000; stroke-width: 0.8"/>
      </g>
     </g>
     <g id="text_11">
      <!-- 10 -->
      <g transform="translate(37.875 171.813634) scale(0.1 -0.1)">
       <use xlink:href="#DejaVuSans-31"/>
       <use xlink:href="#DejaVuSans-30" x="63.623047"/>
      </g>
     </g>
    </g>
    <g id="ytick_4">
     <g id="line2d_11">
      <g>
       <use xlink:href="#m9132574355" x="57.6" y="112.186581" style="stroke: #000000; stroke-width: 0.8"/>
      </g>
     </g>
     <g id="text_12">
      <!-- 20 -->
      <g transform="translate(37.875 115.9858) scale(0.1 -0.1)">
       <use xlink:href="#DejaVuSans-32"/>
       <use xlink:href="#DejaVuSans-30" x="63.623047"/>
      </g>
     </g>
    </g>
    <g id="ytick_5">
     <g id="line2d_12">
      <g>
       <use xlink:href="#m9132574355" x="57.6" y="56.358747" style="stroke: #000000; stroke-width: 0.8"/>
      </g>
     </g>
     <g id="text_13">
      <!-- 30 -->
      <g transform="translate(37.875 60.157966) scale(0.1 -0.1)">
       <use xlink:href="#DejaVuSans-33"/>
       <use xlink:href="#DejaVuSans-30" x="63.623047"/>
      </g>
     </g>
    </g>
    <g id="text_14">
     <!-- Amplitude [dB] -->
     <g transform="translate(23.415625 212.245969) rotate(-90) scale(0.1 -0.1)">
      <defs>
       <path id="DejaVuSans-41" d="M 2188 4044 
L 1331 1722 
L 3047 1722 
L 2188 4044 
z
M 1831 4666 
L 2547 4666 
L 4325 0 
L 3669 0 
L 3244 1197 
L 1141 1197 
L 716 0 
L 50 0 
L 1831 4666 
z
" transform="scale(0.015625)"/>
       <path id="DejaVuSans-6d" d="M 3328 2828 
Q 3544 3216 3844 3400 
Q 4144 3584 4550 3584 
Q 5097 3584 5394 3201 
Q 5691 2819 5691 2113 
L 5691 0 
L 5113 0 
L 5113 2094 
Q 5113 2597 4934 2840 
Q 4756 3084 4391 3084 
Q 3944 3084 3684 2787 
Q 3425 2491 3425 1978 
L 3425 0 
L 2847 0 
L 2847 2094 
Q 2847 2600 2669 2842 
Q 2491 3084 2119 3084 
Q 1678 3084 1418 2786 
Q 1159 2488 1159 1978 
L 1159 0 
L 581 0 
L 581 3500 
L 1159 3500 
L 1159 2956 
Q 1356 3278 1631 3431 
Q 1906 3584 2284 3584 
Q 2666 3584 2933 3390 
Q 3200 3197 3328 2828 
z
" transform="scale(0.015625)"/>
       <path id="DejaVuSans-70" d="M 1159 525 
L 1159 -1331 
L 581 -1331 
L 581 3500 
L 1159 3500 
L 1159 2969 
Q 1341 3281 1617 3432 
Q 1894 3584 2278 3584 
Q 2916 3584 3314 3078 
Q 3713 2572 3713 1747 
Q 3713 922 3314 415 
Q 2916 -91 2278 -91 
Q 1894 -91 1617 61 
Q 1341 213 1159 525 
z
M 3116 1747 
Q 3116 2381 2855 2742 
Q 2594 3103 2138 3103 
Q 1681 3103 1420 2742 
Q 1159 2381 1159 1747 
Q 1159 1113 1420 752 
Q 1681 391 2138 391 
Q 2594 391 2855 752 
Q 3116 1113 3116 1747 
z
" transform="scale(0.015625)"/>
       <path id="DejaVuSans-6c" d="M 603 4863 
L 1178 4863 
L 1178 0 
L 603 0 
L 603 4863 
z
" transform="scale(0.015625)"/>
       <path id="DejaVuSans-69" d="M 603 3500 
L 1178 3500 
L 1178 0 
L 603 0 
L 603 3500 
z
M 603 4863 
L 1178 4863 
L 1178 4134 
L 603 4134 
L 603 4863 
z
" transform="scale(0.015625)"/>
       <path id="DejaVuSans-74" d="M 1172 4494 
L 1172 3500 
L 2356 3500 
L 2356 3053 
L 1172 3053 
L 1172 1153 
Q 1172 725 1289 603 
Q 1406 481 1766 481 
L 2356 481 
L 2356 0 
L 1766 0 
Q 1100 0 847 248 
Q 594 497 594 1153 
L 594 3053 
L 172 3053 
L 172 3500 
L 594 3500 
L 594 4494 
L 1172 4494 
z
" transform="scale(0.015625)"/>
       <path id="DejaVuSans-64" d="M 2906 2969 
L 2906 4863 
L 3481 4863 
L 3481 0 
L 2906 0 
L 2906 525 
Q 2725 213 2448 61 
Q 2172 -91 1784 -91 
Q 1150 -91 751 415 
Q 353 922 353 1747 
Q 353 2572 751 3078 
Q 1150 3584 1784 3584 
Q 2172 3584 2448 3432 
Q 2725 3281 2906 2969 
z
M 947 1747 
Q 947 1113 1208 752 
Q 1469 391 1925 391 
Q 2381 391 2643 752 
Q 2906 1113 2906 1747 
Q 2906 2381 2643 2742 
Q 2381 3103 1925 3103 
Q 1469 3103 1208 2742 
Q 947 2381 947 1747 
z
" transform="scale(0.015625)"/>
       <path id="DejaVuSans-42" d="M 1259 2228 
L 1259 519 
L 2272 519 
Q 2781 519 3026 730 
Q 3272 941 3272 1375 
Q 3272 1813 3026 2020 
Q 2781 2228 2272 2228 
L 1259 2228 
z
M 1259 4147 
L 1259 2741 
L 2194 2741 
Q 2656 2741 2882 2914 
Q 3109 3088 3109 3444 
Q 3109 3797 2882 3972 
Q 2656 4147 2194 4147 
L 1259 4147 
z
M 628 4666 
L 2241 4666 
Q 2963 4666 3353 4366 
Q 3744 4066 3744 3513 
Q 3744 3084 3544 2831 
Q 3344 2578 2956 2516 
Q 3422 2416 3680 2098 
Q 3938 1781 3938 1306 
Q 3938 681 3513 340 
Q 3088 0 2303 0 
L 628 0 
L 628 4666 
z
" transform="scale(0.015625)"/>
      </defs>
      <use xlink:href="#DejaVuSans-41"/>
      <use xlink:href="#DejaVuSans-6d" x="68.408203"/>
      <use xlink:href="#DejaVuSans-70" x="165.820312"/>
      <use xlink:href="#DejaVuSans-6c" x="229.296875"/>
      <use xlink:href="#DejaVuSans-69" x="257.080078"/>
      <use xlink:href="#DejaVuSans-74" x="284.863281"/>
      <use xlink:href="#DejaVuSans-75" x="324.072266"/>
      <use xlink:href="#DejaVuSans-64" x="387.451172"/>
      <use xlink:href="#DejaVuSans-65" x="450.927734"/>
      <use xlink:href="#DejaVuSans-20" x="512.451172"/>
      <use xlink:href="#DejaVuSans-5b" x="544.238281"/>
      <use xlink:href="#DejaVuSans-64" x="583.251953"/>
      <use xlink:href="#DejaVuSans-42" x="646.728516"/>
      <use xlink:href="#DejaVuSans-5d" x="715.332031"/>
     </g>
    </g>
   </g>
   <g id="line2d_13">
    <path d="M 138.346222 346.6 
L 138.355441 345.50019 
L 138.363668 346.6 
M 138.673013 346.6 
L 138.680142 344.326251 
L 138.699482 346.6 
M 140.996906 346.6 
L 140.999434 345.07118 
L 141.002435 346.6 
M 141.319336 346.6 
L 141.324135 346.334799 
L 141.326226 346.6 
M 141.694061 346.6 
L 141.695222 345.807354 
L 141.697333 346.6 
M 142.380991 346.6 
L 142.39101 344.993684 
L 142.395088 346.6 
M 142.759998 346.6 
L 142.762096 344.483928 
L 142.780088 346.6 
M 143.779683 346.6 
L 143.782585 345.442539 
L 143.788808 346.6 
M 143.858059 346.6 
L 143.875357 342.157603 
L 143.88511 346.6 
M 144.317014 346.6 
L 144.339215 341.278325 
L 144.351108 346.6 
M 145.163949 346.6 
L 145.17416 343.300451 
L 145.178243 346.6 
M 145.43466 346.6 
L 145.452476 334.822714 
L 145.506194 346.6 
M 145.591228 346.6 
L 145.591633 346.406276 
L 145.591908 346.6 
M 145.69013 346.6 
L 145.730791 338.145362 
L 145.771137 346.6 
M 146.144062 346.6 
L 146.148263 345.687197 
L 146.153361 346.6 
M 146.283878 346.6 
L 146.287421 341.268752 
L 146.31207 346.6 
M 146.356257 346.6 
L 146.380192 341.587351 
L 146.38401 346.6 
M 146.553377 346.6 
L 146.565736 343.650249 
L 146.581175 346.6 
M 146.642724 346.6 
L 146.658508 343.550218 
L 146.690526 346.6 
M 146.812314 346.6 
L 146.844051 336.454749 
L 146.864741 346.6 
M 147.11559 346.6 
L 147.122366 343.737649 
L 147.12505 346.6 
M 147.205456 346.6 
L 147.215138 334.305925 
L 147.293231 346.6 
M 147.482505 346.6 
L 147.493453 341.132451 
L 147.535856 346.6 
M 147.628738 346.6 
L 147.678996 343.015927 
L 147.684309 346.6 
M 147.758975 346.6 
L 147.771768 336.047259 
L 147.800936 346.6 
M 147.85828 346.6 
L 147.86454 345.628259 
L 147.866906 346.6 
M 147.939201 346.6 
L 147.957311 335.02139 
L 147.968311 346.6 
M 148.230481 346.6 
L 148.328398 334.122822 
L 148.373602 346.6 
M 148.488447 346.6 
L 148.513941 345.396823 
L 148.517551 346.6 
M 148.614251 346.6 
L 148.653099 338.122086 
L 148.660873 346.6 
M 148.775039 346.6 
L 148.792257 330.636778 
L 148.810616 346.6 
M 148.882974 346.6 
L 148.885028 345.470689 
L 148.919665 346.6 
M 149.065912 346.6 
L 149.070572 340.057046 
L 149.130189 346.6 
M 149.199224 346.6 
L 149.209729 342.64642 
L 149.219104 346.6 
M 149.376563 346.6 
L 149.395273 337.110418 
L 149.476537 346.6 
M 149.6115 346.6 
L 149.627202 336.770668 
L 149.644972 346.6 
M 149.713621 346.6 
L 149.719974 344.088644 
L 149.767555 346.6 
M 149.884363 346.6 
L 149.905517 321.612134 
L 149.998289 331.765876 
L 150.100828 346.6 
M 150.163692 346.6 
L 150.183832 333.236146 
L 150.24 346.6 
M 150.318998 346.6 
L 150.32299 343.35182 
L 150.325645 346.6 
M 150.513799 346.6 
L 150.554919 330.458222 
L 150.601305 343.516312 
L 150.64769 343.604024 
L 150.65695 346.6 
M 150.721918 346.6 
L 150.833234 332.242241 
L 150.863245 346.6 
M 150.973686 346.6 
L 151.111549 322.671183 
L 151.230501 346.6 
M 151.270373 346.6 
L 151.297092 328.000207 
L 151.362581 346.6 
M 151.463519 346.6 
L 151.482636 340.540684 
L 151.523816 346.6 
M 151.531661 346.6 
L 151.575407 333.902819 
L 151.621247 346.6 
M 151.622081 346.6 
L 151.668179 322.377503 
L 151.714565 331.17297 
L 151.738217 346.6 
M 151.839094 346.6 
L 151.853722 342.821603 
L 151.872712 346.6 
M 151.908141 346.6 
L 151.946494 320.573718 
L 152.009437 346.6 
M 152.067705 346.6 
L 152.132038 325.507471 
L 152.178423 337.925951 
L 152.224809 319.188649 
L 152.317581 325.922628 
L 152.361937 346.6 
M 152.365854 346.6 
L 152.410353 324.293736 
L 152.456738 343.157868 
L 152.503124 342.969587 
L 152.54951 327.820332 
L 152.572945 346.6 
M 152.625455 346.6 
L 152.735054 329.545271 
L 152.781439 324.249968 
L 152.827825 329.053372 
L 152.89263 346.6 
M 152.933162 346.6 
L 152.966983 332.177016 
L 152.993944 346.6 
M 153.029463 346.6 
L 153.10614 321.942533 
L 153.152526 345.011451 
L 153.198912 338.883543 
L 153.33807 313.505089 
L 153.454309 346.6 
M 153.503616 346.6 
L 153.523613 328.654686 
L 153.592435 346.6 
M 153.639659 346.6 
L 153.662771 328.99777 
L 153.686982 346.6 
M 153.73182 346.6 
L 153.848314 322.348483 
L 153.941086 323.784853 
L 154.033857 341.673386 
L 154.126629 338.278199 
L 154.173015 318.979897 
L 154.219401 322.962239 
L 154.265787 333.865065 
L 154.312172 320.631121 
L 154.358558 318.945685 
L 154.404944 324.42923 
L 154.45133 311.718818 
L 154.580632 346.6 
M 154.600433 346.6 
L 154.636873 321.027016 
L 154.683259 328.780227 
L 154.71868 346.6 
M 154.740323 346.6 
L 154.776031 328.154018 
L 154.821709 346.6 
M 154.828323 346.6 
L 154.868803 344.641781 
L 155.00796 311.99836 
L 155.147118 338.580663 
L 155.286275 310.791494 
L 155.379047 334.928832 
L 155.425433 312.766008 
L 155.518204 318.513241 
L 155.56459 305.0714 
L 155.610976 336.381458 
L 155.703748 332.773647 
L 155.750134 311.776414 
L 155.79652 322.446893 
L 155.889291 322.170468 
L 155.926204 346.6 
M 155.944913 346.6 
L 156.028449 317.192779 
L 156.074835 322.594727 
L 156.12122 304.862556 
L 156.167606 311.399612 
L 156.319738 346.6 
M 156.376144 346.6 
L 156.399536 307.595129 
L 156.492307 324.097594 
L 156.538693 316.103098 
L 156.585079 327.21537 
L 156.631465 333.752356 
L 156.677851 303.915176 
L 156.724236 345.125049 
L 156.770622 309.965338 
L 156.817008 329.293941 
L 156.863394 309.695232 
L 156.90978 310.421214 
L 157.038136 346.6 
M 157.070067 346.6 
L 157.234481 305.02265 
L 157.280867 306.093678 
L 157.46641 341.972449 
L 157.512796 304.81247 
L 157.605568 318.456137 
L 157.651953 310.072015 
L 157.698339 325.613929 
L 157.744725 316.112935 
L 157.791111 297.702041 
L 157.836926 346.6 
M 157.838293 346.6 
L 157.976654 307.44385 
L 158.02304 309.408002 
L 158.069426 333.808226 
L 158.115812 323.711285 
L 158.162198 321.125166 
L 158.208584 326.431827 
L 158.347741 299.363883 
L 158.394127 303.915187 
L 158.486899 317.885304 
L 158.533284 317.113575 
L 158.565684 346.6 
M 158.589205 346.6 
L 158.626056 297.402415 
L 158.718828 321.511969 
L 158.765214 306.80522 
L 158.8116 332.635066 
L 158.857985 315.981286 
L 158.904371 303.266532 
L 158.943724 346.6 
M 158.957886 346.6 
L 159.089915 302.722858 
L 159.252186 346.6 
M 159.303 346.6 
L 159.36823 307.015115 
L 159.414616 321.479594 
L 159.461001 295.978057 
L 159.507387 303.831017 
L 159.687018 346.6 
M 159.694598 346.6 
L 159.739317 300.616354 
L 159.832088 316.023912 
L 159.878474 304.527699 
L 159.914495 346.6 
M 159.936057 346.6 
L 160.017632 298.213315 
L 160.064017 323.986526 
L 160.203175 297.822103 
L 160.295947 337.430444 
L 160.342333 323.706526 
L 160.48149 306.799728 
L 160.527876 308.276086 
L 160.620648 301.758682 
L 160.713419 326.613533 
L 160.759805 323.502171 
L 160.806191 339.567508 
L 160.852577 297.383189 
L 160.898963 306.231274 
L 161.012985 346.6 
M 161.069801 346.6 
L 161.130892 301.124997 
L 161.177278 318.246825 
L 161.223664 315.828982 
L 161.316435 296.108536 
L 161.362821 297.521605 
L 161.394438 346.6 
M 161.432871 346.6 
L 161.548365 321.801374 
L 161.733908 298.817605 
L 161.873066 319.440843 
L 161.919451 325.57746 
L 161.965837 294.601191 
L 162.012223 305.917184 
L 162.104995 305.646509 
L 162.139448 346.6 
M 162.169128 346.6 
L 162.244152 313.890352 
L 162.290538 329.568475 
L 162.336924 340.761333 
L 162.429696 294.572618 
L 162.476082 310.28706 
L 162.615239 324.407055 
L 162.708011 303.069186 
L 162.754397 337.465386 
L 162.800782 293.452763 
L 162.847168 298.154671 
L 163.032712 339.548833 
L 163.079098 297.243904 
L 163.125483 299.879885 
L 163.249363 346.6 
M 163.281671 346.6 
L 163.357413 312.763156 
L 163.403798 315.953988 
L 163.450184 320.543387 
L 163.49657 315.14885 
L 163.542956 291.145099 
L 163.589342 310.689624 
L 163.621362 346.6 
M 163.650949 346.6 
L 163.682114 313.613226 
L 163.774885 326.814705 
L 163.914043 291.625394 
L 164.006814 344.142875 
L 164.0532 312.69285 
L 164.099586 313.060979 
L 164.145972 333.718929 
L 164.192358 299.58322 
L 164.238744 303.729955 
L 164.269762 346.6 
M 164.299606 346.6 
L 164.331515 299.782656 
L 164.424287 305.933509 
L 164.470673 305.25582 
L 164.517059 306.820164 
L 164.557836 346.6 
M 164.567912 346.6 
L 164.656216 294.789254 
L 164.702602 308.686332 
L 164.84176 324.299792 
L 165.027303 290.152831 
L 165.073689 294.864305 
L 165.126299 346.6 
M 165.182869 346.6 
L 165.305618 293.263527 
L 165.491162 334.96774 
L 165.630319 291.748915 
L 165.676705 315.381682 
L 165.723091 312.114056 
L 165.769477 283.568689 
L 165.815863 289.877891 
L 165.908634 317.552411 
L 165.95502 308.51628 
L 166.001406 306.367921 
L 166.047792 283.954175 
L 166.094178 315.254763 
L 166.140563 287.163705 
L 166.186949 286.402675 
L 166.295239 346.6 
M 166.353032 346.6 
L 166.418879 282.021041 
L 166.465264 288.308231 
L 166.604422 337.02641 
L 166.743579 291.55514 
L 166.789965 312.032454 
L 166.836351 303.636097 
L 166.882737 276.587584 
L 166.929123 307.277818 
L 166.975509 292.396222 
L 167.021895 306.620675 
L 167.06828 310.713883 
L 167.253824 272.936273 
L 167.392981 311.901112 
L 167.439367 309.663289 
L 167.578525 286.002319 
L 167.624911 313.384551 
L 167.671296 283.79459 
L 167.717682 310.305834 
L 167.85684 284.181272 
L 167.903226 306.639507 
L 167.949612 301.72463 
L 167.995997 275.790014 
L 168.042383 307.186329 
L 168.088769 291.668537 
L 168.135155 299.781699 
L 168.181541 308.345521 
L 168.367084 271.46595 
L 168.506242 322.346915 
L 168.552628 305.848562 
L 168.645399 278.962468 
L 168.691785 281.758065 
L 168.830943 297.800798 
L 168.877328 285.856257 
L 168.923714 345.956218 
L 168.9701 277.107954 
L 169.016486 307.076544 
L 169.062872 286.303229 
L 169.109258 273.777086 
L 169.155644 316.92779 
L 169.202029 273.159641 
L 169.248415 280.395726 
L 169.294801 306.148428 
L 169.341187 279.327141 
L 169.387573 272.465058 
L 169.433959 285.86171 
L 169.480344 275.652195 
L 169.52673 279.065389 
L 169.619502 339.63432 
L 169.665888 301.892313 
L 169.75866 274.889967 
L 169.805045 282.414319 
L 169.851431 284.203409 
L 169.897817 284.108375 
L 169.990589 321.406103 
L 170.222518 266.996131 
L 170.268904 300.337321 
L 170.31529 276.835663 
L 170.361676 274.19259 
L 170.408061 294.242516 
L 170.454447 274.499743 
L 170.500833 262.724549 
L 170.547219 295.228386 
L 170.593605 264.957663 
L 170.779148 311.884038 
L 170.918306 267.570649 
L 171.057463 321.286748 
L 171.103849 316.99183 
L 171.196621 269.001979 
L 171.243007 281.091506 
L 171.335778 261.397419 
L 171.382164 306.027127 
L 171.42855 263.716338 
L 171.521322 311.734557 
L 171.614093 253.719111 
L 171.660479 271.87591 
L 171.706865 259.220536 
L 171.753251 272.394506 
L 171.892409 289.182951 
L 172.031566 260.364465 
L 172.217109 305.728471 
L 172.402653 265.797786 
L 172.449039 264.368227 
L 172.495425 282.701479 
L 172.54181 259.348596 
L 172.634582 279.053719 
L 172.727354 250.844673 
L 172.77374 271.373988 
L 172.866511 268.598698 
L 173.005669 286.138713 
L 173.144826 260.0181 
L 173.191212 265.438037 
L 173.33037 285.558849 
L 173.376756 281.925484 
L 173.515913 262.687083 
L 173.562299 257.385817 
L 173.608685 266.612709 
L 173.701457 266.329472 
L 173.747842 271.682329 
L 173.794228 266.0492 
L 173.840614 247.643305 
L 173.887 258.42371 
L 173.933386 256.014437 
L 173.979772 256.798836 
L 174.072543 273.305587 
L 174.118929 270.546738 
L 174.165315 270.90735 
L 174.211701 255.956213 
L 174.258087 258.86326 
L 174.304473 263.518907 
L 174.350858 255.473198 
L 174.44363 280.047767 
L 174.536402 253.999685 
L 174.582788 260.251764 
L 174.675559 254.909492 
L 174.721945 266.976328 
L 174.768331 254.759761 
L 174.814717 264.030791 
L 174.861103 264.391628 
L 174.907489 259.387523 
L 174.953874 240.055234 
L 175.00026 261.005578 
L 175.093032 248.455019 
L 175.185804 268.565396 
L 175.23219 268.161335 
L 175.371347 249.867808 
L 175.417733 274.065471 
L 175.510505 265.066802 
L 175.55689 273.836972 
L 175.603276 254.600459 
L 175.696048 254.894358 
L 175.742434 248.453508 
L 175.78882 253.725894 
L 175.835206 257.867801 
L 175.881591 245.068401 
L 175.927977 256.735791 
L 175.974363 274.718914 
L 176.020749 253.553429 
L 176.067135 235.120527 
L 176.113521 256.46585 
L 176.159906 253.17844 
L 176.206292 240.577735 
L 176.284503 346.6 
M 176.310838 346.6 
L 176.438222 247.392175 
L 176.484607 249.673145 
L 176.623765 263.383557 
L 176.670151 266.391218 
L 176.716537 254.165325 
L 176.762922 260.877465 
L 176.809308 261.492824 
L 176.90208 263.229882 
L 176.948466 240.490737 
L 177.087623 262.900515 
L 177.134009 248.14485 
L 177.180395 235.63899 
L 177.226781 257.650669 
L 177.273167 248.797167 
L 177.319553 241.039081 
L 177.412324 268.228516 
L 177.45871 255.830266 
L 177.597868 244.671378 
L 177.644254 264.574549 
L 177.690639 249.68393 
L 177.737025 250.695451 
L 177.829797 247.154604 
L 177.876183 269.122321 
L 177.968955 248.672504 
L 178.01534 282.402918 
L 178.061726 242.609924 
L 178.108112 242.076675 
L 178.154498 254.289492 
L 178.200884 251.184036 
L 178.293655 229.653501 
L 178.340041 246.782588 
L 178.386427 246.56333 
L 178.432813 231.575101 
L 178.479199 249.865565 
L 178.525585 266.499207 
L 178.664742 239.06831 
L 178.711128 238.297049 
L 178.757514 269.620411 
L 178.8039 243.704157 
L 178.850286 256.015204 
L 178.896671 251.735788 
L 178.943057 237.740473 
L 178.989443 275.543942 
L 179.035829 252.861281 
L 179.082215 247.552917 
L 179.128601 263.950778 
L 179.174987 235.840853 
L 179.221372 250.106725 
L 179.267758 263.03259 
L 179.314144 248.830397 
L 179.36053 253.354426 
L 179.406916 224.333028 
L 179.453302 252.977402 
L 179.546073 230.608363 
L 179.638845 263.81975 
L 179.685231 255.502813 
L 179.824388 234.218183 
L 179.963546 279.174807 
L 180.056318 235.861373 
L 180.102704 269.068292 
L 180.149089 254.499764 
L 180.195475 242.810907 
L 180.241861 307.494926 
L 180.288247 236.912828 
L 180.381019 253.14056 
L 180.427404 245.827949 
L 180.47379 240.550253 
L 180.520176 220.929442 
L 180.566562 242.727762 
L 180.612948 239.951587 
L 180.659334 228.956927 
L 180.752105 294.117058 
L 180.844877 234.830829 
L 180.891263 244.976072 
L 180.937649 234.313391 
L 181.076806 295.785939 
L 181.169578 242.537511 
L 181.215964 258.073971 
L 181.26235 265.043696 
L 181.401507 229.122733 
L 181.355121 270.515837 
L 181.447893 241.276283 
L 181.494279 256.662613 
L 181.540665 238.052378 
L 181.587051 236.180676 
L 181.633436 221.686143 
L 181.726208 252.74889 
L 181.772594 222.741918 
L 181.81898 262.515858 
L 181.865366 294.374793 
L 181.958137 237.971554 
L 182.004523 238.718219 
L 182.050909 238.546878 
L 182.143681 258.907202 
L 182.190067 251.82974 
L 182.282838 238.374673 
L 182.468382 284.446055 
L 182.514768 222.483726 
L 182.561153 242.785625 
L 182.607539 248.083893 
L 182.746697 220.812416 
L 182.793083 246.554628 
L 182.839468 246.096963 
L 182.885854 219.76034 
L 182.93224 248.298171 
L 182.978626 284.164955 
L 183.025012 241.591106 
L 183.164169 230.631277 
L 183.303327 269.990568 
L 183.396099 232.644244 
L 183.442485 256.512663 
L 183.48887 261.896386 
L 183.628028 233.821632 
L 183.674414 238.340114 
L 183.7208 246.714916 
L 183.767185 243.515106 
L 183.813571 242.750831 
L 183.859957 216.011122 
L 183.906343 262.673643 
L 183.952729 233.423592 
L 183.999115 219.253169 
L 184.045501 246.179518 
L 184.091886 242.283558 
L 184.184658 232.423727 
L 184.231044 237.557338 
L 184.27743 225.388209 
L 184.323816 237.873929 
L 184.370201 320.988155 
L 184.416587 259.869409 
L 184.509359 235.362347 
L 184.555745 247.978504 
L 184.602131 269.335469 
L 184.648517 244.99134 
L 184.694902 247.399442 
L 184.741288 225.883106 
L 184.787674 242.50435 
L 184.880446 240.861985 
L 184.973217 210.959688 
L 185.065989 236.909654 
L 185.112375 216.850261 
L 185.158761 232.747538 
L 185.205147 243.911759 
L 185.251533 237.018779 
L 185.297918 229.507075 
L 185.39069 226.159096 
L 185.483462 268.280121 
L 185.622619 224.748593 
L 185.669005 237.491685 
L 185.761777 263.512717 
L 185.854549 219.550983 
L 185.900934 249.250325 
L 186.086478 211.570891 
L 186.132864 239.876055 
L 186.17925 233.753804 
L 186.225635 207.665556 
L 186.272021 226.961832 
L 186.318407 242.538287 
L 186.364793 241.085368 
L 186.411179 218.493265 
L 186.50395 225.354222 
L 186.550336 252.526698 
L 186.596722 233.098273 
L 186.643108 235.87433 
L 186.689494 251.897148 
L 186.73588 232.652205 
L 186.782266 231.722997 
L 186.875037 249.506296 
L 186.967809 214.842172 
L 187.014195 248.696368 
L 187.060581 231.298634 
L 187.106966 232.251211 
L 187.199738 204.63618 
L 187.246124 246.327454 
L 187.29251 225.523192 
L 187.338896 206.286812 
L 187.385282 222.67932 
L 187.478053 238.721218 
L 187.617211 217.11421 
L 187.756368 245.031763 
L 187.84914 223.027963 
L 187.988298 225.704339 
L 188.034683 225.951856 
L 188.081069 218.092948 
L 188.127455 252.966756 
L 188.173841 216.622275 
L 188.220227 224.409841 
L 188.312998 193.627209 
L 188.359384 229.734438 
L 188.40577 215.618328 
L 188.452156 199.96951 
L 188.498542 214.037086 
L 188.591314 223.245095 
L 188.730471 211.093695 
L 188.869629 259.757938 
L 188.9624 214.992777 
L 189.055172 216.587455 
L 189.101558 225.994296 
L 189.147944 213.486381 
L 189.19433 208.108967 
L 189.240715 245.345476 
L 189.287101 214.374841 
L 189.379873 201.751897 
L 189.426259 189.939129 
L 189.472645 230.988656 
L 189.519031 209.34733 
L 189.565416 195.28062 
L 189.611802 207.654869 
L 189.658188 211.920925 
L 189.704574 233.317176 
L 189.75096 205.194347 
L 189.843731 208.136862 
L 190.029275 253.350261 
L 190.122047 203.886597 
L 190.168432 210.770676 
L 190.214818 212.276256 
L 190.261204 207.540769 
L 190.30759 210.719006 
L 190.353976 242.125869 
L 190.400362 210.495154 
L 190.446747 213.695666 
L 190.539519 185.998383 
L 190.585905 233.583328 
L 190.632291 201.275688 
L 190.678677 187.503863 
L 190.725063 203.78878 
L 190.771448 203.931939 
L 190.817834 216.851541 
L 190.86422 202.251726 
L 190.956992 197.068211 
L 191.142535 258.680028 
L 191.235307 203.74412 
L 191.281693 208.268967 
L 191.374464 195.637124 
L 191.467236 213.809026 
L 191.652779 181.501322 
L 191.699165 221.267047 
L 191.745551 200.114436 
L 191.791937 182.039599 
L 191.838323 200.113963 
L 191.884709 200.487665 
L 191.931095 219.395475 
L 191.97748 199.757058 
L 192.070252 190.37237 
L 192.163024 229.166011 
L 192.20941 216.656284 
L 192.255796 233.02157 
L 192.394953 203.573135 
L 192.487725 187.832908 
L 192.534111 207.581204 
L 192.580496 200.01296 
L 192.76604 174.686431 
L 192.812426 216.918036 
L 192.858812 189.085041 
L 192.905197 178.013849 
L 193.044355 212.153705 
L 193.183512 185.573219 
L 193.369056 226.301585 
L 193.415442 197.095919 
L 193.508213 206.025349 
L 193.600985 187.520996 
L 193.740143 200.895634 
L 193.786528 196.74461 
L 193.832914 168.024788 
L 193.8793 170.861186 
L 193.925686 220.928842 
L 193.972072 182.212223 
L 194.018458 171.992897 
L 194.157615 200.403333 
L 194.296773 177.918546 
L 194.389544 237.517479 
L 194.43593 199.259441 
L 194.482316 211.170527 
L 194.528702 195.716785 
L 194.575088 204.137696 
L 194.621474 200.17554 
L 194.714245 183.502487 
L 194.760631 206.912137 
L 194.853403 199.571042 
L 194.899789 196.420708 
L 194.946175 164.029225 
L 194.99256 167.960222 
L 195.038946 213.450632 
L 195.085332 183.563321 
L 195.131718 167.66772 
L 195.178104 187.9441 
L 195.22449 182.149578 
L 195.317261 207.946627 
L 195.363647 188.470183 
L 195.410033 175.220455 
L 195.456419 191.380317 
L 195.502805 221.023166 
L 195.595577 210.390295 
L 195.641962 189.508398 
L 195.734734 194.381088 
L 195.78112 178.270298 
L 195.827506 180.39601 
L 195.966663 202.375029 
L 196.013049 195.334395 
L 196.059435 161.300928 
L 196.105821 169.340497 
L 196.152207 193.0967 
L 196.198593 180.830648 
L 196.244978 165.724931 
L 196.291364 182.949018 
L 196.33775 180.918753 
L 196.430522 203.003725 
L 196.523293 173.044061 
L 196.569679 182.629554 
L 196.616065 205.256892 
L 196.708837 200.428227 
L 196.755223 181.226211 
L 196.801609 267.177144 
L 196.847994 209.090083 
L 196.89438 179.771189 
L 196.987152 186.861438 
L 197.033538 176.202719 
L 197.079924 212.942311 
L 197.126309 193.935028 
L 197.172695 159.432281 
L 197.219081 164.350467 
L 197.265467 188.262173 
L 197.311853 171.272826 
L 197.358239 165.542651 
L 197.543782 196.792626 
L 197.636554 172.967032 
L 197.68294 189.607263 
L 197.729325 196.937644 
L 197.775711 193.776989 
L 197.822097 192.7766 
L 197.868483 180.726987 
L 197.914869 224.484968 
L 197.961255 204.374185 
L 198.100412 177.445419 
L 198.146798 173.967711 
L 198.23957 216.278164 
L 198.285956 156.614637 
L 198.378727 176.63825 
L 198.425113 173.756359 
L 198.471499 163.623903 
L 198.657042 208.804119 
L 198.749814 171.295574 
L 198.7962 184.829093 
L 198.842586 198.58416 
L 198.935358 196.50206 
L 198.981743 175.780889 
L 199.074515 230.762994 
L 199.213673 179.152383 
L 199.260058 172.293492 
L 199.35283 225.155132 
L 199.399216 158.768011 
L 199.491988 178.153048 
L 199.584759 164.613971 
L 199.770303 214.017023 
L 199.863074 173.880329 
L 199.90946 186.307995 
L 199.955846 213.130907 
L 200.002232 201.940834 
L 200.095004 171.979304 
L 200.187775 209.496965 
L 200.234161 191.983356 
L 200.280547 190.447743 
L 200.373319 177.593206 
L 200.46609 220.908236 
L 200.512476 159.89505 
L 200.605248 179.460954 
L 200.651634 166.644954 
L 200.69802 167.941153 
L 200.883563 189.905575 
L 200.929949 197.136841 
L 200.976335 174.335464 
L 201.022721 181.299618 
L 201.115492 196.543794 
L 201.208264 170.404072 
L 201.301036 208.851627 
L 201.347422 196.017146 
L 201.486579 169.614833 
L 201.532965 214.570272 
L 201.579351 203.821778 
L 201.625737 160.670954 
L 201.718508 170.781767 
L 201.764894 164.507396 
L 201.81128 170.753273 
L 201.996823 193.253167 
L 202.043209 196.441698 
L 202.089595 177.651945 
L 202.135981 187.266119 
L 202.228753 196.28267 
L 202.275139 191.995809 
L 202.321524 173.579596 
L 202.36791 198.741587 
L 202.414296 195.822761 
L 202.460682 207.746692 
L 202.507068 207.076794 
L 202.599839 171.030887 
L 202.692611 199.297442 
L 202.738997 159.703421 
L 202.831769 170.616976 
L 202.878155 168.352872 
L 202.92454 169.936585 
L 203.063698 189.310778 
L 203.15647 190.759524 
L 203.202855 177.408232 
L 203.249241 185.282038 
L 203.295627 214.54645 
L 203.342013 196.967887 
L 203.388399 191.856681 
L 203.434785 171.319564 
L 203.481171 197.786676 
L 203.527556 186.886258 
L 203.573942 222.794436 
L 203.620328 203.976984 
L 203.666714 175.432343 
L 203.7131 175.891111 
L 203.759486 189.234584 
L 203.805871 183.288631 
L 203.852257 163.10079 
L 203.945029 168.038873 
L 203.991415 163.1209 
L 204.037801 168.891752 
L 204.26973 196.443097 
L 204.316116 177.429403 
L 204.362502 182.994688 
L 204.408888 202.625069 
L 204.455273 190.114131 
L 204.501659 186.439506 
L 204.548045 170.360488 
L 204.594431 184.40071 
L 204.640817 188.673922 
L 204.687203 220.295034 
L 204.733588 210.961647 
L 204.779974 177.963696 
L 204.872746 189.762237 
L 205.011904 160.256563 
L 205.104675 160.422692 
L 205.243833 180.306397 
L 205.290219 184.484849 
L 205.336604 178.145687 
L 205.38299 192.456895 
L 205.429376 178.991803 
L 205.475762 179.161619 
L 205.568534 193.549437 
L 205.61492 191.46482 
L 205.661305 170.132999 
L 205.707691 178.45769 
L 205.754077 184.855155 
L 205.800463 207.4996 
L 205.846849 198.324134 
L 205.93962 181.765561 
L 205.986006 189.777466 
L 206.125164 156.013171 
L 206.217936 156.544498 
L 206.310707 180.109404 
L 206.357093 175.927693 
L 206.496251 193.354246 
L 206.542636 183.921544 
L 206.589022 187.435424 
L 206.635408 193.261539 
L 206.72818 192.061951 
L 206.774566 171.205609 
L 206.867337 175.008645 
L 206.913723 197.040905 
L 206.960109 192.052454 
L 207.052881 173.97621 
L 207.099267 183.311348 
L 207.238424 150.802876 
L 207.331196 152.840911 
L 207.423968 176.148823 
L 207.470353 170.772772 
L 207.609511 202.086191 
L 207.655897 182.9668 
L 207.702283 194.403629 
L 207.748669 193.417058 
L 207.887826 163.432699 
L 208.026984 180.919165 
L 208.073369 176.843566 
L 208.119755 179.048532 
L 208.166141 180.488497 
L 208.351685 143.380888 
L 208.39807 152.204969 
L 208.444456 146.364871 
L 208.490842 173.297581 
L 208.583614 169.424059 
L 208.722771 186.78861 
L 208.769157 180.857543 
L 208.815543 183.704568 
L 208.861929 197.584935 
L 208.908315 186.981301 
L 209.001086 160.823458 
L 209.093858 166.637893 
L 209.233016 179.045477 
L 209.325787 171.294489 
L 209.464945 137.49285 
L 209.511331 149.53788 
L 209.557717 142.436134 
L 209.604102 185.607499 
L 209.650488 169.100322 
L 209.696874 162.661685 
L 209.836032 181.746097 
L 209.882417 175.209913 
L 209.975189 194.503877 
L 210.021575 184.645774 
L 210.114347 160.294637 
L 210.253504 167.070586 
L 210.29989 164.231288 
L 210.346276 177.154031 
L 210.439048 175.870664 
L 210.578205 131.916784 
L 210.717363 175.584937 
L 210.763749 173.255931 
L 210.810134 157.718197 
L 210.85652 175.206851 
L 210.902906 173.896347 
L 210.949292 196.179582 
L 211.042064 190.943 
L 211.181221 178.767719 
L 211.227607 154.419034 
L 211.320379 159.737425 
L 211.366765 159.245733 
L 211.41315 153.568656 
L 211.459536 174.227331 
L 211.552308 171.017889 
L 211.691466 126.537219 
L 211.830623 166.538214 
L 211.877009 161.840097 
L 211.923395 155.110411 
L 212.062552 188.101422 
L 212.248096 171.375642 
L 212.294482 171.447503 
L 212.433639 154.541093 
L 212.480025 154.584625 
L 212.526411 148.708039 
L 212.665568 173.073272 
L 212.804726 122.092046 
L 212.943883 162.650407 
L 213.036655 153.176956 
L 213.268584 191.612025 
L 213.454128 151.885653 
L 213.500514 166.03118 
L 213.546899 156.832231 
L 213.639671 144.412343 
L 213.778829 174.756906 
L 213.917986 119.546049 
L 214.057144 160.092152 
L 214.149915 152.73757 
L 214.289073 175.715513 
L 214.335459 171.165997 
L 214.381845 183.55713 
L 214.428231 179.991569 
L 214.752931 142.009482 
L 214.892089 184.17697 
L 215.031247 115.95416 
L 215.170404 155.356899 
L 215.263176 150.358199 
L 215.448719 180.384868 
L 215.495105 170.110742 
L 215.541491 183.565825 
L 215.587877 172.272096 
L 215.634263 168.049299 
L 215.680648 149.426023 
L 215.77342 152.508436 
L 215.866192 138.678681 
L 215.958963 137.073328 
L 216.005349 170.93291 
L 216.144507 113.235639 
L 216.237279 131.485073 
L 216.422822 163.336976 
L 216.469208 160.219049 
L 216.608365 177.634302 
L 216.793909 146.62593 
L 216.840295 166.048187 
L 216.88668 152.364216 
L 216.979452 135.341028 
L 217.072224 131.951374 
L 217.164996 167.572309 
L 217.257767 111.746527 
L 217.304153 134.713256 
L 217.350539 131.880524 
L 217.536082 171.104671 
L 217.582468 158.917621 
L 217.628854 174.723925 
L 217.67524 171.418739 
L 217.721626 186.858299 
L 217.768012 174.487666 
L 217.860783 165.516849 
L 217.907169 149.524659 
L 217.953555 169.154166 
L 218.185484 130.802442 
L 218.23187 148.360963 
L 218.278256 218.859472 
L 218.324642 129.123131 
L 218.371028 112.996613 
L 218.417413 133.157231 
L 218.463799 134.616294 
L 218.649343 176.886535 
L 218.695728 164.349716 
L 218.834886 190.396505 
L 219.298744 130.015918 
L 219.391516 178.675169 
L 219.484288 115.428339 
L 219.530674 134.454026 
L 219.57706 138.397128 
L 219.762603 177.892477 
L 219.808989 171.116198 
L 219.855375 190.149227 
L 219.948146 186.120961 
L 219.994532 184.976911 
L 220.087304 186.725497 
L 220.13369 168.66985 
L 220.180076 180.972164 
L 220.226461 170.117207 
L 220.412005 136.884202 
L 220.504777 168.223141 
L 220.597548 126.491142 
L 220.643934 142.719501 
L 221.015021 217.73841 
L 221.154178 175.634489 
L 221.24695 201.339701 
L 221.293336 193.905823 
L 221.339722 192.567668 
L 221.386108 195.069686 
L 221.432493 167.244461 
L 221.525265 174.705604 
L 221.571651 175.457933 
L 221.618037 185.628775 
L 221.664423 184.442866 
L 221.710809 161.201973 
L 221.757194 191.491235 
L 221.80358 184.234845 
L 221.896352 186.041888 
L 221.989124 222.831979 
L 222.035509 196.911443 
L 222.128281 203.039672 
L 222.267439 198.140154 
L 222.313825 240.873252 
L 222.36021 195.200306 
L 222.406596 214.93575 
L 222.452982 196.696047 
L 222.545754 178.531524 
L 222.59214 210.376778 
L 222.638526 161.445031 
L 222.731297 174.43896 
L 222.824069 137.998282 
L 222.870455 142.528515 
L 222.916841 147.71674 
L 222.963226 185.066957 
L 223.009612 155.737222 
L 223.241542 177.371943 
L 223.287927 195.082139 
L 223.334313 188.768129 
L 223.473471 161.129922 
L 223.519857 174.244173 
L 223.566242 179.757469 
L 223.751786 127.243951 
L 223.844558 136.991498 
L 223.890943 132.770009 
L 223.937329 109.059573 
L 223.983715 119.720581 
L 224.030101 123.052956 
L 224.076487 158.709087 
L 224.122873 142.441198 
L 224.169258 141.436793 
L 224.215644 160.580977 
L 224.308416 159.141077 
L 224.354802 155.314081 
L 224.401188 189.676299 
L 224.447574 164.228692 
L 224.586731 152.388646 
L 224.633117 169.567744 
L 224.679503 160.672255 
L 224.725889 160.578934 
L 224.865046 116.515005 
L 224.911432 120.381053 
L 225.004204 127.013149 
L 225.05059 98.220574 
L 225.096975 110.999699 
L 225.143361 114.54953 
L 225.189747 152.984176 
L 225.236133 140.204161 
L 225.282519 134.735327 
L 225.421676 159.964831 
L 225.468062 151.913473 
L 225.514448 192.829044 
L 225.560834 174.9712 
L 225.699991 148.076517 
L 225.839149 164.413927 
L 225.978307 110.737171 
L 226.071078 113.190911 
L 226.117464 120.736106 
L 226.16385 88.946726 
L 226.210236 103.478513 
L 226.256622 105.917103 
L 226.303007 137.139377 
L 226.395779 128.717982 
L 226.534937 147.916683 
L 226.581323 146.92592 
L 226.627708 167.196579 
L 226.674094 156.094986 
L 226.813252 141.159456 
L 226.952409 176.558303 
L 227.137953 104.595996 
L 227.184339 103.759712 
L 227.230724 115.845653 
L 227.27711 79.131387 
L 227.323496 98.095085 
L 227.369882 98.467425 
L 227.462654 136.45881 
L 227.509039 122.403524 
L 227.648197 144.121621 
L 227.694583 138.374811 
L 227.740969 153.367411 
L 227.787355 151.263231 
L 227.880126 139.515068 
L 227.926512 141.020531 
L 227.972898 150.182198 
L 228.019284 145.659642 
L 228.06567 191.259383 
L 228.112055 142.66784 
L 228.297599 99.453279 
L 228.343985 113.493583 
L 228.390371 73.592189 
L 228.436756 96.591473 
L 228.483142 96.417636 
L 228.575914 142.30116 
L 228.6223 123.279561 
L 228.761457 144.951942 
L 228.807843 141.87138 
L 228.854229 152.288015 
L 228.947001 149.640187 
L 228.993387 141.200426 
L 229.039772 142.956963 
L 229.17893 164.896904 
L 229.225316 157.976179 
L 229.410859 98.218724 
L 229.457245 113.006126 
L 229.503631 70.562474 
L 229.550017 98.786425 
L 229.596403 97.341224 
L 229.689174 143.698357 
L 229.781946 137.893905 
L 229.967489 157.222959 
L 230.013875 155.083642 
L 230.106647 146.75166 
L 230.153033 150.200299 
L 230.29219 169.49741 
L 230.338576 162.813275 
L 230.52412 103.002005 
L 230.570505 118.848269 
L 230.616891 70.876345 
L 230.663277 105.279989 
L 230.709663 101.668642 
L 230.802435 148.698937 
L 230.895206 139.021466 
L 230.987978 151.02066 
L 231.034364 143.699578 
L 231.173521 155.108146 
L 231.312679 145.09118 
L 231.359065 145.900945 
L 231.405451 153.289632 
L 231.451836 151.410219 
L 231.63738 97.210577 
L 231.683766 111.032847 
L 231.730152 59.596995 
L 231.776537 100.226899 
L 231.822923 94.971409 
L 231.915695 141.851966 
L 232.008467 136.285389 
L 232.286782 153.04725 
L 232.333168 143.241197 
L 232.379553 149.494328 
L 232.425939 165.308481 
L 232.472325 148.147351 
L 232.518711 151.010462 
L 232.565097 161.650288 
L 232.75064 102.198035 
L 232.797026 118.905966 
L 232.843412 59.612267 
L 232.889798 112.972094 
L 232.936184 106.859221 
L 233.214499 163.490769 
L 233.30727 165.836503 
L 233.353656 154.72563 
L 233.400042 165.451197 
L 233.446428 164.663112 
L 233.5392 148.946313 
L 233.585585 151.01791 
L 233.631971 152.444655 
L 233.678357 151.990398 
L 233.724743 160.487283 
L 233.956672 62.080702 
L 234.142216 151.419593 
L 234.188601 174.999453 
L 234.234987 151.698638 
L 234.281373 156.958234 
L 234.374145 191.365181 
L 234.466917 188.968032 
L 234.65246 148.143578 
L 234.745232 170.428001 
L 234.791618 154.06324 
L 234.838003 183.067769 
L 234.884389 157.64911 
L 235.069933 59.499178 
L 235.20909 131.199413 
L 235.348248 151.320127 
L 235.394634 141.590889 
L 235.441019 142.263189 
L 235.487405 154.527396 
L 235.533791 143.560695 
L 235.580177 144.251726 
L 235.626563 143.962832 
L 235.672949 155.906035 
L 235.719334 140.496818 
L 235.76572 141.812905 
L 235.812106 138.691244 
L 235.904878 167.422454 
L 235.951264 130.32667 
L 235.99765 139.275072 
L 236.136807 150.944446 
L 236.183193 151.268454 
L 236.229579 150.944446 
L 236.32235 147.786944 
L 236.415122 130.32667 
L 236.461508 167.422454 
L 236.507894 153.247579 
L 236.55428 138.691244 
L 236.647051 140.496818 
L 236.693437 155.906035 
L 236.739823 143.962832 
L 236.786209 144.251726 
L 236.832595 143.560695 
L 236.878981 154.527396 
L 236.925366 142.263189 
L 236.971752 141.590889 
L 237.018138 151.320127 
L 237.064524 141.391058 
L 237.157296 131.199413 
L 237.203682 124.608011 
L 237.250067 127.28317 
L 237.296453 59.499178 
L 237.342839 123.414666 
L 237.389225 117.219499 
L 237.528382 183.067769 
L 237.574768 154.06324 
L 237.621154 170.428001 
L 237.66754 158.879266 
L 237.713926 148.143578 
L 237.760312 154.641482 
L 237.992241 191.365181 
L 238.131399 151.698638 
L 238.177784 174.999453 
L 238.22417 151.419593 
L 238.316942 115.425277 
L 238.363328 117.505914 
L 238.409714 62.080702 
L 238.456099 118.708087 
L 238.502485 111.694478 
L 238.641643 160.487283 
L 238.688029 151.990398 
L 238.734415 152.444655 
L 238.827186 148.946313 
L 238.966344 165.451197 
L 239.01273 154.72563 
L 239.059115 165.836503 
L 239.151887 163.490769 
L 239.244659 153.117572 
L 239.430202 106.859221 
L 239.476588 112.972094 
L 239.522974 59.612267 
L 239.56936 118.905966 
L 239.615746 102.198035 
L 239.662131 107.492339 
L 239.754903 130.50703 
L 239.801289 161.650288 
L 239.847675 151.010462 
L 239.894061 148.147351 
L 239.940447 165.308481 
L 239.986832 149.494328 
L 240.033218 143.241197 
L 240.079604 153.04725 
L 240.12599 147.978686 
L 240.218762 148.285554 
L 240.404305 126.070435 
L 240.450691 141.851966 
L 240.636234 59.596995 
L 240.68262 111.032847 
L 240.775392 104.69127 
L 240.960935 153.289632 
L 241.007321 145.900945 
L 241.053707 145.09118 
L 241.192864 155.108146 
L 241.23925 154.350992 
L 241.332022 143.699578 
L 241.378408 151.02066 
L 241.424794 145.214827 
L 241.517565 129.564893 
L 241.563951 148.698937 
L 241.610337 123.677954 
L 241.749495 70.876345 
L 241.79588 118.848269 
L 241.888652 107.689964 
L 241.981424 134.511504 
L 242.074196 169.49741 
L 242.120581 156.037096 
L 242.166967 156.098939 
L 242.259739 146.75166 
L 242.306125 149.539668 
L 242.398896 157.222959 
L 242.630826 126.182076 
L 242.677212 143.698357 
L 242.723597 121.547123 
L 242.862755 70.562474 
L 242.909141 113.006126 
L 243.001912 101.641279 
L 243.094684 126.210799 
L 243.187456 164.896904 
L 243.233842 145.594697 
L 243.280228 152.950102 
L 243.326613 142.956963 
L 243.372999 141.200426 
L 243.512157 152.288015 
L 243.651314 140.026732 
L 243.6977 136.582877 
L 243.744086 123.279561 
L 243.790472 142.30116 
L 243.836858 123.699885 
L 243.976015 73.592189 
L 244.022401 113.493583 
L 244.115173 101.675913 
L 244.161559 104.029073 
L 244.300716 191.259383 
L 244.347102 145.659642 
L 244.393488 150.182198 
L 244.48626 139.515068 
L 244.532645 143.277205 
L 244.625417 153.367411 
L 244.764575 138.231035 
L 244.810961 137.015627 
L 245.089276 79.131387 
L 245.135661 115.845653 
L 245.228433 104.595996 
L 245.274819 105.353503 
L 245.413977 176.558303 
L 245.460362 151.078877 
L 245.506748 159.477789 
L 245.553134 141.159456 
L 245.645906 147.851452 
L 245.738677 167.196579 
L 245.877835 143.938757 
L 245.924221 144.925826 
L 245.970607 128.717982 
L 246.016993 135.198237 
L 246.063378 137.139377 
L 246.202536 88.946726 
L 246.248922 120.736106 
L 246.341693 112.180911 
L 246.388079 110.737171 
L 246.527237 164.413927 
L 246.573623 158.569773 
L 246.620009 163.754217 
L 246.666394 148.076517 
L 246.71278 156.062749 
L 246.759166 156.76143 
L 246.851938 192.829044 
L 246.991095 149.874536 
L 247.037481 151.997569 
L 247.083867 134.735327 
L 247.130253 140.204161 
L 247.176639 152.984176 
L 247.315796 98.220574 
L 247.362182 127.013149 
L 247.454954 120.381053 
L 247.50134 116.515005 
L 247.686883 160.672255 
L 247.733269 169.567744 
L 247.779655 152.388646 
L 247.826041 159.464277 
L 247.872426 159.810737 
L 247.918812 164.228692 
L 247.965198 189.676299 
L 248.011584 155.314081 
L 248.150742 160.580977 
L 248.197127 141.436793 
L 248.243513 142.441198 
L 248.289899 158.709087 
L 248.429057 109.059573 
L 248.521828 136.991498 
L 248.568214 133.309468 
L 248.6146 127.243951 
L 248.800143 179.757469 
L 248.892915 161.129922 
L 248.939301 171.268328 
L 249.078458 195.082139 
L 249.217616 165.727349 
L 249.264002 168.425229 
L 249.356774 155.737222 
L 249.403159 185.066957 
L 249.449545 147.71674 
L 249.542317 137.998282 
L 249.681474 178.993966 
L 249.72786 161.445031 
L 249.774246 210.376778 
L 249.820632 178.531524 
L 249.913404 196.696047 
L 250.006175 195.200306 
L 250.052561 240.873252 
L 250.098947 198.140154 
L 250.191719 198.38526 
L 250.238105 203.039672 
L 250.284491 199.712024 
L 250.330876 196.911443 
L 250.377262 222.831979 
L 250.423648 198.339986 
L 250.562806 184.234845 
L 250.609191 191.491235 
L 250.655577 161.201973 
L 250.701963 184.442866 
L 250.748349 185.628775 
L 250.933892 167.244461 
L 250.980278 195.069686 
L 251.07305 193.905823 
L 251.119436 201.339701 
L 251.212207 175.634489 
L 251.258593 182.854865 
L 251.351365 217.73841 
L 251.397751 194.20046 
L 251.583294 164.435431 
L 251.62968 172.479849 
L 251.768838 126.491142 
L 251.861609 168.223141 
L 251.907995 150.161155 
L 251.954381 136.884202 
L 252.000767 151.809983 
L 252.047153 146.711223 
L 252.18631 180.972164 
L 252.232696 168.66985 
L 252.279082 186.725497 
L 252.371854 184.976911 
L 252.418239 186.120961 
L 252.464625 178.772107 
L 252.511011 190.149227 
L 252.696555 153.208197 
L 252.74294 161.122549 
L 252.882098 115.428339 
L 252.97487 178.675169 
L 253.021256 143.558003 
L 253.067641 130.015918 
L 253.206799 154.416193 
L 253.299571 174.913163 
L 253.345956 156.20389 
L 253.392342 177.943995 
L 253.438728 166.992287 
L 253.5315 190.396505 
L 253.670657 164.349716 
L 253.717043 176.886535 
L 253.902587 134.616294 
L 253.948972 133.157231 
L 253.995358 112.996613 
L 254.041744 129.123131 
L 254.08813 218.859472 
L 254.134516 148.360963 
L 254.180902 130.802442 
L 254.273673 136.117584 
L 254.412831 169.154166 
L 254.459217 149.524659 
L 254.505603 165.516849 
L 254.64476 186.858299 
L 254.783918 158.917621 
L 254.830304 171.104671 
L 255.015847 131.880524 
L 255.062233 134.713256 
L 255.108619 111.746527 
L 255.155004 126.988454 
L 255.20139 167.572309 
L 255.247776 158.303551 
L 255.294162 131.951374 
L 255.386934 135.341028 
L 255.526091 166.048187 
L 255.572477 146.62593 
L 255.618863 165.514198 
L 255.75802 177.634302 
L 255.804406 175.384368 
L 255.850792 176.140208 
L 256.036336 146.473931 
L 256.082721 149.312685 
L 256.221879 113.235639 
L 256.361037 170.93291 
L 256.407422 137.073328 
L 256.500194 138.678681 
L 256.639352 164.153921 
L 256.685737 149.426023 
L 256.732123 168.049299 
L 256.824895 183.565825 
L 256.871281 170.110742 
L 256.917667 180.384868 
L 256.964053 179.474968 
L 257.10321 150.358199 
L 257.149596 151.5387 
L 257.195982 155.356899 
L 257.335139 115.95416 
L 257.474297 184.17697 
L 257.567069 167.516229 
L 257.613454 142.009482 
L 257.65984 150.821173 
L 257.752612 159.427131 
L 257.798998 150.992274 
L 257.938155 179.991569 
L 257.984541 183.55713 
L 258.123699 164.195113 
L 258.170085 172.494114 
L 258.355628 133.851478 
L 258.402014 143.241346 
L 258.4484 119.546049 
L 258.494785 135.912534 
L 258.587557 174.756906 
L 258.680329 170.649638 
L 258.726715 144.412343 
L 258.773101 152.906325 
L 258.865872 166.03118 
L 258.912258 151.885653 
L 258.958644 169.215494 
L 259.097802 191.612025 
L 259.329731 153.176956 
L 259.376117 154.092964 
L 259.422502 162.650407 
L 259.56166 122.092046 
L 259.700818 173.073272 
L 259.793589 168.705967 
L 259.839975 148.708039 
L 259.932747 154.541093 
L 260.164676 183.444374 
L 260.211062 183.529962 
L 260.257448 180.897439 
L 260.303834 188.101422 
L 260.442991 155.110411 
L 260.489377 161.840097 
L 260.535763 166.538214 
L 260.67492 126.537219 
L 260.90685 174.227331 
L 260.953235 153.568656 
L 261.046007 159.737425 
L 261.092393 165.41986 
L 261.138779 154.419034 
L 261.277936 187.06063 
L 261.324322 190.943 
L 261.370708 184.675175 
L 261.417094 196.179582 
L 261.556251 157.718197 
L 261.649023 175.584937 
L 261.788181 131.916784 
L 261.973724 176.153958 
L 262.02011 177.154031 
L 262.159267 162.374477 
L 262.391197 194.503877 
L 262.252039 160.294637 
L 262.437583 186.981486 
L 262.57674 172.680581 
L 262.623126 180.996802 
L 262.669512 162.661685 
L 262.715898 169.100322 
L 262.762283 185.607499 
L 262.901441 137.49285 
L 263.086984 176.0325 
L 263.13337 179.045477 
L 263.272528 166.637893 
L 263.318914 171.877692 
L 263.365299 160.823458 
L 263.411685 175.459972 
L 263.504457 197.584935 
L 263.550843 183.704568 
L 263.597229 180.857543 
L 263.643615 186.78861 
L 263.782772 169.424059 
L 263.875544 173.297581 
L 264.014701 143.380888 
L 264.200245 180.488497 
L 264.246631 179.048532 
L 264.293016 176.843566 
L 264.339402 180.919165 
L 264.47856 163.432699 
L 264.617717 193.417058 
L 264.664103 194.403629 
L 264.710489 182.9668 
L 264.756875 202.086191 
L 264.803261 181.92 
L 264.849647 186.169378 
L 265.03519 152.840911 
L 265.127962 150.802876 
L 265.452663 197.040905 
L 265.59182 171.205609 
L 265.730978 193.261539 
L 265.823749 183.921544 
L 265.870135 193.354246 
L 265.916521 183.399179 
L 265.962907 186.452292 
L 266.14845 156.544498 
L 266.241222 156.013171 
L 266.565923 207.4996 
L 266.70508 170.132999 
L 266.797852 193.549437 
L 266.844238 191.824082 
L 266.93701 178.991803 
L 266.983396 192.456895 
L 267.029781 178.145687 
L 267.076167 184.484849 
L 267.122553 180.306397 
L 267.354482 160.256563 
L 267.447254 180.901146 
L 267.49364 189.762237 
L 267.540026 179.11558 
L 267.586412 177.963696 
L 267.679183 220.295034 
L 267.818341 170.360488 
L 267.957498 202.625069 
L 268.05027 177.429403 
L 268.096656 196.443097 
L 268.143042 187.832953 
L 268.189428 188.59159 
L 268.374971 163.1209 
L 268.467743 168.987332 
L 268.514129 163.10079 
L 268.6069 189.234584 
L 268.653286 175.891111 
L 268.699672 175.432343 
L 268.792444 222.794436 
L 268.931601 171.319564 
L 269.070759 214.54645 
L 269.16353 177.408232 
L 269.209916 190.759524 
L 269.441845 169.936585 
L 269.488231 168.352872 
L 269.534617 170.616976 
L 269.581003 169.110289 
L 269.627389 159.703421 
L 269.673775 199.297442 
L 269.720161 193.907021 
L 269.766546 171.030887 
L 269.812932 177.132266 
L 269.905704 207.746692 
L 269.95209 195.822761 
L 269.998476 198.741587 
L 270.044861 173.579596 
L 270.091247 191.995809 
L 270.137633 196.28267 
L 270.184019 190.633225 
L 270.276791 177.651945 
L 270.323177 196.441698 
L 270.415948 190.287624 
L 270.601492 164.507396 
L 270.647877 170.781767 
L 270.694263 166.687341 
L 270.740649 160.670954 
L 270.833421 214.570272 
L 270.879807 169.614833 
L 270.926193 174.10045 
L 271.06535 208.851627 
L 271.158122 170.404072 
L 271.204508 184.030959 
L 271.250894 196.543794 
L 271.297279 193.590737 
L 271.390051 174.335464 
L 271.436437 197.136841 
L 271.482823 189.905575 
L 271.714752 166.644954 
L 271.761138 179.460954 
L 271.807524 169.503793 
L 271.85391 159.89505 
L 271.900295 220.908236 
L 271.946681 218.724053 
L 271.993067 177.593206 
L 272.085839 190.447743 
L 272.132225 191.983356 
L 272.17861 209.496965 
L 272.224996 200.743034 
L 272.271382 171.979304 
L 272.317768 186.29985 
L 272.41054 213.130907 
L 272.503311 173.880329 
L 272.549697 192.74236 
L 272.596083 214.017023 
L 272.642469 184.994495 
L 272.781626 164.613971 
L 272.828012 172.487552 
L 272.874398 178.153048 
L 272.96717 158.768011 
L 273.013556 225.155132 
L 273.059942 213.341539 
L 273.106327 172.293492 
L 273.199099 183.688158 
L 273.245485 183.383528 
L 273.291871 230.762994 
L 273.338257 212.831261 
L 273.384642 175.780889 
L 273.477414 188.305065 
L 273.5238 198.58416 
L 273.570186 184.829093 
L 273.616572 171.295574 
L 273.662958 180.511079 
L 273.709343 208.804119 
L 273.755729 181.435494 
L 273.894887 163.623903 
L 273.987658 176.63825 
L 274.08043 156.614637 
L 274.126816 216.278164 
L 274.173202 212.180312 
L 274.219588 173.967711 
L 274.312359 182.966655 
L 274.358745 183.016209 
L 274.451517 224.484968 
L 274.497903 180.726987 
L 274.590675 193.776989 
L 274.63706 196.937644 
L 274.729832 172.967032 
L 274.776218 187.369741 
L 274.822604 196.792626 
L 274.86899 191.502427 
L 275.008147 165.542651 
L 275.100919 188.262173 
L 275.193691 159.432281 
L 275.286462 212.942311 
L 275.332848 176.202719 
L 275.42562 182.392222 
L 275.472006 179.771189 
L 275.564777 267.177144 
L 275.611163 181.226211 
L 275.703935 201.178185 
L 275.750321 205.256892 
L 275.843092 173.044061 
L 275.889478 184.773479 
L 275.935864 203.003725 
L 275.98225 189.75075 
L 276.121407 165.724931 
L 276.214179 193.0967 
L 276.306951 161.300928 
L 276.399723 202.375029 
L 276.446108 183.232495 
L 276.492494 191.92884 
L 276.53888 180.39601 
L 276.585266 178.270298 
L 276.770809 210.390295 
L 276.817195 204.959719 
L 276.863581 221.023166 
L 276.956353 175.220455 
L 277.002739 188.470183 
L 277.049124 207.946627 
L 277.09551 190.918648 
L 277.234668 167.66772 
L 277.32744 213.450632 
L 277.420211 164.029225 
L 277.512983 199.571042 
L 277.559369 188.901641 
L 277.605755 206.912137 
L 277.65214 183.502487 
L 277.698526 183.77893 
L 277.88407 211.170527 
L 277.930456 199.259441 
L 277.976841 237.517479 
L 278.023227 199.312455 
L 278.069613 177.918546 
L 278.115999 184.735252 
L 278.208771 200.403333 
L 278.347928 171.992897 
L 278.394314 182.212223 
L 278.4407 220.928842 
L 278.487086 170.861186 
L 278.533472 168.024788 
L 278.626243 200.895634 
L 278.672629 194.694096 
L 278.719015 200.21197 
L 278.765401 187.520996 
L 278.811787 187.709259 
L 278.858172 206.025349 
L 278.904558 202.238645 
L 278.950944 197.095919 
L 278.99733 226.301585 
L 279.043716 208.642351 
L 279.090102 211.116841 
L 279.182873 185.573219 
L 279.229259 195.110601 
L 279.322031 212.153705 
L 279.461188 178.013849 
L 279.55396 216.918036 
L 279.600346 174.686431 
L 279.646732 178.357535 
L 279.785889 200.01296 
L 279.832275 207.581204 
L 279.878661 187.832908 
L 279.925047 194.987011 
L 280.11059 233.02157 
L 280.296134 190.37237 
L 280.435291 219.395475 
L 280.574449 182.039599 
L 280.667221 221.267047 
L 280.713606 181.501322 
L 280.759992 184.104773 
L 280.89915 213.809026 
L 280.991921 195.637124 
L 281.038307 197.85735 
L 281.223851 258.680028 
L 281.270237 217.847628 
L 281.363008 231.341267 
L 281.409394 197.068211 
L 281.502166 202.251726 
L 281.548552 216.851541 
L 281.594937 203.931939 
L 281.641323 203.78878 
L 281.687709 187.503863 
L 281.734095 201.275688 
L 281.780481 233.583328 
L 281.826867 185.998383 
L 281.873253 190.666869 
L 282.01241 242.125869 
L 282.105182 207.540769 
L 282.151568 212.276256 
L 282.197953 210.770676 
L 282.244339 203.886597 
L 282.337111 253.350261 
L 282.429883 236.966474 
L 282.615426 205.194347 
L 282.661812 233.317176 
L 282.708198 211.920925 
L 282.800969 195.28062 
L 282.893741 230.988656 
L 282.940127 189.939129 
L 282.986513 201.751897 
L 283.12567 245.345476 
L 283.172056 208.108967 
L 283.218442 213.486381 
L 283.264828 225.994296 
L 283.311214 216.587455 
L 283.3576 217.021197 
L 283.403986 214.992777 
L 283.496757 259.757938 
L 283.543143 241.886312 
L 283.635915 211.093695 
L 283.728686 212.336739 
L 283.775072 223.245095 
L 283.821458 218.723795 
L 283.91423 199.96951 
L 283.960616 215.618328 
L 284.007002 229.734438 
L 284.053387 193.627209 
L 284.099773 205.760257 
L 284.238931 252.966756 
L 284.285317 218.092948 
L 284.378088 225.704339 
L 284.47086 229.203255 
L 284.517246 223.027963 
L 284.610018 245.031763 
L 284.656403 238.630141 
L 284.702789 239.95041 
L 284.749175 217.11421 
L 284.841947 222.469864 
L 284.888333 238.721218 
L 284.934718 234.901332 
L 285.02749 206.286812 
L 285.073876 225.523192 
L 285.120262 246.327454 
L 285.166648 204.63618 
L 285.213034 217.703734 
L 285.352191 248.696368 
L 285.398577 214.842172 
L 285.444963 230.016952 
L 285.491349 249.506296 
L 285.537734 244.834099 
L 285.58412 231.722997 
L 285.630506 232.652205 
L 285.676892 251.897148 
L 285.723278 235.87433 
L 285.769664 233.098273 
L 285.81605 252.526698 
L 285.955207 218.493265 
L 286.047979 242.538287 
L 286.14075 207.665556 
L 286.233522 239.876055 
L 286.279908 211.570891 
L 286.326294 218.506481 
L 286.465451 249.250325 
L 286.511837 219.550983 
L 286.558223 242.93077 
L 286.604609 263.512717 
L 286.650995 249.037598 
L 286.743767 224.748593 
L 286.882924 268.280121 
L 286.975696 226.159096 
L 287.022082 240.572331 
L 287.068467 229.507075 
L 287.114853 237.018779 
L 287.161239 243.911759 
L 287.254011 216.850261 
L 287.300397 236.909654 
L 287.346783 233.618639 
L 287.393168 210.959688 
L 287.439554 226.070813 
L 287.578712 242.50435 
L 287.625098 225.883106 
L 287.671483 247.399442 
L 287.717869 244.99134 
L 287.764255 269.335469 
L 287.810641 247.978504 
L 287.857027 235.362347 
L 287.903413 240.97106 
L 287.996184 320.988155 
L 288.088956 225.388209 
L 288.135342 237.557338 
L 288.181728 232.423727 
L 288.228114 233.656972 
L 288.320885 246.179518 
L 288.367271 219.253169 
L 288.413657 233.423592 
L 288.460043 262.673643 
L 288.506429 216.011122 
L 288.552815 242.750831 
L 288.5992 243.515106 
L 288.645586 246.714916 
L 288.738358 233.821632 
L 288.877515 261.896386 
L 288.923901 256.512663 
L 288.970287 232.644244 
L 289.016673 255.467988 
L 289.063059 269.990568 
L 289.109445 256.052077 
L 289.155831 253.435722 
L 289.202216 230.631277 
L 289.294988 236.523014 
L 289.341374 241.591106 
L 289.38776 284.164955 
L 289.434146 248.298171 
L 289.480532 219.76034 
L 289.526917 246.096963 
L 289.573303 246.554628 
L 289.619689 220.812416 
L 289.666075 236.59358 
L 289.712461 236.483978 
L 289.758847 248.083893 
L 289.805232 242.785625 
L 289.851618 222.483726 
L 289.898004 284.446055 
L 289.990776 279.620959 
L 290.083548 238.374673 
L 290.129933 242.189249 
L 290.222705 258.907202 
L 290.269091 248.915625 
L 290.408248 237.971554 
L 290.454634 241.063819 
L 290.50102 294.374793 
L 290.547406 262.515858 
L 290.593792 222.741918 
L 290.640178 252.74889 
L 290.686564 246.541097 
L 290.732949 221.686143 
L 290.779335 236.180676 
L 290.825721 238.052378 
L 290.872107 256.662613 
L 290.918493 241.276283 
L 290.964879 229.122733 
L 291.011264 270.515837 
L 291.104036 265.043696 
L 291.196808 242.537511 
L 291.243194 247.124408 
L 291.28958 295.785939 
L 291.335965 275.176498 
L 291.428737 234.313391 
L 291.521509 234.830829 
L 291.567895 240.111803 
L 291.61428 294.117058 
L 291.660666 270.127068 
L 291.707052 228.956927 
L 291.799824 242.727762 
L 291.84621 220.929442 
L 291.892596 240.550253 
L 291.985367 253.14056 
L 292.031753 244.807216 
L 292.078139 236.912828 
L 292.124525 307.494926 
L 292.170911 242.810907 
L 292.263682 269.068292 
L 292.310068 235.861373 
L 292.356454 255.661627 
L 292.40284 279.174807 
L 292.449226 250.110016 
L 292.495612 259.78373 
L 292.541997 234.218183 
L 292.588383 240.962295 
L 292.727541 263.81975 
L 292.773927 253.975067 
L 292.820313 230.608363 
L 292.866698 240.15281 
L 292.913084 252.977402 
L 292.95947 224.333028 
L 293.005856 253.354426 
L 293.052242 248.830397 
L 293.098628 263.03259 
L 293.145013 250.106725 
L 293.191399 235.840853 
L 293.237785 263.950778 
L 293.330557 252.861281 
L 293.376943 275.543942 
L 293.423329 237.740473 
L 293.469714 251.735788 
L 293.5161 256.015204 
L 293.562486 243.704157 
L 293.608872 269.620411 
L 293.655258 238.297049 
L 293.701644 239.06831 
L 293.840801 266.499207 
L 293.933573 231.575101 
L 293.979959 246.56333 
L 294.026345 246.782588 
L 294.07273 229.653501 
L 294.119116 242.576067 
L 294.211888 254.289492 
L 294.258274 242.076675 
L 294.30466 242.609924 
L 294.351045 282.402918 
L 294.397431 248.672504 
L 294.490203 269.122321 
L 294.536589 247.154604 
L 294.629361 250.695451 
L 294.675746 249.68393 
L 294.722132 264.574549 
L 294.768518 244.671378 
L 294.907676 255.830266 
L 294.954061 268.228516 
L 295.000447 254.99801 
L 295.046833 241.039081 
L 295.093219 248.797167 
L 295.139605 257.650669 
L 295.185991 235.63899 
L 295.232377 248.14485 
L 295.278762 262.900515 
L 295.325148 251.107869 
L 295.41792 240.490737 
L 295.464306 263.229882 
L 295.557078 261.492824 
L 295.603463 260.877465 
L 295.649849 254.165325 
L 295.696235 266.391218 
L 295.742621 263.383557 
L 295.928164 247.392175 
L 296.020936 252.530617 
L 296.055548 346.6 
M 296.081882 346.6 
L 296.160094 240.577735 
L 296.206479 253.17844 
L 296.252865 256.46585 
L 296.299251 235.120527 
L 296.345637 253.553429 
L 296.392023 274.718914 
L 296.438409 256.735791 
L 296.484794 245.068401 
L 296.53118 257.867801 
L 296.623952 248.453508 
L 296.670338 254.894358 
L 296.76311 254.600459 
L 296.809495 273.836972 
L 296.902267 262.109277 
L 296.948653 274.065471 
L 296.995039 249.867808 
L 297.041425 250.268708 
L 297.180582 268.565396 
L 297.226968 267.476876 
L 297.273354 248.455019 
L 297.31974 250.142553 
L 297.366126 261.005578 
L 297.412511 240.055234 
L 297.458897 259.387523 
L 297.505283 264.391628 
L 297.551669 264.030791 
L 297.598055 254.759761 
L 297.644441 266.976328 
L 297.690826 254.909492 
L 297.783598 260.251764 
L 297.829984 253.999685 
L 297.922756 280.047767 
L 297.969142 270.814943 
L 298.015527 255.473198 
L 298.108299 258.86326 
L 298.154685 255.956213 
L 298.293842 273.305587 
L 298.525772 247.643305 
L 298.618543 271.682329 
L 298.664929 266.329472 
L 298.757701 266.612709 
L 298.804087 257.385817 
L 299.036016 285.558849 
L 299.221559 260.0181 
L 299.360717 286.138713 
L 299.453489 281.488123 
L 299.639032 250.844673 
L 299.731804 279.053719 
L 299.77819 273.442693 
L 299.824575 259.348596 
L 299.870961 282.701479 
L 299.917347 264.368227 
L 299.963733 265.797786 
L 300.149276 305.728471 
L 300.195662 303.594461 
L 300.33482 260.364465 
L 300.381206 264.16193 
L 300.473977 289.182951 
L 300.566749 287.869238 
L 300.752292 253.719111 
L 300.845064 311.734557 
L 300.89145 278.386504 
L 300.937836 263.716338 
L 300.984222 306.027127 
L 301.030607 261.397419 
L 301.308923 321.286748 
L 301.44808 267.570649 
L 301.540852 283.181539 
L 301.587238 311.884038 
L 301.633624 297.971144 
L 301.726395 276.29919 
L 301.772781 264.957663 
L 301.819167 295.228386 
L 301.865553 262.724549 
L 301.958324 294.242516 
L 302.00471 274.19259 
L 302.051096 276.835663 
L 302.097482 300.337321 
L 302.143868 266.996131 
L 302.190254 278.847527 
L 302.23664 284.377321 
L 302.283025 272.464234 
L 302.375797 321.406103 
L 302.422183 320.356206 
L 302.56134 282.414319 
L 302.607726 274.889967 
L 302.746884 339.63432 
L 302.79327 304.922567 
L 302.886041 275.652195 
L 302.932427 285.86171 
L 302.978813 272.465058 
L 303.025199 279.327141 
L 303.071585 306.148428 
L 303.117971 280.395726 
L 303.164356 273.159641 
L 303.210742 316.92779 
L 303.257128 273.777086 
L 303.3499 307.076544 
L 303.396286 277.107954 
L 303.442672 345.956218 
L 303.489057 285.856257 
L 303.535443 297.800798 
L 303.628215 297.445896 
L 303.720987 278.962468 
L 303.767372 287.438791 
L 303.860144 322.346915 
L 303.90653 317.054076 
L 303.999302 271.46595 
L 304.045688 285.499031 
L 304.092073 273.670843 
L 304.138459 288.683313 
L 304.184845 308.345521 
L 304.231231 299.781699 
L 304.277617 291.668537 
L 304.324003 307.186329 
L 304.370388 275.790014 
L 304.416774 301.72463 
L 304.46316 306.639507 
L 304.509546 284.181272 
L 304.602318 291.227979 
L 304.695089 283.79459 
L 304.741475 313.384551 
L 304.787861 286.002319 
L 304.834247 286.577069 
L 304.973405 311.901112 
L 305.112562 272.936273 
L 305.205334 276.997029 
L 305.298105 310.713883 
L 305.344491 306.620675 
L 305.437263 307.277818 
L 305.483649 276.587584 
L 305.576421 312.032454 
L 305.622806 291.55514 
L 305.669192 293.410747 
L 305.761964 337.02641 
L 305.901121 288.308231 
L 305.947507 282.021041 
L 306.013354 346.6 
M 306.071147 346.6 
L 306.179437 286.402675 
L 306.225822 287.163705 
L 306.272208 315.254763 
L 306.318594 283.954175 
L 306.36498 306.367921 
L 306.411366 308.51628 
L 306.457752 317.552411 
L 306.504137 309.980117 
L 306.596909 283.568689 
L 306.689681 315.381682 
L 306.736067 291.748915 
L 306.828838 299.26093 
L 306.875224 334.96774 
L 306.92161 307.463433 
L 306.967996 310.21224 
L 307.060768 293.263527 
L 307.107153 307.231732 
L 307.183516 346.6 
M 307.240086 346.6 
L 307.246311 344.789987 
L 307.339083 290.152831 
L 307.385469 311.28014 
L 307.431854 295.931278 
L 307.47824 310.492046 
L 307.524626 324.299792 
L 307.617398 320.866735 
L 307.71017 294.789254 
L 307.756555 295.264522 
L 307.798474 346.6 
M 307.80855 346.6 
L 307.895713 305.25582 
L 307.942099 305.933509 
L 307.988485 311.198048 
L 308.03487 299.782656 
L 308.06678 346.6 
M 308.096624 346.6 
L 308.174028 299.58322 
L 308.220414 333.718929 
L 308.2668 313.060979 
L 308.313186 312.69285 
L 308.359571 344.142875 
L 308.405957 309.251868 
L 308.452343 291.625394 
L 308.545115 291.634226 
L 308.715437 346.6 
M 308.745024 346.6 
L 308.82343 291.145099 
L 308.869816 315.14885 
L 308.916202 320.543387 
L 308.962587 315.953988 
L 309.008973 312.763156 
L 309.055359 315.160715 
L 309.084715 346.6 
M 309.117023 346.6 
L 309.240902 299.879885 
L 309.287288 297.243904 
L 309.333674 339.548833 
L 309.38006 313.401016 
L 309.426446 322.121086 
L 309.472832 316.00005 
L 309.565603 293.452763 
L 309.611989 337.465386 
L 309.658375 303.069186 
L 309.751147 324.407055 
L 309.797533 315.245235 
L 309.843918 318.783284 
L 309.93669 294.572618 
L 310.029462 340.761333 
L 310.075848 329.568475 
L 310.122234 313.890352 
L 310.168619 323.712661 
L 310.197258 346.6 
M 310.226938 346.6 
L 310.261391 305.646509 
L 310.354163 305.917184 
L 310.400549 294.601191 
L 310.446934 325.57746 
L 310.49332 319.440843 
L 310.632478 298.817605 
L 310.678864 304.513305 
L 310.864407 327.49094 
L 310.910793 324.585882 
L 310.933515 346.6 
M 310.971948 346.6 
L 311.049951 296.108536 
L 311.096336 306.956763 
L 311.189108 318.246825 
L 311.235494 301.124997 
L 311.296585 346.6 
M 311.353401 346.6 
L 311.467423 306.231274 
L 311.513809 297.383189 
L 311.560195 339.567508 
L 311.652967 326.613533 
L 311.745738 301.758682 
L 311.792124 304.321216 
L 312.070439 337.430444 
L 312.163211 297.822103 
L 312.209597 307.879447 
L 312.255983 307.236735 
L 312.302368 323.986526 
L 312.348754 298.213315 
L 312.39514 308.555065 
L 312.430329 346.6 
M 312.451891 346.6 
L 312.487912 304.527699 
L 312.580683 304.774096 
L 312.627069 300.616354 
L 312.671788 346.6 
M 312.679368 346.6 
L 312.905384 295.978057 
L 313.063385 346.6 
M 313.1142 346.6 
L 313.230085 312.843974 
L 313.276471 302.722858 
L 313.4085 346.6 
M 313.422662 346.6 
L 313.462015 303.266532 
L 313.5084 315.981286 
L 313.554786 332.635066 
L 313.601172 306.80522 
L 313.693944 307.69846 
L 313.74033 297.402415 
L 313.777181 346.6 
M 313.800701 346.6 
L 313.925873 309.205454 
L 314.018645 299.363883 
L 314.157802 326.431827 
L 314.204188 321.125166 
L 314.250574 323.711285 
L 314.29696 333.808226 
L 314.389732 307.44385 
L 314.528093 346.6 
M 314.52946 346.6 
L 314.575275 297.702041 
L 314.621661 316.112935 
L 314.668047 325.613929 
L 314.714432 310.072015 
L 314.807204 313.59901 
L 314.85359 304.81247 
L 314.899976 341.972449 
L 314.946362 331.649691 
L 315.131905 305.02265 
L 315.296319 346.6 
M 315.32825 346.6 
L 315.456606 310.421214 
L 315.502992 309.695232 
L 315.642149 345.125049 
L 315.688535 303.915176 
L 315.734921 333.752356 
L 315.96685 307.595129 
L 315.990241 346.6 
M 316.046648 346.6 
L 316.152394 328.607775 
L 316.245165 304.862556 
L 316.421473 346.6 
M 316.440182 346.6 
L 316.477095 322.170468 
L 316.569866 322.446893 
L 316.616252 311.776414 
L 316.709024 311.541387 
L 316.75541 336.381458 
L 316.801796 305.0714 
L 316.848181 318.513241 
L 316.894567 326.188162 
L 316.940953 312.766008 
L 316.987339 334.928832 
L 317.033725 317.553151 
L 317.080111 310.791494 
L 317.219268 338.580663 
L 317.358426 311.99836 
L 317.538063 346.6 
M 317.544677 346.6 
L 317.590355 328.154018 
L 317.626063 346.6 
M 317.647706 346.6 
L 317.729513 321.027016 
L 317.765953 346.6 
M 317.785754 346.6 
L 317.915056 311.718818 
L 318.100599 333.865065 
L 318.193371 318.979897 
L 318.332529 341.673386 
L 318.518072 322.348483 
L 318.634566 346.6 
M 318.679404 346.6 
L 318.703615 328.99777 
L 318.726727 346.6 
M 318.773951 346.6 
L 318.842773 328.654686 
L 318.86277 346.6 
M 318.912077 346.6 
L 319.028316 313.505089 
L 319.21386 345.011451 
L 319.260245 321.942533 
L 319.306631 327.04198 
L 319.336923 346.6 
M 319.372442 346.6 
L 319.399403 332.177016 
L 319.433224 346.6 
M 319.473756 346.6 
L 319.584946 324.249968 
L 319.631332 329.545271 
L 319.740931 346.6 
M 319.793441 346.6 
L 319.816876 327.820332 
L 319.863262 342.969587 
L 319.909647 343.157868 
L 319.956033 324.293736 
L 320.000532 346.6 
M 320.004449 346.6 
L 320.141577 319.188649 
L 320.298681 346.6 
M 320.356949 346.6 
L 320.419892 320.573718 
L 320.458245 346.6 
M 320.493673 346.6 
L 320.512663 342.821603 
L 320.527291 346.6 
M 320.628169 346.6 
L 320.698207 322.377503 
L 320.744304 346.6 
M 320.745139 346.6 
L 320.790978 333.902819 
L 320.834725 346.6 
M 320.84257 346.6 
L 320.88375 340.540684 
L 320.902867 346.6 
M 321.003805 346.6 
L 321.069294 328.000207 
L 321.096013 346.6 
M 321.135885 346.6 
L 321.254837 322.671183 
L 321.3927 346.6 
M 321.50314 346.6 
L 321.533152 332.242241 
L 321.625924 338.599079 
L 321.644468 346.6 
M 321.709436 346.6 
L 321.811467 330.458222 
L 321.852587 346.6 
M 322.040741 346.6 
L 322.043396 343.35182 
L 322.047388 346.6 
M 322.126386 346.6 
L 322.182554 333.236146 
L 322.202694 346.6 
M 322.265558 346.6 
L 322.368097 331.765876 
L 322.414483 337.897912 
L 322.460869 321.612134 
L 322.482023 346.6 
M 322.59883 346.6 
L 322.646412 344.088644 
L 322.652764 346.6 
M 322.721413 346.6 
L 322.739184 336.770668 
L 322.754886 346.6 
M 322.889848 346.6 
L 322.971113 337.110418 
L 322.989823 346.6 
M 323.147282 346.6 
L 323.156657 342.64642 
L 323.167162 346.6 
M 323.236197 346.6 
L 323.295814 340.057046 
L 323.300474 346.6 
M 323.446721 346.6 
L 323.481358 345.470689 
L 323.483412 346.6 
M 323.55577 346.6 
L 323.574129 330.636778 
L 323.591347 346.6 
M 323.705513 346.6 
L 323.713287 338.122086 
L 323.752134 346.6 
M 323.848835 346.6 
L 323.852444 345.396823 
L 323.877939 346.6 
M 323.992784 346.6 
L 324.037988 334.122822 
L 324.084374 343.445914 
L 324.135905 346.6 
M 324.398075 346.6 
L 324.409075 335.02139 
L 324.427185 346.6 
M 324.49948 346.6 
L 324.501846 345.628259 
L 324.508106 346.6 
M 324.56545 346.6 
L 324.594618 336.047259 
L 324.607411 346.6 
M 324.682077 346.6 
L 324.68739 343.015927 
L 324.737648 346.6 
M 324.83053 346.6 
L 324.872933 341.132451 
L 324.883881 346.6 
M 325.073155 346.6 
L 325.151248 334.305925 
L 325.16093 346.6 
M 325.241336 346.6 
L 325.24402 343.737649 
L 325.250796 346.6 
M 325.501645 346.6 
L 325.522335 336.454749 
L 325.554071 346.6 
M 325.67586 346.6 
L 325.707878 343.550218 
L 325.723662 346.6 
M 325.785211 346.6 
L 325.80065 343.650249 
L 325.813009 346.6 
M 325.982376 346.6 
L 325.986193 341.587351 
L 326.010129 346.6 
M 326.054316 346.6 
L 326.078965 341.268752 
L 326.082508 346.6 
M 326.213025 346.6 
L 326.218123 345.687197 
L 326.222324 346.6 
M 326.595249 346.6 
L 326.635595 338.145362 
L 326.676256 346.6 
M 326.774478 346.6 
L 326.774753 346.406276 
L 326.775158 346.6 
M 326.860192 346.6 
L 326.91391 334.822714 
L 326.931726 346.6 
M 327.188143 346.6 
L 327.192225 343.300451 
L 327.202437 346.6 
M 328.015277 346.6 
L 328.027171 341.278325 
L 328.049372 346.6 
M 328.481276 346.6 
L 328.491029 342.157603 
L 328.508327 346.6 
M 328.577578 346.6 
L 328.583801 345.442539 
L 328.586703 346.6 
M 329.586297 346.6 
L 329.604289 344.483928 
L 329.606388 346.6 
M 329.971298 346.6 
L 329.975376 344.993684 
L 329.985395 346.6 
M 330.669053 346.6 
L 330.671164 345.807354 
L 330.672325 346.6 
M 331.04016 346.6 
L 331.042251 346.334799 
L 331.04705 346.6 
M 331.363951 346.6 
L 331.366952 345.07118 
L 331.36948 346.6 
M 333.666904 346.6 
L 333.686244 344.326251 
L 333.693373 346.6 
M 334.002718 346.6 
L 334.010945 345.50019 
L 334.020163 346.6 
" clip-path="url(#pd7c51f208f)" style="fill: none; stroke: #008000; stroke-width: 1.5; stroke-linecap: square"/>
   </g>
   <g id="patch_3">
    <path d="M 57.6 307.584 
L 57.6 41.472 
" style="fill: none; stroke: #000000; stroke-width: 0.8; stroke-linejoin: miter; stroke-linecap: square"/>
   </g>
   <g id="patch_4">
    <path d="M 414.72 307.584 
L 414.72 41.472 
" style="fill: none; stroke: #000000; stroke-width: 0.8; stroke-linejoin: miter; stroke-linecap: square"/>
   </g>
   <g id="patch_5">
    <path d="M 57.6 307.584 
L 414.72 307.584 
" style="fill: none; stroke: #000000; stroke-width: 0.8; stroke-linejoin: miter; stroke-linecap: square"/>
   </g>
   <g id="patch_6">
    <path d="M 57.6 41.472 
L 414.72 41.472 
" style="fill: none; stroke: #000000; stroke-width: 0.8; stroke-linejoin: miter; stroke-linecap: square"/>
   </g>
  </g>
 </g>
 <defs>
  <clipPath id="pd7c51f208f">
   <rect x="57.6" y="41.472" width="357.12" height="266.112"/>
  </clipPath>
 </defs>
</svg>
