<?xml version="1.0" encoding="utf-8" standalone="no"?>
<!DOCTYPE svg PUBLIC "-//W3C//DTD SVG 1.1//EN"
  "http://www.w3.org/Graphics/SVG/1.1/DTD/svg11.dtd">
<svg xmlns:xlink="http://www.w3.org/1999/xlink" width="460.8pt" height="345.6pt" viewBox="0 0 460.8 345.6" xmlns="http://www.w3.org/2000/svg" version="1.1">
 <metadata>
  <rdf:RDF xmlns:dc="http://purl.org/dc/elements/1.1/" xmlns:cc="http://creativecommons.org/ns#" xmlns:rdf="http://www.w3.org/1999/02/22-rdf-syntax-ns#">
   <cc:Work>
    <dc:type rdf:resource="http://purl.org/dc/dcmitype/StillImage"/>
    <dc:date>2024-05-24T14:37:25.678648</dc:date>
    <dc:format>image/svg+xml</dc:format>
    <dc:creator>
     <cc:Agent>
      <dc:title>Matplotlib v3.8.2, https://matplotlib.org/</dc:title>
     </cc:Agent>
    </dc:creator>
   </cc:Work>
  </rdf:RDF>
 </metadata>
 <defs>
  <style type="text/css">*{stroke-linejoin: round; stroke-linecap: butt}</style>
 </defs>
 <g id="figure_1">
  <g id="patch_1">
   <path d="M 0 345.6 
L 460.8 345.6 
L 460.8 0 
L 0 0 
z
" style="fill: #ffffff"/>
  </g>
  <g id="axes_1">
   <g id="patch_2">
    <path d="M 57.6 307.584 
L 414.72 307.584 
L 414.72 41.472 
L 57.6 41.472 
z
" style="fill: #ffffff"/>
   </g>
   <g id="matplotlib.axis_1">
    <g id="xtick_1">
     <g id="line2d_1">
      <defs>
       <path id="md5792a4433" d="M 0 0 
L 0 3.5 
" style="stroke: #000000; stroke-width: 0.8"/>
      </defs>
      <g>
       <use xlink:href="#md5792a4433" x="73.832727" y="307.584" style="stroke: #000000; stroke-width: 0.8"/>
      </g>
     </g>
     <g id="text_1">
      <!-- 0 -->
      <g transform="translate(70.651477 322.182437) scale(0.1 -0.1)">
       <defs>
        <path id="DejaVuSans-30" d="M 2034 4250 
Q 1547 4250 1301 3770 
Q 1056 3291 1056 2328 
Q 1056 1369 1301 889 
Q 1547 409 2034 409 
Q 2525 409 2770 889 
Q 3016 1369 3016 2328 
Q 3016 3291 2770 3770 
Q 2525 4250 2034 4250 
z
M 2034 4750 
Q 2819 4750 3233 4129 
Q 3647 3509 3647 2328 
Q 3647 1150 3233 529 
Q 2819 -91 2034 -91 
Q 1250 -91 836 529 
Q 422 1150 422 2328 
Q 422 3509 836 4129 
Q 1250 4750 2034 4750 
z
" transform="scale(0.015625)"/>
       </defs>
       <use xlink:href="#DejaVuSans-30"/>
      </g>
     </g>
    </g>
    <g id="xtick_2">
     <g id="line2d_2">
      <g>
       <use xlink:href="#md5792a4433" x="138.763636" y="307.584" style="stroke: #000000; stroke-width: 0.8"/>
      </g>
     </g>
     <g id="text_2">
      <!-- 2 -->
      <g transform="translate(135.582386 322.182437) scale(0.1 -0.1)">
       <defs>
        <path id="DejaVuSans-32" d="M 1228 531 
L 3431 531 
L 3431 0 
L 469 0 
L 469 531 
Q 828 903 1448 1529 
Q 2069 2156 2228 2338 
Q 2531 2678 2651 2914 
Q 2772 3150 2772 3378 
Q 2772 3750 2511 3984 
Q 2250 4219 1831 4219 
Q 1534 4219 1204 4116 
Q 875 4013 500 3803 
L 500 4441 
Q 881 4594 1212 4672 
Q 1544 4750 1819 4750 
Q 2544 4750 2975 4387 
Q 3406 4025 3406 3419 
Q 3406 3131 3298 2873 
Q 3191 2616 2906 2266 
Q 2828 2175 2409 1742 
Q 1991 1309 1228 531 
z
" transform="scale(0.015625)"/>
       </defs>
       <use xlink:href="#DejaVuSans-32"/>
      </g>
     </g>
    </g>
    <g id="xtick_3">
     <g id="line2d_3">
      <g>
       <use xlink:href="#md5792a4433" x="203.694545" y="307.584" style="stroke: #000000; stroke-width: 0.8"/>
      </g>
     </g>
     <g id="text_3">
      <!-- 4 -->
      <g transform="translate(200.513295 322.182437) scale(0.1 -0.1)">
       <defs>
        <path id="DejaVuSans-34" d="M 2419 4116 
L 825 1625 
L 2419 1625 
L 2419 4116 
z
M 2253 4666 
L 3047 4666 
L 3047 1625 
L 3713 1625 
L 3713 1100 
L 3047 1100 
L 3047 0 
L 2419 0 
L 2419 1100 
L 313 1100 
L 313 1709 
L 2253 4666 
z
" transform="scale(0.015625)"/>
       </defs>
       <use xlink:href="#DejaVuSans-34"/>
      </g>
     </g>
    </g>
    <g id="xtick_4">
     <g id="line2d_4">
      <g>
       <use xlink:href="#md5792a4433" x="268.625455" y="307.584" style="stroke: #000000; stroke-width: 0.8"/>
      </g>
     </g>
     <g id="text_4">
      <!-- 6 -->
      <g transform="translate(265.444205 322.182437) scale(0.1 -0.1)">
       <defs>
        <path id="DejaVuSans-36" d="M 2113 2584 
Q 1688 2584 1439 2293 
Q 1191 2003 1191 1497 
Q 1191 994 1439 701 
Q 1688 409 2113 409 
Q 2538 409 2786 701 
Q 3034 994 3034 1497 
Q 3034 2003 2786 2293 
Q 2538 2584 2113 2584 
z
M 3366 4563 
L 3366 3988 
Q 3128 4100 2886 4159 
Q 2644 4219 2406 4219 
Q 1781 4219 1451 3797 
Q 1122 3375 1075 2522 
Q 1259 2794 1537 2939 
Q 1816 3084 2150 3084 
Q 2853 3084 3261 2657 
Q 3669 2231 3669 1497 
Q 3669 778 3244 343 
Q 2819 -91 2113 -91 
Q 1303 -91 875 529 
Q 447 1150 447 2328 
Q 447 3434 972 4092 
Q 1497 4750 2381 4750 
Q 2619 4750 2861 4703 
Q 3103 4656 3366 4563 
z
" transform="scale(0.015625)"/>
       </defs>
       <use xlink:href="#DejaVuSans-36"/>
      </g>
     </g>
    </g>
    <g id="xtick_5">
     <g id="line2d_5">
      <g>
       <use xlink:href="#md5792a4433" x="333.556364" y="307.584" style="stroke: #000000; stroke-width: 0.8"/>
      </g>
     </g>
     <g id="text_5">
      <!-- 8 -->
      <g transform="translate(330.375114 322.182437) scale(0.1 -0.1)">
       <defs>
        <path id="DejaVuSans-38" d="M 2034 2216 
Q 1584 2216 1326 1975 
Q 1069 1734 1069 1313 
Q 1069 891 1326 650 
Q 1584 409 2034 409 
Q 2484 409 2743 651 
Q 3003 894 3003 1313 
Q 3003 1734 2745 1975 
Q 2488 2216 2034 2216 
z
M 1403 2484 
Q 997 2584 770 2862 
Q 544 3141 544 3541 
Q 544 4100 942 4425 
Q 1341 4750 2034 4750 
Q 2731 4750 3128 4425 
Q 3525 4100 3525 3541 
Q 3525 3141 3298 2862 
Q 3072 2584 2669 2484 
Q 3125 2378 3379 2068 
Q 3634 1759 3634 1313 
Q 3634 634 3220 271 
Q 2806 -91 2034 -91 
Q 1263 -91 848 271 
Q 434 634 434 1313 
Q 434 1759 690 2068 
Q 947 2378 1403 2484 
z
M 1172 3481 
Q 1172 3119 1398 2916 
Q 1625 2713 2034 2713 
Q 2441 2713 2670 2916 
Q 2900 3119 2900 3481 
Q 2900 3844 2670 4047 
Q 2441 4250 2034 4250 
Q 1625 4250 1398 4047 
Q 1172 3844 1172 3481 
z
" transform="scale(0.015625)"/>
       </defs>
       <use xlink:href="#DejaVuSans-38"/>
      </g>
     </g>
    </g>
    <g id="xtick_6">
     <g id="line2d_6">
      <g>
       <use xlink:href="#md5792a4433" x="398.487273" y="307.584" style="stroke: #000000; stroke-width: 0.8"/>
      </g>
     </g>
     <g id="text_6">
      <!-- 10 -->
      <g transform="translate(392.124773 322.182437) scale(0.1 -0.1)">
       <defs>
        <path id="DejaVuSans-31" d="M 794 531 
L 1825 531 
L 1825 4091 
L 703 3866 
L 703 4441 
L 1819 4666 
L 2450 4666 
L 2450 531 
L 3481 531 
L 3481 0 
L 794 0 
L 794 531 
z
" transform="scale(0.015625)"/>
       </defs>
       <use xlink:href="#DejaVuSans-31"/>
       <use xlink:href="#DejaVuSans-30" x="63.623047"/>
      </g>
     </g>
    </g>
    <g id="text_7">
     <!-- Time [$s$] -->
     <g transform="translate(215.66 335.860562) scale(0.1 -0.1)">
      <defs>
       <path id="DejaVuSans-54" d="M -19 4666 
L 3928 4666 
L 3928 4134 
L 2272 4134 
L 2272 0 
L 1638 0 
L 1638 4134 
L -19 4134 
L -19 4666 
z
" transform="scale(0.015625)"/>
       <path id="DejaVuSans-69" d="M 603 3500 
L 1178 3500 
L 1178 0 
L 603 0 
L 603 3500 
z
M 603 4863 
L 1178 4863 
L 1178 4134 
L 603 4134 
L 603 4863 
z
" transform="scale(0.015625)"/>
       <path id="DejaVuSans-6d" d="M 3328 2828 
Q 3544 3216 3844 3400 
Q 4144 3584 4550 3584 
Q 5097 3584 5394 3201 
Q 5691 2819 5691 2113 
L 5691 0 
L 5113 0 
L 5113 2094 
Q 5113 2597 4934 2840 
Q 4756 3084 4391 3084 
Q 3944 3084 3684 2787 
Q 3425 2491 3425 1978 
L 3425 0 
L 2847 0 
L 2847 2094 
Q 2847 2600 2669 2842 
Q 2491 3084 2119 3084 
Q 1678 3084 1418 2786 
Q 1159 2488 1159 1978 
L 1159 0 
L 581 0 
L 581 3500 
L 1159 3500 
L 1159 2956 
Q 1356 3278 1631 3431 
Q 1906 3584 2284 3584 
Q 2666 3584 2933 3390 
Q 3200 3197 3328 2828 
z
" transform="scale(0.015625)"/>
       <path id="DejaVuSans-65" d="M 3597 1894 
L 3597 1613 
L 953 1613 
Q 991 1019 1311 708 
Q 1631 397 2203 397 
Q 2534 397 2845 478 
Q 3156 559 3463 722 
L 3463 178 
Q 3153 47 2828 -22 
Q 2503 -91 2169 -91 
Q 1331 -91 842 396 
Q 353 884 353 1716 
Q 353 2575 817 3079 
Q 1281 3584 2069 3584 
Q 2775 3584 3186 3129 
Q 3597 2675 3597 1894 
z
M 3022 2063 
Q 3016 2534 2758 2815 
Q 2500 3097 2075 3097 
Q 1594 3097 1305 2825 
Q 1016 2553 972 2059 
L 3022 2063 
z
" transform="scale(0.015625)"/>
       <path id="DejaVuSans-20" transform="scale(0.015625)"/>
       <path id="DejaVuSans-5b" d="M 550 4863 
L 1875 4863 
L 1875 4416 
L 1125 4416 
L 1125 -397 
L 1875 -397 
L 1875 -844 
L 550 -844 
L 550 4863 
z
" transform="scale(0.015625)"/>
       <path id="DejaVuSans-Oblique-73" d="M 3200 3397 
L 3091 2853 
Q 2863 2978 2609 3040 
Q 2356 3103 2088 3103 
Q 1634 3103 1373 2948 
Q 1113 2794 1113 2528 
Q 1113 2219 1719 2053 
Q 1766 2041 1788 2034 
L 1972 1978 
Q 2547 1819 2739 1644 
Q 2931 1469 2931 1166 
Q 2931 609 2489 259 
Q 2047 -91 1331 -91 
Q 1053 -91 747 -37 
Q 441 16 72 128 
L 184 722 
Q 500 559 806 475 
Q 1113 391 1394 391 
Q 1816 391 2080 572 
Q 2344 753 2344 1031 
Q 2344 1331 1650 1516 
L 1591 1531 
L 1394 1581 
Q 956 1697 753 1886 
Q 550 2075 550 2369 
Q 550 2928 970 3256 
Q 1391 3584 2113 3584 
Q 2397 3584 2667 3537 
Q 2938 3491 3200 3397 
z
" transform="scale(0.015625)"/>
       <path id="DejaVuSans-5d" d="M 1947 4863 
L 1947 -844 
L 622 -844 
L 622 -397 
L 1369 -397 
L 1369 4416 
L 622 4416 
L 622 4863 
L 1947 4863 
z
" transform="scale(0.015625)"/>
      </defs>
      <use xlink:href="#DejaVuSans-54" transform="translate(0 0.015625)"/>
      <use xlink:href="#DejaVuSans-69" transform="translate(61.083984 0.015625)"/>
      <use xlink:href="#DejaVuSans-6d" transform="translate(88.867188 0.015625)"/>
      <use xlink:href="#DejaVuSans-65" transform="translate(186.279297 0.015625)"/>
      <use xlink:href="#DejaVuSans-20" transform="translate(247.802734 0.015625)"/>
      <use xlink:href="#DejaVuSans-5b" transform="translate(279.589844 0.015625)"/>
      <use xlink:href="#DejaVuSans-Oblique-73" transform="translate(318.603516 0.015625)"/>
      <use xlink:href="#DejaVuSans-5d" transform="translate(370.703125 0.015625)"/>
     </g>
    </g>
   </g>
   <g id="matplotlib.axis_2">
    <g id="ytick_1">
     <g id="line2d_7">
      <defs>
       <path id="md3d341fd20" d="M 0 0 
L -3.5 0 
" style="stroke: #000000; stroke-width: 0.8"/>
      </defs>
      <g>
       <use xlink:href="#md3d341fd20" x="57.6" y="304.092297" style="stroke: #000000; stroke-width: 0.8"/>
      </g>
     </g>
     <g id="text_8">
      <!-- −1000 -->
      <g transform="translate(16.770313 307.891515) scale(0.1 -0.1)">
       <defs>
        <path id="DejaVuSans-2212" d="M 678 2272 
L 4684 2272 
L 4684 1741 
L 678 1741 
L 678 2272 
z
" transform="scale(0.015625)"/>
       </defs>
       <use xlink:href="#DejaVuSans-2212"/>
       <use xlink:href="#DejaVuSans-31" x="83.789062"/>
       <use xlink:href="#DejaVuSans-30" x="147.412109"/>
       <use xlink:href="#DejaVuSans-30" x="211.035156"/>
       <use xlink:href="#DejaVuSans-30" x="274.658203"/>
      </g>
     </g>
    </g>
    <g id="ytick_2">
     <g id="line2d_8">
      <g>
       <use xlink:href="#md3d341fd20" x="57.6" y="253.306577" style="stroke: #000000; stroke-width: 0.8"/>
      </g>
     </g>
     <g id="text_9">
      <!-- −500 -->
      <g transform="translate(23.132812 257.105796) scale(0.1 -0.1)">
       <defs>
        <path id="DejaVuSans-35" d="M 691 4666 
L 3169 4666 
L 3169 4134 
L 1269 4134 
L 1269 2991 
Q 1406 3038 1543 3061 
Q 1681 3084 1819 3084 
Q 2600 3084 3056 2656 
Q 3513 2228 3513 1497 
Q 3513 744 3044 326 
Q 2575 -91 1722 -91 
Q 1428 -91 1123 -41 
Q 819 9 494 109 
L 494 744 
Q 775 591 1075 516 
Q 1375 441 1709 441 
Q 2250 441 2565 725 
Q 2881 1009 2881 1497 
Q 2881 1984 2565 2268 
Q 2250 2553 1709 2553 
Q 1456 2553 1204 2497 
Q 953 2441 691 2322 
L 691 4666 
z
" transform="scale(0.015625)"/>
       </defs>
       <use xlink:href="#DejaVuSans-2212"/>
       <use xlink:href="#DejaVuSans-35" x="83.789062"/>
       <use xlink:href="#DejaVuSans-30" x="147.412109"/>
       <use xlink:href="#DejaVuSans-30" x="211.035156"/>
      </g>
     </g>
    </g>
    <g id="ytick_3">
     <g id="line2d_9">
      <g>
       <use xlink:href="#md3d341fd20" x="57.6" y="202.520858" style="stroke: #000000; stroke-width: 0.8"/>
      </g>
     </g>
     <g id="text_10">
      <!-- 0 -->
      <g transform="translate(44.2375 206.320077) scale(0.1 -0.1)">
       <use xlink:href="#DejaVuSans-30"/>
      </g>
     </g>
    </g>
    <g id="ytick_4">
     <g id="line2d_10">
      <g>
       <use xlink:href="#md3d341fd20" x="57.6" y="151.735139" style="stroke: #000000; stroke-width: 0.8"/>
      </g>
     </g>
     <g id="text_11">
      <!-- 500 -->
      <g transform="translate(31.5125 155.534358) scale(0.1 -0.1)">
       <use xlink:href="#DejaVuSans-35"/>
       <use xlink:href="#DejaVuSans-30" x="63.623047"/>
       <use xlink:href="#DejaVuSans-30" x="127.246094"/>
      </g>
     </g>
    </g>
    <g id="ytick_5">
     <g id="line2d_11">
      <g>
       <use xlink:href="#md3d341fd20" x="57.6" y="100.94942" style="stroke: #000000; stroke-width: 0.8"/>
      </g>
     </g>
     <g id="text_12">
      <!-- 1000 -->
      <g transform="translate(25.15 104.748639) scale(0.1 -0.1)">
       <use xlink:href="#DejaVuSans-31"/>
       <use xlink:href="#DejaVuSans-30" x="63.623047"/>
       <use xlink:href="#DejaVuSans-30" x="127.246094"/>
       <use xlink:href="#DejaVuSans-30" x="190.869141"/>
      </g>
     </g>
    </g>
    <g id="ytick_6">
     <g id="line2d_12">
      <g>
       <use xlink:href="#md3d341fd20" x="57.6" y="50.163701" style="stroke: #000000; stroke-width: 0.8"/>
      </g>
     </g>
     <g id="text_13">
      <!-- 1500 -->
      <g transform="translate(25.15 53.962919) scale(0.1 -0.1)">
       <use xlink:href="#DejaVuSans-31"/>
       <use xlink:href="#DejaVuSans-35" x="63.623047"/>
       <use xlink:href="#DejaVuSans-30" x="127.246094"/>
       <use xlink:href="#DejaVuSans-30" x="190.869141"/>
      </g>
     </g>
    </g>
    <g id="text_14">
     <!-- Voltage [$mV$] -->
     <g transform="translate(10.670313 207.478) rotate(-90) scale(0.1 -0.1)">
      <defs>
       <path id="DejaVuSans-56" d="M 1831 0 
L 50 4666 
L 709 4666 
L 2188 738 
L 3669 4666 
L 4325 4666 
L 2547 0 
L 1831 0 
z
" transform="scale(0.015625)"/>
       <path id="DejaVuSans-6f" d="M 1959 3097 
Q 1497 3097 1228 2736 
Q 959 2375 959 1747 
Q 959 1119 1226 758 
Q 1494 397 1959 397 
Q 2419 397 2687 759 
Q 2956 1122 2956 1747 
Q 2956 2369 2687 2733 
Q 2419 3097 1959 3097 
z
M 1959 3584 
Q 2709 3584 3137 3096 
Q 3566 2609 3566 1747 
Q 3566 888 3137 398 
Q 2709 -91 1959 -91 
Q 1206 -91 779 398 
Q 353 888 353 1747 
Q 353 2609 779 3096 
Q 1206 3584 1959 3584 
z
" transform="scale(0.015625)"/>
       <path id="DejaVuSans-6c" d="M 603 4863 
L 1178 4863 
L 1178 0 
L 603 0 
L 603 4863 
z
" transform="scale(0.015625)"/>
       <path id="DejaVuSans-74" d="M 1172 4494 
L 1172 3500 
L 2356 3500 
L 2356 3053 
L 1172 3053 
L 1172 1153 
Q 1172 725 1289 603 
Q 1406 481 1766 481 
L 2356 481 
L 2356 0 
L 1766 0 
Q 1100 0 847 248 
Q 594 497 594 1153 
L 594 3053 
L 172 3053 
L 172 3500 
L 594 3500 
L 594 4494 
L 1172 4494 
z
" transform="scale(0.015625)"/>
       <path id="DejaVuSans-61" d="M 2194 1759 
Q 1497 1759 1228 1600 
Q 959 1441 959 1056 
Q 959 750 1161 570 
Q 1363 391 1709 391 
Q 2188 391 2477 730 
Q 2766 1069 2766 1631 
L 2766 1759 
L 2194 1759 
z
M 3341 1997 
L 3341 0 
L 2766 0 
L 2766 531 
Q 2569 213 2275 61 
Q 1981 -91 1556 -91 
Q 1019 -91 701 211 
Q 384 513 384 1019 
Q 384 1609 779 1909 
Q 1175 2209 1959 2209 
L 2766 2209 
L 2766 2266 
Q 2766 2663 2505 2880 
Q 2244 3097 1772 3097 
Q 1472 3097 1187 3025 
Q 903 2953 641 2809 
L 641 3341 
Q 956 3463 1253 3523 
Q 1550 3584 1831 3584 
Q 2591 3584 2966 3190 
Q 3341 2797 3341 1997 
z
" transform="scale(0.015625)"/>
       <path id="DejaVuSans-67" d="M 2906 1791 
Q 2906 2416 2648 2759 
Q 2391 3103 1925 3103 
Q 1463 3103 1205 2759 
Q 947 2416 947 1791 
Q 947 1169 1205 825 
Q 1463 481 1925 481 
Q 2391 481 2648 825 
Q 2906 1169 2906 1791 
z
M 3481 434 
Q 3481 -459 3084 -895 
Q 2688 -1331 1869 -1331 
Q 1566 -1331 1297 -1286 
Q 1028 -1241 775 -1147 
L 775 -588 
Q 1028 -725 1275 -790 
Q 1522 -856 1778 -856 
Q 2344 -856 2625 -561 
Q 2906 -266 2906 331 
L 2906 616 
Q 2728 306 2450 153 
Q 2172 0 1784 0 
Q 1141 0 747 490 
Q 353 981 353 1791 
Q 353 2603 747 3093 
Q 1141 3584 1784 3584 
Q 2172 3584 2450 3431 
Q 2728 3278 2906 2969 
L 2906 3500 
L 3481 3500 
L 3481 434 
z
" transform="scale(0.015625)"/>
       <path id="DejaVuSans-Oblique-6d" d="M 5747 2113 
L 5338 0 
L 4763 0 
L 5166 2094 
Q 5191 2228 5203 2325 
Q 5216 2422 5216 2491 
Q 5216 2772 5059 2928 
Q 4903 3084 4622 3084 
Q 4203 3084 3875 2770 
Q 3547 2456 3450 1953 
L 3066 0 
L 2491 0 
L 2900 2094 
Q 2925 2209 2937 2307 
Q 2950 2406 2950 2484 
Q 2950 2769 2794 2926 
Q 2638 3084 2363 3084 
Q 1938 3084 1609 2770 
Q 1281 2456 1184 1953 
L 800 0 
L 225 0 
L 909 3500 
L 1484 3500 
L 1375 2956 
Q 1609 3263 1923 3423 
Q 2238 3584 2597 3584 
Q 2978 3584 3223 3384 
Q 3469 3184 3519 2828 
Q 3781 3197 4126 3390 
Q 4472 3584 4856 3584 
Q 5306 3584 5551 3325 
Q 5797 3066 5797 2591 
Q 5797 2488 5784 2364 
Q 5772 2241 5747 2113 
z
" transform="scale(0.015625)"/>
       <path id="DejaVuSans-Oblique-56" d="M 1319 0 
L 500 4666 
L 1119 4666 
L 1797 653 
L 4063 4666 
L 4750 4666 
L 2053 0 
L 1319 0 
z
" transform="scale(0.015625)"/>
      </defs>
      <use xlink:href="#DejaVuSans-56" transform="translate(0 0.015625)"/>
      <use xlink:href="#DejaVuSans-6f" transform="translate(68.408203 0.015625)"/>
      <use xlink:href="#DejaVuSans-6c" transform="translate(129.589844 0.015625)"/>
      <use xlink:href="#DejaVuSans-74" transform="translate(157.373047 0.015625)"/>
      <use xlink:href="#DejaVuSans-61" transform="translate(196.582031 0.015625)"/>
      <use xlink:href="#DejaVuSans-67" transform="translate(257.861328 0.015625)"/>
      <use xlink:href="#DejaVuSans-65" transform="translate(321.337891 0.015625)"/>
      <use xlink:href="#DejaVuSans-20" transform="translate(382.861328 0.015625)"/>
      <use xlink:href="#DejaVuSans-5b" transform="translate(414.648438 0.015625)"/>
      <use xlink:href="#DejaVuSans-Oblique-6d" transform="translate(453.662109 0.015625)"/>
      <use xlink:href="#DejaVuSans-Oblique-56" transform="translate(551.074219 0.015625)"/>
      <use xlink:href="#DejaVuSans-5d" transform="translate(619.482422 0.015625)"/>
     </g>
    </g>
   </g>
   <g id="line2d_13">
    <path d="M 73.832727 202.543777 
L 73.925499 203.282973 
L 74.157428 209.897559 
L 74.2502 209.360563 
L 74.482129 207.866907 
L 74.80683 204.981003 
L 74.899602 205.357527 
L 75.085145 207.173712 
L 75.131531 207.058006 
L 75.780933 202.542969 
L 75.966476 202.328761 
L 76.105634 202.00118 
L 76.15202 202.015352 
L 76.291177 202.004178 
L 76.523106 201.184645 
L 76.569492 201.280324 
L 76.70865 201.696584 
L 76.755036 201.587475 
L 77.033351 200.298108 
L 77.079737 200.351755 
L 77.218894 200.694194 
L 77.26528 200.651844 
L 77.497209 199.704246 
L 77.589981 199.786448 
L 77.682753 199.561756 
L 78.192997 195.882481 
L 78.517698 191.725728 
L 78.61047 192.536312 
L 78.749627 194.771197 
L 78.796013 194.755844 
L 79.120714 191.585213 
L 79.491801 187.826066 
L 79.630958 188.708245 
L 79.862887 191.875978 
L 80.233974 201.145791 
L 80.605061 212.418899 
L 80.744219 213.710533 
L 80.790604 213.678694 
L 80.976148 213.249387 
L 81.115305 213.470238 
L 81.161691 213.441859 
L 81.440006 212.936754 
L 81.62555 211.342041 
L 81.903865 209.162484 
L 82.135794 208.8145 
L 82.321337 208.786832 
L 82.506881 208.701414 
L 82.646038 208.065378 
L 82.73881 207.645781 
L 82.785196 207.723163 
L 82.877968 209.260473 
L 83.017125 217.165643 
L 83.29544 234.092392 
L 83.388212 227.871967 
L 83.573755 185.635468 
L 83.944842 53.568 
L 83.991228 57.170653 
L 84.269543 82.900553 
L 84.547858 102.573352 
L 84.687016 116.376436 
L 84.826173 176.998362 
L 85.058102 284.080693 
L 85.290032 264.37528 
L 85.336417 265.196979 
L 85.846662 273.112562 
L 85.985819 273.715024 
L 86.032205 273.698459 
L 86.124977 272.803175 
L 86.774379 258.066434 
L 87.562938 235.474423 
L 88.76897 209.624955 
L 89.047285 205.44091 
L 89.093671 205.362075 
L 89.140057 205.410864 
L 89.186443 205.441685 
L 89.279214 204.896386 
L 90.021388 194.982319 
L 90.392475 192.50628 
L 90.763562 189.202515 
L 90.949105 188.340882 
L 91.088262 188.336306 
L 91.22742 187.467883 
L 91.505735 185.825937 
L 91.598507 185.735969 
L 91.78405 184.769708 
L 92.108751 183.107776 
L 92.294295 183.907405 
L 92.34068 183.742154 
L 92.665381 181.525251 
L 92.711767 181.616947 
L 92.804539 182.540151 
L 93.222011 189.445204 
L 94.010571 201.720111 
L 94.381658 206.715433 
L 94.474429 207.024155 
L 94.520815 206.861919 
L 94.659973 206.177867 
L 94.706359 206.29392 
L 94.845516 207.106957 
L 94.891902 207.082852 
L 95.262989 204.547465 
L 95.866005 199.210429 
L 96.14432 195.766624 
L 96.190706 195.798715 
L 96.329863 197.438472 
L 96.469021 198.617804 
L 96.561792 198.065515 
L 96.979265 194.814699 
L 97.489509 192.095526 
L 97.628667 193.022832 
L 97.81421 194.071505 
L 97.860596 194.05276 
L 98.04614 193.565469 
L 98.092525 193.673562 
L 98.138911 193.792491 
L 98.185297 193.772222 
L 98.324455 192.565008 
L 98.417226 192.062868 
L 98.509998 192.986022 
L 98.695541 194.676964 
L 98.834699 194.563976 
L 98.973857 194.817095 
L 99.020242 194.751012 
L 99.298557 193.319078 
L 99.391329 193.522537 
L 99.623258 195.073469 
L 99.901573 196.981983 
L 100.040731 197.301729 
L 100.087117 197.229062 
L 100.27266 196.161043 
L 100.365432 196.380549 
L 100.504589 196.993038 
L 100.550975 196.89545 
L 100.643747 196.589385 
L 100.690133 196.63688 
L 100.82929 197.301855 
L 100.875676 197.279877 
L 101.06122 196.34177 
L 101.107606 196.383569 
L 101.664236 198.544918 
L 101.710622 198.484518 
L 102.035322 197.484572 
L 102.452795 197.825889 
L 102.545567 197.959833 
L 102.591953 197.90666 
L 102.73111 197.768749 
L 102.870268 198.008733 
L 102.916654 197.968369 
L 103.102197 197.169487 
L 103.194969 196.926336 
L 103.28774 197.722929 
L 103.51967 200.295264 
L 103.658827 200.121946 
L 103.705213 200.179077 
L 103.890756 200.27508 
L 103.983528 200.1701 
L 104.169071 199.087537 
L 104.215457 199.199814 
L 104.540158 200.964136 
L 104.63293 200.904965 
L 104.772087 200.680739 
L 104.911245 201.103292 
L 104.957631 201.031291 
L 105.143174 199.906234 
L 105.235946 200.070617 
L 105.607033 201.218231 
L 105.699804 200.893507 
L 105.978119 197.964116 
L 106.349206 193.605978 
L 106.581135 195.142985 
L 106.627521 194.972408 
L 106.813065 193.826391 
L 106.859451 193.937962 
L 106.952222 194.075404 
L 107.230537 193.165511 
L 107.276923 193.251549 
L 107.369695 194.058338 
L 107.787168 202.284551 
L 108.158254 213.983899 
L 108.482955 220.881366 
L 108.529341 220.842305 
L 108.900428 219.72427 
L 109.225129 217.645918 
L 109.364286 216.913743 
L 109.457058 217.363681 
L 109.596216 218.10133 
L 109.688987 217.460657 
L 110.10646 213.326291 
L 110.199232 212.909946 
L 110.245617 213.056095 
L 110.523933 214.775217 
L 110.66309 222.02846 
L 110.941405 240.633852 
L 110.987791 240.213891 
L 111.080563 233.676445 
L 111.21972 203.833536 
L 111.590807 61.677325 
L 111.683579 67.276099 
L 111.915508 88.72395 
L 112.101051 100.525153 
L 112.379366 126.438178 
L 112.518524 192.780568 
L 112.750453 287.289423 
L 112.935997 271.27374 
L 112.982382 271.284425 
L 113.492627 279.668785 
L 113.539013 279.52069 
L 113.956485 275.634397 
L 114.2348 268.354458 
L 115.394446 235.404776 
L 115.858305 227.212769 
L 116.368549 215.246159 
L 116.69325 209.805628 
L 117.017951 205.640963 
L 118.03844 195.292094 
L 118.131211 194.958041 
L 118.873385 188.410565 
L 118.919771 188.588453 
L 119.012543 188.874533 
L 119.105314 188.252705 
L 119.430015 185.599692 
L 119.476401 185.451763 
L 119.522787 185.486992 
L 119.661944 186.10247 
L 119.70833 186.05495 
L 120.26496 183.605141 
L 120.450504 183.226228 
L 120.543276 183.881458 
L 121.470992 199.139572 
L 121.842079 203.299383 
L 121.981237 204.987796 
L 122.213166 207.710637 
L 122.305938 207.516027 
L 122.352324 207.575029 
L 122.491481 208.057542 
L 122.537867 207.966403 
L 122.95534 204.98363 
L 123.280041 201.91368 
L 123.465584 201.505192 
L 123.651127 199.814425 
L 124.114986 195.282371 
L 124.439687 194.164528 
L 124.764388 192.597645 
L 124.810773 192.708086 
L 124.949931 193.393884 
L 124.996317 193.369182 
L 125.599333 190.892417 
L 125.831262 190.46669 
L 125.877648 190.532313 
L 126.063191 191.43166 
L 126.202349 191.859025 
L 126.434278 191.309627 
L 126.480664 191.39139 
L 127.08368 193.976365 
L 127.176452 193.745702 
L 127.269223 193.560588 
L 127.315609 193.615338 
L 127.501153 193.981662 
L 127.547538 193.916757 
L 127.825854 193.104996 
L 127.872239 193.21618 
L 128.243326 194.401231 
L 128.42887 194.926865 
L 128.475255 194.878082 
L 128.892728 193.711489 
L 128.939114 193.787723 
L 129.171043 195.656294 
L 129.263815 195.387735 
L 129.402972 194.946144 
L 129.449358 194.99744 
L 129.634902 195.277024 
L 129.727673 195.24651 
L 129.866831 195.480242 
L 129.913217 195.432972 
L 130.052374 195.168497 
L 130.237918 195.646421 
L 130.284303 195.522119 
L 130.423461 195.104256 
L 130.469847 195.12092 
L 130.609004 195.277373 
L 130.65539 195.245341 
L 130.748162 195.305935 
L 130.887319 196.521446 
L 131.026477 197.35098 
L 131.21202 196.852673 
L 131.258406 196.903621 
L 131.304792 196.940208 
L 131.351178 196.878203 
L 131.583107 195.836215 
L 131.675879 195.998649 
L 131.861422 196.875774 
L 132.046966 198.300361 
L 132.093352 198.210296 
L 132.278895 197.432736 
L 132.325281 197.543314 
L 132.510824 198.206558 
L 132.55721 198.133898 
L 132.649982 197.926172 
L 132.696368 197.966843 
L 132.928297 199.403309 
L 132.974683 199.238493 
L 133.067454 198.846149 
L 133.11384 198.863423 
L 133.252998 199.198418 
L 133.299384 199.115375 
L 133.438541 198.83388 
L 133.624084 199.289099 
L 133.716856 199.145132 
L 133.856014 198.825897 
L 133.948785 199.188828 
L 134.273486 201.345566 
L 134.412644 201.508825 
L 134.45903 201.379181 
L 134.644573 200.020178 
L 134.690959 200.027113 
L 134.876502 201.67304 
L 134.969274 200.997085 
L 135.340361 195.239766 
L 135.479518 194.752112 
L 135.618676 195.454299 
L 135.804219 196.238232 
L 135.850605 196.188427 
L 135.989763 195.037832 
L 136.221692 192.80162 
L 136.453621 193.722524 
L 136.68555 196.871906 
L 136.91748 202.28221 
L 137.47411 218.161523 
L 137.659653 219.619321 
L 137.798811 219.313454 
L 137.984354 220.069694 
L 138.03074 219.961416 
L 138.865685 215.263924 
L 139.051229 214.850164 
L 139.283158 213.458181 
L 139.515087 212.020863 
L 139.607859 213.157317 
L 139.747016 219.695281 
L 140.071717 241.578963 
L 140.118103 240.600637 
L 140.210875 231.59925 
L 140.396418 180.596106 
L 140.721119 60.77204 
L 140.767505 62.839596 
L 141.092206 90.903906 
L 141.463293 121.449505 
L 141.556064 147.184752 
L 141.834379 285.467404 
L 141.880765 282.978729 
L 142.066309 267.944283 
L 142.344624 272.000409 
L 142.715711 280.08169 
L 142.762096 279.928893 
L 142.94764 276.304161 
L 144.014514 248.956613 
L 145.081389 221.377376 
L 145.591633 212.295374 
L 146.658508 198.598576 
L 147.400681 191.653151 
L 147.539839 191.32337 
L 147.771768 189.254547 
L 148.096469 186.591397 
L 148.513941 184.901186 
L 148.745871 184.823263 
L 148.9778 182.914853 
L 149.024186 182.962278 
L 149.070572 183.006742 
L 149.116957 182.940214 
L 149.395273 181.369802 
L 149.441658 181.460887 
L 149.580816 183.371284 
L 149.766359 185.206109 
L 149.859131 185.530232 
L 149.998289 187.720147 
L 150.64769 199.317013 
L 151.389864 207.561789 
L 151.482636 207.610617 
L 151.714565 207.284598 
L 152.085652 204.513861 
L 152.410353 202.896887 
L 152.642282 201.880408 
L 153.013369 196.605865 
L 153.059755 196.627629 
L 153.245298 197.44087 
L 153.291684 197.262432 
L 153.662771 193.631352 
L 153.709156 193.750547 
L 153.8947 194.964561 
L 153.941086 194.759286 
L 154.404944 191.237713 
L 154.544102 191.08046 
L 154.683259 191.670883 
L 154.822417 192.100636 
L 155.054346 191.963445 
L 155.193503 192.098402 
L 155.379047 192.23009 
L 155.56459 192.279205 
L 155.750134 191.882233 
L 155.982063 192.664677 
L 156.028449 192.517541 
L 156.167606 192.119989 
L 156.213992 192.193639 
L 156.445921 193.409859 
L 156.538693 193.282916 
L 156.585079 193.264749 
L 156.677851 193.656479 
L 156.90978 195.187904 
L 156.956166 195.174332 
L 157.188095 194.606586 
L 157.234481 194.62384 
L 157.327252 194.47835 
L 157.559182 193.289585 
L 157.605568 193.354784 
L 157.744725 194.239658 
L 157.976654 196.735518 
L 158.02304 196.575458 
L 158.162198 196.065467 
L 158.208584 196.133276 
L 158.254969 196.157098 
L 158.486899 195.413963 
L 158.57967 195.622371 
L 158.8116 196.185224 
L 158.857985 196.166363 
L 159.275458 195.251067 
L 159.36823 195.642581 
L 159.507387 196.442221 
L 159.553773 196.401527 
L 159.739317 195.983614 
L 159.785702 196.022949 
L 160.017632 196.788603 
L 160.064017 196.67401 
L 160.203175 196.440621 
L 160.48149 196.886305 
L 160.898963 197.600011 
L 160.991734 197.553752 
L 161.177278 197.142741 
L 161.223664 197.23009 
L 161.59475 198.747062 
L 161.733908 198.721599 
L 161.919451 198.342424 
L 162.012223 198.981559 
L 162.244152 201.004913 
L 162.429696 200.772078 
L 162.476082 200.846757 
L 162.708011 201.921824 
L 162.800782 202.103481 
L 162.93994 201.193736 
L 163.079098 200.516778 
L 163.403798 201.473122 
L 163.589342 202.889446 
L 163.635728 202.836888 
L 163.728499 202.654597 
L 163.774885 202.691524 
L 164.192358 203.359157 
L 164.28513 203.232768 
L 164.470673 201.942241 
L 165.073689 196.356462 
L 165.352004 198.709601 
L 165.444776 198.206779 
L 166.001406 192.945756 
L 166.047792 193.069397 
L 166.140563 194.666701 
L 167.021895 218.888777 
L 167.30021 221.527513 
L 167.346595 221.455641 
L 167.764068 220.022762 
L 168.274312 216.735815 
L 168.367084 216.809939 
L 168.552628 217.124455 
L 168.691785 216.587091 
L 169.155644 212.96988 
L 169.202029 213.616499 
L 169.341187 220.431183 
L 169.619502 241.036301 
L 169.665888 240.974578 
L 169.75866 233.979915 
L 169.944203 188.212647 
L 170.31529 63.111081 
L 170.361676 67.847304 
L 170.593605 89.671055 
L 170.779148 102.229836 
L 171.057463 129.2129 
L 171.196621 201.525497 
L 171.382164 293.832733 
L 171.42855 292.443513 
L 171.660479 272.647939 
L 171.753251 272.195511 
L 171.846023 271.352917 
L 171.892409 271.690925 
L 172.170724 277.957624 
L 172.217109 277.798229 
L 172.449039 275.82033 
L 172.727354 271.104498 
L 174.721945 219.940064 
L 175.00026 215.228289 
L 175.324961 210.049187 
L 175.510505 207.1729 
L 175.835206 201.791904 
L 176.113521 199.74504 
L 176.206292 199.220492 
L 176.670151 193.573111 
L 176.716537 193.586952 
L 176.809308 193.629732 
L 176.90208 193.167549 
L 177.226781 190.938563 
L 177.365939 190.793581 
L 177.505096 189.797614 
L 177.922569 185.651639 
L 178.108112 185.479617 
L 178.293655 185.159937 
L 178.618356 184.094879 
L 178.664742 184.133407 
L 178.850286 184.293756 
L 178.989443 184.256847 
L 179.267758 184.777463 
L 179.406916 186.681196 
L 180.566562 206.086892 
L 180.752105 207.301498 
L 180.844877 207.474729 
L 181.215964 209.466012 
L 181.26235 209.367206 
L 181.81898 204.903505 
L 182.421996 198.518098 
L 182.839468 193.964337 
L 182.93224 194.304186 
L 183.071398 195.301658 
L 183.117784 195.295965 
L 183.256941 193.970138 
L 183.442485 192.817129 
L 183.535256 192.471272 
L 183.7208 191.383276 
L 183.906343 192.229925 
L 183.952729 192.092239 
L 184.323816 189.843905 
L 184.370201 189.948076 
L 184.602131 190.510649 
L 184.741288 190.596574 
L 184.880446 190.774769 
L 185.019603 189.989121 
L 185.112375 189.707938 
L 185.205147 190.381317 
L 185.39069 192.019903 
L 185.437076 191.983955 
L 185.669005 191.510884 
L 185.900934 191.430381 
L 186.086478 192.07557 
L 186.318407 192.577359 
L 186.457565 192.792735 
L 186.596722 192.925931 
L 186.73588 192.929427 
L 187.060581 193.837052 
L 187.199738 194.140131 
L 187.246124 194.10384 
L 187.385282 193.655655 
L 187.617211 192.433373 
L 187.663597 192.628964 
L 187.988298 195.163128 
L 188.034683 195.032075 
L 188.220227 194.51777 
L 188.312998 194.800229 
L 188.452156 195.444658 
L 188.498542 195.310321 
L 188.684085 193.773006 
L 188.730471 193.897442 
L 188.9624 195.366251 
L 189.008786 195.32234 
L 189.101558 195.543985 
L 189.333487 196.871485 
L 189.379873 196.819985 
L 189.658188 195.094348 
L 189.704574 195.220239 
L 189.890117 195.861219 
L 190.029275 195.614234 
L 190.075661 195.647138 
L 190.539519 196.365242 
L 190.632291 196.307364 
L 190.678677 196.229483 
L 190.725063 196.281095 
L 190.956992 197.89309 
L 191.049763 197.628135 
L 191.281693 196.464316 
L 191.42085 196.553654 
L 191.560008 197.289541 
L 191.699165 198.023022 
L 191.745551 197.924332 
L 191.838323 197.651015 
L 191.884709 197.767648 
L 192.023866 199.948918 
L 192.163024 201.973386 
L 192.20941 201.838908 
L 192.441339 200.536029 
L 192.534111 200.431138 
L 192.719654 199.804705 
L 192.76604 199.831673 
L 192.905197 200.085127 
L 192.951583 200.011192 
L 193.137127 198.870461 
L 193.369056 196.872848 
L 193.600985 194.055502 
L 193.647371 194.203149 
L 193.832914 195.20321 
L 193.8793 195.126311 
L 194.064844 194.128259 
L 194.43593 190.97428 
L 194.482316 191.051576 
L 194.575088 191.664673 
L 194.760631 195.64874 
L 195.688348 217.707317 
L 195.734734 217.567236 
L 195.78112 217.412853 
L 195.827506 217.431643 
L 196.105821 219.022012 
L 196.198593 218.896994 
L 196.430522 218.300114 
L 196.987152 215.240226 
L 197.172695 214.66911 
L 197.68294 212.262372 
L 197.729325 212.411525 
L 197.822097 214.324669 
L 198.007641 226.570173 
L 198.193184 237.493852 
L 198.23957 237.300269 
L 198.332342 231.457447 
L 198.471499 205.229306 
L 198.888972 62.916731 
L 198.981743 72.973303 
L 199.213673 91.366708 
L 199.538374 116.65465 
L 199.631145 127.897179 
L 199.770303 195.731127 
L 200.002232 295.488 
L 200.280547 271.172937 
L 200.419705 269.83177 
L 200.46609 270.183757 
L 200.69802 275.749592 
L 200.744406 275.491351 
L 200.976335 273.940957 
L 201.161878 273.362935 
L 201.301036 270.56141 
L 202.043209 250.338288 
L 202.831769 229.311249 
L 203.342013 218.820162 
L 203.666714 213.789388 
L 203.805871 212.609408 
L 204.501659 203.043131 
L 204.687203 200.789976 
L 205.058289 196.181103 
L 205.986006 189.216001 
L 206.310707 186.402067 
L 206.449865 187.41637 
L 206.681794 188.517499 
L 206.72818 188.52403 
L 206.820952 188.161428 
L 207.192038 185.750605 
L 207.238424 185.81161 
L 207.331196 185.843724 
L 207.470353 185.65067 
L 207.655897 186.303206 
L 207.795054 187.050337 
L 208.026984 190.647634 
L 209.233016 210.178227 
L 209.325787 210.185801 
L 209.511331 210.890876 
L 209.557717 210.838952 
L 209.650488 210.67525 
L 209.696874 210.715976 
L 209.836032 210.92716 
L 209.928803 210.492825 
L 211.273993 197.71464 
L 211.969781 192.540723 
L 212.062552 192.466361 
L 212.248096 191.309263 
L 212.433639 190.697953 
L 212.572797 190.805601 
L 212.619182 190.725505 
L 212.804726 189.986789 
L 212.851112 190.0382 
L 213.083041 191.024733 
L 213.129427 190.895976 
L 213.407742 189.875948 
L 213.546899 190.281965 
L 213.686057 190.736607 
L 213.732443 190.716914 
L 213.964372 190.126471 
L 214.010758 190.183632 
L 214.242687 190.469321 
L 214.335459 190.535293 
L 214.474616 191.303257 
L 214.66016 192.059713 
L 215.170404 191.696179 
L 215.21679 191.84106 
L 215.634263 193.951789 
L 215.727034 193.945822 
L 215.912578 193.265046 
L 216.005349 193.409257 
L 216.190893 193.714754 
L 216.469208 193.744435 
L 216.515594 193.730382 
L 216.747523 194.504241 
L 216.840295 194.374492 
L 217.257767 193.487742 
L 217.396925 193.828085 
L 217.721626 195.211593 
L 217.768012 195.133341 
L 217.999941 193.738328 
L 218.046327 193.835945 
L 218.510185 196.519608 
L 218.602957 196.316524 
L 218.742114 195.865452 
L 218.881272 196.656756 
L 218.974044 196.968599 
L 219.020429 196.866581 
L 219.113201 196.604415 
L 219.159587 196.624136 
L 219.484288 197.504673 
L 219.530674 197.440077 
L 219.716217 197.187263 
L 219.808989 197.349499 
L 220.087304 198.369961 
L 220.13369 198.272247 
L 220.226461 198.163729 
L 220.365619 199.017083 
L 220.504777 199.543617 
L 220.643934 199.199369 
L 220.875863 198.769694 
L 221.015021 198.810545 
L 221.24695 199.218232 
L 221.339722 199.486735 
L 221.618037 201.866913 
L 221.757194 201.626453 
L 221.989124 200.72759 
L 222.035509 200.880173 
L 222.267439 202.281295 
L 222.313825 202.184591 
L 222.545754 201.258785 
L 222.916841 198.047439 
L 223.102384 197.146793 
L 223.241542 196.731054 
L 223.287927 196.771132 
L 223.519857 198.1765 
L 223.566242 198.021326 
L 223.798172 195.188157 
L 224.030101 193.603822 
L 224.26203 194.219377 
L 224.354802 195.286282 
L 224.865046 208.325764 
L 225.236133 219.094004 
L 225.468062 220.618369 
L 225.653606 221.12883 
L 225.746377 220.861819 
L 226.303007 217.530449 
L 226.395779 217.530718 
L 226.534937 217.692816 
L 226.627708 217.291453 
L 226.813252 216.09122 
L 226.859638 216.178925 
L 226.998795 216.590614 
L 227.137953 215.119893 
L 227.27711 214.008279 
L 227.323496 214.171923 
L 227.416268 215.498185 
L 227.555425 221.609488 
L 227.83374 240.924108 
L 227.880126 240.866967 
L 227.972898 234.683084 
L 228.112055 205.087365 
L 228.529528 62.178352 
L 228.575914 66.794505 
L 228.807843 89.05975 
L 228.993387 101.404387 
L 229.318088 139.463819 
L 229.642788 289.212422 
L 229.689174 284.307632 
L 229.828332 271.120775 
L 229.874718 271.166783 
L 230.431348 280.517064 
L 230.477734 280.630706 
L 230.52412 280.557021 
L 230.663277 279.117243 
L 231.173521 268.384431 
L 232.472325 232.618437 
L 232.843412 223.77136 
L 233.260885 215.248087 
L 234.327759 199.999786 
L 234.420531 199.673654 
L 235.255476 190.530652 
L 235.301862 190.633079 
L 235.487405 191.374055 
L 235.533791 191.202257 
L 235.719334 188.633166 
L 236.044035 185.444664 
L 236.275965 183.92353 
L 236.32235 183.942394 
L 236.461508 185.275053 
L 236.55428 186.074983 
L 236.600666 186.043957 
L 236.832595 184.22072 
L 236.925366 184.507008 
L 236.971752 184.577955 
L 237.018138 184.518087 
L 237.296453 184.067382 
L 237.389225 184.280229 
L 237.574768 185.752732 
L 237.992241 192.64298 
L 239.01273 208.702935 
L 239.198273 209.158408 
L 239.383816 208.629439 
L 239.430202 208.742619 
L 239.615746 209.657632 
L 239.662131 209.532509 
L 240.218762 204.690884 
L 240.589848 200.621006 
L 241.332022 194.529423 
L 241.563951 193.618396 
L 241.842266 192.98025 
L 242.074196 191.378064 
L 242.120581 191.568415 
L 242.259739 192.001451 
L 242.398896 191.160577 
L 242.58444 190.295249 
L 242.723597 190.250216 
L 242.862755 189.92299 
L 242.909141 189.94641 
L 243.048298 190.312037 
L 243.094684 190.290193 
L 243.233842 189.922355 
L 243.280228 189.977327 
L 243.558543 191.654736 
L 243.651314 191.43649 
L 243.836858 190.592061 
L 243.883244 190.650319 
L 244.393488 192.250403 
L 244.439874 192.054104 
L 244.579031 191.345415 
L 244.625417 191.411621 
L 244.718189 191.570584 
L 244.857346 190.948396 
L 244.903732 191.111092 
L 245.135661 196.116272 
L 245.228433 195.431904 
L 245.413977 193.958056 
L 245.59952 193.785596 
L 245.692292 193.727629 
L 245.831449 194.689804 
L 245.924221 195.130159 
L 245.970607 194.960572 
L 246.202536 193.715761 
L 246.434465 193.828165 
L 246.527237 193.785611 
L 246.620009 194.190651 
L 246.805552 195.132601 
L 247.083867 194.617596 
L 247.176639 194.767166 
L 247.408568 195.299487 
L 247.454954 195.2839 
L 247.594111 195.056983 
L 247.733269 194.74578 
L 247.826041 195.181158 
L 248.05797 196.278841 
L 248.336285 196.344405 
L 248.475442 196.280274 
L 248.707372 196.915247 
L 248.753758 196.799637 
L 248.846529 196.530192 
L 248.892915 196.591683 
L 249.124844 197.716035 
L 249.17123 197.571486 
L 249.356774 197.230992 
L 249.449545 197.333001 
L 249.635089 197.974954 
L 249.681474 197.929628 
L 249.913404 197.319703 
L 249.95979 197.38983 
L 250.098947 198.16778 
L 250.238105 199.065858 
L 250.284491 198.979555 
L 250.423648 198.547162 
L 250.609191 199.788455 
L 250.701963 199.490491 
L 250.794735 199.324995 
L 251.212207 200.827756 
L 251.258593 200.783678 
L 251.490523 200.145263 
L 251.536908 200.205459 
L 252.279082 202.151775 
L 252.371854 202.245615 
L 252.557397 201.841894 
L 252.603783 201.98796 
L 252.789326 203.175922 
L 252.835712 203.131081 
L 253.253185 201.182045 
L 253.624272 196.58055 
L 253.670657 196.751126 
L 253.948972 198.741937 
L 253.995358 198.717792 
L 254.08813 198.007201 
L 254.412831 194.486223 
L 254.598374 194.790069 
L 254.691146 195.426022 
L 254.969461 200.690785 
L 255.155004 205.75541 
L 255.572477 218.421242 
L 255.804406 221.157846 
L 255.943564 221.681488 
L 256.036336 222.132143 
L 256.082721 222.089621 
L 256.592966 218.95426 
L 256.639352 219.068447 
L 256.732123 219.18338 
L 256.871281 218.280085 
L 257.195982 216.631241 
L 257.706226 214.375169 
L 257.798998 215.484252 
L 257.938155 222.712237 
L 258.21647 241.321511 
L 258.262856 240.867073 
L 258.355628 234.054097 
L 258.494785 204.689817 
L 258.912258 62.01579 
L 258.958644 66.852877 
L 259.190573 88.590694 
L 259.376117 101.210457 
L 259.654432 127.134685 
L 259.793589 193.177192 
L 260.025518 286.258166 
L 260.257448 269.464859 
L 260.535763 273.663088 
L 260.767692 277.503168 
L 260.953235 278.441675 
L 260.999621 278.298795 
L 261.23155 275.134693 
L 261.509866 267.780324 
L 263.179756 221.205931 
L 263.458071 217.807812 
L 263.550843 217.62663 
L 263.643615 216.273377 
L 264.061087 208.061623 
L 264.432174 202.095801 
L 264.571331 200.355518 
L 264.942418 195.181491 
L 265.359891 190.724843 
L 265.823749 187.367492 
L 265.916521 187.503932 
L 266.102064 188.524534 
L 266.14845 188.309759 
L 266.565923 183.97793 
L 266.70508 182.988035 
L 266.890624 181.771343 
L 267.076167 182.013364 
L 267.122553 181.913675 
L 267.261711 181.587028 
L 267.308096 181.658836 
L 267.400868 181.804435 
L 267.447254 181.704022 
L 267.679183 181.130028 
L 267.864727 180.992631 
L 267.957498 181.622955 
L 268.189428 186.225021 
L 268.746058 201.842043 
L 269.117145 207.112483 
L 269.302688 208.606926 
L 269.441845 208.796257 
L 269.812932 210.220549 
L 269.905704 209.818073 
L 270.415948 205.011283 
L 270.694263 200.491612 
L 270.740649 200.795848 
L 270.879807 202.999345 
L 270.926193 202.949232 
L 271.761138 191.722732 
L 271.85391 192.644667 
L 271.993067 194.507438 
L 272.039453 194.378646 
L 272.271382 192.608224 
L 272.317768 192.617776 
L 272.456926 192.961619 
L 272.503311 192.884144 
L 272.688855 191.023563 
L 272.781626 190.61513 
L 272.96717 191.791936 
L 273.013556 191.634439 
L 273.245485 190.032782 
L 273.291871 190.061419 
L 273.431028 190.216531 
L 273.616572 189.777963 
L 273.662958 189.863358 
L 273.848501 190.606404 
L 273.894887 190.592403 
L 274.08043 189.57206 
L 274.265974 189.088206 
L 274.590675 189.946187 
L 274.86899 193.023522 
L 274.961761 192.527167 
L 275.240076 190.310017 
L 275.286462 190.475299 
L 275.750321 195.631846 
L 275.796707 195.145598 
L 275.98225 192.086316 
L 276.028636 192.480895 
L 276.260565 196.493611 
L 276.306951 196.135752 
L 276.585266 193.553812 
L 276.631652 193.560847 
L 276.817195 194.512818 
L 277.002739 195.359438 
L 277.049124 195.286232 
L 277.234668 194.639238 
L 277.281054 194.704459 
L 277.373825 194.871674 
L 277.420211 194.795632 
L 277.605755 193.725784 
L 277.65214 193.833286 
L 277.930456 195.734439 
L 277.976841 195.518452 
L 278.162385 194.349693 
L 278.208771 194.48749 
L 278.579857 196.071063 
L 278.719015 196.317767 
L 278.765401 196.231282 
L 278.858172 195.952332 
L 278.904558 195.997413 
L 279.136488 196.974175 
L 279.182873 196.864603 
L 279.368417 196.469291 
L 279.507574 196.749124 
L 279.739504 197.80253 
L 279.785889 197.69742 
L 279.971433 196.980874 
L 280.064204 197.795805 
L 280.296134 200.779096 
L 280.388905 200.233314 
L 280.574449 199.206226 
L 280.759992 199.656518 
L 280.806378 199.568016 
L 280.852764 199.473195 
L 280.89915 199.522694 
L 281.45578 202.932653 
L 281.502166 202.779077 
L 281.734095 201.134481 
L 281.780481 201.240126 
L 282.197953 203.084338 
L 282.244339 203.033213 
L 282.429883 202.560911 
L 282.476269 202.647179 
L 282.661812 204.178455 
L 282.847355 205.589623 
L 282.893741 205.472867 
L 283.032899 203.978385 
L 283.218442 201.668625 
L 283.264828 201.693528 
L 283.3576 201.972075 
L 283.403986 201.810729 
L 283.589529 198.964206 
L 283.728686 197.584857 
L 283.821458 198.285704 
L 284.053387 201.10229 
L 284.099773 201.092213 
L 284.238931 199.268369 
L 284.563632 195.369491 
L 284.610018 195.203468 
L 284.656403 195.256383 
L 284.795561 196.357648 
L 284.981104 199.306743 
L 285.305805 208.831286 
L 285.630506 218.148009 
L 285.908821 220.976006 
L 286.001593 220.859143 
L 286.047979 220.957901 
L 286.187136 221.785158 
L 286.233522 221.772765 
L 286.419066 220.763722 
L 286.511837 220.798002 
L 286.92931 219.56113 
L 287.207625 218.522979 
L 287.254011 218.675894 
L 287.346783 218.959409 
L 287.393168 218.820265 
L 287.578712 216.513859 
L 287.810641 214.123353 
L 287.903413 215.29847 
L 288.04257 221.782591 
L 288.367271 243.274837 
L 288.413657 242.184463 
L 288.506429 233.129204 
L 288.691972 182.337593 
L 289.016673 62.337661 
L 289.063059 64.475356 
L 289.38776 92.531956 
L 289.758847 123.591096 
L 289.851618 151.240327 
L 290.129933 289.009329 
L 290.176319 286.612061 
L 290.408248 270.49509 
L 290.640178 273.549479 
L 290.872107 278.697174 
L 291.104036 279.511254 
L 291.150422 279.275568 
L 291.28958 276.511542 
L 292.727541 238.217361 
L 292.866698 236.348208 
L 293.655258 214.924399 
L 293.794415 214.073182 
L 293.887187 214.102068 
L 293.979959 213.309285 
L 294.675746 199.924808 
L 294.722132 200.171455 
L 294.814904 200.90891 
L 294.86129 200.815199 
L 295.046833 196.972894 
L 295.510692 190.570803 
L 295.649849 189.478463 
L 295.881778 184.891279 
L 295.928164 185.546263 
L 296.113708 190.095082 
L 296.160094 189.969846 
L 296.299251 185.661977 
L 296.438409 180.67727 
L 296.484794 180.854186 
L 296.76311 189.033827 
L 296.809495 188.484557 
L 296.948653 187.108106 
L 296.995039 187.153153 
L 297.041425 187.197717 
L 297.134196 186.549125 
L 297.366126 184.71639 
L 297.412511 184.706695 
L 297.505283 184.112075 
L 297.690826 182.138403 
L 297.737212 182.332472 
L 297.87637 182.92294 
L 298.015527 182.316181 
L 298.061913 182.441932 
L 298.201071 184.967231 
L 298.943244 201.647713 
L 299.453489 206.599597 
L 299.54626 208.192588 
L 299.77819 217.584391 
L 299.824575 216.866065 
L 300.149276 210.311546 
L 300.381206 209.166664 
L 300.705907 205.64618 
L 300.984222 202.670669 
L 301.911939 191.632251 
L 301.958324 191.698161 
L 302.190254 194.016877 
L 302.23664 193.768909 
L 302.422183 190.127437 
L 302.607726 187.181898 
L 302.654112 187.337846 
L 302.886041 192.002364 
L 302.932427 191.273512 
L 303.071585 189.154319 
L 303.535443 193.305731 
L 303.628215 192.428452 
L 303.999302 186.542163 
L 304.045688 186.697751 
L 304.695089 194.118593 
L 304.741475 194.132142 
L 304.834247 193.568123 
L 305.158948 188.470578 
L 305.298105 185.644068 
L 305.344491 185.992272 
L 305.576421 193.146379 
L 305.622806 192.325075 
L 305.761964 190.202866 
L 305.993893 193.446135 
L 306.040279 193.260771 
L 306.179437 193.004677 
L 306.272208 193.393064 
L 306.411366 196.425191 
L 306.550523 198.41326 
L 306.828838 195.793652 
L 307.060768 192.249056 
L 307.431854 194.040622 
L 307.47824 194.030456 
L 307.617398 192.425292 
L 307.756555 191.481863 
L 307.849327 192.754944 
L 308.03487 195.537921 
L 308.2668 193.542957 
L 308.313186 193.818725 
L 308.545115 198.698932 
L 308.637886 197.726121 
L 308.82343 195.572064 
L 309.008973 196.267276 
L 309.055359 196.133629 
L 309.287288 194.984951 
L 309.426446 193.862247 
L 309.472832 194.00764 
L 309.843918 197.070857 
L 309.890304 196.745177 
L 310.029462 195.801264 
L 310.215005 197.881254 
L 310.446934 202.744732 
L 310.539706 201.474396 
L 310.818021 195.883146 
L 310.957179 200.061409 
L 311.049951 201.642134 
L 311.235494 197.143096 
L 311.328266 198.515096 
L 311.513809 204.387873 
L 311.560195 204.227348 
L 311.83851 199.679713 
L 311.931282 198.133918 
L 311.977667 198.378539 
L 312.255983 203.700494 
L 312.302368 203.265977 
L 312.534298 198.511179 
L 312.580683 198.899282 
L 312.766227 202.568975 
L 312.812613 202.222458 
L 312.95177 199.781564 
L 312.998156 199.85468 
L 313.230085 204.706633 
L 313.276471 204.256749 
L 313.554786 198.570614 
L 313.601172 198.637714 
L 313.693944 198.830545 
L 313.74033 198.72023 
L 313.925873 197.231337 
L 314.29696 190.534453 
L 314.389732 191.020657 
L 314.621661 194.777806 
L 315.039133 204.378176 
L 315.178291 205.496762 
L 315.363834 210.374656 
L 315.734921 226.695253 
L 315.874079 225.266714 
L 316.245165 218.54622 
L 316.291551 218.857039 
L 316.52348 219.944897 
L 316.569866 219.980201 
L 316.616252 219.89583 
L 316.801796 218.871064 
L 317.219268 213.450203 
L 317.265654 213.548775 
L 317.31204 213.660542 
L 317.358426 213.571606 
L 317.497583 210.961743 
L 317.590355 209.733173 
L 317.683127 212.337977 
L 318.100599 238.015748 
L 318.146985 236.797563 
L 318.286143 221.906323 
L 318.471686 163.20412 
L 318.750001 62.447301 
L 318.796387 63.746886 
L 319.167474 94.922299 
L 319.538561 131.253877 
L 319.677718 207.196134 
L 319.863262 293.442843 
L 319.956033 285.132111 
L 320.141577 270.315389 
L 320.373506 270.722039 
L 320.512663 275.329279 
L 320.698207 279.740515 
L 320.790978 279.105349 
L 320.976522 274.763849 
L 321.486766 263.807971 
L 321.579538 262.586254 
L 323.203043 218.690357 
L 323.574129 214.28348 
L 323.713287 212.813131 
L 324.594618 198.019955 
L 325.012091 194.309656 
L 325.151248 194.337054 
L 325.290406 192.599648 
L 325.615107 188.244888 
L 325.754264 188.583451 
L 325.80065 188.404981 
L 325.986193 185.631854 
L 326.171737 183.313454 
L 326.218123 183.421821 
L 326.35728 186.118073 
L 326.496438 188.287192 
L 326.589209 187.000754 
L 326.774753 183.807559 
L 326.867524 184.966651 
L 327.053068 187.290187 
L 327.238611 184.92562 
L 327.424155 183.807894 
L 327.516926 184.011457 
L 327.841627 185.85553 
L 328.073556 189.517106 
L 328.537415 199.953775 
L 328.676572 202.873366 
L 329.140431 215.824591 
L 329.233203 215.420697 
L 329.882605 210.877109 
L 329.975376 211.0886 
L 330.068148 211.330075 
L 330.16092 210.577459 
L 330.439235 206.170351 
L 330.485621 206.293363 
L 330.532006 206.325359 
L 330.624778 205.470873 
L 330.995865 200.59146 
L 331.784424 192.292543 
L 331.877196 192.673982 
L 331.969968 193.168554 
L 332.016354 192.995788 
L 332.294669 191.494104 
L 332.480212 190.270419 
L 332.851299 187.997717 
L 332.897685 188.03562 
L 333.083228 188.903726 
L 333.129614 188.819267 
L 333.222386 188.570223 
L 333.268771 188.710426 
L 333.547086 190.015112 
L 333.73263 190.585146 
L 333.825402 189.965866 
L 334.057331 188.294603 
L 334.150102 188.337022 
L 334.196488 188.273309 
L 334.242874 188.191769 
L 334.28926 188.223405 
L 334.382032 189.388064 
L 334.567575 194.123451 
L 334.613961 193.732514 
L 334.799504 189.986937 
L 334.84589 190.082062 
L 335.170591 192.873245 
L 335.216977 192.80022 
L 335.309749 192.598414 
L 335.356135 192.7226 
L 335.63445 193.98538 
L 335.773607 193.682388 
L 336.005536 192.162613 
L 336.098308 192.412736 
L 336.237466 192.861937 
L 336.283851 192.799786 
L 336.376623 192.676855 
L 336.562167 193.119344 
L 336.608552 192.908899 
L 336.794096 191.599574 
L 336.840482 191.792255 
L 337.118797 193.347106 
L 337.257954 194.259534 
L 337.397112 195.034025 
L 337.536269 194.404184 
L 337.582655 194.515061 
L 337.721813 195.675347 
L 337.768199 195.661905 
L 337.953742 194.670044 
L 338.139285 195.514566 
L 338.185671 195.465212 
L 338.4176 194.383914 
L 338.463986 194.548056 
L 338.64953 195.200235 
L 338.695916 195.204792 
L 338.788687 195.965282 
L 338.927845 197.555159 
L 339.020616 196.131184 
L 339.252546 192.494824 
L 339.345317 192.682626 
L 339.438089 193.489834 
L 339.623632 196.211589 
L 339.670018 196.095839 
L 339.855562 194.969553 
L 339.901948 194.983088 
L 339.948333 194.89046 
L 340.180263 193.010234 
L 340.273034 193.24674 
L 340.365806 192.402026 
L 340.736893 187.770407 
L 340.829664 187.483387 
L 340.87605 187.655768 
L 341.061594 190.704564 
L 341.339909 196.945797 
L 341.757381 210.015231 
L 341.989311 213.711394 
L 342.128468 213.486637 
L 342.267626 214.474147 
L 342.360397 215.000629 
L 342.406783 214.978889 
L 342.545941 213.836445 
L 342.824256 211.520389 
L 342.917028 211.725155 
L 343.241729 213.230599 
L 343.3345 214.091846 
L 343.380886 213.89725 
L 343.659201 210.33331 
L 343.705587 210.438837 
L 343.844745 210.967165 
L 343.89113 210.83203 
L 344.030288 210.067565 
L 344.076674 210.116388 
L 344.169446 211.684296 
L 344.354989 222.774951 
L 344.540532 232.761002 
L 344.586918 232.523901 
L 344.67969 226.738267 
L 344.818847 200.508831 
L 345.23632 61.490635 
L 345.329092 71.533585 
L 345.561021 90.092021 
L 345.839336 111.920836 
L 345.978494 127.759798 
L 346.117651 200.316615 
L 346.303194 294.96268 
L 346.34958 294.913692 
L 346.627895 275.653319 
L 346.813439 272.792113 
L 346.859825 273.224182 
L 347.091754 277.187358 
L 347.230911 275.886557 
L 347.509227 270.767417 
L 348.622487 243.817689 
L 349.503818 219.711973 
L 349.59659 218.569132 
L 349.642975 218.832577 
L 349.828519 222.467232 
L 349.874905 222.09957 
L 350.663464 204.937598 
L 351.962268 192.888116 
L 352.426126 190.497035 
L 352.565284 190.118793 
L 353.029142 188.371408 
L 353.307457 188.322259 
L 353.585773 186.468989 
L 353.632158 186.619348 
L 353.771316 187.800365 
L 353.956859 192.373664 
L 354.142403 194.989105 
L 354.188789 195.047265 
L 354.28156 195.898418 
L 354.930962 209.166473 
L 355.209277 214.570543 
L 355.394821 215.76704 
L 355.533978 215.660862 
L 355.719521 216.517144 
L 355.905065 216.845121 
L 356.044222 217.155097 
L 356.090608 217.092633 
L 356.229766 215.6615 
L 356.74001 208.925014 
L 356.786396 208.811816 
L 356.832782 208.951641 
L 356.879168 209.131711 
L 356.925554 209.09706 
L 357.064711 207.036579 
L 357.389412 202.074249 
L 357.574955 200.449883 
L 357.946042 196.222038 
L 358.409901 193.305338 
L 358.456286 193.343901 
L 358.595444 193.693237 
L 358.64183 193.594185 
L 358.780987 192.402566 
L 359.059302 190.278425 
L 359.19846 189.836597 
L 359.244846 189.858177 
L 359.430389 190.330071 
L 359.476775 190.230468 
L 359.708704 189.195565 
L 359.75509 189.219728 
L 359.847862 189.205574 
L 360.033405 188.498693 
L 360.079791 188.641837 
L 360.31172 190.440887 
L 360.358106 190.384811 
L 360.590035 189.170342 
L 360.636421 189.300219 
L 360.961122 192.333559 
L 361.053894 192.267448 
L 361.285823 192.144904 
L 361.424981 191.994862 
L 361.564138 192.159819 
L 361.610524 192.117719 
L 361.703296 191.979696 
L 361.749682 192.064685 
L 361.981611 193.25295 
L 362.027997 193.199879 
L 362.21354 193.077227 
L 362.306312 192.856232 
L 362.491855 192.431306 
L 363.094871 192.911457 
L 363.280415 192.372707 
L 363.3268 192.519119 
L 363.605116 194.652148 
L 363.651501 194.551765 
L 364.300903 193.006996 
L 364.393675 193.78374 
L 364.579218 195.990521 
L 364.625604 195.747808 
L 364.811148 194.421095 
L 364.857533 194.45062 
L 365.089463 195.113152 
L 365.367778 196.268466 
L 365.553321 196.50171 
L 365.924408 195.982506 
L 365.970794 196.041526 
L 366.759353 198.668973 
L 366.898511 198.916362 
L 366.944897 198.875703 
L 367.084054 198.747988 
L 367.176826 198.942653 
L 367.315983 199.504411 
L 367.362369 199.391264 
L 367.501527 197.464167 
L 367.779842 194.328085 
L 368.011771 192.902034 
L 368.058157 193.07479 
L 368.2437 195.689108 
L 368.336472 195.190829 
L 368.753945 190.301605 
L 368.80033 190.208836 
L 368.939488 191.816908 
L 369.449732 199.787629 
L 369.635276 205.197112 
L 370.006362 215.679537 
L 370.191906 217.754623 
L 370.423835 216.590888 
L 370.470221 216.845384 
L 370.655764 218.736654 
L 370.70215 218.699256 
L 370.887694 218.253415 
L 370.980465 218.012922 
L 371.351552 215.206067 
L 371.397938 215.255288 
L 371.537095 215.603395 
L 371.629867 214.963899 
L 371.861796 213.383248 
L 372.04734 212.164081 
L 372.140111 211.501413 
L 372.186497 211.51818 
L 372.279269 213.260619 
L 372.464812 225.704512 
L 372.696742 239.072682 
L 372.789513 233.626571 
L 372.928671 206.239827 
L 373.346143 60.566595 
L 373.438915 70.100884 
L 373.670844 89.069944 
L 373.949159 111.028987 
L 374.134703 131.478212 
L 374.27386 205.836995 
L 374.459404 288.289843 
L 374.552176 279.465912 
L 374.691333 270.069154 
L 375.340735 280.278189 
L 375.433507 279.610182 
L 375.804593 273.797714 
L 376.361224 257.862917 
L 377.381712 228.950747 
L 377.984728 217.788773 
L 378.494973 208.359928 
L 378.63413 206.723846 
L 379.051603 200.995643 
L 379.654619 193.589801 
L 380.211249 188.685515 
L 380.304021 188.897564 
L 380.350406 188.975702 
L 380.396792 188.871562 
L 380.582336 186.699123 
L 380.767879 185.61284 
L 380.907037 185.222688 
L 381.278123 183.247519 
L 381.463667 182.87009 
L 381.556438 182.729325 
L 381.741982 182.319364 
L 381.973911 182.587705 
L 382.20584 183.922744 
L 382.391384 186.183573 
L 383.829345 211.92965 
L 383.968503 212.311571 
L 384.10766 212.103576 
L 384.246818 211.259771 
L 384.525133 209.190972 
L 384.988991 206.692584 
L 385.499235 201.667473 
L 385.777551 199.267529 
L 386.055866 196.37771 
L 386.334181 194.800748 
L 386.658882 192.587189 
L 386.937197 191.445011 
L 387.12274 190.473214 
L 387.215512 190.446268 
L 387.401055 190.622798 
L 387.540213 189.931589 
L 387.725756 189.237799 
L 387.818528 189.675391 
L 388.004071 190.776385 
L 388.050457 190.705102 
L 388.236 190.389494 
L 388.560701 190.623135 
L 388.699859 190.411899 
L 389.070946 189.294022 
L 389.117332 189.486908 
L 389.256489 192.492006 
L 389.395647 195.254045 
L 389.442032 194.964627 
L 389.58119 193.494825 
L 389.627576 193.591357 
L 389.766733 194.577868 
L 389.813119 194.565815 
L 390.184206 193.023058 
L 390.276978 193.268696 
L 390.508907 195.076337 
L 390.601679 194.933326 
L 390.972765 193.999596 
L 391.019151 194.039761 
L 391.204695 194.895781 
L 391.251081 194.821892 
L 391.390238 194.407905 
L 391.436624 194.444561 
L 391.622167 195.211997 
L 391.761325 195.717677 
L 391.807711 195.680905 
L 391.993254 195.163226 
L 392.03964 195.220728 
L 392.225183 195.618307 
L 392.457113 195.267721 
L 392.503498 195.376415 
L 392.781814 197.090915 
L 392.874585 196.888317 
L 393.060129 196.737769 
L 393.245672 197.004035 
L 393.292058 196.863329 
L 393.431215 196.328684 
L 393.477601 196.413377 
L 393.755916 197.420695 
L 393.802302 197.290457 
L 393.94146 196.727587 
L 394.080617 198.406498 
L 394.219775 199.184183 
L 394.266161 199.225988 
L 394.451704 200.111987 
L 394.49809 199.853252 
L 394.683633 198.343969 
L 394.730019 198.391996 
L 395.193878 200.285237 
L 395.240263 200.174143 
L 395.379421 199.852511 
L 395.61135 200.549977 
L 395.657736 200.436289 
L 395.796894 200.069745 
L 395.843279 200.114745 
L 396.028823 200.807741 
L 396.075209 200.750552 
L 396.39991 198.188029 
L 396.724611 193.480122 
L 396.817382 193.885153 
L 397.049311 196.331687 
L 397.095697 196.203212 
L 397.51317 193.062899 
L 397.652327 192.5879 
L 397.745099 192.933993 
L 397.884257 194.592547 
L 398.255343 203.349415 
L 398.487273 210.795201 
L 398.487273 210.795201 
" clip-path="url(#p05968af0a3)" style="fill: none; stroke: #008000; stroke-width: 1.5; stroke-linecap: square"/>
   </g>
   <g id="patch_3">
    <path d="M 57.6 307.584 
L 57.6 41.472 
" style="fill: none; stroke: #000000; stroke-width: 0.8; stroke-linejoin: miter; stroke-linecap: square"/>
   </g>
   <g id="patch_4">
    <path d="M 414.72 307.584 
L 414.72 41.472 
" style="fill: none; stroke: #000000; stroke-width: 0.8; stroke-linejoin: miter; stroke-linecap: square"/>
   </g>
   <g id="patch_5">
    <path d="M 57.6 307.584 
L 414.72 307.584 
" style="fill: none; stroke: #000000; stroke-width: 0.8; stroke-linejoin: miter; stroke-linecap: square"/>
   </g>
   <g id="patch_6">
    <path d="M 57.6 41.472 
L 414.72 41.472 
" style="fill: none; stroke: #000000; stroke-width: 0.8; stroke-linejoin: miter; stroke-linecap: square"/>
   </g>
  </g>
 </g>
 <defs>
  <clipPath id="p05968af0a3">
   <rect x="57.6" y="41.472" width="357.12" height="266.112"/>
  </clipPath>
 </defs>
</svg>
