<?xml version="1.0" encoding="utf-8" standalone="no"?>
<!DOCTYPE svg PUBLIC "-//W3C//DTD SVG 1.1//EN"
  "http://www.w3.org/Graphics/SVG/1.1/DTD/svg11.dtd">
<svg xmlns:xlink="http://www.w3.org/1999/xlink" width="460.8pt" height="345.6pt" viewBox="0 0 460.8 345.6" xmlns="http://www.w3.org/2000/svg" version="1.1">
 <metadata>
  <rdf:RDF xmlns:dc="http://purl.org/dc/elements/1.1/" xmlns:cc="http://creativecommons.org/ns#" xmlns:rdf="http://www.w3.org/1999/02/22-rdf-syntax-ns#">
   <cc:Work>
    <dc:type rdf:resource="http://purl.org/dc/dcmitype/StillImage"/>
    <dc:date>2024-06-11T19:49:44.906146</dc:date>
    <dc:format>image/svg+xml</dc:format>
    <dc:creator>
     <cc:Agent>
      <dc:title>Matplotlib v3.8.2, https://matplotlib.org/</dc:title>
     </cc:Agent>
    </dc:creator>
   </cc:Work>
  </rdf:RDF>
 </metadata>
 <defs>
  <style type="text/css">*{stroke-linejoin: round; stroke-linecap: butt}</style>
 </defs>
 <g id="figure_1">
  <g id="patch_1">
   <path d="M 0 345.6 
L 460.8 345.6 
L 460.8 0 
L 0 0 
z
" style="fill: #ffffff"/>
  </g>
  <g id="axes_1">
   <g id="patch_2">
    <path d="M 57.6 307.584 
L 414.72 307.584 
L 414.72 41.472 
L 57.6 41.472 
z
" style="fill: #ffffff"/>
   </g>
   <g id="matplotlib.axis_1">
    <g id="xtick_1">
     <g id="line2d_1">
      <defs>
       <path id="m49e84b9edd" d="M 0 0 
L 0 3.5 
" style="stroke: #000000; stroke-width: 0.8"/>
      </defs>
      <g>
       <use xlink:href="#m49e84b9edd" x="73.832727" y="307.584" style="stroke: #000000; stroke-width: 0.8"/>
      </g>
     </g>
     <g id="text_1">
      <!-- 0 -->
      <g transform="translate(70.651477 322.182437) scale(0.1 -0.1)">
       <defs>
        <path id="DejaVuSans-30" d="M 2034 4250 
Q 1547 4250 1301 3770 
Q 1056 3291 1056 2328 
Q 1056 1369 1301 889 
Q 1547 409 2034 409 
Q 2525 409 2770 889 
Q 3016 1369 3016 2328 
Q 3016 3291 2770 3770 
Q 2525 4250 2034 4250 
z
M 2034 4750 
Q 2819 4750 3233 4129 
Q 3647 3509 3647 2328 
Q 3647 1150 3233 529 
Q 2819 -91 2034 -91 
Q 1250 -91 836 529 
Q 422 1150 422 2328 
Q 422 3509 836 4129 
Q 1250 4750 2034 4750 
z
" transform="scale(0.015625)"/>
       </defs>
       <use xlink:href="#DejaVuSans-30"/>
      </g>
     </g>
    </g>
    <g id="xtick_2">
     <g id="line2d_2">
      <g>
       <use xlink:href="#m49e84b9edd" x="138.763636" y="307.584" style="stroke: #000000; stroke-width: 0.8"/>
      </g>
     </g>
     <g id="text_2">
      <!-- 2 -->
      <g transform="translate(135.582386 322.182437) scale(0.1 -0.1)">
       <defs>
        <path id="DejaVuSans-32" d="M 1228 531 
L 3431 531 
L 3431 0 
L 469 0 
L 469 531 
Q 828 903 1448 1529 
Q 2069 2156 2228 2338 
Q 2531 2678 2651 2914 
Q 2772 3150 2772 3378 
Q 2772 3750 2511 3984 
Q 2250 4219 1831 4219 
Q 1534 4219 1204 4116 
Q 875 4013 500 3803 
L 500 4441 
Q 881 4594 1212 4672 
Q 1544 4750 1819 4750 
Q 2544 4750 2975 4387 
Q 3406 4025 3406 3419 
Q 3406 3131 3298 2873 
Q 3191 2616 2906 2266 
Q 2828 2175 2409 1742 
Q 1991 1309 1228 531 
z
" transform="scale(0.015625)"/>
       </defs>
       <use xlink:href="#DejaVuSans-32"/>
      </g>
     </g>
    </g>
    <g id="xtick_3">
     <g id="line2d_3">
      <g>
       <use xlink:href="#m49e84b9edd" x="203.694545" y="307.584" style="stroke: #000000; stroke-width: 0.8"/>
      </g>
     </g>
     <g id="text_3">
      <!-- 4 -->
      <g transform="translate(200.513295 322.182437) scale(0.1 -0.1)">
       <defs>
        <path id="DejaVuSans-34" d="M 2419 4116 
L 825 1625 
L 2419 1625 
L 2419 4116 
z
M 2253 4666 
L 3047 4666 
L 3047 1625 
L 3713 1625 
L 3713 1100 
L 3047 1100 
L 3047 0 
L 2419 0 
L 2419 1100 
L 313 1100 
L 313 1709 
L 2253 4666 
z
" transform="scale(0.015625)"/>
       </defs>
       <use xlink:href="#DejaVuSans-34"/>
      </g>
     </g>
    </g>
    <g id="xtick_4">
     <g id="line2d_4">
      <g>
       <use xlink:href="#m49e84b9edd" x="268.625455" y="307.584" style="stroke: #000000; stroke-width: 0.8"/>
      </g>
     </g>
     <g id="text_4">
      <!-- 6 -->
      <g transform="translate(265.444205 322.182437) scale(0.1 -0.1)">
       <defs>
        <path id="DejaVuSans-36" d="M 2113 2584 
Q 1688 2584 1439 2293 
Q 1191 2003 1191 1497 
Q 1191 994 1439 701 
Q 1688 409 2113 409 
Q 2538 409 2786 701 
Q 3034 994 3034 1497 
Q 3034 2003 2786 2293 
Q 2538 2584 2113 2584 
z
M 3366 4563 
L 3366 3988 
Q 3128 4100 2886 4159 
Q 2644 4219 2406 4219 
Q 1781 4219 1451 3797 
Q 1122 3375 1075 2522 
Q 1259 2794 1537 2939 
Q 1816 3084 2150 3084 
Q 2853 3084 3261 2657 
Q 3669 2231 3669 1497 
Q 3669 778 3244 343 
Q 2819 -91 2113 -91 
Q 1303 -91 875 529 
Q 447 1150 447 2328 
Q 447 3434 972 4092 
Q 1497 4750 2381 4750 
Q 2619 4750 2861 4703 
Q 3103 4656 3366 4563 
z
" transform="scale(0.015625)"/>
       </defs>
       <use xlink:href="#DejaVuSans-36"/>
      </g>
     </g>
    </g>
    <g id="xtick_5">
     <g id="line2d_5">
      <g>
       <use xlink:href="#m49e84b9edd" x="333.556364" y="307.584" style="stroke: #000000; stroke-width: 0.8"/>
      </g>
     </g>
     <g id="text_5">
      <!-- 8 -->
      <g transform="translate(330.375114 322.182437) scale(0.1 -0.1)">
       <defs>
        <path id="DejaVuSans-38" d="M 2034 2216 
Q 1584 2216 1326 1975 
Q 1069 1734 1069 1313 
Q 1069 891 1326 650 
Q 1584 409 2034 409 
Q 2484 409 2743 651 
Q 3003 894 3003 1313 
Q 3003 1734 2745 1975 
Q 2488 2216 2034 2216 
z
M 1403 2484 
Q 997 2584 770 2862 
Q 544 3141 544 3541 
Q 544 4100 942 4425 
Q 1341 4750 2034 4750 
Q 2731 4750 3128 4425 
Q 3525 4100 3525 3541 
Q 3525 3141 3298 2862 
Q 3072 2584 2669 2484 
Q 3125 2378 3379 2068 
Q 3634 1759 3634 1313 
Q 3634 634 3220 271 
Q 2806 -91 2034 -91 
Q 1263 -91 848 271 
Q 434 634 434 1313 
Q 434 1759 690 2068 
Q 947 2378 1403 2484 
z
M 1172 3481 
Q 1172 3119 1398 2916 
Q 1625 2713 2034 2713 
Q 2441 2713 2670 2916 
Q 2900 3119 2900 3481 
Q 2900 3844 2670 4047 
Q 2441 4250 2034 4250 
Q 1625 4250 1398 4047 
Q 1172 3844 1172 3481 
z
" transform="scale(0.015625)"/>
       </defs>
       <use xlink:href="#DejaVuSans-38"/>
      </g>
     </g>
    </g>
    <g id="xtick_6">
     <g id="line2d_6">
      <g>
       <use xlink:href="#m49e84b9edd" x="398.487273" y="307.584" style="stroke: #000000; stroke-width: 0.8"/>
      </g>
     </g>
     <g id="text_6">
      <!-- 10 -->
      <g transform="translate(392.124773 322.182437) scale(0.1 -0.1)">
       <defs>
        <path id="DejaVuSans-31" d="M 794 531 
L 1825 531 
L 1825 4091 
L 703 3866 
L 703 4441 
L 1819 4666 
L 2450 4666 
L 2450 531 
L 3481 531 
L 3481 0 
L 794 0 
L 794 531 
z
" transform="scale(0.015625)"/>
       </defs>
       <use xlink:href="#DejaVuSans-31"/>
       <use xlink:href="#DejaVuSans-30" x="63.623047"/>
      </g>
     </g>
    </g>
    <g id="text_7">
     <!-- Time [$s$] -->
     <g transform="translate(215.66 335.860562) scale(0.1 -0.1)">
      <defs>
       <path id="DejaVuSans-54" d="M -19 4666 
L 3928 4666 
L 3928 4134 
L 2272 4134 
L 2272 0 
L 1638 0 
L 1638 4134 
L -19 4134 
L -19 4666 
z
" transform="scale(0.015625)"/>
       <path id="DejaVuSans-69" d="M 603 3500 
L 1178 3500 
L 1178 0 
L 603 0 
L 603 3500 
z
M 603 4863 
L 1178 4863 
L 1178 4134 
L 603 4134 
L 603 4863 
z
" transform="scale(0.015625)"/>
       <path id="DejaVuSans-6d" d="M 3328 2828 
Q 3544 3216 3844 3400 
Q 4144 3584 4550 3584 
Q 5097 3584 5394 3201 
Q 5691 2819 5691 2113 
L 5691 0 
L 5113 0 
L 5113 2094 
Q 5113 2597 4934 2840 
Q 4756 3084 4391 3084 
Q 3944 3084 3684 2787 
Q 3425 2491 3425 1978 
L 3425 0 
L 2847 0 
L 2847 2094 
Q 2847 2600 2669 2842 
Q 2491 3084 2119 3084 
Q 1678 3084 1418 2786 
Q 1159 2488 1159 1978 
L 1159 0 
L 581 0 
L 581 3500 
L 1159 3500 
L 1159 2956 
Q 1356 3278 1631 3431 
Q 1906 3584 2284 3584 
Q 2666 3584 2933 3390 
Q 3200 3197 3328 2828 
z
" transform="scale(0.015625)"/>
       <path id="DejaVuSans-65" d="M 3597 1894 
L 3597 1613 
L 953 1613 
Q 991 1019 1311 708 
Q 1631 397 2203 397 
Q 2534 397 2845 478 
Q 3156 559 3463 722 
L 3463 178 
Q 3153 47 2828 -22 
Q 2503 -91 2169 -91 
Q 1331 -91 842 396 
Q 353 884 353 1716 
Q 353 2575 817 3079 
Q 1281 3584 2069 3584 
Q 2775 3584 3186 3129 
Q 3597 2675 3597 1894 
z
M 3022 2063 
Q 3016 2534 2758 2815 
Q 2500 3097 2075 3097 
Q 1594 3097 1305 2825 
Q 1016 2553 972 2059 
L 3022 2063 
z
" transform="scale(0.015625)"/>
       <path id="DejaVuSans-20" transform="scale(0.015625)"/>
       <path id="DejaVuSans-5b" d="M 550 4863 
L 1875 4863 
L 1875 4416 
L 1125 4416 
L 1125 -397 
L 1875 -397 
L 1875 -844 
L 550 -844 
L 550 4863 
z
" transform="scale(0.015625)"/>
       <path id="DejaVuSans-Oblique-73" d="M 3200 3397 
L 3091 2853 
Q 2863 2978 2609 3040 
Q 2356 3103 2088 3103 
Q 1634 3103 1373 2948 
Q 1113 2794 1113 2528 
Q 1113 2219 1719 2053 
Q 1766 2041 1788 2034 
L 1972 1978 
Q 2547 1819 2739 1644 
Q 2931 1469 2931 1166 
Q 2931 609 2489 259 
Q 2047 -91 1331 -91 
Q 1053 -91 747 -37 
Q 441 16 72 128 
L 184 722 
Q 500 559 806 475 
Q 1113 391 1394 391 
Q 1816 391 2080 572 
Q 2344 753 2344 1031 
Q 2344 1331 1650 1516 
L 1591 1531 
L 1394 1581 
Q 956 1697 753 1886 
Q 550 2075 550 2369 
Q 550 2928 970 3256 
Q 1391 3584 2113 3584 
Q 2397 3584 2667 3537 
Q 2938 3491 3200 3397 
z
" transform="scale(0.015625)"/>
       <path id="DejaVuSans-5d" d="M 1947 4863 
L 1947 -844 
L 622 -844 
L 622 -397 
L 1369 -397 
L 1369 4416 
L 622 4416 
L 622 4863 
L 1947 4863 
z
" transform="scale(0.015625)"/>
      </defs>
      <use xlink:href="#DejaVuSans-54" transform="translate(0 0.015625)"/>
      <use xlink:href="#DejaVuSans-69" transform="translate(61.083984 0.015625)"/>
      <use xlink:href="#DejaVuSans-6d" transform="translate(88.867188 0.015625)"/>
      <use xlink:href="#DejaVuSans-65" transform="translate(186.279297 0.015625)"/>
      <use xlink:href="#DejaVuSans-20" transform="translate(247.802734 0.015625)"/>
      <use xlink:href="#DejaVuSans-5b" transform="translate(279.589844 0.015625)"/>
      <use xlink:href="#DejaVuSans-Oblique-73" transform="translate(318.603516 0.015625)"/>
      <use xlink:href="#DejaVuSans-5d" transform="translate(370.703125 0.015625)"/>
     </g>
    </g>
   </g>
   <g id="matplotlib.axis_2">
    <g id="ytick_1">
     <g id="line2d_7">
      <defs>
       <path id="m4c10bd06f3" d="M 0 0 
L -3.5 0 
" style="stroke: #000000; stroke-width: 0.8"/>
      </defs>
      <g>
       <use xlink:href="#m4c10bd06f3" x="57.6" y="277.11967" style="stroke: #000000; stroke-width: 0.8"/>
      </g>
     </g>
     <g id="text_8">
      <!-- −500 -->
      <g transform="translate(23.132812 280.918889) scale(0.1 -0.1)">
       <defs>
        <path id="DejaVuSans-2212" d="M 678 2272 
L 4684 2272 
L 4684 1741 
L 678 1741 
L 678 2272 
z
" transform="scale(0.015625)"/>
        <path id="DejaVuSans-35" d="M 691 4666 
L 3169 4666 
L 3169 4134 
L 1269 4134 
L 1269 2991 
Q 1406 3038 1543 3061 
Q 1681 3084 1819 3084 
Q 2600 3084 3056 2656 
Q 3513 2228 3513 1497 
Q 3513 744 3044 326 
Q 2575 -91 1722 -91 
Q 1428 -91 1123 -41 
Q 819 9 494 109 
L 494 744 
Q 775 591 1075 516 
Q 1375 441 1709 441 
Q 2250 441 2565 725 
Q 2881 1009 2881 1497 
Q 2881 1984 2565 2268 
Q 2250 2553 1709 2553 
Q 1456 2553 1204 2497 
Q 953 2441 691 2322 
L 691 4666 
z
" transform="scale(0.015625)"/>
       </defs>
       <use xlink:href="#DejaVuSans-2212"/>
       <use xlink:href="#DejaVuSans-35" x="83.789062"/>
       <use xlink:href="#DejaVuSans-30" x="147.412109"/>
       <use xlink:href="#DejaVuSans-30" x="211.035156"/>
      </g>
     </g>
    </g>
    <g id="ytick_2">
     <g id="line2d_8">
      <g>
       <use xlink:href="#m4c10bd06f3" x="57.6" y="223.782448" style="stroke: #000000; stroke-width: 0.8"/>
      </g>
     </g>
     <g id="text_9">
      <!-- 0 -->
      <g transform="translate(44.2375 227.581667) scale(0.1 -0.1)">
       <use xlink:href="#DejaVuSans-30"/>
      </g>
     </g>
    </g>
    <g id="ytick_3">
     <g id="line2d_9">
      <g>
       <use xlink:href="#m4c10bd06f3" x="57.6" y="170.445227" style="stroke: #000000; stroke-width: 0.8"/>
      </g>
     </g>
     <g id="text_10">
      <!-- 500 -->
      <g transform="translate(31.5125 174.244446) scale(0.1 -0.1)">
       <use xlink:href="#DejaVuSans-35"/>
       <use xlink:href="#DejaVuSans-30" x="63.623047"/>
       <use xlink:href="#DejaVuSans-30" x="127.246094"/>
      </g>
     </g>
    </g>
    <g id="ytick_4">
     <g id="line2d_10">
      <g>
       <use xlink:href="#m4c10bd06f3" x="57.6" y="117.108005" style="stroke: #000000; stroke-width: 0.8"/>
      </g>
     </g>
     <g id="text_11">
      <!-- 1000 -->
      <g transform="translate(25.15 120.907224) scale(0.1 -0.1)">
       <use xlink:href="#DejaVuSans-31"/>
       <use xlink:href="#DejaVuSans-30" x="63.623047"/>
       <use xlink:href="#DejaVuSans-30" x="127.246094"/>
       <use xlink:href="#DejaVuSans-30" x="190.869141"/>
      </g>
     </g>
    </g>
    <g id="ytick_5">
     <g id="line2d_11">
      <g>
       <use xlink:href="#m4c10bd06f3" x="57.6" y="63.770784" style="stroke: #000000; stroke-width: 0.8"/>
      </g>
     </g>
     <g id="text_12">
      <!-- 1500 -->
      <g transform="translate(25.15 67.570002) scale(0.1 -0.1)">
       <use xlink:href="#DejaVuSans-31"/>
       <use xlink:href="#DejaVuSans-35" x="63.623047"/>
       <use xlink:href="#DejaVuSans-30" x="127.246094"/>
       <use xlink:href="#DejaVuSans-30" x="190.869141"/>
      </g>
     </g>
    </g>
    <g id="text_13">
     <!-- Voltage [$mV$] -->
     <g transform="translate(17.032812 207.478) rotate(-90) scale(0.1 -0.1)">
      <defs>
       <path id="DejaVuSans-56" d="M 1831 0 
L 50 4666 
L 709 4666 
L 2188 738 
L 3669 4666 
L 4325 4666 
L 2547 0 
L 1831 0 
z
" transform="scale(0.015625)"/>
       <path id="DejaVuSans-6f" d="M 1959 3097 
Q 1497 3097 1228 2736 
Q 959 2375 959 1747 
Q 959 1119 1226 758 
Q 1494 397 1959 397 
Q 2419 397 2687 759 
Q 2956 1122 2956 1747 
Q 2956 2369 2687 2733 
Q 2419 3097 1959 3097 
z
M 1959 3584 
Q 2709 3584 3137 3096 
Q 3566 2609 3566 1747 
Q 3566 888 3137 398 
Q 2709 -91 1959 -91 
Q 1206 -91 779 398 
Q 353 888 353 1747 
Q 353 2609 779 3096 
Q 1206 3584 1959 3584 
z
" transform="scale(0.015625)"/>
       <path id="DejaVuSans-6c" d="M 603 4863 
L 1178 4863 
L 1178 0 
L 603 0 
L 603 4863 
z
" transform="scale(0.015625)"/>
       <path id="DejaVuSans-74" d="M 1172 4494 
L 1172 3500 
L 2356 3500 
L 2356 3053 
L 1172 3053 
L 1172 1153 
Q 1172 725 1289 603 
Q 1406 481 1766 481 
L 2356 481 
L 2356 0 
L 1766 0 
Q 1100 0 847 248 
Q 594 497 594 1153 
L 594 3053 
L 172 3053 
L 172 3500 
L 594 3500 
L 594 4494 
L 1172 4494 
z
" transform="scale(0.015625)"/>
       <path id="DejaVuSans-61" d="M 2194 1759 
Q 1497 1759 1228 1600 
Q 959 1441 959 1056 
Q 959 750 1161 570 
Q 1363 391 1709 391 
Q 2188 391 2477 730 
Q 2766 1069 2766 1631 
L 2766 1759 
L 2194 1759 
z
M 3341 1997 
L 3341 0 
L 2766 0 
L 2766 531 
Q 2569 213 2275 61 
Q 1981 -91 1556 -91 
Q 1019 -91 701 211 
Q 384 513 384 1019 
Q 384 1609 779 1909 
Q 1175 2209 1959 2209 
L 2766 2209 
L 2766 2266 
Q 2766 2663 2505 2880 
Q 2244 3097 1772 3097 
Q 1472 3097 1187 3025 
Q 903 2953 641 2809 
L 641 3341 
Q 956 3463 1253 3523 
Q 1550 3584 1831 3584 
Q 2591 3584 2966 3190 
Q 3341 2797 3341 1997 
z
" transform="scale(0.015625)"/>
       <path id="DejaVuSans-67" d="M 2906 1791 
Q 2906 2416 2648 2759 
Q 2391 3103 1925 3103 
Q 1463 3103 1205 2759 
Q 947 2416 947 1791 
Q 947 1169 1205 825 
Q 1463 481 1925 481 
Q 2391 481 2648 825 
Q 2906 1169 2906 1791 
z
M 3481 434 
Q 3481 -459 3084 -895 
Q 2688 -1331 1869 -1331 
Q 1566 -1331 1297 -1286 
Q 1028 -1241 775 -1147 
L 775 -588 
Q 1028 -725 1275 -790 
Q 1522 -856 1778 -856 
Q 2344 -856 2625 -561 
Q 2906 -266 2906 331 
L 2906 616 
Q 2728 306 2450 153 
Q 2172 0 1784 0 
Q 1141 0 747 490 
Q 353 981 353 1791 
Q 353 2603 747 3093 
Q 1141 3584 1784 3584 
Q 2172 3584 2450 3431 
Q 2728 3278 2906 2969 
L 2906 3500 
L 3481 3500 
L 3481 434 
z
" transform="scale(0.015625)"/>
       <path id="DejaVuSans-Oblique-6d" d="M 5747 2113 
L 5338 0 
L 4763 0 
L 5166 2094 
Q 5191 2228 5203 2325 
Q 5216 2422 5216 2491 
Q 5216 2772 5059 2928 
Q 4903 3084 4622 3084 
Q 4203 3084 3875 2770 
Q 3547 2456 3450 1953 
L 3066 0 
L 2491 0 
L 2900 2094 
Q 2925 2209 2937 2307 
Q 2950 2406 2950 2484 
Q 2950 2769 2794 2926 
Q 2638 3084 2363 3084 
Q 1938 3084 1609 2770 
Q 1281 2456 1184 1953 
L 800 0 
L 225 0 
L 909 3500 
L 1484 3500 
L 1375 2956 
Q 1609 3263 1923 3423 
Q 2238 3584 2597 3584 
Q 2978 3584 3223 3384 
Q 3469 3184 3519 2828 
Q 3781 3197 4126 3390 
Q 4472 3584 4856 3584 
Q 5306 3584 5551 3325 
Q 5797 3066 5797 2591 
Q 5797 2488 5784 2364 
Q 5772 2241 5747 2113 
z
" transform="scale(0.015625)"/>
       <path id="DejaVuSans-Oblique-56" d="M 1319 0 
L 500 4666 
L 1119 4666 
L 1797 653 
L 4063 4666 
L 4750 4666 
L 2053 0 
L 1319 0 
z
" transform="scale(0.015625)"/>
      </defs>
      <use xlink:href="#DejaVuSans-56" transform="translate(0 0.015625)"/>
      <use xlink:href="#DejaVuSans-6f" transform="translate(68.408203 0.015625)"/>
      <use xlink:href="#DejaVuSans-6c" transform="translate(129.589844 0.015625)"/>
      <use xlink:href="#DejaVuSans-74" transform="translate(157.373047 0.015625)"/>
      <use xlink:href="#DejaVuSans-61" transform="translate(196.582031 0.015625)"/>
      <use xlink:href="#DejaVuSans-67" transform="translate(257.861328 0.015625)"/>
      <use xlink:href="#DejaVuSans-65" transform="translate(321.337891 0.015625)"/>
      <use xlink:href="#DejaVuSans-20" transform="translate(382.861328 0.015625)"/>
      <use xlink:href="#DejaVuSans-5b" transform="translate(414.648438 0.015625)"/>
      <use xlink:href="#DejaVuSans-Oblique-6d" transform="translate(453.662109 0.015625)"/>
      <use xlink:href="#DejaVuSans-Oblique-56" transform="translate(551.074219 0.015625)"/>
      <use xlink:href="#DejaVuSans-5d" transform="translate(619.482422 0.015625)"/>
     </g>
    </g>
   </g>
   <g id="line2d_12">
    <path d="M 73.832727 238.589674 
L 73.879113 239.300841 
L 73.971885 248.846043 
L 74.157428 276.181403 
L 74.203814 274.946973 
L 74.342972 269.589796 
L 74.389357 270.272915 
L 74.482129 272.002119 
L 74.528515 271.886497 
L 74.714058 269.941083 
L 74.760444 270.084695 
L 74.80683 270.156574 
L 74.992373 269.463563 
L 75.038759 269.625818 
L 75.085145 269.795048 
L 75.131531 269.76421 
L 75.270689 268.13957 
L 75.409846 267.218795 
L 75.641775 269.328949 
L 75.734547 268.877552 
L 75.92009 264.850096 
L 76.15202 261.550405 
L 76.244791 261.192597 
L 76.383949 258.191219 
L 77.450823 224.918384 
L 77.682753 222.321459 
L 78.053839 216.125081 
L 78.146611 215.655895 
L 78.192997 215.689086 
L 78.332154 216.340418 
L 78.37854 216.255073 
L 78.564084 214.445151 
L 78.656855 214.813103 
L 78.749627 215.598921 
L 78.796013 215.356994 
L 78.981556 210.159629 
L 79.306257 203.644857 
L 79.399029 203.52053 
L 79.538186 202.031505 
L 79.72373 200.736383 
L 79.816502 200.202359 
L 80.002045 195.957999 
L 80.187588 193.44973 
L 80.326746 194.807257 
L 80.697833 199.651743 
L 80.929762 211.829939 
L 81.300849 230.584669 
L 81.671935 243.058179 
L 81.764707 242.546061 
L 81.857479 242.149397 
L 81.996636 243.524136 
L 82.043022 243.433602 
L 82.599652 236.811024 
L 82.646038 236.854536 
L 82.73881 239.178922 
L 82.924353 252.386812 
L 83.29544 292.590586 
L 83.341826 291.809273 
L 83.434598 279.300451 
L 83.620141 207.188875 
L 83.991228 64.005213 
L 84.547858 78.01077 
L 84.64063 99.625756 
L 84.965331 270.741356 
L 85.011716 268.271595 
L 85.058102 266.547029 
L 85.104488 267.426697 
L 85.243646 275.056475 
L 85.290032 274.761301 
L 85.475575 268.47458 
L 85.521961 269.113863 
L 85.707504 278.979814 
L 85.846662 285.519622 
L 85.893048 285.290154 
L 86.217749 273.250997 
L 86.264134 273.827996 
L 86.496064 279.617754 
L 86.542449 279.227992 
L 86.681607 272.130919 
L 86.86715 265.250704 
L 87.006308 269.144321 
L 87.145465 271.789364 
L 87.238237 269.116819 
L 87.516552 258.916929 
L 87.748481 264.830062 
L 87.841253 263.362639 
L 88.073182 257.310197 
L 88.165954 258.347902 
L 88.444269 265.708781 
L 88.537041 265.079056 
L 88.815356 259.604505 
L 88.861742 260.211898 
L 89.047285 263.708425 
L 89.093671 263.63209 
L 89.232829 261.527491 
L 89.511144 252.990923 
L 89.55753 253.417171 
L 89.650301 254.815864 
L 89.696687 254.693685 
L 89.835845 250.278797 
L 90.67079 217.981302 
L 90.902719 216.78167 
L 90.995491 216.49004 
L 91.134648 214.298011 
L 91.459349 206.969842 
L 91.737664 209.220831 
L 91.830436 209.02644 
L 91.969594 207.563963 
L 92.108751 206.050867 
L 92.155137 206.169267 
L 92.294295 207.323557 
L 92.34068 207.018904 
L 92.526224 201.099371 
L 92.711767 197.881334 
L 92.804539 198.260513 
L 93.082854 200.380599 
L 93.12924 200.000522 
L 93.268397 195.210011 
L 93.407555 191.050785 
L 93.453941 191.137659 
L 93.593098 192.41658 
L 93.639484 192.035141 
L 93.917799 188.236787 
L 94.010571 188.929923 
L 94.196114 194.363716 
L 94.706359 221.765879 
L 94.984674 232.766844 
L 95.170217 235.128769 
L 95.216603 235.063551 
L 95.35576 234.22916 
L 95.402146 234.43657 
L 95.58769 236.890508 
L 95.634076 236.795023 
L 95.958776 232.717151 
L 96.051548 233.11269 
L 96.237092 236.483345 
L 96.376249 243.001969 
L 96.654564 277.22473 
L 96.793722 285.407067 
L 96.886493 279.36521 
L 97.025651 243.86575 
L 97.489509 56.828873 
L 97.535895 58.487232 
L 97.628667 61.910946 
L 97.675053 61.560104 
L 97.81421 59.260679 
L 97.953368 64.246586 
L 98.04614 72.20307 
L 98.138911 106.21965 
L 98.417226 270.943186 
L 98.463612 270.81943 
L 98.556384 267.435413 
L 98.60277 268.44971 
L 98.695541 272.042164 
L 98.741927 271.591384 
L 98.973857 259.610373 
L 99.020242 260.75988 
L 99.391329 277.557823 
L 99.437715 277.068171 
L 99.576873 271.354379 
L 99.71603 265.460372 
L 99.762416 265.640409 
L 99.994345 273.236938 
L 100.040731 272.637254 
L 100.365432 257.701136 
L 100.458204 259.4961 
L 100.643747 266.130574 
L 100.736519 262.848033 
L 101.014834 250.92486 
L 101.293149 257.258733 
L 101.339535 256.638062 
L 101.571464 248.535678 
L 101.664236 249.243791 
L 101.942551 253.728334 
L 101.988937 253.684792 
L 102.081708 251.597476 
L 102.267252 245.637807 
L 102.313638 246.153047 
L 102.545567 253.749309 
L 102.591953 253.605778 
L 102.73111 249.620434 
L 102.963039 242.137329 
L 103.055811 243.384492 
L 103.148583 244.752346 
L 103.194969 244.372246 
L 103.380512 236.258299 
L 103.705213 225.516545 
L 103.751599 225.583753 
L 103.84437 226.384301 
L 103.890756 226.255547 
L 104.029914 222.359172 
L 104.308229 215.706701 
L 104.401001 216.206986 
L 104.447387 216.557463 
L 104.493772 216.530776 
L 104.586544 214.551594 
L 104.818473 206.623661 
L 104.864859 206.977125 
L 105.282332 213.999603 
L 105.375103 212.10377 
L 105.560647 207.09434 
L 105.699804 208.006798 
L 105.74619 207.591129 
L 106.163663 199.891821 
L 106.210049 199.823121 
L 106.256435 199.897185 
L 106.441978 200.78048 
L 106.488364 200.551558 
L 106.627521 196.260193 
L 106.859451 187.563663 
L 106.905836 187.711954 
L 106.998608 188.324785 
L 107.044994 187.961495 
L 107.184152 185.54329 
L 107.230537 185.976176 
L 107.416081 190.721627 
L 107.462467 190.387415 
L 107.555238 189.172108 
L 107.601624 189.804539 
L 107.740782 199.767194 
L 107.972711 210.500116 
L 108.158254 219.351096 
L 108.482955 232.630831 
L 108.529341 233.075434 
L 108.575727 232.934523 
L 108.76127 231.088855 
L 108.807656 231.162942 
L 108.900428 232.06819 
L 109.132357 236.080665 
L 109.178743 235.910753 
L 109.3179 232.654347 
L 109.503444 228.199553 
L 109.596216 229.693969 
L 109.828145 242.821647 
L 110.245617 273.136657 
L 110.292003 270.531135 
L 110.431161 244.004178 
L 110.709476 117.052481 
L 110.941405 56.409624 
L 111.080563 62.376485 
L 111.126949 61.823483 
L 111.266106 59.344725 
L 111.405264 63.257836 
L 111.498035 71.971337 
L 111.590807 112.075978 
L 111.869122 276.959537 
L 112.00828 274.09527 
L 112.101051 277.088713 
L 112.147437 277.054982 
L 112.425752 261.729543 
L 112.518524 263.799578 
L 112.796839 275.804833 
L 112.843225 275.617337 
L 112.982382 269.502574 
L 113.12154 263.599405 
L 113.167926 263.671371 
L 113.446241 272.652558 
L 113.539013 270.84701 
L 113.817328 256.955922 
L 113.863714 257.293231 
L 114.095643 263.635475 
L 114.142029 263.110289 
L 114.327572 254.241891 
L 114.46673 250.124638 
L 114.513115 250.638027 
L 114.698659 254.953171 
L 114.745045 254.901117 
L 115.02336 248.759397 
L 115.116131 249.542836 
L 115.394446 256.545592 
L 115.487218 255.432602 
L 115.765533 248.848493 
L 115.951077 252.599803 
L 116.043848 251.782224 
L 116.275778 244.003319 
L 116.368549 241.755759 
L 116.414935 242.174045 
L 116.600479 247.90784 
L 116.646864 247.393159 
L 116.925179 233.849098 
L 117.157109 227.634474 
L 117.296266 226.862883 
L 117.435424 223.451593 
L 117.713739 214.266767 
L 117.760125 214.344984 
L 117.899282 215.585919 
L 117.945668 215.558402 
L 118.084826 213.414222 
L 118.363141 206.958215 
L 118.409527 207.080625 
L 118.59507 209.926863 
L 118.687842 209.256003 
L 119.012543 201.247352 
L 119.058928 201.254359 
L 119.1517 201.314426 
L 119.290858 200.461031 
L 119.476401 197.732933 
L 119.70833 193.71122 
L 119.847488 194.480587 
L 119.893874 194.461564 
L 119.986645 193.002005 
L 120.26496 185.010807 
L 120.311346 185.045276 
L 120.450504 186.768075 
L 120.728819 192.610266 
L 120.775205 192.348794 
L 120.821591 192.128809 
L 120.867976 192.364476 
L 120.960748 195.274636 
L 121.563764 225.402145 
L 121.749308 231.333636 
L 121.981237 236.773819 
L 122.074008 236.280446 
L 122.305938 234.61492 
L 122.352324 234.636236 
L 122.537867 235.058495 
L 122.630639 234.537907 
L 122.816182 232.880102 
L 122.862568 233.179625 
L 122.95534 235.782309 
L 123.140883 252.067445 
L 123.465584 281.796046 
L 123.558356 276.123204 
L 123.697513 244.800011 
L 124.207757 58.74349 
L 124.300529 63.390771 
L 124.393301 65.797388 
L 124.439687 65.349513 
L 124.532458 64.405018 
L 124.578844 64.685301 
L 124.718002 68.404451 
L 124.810773 88.494423 
L 125.135474 279.750947 
L 125.228246 272.157755 
L 125.274632 269.83418 
L 125.321018 270.039699 
L 125.41379 272.61085 
L 125.460175 272.186349 
L 125.645719 263.759333 
L 125.692105 264.146532 
L 126.063191 279.450675 
L 126.109577 278.635171 
L 126.387892 268.13337 
L 126.434278 268.336378 
L 126.666207 274.21502 
L 126.712593 273.576022 
L 127.037294 260.510186 
L 127.130066 261.483732 
L 127.269223 264.041123 
L 127.315609 263.99216 
L 127.408381 261.858688 
L 127.686696 251.745207 
L 127.733082 251.867325 
L 127.965011 257.582958 
L 128.057783 256.463758 
L 128.289712 250.758315 
L 128.336098 250.86947 
L 128.614413 254.693328 
L 128.707185 254.153053 
L 128.9855 248.43585 
L 129.031886 248.608519 
L 129.310201 252.64771 
L 129.356587 252.19424 
L 129.634902 244.525992 
L 129.727673 245.807619 
L 129.913217 249.465772 
L 130.005988 247.467568 
L 130.423461 232.768901 
L 130.469847 232.758006 
L 130.516233 232.619118 
L 130.609004 231.041861 
L 130.980091 218.577504 
L 131.026477 218.651245 
L 131.119249 218.744542 
L 131.21202 218.273031 
L 131.351178 215.600722 
L 131.583107 208.473284 
L 131.629493 208.552625 
L 131.861422 212.063952 
L 131.907808 211.493524 
L 132.418052 199.430017 
L 132.510824 199.633124 
L 132.55721 199.459302 
L 132.696368 196.293936 
L 132.881911 193.078853 
L 132.974683 193.12224 
L 133.11384 193.310327 
L 133.206612 192.691421 
L 133.531313 186.136102 
L 133.624084 186.769464 
L 134.134329 194.487422 
L 134.319872 203.077515 
L 134.737345 224.125505 
L 134.922888 230.36499 
L 135.154817 239.036818 
L 135.247589 238.464512 
L 135.386747 237.785097 
L 135.525904 238.164837 
L 135.57229 238.064551 
L 135.757833 236.45108 
L 135.804219 236.540595 
L 135.943377 237.28211 
L 135.989763 237.104673 
L 136.082534 236.500194 
L 136.12892 236.827025 
L 136.221692 240.547029 
L 136.500007 269.353317 
L 136.731936 284.632723 
L 136.824708 275.516952 
L 137.010251 217.97281 
L 137.427724 60.664966 
L 137.613267 66.801486 
L 137.706039 66.329473 
L 137.798811 67.539278 
L 137.984354 74.195198 
L 138.077126 99.898487 
L 138.355441 276.589582 
L 138.448213 271.510672 
L 138.540984 267.204493 
L 138.58737 268.871946 
L 138.680142 272.582923 
L 138.726528 272.240245 
L 138.912071 264.970061 
L 138.958457 265.37759 
L 139.144 275.486623 
L 139.283158 279.877105 
L 139.329544 279.410969 
L 139.607859 269.254154 
L 139.70063 270.157925 
L 139.93256 275.864782 
L 139.978946 275.234432 
L 140.164489 265.579916 
L 140.303646 260.786887 
L 140.350032 261.1438 
L 140.535576 264.446694 
L 140.581962 263.879386 
L 140.906663 254.017583 
L 140.999434 254.643832 
L 141.231363 258.194542 
L 141.324135 256.235756 
L 141.556064 249.548891 
L 141.60245 249.809783 
L 141.880765 255.802244 
L 141.927151 255.456971 
L 142.205466 249.515961 
L 142.251852 249.808891 
L 142.483781 253.978987 
L 142.530167 253.871338 
L 142.669325 251.395286 
L 142.901254 245.500682 
L 142.94764 245.953383 
L 143.133183 248.949135 
L 143.179569 248.58215 
L 143.318727 243.156011 
L 143.597042 233.120891 
L 143.782585 231.787546 
L 143.968128 226.136701 
L 144.292829 216.434721 
L 144.385601 216.574413 
L 144.478373 215.467531 
L 144.84946 206.323945 
L 144.895845 206.405949 
L 145.035003 209.071454 
L 145.127775 210.862411 
L 145.17416 210.822671 
L 145.313318 205.892747 
L 145.498861 201.675946 
L 145.545247 201.779647 
L 145.591633 201.683808 
L 145.730791 199.371876 
L 146.101877 191.11657 
L 146.148263 191.288966 
L 146.333807 193.358028 
L 146.472964 190.43229 
L 146.751279 184.344167 
L 146.844051 183.949528 
L 146.890437 183.984979 
L 147.029594 184.936642 
L 147.400681 188.721863 
L 147.586225 196.735273 
L 148.096469 224.578925 
L 148.42117 236.211992 
L 148.560327 237.422576 
L 148.606713 237.339706 
L 148.745871 236.865122 
L 148.792257 236.903506 
L 148.9778 237.443788 
L 149.024186 237.375051 
L 149.348887 235.859753 
L 149.395273 235.962888 
L 149.488044 237.20574 
L 149.627202 244.047446 
L 149.905517 275.780063 
L 150.09106 288.91681 
L 150.183832 279.656112 
L 150.369375 219.924497 
L 150.786848 61.502805 
L 150.833234 62.028501 
L 151.018777 67.730801 
L 151.065163 67.651732 
L 151.111549 67.783175 
L 151.250706 70.648018 
L 151.343478 76.37458 
L 151.43625 106.583825 
L 151.714565 273.249665 
L 151.760951 271.035203 
L 151.853722 263.917358 
L 151.900108 264.724467 
L 152.039266 273.136079 
L 152.085652 272.914202 
L 152.271195 266.453519 
L 152.317581 267.18719 
L 152.642282 282.346662 
L 152.735054 280.888662 
L 153.013369 272.099089 
L 153.152526 275.53262 
L 153.291684 277.961365 
L 153.384455 276.04632 
L 153.662771 263.574757 
L 153.755542 264.454545 
L 153.8947 268.055916 
L 153.941086 267.986418 
L 154.080243 262.460232 
L 154.265787 257.170678 
L 154.312172 257.120626 
L 154.404944 258.086179 
L 154.590487 261.505653 
L 154.636873 261.311641 
L 154.915188 255.007363 
L 155.00796 256.042003 
L 155.239889 261.764835 
L 155.286275 261.536804 
L 155.610976 255.436508 
L 155.657362 255.872212 
L 155.842905 259.182121 
L 155.889291 259.166416 
L 156.028449 255.576114 
L 156.213992 251.004958 
L 156.260378 251.046863 
L 156.445921 253.097613 
L 156.538693 253.890799 
L 156.585079 253.508625 
L 156.724236 247.676037 
L 157.002552 236.570346 
L 157.188095 232.573134 
L 157.744725 215.153286 
L 157.883883 212.11013 
L 158.162198 205.090408 
L 158.208584 205.154909 
L 158.486899 207.128222 
L 158.533284 207.034575 
L 158.672442 205.783651 
L 158.904371 203.902147 
L 158.950757 203.908555 
L 159.043529 204.190124 
L 159.089915 204.011235 
L 159.182686 201.744545 
L 159.414616 194.849697 
L 159.507387 194.884368 
L 159.646545 194.600643 
L 159.785702 195.030626 
L 159.878474 193.550443 
L 160.249561 184.328353 
L 160.295947 184.470256 
L 160.388718 184.964736 
L 160.435104 184.88514 
L 160.574262 184.066776 
L 160.620648 184.174868 
L 160.759805 186.252189 
L 160.945349 192.469325 
L 161.919451 237.180475 
L 161.965837 237.409157 
L 162.012223 237.161873 
L 162.151381 235.893569 
L 162.197766 236.204744 
L 162.38331 238.448733 
L 162.429696 238.150125 
L 162.708011 234.519797 
L 162.754397 234.801238 
L 162.93994 238.152943 
L 163.079098 244.896111 
L 163.357413 277.430463 
L 163.49657 289.401713 
L 163.542956 288.741697 
L 163.635728 277.035231 
L 163.821271 211.664313 
L 164.238744 59.571513 
L 164.424287 64.902695 
L 164.470673 64.595442 
L 164.517059 64.502664 
L 164.60983 66.245733 
L 164.748988 71.68325 
L 164.84176 91.625552 
L 165.166461 273.413 
L 165.259232 265.216219 
L 165.305618 263.634407 
L 165.352004 265.010631 
L 165.491162 270.439949 
L 165.676705 264.613523 
L 165.723091 265.099126 
L 165.908634 274.38418 
L 166.094178 281.288506 
L 166.233335 276.301952 
L 166.418879 270.115974 
L 166.465264 270.191744 
L 166.697194 276.304027 
L 166.789965 274.706084 
L 167.114666 263.693697 
L 167.161052 263.997 
L 167.346595 266.570543 
L 167.439367 264.716538 
L 167.717682 253.665177 
L 167.764068 253.940762 
L 168.042383 260.030701 
L 168.088769 259.384847 
L 168.367084 251.748091 
L 168.41347 251.810564 
L 168.552628 256.176847 
L 168.691785 260.787108 
L 168.738171 260.755731 
L 169.016486 254.471614 
L 169.109258 255.713366 
L 169.294801 258.687694 
L 169.341187 258.445886 
L 169.52673 253.873693 
L 169.712274 250.728319 
L 169.75866 250.809818 
L 169.897817 251.718288 
L 169.944203 251.580706 
L 170.036975 249.67812 
L 171.103849 209.261999 
L 171.243007 209.242906 
L 171.335778 208.079143 
L 171.614093 198.529464 
L 171.706865 199.409008 
L 171.98518 204.846367 
L 172.217109 202.961693 
L 172.309881 203.487667 
L 172.495425 205.072511 
L 172.588196 203.706396 
L 172.959283 193.406761 
L 173.005669 193.559583 
L 173.237598 196.463281 
L 173.283984 195.982274 
L 173.794228 187.765521 
L 173.933386 186.529356 
L 174.165315 181.827219 
L 174.211701 182.207094 
L 174.536402 190.781269 
L 174.721945 200.439309 
L 175.23219 228.904433 
L 175.78882 236.990694 
L 175.881591 237.342244 
L 175.927977 237.214177 
L 176.113521 235.334764 
L 176.252678 234.541248 
L 176.484607 234.886034 
L 176.577379 236.180498 
L 176.716537 244.054525 
L 177.087623 286.735633 
L 177.180395 283.008503 
L 177.319553 248.28292 
L 177.829797 59.395015 
L 177.876183 60.904395 
L 177.968955 63.315348 
L 178.01534 63.195663 
L 178.061726 62.927593 
L 178.108112 63.241915 
L 178.293655 70.524048 
L 178.386427 80.095542 
L 178.525585 160.461018 
L 178.757514 275.41244 
L 178.896671 264.517699 
L 178.943057 265.393086 
L 179.035829 268.938541 
L 179.082215 268.659133 
L 179.267758 260.329524 
L 179.314144 260.455379 
L 179.453302 267.958028 
L 179.685231 279.120744 
L 179.778003 275.940924 
L 180.009932 265.510866 
L 180.149089 270.455689 
L 180.288247 274.513922 
L 180.334633 274.138306 
L 180.47379 267.140119 
L 180.659334 257.502343 
L 180.70572 257.652209 
L 180.937649 265.926435 
L 181.03042 264.595361 
L 181.308736 252.890665 
L 181.355121 253.15577 
L 181.587051 259.397168 
L 181.679822 258.029614 
L 181.911752 248.7276 
L 181.958137 248.838312 
L 182.097295 253.632105 
L 182.282838 259.677106 
L 182.37561 257.598713 
L 182.607539 252.011177 
L 182.746697 255.373362 
L 182.885854 257.859997 
L 182.978626 256.19664 
L 183.303327 245.892798 
L 183.48887 248.908914 
L 183.535256 248.804401 
L 183.628028 245.761995 
L 184.045501 227.093704 
L 184.231044 223.87812 
L 184.602131 209.541918 
L 184.694902 210.406323 
L 184.787674 211.042701 
L 184.83406 210.961994 
L 184.926832 209.473921 
L 185.158761 202.315687 
L 185.205147 202.317914 
L 185.344304 205.73239 
L 185.483462 208.386758 
L 185.529848 208.128324 
L 185.761777 205.063468 
L 185.808163 205.359468 
L 186.086478 210.044781 
L 186.132864 209.843405 
L 186.272021 205.973743 
L 186.550336 197.665696 
L 186.596722 197.711303 
L 186.782266 199.043201 
L 186.921423 196.908057 
L 187.478053 187.973841 
L 187.756368 184.335536 
L 187.802754 184.755769 
L 187.988298 190.549451 
L 188.498542 214.168753 
L 188.916014 234.444194 
L 189.101558 236.484088 
L 189.19433 237.021835 
L 189.379873 239.292753 
L 189.426259 239.237809 
L 189.565416 236.174124 
L 189.704574 233.458472 
L 189.75096 233.735559 
L 189.936503 236.455134 
L 189.982889 236.171011 
L 190.075661 235.149262 
L 190.122047 235.227471 
L 190.214818 238.069064 
L 190.400362 255.76471 
L 190.725063 286.27081 
L 190.817834 275.674308 
L 191.003378 211.685766 
L 191.42085 60.093542 
L 191.560008 63.807448 
L 191.606394 63.597452 
L 191.652779 63.229302 
L 191.699165 63.457577 
L 191.838323 68.77038 
L 191.931095 73.88465 
L 192.023866 95.817611 
L 192.348567 277.373333 
L 192.394953 273.883761 
L 192.487725 268.414679 
L 192.534111 269.260809 
L 192.626882 272.02997 
L 192.673268 271.324832 
L 192.858812 262.362034 
L 192.905197 262.508019 
L 193.044355 269.646095 
L 193.276284 280.933612 
L 193.32267 280.479322 
L 193.600985 268.065879 
L 193.693757 269.766565 
L 193.8793 276.573653 
L 193.925686 276.269587 
L 194.064844 270.341097 
L 194.296773 260.530878 
L 194.389544 262.317668 
L 194.528702 266.356587 
L 194.575088 266.10288 
L 194.714245 259.653081 
L 194.899789 252.465298 
L 194.99256 254.233764 
L 195.178104 259.745506 
L 195.22449 259.267232 
L 195.502805 249.75318 
L 195.595577 250.87716 
L 195.873892 261.825619 
L 195.920277 260.92108 
L 196.198593 251.0894 
L 196.244978 251.592574 
L 196.476908 256.836358 
L 196.523293 256.618383 
L 196.662451 252.312366 
L 196.89438 246.239026 
L 197.033538 247.299702 
L 197.126309 245.838364 
L 198.146798 209.494973 
L 198.193184 209.516822 
L 198.425113 211.189507 
L 198.471499 211.086587 
L 198.610657 208.292762 
L 198.842586 203.843535 
L 198.981743 206.878497 
L 199.167287 210.281613 
L 199.260058 209.06691 
L 199.445602 205.024358 
L 199.491988 205.306784 
L 199.770303 213.483754 
L 199.863074 211.475812 
L 200.14139 201.468398 
L 200.187775 201.667533 
L 200.419705 204.070407 
L 200.46609 203.884294 
L 200.605248 200.946386 
L 200.837177 196.293982 
L 200.929949 196.427426 
L 200.976335 196.27021 
L 201.115492 193.119874 
L 201.347422 188.338049 
L 201.393807 188.521477 
L 201.532965 193.297559 
L 201.764894 199.114216 
L 201.904052 202.876437 
L 202.182367 217.980991 
L 202.460682 229.694914 
L 202.646225 233.503844 
L 202.92454 238.951583 
L 203.017312 239.276024 
L 203.15647 237.223348 
L 203.342013 234.72218 
L 203.388399 234.745554 
L 203.573942 236.242604 
L 203.852257 239.121653 
L 203.991415 246.90404 
L 204.362502 283.980259 
L 204.408888 281.241389 
L 204.548045 251.970279 
L 205.058289 59.507454 
L 205.151061 62.543498 
L 205.197447 63.525832 
L 205.243833 63.460067 
L 205.290219 63.031936 
L 205.336604 63.110646 
L 205.475762 68.435923 
L 205.61492 78.425589 
L 205.707691 114.195952 
L 205.986006 276.877486 
L 206.032392 273.863906 
L 206.125164 266.411433 
L 206.17155 266.694237 
L 206.310707 271.432136 
L 206.542636 262.563238 
L 206.589022 263.319428 
L 206.774566 275.032973 
L 206.867337 279.283687 
L 206.913723 279.245733 
L 207.099267 270.716195 
L 207.238424 266.850398 
L 207.28481 267.255547 
L 207.563125 275.926951 
L 207.609511 274.918143 
L 207.934212 260.777097 
L 207.980598 261.763836 
L 208.166141 267.884114 
L 208.212527 267.664038 
L 208.351685 260.671323 
L 208.537228 252.63881 
L 208.583614 252.932844 
L 208.815543 259.021768 
L 208.908315 258.094399 
L 209.18663 249.513962 
L 209.233016 249.864673 
L 209.464945 258.111674 
L 209.557717 256.573592 
L 209.836032 249.640175 
L 209.928803 250.692341 
L 210.114347 255.578931 
L 210.160733 255.551708 
L 210.253504 252.060657 
L 210.531819 239.688973 
L 210.624591 240.063408 
L 210.717363 240.424149 
L 210.763749 240.259599 
L 210.85652 238.315421 
L 211.227607 225.201624 
L 211.366765 226.184026 
L 211.459536 224.309185 
L 211.784237 211.031967 
L 211.830623 211.352295 
L 212.062552 214.121291 
L 212.108938 213.966119 
L 212.248096 210.535548 
L 212.387253 207.563579 
L 212.433639 207.766319 
L 212.619182 212.235082 
L 212.75834 214.791524 
L 212.804726 214.524677 
L 213.036655 211.111125 
L 213.083041 211.697225 
L 213.361356 216.967305 
L 213.407742 216.586405 
L 213.593285 210.745133 
L 213.778829 207.426609 
L 213.8716 207.785797 
L 214.010758 208.521776 
L 214.057144 208.488099 
L 214.149915 207.566884 
L 214.428231 203.953756 
L 214.521002 202.908916 
L 214.938475 192.682602 
L 214.984861 192.826956 
L 215.263176 200.284467 
L 215.680648 214.877372 
L 216.144507 236.044513 
L 216.56198 241.095602 
L 216.701137 243.605422 
L 216.747523 243.354441 
L 217.072224 236.694222 
L 217.164996 237.001726 
L 217.304153 238.537141 
L 217.489696 243.326538 
L 217.628854 252.465585 
L 217.953555 282.216339 
L 217.999941 280.749589 
L 218.139098 258.837221 
L 218.371028 163.60191 
L 218.649343 60.030395 
L 218.695728 59.939209 
L 218.834886 63.497454 
L 218.974044 61.365667 
L 219.066815 64.341852 
L 219.205973 74.443102 
L 219.298744 105.004746 
L 219.623445 282.609953 
L 219.716217 279.692128 
L 219.762603 280.219549 
L 219.855375 282.047724 
L 219.948146 277.252413 
L 220.180076 261.659307 
L 220.272847 265.391481 
L 220.551162 280.392792 
L 220.69032 272.677475 
L 220.875863 264.936135 
L 221.107793 273.415584 
L 221.200564 272.332606 
L 221.525265 256.46088 
L 221.618037 258.109463 
L 221.80358 263.87494 
L 221.849966 263.360181 
L 222.035509 253.550241 
L 222.174667 248.619365 
L 222.221053 249.225761 
L 222.452982 256.576956 
L 222.499368 255.937264 
L 222.824069 244.679588 
L 222.870455 245.287733 
L 223.102384 253.073995 
L 223.195156 251.800105 
L 223.473471 242.05645 
L 223.612628 244.995415 
L 223.751786 247.570915 
L 223.798172 247.107717 
L 223.983715 238.95671 
L 224.169258 234.557509 
L 224.354802 236.772105 
L 224.401188 236.193953 
L 224.586731 227.756887 
L 224.81866 220.885641 
L 225.05059 220.0663 
L 225.143361 218.377751 
L 225.421676 206.734447 
L 225.514448 207.787262 
L 225.653606 210.047916 
L 225.699991 209.825859 
L 226.024692 204.94382 
L 226.071078 204.976232 
L 226.16385 206.627162 
L 226.395779 212.602467 
L 226.534937 208.929634 
L 226.674094 206.122492 
L 226.72048 206.41929 
L 226.952409 210.6348 
L 226.998795 210.527266 
L 227.137953 206.488693 
L 227.369882 198.769306 
L 227.416268 198.897205 
L 227.601811 201.492434 
L 227.648197 201.392272 
L 227.787355 198.311999 
L 228.06567 190.138138 
L 228.112055 190.160309 
L 228.251213 190.915391 
L 228.297599 190.820438 
L 228.436756 189.111586 
L 228.529528 188.043161 
L 228.575914 188.102388 
L 228.715072 190.972946 
L 229.039772 204.522825 
L 229.781946 236.60596 
L 229.828332 236.514829 
L 229.921104 236.021068 
L 229.967489 236.098898 
L 230.199419 238.582822 
L 230.29219 238.012869 
L 230.570505 234.666067 
L 230.84882 235.251518 
L 230.941592 237.498816 
L 231.127136 253.121867 
L 231.451836 289.431264 
L 231.498222 288.733189 
L 231.590994 277.118114 
L 231.776537 214.26051 
L 232.19401 60.141146 
L 232.333168 64.488898 
L 232.379553 64.298251 
L 232.472325 62.990282 
L 232.518711 63.371643 
L 232.704254 71.529163 
L 232.797026 91.594405 
L 233.121727 275.645682 
L 233.214499 268.004818 
L 233.260885 266.130141 
L 233.30727 267.277226 
L 233.446428 272.924909 
L 233.678357 263.715759 
L 233.724743 264.853782 
L 234.049444 281.373008 
L 234.142216 279.788379 
L 234.374145 268.410546 
L 234.420531 268.468041 
L 234.65246 275.5451 
L 234.745232 274.357118 
L 235.069933 260.088913 
L 235.162704 261.669349 
L 235.301862 264.265754 
L 235.348248 263.819775 
L 235.533791 256.850175 
L 235.719334 252.335004 
L 235.858492 256.76307 
L 235.99765 259.888778 
L 236.090421 257.561942 
L 236.32235 250.204454 
L 236.415122 251.435047 
L 236.647051 257.73406 
L 236.693437 257.610752 
L 236.832595 253.702869 
L 236.971752 250.652456 
L 237.018138 250.958331 
L 237.296453 255.941973 
L 237.342839 255.583995 
L 237.528382 250.425223 
L 237.66754 247.601704 
L 237.713926 247.645163 
L 237.899469 248.99034 
L 237.992241 247.192349 
L 238.502485 227.960905 
L 238.595257 226.385698 
L 238.827186 216.001764 
L 238.966344 212.238307 
L 239.01273 212.491756 
L 239.198273 214.533741 
L 239.291045 213.03283 
L 239.615746 205.437458 
L 239.708517 206.569321 
L 239.894061 210.150881 
L 239.940447 210.040812 
L 240.172376 207.509902 
L 240.218762 207.522374 
L 240.357919 208.155888 
L 240.404305 208.121687 
L 240.497077 207.126678 
L 240.729006 200.056977 
L 240.868164 197.746526 
L 240.914549 197.906662 
L 241.100093 199.184402 
L 241.146479 198.991409 
L 241.285636 196.118479 
L 241.610337 188.208461 
L 241.656723 188.106202 
L 241.79588 188.74433 
L 241.842266 188.65311 
L 242.02781 186.89956 
L 242.074196 187.352094 
L 242.352511 193.98005 
L 242.862755 219.320161 
L 243.14107 232.431368 
L 243.372999 235.896557 
L 243.512157 235.756455 
L 243.651314 237.339139 
L 243.744086 238.116055 
L 243.790472 237.889153 
L 244.161559 233.754206 
L 244.25433 234.542239 
L 244.439874 239.216289 
L 244.625417 252.076729 
L 244.950118 289.182408 
L 245.04289 285.356173 
L 245.182047 251.69081 
L 245.692292 60.08809 
L 245.738677 61.920977 
L 245.831449 64.909422 
L 245.877835 64.596477 
L 245.970607 63.217861 
L 246.016993 63.593345 
L 246.202536 71.087325 
L 246.295308 89.884028 
L 246.620009 272.496151 
L 246.71278 265.309841 
L 246.759166 263.538255 
L 246.805552 264.593175 
L 246.94471 269.231641 
L 247.176639 260.897545 
L 247.223025 261.887074 
L 247.547726 278.616246 
L 247.640497 276.52914 
L 247.872426 266.460594 
L 247.918812 266.689482 
L 248.150742 273.255115 
L 248.243513 271.882214 
L 248.568214 258.822935 
L 248.6146 259.559394 
L 248.800143 264.163446 
L 248.846529 263.964869 
L 248.985687 259.009692 
L 249.17123 252.45594 
L 249.217616 252.619001 
L 249.449545 257.30512 
L 249.542317 256.439281 
L 249.820632 248.86965 
L 249.867018 249.25935 
L 250.145333 259.376106 
L 250.238105 258.072635 
L 250.470034 250.892174 
L 250.51642 250.922459 
L 250.748349 256.99829 
L 250.841121 256.191712 
L 251.119436 247.903912 
L 251.165822 247.947536 
L 251.351365 250.318583 
L 251.397751 250.133068 
L 251.490523 247.552364 
L 251.954381 229.456318 
L 252.047153 228.734809 
L 252.18631 223.975091 
L 252.464625 213.666542 
L 252.97487 206.701045 
L 253.114027 204.706436 
L 253.253185 206.82806 
L 253.392342 208.599916 
L 253.438728 208.517895 
L 253.577886 206.989808 
L 253.763429 204.396973 
L 253.809815 204.507329 
L 253.948972 205.898781 
L 253.995358 205.886606 
L 254.08813 204.368339 
L 254.459217 195.15172 
L 254.551988 196.000082 
L 254.691146 197.744911 
L 254.737532 197.648036 
L 254.876689 194.514088 
L 255.108619 189.742431 
L 255.479705 186.626805 
L 255.618863 184.890146 
L 255.665249 185.186194 
L 255.804406 188.357803 
L 256.036336 199.955463 
L 256.639352 230.27772 
L 257.149596 237.789988 
L 257.288753 239.003311 
L 257.335139 238.948573 
L 257.474297 237.196215 
L 257.706226 234.497103 
L 257.798998 235.180656 
L 257.984541 238.733012 
L 258.123699 246.093725 
L 258.402014 280.453195 
L 258.541171 289.121094 
L 258.633943 279.146825 
L 258.819486 215.604898 
L 259.236959 59.907636 
L 259.376117 64.212102 
L 259.422502 64.117434 
L 259.468888 63.699869 
L 259.515274 63.757403 
L 259.654432 68.413837 
L 259.793589 77.682583 
L 259.886361 112.49581 
L 260.164676 274.562855 
L 260.211062 272.173202 
L 260.303834 265.712823 
L 260.350219 266.294409 
L 260.489377 271.404478 
L 260.535763 270.146033 
L 260.721306 263.129347 
L 260.814078 266.249678 
L 261.138779 281.115772 
L 261.23155 277.774586 
L 261.417094 268.907685 
L 261.46348 269.307634 
L 261.695409 276.339478 
L 261.741795 275.960974 
L 261.880952 270.043315 
L 262.112882 260.444235 
L 262.344811 267.941103 
L 262.437583 265.857601 
L 262.715898 253.477156 
L 262.762283 253.746434 
L 263.040599 260.259479 
L 263.086984 259.54362 
L 263.365299 250.822361 
L 263.411685 251.139222 
L 263.69 260.631068 
L 263.782772 259.087841 
L 264.014701 252.716533 
L 264.107473 254.42293 
L 264.339402 259.17778 
L 264.432174 256.95205 
L 264.710489 248.644505 
L 264.803261 249.153228 
L 264.896032 249.740315 
L 264.942418 249.52544 
L 265.03519 246.952722 
L 265.406277 230.928667 
L 265.499048 230.842531 
L 265.59182 229.40043 
L 265.823749 218.337939 
L 266.009293 212.730339 
L 266.055679 212.669604 
L 266.194836 213.319779 
L 266.241222 213.278361 
L 266.333994 211.851845 
L 266.612309 205.514833 
L 266.70508 206.35317 
L 266.983396 210.362867 
L 267.029781 209.977418 
L 267.261711 207.541126 
L 267.400868 208.257887 
L 267.49364 208.659948 
L 267.540026 208.464529 
L 267.679183 205.207902 
L 267.957498 197.002198 
L 268.003884 197.163692 
L 268.189428 200.685164 
L 268.235813 200.579367 
L 268.421357 195.640884 
L 268.746058 189.934662 
L 269.070759 185.566732 
L 269.117145 185.587003 
L 269.256302 187.895547 
L 269.581003 198.726304 
L 270.369562 232.848091 
L 270.555106 233.433113 
L 270.833421 237.944579 
L 270.879807 237.728615 
L 271.204508 232.582013 
L 271.297279 233.43575 
L 271.575594 240.110404 
L 271.714752 250.503705 
L 272.085839 287.938945 
L 272.17861 277.758165 
L 272.364154 215.505983 
L 272.781626 59.662077 
L 272.920784 64.107879 
L 272.96717 63.755513 
L 273.059942 62.693495 
L 273.152713 65.039843 
L 273.338257 77.240402 
L 273.431028 113.623328 
L 273.709343 273.514657 
L 273.848501 264.445362 
L 273.894887 264.930778 
L 274.034044 270.058556 
L 274.08043 269.327655 
L 274.265974 263.073536 
L 274.312359 264.038388 
L 274.63706 280.334231 
L 274.729832 278.154361 
L 274.961761 265.654252 
L 275.008147 266.549372 
L 275.240076 275.873427 
L 275.286462 275.526862 
L 275.42562 269.994091 
L 275.657549 259.964421 
L 275.750321 262.236251 
L 275.889478 265.912676 
L 275.935864 265.637595 
L 276.075022 261.002366 
L 276.306951 253.592203 
L 276.53888 259.657656 
L 276.631652 258.33968 
L 276.909967 249.896013 
L 277.049124 254.283508 
L 277.234668 260.369658 
L 277.281054 260.074835 
L 277.559369 252.238611 
L 277.65214 253.341231 
L 277.88407 257.031389 
L 277.976841 255.522251 
L 278.301542 246.154958 
L 278.347928 246.374795 
L 278.487086 248.072529 
L 278.533472 247.585438 
L 278.672629 240.596712 
L 278.99733 224.798094 
L 279.229259 223.293272 
L 279.55396 212.433608 
L 279.600346 212.821563 
L 279.785889 215.354412 
L 279.878661 213.733871 
L 280.11059 209.343463 
L 280.296134 211.284152 
L 280.481677 212.322974 
L 280.574449 211.595693 
L 280.759992 209.474336 
L 280.89915 211.783351 
L 281.038307 213.652695 
L 281.084693 213.598894 
L 281.177465 212.562805 
L 281.548552 203.885603 
L 281.641323 204.629156 
L 281.780481 205.433243 
L 281.873253 204.591408 
L 282.383497 196.955695 
L 282.522654 193.593662 
L 282.661812 190.434742 
L 282.708198 190.484783 
L 282.847355 193.274373 
L 283.12567 204.582437 
L 283.635915 231.643038 
L 283.821458 237.048686 
L 283.91423 237.151146 
L 284.146159 239.052417 
L 284.47086 242.590431 
L 284.517246 242.414034 
L 284.702789 240.297523 
L 284.934718 237.502522 
L 284.981104 237.617864 
L 285.120262 240.588634 
L 285.305805 249.94056 
L 285.630506 282.427778 
L 285.676892 281.274031 
L 285.81605 261.468726 
L 286.047979 164.956195 
L 286.326294 59.48077 
L 286.37268 59.067827 
L 286.511837 62.947804 
L 286.558223 62.269741 
L 286.650995 60.877576 
L 286.697381 61.488971 
L 286.882924 71.053288 
L 286.975696 96.620414 
L 287.300397 279.2124 
L 287.346783 277.753167 
L 287.393168 276.530291 
L 287.439554 277.43286 
L 287.532326 281.940226 
L 287.578712 281.894817 
L 287.857027 261.862923 
L 287.949799 264.0982 
L 288.228114 280.663417 
L 288.320885 278.334805 
L 288.552815 267.594776 
L 288.5992 267.721003 
L 288.784744 272.129021 
L 288.877515 273.558472 
L 288.923901 272.956377 
L 289.109445 261.716475 
L 289.202216 258.411206 
L 289.248602 258.871492 
L 289.480532 266.120696 
L 289.526917 265.286033 
L 289.851618 251.984827 
L 289.898004 252.751669 
L 290.129933 260.531652 
L 290.176319 259.901003 
L 290.454634 248.215486 
L 290.547406 249.595252 
L 290.825721 255.821848 
L 290.918493 254.365486 
L 291.150422 246.993194 
L 291.196808 247.487181 
L 291.382351 251.050974 
L 291.428737 250.739068 
L 291.567895 246.02205 
L 291.799824 236.437416 
L 291.84621 236.599566 
L 292.031753 238.795442 
L 292.078139 238.366913 
L 292.217296 233.375073 
L 292.495612 222.097349 
L 292.541997 222.082035 
L 292.681155 222.935818 
L 292.727541 222.762799 
L 292.866698 219.397947 
L 293.145013 208.816731 
L 293.191399 209.361618 
L 293.376943 213.696233 
L 293.423329 213.256571 
L 293.701644 205.6186 
L 293.748029 205.811613 
L 293.933573 209.663134 
L 294.07273 211.179877 
L 294.211888 209.127036 
L 294.351045 207.670048 
L 294.397431 207.741947 
L 294.629361 209.376166 
L 294.675746 208.907817 
L 295.139605 198.789793 
L 295.185991 199.027817 
L 295.325148 200.341023 
L 295.371534 200.188118 
L 295.510692 195.890309 
L 295.696235 190.091333 
L 295.742621 190.128952 
L 295.835393 190.638299 
L 295.881778 190.518186 
L 296.252865 188.029987 
L 296.299251 188.00698 
L 296.392023 189.178757 
L 296.577566 197.114981 
L 297.226968 229.196304 
L 297.458897 235.726837 
L 297.505283 235.717495 
L 297.690826 233.734279 
L 297.737212 234.090228 
L 297.922756 235.820715 
L 298.201071 232.665048 
L 298.293842 233.115921 
L 298.572158 236.940653 
L 298.757701 250.119254 
L 299.128788 280.770807 
L 299.221559 272.935963 
L 299.407103 215.226702 
L 299.824575 59.47187 
L 300.010119 64.404361 
L 300.056505 63.433812 
L 300.149276 61.898062 
L 300.195662 62.516617 
L 300.33482 68.925262 
L 300.427591 87.815871 
L 300.752292 277.318363 
L 300.845064 270.155258 
L 300.89145 267.801072 
L 300.937836 268.123963 
L 301.030607 271.162363 
L 301.076993 270.903443 
L 301.355308 259.287087 
L 301.401694 260.355578 
L 301.726395 276.283027 
L 301.772781 275.194829 
L 302.051096 265.682275 
L 302.097482 266.145014 
L 302.329411 273.429218 
L 302.375797 272.992594 
L 302.700498 259.106734 
L 302.79327 260.807634 
L 302.932427 263.871524 
L 302.978813 263.757311 
L 303.117971 258.417374 
L 303.3499 249.954965 
L 303.489057 253.079966 
L 303.628215 255.886362 
L 303.674601 255.606236 
L 303.952916 247.140531 
L 304.045688 248.94664 
L 304.277617 255.737832 
L 304.324003 255.411434 
L 304.602318 248.090153 
L 304.648704 248.592835 
L 304.927019 253.96033 
L 304.973405 253.773558 
L 305.112562 250.547933 
L 305.344491 245.285999 
L 305.483649 246.11036 
L 305.530035 245.930343 
L 305.622806 244.088295 
L 306.550523 211.734016 
L 306.596909 211.537418 
L 306.828838 214.509417 
L 306.875224 214.217111 
L 307.014382 211.144497 
L 307.246311 204.076166 
L 307.292697 204.387723 
L 307.524626 210.273904 
L 307.571012 210.069677 
L 307.895713 204.03155 
L 307.988485 204.371552 
L 308.081256 204.879861 
L 308.127642 204.783421 
L 308.2668 202.271976 
L 308.498729 197.52087 
L 308.545115 197.604845 
L 308.730658 198.850855 
L 308.777044 198.55872 
L 308.916202 194.921081 
L 309.240902 185.476626 
L 309.38006 186.67546 
L 309.426446 186.916492 
L 309.472832 186.790624 
L 309.611989 185.825631 
L 309.658375 186.067355 
L 309.93669 190.453987 
L 310.168619 204.417569 
L 310.771635 233.0419 
L 310.864407 234.630447 
L 310.910793 234.548221 
L 311.096336 232.719176 
L 311.142722 232.955779 
L 311.467423 236.387578 
L 311.513809 236.185509 
L 311.792124 231.955825 
L 311.83851 232.193734 
L 311.977667 234.787063 
L 312.116825 241.013645 
L 312.348754 265.674032 
L 312.580683 285.477667 
L 312.673455 276.384381 
L 312.858999 214.850199 
L 313.276471 60.879284 
L 313.462015 66.237598 
L 313.5084 65.818235 
L 313.554786 65.492786 
L 313.601172 65.825558 
L 313.786716 72.751988 
L 313.879487 92.338041 
L 314.204188 278.689276 
L 314.29696 268.956635 
L 314.389732 265.14238 
L 314.436117 266.4781 
L 314.528889 267.791541 
L 314.714432 260.555134 
L 314.807204 261.879883 
L 315.131905 277.027284 
L 315.178291 276.548026 
L 315.456606 265.425782 
L 315.549378 266.809955 
L 315.781307 274.315304 
L 315.874079 271.098132 
L 316.152394 259.86331 
L 316.384323 265.472015 
L 316.477095 263.884916 
L 316.75541 251.883914 
L 316.801796 252.171765 
L 317.080111 258.132741 
L 317.126497 257.4207 
L 317.404812 249.443511 
L 317.451197 249.640605 
L 317.590355 253.48519 
L 317.729513 256.794119 
L 317.775898 256.622866 
L 317.915056 252.084118 
L 318.054213 247.583187 
L 318.100599 247.952793 
L 318.332529 253.577144 
L 318.378914 253.279109 
L 318.564458 248.852201 
L 318.750001 245.222131 
L 318.842773 246.082207 
L 318.935545 247.143109 
L 318.98193 246.995473 
L 319.121088 242.450075 
L 319.445789 228.914814 
L 319.677718 226.322118 
L 320.048805 212.858786 
L 320.141577 213.565336 
L 320.234348 213.977425 
L 320.32712 213.204342 
L 320.651821 206.659548 
L 320.698207 206.957805 
L 320.930136 211.524108 
L 321.022908 210.949109 
L 321.254837 208.100594 
L 321.301223 208.142205 
L 321.533152 209.473257 
L 321.579538 209.435375 
L 321.67231 208.087365 
L 321.99701 200.131828 
L 322.136168 201.479671 
L 322.22894 202.203337 
L 322.275326 202.062103 
L 322.414483 199.023887 
L 322.739184 188.84693 
L 322.78557 188.947184 
L 322.924727 189.902538 
L 323.063885 187.855838 
L 323.156657 187.213575 
L 323.249428 188.904114 
L 323.713287 206.724985 
L 324.362689 234.601057 
L 324.548232 236.861458 
L 324.594618 236.766037 
L 324.641004 236.861574 
L 324.826547 238.706971 
L 324.919319 238.426207 
L 325.24402 236.179984 
L 325.290406 236.20444 
L 325.429563 237.956192 
L 325.568721 241.543239 
L 325.707878 251.463946 
L 326.078965 290.607379 
L 326.125351 288.831843 
L 326.264508 259.363304 
L 326.774753 62.22892 
L 326.867524 65.37445 
L 326.960296 67.627223 
L 327.006682 67.499861 
L 327.053068 67.338251 
L 327.14584 68.757166 
L 327.284997 74.342893 
L 327.377769 90.930614 
L 327.563312 226.824136 
L 327.70247 280.903394 
L 327.748856 278.511283 
L 327.888013 269.317583 
L 327.934399 270.538157 
L 328.027171 272.320734 
L 328.2591 265.107922 
L 328.305486 265.711331 
L 328.491029 274.090267 
L 328.676572 280.747384 
L 328.769344 277.600693 
L 329.001273 267.766063 
L 329.140431 272.29732 
L 329.279589 275.545242 
L 329.37236 273.684472 
L 329.604289 265.075681 
L 329.650675 265.123232 
L 329.882605 269.533221 
L 329.92899 269.267626 
L 330.068148 264.382285 
L 330.300077 257.27737 
L 330.392849 258.46815 
L 330.578392 263.019326 
L 330.624778 262.788429 
L 330.903093 253.555788 
L 330.995865 255.357786 
L 331.227794 262.55079 
L 331.27418 262.43477 
L 331.413337 258.654521 
L 331.598881 253.543143 
L 331.691653 255.537974 
L 331.877196 260.272551 
L 331.969968 258.644458 
L 332.248283 249.059168 
L 332.294669 249.200713 
L 332.480212 251.382984 
L 332.572984 249.13095 
L 332.990456 230.537837 
L 333.036842 230.579155 
L 333.083228 230.492933 
L 333.176 229.251831 
L 333.361543 222.156207 
L 333.593472 215.895885 
L 333.73263 216.45106 
L 333.825402 215.040818 
L 334.103717 208.250401 
L 334.150102 208.306012 
L 334.335646 209.847791 
L 334.521189 212.087196 
L 334.567575 211.824579 
L 334.799504 208.27353 
L 334.84589 208.279466 
L 335.031434 209.678487 
L 335.077819 209.613361 
L 335.170591 208.012694 
L 335.495292 199.284348 
L 335.588064 200.206417 
L 335.773607 202.887319 
L 335.912765 199.159633 
L 336.19108 192.492449 
L 336.237466 192.355297 
L 336.283851 192.438532 
L 336.376623 192.681234 
L 336.469395 191.326436 
L 336.654938 186.762959 
L 336.701324 187.145393 
L 337.026025 197.161397 
L 337.397112 216.668887 
L 337.768199 234.172729 
L 338.046514 237.437187 
L 338.0929 237.435649 
L 338.232057 236.741313 
L 338.278443 236.887182 
L 338.4176 237.935738 
L 338.463986 237.64947 
L 338.742301 234.438604 
L 338.788687 234.545716 
L 339.020616 237.521545 
L 339.113388 239.313076 
L 339.252546 248.929246 
L 339.623632 289.839782 
L 339.670018 287.829059 
L 339.809176 258.226363 
L 340.31942 59.0056 
L 340.412192 62.423302 
L 340.458578 63.547864 
L 340.504964 63.427554 
L 340.597735 62.255561 
L 340.644121 62.727951 
L 340.829664 70.545417 
L 340.922436 86.683213 
L 341.10798 219.779897 
L 341.247137 272.910087 
L 341.293523 270.936645 
L 341.386295 264.282362 
L 341.432681 264.676526 
L 341.571838 270.295808 
L 341.618224 269.601593 
L 341.757381 265.656926 
L 341.803767 266.089915 
L 341.989311 275.370273 
L 342.174854 283.984171 
L 342.22124 283.634802 
L 342.545941 270.262396 
L 342.638713 272.489197 
L 342.824256 278.137835 
L 342.870642 277.909603 
L 343.009799 270.782666 
L 343.195343 263.007367 
L 343.288114 264.871687 
L 343.473658 268.963943 
L 343.566429 266.527354 
L 343.798359 257.106748 
L 343.844745 257.452458 
L 344.076674 262.280416 
L 344.12306 261.926759 
L 344.447761 255.58081 
L 344.494146 255.798867 
L 344.633304 259.713529 
L 344.772462 263.779374 
L 344.818847 263.603637 
L 345.004391 257.058171 
L 345.097162 254.843779 
L 345.143548 254.97761 
L 345.375478 260.356451 
L 345.468249 259.696929 
L 345.653793 253.82501 
L 345.839336 250.311845 
L 345.932108 249.488843 
L 346.117651 243.990379 
L 346.627895 225.90401 
L 346.767053 222.219341 
L 347.091754 210.196339 
L 347.13814 210.390667 
L 347.184526 210.572597 
L 347.230911 210.482476 
L 347.370069 208.506991 
L 347.741156 202.787193 
L 347.833927 204.157111 
L 348.065857 209.015803 
L 348.297786 205.547739 
L 348.390558 206.226344 
L 348.576101 208.407996 
L 348.668873 207.392066 
L 348.947188 200.283701 
L 348.993574 200.320142 
L 349.179117 200.623592 
L 349.318275 202.05515 
L 349.36466 201.672039 
L 350.292377 181.882105 
L 350.338763 182.590999 
L 350.617078 193.668359 
L 351.312866 228.393643 
L 351.452024 230.851282 
L 351.591181 230.038066 
L 351.683953 231.51075 
L 351.915882 236.163627 
L 352.008654 235.602337 
L 352.37974 232.29023 
L 352.518898 234.029055 
L 352.750827 237.587735 
L 352.936371 252.118719 
L 353.214686 273.507216 
L 353.261072 272.666812 
L 353.353843 261.020092 
L 353.539387 197.469843 
L 353.910473 55.760589 
L 353.956859 56.554918 
L 354.049631 59.906347 
L 354.096017 59.745553 
L 354.235174 57.654116 
L 354.374332 63.194293 
L 354.467104 71.080272 
L 354.559875 104.170952 
L 354.884576 277.233897 
L 354.977348 275.03121 
L 355.023734 276.204131 
L 355.116505 278.067009 
L 355.209277 271.759029 
L 355.394821 256.526101 
L 355.441206 256.75936 
L 355.580364 264.740387 
L 355.765907 275.4049 
L 355.812293 275.216252 
L 355.951451 267.215787 
L 356.090608 259.226096 
L 356.136994 259.369631 
L 356.415309 268.847526 
L 356.461695 268.025009 
L 356.74001 254.368976 
L 356.832782 255.404409 
L 357.064711 261.145684 
L 357.157483 258.377331 
L 357.435798 247.02022 
L 357.52857 249.983044 
L 357.714113 256.948345 
L 357.806885 254.485519 
L 358.038814 245.360508 
L 358.0852 245.683623 
L 358.270743 253.417381 
L 358.409901 256.780065 
L 358.502672 253.916623 
L 358.688216 246.582958 
L 358.734602 246.719882 
L 358.966531 252.701462 
L 359.012917 252.273534 
L 359.19846 243.717564 
L 359.430389 236.753281 
L 359.615933 239.306261 
L 359.662319 238.808982 
L 359.801476 232.028269 
L 360.079791 220.462367 
L 360.172563 220.861746 
L 360.218949 220.785467 
L 360.358106 218.115205 
L 360.682807 209.444762 
L 360.729193 209.50643 
L 360.914736 212.610989 
L 360.961122 212.438504 
L 361.146666 208.35645 
L 361.285823 205.709783 
L 361.332209 205.804515 
L 361.471367 209.196841 
L 361.65691 212.354451 
L 361.796067 210.499735 
L 362.027997 207.400982 
L 362.074383 207.492639 
L 362.21354 208.93835 
L 362.259926 208.916527 
L 362.352698 206.607088 
L 362.631013 196.87239 
L 362.723784 197.559115 
L 362.862942 199.05203 
L 362.909328 198.905596 
L 363.048485 196.667767 
L 363.373186 190.474571 
L 363.419572 190.535415 
L 363.465958 190.354514 
L 363.605116 187.149478 
L 363.790659 184.141722 
L 363.883431 185.154639 
L 364.068974 190.461863 
L 364.718376 223.047724 
L 364.950305 231.633041 
L 365.367778 235.483118 
L 365.506935 235.931085 
L 365.599707 235.664208 
L 365.738865 234.340704 
L 365.924408 232.617445 
L 366.01718 233.328629 
L 366.202723 236.384155 
L 366.341881 243.127848 
L 366.712967 281.950562 
L 366.805739 276.204977 
L 366.991282 225.17908 
L 367.455141 60.062177 
L 367.594298 64.987026 
L 367.640684 64.344488 
L 367.733456 62.283828 
L 367.779842 62.426336 
L 367.918999 67.67477 
L 368.011771 79.069344 
L 368.150929 163.021205 
L 368.382858 275.998287 
L 368.522015 265.84759 
L 368.568401 266.834489 
L 368.661173 270.694879 
L 368.707559 270.674947 
L 368.893102 262.729422 
L 368.985874 264.085748 
L 369.310575 277.938628 
L 369.356961 277.386258 
L 369.635276 265.286717 
L 369.728047 267.303849 
L 369.959977 274.19254 
L 370.052748 271.117226 
L 370.331063 259.293229 
L 370.562993 264.557238 
L 370.609378 263.934184 
L 370.934079 251.433327 
L 371.026851 252.629503 
L 371.212394 260.359547 
L 371.25878 260.196507 
L 371.444324 252.240526 
L 371.583481 249.207016 
L 371.676253 251.363193 
L 371.861796 257.116143 
L 371.908182 256.954979 
L 372.093726 251.836318 
L 372.232883 248.908819 
L 372.279269 249.126858 
L 372.557584 256.922773 
L 372.60397 256.17635 
L 372.928671 247.065059 
L 372.975057 247.114799 
L 373.114214 248.232446 
L 373.1606 248.022106 
L 373.253372 244.917566 
L 373.578073 230.11228 
L 373.995545 221.241668 
L 374.27386 213.051599 
L 374.459404 214.131602 
L 374.50579 213.723132 
L 374.830491 208.343858 
L 374.876876 208.790839 
L 375.201577 212.348244 
L 375.247963 212.272389 
L 375.433507 210.704388 
L 375.479892 210.734174 
L 375.711822 213.220022 
L 375.758208 212.97522 
L 375.897365 209.060562 
L 376.129294 202.44086 
L 376.17568 202.5509 
L 376.361224 204.605827 
L 376.407609 204.18527 
L 376.639539 197.088846 
L 376.871468 191.738781 
L 376.917854 191.800603 
L 377.103397 193.174175 
L 377.149783 192.939542 
L 377.335326 191.775229 
L 377.428098 192.864897 
L 377.706413 201.335022 
L 378.587744 241.956517 
L 378.63413 242.030828 
L 378.773288 241.197258 
L 378.819673 241.291607 
L 379.097989 244.031992 
L 379.144374 243.73594 
L 379.329918 241.428435 
L 379.376304 241.438896 
L 379.701005 244.264739 
L 379.840162 252.144684 
L 380.257635 295.488 
L 380.304021 292.590232 
L 380.443178 260.430256 
L 380.953422 67.520468 
L 381.046194 70.242151 
L 381.138966 71.592731 
L 381.185352 71.105256 
L 381.231738 70.776511 
L 381.278123 71.179673 
L 381.463667 78.889774 
L 381.556438 97.835616 
L 381.881139 283.612565 
L 381.973911 275.692251 
L 382.020297 272.961309 
L 382.066683 273.17305 
L 382.20584 278.103092 
L 382.252226 276.992502 
L 382.43777 269.243833 
L 382.484155 270.156052 
L 382.808856 286.864596 
L 382.901628 284.951089 
L 383.179943 274.378565 
L 383.319101 279.386936 
L 383.458258 282.396588 
L 383.55103 278.989528 
L 383.829345 266.075954 
L 383.922117 267.647105 
L 384.061274 270.975903 
L 384.10766 270.722517 
L 384.246818 264.374879 
L 384.432361 257.247601 
L 384.478747 257.517893 
L 384.710676 263.440093 
L 384.803448 262.511857 
L 385.081763 253.451918 
L 385.128149 253.553492 
L 385.267306 257.017467 
L 385.45285 260.62172 
L 385.592007 256.898549 
L 385.731165 253.265079 
L 385.777551 253.346546 
L 385.963094 258.58078 
L 386.055866 259.648041 
L 386.148637 257.787721 
L 386.426952 251.216119 
L 386.473338 251.054326 
L 386.519724 251.142132 
L 386.612496 251.441232 
L 386.705268 250.035145 
L 387.308284 230.870879 
L 387.493827 223.484163 
L 387.772142 213.021493 
L 387.818528 213.059557 
L 387.957685 214.639951 
L 388.004071 214.628333 
L 388.096843 212.984283 
L 388.375158 206.586171 
L 388.607087 209.460675 
L 388.699859 209.186209 
L 388.839016 208.069963 
L 388.885402 208.138639 
L 389.117332 210.840956 
L 389.210103 210.539978 
L 389.302875 209.526627 
L 389.442032 204.470532 
L 389.673962 196.980073 
L 389.766733 197.991298 
L 389.905891 200.043204 
L 389.952277 199.826796 
L 390.13782 195.398301 
L 390.508907 186.566749 
L 390.601679 186.568686 
L 390.69445 186.043977 
L 390.879994 184.339192 
L 390.972765 185.342292 
L 391.297466 193.616799 
L 392.132412 229.861205 
L 392.549884 235.247155 
L 392.59627 235.094147 
L 392.735428 232.616992 
L 392.874585 230.247561 
L 392.920971 230.27966 
L 393.338444 234.782732 
L 393.477601 243.776537 
L 393.848688 283.781282 
L 393.895074 281.591299 
L 394.034231 251.49935 
L 394.544476 53.568 
L 394.637247 55.109 
L 394.730019 56.839551 
L 394.776405 56.73137 
L 394.822791 56.701511 
L 394.915562 58.590169 
L 395.101106 69.770921 
L 395.193878 103.69085 
L 395.472193 269.609471 
L 395.518578 266.703419 
L 395.657736 257.562252 
L 395.796894 262.670011 
L 395.843279 261.510839 
L 396.028823 253.190934 
L 396.075209 254.114449 
L 396.39991 270.123675 
L 396.492681 268.171945 
L 396.724611 255.854185 
L 396.770996 256.152797 
L 397.002926 265.647474 
L 397.095697 263.935704 
L 397.420398 247.495012 
L 397.466784 248.425996 
L 397.652327 253.472653 
L 397.698713 253.219398 
L 397.837871 247.661228 
L 398.023414 240.376591 
L 398.0698 240.393992 
L 398.208958 244.317568 
L 398.301729 246.613513 
L 398.348115 246.526431 
L 398.487273 240.962678 
L 398.487273 240.962678 
" clip-path="url(#p790c590370)" style="fill: none; stroke: #008000; stroke-width: 1.5; stroke-linecap: square"/>
   </g>
   <g id="line2d_13">
    <defs>
     <path id="m9cce327949" d="M 0 3 
C 0.795609 3 1.55874 2.683901 2.12132 2.12132 
C 2.683901 1.55874 3 0.795609 3 0 
C 3 -0.795609 2.683901 -1.55874 2.12132 -2.12132 
C 1.55874 -2.683901 0.795609 -3 0 -3 
C -0.795609 -3 -1.55874 -2.683901 -2.12132 -2.12132 
C -2.683901 -1.55874 -3 -0.795609 -3 0 
C -3 0.795609 -2.683901 1.55874 -2.12132 2.12132 
C -1.55874 2.683901 -0.795609 3 0 3 
z
" style="stroke: #ff0000"/>
    </defs>
    <g clip-path="url(#p790c590370)">
     <use xlink:href="#m9cce327949" x="83.991228" y="64.005213" style="fill: #ff0000; stroke: #ff0000"/>
     <use xlink:href="#m9cce327949" x="97.489509" y="56.828873" style="fill: #ff0000; stroke: #ff0000"/>
     <use xlink:href="#m9cce327949" x="110.941405" y="56.409624" style="fill: #ff0000; stroke: #ff0000"/>
     <use xlink:href="#m9cce327949" x="124.207757" y="58.74349" style="fill: #ff0000; stroke: #ff0000"/>
     <use xlink:href="#m9cce327949" x="137.427724" y="60.664966" style="fill: #ff0000; stroke: #ff0000"/>
     <use xlink:href="#m9cce327949" x="150.786848" y="61.502805" style="fill: #ff0000; stroke: #ff0000"/>
     <use xlink:href="#m9cce327949" x="164.238744" y="59.571513" style="fill: #ff0000; stroke: #ff0000"/>
     <use xlink:href="#m9cce327949" x="177.829797" y="59.395015" style="fill: #ff0000; stroke: #ff0000"/>
     <use xlink:href="#m9cce327949" x="191.42085" y="60.093542" style="fill: #ff0000; stroke: #ff0000"/>
     <use xlink:href="#m9cce327949" x="205.058289" y="59.507454" style="fill: #ff0000; stroke: #ff0000"/>
     <use xlink:href="#m9cce327949" x="218.695728" y="59.939209" style="fill: #ff0000; stroke: #ff0000"/>
     <use xlink:href="#m9cce327949" x="232.19401" y="60.141146" style="fill: #ff0000; stroke: #ff0000"/>
     <use xlink:href="#m9cce327949" x="245.692292" y="60.08809" style="fill: #ff0000; stroke: #ff0000"/>
     <use xlink:href="#m9cce327949" x="259.236959" y="59.907636" style="fill: #ff0000; stroke: #ff0000"/>
     <use xlink:href="#m9cce327949" x="272.781626" y="59.662077" style="fill: #ff0000; stroke: #ff0000"/>
     <use xlink:href="#m9cce327949" x="286.37268" y="59.067827" style="fill: #ff0000; stroke: #ff0000"/>
     <use xlink:href="#m9cce327949" x="299.824575" y="59.47187" style="fill: #ff0000; stroke: #ff0000"/>
     <use xlink:href="#m9cce327949" x="313.276471" y="60.879284" style="fill: #ff0000; stroke: #ff0000"/>
     <use xlink:href="#m9cce327949" x="326.774753" y="62.22892" style="fill: #ff0000; stroke: #ff0000"/>
     <use xlink:href="#m9cce327949" x="340.31942" y="59.0056" style="fill: #ff0000; stroke: #ff0000"/>
     <use xlink:href="#m9cce327949" x="353.910473" y="55.760589" style="fill: #ff0000; stroke: #ff0000"/>
     <use xlink:href="#m9cce327949" x="367.455141" y="60.062177" style="fill: #ff0000; stroke: #ff0000"/>
     <use xlink:href="#m9cce327949" x="380.953422" y="67.520468" style="fill: #ff0000; stroke: #ff0000"/>
     <use xlink:href="#m9cce327949" x="394.544476" y="53.568" style="fill: #ff0000; stroke: #ff0000"/>
    </g>
   </g>
   <g id="patch_3">
    <path d="M 57.6 307.584 
L 57.6 41.472 
" style="fill: none; stroke: #000000; stroke-width: 0.8; stroke-linejoin: miter; stroke-linecap: square"/>
   </g>
   <g id="patch_4">
    <path d="M 414.72 307.584 
L 414.72 41.472 
" style="fill: none; stroke: #000000; stroke-width: 0.8; stroke-linejoin: miter; stroke-linecap: square"/>
   </g>
   <g id="patch_5">
    <path d="M 57.6 307.584 
L 414.72 307.584 
" style="fill: none; stroke: #000000; stroke-width: 0.8; stroke-linejoin: miter; stroke-linecap: square"/>
   </g>
   <g id="patch_6">
    <path d="M 57.6 41.472 
L 414.72 41.472 
" style="fill: none; stroke: #000000; stroke-width: 0.8; stroke-linejoin: miter; stroke-linecap: square"/>
   </g>
  </g>
 </g>
 <defs>
  <clipPath id="p790c590370">
   <rect x="57.6" y="41.472" width="357.12" height="266.112"/>
  </clipPath>
 </defs>
</svg>
