<?xml version="1.0" encoding="utf-8" standalone="no"?>
<!DOCTYPE svg PUBLIC "-//W3C//DTD SVG 1.1//EN"
  "http://www.w3.org/Graphics/SVG/1.1/DTD/svg11.dtd">
<svg xmlns:xlink="http://www.w3.org/1999/xlink" width="460.8pt" height="345.6pt" viewBox="0 0 460.8 345.6" xmlns="http://www.w3.org/2000/svg" version="1.1">
 <metadata>
  <rdf:RDF xmlns:dc="http://purl.org/dc/elements/1.1/" xmlns:cc="http://creativecommons.org/ns#" xmlns:rdf="http://www.w3.org/1999/02/22-rdf-syntax-ns#">
   <cc:Work>
    <dc:type rdf:resource="http://purl.org/dc/dcmitype/StillImage"/>
    <dc:date>2024-05-24T14:37:25.542994</dc:date>
    <dc:format>image/svg+xml</dc:format>
    <dc:creator>
     <cc:Agent>
      <dc:title>Matplotlib v3.8.2, https://matplotlib.org/</dc:title>
     </cc:Agent>
    </dc:creator>
   </cc:Work>
  </rdf:RDF>
 </metadata>
 <defs>
  <style type="text/css">*{stroke-linejoin: round; stroke-linecap: butt}</style>
 </defs>
 <g id="figure_1">
  <g id="patch_1">
   <path d="M 0 345.6 
L 460.8 345.6 
L 460.8 0 
L 0 0 
z
" style="fill: #ffffff"/>
  </g>
  <g id="axes_1">
   <g id="patch_2">
    <path d="M 57.6 307.584 
L 414.72 307.584 
L 414.72 41.472 
L 57.6 41.472 
z
" style="fill: #ffffff"/>
   </g>
   <g id="matplotlib.axis_1">
    <g id="xtick_1">
     <g id="line2d_1">
      <defs>
       <path id="m4baef7c628" d="M 0 0 
L 0 3.5 
" style="stroke: #000000; stroke-width: 0.8"/>
      </defs>
      <g>
       <use xlink:href="#m4baef7c628" x="73.832727" y="307.584" style="stroke: #000000; stroke-width: 0.8"/>
      </g>
     </g>
     <g id="text_1">
      <!-- 0 -->
      <g transform="translate(70.651477 322.182437) scale(0.1 -0.1)">
       <defs>
        <path id="DejaVuSans-30" d="M 2034 4250 
Q 1547 4250 1301 3770 
Q 1056 3291 1056 2328 
Q 1056 1369 1301 889 
Q 1547 409 2034 409 
Q 2525 409 2770 889 
Q 3016 1369 3016 2328 
Q 3016 3291 2770 3770 
Q 2525 4250 2034 4250 
z
M 2034 4750 
Q 2819 4750 3233 4129 
Q 3647 3509 3647 2328 
Q 3647 1150 3233 529 
Q 2819 -91 2034 -91 
Q 1250 -91 836 529 
Q 422 1150 422 2328 
Q 422 3509 836 4129 
Q 1250 4750 2034 4750 
z
" transform="scale(0.015625)"/>
       </defs>
       <use xlink:href="#DejaVuSans-30"/>
      </g>
     </g>
    </g>
    <g id="xtick_2">
     <g id="line2d_2">
      <g>
       <use xlink:href="#m4baef7c628" x="138.763636" y="307.584" style="stroke: #000000; stroke-width: 0.8"/>
      </g>
     </g>
     <g id="text_2">
      <!-- 2 -->
      <g transform="translate(135.582386 322.182437) scale(0.1 -0.1)">
       <defs>
        <path id="DejaVuSans-32" d="M 1228 531 
L 3431 531 
L 3431 0 
L 469 0 
L 469 531 
Q 828 903 1448 1529 
Q 2069 2156 2228 2338 
Q 2531 2678 2651 2914 
Q 2772 3150 2772 3378 
Q 2772 3750 2511 3984 
Q 2250 4219 1831 4219 
Q 1534 4219 1204 4116 
Q 875 4013 500 3803 
L 500 4441 
Q 881 4594 1212 4672 
Q 1544 4750 1819 4750 
Q 2544 4750 2975 4387 
Q 3406 4025 3406 3419 
Q 3406 3131 3298 2873 
Q 3191 2616 2906 2266 
Q 2828 2175 2409 1742 
Q 1991 1309 1228 531 
z
" transform="scale(0.015625)"/>
       </defs>
       <use xlink:href="#DejaVuSans-32"/>
      </g>
     </g>
    </g>
    <g id="xtick_3">
     <g id="line2d_3">
      <g>
       <use xlink:href="#m4baef7c628" x="203.694545" y="307.584" style="stroke: #000000; stroke-width: 0.8"/>
      </g>
     </g>
     <g id="text_3">
      <!-- 4 -->
      <g transform="translate(200.513295 322.182437) scale(0.1 -0.1)">
       <defs>
        <path id="DejaVuSans-34" d="M 2419 4116 
L 825 1625 
L 2419 1625 
L 2419 4116 
z
M 2253 4666 
L 3047 4666 
L 3047 1625 
L 3713 1625 
L 3713 1100 
L 3047 1100 
L 3047 0 
L 2419 0 
L 2419 1100 
L 313 1100 
L 313 1709 
L 2253 4666 
z
" transform="scale(0.015625)"/>
       </defs>
       <use xlink:href="#DejaVuSans-34"/>
      </g>
     </g>
    </g>
    <g id="xtick_4">
     <g id="line2d_4">
      <g>
       <use xlink:href="#m4baef7c628" x="268.625455" y="307.584" style="stroke: #000000; stroke-width: 0.8"/>
      </g>
     </g>
     <g id="text_4">
      <!-- 6 -->
      <g transform="translate(265.444205 322.182437) scale(0.1 -0.1)">
       <defs>
        <path id="DejaVuSans-36" d="M 2113 2584 
Q 1688 2584 1439 2293 
Q 1191 2003 1191 1497 
Q 1191 994 1439 701 
Q 1688 409 2113 409 
Q 2538 409 2786 701 
Q 3034 994 3034 1497 
Q 3034 2003 2786 2293 
Q 2538 2584 2113 2584 
z
M 3366 4563 
L 3366 3988 
Q 3128 4100 2886 4159 
Q 2644 4219 2406 4219 
Q 1781 4219 1451 3797 
Q 1122 3375 1075 2522 
Q 1259 2794 1537 2939 
Q 1816 3084 2150 3084 
Q 2853 3084 3261 2657 
Q 3669 2231 3669 1497 
Q 3669 778 3244 343 
Q 2819 -91 2113 -91 
Q 1303 -91 875 529 
Q 447 1150 447 2328 
Q 447 3434 972 4092 
Q 1497 4750 2381 4750 
Q 2619 4750 2861 4703 
Q 3103 4656 3366 4563 
z
" transform="scale(0.015625)"/>
       </defs>
       <use xlink:href="#DejaVuSans-36"/>
      </g>
     </g>
    </g>
    <g id="xtick_5">
     <g id="line2d_5">
      <g>
       <use xlink:href="#m4baef7c628" x="333.556364" y="307.584" style="stroke: #000000; stroke-width: 0.8"/>
      </g>
     </g>
     <g id="text_5">
      <!-- 8 -->
      <g transform="translate(330.375114 322.182437) scale(0.1 -0.1)">
       <defs>
        <path id="DejaVuSans-38" d="M 2034 2216 
Q 1584 2216 1326 1975 
Q 1069 1734 1069 1313 
Q 1069 891 1326 650 
Q 1584 409 2034 409 
Q 2484 409 2743 651 
Q 3003 894 3003 1313 
Q 3003 1734 2745 1975 
Q 2488 2216 2034 2216 
z
M 1403 2484 
Q 997 2584 770 2862 
Q 544 3141 544 3541 
Q 544 4100 942 4425 
Q 1341 4750 2034 4750 
Q 2731 4750 3128 4425 
Q 3525 4100 3525 3541 
Q 3525 3141 3298 2862 
Q 3072 2584 2669 2484 
Q 3125 2378 3379 2068 
Q 3634 1759 3634 1313 
Q 3634 634 3220 271 
Q 2806 -91 2034 -91 
Q 1263 -91 848 271 
Q 434 634 434 1313 
Q 434 1759 690 2068 
Q 947 2378 1403 2484 
z
M 1172 3481 
Q 1172 3119 1398 2916 
Q 1625 2713 2034 2713 
Q 2441 2713 2670 2916 
Q 2900 3119 2900 3481 
Q 2900 3844 2670 4047 
Q 2441 4250 2034 4250 
Q 1625 4250 1398 4047 
Q 1172 3844 1172 3481 
z
" transform="scale(0.015625)"/>
       </defs>
       <use xlink:href="#DejaVuSans-38"/>
      </g>
     </g>
    </g>
    <g id="xtick_6">
     <g id="line2d_6">
      <g>
       <use xlink:href="#m4baef7c628" x="398.487273" y="307.584" style="stroke: #000000; stroke-width: 0.8"/>
      </g>
     </g>
     <g id="text_6">
      <!-- 10 -->
      <g transform="translate(392.124773 322.182437) scale(0.1 -0.1)">
       <defs>
        <path id="DejaVuSans-31" d="M 794 531 
L 1825 531 
L 1825 4091 
L 703 3866 
L 703 4441 
L 1819 4666 
L 2450 4666 
L 2450 531 
L 3481 531 
L 3481 0 
L 794 0 
L 794 531 
z
" transform="scale(0.015625)"/>
       </defs>
       <use xlink:href="#DejaVuSans-31"/>
       <use xlink:href="#DejaVuSans-30" x="63.623047"/>
      </g>
     </g>
    </g>
    <g id="text_7">
     <!-- Time [$s$] -->
     <g transform="translate(215.66 335.860562) scale(0.1 -0.1)">
      <defs>
       <path id="DejaVuSans-54" d="M -19 4666 
L 3928 4666 
L 3928 4134 
L 2272 4134 
L 2272 0 
L 1638 0 
L 1638 4134 
L -19 4134 
L -19 4666 
z
" transform="scale(0.015625)"/>
       <path id="DejaVuSans-69" d="M 603 3500 
L 1178 3500 
L 1178 0 
L 603 0 
L 603 3500 
z
M 603 4863 
L 1178 4863 
L 1178 4134 
L 603 4134 
L 603 4863 
z
" transform="scale(0.015625)"/>
       <path id="DejaVuSans-6d" d="M 3328 2828 
Q 3544 3216 3844 3400 
Q 4144 3584 4550 3584 
Q 5097 3584 5394 3201 
Q 5691 2819 5691 2113 
L 5691 0 
L 5113 0 
L 5113 2094 
Q 5113 2597 4934 2840 
Q 4756 3084 4391 3084 
Q 3944 3084 3684 2787 
Q 3425 2491 3425 1978 
L 3425 0 
L 2847 0 
L 2847 2094 
Q 2847 2600 2669 2842 
Q 2491 3084 2119 3084 
Q 1678 3084 1418 2786 
Q 1159 2488 1159 1978 
L 1159 0 
L 581 0 
L 581 3500 
L 1159 3500 
L 1159 2956 
Q 1356 3278 1631 3431 
Q 1906 3584 2284 3584 
Q 2666 3584 2933 3390 
Q 3200 3197 3328 2828 
z
" transform="scale(0.015625)"/>
       <path id="DejaVuSans-65" d="M 3597 1894 
L 3597 1613 
L 953 1613 
Q 991 1019 1311 708 
Q 1631 397 2203 397 
Q 2534 397 2845 478 
Q 3156 559 3463 722 
L 3463 178 
Q 3153 47 2828 -22 
Q 2503 -91 2169 -91 
Q 1331 -91 842 396 
Q 353 884 353 1716 
Q 353 2575 817 3079 
Q 1281 3584 2069 3584 
Q 2775 3584 3186 3129 
Q 3597 2675 3597 1894 
z
M 3022 2063 
Q 3016 2534 2758 2815 
Q 2500 3097 2075 3097 
Q 1594 3097 1305 2825 
Q 1016 2553 972 2059 
L 3022 2063 
z
" transform="scale(0.015625)"/>
       <path id="DejaVuSans-20" transform="scale(0.015625)"/>
       <path id="DejaVuSans-5b" d="M 550 4863 
L 1875 4863 
L 1875 4416 
L 1125 4416 
L 1125 -397 
L 1875 -397 
L 1875 -844 
L 550 -844 
L 550 4863 
z
" transform="scale(0.015625)"/>
       <path id="DejaVuSans-Oblique-73" d="M 3200 3397 
L 3091 2853 
Q 2863 2978 2609 3040 
Q 2356 3103 2088 3103 
Q 1634 3103 1373 2948 
Q 1113 2794 1113 2528 
Q 1113 2219 1719 2053 
Q 1766 2041 1788 2034 
L 1972 1978 
Q 2547 1819 2739 1644 
Q 2931 1469 2931 1166 
Q 2931 609 2489 259 
Q 2047 -91 1331 -91 
Q 1053 -91 747 -37 
Q 441 16 72 128 
L 184 722 
Q 500 559 806 475 
Q 1113 391 1394 391 
Q 1816 391 2080 572 
Q 2344 753 2344 1031 
Q 2344 1331 1650 1516 
L 1591 1531 
L 1394 1581 
Q 956 1697 753 1886 
Q 550 2075 550 2369 
Q 550 2928 970 3256 
Q 1391 3584 2113 3584 
Q 2397 3584 2667 3537 
Q 2938 3491 3200 3397 
z
" transform="scale(0.015625)"/>
       <path id="DejaVuSans-5d" d="M 1947 4863 
L 1947 -844 
L 622 -844 
L 622 -397 
L 1369 -397 
L 1369 4416 
L 622 4416 
L 622 4863 
L 1947 4863 
z
" transform="scale(0.015625)"/>
      </defs>
      <use xlink:href="#DejaVuSans-54" transform="translate(0 0.015625)"/>
      <use xlink:href="#DejaVuSans-69" transform="translate(61.083984 0.015625)"/>
      <use xlink:href="#DejaVuSans-6d" transform="translate(88.867188 0.015625)"/>
      <use xlink:href="#DejaVuSans-65" transform="translate(186.279297 0.015625)"/>
      <use xlink:href="#DejaVuSans-20" transform="translate(247.802734 0.015625)"/>
      <use xlink:href="#DejaVuSans-5b" transform="translate(279.589844 0.015625)"/>
      <use xlink:href="#DejaVuSans-Oblique-73" transform="translate(318.603516 0.015625)"/>
      <use xlink:href="#DejaVuSans-5d" transform="translate(370.703125 0.015625)"/>
     </g>
    </g>
   </g>
   <g id="matplotlib.axis_2">
    <g id="ytick_1">
     <g id="line2d_7">
      <defs>
       <path id="ma224bdbad7" d="M 0 0 
L -3.5 0 
" style="stroke: #000000; stroke-width: 0.8"/>
      </defs>
      <g>
       <use xlink:href="#ma224bdbad7" x="57.6" y="280.874491" style="stroke: #000000; stroke-width: 0.8"/>
      </g>
     </g>
     <g id="text_8">
      <!-- −250 -->
      <g transform="translate(23.132812 284.67371) scale(0.1 -0.1)">
       <defs>
        <path id="DejaVuSans-2212" d="M 678 2272 
L 4684 2272 
L 4684 1741 
L 678 1741 
L 678 2272 
z
" transform="scale(0.015625)"/>
        <path id="DejaVuSans-35" d="M 691 4666 
L 3169 4666 
L 3169 4134 
L 1269 4134 
L 1269 2991 
Q 1406 3038 1543 3061 
Q 1681 3084 1819 3084 
Q 2600 3084 3056 2656 
Q 3513 2228 3513 1497 
Q 3513 744 3044 326 
Q 2575 -91 1722 -91 
Q 1428 -91 1123 -41 
Q 819 9 494 109 
L 494 744 
Q 775 591 1075 516 
Q 1375 441 1709 441 
Q 2250 441 2565 725 
Q 2881 1009 2881 1497 
Q 2881 1984 2565 2268 
Q 2250 2553 1709 2553 
Q 1456 2553 1204 2497 
Q 953 2441 691 2322 
L 691 4666 
z
" transform="scale(0.015625)"/>
       </defs>
       <use xlink:href="#DejaVuSans-2212"/>
       <use xlink:href="#DejaVuSans-32" x="83.789062"/>
       <use xlink:href="#DejaVuSans-35" x="147.412109"/>
       <use xlink:href="#DejaVuSans-30" x="211.035156"/>
      </g>
     </g>
    </g>
    <g id="ytick_2">
     <g id="line2d_8">
      <g>
       <use xlink:href="#ma224bdbad7" x="57.6" y="248.387689" style="stroke: #000000; stroke-width: 0.8"/>
      </g>
     </g>
     <g id="text_9">
      <!-- 0 -->
      <g transform="translate(44.2375 252.186907) scale(0.1 -0.1)">
       <use xlink:href="#DejaVuSans-30"/>
      </g>
     </g>
    </g>
    <g id="ytick_3">
     <g id="line2d_9">
      <g>
       <use xlink:href="#ma224bdbad7" x="57.6" y="215.900886" style="stroke: #000000; stroke-width: 0.8"/>
      </g>
     </g>
     <g id="text_10">
      <!-- 250 -->
      <g transform="translate(31.5125 219.700105) scale(0.1 -0.1)">
       <use xlink:href="#DejaVuSans-32"/>
       <use xlink:href="#DejaVuSans-35" x="63.623047"/>
       <use xlink:href="#DejaVuSans-30" x="127.246094"/>
      </g>
     </g>
    </g>
    <g id="ytick_4">
     <g id="line2d_10">
      <g>
       <use xlink:href="#ma224bdbad7" x="57.6" y="183.414084" style="stroke: #000000; stroke-width: 0.8"/>
      </g>
     </g>
     <g id="text_11">
      <!-- 500 -->
      <g transform="translate(31.5125 187.213303) scale(0.1 -0.1)">
       <use xlink:href="#DejaVuSans-35"/>
       <use xlink:href="#DejaVuSans-30" x="63.623047"/>
       <use xlink:href="#DejaVuSans-30" x="127.246094"/>
      </g>
     </g>
    </g>
    <g id="ytick_5">
     <g id="line2d_11">
      <g>
       <use xlink:href="#ma224bdbad7" x="57.6" y="150.927282" style="stroke: #000000; stroke-width: 0.8"/>
      </g>
     </g>
     <g id="text_12">
      <!-- 750 -->
      <g transform="translate(31.5125 154.726501) scale(0.1 -0.1)">
       <defs>
        <path id="DejaVuSans-37" d="M 525 4666 
L 3525 4666 
L 3525 4397 
L 1831 0 
L 1172 0 
L 2766 4134 
L 525 4134 
L 525 4666 
z
" transform="scale(0.015625)"/>
       </defs>
       <use xlink:href="#DejaVuSans-37"/>
       <use xlink:href="#DejaVuSans-35" x="63.623047"/>
       <use xlink:href="#DejaVuSans-30" x="127.246094"/>
      </g>
     </g>
    </g>
    <g id="ytick_6">
     <g id="line2d_12">
      <g>
       <use xlink:href="#ma224bdbad7" x="57.6" y="118.44048" style="stroke: #000000; stroke-width: 0.8"/>
      </g>
     </g>
     <g id="text_13">
      <!-- 1000 -->
      <g transform="translate(25.15 122.239699) scale(0.1 -0.1)">
       <use xlink:href="#DejaVuSans-31"/>
       <use xlink:href="#DejaVuSans-30" x="63.623047"/>
       <use xlink:href="#DejaVuSans-30" x="127.246094"/>
       <use xlink:href="#DejaVuSans-30" x="190.869141"/>
      </g>
     </g>
    </g>
    <g id="ytick_7">
     <g id="line2d_13">
      <g>
       <use xlink:href="#ma224bdbad7" x="57.6" y="85.953678" style="stroke: #000000; stroke-width: 0.8"/>
      </g>
     </g>
     <g id="text_14">
      <!-- 1250 -->
      <g transform="translate(25.15 89.752896) scale(0.1 -0.1)">
       <use xlink:href="#DejaVuSans-31"/>
       <use xlink:href="#DejaVuSans-32" x="63.623047"/>
       <use xlink:href="#DejaVuSans-35" x="127.246094"/>
       <use xlink:href="#DejaVuSans-30" x="190.869141"/>
      </g>
     </g>
    </g>
    <g id="ytick_8">
     <g id="line2d_14">
      <g>
       <use xlink:href="#ma224bdbad7" x="57.6" y="53.466875" style="stroke: #000000; stroke-width: 0.8"/>
      </g>
     </g>
     <g id="text_15">
      <!-- 1500 -->
      <g transform="translate(25.15 57.266094) scale(0.1 -0.1)">
       <use xlink:href="#DejaVuSans-31"/>
       <use xlink:href="#DejaVuSans-35" x="63.623047"/>
       <use xlink:href="#DejaVuSans-30" x="127.246094"/>
       <use xlink:href="#DejaVuSans-30" x="190.869141"/>
      </g>
     </g>
    </g>
    <g id="text_16">
     <!-- Voltage [$mV$] -->
     <g transform="translate(17.032812 207.478) rotate(-90) scale(0.1 -0.1)">
      <defs>
       <path id="DejaVuSans-56" d="M 1831 0 
L 50 4666 
L 709 4666 
L 2188 738 
L 3669 4666 
L 4325 4666 
L 2547 0 
L 1831 0 
z
" transform="scale(0.015625)"/>
       <path id="DejaVuSans-6f" d="M 1959 3097 
Q 1497 3097 1228 2736 
Q 959 2375 959 1747 
Q 959 1119 1226 758 
Q 1494 397 1959 397 
Q 2419 397 2687 759 
Q 2956 1122 2956 1747 
Q 2956 2369 2687 2733 
Q 2419 3097 1959 3097 
z
M 1959 3584 
Q 2709 3584 3137 3096 
Q 3566 2609 3566 1747 
Q 3566 888 3137 398 
Q 2709 -91 1959 -91 
Q 1206 -91 779 398 
Q 353 888 353 1747 
Q 353 2609 779 3096 
Q 1206 3584 1959 3584 
z
" transform="scale(0.015625)"/>
       <path id="DejaVuSans-6c" d="M 603 4863 
L 1178 4863 
L 1178 0 
L 603 0 
L 603 4863 
z
" transform="scale(0.015625)"/>
       <path id="DejaVuSans-74" d="M 1172 4494 
L 1172 3500 
L 2356 3500 
L 2356 3053 
L 1172 3053 
L 1172 1153 
Q 1172 725 1289 603 
Q 1406 481 1766 481 
L 2356 481 
L 2356 0 
L 1766 0 
Q 1100 0 847 248 
Q 594 497 594 1153 
L 594 3053 
L 172 3053 
L 172 3500 
L 594 3500 
L 594 4494 
L 1172 4494 
z
" transform="scale(0.015625)"/>
       <path id="DejaVuSans-61" d="M 2194 1759 
Q 1497 1759 1228 1600 
Q 959 1441 959 1056 
Q 959 750 1161 570 
Q 1363 391 1709 391 
Q 2188 391 2477 730 
Q 2766 1069 2766 1631 
L 2766 1759 
L 2194 1759 
z
M 3341 1997 
L 3341 0 
L 2766 0 
L 2766 531 
Q 2569 213 2275 61 
Q 1981 -91 1556 -91 
Q 1019 -91 701 211 
Q 384 513 384 1019 
Q 384 1609 779 1909 
Q 1175 2209 1959 2209 
L 2766 2209 
L 2766 2266 
Q 2766 2663 2505 2880 
Q 2244 3097 1772 3097 
Q 1472 3097 1187 3025 
Q 903 2953 641 2809 
L 641 3341 
Q 956 3463 1253 3523 
Q 1550 3584 1831 3584 
Q 2591 3584 2966 3190 
Q 3341 2797 3341 1997 
z
" transform="scale(0.015625)"/>
       <path id="DejaVuSans-67" d="M 2906 1791 
Q 2906 2416 2648 2759 
Q 2391 3103 1925 3103 
Q 1463 3103 1205 2759 
Q 947 2416 947 1791 
Q 947 1169 1205 825 
Q 1463 481 1925 481 
Q 2391 481 2648 825 
Q 2906 1169 2906 1791 
z
M 3481 434 
Q 3481 -459 3084 -895 
Q 2688 -1331 1869 -1331 
Q 1566 -1331 1297 -1286 
Q 1028 -1241 775 -1147 
L 775 -588 
Q 1028 -725 1275 -790 
Q 1522 -856 1778 -856 
Q 2344 -856 2625 -561 
Q 2906 -266 2906 331 
L 2906 616 
Q 2728 306 2450 153 
Q 2172 0 1784 0 
Q 1141 0 747 490 
Q 353 981 353 1791 
Q 353 2603 747 3093 
Q 1141 3584 1784 3584 
Q 2172 3584 2450 3431 
Q 2728 3278 2906 2969 
L 2906 3500 
L 3481 3500 
L 3481 434 
z
" transform="scale(0.015625)"/>
       <path id="DejaVuSans-Oblique-6d" d="M 5747 2113 
L 5338 0 
L 4763 0 
L 5166 2094 
Q 5191 2228 5203 2325 
Q 5216 2422 5216 2491 
Q 5216 2772 5059 2928 
Q 4903 3084 4622 3084 
Q 4203 3084 3875 2770 
Q 3547 2456 3450 1953 
L 3066 0 
L 2491 0 
L 2900 2094 
Q 2925 2209 2937 2307 
Q 2950 2406 2950 2484 
Q 2950 2769 2794 2926 
Q 2638 3084 2363 3084 
Q 1938 3084 1609 2770 
Q 1281 2456 1184 1953 
L 800 0 
L 225 0 
L 909 3500 
L 1484 3500 
L 1375 2956 
Q 1609 3263 1923 3423 
Q 2238 3584 2597 3584 
Q 2978 3584 3223 3384 
Q 3469 3184 3519 2828 
Q 3781 3197 4126 3390 
Q 4472 3584 4856 3584 
Q 5306 3584 5551 3325 
Q 5797 3066 5797 2591 
Q 5797 2488 5784 2364 
Q 5772 2241 5747 2113 
z
" transform="scale(0.015625)"/>
       <path id="DejaVuSans-Oblique-56" d="M 1319 0 
L 500 4666 
L 1119 4666 
L 1797 653 
L 4063 4666 
L 4750 4666 
L 2053 0 
L 1319 0 
z
" transform="scale(0.015625)"/>
      </defs>
      <use xlink:href="#DejaVuSans-56" transform="translate(0 0.015625)"/>
      <use xlink:href="#DejaVuSans-6f" transform="translate(68.408203 0.015625)"/>
      <use xlink:href="#DejaVuSans-6c" transform="translate(129.589844 0.015625)"/>
      <use xlink:href="#DejaVuSans-74" transform="translate(157.373047 0.015625)"/>
      <use xlink:href="#DejaVuSans-61" transform="translate(196.582031 0.015625)"/>
      <use xlink:href="#DejaVuSans-67" transform="translate(257.861328 0.015625)"/>
      <use xlink:href="#DejaVuSans-65" transform="translate(321.337891 0.015625)"/>
      <use xlink:href="#DejaVuSans-20" transform="translate(382.861328 0.015625)"/>
      <use xlink:href="#DejaVuSans-5b" transform="translate(414.648438 0.015625)"/>
      <use xlink:href="#DejaVuSans-Oblique-6d" transform="translate(453.662109 0.015625)"/>
      <use xlink:href="#DejaVuSans-Oblique-56" transform="translate(551.074219 0.015625)"/>
      <use xlink:href="#DejaVuSans-5d" transform="translate(619.482422 0.015625)"/>
     </g>
    </g>
   </g>
   <g id="line2d_15">
    <path d="M 73.832727 256.436024 
L 73.879113 256.328951 
L 74.018271 257.845821 
L 74.064657 257.792285 
L 74.111042 257.619778 
L 74.157428 257.780388 
L 74.203814 257.946946 
L 74.2502 257.875564 
L 74.621287 254.258869 
L 74.667673 254.389736 
L 74.899602 258.054019 
L 74.945988 257.869615 
L 75.038759 257.649521 
L 75.177917 255.424777 
L 75.270689 255.912555 
L 75.317074 256.340848 
L 75.36346 255.960143 
L 75.595389 254.246972 
L 75.688161 254.437325 
L 75.827319 253.545048 
L 75.873705 253.848422 
L 75.92009 254.020929 
L 75.966476 253.913856 
L 76.012862 253.759194 
L 76.059248 253.931701 
L 76.105634 254.122053 
L 76.15202 253.85437 
L 76.244791 252.902609 
L 76.337563 253.170292 
L 76.383949 253.146498 
L 76.523106 254.020929 
L 76.801422 252.17689 
L 76.847807 251.998435 
L 76.894193 252.260169 
L 77.033351 252.741999 
L 77.126122 252.367243 
L 77.26528 251.332202 
L 77.311666 251.546348 
L 77.358052 251.81998 
L 77.404438 251.593936 
L 77.868296 247.679816 
L 78.332154 237.662523 
L 78.37854 238.304962 
L 78.517698 241.172145 
L 78.564084 240.67247 
L 78.842399 237.097415 
L 79.352643 226.610189 
L 79.538186 226.28897 
L 79.630958 227.258577 
L 80.094817 239.411385 
L 80.558675 254.163693 
L 80.651447 254.437325 
L 80.697833 254.354045 
L 80.744219 254.437325 
L 81.115305 256.679913 
L 81.300849 256.900008 
L 81.671935 254.169642 
L 81.764707 253.640224 
L 81.857479 254.383788 
L 81.903865 254.181539 
L 81.950251 253.884113 
L 81.996636 254.270766 
L 82.135794 254.931051 
L 82.18218 254.758544 
L 82.228566 254.972691 
L 82.274951 255.585387 
L 82.367723 255.353395 
L 82.506881 254.746647 
L 82.599652 254.818029 
L 82.646038 255.168991 
L 82.785196 262.753343 
L 83.109897 295.291699 
L 83.156283 294.322092 
L 83.249054 282.859311 
L 83.434598 219.17455 
L 83.759299 53.568 
L 83.805684 53.579897 
L 84.315929 53.579897 
L 84.547858 58.517161 
L 84.687016 184.292481 
L 84.872559 259.267516 
L 84.918945 258.880862 
L 85.150874 253.545048 
L 85.19726 253.901959 
L 85.429189 266.340295 
L 85.893048 285.928743 
L 86.356906 289.938039 
L 86.449678 291.401373 
L 86.496064 290.782728 
L 86.635221 288.569882 
L 86.681607 288.986277 
L 86.727993 289.759584 
L 86.774379 289.41457 
L 87.238237 282.401275 
L 87.284623 282.413172 
L 87.423781 281.50305 
L 87.794867 277.232019 
L 88.21234 272.842018 
L 88.815356 265.56104 
L 88.908128 266.274862 
L 89.000899 267.286109 
L 89.093671 267.179035 
L 89.835845 258.113504 
L 89.928616 258.696459 
L 89.975002 258.327651 
L 90.67079 251.094261 
L 90.763562 251.153746 
L 91.181034 247.697661 
L 91.273806 246.46632 
L 91.320192 246.716157 
L 91.366578 246.787539 
L 91.830436 241.065071 
L 91.923208 239.887266 
L 91.969594 239.922957 
L 92.062365 240.755749 
L 92.34068 236.020734 
L 92.57261 233.48072 
L 92.618995 233.647278 
L 92.850925 239.369746 
L 92.897311 239.19129 
L 93.175626 242.599787 
L 94.056957 260.891459 
L 94.288886 264.936447 
L 94.381658 264.407029 
L 94.428043 264.60333 
L 94.520815 265.584834 
L 94.706359 267.547843 
L 94.752744 267.535946 
L 94.938288 267.369388 
L 94.984674 267.036271 
L 95.03106 267.066014 
L 95.077445 267.226624 
L 95.123831 267.036271 
L 95.309375 265.680011 
L 95.448532 265.376637 
L 96.005162 259.196133 
L 96.051548 259.553044 
L 96.237092 263.169739 
L 96.283477 263.098357 
L 96.376249 263.134048 
L 96.422635 262.800931 
L 96.608178 260.68921 
L 96.932879 258.464467 
L 96.979265 258.482312 
L 97.025651 258.280063 
L 97.25758 255.472365 
L 97.443124 256.364642 
L 97.582281 257.482962 
L 97.628667 257.435374 
L 97.675053 257.53055 
L 97.721439 257.363992 
L 97.81421 256.311106 
L 97.860596 256.483612 
L 97.953368 257.328301 
L 98.231683 253.747297 
L 98.278069 253.961444 
L 98.370841 256.5312 
L 98.417226 256.418179 
L 98.509998 256.17429 
L 98.60277 256.769141 
L 98.649156 256.436024 
L 98.741927 256.781038 
L 98.927471 255.531851 
L 99.113014 253.93765 
L 99.1594 253.592636 
L 99.252172 254.371891 
L 99.298557 254.181539 
L 99.344943 254.122053 
L 99.669644 257.066566 
L 99.855188 257.899358 
L 99.901573 257.881513 
L 100.040731 256.05532 
L 100.087117 256.120753 
L 100.133503 255.912555 
L 100.179889 256.102908 
L 100.27266 256.85242 
L 100.319046 256.566892 
L 100.458204 255.632975 
L 100.504589 255.864967 
L 100.597361 256.650171 
L 100.643747 256.590686 
L 100.922062 254.829926 
L 101.06122 255.264168 
L 101.200377 255.686512 
L 101.293149 255.674615 
L 101.432306 256.685862 
L 101.478692 256.537149 
L 101.710622 254.877514 
L 101.803393 254.61578 
L 101.896165 254.092311 
L 101.942551 254.359994 
L 102.081708 253.913856 
L 102.17448 253.545048 
L 102.220866 253.687812 
L 102.313638 253.925753 
L 102.499181 252.831227 
L 102.545567 252.843124 
L 102.591953 253.033476 
L 102.638338 253.009682 
L 102.963039 250.350697 
L 103.009425 249.868868 
L 103.055811 249.880765 
L 103.241354 253.116755 
L 103.28774 253.027527 
L 103.380512 253.259519 
L 103.426898 253.122704 
L 103.473284 253.063218 
L 103.51967 253.152446 
L 103.566055 253.140549 
L 103.658827 252.45647 
L 103.705213 252.551647 
L 103.797985 252.783638 
L 103.983528 250.083014 
L 104.122686 251.49876 
L 104.169071 251.165643 
L 104.215457 250.784939 
L 104.261843 251.189437 
L 104.354615 251.885413 
L 104.401001 251.582039 
L 104.540158 250.398285 
L 104.586544 250.564844 
L 104.679316 250.927703 
L 104.725702 250.808733 
L 105.143174 248.012933 
L 105.235946 248.435277 
L 105.282332 248.334152 
L 105.421489 248.488813 
L 105.514261 247.709558 
L 106.117277 233.962549 
L 106.163663 234.331357 
L 106.210049 234.842929 
L 106.256435 234.497915 
L 107.137766 223.481273 
L 107.416081 226.28897 
L 107.555238 228.20439 
L 108.297412 253.640224 
L 108.343798 253.699709 
L 108.575727 254.984588 
L 108.714884 254.437325 
L 108.76127 254.788287 
L 108.807656 254.835875 
L 109.039585 253.408232 
L 109.132357 252.914506 
L 109.178743 252.997785 
L 109.3179 254.758544 
L 109.457058 255.644872 
L 109.642601 253.866267 
L 109.688987 253.925753 
L 109.735373 253.681864 
L 109.967302 250.886063 
L 110.152846 252.164993 
L 110.199232 251.891362 
L 110.245617 251.653421 
L 110.338389 253.85437 
L 110.477547 263.431473 
L 110.802248 293.667756 
L 110.848633 292.620818 
L 110.941405 280.961736 
L 111.126949 209.430889 
L 111.451649 53.568 
L 111.498035 53.579897 
L 111.729965 53.579897 
L 111.915508 53.579897 
L 112.240209 59.659275 
L 112.56491 256.352745 
L 112.611296 257.536499 
L 112.657681 256.69181 
L 112.796839 253.247622 
L 112.843225 253.449872 
L 113.075154 263.972788 
L 113.399855 278.980882 
L 113.724556 287.213621 
L 113.910099 288.85541 
L 113.956485 288.879204 
L 114.188414 287.487253 
L 114.420344 286.476006 
L 114.513115 286.963784 
L 114.930588 282.66301 
L 115.208903 278.481207 
L 115.301675 279.141491 
L 115.487218 278.02912 
L 115.57999 278.481207 
L 115.626376 278.231369 
L 116.229392 269.968887 
L 116.461321 267.405079 
L 116.739636 264.537896 
L 116.832408 264.561691 
L 117.713739 255.745997 
L 117.760125 255.841173 
L 117.852896 256.471715 
L 117.899282 256.317054 
L 118.084826 254.591986 
L 118.316755 251.153746 
L 118.363141 251.344099 
L 118.409527 251.355996 
L 118.548684 248.595887 
L 118.641456 247.888014 
L 118.687842 247.989138 
L 118.780613 248.524504 
L 119.198086 243.384991 
L 119.290858 241.719408 
L 119.337244 242.171495 
L 119.383629 242.873419 
L 119.430015 242.605736 
L 120.172189 234.973796 
L 120.26496 233.462874 
L 120.311346 233.87927 
L 121.099906 245.811983 
L 121.517378 255.186837 
L 121.749308 258.244372 
L 121.981237 264.288059 
L 122.398709 268.017776 
L 122.491481 267.619225 
L 122.537867 267.726298 
L 122.630639 268.576936 
L 122.677025 268.511502 
L 122.95534 265.88226 
L 123.048111 265.572937 
L 123.094497 265.76329 
L 123.280041 266.417626 
L 123.465584 265.08516 
L 123.883057 261.159142 
L 124.0686 260.272814 
L 124.114986 260.350145 
L 124.161372 260.338248 
L 124.532458 257.97074 
L 124.578844 258.149196 
L 124.671616 258.660767 
L 124.764388 259.327001 
L 124.810773 259.225876 
L 124.996317 257.923152 
L 125.042703 258.054019 
L 125.089089 257.976689 
L 125.135474 257.911255 
L 125.599333 254.865617 
L 125.645719 254.710956 
L 125.73849 254.972691 
L 125.784876 254.960794 
L 125.831262 254.960794 
L 125.924034 256.138599 
L 125.97042 256.091011 
L 126.248735 254.710956 
L 126.295121 254.794235 
L 126.434278 255.549696 
L 126.619822 256.465767 
L 126.666207 256.519303 
L 126.898137 257.494859 
L 127.037294 256.554995 
L 127.08368 256.73345 
L 127.130066 256.959493 
L 127.176452 256.834575 
L 127.222838 256.816729 
L 127.269223 256.97139 
L 127.315609 256.882163 
L 127.361995 256.864317 
L 127.64031 255.073815 
L 127.686696 255.448571 
L 127.965011 256.269466 
L 128.057783 256.05532 
L 128.243326 256.828626 
L 128.707185 254.009032 
L 128.753571 254.163693 
L 128.9855 255.97204 
L 129.031886 255.829276 
L 129.217429 254.925102 
L 129.263815 254.948897 
L 129.310201 254.806132 
L 129.356587 254.865617 
L 129.402972 255.05597 
L 129.495744 254.235075 
L 129.54213 254.258869 
L 129.634902 254.919154 
L 129.820445 253.330901 
L 129.866831 253.533151 
L 129.959603 254.187487 
L 130.005988 253.973341 
L 130.284303 252.521904 
L 130.377075 252.426728 
L 130.562619 251.49876 
L 130.794548 253.806782 
L 130.840934 253.521254 
L 130.933705 252.73605 
L 130.980091 252.771741 
L 131.026477 252.902609 
L 131.072863 252.747947 
L 131.21202 251.760495 
L 131.44395 250.094911 
L 131.490336 249.827228 
L 131.536721 250.201985 
L 131.629493 249.773692 
L 131.675879 250.071117 
L 131.815036 251.933001 
L 132.139737 249.738001 
L 132.186123 250.035426 
L 132.232509 250.356646 
L 132.278895 250.332852 
L 132.510824 249.047973 
L 132.55721 249.071767 
L 132.696368 250.689763 
L 132.742753 250.071117 
L 132.835525 249.030128 
L 132.881911 249.22048 
L 132.974683 249.392987 
L 133.345769 247.679816 
L 133.392155 247.82258 
L 133.438541 247.935602 
L 133.763242 246.121306 
L 133.9024 248.26277 
L 134.041557 247.82258 
L 134.134329 248.02483 
L 134.180715 248.399586 
L 134.2271 248.316307 
L 134.551801 244.812634 
L 134.690959 247.26342 
L 134.737345 246.347349 
L 135.201203 234.735856 
L 135.386747 233.629433 
L 135.433133 233.516411 
L 135.479518 233.772197 
L 135.525904 233.510462 
L 135.711448 232.177996 
L 136.221692 222.791245 
L 136.592779 226.027235 
L 136.731936 229.614188 
L 137.427724 252.087663 
L 137.566882 251.843774 
L 137.752425 254.330251 
L 137.891582 254.258869 
L 137.984354 253.7354 
L 138.03074 253.806782 
L 138.216283 254.211281 
L 138.309055 253.771091 
L 138.58737 252.212581 
L 138.680142 252.628977 
L 138.726528 252.450522 
L 138.772914 252.468367 
L 138.819299 252.700359 
L 138.865685 252.628977 
L 139.144 251.05857 
L 139.37593 250.071117 
L 139.468701 254.026877 
L 139.654245 270.307952 
L 139.93256 295.488 
L 140.025331 286.511697 
L 140.164489 246.002336 
L 140.674733 53.568 
L 140.953048 53.603691 
L 141.324135 60.813287 
L 141.370521 68.855674 
L 141.60245 247.828529 
L 141.695222 255.264168 
L 141.741608 254.395685 
L 141.927151 250.832527 
L 141.973537 251.034776 
L 142.112695 257.709006 
L 142.576553 283.82297 
L 142.854868 286.809122 
L 142.901254 286.987578 
L 142.994026 288.504448 
L 143.086797 288.480654 
L 143.133183 288.510396 
L 143.272341 289.384828 
L 143.689813 286.047713 
L 143.736199 286.606873 
L 143.782585 286.547388 
L 143.921743 284.643864 
L 143.968128 284.721195 
L 144.014514 284.703349 
L 144.246444 281.247264 
L 144.663916 276.601477 
L 144.756688 275.257114 
L 145.359704 269.189632 
L 145.452476 268.910052 
L 146.009106 262.32505 
L 146.055492 263.253018 
L 146.101877 264.133398 
L 146.148263 263.538547 
L 146.380192 261.1294 
L 146.426578 261.028275 
L 146.565736 259.160442 
L 146.658508 258.196784 
L 146.704893 258.422827 
L 146.751279 258.220578 
L 147.122366 254.128002 
L 147.400681 253.37849 
L 147.910925 247.049274 
L 148.050083 245.407485 
L 148.235626 244.075018 
L 148.374784 242.825831 
L 148.42117 242.95075 
L 148.467556 243.266021 
L 148.513941 243.123256 
L 149.256115 233.290367 
L 149.302501 233.326058 
L 149.441658 235.794691 
L 149.53443 235.699514 
L 149.580816 235.729257 
L 149.627202 235.449677 
L 149.673588 235.592441 
L 149.812745 237.900464 
L 150.64769 255.751946 
L 150.87962 260.677313 
L 151.482636 268.315201 
L 151.575407 267.95829 
L 151.621793 268.047518 
L 151.668179 268.059415 
L 151.760951 267.434821 
L 151.807337 267.607328 
L 151.853722 267.88096 
L 151.900108 267.607328 
L 151.99288 266.756691 
L 152.085652 268.047518 
L 152.132038 267.892857 
L 152.224809 266.798331 
L 152.363967 268.315201 
L 152.410353 268.249767 
L 152.54951 265.906054 
L 152.781439 262.610579 
L 152.827825 262.164441 
L 152.874211 262.253668 
L 153.059755 264.32375 
L 153.10614 264.276162 
L 153.384455 260.558343 
L 153.523613 259.541147 
L 153.662771 262.420227 
L 153.709156 261.813478 
L 154.358558 256.727501 
L 154.544102 257.994534 
L 154.590487 257.958843 
L 154.683259 257.494859 
L 154.729645 257.685212 
L 154.776031 257.857718 
L 154.822417 257.720903 
L 154.915188 257.179588 
L 154.961574 257.405632 
L 155.00796 257.685212 
L 155.054346 257.655469 
L 155.193503 257.29261 
L 155.239889 257.340198 
L 155.286275 257.661418 
L 155.332661 257.482962 
L 155.518204 256.328951 
L 155.56459 256.352745 
L 155.750134 257.209331 
L 156.028449 255.912555 
L 156.12122 256.215929 
L 156.213992 257.399683 
L 156.260378 257.149846 
L 156.35315 256.192135 
L 156.399536 256.45387 
L 156.492307 257.209331 
L 156.538693 257.137949 
L 156.724236 258.910605 
L 156.770622 258.29196 
L 156.956166 257.709006 
L 157.141709 257.262867 
L 157.373638 255.17494 
L 157.420024 255.341498 
L 157.46641 255.103558 
L 157.512796 255.198734 
L 157.605568 256.102908 
L 157.744725 258.868965 
L 157.791111 258.363342 
L 157.930268 257.512705 
L 158.02304 258.244372 
L 158.208584 256.323003 
L 158.301355 256.424127 
L 158.347741 256.358694 
L 158.440513 256.067217 
L 158.486899 256.150496 
L 158.533284 256.602583 
L 158.626056 256.424127 
L 158.672442 256.388436 
L 158.718828 256.209981 
L 158.8116 255.139249 
L 158.857985 255.377189 
L 158.904371 255.472365 
L 159.089915 253.580739 
L 159.136301 253.806782 
L 159.229072 255.139249 
L 159.275458 254.841823 
L 159.600159 253.366593 
L 159.646545 253.277365 
L 159.739317 254.29456 
L 159.785702 254.092311 
L 159.92486 252.837175 
L 159.971246 253.134601 
L 160.110403 252.510007 
L 160.156789 252.200684 
L 160.203175 252.278015 
L 160.295947 252.557595 
L 160.342333 252.396985 
L 160.527876 251.796186 
L 160.620648 252.069817 
L 161.03812 249.934302 
L 161.084506 250.118705 
L 161.177278 251.37979 
L 161.223664 251.124004 
L 161.270049 250.594586 
L 161.316435 250.648123 
L 161.362821 251.05857 
L 161.409207 250.856321 
L 161.733908 248.50071 
L 161.780294 248.952797 
L 161.965837 251.046673 
L 162.012223 250.927703 
L 162.058609 251.088313 
L 162.104995 250.963394 
L 162.151381 250.493462 
L 162.244152 250.529153 
L 162.336924 250.201985 
L 162.568853 251.225129 
L 162.615239 251.213232 
L 162.893554 248.072418 
L 162.93994 248.167594 
L 163.032712 248.530453 
L 163.125483 247.311008 
L 163.171869 247.394287 
L 163.357413 249.297811 
L 163.403798 249.172892 
L 163.49657 248.38174 
L 163.542956 248.714857 
L 163.589342 249.05987 
L 163.635728 248.691063 
L 163.774885 248.108109 
L 163.960429 248.268718 
L 164.006814 248.227079 
L 164.238744 246.216482 
L 164.84176 234.712062 
L 164.888146 234.777495 
L 164.934531 235.27717 
L 165.027303 235.193891 
L 165.166461 235.461574 
L 165.305618 233.129758 
L 165.862248 220.352356 
L 165.908634 220.709266 
L 166.51165 240.220383 
L 166.836351 248.82193 
L 167.30021 254.693111 
L 167.392981 253.878164 
L 167.439367 254.29456 
L 167.532139 254.794235 
L 167.671296 253.533151 
L 167.717682 253.85437 
L 167.995997 252.21853 
L 168.227927 253.05727 
L 168.41347 253.830576 
L 168.459856 253.884113 
L 168.506242 253.806782 
L 168.599013 253.342798 
L 168.923714 250.035426 
L 168.9701 249.82128 
L 169.062872 253.372541 
L 169.248415 270.343643 
L 169.480344 292.829016 
L 169.573116 286.761534 
L 169.712274 251.724803 
L 169.944203 119.162232 
L 170.129746 53.579897 
L 170.500833 53.585846 
L 170.918306 61.610387 
L 171.196621 262.622476 
L 171.243007 264.942395 
L 171.289393 264.418926 
L 171.567708 255.97204 
L 171.614093 256.602583 
L 171.753251 263.853818 
L 172.124338 280.741641 
L 172.495425 286.939989 
L 172.54181 286.999475 
L 172.588196 286.809122 
L 172.634582 286.910247 
L 172.727354 287.552686 
L 172.77374 287.2969 
L 172.866511 286.583079 
L 173.005669 287.701399 
L 173.423141 284.66171 
L 173.469527 284.703349 
L 174.490016 271.759389 
L 174.582788 271.771286 
L 174.629174 271.688007 
L 174.814717 269.689307 
L 175.046646 266.893507 
L 175.278575 265.810878 
L 175.55689 261.20673 
L 175.835206 259.029575 
L 175.974363 259.630375 
L 176.159906 257.007081 
L 176.438222 253.283313 
L 176.530993 253.235725 
L 176.623765 253.93765 
L 176.90208 251.37979 
L 176.994852 250.190088 
L 177.041238 250.761145 
L 177.087623 250.773042 
L 177.365939 248.310358 
L 177.644254 243.527755 
L 177.737025 242.225031 
L 177.783411 242.254774 
L 177.829797 242.242877 
L 178.8039 235.009487 
L 178.850286 235.033281 
L 179.082215 233.450977 
L 179.128601 233.706763 
L 179.453302 237.99564 
L 179.592459 241.427931 
L 179.824388 248.976591 
L 179.91716 250.225779 
L 181.03042 270.569687 
L 181.076806 270.325798 
L 181.123192 270.367437 
L 181.26235 269.915351 
L 181.401507 271.47386 
L 181.447893 271.265663 
L 181.772594 268.916001 
L 181.81898 268.701854 
L 181.865366 268.874361 
L 181.911752 268.844619 
L 182.236452 265.709753 
L 182.421996 263.717002 
L 182.653925 260.933099 
L 182.746697 261.52795 
L 182.93224 263.258967 
L 183.025012 262.378587 
L 183.210555 260.921202 
L 183.349713 260.379887 
L 183.48887 258.636973 
L 183.535256 258.863017 
L 183.674414 260.082462 
L 184.045501 256.995184 
L 184.091886 256.406282 
L 184.138272 256.69181 
L 184.184658 257.233125 
L 184.27743 257.090361 
L 184.323816 256.977339 
L 184.370201 257.042772 
L 184.416587 257.268816 
L 184.462973 257.120103 
L 184.555745 257.007081 
L 184.602131 257.066566 
L 184.694902 257.459168 
L 184.880446 255.353395 
L 184.926832 255.424777 
L 185.019603 255.793585 
L 185.112375 257.554344 
L 185.158761 257.506756 
L 185.205147 257.399683 
L 185.251533 257.524602 
L 185.297918 257.471065 
L 185.576233 256.221878 
L 185.808163 256.233775 
L 186.040092 257.137949 
L 186.132864 256.662068 
L 186.17925 256.709656 
L 186.318407 257.114155 
L 186.457565 256.471715 
L 186.50395 256.543097 
L 186.550336 256.786986 
L 186.596722 256.638274 
L 186.73588 256.709656 
L 186.967809 257.369941 
L 187.014195 257.328301 
L 187.338896 254.639574 
L 187.385282 253.979289 
L 187.431667 254.29456 
L 187.570825 255.270116 
L 187.756368 256.900008 
L 187.802754 256.81078 
L 188.034683 255.406932 
L 188.173841 255.876864 
L 188.220227 256.543097 
L 188.266613 256.477664 
L 188.498542 253.330901 
L 188.544928 253.693761 
L 188.730471 254.746647 
L 188.823243 253.973341 
L 188.869629 254.377839 
L 188.916014 255.038124 
L 189.008786 254.913205 
L 189.147944 255.900658 
L 189.19433 255.85307 
L 189.472645 252.551647 
L 189.519031 252.545698 
L 189.611802 253.134601 
L 189.658188 252.979939 
L 189.843731 251.927053 
L 189.936503 252.105508 
L 190.029275 251.504709 
L 190.075661 251.7367 
L 190.261204 251.028828 
L 190.30759 251.213232 
L 190.353976 251.409532 
L 190.400362 251.135901 
L 190.493133 249.82128 
L 190.539519 249.868868 
L 190.632291 251.296511 
L 190.678677 251.088313 
L 190.725063 251.135901 
L 190.771448 251.605833 
L 190.817834 251.344099 
L 191.188921 247.905859 
L 191.281693 247.650073 
L 191.467236 248.905209 
L 191.513622 248.601835 
L 191.606394 247.429978 
L 191.652779 247.513258 
L 191.745551 247.489464 
L 191.931095 251.808083 
L 192.023866 251.213232 
L 192.255796 249.624979 
L 192.580496 247.26342 
L 192.626882 247.441875 
L 192.673268 247.501361 
L 192.905197 245.336102 
L 193.647371 234.593091 
L 193.740143 233.986343 
L 194.018458 228.186545 
L 194.343159 221.946557 
L 194.43593 222.523562 
L 195.22449 242.635478 
L 195.502805 249.82128 
L 195.549191 249.666619 
L 195.595577 249.726104 
L 196.013049 253.675915 
L 196.059435 253.646173 
L 196.198593 254.235075 
L 196.244978 254.104208 
L 196.430522 252.884763 
L 196.476908 253.069167 
L 196.523293 253.164343 
L 196.755223 252.307758 
L 196.847994 252.468367 
L 196.940766 252.034126 
L 196.987152 252.21853 
L 197.033538 252.105508 
L 197.219081 250.523204 
L 197.265467 250.642174 
L 197.358239 250.903909 
L 197.497396 249.892662 
L 197.590168 251.094261 
L 197.68294 255.359344 
L 198.054026 288.468757 
L 198.100412 287.731141 
L 198.23957 267.298006 
L 198.425113 189.420098 
L 198.749814 53.573949 
L 199.028129 53.603691 
L 199.35283 59.504614 
L 199.491988 62.110062 
L 199.816689 268.636421 
L 199.863074 268.499605 
L 200.187775 254.996485 
L 200.234161 256.406282 
L 200.790791 278.968985 
L 201.022721 285.881154 
L 201.115492 285.542089 
L 201.208264 285.078105 
L 201.25465 285.131642 
L 201.440193 285.893052 
L 201.486579 285.952537 
L 202.228753 278.516898 
L 202.321524 277.493754 
L 202.599839 273.91275 
L 202.692611 272.639769 
L 202.785383 274.543292 
L 202.831769 274.091205 
L 203.388399 265.668114 
L 203.481171 266.613927 
L 203.527556 266.477111 
L 203.7131 265.138696 
L 204.130572 259.08906 
L 204.223344 260.028925 
L 204.26973 259.588735 
L 204.362502 259.273464 
L 204.501659 257.929101 
L 204.82636 253.61643 
L 205.846849 244.015533 
L 206.125164 239.922957 
L 206.17155 239.875369 
L 206.310707 241.136454 
L 206.357093 241.100763 
L 206.403479 241.11266 
L 206.542636 241.624232 
L 207.238424 233.843579 
L 207.28481 233.605638 
L 207.331196 233.87927 
L 207.377582 233.855476 
L 207.423968 233.688918 
L 207.470353 233.100015 
L 207.563125 233.326058 
L 207.609511 233.403389 
L 207.795054 235.806588 
L 209.093858 265.132748 
L 209.604102 271.67611 
L 209.74326 272.842018 
L 209.789646 272.699254 
L 209.928803 271.771286 
L 209.975189 271.866462 
L 210.067961 272.247167 
L 210.160733 271.604728 
L 210.253504 272.508901 
L 210.810134 266.346244 
L 210.85652 266.494957 
L 210.949292 267.44077 
L 211.042064 266.143994 
L 211.08845 266.530648 
L 211.134835 266.798331 
L 211.320379 264.466514 
L 211.41315 264.543845 
L 211.459536 264.686609 
L 211.691466 261.908655 
L 211.737851 262.277462 
L 211.923395 261.587435 
L 212.248096 259.660117 
L 212.340867 260.040822 
L 212.387253 260.243071 
L 212.665568 258.446621 
L 212.804726 259.677963 
L 212.851112 259.588735 
L 212.897498 259.993234 
L 212.943883 259.773139 
L 213.129427 258.434724 
L 213.222198 257.958843 
L 213.268584 257.982637 
L 213.500514 258.880862 
L 213.778829 257.566241 
L 213.825215 257.518653 
L 213.917986 257.827976 
L 214.010758 257.399683 
L 214.057144 257.447271 
L 214.10353 257.518653 
L 214.196301 257.161743 
L 214.335459 258.839223 
L 214.474616 258.625076 
L 214.521002 258.767841 
L 214.567388 258.654819 
L 214.706546 258.184887 
L 214.845703 258.125401 
L 214.984861 256.929751 
L 215.031247 257.500808 
L 215.077632 258.315754 
L 215.170404 258.113504 
L 215.495105 259.683911 
L 215.541491 259.64822 
L 215.727034 258.232475 
L 215.77342 258.375239 
L 215.819806 258.315754 
L 215.866192 258.636973 
L 215.912578 258.440673 
L 215.958963 258.018328 
L 216.005349 258.113504 
L 216.144507 258.5299 
L 216.190893 258.381187 
L 216.283664 257.352095 
L 216.33005 257.471065 
L 216.422822 258.167041 
L 216.469208 258.065916 
L 216.515594 258.161093 
L 216.56198 258.107556 
L 217.11861 255.353395 
L 217.257767 255.710306 
L 217.350539 255.365292 
L 217.536082 256.596634 
L 217.860783 253.437975 
L 217.953555 253.681864 
L 218.046327 254.663368 
L 218.092712 254.473016 
L 218.139098 254.258869 
L 218.278256 255.597284 
L 218.324642 255.430726 
L 218.602957 253.7354 
L 218.695728 254.746647 
L 218.742114 254.699059 
L 218.881272 253.503408 
L 218.927658 253.521254 
L 218.974044 253.711606 
L 219.020429 253.539099 
L 219.113201 253.408232 
L 219.205973 253.771091 
L 219.252359 253.628327 
L 219.484288 252.414831 
L 219.623445 251.998435 
L 219.669831 252.028178 
L 219.808989 252.724153 
L 219.855375 252.575441 
L 220.040918 251.49876 
L 220.087304 251.582039 
L 220.180076 252.61708 
L 220.226461 252.355346 
L 220.272847 252.212581 
L 220.319233 252.266118 
L 220.365619 252.307758 
L 220.783092 249.666619 
L 220.829477 249.743949 
L 220.922249 249.14315 
L 221.015021 249.333502 
L 221.061407 249.26212 
L 221.154178 248.667269 
L 221.200564 248.934952 
L 221.386108 251.010982 
L 221.432493 250.975291 
L 221.80358 248.120006 
L 221.849966 248.613732 
L 221.942738 249.476266 
L 222.035509 249.428678 
L 222.267439 248.453122 
L 222.684911 242.147701 
L 223.055998 236.728607 
L 223.102384 236.740504 
L 223.287927 237.127157 
L 223.473471 234.402739 
L 223.798172 226.277073 
L 223.844558 226.360352 
L 223.890943 226.134308 
L 224.076487 223.671625 
L 224.122873 223.588346 
L 224.26203 226.28897 
L 225.37529 254.116105 
L 225.514448 255.311756 
L 225.560834 255.198734 
L 225.699991 254.348097 
L 225.746377 254.359994 
L 225.792763 254.348097 
L 226.071078 253.152446 
L 226.117464 253.307107 
L 226.256622 253.771091 
L 226.349393 254.639574 
L 226.395779 254.383788 
L 226.627708 253.200034 
L 226.813252 254.877514 
L 226.859638 254.282663 
L 227.091567 252.355346 
L 227.137953 252.521904 
L 227.27711 255.627027 
L 227.416268 267.518101 
L 227.694583 293.864056 
L 227.740969 292.97178 
L 227.83374 281.669609 
L 228.019284 212.077977 
L 228.390371 53.573949 
L 228.715072 53.579897 
L 229.132544 61.295116 
L 229.457245 258.196784 
L 229.503631 257.946946 
L 229.73556 253.836525 
L 229.828332 256.162393 
L 230.431348 284.858011 
L 230.663277 287.582429 
L 230.709663 287.493201 
L 230.84882 289.057659 
L 230.941592 290.223568 
L 230.987978 289.783378 
L 231.590994 285.095951 
L 232.054853 280.616722 
L 232.472325 278.296803 
L 233.121727 269.617925 
L 233.260885 269.867762 
L 233.400042 267.654916 
L 233.771129 262.497557 
L 233.817515 262.842571 
L 233.863901 262.539197 
L 234.049444 259.576838 
L 234.142216 260.873614 
L 234.188601 260.671364 
L 234.606074 255.591336 
L 234.65246 255.69246 
L 234.838003 253.087013 
L 235.023547 250.309058 
L 235.116318 250.725454 
L 235.162704 250.570792 
L 235.301862 251.552297 
L 235.348248 251.213232 
L 235.626563 246.347349 
L 235.99765 240.648676 
L 236.136807 239.048526 
L 236.183193 239.161548 
L 236.32235 240.79144 
L 236.368736 240.743852 
L 236.415122 240.618933 
L 236.647051 237.162848 
L 236.693437 237.341303 
L 236.739823 237.287767 
L 236.878981 235.372346 
L 236.925366 235.687617 
L 237.157296 233.367698 
L 237.250067 233.450977 
L 237.342839 233.379595 
L 237.435611 234.045828 
L 237.760312 239.79209 
L 237.945855 243.46827 
L 239.01273 266.869713 
L 239.198273 267.476461 
L 239.476588 271.521449 
L 239.662131 270.867112 
L 239.708517 271.099104 
L 239.847675 271.937844 
L 239.940447 271.212126 
L 240.775392 264.531948 
L 240.868164 264.954292 
L 240.914549 264.752043 
L 241.332022 261.801581 
L 241.424794 262.099007 
L 241.517565 261.670714 
L 241.563951 261.813478 
L 241.610337 262.015728 
L 241.703109 260.897408 
L 241.842266 259.297258 
L 241.888652 259.594684 
L 241.981424 260.302557 
L 242.02781 260.064616 
L 242.120581 260.040822 
L 242.398896 257.827976 
L 242.445282 258.184887 
L 242.538054 257.595984 
L 242.723597 256.995184 
L 242.862755 257.53055 
L 243.048298 256.281363 
L 243.233842 257.29261 
L 243.372999 258.059968 
L 243.465771 257.720903 
L 243.651314 256.305157 
L 243.6977 256.418179 
L 243.744086 256.5312 
L 243.836858 256.17429 
L 243.883244 256.29326 
L 243.929629 256.376539 
L 244.022401 255.912555 
L 244.161559 257.625727 
L 244.347102 255.674615 
L 244.393488 255.876864 
L 244.439874 256.120753 
L 244.48626 255.977989 
L 244.625417 254.484913 
L 244.718189 253.711606 
L 244.903732 260.362042 
L 244.996504 259.303207 
L 245.274819 257.233125 
L 245.321205 257.256919 
L 245.413977 257.072515 
L 245.506748 256.424127 
L 245.553134 256.751295 
L 245.692292 258.500158 
L 245.738677 258.113504 
L 245.970607 256.215929 
L 246.063378 255.674615 
L 246.109764 255.829276 
L 246.15615 255.7341 
L 246.388079 254.609831 
L 246.527237 256.120753 
L 246.573623 255.97204 
L 246.666394 255.656769 
L 246.71278 255.805482 
L 246.94471 254.532501 
L 247.130253 254.782338 
L 247.315796 254.235075 
L 247.362182 254.318354 
L 247.547726 252.49811 
L 247.594111 252.837175 
L 247.686883 253.818679 
L 247.733269 253.533151 
L 247.779655 253.473666 
L 247.872426 253.949547 
L 247.918812 253.794885 
L 248.05797 253.426078 
L 248.104356 253.473666 
L 248.289899 252.521904 
L 248.336285 252.563544 
L 248.382671 252.926403 
L 248.429057 252.908557 
L 248.568214 252.272066 
L 248.660986 251.474966 
L 248.707372 251.49876 
L 248.800143 252.533801 
L 248.892915 252.355346 
L 249.264002 250.273367 
L 249.310388 250.552947 
L 249.356774 251.391687 
L 249.403159 251.124004 
L 249.681474 249.250223 
L 249.867018 248.649423 
L 250.006175 250.237676 
L 250.052561 249.827228 
L 250.238105 248.346049 
L 250.330876 249.809383 
L 250.423648 249.333502 
L 250.562806 248.096212 
L 250.655577 248.893312 
L 250.701963 248.441225 
L 250.748349 248.001035 
L 250.794735 248.072418 
L 250.887507 248.976591 
L 250.933892 248.607784 
L 250.980278 248.572093 
L 251.026664 248.744599 
L 251.07305 248.572093 
L 251.351365 246.620981 
L 251.397751 246.549599 
L 251.536908 247.013583 
L 251.583294 246.989789 
L 251.722452 246.472268 
L 251.768838 246.698312 
L 251.815223 247.70361 
L 251.861609 247.174192 
L 251.954381 246.561496 
L 252.000767 246.58529 
L 252.139924 246.698312 
L 252.371854 245.014883 
L 252.418239 245.062471 
L 252.557397 246.228379 
L 252.603783 245.86552 
L 253.114027 241.100763 
L 253.438728 233.117861 
L 253.485114 233.189243 
L 253.577886 233.926858 
L 253.624272 233.700815 
L 253.670657 233.742454 
L 253.717043 233.498565 
L 253.763429 233.528308 
L 253.809815 233.712712 
L 253.902587 231.821085 
L 254.134516 225.140907 
L 254.459217 221.714565 
L 254.551988 222.220188 
L 254.923075 228.953903 
L 255.572477 251.118055 
L 255.618863 250.880115 
L 255.665249 250.927703 
L 255.850792 254.080414 
L 255.897178 254.092311 
L 256.314651 252.37914 
L 256.407422 252.81933 
L 256.54658 254.020929 
L 256.639352 253.301159 
L 256.732123 253.408232 
L 257.056824 252.628977 
L 257.149596 252.902609 
L 257.195982 252.855021 
L 257.335139 251.564194 
L 257.381525 252.248272 
L 257.427911 252.486213 
L 257.520683 251.61773 
L 257.567069 251.933001 
L 257.65984 255.436674 
L 257.891769 280.414473 
L 258.077313 293.828365 
L 258.170085 287.921494 
L 258.309242 253.842473 
L 258.541171 119.418018 
L 258.726715 53.579897 
L 259.097802 53.579897 
L 259.515274 61.610387 
L 259.839975 257.29261 
L 259.886361 257.060618 
L 260.11829 252.212581 
L 260.211062 254.77639 
L 260.814078 284.376181 
L 260.90685 286.452212 
L 261.092393 289.587077 
L 261.277936 290.164083 
L 262.02011 284.608173 
L 262.855055 274.834769 
L 263.040599 272.818224 
L 263.086984 272.669511 
L 263.179756 271.206177 
L 263.226142 271.67611 
L 263.318914 274.120948 
L 263.365299 273.900853 
L 263.411685 274.091205 
L 264.061087 264.228574 
L 264.107473 264.192883 
L 264.339402 263.116202 
L 264.849647 256.311106 
L 264.942418 255.579439 
L 265.59182 248.369843 
L 265.684592 248.667269 
L 265.730978 248.762445 
L 265.777364 248.453122 
L 265.823749 248.548299 
L 265.916521 250.761145 
L 265.962907 249.398936 
L 266.241222 243.402836 
L 266.612309 238.941453 
L 266.797852 237.353201 
L 266.844238 237.668472 
L 267.122553 234.961899 
L 267.168939 235.211737 
L 267.725569 229.168049 
L 267.771955 229.453578 
L 268.05027 234.902414 
L 268.328585 245.972593 
L 268.6069 253.628327 
L 268.746058 256.543097 
L 269.302688 267.577586 
L 269.859318 272.425622 
L 269.905704 272.47321 
L 270.044861 272.080609 
L 270.091247 272.062763 
L 270.184019 271.569037 
L 270.369562 268.327098 
L 270.50872 266.584184 
L 270.555106 267.066014 
L 270.694263 272.104403 
L 270.740649 271.140744 
L 270.926193 268.689957 
L 271.018964 267.952342 
L 271.436437 261.861066 
L 271.575594 259.802882 
L 271.62198 260.451269 
L 271.761138 264.16314 
L 271.807524 263.937097 
L 271.900295 263.068614 
L 271.946681 263.609929 
L 271.993067 263.062666 
L 272.085839 262.039522 
L 272.132225 262.396432 
L 272.317768 263.169739 
L 272.596083 259.624426 
L 272.735241 261.539847 
L 272.781626 261.444671 
L 273.059942 259.08906 
L 273.106327 259.112854 
L 273.152713 258.672664 
L 273.199099 258.755944 
L 273.245485 259.469765 
L 273.291871 258.821377 
L 273.384642 257.935049 
L 273.431028 257.97074 
L 273.5238 258.422827 
L 273.570186 258.256269 
L 273.662958 258.744047 
L 273.709343 258.625076 
L 273.755729 258.518003 
L 273.987658 256.067217 
L 274.034044 255.531851 
L 274.08043 255.710306 
L 274.126816 256.067217 
L 274.173202 255.924452 
L 274.312359 255.531851 
L 274.451517 255.805482 
L 274.590675 259.065266 
L 274.63706 259.017678 
L 274.961761 255.740048 
L 275.054533 254.544398 
L 275.100919 254.960794 
L 275.193691 256.424127 
L 275.240076 256.221878 
L 275.332848 256.162393 
L 275.518391 260.576188 
L 275.564777 260.320402 
L 275.796707 255.228477 
L 275.843092 256.007731 
L 276.028636 260.29066 
L 276.075022 260.017028 
L 276.260565 258.232475 
L 276.399723 256.037474 
L 276.446108 256.126702 
L 276.492494 256.519303 
L 276.585266 256.376539 
L 276.770809 257.756594 
L 276.817195 257.661418 
L 277.002739 255.948246 
L 277.09551 256.186187 
L 277.32744 254.437325 
L 277.420211 253.354696 
L 277.512983 254.229127 
L 277.559369 254.062568 
L 277.605755 254.139899 
L 277.698526 255.49616 
L 277.744912 254.996485 
L 277.976841 252.373191 
L 278.115999 252.533801 
L 278.162385 252.426728 
L 278.255156 253.259519 
L 278.301542 253.003733 
L 278.394314 252.771741 
L 278.4407 252.795535 
L 278.533472 253.354696 
L 278.672629 251.355996 
L 278.719015 251.61773 
L 278.811787 252.200684 
L 278.858172 251.950847 
L 278.950944 252.028178 
L 279.322031 249.642825 
L 279.461188 250.654071 
L 279.507574 250.61838 
L 279.739504 247.977241 
L 279.832275 248.298461 
L 279.878661 248.643475 
L 280.064204 251.7367 
L 280.249748 249.993787 
L 280.435291 248.476916 
L 280.528063 249.119356 
L 280.713606 247.299111 
L 280.852764 249.119356 
L 280.89915 248.774342 
L 280.991921 247.739301 
L 281.038307 247.935602 
L 281.223851 250.737351 
L 281.270237 250.118705 
L 281.502166 247.215832 
L 281.594937 246.728054 
L 281.641323 246.852973 
L 281.734095 246.751848 
L 281.919638 247.82258 
L 282.244339 245.574043 
L 282.290725 245.728704 
L 282.383497 246.597187 
L 282.429883 246.400886 
L 282.615426 248.82193 
L 282.661812 248.38174 
L 282.847355 246.204585 
L 283.032899 242.260722 
L 283.079285 242.397538 
L 283.12567 242.671169 
L 283.172056 242.385641 
L 283.543143 233.516411 
L 283.635915 234.432482 
L 283.682301 234.20049 
L 283.728686 234.372996 
L 283.867844 236.246777 
L 284.007002 233.290367 
L 284.424474 223.380148 
L 284.610018 222.553305 
L 284.702789 222.761503 
L 284.981104 228.180596 
L 285.120262 234.27782 
L 285.398577 244.860222 
L 285.676892 250.368543 
L 285.769664 249.868868 
L 285.862435 251.314356 
L 286.001593 252.950197 
L 286.047979 252.831227 
L 286.187136 252.170942 
L 286.279908 253.675915 
L 286.326294 253.545048 
L 286.419066 252.45647 
L 286.465451 252.908557 
L 286.511837 253.687812 
L 286.604609 253.634276 
L 286.650995 253.247622 
L 286.697381 253.390387 
L 286.743767 253.836525 
L 286.790152 253.771091 
L 286.975696 252.9383 
L 287.161239 255.020279 
L 287.207625 254.89536 
L 287.578712 250.463719 
L 287.671483 251.022879 
L 287.764255 253.467717 
L 287.949799 271.711801 
L 288.228114 295.363081 
L 288.320885 286.333241 
L 288.506429 225.146856 
L 288.923901 53.568 
L 289.063059 53.585846 
L 289.248602 53.568 
L 289.619689 60.765698 
L 289.666075 74.756597 
L 289.898004 250.683814 
L 289.990776 259.993234 
L 290.037162 258.755944 
L 290.222705 252.914506 
L 290.269091 252.979939 
L 290.361863 255.400983 
L 290.872107 283.198376 
L 291.104036 287.528892 
L 291.150422 287.433716 
L 291.196808 287.05896 
L 291.243194 287.528892 
L 291.28958 287.879854 
L 291.335965 287.77873 
L 291.428737 287.142239 
L 291.475123 287.261209 
L 291.521509 287.540789 
L 291.567895 287.285003 
L 291.753438 286.57713 
L 291.799824 286.993526 
L 291.84621 286.928092 
L 291.985367 286.404623 
L 292.124525 284.06091 
L 292.217296 285.327943 
L 292.263682 285.000775 
L 292.449226 281.009324 
L 292.495612 281.134243 
L 292.588383 283.347089 
L 292.634769 282.912847 
L 293.423329 269.403779 
L 293.5161 268.475811 
L 293.562486 268.761339 
L 293.701644 270.926597 
L 293.794415 270.67676 
L 293.840801 270.379334 
L 294.443817 258.833274 
L 294.629361 262.104955 
L 294.675746 261.944346 
L 295.232377 252.081714 
L 295.325148 250.82063 
L 295.371534 250.880115 
L 295.41792 250.77899 
L 295.510692 248.405534 
L 295.649849 243.016183 
L 295.696235 243.02808 
L 295.928164 248.786239 
L 296.020936 248.114057 
L 296.160094 240.012185 
L 296.252865 235.217685 
L 296.299251 235.913661 
L 296.53118 245.246875 
L 297.366126 234.509812 
L 297.458897 232.32076 
L 297.505283 232.659825 
L 297.598055 232.392142 
L 297.87637 229.132358 
L 297.922756 229.715312 
L 298.247457 237.27587 
L 298.293842 237.23423 
L 298.340228 237.495965 
L 299.175174 259.963491 
L 299.221559 259.469765 
L 299.267945 258.161093 
L 299.314331 259.005781 
L 299.592646 276.256463 
L 299.639032 275.899553 
L 299.731804 274.79313 
L 299.963733 272.169836 
L 300.102891 274.436219 
L 300.149276 273.906802 
L 300.288434 272.47321 
L 300.33482 272.520798 
L 300.381206 272.728996 
L 300.427591 272.485107 
L 300.473977 272.140094 
L 300.520363 272.199579 
L 300.566749 272.443468 
L 300.613135 272.199579 
L 300.984222 268.761339 
L 301.262537 265.88226 
L 301.494466 260.802231 
L 301.540852 261.278112 
L 301.680009 259.826676 
L 301.726395 259.505456 
L 301.819167 260.992584 
L 302.00471 263.354143 
L 302.051096 263.371988 
L 302.190254 260.861717 
L 302.468569 253.592636 
L 302.56134 258.827326 
L 302.607726 261.355443 
L 302.654112 261.194833 
L 302.839656 256.447921 
L 302.886041 257.310455 
L 302.978813 259.886161 
L 303.025199 259.481662 
L 303.117971 258.059968 
L 303.303514 262.830674 
L 303.3499 262.277462 
L 303.628215 257.233125 
L 303.767372 252.474316 
L 303.860144 253.420129 
L 304.324003 260.861717 
L 304.370388 260.326351 
L 304.416774 259.96944 
L 304.555932 262.217977 
L 304.602318 261.545795 
L 305.158948 247.870168 
L 305.298105 257.595984 
L 305.344491 257.471065 
L 305.530035 253.485563 
L 305.576421 253.806782 
L 305.715578 256.769141 
L 305.761964 255.977989 
L 305.80835 256.186187 
L 305.947507 256.816729 
L 305.993893 256.436024 
L 306.086665 255.353395 
L 306.318594 262.313153 
L 306.411366 261.420877 
L 306.504137 261.640972 
L 306.550523 261.96814 
L 306.875224 254.49681 
L 306.92161 254.591986 
L 307.014382 255.329601 
L 307.107153 254.806132 
L 307.153539 254.865617 
L 307.292697 256.067217 
L 307.571012 250.392337 
L 307.617398 250.410182 
L 307.756555 255.29391 
L 307.802941 255.180888 
L 308.081256 251.677215 
L 308.127642 251.046673 
L 308.174028 251.665318 
L 308.313186 258.149196 
L 308.359571 256.977339 
L 308.637886 252.634926 
L 308.730658 253.806782 
L 308.777044 253.324953 
L 308.869816 252.230427 
L 308.916202 252.385088 
L 308.962587 252.414831 
L 309.055359 251.165643 
L 309.240902 248.012933 
L 309.287288 248.613732 
L 309.426446 249.155047 
L 309.472832 248.405534 
L 309.519218 249.14315 
L 309.611989 251.570142 
L 309.658375 250.77899 
L 309.797533 247.679816 
L 309.93669 249.190738 
L 309.983076 248.774342 
L 310.029462 248.786239 
L 310.122234 251.451172 
L 310.215005 256.138599 
L 310.261391 256.007731 
L 310.632478 243.557498 
L 310.818021 252.248272 
L 310.864407 251.350047 
L 311.096336 245.556197 
L 311.189108 249.327553 
L 311.28188 253.437975 
L 311.328266 252.914506 
L 311.421037 251.903259 
L 311.467423 252.236375 
L 311.513809 252.307758 
L 311.606581 248.488813 
L 311.745738 244.158297 
L 312.070439 251.034776 
L 312.116825 250.130602 
L 312.348754 242.254774 
L 312.39514 242.813934 
L 312.487912 246.900561 
L 312.534298 246.513908 
L 312.580683 246.656672 
L 312.673455 244.830479 
L 312.766227 242.326156 
L 312.812613 242.445126 
L 312.998156 247.632228 
L 313.044542 247.489464 
L 313.137314 245.930954 
L 313.369243 239.006887 
L 313.415629 239.042578 
L 313.74033 235.033281 
L 314.157802 221.73241 
L 314.204188 221.77405 
L 314.29696 221.191096 
L 314.482503 223.647831 
L 314.714432 231.464174 
L 315.039133 233.070272 
L 315.317448 244.836428 
L 315.549378 260.302557 
L 315.642149 259.624426 
L 315.688535 259.909955 
L 315.734921 260.189535 
L 316.013236 253.021579 
L 316.059622 253.693761 
L 316.152394 255.121403 
L 316.19878 254.972691 
L 316.245165 254.960794 
L 316.384323 257.381838 
L 316.430709 257.215279 
L 316.52348 256.543097 
L 316.616252 258.500158 
L 316.662638 257.221228 
L 316.801796 251.843774 
L 316.848181 252.902609 
L 316.894567 252.408882 
L 317.033725 250.511307 
L 317.126497 252.973991 
L 317.172882 252.878815 
L 317.404812 247.156347 
L 317.451197 248.286564 
L 317.636741 264.716352 
L 317.915056 288.81377 
L 317.961442 289.587077 
L 318.054213 282.847414 
L 318.193371 245.211184 
L 318.657229 53.568 
L 318.703615 53.603691 
L 318.98193 53.579897 
L 319.353017 60.813287 
L 319.399403 66.892665 
L 319.631332 255.163043 
L 319.724104 266.173737 
L 319.77049 265.192233 
L 319.956033 253.759194 
L 320.002419 254.591986 
L 320.234348 262.063316 
L 320.605435 283.466059 
L 320.698207 284.17988 
L 320.744593 283.894352 
L 320.790978 283.596926 
L 320.930136 284.953187 
L 320.976522 284.810422 
L 321.162065 283.894352 
L 321.208451 284.405924 
L 321.393994 288.355735 
L 321.67231 283.573132 
L 321.765081 284.453512 
L 321.950625 286.392726 
L 322.089782 283.132942 
L 322.414483 276.125596 
L 322.692798 273.805677 
L 322.924727 270.35554 
L 323.110271 268.67806 
L 323.156657 268.844619 
L 323.295814 267.553792 
L 323.3422 268.154591 
L 323.434972 269.017125 
L 324.177145 259.136648 
L 324.548232 254.889411 
L 324.68739 253.699709 
L 324.780161 252.212581 
L 324.826547 252.575441 
L 324.919319 253.29521 
L 324.965705 253.116755 
L 325.429563 244.693663 
L 325.475949 245.508609 
L 325.522335 245.681116 
L 325.80065 241.041277 
L 325.986193 236.258674 
L 326.032579 236.496615 
L 326.171737 239.102063 
L 326.264508 241.665871 
L 326.310894 241.076969 
L 326.450052 237.971846 
L 326.589209 234.307563 
L 326.635595 234.43843 
L 326.821139 237.27587 
L 326.867524 237.079569 
L 327.284997 229.810488 
L 327.377769 230.04248 
L 327.516926 229.185895 
L 327.563312 229.287019 
L 327.795241 230.661125 
L 327.980785 236.240829 
L 328.212714 242.861522 
L 328.305486 245.068419 
L 328.351872 244.872119 
L 328.444643 246.835127 
L 328.908502 268.576936 
L 329.186817 271.170486 
L 329.465132 272.407777 
L 329.604289 271.569037 
L 329.650675 271.890256 
L 329.697061 272.110351 
L 329.882605 275.221423 
L 329.975376 275.013225 
L 330.207305 271.521449 
L 330.300077 273.573685 
L 330.346463 273.341693 
L 330.578392 270.908752 
L 330.671164 269.754741 
L 330.71755 270.105703 
L 331.459723 263.496907 
L 331.552495 261.920552 
L 331.598881 261.974088 
L 331.738038 263.72295 
L 331.784424 263.520701 
L 331.923582 261.96814 
L 331.969968 262.188235 
L 332.016354 262.5273 
L 332.062739 262.099007 
L 332.433826 258.880862 
L 332.526598 258.018328 
L 332.712141 256.769141 
L 332.851299 257.786336 
L 332.897685 257.697109 
L 333.036842 256.465767 
L 333.129614 258.232475 
L 333.222386 257.804182 
L 333.315157 257.946946 
L 333.361543 258.08971 
L 333.500701 258.934399 
L 333.547086 258.922502 
L 334.103717 254.104208 
L 334.150102 254.104208 
L 334.196488 254.675265 
L 334.335646 261.825375 
L 334.382032 261.20673 
L 334.613961 256.340848 
L 334.706733 256.29326 
L 334.799504 256.602583 
L 334.938662 258.97009 
L 334.985048 258.64887 
L 335.077819 257.399683 
L 335.124205 257.780388 
L 335.216977 258.839223 
L 335.263363 258.482312 
L 335.356135 259.380537 
L 335.448906 259.255619 
L 335.63445 258.541797 
L 335.773607 256.41223 
L 335.866379 256.501458 
L 335.959151 256.769141 
L 336.005536 256.626377 
L 336.19108 255.745997 
L 336.237466 256.067217 
L 336.283851 256.549046 
L 336.330237 256.483612 
L 336.423009 255.543748 
L 336.608552 253.223828 
L 336.654938 253.319004 
L 336.74771 254.806132 
L 336.794096 254.413531 
L 336.840482 253.675915 
L 336.886867 254.074465 
L 337.072411 255.085712 
L 337.165183 256.269466 
L 337.211568 255.864967 
L 337.350726 253.961444 
L 337.536269 255.900658 
L 337.675427 253.604533 
L 337.768199 254.270766 
L 337.814584 254.354045 
L 337.907356 253.884113 
L 337.953742 253.973341 
L 338.000128 254.026877 
L 338.0929 252.997785 
L 338.185671 251.593936 
L 338.232057 251.724803 
L 338.371215 252.164993 
L 338.556758 250.975291 
L 338.695916 254.437325 
L 338.742301 253.866267 
L 339.159774 244.539002 
L 339.20616 244.58659 
L 339.391703 248.465019 
L 339.438089 247.525155 
L 339.670018 245.461021 
L 339.76279 245.526455 
L 339.948333 240.874719 
L 339.994719 241.457673 
L 340.041105 241.74915 
L 340.31942 234.03988 
L 340.597735 227.234783 
L 340.690507 226.294918 
L 341.10798 231.077521 
L 341.710996 252.046023 
L 341.850153 252.914506 
L 341.896539 252.682514 
L 341.942925 252.878815 
L 342.174854 255.490211 
L 342.267626 255.835225 
L 342.685098 252.093611 
L 342.824256 253.640224 
L 342.870642 253.360644 
L 342.963413 252.759844 
L 343.102571 256.792935 
L 343.148957 256.590686 
L 343.473658 252.117405 
L 343.520044 252.283964 
L 343.612815 253.782988 
L 343.659201 253.330901 
L 343.705587 252.628977 
L 343.798359 252.872866 
L 343.89113 252.153096 
L 343.983902 253.949547 
L 344.169446 269.320499 
L 344.401375 285.904949 
L 344.447761 284.893702 
L 344.540532 274.721748 
L 344.67969 232.225584 
L 345.097162 53.568 
L 345.143548 53.579897 
L 345.421863 53.579897 
L 345.839336 61.336756 
L 346.117651 265.668114 
L 346.210423 270.926597 
L 346.256809 269.552491 
L 346.488738 261.96814 
L 346.535124 261.099657 
L 346.58151 261.872963 
L 347.091754 280.931993 
L 347.323683 282.94259 
L 347.370069 282.936641 
L 347.416455 282.567834 
L 347.462841 282.70465 
L 347.648384 283.216221 
L 347.787542 282.734392 
L 347.833927 282.799826 
L 347.880313 282.799826 
L 348.065857 280.818972 
L 348.112243 281.14614 
L 348.2514 281.883755 
L 348.390558 279.629269 
L 348.576101 277.7079 
L 348.622487 277.541342 
L 349.225503 266.1202 
L 349.36466 263.199481 
L 349.411046 263.253018 
L 349.503818 264.871013 
L 349.642975 271.509552 
L 350.292377 259.261567 
L 350.524307 256.590686 
L 350.70985 255.448571 
L 350.802622 255.61513 
L 351.173708 250.963394 
L 351.359252 247.82258 
L 351.405638 247.947499 
L 352.472512 237.043878 
L 352.565284 236.734555 
L 353.029142 232.427833 
L 353.075528 232.60034 
L 353.1683 231.178646 
L 353.400229 227.466775 
L 353.446615 227.478672 
L 353.539387 226.883821 
L 353.585773 227.062276 
L 353.771316 232.285069 
L 353.864088 234.468173 
L 353.910473 234.129107 
L 353.956859 233.914961 
L 354.003245 234.164799 
L 354.327946 240.149001 
L 355.162891 264.686609 
L 355.487592 268.939795 
L 355.858679 275.019173 
L 355.997837 275.7092 
L 356.136994 274.733645 
L 356.322538 273.63317 
L 356.368923 273.805677 
L 356.415309 273.710501 
L 356.554467 272.151991 
L 356.693624 275.048916 
L 356.786396 274.376734 
L 357.018325 271.384633 
L 357.157483 270.105703 
L 357.343026 269.665513 
L 357.714113 265.495607 
L 357.760499 265.691908 
L 357.85327 264.591433 
L 357.899656 264.859116 
L 357.946042 264.930498 
L 358.270743 262.872313 
L 358.363515 263.776487 
L 358.456286 263.496907 
L 358.595444 262.455918 
L 358.827373 260.08841 
L 358.966531 258.886811 
L 359.059302 259.112854 
L 359.105688 259.065266 
L 359.19846 259.553044 
L 359.291232 259.338898 
L 359.523161 257.703057 
L 359.615933 257.720903 
L 359.75509 256.566892 
L 359.847862 255.888761 
L 360.126177 258.071865 
L 360.450878 255.519954 
L 360.497264 255.960143 
L 360.636421 258.821377 
L 360.682807 258.613179 
L 360.729193 258.64887 
L 360.868351 259.196133 
L 360.961122 258.791635 
L 361.007508 258.964142 
L 361.193051 258.113504 
L 361.332209 258.161093 
L 361.378595 258.309805 
L 361.517752 257.215279 
L 361.564138 257.649521 
L 361.749682 258.767841 
L 361.888839 258.327651 
L 362.027997 258.500158 
L 362.399084 256.5312 
L 362.491855 256.41223 
L 362.538241 256.471715 
L 362.631013 256.721553 
L 362.723784 255.793585 
L 362.77017 256.198084 
L 362.955714 255.49616 
L 363.094871 254.425428 
L 363.141257 254.538449 
L 363.373186 256.5312 
L 363.419572 256.150496 
L 363.465958 256.114805 
L 363.651501 255.41288 
L 363.837045 253.794885 
L 363.883431 253.925753 
L 364.161746 251.885413 
L 364.347289 255.139249 
L 364.393675 254.710956 
L 364.67199 252.117405 
L 364.857533 251.647473 
L 365.089463 252.450522 
L 365.135848 252.426728 
L 365.182234 252.260169 
L 365.22862 252.391037 
L 365.321392 252.438625 
L 365.78525 249.535751 
L 365.924408 250.505359 
L 365.970794 250.267418 
L 366.063565 249.868868 
L 366.156337 250.38044 
L 366.202723 250.142499 
L 366.341881 250.065169 
L 366.388266 250.285264 
L 366.434652 250.21983 
L 366.527424 250.005684 
L 366.57381 250.118705 
L 366.666581 250.344749 
L 366.898511 249.202635 
L 366.991282 248.810033 
L 367.037668 249.012282 
L 367.13044 249.547648 
L 367.269597 246.9422 
L 367.640684 239.798039 
L 367.826228 235.735205 
L 367.872613 235.913661 
L 368.011771 238.078919 
L 368.058157 237.989691 
L 368.429244 229.875922 
L 368.614787 225.063576 
L 368.661173 225.646531 
L 368.707559 226.051029 
L 368.753945 225.932059 
L 368.846716 225.188495 
L 369.356961 232.20179 
L 369.959977 252.533801 
L 370.238292 251.677215 
L 370.331063 253.045373 
L 370.423835 255.704357 
L 370.470221 255.531851 
L 370.562993 254.990536 
L 370.70215 256.459818 
L 370.748536 256.436024 
L 371.119623 253.824628 
L 371.166009 253.997135 
L 371.351552 255.745997 
L 371.397938 255.395035 
L 371.49071 253.901959 
L 371.537095 254.068517 
L 371.583481 254.359994 
L 371.629867 254.104208 
L 371.815411 252.926403 
L 371.861796 252.878815 
L 372.000954 251.504709 
L 372.093726 253.979289 
L 372.279269 270.920649 
L 372.511198 293.388176 
L 372.557584 292.906346 
L 372.650356 282.466709 
L 372.835899 218.294171 
L 373.253372 53.579897 
L 373.531687 53.591794 
L 373.949159 61.675821 
L 373.995545 67.844427 
L 374.227475 250.564844 
L 374.320246 256.947596 
L 374.366632 256.501458 
L 374.552176 253.604533 
L 374.598561 254.169642 
L 374.737719 260.826026 
L 375.201577 283.549338 
L 375.711822 291.282403 
L 375.943751 289.985627 
L 375.990137 290.080803 
L 376.036523 290.098649 
L 376.314838 287.546738 
L 377.010625 279.694703 
L 377.196169 277.041667 
L 377.28894 277.678158 
L 377.660027 274.055514 
L 377.706413 274.061463 
L 377.799185 272.711151 
L 378.170272 266.132097 
L 378.216657 266.60203 
L 378.263043 267.298006 
L 378.309429 267.113602 
L 379.283532 256.983287 
L 379.561847 253.580739 
L 379.608233 253.7354 
L 379.654619 253.901959 
L 379.74739 253.021579 
L 380.072091 248.244924 
L 380.164863 248.750548 
L 380.211249 248.566144 
L 380.628722 242.700912 
L 381.64921 231.946004 
L 381.881139 230.988294 
L 381.973911 230.655177 
L 382.020297 230.690868 
L 382.20584 231.987643 
L 382.484155 236.99629 
L 382.948014 248.524504 
L 383.643802 266.905404 
L 383.968503 270.855215 
L 384.014888 270.9147 
L 384.10766 270.331746 
L 384.154046 269.736895 
L 384.200432 270.004578 
L 384.246818 271.015825 
L 384.293203 270.890906 
L 384.339589 270.474511 
L 384.385975 270.67676 
L 384.710676 271.866462 
L 384.803448 272.027072 
L 384.942605 269.927248 
L 385.035377 268.654266 
L 385.081763 269.142044 
L 385.174535 269.427573 
L 385.22092 269.249117 
L 385.267306 268.582884 
L 385.313692 268.606678 
L 385.45285 269.403779 
L 385.499235 269.017125 
L 385.638393 267.060065 
L 385.731165 265.989333 
L 385.823936 265.049468 
L 385.870322 265.097057 
L 386.195023 263.16379 
L 386.473338 261.034223 
L 386.56611 261.403031 
L 386.612496 261.337597 
L 386.658882 261.165091 
L 386.798039 259.231825 
L 386.844425 259.309155 
L 386.937197 258.64887 
L 387.029968 258.268166 
L 387.169126 258.785686 
L 387.261898 258.214629 
L 387.540213 256.17429 
L 387.586599 256.281363 
L 387.67937 257.007081 
L 387.772142 257.756594 
L 387.818528 257.45322 
L 388.004071 256.911905 
L 388.050457 256.929751 
L 388.189615 256.45387 
L 388.236 256.489561 
L 388.282386 256.495509 
L 388.328772 256.673965 
L 388.375158 256.41223 
L 388.421544 255.787637 
L 388.514316 255.906607 
L 388.792631 253.640224 
L 388.978174 252.533801 
L 389.163717 259.68986 
L 389.210103 259.541147 
L 389.302875 257.816079 
L 389.395647 258.048071 
L 389.442032 257.798233 
L 389.58119 258.815429 
L 389.813119 256.549046 
L 389.859505 256.578789 
L 389.905891 256.5312 
L 390.045049 255.508057 
L 390.184206 257.007081 
L 390.276978 257.881513 
L 390.323364 257.590035 
L 390.462521 257.363992 
L 390.555293 257.262867 
L 390.648065 256.727501 
L 390.833608 255.549696 
L 391.019151 256.352745 
L 391.111923 255.228477 
L 391.158309 255.389086 
L 391.343852 255.067867 
L 391.390238 255.091661 
L 391.529396 255.876864 
L 391.575781 255.829276 
L 391.854097 254.359994 
L 391.946868 254.699059 
L 392.03964 254.246972 
L 392.271569 253.021579 
L 392.317955 253.039424 
L 392.549884 254.746647 
L 392.59627 254.461119 
L 392.689042 253.592636 
L 392.735428 254.413531 
L 392.781814 254.086362 
L 392.874585 253.081064 
L 392.920971 253.200034 
L 393.013743 253.545048 
L 393.060129 253.45582 
L 393.199286 251.593936 
L 393.245672 251.61773 
L 393.338444 251.962744 
L 393.431215 251.296511 
L 393.570373 252.45647 
L 393.755916 249.987838 
L 393.848688 251.790237 
L 393.895074 252.664668 
L 393.94146 252.432676 
L 394.034231 251.7367 
L 394.127003 252.682514 
L 394.173389 253.711606 
L 394.219775 253.669967 
L 394.544476 250.118705 
L 394.590862 250.142499 
L 394.637247 250.356646 
L 394.683633 250.190088 
L 394.730019 250.011632 
L 394.776405 250.10086 
L 394.822791 250.178191 
L 394.915562 251.225129 
L 394.961948 251.118055 
L 395.193878 249.678516 
L 395.286649 250.029478 
L 395.333035 250.017581 
L 395.425807 249.785589 
L 395.657736 248.488813 
L 395.704122 248.548299 
L 395.750508 248.518556 
L 395.843279 248.9409 
L 395.889665 248.774342 
L 396.585453 235.140354 
L 396.631839 235.229582 
L 396.863768 236.579894 
L 397.002926 233.105964 
L 397.281241 227.871274 
L 397.374012 227.026585 
L 397.605942 224.682872 
L 397.652327 224.623387 
L 397.745099 225.836883 
L 398.162572 236.330057 
L 398.487273 247.632228 
L 398.487273 247.632228 
" clip-path="url(#p98938f5e61)" style="fill: none; stroke: #1f77b4; stroke-width: 1.5; stroke-linecap: square"/>
   </g>
   <g id="patch_3">
    <path d="M 57.6 307.584 
L 57.6 41.472 
" style="fill: none; stroke: #000000; stroke-width: 0.8; stroke-linejoin: miter; stroke-linecap: square"/>
   </g>
   <g id="patch_4">
    <path d="M 414.72 307.584 
L 414.72 41.472 
" style="fill: none; stroke: #000000; stroke-width: 0.8; stroke-linejoin: miter; stroke-linecap: square"/>
   </g>
   <g id="patch_5">
    <path d="M 57.6 307.584 
L 414.72 307.584 
" style="fill: none; stroke: #000000; stroke-width: 0.8; stroke-linejoin: miter; stroke-linecap: square"/>
   </g>
   <g id="patch_6">
    <path d="M 57.6 41.472 
L 414.72 41.472 
" style="fill: none; stroke: #000000; stroke-width: 0.8; stroke-linejoin: miter; stroke-linecap: square"/>
   </g>
  </g>
 </g>
 <defs>
  <clipPath id="p98938f5e61">
   <rect x="57.6" y="41.472" width="357.12" height="266.112"/>
  </clipPath>
 </defs>
</svg>
