<?xml version="1.0" encoding="utf-8" standalone="no"?>
<!DOCTYPE svg PUBLIC "-//W3C//DTD SVG 1.1//EN"
  "http://www.w3.org/Graphics/SVG/1.1/DTD/svg11.dtd">
<svg xmlns:xlink="http://www.w3.org/1999/xlink" width="460.8pt" height="345.6pt" viewBox="0 0 460.8 345.6" xmlns="http://www.w3.org/2000/svg" version="1.1">
 <metadata>
  <rdf:RDF xmlns:dc="http://purl.org/dc/elements/1.1/" xmlns:cc="http://creativecommons.org/ns#" xmlns:rdf="http://www.w3.org/1999/02/22-rdf-syntax-ns#">
   <cc:Work>
    <dc:type rdf:resource="http://purl.org/dc/dcmitype/StillImage"/>
    <dc:date>2024-06-11T19:49:44.195568</dc:date>
    <dc:format>image/svg+xml</dc:format>
    <dc:creator>
     <cc:Agent>
      <dc:title>Matplotlib v3.8.2, https://matplotlib.org/</dc:title>
     </cc:Agent>
    </dc:creator>
   </cc:Work>
  </rdf:RDF>
 </metadata>
 <defs>
  <style type="text/css">*{stroke-linejoin: round; stroke-linecap: butt}</style>
 </defs>
 <g id="figure_1">
  <g id="patch_1">
   <path d="M 0 345.6 
L 460.8 345.6 
L 460.8 0 
L 0 0 
z
" style="fill: #ffffff"/>
  </g>
  <g id="axes_1">
   <g id="patch_2">
    <path d="M 57.6 307.584 
L 414.72 307.584 
L 414.72 41.472 
L 57.6 41.472 
z
" style="fill: #ffffff"/>
   </g>
   <g id="matplotlib.axis_1">
    <g id="xtick_1">
     <g id="line2d_1">
      <defs>
       <path id="m3266b35594" d="M 0 0 
L 0 3.5 
" style="stroke: #000000; stroke-width: 0.8"/>
      </defs>
      <g>
       <use xlink:href="#m3266b35594" x="73.832727" y="307.584" style="stroke: #000000; stroke-width: 0.8"/>
      </g>
     </g>
     <g id="text_1">
      <!-- 0 -->
      <g transform="translate(70.651477 322.182437) scale(0.1 -0.1)">
       <defs>
        <path id="DejaVuSans-30" d="M 2034 4250 
Q 1547 4250 1301 3770 
Q 1056 3291 1056 2328 
Q 1056 1369 1301 889 
Q 1547 409 2034 409 
Q 2525 409 2770 889 
Q 3016 1369 3016 2328 
Q 3016 3291 2770 3770 
Q 2525 4250 2034 4250 
z
M 2034 4750 
Q 2819 4750 3233 4129 
Q 3647 3509 3647 2328 
Q 3647 1150 3233 529 
Q 2819 -91 2034 -91 
Q 1250 -91 836 529 
Q 422 1150 422 2328 
Q 422 3509 836 4129 
Q 1250 4750 2034 4750 
z
" transform="scale(0.015625)"/>
       </defs>
       <use xlink:href="#DejaVuSans-30"/>
      </g>
     </g>
    </g>
    <g id="xtick_2">
     <g id="line2d_2">
      <g>
       <use xlink:href="#m3266b35594" x="138.763636" y="307.584" style="stroke: #000000; stroke-width: 0.8"/>
      </g>
     </g>
     <g id="text_2">
      <!-- 2 -->
      <g transform="translate(135.582386 322.182437) scale(0.1 -0.1)">
       <defs>
        <path id="DejaVuSans-32" d="M 1228 531 
L 3431 531 
L 3431 0 
L 469 0 
L 469 531 
Q 828 903 1448 1529 
Q 2069 2156 2228 2338 
Q 2531 2678 2651 2914 
Q 2772 3150 2772 3378 
Q 2772 3750 2511 3984 
Q 2250 4219 1831 4219 
Q 1534 4219 1204 4116 
Q 875 4013 500 3803 
L 500 4441 
Q 881 4594 1212 4672 
Q 1544 4750 1819 4750 
Q 2544 4750 2975 4387 
Q 3406 4025 3406 3419 
Q 3406 3131 3298 2873 
Q 3191 2616 2906 2266 
Q 2828 2175 2409 1742 
Q 1991 1309 1228 531 
z
" transform="scale(0.015625)"/>
       </defs>
       <use xlink:href="#DejaVuSans-32"/>
      </g>
     </g>
    </g>
    <g id="xtick_3">
     <g id="line2d_3">
      <g>
       <use xlink:href="#m3266b35594" x="203.694545" y="307.584" style="stroke: #000000; stroke-width: 0.8"/>
      </g>
     </g>
     <g id="text_3">
      <!-- 4 -->
      <g transform="translate(200.513295 322.182437) scale(0.1 -0.1)">
       <defs>
        <path id="DejaVuSans-34" d="M 2419 4116 
L 825 1625 
L 2419 1625 
L 2419 4116 
z
M 2253 4666 
L 3047 4666 
L 3047 1625 
L 3713 1625 
L 3713 1100 
L 3047 1100 
L 3047 0 
L 2419 0 
L 2419 1100 
L 313 1100 
L 313 1709 
L 2253 4666 
z
" transform="scale(0.015625)"/>
       </defs>
       <use xlink:href="#DejaVuSans-34"/>
      </g>
     </g>
    </g>
    <g id="xtick_4">
     <g id="line2d_4">
      <g>
       <use xlink:href="#m3266b35594" x="268.625455" y="307.584" style="stroke: #000000; stroke-width: 0.8"/>
      </g>
     </g>
     <g id="text_4">
      <!-- 6 -->
      <g transform="translate(265.444205 322.182437) scale(0.1 -0.1)">
       <defs>
        <path id="DejaVuSans-36" d="M 2113 2584 
Q 1688 2584 1439 2293 
Q 1191 2003 1191 1497 
Q 1191 994 1439 701 
Q 1688 409 2113 409 
Q 2538 409 2786 701 
Q 3034 994 3034 1497 
Q 3034 2003 2786 2293 
Q 2538 2584 2113 2584 
z
M 3366 4563 
L 3366 3988 
Q 3128 4100 2886 4159 
Q 2644 4219 2406 4219 
Q 1781 4219 1451 3797 
Q 1122 3375 1075 2522 
Q 1259 2794 1537 2939 
Q 1816 3084 2150 3084 
Q 2853 3084 3261 2657 
Q 3669 2231 3669 1497 
Q 3669 778 3244 343 
Q 2819 -91 2113 -91 
Q 1303 -91 875 529 
Q 447 1150 447 2328 
Q 447 3434 972 4092 
Q 1497 4750 2381 4750 
Q 2619 4750 2861 4703 
Q 3103 4656 3366 4563 
z
" transform="scale(0.015625)"/>
       </defs>
       <use xlink:href="#DejaVuSans-36"/>
      </g>
     </g>
    </g>
    <g id="xtick_5">
     <g id="line2d_5">
      <g>
       <use xlink:href="#m3266b35594" x="333.556364" y="307.584" style="stroke: #000000; stroke-width: 0.8"/>
      </g>
     </g>
     <g id="text_5">
      <!-- 8 -->
      <g transform="translate(330.375114 322.182437) scale(0.1 -0.1)">
       <defs>
        <path id="DejaVuSans-38" d="M 2034 2216 
Q 1584 2216 1326 1975 
Q 1069 1734 1069 1313 
Q 1069 891 1326 650 
Q 1584 409 2034 409 
Q 2484 409 2743 651 
Q 3003 894 3003 1313 
Q 3003 1734 2745 1975 
Q 2488 2216 2034 2216 
z
M 1403 2484 
Q 997 2584 770 2862 
Q 544 3141 544 3541 
Q 544 4100 942 4425 
Q 1341 4750 2034 4750 
Q 2731 4750 3128 4425 
Q 3525 4100 3525 3541 
Q 3525 3141 3298 2862 
Q 3072 2584 2669 2484 
Q 3125 2378 3379 2068 
Q 3634 1759 3634 1313 
Q 3634 634 3220 271 
Q 2806 -91 2034 -91 
Q 1263 -91 848 271 
Q 434 634 434 1313 
Q 434 1759 690 2068 
Q 947 2378 1403 2484 
z
M 1172 3481 
Q 1172 3119 1398 2916 
Q 1625 2713 2034 2713 
Q 2441 2713 2670 2916 
Q 2900 3119 2900 3481 
Q 2900 3844 2670 4047 
Q 2441 4250 2034 4250 
Q 1625 4250 1398 4047 
Q 1172 3844 1172 3481 
z
" transform="scale(0.015625)"/>
       </defs>
       <use xlink:href="#DejaVuSans-38"/>
      </g>
     </g>
    </g>
    <g id="xtick_6">
     <g id="line2d_6">
      <g>
       <use xlink:href="#m3266b35594" x="398.487273" y="307.584" style="stroke: #000000; stroke-width: 0.8"/>
      </g>
     </g>
     <g id="text_6">
      <!-- 10 -->
      <g transform="translate(392.124773 322.182437) scale(0.1 -0.1)">
       <defs>
        <path id="DejaVuSans-31" d="M 794 531 
L 1825 531 
L 1825 4091 
L 703 3866 
L 703 4441 
L 1819 4666 
L 2450 4666 
L 2450 531 
L 3481 531 
L 3481 0 
L 794 0 
L 794 531 
z
" transform="scale(0.015625)"/>
       </defs>
       <use xlink:href="#DejaVuSans-31"/>
       <use xlink:href="#DejaVuSans-30" x="63.623047"/>
      </g>
     </g>
    </g>
    <g id="text_7">
     <!-- Time [$s$] -->
     <g transform="translate(215.66 335.860562) scale(0.1 -0.1)">
      <defs>
       <path id="DejaVuSans-54" d="M -19 4666 
L 3928 4666 
L 3928 4134 
L 2272 4134 
L 2272 0 
L 1638 0 
L 1638 4134 
L -19 4134 
L -19 4666 
z
" transform="scale(0.015625)"/>
       <path id="DejaVuSans-69" d="M 603 3500 
L 1178 3500 
L 1178 0 
L 603 0 
L 603 3500 
z
M 603 4863 
L 1178 4863 
L 1178 4134 
L 603 4134 
L 603 4863 
z
" transform="scale(0.015625)"/>
       <path id="DejaVuSans-6d" d="M 3328 2828 
Q 3544 3216 3844 3400 
Q 4144 3584 4550 3584 
Q 5097 3584 5394 3201 
Q 5691 2819 5691 2113 
L 5691 0 
L 5113 0 
L 5113 2094 
Q 5113 2597 4934 2840 
Q 4756 3084 4391 3084 
Q 3944 3084 3684 2787 
Q 3425 2491 3425 1978 
L 3425 0 
L 2847 0 
L 2847 2094 
Q 2847 2600 2669 2842 
Q 2491 3084 2119 3084 
Q 1678 3084 1418 2786 
Q 1159 2488 1159 1978 
L 1159 0 
L 581 0 
L 581 3500 
L 1159 3500 
L 1159 2956 
Q 1356 3278 1631 3431 
Q 1906 3584 2284 3584 
Q 2666 3584 2933 3390 
Q 3200 3197 3328 2828 
z
" transform="scale(0.015625)"/>
       <path id="DejaVuSans-65" d="M 3597 1894 
L 3597 1613 
L 953 1613 
Q 991 1019 1311 708 
Q 1631 397 2203 397 
Q 2534 397 2845 478 
Q 3156 559 3463 722 
L 3463 178 
Q 3153 47 2828 -22 
Q 2503 -91 2169 -91 
Q 1331 -91 842 396 
Q 353 884 353 1716 
Q 353 2575 817 3079 
Q 1281 3584 2069 3584 
Q 2775 3584 3186 3129 
Q 3597 2675 3597 1894 
z
M 3022 2063 
Q 3016 2534 2758 2815 
Q 2500 3097 2075 3097 
Q 1594 3097 1305 2825 
Q 1016 2553 972 2059 
L 3022 2063 
z
" transform="scale(0.015625)"/>
       <path id="DejaVuSans-20" transform="scale(0.015625)"/>
       <path id="DejaVuSans-5b" d="M 550 4863 
L 1875 4863 
L 1875 4416 
L 1125 4416 
L 1125 -397 
L 1875 -397 
L 1875 -844 
L 550 -844 
L 550 4863 
z
" transform="scale(0.015625)"/>
       <path id="DejaVuSans-Oblique-73" d="M 3200 3397 
L 3091 2853 
Q 2863 2978 2609 3040 
Q 2356 3103 2088 3103 
Q 1634 3103 1373 2948 
Q 1113 2794 1113 2528 
Q 1113 2219 1719 2053 
Q 1766 2041 1788 2034 
L 1972 1978 
Q 2547 1819 2739 1644 
Q 2931 1469 2931 1166 
Q 2931 609 2489 259 
Q 2047 -91 1331 -91 
Q 1053 -91 747 -37 
Q 441 16 72 128 
L 184 722 
Q 500 559 806 475 
Q 1113 391 1394 391 
Q 1816 391 2080 572 
Q 2344 753 2344 1031 
Q 2344 1331 1650 1516 
L 1591 1531 
L 1394 1581 
Q 956 1697 753 1886 
Q 550 2075 550 2369 
Q 550 2928 970 3256 
Q 1391 3584 2113 3584 
Q 2397 3584 2667 3537 
Q 2938 3491 3200 3397 
z
" transform="scale(0.015625)"/>
       <path id="DejaVuSans-5d" d="M 1947 4863 
L 1947 -844 
L 622 -844 
L 622 -397 
L 1369 -397 
L 1369 4416 
L 622 4416 
L 622 4863 
L 1947 4863 
z
" transform="scale(0.015625)"/>
      </defs>
      <use xlink:href="#DejaVuSans-54" transform="translate(0 0.015625)"/>
      <use xlink:href="#DejaVuSans-69" transform="translate(61.083984 0.015625)"/>
      <use xlink:href="#DejaVuSans-6d" transform="translate(88.867188 0.015625)"/>
      <use xlink:href="#DejaVuSans-65" transform="translate(186.279297 0.015625)"/>
      <use xlink:href="#DejaVuSans-20" transform="translate(247.802734 0.015625)"/>
      <use xlink:href="#DejaVuSans-5b" transform="translate(279.589844 0.015625)"/>
      <use xlink:href="#DejaVuSans-Oblique-73" transform="translate(318.603516 0.015625)"/>
      <use xlink:href="#DejaVuSans-5d" transform="translate(370.703125 0.015625)"/>
     </g>
    </g>
   </g>
   <g id="matplotlib.axis_2">
    <g id="ytick_1">
     <g id="line2d_7">
      <defs>
       <path id="m86de4ee13b" d="M 0 0 
L -3.5 0 
" style="stroke: #000000; stroke-width: 0.8"/>
      </defs>
      <g>
       <use xlink:href="#m86de4ee13b" x="57.6" y="277.812812" style="stroke: #000000; stroke-width: 0.8"/>
      </g>
     </g>
     <g id="text_8">
      <!-- −500 -->
      <g transform="translate(23.132812 281.612031) scale(0.1 -0.1)">
       <defs>
        <path id="DejaVuSans-2212" d="M 678 2272 
L 4684 2272 
L 4684 1741 
L 678 1741 
L 678 2272 
z
" transform="scale(0.015625)"/>
        <path id="DejaVuSans-35" d="M 691 4666 
L 3169 4666 
L 3169 4134 
L 1269 4134 
L 1269 2991 
Q 1406 3038 1543 3061 
Q 1681 3084 1819 3084 
Q 2600 3084 3056 2656 
Q 3513 2228 3513 1497 
Q 3513 744 3044 326 
Q 2575 -91 1722 -91 
Q 1428 -91 1123 -41 
Q 819 9 494 109 
L 494 744 
Q 775 591 1075 516 
Q 1375 441 1709 441 
Q 2250 441 2565 725 
Q 2881 1009 2881 1497 
Q 2881 1984 2565 2268 
Q 2250 2553 1709 2553 
Q 1456 2553 1204 2497 
Q 953 2441 691 2322 
L 691 4666 
z
" transform="scale(0.015625)"/>
       </defs>
       <use xlink:href="#DejaVuSans-2212"/>
       <use xlink:href="#DejaVuSans-35" x="83.789062"/>
       <use xlink:href="#DejaVuSans-30" x="147.412109"/>
       <use xlink:href="#DejaVuSans-30" x="211.035156"/>
      </g>
     </g>
    </g>
    <g id="ytick_2">
     <g id="line2d_8">
      <g>
       <use xlink:href="#m86de4ee13b" x="57.6" y="224.649565" style="stroke: #000000; stroke-width: 0.8"/>
      </g>
     </g>
     <g id="text_9">
      <!-- 0 -->
      <g transform="translate(44.2375 228.448784) scale(0.1 -0.1)">
       <use xlink:href="#DejaVuSans-30"/>
      </g>
     </g>
    </g>
    <g id="ytick_3">
     <g id="line2d_9">
      <g>
       <use xlink:href="#m86de4ee13b" x="57.6" y="171.486318" style="stroke: #000000; stroke-width: 0.8"/>
      </g>
     </g>
     <g id="text_10">
      <!-- 500 -->
      <g transform="translate(31.5125 175.285537) scale(0.1 -0.1)">
       <use xlink:href="#DejaVuSans-35"/>
       <use xlink:href="#DejaVuSans-30" x="63.623047"/>
       <use xlink:href="#DejaVuSans-30" x="127.246094"/>
      </g>
     </g>
    </g>
    <g id="ytick_4">
     <g id="line2d_10">
      <g>
       <use xlink:href="#m86de4ee13b" x="57.6" y="118.323071" style="stroke: #000000; stroke-width: 0.8"/>
      </g>
     </g>
     <g id="text_11">
      <!-- 1000 -->
      <g transform="translate(25.15 122.12229) scale(0.1 -0.1)">
       <use xlink:href="#DejaVuSans-31"/>
       <use xlink:href="#DejaVuSans-30" x="63.623047"/>
       <use xlink:href="#DejaVuSans-30" x="127.246094"/>
       <use xlink:href="#DejaVuSans-30" x="190.869141"/>
      </g>
     </g>
    </g>
    <g id="ytick_5">
     <g id="line2d_11">
      <g>
       <use xlink:href="#m86de4ee13b" x="57.6" y="65.159824" style="stroke: #000000; stroke-width: 0.8"/>
      </g>
     </g>
     <g id="text_12">
      <!-- 1500 -->
      <g transform="translate(25.15 68.959043) scale(0.1 -0.1)">
       <use xlink:href="#DejaVuSans-31"/>
       <use xlink:href="#DejaVuSans-35" x="63.623047"/>
       <use xlink:href="#DejaVuSans-30" x="127.246094"/>
       <use xlink:href="#DejaVuSans-30" x="190.869141"/>
      </g>
     </g>
    </g>
    <g id="text_13">
     <!-- Voltage [$mV$] -->
     <g transform="translate(17.032812 207.478) rotate(-90) scale(0.1 -0.1)">
      <defs>
       <path id="DejaVuSans-56" d="M 1831 0 
L 50 4666 
L 709 4666 
L 2188 738 
L 3669 4666 
L 4325 4666 
L 2547 0 
L 1831 0 
z
" transform="scale(0.015625)"/>
       <path id="DejaVuSans-6f" d="M 1959 3097 
Q 1497 3097 1228 2736 
Q 959 2375 959 1747 
Q 959 1119 1226 758 
Q 1494 397 1959 397 
Q 2419 397 2687 759 
Q 2956 1122 2956 1747 
Q 2956 2369 2687 2733 
Q 2419 3097 1959 3097 
z
M 1959 3584 
Q 2709 3584 3137 3096 
Q 3566 2609 3566 1747 
Q 3566 888 3137 398 
Q 2709 -91 1959 -91 
Q 1206 -91 779 398 
Q 353 888 353 1747 
Q 353 2609 779 3096 
Q 1206 3584 1959 3584 
z
" transform="scale(0.015625)"/>
       <path id="DejaVuSans-6c" d="M 603 4863 
L 1178 4863 
L 1178 0 
L 603 0 
L 603 4863 
z
" transform="scale(0.015625)"/>
       <path id="DejaVuSans-74" d="M 1172 4494 
L 1172 3500 
L 2356 3500 
L 2356 3053 
L 1172 3053 
L 1172 1153 
Q 1172 725 1289 603 
Q 1406 481 1766 481 
L 2356 481 
L 2356 0 
L 1766 0 
Q 1100 0 847 248 
Q 594 497 594 1153 
L 594 3053 
L 172 3053 
L 172 3500 
L 594 3500 
L 594 4494 
L 1172 4494 
z
" transform="scale(0.015625)"/>
       <path id="DejaVuSans-61" d="M 2194 1759 
Q 1497 1759 1228 1600 
Q 959 1441 959 1056 
Q 959 750 1161 570 
Q 1363 391 1709 391 
Q 2188 391 2477 730 
Q 2766 1069 2766 1631 
L 2766 1759 
L 2194 1759 
z
M 3341 1997 
L 3341 0 
L 2766 0 
L 2766 531 
Q 2569 213 2275 61 
Q 1981 -91 1556 -91 
Q 1019 -91 701 211 
Q 384 513 384 1019 
Q 384 1609 779 1909 
Q 1175 2209 1959 2209 
L 2766 2209 
L 2766 2266 
Q 2766 2663 2505 2880 
Q 2244 3097 1772 3097 
Q 1472 3097 1187 3025 
Q 903 2953 641 2809 
L 641 3341 
Q 956 3463 1253 3523 
Q 1550 3584 1831 3584 
Q 2591 3584 2966 3190 
Q 3341 2797 3341 1997 
z
" transform="scale(0.015625)"/>
       <path id="DejaVuSans-67" d="M 2906 1791 
Q 2906 2416 2648 2759 
Q 2391 3103 1925 3103 
Q 1463 3103 1205 2759 
Q 947 2416 947 1791 
Q 947 1169 1205 825 
Q 1463 481 1925 481 
Q 2391 481 2648 825 
Q 2906 1169 2906 1791 
z
M 3481 434 
Q 3481 -459 3084 -895 
Q 2688 -1331 1869 -1331 
Q 1566 -1331 1297 -1286 
Q 1028 -1241 775 -1147 
L 775 -588 
Q 1028 -725 1275 -790 
Q 1522 -856 1778 -856 
Q 2344 -856 2625 -561 
Q 2906 -266 2906 331 
L 2906 616 
Q 2728 306 2450 153 
Q 2172 0 1784 0 
Q 1141 0 747 490 
Q 353 981 353 1791 
Q 353 2603 747 3093 
Q 1141 3584 1784 3584 
Q 2172 3584 2450 3431 
Q 2728 3278 2906 2969 
L 2906 3500 
L 3481 3500 
L 3481 434 
z
" transform="scale(0.015625)"/>
       <path id="DejaVuSans-Oblique-6d" d="M 5747 2113 
L 5338 0 
L 4763 0 
L 5166 2094 
Q 5191 2228 5203 2325 
Q 5216 2422 5216 2491 
Q 5216 2772 5059 2928 
Q 4903 3084 4622 3084 
Q 4203 3084 3875 2770 
Q 3547 2456 3450 1953 
L 3066 0 
L 2491 0 
L 2900 2094 
Q 2925 2209 2937 2307 
Q 2950 2406 2950 2484 
Q 2950 2769 2794 2926 
Q 2638 3084 2363 3084 
Q 1938 3084 1609 2770 
Q 1281 2456 1184 1953 
L 800 0 
L 225 0 
L 909 3500 
L 1484 3500 
L 1375 2956 
Q 1609 3263 1923 3423 
Q 2238 3584 2597 3584 
Q 2978 3584 3223 3384 
Q 3469 3184 3519 2828 
Q 3781 3197 4126 3390 
Q 4472 3584 4856 3584 
Q 5306 3584 5551 3325 
Q 5797 3066 5797 2591 
Q 5797 2488 5784 2364 
Q 5772 2241 5747 2113 
z
" transform="scale(0.015625)"/>
       <path id="DejaVuSans-Oblique-56" d="M 1319 0 
L 500 4666 
L 1119 4666 
L 1797 653 
L 4063 4666 
L 4750 4666 
L 2053 0 
L 1319 0 
z
" transform="scale(0.015625)"/>
      </defs>
      <use xlink:href="#DejaVuSans-56" transform="translate(0 0.015625)"/>
      <use xlink:href="#DejaVuSans-6f" transform="translate(68.408203 0.015625)"/>
      <use xlink:href="#DejaVuSans-6c" transform="translate(129.589844 0.015625)"/>
      <use xlink:href="#DejaVuSans-74" transform="translate(157.373047 0.015625)"/>
      <use xlink:href="#DejaVuSans-61" transform="translate(196.582031 0.015625)"/>
      <use xlink:href="#DejaVuSans-67" transform="translate(257.861328 0.015625)"/>
      <use xlink:href="#DejaVuSans-65" transform="translate(321.337891 0.015625)"/>
      <use xlink:href="#DejaVuSans-20" transform="translate(382.861328 0.015625)"/>
      <use xlink:href="#DejaVuSans-5b" transform="translate(414.648438 0.015625)"/>
      <use xlink:href="#DejaVuSans-Oblique-6d" transform="translate(453.662109 0.015625)"/>
      <use xlink:href="#DejaVuSans-Oblique-56" transform="translate(551.074219 0.015625)"/>
      <use xlink:href="#DejaVuSans-5d" transform="translate(619.482422 0.015625)"/>
     </g>
    </g>
   </g>
   <g id="line2d_12">
    <path d="M 73.832727 239.518891 
L 73.879113 240.431972 
L 73.971885 250.260935 
L 74.157428 277.777064 
L 74.203814 276.317308 
L 74.342972 269.642815 
L 74.389357 269.994212 
L 74.528515 271.913104 
L 74.574901 271.689141 
L 74.667673 271.387393 
L 74.760444 271.857207 
L 74.80683 271.820688 
L 75.038759 269.368563 
L 75.131531 269.526313 
L 75.177917 269.49341 
L 75.36346 268.855344 
L 75.409846 268.942681 
L 75.595389 269.622545 
L 75.688161 269.126074 
L 75.92009 265.690053 
L 76.569492 251.85181 
L 77.450823 226.120301 
L 78.239383 216.459831 
L 78.332154 216.702874 
L 78.37854 216.67523 
L 78.564084 215.637031 
L 78.61047 215.782448 
L 78.749627 216.81478 
L 78.842399 215.305271 
L 79.213486 205.522152 
L 79.955659 198.630882 
L 80.187588 194.161908 
L 80.233974 194.244307 
L 80.605061 198.7083 
L 80.790604 204.421883 
L 81.671935 243.809847 
L 81.718321 243.931575 
L 81.857479 243.373884 
L 81.996636 244.384999 
L 82.043022 244.120343 
L 82.321337 239.748163 
L 82.414109 239.862669 
L 82.506881 239.12697 
L 82.646038 237.789955 
L 82.73881 239.790835 
L 82.924353 253.231311 
L 83.29544 293.71052 
L 83.341826 292.521711 
L 83.434598 279.116819 
L 83.620141 205.776864 
L 83.991228 65.161192 
L 84.176771 72.435923 
L 84.223157 72.055252 
L 84.315929 71.547334 
L 84.501472 75.594298 
L 84.594244 84.978281 
L 84.733401 166.715892 
L 84.918945 275.694078 
L 84.965331 275.555708 
L 85.104488 265.04745 
L 85.150874 266.101151 
L 85.382803 272.24585 
L 85.521961 275.369096 
L 85.800276 280.533996 
L 85.893048 281.128788 
L 86.31052 277.098605 
L 86.496064 275.651999 
L 86.542449 275.553226 
L 86.681607 273.362607 
L 86.959922 269.433886 
L 87.09908 268.827578 
L 87.284623 266.127545 
L 87.516552 263.213819 
L 87.748481 262.439898 
L 87.934025 259.305689 
L 87.980411 259.413927 
L 88.305112 262.883493 
L 88.676198 263.872563 
L 88.722584 263.756742 
L 89.3256 260.62539 
L 90.067774 241.936324 
L 90.578018 221.224253 
L 90.856333 218.605181 
L 91.181034 212.937056 
L 91.691278 207.931399 
L 91.78405 208.610999 
L 91.969594 210.211088 
L 92.108751 208.395206 
L 92.804539 199.819442 
L 92.943696 198.978308 
L 92.990082 199.159163 
L 93.12924 200.385901 
L 93.175626 200.120365 
L 93.732256 190.130614 
L 93.778642 189.823243 
L 93.825027 189.879179 
L 94.056957 191.743844 
L 94.196114 194.556559 
L 94.381658 203.963106 
L 94.845516 229.023686 
L 95.216603 237.130062 
L 95.262989 236.951225 
L 95.402146 235.519414 
L 95.448532 235.524303 
L 95.634076 236.493847 
L 95.680461 236.412135 
L 95.866005 235.32003 
L 96.051548 234.1047 
L 96.097934 234.129004 
L 96.190706 235.072045 
L 96.329863 240.381686 
L 96.515407 260.995982 
L 96.793722 285.667607 
L 96.886493 278.668495 
L 97.025651 243.053902 
L 97.489509 56.819589 
L 97.535895 59.265509 
L 97.675053 64.855975 
L 97.81421 62.110417 
L 97.860596 62.273713 
L 97.999754 66.537205 
L 98.092525 83.757611 
L 98.417226 277.886246 
L 98.556384 267.135901 
L 98.60277 265.345493 
L 98.649156 265.439441 
L 98.741927 266.116279 
L 98.881085 263.688286 
L 98.927471 264.269757 
L 99.205786 271.203955 
L 99.298557 271.520133 
L 99.437715 273.62234 
L 99.530487 275.302955 
L 99.576873 275.245119 
L 100.040731 268.264839 
L 100.226274 266.64679 
L 100.458204 261.599068 
L 100.550975 261.981077 
L 100.597361 262.175632 
L 100.643747 261.952345 
L 101.339535 253.412039 
L 101.478692 252.504638 
L 101.525078 252.577287 
L 101.664236 253.821984 
L 101.710622 253.764741 
L 101.942551 250.496311 
L 102.035322 251.125494 
L 102.081708 251.26175 
L 102.128094 251.07043 
L 102.267252 250.218215 
L 102.313638 250.42788 
L 102.452795 251.770073 
L 102.499181 251.761975 
L 102.777496 248.87052 
L 103.194969 242.340764 
L 103.705213 227.216849 
L 103.937142 223.570538 
L 104.586544 212.932273 
L 104.772087 209.437129 
L 104.818473 209.670654 
L 105.004017 212.210616 
L 105.050403 212.118131 
L 105.143174 211.687049 
L 105.18956 211.910746 
L 105.328718 213.56225 
L 105.375103 213.244174 
L 105.978119 201.41397 
L 106.024505 201.770117 
L 106.163663 202.934704 
L 106.210049 202.803772 
L 106.441978 200.00116 
L 106.627521 196.355686 
L 106.905836 190.024912 
L 106.998608 189.202889 
L 107.184152 184.765436 
L 107.230537 185.566532 
L 107.462467 193.299453 
L 107.601624 191.538869 
L 107.694396 195.597703 
L 108.065483 216.685364 
L 108.390184 229.711558 
L 108.622113 233.502557 
L 108.807656 233.38136 
L 108.900428 233.301211 
L 108.9932 233.936701 
L 109.178743 235.877292 
L 109.225129 235.764944 
L 109.364286 233.044229 
L 109.54983 229.555833 
L 109.642601 231.500128 
L 109.874531 246.866048 
L 110.199232 274.111808 
L 110.245617 273.606254 
L 110.338389 264.380442 
L 110.523933 209.10807 
L 110.895019 56.622397 
L 110.941405 56.749908 
L 111.080563 64.826772 
L 111.126949 64.794024 
L 111.266106 61.841833 
L 111.312492 61.943924 
L 111.405264 63.591286 
L 111.498035 71.777542 
L 111.590807 113.061884 
L 111.869122 283.527647 
L 112.193823 269.8177 
L 112.332981 266.461566 
L 112.379366 266.979111 
L 112.611296 270.982858 
L 112.657681 270.891941 
L 112.750453 270.532412 
L 112.796839 270.672475 
L 112.935997 271.485233 
L 112.982382 271.32238 
L 113.446241 268.091471 
L 113.539013 268.247159 
L 113.631784 267.351905 
L 114.049257 259.60978 
L 114.142029 259.656827 
L 114.2348 259.270015 
L 114.373958 256.821087 
L 114.698659 251.776005 
L 114.837816 250.951241 
L 114.884202 251.100042 
L 115.116131 253.965516 
L 115.162517 253.74038 
L 115.301675 253.183406 
L 115.348061 253.248183 
L 115.57999 254.292491 
L 115.626376 254.213371 
L 115.951077 250.990554 
L 116.183006 247.791473 
L 116.322163 246.371871 
L 116.368549 245.946392 
L 116.414935 245.973016 
L 116.554093 247.211684 
L 116.646864 245.255339 
L 117.064337 232.315302 
L 117.435424 222.436074 
L 118.131211 212.466548 
L 118.270369 211.380342 
L 118.548684 208.774145 
L 118.641456 208.449309 
L 119.012543 204.13557 
L 119.337244 198.96737 
L 119.476401 199.128173 
L 119.569173 198.371433 
L 120.311346 187.672224 
L 120.450504 187.350182 
L 120.543276 188.590864 
L 121.146292 207.691465 
L 121.61015 228.550649 
L 121.795693 233.154194 
L 122.027623 237.436384 
L 122.120394 237.671563 
L 122.259552 236.538958 
L 122.491481 234.603035 
L 122.816182 234.923715 
L 122.908954 235.871146 
L 123.048111 242.419666 
L 123.465584 283.956854 
L 123.51197 282.191188 
L 123.651127 258.012527 
L 123.929442 141.489406 
L 124.161372 61.677133 
L 124.207757 60.67594 
L 124.393301 67.821122 
L 124.439687 67.07469 
L 124.578844 65.365947 
L 124.671616 66.934704 
L 124.764388 75.411286 
L 124.857159 117.136831 
L 125.135474 284.80891 
L 125.321018 266.490582 
L 125.367404 266.805798 
L 125.460175 268.408426 
L 125.506561 268.30804 
L 125.599333 267.84995 
L 125.692105 270.066728 
L 125.924034 275.422701 
L 126.063191 275.168176 
L 126.109577 275.188461 
L 126.202349 274.96928 
L 126.387892 273.53568 
L 127.918625 254.981912 
L 128.150554 253.854236 
L 128.19694 254.071127 
L 128.336098 255.146399 
L 128.382484 255.079548 
L 128.660799 252.021119 
L 128.753571 252.242985 
L 128.892728 252.871538 
L 128.939114 252.745868 
L 129.681287 248.044769 
L 129.774059 248.212988 
L 129.820445 248.239202 
L 129.913217 247.554372 
L 130.145146 242.401114 
L 130.980091 221.310167 
L 131.629493 211.139816 
L 131.722265 211.42715 
L 131.768651 211.583505 
L 131.815036 211.50155 
L 131.954194 209.721178 
L 132.325281 201.665594 
L 132.510824 198.869743 
L 132.649982 197.821246 
L 132.928297 195.305152 
L 133.624084 188.445452 
L 133.67047 188.450118 
L 133.763242 188.404886 
L 133.809628 188.505241 
L 133.9024 189.649955 
L 134.2271 199.932772 
L 134.598187 220.414906 
L 135.062046 237.403108 
L 135.201203 238.957255 
L 135.293975 238.907799 
L 135.479518 239.811114 
L 135.525904 239.719156 
L 135.665062 237.538471 
L 135.757833 236.297206 
L 135.804219 236.389238 
L 135.989763 238.391854 
L 136.082534 238.311307 
L 136.12892 238.6214 
L 136.221692 241.812147 
L 136.453621 264.693709 
L 136.68555 286.412626 
L 136.731936 286.38111 
L 136.824708 276.492134 
L 137.010251 216.286666 
L 137.427724 62.649065 
L 137.613267 69.54935 
L 137.659653 68.859916 
L 137.752425 67.52053 
L 137.798811 67.851692 
L 137.937968 71.551509 
L 138.03074 83.452277 
L 138.169898 173.917571 
L 138.355441 282.184775 
L 138.448213 273.320494 
L 138.540984 264.221905 
L 138.58737 264.347735 
L 138.819299 270.225428 
L 138.865685 270.343206 
L 139.004843 272.600165 
L 139.236772 275.3107 
L 139.422315 275.852005 
L 139.468701 275.827919 
L 139.607859 274.841439 
L 139.978946 271.825609 
L 140.071717 271.213186 
L 140.303646 265.282267 
L 140.721119 258.795223 
L 140.767505 258.706176 
L 140.813891 258.784336 
L 140.860277 258.874349 
L 140.906663 258.777486 
L 141.092206 256.170014 
L 141.324135 254.778593 
L 141.834379 253.041801 
L 141.927151 253.189193 
L 142.15908 253.696722 
L 142.251852 253.476006 
L 142.437395 252.196751 
L 142.576553 251.350628 
L 142.622939 251.485697 
L 142.669325 251.648834 
L 142.715711 251.581148 
L 143.225955 245.69297 
L 143.597042 235.320964 
L 144.385601 215.686328 
L 144.84946 209.09823 
L 144.988617 208.062457 
L 145.17416 210.0088 
L 145.220546 209.752809 
L 146.148263 193.695526 
L 146.241035 193.837621 
L 146.333807 193.046313 
L 146.751279 186.879346 
L 146.983209 184.381124 
L 147.029594 184.46842 
L 147.168752 186.175246 
L 147.493453 193.598945 
L 147.678996 203.129627 
L 148.142855 228.566044 
L 148.513941 238.132359 
L 148.653099 239.215204 
L 148.792257 238.24509 
L 149.024186 236.980013 
L 149.116957 237.148342 
L 149.302501 237.8999 
L 149.348887 237.867539 
L 149.441658 237.669702 
L 149.53443 239.0242 
L 149.673588 247.746029 
L 150.044674 290.780222 
L 150.137446 286.673823 
L 150.276604 254.393852 
L 150.786848 62.687328 
L 150.87962 65.623009 
L 151.018777 69.53572 
L 151.065163 69.471598 
L 151.111549 69.529854 
L 151.250706 71.902172 
L 151.343478 77.451745 
L 151.43625 108.06392 
L 151.714565 278.81653 
L 151.760951 275.491009 
L 151.900108 262.723369 
L 151.946494 264.201753 
L 152.132038 270.245616 
L 152.178423 270.211979 
L 152.271195 271.473197 
L 152.595896 278.436105 
L 152.735054 278.279234 
L 152.874211 277.92653 
L 153.198912 275.349178 
L 153.523613 271.774769 
L 153.848314 265.851342 
L 153.941086 264.968328 
L 154.173015 261.217979 
L 154.219401 261.339832 
L 154.265787 261.399951 
L 154.358558 260.640676 
L 154.590487 258.892414 
L 154.868803 258.932658 
L 155.054346 259.134002 
L 155.239889 259.496751 
L 155.286275 259.432586 
L 155.425433 259.344381 
L 155.518204 259.270041 
L 155.750134 258.119183 
L 155.935677 256.626726 
L 156.213992 254.324005 
L 156.306764 253.98619 
L 156.677851 250.187501 
L 157.976654 209.385824 
L 158.162198 207.827937 
L 158.254969 207.782187 
L 158.347741 207.305959 
L 158.533284 206.277902 
L 158.765214 207.102993 
L 158.8116 206.965353 
L 158.997143 204.801465 
L 159.136301 202.471204 
L 159.36823 196.787127 
L 159.414616 197.010465 
L 159.507387 197.331485 
L 159.878474 193.324306 
L 160.48149 184.308942 
L 160.527876 184.25855 
L 160.620648 185.242455 
L 160.991734 195.321464 
L 162.012223 239.038068 
L 162.197766 237.303432 
L 162.244152 237.481687 
L 162.38331 238.144811 
L 162.522467 237.21058 
L 162.708011 236.372824 
L 162.847168 237.226563 
L 162.986326 239.669714 
L 163.125483 249.258328 
L 163.49657 290.774018 
L 163.542956 289.459326 
L 163.682114 264.467344 
L 163.960429 140.170364 
L 164.192358 61.240465 
L 164.238744 60.575964 
L 164.424287 67.24523 
L 164.470673 66.970315 
L 164.517059 66.710403 
L 164.563445 66.936198 
L 164.702602 70.039804 
L 164.795374 78.215562 
L 164.888146 118.7656 
L 165.166461 279.045366 
L 165.352004 261.668913 
L 165.39839 263.002292 
L 165.630319 267.966867 
L 166.001406 276.595622 
L 166.047792 276.737461 
L 166.094178 276.684216 
L 166.233335 276.207238 
L 166.279721 276.29211 
L 166.326107 276.368578 
L 166.372493 276.245044 
L 166.697194 272.454872 
L 166.929123 270.667683 
L 167.021895 270.080419 
L 167.346595 263.089571 
L 167.671296 258.986819 
L 168.042383 256.785284 
L 168.181541 256.643959 
L 168.274312 256.76885 
L 168.367084 256.312171 
L 168.506242 255.459531 
L 168.645399 257.281121 
L 168.830943 258.809842 
L 169.062872 258.517374 
L 169.202029 257.362362 
L 169.433959 255.550998 
L 169.573116 255.612645 
L 169.665888 254.877429 
L 170.129746 245.771257 
L 170.361676 236.283965 
L 170.732762 221.728226 
L 171.243007 207.680863 
L 171.42855 205.417945 
L 171.706865 201.426735 
L 171.846023 202.636704 
L 172.217109 205.943008 
L 172.309881 206.070227 
L 172.402653 205.61378 
L 172.588196 202.620994 
L 173.005669 195.362404 
L 173.052055 195.137462 
L 173.098441 195.182676 
L 173.237598 195.720464 
L 173.283984 195.567467 
L 173.562299 193.061914 
L 173.979772 185.822239 
L 174.165315 184.332373 
L 174.304473 186.227452 
L 174.582788 192.370833 
L 175.371347 232.547273 
L 175.603276 236.266876 
L 175.742434 236.360244 
L 175.927977 237.342418 
L 176.020749 237.761001 
L 176.067135 237.696366 
L 176.252678 236.000658 
L 176.438222 234.382861 
L 176.484607 234.431174 
L 176.577379 236.401977 
L 176.762922 250.880412 
L 177.087623 286.744032 
L 177.134009 286.472182 
L 177.226781 274.945763 
L 177.412324 210.204177 
L 177.783411 59.884066 
L 177.829797 59.983289 
L 178.01534 67.013681 
L 178.061726 66.655214 
L 178.108112 66.414945 
L 178.154498 66.723836 
L 178.293655 70.017114 
L 178.386427 79.422803 
L 178.525585 163.380815 
L 178.711128 282.289412 
L 178.757514 281.830237 
L 178.943057 260.559395 
L 178.989443 261.151854 
L 179.453302 272.006802 
L 179.638845 273.244034 
L 179.778003 273.502909 
L 179.824388 273.460814 
L 180.102704 271.933513 
L 180.47379 267.493824 
L 180.891263 261.512937 
L 180.984035 261.333478 
L 181.26235 259.149205 
L 181.772594 254.196564 
L 181.865366 253.849472 
L 181.911752 253.938337 
L 182.143681 254.961149 
L 182.37561 256.391055 
L 182.468382 256.513047 
L 182.607539 256.785565 
L 182.700311 256.547443 
L 182.839468 255.379761 
L 183.581642 245.074639 
L 184.045501 227.950794 
L 184.370201 218.407709 
L 184.787674 209.729588 
L 185.158761 205.822943 
L 185.205147 205.851448 
L 185.437076 207.077223 
L 185.483462 206.899158 
L 185.622619 206.336451 
L 185.715391 207.08606 
L 185.94732 210.291387 
L 185.993706 210.236884 
L 186.132864 208.552943 
L 186.828651 197.579278 
L 186.967809 196.693997 
L 187.014195 196.801426 
L 187.060581 196.958343 
L 187.106966 196.929894 
L 187.199738 195.426329 
L 187.524439 186.671656 
L 187.617211 186.574636 
L 187.709982 186.828266 
L 187.84914 188.384398 
L 188.081069 193.586294 
L 188.359384 208.855393 
L 188.869629 233.081709 
L 189.101558 239.051758 
L 189.472645 238.049404 
L 189.704574 235.747483 
L 189.890117 237.240289 
L 189.936503 236.826439 
L 190.075661 234.494041 
L 190.122047 234.76253 
L 190.214818 238.691214 
L 190.446747 264.388444 
L 190.678677 286.027089 
L 190.725063 285.721695 
L 190.817834 275.079837 
L 191.003378 211.820705 
L 191.42085 60.296249 
L 191.606394 67.523355 
L 191.652779 67.210244 
L 191.699165 66.97756 
L 191.745551 67.265802 
L 191.884709 70.488946 
L 191.97748 79.710436 
L 192.116638 162.47354 
L 192.348567 284.153483 
L 192.534111 264.624891 
L 192.580496 264.70398 
L 192.951583 271.834051 
L 193.090741 274.440446 
L 193.137127 274.398977 
L 193.183512 274.350446 
L 193.276284 274.941744 
L 193.461828 276.385493 
L 193.554599 275.738182 
L 194.064844 270.354098 
L 194.111229 270.242622 
L 194.204001 268.891923 
L 194.575088 261.253648 
L 195.317261 254.117613 
L 195.363647 254.162013 
L 195.688348 256.69893 
L 195.873892 258.076083 
L 196.013049 257.018775 
L 196.244978 255.942145 
L 196.384136 254.759301 
L 196.708837 252.259483 
L 196.940766 249.462027 
L 197.172695 241.109799 
L 197.404625 236.322644 
L 197.543782 233.997967 
L 198.193184 213.434556 
L 198.564271 208.470551 
L 198.610657 208.533974 
L 198.703428 208.560947 
L 198.842586 207.578574 
L 198.981743 207.023714 
L 199.074515 207.527197 
L 199.306444 209.582366 
L 199.35283 209.426623 
L 199.491988 208.731725 
L 199.584759 209.48638 
L 199.770303 211.737718 
L 199.816689 211.514595 
L 199.955846 208.705563 
L 200.234161 203.421789 
L 200.373319 202.638884 
L 200.419705 202.711504 
L 200.512476 202.983025 
L 200.558862 202.918912 
L 200.69802 201.28413 
L 201.301036 191.183006 
L 201.347422 191.237055 
L 201.440193 192.209447 
L 201.904052 204.469389 
L 202.460682 229.613172 
L 202.831769 239.082819 
L 202.878155 238.974161 
L 203.110084 237.910108 
L 203.342013 237.054856 
L 203.481171 236.596678 
L 203.620328 236.227886 
L 203.7131 236.971743 
L 203.852257 240.247895 
L 203.991415 249.316731 
L 204.362502 283.804743 
L 204.455273 275.167239 
L 204.640817 216.588357 
L 205.058289 59.915118 
L 205.243833 67.620396 
L 205.290219 67.117952 
L 205.336604 66.584399 
L 205.38299 66.629792 
L 205.522148 69.85264 
L 205.61492 77.38944 
L 205.707691 115.159927 
L 205.986006 283.835422 
L 206.17155 262.191477 
L 206.264321 264.198691 
L 206.542636 270.133467 
L 206.774566 273.615303 
L 206.820952 273.753908 
L 206.867337 273.562395 
L 207.006495 272.626303 
L 207.052881 272.882423 
L 207.192038 274.213874 
L 207.238424 274.057291 
L 207.609511 270.255381 
L 207.655897 270.323016 
L 207.702283 270.405797 
L 207.795054 269.606466 
L 208.258913 262.11643 
L 208.815543 254.932159 
L 208.908315 254.476253 
L 208.954701 254.638445 
L 209.093858 255.621542 
L 209.140244 255.516936 
L 209.279401 254.624308 
L 209.325787 254.647306 
L 209.418559 254.739304 
L 209.604102 253.003029 
L 209.696874 253.593552 
L 209.836032 254.866217 
L 209.975189 253.261354 
L 210.29989 249.176825 
L 210.902906 234.97743 
L 211.366765 224.532414 
L 211.737851 215.165775 
L 211.784237 215.174838 
L 211.830623 215.084834 
L 211.969781 213.376864 
L 212.20171 211.126271 
L 212.294482 210.746052 
L 212.340867 210.875858 
L 212.665568 212.585616 
L 212.990269 213.795075 
L 213.222198 216.674461 
L 213.268584 216.47773 
L 213.454128 214.150067 
L 213.778829 210.512361 
L 214.149915 206.976171 
L 214.289073 206.914905 
L 214.381845 207.163697 
L 214.428231 206.91867 
L 214.567388 202.271455 
L 214.799317 195.304407 
L 214.892089 194.611178 
L 214.938475 194.887038 
L 215.448719 205.733885 
L 216.144507 236.167834 
L 216.422822 241.142627 
L 216.515594 240.872063 
L 216.56198 241.038702 
L 216.747523 242.816264 
L 216.793909 242.547001 
L 217.257767 237.248412 
L 217.350539 238.774664 
L 217.536082 247.321385 
L 217.953555 281.710512 
L 217.999941 280.127694 
L 218.139098 258.937834 
L 218.371028 163.402898 
L 218.649343 59.228345 
L 218.742114 63.401998 
L 218.834886 67.4531 
L 218.881272 67.086308 
L 219.020429 64.826563 
L 219.113201 66.710258 
L 219.205973 72.980228 
L 219.298744 104.744983 
L 219.57706 289.456398 
L 219.623445 289.060033 
L 219.855375 275.075135 
L 220.087304 268.303184 
L 220.180076 269.513391 
L 220.458391 273.941519 
L 220.551162 274.523655 
L 220.597548 274.437226 
L 221.061407 270.274629 
L 221.432493 264.422022 
L 221.896352 258.322158 
L 222.081895 255.832824 
L 222.313825 253.421303 
L 222.452982 252.490082 
L 222.731297 250.370935 
L 222.824069 249.979697 
L 222.963226 249.202869 
L 223.009612 249.223988 
L 223.102384 249.507011 
L 223.14877 249.484917 
L 223.287927 248.081949 
L 223.659014 245.267254 
L 223.983715 241.420046 
L 224.493959 230.878083 
L 225.143361 216.695012 
L 225.282519 213.767013 
L 225.514448 209.927096 
L 225.653606 208.646796 
L 225.792763 206.83642 
L 225.839149 206.883298 
L 226.117464 208.620568 
L 226.210236 209.147288 
L 226.395779 210.987195 
L 226.442165 210.791275 
L 226.627708 209.298349 
L 226.674094 209.409391 
L 226.859638 210.286879 
L 226.952409 209.757524 
L 227.137953 206.323759 
L 227.416268 201.461959 
L 227.555425 201.240324 
L 227.694583 199.803698 
L 228.436756 189.317298 
L 228.483142 189.361512 
L 228.575914 190.334314 
L 228.900615 197.95025 
L 229.17893 212.710621 
L 229.503631 227.498814 
L 229.967489 238.367373 
L 230.106647 238.541099 
L 230.153033 238.483402 
L 230.29219 237.449438 
L 230.431348 236.403796 
L 230.477734 236.425965 
L 230.616891 236.882311 
L 230.663277 236.77548 
L 230.84882 235.06982 
L 230.895206 235.525226 
L 230.987978 239.834091 
L 231.219907 267.613175 
L 231.451836 290.00181 
L 231.544608 283.968021 
L 231.730152 233.212362 
L 232.19401 60.196677 
L 232.240396 62.165846 
L 232.379553 67.152372 
L 232.425939 66.69216 
L 232.518711 66.151109 
L 232.657869 69.31388 
L 232.75064 77.517954 
L 232.843412 117.449346 
L 233.121727 282.219683 
L 233.30727 263.922987 
L 233.353656 264.835165 
L 233.492814 268.095828 
L 233.5392 267.958203 
L 233.585585 268.020045 
L 233.724743 271.887956 
L 233.910286 275.379775 
L 234.049444 276.142066 
L 234.142216 276.728408 
L 234.188601 276.708541 
L 234.327759 275.305609 
L 235.20909 262.593801 
L 235.487405 258.561302 
L 235.580177 258.459357 
L 236.229579 255.087319 
L 236.32235 255.14526 
L 236.415122 254.830578 
L 236.55428 254.246897 
L 236.600666 254.316039 
L 236.878981 255.290611 
L 236.925366 255.257884 
L 237.064524 254.973002 
L 237.342839 253.068776 
L 237.389225 253.250706 
L 237.481997 253.535281 
L 237.574768 252.923086 
L 237.853083 247.508429 
L 238.085013 242.098004 
L 238.688029 222.07661 
L 239.244659 212.292242 
L 239.522974 209.396481 
L 239.708517 207.971531 
L 239.754903 208.004043 
L 240.12599 210.13995 
L 240.218762 210.70885 
L 240.265147 210.631848 
L 240.357919 209.490771 
L 240.821778 200.808318 
L 240.914549 200.74889 
L 241.007321 200.161423 
L 241.424794 193.738356 
L 241.935038 187.356308 
L 241.981424 187.529216 
L 242.120581 190.830971 
L 242.58444 205.409197 
L 243.14107 231.699228 
L 243.465771 238.223824 
L 243.512157 238.105966 
L 243.790472 237.133003 
L 243.976015 235.963979 
L 244.115173 236.073181 
L 244.25433 235.837856 
L 244.347102 236.335466 
L 244.439874 238.668368 
L 244.625417 253.381906 
L 244.950118 290.173621 
L 244.996504 289.255927 
L 245.089276 276.827973 
L 245.274819 212.099829 
L 245.692292 60.535118 
L 245.877835 67.209262 
L 245.970607 65.957338 
L 246.016993 65.9773 
L 246.15615 69.219317 
L 246.248922 76.934899 
L 246.341693 115.1159 
L 246.620009 278.669338 
L 246.805552 261.447163 
L 246.851938 262.193289 
L 246.991095 264.682379 
L 247.037481 264.614149 
L 247.083867 264.839337 
L 247.26941 269.948746 
L 247.50134 273.556202 
L 247.594111 273.872377 
L 247.640497 273.770916 
L 248.011584 271.227503 
L 248.800143 260.849845 
L 249.124844 257.64726 
L 249.310388 256.385824 
L 249.635089 253.323545 
L 249.913404 253.812762 
L 250.191719 256.591824 
L 250.238105 256.524124 
L 250.377262 255.845655 
L 250.562806 254.67657 
L 250.609191 254.785404 
L 250.701963 255.027843 
L 250.748349 254.881898 
L 251.304979 250.154997 
L 251.490523 245.648272 
L 252.371854 218.384163 
L 252.603783 212.937993 
L 252.835712 209.626426 
L 252.928484 209.318293 
L 253.253185 207.362062 
L 253.392342 207.421403 
L 253.485114 207.734946 
L 253.624272 208.357935 
L 253.763429 207.137456 
L 254.134516 202.592046 
L 254.505603 196.805473 
L 254.551988 196.600549 
L 254.598374 196.625049 
L 254.737532 197.100016 
L 254.783918 196.930212 
L 254.969461 194.169368 
L 255.43332 187.590441 
L 255.572477 187.032639 
L 255.665249 187.630884 
L 255.850792 190.710874 
L 256.036336 199.913175 
L 256.54658 227.198253 
L 256.964053 237.770561 
L 257.056824 238.288096 
L 257.10321 238.261469 
L 257.195982 238.334896 
L 257.381525 238.772013 
L 257.474297 238.364903 
L 257.798998 235.618426 
L 257.845384 235.853518 
L 257.984541 238.738381 
L 258.123699 247.495954 
L 258.494785 289.25456 
L 258.587557 285.812428 
L 258.726715 253.349371 
L 259.236959 60.517297 
L 259.283345 62.907157 
L 259.422502 67.560729 
L 259.515274 66.748055 
L 259.56166 66.945221 
L 259.700818 70.16252 
L 259.793589 77.277836 
L 259.886361 113.626689 
L 260.164676 281.051491 
L 260.211062 276.769618 
L 260.350219 262.544195 
L 260.396605 263.130702 
L 260.628534 267.766594 
L 261.23155 277.446011 
L 261.324322 276.571358 
L 262.205653 265.060549 
L 262.298425 264.585865 
L 262.483968 261.320856 
L 262.715898 258.852557 
L 263.13337 256.378911 
L 263.179756 256.399919 
L 263.272528 256.30879 
L 263.458071 255.524806 
L 263.550843 256.120169 
L 263.736386 257.622896 
L 263.782772 257.616849 
L 263.968315 257.162936 
L 264.014701 257.203425 
L 264.107473 257.294607 
L 264.153859 257.2278 
L 264.385788 256.09414 
L 264.710489 252.27794 
L 265.03519 244.886291 
L 266.055679 215.088585 
L 266.473151 208.932131 
L 266.565923 208.767181 
L 266.612309 208.832296 
L 266.658695 208.841203 
L 266.844238 208.387918 
L 267.168939 210.249592 
L 267.261711 210.656577 
L 267.308096 210.555832 
L 267.49364 208.17706 
L 268.05027 199.290159 
L 268.096656 199.566743 
L 268.189428 199.950563 
L 268.282199 199.117733 
L 268.746058 190.436914 
L 268.977987 186.433701 
L 269.024373 186.522053 
L 269.16353 188.541205 
L 269.581003 198.329641 
L 270.230405 230.120337 
L 270.50872 235.472232 
L 270.833421 237.340743 
L 270.879807 237.231213 
L 271.111736 235.149168 
L 271.250894 234.5268 
L 271.297279 234.627334 
L 271.436437 236.0694 
L 271.575594 240.222154 
L 271.761138 258.055668 
L 272.039453 288.363182 
L 272.085839 287.905121 
L 272.17861 277.031739 
L 272.364154 214.963727 
L 272.781626 59.941768 
L 272.96717 67.018201 
L 273.013556 66.396171 
L 273.059942 65.855116 
L 273.106327 65.961427 
L 273.245485 69.318465 
L 273.338257 76.848056 
L 273.431028 114.496686 
L 273.709343 280.108561 
L 273.894887 261.337769 
L 273.987658 263.187957 
L 274.358745 272.641499 
L 274.544289 274.180655 
L 274.683446 275.179937 
L 274.729832 275.139139 
L 274.961761 272.122878 
L 275.054533 272.811843 
L 275.100919 273.110806 
L 275.147305 272.99657 
L 275.611163 266.265138 
L 275.935864 261.427595 
L 276.121407 260.573385 
L 276.446108 257.342398 
L 276.770809 254.161192 
L 276.817195 254.270488 
L 277.281054 257.27037 
L 277.373825 257.092329 
L 277.559369 256.765289 
L 277.65214 256.42013 
L 277.976841 254.038633 
L 278.023227 254.014731 
L 278.115999 253.442778 
L 278.301542 248.974533 
L 278.858172 232.963267 
L 279.136488 222.554951 
L 279.368417 219.215251 
L 279.693118 214.645362 
L 279.878661 212.34871 
L 279.971433 211.557412 
L 280.017819 211.66026 
L 280.203362 213.295036 
L 280.249748 213.115563 
L 280.481677 210.76271 
L 280.528063 210.842741 
L 280.713606 212.046092 
L 280.89915 214.117563 
L 280.945536 214.071859 
L 281.270237 210.632895 
L 281.826867 204.291655 
L 281.919638 204.25883 
L 282.01241 203.704506 
L 282.197953 199.517944 
L 282.56904 192.746538 
L 282.615426 192.449271 
L 282.661812 192.605265 
L 282.940127 196.884456 
L 283.12567 204.162335 
L 283.821458 237.135611 
L 284.146159 240.654142 
L 284.192545 240.59834 
L 284.238931 240.631008 
L 284.378088 241.695847 
L 284.563632 243.264716 
L 284.610018 243.243191 
L 284.702789 242.35434 
L 284.981104 237.164042 
L 285.02749 237.70845 
L 285.213034 245.463037 
L 285.398577 262.615914 
L 285.630506 282.356555 
L 285.723278 277.219159 
L 285.862435 248.392271 
L 286.14075 114.403745 
L 286.326294 58.901234 
L 286.37268 59.470746 
L 286.511837 66.628486 
L 286.558223 66.4207 
L 286.697381 63.892177 
L 286.743767 64.218668 
L 286.836538 66.574639 
L 286.92931 78.309253 
L 287.068467 167.059669 
L 287.300397 285.794342 
L 287.48594 274.842251 
L 287.532326 275.458666 
L 287.578712 275.402196 
L 287.810641 268.64305 
L 287.857027 269.210051 
L 288.320885 276.185814 
L 288.413657 275.838028 
L 288.552815 274.195226 
L 288.83113 268.117771 
L 288.877515 268.542959 
L 288.970287 269.371192 
L 289.016673 269.055313 
L 289.573303 260.117304 
L 289.805232 257.791666 
L 290.037162 257.050935 
L 290.129933 256.661947 
L 290.408248 253.211128 
L 290.454634 253.30228 
L 290.593792 253.88929 
L 290.640178 253.697381 
L 290.779335 252.419665 
L 290.825721 252.485695 
L 290.964879 253.458045 
L 291.011264 253.20713 
L 291.475123 246.762457 
L 292.40284 227.80702 
L 292.820313 219.429325 
L 292.95947 217.142552 
L 293.237785 211.39369 
L 293.376943 211.937753 
L 293.5161 209.96608 
L 293.655258 208.859757 
L 294.119116 209.867377 
L 294.211888 210.071201 
L 294.397431 210.851057 
L 294.443817 210.67038 
L 294.629361 208.540373 
L 295.185991 200.038374 
L 295.510692 196.734053 
L 295.742621 192.44751 
L 295.835393 191.62535 
L 296.020936 188.487907 
L 296.067322 188.582968 
L 296.484794 193.329501 
L 296.670338 202.149119 
L 297.180582 227.704591 
L 297.505283 237.326454 
L 297.598055 236.751895 
L 297.783598 235.394557 
L 297.87637 235.413406 
L 298.108299 234.377606 
L 298.154685 234.465174 
L 298.386614 235.47858 
L 298.433 235.308264 
L 298.479386 235.16409 
L 298.525772 235.424792 
L 298.618543 238.642341 
L 298.850473 261.986419 
L 299.082402 281.121433 
L 299.128788 280.959847 
L 299.221559 272.018374 
L 299.407103 214.477033 
L 299.824575 59.498451 
L 300.010119 67.048024 
L 300.102891 65.43606 
L 300.149276 64.717263 
L 300.195662 64.759868 
L 300.288434 66.842512 
L 300.381206 74.705788 
L 300.473977 112.474303 
L 300.752292 284.034202 
L 300.984222 264.803871 
L 301.030607 265.278988 
L 301.076993 265.499297 
L 301.123379 265.240221 
L 301.216151 264.708007 
L 301.355308 266.304594 
L 301.911939 272.755545 
L 301.958324 272.702195 
L 302.051096 271.584919 
L 302.23664 268.615986 
L 302.283025 268.630988 
L 302.329411 268.756693 
L 302.375797 268.735147 
L 302.514955 267.03327 
L 303.442672 253.74148 
L 303.628215 252.265113 
L 303.720987 252.371077 
L 303.767372 252.287675 
L 303.90653 251.974501 
L 304.138459 252.671237 
L 304.277617 252.572058 
L 304.416774 252.413721 
L 304.509546 252.303909 
L 304.695089 252.930952 
L 304.741475 252.813366 
L 304.927019 251.154349 
L 304.973405 251.226813 
L 305.112562 251.852368 
L 305.205334 251.050673 
L 305.576421 242.702529 
L 305.854736 235.255697 
L 306.643295 214.815725 
L 306.782453 213.70214 
L 307.292697 206.984231 
L 307.339083 207.072736 
L 307.571012 208.828406 
L 307.617398 208.619219 
L 307.988485 205.847405 
L 308.452343 200.549336 
L 308.591501 200.259581 
L 308.730658 198.662301 
L 309.472832 186.085823 
L 309.565603 185.798232 
L 309.658375 187.281092 
L 310.168619 204.068744 
L 310.632478 227.88777 
L 310.910793 235.083914 
L 310.957179 235.212198 
L 311.003565 235.120109 
L 311.096336 234.932477 
L 311.142722 235.012497 
L 311.513809 236.246778 
L 311.560195 236.142256 
L 311.83851 233.694551 
L 311.884896 233.787168 
L 311.977667 234.857329 
L 312.116825 240.989081 
L 312.39514 274.08845 
L 312.534298 286.231872 
L 312.580683 286.117954 
L 312.673455 275.733291 
L 312.858999 213.553604 
L 313.276471 61.525466 
L 313.462015 68.60236 
L 313.554786 67.99466 
L 313.601172 68.053604 
L 313.74033 71.063261 
L 313.833101 79.069433 
L 313.925873 118.632764 
L 314.204188 284.718716 
L 314.436117 261.539953 
L 314.482503 262.281131 
L 314.807204 268.644497 
L 314.992748 272.035273 
L 315.317448 272.304201 
L 315.456606 271.51771 
L 315.688535 270.497491 
L 315.781307 269.903225 
L 316.569866 258.731906 
L 316.801796 256.818915 
L 316.894567 256.445811 
L 317.265654 253.962588 
L 317.404812 254.101204 
L 317.590355 253.569851 
L 317.636741 253.608847 
L 317.822284 254.097865 
L 317.86867 253.955829 
L 318.054213 251.815275 
L 318.146985 252.185909 
L 318.239757 252.483661 
L 318.935545 246.107346 
L 319.306631 235.808797 
L 320.048805 216.024014 
L 320.187962 214.392795 
L 320.512663 209.989651 
L 320.605435 209.806941 
L 320.651821 209.848 
L 320.88375 210.828911 
L 320.930136 210.604332 
L 321.069294 209.618605 
L 321.115679 209.6411 
L 321.347609 211.236597 
L 321.393994 211.063792 
L 321.625924 207.902178 
L 321.99701 202.838969 
L 322.136168 202.343241 
L 322.321711 200.684012 
L 322.553641 195.8943 
L 322.831956 189.526101 
L 322.924727 189.341075 
L 323.063885 188.321284 
L 323.110271 188.393637 
L 323.249428 191.37764 
L 323.713287 207.286181 
L 324.177145 231.407048 
L 324.362689 234.891287 
L 324.548232 239.031578 
L 324.965705 237.832 
L 325.058476 238.12721 
L 325.151248 238.514051 
L 325.197634 238.452434 
L 325.336791 237.910977 
L 325.383177 237.984855 
L 325.475949 238.745739 
L 325.568721 241.232588 
L 325.707878 252.520457 
L 326.078965 291.127765 
L 326.171737 282.430213 
L 326.35728 221.083955 
L 326.774753 62.651667 
L 327.006682 70.284307 
L 327.099454 70.167327 
L 327.238611 72.816475 
L 327.331383 79.465272 
L 327.424155 114.042753 
L 327.70247 287.337168 
L 327.748856 283.517351 
L 327.934399 265.78787 
L 328.2591 271.119353 
L 328.444643 274.132819 
L 328.491029 274.162019 
L 328.583801 274.804107 
L 328.769344 276.433445 
L 328.862116 275.570184 
L 329.233203 271.351024 
L 329.37236 270.768219 
L 329.418746 270.793268 
L 329.557904 270.874956 
L 329.650675 270.512806 
L 329.789833 268.219818 
L 330.068148 263.535064 
L 330.253691 262.868645 
L 330.671164 259.196075 
L 330.810321 258.163877 
L 330.856707 258.226218 
L 331.135022 259.337545 
L 331.227794 259.361905 
L 331.413337 259.85139 
L 331.552495 258.338212 
L 331.691653 257.438954 
L 331.83081 257.65537 
L 332.016354 256.665257 
L 332.155511 254.704979 
L 332.758527 240.05057 
L 333.176 227.262382 
L 334.010945 210.437827 
L 334.196488 211.723895 
L 334.242874 211.50319 
L 334.428418 210.158647 
L 334.706733 211.403485 
L 334.799504 211.395877 
L 334.892276 211.011438 
L 335.077819 208.668433 
L 335.541678 201.880963 
L 335.588064 201.836719 
L 335.727221 202.226364 
L 335.819993 201.369344 
L 336.562167 188.734165 
L 336.608552 188.254563 
L 336.654938 188.451274 
L 337.026025 197.120797 
L 337.211568 206.800972 
L 337.675427 231.26948 
L 338.0929 239.675286 
L 338.324829 237.020846 
L 338.4176 237.355131 
L 338.463986 237.338597 
L 338.742301 236.583296 
L 338.835073 236.399426 
L 339.020616 237.115455 
L 339.113388 239.167504 
L 339.252546 250.482999 
L 339.623632 290.004852 
L 339.716404 281.206111 
L 339.901948 220.202674 
L 340.31942 59.259939 
L 340.504964 66.543796 
L 340.551349 66.010719 
L 340.644121 65.325636 
L 340.783279 68.432633 
L 340.87605 75.067889 
L 340.968822 109.195943 
L 341.247137 279.599571 
L 341.293523 276.000566 
L 341.432681 261.53542 
L 341.479066 261.886304 
L 342.035697 278.062684 
L 342.22124 278.675382 
L 342.267626 278.571705 
L 342.545941 276.26917 
L 342.77787 273.188039 
L 342.824256 273.301832 
L 342.917028 273.525948 
L 343.009799 272.356122 
L 343.427272 265.043791 
L 344.030288 260.068374 
L 344.169446 257.635417 
L 344.215831 257.661201 
L 344.447761 260.733689 
L 344.540532 260.285995 
L 344.633304 259.781969 
L 344.67969 259.849945 
L 344.865233 260.522554 
L 344.911619 260.458998 
L 345.050777 259.84923 
L 345.79295 254.610879 
L 345.978494 247.117401 
L 346.256809 237.88134 
L 346.998982 214.781076 
L 347.184526 212.373169 
L 347.462841 205.326217 
L 347.509227 205.445784 
L 347.69477 206.67507 
L 347.741156 206.505901 
L 347.833927 206.056501 
L 347.880313 206.114899 
L 348.436943 209.874879 
L 348.483329 209.627631 
L 348.715259 204.535199 
L 348.854416 202.44768 
L 348.900802 202.697429 
L 348.993574 203.722969 
L 349.039959 203.71861 
L 349.503818 199.11502 
L 349.59659 198.864736 
L 349.689361 197.272417 
L 350.106834 186.530864 
L 350.245992 184.901188 
L 350.292377 185.051123 
L 350.524307 189.641913 
L 350.663464 195.492473 
L 350.988165 213.627691 
L 351.173708 220.093457 
L 351.498409 232.618616 
L 351.637567 233.053413 
L 351.915882 235.219136 
L 352.008654 235.343027 
L 352.194197 236.091344 
L 352.333355 234.181174 
L 352.472512 232.996177 
L 352.61167 234.587202 
L 352.750827 238.949509 
L 353.214686 272.891471 
L 353.307457 268.331675 
L 353.446615 235.443393 
L 353.910473 55.194744 
L 354.003245 60.69876 
L 354.096017 64.042271 
L 354.142403 63.304172 
L 354.28156 60.914476 
L 354.374332 62.65006 
L 354.467104 69.476301 
L 354.559875 104.186629 
L 354.83819 284.690585 
L 354.884576 283.280385 
L 355.116505 270.945211 
L 355.348435 262.877743 
L 355.394821 263.518407 
L 355.673136 268.731831 
L 355.858679 269.48128 
L 355.951451 268.610476 
L 356.136994 266.137182 
L 356.18338 266.180327 
L 356.229766 266.167029 
L 356.322538 265.093627 
L 356.554467 262.34183 
L 356.971939 257.990825 
L 357.250254 254.471672 
L 357.482184 252.530198 
L 357.574955 252.744743 
L 357.667727 253.012964 
L 357.806885 251.707439 
L 357.992428 250.718617 
L 358.177971 251.216032 
L 358.317129 252.463874 
L 358.456286 253.456584 
L 358.595444 252.120017 
L 358.780987 251.375894 
L 358.873759 251.164723 
L 358.966531 250.154391 
L 360.172563 221.447842 
L 360.497264 214.713784 
L 360.590035 214.348868 
L 361.10028 209.377909 
L 361.146666 209.384886 
L 361.378595 209.475455 
L 361.888839 211.756217 
L 361.981611 210.883886 
L 362.77017 199.050779 
L 363.141257 196.056877 
L 363.512344 189.098236 
L 363.697887 184.989464 
L 363.744273 185.241013 
L 364.068974 191.557585 
L 364.208132 196.861797 
L 364.811148 227.47528 
L 365.182234 236.104879 
L 365.275006 236.660336 
L 365.321392 236.530055 
L 365.553321 235.155587 
L 365.599707 235.31954 
L 365.738865 235.915553 
L 365.831636 235.410053 
L 366.063565 234.005851 
L 366.156337 234.748191 
L 366.295495 240.479277 
L 366.527424 266.972703 
L 366.712967 282.43887 
L 366.805739 275.462167 
L 366.991282 224.307068 
L 367.408755 59.995652 
L 367.455141 60.218443 
L 367.594298 67.347151 
L 367.640684 67.292036 
L 367.779842 65.070885 
L 367.826228 65.549519 
L 367.965385 71.12735 
L 368.058157 96.031932 
L 368.336472 282.514633 
L 368.429244 276.076291 
L 368.568401 262.799047 
L 368.614787 263.414558 
L 368.846716 266.927889 
L 369.078646 272.700688 
L 369.125031 272.545164 
L 369.217803 272.041496 
L 369.264189 272.176153 
L 369.403346 273.01358 
L 369.449732 272.910114 
L 370.099134 268.460269 
L 370.284678 265.386776 
L 370.70215 258.445039 
L 370.887694 257.666999 
L 371.026851 255.899993 
L 371.073237 256.024542 
L 371.212394 256.829098 
L 371.583481 254.184771 
L 371.629867 254.258396 
L 371.769025 254.517929 
L 371.861796 254.087264 
L 372.000954 253.378174 
L 372.140111 253.974133 
L 372.186497 253.84074 
L 372.325655 253.034935 
L 372.372041 253.222493 
L 372.511198 254.138244 
L 372.557584 254.110241 
L 372.789513 252.569311 
L 372.928671 250.678461 
L 373.346143 239.329787 
L 373.995545 221.679153 
L 374.227475 216.547994 
L 374.50579 211.858216 
L 374.598561 211.387677 
L 374.644947 211.437704 
L 374.876876 211.938536 
L 374.969648 211.484907 
L 375.108806 210.352661 
L 375.155192 210.550708 
L 375.479892 214.13807 
L 375.526278 214.112208 
L 375.61905 213.57853 
L 375.804593 210.621587 
L 376.129294 205.586901 
L 376.314838 204.715355 
L 376.546767 199.883622 
L 377.103397 192.225726 
L 377.149783 192.256121 
L 377.242555 192.797864 
L 377.613641 198.365674 
L 377.752799 202.953087 
L 378.402201 236.875973 
L 378.680516 244.195447 
L 378.912445 242.488725 
L 378.958831 242.604005 
L 379.19076 243.947526 
L 379.237146 243.937288 
L 379.515461 243.250444 
L 379.608233 242.369696 
L 379.654619 242.56575 
L 379.74739 245.650166 
L 379.932934 264.406372 
L 380.211249 295.488 
L 380.257635 295.330171 
L 380.350406 284.641337 
L 380.53595 221.909815 
L 380.953422 67.555637 
L 381.138966 74.378456 
L 381.231738 73.907984 
L 381.278123 73.953737 
L 381.417281 76.844072 
L 381.510053 84.500926 
L 381.602824 122.621191 
L 381.881139 290.234908 
L 382.066683 269.966818 
L 382.159454 271.454647 
L 382.344998 273.735646 
L 382.43777 275.608233 
L 382.716085 281.495902 
L 382.9944 281.681349 
L 383.087171 281.211541 
L 383.597416 275.113521 
L 384.293203 263.048778 
L 384.478747 262.498757 
L 384.571519 262.078407 
L 384.988991 258.340001 
L 385.035377 258.378142 
L 385.128149 258.188204 
L 385.313692 257.101918 
L 385.360078 257.161279 
L 385.592007 258.183747 
L 385.638393 258.127958 
L 386.102251 256.444305 
L 386.195023 255.908448 
L 386.241409 255.920974 
L 386.334181 256.076089 
L 386.426952 255.145988 
L 386.751653 245.843909 
L 387.540213 222.28721 
L 388.096843 212.029644 
L 388.46793 209.481009 
L 388.699859 207.837844 
L 388.746245 208.024966 
L 388.885402 210.360826 
L 389.02456 213.341126 
L 389.070946 213.296876 
L 389.302875 208.043859 
L 389.766733 199.752616 
L 389.859505 199.654943 
L 389.998663 198.088542 
L 390.276978 193.431303 
L 390.601679 185.667388 
L 390.648065 185.618445 
L 390.69445 185.68789 
L 390.833608 186.379747 
L 391.251081 191.027773 
L 391.48301 205.419476 
L 391.854097 223.273993 
L 392.317955 234.432086 
L 392.549884 234.405398 
L 392.689042 233.877698 
L 392.920971 232.613528 
L 393.013743 232.735638 
L 393.060129 232.653887 
L 393.199286 232.106896 
L 393.292058 233.372292 
L 393.431215 241.399755 
L 393.848688 283.470877 
L 393.895074 281.047687 
L 394.034231 251.200894 
L 394.544476 53.568 
L 394.637247 57.048644 
L 394.776405 60.525566 
L 394.869177 60.194807 
L 394.961948 61.33893 
L 395.05472 64.178383 
L 395.147492 81.019252 
L 395.333035 222.463472 
L 395.472193 276.786441 
L 395.704122 253.840706 
L 395.750508 255.298637 
L 395.936051 258.023207 
L 396.075209 261.86024 
L 396.214366 264.415042 
L 396.260752 264.250397 
L 396.353524 264.057093 
L 396.492681 264.559464 
L 396.539067 264.437096 
L 397.049311 260.223974 
L 397.51317 252.226395 
L 397.930643 246.573354 
L 398.0698 245.861941 
L 398.394501 241.722139 
L 398.487273 240.3107 
L 398.487273 240.3107 
" clip-path="url(#pd7f2aa9cdd)" style="fill: none; stroke: #008000; stroke-width: 1.5; stroke-linecap: square"/>
   </g>
   <g id="patch_3">
    <path d="M 57.6 307.584 
L 57.6 41.472 
" style="fill: none; stroke: #000000; stroke-width: 0.8; stroke-linejoin: miter; stroke-linecap: square"/>
   </g>
   <g id="patch_4">
    <path d="M 414.72 307.584 
L 414.72 41.472 
" style="fill: none; stroke: #000000; stroke-width: 0.8; stroke-linejoin: miter; stroke-linecap: square"/>
   </g>
   <g id="patch_5">
    <path d="M 57.6 307.584 
L 414.72 307.584 
" style="fill: none; stroke: #000000; stroke-width: 0.8; stroke-linejoin: miter; stroke-linecap: square"/>
   </g>
   <g id="patch_6">
    <path d="M 57.6 41.472 
L 414.72 41.472 
" style="fill: none; stroke: #000000; stroke-width: 0.8; stroke-linejoin: miter; stroke-linecap: square"/>
   </g>
  </g>
 </g>
 <defs>
  <clipPath id="pd7f2aa9cdd">
   <rect x="57.6" y="41.472" width="357.12" height="266.112"/>
  </clipPath>
 </defs>
</svg>
