<?xml version="1.0" encoding="utf-8" standalone="no"?>
<!DOCTYPE svg PUBLIC "-//W3C//DTD SVG 1.1//EN"
  "http://www.w3.org/Graphics/SVG/1.1/DTD/svg11.dtd">
<svg xmlns:xlink="http://www.w3.org/1999/xlink" width="460.8pt" height="345.6pt" viewBox="0 0 460.8 345.6" xmlns="http://www.w3.org/2000/svg" version="1.1">
 <metadata>
  <rdf:RDF xmlns:dc="http://purl.org/dc/elements/1.1/" xmlns:cc="http://creativecommons.org/ns#" xmlns:rdf="http://www.w3.org/1999/02/22-rdf-syntax-ns#">
   <cc:Work>
    <dc:type rdf:resource="http://purl.org/dc/dcmitype/StillImage"/>
    <dc:date>2024-05-24T14:37:26.496695</dc:date>
    <dc:format>image/svg+xml</dc:format>
    <dc:creator>
     <cc:Agent>
      <dc:title>Matplotlib v3.8.2, https://matplotlib.org/</dc:title>
     </cc:Agent>
    </dc:creator>
   </cc:Work>
  </rdf:RDF>
 </metadata>
 <defs>
  <style type="text/css">*{stroke-linejoin: round; stroke-linecap: butt}</style>
 </defs>
 <g id="figure_1">
  <g id="patch_1">
   <path d="M 0 345.6 
L 460.8 345.6 
L 460.8 0 
L 0 0 
z
" style="fill: #ffffff"/>
  </g>
  <g id="axes_1">
   <g id="patch_2">
    <path d="M 57.6 307.584 
L 414.72 307.584 
L 414.72 41.472 
L 57.6 41.472 
z
" style="fill: #ffffff"/>
   </g>
   <g id="matplotlib.axis_1">
    <g id="xtick_1">
     <g id="line2d_1">
      <defs>
       <path id="md3bdd5e434" d="M 0 0 
L 0 3.5 
" style="stroke: #000000; stroke-width: 0.8"/>
      </defs>
      <g>
       <use xlink:href="#md3bdd5e434" x="73.832727" y="307.584" style="stroke: #000000; stroke-width: 0.8"/>
      </g>
     </g>
     <g id="text_1">
      <!-- 0 -->
      <g transform="translate(70.651477 322.182437) scale(0.1 -0.1)">
       <defs>
        <path id="DejaVuSans-30" d="M 2034 4250 
Q 1547 4250 1301 3770 
Q 1056 3291 1056 2328 
Q 1056 1369 1301 889 
Q 1547 409 2034 409 
Q 2525 409 2770 889 
Q 3016 1369 3016 2328 
Q 3016 3291 2770 3770 
Q 2525 4250 2034 4250 
z
M 2034 4750 
Q 2819 4750 3233 4129 
Q 3647 3509 3647 2328 
Q 3647 1150 3233 529 
Q 2819 -91 2034 -91 
Q 1250 -91 836 529 
Q 422 1150 422 2328 
Q 422 3509 836 4129 
Q 1250 4750 2034 4750 
z
" transform="scale(0.015625)"/>
       </defs>
       <use xlink:href="#DejaVuSans-30"/>
      </g>
     </g>
    </g>
    <g id="xtick_2">
     <g id="line2d_2">
      <g>
       <use xlink:href="#md3bdd5e434" x="138.763636" y="307.584" style="stroke: #000000; stroke-width: 0.8"/>
      </g>
     </g>
     <g id="text_2">
      <!-- 2 -->
      <g transform="translate(135.582386 322.182437) scale(0.1 -0.1)">
       <defs>
        <path id="DejaVuSans-32" d="M 1228 531 
L 3431 531 
L 3431 0 
L 469 0 
L 469 531 
Q 828 903 1448 1529 
Q 2069 2156 2228 2338 
Q 2531 2678 2651 2914 
Q 2772 3150 2772 3378 
Q 2772 3750 2511 3984 
Q 2250 4219 1831 4219 
Q 1534 4219 1204 4116 
Q 875 4013 500 3803 
L 500 4441 
Q 881 4594 1212 4672 
Q 1544 4750 1819 4750 
Q 2544 4750 2975 4387 
Q 3406 4025 3406 3419 
Q 3406 3131 3298 2873 
Q 3191 2616 2906 2266 
Q 2828 2175 2409 1742 
Q 1991 1309 1228 531 
z
" transform="scale(0.015625)"/>
       </defs>
       <use xlink:href="#DejaVuSans-32"/>
      </g>
     </g>
    </g>
    <g id="xtick_3">
     <g id="line2d_3">
      <g>
       <use xlink:href="#md3bdd5e434" x="203.694545" y="307.584" style="stroke: #000000; stroke-width: 0.8"/>
      </g>
     </g>
     <g id="text_3">
      <!-- 4 -->
      <g transform="translate(200.513295 322.182437) scale(0.1 -0.1)">
       <defs>
        <path id="DejaVuSans-34" d="M 2419 4116 
L 825 1625 
L 2419 1625 
L 2419 4116 
z
M 2253 4666 
L 3047 4666 
L 3047 1625 
L 3713 1625 
L 3713 1100 
L 3047 1100 
L 3047 0 
L 2419 0 
L 2419 1100 
L 313 1100 
L 313 1709 
L 2253 4666 
z
" transform="scale(0.015625)"/>
       </defs>
       <use xlink:href="#DejaVuSans-34"/>
      </g>
     </g>
    </g>
    <g id="xtick_4">
     <g id="line2d_4">
      <g>
       <use xlink:href="#md3bdd5e434" x="268.625455" y="307.584" style="stroke: #000000; stroke-width: 0.8"/>
      </g>
     </g>
     <g id="text_4">
      <!-- 6 -->
      <g transform="translate(265.444205 322.182437) scale(0.1 -0.1)">
       <defs>
        <path id="DejaVuSans-36" d="M 2113 2584 
Q 1688 2584 1439 2293 
Q 1191 2003 1191 1497 
Q 1191 994 1439 701 
Q 1688 409 2113 409 
Q 2538 409 2786 701 
Q 3034 994 3034 1497 
Q 3034 2003 2786 2293 
Q 2538 2584 2113 2584 
z
M 3366 4563 
L 3366 3988 
Q 3128 4100 2886 4159 
Q 2644 4219 2406 4219 
Q 1781 4219 1451 3797 
Q 1122 3375 1075 2522 
Q 1259 2794 1537 2939 
Q 1816 3084 2150 3084 
Q 2853 3084 3261 2657 
Q 3669 2231 3669 1497 
Q 3669 778 3244 343 
Q 2819 -91 2113 -91 
Q 1303 -91 875 529 
Q 447 1150 447 2328 
Q 447 3434 972 4092 
Q 1497 4750 2381 4750 
Q 2619 4750 2861 4703 
Q 3103 4656 3366 4563 
z
" transform="scale(0.015625)"/>
       </defs>
       <use xlink:href="#DejaVuSans-36"/>
      </g>
     </g>
    </g>
    <g id="xtick_5">
     <g id="line2d_5">
      <g>
       <use xlink:href="#md3bdd5e434" x="333.556364" y="307.584" style="stroke: #000000; stroke-width: 0.8"/>
      </g>
     </g>
     <g id="text_5">
      <!-- 8 -->
      <g transform="translate(330.375114 322.182437) scale(0.1 -0.1)">
       <defs>
        <path id="DejaVuSans-38" d="M 2034 2216 
Q 1584 2216 1326 1975 
Q 1069 1734 1069 1313 
Q 1069 891 1326 650 
Q 1584 409 2034 409 
Q 2484 409 2743 651 
Q 3003 894 3003 1313 
Q 3003 1734 2745 1975 
Q 2488 2216 2034 2216 
z
M 1403 2484 
Q 997 2584 770 2862 
Q 544 3141 544 3541 
Q 544 4100 942 4425 
Q 1341 4750 2034 4750 
Q 2731 4750 3128 4425 
Q 3525 4100 3525 3541 
Q 3525 3141 3298 2862 
Q 3072 2584 2669 2484 
Q 3125 2378 3379 2068 
Q 3634 1759 3634 1313 
Q 3634 634 3220 271 
Q 2806 -91 2034 -91 
Q 1263 -91 848 271 
Q 434 634 434 1313 
Q 434 1759 690 2068 
Q 947 2378 1403 2484 
z
M 1172 3481 
Q 1172 3119 1398 2916 
Q 1625 2713 2034 2713 
Q 2441 2713 2670 2916 
Q 2900 3119 2900 3481 
Q 2900 3844 2670 4047 
Q 2441 4250 2034 4250 
Q 1625 4250 1398 4047 
Q 1172 3844 1172 3481 
z
" transform="scale(0.015625)"/>
       </defs>
       <use xlink:href="#DejaVuSans-38"/>
      </g>
     </g>
    </g>
    <g id="xtick_6">
     <g id="line2d_6">
      <g>
       <use xlink:href="#md3bdd5e434" x="398.487273" y="307.584" style="stroke: #000000; stroke-width: 0.8"/>
      </g>
     </g>
     <g id="text_6">
      <!-- 10 -->
      <g transform="translate(392.124773 322.182437) scale(0.1 -0.1)">
       <defs>
        <path id="DejaVuSans-31" d="M 794 531 
L 1825 531 
L 1825 4091 
L 703 3866 
L 703 4441 
L 1819 4666 
L 2450 4666 
L 2450 531 
L 3481 531 
L 3481 0 
L 794 0 
L 794 531 
z
" transform="scale(0.015625)"/>
       </defs>
       <use xlink:href="#DejaVuSans-31"/>
       <use xlink:href="#DejaVuSans-30" x="63.623047"/>
      </g>
     </g>
    </g>
    <g id="text_7">
     <!-- Time [$s$] -->
     <g transform="translate(215.66 335.860562) scale(0.1 -0.1)">
      <defs>
       <path id="DejaVuSans-54" d="M -19 4666 
L 3928 4666 
L 3928 4134 
L 2272 4134 
L 2272 0 
L 1638 0 
L 1638 4134 
L -19 4134 
L -19 4666 
z
" transform="scale(0.015625)"/>
       <path id="DejaVuSans-69" d="M 603 3500 
L 1178 3500 
L 1178 0 
L 603 0 
L 603 3500 
z
M 603 4863 
L 1178 4863 
L 1178 4134 
L 603 4134 
L 603 4863 
z
" transform="scale(0.015625)"/>
       <path id="DejaVuSans-6d" d="M 3328 2828 
Q 3544 3216 3844 3400 
Q 4144 3584 4550 3584 
Q 5097 3584 5394 3201 
Q 5691 2819 5691 2113 
L 5691 0 
L 5113 0 
L 5113 2094 
Q 5113 2597 4934 2840 
Q 4756 3084 4391 3084 
Q 3944 3084 3684 2787 
Q 3425 2491 3425 1978 
L 3425 0 
L 2847 0 
L 2847 2094 
Q 2847 2600 2669 2842 
Q 2491 3084 2119 3084 
Q 1678 3084 1418 2786 
Q 1159 2488 1159 1978 
L 1159 0 
L 581 0 
L 581 3500 
L 1159 3500 
L 1159 2956 
Q 1356 3278 1631 3431 
Q 1906 3584 2284 3584 
Q 2666 3584 2933 3390 
Q 3200 3197 3328 2828 
z
" transform="scale(0.015625)"/>
       <path id="DejaVuSans-65" d="M 3597 1894 
L 3597 1613 
L 953 1613 
Q 991 1019 1311 708 
Q 1631 397 2203 397 
Q 2534 397 2845 478 
Q 3156 559 3463 722 
L 3463 178 
Q 3153 47 2828 -22 
Q 2503 -91 2169 -91 
Q 1331 -91 842 396 
Q 353 884 353 1716 
Q 353 2575 817 3079 
Q 1281 3584 2069 3584 
Q 2775 3584 3186 3129 
Q 3597 2675 3597 1894 
z
M 3022 2063 
Q 3016 2534 2758 2815 
Q 2500 3097 2075 3097 
Q 1594 3097 1305 2825 
Q 1016 2553 972 2059 
L 3022 2063 
z
" transform="scale(0.015625)"/>
       <path id="DejaVuSans-20" transform="scale(0.015625)"/>
       <path id="DejaVuSans-5b" d="M 550 4863 
L 1875 4863 
L 1875 4416 
L 1125 4416 
L 1125 -397 
L 1875 -397 
L 1875 -844 
L 550 -844 
L 550 4863 
z
" transform="scale(0.015625)"/>
       <path id="DejaVuSans-Oblique-73" d="M 3200 3397 
L 3091 2853 
Q 2863 2978 2609 3040 
Q 2356 3103 2088 3103 
Q 1634 3103 1373 2948 
Q 1113 2794 1113 2528 
Q 1113 2219 1719 2053 
Q 1766 2041 1788 2034 
L 1972 1978 
Q 2547 1819 2739 1644 
Q 2931 1469 2931 1166 
Q 2931 609 2489 259 
Q 2047 -91 1331 -91 
Q 1053 -91 747 -37 
Q 441 16 72 128 
L 184 722 
Q 500 559 806 475 
Q 1113 391 1394 391 
Q 1816 391 2080 572 
Q 2344 753 2344 1031 
Q 2344 1331 1650 1516 
L 1591 1531 
L 1394 1581 
Q 956 1697 753 1886 
Q 550 2075 550 2369 
Q 550 2928 970 3256 
Q 1391 3584 2113 3584 
Q 2397 3584 2667 3537 
Q 2938 3491 3200 3397 
z
" transform="scale(0.015625)"/>
       <path id="DejaVuSans-5d" d="M 1947 4863 
L 1947 -844 
L 622 -844 
L 622 -397 
L 1369 -397 
L 1369 4416 
L 622 4416 
L 622 4863 
L 1947 4863 
z
" transform="scale(0.015625)"/>
      </defs>
      <use xlink:href="#DejaVuSans-54" transform="translate(0 0.015625)"/>
      <use xlink:href="#DejaVuSans-69" transform="translate(61.083984 0.015625)"/>
      <use xlink:href="#DejaVuSans-6d" transform="translate(88.867188 0.015625)"/>
      <use xlink:href="#DejaVuSans-65" transform="translate(186.279297 0.015625)"/>
      <use xlink:href="#DejaVuSans-20" transform="translate(247.802734 0.015625)"/>
      <use xlink:href="#DejaVuSans-5b" transform="translate(279.589844 0.015625)"/>
      <use xlink:href="#DejaVuSans-Oblique-73" transform="translate(318.603516 0.015625)"/>
      <use xlink:href="#DejaVuSans-5d" transform="translate(370.703125 0.015625)"/>
     </g>
    </g>
   </g>
   <g id="matplotlib.axis_2">
    <g id="ytick_1">
     <g id="line2d_7">
      <defs>
       <path id="m56840f8709" d="M 0 0 
L -3.5 0 
" style="stroke: #000000; stroke-width: 0.8"/>
      </defs>
      <g>
       <use xlink:href="#m56840f8709" x="57.6" y="306.600747" style="stroke: #000000; stroke-width: 0.8"/>
      </g>
     </g>
     <g id="text_8">
      <!-- −1000 -->
      <g transform="translate(16.770313 310.399965) scale(0.1 -0.1)">
       <defs>
        <path id="DejaVuSans-2212" d="M 678 2272 
L 4684 2272 
L 4684 1741 
L 678 1741 
L 678 2272 
z
" transform="scale(0.015625)"/>
       </defs>
       <use xlink:href="#DejaVuSans-2212"/>
       <use xlink:href="#DejaVuSans-31" x="83.789062"/>
       <use xlink:href="#DejaVuSans-30" x="147.412109"/>
       <use xlink:href="#DejaVuSans-30" x="211.035156"/>
       <use xlink:href="#DejaVuSans-30" x="274.658203"/>
      </g>
     </g>
    </g>
    <g id="ytick_2">
     <g id="line2d_8">
      <g>
       <use xlink:href="#m56840f8709" x="57.6" y="255.107914" style="stroke: #000000; stroke-width: 0.8"/>
      </g>
     </g>
     <g id="text_9">
      <!-- −500 -->
      <g transform="translate(23.132812 258.907133) scale(0.1 -0.1)">
       <defs>
        <path id="DejaVuSans-35" d="M 691 4666 
L 3169 4666 
L 3169 4134 
L 1269 4134 
L 1269 2991 
Q 1406 3038 1543 3061 
Q 1681 3084 1819 3084 
Q 2600 3084 3056 2656 
Q 3513 2228 3513 1497 
Q 3513 744 3044 326 
Q 2575 -91 1722 -91 
Q 1428 -91 1123 -41 
Q 819 9 494 109 
L 494 744 
Q 775 591 1075 516 
Q 1375 441 1709 441 
Q 2250 441 2565 725 
Q 2881 1009 2881 1497 
Q 2881 1984 2565 2268 
Q 2250 2553 1709 2553 
Q 1456 2553 1204 2497 
Q 953 2441 691 2322 
L 691 4666 
z
" transform="scale(0.015625)"/>
       </defs>
       <use xlink:href="#DejaVuSans-2212"/>
       <use xlink:href="#DejaVuSans-35" x="83.789062"/>
       <use xlink:href="#DejaVuSans-30" x="147.412109"/>
       <use xlink:href="#DejaVuSans-30" x="211.035156"/>
      </g>
     </g>
    </g>
    <g id="ytick_3">
     <g id="line2d_9">
      <g>
       <use xlink:href="#m56840f8709" x="57.6" y="203.615081" style="stroke: #000000; stroke-width: 0.8"/>
      </g>
     </g>
     <g id="text_10">
      <!-- 0 -->
      <g transform="translate(44.2375 207.4143) scale(0.1 -0.1)">
       <use xlink:href="#DejaVuSans-30"/>
      </g>
     </g>
    </g>
    <g id="ytick_4">
     <g id="line2d_10">
      <g>
       <use xlink:href="#m56840f8709" x="57.6" y="152.122248" style="stroke: #000000; stroke-width: 0.8"/>
      </g>
     </g>
     <g id="text_11">
      <!-- 500 -->
      <g transform="translate(31.5125 155.921467) scale(0.1 -0.1)">
       <use xlink:href="#DejaVuSans-35"/>
       <use xlink:href="#DejaVuSans-30" x="63.623047"/>
       <use xlink:href="#DejaVuSans-30" x="127.246094"/>
      </g>
     </g>
    </g>
    <g id="ytick_5">
     <g id="line2d_11">
      <g>
       <use xlink:href="#m56840f8709" x="57.6" y="100.629415" style="stroke: #000000; stroke-width: 0.8"/>
      </g>
     </g>
     <g id="text_12">
      <!-- 1000 -->
      <g transform="translate(25.15 104.428634) scale(0.1 -0.1)">
       <use xlink:href="#DejaVuSans-31"/>
       <use xlink:href="#DejaVuSans-30" x="63.623047"/>
       <use xlink:href="#DejaVuSans-30" x="127.246094"/>
       <use xlink:href="#DejaVuSans-30" x="190.869141"/>
      </g>
     </g>
    </g>
    <g id="ytick_6">
     <g id="line2d_12">
      <g>
       <use xlink:href="#m56840f8709" x="57.6" y="49.136582" style="stroke: #000000; stroke-width: 0.8"/>
      </g>
     </g>
     <g id="text_13">
      <!-- 1500 -->
      <g transform="translate(25.15 52.935801) scale(0.1 -0.1)">
       <use xlink:href="#DejaVuSans-31"/>
       <use xlink:href="#DejaVuSans-35" x="63.623047"/>
       <use xlink:href="#DejaVuSans-30" x="127.246094"/>
       <use xlink:href="#DejaVuSans-30" x="190.869141"/>
      </g>
     </g>
    </g>
    <g id="text_14">
     <!-- Voltage [$mV$] -->
     <g transform="translate(10.670313 207.478) rotate(-90) scale(0.1 -0.1)">
      <defs>
       <path id="DejaVuSans-56" d="M 1831 0 
L 50 4666 
L 709 4666 
L 2188 738 
L 3669 4666 
L 4325 4666 
L 2547 0 
L 1831 0 
z
" transform="scale(0.015625)"/>
       <path id="DejaVuSans-6f" d="M 1959 3097 
Q 1497 3097 1228 2736 
Q 959 2375 959 1747 
Q 959 1119 1226 758 
Q 1494 397 1959 397 
Q 2419 397 2687 759 
Q 2956 1122 2956 1747 
Q 2956 2369 2687 2733 
Q 2419 3097 1959 3097 
z
M 1959 3584 
Q 2709 3584 3137 3096 
Q 3566 2609 3566 1747 
Q 3566 888 3137 398 
Q 2709 -91 1959 -91 
Q 1206 -91 779 398 
Q 353 888 353 1747 
Q 353 2609 779 3096 
Q 1206 3584 1959 3584 
z
" transform="scale(0.015625)"/>
       <path id="DejaVuSans-6c" d="M 603 4863 
L 1178 4863 
L 1178 0 
L 603 0 
L 603 4863 
z
" transform="scale(0.015625)"/>
       <path id="DejaVuSans-74" d="M 1172 4494 
L 1172 3500 
L 2356 3500 
L 2356 3053 
L 1172 3053 
L 1172 1153 
Q 1172 725 1289 603 
Q 1406 481 1766 481 
L 2356 481 
L 2356 0 
L 1766 0 
Q 1100 0 847 248 
Q 594 497 594 1153 
L 594 3053 
L 172 3053 
L 172 3500 
L 594 3500 
L 594 4494 
L 1172 4494 
z
" transform="scale(0.015625)"/>
       <path id="DejaVuSans-61" d="M 2194 1759 
Q 1497 1759 1228 1600 
Q 959 1441 959 1056 
Q 959 750 1161 570 
Q 1363 391 1709 391 
Q 2188 391 2477 730 
Q 2766 1069 2766 1631 
L 2766 1759 
L 2194 1759 
z
M 3341 1997 
L 3341 0 
L 2766 0 
L 2766 531 
Q 2569 213 2275 61 
Q 1981 -91 1556 -91 
Q 1019 -91 701 211 
Q 384 513 384 1019 
Q 384 1609 779 1909 
Q 1175 2209 1959 2209 
L 2766 2209 
L 2766 2266 
Q 2766 2663 2505 2880 
Q 2244 3097 1772 3097 
Q 1472 3097 1187 3025 
Q 903 2953 641 2809 
L 641 3341 
Q 956 3463 1253 3523 
Q 1550 3584 1831 3584 
Q 2591 3584 2966 3190 
Q 3341 2797 3341 1997 
z
" transform="scale(0.015625)"/>
       <path id="DejaVuSans-67" d="M 2906 1791 
Q 2906 2416 2648 2759 
Q 2391 3103 1925 3103 
Q 1463 3103 1205 2759 
Q 947 2416 947 1791 
Q 947 1169 1205 825 
Q 1463 481 1925 481 
Q 2391 481 2648 825 
Q 2906 1169 2906 1791 
z
M 3481 434 
Q 3481 -459 3084 -895 
Q 2688 -1331 1869 -1331 
Q 1566 -1331 1297 -1286 
Q 1028 -1241 775 -1147 
L 775 -588 
Q 1028 -725 1275 -790 
Q 1522 -856 1778 -856 
Q 2344 -856 2625 -561 
Q 2906 -266 2906 331 
L 2906 616 
Q 2728 306 2450 153 
Q 2172 0 1784 0 
Q 1141 0 747 490 
Q 353 981 353 1791 
Q 353 2603 747 3093 
Q 1141 3584 1784 3584 
Q 2172 3584 2450 3431 
Q 2728 3278 2906 2969 
L 2906 3500 
L 3481 3500 
L 3481 434 
z
" transform="scale(0.015625)"/>
       <path id="DejaVuSans-Oblique-6d" d="M 5747 2113 
L 5338 0 
L 4763 0 
L 5166 2094 
Q 5191 2228 5203 2325 
Q 5216 2422 5216 2491 
Q 5216 2772 5059 2928 
Q 4903 3084 4622 3084 
Q 4203 3084 3875 2770 
Q 3547 2456 3450 1953 
L 3066 0 
L 2491 0 
L 2900 2094 
Q 2925 2209 2937 2307 
Q 2950 2406 2950 2484 
Q 2950 2769 2794 2926 
Q 2638 3084 2363 3084 
Q 1938 3084 1609 2770 
Q 1281 2456 1184 1953 
L 800 0 
L 225 0 
L 909 3500 
L 1484 3500 
L 1375 2956 
Q 1609 3263 1923 3423 
Q 2238 3584 2597 3584 
Q 2978 3584 3223 3384 
Q 3469 3184 3519 2828 
Q 3781 3197 4126 3390 
Q 4472 3584 4856 3584 
Q 5306 3584 5551 3325 
Q 5797 3066 5797 2591 
Q 5797 2488 5784 2364 
Q 5772 2241 5747 2113 
z
" transform="scale(0.015625)"/>
       <path id="DejaVuSans-Oblique-56" d="M 1319 0 
L 500 4666 
L 1119 4666 
L 1797 653 
L 4063 4666 
L 4750 4666 
L 2053 0 
L 1319 0 
z
" transform="scale(0.015625)"/>
      </defs>
      <use xlink:href="#DejaVuSans-56" transform="translate(0 0.015625)"/>
      <use xlink:href="#DejaVuSans-6f" transform="translate(68.408203 0.015625)"/>
      <use xlink:href="#DejaVuSans-6c" transform="translate(129.589844 0.015625)"/>
      <use xlink:href="#DejaVuSans-74" transform="translate(157.373047 0.015625)"/>
      <use xlink:href="#DejaVuSans-61" transform="translate(196.582031 0.015625)"/>
      <use xlink:href="#DejaVuSans-67" transform="translate(257.861328 0.015625)"/>
      <use xlink:href="#DejaVuSans-65" transform="translate(321.337891 0.015625)"/>
      <use xlink:href="#DejaVuSans-20" transform="translate(382.861328 0.015625)"/>
      <use xlink:href="#DejaVuSans-5b" transform="translate(414.648438 0.015625)"/>
      <use xlink:href="#DejaVuSans-Oblique-6d" transform="translate(453.662109 0.015625)"/>
      <use xlink:href="#DejaVuSans-Oblique-56" transform="translate(551.074219 0.015625)"/>
      <use xlink:href="#DejaVuSans-5d" transform="translate(619.482422 0.015625)"/>
     </g>
    </g>
   </g>
   <g id="line2d_13">
    <path d="M 73.832727 203.638146 
L 73.925499 204.379279 
L 74.157428 210.904126 
L 74.2502 210.403774 
L 74.435743 209.45535 
L 74.528515 208.876204 
L 74.80683 205.958731 
L 74.853216 206.012051 
L 75.085145 208.385731 
L 75.177917 207.93629 
L 75.456232 205.338485 
L 75.502618 205.343808 
L 75.595389 205.01757 
L 75.827319 203.684882 
L 75.92009 203.64975 
L 76.15202 203.038044 
L 76.198405 203.056959 
L 76.291177 203.027009 
L 76.523106 202.36028 
L 76.569492 202.456641 
L 76.70865 202.768324 
L 76.847807 202.010725 
L 77.033351 201.407267 
L 77.218894 201.837281 
L 77.26528 201.755488 
L 77.497209 200.692459 
L 77.543595 200.758747 
L 77.636367 200.813201 
L 77.775524 200.051051 
L 78.424926 193.888719 
L 78.517698 192.791871 
L 78.564084 192.906131 
L 78.749627 195.582268 
L 78.842399 195.183322 
L 79.491801 188.545224 
L 79.538186 188.749041 
L 79.770116 191.250823 
L 80.141203 198.388017 
L 80.651447 214.262483 
L 80.790604 214.865354 
L 80.929762 214.568139 
L 80.976148 214.596197 
L 81.115305 214.779699 
L 81.440006 214.126532 
L 81.579164 213.179831 
L 81.950251 210.144545 
L 82.135794 209.942212 
L 82.460495 209.994115 
L 82.599652 209.449236 
L 82.73881 208.757396 
L 82.785196 208.870403 
L 82.877968 210.481605 
L 83.017125 218.35158 
L 83.29544 235.159816 
L 83.388212 229.354706 
L 83.527369 202.272715 
L 83.805684 85.470134 
L 83.944842 53.568 
L 83.991228 56.498436 
L 84.269543 80.708292 
L 84.687016 115.610193 
L 84.826173 174.666218 
L 85.058102 283.913803 
L 85.243646 270.3752 
L 85.336417 270.981463 
L 85.382803 270.760733 
L 85.568347 266.9691 
L 85.614732 267.654093 
L 85.939433 279.451518 
L 86.032205 278.279106 
L 86.356906 267.395958 
L 86.403292 267.952672 
L 86.542449 269.563798 
L 86.635221 267.690109 
L 87.052694 251.588219 
L 87.145465 250.772634 
L 87.284623 246.861785 
L 87.65571 232.878151 
L 87.887639 231.408315 
L 88.073182 224.506161 
L 88.305112 218.413538 
L 88.351497 218.415832 
L 88.444269 218.582109 
L 88.537041 217.778914 
L 88.722584 211.388325 
L 88.954514 205.913043 
L 89.093671 207.868569 
L 89.186443 208.820912 
L 89.232829 208.470568 
L 89.418372 202.041604 
L 89.603915 198.759098 
L 89.789459 199.412733 
L 89.88223 198.721229 
L 90.206931 193.478319 
L 90.253317 193.699934 
L 90.392475 194.609982 
L 90.438861 194.521349 
L 90.578018 192.660537 
L 90.856333 187.912408 
L 90.949105 188.86157 
L 91.088262 190.678637 
L 91.134648 190.650156 
L 91.273806 188.319195 
L 91.459349 185.28278 
L 91.505735 185.367488 
L 91.737664 187.186169 
L 91.78405 187.030053 
L 91.923208 185.031174 
L 92.108751 182.629741 
L 92.201523 183.542234 
L 92.34068 185.293154 
L 92.387066 185.273771 
L 92.526224 183.638078 
L 92.711767 181.43265 
L 92.758153 181.570138 
L 92.897311 185.323887 
L 93.12924 190.445792 
L 93.268397 190.909056 
L 93.453941 192.77677 
L 94.381658 208.61398 
L 94.428043 208.869598 
L 94.474429 208.772798 
L 94.706359 206.754368 
L 94.752744 207.050869 
L 94.938288 208.261053 
L 95.077445 207.465877 
L 95.680461 202.880212 
L 95.866005 200.333242 
L 96.14432 196.557106 
L 96.237092 197.356922 
L 96.422635 199.854165 
L 96.469021 199.779132 
L 97.396738 193.035745 
L 97.443124 193.002044 
L 97.582281 193.942136 
L 97.767824 194.925224 
L 97.860596 194.723002 
L 97.999754 194.277232 
L 98.04614 194.399015 
L 98.185297 195.039182 
L 98.231683 194.84641 
L 98.417226 193.032804 
L 98.463612 193.188832 
L 98.788313 195.599516 
L 98.973857 196.108214 
L 99.066628 195.602144 
L 99.298557 194.035703 
L 99.437715 194.776056 
L 99.994345 198.124551 
L 100.087117 198.351228 
L 100.226274 197.635674 
L 100.319046 197.34638 
L 100.365432 197.436738 
L 100.504589 197.74171 
L 100.643747 197.436916 
L 100.782905 198.330674 
L 100.82929 198.571199 
L 100.875676 198.56045 
L 101.107606 197.243166 
L 101.153991 197.37731 
L 101.664236 199.629485 
L 101.942551 198.484419 
L 102.035322 198.573554 
L 102.220866 198.834113 
L 102.406409 198.605249 
L 102.638338 198.824349 
L 102.73111 198.919897 
L 102.870268 199.177575 
L 102.963039 198.88222 
L 103.194969 197.840467 
L 103.28774 198.751236 
L 103.51967 201.366439 
L 103.658827 201.117369 
L 103.705213 201.173047 
L 103.937142 201.368073 
L 104.029914 201.066034 
L 104.169071 200.172509 
L 104.215457 200.262778 
L 104.540158 201.984135 
L 104.586544 202.041014 
L 104.63293 202.002666 
L 104.725702 201.823146 
L 104.772087 201.845856 
L 104.911245 202.188914 
L 104.957631 202.071146 
L 105.143174 200.910272 
L 105.18956 200.967924 
L 105.607033 202.223703 
L 105.699804 201.88724 
L 105.978119 199.142718 
L 106.349206 194.522595 
L 106.581135 196.112977 
L 106.627521 195.959618 
L 106.813065 194.876808 
L 106.859451 194.984288 
L 106.905836 195.100943 
L 106.952222 195.070071 
L 107.184152 194.09689 
L 107.230537 194.107338 
L 107.323309 194.520237 
L 107.64801 199.646809 
L 107.787168 203.247148 
L 108.158254 215.148621 
L 108.482955 222.154472 
L 108.529341 222.124282 
L 108.622113 221.99064 
L 108.668499 222.013956 
L 108.76127 221.951147 
L 109.132357 219.813736 
L 109.364286 218.279214 
L 109.503444 219.074864 
L 109.596216 219.370301 
L 109.688987 218.67281 
L 110.10646 214.671079 
L 110.199232 214.154062 
L 110.245617 214.250382 
L 110.477547 215.117772 
L 110.570318 217.632865 
L 110.802248 235.163466 
L 110.941405 241.751239 
L 110.987791 241.450554 
L 111.080563 235.336448 
L 111.21972 206.18227 
L 111.637193 61.928652 
L 111.683579 66.355997 
L 111.961894 88.933942 
L 112.379366 125.328047 
L 112.518524 190.395856 
L 112.750453 287.880388 
L 112.935997 277.045353 
L 112.982382 277.166852 
L 113.028768 277.299344 
L 113.12154 275.770073 
L 113.214312 273.744798 
L 113.260698 273.785471 
L 113.399855 278.954887 
L 113.585398 284.674684 
L 113.631784 284.43881 
L 113.770942 280.421971 
L 114.002871 274.124525 
L 114.049257 274.134596 
L 114.142029 274.408524 
L 114.2348 273.49916 
L 114.420344 265.185257 
L 114.652273 256.099241 
L 114.698659 255.947717 
L 114.745045 256.042529 
L 114.79143 256.062494 
L 114.884202 254.88694 
L 115.069746 247.098483 
L 115.348061 236.482587 
L 115.487218 237.517948 
L 115.533604 237.378525 
L 115.672762 233.576096 
L 116.043848 222.746297 
L 116.13662 222.634542 
L 116.229392 221.361868 
L 116.69325 210.855454 
L 116.786022 210.911256 
L 116.878794 210.243504 
L 117.064337 205.555884 
L 117.296266 201.574099 
L 117.48181 202.449422 
L 117.574581 201.2626 
L 117.899282 195.174398 
L 118.131211 197.62818 
L 118.177597 197.261219 
L 118.502298 190.378888 
L 118.59507 190.747456 
L 118.734227 191.353743 
L 118.919771 190.274287 
L 119.198086 186.829595 
L 119.290858 187.171186 
L 119.430015 187.856354 
L 119.569173 187.238817 
L 119.847488 184.908023 
L 119.893874 185.178538 
L 120.079417 186.435077 
L 120.218575 185.158054 
L 120.450504 182.819747 
L 120.543276 184.123306 
L 120.867976 189.717767 
L 120.960748 190.242806 
L 121.192677 194.505586 
L 121.563764 201.547729 
L 121.749308 202.744482 
L 121.934851 205.706767 
L 122.120394 209.213037 
L 122.16678 209.192558 
L 122.352324 207.88717 
L 122.398709 208.10224 
L 122.584253 209.243875 
L 122.72341 208.508528 
L 122.908954 206.362135 
L 123.140883 203.477702 
L 123.233655 203.537841 
L 123.326426 203.671019 
L 123.419198 203.297276 
L 124.393301 194.894094 
L 124.532458 195.027741 
L 124.578844 194.948679 
L 124.857159 193.603916 
L 124.949931 193.754408 
L 125.042703 193.65424 
L 125.135474 193.483289 
L 125.18186 193.550594 
L 125.274632 193.820665 
L 125.321018 193.773126 
L 125.460175 192.345059 
L 125.645719 191.244477 
L 125.73849 191.342997 
L 125.924034 192.130782 
L 126.109577 192.560503 
L 126.202349 192.351605 
L 126.341506 192.01847 
L 126.434278 192.329623 
L 126.712593 193.816008 
L 126.758979 193.785921 
L 126.851751 193.745791 
L 126.944522 194.119873 
L 127.130066 195.150114 
L 127.176452 195.133954 
L 127.686696 194.242407 
L 127.733082 194.273607 
L 127.872239 194.63529 
L 128.011397 194.975842 
L 128.057783 194.942147 
L 128.19694 194.828681 
L 128.336098 195.593024 
L 128.475255 196.240865 
L 128.521641 196.13537 
L 128.892728 194.338063 
L 128.939114 194.519148 
L 129.171043 196.965468 
L 129.217429 196.864481 
L 129.449358 195.736171 
L 129.774059 196.547047 
L 129.866831 196.711685 
L 130.052374 196.014461 
L 130.145146 196.246538 
L 130.237918 196.479978 
L 130.284303 196.446746 
L 130.423461 196.307956 
L 130.562619 196.418184 
L 130.748162 196.09449 
L 130.840934 196.77396 
L 131.026477 198.443575 
L 131.072863 198.379928 
L 131.304792 197.98553 
L 131.44395 197.242508 
L 131.583107 196.760592 
L 131.768651 197.508544 
L 132.046966 199.154139 
L 132.139737 198.801653 
L 132.232509 198.463681 
L 132.278895 198.513217 
L 132.464438 199.366886 
L 132.510824 199.340817 
L 132.696368 198.818175 
L 132.835525 199.966925 
L 132.928297 200.480796 
L 132.974683 200.378571 
L 133.11384 200.062808 
L 133.206612 200.251846 
L 133.252998 200.223463 
L 133.438541 199.733023 
L 133.67047 200.433533 
L 133.716856 200.330722 
L 133.856014 199.918494 
L 133.9024 199.958005 
L 134.041557 201.096937 
L 134.2271 202.374847 
L 134.412644 202.732428 
L 134.45903 202.593503 
L 134.690959 201.012171 
L 134.737345 201.258998 
L 134.876502 202.668212 
L 134.922888 202.616292 
L 135.062046 200.045298 
L 135.340361 196.280018 
L 135.479518 195.586724 
L 135.57229 195.985869 
L 135.804219 197.352171 
L 135.850605 197.323709 
L 135.943377 196.686641 
L 136.221692 193.718298 
L 136.268078 193.852481 
L 136.500007 195.139018 
L 136.778322 199.527936 
L 137.056637 208.296436 
L 137.47411 219.403959 
L 137.659653 220.928691 
L 137.798811 220.690836 
L 137.984354 221.416511 
L 138.03074 221.276877 
L 138.355441 219.697428 
L 138.448213 219.339792 
L 138.912071 216.465282 
L 139.051229 216.142678 
L 139.283158 214.725519 
L 139.515087 213.274606 
L 139.607859 214.397248 
L 139.747016 220.856604 
L 140.071717 242.867661 
L 140.118103 242.048199 
L 140.210875 233.446801 
L 140.396418 183.012217 
L 140.721119 61.155503 
L 140.767505 62.526088 
L 141.277749 107.481084 
L 141.509679 129.30935 
L 141.648836 202.500642 
L 141.834379 285.134437 
L 141.880765 283.986144 
L 142.066309 273.895016 
L 142.112695 274.273985 
L 142.15908 274.147727 
L 142.344624 270.818145 
L 142.39101 271.670522 
L 142.715711 285.764416 
L 142.808482 284.162082 
L 143.133183 272.011237 
L 143.272341 272.948527 
L 143.318727 272.83487 
L 143.411498 270.917162 
L 143.828971 254.324262 
L 143.875357 254.460396 
L 143.921743 254.57497 
L 143.968128 254.344354 
L 144.107286 250.138885 
L 144.478373 236.27796 
L 144.61753 235.593411 
L 144.756688 232.141895 
L 145.127775 220.894082 
L 145.220546 220.737518 
L 145.313318 219.74447 
L 145.777176 209.533076 
L 145.869948 209.696526 
L 145.916334 209.577437 
L 146.009106 208.166167 
L 146.333807 201.757757 
L 146.426578 201.749053 
L 146.565736 202.094886 
L 146.612122 202.004713 
L 146.704893 200.61648 
L 146.983209 194.6651 
L 147.07598 195.076264 
L 147.168752 195.610216 
L 147.215138 195.584785 
L 147.354295 194.112337 
L 147.678996 189.881899 
L 147.86454 190.437864 
L 147.910925 190.238211 
L 148.050083 188.362619 
L 148.282012 184.730733 
L 148.328398 184.785212 
L 148.606713 187.198727 
L 148.653099 186.956143 
L 148.792257 184.618619 
L 148.931414 182.545097 
L 148.9778 182.746241 
L 149.163343 184.618717 
L 149.209729 184.529057 
L 149.395273 182.134433 
L 149.488044 181.677239 
L 149.627202 184.037352 
L 149.905517 187.982441 
L 150.369375 194.818018 
L 150.64769 200.767197 
L 150.740462 201.19898 
L 150.87962 203.418319 
L 151.204321 208.406132 
L 151.297092 208.674278 
L 151.343478 208.564974 
L 151.529022 207.821043 
L 151.575407 207.954161 
L 151.760951 208.855899 
L 151.853722 208.247902 
L 152.224809 204.156449 
L 152.271195 204.279844 
L 152.410353 204.591379 
L 152.456738 204.556412 
L 152.54951 204.249567 
L 152.688668 201.961658 
L 152.920597 197.787044 
L 152.966983 197.804893 
L 153.198912 198.816111 
L 153.245298 198.673972 
L 153.384455 196.481894 
L 153.569999 194.645536 
L 153.709156 195.274001 
L 153.848314 196.152408 
L 153.8947 196.020628 
L 154.265787 193.072167 
L 154.45133 192.520168 
L 154.590487 191.905534 
L 154.636873 191.923514 
L 155.054346 193.428114 
L 155.100732 193.358951 
L 155.379047 192.682679 
L 155.425433 192.789541 
L 155.610976 193.461037 
L 155.657362 193.415054 
L 155.79652 193.220806 
L 155.842905 193.264661 
L 155.935677 193.284713 
L 156.12122 192.87547 
L 156.260378 193.680642 
L 156.399536 194.60944 
L 156.445921 194.574979 
L 156.585079 193.889656 
L 156.631465 193.937856 
L 156.770622 195.144379 
L 156.956166 196.523567 
L 157.095323 195.866327 
L 157.46641 194.551379 
L 157.512796 194.476786 
L 157.559182 194.523636 
L 157.744725 195.374245 
L 157.976654 197.336825 
L 158.02304 197.246596 
L 158.115812 197.086091 
L 158.254969 197.561686 
L 158.301355 197.44743 
L 158.533284 196.218262 
L 158.57967 196.257004 
L 158.718828 196.808369 
L 158.857985 197.419824 
L 158.904371 197.387864 
L 159.275458 195.919835 
L 159.321844 196.065769 
L 159.553773 197.66491 
L 159.600159 197.55208 
L 159.785702 196.973012 
L 159.832088 197.003228 
L 160.064017 197.603073 
L 160.110403 197.576564 
L 160.249561 197.765919 
L 160.388718 197.756059 
L 160.527876 197.777856 
L 160.667033 197.954382 
L 160.945349 198.855891 
L 160.991734 198.741574 
L 161.177278 197.975721 
L 161.223664 198.035843 
L 161.59475 199.956149 
L 161.641136 199.926168 
L 161.780294 199.610273 
L 161.919451 199.230436 
L 162.012223 199.957673 
L 162.244152 202.149995 
L 162.429696 201.806769 
L 162.476082 201.860418 
L 162.661625 202.724051 
L 162.800782 203.214839 
L 162.893554 202.740179 
L 163.079098 201.624804 
L 163.403798 202.495426 
L 163.589342 204.001908 
L 163.635728 203.958047 
L 163.728499 203.781179 
L 163.774885 203.814585 
L 164.238744 204.450473 
L 164.331515 204.157069 
L 164.563445 202.113906 
L 165.073689 197.421526 
L 165.352004 199.647407 
L 165.39839 199.48528 
L 165.583933 197.344913 
L 165.862248 194.420748 
L 166.001406 193.760216 
L 166.047792 193.858349 
L 166.140563 195.504041 
L 166.975509 219.76885 
L 167.30021 222.811727 
L 167.346595 222.677907 
L 167.578525 222.14926 
L 167.717682 221.834055 
L 168.274312 218.106257 
L 168.367084 218.244421 
L 168.506242 218.470219 
L 168.599013 218.233232 
L 168.877328 216.387456 
L 169.155644 214.26575 
L 169.202029 214.841709 
L 169.341187 221.474407 
L 169.665888 242.396648 
L 169.75866 235.758745 
L 169.944203 190.56352 
L 170.31529 63.165119 
L 170.361676 67.147435 
L 170.639991 89.768859 
L 171.057463 128.347179 
L 171.196621 199.202815 
L 171.382164 292.97681 
L 171.42855 292.922604 
L 171.660479 279.071642 
L 171.753251 276.436147 
L 171.892409 270.67757 
L 171.938794 270.846174 
L 172.263495 283.341092 
L 172.356267 282.265528 
L 172.680968 271.248273 
L 172.727354 271.259178 
L 172.866511 271.973941 
L 172.959283 270.602256 
L 173.423141 254.35245 
L 173.469527 254.461152 
L 173.515913 254.418057 
L 173.608685 252.948773 
L 173.840614 240.676909 
L 174.026158 235.787834 
L 174.118929 236.260628 
L 174.165315 236.210949 
L 174.258087 234.38659 
L 174.675559 220.625194 
L 174.721945 221.01517 
L 174.814717 221.919817 
L 174.861103 221.836657 
L 174.953874 219.788254 
L 175.278575 209.668504 
L 175.464119 210.943003 
L 175.55689 209.537954 
L 175.927977 200.059685 
L 175.974363 200.253985 
L 176.159906 202.504126 
L 176.206292 202.267384 
L 176.34545 198.371485 
L 176.577379 193.311537 
L 176.716537 195.079106 
L 176.809308 196.202493 
L 176.855694 196.149738 
L 176.994852 193.530142 
L 177.180395 190.401665 
L 177.226781 190.529517 
L 177.45871 192.580265 
L 177.505096 192.214735 
L 177.876183 185.546051 
L 177.968955 186.178998 
L 178.154498 187.561141 
L 178.24727 186.857748 
L 178.479199 183.979284 
L 178.525585 183.99186 
L 178.664742 185.310359 
L 178.8039 186.283157 
L 178.896671 185.721897 
L 179.128601 184.210254 
L 179.221372 184.800305 
L 179.824388 194.865538 
L 180.056318 201.263936 
L 180.241861 202.540721 
L 180.612948 207.863775 
L 180.752105 209.242986 
L 180.798491 209.236373 
L 180.984035 209.116463 
L 181.076806 209.309654 
L 181.26235 210.638441 
L 181.355121 210.386134 
L 181.726208 206.692431 
L 181.958137 204.855655 
L 182.097295 203.996806 
L 182.793083 195.577925 
L 182.93224 194.966661 
L 183.117784 195.796893 
L 183.164169 195.748042 
L 183.48887 193.955397 
L 183.7208 191.738278 
L 183.767185 192.046383 
L 183.952729 193.471217 
L 184.091886 192.432916 
L 184.323816 190.292547 
L 184.370201 190.380904 
L 184.694902 191.916125 
L 184.741288 191.906748 
L 184.83406 191.756352 
L 185.065989 190.319325 
L 185.158761 190.830993 
L 185.39069 193.230649 
L 185.669005 192.136233 
L 185.761777 192.279012 
L 186.596722 194.185727 
L 186.689494 194.045987 
L 186.828651 193.946338 
L 186.921423 194.067246 
L 187.106966 194.986039 
L 187.246124 195.343257 
L 187.338896 195.026392 
L 187.617211 193.186952 
L 187.663597 193.434568 
L 187.941912 196.279883 
L 187.988298 196.236561 
L 188.220227 195.387781 
L 188.266613 195.48751 
L 188.452156 196.490943 
L 188.498542 196.379018 
L 188.684085 194.807999 
L 188.730471 194.903326 
L 188.9624 196.238418 
L 189.008786 196.214953 
L 189.101558 196.530755 
L 189.333487 197.943597 
L 189.379873 197.85471 
L 189.658188 196.07965 
L 189.704574 196.235883 
L 189.890117 196.89472 
L 190.029275 196.584002 
L 190.075661 196.605501 
L 190.585905 197.398336 
L 190.678677 197.214075 
L 190.725063 197.258036 
L 190.956992 198.888212 
L 191.049763 198.645784 
L 191.281693 197.54553 
L 191.42085 197.564894 
L 191.513622 197.893432 
L 191.699165 198.984316 
L 191.745551 198.916198 
L 191.838323 198.722129 
L 191.931095 199.32076 
L 192.163024 202.904913 
L 192.20941 202.742039 
L 192.394953 201.675254 
L 192.487725 201.77181 
L 192.534111 201.695608 
L 192.76604 200.782949 
L 192.812426 200.834393 
L 192.905197 200.978018 
L 192.951583 200.948491 
L 193.090741 200.361656 
L 193.32267 198.556157 
L 193.600985 194.970562 
L 193.647371 195.169826 
L 193.832914 196.277654 
L 193.925686 195.979468 
L 194.157615 194.144621 
L 194.43593 192.019593 
L 194.528702 192.227803 
L 194.66786 194.12744 
L 195.688348 219.094001 
L 195.78112 218.842934 
L 195.827506 218.850821 
L 196.105821 220.180189 
L 196.198593 220.115309 
L 196.384136 219.978848 
L 196.523293 219.014706 
L 196.801609 217.289823 
L 197.079924 216.426073 
L 197.219081 215.712078 
L 197.497396 213.943506 
L 197.590168 213.825682 
L 197.68294 213.582941 
L 197.729325 213.742267 
L 197.822097 215.617308 
L 198.007641 227.604848 
L 198.193184 238.621078 
L 198.23957 238.592221 
L 198.332342 233.192573 
L 198.471499 207.511405 
L 198.888972 63.17627 
L 198.981743 71.812925 
L 199.260058 92.791352 
L 199.677531 140.343765 
L 200.002232 295.488 
L 200.048618 291.592671 
L 200.280547 277.321078 
L 200.512476 269.42086 
L 200.558862 270.612657 
L 200.883563 280.470236 
L 200.976335 278.729333 
L 201.301036 270.101418 
L 201.347422 270.148584 
L 201.486579 270.651792 
L 201.579351 268.843868 
L 201.950438 252.461934 
L 202.043209 252.85813 
L 202.089595 252.834129 
L 202.182367 251.161185 
L 202.599839 234.425778 
L 202.692611 234.650002 
L 202.738997 234.798016 
L 202.785383 234.611561 
L 202.92454 231.459874 
L 203.295627 220.561621 
L 203.388399 221.025293 
L 203.434785 220.896998 
L 203.573942 217.665479 
L 203.852257 210.633156 
L 203.945029 210.451075 
L 203.991415 210.512042 
L 204.037801 210.488185 
L 204.130572 209.713765 
L 204.501659 201.833627 
L 204.594431 202.584996 
L 204.687203 203.371493 
L 204.733588 203.308231 
L 204.82636 201.828485 
L 205.151061 194.390208 
L 205.243833 195.114527 
L 205.38299 196.736282 
L 205.429376 196.676221 
L 205.568534 193.957136 
L 205.800463 189.871682 
L 205.893235 190.495716 
L 206.032392 191.355483 
L 206.125164 190.250933 
L 206.357093 185.831322 
L 206.403479 185.950768 
L 206.589022 189.403076 
L 206.72818 191.198373 
L 206.774566 190.983357 
L 207.099267 185.23445 
L 207.192038 186.097908 
L 207.377582 188.168609 
L 207.470353 187.587107 
L 207.702283 185.855234 
L 207.795054 186.877927 
L 208.212527 194.355253 
L 208.305299 195.151391 
L 208.583614 202.13836 
L 208.861929 206.901966 
L 209.001086 208.113296 
L 209.325787 212.538395 
L 209.372173 212.646457 
L 209.418559 212.617834 
L 209.557717 211.447489 
L 209.650488 210.779144 
L 209.696874 210.885184 
L 209.928803 212.596572 
L 209.975189 212.268676 
L 210.439048 206.866524 
L 210.485434 206.853807 
L 210.578205 206.387802 
L 210.763749 203.050628 
L 210.995678 198.871161 
L 211.042064 198.909189 
L 211.227607 199.740841 
L 211.320379 199.116126 
L 211.737851 194.92108 
L 212.155324 192.653718 
L 212.340867 191.280357 
L 212.433639 191.643215 
L 212.572797 192.356765 
L 212.619182 192.263916 
L 212.851112 190.49918 
L 212.897498 190.595775 
L 213.129427 192.045444 
L 213.175813 191.997079 
L 213.500514 190.629807 
L 213.593285 190.876405 
L 213.825215 191.71755 
L 213.964372 191.498769 
L 214.242687 190.894393 
L 214.289073 190.970039 
L 214.428231 192.012128 
L 214.613774 193.353532 
L 214.752931 192.794951 
L 214.892089 192.449589 
L 215.21679 193.187961 
L 215.680648 194.919371 
L 215.77342 195.061224 
L 216.190893 194.286776 
L 216.283664 194.548356 
L 216.469208 195.0669 
L 216.56198 195.14407 
L 216.701137 195.314243 
L 217.025838 194.862069 
L 217.164996 194.858154 
L 217.396925 194.545194 
L 217.489696 194.745851 
L 217.67524 196.149128 
L 217.768012 196.425065 
L 218.046327 194.648498 
L 218.092712 194.784907 
L 218.510185 197.7747 
L 218.602957 197.427896 
L 218.742114 196.69048 
L 218.7885 196.797806 
L 218.974044 197.957696 
L 219.020429 197.945732 
L 219.113201 197.811715 
L 219.159587 197.845339 
L 219.437902 198.33148 
L 219.484288 198.308696 
L 219.669831 198.293111 
L 219.855375 198.73245 
L 220.040918 199.230341 
L 220.087304 199.180155 
L 220.180076 199.018283 
L 220.226461 199.095091 
L 220.504777 200.731752 
L 220.551162 200.591725 
L 220.829477 199.738408 
L 220.968635 199.913163 
L 221.24695 200.226004 
L 221.339722 200.385692 
L 221.478879 201.773116 
L 221.664423 203.017355 
L 221.80358 202.682225 
L 221.989124 201.742806 
L 222.035509 201.865434 
L 222.267439 203.339224 
L 222.313825 203.285524 
L 222.499368 202.729202 
L 222.870455 199.58706 
L 223.102384 198.275765 
L 223.287927 197.759195 
L 223.519857 199.114641 
L 223.612628 198.659446 
L 224.030101 194.528558 
L 224.076487 194.578917 
L 224.26203 195.102351 
L 224.401188 197.374057 
L 225.328905 221.174429 
L 225.653606 222.531251 
L 225.746377 222.233351 
L 226.256622 218.987054 
L 226.395779 218.834634 
L 226.534937 218.949637 
L 226.627708 218.555111 
L 226.813252 217.452969 
L 226.859638 217.551496 
L 226.952409 217.932581 
L 226.998795 217.89099 
L 227.137953 216.328966 
L 227.27711 215.285713 
L 227.369882 215.983641 
L 227.509039 220.117382 
L 227.880126 242.164417 
L 227.926512 240.423613 
L 228.06567 220.078308 
L 228.297599 131.349319 
L 228.529528 62.192048 
L 229.271702 126.006284 
L 229.410859 187.946545 
L 229.642788 289.499583 
L 229.828332 276.889711 
L 229.874718 277.21033 
L 229.921104 277.616858 
L 229.967489 277.261071 
L 230.153033 273.55448 
L 230.29219 278.618357 
L 230.52412 286.329558 
L 230.616891 284.0934 
L 230.941592 273.184613 
L 231.08075 274.687517 
L 231.127136 274.593656 
L 231.219907 271.851457 
L 231.590994 255.946677 
L 231.730152 255.441992 
L 231.869309 251.6317 
L 232.240396 237.519291 
L 232.379553 237.76481 
L 232.472325 236.740644 
L 232.657869 229.742451 
L 232.889798 222.616538 
L 232.936184 222.49353 
L 232.982569 222.573943 
L 233.028955 222.587284 
L 233.121727 221.543991 
L 233.585585 211.313022 
L 233.724743 210.564258 
L 233.863901 207.493306 
L 234.142216 200.921034 
L 234.188601 200.82768 
L 234.281373 201.690512 
L 234.374145 202.758083 
L 234.420531 202.634869 
L 234.559688 199.020339 
L 234.791618 194.664878 
L 234.977161 195.419728 
L 235.023547 195.203769 
L 235.20909 191.894447 
L 235.348248 190.336011 
L 235.394634 190.451785 
L 235.580177 192.043971 
L 235.626563 192.017754 
L 235.76572 190.317129 
L 236.090421 184.62633 
L 236.136807 184.643364 
L 236.32235 186.018344 
L 236.461508 186.995324 
L 236.507894 186.957769 
L 236.647051 185.341366 
L 236.739823 184.320453 
L 236.786209 184.359541 
L 237.018138 186.641003 
L 237.064524 186.355319 
L 237.342839 183.755267 
L 237.389225 184.060407 
L 238.085013 194.620811 
L 238.502485 203.831645 
L 238.641643 205.508061 
L 239.01273 210.640922 
L 239.105501 210.362686 
L 239.337431 209.144262 
L 239.383816 209.355295 
L 239.615746 211.625655 
L 239.662131 211.377717 
L 239.940447 207.789077 
L 240.033218 207.854941 
L 240.12599 207.501893 
L 240.357919 204.2969 
L 240.68262 200.355452 
L 241.378408 195.146347 
L 241.47118 195.238897 
L 241.563951 195.179922 
L 241.749495 194.135845 
L 242.02781 192.309602 
L 242.074196 192.539054 
L 242.213353 193.468099 
L 242.259739 193.368544 
L 242.538054 190.827125 
L 242.630826 191.039621 
L 242.769983 191.419363 
L 242.816369 191.367267 
L 243.233842 190.511999 
L 243.280228 190.726574 
L 243.558543 192.865327 
L 243.604928 192.679254 
L 243.836858 191.202967 
L 243.883244 191.354218 
L 244.161559 192.370104 
L 244.300716 192.821579 
L 244.347102 192.952391 
L 244.393488 192.902464 
L 244.532645 192.195939 
L 244.579031 192.227331 
L 244.718189 192.811147 
L 244.764575 192.684867 
L 244.857346 192.073465 
L 244.903732 192.11249 
L 245.04289 195.113929 
L 245.135661 196.719783 
L 245.182047 196.662283 
L 245.413977 195.371635 
L 245.506748 195.254227 
L 245.692292 194.372648 
L 245.738677 194.47321 
L 245.970607 196.078651 
L 246.016993 195.872688 
L 246.295308 194.707541 
L 246.480851 194.406184 
L 246.573623 194.814815 
L 246.805552 196.413786 
L 247.083867 195.294182 
L 247.130253 195.386335 
L 247.408568 196.567521 
L 247.454954 196.511074 
L 247.640497 195.719933 
L 247.733269 195.485691 
L 247.826041 196.039868 
L 248.05797 197.481414 
L 248.197127 197.362641 
L 248.429057 197.104977 
L 248.521828 197.388673 
L 248.707372 198.0897 
L 248.892915 197.554759 
L 249.124844 198.63306 
L 249.17123 198.548847 
L 249.310388 198.395556 
L 249.495931 198.559412 
L 249.635089 198.84861 
L 249.681474 198.780223 
L 249.867018 198.389108 
L 250.006175 198.746773 
L 250.238105 199.95732 
L 250.284491 199.822953 
L 250.377262 199.424897 
L 250.423648 199.493039 
L 250.609191 201.011041 
L 250.655577 200.923552 
L 250.794735 200.375654 
L 250.841121 200.472774 
L 251.258593 201.985138 
L 251.304979 201.863981 
L 251.536908 201.197162 
L 251.676066 201.712139 
L 252.047153 203.151024 
L 252.093539 203.198413 
L 252.139924 203.149984 
L 252.232696 203.071836 
L 252.279082 203.128673 
L 252.371854 203.251848 
L 252.418239 203.212573 
L 252.557397 203.024317 
L 252.696555 203.869671 
L 252.789326 204.239327 
L 252.835712 204.140988 
L 253.299571 201.844018 
L 253.624272 197.557114 
L 253.670657 197.742711 
L 253.948972 199.76211 
L 253.995358 199.735004 
L 254.08813 199.031746 
L 254.412831 195.556221 
L 254.598374 195.673538 
L 254.691146 196.295351 
L 255.015847 202.674356 
L 255.294162 211.854187 
L 255.711635 221.974668 
L 255.943564 222.977966 
L 256.036336 223.4225 
L 256.082721 223.393249 
L 256.592966 220.221675 
L 256.685737 220.40202 
L 256.732123 220.402205 
L 256.871281 219.612381 
L 257.381525 216.981938 
L 257.706226 215.771063 
L 257.798998 216.79807 
L 257.938155 223.815448 
L 258.21647 242.592538 
L 258.262856 242.324766 
L 258.355628 235.939092 
L 258.494785 207.010152 
L 258.912258 62.157066 
L 259.00503 72.257928 
L 259.283345 92.345841 
L 259.700818 139.172802 
L 260.025518 286.618485 
L 260.071904 283.315221 
L 260.211062 275.47869 
L 260.257448 275.582504 
L 260.303834 275.516893 
L 260.489377 271.521804 
L 260.535763 271.942342 
L 260.90685 284.15702 
L 260.999621 282.488737 
L 261.277936 273.358706 
L 261.324322 273.353559 
L 261.417094 273.757152 
L 261.46348 273.677427 
L 261.556251 271.866585 
L 262.112882 253.474901 
L 262.205653 251.709924 
L 262.669512 235.532569 
L 262.762283 235.557557 
L 262.855055 234.331134 
L 263.040599 225.449838 
L 263.226142 219.629779 
L 263.272528 219.700423 
L 263.504457 221.525821 
L 263.550843 220.993268 
L 263.736386 213.251453 
L 263.875544 209.805038 
L 263.92193 210.014961 
L 264.014701 210.887676 
L 264.061087 210.865928 
L 264.153859 209.171554 
L 264.524946 200.556233 
L 264.803261 199.731093 
L 264.988804 194.916107 
L 265.174348 191.899048 
L 265.267119 192.315249 
L 265.406277 193.058134 
L 265.499048 192.246057 
L 265.777364 186.779031 
L 265.823749 186.896513 
L 266.102064 190.92724 
L 266.14845 190.460248 
L 266.426765 183.624614 
L 266.473151 183.785382 
L 266.658695 185.216463 
L 266.70508 185.043792 
L 267.076167 181.61385 
L 267.122553 181.695904 
L 267.261711 182.78163 
L 267.400868 183.761198 
L 267.49364 182.912338 
L 267.725569 180.822637 
L 267.818341 181.19891 
L 268.003884 184.033159 
L 268.328585 191.207865 
L 268.792444 203.936206 
L 268.931601 204.490796 
L 269.117145 207.695672 
L 269.349074 210.666277 
L 269.534617 210.253072 
L 269.627389 210.083448 
L 269.673775 210.185326 
L 269.905704 211.503012 
L 269.95209 211.358941 
L 270.091247 210.134172 
L 270.694263 202.290873 
L 270.740649 202.38731 
L 270.879807 203.596011 
L 270.926193 203.305744 
L 271.204508 200.04009 
L 271.297279 199.25586 
L 271.714752 192.409584 
L 271.761138 192.547852 
L 271.993067 196.045469 
L 272.039453 195.688511 
L 272.271382 192.975045 
L 272.317768 193.096999 
L 272.503311 194.275938 
L 272.549697 194.096982 
L 272.781626 191.388896 
L 272.874398 191.70877 
L 272.96717 192.272068 
L 273.013556 192.26265 
L 273.291871 191.46888 
L 273.431028 191.014818 
L 273.570186 190.229972 
L 273.616572 190.241463 
L 273.894887 191.986073 
L 273.941273 191.766781 
L 274.219588 189.58264 
L 274.265974 189.637289 
L 274.683446 192.053865 
L 274.86899 193.547559 
L 275.100919 192.617141 
L 275.240076 191.656871 
L 275.286462 191.692411 
L 275.564777 193.905543 
L 275.750321 196.83784 
L 275.796707 196.489343 
L 275.98225 193.290802 
L 276.028636 193.512764 
L 276.260565 197.016239 
L 276.306951 196.784716 
L 276.631652 194.926997 
L 276.724423 194.857966 
L 276.770809 194.902674 
L 276.909967 195.520012 
L 277.09551 196.344191 
L 277.32744 196.018885 
L 277.466597 195.11066 
L 277.605755 194.330322 
L 277.744912 195.82851 
L 277.88407 197.123872 
L 277.930456 197.029432 
L 278.162385 194.939706 
L 278.208771 195.115912 
L 278.579857 197.2862 
L 278.719015 197.120798 
L 278.858172 196.66738 
L 278.904558 196.806694 
L 279.136488 198.270737 
L 279.182873 198.12576 
L 279.414803 197.295201 
L 279.507574 197.532126 
L 279.739504 199.017733 
L 279.785889 198.936974 
L 279.971433 197.987241 
L 280.017819 198.163284 
L 280.296134 201.760976 
L 280.388905 201.394873 
L 280.574449 200.453534 
L 280.713606 200.602971 
L 280.759992 200.536917 
L 280.852764 200.290955 
L 280.89915 200.38099 
L 281.131079 202.167604 
L 281.223851 202.088483 
L 281.316622 202.71294 
L 281.45578 203.812595 
L 281.502166 203.645629 
L 281.687709 202.375038 
L 281.734095 202.415165 
L 282.290725 204.028103 
L 282.429883 203.933119 
L 282.476269 204.019005 
L 282.661812 205.144073 
L 282.847355 206.456134 
L 282.893741 206.446651 
L 282.986513 205.889238 
L 283.3576 202.850611 
L 283.450371 202.061051 
L 283.728686 199.012887 
L 283.867844 200.165488 
L 284.053387 201.70899 
L 284.099773 201.684191 
L 284.285317 199.796702 
L 284.656403 195.914993 
L 284.749175 196.381065 
L 284.934718 199.443806 
L 285.398577 213.384978 
L 285.676892 220.420079 
L 285.862435 222.346516 
L 285.908821 222.253216 
L 286.001593 221.830326 
L 286.047979 221.880789 
L 286.233522 223.180068 
L 286.279908 223.09498 
L 286.743767 221.007942 
L 286.790152 221.028878 
L 286.92931 221.087779 
L 287.022082 220.854375 
L 287.254011 219.834331 
L 287.300397 219.911151 
L 287.346783 219.930661 
L 287.439554 219.48265 
L 287.810641 215.60004 
L 287.857027 215.771875 
L 287.949799 217.682123 
L 288.135342 230.389416 
L 288.367271 244.958578 
L 288.460043 240.793896 
L 288.5992 215.176327 
L 288.877515 99.267976 
L 289.016673 63.087253 
L 289.063059 64.492606 
L 289.573303 109.318162 
L 289.805232 132.356411 
L 289.990776 239.9595 
L 290.129933 288.691815 
L 290.176319 287.819323 
L 290.408248 276.543675 
L 290.547406 273.157076 
L 290.640178 272.038562 
L 290.779335 276.872026 
L 291.05765 285.283114 
L 291.150422 282.752999 
L 291.428737 272.208495 
L 291.567895 272.996821 
L 291.61428 272.780817 
L 291.753438 268.31388 
L 292.078139 255.33003 
L 292.170911 255.378812 
L 292.263682 254.664069 
L 292.40284 250.864465 
L 292.681155 237.712498 
L 292.773927 238.54135 
L 292.866698 239.513227 
L 292.95947 237.574642 
L 293.423329 220.912115 
L 293.5161 220.588243 
L 293.655258 218.650578 
L 294.026345 211.86199 
L 294.258274 209.528922 
L 294.443817 203.881831 
L 294.629361 198.959786 
L 294.722132 200.40115 
L 294.86129 203.638985 
L 294.907676 203.372214 
L 295.371534 192.580978 
L 295.464306 192.864095 
L 295.557078 193.077343 
L 295.649849 191.813674 
L 295.881778 184.109492 
L 295.928164 184.805961 
L 296.160094 192.015489 
L 296.206479 191.451255 
L 296.484794 180.819647 
L 296.53118 181.850858 
L 296.76311 190.026925 
L 296.809495 189.972304 
L 297.08781 187.855342 
L 297.273354 184.708746 
L 297.31974 184.794858 
L 297.458897 185.927011 
L 297.505283 185.831171 
L 297.87637 182.745107 
L 297.969142 182.523696 
L 298.061913 183.283723 
L 298.804087 200.697609 
L 298.98963 203.467219 
L 299.175174 204.369604 
L 299.592646 211.983568 
L 299.77819 218.01484 
L 300.242048 211.825459 
L 300.427591 208.704559 
L 300.566749 207.300269 
L 300.613135 207.36887 
L 300.705907 207.5196 
L 300.798678 206.917471 
L 301.772781 192.268118 
L 301.865553 192.366689 
L 301.958324 192.868193 
L 302.143868 195.355634 
L 302.190254 195.266476 
L 302.329411 192.824445 
L 302.607726 188.450789 
L 302.700498 189.624111 
L 302.839656 192.865968 
L 302.886041 192.67789 
L 303.071585 189.622518 
L 303.303514 192.694992 
L 303.3499 192.677375 
L 303.535443 193.956783 
L 303.581829 193.562743 
L 304.045688 187.985902 
L 304.370388 191.412101 
L 304.648704 195.542407 
L 304.695089 195.488152 
L 304.787861 194.868274 
L 305.298105 187.078981 
L 305.344491 187.279238 
L 305.576421 193.314998 
L 305.622806 192.528633 
L 305.715578 190.991187 
L 305.761964 191.282335 
L 305.947507 195.030186 
L 305.993893 194.83993 
L 306.179437 193.294825 
L 306.225822 193.348367 
L 306.318594 194.613908 
L 306.550523 199.986909 
L 306.596909 199.596766 
L 307.014382 193.292377 
L 307.107153 193.891803 
L 307.246311 194.862893 
L 307.292697 194.766405 
L 307.571012 193.772865 
L 307.71017 192.742855 
L 307.756555 192.877324 
L 307.895713 195.116454 
L 307.988485 196.295035 
L 308.03487 196.123656 
L 308.220414 194.344691 
L 308.2668 194.517883 
L 308.405957 197.22325 
L 308.545115 199.833174 
L 308.684272 197.378258 
L 308.777044 196.252551 
L 308.82343 196.356771 
L 309.008973 197.706335 
L 309.055359 197.569027 
L 309.240902 196.229137 
L 309.426446 194.559114 
L 309.565603 196.06031 
L 309.797533 198.095867 
L 309.843918 198.004238 
L 309.983076 196.520178 
L 310.029462 196.548046 
L 310.261391 199.881969 
L 310.446934 203.735986 
L 310.49332 203.359811 
L 310.771635 197.196122 
L 310.818021 197.247477 
L 311.049951 202.447474 
L 311.096336 201.480845 
L 311.235494 197.939347 
L 311.28188 198.338631 
L 311.513809 205.686558 
L 311.560195 205.356233 
L 311.931282 199.437998 
L 311.977667 199.796708 
L 312.209597 204.481268 
L 312.255983 204.405122 
L 312.39514 201.915129 
L 312.534298 199.914508 
L 312.673455 202.755379 
L 312.766227 203.680331 
L 312.95177 200.328634 
L 312.998156 200.530209 
L 313.230085 206.205279 
L 313.276471 205.721901 
L 313.554786 199.412204 
L 313.601172 199.483585 
L 313.693944 199.787223 
L 313.74033 199.759968 
L 313.879487 198.997108 
L 314.065031 195.627126 
L 314.29696 191.415377 
L 314.343346 191.524324 
L 314.528889 193.942826 
L 314.714432 198.67142 
L 314.992748 205.209997 
L 315.178291 206.799564 
L 315.363834 211.459556 
L 315.595764 222.747245 
L 315.781307 228.092052 
L 315.96685 225.202967 
L 316.245165 219.684901 
L 316.291551 219.948742 
L 316.569866 221.456016 
L 316.616252 221.429102 
L 316.75541 220.703632 
L 316.894567 218.31195 
L 317.126497 214.826855 
L 317.219268 214.841098 
L 317.31204 215.019346 
L 317.358426 214.875747 
L 317.497583 212.103095 
L 317.590355 210.897762 
L 317.683127 213.583571 
L 318.100599 239.25012 
L 318.146985 238.248534 
L 318.239757 231.172563 
L 318.378914 200.593669 
L 318.750001 62.959301 
L 318.842773 68.419593 
L 319.121088 90.13236 
L 319.538561 130.281431 
L 319.677718 204.915839 
L 319.863262 292.784518 
L 319.909647 292.092041 
L 320.141577 276.636312 
L 320.280734 272.668705 
L 320.373506 269.539487 
L 320.419892 269.683099 
L 320.559049 277.358609 
L 320.744593 285.411924 
L 320.790978 285.038672 
L 320.930136 278.558529 
L 321.162065 269.521563 
L 321.208451 269.492203 
L 321.347609 269.928144 
L 321.393994 269.834144 
L 321.486766 268.567561 
L 321.67231 258.973989 
L 321.857853 252.81221 
L 322.043396 254.855367 
L 322.089782 254.138415 
L 322.275326 243.798625 
L 322.507255 235.431387 
L 322.646412 234.608558 
L 322.78557 231.193943 
L 323.156657 219.95723 
L 323.295814 220.54561 
L 323.3422 220.36386 
L 323.481358 217.240691 
L 323.759673 211.484585 
L 323.991602 210.575092 
L 324.177145 206.263209 
L 324.45546 199.772817 
L 324.594618 200.753631 
L 324.641004 200.68906 
L 324.780161 198.059527 
L 325.012091 193.502615 
L 325.197634 195.863049 
L 325.290406 195.342717 
L 325.615107 187.54277 
L 325.707878 188.14858 
L 325.847036 189.512873 
L 325.893422 189.359001 
L 326.032579 186.982627 
L 326.218123 183.163806 
L 326.264508 183.398823 
L 326.542824 189.682595 
L 326.589209 189.131032 
L 326.821139 184.747571 
L 326.867524 185.035661 
L 327.099454 187.393003 
L 327.14584 187.340545 
L 327.284997 186.581294 
L 327.563312 183.985606 
L 327.609698 183.99838 
L 327.70247 184.725972 
L 328.212714 193.954261 
L 329.186817 217.880408 
L 329.233203 217.802731 
L 329.418746 215.756601 
L 329.697061 213.073565 
L 329.789833 213.011782 
L 329.836219 213.054823 
L 329.975376 213.145826 
L 330.068148 212.572657 
L 330.392849 207.485889 
L 330.439235 207.844711 
L 330.532006 208.460325 
L 330.578392 208.145205 
L 331.042251 201.331251 
L 331.181408 200.26239 
L 331.784424 193.904518 
L 331.923582 194.522602 
L 331.969968 194.370145 
L 332.201897 191.945415 
L 332.248283 192.067174 
L 332.341054 192.365803 
L 332.38744 192.352 
L 332.526598 191.495945 
L 332.851299 188.304372 
L 332.897685 188.501664 
L 333.083228 190.306681 
L 333.129614 190.29444 
L 333.268771 189.789039 
L 333.315157 189.881502 
L 333.639858 191.351091 
L 333.73263 191.960086 
L 333.779016 191.838542 
L 334.103717 188.7774 
L 334.196488 188.811241 
L 334.28926 189.119982 
L 334.382032 190.635179 
L 334.567575 195.132828 
L 334.613961 194.544714 
L 334.799504 190.661964 
L 334.84589 190.910718 
L 335.124205 193.877005 
L 335.170591 193.855689 
L 335.309749 193.248258 
L 335.356135 193.368106 
L 335.63445 195.215226 
L 335.680835 195.171832 
L 335.819993 194.439406 
L 336.005536 192.902163 
L 336.051922 192.988781 
L 336.237466 193.95359 
L 336.283851 193.933166 
L 336.376623 193.790934 
L 336.423009 193.828616 
L 336.515781 194.013628 
L 336.562167 193.948737 
L 336.794096 192.561245 
L 336.840482 192.838716 
L 337.072411 194.241474 
L 337.165183 194.374602 
L 337.397112 195.958585 
L 337.489883 195.648301 
L 337.536269 195.543258 
L 337.582655 195.687405 
L 337.721813 196.721107 
L 337.768199 196.615531 
L 337.907356 195.475718 
L 337.953742 195.503231 
L 338.139285 196.616017 
L 338.185671 196.601944 
L 338.4176 195.351204 
L 338.510372 195.698304 
L 338.835073 197.809539 
L 338.927845 198.650258 
L 339.020616 197.153074 
L 339.252546 193.514434 
L 339.345317 193.692015 
L 339.438089 194.446684 
L 339.623632 197.061577 
L 339.670018 196.957159 
L 339.855562 196.078923 
L 339.901948 196.139312 
L 339.948333 196.05914 
L 340.504964 190.867294 
L 340.736893 188.775091 
L 340.829664 188.29138 
L 340.87605 188.385571 
L 341.015208 190.520249 
L 341.386295 199.898159 
L 341.757381 211.117126 
L 341.989311 215.113287 
L 342.128468 214.677004 
L 342.174854 214.811085 
L 342.406783 216.185194 
L 342.453169 216.038719 
L 342.638713 214.107971 
L 342.870642 212.690529 
L 343.148957 213.494897 
L 343.3345 215.470803 
L 343.380886 215.228147 
L 343.659201 211.516991 
L 343.705587 211.653353 
L 343.844745 212.228941 
L 343.89113 212.084534 
L 344.030288 211.269553 
L 344.076674 211.306609 
L 344.169446 212.860894 
L 344.354989 223.874292 
L 344.540532 233.899752 
L 344.586918 233.768751 
L 344.67969 228.314291 
L 344.818847 202.60784 
L 345.23632 61.659721 
L 345.329092 70.220151 
L 345.607407 91.489829 
L 346.024879 141.557474 
L 346.34958 295.155204 
L 346.395966 291.941045 
L 346.58151 282.786091 
L 346.720667 276.67451 
L 346.859825 271.3576 
L 346.90621 272.162541 
L 347.184526 282.234429 
L 347.230911 281.950274 
L 347.370069 276.480489 
L 347.601998 267.556548 
L 347.648384 267.561421 
L 347.787542 268.848928 
L 347.833927 268.67284 
L 347.973085 264.012193 
L 348.297786 251.825594 
L 348.436943 253.274417 
L 348.483329 252.989741 
L 348.622487 247.376251 
L 348.900802 235.823729 
L 349.271889 229.924968 
L 349.550204 217.994572 
L 349.642975 219.760577 
L 349.828519 226.175813 
L 349.874905 225.461916 
L 350.292377 211.768853 
L 350.385149 211.733172 
L 350.477921 210.853145 
L 350.849008 202.980923 
L 350.895393 203.313087 
L 351.034551 204.710266 
L 351.080937 204.63702 
L 351.220094 202.072621 
L 351.498409 195.883967 
L 351.544795 195.946964 
L 351.730339 197.253646 
L 351.82311 196.264056 
L 352.147811 191.203303 
L 352.240583 191.651966 
L 352.426126 192.831891 
L 352.518898 191.948992 
L 352.750827 188.991538 
L 352.797213 189.044392 
L 353.075528 190.546502 
L 353.121914 190.36556 
L 353.493001 187.048118 
L 353.539387 187.320394 
L 354.003245 193.376352 
L 354.559875 201.734279 
L 354.745419 204.714869 
L 355.255663 215.539343 
L 355.533978 217.396797 
L 355.719521 218.540445 
L 355.858679 217.639263 
L 355.951451 217.29652 
L 355.997837 217.456508 
L 356.136994 218.155038 
L 356.18338 218.058567 
L 356.322538 216.29388 
L 356.74001 209.762586 
L 356.925554 211.063145 
L 356.971939 210.651242 
L 357.482184 202.884391 
L 357.574955 202.149389 
L 358.038814 196.433879 
L 358.177971 196.351197 
L 358.363515 194.66598 
L 358.502672 194.08692 
L 358.64183 194.137869 
L 358.780987 193.543597 
L 359.244846 190.28457 
L 359.291232 190.463095 
L 359.476775 191.451112 
L 359.523161 191.340341 
L 359.987019 189.204845 
L 360.079791 189.637752 
L 360.31172 191.574193 
L 360.450878 190.495715 
L 360.590035 189.794079 
L 360.682807 190.618379 
L 360.914736 193.4608 
L 361.193051 192.973722 
L 361.239437 192.999899 
L 361.424981 193.171017 
L 361.517752 193.311646 
L 361.564138 193.277742 
L 361.703296 192.782378 
L 361.749682 192.79806 
L 362.167154 194.25058 
L 362.259926 194.065978 
L 362.445469 193.185063 
L 362.491855 193.199612 
L 362.862942 193.92275 
L 362.909328 193.853402 
L 363.280415 193.349033 
L 363.419572 194.525971 
L 363.55873 195.599358 
L 363.605116 195.554276 
L 363.976202 194.637683 
L 364.300903 193.833473 
L 364.347289 194.049378 
L 364.579218 196.987227 
L 364.625604 196.797975 
L 364.857533 195.53543 
L 365.043077 195.748279 
L 365.506935 197.609197 
L 365.553321 197.567353 
L 365.878022 196.960581 
L 365.970794 197.101948 
L 366.388266 198.510994 
L 366.852125 199.944981 
L 366.944897 199.849986 
L 367.084054 199.716258 
L 367.176826 199.98172 
L 367.315983 200.623402 
L 367.362369 200.506895 
L 367.501527 198.520122 
L 367.779842 195.3552 
L 368.011771 193.861072 
L 368.058157 194.031031 
L 368.2437 196.613371 
L 368.336472 196.111872 
L 368.753945 191.280859 
L 368.80033 191.12816 
L 368.893102 191.951496 
L 369.496118 201.708147 
L 370.191906 219.044278 
L 370.238292 218.774477 
L 370.377449 217.857521 
L 370.423835 217.881971 
L 370.562993 219.291567 
L 370.655764 220.041313 
L 370.70215 219.979099 
L 370.841308 219.521976 
L 370.887694 219.544634 
L 370.934079 219.524087 
L 371.026851 219.00014 
L 371.351552 216.481015 
L 371.444324 216.632426 
L 371.537095 216.803024 
L 371.676253 215.716172 
L 372.140111 212.651512 
L 372.186497 212.665215 
L 372.279269 214.445449 
L 372.464812 226.882373 
L 372.696742 240.270927 
L 372.789513 235.168007 
L 372.928671 208.474358 
L 373.346143 60.709786 
L 373.438915 68.753162 
L 373.71723 90.420841 
L 374.134703 130.08448 
L 374.27386 203.70849 
L 374.459404 288.084504 
L 374.552176 281.958689 
L 374.644947 275.839252 
L 374.691333 275.843617 
L 374.784105 276.816401 
L 374.969648 273.479713 
L 375.016034 273.9329 
L 375.201577 281.584642 
L 375.340735 285.817176 
L 375.387121 285.533656 
L 375.572664 278.421341 
L 375.758208 274.570923 
L 375.897365 275.02498 
L 375.990137 273.883542 
L 376.17568 265.173128 
L 376.453995 255.685236 
L 376.593153 254.68688 
L 376.73231 250.450742 
L 377.103397 237.061267 
L 377.242555 235.990817 
L 377.428098 230.769258 
L 377.752799 221.915341 
L 377.891957 222.777868 
L 377.984728 221.345273 
L 378.355815 208.987949 
L 378.402201 209.204828 
L 378.541358 210.873839 
L 378.587744 210.643513 
L 378.773288 205.501791 
L 379.005217 201.374002 
L 379.097989 201.493725 
L 379.19076 201.570729 
L 379.283532 200.872024 
L 379.515461 194.922187 
L 379.654619 193.353308 
L 379.74739 193.992747 
L 379.886548 194.98769 
L 379.97932 193.548609 
L 380.211249 188.191883 
L 380.257635 188.296391 
L 380.443178 190.054301 
L 380.489564 189.957848 
L 380.675107 187.354355 
L 380.907037 184.827719 
L 380.953422 184.87969 
L 381.138966 186.019419 
L 381.185352 185.93084 
L 381.370895 183.791261 
L 381.556438 182.40398 
L 381.602824 182.448923 
L 381.741982 183.587922 
L 381.881139 184.340508 
L 382.113069 183.29375 
L 382.159454 183.371677 
L 382.252226 184.276967 
L 383.040786 200.540274 
L 383.458258 207.35888 
L 383.643802 210.568051 
L 383.875731 214.003048 
L 384.014888 213.175326 
L 384.293203 211.975078 
L 384.571519 210.501088 
L 384.849834 208.195192 
L 384.942605 208.261847 
L 384.988991 208.174893 
L 385.081763 207.203472 
L 385.406464 202.777501 
L 385.545621 202.131088 
L 385.592007 202.165211 
L 385.638393 202.192528 
L 385.731165 201.616038 
L 386.195023 196.525598 
L 386.287795 196.388797 
L 386.473338 195.116359 
L 386.798039 192.797052 
L 386.890811 192.684778 
L 387.447441 190.949905 
L 387.67937 190.613877 
L 387.772142 190.757157 
L 387.957685 191.285376 
L 388.004071 191.228891 
L 388.096843 191.019223 
L 388.143229 191.041043 
L 388.375158 191.936493 
L 388.46793 191.817211 
L 388.839016 190.752373 
L 389.02456 190.685941 
L 389.070946 190.619541 
L 389.117332 190.67253 
L 389.210103 191.87576 
L 389.395647 195.696063 
L 389.442032 195.545278 
L 389.58119 194.805424 
L 389.766733 195.949717 
L 389.813119 195.699349 
L 390.045049 193.581852 
L 390.091434 193.686304 
L 390.323364 195.11368 
L 390.462521 195.975651 
L 390.508907 195.887743 
L 390.648065 195.304975 
L 390.69445 195.338094 
L 390.833608 195.728927 
L 390.879994 195.695389 
L 391.019151 195.443947 
L 391.065537 195.492141 
L 391.158309 195.605667 
L 391.204695 195.516311 
L 391.343852 195.04741 
L 391.390238 195.138051 
L 391.714939 196.838794 
L 391.761325 196.722226 
L 391.946868 195.773551 
L 391.993254 195.812428 
L 392.225183 197.024508 
L 392.271569 196.940994 
L 392.503498 196.063096 
L 392.549884 196.229487 
L 392.828199 198.274227 
L 392.874585 198.23784 
L 393.060129 197.801425 
L 393.199286 197.698395 
L 393.292058 197.58443 
L 393.38483 197.37487 
L 393.431215 197.448123 
L 393.70953 198.410052 
L 393.802302 198.060162 
L 393.895074 197.457744 
L 393.94146 197.493632 
L 394.405318 200.991735 
L 394.451704 200.957883 
L 394.683633 199.448655 
L 394.730019 199.604552 
L 394.961948 200.351477 
L 395.05472 200.616158 
L 395.193878 201.10327 
L 395.240263 201.073506 
L 395.333035 200.994739 
L 395.472193 201.548427 
L 395.564964 201.761404 
L 395.61135 201.641492 
L 395.796894 200.878972 
L 395.843279 200.969506 
L 396.028823 202.043608 
L 396.075209 202.033435 
L 396.260752 200.342456 
L 396.492681 197.668013 
L 396.724611 194.698711 
L 396.770996 194.738724 
L 397.049311 197.027979 
L 397.142083 196.5224 
L 397.374012 195.093928 
L 397.51317 194.150009 
L 397.652327 193.277299 
L 397.698713 193.330005 
L 397.837871 194.710499 
L 398.255343 204.199529 
L 398.487273 211.808905 
L 398.487273 211.808905 
" clip-path="url(#p6188677de1)" style="fill: none; stroke: #008000; stroke-width: 1.5; stroke-linecap: square"/>
   </g>
   <g id="line2d_14">
    <defs>
     <path id="m3057130731" d="M 0 3 
C 0.795609 3 1.55874 2.683901 2.12132 2.12132 
C 2.683901 1.55874 3 0.795609 3 0 
C 3 -0.795609 2.683901 -1.55874 2.12132 -2.12132 
C 1.55874 -2.683901 0.795609 -3 0 -3 
C -0.795609 -3 -1.55874 -2.683901 -2.12132 -2.12132 
C -2.683901 -1.55874 -3 -0.795609 -3 0 
C -3 0.795609 -2.683901 1.55874 -2.12132 2.12132 
C -1.55874 2.683901 -0.795609 3 0 3 
z
" style="stroke: #ff0000"/>
    </defs>
    <g clip-path="url(#p6188677de1)">
     <use xlink:href="#m3057130731" x="84.223157" y="78.36635" style="fill: #ff0000; stroke: #ff0000"/>
     <use xlink:href="#m3057130731" x="113.214312" y="273.744798" style="fill: #ff0000; stroke: #ff0000"/>
     <use xlink:href="#m3057130731" x="142.344624" y="270.818145" style="fill: #ff0000; stroke: #ff0000"/>
     <use xlink:href="#m3057130731" x="170.593605" y="87.048813" style="fill: #ff0000; stroke: #ff0000"/>
     <use xlink:href="#m3057130731" x="199.167287" y="86.633309" style="fill: #ff0000; stroke: #ff0000"/>
     <use xlink:href="#m3057130731" x="228.807843" y="86.455869" style="fill: #ff0000; stroke: #ff0000"/>
     <use xlink:href="#m3057130731" x="259.190573" y="85.884006" style="fill: #ff0000; stroke: #ff0000"/>
     <use xlink:href="#m3057130731" x="290.640178" y="272.038562" style="fill: #ff0000; stroke: #ff0000"/>
     <use xlink:href="#m3057130731" x="319.028316" y="84.994901" style="fill: #ff0000; stroke: #ff0000"/>
     <use xlink:href="#m3057130731" x="345.514635" y="85.392319" style="fill: #ff0000; stroke: #ff0000"/>
     <use xlink:href="#m3057130731" x="374.969648" y="273.479713" style="fill: #ff0000; stroke: #ff0000"/>
    </g>
   </g>
   <g id="patch_3">
    <path d="M 57.6 307.584 
L 57.6 41.472 
" style="fill: none; stroke: #000000; stroke-width: 0.8; stroke-linejoin: miter; stroke-linecap: square"/>
   </g>
   <g id="patch_4">
    <path d="M 414.72 307.584 
L 414.72 41.472 
" style="fill: none; stroke: #000000; stroke-width: 0.8; stroke-linejoin: miter; stroke-linecap: square"/>
   </g>
   <g id="patch_5">
    <path d="M 57.6 307.584 
L 414.72 307.584 
" style="fill: none; stroke: #000000; stroke-width: 0.8; stroke-linejoin: miter; stroke-linecap: square"/>
   </g>
   <g id="patch_6">
    <path d="M 57.6 41.472 
L 414.72 41.472 
" style="fill: none; stroke: #000000; stroke-width: 0.8; stroke-linejoin: miter; stroke-linecap: square"/>
   </g>
  </g>
 </g>
 <defs>
  <clipPath id="p6188677de1">
   <rect x="57.6" y="41.472" width="357.12" height="266.112"/>
  </clipPath>
 </defs>
</svg>
