<?xml version="1.0" encoding="utf-8" standalone="no"?>
<!DOCTYPE svg PUBLIC "-//W3C//DTD SVG 1.1//EN"
  "http://www.w3.org/Graphics/SVG/1.1/DTD/svg11.dtd">
<svg xmlns:xlink="http://www.w3.org/1999/xlink" width="460.8pt" height="345.6pt" viewBox="0 0 460.8 345.6" xmlns="http://www.w3.org/2000/svg" version="1.1">
 <metadata>
  <rdf:RDF xmlns:dc="http://purl.org/dc/elements/1.1/" xmlns:cc="http://creativecommons.org/ns#" xmlns:rdf="http://www.w3.org/1999/02/22-rdf-syntax-ns#">
   <cc:Work>
    <dc:type rdf:resource="http://purl.org/dc/dcmitype/StillImage"/>
    <dc:date>2024-06-11T19:49:44.046586</dc:date>
    <dc:format>image/svg+xml</dc:format>
    <dc:creator>
     <cc:Agent>
      <dc:title>Matplotlib v3.8.2, https://matplotlib.org/</dc:title>
     </cc:Agent>
    </dc:creator>
   </cc:Work>
  </rdf:RDF>
 </metadata>
 <defs>
  <style type="text/css">*{stroke-linejoin: round; stroke-linecap: butt}</style>
 </defs>
 <g id="figure_1">
  <g id="patch_1">
   <path d="M 0 345.6 
L 460.8 345.6 
L 460.8 0 
L 0 0 
z
" style="fill: #ffffff"/>
  </g>
  <g id="axes_1">
   <g id="patch_2">
    <path d="M 57.6 307.584 
L 414.72 307.584 
L 414.72 41.472 
L 57.6 41.472 
z
" style="fill: #ffffff"/>
   </g>
   <g id="matplotlib.axis_1">
    <g id="xtick_1">
     <g id="line2d_1">
      <defs>
       <path id="m16f5c0374e" d="M 0 0 
L 0 3.5 
" style="stroke: #000000; stroke-width: 0.8"/>
      </defs>
      <g>
       <use xlink:href="#m16f5c0374e" x="73.832727" y="307.584" style="stroke: #000000; stroke-width: 0.8"/>
      </g>
     </g>
     <g id="text_1">
      <!-- 0 -->
      <g transform="translate(70.651477 322.182437) scale(0.1 -0.1)">
       <defs>
        <path id="DejaVuSans-30" d="M 2034 4250 
Q 1547 4250 1301 3770 
Q 1056 3291 1056 2328 
Q 1056 1369 1301 889 
Q 1547 409 2034 409 
Q 2525 409 2770 889 
Q 3016 1369 3016 2328 
Q 3016 3291 2770 3770 
Q 2525 4250 2034 4250 
z
M 2034 4750 
Q 2819 4750 3233 4129 
Q 3647 3509 3647 2328 
Q 3647 1150 3233 529 
Q 2819 -91 2034 -91 
Q 1250 -91 836 529 
Q 422 1150 422 2328 
Q 422 3509 836 4129 
Q 1250 4750 2034 4750 
z
" transform="scale(0.015625)"/>
       </defs>
       <use xlink:href="#DejaVuSans-30"/>
      </g>
     </g>
    </g>
    <g id="xtick_2">
     <g id="line2d_2">
      <g>
       <use xlink:href="#m16f5c0374e" x="138.763636" y="307.584" style="stroke: #000000; stroke-width: 0.8"/>
      </g>
     </g>
     <g id="text_2">
      <!-- 2 -->
      <g transform="translate(135.582386 322.182437) scale(0.1 -0.1)">
       <defs>
        <path id="DejaVuSans-32" d="M 1228 531 
L 3431 531 
L 3431 0 
L 469 0 
L 469 531 
Q 828 903 1448 1529 
Q 2069 2156 2228 2338 
Q 2531 2678 2651 2914 
Q 2772 3150 2772 3378 
Q 2772 3750 2511 3984 
Q 2250 4219 1831 4219 
Q 1534 4219 1204 4116 
Q 875 4013 500 3803 
L 500 4441 
Q 881 4594 1212 4672 
Q 1544 4750 1819 4750 
Q 2544 4750 2975 4387 
Q 3406 4025 3406 3419 
Q 3406 3131 3298 2873 
Q 3191 2616 2906 2266 
Q 2828 2175 2409 1742 
Q 1991 1309 1228 531 
z
" transform="scale(0.015625)"/>
       </defs>
       <use xlink:href="#DejaVuSans-32"/>
      </g>
     </g>
    </g>
    <g id="xtick_3">
     <g id="line2d_3">
      <g>
       <use xlink:href="#m16f5c0374e" x="203.694545" y="307.584" style="stroke: #000000; stroke-width: 0.8"/>
      </g>
     </g>
     <g id="text_3">
      <!-- 4 -->
      <g transform="translate(200.513295 322.182437) scale(0.1 -0.1)">
       <defs>
        <path id="DejaVuSans-34" d="M 2419 4116 
L 825 1625 
L 2419 1625 
L 2419 4116 
z
M 2253 4666 
L 3047 4666 
L 3047 1625 
L 3713 1625 
L 3713 1100 
L 3047 1100 
L 3047 0 
L 2419 0 
L 2419 1100 
L 313 1100 
L 313 1709 
L 2253 4666 
z
" transform="scale(0.015625)"/>
       </defs>
       <use xlink:href="#DejaVuSans-34"/>
      </g>
     </g>
    </g>
    <g id="xtick_4">
     <g id="line2d_4">
      <g>
       <use xlink:href="#m16f5c0374e" x="268.625455" y="307.584" style="stroke: #000000; stroke-width: 0.8"/>
      </g>
     </g>
     <g id="text_4">
      <!-- 6 -->
      <g transform="translate(265.444205 322.182437) scale(0.1 -0.1)">
       <defs>
        <path id="DejaVuSans-36" d="M 2113 2584 
Q 1688 2584 1439 2293 
Q 1191 2003 1191 1497 
Q 1191 994 1439 701 
Q 1688 409 2113 409 
Q 2538 409 2786 701 
Q 3034 994 3034 1497 
Q 3034 2003 2786 2293 
Q 2538 2584 2113 2584 
z
M 3366 4563 
L 3366 3988 
Q 3128 4100 2886 4159 
Q 2644 4219 2406 4219 
Q 1781 4219 1451 3797 
Q 1122 3375 1075 2522 
Q 1259 2794 1537 2939 
Q 1816 3084 2150 3084 
Q 2853 3084 3261 2657 
Q 3669 2231 3669 1497 
Q 3669 778 3244 343 
Q 2819 -91 2113 -91 
Q 1303 -91 875 529 
Q 447 1150 447 2328 
Q 447 3434 972 4092 
Q 1497 4750 2381 4750 
Q 2619 4750 2861 4703 
Q 3103 4656 3366 4563 
z
" transform="scale(0.015625)"/>
       </defs>
       <use xlink:href="#DejaVuSans-36"/>
      </g>
     </g>
    </g>
    <g id="xtick_5">
     <g id="line2d_5">
      <g>
       <use xlink:href="#m16f5c0374e" x="333.556364" y="307.584" style="stroke: #000000; stroke-width: 0.8"/>
      </g>
     </g>
     <g id="text_5">
      <!-- 8 -->
      <g transform="translate(330.375114 322.182437) scale(0.1 -0.1)">
       <defs>
        <path id="DejaVuSans-38" d="M 2034 2216 
Q 1584 2216 1326 1975 
Q 1069 1734 1069 1313 
Q 1069 891 1326 650 
Q 1584 409 2034 409 
Q 2484 409 2743 651 
Q 3003 894 3003 1313 
Q 3003 1734 2745 1975 
Q 2488 2216 2034 2216 
z
M 1403 2484 
Q 997 2584 770 2862 
Q 544 3141 544 3541 
Q 544 4100 942 4425 
Q 1341 4750 2034 4750 
Q 2731 4750 3128 4425 
Q 3525 4100 3525 3541 
Q 3525 3141 3298 2862 
Q 3072 2584 2669 2484 
Q 3125 2378 3379 2068 
Q 3634 1759 3634 1313 
Q 3634 634 3220 271 
Q 2806 -91 2034 -91 
Q 1263 -91 848 271 
Q 434 634 434 1313 
Q 434 1759 690 2068 
Q 947 2378 1403 2484 
z
M 1172 3481 
Q 1172 3119 1398 2916 
Q 1625 2713 2034 2713 
Q 2441 2713 2670 2916 
Q 2900 3119 2900 3481 
Q 2900 3844 2670 4047 
Q 2441 4250 2034 4250 
Q 1625 4250 1398 4047 
Q 1172 3844 1172 3481 
z
" transform="scale(0.015625)"/>
       </defs>
       <use xlink:href="#DejaVuSans-38"/>
      </g>
     </g>
    </g>
    <g id="xtick_6">
     <g id="line2d_6">
      <g>
       <use xlink:href="#m16f5c0374e" x="398.487273" y="307.584" style="stroke: #000000; stroke-width: 0.8"/>
      </g>
     </g>
     <g id="text_6">
      <!-- 10 -->
      <g transform="translate(392.124773 322.182437) scale(0.1 -0.1)">
       <defs>
        <path id="DejaVuSans-31" d="M 794 531 
L 1825 531 
L 1825 4091 
L 703 3866 
L 703 4441 
L 1819 4666 
L 2450 4666 
L 2450 531 
L 3481 531 
L 3481 0 
L 794 0 
L 794 531 
z
" transform="scale(0.015625)"/>
       </defs>
       <use xlink:href="#DejaVuSans-31"/>
       <use xlink:href="#DejaVuSans-30" x="63.623047"/>
      </g>
     </g>
    </g>
    <g id="text_7">
     <!-- Time [$s$] -->
     <g transform="translate(215.66 335.860562) scale(0.1 -0.1)">
      <defs>
       <path id="DejaVuSans-54" d="M -19 4666 
L 3928 4666 
L 3928 4134 
L 2272 4134 
L 2272 0 
L 1638 0 
L 1638 4134 
L -19 4134 
L -19 4666 
z
" transform="scale(0.015625)"/>
       <path id="DejaVuSans-69" d="M 603 3500 
L 1178 3500 
L 1178 0 
L 603 0 
L 603 3500 
z
M 603 4863 
L 1178 4863 
L 1178 4134 
L 603 4134 
L 603 4863 
z
" transform="scale(0.015625)"/>
       <path id="DejaVuSans-6d" d="M 3328 2828 
Q 3544 3216 3844 3400 
Q 4144 3584 4550 3584 
Q 5097 3584 5394 3201 
Q 5691 2819 5691 2113 
L 5691 0 
L 5113 0 
L 5113 2094 
Q 5113 2597 4934 2840 
Q 4756 3084 4391 3084 
Q 3944 3084 3684 2787 
Q 3425 2491 3425 1978 
L 3425 0 
L 2847 0 
L 2847 2094 
Q 2847 2600 2669 2842 
Q 2491 3084 2119 3084 
Q 1678 3084 1418 2786 
Q 1159 2488 1159 1978 
L 1159 0 
L 581 0 
L 581 3500 
L 1159 3500 
L 1159 2956 
Q 1356 3278 1631 3431 
Q 1906 3584 2284 3584 
Q 2666 3584 2933 3390 
Q 3200 3197 3328 2828 
z
" transform="scale(0.015625)"/>
       <path id="DejaVuSans-65" d="M 3597 1894 
L 3597 1613 
L 953 1613 
Q 991 1019 1311 708 
Q 1631 397 2203 397 
Q 2534 397 2845 478 
Q 3156 559 3463 722 
L 3463 178 
Q 3153 47 2828 -22 
Q 2503 -91 2169 -91 
Q 1331 -91 842 396 
Q 353 884 353 1716 
Q 353 2575 817 3079 
Q 1281 3584 2069 3584 
Q 2775 3584 3186 3129 
Q 3597 2675 3597 1894 
z
M 3022 2063 
Q 3016 2534 2758 2815 
Q 2500 3097 2075 3097 
Q 1594 3097 1305 2825 
Q 1016 2553 972 2059 
L 3022 2063 
z
" transform="scale(0.015625)"/>
       <path id="DejaVuSans-20" transform="scale(0.015625)"/>
       <path id="DejaVuSans-5b" d="M 550 4863 
L 1875 4863 
L 1875 4416 
L 1125 4416 
L 1125 -397 
L 1875 -397 
L 1875 -844 
L 550 -844 
L 550 4863 
z
" transform="scale(0.015625)"/>
       <path id="DejaVuSans-Oblique-73" d="M 3200 3397 
L 3091 2853 
Q 2863 2978 2609 3040 
Q 2356 3103 2088 3103 
Q 1634 3103 1373 2948 
Q 1113 2794 1113 2528 
Q 1113 2219 1719 2053 
Q 1766 2041 1788 2034 
L 1972 1978 
Q 2547 1819 2739 1644 
Q 2931 1469 2931 1166 
Q 2931 609 2489 259 
Q 2047 -91 1331 -91 
Q 1053 -91 747 -37 
Q 441 16 72 128 
L 184 722 
Q 500 559 806 475 
Q 1113 391 1394 391 
Q 1816 391 2080 572 
Q 2344 753 2344 1031 
Q 2344 1331 1650 1516 
L 1591 1531 
L 1394 1581 
Q 956 1697 753 1886 
Q 550 2075 550 2369 
Q 550 2928 970 3256 
Q 1391 3584 2113 3584 
Q 2397 3584 2667 3537 
Q 2938 3491 3200 3397 
z
" transform="scale(0.015625)"/>
       <path id="DejaVuSans-5d" d="M 1947 4863 
L 1947 -844 
L 622 -844 
L 622 -397 
L 1369 -397 
L 1369 4416 
L 622 4416 
L 622 4863 
L 1947 4863 
z
" transform="scale(0.015625)"/>
      </defs>
      <use xlink:href="#DejaVuSans-54" transform="translate(0 0.015625)"/>
      <use xlink:href="#DejaVuSans-69" transform="translate(61.083984 0.015625)"/>
      <use xlink:href="#DejaVuSans-6d" transform="translate(88.867188 0.015625)"/>
      <use xlink:href="#DejaVuSans-65" transform="translate(186.279297 0.015625)"/>
      <use xlink:href="#DejaVuSans-20" transform="translate(247.802734 0.015625)"/>
      <use xlink:href="#DejaVuSans-5b" transform="translate(279.589844 0.015625)"/>
      <use xlink:href="#DejaVuSans-Oblique-73" transform="translate(318.603516 0.015625)"/>
      <use xlink:href="#DejaVuSans-5d" transform="translate(370.703125 0.015625)"/>
     </g>
    </g>
   </g>
   <g id="matplotlib.axis_2">
    <g id="ytick_1">
     <g id="line2d_7">
      <defs>
       <path id="m9fd0a56208" d="M 0 0 
L -3.5 0 
" style="stroke: #000000; stroke-width: 0.8"/>
      </defs>
      <g>
       <use xlink:href="#m9fd0a56208" x="57.6" y="281.077954" style="stroke: #000000; stroke-width: 0.8"/>
      </g>
     </g>
     <g id="text_8">
      <!-- −500 -->
      <g transform="translate(23.132812 284.877173) scale(0.1 -0.1)">
       <defs>
        <path id="DejaVuSans-2212" d="M 678 2272 
L 4684 2272 
L 4684 1741 
L 678 1741 
L 678 2272 
z
" transform="scale(0.015625)"/>
        <path id="DejaVuSans-35" d="M 691 4666 
L 3169 4666 
L 3169 4134 
L 1269 4134 
L 1269 2991 
Q 1406 3038 1543 3061 
Q 1681 3084 1819 3084 
Q 2600 3084 3056 2656 
Q 3513 2228 3513 1497 
Q 3513 744 3044 326 
Q 2575 -91 1722 -91 
Q 1428 -91 1123 -41 
Q 819 9 494 109 
L 494 744 
Q 775 591 1075 516 
Q 1375 441 1709 441 
Q 2250 441 2565 725 
Q 2881 1009 2881 1497 
Q 2881 1984 2565 2268 
Q 2250 2553 1709 2553 
Q 1456 2553 1204 2497 
Q 953 2441 691 2322 
L 691 4666 
z
" transform="scale(0.015625)"/>
       </defs>
       <use xlink:href="#DejaVuSans-2212"/>
       <use xlink:href="#DejaVuSans-35" x="83.789062"/>
       <use xlink:href="#DejaVuSans-30" x="147.412109"/>
       <use xlink:href="#DejaVuSans-30" x="211.035156"/>
      </g>
     </g>
    </g>
    <g id="ytick_2">
     <g id="line2d_8">
      <g>
       <use xlink:href="#m9fd0a56208" x="57.6" y="224.180931" style="stroke: #000000; stroke-width: 0.8"/>
      </g>
     </g>
     <g id="text_9">
      <!-- 0 -->
      <g transform="translate(44.2375 227.98015) scale(0.1 -0.1)">
       <use xlink:href="#DejaVuSans-30"/>
      </g>
     </g>
    </g>
    <g id="ytick_3">
     <g id="line2d_9">
      <g>
       <use xlink:href="#m9fd0a56208" x="57.6" y="167.283909" style="stroke: #000000; stroke-width: 0.8"/>
      </g>
     </g>
     <g id="text_10">
      <!-- 500 -->
      <g transform="translate(31.5125 171.083128) scale(0.1 -0.1)">
       <use xlink:href="#DejaVuSans-35"/>
       <use xlink:href="#DejaVuSans-30" x="63.623047"/>
       <use xlink:href="#DejaVuSans-30" x="127.246094"/>
      </g>
     </g>
    </g>
    <g id="ytick_4">
     <g id="line2d_10">
      <g>
       <use xlink:href="#m9fd0a56208" x="57.6" y="110.386886" style="stroke: #000000; stroke-width: 0.8"/>
      </g>
     </g>
     <g id="text_11">
      <!-- 1000 -->
      <g transform="translate(25.15 114.186105) scale(0.1 -0.1)">
       <use xlink:href="#DejaVuSans-31"/>
       <use xlink:href="#DejaVuSans-30" x="63.623047"/>
       <use xlink:href="#DejaVuSans-30" x="127.246094"/>
       <use xlink:href="#DejaVuSans-30" x="190.869141"/>
      </g>
     </g>
    </g>
    <g id="ytick_5">
     <g id="line2d_11">
      <g>
       <use xlink:href="#m9fd0a56208" x="57.6" y="53.489864" style="stroke: #000000; stroke-width: 0.8"/>
      </g>
     </g>
     <g id="text_12">
      <!-- 1500 -->
      <g transform="translate(25.15 57.289083) scale(0.1 -0.1)">
       <use xlink:href="#DejaVuSans-31"/>
       <use xlink:href="#DejaVuSans-35" x="63.623047"/>
       <use xlink:href="#DejaVuSans-30" x="127.246094"/>
       <use xlink:href="#DejaVuSans-30" x="190.869141"/>
      </g>
     </g>
    </g>
    <g id="text_13">
     <!-- Voltage [$mV$] -->
     <g transform="translate(17.032812 207.478) rotate(-90) scale(0.1 -0.1)">
      <defs>
       <path id="DejaVuSans-56" d="M 1831 0 
L 50 4666 
L 709 4666 
L 2188 738 
L 3669 4666 
L 4325 4666 
L 2547 0 
L 1831 0 
z
" transform="scale(0.015625)"/>
       <path id="DejaVuSans-6f" d="M 1959 3097 
Q 1497 3097 1228 2736 
Q 959 2375 959 1747 
Q 959 1119 1226 758 
Q 1494 397 1959 397 
Q 2419 397 2687 759 
Q 2956 1122 2956 1747 
Q 2956 2369 2687 2733 
Q 2419 3097 1959 3097 
z
M 1959 3584 
Q 2709 3584 3137 3096 
Q 3566 2609 3566 1747 
Q 3566 888 3137 398 
Q 2709 -91 1959 -91 
Q 1206 -91 779 398 
Q 353 888 353 1747 
Q 353 2609 779 3096 
Q 1206 3584 1959 3584 
z
" transform="scale(0.015625)"/>
       <path id="DejaVuSans-6c" d="M 603 4863 
L 1178 4863 
L 1178 0 
L 603 0 
L 603 4863 
z
" transform="scale(0.015625)"/>
       <path id="DejaVuSans-74" d="M 1172 4494 
L 1172 3500 
L 2356 3500 
L 2356 3053 
L 1172 3053 
L 1172 1153 
Q 1172 725 1289 603 
Q 1406 481 1766 481 
L 2356 481 
L 2356 0 
L 1766 0 
Q 1100 0 847 248 
Q 594 497 594 1153 
L 594 3053 
L 172 3053 
L 172 3500 
L 594 3500 
L 594 4494 
L 1172 4494 
z
" transform="scale(0.015625)"/>
       <path id="DejaVuSans-61" d="M 2194 1759 
Q 1497 1759 1228 1600 
Q 959 1441 959 1056 
Q 959 750 1161 570 
Q 1363 391 1709 391 
Q 2188 391 2477 730 
Q 2766 1069 2766 1631 
L 2766 1759 
L 2194 1759 
z
M 3341 1997 
L 3341 0 
L 2766 0 
L 2766 531 
Q 2569 213 2275 61 
Q 1981 -91 1556 -91 
Q 1019 -91 701 211 
Q 384 513 384 1019 
Q 384 1609 779 1909 
Q 1175 2209 1959 2209 
L 2766 2209 
L 2766 2266 
Q 2766 2663 2505 2880 
Q 2244 3097 1772 3097 
Q 1472 3097 1187 3025 
Q 903 2953 641 2809 
L 641 3341 
Q 956 3463 1253 3523 
Q 1550 3584 1831 3584 
Q 2591 3584 2966 3190 
Q 3341 2797 3341 1997 
z
" transform="scale(0.015625)"/>
       <path id="DejaVuSans-67" d="M 2906 1791 
Q 2906 2416 2648 2759 
Q 2391 3103 1925 3103 
Q 1463 3103 1205 2759 
Q 947 2416 947 1791 
Q 947 1169 1205 825 
Q 1463 481 1925 481 
Q 2391 481 2648 825 
Q 2906 1169 2906 1791 
z
M 3481 434 
Q 3481 -459 3084 -895 
Q 2688 -1331 1869 -1331 
Q 1566 -1331 1297 -1286 
Q 1028 -1241 775 -1147 
L 775 -588 
Q 1028 -725 1275 -790 
Q 1522 -856 1778 -856 
Q 2344 -856 2625 -561 
Q 2906 -266 2906 331 
L 2906 616 
Q 2728 306 2450 153 
Q 2172 0 1784 0 
Q 1141 0 747 490 
Q 353 981 353 1791 
Q 353 2603 747 3093 
Q 1141 3584 1784 3584 
Q 2172 3584 2450 3431 
Q 2728 3278 2906 2969 
L 2906 3500 
L 3481 3500 
L 3481 434 
z
" transform="scale(0.015625)"/>
       <path id="DejaVuSans-Oblique-6d" d="M 5747 2113 
L 5338 0 
L 4763 0 
L 5166 2094 
Q 5191 2228 5203 2325 
Q 5216 2422 5216 2491 
Q 5216 2772 5059 2928 
Q 4903 3084 4622 3084 
Q 4203 3084 3875 2770 
Q 3547 2456 3450 1953 
L 3066 0 
L 2491 0 
L 2900 2094 
Q 2925 2209 2937 2307 
Q 2950 2406 2950 2484 
Q 2950 2769 2794 2926 
Q 2638 3084 2363 3084 
Q 1938 3084 1609 2770 
Q 1281 2456 1184 1953 
L 800 0 
L 225 0 
L 909 3500 
L 1484 3500 
L 1375 2956 
Q 1609 3263 1923 3423 
Q 2238 3584 2597 3584 
Q 2978 3584 3223 3384 
Q 3469 3184 3519 2828 
Q 3781 3197 4126 3390 
Q 4472 3584 4856 3584 
Q 5306 3584 5551 3325 
Q 5797 3066 5797 2591 
Q 5797 2488 5784 2364 
Q 5772 2241 5747 2113 
z
" transform="scale(0.015625)"/>
       <path id="DejaVuSans-Oblique-56" d="M 1319 0 
L 500 4666 
L 1119 4666 
L 1797 653 
L 4063 4666 
L 4750 4666 
L 2053 0 
L 1319 0 
z
" transform="scale(0.015625)"/>
      </defs>
      <use xlink:href="#DejaVuSans-56" transform="translate(0 0.015625)"/>
      <use xlink:href="#DejaVuSans-6f" transform="translate(68.408203 0.015625)"/>
      <use xlink:href="#DejaVuSans-6c" transform="translate(129.589844 0.015625)"/>
      <use xlink:href="#DejaVuSans-74" transform="translate(157.373047 0.015625)"/>
      <use xlink:href="#DejaVuSans-61" transform="translate(196.582031 0.015625)"/>
      <use xlink:href="#DejaVuSans-67" transform="translate(257.861328 0.015625)"/>
      <use xlink:href="#DejaVuSans-65" transform="translate(321.337891 0.015625)"/>
      <use xlink:href="#DejaVuSans-20" transform="translate(382.861328 0.015625)"/>
      <use xlink:href="#DejaVuSans-5b" transform="translate(414.648438 0.015625)"/>
      <use xlink:href="#DejaVuSans-Oblique-6d" transform="translate(453.662109 0.015625)"/>
      <use xlink:href="#DejaVuSans-Oblique-56" transform="translate(551.074219 0.015625)"/>
      <use xlink:href="#DejaVuSans-5d" transform="translate(619.482422 0.015625)"/>
     </g>
    </g>
   </g>
   <g id="line2d_12">
    <path d="M 73.832727 261.946747 
L 74.064657 258.743164 
L 74.157428 259.691216 
L 74.203814 259.357835 
L 74.2502 259.295326 
L 74.342972 258.513964 
L 74.389357 258.618146 
L 74.574901 260.722613 
L 74.760444 257.722185 
L 74.80683 257.982638 
L 74.853216 258.154538 
L 74.899602 258.118075 
L 75.085145 257.383595 
L 75.177917 257.357549 
L 75.36346 258.691073 
L 75.409846 258.472292 
L 75.734547 254.685292 
L 75.966476 252.04429 
L 76.059248 250.939965 
L 76.337563 242.537722 
L 76.986965 222.138973 
L 77.589981 208.850615 
L 77.961068 204.01659 
L 78.100225 204.860461 
L 78.146611 204.844834 
L 78.332154 203.641537 
L 78.424926 204.089518 
L 78.471312 204.287463 
L 78.564084 206.209612 
L 79.074328 192.931673 
L 79.120714 193.473417 
L 79.1671 194.082879 
L 79.213486 193.655734 
L 79.445415 189.983334 
L 79.538186 189.61349 
L 79.584572 190.222952 
L 80.002045 182.117627 
L 80.048431 182.138463 
L 80.233974 184.774256 
L 80.373132 186.290098 
L 80.83699 209.027724 
L 81.161691 224.540358 
L 81.486392 236.656673 
L 81.532778 236.203483 
L 81.671935 236.750437 
L 81.811093 238.698632 
L 82.089408 233.025946 
L 82.135794 232.822792 
L 82.18218 234.541788 
L 82.228566 234.406351 
L 82.414109 231.666376 
L 82.460495 231.24965 
L 82.506881 231.504895 
L 82.73881 246.663312 
L 83.109897 292.789698 
L 83.156283 292.393808 
L 83.249054 278.912714 
L 83.434598 202.77683 
L 83.759299 53.870127 
L 83.85207 53.588836 
L 83.898456 53.604464 
L 83.991228 53.599254 
L 84.4087 60.371056 
L 84.455086 64.069501 
L 84.733401 260.555923 
L 84.918945 267.473579 
L 85.011716 267.01518 
L 85.058102 267.119361 
L 85.614732 280.933836 
L 85.707504 280.63171 
L 86.217749 275.334077 
L 86.31052 276.078975 
L 86.356906 275.990421 
L 86.681607 269.348847 
L 86.727993 269.510328 
L 86.774379 269.55721 
L 86.959922 268.098668 
L 87.052694 266.796398 
L 87.331009 262.915635 
L 87.423781 262.722899 
L 87.516552 263.295898 
L 87.748481 258.805673 
L 87.794867 259.38909 
L 87.980411 262.108228 
L 88.026797 262.024883 
L 88.165954 263.999124 
L 88.21234 263.347989 
L 88.258726 262.920844 
L 88.305112 263.290689 
L 88.351497 264.337714 
L 88.444269 264.254368 
L 88.537041 264.619004 
L 88.629813 263.415707 
L 88.722584 264.431477 
L 88.76897 264.290832 
L 88.908128 261.686293 
L 88.954514 261.769638 
L 89.047285 262.702063 
L 89.186443 260.34756 
L 89.3256 256.305315 
L 89.371986 256.326152 
L 89.418372 256.669951 
L 90.11416 232.093521 
L 90.392475 220.050133 
L 90.438861 220.117851 
L 90.485246 220.393932 
L 90.624404 218.320719 
L 90.902719 212.684496 
L 90.949105 212.564687 
L 91.273806 207.808799 
L 91.320192 207.933817 
L 91.412963 206.199194 
L 91.505735 206.610711 
L 91.552121 206.376303 
L 91.78405 209.017305 
L 91.876822 207.954653 
L 91.969594 206.444021 
L 92.015979 206.636757 
L 92.155137 204.782325 
L 92.57261 198.640822 
L 92.618995 198.724167 
L 92.711767 197.401061 
L 92.758153 197.406271 
L 92.943696 199.72431 
L 92.990082 199.609711 
L 93.268397 191.155377 
L 93.314783 191.546058 
L 93.546712 187.930958 
L 93.593098 188.274757 
L 93.68587 189.087373 
L 93.732256 188.983191 
L 93.778642 188.681065 
L 94.010571 192.900418 
L 94.196114 203.537355 
L 94.752744 232.656101 
L 95.03106 239.511248 
L 95.123831 238.156888 
L 95.170217 237.57868 
L 95.216603 237.781834 
L 95.35576 238.828859 
L 95.402146 238.568405 
L 95.448532 238.323578 
L 95.494918 238.886159 
L 95.541304 238.82365 
L 95.58769 238.620496 
L 95.819619 236.635837 
L 95.866005 236.338919 
L 95.912391 236.62021 
L 96.005162 237.036936 
L 96.14432 242.43875 
L 96.283477 257.607585 
L 96.561792 292.112517 
L 96.608178 292.628216 
L 96.70095 286.215841 
L 96.840108 249.960658 
L 97.25758 53.578418 
L 97.350352 53.588836 
L 97.675053 53.609673 
L 97.906982 57.80298 
L 98.324455 275.667458 
L 98.60277 268.82273 
L 98.649156 267.968441 
L 98.695541 268.400794 
L 98.973857 276.235248 
L 99.252172 279.55864 
L 99.344943 282.569487 
L 99.391329 281.626643 
L 99.623258 275.745594 
L 99.71603 274.349562 
L 99.762416 274.500625 
L 99.808802 274.662106 
L 100.087117 271.547078 
L 100.226274 267.025598 
L 100.27266 267.12457 
L 100.365432 268.348704 
L 100.411818 267.999695 
L 100.82929 260.660105 
L 100.875676 261.290403 
L 100.968448 259.456808 
L 101.014834 258.524383 
L 101.06122 259.092172 
L 101.153991 259.024454 
L 101.246763 256.84185 
L 101.339535 257.607585 
L 101.432306 259.201563 
L 101.478692 259.175517 
L 101.710622 255.065555 
L 101.757007 255.227036 
L 101.849779 257.029377 
L 101.942551 254.805101 
L 101.988937 255.284336 
L 102.035322 255.398936 
L 102.081708 255.055137 
L 102.128094 255.128064 
L 102.267252 256.992914 
L 102.499181 254.86761 
L 102.545567 254.888446 
L 103.009425 246.668521 
L 103.28774 238.03187 
L 103.380512 236.635837 
L 103.658827 228.645111 
L 103.797985 225.342556 
L 103.84437 225.48841 
L 103.983528 224.352831 
L 104.586544 210.840483 
L 104.864859 214.116993 
L 104.957631 213.325213 
L 105.004017 213.741939 
L 105.096788 216.778832 
L 105.143174 216.575678 
L 105.282332 212.413624 
L 105.328718 213.189777 
L 105.375103 213.142895 
L 105.467875 211.413481 
L 105.560647 209.486122 
L 105.74619 203.240438 
L 105.978119 204.381226 
L 106.163663 202.860175 
L 106.627521 190.941805 
L 106.673907 191.098077 
L 106.720293 191.665867 
L 106.766679 191.342904 
L 106.998608 183.654305 
L 107.276923 193.817216 
L 107.369695 190.999105 
L 107.416081 191.436667 
L 107.508852 196.765554 
L 107.740782 209.986194 
L 108.20464 232.515456 
L 108.343798 236.495192 
L 108.390184 236.16702 
L 108.436569 236.135765 
L 108.575727 237.380735 
L 108.714884 236.16702 
L 108.76127 236.484774 
L 108.946814 238.917413 
L 109.039585 239.448739 
L 109.085971 239.099731 
L 109.364286 232.145612 
L 109.410672 232.525874 
L 109.642601 246.595594 
L 109.874531 268.228895 
L 110.013688 279.850348 
L 110.10646 277.047864 
L 110.245617 250.304458 
L 110.570318 87.942706 
L 110.709476 53.620091 
L 111.173334 53.594045 
L 111.358878 56.453829 
L 111.683579 279.449249 
L 111.822736 282.689295 
L 111.869122 282.303824 
L 112.054665 271.838786 
L 112.101051 272.062776 
L 112.425752 276.485283 
L 112.56491 275.193432 
L 112.704067 277.329154 
L 112.796839 275.849776 
L 112.843225 276.058139 
L 112.889611 276.000839 
L 112.982382 274.026599 
L 113.028768 274.115153 
L 113.075154 274.479788 
L 113.214312 272.328439 
L 113.260698 273.036874 
L 113.307083 273.771354 
L 113.353469 273.464018 
L 113.399855 273.151474 
L 113.817328 263.915778 
L 113.863714 263.952242 
L 114.002871 263.478216 
L 114.049257 263.545934 
L 114.142029 262.092601 
L 114.327572 258.154538 
L 114.652273 253.690358 
L 114.698659 253.560131 
L 114.884202 257.597167 
L 114.976974 256.315734 
L 115.02336 256.555351 
L 115.116131 257.138768 
L 115.208903 256.169879 
L 115.394446 257.878457 
L 115.440832 257.680512 
L 115.57999 255.596881 
L 115.626376 256.096952 
L 115.672762 256.50326 
L 115.811919 251.997408 
L 115.858305 250.971219 
L 115.904691 251.674445 
L 115.951077 251.752581 
L 116.183006 247.772846 
L 116.229392 248.48128 
L 116.322163 250.773275 
L 116.368549 250.262785 
L 116.925179 232.562338 
L 117.203495 224.404922 
L 117.899282 212.585524 
L 117.945668 212.507388 
L 118.084826 210.871737 
L 118.270369 208.110926 
L 118.316755 208.235944 
L 118.409527 208.465143 
L 118.734227 204.349971 
L 118.966157 200.281682 
L 119.1517 197.656306 
L 119.198086 197.640679 
L 119.244472 197.776115 
L 119.383629 196.650954 
L 120.125803 185.154519 
L 120.172189 185.164937 
L 120.26496 183.805368 
L 120.311346 184.47213 
L 120.914362 202.755994 
L 121.61015 233.421836 
L 121.888465 238.229815 
L 121.934851 237.995406 
L 122.305938 234.677224 
L 122.398709 234.729314 
L 122.445095 234.645969 
L 122.491481 234.948096 
L 122.537867 234.797032 
L 122.584253 234.489697 
L 122.630639 234.770987 
L 122.72341 235.20334 
L 122.862568 241.480279 
L 123.280041 287.283702 
L 123.326426 286.372114 
L 123.419198 273.641127 
L 123.651127 187.430886 
L 123.975828 53.609673 
L 124.207757 53.578418 
L 124.439687 53.609673 
L 124.62523 56.745538 
L 124.949931 276.297757 
L 124.996317 277.214554 
L 125.042703 275.959167 
L 125.228246 268.973793 
L 125.274632 269.208202 
L 125.367404 268.109086 
L 125.506561 272.161749 
L 125.692105 276.631138 
L 125.877648 277.964662 
L 126.016806 276.808246 
L 126.248735 274.474579 
L 126.295121 273.297328 
L 126.387892 273.656754 
L 126.52705 271.276206 
L 126.619822 269.156111 
L 126.666207 269.21862 
L 127.593924 255.648972 
L 127.965011 253.804958 
L 128.011397 254.034157 
L 128.104169 255.2635 
L 128.150554 255.117646 
L 128.19694 255.107227 
L 128.289712 253.638267 
L 128.475255 251.950526 
L 128.568027 251.731745 
L 128.660799 253.174659 
L 128.707185 252.77356 
L 128.799956 251.690072 
L 128.846342 251.992199 
L 128.892728 252.117217 
L 129.031886 249.971077 
L 129.078271 250.356548 
L 129.124657 249.731459 
L 129.171043 249.799177 
L 129.217429 250.330503 
L 129.263815 250.075258 
L 129.449358 247.324865 
L 129.54213 247.892654 
L 129.820445 245.428761 
L 130.933705 215.242154 
L 131.304792 209.574677 
L 131.44395 207.652527 
L 131.536721 208.387007 
L 131.583107 208.241153 
L 132.00058 201.922541 
L 132.325281 194.510023 
L 132.371667 194.692341 
L 133.392155 182.482262 
L 133.438541 183.253206 
L 133.484927 183.570959 
L 133.577699 182.659371 
L 133.624084 182.701043 
L 133.716856 184.232512 
L 134.041557 194.614205 
L 134.876502 235.396076 
L 135.201203 237.69328 
L 135.247589 237.604725 
L 135.340361 237.995406 
L 135.386747 237.740161 
L 135.525904 234.031298 
L 135.57229 234.24487 
L 135.804219 236.411847 
L 135.896991 235.48984 
L 135.943377 235.838848 
L 136.082534 243.053421 
L 136.407235 280.694219 
L 136.546393 288.414072 
L 136.639165 278.782487 
L 136.824708 217.560193 
L 137.195795 53.578418 
L 137.242181 53.588836 
L 137.566882 53.594045 
L 137.845197 58.261379 
L 137.891582 68.611817 
L 138.123512 263.983496 
L 138.216283 271.349133 
L 138.262669 270.963661 
L 138.448213 266.952671 
L 138.494598 267.025598 
L 138.958457 275.245523 
L 139.236772 276.516538 
L 139.283158 276.349847 
L 139.654245 272.250303 
L 139.747016 272.578475 
L 140.581962 257.675303 
L 140.628347 258.02952 
L 140.674733 258.9932 
L 140.721119 258.498337 
L 140.953048 255.221827 
L 141.231363 253.409068 
L 141.370521 253.054851 
L 141.509679 252.440179 
L 141.648836 251.846345 
L 141.834379 252.617288 
L 141.880765 252.49227 
L 141.927151 252.565197 
L 142.019923 252.825651 
L 142.251852 251.262928 
L 142.344624 249.49705 
L 142.39101 250.455521 
L 142.483781 251.033728 
L 142.530167 250.867038 
L 142.901254 245.710051 
L 142.94764 246.043432 
L 143.040411 244.491126 
L 143.736199 224.993548 
L 143.828971 223.654815 
L 144.246444 211.173864 
L 144.292829 210.934246 
L 144.385601 208.069253 
L 144.478373 208.267198 
L 144.756688 204.000963 
L 144.84946 204.391644 
L 144.895845 204.69898 
L 144.988617 206.839911 
L 145.730791 191.473131 
L 145.916334 188.738365 
L 145.96272 189.129046 
L 146.055492 189.712462 
L 146.751279 178.789026 
L 146.797665 178.82028 
L 147.029594 181.31022 
L 147.400681 192.530574 
L 148.050083 228.785756 
L 148.374784 237.40678 
L 148.513941 237.563053 
L 148.560327 237.411989 
L 148.792257 235.281477 
L 148.931414 235.71383 
L 148.9778 235.583603 
L 149.116957 236.719182 
L 149.163343 236.656673 
L 149.256115 235.531512 
L 149.348887 237.510962 
L 149.488044 246.204913 
L 149.859131 293.414787 
L 149.951903 290.091395 
L 150.09106 256.508469 
L 150.415761 101.1373 
L 150.601305 53.703436 
L 150.694076 53.588836 
L 150.740462 53.620091 
L 151.204321 61.19409 
L 151.297092 136.105841 
L 151.482636 263.660533 
L 151.575407 268.385167 
L 151.621793 268.379958 
L 151.668179 267.713196 
L 151.714565 267.827796 
L 151.760951 268.551858 
L 151.807337 268.54144 
L 151.853722 268.192431 
L 152.039266 271.922131 
L 152.410353 280.188938 
L 152.456738 279.959739 
L 152.503124 280.12122 
L 152.595896 280.355628 
L 153.291684 275.005905 
L 153.616385 267.494415 
L 153.755542 266.509899 
L 153.8947 262.014465 
L 153.941086 262.306173 
L 154.033857 263.269853 
L 154.358558 260.06627 
L 154.497716 259.368253 
L 154.590487 259.899579 
L 154.683259 259.732889 
L 154.776031 259.722471 
L 155.054346 260.816377 
L 155.147118 259.701634 
L 155.193503 260.128779 
L 155.239889 261.13934 
L 155.286275 260.363187 
L 155.332661 259.83707 
L 155.425433 259.889161 
L 155.471819 259.805816 
L 155.982063 254.836355 
L 156.028449 255.383309 
L 156.074835 255.648972 
L 156.260378 252.981924 
L 156.35315 253.56534 
L 156.492307 250.820156 
L 157.698339 209.090232 
L 157.883883 205.60015 
L 158.02304 205.756423 
L 158.069426 205.850186 
L 158.254969 204.011381 
L 158.347741 204.240581 
L 158.440513 204.079099 
L 158.57967 205.141751 
L 158.626056 204.64168 
L 158.765214 202.709112 
L 158.950757 200.161873 
L 159.136301 194.056833 
L 159.182686 194.775686 
L 159.275458 195.004886 
L 159.878474 187.899703 
L 160.017632 182.77397 
L 160.064017 182.930243 
L 160.295947 180.200686 
L 160.388718 180.862239 
L 160.713419 188.556047 
L 160.945349 199.948301 
L 161.362821 222.925544 
L 161.780294 239.66752 
L 161.873066 238.47985 
L 161.919451 237.323435 
L 161.965837 237.656816 
L 162.104995 238.490269 
L 162.151381 238.31316 
L 162.244152 238.240233 
L 162.522467 236.364965 
L 162.800782 239.32893 
L 162.93994 249.799177 
L 163.311027 295.159828 
L 163.357413 294.47223 
L 163.450184 281.746452 
L 163.635728 213.184568 
L 164.0532 53.594045 
L 164.238744 53.588836 
L 164.656216 60.683601 
L 164.980917 270.74488 
L 165.027303 271.067842 
L 165.073689 270.661534 
L 165.259232 267.244379 
L 165.305618 266.910998 
L 165.39839 268.994629 
L 165.769477 279.767003 
L 165.862248 280.350419 
L 165.908634 280.194147 
L 166.001406 278.93355 
L 166.140563 280.522319 
L 166.418879 277.214554 
L 166.51165 275.745594 
L 166.650808 273.84949 
L 166.743579 274.500625 
L 166.929123 271.375178 
L 167.439367 261.582111 
L 167.717682 259.15989 
L 167.764068 259.404717 
L 167.85684 259.201563 
L 167.995997 258.576473 
L 168.088769 259.55578 
L 168.135155 259.21719 
L 168.274312 257.045004 
L 168.645399 261.118503 
L 168.738171 260.998695 
L 168.784557 260.993486 
L 168.830943 261.191431 
L 168.877328 261.118503 
L 168.9701 259.941252 
L 169.202029 257.57633 
L 169.248415 257.722185 
L 169.294801 258.055566 
L 169.341187 257.946175 
L 169.433959 257.91492 
L 170.08336 243.313875 
L 170.500833 223.529797 
L 171.057463 206.892002 
L 171.150235 206.319003 
L 171.521322 199.625338 
L 171.938794 204.157236 
L 171.98518 204.240581 
L 172.124338 205.047988 
L 172.170724 204.75628 
L 172.309881 203.391501 
L 172.820125 193.166081 
L 172.866511 193.067109 
L 172.959283 194.035997 
L 173.052055 193.775543 
L 173.33037 192.37951 
L 173.655071 184.222094 
L 173.701457 184.63882 
L 173.747842 184.503384 
L 173.887 181.377938 
L 173.933386 181.799873 
L 174.072543 182.555189 
L 174.44363 192.692055 
L 174.907489 223.894432 
L 175.417733 236.885873 
L 175.55689 237.469289 
L 175.696048 237.771416 
L 175.835206 239.120567 
L 176.067135 237.234881 
L 176.299064 234.770987 
L 176.34545 235.265849 
L 176.530993 246.944602 
L 176.948466 292.367762 
L 176.994852 288.747453 
L 177.134009 252.273489 
L 177.412324 111.53462 
L 177.597868 53.640927 
L 177.783411 53.594045 
L 178.200884 60.261665 
L 178.24727 62.287997 
L 178.525585 273.84949 
L 178.571971 275.776849 
L 178.618356 274.458952 
L 178.896671 264.827367 
L 178.943057 265.176375 
L 179.36053 276.526956 
L 179.406916 276.412356 
L 179.453302 276.454029 
L 179.592459 277.266645 
L 179.778003 275.745594 
L 179.824388 275.922703 
L 179.870774 276.349847 
L 179.91716 275.943539 
L 180.102704 272.781629 
L 180.149089 272.818093 
L 180.334633 269.786409 
L 180.659334 264.514822 
L 180.752105 264.24395 
L 180.798491 264.634631 
L 180.891263 262.821872 
L 180.937649 262.827081 
L 180.984035 263.066699 
L 181.123192 260.993486 
L 181.401507 257.857621 
L 181.447893 257.92013 
L 181.679822 255.982353 
L 181.772594 256.61786 
L 181.865366 256.190716 
L 181.911752 256.315734 
L 182.050909 258.691073 
L 182.097295 258.430619 
L 182.143681 258.128493 
L 182.190067 258.321229 
L 182.37561 259.33179 
L 182.468382 258.638982 
L 182.514768 258.998409 
L 182.561153 259.024454 
L 183.442485 245.397506 
L 183.906343 226.493762 
L 184.370201 212.403206 
L 184.462973 212.674078 
L 184.602131 208.31408 
L 184.648517 208.517234 
L 184.694902 208.350543 
L 184.926832 204.75107 
L 185.065989 204.631262 
L 185.205147 206.016876 
L 185.297918 205.48555 
L 185.39069 204.777116 
L 185.669005 208.225526 
L 185.761777 209.277759 
L 185.808163 208.975633 
L 185.94732 207.673363 
L 186.318407 199.72431 
L 186.50395 197.223953 
L 186.643108 195.379939 
L 186.73588 194.707968 
L 186.782266 194.859031 
L 186.875037 195.213249 
L 186.921423 195.161158 
L 186.967809 195.015304 
L 187.385282 183.982477 
L 187.431667 183.39906 
L 187.478053 183.695977 
L 187.802754 188.08723 
L 187.941912 192.837909 
L 188.498542 224.285113 
L 188.869629 238.776768 
L 188.9624 239.886302 
L 189.008786 239.631057 
L 189.101558 239.094522 
L 189.147944 239.730029 
L 189.19433 239.469575 
L 189.240715 239.448739 
L 189.519031 236.104511 
L 189.658188 238.396505 
L 189.704574 237.760998 
L 189.75096 237.469289 
L 189.890117 234.30217 
L 189.936503 235.265849 
L 190.029275 238.719468 
L 190.261204 266.291118 
L 190.539519 291.101956 
L 190.632291 280.40251 
L 190.86422 192.296165 
L 191.188921 53.713854 
L 191.328079 53.599254 
L 191.374464 53.588836 
L 191.838323 62.027543 
L 192.116638 274.969442 
L 192.163024 278.053216 
L 192.20941 277.099955 
L 192.487725 266.765144 
L 192.534111 267.244379 
L 192.719654 273.161892 
L 192.905197 277.370827 
L 192.951583 276.714483 
L 192.997969 277.047864 
L 193.183512 278.996059 
L 193.229898 279.66803 
L 193.32267 279.475294 
L 193.415442 278.308461 
L 193.740143 273.177519 
L 193.786528 273.380673 
L 193.8793 273.79219 
L 194.018458 271.81795 
L 194.296773 264.749231 
L 195.038946 256.472006 
L 195.131718 255.622926 
L 195.22449 256.831432 
L 195.270876 256.680369 
L 195.317261 256.39387 
L 195.363647 256.534515 
L 195.595577 259.831861 
L 195.641962 259.883952 
L 195.688348 259.805816 
L 195.78112 259.560989 
L 195.920277 258.159747 
L 195.966663 258.36811 
L 196.523293 253.711195 
L 196.801609 249.83564 
L 197.219081 236.297247 
L 197.265467 236.469146 
L 197.358239 235.09395 
L 197.868483 213.054341 
L 197.961255 213.184568 
L 198.054026 211.642681 
L 198.23957 207.892145 
L 198.378727 206.631548 
L 198.471499 207.157665 
L 198.517885 207.12641 
L 198.842586 205.141751 
L 199.074515 208.235944 
L 199.120901 208.152598 
L 199.213673 206.975347 
L 199.260058 207.162874 
L 199.306444 207.329564 
L 199.35283 206.964929 
L 199.584759 210.361247 
L 199.723917 208.548488 
L 200.095004 200.682781 
L 200.14139 200.255636 
L 200.187775 200.651526 
L 200.234161 201.068252 
L 200.326933 201.016162 
L 200.373319 200.901562 
L 200.558862 198.390786 
L 200.976335 188.93631 
L 201.069106 189.139464 
L 201.161878 187.441304 
L 201.208264 187.889285 
L 201.486579 194.385005 
L 201.532965 193.947443 
L 201.718508 202.505958 
L 202.599839 239.068476 
L 202.646225 239.011176 
L 202.692611 239.084104 
L 202.785383 239.532084 
L 203.063698 237.662025 
L 203.388399 236.198274 
L 203.434785 236.239947 
L 203.620328 238.865322 
L 203.759486 244.939107 
L 204.176958 288.0286 
L 204.223344 286.288768 
L 204.362502 256.159461 
L 204.640817 119.853517 
L 204.82636 53.6253 
L 205.011904 53.578418 
L 205.058289 53.609673 
L 205.475762 60.256456 
L 205.800463 275.865403 
L 205.846849 274.964233 
L 206.125164 266.858907 
L 206.17155 267.082898 
L 206.264321 270.583398 
L 206.403479 273.932835 
L 206.449865 273.536945 
L 206.589022 277.516681 
L 206.635408 277.386454 
L 206.72818 274.870469 
L 206.774566 275.756013 
L 206.820952 275.125714 
L 206.867337 275.901867 
L 206.960109 277.334363 
L 207.006495 277.188509 
L 207.423968 272.651402 
L 207.516739 274.000553 
L 207.563125 273.443182 
L 207.84144 267.400651 
L 208.026984 265.275348 
L 208.583614 257.357549 
L 208.722771 255.763571 
L 208.769157 255.94068 
L 208.908315 257.659676 
L 209.047472 255.930262 
L 209.140244 256.888732 
L 209.18663 256.638696 
L 209.325787 255.273918 
L 209.418559 253.664313 
L 209.464945 254.627992 
L 209.604102 256.294897 
L 209.696874 255.732317 
L 209.882417 254.107084 
L 209.928803 254.278984 
L 210.021575 252.971505 
L 210.531819 238.844486 
L 211.134835 226.019736 
L 211.505922 214.340983 
L 211.552308 214.632691 
L 211.691466 213.408558 
L 212.108938 208.657879 
L 212.248096 210.569611 
L 212.294482 210.340411 
L 212.433639 210.767556 
L 212.526411 211.840626 
L 212.572797 211.47599 
L 212.619182 211.132191 
L 212.665568 211.319718 
L 212.990269 215.48698 
L 213.129427 214.986909 
L 213.222198 213.929466 
L 213.500514 210.147675 
L 213.8716 205.266769 
L 213.917986 205.574105 
L 213.964372 205.740795 
L 214.057144 204.485408 
L 214.10353 204.714607 
L 214.242687 206.319003 
L 214.706546 191.171004 
L 214.845703 195.109067 
L 214.938475 196.822854 
L 214.984861 196.3905 
L 215.031247 196.578027 
L 215.263176 203.506101 
L 216.051735 239.313303 
L 216.190893 241.829288 
L 216.237279 241.771988 
L 216.33005 240.782263 
L 216.515594 243.636838 
L 216.56198 243.225321 
L 216.654751 242.657531 
L 216.979452 237.813088 
L 217.072224 237.203626 
L 217.304153 244.084818 
L 217.536082 266.150473 
L 217.768012 285.163607 
L 217.814397 284.371828 
L 217.907169 274.099526 
L 218.092712 211.663517 
L 218.463799 53.588836 
L 218.510185 53.599254 
L 218.834886 53.594045 
L 219.066815 57.80298 
L 219.159587 135.069234 
L 219.391516 281.350562 
L 219.530674 286.877394 
L 219.901761 271.218906 
L 220.365619 277.766717 
L 220.412005 277.652117 
L 220.597548 275.209059 
L 220.643934 275.136132 
L 220.875863 272.922274 
L 221.154178 268.504976 
L 222.221053 254.617574 
L 222.267439 254.419629 
L 222.406596 252.03908 
L 222.452982 252.200562 
L 222.545754 252.106799 
L 222.731297 250.617002 
L 222.777683 250.648257 
L 222.870455 250.689929 
L 222.963226 251.19521 
L 223.241542 248.627134 
L 223.334313 247.481137 
L 223.566242 245.340206 
L 223.612628 245.324579 
L 223.844558 241.719897 
L 224.215644 233.708335 
L 224.865046 217.528939 
L 225.05059 214.01802 
L 225.282519 209.298596 
L 225.514448 206.204403 
L 225.60722 204.818789 
L 225.653606 205.287606 
L 225.792763 206.95451 
L 225.839149 206.371094 
L 225.885535 206.610711 
L 226.024692 207.845263 
L 226.16385 209.736158 
L 226.256622 209.121487 
L 226.442165 207.86089 
L 226.534937 208.392216 
L 226.627708 208.866242 
L 226.674094 208.746433 
L 226.813252 207.944235 
L 226.998795 203.51131 
L 227.230724 199.609711 
L 227.416268 198.984621 
L 228.158441 186.774542 
L 228.204827 186.941233 
L 228.297599 185.987972 
L 228.343985 186.581806 
L 228.761457 197.734442 
L 228.993387 210.939455 
L 229.271702 225.717609 
L 229.410859 229.853617 
L 229.596403 237.156745 
L 229.689174 238.42776 
L 229.781946 239.313303 
L 229.828332 238.70905 
L 229.874718 238.953877 
L 229.967489 239.323721 
L 230.245804 236.7296 
L 230.338576 237.271344 
L 230.431348 237.417199 
L 230.570505 236.396219 
L 230.663277 234.411561 
L 230.709663 235.083532 
L 230.84882 244.0744 
L 231.266293 294.503484 
L 231.359065 289.325661 
L 231.544608 237.365108 
L 232.054853 53.599254 
L 232.240396 53.599254 
L 232.611483 59.83973 
L 232.936184 274.875678 
L 232.982569 274.557925 
L 233.214499 269.333219 
L 233.30727 268.65083 
L 233.446428 271.974222 
L 233.724743 277.714626 
L 233.956672 279.944111 
L 234.09583 279.16275 
L 234.513302 273.193146 
L 234.559688 273.589036 
L 234.606074 273.193146 
L 235.394634 260.12357 
L 235.951264 256.711623 
L 235.99765 256.768923 
L 236.090421 257.227322 
L 236.275965 255.951098 
L 236.32235 256.024025 
L 236.415122 255.800035 
L 236.600666 256.951241 
L 236.647051 256.815805 
L 236.693437 256.867896 
L 236.786209 257.076259 
L 237.11091 254.607156 
L 237.157296 254.622783 
L 237.250067 255.336427 
L 237.296453 255.2635 
L 237.528382 252.231816 
L 238.363328 225.519664 
L 238.688029 215.82557 
L 238.7808 215.341126 
L 239.01273 211.601008 
L 239.383816 207.319146 
L 239.522974 206.350257 
L 239.847675 207.4077 
L 240.033218 209.058978 
L 240.079604 209.15795 
L 240.172376 208.220316 
L 240.589848 198.65124 
L 240.636234 198.640822 
L 240.729006 199.140894 
L 241.192864 191.764839 
L 241.285636 190.811578 
L 241.610337 185.211819 
L 241.79588 183.607423 
L 242.259739 195.025722 
L 242.909141 230.160953 
L 243.233842 238.208978 
L 243.280228 237.906852 
L 243.419385 238.646541 
L 243.465771 238.511105 
L 243.558543 237.906852 
L 243.744086 236.411847 
L 243.883244 236.406637 
L 244.022401 235.82843 
L 244.068787 236.156602 
L 244.161559 236.104511 
L 244.207945 236.661882 
L 244.347102 244.256718 
L 244.625417 280.475437 
L 244.764575 294.394094 
L 244.810961 294.170103 
L 244.903732 281.850634 
L 245.089276 215.309872 
L 245.506748 53.588836 
L 245.738677 53.583627 
L 246.109764 59.620949 
L 246.434465 270.213554 
L 246.480851 270.375035 
L 246.620009 267.879887 
L 246.759166 264.858621 
L 246.805552 265.129493 
L 247.176639 274.125571 
L 247.362182 276.495702 
L 247.408568 276.651974 
L 247.454954 276.599883 
L 247.50134 276.427984 
L 247.640497 275.49035 
L 247.686883 275.526813 
L 248.011584 271.161606 
L 248.892915 259.435971 
L 248.939301 259.316162 
L 248.985687 259.618289 
L 249.495931 254.742592 
L 249.542317 254.997837 
L 249.588703 255.164527 
L 249.681474 254.440465 
L 250.098947 258.326438 
L 250.330876 255.992771 
L 250.377262 256.044861 
L 250.470034 257.045004 
L 250.51642 256.534515 
L 251.212207 249.590814 
L 251.351365 244.782835 
L 252.093539 219.326071 
L 252.557397 208.126553 
L 252.603783 208.267198 
L 252.650169 208.642252 
L 253.021256 205.37616 
L 253.067641 205.251142 
L 253.206799 205.568896 
L 253.253185 205.417832 
L 253.299571 205.527223 
L 253.392342 207.01181 
L 253.438728 206.824284 
L 253.577886 204.985479 
L 253.624272 205.162588 
L 253.670657 204.943806 
L 254.412831 193.942234 
L 254.505603 194.692341 
L 254.551988 194.411051 
L 254.64476 193.931816 
L 255.294162 183.649096 
L 255.340548 183.393851 
L 255.386934 183.607423 
L 255.665249 186.972487 
L 255.804406 194.12976 
L 256.314651 224.686212 
L 256.778509 237.906852 
L 256.824895 237.854761 
L 257.056824 238.927831 
L 257.10321 238.797604 
L 257.242368 239.151822 
L 257.427911 237.115072 
L 257.567069 235.65653 
L 257.613454 235.71383 
L 257.65984 235.687785 
L 257.798998 238.261069 
L 257.938155 247.783264 
L 258.355628 293.748168 
L 258.402014 290.956102 
L 258.541171 257.774275 
L 259.144187 53.588836 
L 259.236959 53.609673 
L 259.654432 60.506492 
L 259.979133 273.266073 
L 260.025518 272.818093 
L 260.303834 266.812026 
L 260.442991 270.026027 
L 260.721306 276.141484 
L 260.767692 276.141484 
L 260.860464 277.537517 
L 260.999621 280.392092 
L 261.046007 280.277492 
L 261.46348 275.235105 
L 261.649023 273.307746 
L 261.741795 271.786695 
L 261.973724 268.067413 
L 262.205653 265.410784 
L 262.437583 261.576902 
L 262.715898 259.019245 
L 262.762283 258.946318 
L 262.947827 257.743021 
L 263.040599 258.659819 
L 263.226142 257.076259 
L 263.318914 257.357549 
L 263.597229 259.399508 
L 263.643615 259.165099 
L 263.69 258.753582 
L 263.736386 259.040081 
L 263.875544 258.9932 
L 263.92193 259.191145 
L 263.968315 259.014036 
L 264.153859 258.118075 
L 264.200245 258.097238 
L 264.293016 256.50326 
L 264.896032 244.35569 
L 265.452663 225.405065 
L 266.194836 208.209898 
L 266.333994 207.058692 
L 266.38038 207.517091 
L 266.426765 207.501464 
L 266.612309 206.516948 
L 266.658695 206.584666 
L 266.751466 207.782754 
L 266.844238 207.631691 
L 267.076167 209.496541 
L 267.122553 209.058978 
L 267.308096 207.115992 
L 267.771955 197.07289 
L 267.818341 196.921826 
L 267.957498 198.151169 
L 268.003884 197.604215 
L 268.143042 196.150883 
L 268.792444 183.024006 
L 268.838829 183.492823 
L 269.070759 187.264196 
L 269.441845 198.974203 
L 270.230405 234.552206 
L 270.555106 237.906852 
L 270.601492 237.651607 
L 270.694263 237.85997 
L 271.018964 234.989768 
L 271.06535 234.609506 
L 271.111736 234.838705 
L 271.390051 240.037365 
L 271.62198 265.43162 
L 271.85391 292.977224 
L 271.900295 292.643843 
L 271.993067 282.460096 
L 272.17861 218.560336 
L 272.549697 53.578418 
L 272.596083 53.609673 
L 272.828012 53.583627 
L 273.199099 59.996002 
L 273.5238 272.182585 
L 273.570186 272.94311 
L 273.802115 265.442038 
L 273.848501 266.140055 
L 274.219588 276.474865 
L 274.265974 276.183157 
L 274.312359 276.474865 
L 274.451517 278.81895 
L 274.497903 278.787696 
L 274.590675 277.881316 
L 274.729832 275.125714 
L 274.776218 275.641413 
L 274.915375 276.980146 
L 275.147305 273.213983 
L 275.193691 273.307746 
L 275.240076 273.307746 
L 275.750321 263.415707 
L 275.796707 263.462589 
L 275.843092 264.009542 
L 275.889478 263.743879 
L 276.399723 257.664885 
L 276.446108 257.680512 
L 276.53888 255.862544 
L 276.585266 256.22197 
L 277.09551 259.680798 
L 277.188282 259.060918 
L 277.234668 258.737955 
L 277.281054 259.321372 
L 277.32744 259.232817 
L 277.373825 258.899436 
L 277.420211 259.415135 
L 277.466597 258.696282 
L 277.698526 256.013607 
L 277.837684 256.477215 
L 278.069613 251.950526 
L 278.255156 248.502117 
L 278.394314 245.496479 
L 279.043716 221.269057 
L 279.785889 210.63212 
L 279.878661 211.382227 
L 280.017819 212.88765 
L 280.296134 209.829922 
L 280.34252 210.074748 
L 280.481677 210.569611 
L 280.528063 210.465429 
L 280.667221 213.491903 
L 280.713606 213.361676 
L 281.131079 209.225668 
L 281.409394 204.084309 
L 281.687709 203.032075 
L 281.734095 203.042493 
L 281.873253 202.047559 
L 282.429883 189.920825 
L 282.708198 193.942234 
L 282.800969 195.43203 
L 283.682301 238.552778 
L 283.728686 238.99034 
L 283.821458 242.204341 
L 283.867844 241.579252 
L 283.91423 240.948953 
L 283.960616 241.751151 
L 284.053387 241.699061 
L 284.424474 244.829717 
L 284.563632 242.845058 
L 284.795561 237.979779 
L 284.841947 238.386087 
L 285.073876 248.106227 
L 285.444963 286.403368 
L 285.491349 285.382389 
L 285.58412 276.84471 
L 285.723278 235.479422 
L 286.233522 53.578418 
L 286.558223 53.609673 
L 286.743767 56.719492 
L 286.790152 66.173969 
L 287.068467 276.193575 
L 287.207625 282.913286 
L 287.300397 282.652832 
L 287.532326 272.760793 
L 287.625098 273.698427 
L 287.671483 273.828654 
L 287.764255 272.89102 
L 287.810641 273.109801 
L 287.857027 273.130637 
L 288.088956 279.266931 
L 288.135342 279.308604 
L 288.274499 279.865975 
L 288.5992 271.411642 
L 288.645586 272.120076 
L 288.784744 273.036874 
L 288.877515 271.08347 
L 289.063059 266.994343 
L 289.109445 267.077689 
L 289.573303 260.85805 
L 289.619689 260.826795 
L 289.712461 259.503689 
L 289.758847 259.545362 
L 289.898004 260.035015 
L 290.269091 255.523954 
L 290.315477 255.680226 
L 290.408248 256.539724 
L 290.593792 254.19043 
L 290.640178 254.893655 
L 290.732949 256.248016 
L 290.779335 255.909425 
L 290.872107 253.914349 
L 290.918493 254.07583 
L 290.964879 254.482138 
L 291.011264 253.992485 
L 291.196808 250.679511 
L 293.052242 210.715465 
L 293.145013 211.319718 
L 293.191399 211.726026 
L 293.423329 208.147389 
L 293.469714 208.506816 
L 293.562486 207.912981 
L 293.608872 207.97549 
L 293.794415 208.798524 
L 293.840801 208.76727 
L 293.887187 208.861033 
L 294.026345 208.975633 
L 294.07273 209.246505 
L 294.119116 210.194557 
L 294.211888 209.986194 
L 294.30466 209.256923 
L 294.582975 203.756137 
L 294.675746 201.693342 
L 294.722132 202.047559 
L 294.814904 200.755708 
L 295.371534 193.572389 
L 295.464306 190.983477 
L 295.557078 191.014732 
L 295.742621 186.639106 
L 295.789007 185.805654 
L 295.835393 186.368234 
L 296.299251 190.181279 
L 296.809495 220.435604 
L 297.08781 230.681861 
L 297.31974 238.349624 
L 297.366126 237.172372 
L 297.551669 236.344129 
L 297.598055 236.646255 
L 297.829984 234.703269 
L 297.922756 235.531512 
L 297.969142 234.974141 
L 298.015527 234.896005 
L 298.154685 236.62021 
L 298.201071 236.073256 
L 298.293842 234.927259 
L 298.340228 235.177295 
L 298.479386 242.470004 
L 298.943244 285.54387 
L 298.98963 283.257085 
L 299.128788 253.429904 
L 299.453489 98.220217 
L 299.592646 53.568 
L 299.639032 53.588836 
L 300.010119 53.594045 
L 300.242048 57.922789 
L 300.613135 276.193575 
L 300.659521 275.907076 
L 300.937836 266.327581 
L 300.984222 266.692217 
L 301.169765 268.692503 
L 301.216151 268.760221 
L 301.587238 274.693361 
L 301.772781 275.776849 
L 301.819167 275.584113 
L 302.00471 271.375178 
L 302.051096 271.505405 
L 302.097482 271.969013 
L 302.143868 271.791904 
L 302.23664 270.786552 
L 303.396286 253.742449 
L 303.442672 253.831003 
L 303.489057 254.159175 
L 303.535443 253.950812 
L 303.628215 253.039223 
L 303.674601 253.273632 
L 303.952916 253.982067 
L 304.045688 253.669522 
L 304.138459 254.065412 
L 304.324003 253.28405 
L 304.509546 254.398793 
L 304.555932 254.252939 
L 304.695089 251.940108 
L 304.741475 252.304743 
L 304.787861 252.981924 
L 304.880633 252.950669 
L 304.927019 252.981924 
L 304.973405 252.856906 
L 305.25172 247.12692 
L 305.669192 235.239804 
L 305.715578 234.750151 
L 306.36498 213.741939 
L 306.411366 213.392931 
L 306.457752 213.491903 
L 306.504137 213.538785 
L 306.967996 206.881583 
L 307.107153 204.949015 
L 307.153539 205.016733 
L 307.339083 206.61592 
L 307.385469 206.371094 
L 307.663784 205.282396 
L 308.127642 198.140751 
L 308.174028 198.307441 
L 308.220414 198.08866 
L 308.313186 197.599006 
L 308.359571 197.640679 
L 308.405957 197.734442 
L 308.777044 189.972916 
L 309.101745 183.315715 
L 309.148131 183.419896 
L 309.194517 183.263624 
L 309.38006 181.039347 
L 309.890304 194.567323 
L 310.446934 226.077036 
L 310.72525 234.24487 
L 310.818021 233.864607 
L 311.049951 234.906423 
L 311.142722 234.104225 
L 311.189108 234.599087 
L 311.328266 236.135765 
L 311.374651 235.37524 
L 311.467423 233.843771 
L 311.513809 233.984416 
L 311.560195 233.812517 
L 311.652967 232.32272 
L 311.699352 232.953019 
L 311.792124 233.369745 
L 311.931282 239.120567 
L 312.39514 289.580906 
L 312.441526 287.132639 
L 312.580683 252.372461 
L 312.905384 93.271592 
L 313.090928 53.588836 
L 313.276471 53.583627 
L 313.693944 60.34501 
L 314.018645 275.698713 
L 314.111416 272.583684 
L 314.343346 262.462446 
L 314.389732 262.566627 
L 314.436117 263.05628 
L 314.807204 273.156683 
L 314.946362 273.495273 
L 314.992748 273.417137 
L 315.085519 273.891163 
L 315.131905 273.703636 
L 315.271063 272.66182 
L 315.502992 271.70335 
L 315.549378 271.828368 
L 316.616252 257.18044 
L 316.709024 256.586606 
L 317.033725 253.528877 
L 317.172882 254.534229 
L 317.265654 253.346559 
L 317.31204 253.690358 
L 317.358426 253.393441 
L 317.404812 253.523668 
L 317.451197 253.732031 
L 317.497583 253.450741 
L 317.543969 253.388232 
L 317.636741 254.232102 
L 317.683127 254.044576 
L 317.775898 252.315162 
L 317.822284 250.960801 
L 317.86867 251.205628 
L 317.961442 252.66417 
L 318.007828 252.544361 
L 318.750001 245.652751 
L 319.677718 216.643396 
L 319.77049 213.809657 
L 319.816876 214.361819 
L 319.863262 214.049275 
L 320.187962 207.881726 
L 320.373506 206.412766 
L 320.419892 206.402348 
L 320.466278 206.235658 
L 320.698207 207.730663 
L 320.837364 206.141894 
L 320.88375 206.266912 
L 321.069294 207.537927 
L 321.115679 208.017162 
L 321.162065 207.954653 
L 321.393994 205.693914 
L 321.765081 199.192984 
L 321.99701 197.890715 
L 322.043396 197.984478 
L 322.275326 194.713177 
L 322.646412 185.316001 
L 322.878342 183.00317 
L 322.924727 183.232369 
L 323.388586 194.447514 
L 324.269917 236.812946 
L 324.316303 236.9588 
L 324.362689 236.510819 
L 324.409075 236.7869 
L 324.501846 237.969361 
L 324.548232 237.740161 
L 324.733775 236.271201 
L 324.826547 236.531655 
L 324.919319 237.24009 
L 324.965705 237.12549 
L 325.104862 236.323292 
L 325.151248 236.417056 
L 325.383177 239.32893 
L 325.522335 251.492127 
L 325.893422 294.784774 
L 325.939808 292.904297 
L 326.078965 260.191288 
L 326.403666 97.470109 
L 326.589209 54.047235 
L 326.635595 53.703436 
L 326.681981 53.96389 
L 327.099454 60.40231 
L 327.192225 61.923361 
L 327.563312 278.03238 
L 327.609698 276.422775 
L 327.888013 266.244236 
L 328.351872 275.99563 
L 328.398257 275.99563 
L 328.537415 277.683371 
L 328.583801 278.037589 
L 328.630187 277.573981 
L 329.233203 271.776277 
L 329.325974 272.161749 
L 329.37236 272.067985 
L 329.418746 271.98464 
L 329.465132 272.120076 
L 330.114534 263.040653 
L 330.16092 262.702063 
L 330.300077 259.524526 
L 330.392849 260.805959 
L 330.578392 258.503546 
L 330.624778 258.576473 
L 330.71755 259.680798 
L 330.763936 259.071336 
L 330.903093 259.909997 
L 330.949479 260.316305 
L 330.995865 259.790189 
L 331.042251 259.633916 
L 331.088637 259.722471 
L 331.181408 261.13934 
L 331.227794 260.706986 
L 331.459723 258.159747 
L 331.506109 258.274347 
L 331.598881 258.513964 
L 331.738038 257.440894 
L 331.83081 257.565912 
L 331.923582 256.242806 
L 332.201897 251.481709 
L 332.480212 244.001473 
L 332.897685 228.587811 
L 333.315157 218.591591 
L 333.547086 213.976348 
L 333.825402 207.86089 
L 333.918173 209.631977 
L 333.964559 209.574677 
L 334.196488 207.18371 
L 334.242874 208.058835 
L 334.335646 209.168369 
L 334.382032 208.725597 
L 334.428418 208.360962 
L 334.567575 209.777831 
L 334.613961 208.954796 
L 334.660347 209.111069 
L 334.706733 209.381941 
L 335.356135 198.906485 
L 335.495292 200.141036 
L 335.541678 200.068109 
L 335.727221 196.796808 
L 336.376623 184.847183 
L 336.469395 185.243073 
L 336.840482 193.890143 
L 337.814584 240.12071 
L 337.86097 240.730172 
L 337.907356 240.198846 
L 338.0929 237.537007 
L 338.232057 238.563196 
L 338.371215 236.885873 
L 338.463986 238.073542 
L 338.510372 237.573471 
L 338.603144 236.385801 
L 338.64953 236.687928 
L 338.742301 238.302742 
L 338.788687 237.625562 
L 338.835073 236.427474 
L 338.881459 237.729743 
L 338.974231 242.397077 
L 339.20616 269.901009 
L 339.438089 295.488 
L 339.530861 286.934694 
L 339.716404 224.540358 
L 340.133877 53.578418 
L 340.365806 53.578418 
L 340.736893 59.881403 
L 341.10798 273.021247 
L 341.154365 271.651259 
L 341.386295 266.588035 
L 341.432681 266.994343 
L 341.850153 282.371542 
L 342.035697 283.632138 
L 342.22124 282.168388 
L 342.360397 281.376608 
L 342.545941 277.69379 
L 342.592327 277.719835 
L 342.685098 278.662678 
L 342.731484 278.339715 
L 343.195343 269.749946 
L 343.427272 267.030807 
L 343.473658 267.176661 
L 343.520044 266.994343 
L 343.566429 266.2807 
L 343.612815 266.983925 
L 343.751973 265.936901 
L 343.983902 261.285194 
L 344.030288 261.389375 
L 344.262217 264.598168 
L 344.308603 264.228323 
L 344.401375 263.884524 
L 344.447761 263.577188 
L 344.586918 264.556495 
L 344.67969 264.259577 
L 344.772462 264.681513 
L 344.818847 264.47315 
L 344.865233 264.35855 
L 344.911619 262.926053 
L 344.958005 262.957308 
L 345.004391 264.202278 
L 345.050777 264.191859 
L 345.23632 260.951813 
L 345.282706 261.649829 
L 345.329092 261.58732 
L 345.700178 256.284479 
L 345.978494 244.574472 
L 346.813439 216.148533 
L 346.859825 216.414196 
L 346.90621 216.424614 
L 347.323683 206.058549 
L 347.370069 206.652384 
L 347.462841 208.194271 
L 347.509227 207.558764 
L 347.648384 206.871165 
L 347.833927 208.548488 
L 347.880313 207.881726 
L 347.926699 208.064044 
L 348.065857 209.965358 
L 348.112243 209.496541 
L 348.2514 212.580315 
L 348.297786 211.069682 
L 348.622487 203.297738 
L 348.668873 203.370665 
L 348.80803 205.464714 
L 348.854416 205.396996 
L 348.947188 201.823569 
L 348.993574 202.318431 
L 349.039959 203.141465 
L 349.086345 202.750785 
L 349.271889 199.640965 
L 349.36466 200.990116 
L 349.411046 200.359818 
L 349.503818 198.130332 
L 349.874905 186.816215 
L 349.967676 186.482834 
L 350.060448 184.440875 
L 350.106834 184.690911 
L 350.338763 189.196764 
L 350.385149 189.827062 
L 351.220094 234.406351 
L 351.312866 236.062838 
L 351.359252 235.77113 
L 351.452024 236.677509 
L 351.591181 238.667377 
L 351.637567 238.604868 
L 351.683953 238.490269 
L 351.869496 239.469575 
L 351.915882 239.469575 
L 352.008654 240.860399 
L 352.240583 236.948382 
L 352.286969 236.870245 
L 352.518898 239.980065 
L 352.704441 255.612508 
L 353.029142 280.51711 
L 353.075528 280.465019 
L 353.1683 268.744594 
L 353.353843 203.933245 
L 353.771316 53.588836 
L 354.142403 53.599254 
L 354.327946 57.047664 
L 354.467104 193.296308 
L 354.652647 280.246238 
L 354.791805 285.028171 
L 354.884576 280.975509 
L 355.116505 270.161463 
L 355.162891 269.890591 
L 355.209277 270.23439 
L 355.533978 275.927912 
L 355.580364 275.453886 
L 355.62675 275.834149 
L 355.673136 276.308175 
L 355.719521 275.974794 
L 355.951451 272.49513 
L 355.997837 273.391091 
L 356.044222 273.213983 
L 356.368923 268.411213 
L 356.508081 266.61929 
L 356.554467 267.098525 
L 356.600853 267.619433 
L 356.925554 261.08204 
L 357.250254 257.57633 
L 357.389412 258.02952 
L 357.435798 258.48271 
L 357.482184 258.461874 
L 357.760499 255.409354 
L 357.806885 255.628135 
L 357.85327 256.096952 
L 357.899656 255.773989 
L 357.992428 256.206343 
L 358.038814 256.117789 
L 358.224357 258.816091 
L 358.270743 258.54001 
L 358.502672 256.430333 
L 358.549058 256.78976 
L 358.595444 256.638696 
L 358.64183 255.690644 
L 358.688216 255.992771 
L 358.734602 256.216761 
L 358.827373 253.789331 
L 359.012917 249.846059 
L 359.152074 246.230959 
L 359.430389 240.948953 
L 359.662319 233.338491 
L 360.079791 220.591877 
L 360.31172 216.737159 
L 360.358106 217.01324 
L 360.450878 215.492189 
L 360.54365 213.976348 
L 360.590035 214.340983 
L 360.636421 214.518092 
L 360.821965 210.757137 
L 360.868351 210.923828 
L 360.914736 211.736444 
L 360.961122 211.278045 
L 361.053894 210.277902 
L 361.10028 210.548774 
L 361.146666 210.559192 
L 361.65691 213.320004 
L 361.703296 213.28354 
L 362.167154 206.444021 
L 362.445469 199.859746 
L 362.491855 199.932673 
L 362.955714 195.650811 
L 363.3268 188.253921 
L 363.465958 184.013731 
L 363.512344 184.01894 
L 363.651501 185.336837 
L 364.11536 202.047559 
L 364.579218 227.228242 
L 364.67199 228.98891 
L 364.996691 238.115215 
L 365.22862 237.292181 
L 365.367778 236.323292 
L 365.506935 237.29739 
L 365.553321 237.021309 
L 365.599707 236.896291 
L 365.831636 235.156459 
L 365.924408 234.828287 
L 365.970794 235.010605 
L 366.109951 240.641618 
L 366.388266 275.693504 
L 366.527424 286.73154 
L 366.57381 285.366761 
L 366.712967 260.144406 
L 366.991282 136.621539 
L 367.223212 53.578418 
L 367.594298 53.588836 
L 367.826228 57.360209 
L 367.872613 62.756814 
L 368.150929 273.109801 
L 368.197314 275.901867 
L 368.2437 274.943396 
L 368.47563 266.369254 
L 368.568401 266.015037 
L 368.661173 268.411213 
L 368.893102 273.760936 
L 368.985874 273.479645 
L 369.171417 274.745451 
L 369.217803 274.344352 
L 369.542504 272.255512 
L 369.728047 270.916779 
L 370.331063 261.623784 
L 370.516607 258.118075 
L 370.562993 258.441037 
L 370.609378 258.607728 
L 370.70215 257.321086 
L 370.794922 254.617574 
L 370.841308 255.336427 
L 370.934079 256.466797 
L 370.980465 256.284479 
L 371.397938 252.804815 
L 371.444324 252.862115 
L 371.537095 253.56534 
L 371.583481 253.190287 
L 371.722639 252.315162 
L 371.769025 251.512964 
L 371.815411 251.690072 
L 371.954568 252.877742 
L 372.093726 250.617002 
L 372.186497 252.122426 
L 372.279269 252.054708 
L 372.325655 252.179726 
L 372.372041 252.085962 
L 372.743127 248.444817 
L 373.485301 225.196702 
L 373.71723 218.310301 
L 374.27386 206.27733 
L 374.366632 204.995897 
L 374.413018 205.370951 
L 374.459404 205.673077 
L 374.50579 205.360533 
L 374.598561 205.027152 
L 374.691333 206.100222 
L 374.737719 205.82935 
L 374.876876 203.521728 
L 374.923262 203.589446 
L 375.294349 207.642109 
L 375.61905 203.985336 
L 375.850979 199.099221 
L 376.036523 197.41148 
L 376.082908 197.906342 
L 376.129294 197.505243 
L 376.639539 185.972344 
L 376.917854 182.846898 
L 377.010625 183.221951 
L 377.28894 187.816358 
L 377.335326 188.910264 
L 377.381712 188.248711 
L 377.428098 188.404984 
L 377.567256 194.108924 
L 378.123886 225.936391 
L 378.448587 237.656816 
L 378.494973 237.594307 
L 378.773288 236.073256 
L 378.958831 237.40678 
L 379.005217 237.797461 
L 379.051603 237.781834 
L 379.144374 236.8442 
L 379.19076 237.333853 
L 379.237146 238.495478 
L 379.283532 237.948525 
L 379.376304 235.307522 
L 379.422689 235.48984 
L 379.469075 235.791966 
L 379.561847 238.865322 
L 379.701005 251.908854 
L 380.025705 293.576268 
L 380.072091 293.222051 
L 380.164863 282.809104 
L 380.350406 218.101937 
L 380.767879 53.578418 
L 380.953422 53.599254 
L 381.370895 60.381474 
L 381.695596 275.443468 
L 381.741982 275.328868 
L 381.973911 266.942253 
L 382.066683 267.614224 
L 382.113069 267.817378 
L 382.252226 271.724186 
L 382.484155 277.000982 
L 382.576927 277.704208 
L 382.623313 277.282272 
L 382.669699 277.891735 
L 382.716085 277.620862 
L 382.76247 277.542726 
L 382.808856 278.042798 
L 382.855242 277.886525 
L 383.597416 268.48414 
L 383.875731 263.316734 
L 384.200432 257.659676 
L 384.293203 257.852412 
L 384.478747 256.456379 
L 384.66429 254.185221 
L 384.757062 253.273632 
L 384.849834 253.971648 
L 384.896219 253.617431 
L 385.128149 252.143262 
L 385.406464 253.732031 
L 385.45285 253.732031 
L 385.499235 253.617431 
L 385.545621 253.06006 
L 385.638393 253.16945 
L 385.684779 253.096523 
L 385.731165 253.205914 
L 385.777551 253.258005 
L 386.00948 251.356691 
L 386.102251 252.466225 
L 386.148637 252.315162 
L 386.241409 250.955592 
L 386.705268 237.474498 
L 387.215512 220.435604 
L 387.864914 206.95972 
L 387.9113 206.850329 
L 388.236 204.558335 
L 388.282386 204.626053 
L 388.375158 203.615491 
L 388.421544 202.750785 
L 388.514316 203.068538 
L 388.699859 205.454296 
L 388.839016 209.579886 
L 388.885402 209.121487 
L 389.488418 195.739366 
L 389.534804 195.671648 
L 389.673962 196.354037 
L 390.13782 188.363311 
L 390.369749 182.357244 
L 390.416135 182.232226 
L 390.462521 182.586444 
L 390.508907 182.195763 
L 390.601679 182.508307 
L 391.065537 188.48312 
L 391.946868 234.072971 
L 392.178797 237.604725 
L 392.225183 237.542216 
L 392.317955 238.511105 
L 392.364341 238.021452 
L 392.410727 237.729743 
L 392.457113 237.979779 
L 392.503498 238.037079 
L 392.642656 236.578537 
L 392.689042 236.771273 
L 392.781814 237.479708 
L 392.828199 237.453662 
L 393.013743 236.604582 
L 393.106514 238.500687 
L 393.199286 242.428332 
L 393.477601 276.678019 
L 393.663145 294.644129 
L 393.755916 286.434622 
L 393.94146 225.061266 
L 394.358932 54.260807 
L 394.405318 53.786781 
L 394.451704 53.979517 
L 394.822791 59.620949 
L 394.961948 61.886898 
L 395.286649 278.943968 
L 395.379421 275.266359 
L 395.564964 269.197783 
L 395.657736 269.015466 
L 395.750508 270.921988 
L 395.982437 278.308461 
L 396.028823 278.266788 
L 396.075209 278.318879 
L 396.214366 280.152474 
L 396.260752 279.985784 
L 396.307138 279.673239 
L 396.353524 280.100384 
L 396.39991 280.001411 
L 396.492681 278.912714 
L 396.539067 279.141913 
L 396.585453 279.126286 
L 396.678225 278.65226 
L 396.724611 279.016895 
L 396.770996 278.792905 
L 397.327627 269.598882 
L 397.420398 268.093459 
L 397.652327 264.69714 
L 397.698713 265.129493 
L 397.745099 265.087821 
L 398.0698 262.900008 
L 398.440887 258.451455 
L 398.487273 258.555637 
" clip-path="url(#p7aee1a1937)" style="fill: none; stroke: #1f77b4; stroke-width: 1.5; stroke-linecap: square"/>
   </g>
   <g id="patch_3">
    <path d="M 57.6 307.584 
L 57.6 41.472 
" style="fill: none; stroke: #000000; stroke-width: 0.8; stroke-linejoin: miter; stroke-linecap: square"/>
   </g>
   <g id="patch_4">
    <path d="M 414.72 307.584 
L 414.72 41.472 
" style="fill: none; stroke: #000000; stroke-width: 0.8; stroke-linejoin: miter; stroke-linecap: square"/>
   </g>
   <g id="patch_5">
    <path d="M 57.6 307.584 
L 414.72 307.584 
" style="fill: none; stroke: #000000; stroke-width: 0.8; stroke-linejoin: miter; stroke-linecap: square"/>
   </g>
   <g id="patch_6">
    <path d="M 57.6 41.472 
L 414.72 41.472 
" style="fill: none; stroke: #000000; stroke-width: 0.8; stroke-linejoin: miter; stroke-linecap: square"/>
   </g>
  </g>
 </g>
 <defs>
  <clipPath id="p7aee1a1937">
   <rect x="57.6" y="41.472" width="357.12" height="266.112"/>
  </clipPath>
 </defs>
</svg>
