<?xml version="1.0" encoding="utf-8" standalone="no"?>
<!DOCTYPE svg PUBLIC "-//W3C//DTD SVG 1.1//EN"
  "http://www.w3.org/Graphics/SVG/1.1/DTD/svg11.dtd">
<svg xmlns:xlink="http://www.w3.org/1999/xlink" width="1105.92pt" height="543.168pt" viewBox="0 0 1105.92 543.168" xmlns="http://www.w3.org/2000/svg" version="1.1">
 <metadata>
  <rdf:RDF xmlns:dc="http://purl.org/dc/elements/1.1/" xmlns:cc="http://creativecommons.org/ns#" xmlns:rdf="http://www.w3.org/1999/02/22-rdf-syntax-ns#">
   <cc:Work>
    <dc:type rdf:resource="http://purl.org/dc/dcmitype/StillImage"/>
    <dc:date>2024-05-24T16:18:13.407740</dc:date>
    <dc:format>image/svg+xml</dc:format>
    <dc:creator>
     <cc:Agent>
      <dc:title>Matplotlib v3.8.2, https://matplotlib.org/</dc:title>
     </cc:Agent>
    </dc:creator>
   </cc:Work>
  </rdf:RDF>
 </metadata>
 <defs>
  <style type="text/css">*{stroke-linejoin: round; stroke-linecap: butt}</style>
 </defs>
 <g id="figure_1">
  <g id="patch_1">
   <path d="M 0 543.168 
L 1105.92 543.168 
L 1105.92 0 
L 0 0 
z
" style="fill: #ffffff"/>
  </g>
  <g id="axes_1">
   <g id="patch_2">
    <path d="M 138.24 483.41952 
L 995.328 483.41952 
L 995.328 65.18016 
L 138.24 65.18016 
z
" style="fill: #ffffff"/>
   </g>
   <g id="matplotlib.axis_1">
    <g id="xtick_1">
     <g id="line2d_1">
      <defs>
       <path id="mfd6dbaef73" d="M 0 0 
L 0 3.5 
" style="stroke: #000000; stroke-width: 0.8"/>
      </defs>
      <g>
       <use xlink:href="#mfd6dbaef73" x="177.198545" y="483.41952" style="stroke: #000000; stroke-width: 0.8"/>
      </g>
     </g>
     <g id="text_1">
      <!-- 0.00 -->
      <g transform="translate(166.065733 498.017958) scale(0.1 -0.1)">
       <defs>
        <path id="DejaVuSans-30" d="M 2034 4250 
Q 1547 4250 1301 3770 
Q 1056 3291 1056 2328 
Q 1056 1369 1301 889 
Q 1547 409 2034 409 
Q 2525 409 2770 889 
Q 3016 1369 3016 2328 
Q 3016 3291 2770 3770 
Q 2525 4250 2034 4250 
z
M 2034 4750 
Q 2819 4750 3233 4129 
Q 3647 3509 3647 2328 
Q 3647 1150 3233 529 
Q 2819 -91 2034 -91 
Q 1250 -91 836 529 
Q 422 1150 422 2328 
Q 422 3509 836 4129 
Q 1250 4750 2034 4750 
z
" transform="scale(0.015625)"/>
        <path id="DejaVuSans-2e" d="M 684 794 
L 1344 794 
L 1344 0 
L 684 0 
L 684 794 
z
" transform="scale(0.015625)"/>
       </defs>
       <use xlink:href="#DejaVuSans-30"/>
       <use xlink:href="#DejaVuSans-2e" x="63.623047"/>
       <use xlink:href="#DejaVuSans-30" x="95.410156"/>
       <use xlink:href="#DejaVuSans-30" x="159.033203"/>
      </g>
     </g>
    </g>
    <g id="xtick_2">
     <g id="line2d_2">
      <g>
       <use xlink:href="#mfd6dbaef73" x="274.664528" y="483.41952" style="stroke: #000000; stroke-width: 0.8"/>
      </g>
     </g>
     <g id="text_2">
      <!-- 0.25 -->
      <g transform="translate(263.531715 498.017958) scale(0.1 -0.1)">
       <defs>
        <path id="DejaVuSans-32" d="M 1228 531 
L 3431 531 
L 3431 0 
L 469 0 
L 469 531 
Q 828 903 1448 1529 
Q 2069 2156 2228 2338 
Q 2531 2678 2651 2914 
Q 2772 3150 2772 3378 
Q 2772 3750 2511 3984 
Q 2250 4219 1831 4219 
Q 1534 4219 1204 4116 
Q 875 4013 500 3803 
L 500 4441 
Q 881 4594 1212 4672 
Q 1544 4750 1819 4750 
Q 2544 4750 2975 4387 
Q 3406 4025 3406 3419 
Q 3406 3131 3298 2873 
Q 3191 2616 2906 2266 
Q 2828 2175 2409 1742 
Q 1991 1309 1228 531 
z
" transform="scale(0.015625)"/>
        <path id="DejaVuSans-35" d="M 691 4666 
L 3169 4666 
L 3169 4134 
L 1269 4134 
L 1269 2991 
Q 1406 3038 1543 3061 
Q 1681 3084 1819 3084 
Q 2600 3084 3056 2656 
Q 3513 2228 3513 1497 
Q 3513 744 3044 326 
Q 2575 -91 1722 -91 
Q 1428 -91 1123 -41 
Q 819 9 494 109 
L 494 744 
Q 775 591 1075 516 
Q 1375 441 1709 441 
Q 2250 441 2565 725 
Q 2881 1009 2881 1497 
Q 2881 1984 2565 2268 
Q 2250 2553 1709 2553 
Q 1456 2553 1204 2497 
Q 953 2441 691 2322 
L 691 4666 
z
" transform="scale(0.015625)"/>
       </defs>
       <use xlink:href="#DejaVuSans-30"/>
       <use xlink:href="#DejaVuSans-2e" x="63.623047"/>
       <use xlink:href="#DejaVuSans-32" x="95.410156"/>
       <use xlink:href="#DejaVuSans-35" x="159.033203"/>
      </g>
     </g>
    </g>
    <g id="xtick_3">
     <g id="line2d_3">
      <g>
       <use xlink:href="#mfd6dbaef73" x="372.13051" y="483.41952" style="stroke: #000000; stroke-width: 0.8"/>
      </g>
     </g>
     <g id="text_3">
      <!-- 0.50 -->
      <g transform="translate(360.997697 498.017958) scale(0.1 -0.1)">
       <use xlink:href="#DejaVuSans-30"/>
       <use xlink:href="#DejaVuSans-2e" x="63.623047"/>
       <use xlink:href="#DejaVuSans-35" x="95.410156"/>
       <use xlink:href="#DejaVuSans-30" x="159.033203"/>
      </g>
     </g>
    </g>
    <g id="xtick_4">
     <g id="line2d_4">
      <g>
       <use xlink:href="#mfd6dbaef73" x="469.596492" y="483.41952" style="stroke: #000000; stroke-width: 0.8"/>
      </g>
     </g>
     <g id="text_4">
      <!-- 0.75 -->
      <g transform="translate(458.46368 498.017958) scale(0.1 -0.1)">
       <defs>
        <path id="DejaVuSans-37" d="M 525 4666 
L 3525 4666 
L 3525 4397 
L 1831 0 
L 1172 0 
L 2766 4134 
L 525 4134 
L 525 4666 
z
" transform="scale(0.015625)"/>
       </defs>
       <use xlink:href="#DejaVuSans-30"/>
       <use xlink:href="#DejaVuSans-2e" x="63.623047"/>
       <use xlink:href="#DejaVuSans-37" x="95.410156"/>
       <use xlink:href="#DejaVuSans-35" x="159.033203"/>
      </g>
     </g>
    </g>
    <g id="xtick_5">
     <g id="line2d_5">
      <g>
       <use xlink:href="#mfd6dbaef73" x="567.062474" y="483.41952" style="stroke: #000000; stroke-width: 0.8"/>
      </g>
     </g>
     <g id="text_5">
      <!-- 1.00 -->
      <g transform="translate(555.929662 498.017958) scale(0.1 -0.1)">
       <defs>
        <path id="DejaVuSans-31" d="M 794 531 
L 1825 531 
L 1825 4091 
L 703 3866 
L 703 4441 
L 1819 4666 
L 2450 4666 
L 2450 531 
L 3481 531 
L 3481 0 
L 794 0 
L 794 531 
z
" transform="scale(0.015625)"/>
       </defs>
       <use xlink:href="#DejaVuSans-31"/>
       <use xlink:href="#DejaVuSans-2e" x="63.623047"/>
       <use xlink:href="#DejaVuSans-30" x="95.410156"/>
       <use xlink:href="#DejaVuSans-30" x="159.033203"/>
      </g>
     </g>
    </g>
    <g id="xtick_6">
     <g id="line2d_6">
      <g>
       <use xlink:href="#mfd6dbaef73" x="664.528456" y="483.41952" style="stroke: #000000; stroke-width: 0.8"/>
      </g>
     </g>
     <g id="text_6">
      <!-- 1.25 -->
      <g transform="translate(653.395644 498.017958) scale(0.1 -0.1)">
       <use xlink:href="#DejaVuSans-31"/>
       <use xlink:href="#DejaVuSans-2e" x="63.623047"/>
       <use xlink:href="#DejaVuSans-32" x="95.410156"/>
       <use xlink:href="#DejaVuSans-35" x="159.033203"/>
      </g>
     </g>
    </g>
    <g id="xtick_7">
     <g id="line2d_7">
      <g>
       <use xlink:href="#mfd6dbaef73" x="761.994439" y="483.41952" style="stroke: #000000; stroke-width: 0.8"/>
      </g>
     </g>
     <g id="text_7">
      <!-- 1.50 -->
      <g transform="translate(750.861626 498.017958) scale(0.1 -0.1)">
       <use xlink:href="#DejaVuSans-31"/>
       <use xlink:href="#DejaVuSans-2e" x="63.623047"/>
       <use xlink:href="#DejaVuSans-35" x="95.410156"/>
       <use xlink:href="#DejaVuSans-30" x="159.033203"/>
      </g>
     </g>
    </g>
    <g id="xtick_8">
     <g id="line2d_8">
      <g>
       <use xlink:href="#mfd6dbaef73" x="859.460421" y="483.41952" style="stroke: #000000; stroke-width: 0.8"/>
      </g>
     </g>
     <g id="text_8">
      <!-- 1.75 -->
      <g transform="translate(848.327608 498.017958) scale(0.1 -0.1)">
       <use xlink:href="#DejaVuSans-31"/>
       <use xlink:href="#DejaVuSans-2e" x="63.623047"/>
       <use xlink:href="#DejaVuSans-37" x="95.410156"/>
       <use xlink:href="#DejaVuSans-35" x="159.033203"/>
      </g>
     </g>
    </g>
    <g id="xtick_9">
     <g id="line2d_9">
      <g>
       <use xlink:href="#mfd6dbaef73" x="956.926403" y="483.41952" style="stroke: #000000; stroke-width: 0.8"/>
      </g>
     </g>
     <g id="text_9">
      <!-- 2.00 -->
      <g transform="translate(945.793591 498.017958) scale(0.1 -0.1)">
       <use xlink:href="#DejaVuSans-32"/>
       <use xlink:href="#DejaVuSans-2e" x="63.623047"/>
       <use xlink:href="#DejaVuSans-30" x="95.410156"/>
       <use xlink:href="#DejaVuSans-30" x="159.033203"/>
      </g>
     </g>
    </g>
    <g id="text_10">
     <!-- Time ($s$) -->
     <g transform="translate(546.284 511.696082) scale(0.1 -0.1)">
      <defs>
       <path id="DejaVuSans-54" d="M -19 4666 
L 3928 4666 
L 3928 4134 
L 2272 4134 
L 2272 0 
L 1638 0 
L 1638 4134 
L -19 4134 
L -19 4666 
z
" transform="scale(0.015625)"/>
       <path id="DejaVuSans-69" d="M 603 3500 
L 1178 3500 
L 1178 0 
L 603 0 
L 603 3500 
z
M 603 4863 
L 1178 4863 
L 1178 4134 
L 603 4134 
L 603 4863 
z
" transform="scale(0.015625)"/>
       <path id="DejaVuSans-6d" d="M 3328 2828 
Q 3544 3216 3844 3400 
Q 4144 3584 4550 3584 
Q 5097 3584 5394 3201 
Q 5691 2819 5691 2113 
L 5691 0 
L 5113 0 
L 5113 2094 
Q 5113 2597 4934 2840 
Q 4756 3084 4391 3084 
Q 3944 3084 3684 2787 
Q 3425 2491 3425 1978 
L 3425 0 
L 2847 0 
L 2847 2094 
Q 2847 2600 2669 2842 
Q 2491 3084 2119 3084 
Q 1678 3084 1418 2786 
Q 1159 2488 1159 1978 
L 1159 0 
L 581 0 
L 581 3500 
L 1159 3500 
L 1159 2956 
Q 1356 3278 1631 3431 
Q 1906 3584 2284 3584 
Q 2666 3584 2933 3390 
Q 3200 3197 3328 2828 
z
" transform="scale(0.015625)"/>
       <path id="DejaVuSans-65" d="M 3597 1894 
L 3597 1613 
L 953 1613 
Q 991 1019 1311 708 
Q 1631 397 2203 397 
Q 2534 397 2845 478 
Q 3156 559 3463 722 
L 3463 178 
Q 3153 47 2828 -22 
Q 2503 -91 2169 -91 
Q 1331 -91 842 396 
Q 353 884 353 1716 
Q 353 2575 817 3079 
Q 1281 3584 2069 3584 
Q 2775 3584 3186 3129 
Q 3597 2675 3597 1894 
z
M 3022 2063 
Q 3016 2534 2758 2815 
Q 2500 3097 2075 3097 
Q 1594 3097 1305 2825 
Q 1016 2553 972 2059 
L 3022 2063 
z
" transform="scale(0.015625)"/>
       <path id="DejaVuSans-20" transform="scale(0.015625)"/>
       <path id="DejaVuSans-28" d="M 1984 4856 
Q 1566 4138 1362 3434 
Q 1159 2731 1159 2009 
Q 1159 1288 1364 580 
Q 1569 -128 1984 -844 
L 1484 -844 
Q 1016 -109 783 600 
Q 550 1309 550 2009 
Q 550 2706 781 3412 
Q 1013 4119 1484 4856 
L 1984 4856 
z
" transform="scale(0.015625)"/>
       <path id="DejaVuSans-Oblique-73" d="M 3200 3397 
L 3091 2853 
Q 2863 2978 2609 3040 
Q 2356 3103 2088 3103 
Q 1634 3103 1373 2948 
Q 1113 2794 1113 2528 
Q 1113 2219 1719 2053 
Q 1766 2041 1788 2034 
L 1972 1978 
Q 2547 1819 2739 1644 
Q 2931 1469 2931 1166 
Q 2931 609 2489 259 
Q 2047 -91 1331 -91 
Q 1053 -91 747 -37 
Q 441 16 72 128 
L 184 722 
Q 500 559 806 475 
Q 1113 391 1394 391 
Q 1816 391 2080 572 
Q 2344 753 2344 1031 
Q 2344 1331 1650 1516 
L 1591 1531 
L 1394 1581 
Q 956 1697 753 1886 
Q 550 2075 550 2369 
Q 550 2928 970 3256 
Q 1391 3584 2113 3584 
Q 2397 3584 2667 3537 
Q 2938 3491 3200 3397 
z
" transform="scale(0.015625)"/>
       <path id="DejaVuSans-29" d="M 513 4856 
L 1013 4856 
Q 1481 4119 1714 3412 
Q 1947 2706 1947 2009 
Q 1947 1309 1714 600 
Q 1481 -109 1013 -844 
L 513 -844 
Q 928 -128 1133 580 
Q 1338 1288 1338 2009 
Q 1338 2731 1133 3434 
Q 928 4138 513 4856 
z
" transform="scale(0.015625)"/>
      </defs>
      <use xlink:href="#DejaVuSans-54" transform="translate(0 0.015625)"/>
      <use xlink:href="#DejaVuSans-69" transform="translate(61.083984 0.015625)"/>
      <use xlink:href="#DejaVuSans-6d" transform="translate(88.867188 0.015625)"/>
      <use xlink:href="#DejaVuSans-65" transform="translate(186.279297 0.015625)"/>
      <use xlink:href="#DejaVuSans-20" transform="translate(247.802734 0.015625)"/>
      <use xlink:href="#DejaVuSans-28" transform="translate(279.589844 0.015625)"/>
      <use xlink:href="#DejaVuSans-Oblique-73" transform="translate(318.603516 0.015625)"/>
      <use xlink:href="#DejaVuSans-29" transform="translate(370.703125 0.015625)"/>
     </g>
    </g>
   </g>
   <g id="matplotlib.axis_2">
    <g id="ytick_1">
     <g id="line2d_10">
      <defs>
       <path id="m4935327b43" d="M 0 0 
L -3.5 0 
" style="stroke: #000000; stroke-width: 0.8"/>
      </defs>
      <g>
       <use xlink:href="#m4935327b43" x="138.24" y="483.399733" style="stroke: #000000; stroke-width: 0.8"/>
      </g>
     </g>
     <g id="text_11">
      <!-- −1.0 -->
      <g transform="translate(106.957188 487.198952) scale(0.1 -0.1)">
       <defs>
        <path id="DejaVuSans-2212" d="M 678 2272 
L 4684 2272 
L 4684 1741 
L 678 1741 
L 678 2272 
z
" transform="scale(0.015625)"/>
       </defs>
       <use xlink:href="#DejaVuSans-2212"/>
       <use xlink:href="#DejaVuSans-31" x="83.789062"/>
       <use xlink:href="#DejaVuSans-2e" x="147.412109"/>
       <use xlink:href="#DejaVuSans-30" x="179.199219"/>
      </g>
     </g>
    </g>
    <g id="ytick_2">
     <g id="line2d_11">
      <g>
       <use xlink:href="#m4935327b43" x="138.24" y="403.092645" style="stroke: #000000; stroke-width: 0.8"/>
      </g>
     </g>
     <g id="text_12">
      <!-- −0.5 -->
      <g transform="translate(106.957188 406.891864) scale(0.1 -0.1)">
       <use xlink:href="#DejaVuSans-2212"/>
       <use xlink:href="#DejaVuSans-30" x="83.789062"/>
       <use xlink:href="#DejaVuSans-2e" x="147.412109"/>
       <use xlink:href="#DejaVuSans-35" x="179.199219"/>
      </g>
     </g>
    </g>
    <g id="ytick_3">
     <g id="line2d_12">
      <g>
       <use xlink:href="#m4935327b43" x="138.24" y="322.785558" style="stroke: #000000; stroke-width: 0.8"/>
      </g>
     </g>
     <g id="text_13">
      <!-- 0.0 -->
      <g transform="translate(115.336875 326.584777) scale(0.1 -0.1)">
       <use xlink:href="#DejaVuSans-30"/>
       <use xlink:href="#DejaVuSans-2e" x="63.623047"/>
       <use xlink:href="#DejaVuSans-30" x="95.410156"/>
      </g>
     </g>
    </g>
    <g id="ytick_4">
     <g id="line2d_13">
      <g>
       <use xlink:href="#m4935327b43" x="138.24" y="242.47847" style="stroke: #000000; stroke-width: 0.8"/>
      </g>
     </g>
     <g id="text_14">
      <!-- 0.5 -->
      <g transform="translate(115.336875 246.277689) scale(0.1 -0.1)">
       <use xlink:href="#DejaVuSans-30"/>
       <use xlink:href="#DejaVuSans-2e" x="63.623047"/>
       <use xlink:href="#DejaVuSans-35" x="95.410156"/>
      </g>
     </g>
    </g>
    <g id="ytick_5">
     <g id="line2d_14">
      <g>
       <use xlink:href="#m4935327b43" x="138.24" y="162.171383" style="stroke: #000000; stroke-width: 0.8"/>
      </g>
     </g>
     <g id="text_15">
      <!-- 1.0 -->
      <g transform="translate(115.336875 165.970601) scale(0.1 -0.1)">
       <use xlink:href="#DejaVuSans-31"/>
       <use xlink:href="#DejaVuSans-2e" x="63.623047"/>
       <use xlink:href="#DejaVuSans-30" x="95.410156"/>
      </g>
     </g>
    </g>
    <g id="ytick_6">
     <g id="line2d_15">
      <g>
       <use xlink:href="#m4935327b43" x="138.24" y="81.864295" style="stroke: #000000; stroke-width: 0.8"/>
      </g>
     </g>
     <g id="text_16">
      <!-- 1.5 -->
      <g transform="translate(115.336875 85.663514) scale(0.1 -0.1)">
       <use xlink:href="#DejaVuSans-31"/>
       <use xlink:href="#DejaVuSans-2e" x="63.623047"/>
       <use xlink:href="#DejaVuSans-35" x="95.410156"/>
      </g>
     </g>
    </g>
    <g id="text_17">
     <!-- Signal -->
     <g transform="translate(100.8775 289.659215) rotate(-90) scale(0.1 -0.1)">
      <defs>
       <path id="DejaVuSans-53" d="M 3425 4513 
L 3425 3897 
Q 3066 4069 2747 4153 
Q 2428 4238 2131 4238 
Q 1616 4238 1336 4038 
Q 1056 3838 1056 3469 
Q 1056 3159 1242 3001 
Q 1428 2844 1947 2747 
L 2328 2669 
Q 3034 2534 3370 2195 
Q 3706 1856 3706 1288 
Q 3706 609 3251 259 
Q 2797 -91 1919 -91 
Q 1588 -91 1214 -16 
Q 841 59 441 206 
L 441 856 
Q 825 641 1194 531 
Q 1563 422 1919 422 
Q 2459 422 2753 634 
Q 3047 847 3047 1241 
Q 3047 1584 2836 1778 
Q 2625 1972 2144 2069 
L 1759 2144 
Q 1053 2284 737 2584 
Q 422 2884 422 3419 
Q 422 4038 858 4394 
Q 1294 4750 2059 4750 
Q 2388 4750 2728 4690 
Q 3069 4631 3425 4513 
z
" transform="scale(0.015625)"/>
       <path id="DejaVuSans-67" d="M 2906 1791 
Q 2906 2416 2648 2759 
Q 2391 3103 1925 3103 
Q 1463 3103 1205 2759 
Q 947 2416 947 1791 
Q 947 1169 1205 825 
Q 1463 481 1925 481 
Q 2391 481 2648 825 
Q 2906 1169 2906 1791 
z
M 3481 434 
Q 3481 -459 3084 -895 
Q 2688 -1331 1869 -1331 
Q 1566 -1331 1297 -1286 
Q 1028 -1241 775 -1147 
L 775 -588 
Q 1028 -725 1275 -790 
Q 1522 -856 1778 -856 
Q 2344 -856 2625 -561 
Q 2906 -266 2906 331 
L 2906 616 
Q 2728 306 2450 153 
Q 2172 0 1784 0 
Q 1141 0 747 490 
Q 353 981 353 1791 
Q 353 2603 747 3093 
Q 1141 3584 1784 3584 
Q 2172 3584 2450 3431 
Q 2728 3278 2906 2969 
L 2906 3500 
L 3481 3500 
L 3481 434 
z
" transform="scale(0.015625)"/>
       <path id="DejaVuSans-6e" d="M 3513 2113 
L 3513 0 
L 2938 0 
L 2938 2094 
Q 2938 2591 2744 2837 
Q 2550 3084 2163 3084 
Q 1697 3084 1428 2787 
Q 1159 2491 1159 1978 
L 1159 0 
L 581 0 
L 581 3500 
L 1159 3500 
L 1159 2956 
Q 1366 3272 1645 3428 
Q 1925 3584 2291 3584 
Q 2894 3584 3203 3211 
Q 3513 2838 3513 2113 
z
" transform="scale(0.015625)"/>
       <path id="DejaVuSans-61" d="M 2194 1759 
Q 1497 1759 1228 1600 
Q 959 1441 959 1056 
Q 959 750 1161 570 
Q 1363 391 1709 391 
Q 2188 391 2477 730 
Q 2766 1069 2766 1631 
L 2766 1759 
L 2194 1759 
z
M 3341 1997 
L 3341 0 
L 2766 0 
L 2766 531 
Q 2569 213 2275 61 
Q 1981 -91 1556 -91 
Q 1019 -91 701 211 
Q 384 513 384 1019 
Q 384 1609 779 1909 
Q 1175 2209 1959 2209 
L 2766 2209 
L 2766 2266 
Q 2766 2663 2505 2880 
Q 2244 3097 1772 3097 
Q 1472 3097 1187 3025 
Q 903 2953 641 2809 
L 641 3341 
Q 956 3463 1253 3523 
Q 1550 3584 1831 3584 
Q 2591 3584 2966 3190 
Q 3341 2797 3341 1997 
z
" transform="scale(0.015625)"/>
       <path id="DejaVuSans-6c" d="M 603 4863 
L 1178 4863 
L 1178 0 
L 603 0 
L 603 4863 
z
" transform="scale(0.015625)"/>
      </defs>
      <use xlink:href="#DejaVuSans-53"/>
      <use xlink:href="#DejaVuSans-69" x="63.476562"/>
      <use xlink:href="#DejaVuSans-67" x="91.259766"/>
      <use xlink:href="#DejaVuSans-6e" x="154.736328"/>
      <use xlink:href="#DejaVuSans-61" x="218.115234"/>
      <use xlink:href="#DejaVuSans-6c" x="279.394531"/>
     </g>
    </g>
   </g>
   <g id="line2d_16">
    <path d="M 177.198545 322.818552 
L 177.755494 323.060916 
L 178.312442 323.872606 
L 178.869391 325.520964 
L 179.983288 329.942525 
L 180.540236 331.254856 
L 181.097185 331.405003 
L 181.654133 330.614349 
L 182.76803 328.306706 
L 183.324979 327.570754 
L 183.881927 327.202794 
L 184.995824 326.839687 
L 185.552772 326.490739 
L 187.223618 324.820859 
L 187.780566 324.530956 
L 188.337515 324.554376 
L 188.894463 324.843389 
L 192.793103 327.716082 
L 193.350051 327.914432 
L 193.907 327.770208 
L 194.463948 327.316977 
L 196.134793 325.512451 
L 196.691742 325.100704 
L 197.24869 324.846453 
L 197.805639 324.744315 
L 202.818175 324.806459 
L 205.045969 323.77123 
L 206.159866 323.79131 
L 208.38766 323.861947 
L 210.615454 324.683071 
L 211.172402 324.405648 
L 211.729351 323.836957 
L 212.843248 322.196191 
L 214.514093 319.58166 
L 215.071041 318.890521 
L 215.62799 318.431981 
L 216.184938 318.270564 
L 216.741887 318.377426 
L 221.197475 320.439753 
L 221.754423 320.493415 
L 222.311371 320.400871 
L 223.425268 319.803279 
L 224.539165 319.13504 
L 225.096114 319.014162 
L 225.653062 319.082035 
L 226.766959 319.57203 
L 228.994753 320.766876 
L 230.10865 321.032016 
L 231.779495 320.97575 
L 232.336444 320.760645 
L 232.893392 320.253265 
L 233.450341 319.401779 
L 234.564238 316.97928 
L 235.678135 314.731709 
L 236.235083 314.105848 
L 236.792032 313.839817 
L 237.905929 313.569092 
L 238.462877 313.11716 
L 240.133723 310.78751 
L 240.690671 310.384031 
L 241.247619 310.409575 
L 241.804568 310.807435 
L 242.918465 311.991478 
L 243.475413 312.410735 
L 244.032362 312.546553 
L 244.58931 312.329579 
L 245.146259 311.769065 
L 246.260156 310.264638 
L 246.817104 309.809769 
L 247.374053 309.765052 
L 247.931001 310.103093 
L 249.044898 311.441965 
L 250.715743 314.025832 
L 252.386589 316.673626 
L 252.943537 317.27854 
L 255.171331 318.992875 
L 256.285228 320.628195 
L 257.399125 322.522974 
L 258.513022 324.947577 
L 260.183867 329.41073 
L 260.740816 330.458381 
L 261.297764 331.075697 
L 262.411661 331.554524 
L 264.082507 332.144877 
L 264.639455 331.981032 
L 265.196404 331.461482 
L 266.867249 329.229018 
L 267.424198 329.05001 
L 267.981146 329.371596 
L 269.651991 331.343145 
L 270.20894 331.432314 
L 270.765888 331.078642 
L 271.879785 329.637063 
L 272.993682 328.326624 
L 273.550631 327.983685 
L 274.107579 327.878334 
L 275.778425 327.943486 
L 277.44927 327.11769 
L 278.006218 327.203822 
L 279.677064 328.381779 
L 280.234012 328.228277 
L 280.790961 327.669035 
L 281.904858 326.2376 
L 282.461806 325.82391 
L 283.018755 325.714121 
L 284.132652 325.84713 
L 285.246549 325.602755 
L 285.803497 325.457162 
L 286.917394 325.534745 
L 287.474342 325.562285 
L 288.031291 325.357105 
L 288.588239 324.869641 
L 289.702136 323.699317 
L 290.259085 323.650865 
L 290.816033 324.464111 
L 291.372982 326.515797 
L 291.92993 330.155054 
L 292.486879 335.648151 
L 293.043827 343.0639 
L 295.828569 386.662565 
L 296.385518 389.961213 
L 296.942466 390.466385 
L 297.499415 388.530436 
L 298.056363 384.364714 
L 298.613312 377.709197 
L 299.17026 367.829528 
L 299.727209 353.857833 
L 300.284157 335.254475 
L 301.398054 284.73276 
L 302.511951 219.773546 
L 304.182797 116.896668 
L 304.739745 94.872836 
L 305.296693 84.274175 
L 305.853642 84.19104 
L 306.41059 91.001036 
L 307.524487 108.692878 
L 308.081436 115.013088 
L 309.195333 124.987231 
L 309.752281 133.468688 
L 310.30923 149.473722 
L 310.866178 177.148889 
L 311.423127 218.028807 
L 313.650921 415.660295 
L 314.207869 442.378883 
L 314.764817 456.342267 
L 315.321766 461.297079 
L 315.878714 461.857357 
L 316.435663 461.578484 
L 316.992611 461.983728 
L 317.54956 462.776256 
L 318.106508 462.735102 
L 318.663457 460.574992 
L 319.220405 455.403229 
L 319.777354 446.838441 
L 320.334302 435.015791 
L 323.119045 364.885654 
L 323.675993 358.590023 
L 324.232941 356.293035 
L 324.78989 356.964906 
L 325.903787 361.06912 
L 326.460735 361.879549 
L 327.017684 361.078567 
L 327.574632 358.883435 
L 328.688529 352.975945 
L 329.245478 350.654913 
L 329.802426 349.289438 
L 330.359375 348.856728 
L 330.916323 349.089679 
L 332.587168 350.698384 
L 333.144117 350.878465 
L 333.701065 350.670395 
L 334.258014 349.937354 
L 334.814962 348.559681 
L 335.371911 346.517202 
L 337.042756 338.779423 
L 337.599705 336.991263 
L 338.156653 336.088945 
L 338.713602 336.060085 
L 339.27055 336.712898 
L 340.941396 339.883721 
L 341.498344 340.359985 
L 342.055292 340.085498 
L 342.612241 338.891156 
L 343.169189 336.796785 
L 344.840035 328.704685 
L 345.396983 327.055672 
L 345.953932 326.392946 
L 346.51088 326.591276 
L 347.067829 327.350458 
L 348.181726 329.217967 
L 348.738674 329.827242 
L 349.295623 330.025079 
L 349.852571 329.733249 
L 350.40952 328.933011 
L 351.523416 326.212511 
L 352.637313 323.371684 
L 353.194262 322.39967 
L 353.75121 321.872279 
L 354.308159 321.814752 
L 354.865107 322.191537 
L 355.422056 322.907528 
L 357.092901 325.519227 
L 357.64985 325.944332 
L 358.206798 325.863304 
L 358.763747 325.17426 
L 359.320695 323.888332 
L 360.99154 318.793289 
L 361.548489 317.735757 
L 362.105437 317.241887 
L 362.662386 317.195477 
L 364.333231 317.768989 
L 364.89018 317.674599 
L 365.447128 317.321763 
L 366.561025 316.075077 
L 367.674922 314.856778 
L 368.788819 314.09694 
L 369.902716 313.701785 
L 370.459664 313.70628 
L 372.13051 314.371709 
L 372.687458 314.210227 
L 373.244407 313.4755 
L 373.801355 312.10529 
L 375.472201 306.354688 
L 376.029149 305.086424 
L 376.586098 304.563615 
L 377.143046 304.696245 
L 378.256943 305.620258 
L 378.813891 305.795247 
L 379.37084 305.637217 
L 379.927788 305.214941 
L 380.484737 304.599474 
L 381.041685 303.768382 
L 381.598634 302.611329 
L 382.155582 301.041763 
L 383.826428 295.601491 
L 384.383376 294.741405 
L 384.940325 294.726008 
L 385.497273 295.400445 
L 386.61117 297.393321 
L 387.168119 298.056557 
L 387.725067 298.310991 
L 388.282015 298.204851 
L 388.838964 297.844497 
L 389.952861 296.712556 
L 391.623706 294.829085 
L 392.180655 294.482205 
L 392.737603 294.469142 
L 393.294552 294.846562 
L 393.8515 295.596757 
L 394.965397 297.889695 
L 396.636243 301.641026 
L 397.193191 302.54898 
L 398.307088 303.759311 
L 398.864036 304.375575 
L 399.420985 305.307061 
L 399.977933 306.742083 
L 400.534882 308.763139 
L 401.648779 314.373773 
L 403.319624 324.927497 
L 404.99047 335.239928 
L 406.104366 340.657241 
L 407.775212 348.630526 
L 410.559954 363.218162 
L 411.673851 367.891348 
L 412.2308 369.515387 
L 412.787748 370.573879 
L 413.344697 371.17273 
L 415.015542 372.160841 
L 415.57249 372.740689 
L 416.129439 373.569015 
L 417.800284 376.763694 
L 418.357233 377.47912 
L 418.914181 377.731498 
L 419.47113 377.489192 
L 420.028078 376.844065 
L 421.141975 374.951748 
L 422.812821 372.136049 
L 423.369769 371.455351 
L 423.926718 371.036062 
L 424.483666 370.919198 
L 426.154511 371.177195 
L 426.71146 370.676034 
L 427.268408 369.569495 
L 427.825357 367.872528 
L 430.610099 357.376124 
L 431.723996 354.869964 
L 433.394842 352.118956 
L 434.508738 350.623822 
L 436.179584 348.672973 
L 436.736532 347.72315 
L 437.850429 345.143363 
L 438.964326 342.550143 
L 439.521275 341.62664 
L 440.078223 340.998643 
L 440.635172 340.603332 
L 442.862965 339.516816 
L 443.419914 339.021178 
L 443.976862 338.364212 
L 444.533811 337.509159 
L 445.647708 335.223804 
L 446.761605 332.959319 
L 447.318553 332.187998 
L 447.875502 331.684105 
L 448.989399 331.127942 
L 450.103296 330.565571 
L 450.660244 330.095106 
L 451.217193 329.411323 
L 451.774141 328.474942 
L 452.888038 325.964936 
L 454.001935 323.311817 
L 454.558883 322.248614 
L 455.115832 321.484541 
L 455.67278 321.054011 
L 456.229729 320.954458 
L 456.786677 321.159977 
L 457.900574 322.184224 
L 458.457523 322.719152 
L 459.014471 323.020362 
L 459.57142 322.910518 
L 460.128368 322.296862 
L 460.685317 321.23364 
L 462.356162 317.553643 
L 462.91311 316.839995 
L 463.470059 316.448914 
L 465.140904 315.900899 
L 465.697853 315.521675 
L 466.254801 314.927791 
L 467.368698 313.089153 
L 469.039544 309.856122 
L 469.596492 309.067746 
L 470.153441 308.536592 
L 470.710389 308.303844 
L 471.267337 308.375 
L 471.824286 308.694959 
L 472.938183 309.570556 
L 473.495131 309.792416 
L 474.05208 309.666052 
L 474.609028 309.111496 
L 475.165977 308.145218 
L 477.393771 303.279211 
L 477.950719 302.662113 
L 478.507668 302.414432 
L 481.849358 302.352122 
L 482.963255 302.919081 
L 483.520204 303.22077 
L 484.077152 303.348378 
L 484.634101 303.214051 
L 485.191049 302.805879 
L 486.304946 301.427025 
L 487.418843 300.016 
L 487.975792 299.525297 
L 489.089688 298.987872 
L 490.203585 298.841337 
L 495.216122 299.365972 
L 496.330019 299.097381 
L 496.886967 298.933742 
L 497.443916 298.888944 
L 498.557812 299.168558 
L 499.671709 299.509526 
L 500.228658 299.560066 
L 501.342555 299.311012 
L 502.456452 298.855239 
L 503.0134 298.734881 
L 503.570349 298.751613 
L 504.127297 298.916057 
L 505.241194 299.639599 
L 506.355091 300.47846 
L 506.91204 300.69295 
L 508.582885 300.742216 
L 509.139833 301.043575 
L 510.810679 302.758667 
L 511.367627 303.025707 
L 511.924576 303.052666 
L 513.595421 302.892091 
L 514.15237 302.863732 
L 514.709318 302.701948 
L 516.380163 301.594617 
L 516.937112 301.560306 
L 517.49406 301.979578 
L 518.051009 302.870283 
L 520.278803 307.73196 
L 520.835751 308.277829 
L 521.3927 308.405903 
L 521.949648 308.214442 
L 522.506597 307.80887 
L 523.620494 306.523289 
L 524.734391 305.015837 
L 525.291339 304.504558 
L 525.848287 304.223602 
L 528.63303 303.547472 
L 529.189978 303.707729 
L 530.303875 304.522933 
L 531.417772 305.691005 
L 533.088618 307.658569 
L 533.645566 308.138607 
L 534.202515 308.418087 
L 534.759463 308.501696 
L 535.87336 308.315669 
L 536.987257 307.910557 
L 538.101154 307.12905 
L 539.215051 306.141108 
L 539.771999 305.846183 
L 540.328948 305.845341 
L 540.885896 306.181681 
L 541.999793 307.55493 
L 543.11369 308.874127 
L 543.670639 309.247158 
L 545.341484 309.993761 
L 546.455381 310.755594 
L 547.012329 310.974819 
L 547.569278 311.005815 
L 548.683175 310.701243 
L 551.467917 309.573781 
L 552.024866 309.610922 
L 552.581814 309.907468 
L 553.138762 310.476898 
L 554.809608 312.636621 
L 555.366556 312.971192 
L 555.923505 313.054309 
L 558.151299 312.880733 
L 558.708247 312.984591 
L 559.265196 313.217596 
L 559.822144 313.61785 
L 560.936041 314.887355 
L 562.049938 316.162788 
L 562.606886 316.486974 
L 563.163835 316.506018 
L 563.720783 316.242545 
L 565.948577 314.518686 
L 566.505526 314.503116 
L 567.062474 314.849178 
L 567.619423 315.56448 
L 568.73332 317.456694 
L 569.290268 318.053671 
L 569.847217 318.075518 
L 570.404165 317.459644 
L 571.518062 314.998926 
L 572.07501 313.745427 
L 572.631959 312.772701 
L 574.302804 310.686633 
L 575.97365 307.918795 
L 576.530598 307.582504 
L 577.087547 307.917239 
L 577.644495 308.906301 
L 579.315341 312.926479 
L 579.872289 313.671758 
L 580.429238 313.969588 
L 580.986186 313.892377 
L 581.543134 313.544667 
L 582.657031 312.386118 
L 584.327877 310.290619 
L 584.884825 309.89333 
L 585.441774 309.897946 
L 585.998722 310.377148 
L 586.555671 311.29794 
L 589.340413 317.318558 
L 590.45431 318.408482 
L 591.011258 318.956577 
L 591.568207 319.690713 
L 592.682104 321.750843 
L 593.796001 324.48325 
L 596.023795 331.040697 
L 596.580743 332.227699 
L 597.137692 333.089686 
L 598.251589 334.174767 
L 600.479382 336.035133 
L 601.036331 336.099463 
L 601.593279 335.817148 
L 603.821073 333.71467 
L 604.378022 333.592796 
L 604.93497 333.702047 
L 606.048867 334.420743 
L 606.605816 334.815481 
L 607.162764 335.043622 
L 607.719713 335.002545 
L 608.276661 334.686127 
L 609.390558 333.755896 
L 609.947506 333.526624 
L 610.504455 333.623542 
L 612.1753 334.927397 
L 612.732249 335.044309 
L 613.289197 334.849586 
L 614.960043 333.765955 
L 615.516991 333.657744 
L 617.187837 333.605279 
L 617.744785 333.385552 
L 618.301733 333.001675 
L 619.41563 331.879118 
L 620.529527 330.748875 
L 621.086476 330.367448 
L 621.643424 330.184108 
L 622.200373 330.210155 
L 623.871218 330.787073 
L 624.428167 330.800089 
L 626.099012 330.275135 
L 626.65596 330.55386 
L 627.212909 331.678809 
L 627.769857 334.133088 
L 628.326806 338.352262 
L 628.883754 344.579268 
L 629.997651 362.128868 
L 631.111548 380.601247 
L 631.668497 387.290633 
L 632.225445 391.268949 
L 632.782394 392.500497 
L 633.339342 391.373916 
L 633.896291 388.288621 
L 634.453239 383.259647 
L 635.010188 375.764952 
L 635.567136 364.917394 
L 636.124084 349.87666 
L 636.681033 330.254318 
L 637.79493 278.259566 
L 638.908827 212.49326 
L 640.022724 142.421715 
L 640.579672 114.215196 
L 641.136621 96.106095 
L 641.693569 89.606591 
L 642.250518 92.804112 
L 643.921363 118.390555 
L 644.478312 123.420629 
L 645.03526 127.409067 
L 645.592208 133.359991 
L 646.149157 145.764841 
L 646.706105 169.455231 
L 647.263054 206.862092 
L 649.490848 404.132996 
L 650.047796 433.750768 
L 650.604745 450.540887 
L 651.161693 457.413874 
L 651.718642 458.686761 
L 652.27559 458.361944 
L 652.832539 458.881789 
L 653.389487 460.75681 
L 653.946436 463.065026 
L 654.503384 464.40864 
L 655.060332 463.717225 
L 655.617281 460.52673 
L 656.174229 454.825477 
L 656.731178 446.797883 
L 657.845075 425.000421 
L 659.51592 388.247972 
L 660.072869 379.110107 
L 660.629817 373.038786 
L 661.186766 370.089403 
L 661.743714 369.539978 
L 662.857611 370.587299 
L 663.414559 370.037318 
L 663.971508 368.325933 
L 665.642353 361.346577 
L 666.199302 360.177545 
L 666.75625 359.867963 
L 667.313199 360.229107 
L 668.427096 361.654064 
L 668.984044 361.999733 
L 669.540993 361.713216 
L 670.097941 360.651953 
L 670.65489 358.826888 
L 671.768787 353.661511 
L 672.882683 348.685793 
L 673.439632 347.139401 
L 673.99658 346.501952 
L 674.553529 346.750603 
L 675.110477 347.67144 
L 676.224374 350.134259 
L 676.781323 350.93535 
L 677.338271 351.049887 
L 677.89522 350.321163 
L 678.452168 348.732298 
L 679.009117 346.399184 
L 680.679962 337.947569 
L 681.236911 336.067837 
L 681.793859 335.253429 
L 682.350807 335.55555 
L 682.907756 336.765603 
L 684.021653 340.215775 
L 684.578601 341.516451 
L 685.13555 342.039676 
L 685.692498 341.592318 
L 686.249447 340.14736 
L 686.806395 337.85663 
L 688.477241 329.772939 
L 689.034189 328.201831 
L 689.591138 327.668932 
L 690.148086 328.094794 
L 691.261983 330.479014 
L 691.818931 331.607606 
L 692.37588 332.270664 
L 692.932828 332.356473 
L 693.489777 331.888952 
L 694.046725 330.943601 
L 695.160622 328.033737 
L 696.274519 324.935236 
L 696.831468 323.88178 
L 697.388416 323.42451 
L 697.945365 323.647178 
L 698.502313 324.47835 
L 699.61621 326.900159 
L 700.173158 327.793538 
L 700.730107 328.119976 
L 701.287055 327.776609 
L 701.844004 326.766876 
L 702.400952 325.183412 
L 704.071798 319.305693 
L 704.628746 317.944996 
L 705.185695 317.244273 
L 705.742643 317.224657 
L 706.299592 317.748923 
L 707.413489 319.383631 
L 707.970437 319.962779 
L 708.527386 320.151841 
L 709.084334 319.895901 
L 709.641282 319.210817 
L 710.198231 318.15874 
L 711.312128 315.360151 
L 712.426025 312.638558 
L 712.982973 311.763641 
L 713.539922 311.342233 
L 714.09687 311.293316 
L 715.210767 311.576901 
L 715.767716 311.577787 
L 716.324664 311.349644 
L 716.881613 310.826333 
L 717.438561 309.94257 
L 717.99551 308.659554 
L 720.223303 302.393171 
L 720.780252 301.808559 
L 721.3372 301.835127 
L 721.894149 302.312514 
L 723.008046 303.848297 
L 724.121943 305.439571 
L 724.678891 306.031379 
L 725.23584 306.273062 
L 725.792788 306.028494 
L 726.349737 305.284235 
L 728.57753 300.96536 
L 729.134479 300.795658 
L 729.691427 301.227276 
L 730.248376 302.120916 
L 731.919221 305.465285 
L 732.47617 306.293204 
L 733.033118 306.851987 
L 733.590067 307.141871 
L 734.703964 307.388908 
L 735.260912 307.793665 
L 735.817861 308.728248 
L 736.374809 310.391865 
L 736.931757 312.859558 
L 738.045654 319.677387 
L 739.7165 330.362452 
L 741.944294 341.680444 
L 745.285985 359.434302 
L 746.399881 365.528436 
L 747.513778 370.414052 
L 748.070727 372.188289 
L 748.627675 373.5079 
L 749.184624 374.421507 
L 749.741572 375.016907 
L 751.412418 376.360114 
L 751.969366 377.164568 
L 754.19716 381.318386 
L 754.754109 382.013451 
L 755.311057 382.462716 
L 755.868005 382.594213 
L 756.424954 382.313566 
L 756.981902 381.561949 
L 757.538851 380.377252 
L 759.209696 376.04683 
L 760.323593 374.013636 
L 763.108336 370.106831 
L 764.222233 368.4501 
L 765.336129 366.276897 
L 766.450026 363.400013 
L 768.120872 358.888747 
L 769.234769 356.703183 
L 771.462563 353.159764 
L 772.57646 350.896254 
L 774.247305 347.295965 
L 774.804253 346.400824 
L 775.361202 345.778012 
L 775.91815 345.435753 
L 777.588996 345.10913 
L 778.145944 344.700456 
L 778.702893 343.883268 
L 779.259841 342.577409 
L 779.81679 340.791671 
L 782.601532 330.210899 
L 783.15848 328.947913 
L 783.715429 328.08221 
L 784.272377 327.530971 
L 784.829326 327.220137 
L 785.386274 327.108631 
L 786.500171 327.291572 
L 787.05712 327.384889 
L 787.614068 327.301145 
L 788.171017 326.944584 
L 788.727965 326.311884 
L 790.398811 324.05139 
L 790.955759 323.625308 
L 792.626604 322.904324 
L 793.740501 321.929852 
L 794.854398 320.490926 
L 795.968295 318.544108 
L 797.082192 316.738972 
L 797.639141 316.340082 
L 798.196089 316.346346 
L 799.309986 316.801641 
L 799.866935 316.689296 
L 800.423883 316.113671 
L 800.980832 315.122089 
L 803.208625 310.464839 
L 804.879471 307.551454 
L 805.436419 306.950937 
L 805.993368 306.770406 
L 806.550316 307.044979 
L 808.221162 309.030654 
L 808.77811 309.197114 
L 809.335059 308.814332 
L 809.892007 307.965434 
L 812.119801 303.785459 
L 813.233698 302.212327 
L 814.347595 301.132423 
L 814.904543 300.842769 
L 815.461492 300.702814 
L 816.575389 300.769611 
L 817.689286 301.215199 
L 818.803183 301.700376 
L 819.360131 301.740933 
L 820.474028 301.387814 
L 821.587925 301.13679 
L 822.701822 301.098735 
L 823.25877 300.919867 
L 824.372667 300.110556 
L 825.486564 299.348721 
L 826.043513 299.232232 
L 827.714358 299.234148 
L 828.271307 299.020877 
L 829.385203 298.2813 
L 830.4991 297.483321 
L 831.612997 297.023798 
L 832.726894 296.947458 
L 833.840791 297.127963 
L 834.954688 297.650053 
L 836.068585 298.16188 
L 836.625534 298.241181 
L 837.182482 298.165824 
L 839.410276 297.449263 
L 839.967224 297.560063 
L 840.524173 297.872527 
L 842.751967 299.706896 
L 843.308915 299.90595 
L 844.979761 300.020471 
L 846.093658 300.17452 
L 846.650606 300.361719 
L 847.207554 300.722038 
L 847.764503 301.314838 
L 849.435348 303.491215 
L 849.992297 303.748333 
L 850.549245 303.631353 
L 851.106194 303.221891 
L 852.220091 302.176879 
L 852.777039 301.932477 
L 853.333988 302.077773 
L 853.890936 302.606385 
L 855.004833 304.058478 
L 855.561782 304.546484 
L 856.11873 304.752017 
L 856.675678 304.730044 
L 858.346524 304.233982 
L 859.460421 303.778185 
L 860.574318 303.158249 
L 861.131266 302.973852 
L 861.688215 302.997256 
L 862.245163 303.248615 
L 867.814648 307.434852 
L 868.371596 307.386428 
L 870.042442 306.70959 
L 870.59939 306.743039 
L 872.827184 307.534071 
L 873.384133 307.486895 
L 874.49803 307.061414 
L 875.611926 306.311516 
L 877.83972 304.161705 
L 878.396669 303.860494 
L 878.953617 303.741669 
L 880.067514 303.697016 
L 880.624463 303.388782 
L 881.181411 302.636471 
L 881.73836 301.408963 
L 882.852257 298.506674 
L 883.409205 297.617661 
L 883.966153 297.423585 
L 884.523102 297.820978 
L 886.193947 299.767606 
L 886.750896 300.046116 
L 887.307844 300.039945 
L 887.864793 299.771479 
L 888.97869 298.927765 
L 889.535638 298.653339 
L 890.649535 298.516324 
L 891.206484 298.610533 
L 891.763432 298.9768 
L 892.320381 299.813325 
L 892.877329 301.175375 
L 894.548174 306.243208 
L 895.105123 307.422374 
L 895.662071 308.192137 
L 896.21902 308.641124 
L 899.003762 310.107682 
L 899.560711 310.905925 
L 900.117659 312.189486 
L 901.231556 315.972317 
L 902.345453 319.460119 
L 902.902401 320.562963 
L 904.016298 322.157156 
L 904.573247 323.215835 
L 905.687144 326.365106 
L 906.244092 328.049101 
L 906.801041 329.373514 
L 907.357989 330.130669 
L 907.914938 330.341213 
L 909.028835 330.097683 
L 909.585783 330.160037 
L 911.256629 331.094172 
L 911.813577 331.082952 
L 912.370525 330.782165 
L 914.598319 328.817363 
L 915.155268 328.566391 
L 915.712216 328.472005 
L 917.383062 328.645579 
L 917.94001 328.460706 
L 919.053907 327.522308 
L 919.610856 327.054906 
L 920.167804 326.77229 
L 920.724752 326.689932 
L 922.395598 326.721171 
L 924.623392 326.231409 
L 925.737289 326.168469 
L 926.294237 326.030111 
L 927.408134 325.43551 
L 928.522031 324.839817 
L 929.635928 324.661438 
L 930.749825 324.502107 
L 932.42067 323.873635 
L 932.977619 323.89268 
L 933.534567 324.108492 
L 934.648464 324.952642 
L 935.762361 326.06876 
L 936.31931 326.866991 
L 936.876258 328.229825 
L 937.433207 330.728323 
L 937.990155 334.988151 
L 938.547104 341.418695 
L 939.661 359.889638 
L 940.774897 378.903795 
L 941.331846 385.337911 
L 941.888794 388.685206 
L 942.445743 388.937534 
L 943.002691 386.453049 
L 943.55964 381.534201 
L 944.116588 374.098335 
L 944.673537 363.624747 
L 945.230485 349.419872 
L 945.787434 331.053464 
L 946.901331 282.640023 
L 948.015228 221.486672 
L 949.686073 121.57803 
L 950.243021 99.009549 
L 950.79997 87.806152 
L 951.356918 87.593484 
L 951.913867 94.828701 
L 953.027764 113.395797 
L 953.584712 119.337846 
L 954.698609 127.786516 
L 955.255558 137.057589 
L 955.812506 156.01209 
L 956.369455 188.081184 
L 956.369455 188.081184 
" clip-path="url(#p6cb798c45a)" style="fill: none; stroke: #1f77b4; stroke-width: 1.5; stroke-linecap: square"/>
   </g>
   <g id="patch_3">
    <path d="M 138.24 483.41952 
L 138.24 65.18016 
" style="fill: none; stroke: #000000; stroke-width: 0.8; stroke-linejoin: miter; stroke-linecap: square"/>
   </g>
   <g id="patch_4">
    <path d="M 995.328 483.41952 
L 995.328 65.18016 
" style="fill: none; stroke: #000000; stroke-width: 0.8; stroke-linejoin: miter; stroke-linecap: square"/>
   </g>
   <g id="patch_5">
    <path d="M 138.24 483.41952 
L 995.328 483.41952 
" style="fill: none; stroke: #000000; stroke-width: 0.8; stroke-linejoin: miter; stroke-linecap: square"/>
   </g>
   <g id="patch_6">
    <path d="M 138.24 65.18016 
L 995.328 65.18016 
" style="fill: none; stroke: #000000; stroke-width: 0.8; stroke-linejoin: miter; stroke-linecap: square"/>
   </g>
  </g>
 </g>
 <defs>
  <clipPath id="p6cb798c45a">
   <rect x="138.24" y="65.18016" width="857.088" height="418.23936"/>
  </clipPath>
 </defs>
</svg>
