<?xml version="1.0" encoding="utf-8" standalone="no"?>
<!DOCTYPE svg PUBLIC "-//W3C//DTD SVG 1.1//EN"
  "http://www.w3.org/Graphics/SVG/1.1/DTD/svg11.dtd">
<svg xmlns:xlink="http://www.w3.org/1999/xlink" width="460.8pt" height="345.6pt" viewBox="0 0 460.8 345.6" xmlns="http://www.w3.org/2000/svg" version="1.1">
 <metadata>
  <rdf:RDF xmlns:dc="http://purl.org/dc/elements/1.1/" xmlns:cc="http://creativecommons.org/ns#" xmlns:rdf="http://www.w3.org/1999/02/22-rdf-syntax-ns#">
   <cc:Work>
    <dc:type rdf:resource="http://purl.org/dc/dcmitype/StillImage"/>
    <dc:date>2024-05-31T12:06:57.238312</dc:date>
    <dc:format>image/svg+xml</dc:format>
    <dc:creator>
     <cc:Agent>
      <dc:title>Matplotlib v3.8.2, https://matplotlib.org/</dc:title>
     </cc:Agent>
    </dc:creator>
   </cc:Work>
  </rdf:RDF>
 </metadata>
 <defs>
  <style type="text/css">*{stroke-linejoin: round; stroke-linecap: butt}</style>
 </defs>
 <g id="figure_1">
  <g id="patch_1">
   <path d="M 0 345.6 
L 460.8 345.6 
L 460.8 0 
L 0 0 
z
" style="fill: #ffffff"/>
  </g>
  <g id="axes_1">
   <g id="patch_2">
    <path d="M 57.6 307.584 
L 414.72 307.584 
L 414.72 41.472 
L 57.6 41.472 
z
" style="fill: #ffffff"/>
   </g>
   <g id="matplotlib.axis_1">
    <g id="xtick_1">
     <g id="line2d_1">
      <defs>
       <path id="m31f2c94673" d="M 0 0 
L 0 3.5 
" style="stroke: #000000; stroke-width: 0.8"/>
      </defs>
      <g>
       <use xlink:href="#m31f2c94673" x="73.832727" y="307.584" style="stroke: #000000; stroke-width: 0.8"/>
      </g>
     </g>
     <g id="text_1">
      <!-- 0 -->
      <g transform="translate(70.651477 322.182437) scale(0.1 -0.1)">
       <defs>
        <path id="DejaVuSans-30" d="M 2034 4250 
Q 1547 4250 1301 3770 
Q 1056 3291 1056 2328 
Q 1056 1369 1301 889 
Q 1547 409 2034 409 
Q 2525 409 2770 889 
Q 3016 1369 3016 2328 
Q 3016 3291 2770 3770 
Q 2525 4250 2034 4250 
z
M 2034 4750 
Q 2819 4750 3233 4129 
Q 3647 3509 3647 2328 
Q 3647 1150 3233 529 
Q 2819 -91 2034 -91 
Q 1250 -91 836 529 
Q 422 1150 422 2328 
Q 422 3509 836 4129 
Q 1250 4750 2034 4750 
z
" transform="scale(0.015625)"/>
       </defs>
       <use xlink:href="#DejaVuSans-30"/>
      </g>
     </g>
    </g>
    <g id="xtick_2">
     <g id="line2d_2">
      <g>
       <use xlink:href="#m31f2c94673" x="114.414545" y="307.584" style="stroke: #000000; stroke-width: 0.8"/>
      </g>
     </g>
     <g id="text_2">
      <!-- 5 -->
      <g transform="translate(111.233295 322.182437) scale(0.1 -0.1)">
       <defs>
        <path id="DejaVuSans-35" d="M 691 4666 
L 3169 4666 
L 3169 4134 
L 1269 4134 
L 1269 2991 
Q 1406 3038 1543 3061 
Q 1681 3084 1819 3084 
Q 2600 3084 3056 2656 
Q 3513 2228 3513 1497 
Q 3513 744 3044 326 
Q 2575 -91 1722 -91 
Q 1428 -91 1123 -41 
Q 819 9 494 109 
L 494 744 
Q 775 591 1075 516 
Q 1375 441 1709 441 
Q 2250 441 2565 725 
Q 2881 1009 2881 1497 
Q 2881 1984 2565 2268 
Q 2250 2553 1709 2553 
Q 1456 2553 1204 2497 
Q 953 2441 691 2322 
L 691 4666 
z
" transform="scale(0.015625)"/>
       </defs>
       <use xlink:href="#DejaVuSans-35"/>
      </g>
     </g>
    </g>
    <g id="xtick_3">
     <g id="line2d_3">
      <g>
       <use xlink:href="#m31f2c94673" x="154.996364" y="307.584" style="stroke: #000000; stroke-width: 0.8"/>
      </g>
     </g>
     <g id="text_3">
      <!-- 10 -->
      <g transform="translate(148.633864 322.182437) scale(0.1 -0.1)">
       <defs>
        <path id="DejaVuSans-31" d="M 794 531 
L 1825 531 
L 1825 4091 
L 703 3866 
L 703 4441 
L 1819 4666 
L 2450 4666 
L 2450 531 
L 3481 531 
L 3481 0 
L 794 0 
L 794 531 
z
" transform="scale(0.015625)"/>
       </defs>
       <use xlink:href="#DejaVuSans-31"/>
       <use xlink:href="#DejaVuSans-30" x="63.623047"/>
      </g>
     </g>
    </g>
    <g id="xtick_4">
     <g id="line2d_4">
      <g>
       <use xlink:href="#m31f2c94673" x="195.578182" y="307.584" style="stroke: #000000; stroke-width: 0.8"/>
      </g>
     </g>
     <g id="text_4">
      <!-- 15 -->
      <g transform="translate(189.215682 322.182437) scale(0.1 -0.1)">
       <use xlink:href="#DejaVuSans-31"/>
       <use xlink:href="#DejaVuSans-35" x="63.623047"/>
      </g>
     </g>
    </g>
    <g id="xtick_5">
     <g id="line2d_5">
      <g>
       <use xlink:href="#m31f2c94673" x="236.16" y="307.584" style="stroke: #000000; stroke-width: 0.8"/>
      </g>
     </g>
     <g id="text_5">
      <!-- 20 -->
      <g transform="translate(229.7975 322.182437) scale(0.1 -0.1)">
       <defs>
        <path id="DejaVuSans-32" d="M 1228 531 
L 3431 531 
L 3431 0 
L 469 0 
L 469 531 
Q 828 903 1448 1529 
Q 2069 2156 2228 2338 
Q 2531 2678 2651 2914 
Q 2772 3150 2772 3378 
Q 2772 3750 2511 3984 
Q 2250 4219 1831 4219 
Q 1534 4219 1204 4116 
Q 875 4013 500 3803 
L 500 4441 
Q 881 4594 1212 4672 
Q 1544 4750 1819 4750 
Q 2544 4750 2975 4387 
Q 3406 4025 3406 3419 
Q 3406 3131 3298 2873 
Q 3191 2616 2906 2266 
Q 2828 2175 2409 1742 
Q 1991 1309 1228 531 
z
" transform="scale(0.015625)"/>
       </defs>
       <use xlink:href="#DejaVuSans-32"/>
       <use xlink:href="#DejaVuSans-30" x="63.623047"/>
      </g>
     </g>
    </g>
    <g id="xtick_6">
     <g id="line2d_6">
      <g>
       <use xlink:href="#m31f2c94673" x="276.741818" y="307.584" style="stroke: #000000; stroke-width: 0.8"/>
      </g>
     </g>
     <g id="text_6">
      <!-- 25 -->
      <g transform="translate(270.379318 322.182437) scale(0.1 -0.1)">
       <use xlink:href="#DejaVuSans-32"/>
       <use xlink:href="#DejaVuSans-35" x="63.623047"/>
      </g>
     </g>
    </g>
    <g id="xtick_7">
     <g id="line2d_7">
      <g>
       <use xlink:href="#m31f2c94673" x="317.323636" y="307.584" style="stroke: #000000; stroke-width: 0.8"/>
      </g>
     </g>
     <g id="text_7">
      <!-- 30 -->
      <g transform="translate(310.961136 322.182437) scale(0.1 -0.1)">
       <defs>
        <path id="DejaVuSans-33" d="M 2597 2516 
Q 3050 2419 3304 2112 
Q 3559 1806 3559 1356 
Q 3559 666 3084 287 
Q 2609 -91 1734 -91 
Q 1441 -91 1130 -33 
Q 819 25 488 141 
L 488 750 
Q 750 597 1062 519 
Q 1375 441 1716 441 
Q 2309 441 2620 675 
Q 2931 909 2931 1356 
Q 2931 1769 2642 2001 
Q 2353 2234 1838 2234 
L 1294 2234 
L 1294 2753 
L 1863 2753 
Q 2328 2753 2575 2939 
Q 2822 3125 2822 3475 
Q 2822 3834 2567 4026 
Q 2313 4219 1838 4219 
Q 1578 4219 1281 4162 
Q 984 4106 628 3988 
L 628 4550 
Q 988 4650 1302 4700 
Q 1616 4750 1894 4750 
Q 2613 4750 3031 4423 
Q 3450 4097 3450 3541 
Q 3450 3153 3228 2886 
Q 3006 2619 2597 2516 
z
" transform="scale(0.015625)"/>
       </defs>
       <use xlink:href="#DejaVuSans-33"/>
       <use xlink:href="#DejaVuSans-30" x="63.623047"/>
      </g>
     </g>
    </g>
    <g id="xtick_8">
     <g id="line2d_8">
      <g>
       <use xlink:href="#m31f2c94673" x="357.905455" y="307.584" style="stroke: #000000; stroke-width: 0.8"/>
      </g>
     </g>
     <g id="text_8">
      <!-- 35 -->
      <g transform="translate(351.542955 322.182437) scale(0.1 -0.1)">
       <use xlink:href="#DejaVuSans-33"/>
       <use xlink:href="#DejaVuSans-35" x="63.623047"/>
      </g>
     </g>
    </g>
    <g id="xtick_9">
     <g id="line2d_9">
      <g>
       <use xlink:href="#m31f2c94673" x="398.487273" y="307.584" style="stroke: #000000; stroke-width: 0.8"/>
      </g>
     </g>
     <g id="text_9">
      <!-- 40 -->
      <g transform="translate(392.124773 322.182437) scale(0.1 -0.1)">
       <defs>
        <path id="DejaVuSans-34" d="M 2419 4116 
L 825 1625 
L 2419 1625 
L 2419 4116 
z
M 2253 4666 
L 3047 4666 
L 3047 1625 
L 3713 1625 
L 3713 1100 
L 3047 1100 
L 3047 0 
L 2419 0 
L 2419 1100 
L 313 1100 
L 313 1709 
L 2253 4666 
z
" transform="scale(0.015625)"/>
       </defs>
       <use xlink:href="#DejaVuSans-34"/>
       <use xlink:href="#DejaVuSans-30" x="63.623047"/>
      </g>
     </g>
    </g>
    <g id="text_10">
     <!-- Time [$s$] -->
     <g transform="translate(215.66 335.860562) scale(0.1 -0.1)">
      <defs>
       <path id="DejaVuSans-54" d="M -19 4666 
L 3928 4666 
L 3928 4134 
L 2272 4134 
L 2272 0 
L 1638 0 
L 1638 4134 
L -19 4134 
L -19 4666 
z
" transform="scale(0.015625)"/>
       <path id="DejaVuSans-69" d="M 603 3500 
L 1178 3500 
L 1178 0 
L 603 0 
L 603 3500 
z
M 603 4863 
L 1178 4863 
L 1178 4134 
L 603 4134 
L 603 4863 
z
" transform="scale(0.015625)"/>
       <path id="DejaVuSans-6d" d="M 3328 2828 
Q 3544 3216 3844 3400 
Q 4144 3584 4550 3584 
Q 5097 3584 5394 3201 
Q 5691 2819 5691 2113 
L 5691 0 
L 5113 0 
L 5113 2094 
Q 5113 2597 4934 2840 
Q 4756 3084 4391 3084 
Q 3944 3084 3684 2787 
Q 3425 2491 3425 1978 
L 3425 0 
L 2847 0 
L 2847 2094 
Q 2847 2600 2669 2842 
Q 2491 3084 2119 3084 
Q 1678 3084 1418 2786 
Q 1159 2488 1159 1978 
L 1159 0 
L 581 0 
L 581 3500 
L 1159 3500 
L 1159 2956 
Q 1356 3278 1631 3431 
Q 1906 3584 2284 3584 
Q 2666 3584 2933 3390 
Q 3200 3197 3328 2828 
z
" transform="scale(0.015625)"/>
       <path id="DejaVuSans-65" d="M 3597 1894 
L 3597 1613 
L 953 1613 
Q 991 1019 1311 708 
Q 1631 397 2203 397 
Q 2534 397 2845 478 
Q 3156 559 3463 722 
L 3463 178 
Q 3153 47 2828 -22 
Q 2503 -91 2169 -91 
Q 1331 -91 842 396 
Q 353 884 353 1716 
Q 353 2575 817 3079 
Q 1281 3584 2069 3584 
Q 2775 3584 3186 3129 
Q 3597 2675 3597 1894 
z
M 3022 2063 
Q 3016 2534 2758 2815 
Q 2500 3097 2075 3097 
Q 1594 3097 1305 2825 
Q 1016 2553 972 2059 
L 3022 2063 
z
" transform="scale(0.015625)"/>
       <path id="DejaVuSans-20" transform="scale(0.015625)"/>
       <path id="DejaVuSans-5b" d="M 550 4863 
L 1875 4863 
L 1875 4416 
L 1125 4416 
L 1125 -397 
L 1875 -397 
L 1875 -844 
L 550 -844 
L 550 4863 
z
" transform="scale(0.015625)"/>
       <path id="DejaVuSans-Oblique-73" d="M 3200 3397 
L 3091 2853 
Q 2863 2978 2609 3040 
Q 2356 3103 2088 3103 
Q 1634 3103 1373 2948 
Q 1113 2794 1113 2528 
Q 1113 2219 1719 2053 
Q 1766 2041 1788 2034 
L 1972 1978 
Q 2547 1819 2739 1644 
Q 2931 1469 2931 1166 
Q 2931 609 2489 259 
Q 2047 -91 1331 -91 
Q 1053 -91 747 -37 
Q 441 16 72 128 
L 184 722 
Q 500 559 806 475 
Q 1113 391 1394 391 
Q 1816 391 2080 572 
Q 2344 753 2344 1031 
Q 2344 1331 1650 1516 
L 1591 1531 
L 1394 1581 
Q 956 1697 753 1886 
Q 550 2075 550 2369 
Q 550 2928 970 3256 
Q 1391 3584 2113 3584 
Q 2397 3584 2667 3537 
Q 2938 3491 3200 3397 
z
" transform="scale(0.015625)"/>
       <path id="DejaVuSans-5d" d="M 1947 4863 
L 1947 -844 
L 622 -844 
L 622 -397 
L 1369 -397 
L 1369 4416 
L 622 4416 
L 622 4863 
L 1947 4863 
z
" transform="scale(0.015625)"/>
      </defs>
      <use xlink:href="#DejaVuSans-54" transform="translate(0 0.015625)"/>
      <use xlink:href="#DejaVuSans-69" transform="translate(61.083984 0.015625)"/>
      <use xlink:href="#DejaVuSans-6d" transform="translate(88.867188 0.015625)"/>
      <use xlink:href="#DejaVuSans-65" transform="translate(186.279297 0.015625)"/>
      <use xlink:href="#DejaVuSans-20" transform="translate(247.802734 0.015625)"/>
      <use xlink:href="#DejaVuSans-5b" transform="translate(279.589844 0.015625)"/>
      <use xlink:href="#DejaVuSans-Oblique-73" transform="translate(318.603516 0.015625)"/>
      <use xlink:href="#DejaVuSans-5d" transform="translate(370.703125 0.015625)"/>
     </g>
    </g>
   </g>
   <g id="matplotlib.axis_2">
    <g id="ytick_1">
     <g id="line2d_10">
      <defs>
       <path id="m2b844860b0" d="M 0 0 
L -3.5 0 
" style="stroke: #000000; stroke-width: 0.8"/>
      </defs>
      <g>
       <use xlink:href="#m2b844860b0" x="57.6" y="277.626421" style="stroke: #000000; stroke-width: 0.8"/>
      </g>
     </g>
     <g id="text_11">
      <!-- −1.00 -->
      <g transform="translate(19.954687 281.42564) scale(0.1 -0.1)">
       <defs>
        <path id="DejaVuSans-2212" d="M 678 2272 
L 4684 2272 
L 4684 1741 
L 678 1741 
L 678 2272 
z
" transform="scale(0.015625)"/>
        <path id="DejaVuSans-2e" d="M 684 794 
L 1344 794 
L 1344 0 
L 684 0 
L 684 794 
z
" transform="scale(0.015625)"/>
       </defs>
       <use xlink:href="#DejaVuSans-2212"/>
       <use xlink:href="#DejaVuSans-31" x="83.789062"/>
       <use xlink:href="#DejaVuSans-2e" x="147.412109"/>
       <use xlink:href="#DejaVuSans-30" x="179.199219"/>
       <use xlink:href="#DejaVuSans-30" x="242.822266"/>
      </g>
     </g>
    </g>
    <g id="ytick_2">
     <g id="line2d_11">
      <g>
       <use xlink:href="#m2b844860b0" x="57.6" y="247.227646" style="stroke: #000000; stroke-width: 0.8"/>
      </g>
     </g>
     <g id="text_12">
      <!-- −0.75 -->
      <g transform="translate(19.954687 251.026865) scale(0.1 -0.1)">
       <defs>
        <path id="DejaVuSans-37" d="M 525 4666 
L 3525 4666 
L 3525 4397 
L 1831 0 
L 1172 0 
L 2766 4134 
L 525 4134 
L 525 4666 
z
" transform="scale(0.015625)"/>
       </defs>
       <use xlink:href="#DejaVuSans-2212"/>
       <use xlink:href="#DejaVuSans-30" x="83.789062"/>
       <use xlink:href="#DejaVuSans-2e" x="147.412109"/>
       <use xlink:href="#DejaVuSans-37" x="179.199219"/>
       <use xlink:href="#DejaVuSans-35" x="242.822266"/>
      </g>
     </g>
    </g>
    <g id="ytick_3">
     <g id="line2d_12">
      <g>
       <use xlink:href="#m2b844860b0" x="57.6" y="216.828871" style="stroke: #000000; stroke-width: 0.8"/>
      </g>
     </g>
     <g id="text_13">
      <!-- −0.50 -->
      <g transform="translate(19.954687 220.62809) scale(0.1 -0.1)">
       <use xlink:href="#DejaVuSans-2212"/>
       <use xlink:href="#DejaVuSans-30" x="83.789062"/>
       <use xlink:href="#DejaVuSans-2e" x="147.412109"/>
       <use xlink:href="#DejaVuSans-35" x="179.199219"/>
       <use xlink:href="#DejaVuSans-30" x="242.822266"/>
      </g>
     </g>
    </g>
    <g id="ytick_4">
     <g id="line2d_13">
      <g>
       <use xlink:href="#m2b844860b0" x="57.6" y="186.430096" style="stroke: #000000; stroke-width: 0.8"/>
      </g>
     </g>
     <g id="text_14">
      <!-- −0.25 -->
      <g transform="translate(19.954687 190.229315) scale(0.1 -0.1)">
       <use xlink:href="#DejaVuSans-2212"/>
       <use xlink:href="#DejaVuSans-30" x="83.789062"/>
       <use xlink:href="#DejaVuSans-2e" x="147.412109"/>
       <use xlink:href="#DejaVuSans-32" x="179.199219"/>
       <use xlink:href="#DejaVuSans-35" x="242.822266"/>
      </g>
     </g>
    </g>
    <g id="ytick_5">
     <g id="line2d_14">
      <g>
       <use xlink:href="#m2b844860b0" x="57.6" y="156.031321" style="stroke: #000000; stroke-width: 0.8"/>
      </g>
     </g>
     <g id="text_15">
      <!-- 0.00 -->
      <g transform="translate(28.334375 159.83054) scale(0.1 -0.1)">
       <use xlink:href="#DejaVuSans-30"/>
       <use xlink:href="#DejaVuSans-2e" x="63.623047"/>
       <use xlink:href="#DejaVuSans-30" x="95.410156"/>
       <use xlink:href="#DejaVuSans-30" x="159.033203"/>
      </g>
     </g>
    </g>
    <g id="ytick_6">
     <g id="line2d_15">
      <g>
       <use xlink:href="#m2b844860b0" x="57.6" y="125.632546" style="stroke: #000000; stroke-width: 0.8"/>
      </g>
     </g>
     <g id="text_16">
      <!-- 0.25 -->
      <g transform="translate(28.334375 129.431765) scale(0.1 -0.1)">
       <use xlink:href="#DejaVuSans-30"/>
       <use xlink:href="#DejaVuSans-2e" x="63.623047"/>
       <use xlink:href="#DejaVuSans-32" x="95.410156"/>
       <use xlink:href="#DejaVuSans-35" x="159.033203"/>
      </g>
     </g>
    </g>
    <g id="ytick_7">
     <g id="line2d_16">
      <g>
       <use xlink:href="#m2b844860b0" x="57.6" y="95.233771" style="stroke: #000000; stroke-width: 0.8"/>
      </g>
     </g>
     <g id="text_17">
      <!-- 0.50 -->
      <g transform="translate(28.334375 99.03299) scale(0.1 -0.1)">
       <use xlink:href="#DejaVuSans-30"/>
       <use xlink:href="#DejaVuSans-2e" x="63.623047"/>
       <use xlink:href="#DejaVuSans-35" x="95.410156"/>
       <use xlink:href="#DejaVuSans-30" x="159.033203"/>
      </g>
     </g>
    </g>
    <g id="ytick_8">
     <g id="line2d_17">
      <g>
       <use xlink:href="#m2b844860b0" x="57.6" y="64.834996" style="stroke: #000000; stroke-width: 0.8"/>
      </g>
     </g>
     <g id="text_18">
      <!-- 0.75 -->
      <g transform="translate(28.334375 68.634215) scale(0.1 -0.1)">
       <use xlink:href="#DejaVuSans-30"/>
       <use xlink:href="#DejaVuSans-2e" x="63.623047"/>
       <use xlink:href="#DejaVuSans-37" x="95.410156"/>
       <use xlink:href="#DejaVuSans-35" x="159.033203"/>
      </g>
     </g>
    </g>
    <g id="text_19">
     <!-- ? -->
     <g transform="translate(13.875 177.181906) rotate(-90) scale(0.1 -0.1)">
      <defs>
       <path id="DejaVuSans-3f" d="M 1222 794 
L 1856 794 
L 1856 0 
L 1222 0 
L 1222 794 
z
M 1838 1253 
L 1241 1253 
L 1241 1734 
Q 1241 2050 1328 2253 
Q 1416 2456 1697 2725 
L 1978 3003 
Q 2156 3169 2236 3316 
Q 2316 3463 2316 3616 
Q 2316 3894 2111 4066 
Q 1906 4238 1569 4238 
Q 1322 4238 1042 4128 
Q 763 4019 459 3809 
L 459 4397 
Q 753 4575 1054 4662 
Q 1356 4750 1678 4750 
Q 2253 4750 2601 4447 
Q 2950 4144 2950 3647 
Q 2950 3409 2837 3195 
Q 2725 2981 2444 2713 
L 2169 2444 
Q 2022 2297 1961 2214 
Q 1900 2131 1875 2053 
Q 1856 1988 1847 1894 
Q 1838 1800 1838 1638 
L 1838 1253 
z
" transform="scale(0.015625)"/>
      </defs>
      <use xlink:href="#DejaVuSans-3f"/>
     </g>
    </g>
   </g>
   <g id="line2d_18">
    <path d="M 73.832727 161.771426 
L 75.13167 162.1273 
L 75.618774 162.035966 
L 76.024693 161.733145 
L 76.430613 161.15971 
L 76.917717 160.069847 
L 77.567188 157.961148 
L 78.622579 153.522445 
L 79.759154 149.011695 
L 80.408626 147.311792 
L 80.895729 146.641033 
L 81.220465 146.504602 
L 81.545201 146.617187 
L 81.869937 146.970835 
L 82.275856 147.730362 
L 82.844144 149.319447 
L 83.574799 152.090985 
L 84.63019 157.087345 
L 86.253869 165.99938 
L 89.98833 186.922965 
L 90.881353 190.567352 
L 91.612008 192.67177 
L 92.180296 193.65792 
L 92.586216 193.982533 
L 92.910951 194.005285 
L 93.235687 193.814015 
L 93.641607 193.273059 
L 94.12871 192.18623 
L 94.696998 190.334477 
L 95.427653 187.090267 
L 96.320677 181.956485 
L 97.457252 173.916241 
L 98.999746 161.159192 
L 104.357886 115.262482 
L 105.656829 106.666352 
L 106.71222 101.084411 
L 107.524059 97.827014 
L 108.173531 95.97261 
L 108.741818 94.965127 
L 109.147738 94.629709 
L 109.472474 94.608042 
L 109.797209 94.8173 
L 110.203129 95.419637 
L 110.690233 96.667896 
L 111.25852 98.886464 
L 111.907992 102.472381 
L 112.638647 107.88094 
L 113.450486 115.581444 
L 114.424693 126.99871 
L 115.723636 145.133611 
L 119.133362 194.433139 
L 120.026385 203.728898 
L 120.75704 209.2411 
L 121.325328 212.068977 
L 121.812431 213.429657 
L 122.137167 213.78687 
L 122.380719 213.768493 
L 122.624271 213.508518 
L 122.949006 212.794817 
L 123.354926 211.335192 
L 123.923214 208.304042 
L 124.653869 202.914379 
L 125.546892 194.512794 
L 126.927019 179.114603 
L 129.768457 146.96353 
L 131.0674 134.867568 
L 132.203975 126.179532 
L 133.259366 119.706025 
L 134.233573 115.048957 
L 135.045412 112.117428 
L 135.776068 110.225681 
L 136.344355 109.259583 
L 136.831459 108.797767 
L 137.237378 108.681012 
L 137.643298 108.816289 
L 138.049218 109.211125 
L 138.536321 110.036922 
L 139.104609 111.496653 
L 139.75408 113.827368 
L 140.484736 117.28637 
L 141.377759 122.659709 
L 142.43315 130.443627 
L 143.894461 143.103339 
L 147.79129 177.96049 
L 149.009049 186.491464 
L 150.06444 192.34914 
L 150.957463 196.098519 
L 151.688118 198.323984 
L 152.33759 199.66826 
L 152.905877 200.363777 
L 153.392981 200.612375 
L 153.798901 200.58246 
L 154.20482 200.34528 
L 154.691924 199.800568 
L 155.260211 198.832107 
L 155.990867 197.121522 
L 156.965074 194.198183 
L 158.832304 187.637163 
L 160.212431 183.195014 
L 161.105455 180.980016 
L 161.83611 179.670035 
L 162.485581 178.895963 
L 163.135053 178.455836 
L 163.784524 178.281328 
L 164.758732 178.296527 
L 165.732939 178.273158 
L 166.38241 178.022062 
L 166.950698 177.541954 
L 167.518985 176.757195 
L 168.168457 175.44049 
L 168.899112 173.40685 
L 169.792135 170.193087 
L 171.091078 164.521566 
L 173.283044 154.858429 
L 174.257252 151.532824 
L 175.069091 149.453336 
L 175.799746 148.112345 
L 176.530402 147.1937 
L 177.423425 146.449971 
L 179.047104 145.201793 
L 179.777759 144.281859 
L 180.508414 142.955402 
L 181.23907 141.153742 
L 182.132093 138.294986 
L 183.268668 133.773609 
L 186.921945 118.435455 
L 187.733784 116.198024 
L 188.383256 114.943849 
L 188.951543 114.258816 
L 189.438647 113.977436 
L 189.925751 113.968215 
L 190.412854 114.214027 
L 190.981142 114.791898 
L 191.711797 115.925618 
L 192.60482 117.762756 
L 194.066131 121.37526 
L 196.745201 128.660294 
L 197.96296 132.535245 
L 198.937167 136.328039 
L 199.911374 141.045524 
L 200.885581 146.894518 
L 202.022156 155.206732 
L 203.483467 167.755567 
L 206.000169 189.565279 
L 206.974376 196.034446 
L 207.705032 199.571947 
L 208.273319 201.414105 
L 208.760423 202.315637 
L 209.085159 202.560566 
L 209.409894 202.519636 
L 209.73463 202.195371 
L 210.14055 201.400012 
L 210.627653 199.895708 
L 211.277125 197.022447 
L 212.088964 192.206089 
L 213.144355 184.338057 
L 214.68685 170.830402 
L 217.771839 143.462192 
L 218.989598 134.639478 
L 219.963805 129.008944 
L 220.775645 125.465456 
L 221.425116 123.44852 
L 221.993404 122.301139 
L 222.480507 121.777815 
L 222.886427 121.660673 
L 223.292347 121.824383 
L 223.698266 122.256507 
L 224.18537 123.106722 
L 224.834841 124.747205 
L 225.646681 127.479365 
L 226.783256 132.212879 
L 229.056406 142.961673 
L 236.119408 177.136022 
L 238.311374 188.148887 
L 239.447949 192.775141 
L 240.340973 195.558254 
L 241.071628 197.197074 
L 241.721099 198.159938 
L 242.289387 198.635683 
L 242.77649 198.791814 
L 243.263594 198.74013 
L 243.831882 198.454491 
L 244.562537 197.806171 
L 245.617928 196.510291 
L 249.677125 190.823059 
L 250.894884 188.808295 
L 251.869091 186.751169 
L 252.843298 184.116988 
L 253.817505 180.787984 
L 254.872896 176.341681 
L 256.090655 170.1752 
L 257.63315 161.076658 
L 260.393404 143.078164 
L 262.666554 128.910064 
L 264.127865 121.157003 
L 265.26444 116.26953 
L 266.157463 113.292096 
L 266.969302 111.31794 
L 267.618774 110.2616 
L 268.187061 109.716353 
L 268.674165 109.519443 
L 269.161268 109.555231 
L 269.729556 109.860243 
L 270.379027 110.497541 
L 271.272051 111.721589 
L 273.464017 114.887396 
L 274.194672 115.531948 
L 274.844144 115.811319 
L 275.412431 115.817438 
L 276.061903 115.573141 
L 276.873742 114.983799 
L 278.578605 113.646969 
L 279.146892 113.52576 
L 279.552812 113.640797 
L 279.958732 113.965692 
L 280.445835 114.679335 
L 280.932939 115.792094 
L 281.501226 117.643559 
L 282.150698 120.529296 
L 282.962537 125.293058 
L 283.936744 132.560549 
L 285.235687 144.220684 
L 288.645412 175.929786 
L 289.700803 183.421872 
L 290.593827 188.337077 
L 291.405666 191.590977 
L 292.055137 193.348384 
L 292.623425 194.273234 
L 293.029345 194.588021 
L 293.435264 194.618662 
L 293.841184 194.369228 
L 294.247104 193.844257 
L 294.734207 192.857883 
L 295.383679 190.955789 
L 296.114334 188.053072 
L 297.007357 183.505458 
L 298.143932 176.406767 
L 300.011163 163.000166 
L 301.716025 151.314777 
L 302.771416 145.518293 
L 303.583256 142.172804 
L 304.232727 140.290956 
L 304.801015 139.250425 
L 305.288118 138.810959 
L 305.694038 138.758815 
L 306.099958 138.984682 
L 306.505877 139.47932 
L 306.992981 140.412753 
L 307.642452 142.202408 
L 308.373108 144.91013 
L 309.266131 149.143316 
L 310.321522 155.363799 
L 311.458097 163.434065 
L 312.838224 174.888682 
L 316.816237 209.212173 
L 317.628076 213.847227 
L 318.277548 216.369687 
L 318.764651 217.485802 
L 319.170571 217.882826 
L 319.414123 217.885517 
L 319.738858 217.615929 
L 320.144778 216.849481 
L 320.631882 215.330814 
L 321.281353 212.390903 
L 322.093192 207.528366 
L 323.473319 197.558666 
L 325.178182 185.5955 
L 326.152389 180.289038 
L 326.964228 177.031293 
L 327.694884 174.988534 
L 328.344355 173.779008 
L 328.993827 172.998358 
L 329.88685 172.316809 
L 331.023425 171.440588 
L 331.672896 170.627896 
L 332.322368 169.423087 
L 332.971839 167.729578 
L 333.702495 165.157982 
L 334.514334 161.408445 
L 335.407357 156.160124 
L 336.381564 149.082929 
L 337.51814 139.073741 
L 338.817082 125.47024 
L 340.521945 104.918747 
L 343.119831 73.466406 
L 344.094038 64.190915 
L 344.905877 58.440696 
L 345.555349 55.382162 
L 346.042452 54.05429 
L 346.367188 53.637032 
L 346.61074 53.56804 
L 346.854292 53.704612 
L 347.179027 54.197838 
L 347.584947 55.291666 
L 348.153235 57.640428 
L 348.88389 61.856755 
L 349.858097 69.029477 
L 351.400592 82.314498 
L 353.673742 103.713847 
L 354.891501 117.233781 
L 355.946892 131.633215 
L 356.921099 147.995872 
L 358.057674 171.197689 
L 359.518985 206.313233 
L 361.873319 263.148611 
L 362.766342 279.536451 
L 363.496998 289.060766 
L 363.984101 293.123117 
L 364.390021 295.001707 
L 364.633573 295.451862 
L 364.795941 295.46707 
L 364.958309 295.254065 
L 365.20186 294.5081 
L 365.526596 292.7261 
L 365.932516 289.265634 
L 366.500803 282.24466 
L 367.231459 269.886478 
L 368.124482 250.716465 
L 369.585793 213.789731 
L 371.696575 161.295879 
L 372.83315 138.721399 
L 373.726173 125.055753 
L 374.538013 115.913974 
L 375.187484 110.778403 
L 375.755772 107.75696 
L 376.242875 106.160582 
L 376.648795 105.460421 
L 376.973531 105.271483 
L 377.298266 105.379641 
L 377.623002 105.754284 
L 378.110106 106.749528 
L 378.759577 108.731363 
L 379.6526 112.310869 
L 381.276279 119.979806 
L 383.874165 132.068836 
L 390.044144 158.697154 
L 391.099535 162.326218 
L 391.911374 164.438558 
L 392.560846 165.614276 
L 393.129133 166.2415 
L 393.616237 166.48041 
L 394.10334 166.455682 
L 394.590444 166.1893 
L 395.158732 165.614836 
L 395.970571 164.420903 
L 397.756617 161.196606 
L 398.487273 160.003854 
L 398.487273 160.003854 
" clip-path="url(#p0cf670ccb3)" style="fill: none; stroke: #1f77b4; stroke-width: 1.5; stroke-linecap: square"/>
   </g>
   <g id="patch_3">
    <path d="M 57.6 307.584 
L 57.6 41.472 
" style="fill: none; stroke: #000000; stroke-width: 0.8; stroke-linejoin: miter; stroke-linecap: square"/>
   </g>
   <g id="patch_4">
    <path d="M 414.72 307.584 
L 414.72 41.472 
" style="fill: none; stroke: #000000; stroke-width: 0.8; stroke-linejoin: miter; stroke-linecap: square"/>
   </g>
   <g id="patch_5">
    <path d="M 57.6 307.584 
L 414.72 307.584 
" style="fill: none; stroke: #000000; stroke-width: 0.8; stroke-linejoin: miter; stroke-linecap: square"/>
   </g>
   <g id="patch_6">
    <path d="M 57.6 41.472 
L 414.72 41.472 
" style="fill: none; stroke: #000000; stroke-width: 0.8; stroke-linejoin: miter; stroke-linecap: square"/>
   </g>
  </g>
 </g>
 <defs>
  <clipPath id="p0cf670ccb3">
   <rect x="57.6" y="41.472" width="357.12" height="266.112"/>
  </clipPath>
 </defs>
</svg>
