<?xml version="1.0" encoding="utf-8" standalone="no"?>
<!DOCTYPE svg PUBLIC "-//W3C//DTD SVG 1.1//EN"
  "http://www.w3.org/Graphics/SVG/1.1/DTD/svg11.dtd">
<svg xmlns:xlink="http://www.w3.org/1999/xlink" width="460.8pt" height="345.6pt" viewBox="0 0 460.8 345.6" xmlns="http://www.w3.org/2000/svg" version="1.1">
 <metadata>
  <rdf:RDF xmlns:dc="http://purl.org/dc/elements/1.1/" xmlns:cc="http://creativecommons.org/ns#" xmlns:rdf="http://www.w3.org/1999/02/22-rdf-syntax-ns#">
   <cc:Work>
    <dc:type rdf:resource="http://purl.org/dc/dcmitype/StillImage"/>
    <dc:date>2024-05-31T12:06:57.515371</dc:date>
    <dc:format>image/svg+xml</dc:format>
    <dc:creator>
     <cc:Agent>
      <dc:title>Matplotlib v3.8.2, https://matplotlib.org/</dc:title>
     </cc:Agent>
    </dc:creator>
   </cc:Work>
  </rdf:RDF>
 </metadata>
 <defs>
  <style type="text/css">*{stroke-linejoin: round; stroke-linecap: butt}</style>
 </defs>
 <g id="figure_1">
  <g id="patch_1">
   <path d="M 0 345.6 
L 460.8 345.6 
L 460.8 0 
L 0 0 
z
" style="fill: #ffffff"/>
  </g>
  <g id="axes_1">
   <g id="patch_2">
    <path d="M 57.6 307.584 
L 414.72 307.584 
L 414.72 41.472 
L 57.6 41.472 
z
" style="fill: #ffffff"/>
   </g>
   <g id="matplotlib.axis_1">
    <g id="xtick_1">
     <g id="line2d_1">
      <defs>
       <path id="m0c1318f0f7" d="M 0 0 
L 0 3.5 
" style="stroke: #000000; stroke-width: 0.8"/>
      </defs>
      <g>
       <use xlink:href="#m0c1318f0f7" x="57.6" y="307.584" style="stroke: #000000; stroke-width: 0.8"/>
      </g>
     </g>
     <g id="text_1">
      <!-- −20 -->
      <g transform="translate(47.047656 322.182437) scale(0.1 -0.1)">
       <defs>
        <path id="DejaVuSans-2212" d="M 678 2272 
L 4684 2272 
L 4684 1741 
L 678 1741 
L 678 2272 
z
" transform="scale(0.015625)"/>
        <path id="DejaVuSans-32" d="M 1228 531 
L 3431 531 
L 3431 0 
L 469 0 
L 469 531 
Q 828 903 1448 1529 
Q 2069 2156 2228 2338 
Q 2531 2678 2651 2914 
Q 2772 3150 2772 3378 
Q 2772 3750 2511 3984 
Q 2250 4219 1831 4219 
Q 1534 4219 1204 4116 
Q 875 4013 500 3803 
L 500 4441 
Q 881 4594 1212 4672 
Q 1544 4750 1819 4750 
Q 2544 4750 2975 4387 
Q 3406 4025 3406 3419 
Q 3406 3131 3298 2873 
Q 3191 2616 2906 2266 
Q 2828 2175 2409 1742 
Q 1991 1309 1228 531 
z
" transform="scale(0.015625)"/>
        <path id="DejaVuSans-30" d="M 2034 4250 
Q 1547 4250 1301 3770 
Q 1056 3291 1056 2328 
Q 1056 1369 1301 889 
Q 1547 409 2034 409 
Q 2525 409 2770 889 
Q 3016 1369 3016 2328 
Q 3016 3291 2770 3770 
Q 2525 4250 2034 4250 
z
M 2034 4750 
Q 2819 4750 3233 4129 
Q 3647 3509 3647 2328 
Q 3647 1150 3233 529 
Q 2819 -91 2034 -91 
Q 1250 -91 836 529 
Q 422 1150 422 2328 
Q 422 3509 836 4129 
Q 1250 4750 2034 4750 
z
" transform="scale(0.015625)"/>
       </defs>
       <use xlink:href="#DejaVuSans-2212"/>
       <use xlink:href="#DejaVuSans-32" x="83.789062"/>
       <use xlink:href="#DejaVuSans-30" x="147.412109"/>
      </g>
     </g>
    </g>
    <g id="xtick_2">
     <g id="line2d_2">
      <g>
       <use xlink:href="#m0c1318f0f7" x="102.24" y="307.584" style="stroke: #000000; stroke-width: 0.8"/>
      </g>
     </g>
     <g id="text_2">
      <!-- −15 -->
      <g transform="translate(91.687656 322.182437) scale(0.1 -0.1)">
       <defs>
        <path id="DejaVuSans-31" d="M 794 531 
L 1825 531 
L 1825 4091 
L 703 3866 
L 703 4441 
L 1819 4666 
L 2450 4666 
L 2450 531 
L 3481 531 
L 3481 0 
L 794 0 
L 794 531 
z
" transform="scale(0.015625)"/>
        <path id="DejaVuSans-35" d="M 691 4666 
L 3169 4666 
L 3169 4134 
L 1269 4134 
L 1269 2991 
Q 1406 3038 1543 3061 
Q 1681 3084 1819 3084 
Q 2600 3084 3056 2656 
Q 3513 2228 3513 1497 
Q 3513 744 3044 326 
Q 2575 -91 1722 -91 
Q 1428 -91 1123 -41 
Q 819 9 494 109 
L 494 744 
Q 775 591 1075 516 
Q 1375 441 1709 441 
Q 2250 441 2565 725 
Q 2881 1009 2881 1497 
Q 2881 1984 2565 2268 
Q 2250 2553 1709 2553 
Q 1456 2553 1204 2497 
Q 953 2441 691 2322 
L 691 4666 
z
" transform="scale(0.015625)"/>
       </defs>
       <use xlink:href="#DejaVuSans-2212"/>
       <use xlink:href="#DejaVuSans-31" x="83.789062"/>
       <use xlink:href="#DejaVuSans-35" x="147.412109"/>
      </g>
     </g>
    </g>
    <g id="xtick_3">
     <g id="line2d_3">
      <g>
       <use xlink:href="#m0c1318f0f7" x="146.88" y="307.584" style="stroke: #000000; stroke-width: 0.8"/>
      </g>
     </g>
     <g id="text_3">
      <!-- −10 -->
      <g transform="translate(136.327656 322.182437) scale(0.1 -0.1)">
       <use xlink:href="#DejaVuSans-2212"/>
       <use xlink:href="#DejaVuSans-31" x="83.789062"/>
       <use xlink:href="#DejaVuSans-30" x="147.412109"/>
      </g>
     </g>
    </g>
    <g id="xtick_4">
     <g id="line2d_4">
      <g>
       <use xlink:href="#m0c1318f0f7" x="191.52" y="307.584" style="stroke: #000000; stroke-width: 0.8"/>
      </g>
     </g>
     <g id="text_4">
      <!-- −5 -->
      <g transform="translate(184.148906 322.182437) scale(0.1 -0.1)">
       <use xlink:href="#DejaVuSans-2212"/>
       <use xlink:href="#DejaVuSans-35" x="83.789062"/>
      </g>
     </g>
    </g>
    <g id="xtick_5">
     <g id="line2d_5">
      <g>
       <use xlink:href="#m0c1318f0f7" x="236.16" y="307.584" style="stroke: #000000; stroke-width: 0.8"/>
      </g>
     </g>
     <g id="text_5">
      <!-- 0 -->
      <g transform="translate(232.97875 322.182437) scale(0.1 -0.1)">
       <use xlink:href="#DejaVuSans-30"/>
      </g>
     </g>
    </g>
    <g id="xtick_6">
     <g id="line2d_6">
      <g>
       <use xlink:href="#m0c1318f0f7" x="280.8" y="307.584" style="stroke: #000000; stroke-width: 0.8"/>
      </g>
     </g>
     <g id="text_6">
      <!-- 5 -->
      <g transform="translate(277.61875 322.182437) scale(0.1 -0.1)">
       <use xlink:href="#DejaVuSans-35"/>
      </g>
     </g>
    </g>
    <g id="xtick_7">
     <g id="line2d_7">
      <g>
       <use xlink:href="#m0c1318f0f7" x="325.44" y="307.584" style="stroke: #000000; stroke-width: 0.8"/>
      </g>
     </g>
     <g id="text_7">
      <!-- 10 -->
      <g transform="translate(319.0775 322.182437) scale(0.1 -0.1)">
       <use xlink:href="#DejaVuSans-31"/>
       <use xlink:href="#DejaVuSans-30" x="63.623047"/>
      </g>
     </g>
    </g>
    <g id="xtick_8">
     <g id="line2d_8">
      <g>
       <use xlink:href="#m0c1318f0f7" x="370.08" y="307.584" style="stroke: #000000; stroke-width: 0.8"/>
      </g>
     </g>
     <g id="text_8">
      <!-- 15 -->
      <g transform="translate(363.7175 322.182437) scale(0.1 -0.1)">
       <use xlink:href="#DejaVuSans-31"/>
       <use xlink:href="#DejaVuSans-35" x="63.623047"/>
      </g>
     </g>
    </g>
    <g id="xtick_9">
     <g id="line2d_9">
      <g>
       <use xlink:href="#m0c1318f0f7" x="414.72" y="307.584" style="stroke: #000000; stroke-width: 0.8"/>
      </g>
     </g>
     <g id="text_9">
      <!-- 20 -->
      <g transform="translate(408.3575 322.182437) scale(0.1 -0.1)">
       <use xlink:href="#DejaVuSans-32"/>
       <use xlink:href="#DejaVuSans-30" x="63.623047"/>
      </g>
     </g>
    </g>
    <g id="text_10">
     <!-- Frequency [$Hz$] -->
     <g transform="translate(197.96 335.862125) scale(0.1 -0.1)">
      <defs>
       <path id="DejaVuSans-46" d="M 628 4666 
L 3309 4666 
L 3309 4134 
L 1259 4134 
L 1259 2759 
L 3109 2759 
L 3109 2228 
L 1259 2228 
L 1259 0 
L 628 0 
L 628 4666 
z
" transform="scale(0.015625)"/>
       <path id="DejaVuSans-72" d="M 2631 2963 
Q 2534 3019 2420 3045 
Q 2306 3072 2169 3072 
Q 1681 3072 1420 2755 
Q 1159 2438 1159 1844 
L 1159 0 
L 581 0 
L 581 3500 
L 1159 3500 
L 1159 2956 
Q 1341 3275 1631 3429 
Q 1922 3584 2338 3584 
Q 2397 3584 2469 3576 
Q 2541 3569 2628 3553 
L 2631 2963 
z
" transform="scale(0.015625)"/>
       <path id="DejaVuSans-65" d="M 3597 1894 
L 3597 1613 
L 953 1613 
Q 991 1019 1311 708 
Q 1631 397 2203 397 
Q 2534 397 2845 478 
Q 3156 559 3463 722 
L 3463 178 
Q 3153 47 2828 -22 
Q 2503 -91 2169 -91 
Q 1331 -91 842 396 
Q 353 884 353 1716 
Q 353 2575 817 3079 
Q 1281 3584 2069 3584 
Q 2775 3584 3186 3129 
Q 3597 2675 3597 1894 
z
M 3022 2063 
Q 3016 2534 2758 2815 
Q 2500 3097 2075 3097 
Q 1594 3097 1305 2825 
Q 1016 2553 972 2059 
L 3022 2063 
z
" transform="scale(0.015625)"/>
       <path id="DejaVuSans-71" d="M 947 1747 
Q 947 1113 1208 752 
Q 1469 391 1925 391 
Q 2381 391 2643 752 
Q 2906 1113 2906 1747 
Q 2906 2381 2643 2742 
Q 2381 3103 1925 3103 
Q 1469 3103 1208 2742 
Q 947 2381 947 1747 
z
M 2906 525 
Q 2725 213 2448 61 
Q 2172 -91 1784 -91 
Q 1150 -91 751 415 
Q 353 922 353 1747 
Q 353 2572 751 3078 
Q 1150 3584 1784 3584 
Q 2172 3584 2448 3432 
Q 2725 3281 2906 2969 
L 2906 3500 
L 3481 3500 
L 3481 -1331 
L 2906 -1331 
L 2906 525 
z
" transform="scale(0.015625)"/>
       <path id="DejaVuSans-75" d="M 544 1381 
L 544 3500 
L 1119 3500 
L 1119 1403 
Q 1119 906 1312 657 
Q 1506 409 1894 409 
Q 2359 409 2629 706 
Q 2900 1003 2900 1516 
L 2900 3500 
L 3475 3500 
L 3475 0 
L 2900 0 
L 2900 538 
Q 2691 219 2414 64 
Q 2138 -91 1772 -91 
Q 1169 -91 856 284 
Q 544 659 544 1381 
z
M 1991 3584 
L 1991 3584 
z
" transform="scale(0.015625)"/>
       <path id="DejaVuSans-6e" d="M 3513 2113 
L 3513 0 
L 2938 0 
L 2938 2094 
Q 2938 2591 2744 2837 
Q 2550 3084 2163 3084 
Q 1697 3084 1428 2787 
Q 1159 2491 1159 1978 
L 1159 0 
L 581 0 
L 581 3500 
L 1159 3500 
L 1159 2956 
Q 1366 3272 1645 3428 
Q 1925 3584 2291 3584 
Q 2894 3584 3203 3211 
Q 3513 2838 3513 2113 
z
" transform="scale(0.015625)"/>
       <path id="DejaVuSans-63" d="M 3122 3366 
L 3122 2828 
Q 2878 2963 2633 3030 
Q 2388 3097 2138 3097 
Q 1578 3097 1268 2742 
Q 959 2388 959 1747 
Q 959 1106 1268 751 
Q 1578 397 2138 397 
Q 2388 397 2633 464 
Q 2878 531 3122 666 
L 3122 134 
Q 2881 22 2623 -34 
Q 2366 -91 2075 -91 
Q 1284 -91 818 406 
Q 353 903 353 1747 
Q 353 2603 823 3093 
Q 1294 3584 2113 3584 
Q 2378 3584 2631 3529 
Q 2884 3475 3122 3366 
z
" transform="scale(0.015625)"/>
       <path id="DejaVuSans-79" d="M 2059 -325 
Q 1816 -950 1584 -1140 
Q 1353 -1331 966 -1331 
L 506 -1331 
L 506 -850 
L 844 -850 
Q 1081 -850 1212 -737 
Q 1344 -625 1503 -206 
L 1606 56 
L 191 3500 
L 800 3500 
L 1894 763 
L 2988 3500 
L 3597 3500 
L 2059 -325 
z
" transform="scale(0.015625)"/>
       <path id="DejaVuSans-20" transform="scale(0.015625)"/>
       <path id="DejaVuSans-5b" d="M 550 4863 
L 1875 4863 
L 1875 4416 
L 1125 4416 
L 1125 -397 
L 1875 -397 
L 1875 -844 
L 550 -844 
L 550 4863 
z
" transform="scale(0.015625)"/>
       <path id="DejaVuSans-Oblique-48" d="M 1081 4666 
L 1716 4666 
L 1344 2753 
L 3634 2753 
L 4006 4666 
L 4641 4666 
L 3731 0 
L 3097 0 
L 3531 2222 
L 1241 2222 
L 806 0 
L 172 0 
L 1081 4666 
z
" transform="scale(0.015625)"/>
       <path id="DejaVuSans-Oblique-7a" d="M 744 3500 
L 3475 3500 
L 3372 2975 
L 738 459 
L 2913 459 
L 2822 0 
L -19 0 
L 84 525 
L 2719 3041 
L 653 3041 
L 744 3500 
z
" transform="scale(0.015625)"/>
       <path id="DejaVuSans-5d" d="M 1947 4863 
L 1947 -844 
L 622 -844 
L 622 -397 
L 1369 -397 
L 1369 4416 
L 622 4416 
L 622 4863 
L 1947 4863 
z
" transform="scale(0.015625)"/>
      </defs>
      <use xlink:href="#DejaVuSans-46" transform="translate(0 0.015625)"/>
      <use xlink:href="#DejaVuSans-72" transform="translate(57.519531 0.015625)"/>
      <use xlink:href="#DejaVuSans-65" transform="translate(98.632812 0.015625)"/>
      <use xlink:href="#DejaVuSans-71" transform="translate(160.15625 0.015625)"/>
      <use xlink:href="#DejaVuSans-75" transform="translate(223.632812 0.015625)"/>
      <use xlink:href="#DejaVuSans-65" transform="translate(287.011719 0.015625)"/>
      <use xlink:href="#DejaVuSans-6e" transform="translate(348.535156 0.015625)"/>
      <use xlink:href="#DejaVuSans-63" transform="translate(411.914062 0.015625)"/>
      <use xlink:href="#DejaVuSans-79" transform="translate(466.894531 0.015625)"/>
      <use xlink:href="#DejaVuSans-20" transform="translate(526.074219 0.015625)"/>
      <use xlink:href="#DejaVuSans-5b" transform="translate(557.861328 0.015625)"/>
      <use xlink:href="#DejaVuSans-Oblique-48" transform="translate(596.875 0.015625)"/>
      <use xlink:href="#DejaVuSans-Oblique-7a" transform="translate(672.070312 0.015625)"/>
      <use xlink:href="#DejaVuSans-5d" transform="translate(724.560547 0.015625)"/>
     </g>
    </g>
   </g>
   <g id="matplotlib.axis_2">
    <g id="ytick_1">
     <g id="line2d_10">
      <defs>
       <path id="m37b169eb78" d="M 0 0 
L -3.5 0 
" style="stroke: #000000; stroke-width: 0.8"/>
      </defs>
      <g>
       <use xlink:href="#m37b169eb78" x="57.6" y="286.20317" style="stroke: #000000; stroke-width: 0.8"/>
      </g>
     </g>
     <g id="text_11">
      <!-- −20 -->
      <g transform="translate(29.495313 290.002389) scale(0.1 -0.1)">
       <use xlink:href="#DejaVuSans-2212"/>
       <use xlink:href="#DejaVuSans-32" x="83.789062"/>
       <use xlink:href="#DejaVuSans-30" x="147.412109"/>
      </g>
     </g>
    </g>
    <g id="ytick_2">
     <g id="line2d_11">
      <g>
       <use xlink:href="#m37b169eb78" x="57.6" y="243.441511" style="stroke: #000000; stroke-width: 0.8"/>
      </g>
     </g>
     <g id="text_12">
      <!-- −10 -->
      <g transform="translate(29.495313 247.24073) scale(0.1 -0.1)">
       <use xlink:href="#DejaVuSans-2212"/>
       <use xlink:href="#DejaVuSans-31" x="83.789062"/>
       <use xlink:href="#DejaVuSans-30" x="147.412109"/>
      </g>
     </g>
    </g>
    <g id="ytick_3">
     <g id="line2d_12">
      <g>
       <use xlink:href="#m37b169eb78" x="57.6" y="200.679852" style="stroke: #000000; stroke-width: 0.8"/>
      </g>
     </g>
     <g id="text_13">
      <!-- 0 -->
      <g transform="translate(44.2375 204.479071) scale(0.1 -0.1)">
       <use xlink:href="#DejaVuSans-30"/>
      </g>
     </g>
    </g>
    <g id="ytick_4">
     <g id="line2d_13">
      <g>
       <use xlink:href="#m37b169eb78" x="57.6" y="157.918193" style="stroke: #000000; stroke-width: 0.8"/>
      </g>
     </g>
     <g id="text_14">
      <!-- 10 -->
      <g transform="translate(37.875 161.717412) scale(0.1 -0.1)">
       <use xlink:href="#DejaVuSans-31"/>
       <use xlink:href="#DejaVuSans-30" x="63.623047"/>
      </g>
     </g>
    </g>
    <g id="ytick_5">
     <g id="line2d_14">
      <g>
       <use xlink:href="#m37b169eb78" x="57.6" y="115.156534" style="stroke: #000000; stroke-width: 0.8"/>
      </g>
     </g>
     <g id="text_15">
      <!-- 20 -->
      <g transform="translate(37.875 118.955753) scale(0.1 -0.1)">
       <use xlink:href="#DejaVuSans-32"/>
       <use xlink:href="#DejaVuSans-30" x="63.623047"/>
      </g>
     </g>
    </g>
    <g id="ytick_6">
     <g id="line2d_15">
      <g>
       <use xlink:href="#m37b169eb78" x="57.6" y="72.394875" style="stroke: #000000; stroke-width: 0.8"/>
      </g>
     </g>
     <g id="text_16">
      <!-- 30 -->
      <g transform="translate(37.875 76.194094) scale(0.1 -0.1)">
       <defs>
        <path id="DejaVuSans-33" d="M 2597 2516 
Q 3050 2419 3304 2112 
Q 3559 1806 3559 1356 
Q 3559 666 3084 287 
Q 2609 -91 1734 -91 
Q 1441 -91 1130 -33 
Q 819 25 488 141 
L 488 750 
Q 750 597 1062 519 
Q 1375 441 1716 441 
Q 2309 441 2620 675 
Q 2931 909 2931 1356 
Q 2931 1769 2642 2001 
Q 2353 2234 1838 2234 
L 1294 2234 
L 1294 2753 
L 1863 2753 
Q 2328 2753 2575 2939 
Q 2822 3125 2822 3475 
Q 2822 3834 2567 4026 
Q 2313 4219 1838 4219 
Q 1578 4219 1281 4162 
Q 984 4106 628 3988 
L 628 4550 
Q 988 4650 1302 4700 
Q 1616 4750 1894 4750 
Q 2613 4750 3031 4423 
Q 3450 4097 3450 3541 
Q 3450 3153 3228 2886 
Q 3006 2619 2597 2516 
z
" transform="scale(0.015625)"/>
       </defs>
       <use xlink:href="#DejaVuSans-33"/>
       <use xlink:href="#DejaVuSans-30" x="63.623047"/>
      </g>
     </g>
    </g>
    <g id="text_17">
     <!-- Amplitude [dB] -->
     <g transform="translate(23.415625 212.245969) rotate(-90) scale(0.1 -0.1)">
      <defs>
       <path id="DejaVuSans-41" d="M 2188 4044 
L 1331 1722 
L 3047 1722 
L 2188 4044 
z
M 1831 4666 
L 2547 4666 
L 4325 0 
L 3669 0 
L 3244 1197 
L 1141 1197 
L 716 0 
L 50 0 
L 1831 4666 
z
" transform="scale(0.015625)"/>
       <path id="DejaVuSans-6d" d="M 3328 2828 
Q 3544 3216 3844 3400 
Q 4144 3584 4550 3584 
Q 5097 3584 5394 3201 
Q 5691 2819 5691 2113 
L 5691 0 
L 5113 0 
L 5113 2094 
Q 5113 2597 4934 2840 
Q 4756 3084 4391 3084 
Q 3944 3084 3684 2787 
Q 3425 2491 3425 1978 
L 3425 0 
L 2847 0 
L 2847 2094 
Q 2847 2600 2669 2842 
Q 2491 3084 2119 3084 
Q 1678 3084 1418 2786 
Q 1159 2488 1159 1978 
L 1159 0 
L 581 0 
L 581 3500 
L 1159 3500 
L 1159 2956 
Q 1356 3278 1631 3431 
Q 1906 3584 2284 3584 
Q 2666 3584 2933 3390 
Q 3200 3197 3328 2828 
z
" transform="scale(0.015625)"/>
       <path id="DejaVuSans-70" d="M 1159 525 
L 1159 -1331 
L 581 -1331 
L 581 3500 
L 1159 3500 
L 1159 2969 
Q 1341 3281 1617 3432 
Q 1894 3584 2278 3584 
Q 2916 3584 3314 3078 
Q 3713 2572 3713 1747 
Q 3713 922 3314 415 
Q 2916 -91 2278 -91 
Q 1894 -91 1617 61 
Q 1341 213 1159 525 
z
M 3116 1747 
Q 3116 2381 2855 2742 
Q 2594 3103 2138 3103 
Q 1681 3103 1420 2742 
Q 1159 2381 1159 1747 
Q 1159 1113 1420 752 
Q 1681 391 2138 391 
Q 2594 391 2855 752 
Q 3116 1113 3116 1747 
z
" transform="scale(0.015625)"/>
       <path id="DejaVuSans-6c" d="M 603 4863 
L 1178 4863 
L 1178 0 
L 603 0 
L 603 4863 
z
" transform="scale(0.015625)"/>
       <path id="DejaVuSans-69" d="M 603 3500 
L 1178 3500 
L 1178 0 
L 603 0 
L 603 3500 
z
M 603 4863 
L 1178 4863 
L 1178 4134 
L 603 4134 
L 603 4863 
z
" transform="scale(0.015625)"/>
       <path id="DejaVuSans-74" d="M 1172 4494 
L 1172 3500 
L 2356 3500 
L 2356 3053 
L 1172 3053 
L 1172 1153 
Q 1172 725 1289 603 
Q 1406 481 1766 481 
L 2356 481 
L 2356 0 
L 1766 0 
Q 1100 0 847 248 
Q 594 497 594 1153 
L 594 3053 
L 172 3053 
L 172 3500 
L 594 3500 
L 594 4494 
L 1172 4494 
z
" transform="scale(0.015625)"/>
       <path id="DejaVuSans-64" d="M 2906 2969 
L 2906 4863 
L 3481 4863 
L 3481 0 
L 2906 0 
L 2906 525 
Q 2725 213 2448 61 
Q 2172 -91 1784 -91 
Q 1150 -91 751 415 
Q 353 922 353 1747 
Q 353 2572 751 3078 
Q 1150 3584 1784 3584 
Q 2172 3584 2448 3432 
Q 2725 3281 2906 2969 
z
M 947 1747 
Q 947 1113 1208 752 
Q 1469 391 1925 391 
Q 2381 391 2643 752 
Q 2906 1113 2906 1747 
Q 2906 2381 2643 2742 
Q 2381 3103 1925 3103 
Q 1469 3103 1208 2742 
Q 947 2381 947 1747 
z
" transform="scale(0.015625)"/>
       <path id="DejaVuSans-42" d="M 1259 2228 
L 1259 519 
L 2272 519 
Q 2781 519 3026 730 
Q 3272 941 3272 1375 
Q 3272 1813 3026 2020 
Q 2781 2228 2272 2228 
L 1259 2228 
z
M 1259 4147 
L 1259 2741 
L 2194 2741 
Q 2656 2741 2882 2914 
Q 3109 3088 3109 3444 
Q 3109 3797 2882 3972 
Q 2656 4147 2194 4147 
L 1259 4147 
z
M 628 4666 
L 2241 4666 
Q 2963 4666 3353 4366 
Q 3744 4066 3744 3513 
Q 3744 3084 3544 2831 
Q 3344 2578 2956 2516 
Q 3422 2416 3680 2098 
Q 3938 1781 3938 1306 
Q 3938 681 3513 340 
Q 3088 0 2303 0 
L 628 0 
L 628 4666 
z
" transform="scale(0.015625)"/>
      </defs>
      <use xlink:href="#DejaVuSans-41"/>
      <use xlink:href="#DejaVuSans-6d" x="68.408203"/>
      <use xlink:href="#DejaVuSans-70" x="165.820312"/>
      <use xlink:href="#DejaVuSans-6c" x="229.296875"/>
      <use xlink:href="#DejaVuSans-69" x="257.080078"/>
      <use xlink:href="#DejaVuSans-74" x="284.863281"/>
      <use xlink:href="#DejaVuSans-75" x="324.072266"/>
      <use xlink:href="#DejaVuSans-64" x="387.451172"/>
      <use xlink:href="#DejaVuSans-65" x="450.927734"/>
      <use xlink:href="#DejaVuSans-20" x="512.451172"/>
      <use xlink:href="#DejaVuSans-5b" x="544.238281"/>
      <use xlink:href="#DejaVuSans-64" x="583.251953"/>
      <use xlink:href="#DejaVuSans-42" x="646.728516"/>
      <use xlink:href="#DejaVuSans-5d" x="715.332031"/>
     </g>
    </g>
   </g>
   <g id="line2d_16">
    <path d="M 57.3768 262.899862 
L 57.8232 264.976432 
L 58.0464 264.213063 
L 58.716 257.630524 
L 58.9392 257.243108 
L 59.1624 258.38674 
L 59.832 265.765061 
L 60.0552 264.663435 
L 60.5016 260.520192 
L 60.7248 259.352182 
L 60.948 258.829515 
L 61.1712 258.962614 
L 61.3944 259.8199 
L 61.8408 262.475525 
L 62.064 262.582841 
L 62.5104 260.595612 
L 62.7336 260.505477 
L 63.18 262.803548 
L 63.4032 262.811654 
L 64.0728 257.68981 
L 64.296 257.876677 
L 64.5192 259.291379 
L 65.1888 264.801683 
L 65.412 264.236515 
L 66.3048 256.494659 
L 66.528 256.744398 
L 66.7512 258.53399 
L 67.1976 264.727994 
L 67.4208 265.211887 
L 68.0904 259.18194 
L 68.3136 258.366352 
L 68.5368 258.099392 
L 68.76 258.335401 
L 68.9832 259.16603 
L 69.4296 261.97714 
L 69.6528 262.360595 
L 70.3224 259.671698 
L 70.5456 260.410434 
L 70.7688 261.588177 
L 70.992 261.644912 
L 71.6616 256.914926 
L 71.8848 257.186107 
L 72.108 258.815542 
L 72.5544 263.943468 
L 72.7776 264.767243 
L 73.0008 263.260848 
L 73.6704 255.825736 
L 73.8936 255.121374 
L 74.1168 256.005403 
L 74.34 258.665918 
L 74.7864 265.908231 
L 75.0096 264.617315 
L 75.456 258.458784 
L 75.6792 257.281245 
L 75.9024 257.210995 
L 76.3488 258.289914 
L 76.7952 260.037748 
L 77.0184 261.10279 
L 77.2416 261.445867 
L 77.9112 259.243197 
L 78.3576 260.308283 
L 78.5808 259.994694 
L 79.0272 256.914525 
L 79.2504 256.27796 
L 79.4736 257.015286 
L 80.1432 263.747736 
L 80.3664 263.55037 
L 80.8128 258.782797 
L 81.2592 254.581726 
L 81.4824 254.127658 
L 81.7056 255.327212 
L 81.9288 258.524259 
L 82.3752 266.955471 
L 82.5984 263.933688 
L 83.0448 256.206845 
L 83.268 255.17624 
L 83.4912 255.627219 
L 84.1608 259.422874 
L 84.384 260.116117 
L 84.6072 260.425928 
L 84.8304 260.159286 
L 85.2768 258.653817 
L 85.5 258.595697 
L 85.9464 259.532093 
L 86.1696 258.608637 
L 86.616 255.381481 
L 86.8392 255.278634 
L 87.0624 256.796063 
L 87.5088 262.95557 
L 87.732 263.719514 
L 88.848 253.775974 
L 89.0712 253.799362 
L 89.2944 255.341241 
L 89.964 266.570065 
L 90.6336 254.429212 
L 90.8568 253.475136 
L 91.08 254.170299 
L 91.7496 259.556762 
L 91.9728 260.352882 
L 92.196 260.255921 
L 92.8656 257.043972 
L 93.0888 257.237831 
L 93.5352 258.819358 
L 93.7584 257.781586 
L 94.2048 254.06055 
L 94.428 254.028891 
L 94.6512 256.053758 
L 95.0976 264.379051 
L 95.3208 263.741182 
L 95.7672 255.869467 
L 95.9904 253.706017 
L 96.2136 252.709328 
L 96.4368 252.694239 
L 96.66 253.753616 
L 96.8832 256.189066 
L 97.3296 264.86445 
L 97.5528 264.768123 
L 97.9992 255.073288 
L 98.2224 252.688588 
L 98.4456 252.319758 
L 98.6688 253.499902 
L 99.3384 259.08514 
L 99.5616 259.896828 
L 99.7848 259.772024 
L 100.6776 255.523363 
L 101.124 257.392875 
L 101.3472 257.012501 
L 101.7936 253.382907 
L 102.0168 253.330686 
L 102.24 255.53668 
L 102.6864 264.56921 
L 102.9096 262.952637 
L 103.356 253.532481 
L 103.5792 251.290958 
L 103.8024 250.645233 
L 104.0256 251.3499 
L 104.2488 253.366597 
L 104.472 256.960391 
L 104.9184 266.488252 
L 105.1416 262.372348 
L 105.588 252.006529 
L 105.8112 250.460297 
L 106.0344 250.999795 
L 106.9272 258.772197 
L 107.5968 257.485316 
L 108.2664 254.253439 
L 108.4896 254.609861 
L 108.7128 255.400931 
L 108.936 255.337484 
L 109.3824 253.126048 
L 109.6056 253.504233 
L 109.8288 255.917427 
L 110.2752 263.577867 
L 110.4984 260.443928 
L 110.9448 251.39198 
L 111.168 249.625787 
L 111.3912 249.419333 
L 111.6144 250.502555 
L 111.8376 252.963329 
L 112.0608 257.359957 
L 112.284 264.079552 
L 112.5072 267.148459 
L 112.9536 252.986887 
L 113.1768 249.134682 
L 113.4 247.891766 
L 113.6232 248.988047 
L 114.2928 260.172294 
L 114.516 259.073694 
L 114.9624 255.54457 
L 115.632 254.146268 
L 115.8552 253.679527 
L 116.0784 253.650883 
L 116.3016 253.734454 
L 116.5248 253.354485 
L 116.748 252.582914 
L 116.9712 252.308791 
L 117.1944 253.532538 
L 117.864 262.280732 
L 118.3104 251.51024 
L 118.5336 248.734084 
L 118.7568 247.942417 
L 118.98 248.703146 
L 119.2032 250.70333 
L 119.6496 258.671569 
L 119.8728 264.568172 
L 120.096 264.561266 
L 120.5424 250.601763 
L 120.7656 246.962965 
L 120.9888 245.872894 
L 121.212 247.222791 
L 121.4352 251.082547 
L 121.8816 261.95917 
L 122.1048 259.719472 
L 122.5512 253.294169 
L 122.7744 252.461335 
L 122.9976 252.335764 
L 123.2208 252.386396 
L 123.444 252.605132 
L 123.6672 253.014532 
L 123.8904 253.100606 
L 124.56 250.92622 
L 124.7832 252.713095 
L 125.2296 263.476253 
L 125.4528 261.014782 
L 125.8992 247.842823 
L 126.1224 245.4471 
L 126.3456 245.454956 
L 126.5688 247.521798 
L 127.0152 256.552629 
L 127.2384 262.157649 
L 127.4616 264.165269 
L 128.3544 245.192981 
L 128.5776 244.666923 
L 128.8008 246.435722 
L 129.024 250.827258 
L 129.4704 262.52046 
L 130.14 251.66603 
L 130.3632 250.629771 
L 130.5864 250.149818 
L 130.8096 250.029681 
L 131.0328 250.497514 
L 131.4792 252.433977 
L 131.7024 252.185985 
L 132.1488 250.374054 
L 132.372 251.73743 
L 132.8184 262.926327 
L 133.0416 259.271645 
L 133.488 245.010036 
L 133.7112 242.714756 
L 133.9344 242.995742 
L 134.1576 245.676957 
L 134.3808 251.014909 
L 134.8272 268.300149 
L 135.72 244.264812 
L 135.9432 242.661252 
L 136.1664 243.141564 
L 136.3896 246.161956 
L 137.0592 261.80542 
L 137.5056 250.921389 
L 137.7288 249.350398 
L 137.952 249.14807 
L 138.1752 249.17518 
L 138.6216 248.426548 
L 138.8448 248.880898 
L 139.2912 251.84623 
L 139.5144 251.732359 
L 139.7376 250.974693 
L 139.9608 251.864371 
L 140.4072 259.536946 
L 140.6304 255.035523 
L 141.0768 243.032295 
L 141.3 240.978313 
L 141.5232 241.401258 
L 141.7464 244.482933 
L 141.9696 251.028797 
L 142.416 271.285188 
L 142.8624 249.048818 
L 143.3088 240.548297 
L 143.532 239.503476 
L 143.7552 240.823489 
L 143.9784 245.138914 
L 144.2016 254.058291 
L 144.4248 269.49583 
L 145.0944 245.956783 
L 145.3176 245.165056 
L 145.764 248.71558 
L 145.9872 248.8029 
L 146.2104 247.519799 
L 146.4336 247.055 
L 146.6568 248.06571 
L 147.1032 251.042439 
L 147.3264 251.930213 
L 147.7728 255.785165 
L 147.996 254.988299 
L 148.6656 240.255607 
L 148.8888 239.05657 
L 149.112 240.503472 
L 149.3352 245.097281 
L 149.5584 254.234743 
L 149.7816 270.629724 
L 150.0048 264.150306 
L 150.4512 245.024753 
L 150.8976 238.040512 
L 151.1208 237.354021 
L 151.344 238.848772 
L 151.5672 243.382226 
L 151.7904 253.625631 
L 152.0136 286.465565 
L 152.2368 257.381109 
L 152.46 245.702722 
L 152.6832 241.300679 
L 152.9064 240.735635 
L 153.1296 242.822422 
L 153.576 248.529722 
L 153.7992 248.2129 
L 154.0224 247.103999 
L 154.2456 246.820755 
L 154.4688 247.614236 
L 154.9152 251.15275 
L 155.3616 255.656278 
L 155.5848 252.104291 
L 156.0312 239.353623 
L 156.2544 236.350276 
L 156.4776 236.067159 
L 156.7008 238.764399 
L 156.924 245.50303 
L 157.3704 278.412116 
L 157.5936 252.374872 
L 157.8168 243.749893 
L 158.2632 237.336555 
L 158.4864 236.283423 
L 158.7096 236.385106 
L 158.9328 238.293556 
L 159.156 243.359357 
L 159.3792 255.373243 
L 159.6024 297.720773 
L 159.8256 252.202079 
L 160.0488 241.959898 
L 160.272 237.874497 
L 160.4952 237.245928 
L 160.7184 239.193845 
L 161.1648 246.655013 
L 161.388 247.895285 
L 161.6112 247.458355 
L 161.8344 247.410553 
L 162.2808 248.117245 
L 162.504 248.50022 
L 162.9504 252.750537 
L 163.1736 249.716753 
L 163.62 236.283132 
L 163.8432 233.152167 
L 164.0664 232.84081 
L 164.2896 235.700755 
L 164.5128 243.130725 
L 164.736 260.407324 
L 164.9592 257.306103 
L 165.1824 242.452097 
L 165.4056 235.947732 
L 165.6288 233.095136 
L 165.852 232.343025 
L 166.0752 233.012244 
L 166.2984 234.978122 
L 166.5216 238.810788 
L 166.7448 246.396352 
L 166.968 266.168957 
L 167.1912 263.057222 
L 167.4144 244.29369 
L 167.6376 236.940297 
L 167.8608 234.16845 
L 168.084 234.532664 
L 168.3072 237.402941 
L 168.7536 245.069308 
L 168.9768 245.59191 
L 169.2 245.678187 
L 169.6464 249.758159 
L 169.8696 249.633486 
L 170.316 245.031638 
L 170.5392 245.254633 
L 170.7624 244.74887 
L 171.432 231.431189 
L 171.6552 231.022807 
L 171.8784 233.939922 
L 172.1016 241.504978 
L 172.3248 255.163331 
L 172.9944 229.833631 
L 173.2176 227.370084 
L 173.4408 227.148807 
L 173.664 228.641369 
L 173.8872 231.705003 
L 174.1104 236.990633 
L 174.5568 261.123143 
L 175.0032 234.551033 
L 175.2264 229.836324 
L 175.4496 228.595619 
L 175.6728 230.279042 
L 175.896 235.02586 
L 176.3424 249.17123 
L 176.7888 241.363121 
L 177.012 242.773126 
L 177.4584 253.4145 
L 177.9048 240.398266 
L 179.0208 230.436347 
L 179.244 230.938629 
L 179.4672 234.579185 
L 179.9136 250.768492 
L 180.36 229.101181 
L 180.5832 224.729854 
L 180.8064 223.194419 
L 181.0296 223.56266 
L 181.2528 225.283129 
L 181.476 228.379865 
L 181.6992 233.715498 
L 181.9224 242.384729 
L 182.1456 244.608311 
L 182.592 226.758737 
L 182.8152 222.753622 
L 183.0384 221.57475 
L 183.2616 223.265831 
L 183.4848 228.652666 
L 183.708 240.623169 
L 183.9312 272.349351 
L 184.1544 245.553518 
L 184.3776 237.780365 
L 184.6008 237.657134 
L 185.0472 249.683553 
L 185.2704 246.302738 
L 185.7168 233.210962 
L 186.1632 228.439139 
L 186.3864 227.437778 
L 186.6096 227.180345 
L 186.8328 228.623567 
L 187.056 233.193174 
L 187.2792 240.202259 
L 187.5024 235.790659 
L 187.9488 220.893959 
L 188.172 218.390186 
L 188.3952 218.12743 
L 188.6184 219.632608 
L 188.8416 222.758614 
L 189.288 234.837156 
L 189.5112 242.382313 
L 189.7344 237.792519 
L 190.1808 220.675632 
L 190.404 216.573386 
L 190.6272 215.275409 
L 190.8504 216.846304 
L 191.0736 221.792693 
L 191.2968 231.785044 
L 191.52 252.923597 
L 191.7432 245.7886 
L 191.9664 234.753417 
L 192.1896 231.859779 
L 192.4128 233.829264 
L 192.636 239.554323 
L 192.8592 241.408482 
L 193.3056 229.741908 
L 193.9752 223.265031 
L 194.1984 222.028111 
L 194.4216 223.104512 
L 194.6448 226.742137 
L 194.868 228.50596 
L 195.5376 211.413998 
L 195.7608 209.364243 
L 195.984 209.498137 
L 196.2072 211.86576 
L 196.4304 216.658426 
L 196.8768 231.845629 
L 197.1 232.880219 
L 197.7696 214.088531 
L 197.9928 211.139503 
L 198.216 210.482418 
L 198.4392 212.16813 
L 198.6624 216.52318 
L 199.1088 235.327324 
L 199.332 233.906622 
L 199.5552 227.471571 
L 199.7784 226.024575 
L 200.2248 231.413232 
L 200.6712 224.673176 
L 200.8944 224.076228 
L 201.1176 225.560676 
L 201.3408 225.561868 
L 201.7872 220.796473 
L 202.0104 221.190463 
L 202.2336 223.232481 
L 202.4568 221.344553 
L 203.1264 202.228617 
L 203.3496 200.011962 
L 203.5728 199.99637 
L 203.796 202.016418 
L 204.4656 212.921216 
L 204.6888 211.997381 
L 205.3584 203.967987 
L 205.5816 202.865413 
L 205.8048 203.086224 
L 206.028 204.998124 
L 206.6976 218.594074 
L 207.144 215.765345 
L 207.3672 218.215811 
L 207.5904 224.60619 
L 207.8136 226.609341 
L 208.26 213.930012 
L 208.4832 212.348685 
L 208.7064 214.104281 
L 208.9296 219.341675 
L 209.376 232.835989 
L 209.5992 231.487649 
L 209.8224 228.804068 
L 210.492 198.843536 
L 210.9384 191.630535 
L 211.1616 191.152198 
L 211.3848 192.21143 
L 211.8312 196.132808 
L 212.0544 196.672265 
L 212.2776 195.648987 
L 212.9472 190.770469 
L 213.1704 189.842462 
L 213.3936 189.826747 
L 213.6168 190.975475 
L 214.0632 195.057872 
L 214.2864 195.611175 
L 214.5096 195.231183 
L 214.7328 195.752708 
L 214.956 198.745803 
L 215.1792 206.184291 
L 215.4024 225.274704 
L 215.6256 222.63453 
L 215.8488 206.307977 
L 216.072 200.58583 
L 216.2952 199.739344 
L 216.5184 202.537206 
L 217.188 217.957388 
L 217.4112 213.249624 
L 218.0808 187.702014 
L 218.5272 180.584565 
L 218.7504 179.531056 
L 218.9736 179.611851 
L 219.42 180.543899 
L 219.6432 180.261017 
L 220.0896 178.544664 
L 221.2056 172.769099 
L 221.4288 172.450621 
L 221.652 171.911658 
L 222.0984 170.415998 
L 222.3216 170.681713 
L 222.5448 172.554091 
L 222.768 176.763883 
L 222.9912 184.494981 
L 223.2144 198.070436 
L 223.4376 204.785952 
L 223.6608 194.287051 
L 223.884 189.852309 
L 224.1072 189.101726 
L 224.3304 189.324723 
L 224.5536 188.412086 
L 224.7768 186.094063 
L 225.2232 176.92877 
L 225.8928 160.766579 
L 226.3392 155.280244 
L 227.0088 150.389178 
L 227.232 149.525822 
L 227.4552 149.452602 
L 227.6784 150.066593 
L 227.9016 151.256963 
L 228.1248 151.37653 
L 228.348 150.798261 
L 228.5712 146.936318 
L 228.7944 145.658596 
L 229.0176 139.728817 
L 229.2408 139.588653 
L 229.464 136.241238 
L 229.6872 140.247805 
L 229.9104 134.415347 
L 230.1336 134.158822 
L 230.3568 131.531345 
L 230.58 161.419718 
L 230.8032 151.582603 
L 231.0264 128.639921 
L 231.2496 135.431549 
L 231.4728 114.908183 
L 231.696 127.559546 
L 231.9192 127.983485 
L 232.3656 125.808864 
L 232.5888 172.891527 
L 232.812 99.058295 
L 233.0352 118.093859 
L 233.4816 87.63392 
L 233.7048 84.918752 
L 233.928 104.511558 
L 234.1512 99.425928 
L 234.3744 75.918672 
L 234.5976 116.258817 
L 234.8208 90.729235 
L 235.044 95.52653 
L 235.2672 86.277052 
L 235.7136 139.268687 
L 235.9368 143.216785 
L 236.009825 346.6 
M 236.310175 346.6 
L 236.3832 143.216785 
L 236.6064 139.268687 
L 236.8296 121.132766 
L 237.0528 86.277052 
L 237.276 95.52653 
L 237.4992 90.729235 
L 237.7224 116.258817 
L 237.9456 75.918672 
L 238.1688 99.425928 
L 238.392 104.511558 
L 238.6152 84.918752 
L 238.8384 87.63392 
L 239.0616 98.795303 
L 239.2848 118.093859 
L 239.508 99.058295 
L 239.7312 172.891527 
L 239.9544 125.808864 
L 240.4008 127.983485 
L 240.624 127.559546 
L 240.8472 114.908183 
L 241.0704 135.431549 
L 241.2936 128.639921 
L 241.5168 151.582603 
L 241.74 161.419718 
L 241.9632 131.531345 
L 242.1864 134.158822 
L 242.4096 134.415347 
L 242.6328 140.247805 
L 242.856 136.241238 
L 243.0792 139.588653 
L 243.3024 139.728817 
L 243.5256 145.658596 
L 243.7488 146.936318 
L 243.972 150.798261 
L 244.1952 151.37653 
L 244.4184 151.256963 
L 244.8648 149.452602 
L 245.088 149.525822 
L 245.3112 150.389178 
L 245.7576 153.40637 
L 246.204 157.585942 
L 246.6504 165.131346 
L 247.5432 186.094063 
L 247.7664 188.412086 
L 247.9896 189.324723 
L 248.2128 189.101726 
L 248.436 189.852309 
L 248.6592 194.287051 
L 248.8824 204.785952 
L 249.1056 198.070436 
L 249.552 176.763883 
L 249.7752 172.554091 
L 249.9984 170.681713 
L 250.2216 170.415998 
L 251.1144 172.769099 
L 251.3376 173.300342 
L 251.784 175.781745 
L 252.2304 178.544664 
L 252.6768 180.261017 
L 252.9 180.543899 
L 253.1232 180.198371 
L 253.3464 179.611851 
L 253.5696 179.531056 
L 253.7928 180.584565 
L 254.016 183.194191 
L 254.4624 194.451452 
L 255.132 217.957388 
L 255.3552 215.177215 
L 255.8016 202.537206 
L 256.0248 199.739344 
L 256.248 200.58583 
L 256.4712 206.307977 
L 256.6944 222.63453 
L 256.9176 225.274704 
L 257.1408 206.184291 
L 257.364 198.745803 
L 257.5872 195.752708 
L 257.8104 195.231183 
L 258.0336 195.611175 
L 258.2568 195.057872 
L 258.9264 189.826747 
L 259.1496 189.842462 
L 259.3728 190.770469 
L 260.2656 196.672265 
L 260.4888 196.132808 
L 261.1584 191.152198 
L 261.3816 191.630535 
L 261.6048 194.046495 
L 261.828 198.843536 
L 262.2744 217.922001 
L 262.4976 228.804068 
L 262.944 232.835989 
L 263.1672 227.756022 
L 263.6136 214.104281 
L 263.8368 212.348685 
L 264.06 213.930012 
L 264.5064 226.609341 
L 264.7296 224.60619 
L 264.9528 218.215811 
L 265.176 215.765345 
L 265.6224 218.594074 
L 265.8456 214.840208 
L 266.292 204.998124 
L 266.5152 203.086224 
L 266.7384 202.865413 
L 266.9616 203.967987 
L 267.408 209.071963 
L 267.6312 211.997381 
L 267.8544 212.921216 
L 268.0776 210.207757 
L 268.524 202.016418 
L 268.7472 199.99637 
L 268.9704 200.011962 
L 269.1936 202.228617 
L 269.4168 206.824249 
L 269.8632 221.344553 
L 270.0864 223.232481 
L 270.3096 221.190463 
L 270.5328 220.796473 
L 270.9792 225.561868 
L 271.2024 225.560676 
L 271.4256 224.076228 
L 271.6488 224.673176 
L 272.0952 231.413232 
L 272.5416 226.024575 
L 272.7648 227.471571 
L 272.988 233.906622 
L 273.2112 235.327324 
L 273.6576 216.52318 
L 273.8808 212.16813 
L 274.104 210.482418 
L 274.3272 211.139503 
L 274.5504 214.088531 
L 274.9968 226.334858 
L 275.22 232.880219 
L 275.4432 231.845629 
L 276.1128 211.86576 
L 276.336 209.498137 
L 276.5592 209.364243 
L 276.7824 211.413998 
L 277.0056 215.806832 
L 277.452 228.50596 
L 277.6752 226.742137 
L 277.8984 223.104512 
L 278.1216 222.028111 
L 278.3448 223.265031 
L 279.0144 229.741908 
L 279.4608 241.408482 
L 279.684 239.554323 
L 279.9072 233.829264 
L 280.1304 231.859779 
L 280.3536 234.753417 
L 280.8 252.923597 
L 281.0232 231.785044 
L 281.2464 221.792693 
L 281.4696 216.846304 
L 281.6928 215.275409 
L 281.916 216.573386 
L 282.1392 220.675632 
L 282.8088 242.382313 
L 283.4784 222.758614 
L 283.7016 219.632608 
L 283.9248 218.12743 
L 284.148 218.390186 
L 284.3712 220.893959 
L 284.5944 226.472514 
L 284.8176 235.790659 
L 285.0408 240.202259 
L 285.4872 228.623567 
L 285.7104 227.180345 
L 285.9336 227.437778 
L 286.1568 228.439139 
L 286.38 230.145319 
L 286.6032 233.210962 
L 287.2728 249.683553 
L 287.7192 237.657134 
L 287.9424 237.780365 
L 288.1656 245.553518 
L 288.3888 272.349351 
L 288.612 240.623169 
L 288.8352 228.652666 
L 289.0584 223.265831 
L 289.2816 221.57475 
L 289.5048 222.753622 
L 289.728 226.758737 
L 290.1744 244.608311 
L 290.3976 242.384729 
L 290.844 228.379865 
L 291.2904 223.56266 
L 291.5136 223.194419 
L 291.7368 224.729854 
L 291.96 229.101181 
L 292.4064 250.768492 
L 293.076 230.938629 
L 293.2992 230.436347 
L 293.5224 232.098493 
L 293.9688 237.078327 
L 294.192 238.234555 
L 294.4152 240.398266 
L 294.8616 253.4145 
L 295.0848 249.17626 
L 295.308 242.773126 
L 295.5312 241.363121 
L 295.9776 249.17123 
L 296.6472 230.279042 
L 296.8704 228.595619 
L 297.0936 229.836324 
L 297.3168 234.551033 
L 297.54 244.738088 
L 297.7632 261.123143 
L 298.2096 236.990633 
L 298.656 228.641369 
L 298.8792 227.148807 
L 299.1024 227.370084 
L 299.3256 229.833631 
L 299.5488 235.561647 
L 299.9952 255.163331 
L 300.4416 233.939922 
L 300.6648 231.022807 
L 300.888 231.431189 
L 301.1112 234.708331 
L 301.5576 244.74887 
L 301.7808 245.254633 
L 302.004 245.031638 
L 302.2272 246.836241 
L 302.4504 249.633486 
L 302.6736 249.758159 
L 303.12 245.678187 
L 303.3432 245.59191 
L 303.5664 245.069308 
L 304.236 234.532664 
L 304.4592 234.16845 
L 304.6824 236.940297 
L 304.9056 244.29369 
L 305.1288 263.057222 
L 305.352 266.168957 
L 305.5752 246.396352 
L 306.0216 234.978122 
L 306.2448 233.012244 
L 306.468 232.343025 
L 306.6912 233.095136 
L 306.9144 235.947732 
L 307.1376 242.452097 
L 307.3608 257.306103 
L 307.584 260.407324 
L 307.8072 243.130725 
L 308.0304 235.700755 
L 308.2536 232.84081 
L 308.4768 233.152167 
L 308.7 236.283132 
L 309.3696 252.750537 
L 309.816 248.50022 
L 310.4856 247.410553 
L 310.7088 247.458355 
L 310.932 247.895285 
L 311.1552 246.655013 
L 311.8248 237.245928 
L 312.048 237.874497 
L 312.2712 241.959898 
L 312.4944 252.202079 
L 312.7176 297.720773 
L 312.9408 255.373243 
L 313.164 243.359357 
L 313.3872 238.293556 
L 313.6104 236.385106 
L 313.8336 236.283423 
L 314.0568 237.336555 
L 314.28 239.543051 
L 314.5032 243.749893 
L 314.7264 252.374872 
L 314.9496 278.412116 
L 315.396 245.50303 
L 315.6192 238.764399 
L 315.8424 236.067159 
L 316.0656 236.350276 
L 316.2888 239.353623 
L 316.9584 255.656278 
L 318.0744 246.820755 
L 318.2976 247.103999 
L 318.5208 248.2129 
L 318.744 248.529722 
L 319.4136 240.735635 
L 319.6368 241.300679 
L 319.86 245.702722 
L 320.0832 257.381109 
L 320.3064 286.465565 
L 320.5296 253.625631 
L 320.7528 243.382226 
L 320.976 238.848772 
L 321.1992 237.354021 
L 321.4224 238.040512 
L 321.6456 240.592718 
L 321.8688 245.024753 
L 322.092 252.006823 
L 322.5384 270.629724 
L 322.9848 245.097281 
L 323.208 240.503472 
L 323.4312 239.05657 
L 323.6544 240.255607 
L 323.8776 243.892301 
L 324.324 254.988299 
L 324.5472 255.785165 
L 324.9936 251.930213 
L 325.44 249.78383 
L 325.8864 247.055 
L 326.1096 247.519799 
L 326.3328 248.8029 
L 326.556 248.71558 
L 327.0024 245.165056 
L 327.2256 245.956783 
L 327.4488 250.338831 
L 327.8952 269.49583 
L 328.3416 245.138914 
L 328.5648 240.823489 
L 328.788 239.503476 
L 329.0112 240.548297 
L 329.2344 243.694412 
L 329.4576 249.048818 
L 329.6808 257.732635 
L 329.904 271.285188 
L 330.7968 241.401258 
L 331.02 240.978313 
L 331.2432 243.032295 
L 331.4664 247.760806 
L 331.9128 259.536946 
L 332.3592 251.864371 
L 332.5824 250.974693 
L 332.8056 251.732359 
L 333.0288 251.84623 
L 333.4752 248.880898 
L 333.6984 248.426548 
L 334.1448 249.17518 
L 334.368 249.14807 
L 334.5912 249.350398 
L 334.8144 250.921389 
L 335.0376 255.038176 
L 335.2608 261.80542 
L 335.484 261.326388 
L 335.9304 246.161956 
L 336.1536 243.141564 
L 336.3768 242.661252 
L 336.6 244.264812 
L 336.8232 247.754104 
L 337.0464 253.355676 
L 337.4928 268.300149 
L 338.1624 245.676957 
L 338.3856 242.995742 
L 338.6088 242.714756 
L 338.832 245.010036 
L 339.0552 250.448582 
L 339.2784 259.271645 
L 339.5016 262.926327 
L 339.948 251.73743 
L 340.1712 250.374054 
L 340.3944 251.007798 
L 340.6176 252.185985 
L 340.8408 252.433977 
L 341.5104 250.029681 
L 341.7336 250.149818 
L 341.9568 250.629771 
L 342.18 251.66603 
L 342.4032 254.082818 
L 342.8496 262.52046 
L 343.7424 244.666923 
L 343.9656 245.192981 
L 344.1888 247.868497 
L 344.8584 264.165269 
L 345.0816 262.157649 
L 345.7512 247.521798 
L 345.9744 245.454956 
L 346.1976 245.4471 
L 346.4208 247.842823 
L 347.0904 263.476253 
L 347.5368 252.713095 
L 347.76 250.92622 
L 347.9832 251.154845 
L 348.4296 253.100606 
L 348.6528 253.014532 
L 349.0992 252.386396 
L 349.3224 252.335764 
L 349.5456 252.461335 
L 349.7688 253.294169 
L 349.992 255.644978 
L 350.4384 261.95917 
L 351.108 247.222791 
L 351.3312 245.872894 
L 351.5544 246.962965 
L 351.7776 250.601763 
L 352.224 264.561266 
L 352.4472 264.568172 
L 352.8936 253.909403 
L 353.34 248.703146 
L 353.5632 247.942417 
L 353.7864 248.734084 
L 354.0096 251.51024 
L 354.456 262.280732 
L 354.6792 261.825574 
L 355.1256 253.532538 
L 355.3488 252.308791 
L 355.572 252.582914 
L 356.0184 253.734454 
L 356.4648 253.679527 
L 357.3576 255.54457 
L 357.5808 256.781319 
L 357.804 259.073694 
L 358.0272 260.172294 
L 358.4736 252.268319 
L 358.6968 248.988047 
L 358.92 247.891766 
L 359.1432 249.134682 
L 359.3664 252.986887 
L 359.8128 267.148459 
L 360.036 264.079552 
L 360.4824 252.963329 
L 360.7056 250.502555 
L 360.9288 249.419333 
L 361.152 249.625787 
L 361.3752 251.39198 
L 362.0448 263.577867 
L 362.7144 253.504233 
L 362.9376 253.126048 
L 363.384 255.337484 
L 363.6072 255.400931 
L 363.8304 254.609861 
L 364.0536 254.253439 
L 364.2768 254.949364 
L 364.7232 257.485316 
L 365.3928 258.772197 
L 365.616 258.265337 
L 366.5088 250.460297 
L 366.732 252.006529 
L 366.9552 256.024253 
L 367.4016 266.488252 
L 368.2944 251.3499 
L 368.5176 250.645233 
L 368.7408 251.290958 
L 368.964 253.532481 
L 369.6336 264.56921 
L 370.08 255.53668 
L 370.3032 253.330686 
L 370.5264 253.382907 
L 370.9728 257.012501 
L 371.196 257.392875 
L 371.6424 255.523363 
L 371.8656 255.731764 
L 372.5352 259.772024 
L 372.7584 259.896828 
L 372.9816 259.08514 
L 373.428 255.528859 
L 373.8744 252.319758 
L 374.0976 252.688588 
L 374.3208 255.073288 
L 374.7672 264.768123 
L 374.9904 264.86445 
L 375.4368 256.189066 
L 375.66 253.753616 
L 375.8832 252.694239 
L 376.1064 252.709328 
L 376.3296 253.706017 
L 376.5528 255.869467 
L 376.9992 263.741182 
L 377.2224 264.379051 
L 377.6688 256.053758 
L 377.892 254.028891 
L 378.1152 254.06055 
L 378.7848 258.819358 
L 379.008 258.219013 
L 379.2312 257.237831 
L 379.4544 257.043972 
L 379.6776 257.878759 
L 380.124 260.255921 
L 380.3472 260.352882 
L 380.5704 259.556762 
L 381.4632 253.475136 
L 381.6864 254.429212 
L 381.9096 257.426562 
L 382.356 266.570065 
L 382.5792 264.009345 
L 383.0256 255.341241 
L 383.2488 253.799362 
L 383.472 253.775974 
L 383.6952 254.772189 
L 384.1416 258.725533 
L 384.588 263.719514 
L 384.8112 262.95557 
L 385.2576 256.796063 
L 385.4808 255.278634 
L 385.704 255.381481 
L 386.3736 259.532093 
L 386.5968 259.182223 
L 386.82 258.595697 
L 387.0432 258.653817 
L 387.4896 260.159286 
L 387.7128 260.425928 
L 387.936 260.116117 
L 388.1592 259.422874 
L 388.6056 256.919482 
L 388.8288 255.627219 
L 389.052 255.17624 
L 389.2752 256.206845 
L 389.4984 259.185287 
L 389.9448 266.955471 
L 390.8376 254.127658 
L 391.0608 254.581726 
L 391.5072 258.782797 
L 391.9536 263.55037 
L 392.1768 263.747736 
L 393.0696 256.27796 
L 393.2928 256.914525 
L 393.7392 259.994694 
L 393.9624 260.308283 
L 394.4088 259.243197 
L 394.632 259.663775 
L 395.0784 261.445867 
L 395.3016 261.10279 
L 395.9712 258.289914 
L 396.4176 257.210995 
L 396.6408 257.281245 
L 396.864 258.458784 
L 397.5336 265.908231 
L 398.2032 256.005403 
L 398.4264 255.121374 
L 398.6496 255.825736 
L 399.096 260.518623 
L 399.5424 264.767243 
L 399.7656 263.943468 
L 400.4352 257.186107 
L 400.6584 256.914926 
L 400.8816 258.008852 
L 401.328 261.644912 
L 401.5512 261.588177 
L 401.9976 259.671698 
L 402.2208 260.088757 
L 402.6672 262.360595 
L 402.8904 261.97714 
L 403.56 258.335401 
L 403.7832 258.099392 
L 404.0064 258.366352 
L 404.2296 259.18194 
L 404.676 263.105197 
L 404.8992 265.211887 
L 405.1224 264.727994 
L 405.792 256.744398 
L 406.0152 256.494659 
L 406.2384 257.6087 
L 406.908 264.236515 
L 407.1312 264.801683 
L 407.3544 263.655188 
L 408.024 257.876677 
L 408.2472 257.68981 
L 408.4704 258.858902 
L 408.9168 262.811654 
L 409.14 262.803548 
L 409.5864 260.505477 
L 409.8096 260.595612 
L 410.256 262.582841 
L 410.4792 262.475525 
L 411.1488 258.962614 
L 411.372 258.829515 
L 411.5952 259.352182 
L 411.8184 260.520192 
L 412.488 265.765061 
L 412.7112 264.08884 
L 413.1576 258.38674 
L 413.3808 257.243108 
L 413.604 257.630524 
L 414.0504 261.948532 
L 414.2736 264.213063 
L 414.4968 264.976432 
L 414.72 264.270351 
L 414.9432 262.899862 
L 414.9432 262.899862 
" clip-path="url(#p8e0e86d398)" style="fill: none; stroke: #1f77b4; stroke-width: 1.5; stroke-linecap: square"/>
   </g>
   <g id="patch_3">
    <path d="M 57.6 307.584 
L 57.6 41.472 
" style="fill: none; stroke: #000000; stroke-width: 0.8; stroke-linejoin: miter; stroke-linecap: square"/>
   </g>
   <g id="patch_4">
    <path d="M 414.72 307.584 
L 414.72 41.472 
" style="fill: none; stroke: #000000; stroke-width: 0.8; stroke-linejoin: miter; stroke-linecap: square"/>
   </g>
   <g id="patch_5">
    <path d="M 57.6 307.584 
L 414.72 307.584 
" style="fill: none; stroke: #000000; stroke-width: 0.8; stroke-linejoin: miter; stroke-linecap: square"/>
   </g>
   <g id="patch_6">
    <path d="M 57.6 41.472 
L 414.72 41.472 
" style="fill: none; stroke: #000000; stroke-width: 0.8; stroke-linejoin: miter; stroke-linecap: square"/>
   </g>
  </g>
 </g>
 <defs>
  <clipPath id="p8e0e86d398">
   <rect x="57.6" y="41.472" width="357.12" height="266.112"/>
  </clipPath>
 </defs>
</svg>
