<?xml version="1.0" encoding="utf-8" standalone="no"?>
<!DOCTYPE svg PUBLIC "-//W3C//DTD SVG 1.1//EN"
  "http://www.w3.org/Graphics/SVG/1.1/DTD/svg11.dtd">
<svg xmlns:xlink="http://www.w3.org/1999/xlink" width="460.8pt" height="345.6pt" viewBox="0 0 460.8 345.6" xmlns="http://www.w3.org/2000/svg" version="1.1">
 <metadata>
  <rdf:RDF xmlns:dc="http://purl.org/dc/elements/1.1/" xmlns:cc="http://creativecommons.org/ns#" xmlns:rdf="http://www.w3.org/1999/02/22-rdf-syntax-ns#">
   <cc:Work>
    <dc:type rdf:resource="http://purl.org/dc/dcmitype/StillImage"/>
    <dc:date>2024-06-05T15:50:42.288771</dc:date>
    <dc:format>image/svg+xml</dc:format>
    <dc:creator>
     <cc:Agent>
      <dc:title>Matplotlib v3.8.2, https://matplotlib.org/</dc:title>
     </cc:Agent>
    </dc:creator>
   </cc:Work>
  </rdf:RDF>
 </metadata>
 <defs>
  <style type="text/css">*{stroke-linejoin: round; stroke-linecap: butt}</style>
 </defs>
 <g id="figure_1">
  <g id="patch_1">
   <path d="M 0 345.6 
L 460.8 345.6 
L 460.8 0 
L 0 0 
z
" style="fill: #ffffff"/>
  </g>
  <g id="axes_1">
   <g id="patch_2">
    <path d="M 57.6 307.584 
L 414.72 307.584 
L 414.72 41.472 
L 57.6 41.472 
z
" style="fill: #ffffff"/>
   </g>
   <g id="matplotlib.axis_1">
    <g id="xtick_1">
     <g id="line2d_1">
      <defs>
       <path id="m595b050d21" d="M 0 0 
L 0 3.5 
" style="stroke: #000000; stroke-width: 0.8"/>
      </defs>
      <g>
       <use xlink:href="#m595b050d21" x="73.832727" y="307.584" style="stroke: #000000; stroke-width: 0.8"/>
      </g>
     </g>
     <g id="text_1">
      <!-- 0 -->
      <g transform="translate(70.651477 322.182437) scale(0.1 -0.1)">
       <defs>
        <path id="DejaVuSans-30" d="M 2034 4250 
Q 1547 4250 1301 3770 
Q 1056 3291 1056 2328 
Q 1056 1369 1301 889 
Q 1547 409 2034 409 
Q 2525 409 2770 889 
Q 3016 1369 3016 2328 
Q 3016 3291 2770 3770 
Q 2525 4250 2034 4250 
z
M 2034 4750 
Q 2819 4750 3233 4129 
Q 3647 3509 3647 2328 
Q 3647 1150 3233 529 
Q 2819 -91 2034 -91 
Q 1250 -91 836 529 
Q 422 1150 422 2328 
Q 422 3509 836 4129 
Q 1250 4750 2034 4750 
z
" transform="scale(0.015625)"/>
       </defs>
       <use xlink:href="#DejaVuSans-30"/>
      </g>
     </g>
    </g>
    <g id="xtick_2">
     <g id="line2d_2">
      <g>
       <use xlink:href="#m595b050d21" x="127.941818" y="307.584" style="stroke: #000000; stroke-width: 0.8"/>
      </g>
     </g>
     <g id="text_2">
      <!-- 10 -->
      <g transform="translate(121.579318 322.182437) scale(0.1 -0.1)">
       <defs>
        <path id="DejaVuSans-31" d="M 794 531 
L 1825 531 
L 1825 4091 
L 703 3866 
L 703 4441 
L 1819 4666 
L 2450 4666 
L 2450 531 
L 3481 531 
L 3481 0 
L 794 0 
L 794 531 
z
" transform="scale(0.015625)"/>
       </defs>
       <use xlink:href="#DejaVuSans-31"/>
       <use xlink:href="#DejaVuSans-30" x="63.623047"/>
      </g>
     </g>
    </g>
    <g id="xtick_3">
     <g id="line2d_3">
      <g>
       <use xlink:href="#m595b050d21" x="182.050909" y="307.584" style="stroke: #000000; stroke-width: 0.8"/>
      </g>
     </g>
     <g id="text_3">
      <!-- 20 -->
      <g transform="translate(175.688409 322.182437) scale(0.1 -0.1)">
       <defs>
        <path id="DejaVuSans-32" d="M 1228 531 
L 3431 531 
L 3431 0 
L 469 0 
L 469 531 
Q 828 903 1448 1529 
Q 2069 2156 2228 2338 
Q 2531 2678 2651 2914 
Q 2772 3150 2772 3378 
Q 2772 3750 2511 3984 
Q 2250 4219 1831 4219 
Q 1534 4219 1204 4116 
Q 875 4013 500 3803 
L 500 4441 
Q 881 4594 1212 4672 
Q 1544 4750 1819 4750 
Q 2544 4750 2975 4387 
Q 3406 4025 3406 3419 
Q 3406 3131 3298 2873 
Q 3191 2616 2906 2266 
Q 2828 2175 2409 1742 
Q 1991 1309 1228 531 
z
" transform="scale(0.015625)"/>
       </defs>
       <use xlink:href="#DejaVuSans-32"/>
       <use xlink:href="#DejaVuSans-30" x="63.623047"/>
      </g>
     </g>
    </g>
    <g id="xtick_4">
     <g id="line2d_4">
      <g>
       <use xlink:href="#m595b050d21" x="236.16" y="307.584" style="stroke: #000000; stroke-width: 0.8"/>
      </g>
     </g>
     <g id="text_4">
      <!-- 30 -->
      <g transform="translate(229.7975 322.182437) scale(0.1 -0.1)">
       <defs>
        <path id="DejaVuSans-33" d="M 2597 2516 
Q 3050 2419 3304 2112 
Q 3559 1806 3559 1356 
Q 3559 666 3084 287 
Q 2609 -91 1734 -91 
Q 1441 -91 1130 -33 
Q 819 25 488 141 
L 488 750 
Q 750 597 1062 519 
Q 1375 441 1716 441 
Q 2309 441 2620 675 
Q 2931 909 2931 1356 
Q 2931 1769 2642 2001 
Q 2353 2234 1838 2234 
L 1294 2234 
L 1294 2753 
L 1863 2753 
Q 2328 2753 2575 2939 
Q 2822 3125 2822 3475 
Q 2822 3834 2567 4026 
Q 2313 4219 1838 4219 
Q 1578 4219 1281 4162 
Q 984 4106 628 3988 
L 628 4550 
Q 988 4650 1302 4700 
Q 1616 4750 1894 4750 
Q 2613 4750 3031 4423 
Q 3450 4097 3450 3541 
Q 3450 3153 3228 2886 
Q 3006 2619 2597 2516 
z
" transform="scale(0.015625)"/>
       </defs>
       <use xlink:href="#DejaVuSans-33"/>
       <use xlink:href="#DejaVuSans-30" x="63.623047"/>
      </g>
     </g>
    </g>
    <g id="xtick_5">
     <g id="line2d_5">
      <g>
       <use xlink:href="#m595b050d21" x="290.269091" y="307.584" style="stroke: #000000; stroke-width: 0.8"/>
      </g>
     </g>
     <g id="text_5">
      <!-- 40 -->
      <g transform="translate(283.906591 322.182437) scale(0.1 -0.1)">
       <defs>
        <path id="DejaVuSans-34" d="M 2419 4116 
L 825 1625 
L 2419 1625 
L 2419 4116 
z
M 2253 4666 
L 3047 4666 
L 3047 1625 
L 3713 1625 
L 3713 1100 
L 3047 1100 
L 3047 0 
L 2419 0 
L 2419 1100 
L 313 1100 
L 313 1709 
L 2253 4666 
z
" transform="scale(0.015625)"/>
       </defs>
       <use xlink:href="#DejaVuSans-34"/>
       <use xlink:href="#DejaVuSans-30" x="63.623047"/>
      </g>
     </g>
    </g>
    <g id="xtick_6">
     <g id="line2d_6">
      <g>
       <use xlink:href="#m595b050d21" x="344.378182" y="307.584" style="stroke: #000000; stroke-width: 0.8"/>
      </g>
     </g>
     <g id="text_6">
      <!-- 50 -->
      <g transform="translate(338.015682 322.182437) scale(0.1 -0.1)">
       <defs>
        <path id="DejaVuSans-35" d="M 691 4666 
L 3169 4666 
L 3169 4134 
L 1269 4134 
L 1269 2991 
Q 1406 3038 1543 3061 
Q 1681 3084 1819 3084 
Q 2600 3084 3056 2656 
Q 3513 2228 3513 1497 
Q 3513 744 3044 326 
Q 2575 -91 1722 -91 
Q 1428 -91 1123 -41 
Q 819 9 494 109 
L 494 744 
Q 775 591 1075 516 
Q 1375 441 1709 441 
Q 2250 441 2565 725 
Q 2881 1009 2881 1497 
Q 2881 1984 2565 2268 
Q 2250 2553 1709 2553 
Q 1456 2553 1204 2497 
Q 953 2441 691 2322 
L 691 4666 
z
" transform="scale(0.015625)"/>
       </defs>
       <use xlink:href="#DejaVuSans-35"/>
       <use xlink:href="#DejaVuSans-30" x="63.623047"/>
      </g>
     </g>
    </g>
    <g id="xtick_7">
     <g id="line2d_7">
      <g>
       <use xlink:href="#m595b050d21" x="398.487273" y="307.584" style="stroke: #000000; stroke-width: 0.8"/>
      </g>
     </g>
     <g id="text_7">
      <!-- 60 -->
      <g transform="translate(392.124773 322.182437) scale(0.1 -0.1)">
       <defs>
        <path id="DejaVuSans-36" d="M 2113 2584 
Q 1688 2584 1439 2293 
Q 1191 2003 1191 1497 
Q 1191 994 1439 701 
Q 1688 409 2113 409 
Q 2538 409 2786 701 
Q 3034 994 3034 1497 
Q 3034 2003 2786 2293 
Q 2538 2584 2113 2584 
z
M 3366 4563 
L 3366 3988 
Q 3128 4100 2886 4159 
Q 2644 4219 2406 4219 
Q 1781 4219 1451 3797 
Q 1122 3375 1075 2522 
Q 1259 2794 1537 2939 
Q 1816 3084 2150 3084 
Q 2853 3084 3261 2657 
Q 3669 2231 3669 1497 
Q 3669 778 3244 343 
Q 2819 -91 2113 -91 
Q 1303 -91 875 529 
Q 447 1150 447 2328 
Q 447 3434 972 4092 
Q 1497 4750 2381 4750 
Q 2619 4750 2861 4703 
Q 3103 4656 3366 4563 
z
" transform="scale(0.015625)"/>
       </defs>
       <use xlink:href="#DejaVuSans-36"/>
       <use xlink:href="#DejaVuSans-30" x="63.623047"/>
      </g>
     </g>
    </g>
    <g id="text_8">
     <!-- Time [$s$] -->
     <g transform="translate(215.66 335.860562) scale(0.1 -0.1)">
      <defs>
       <path id="DejaVuSans-54" d="M -19 4666 
L 3928 4666 
L 3928 4134 
L 2272 4134 
L 2272 0 
L 1638 0 
L 1638 4134 
L -19 4134 
L -19 4666 
z
" transform="scale(0.015625)"/>
       <path id="DejaVuSans-69" d="M 603 3500 
L 1178 3500 
L 1178 0 
L 603 0 
L 603 3500 
z
M 603 4863 
L 1178 4863 
L 1178 4134 
L 603 4134 
L 603 4863 
z
" transform="scale(0.015625)"/>
       <path id="DejaVuSans-6d" d="M 3328 2828 
Q 3544 3216 3844 3400 
Q 4144 3584 4550 3584 
Q 5097 3584 5394 3201 
Q 5691 2819 5691 2113 
L 5691 0 
L 5113 0 
L 5113 2094 
Q 5113 2597 4934 2840 
Q 4756 3084 4391 3084 
Q 3944 3084 3684 2787 
Q 3425 2491 3425 1978 
L 3425 0 
L 2847 0 
L 2847 2094 
Q 2847 2600 2669 2842 
Q 2491 3084 2119 3084 
Q 1678 3084 1418 2786 
Q 1159 2488 1159 1978 
L 1159 0 
L 581 0 
L 581 3500 
L 1159 3500 
L 1159 2956 
Q 1356 3278 1631 3431 
Q 1906 3584 2284 3584 
Q 2666 3584 2933 3390 
Q 3200 3197 3328 2828 
z
" transform="scale(0.015625)"/>
       <path id="DejaVuSans-65" d="M 3597 1894 
L 3597 1613 
L 953 1613 
Q 991 1019 1311 708 
Q 1631 397 2203 397 
Q 2534 397 2845 478 
Q 3156 559 3463 722 
L 3463 178 
Q 3153 47 2828 -22 
Q 2503 -91 2169 -91 
Q 1331 -91 842 396 
Q 353 884 353 1716 
Q 353 2575 817 3079 
Q 1281 3584 2069 3584 
Q 2775 3584 3186 3129 
Q 3597 2675 3597 1894 
z
M 3022 2063 
Q 3016 2534 2758 2815 
Q 2500 3097 2075 3097 
Q 1594 3097 1305 2825 
Q 1016 2553 972 2059 
L 3022 2063 
z
" transform="scale(0.015625)"/>
       <path id="DejaVuSans-20" transform="scale(0.015625)"/>
       <path id="DejaVuSans-5b" d="M 550 4863 
L 1875 4863 
L 1875 4416 
L 1125 4416 
L 1125 -397 
L 1875 -397 
L 1875 -844 
L 550 -844 
L 550 4863 
z
" transform="scale(0.015625)"/>
       <path id="DejaVuSans-Oblique-73" d="M 3200 3397 
L 3091 2853 
Q 2863 2978 2609 3040 
Q 2356 3103 2088 3103 
Q 1634 3103 1373 2948 
Q 1113 2794 1113 2528 
Q 1113 2219 1719 2053 
Q 1766 2041 1788 2034 
L 1972 1978 
Q 2547 1819 2739 1644 
Q 2931 1469 2931 1166 
Q 2931 609 2489 259 
Q 2047 -91 1331 -91 
Q 1053 -91 747 -37 
Q 441 16 72 128 
L 184 722 
Q 500 559 806 475 
Q 1113 391 1394 391 
Q 1816 391 2080 572 
Q 2344 753 2344 1031 
Q 2344 1331 1650 1516 
L 1591 1531 
L 1394 1581 
Q 956 1697 753 1886 
Q 550 2075 550 2369 
Q 550 2928 970 3256 
Q 1391 3584 2113 3584 
Q 2397 3584 2667 3537 
Q 2938 3491 3200 3397 
z
" transform="scale(0.015625)"/>
       <path id="DejaVuSans-5d" d="M 1947 4863 
L 1947 -844 
L 622 -844 
L 622 -397 
L 1369 -397 
L 1369 4416 
L 622 4416 
L 622 4863 
L 1947 4863 
z
" transform="scale(0.015625)"/>
      </defs>
      <use xlink:href="#DejaVuSans-54" transform="translate(0 0.015625)"/>
      <use xlink:href="#DejaVuSans-69" transform="translate(61.083984 0.015625)"/>
      <use xlink:href="#DejaVuSans-6d" transform="translate(88.867188 0.015625)"/>
      <use xlink:href="#DejaVuSans-65" transform="translate(186.279297 0.015625)"/>
      <use xlink:href="#DejaVuSans-20" transform="translate(247.802734 0.015625)"/>
      <use xlink:href="#DejaVuSans-5b" transform="translate(279.589844 0.015625)"/>
      <use xlink:href="#DejaVuSans-Oblique-73" transform="translate(318.603516 0.015625)"/>
      <use xlink:href="#DejaVuSans-5d" transform="translate(370.703125 0.015625)"/>
     </g>
    </g>
   </g>
   <g id="matplotlib.axis_2">
    <g id="ytick_1">
     <g id="line2d_8">
      <defs>
       <path id="m87ca7330ab" d="M 0 0 
L -3.5 0 
" style="stroke: #000000; stroke-width: 0.8"/>
      </defs>
      <g>
       <use xlink:href="#m87ca7330ab" x="57.6" y="304.519098" style="stroke: #000000; stroke-width: 0.8"/>
      </g>
     </g>
     <g id="text_9">
      <!-- −0.5 -->
      <g transform="translate(26.317187 308.318317) scale(0.1 -0.1)">
       <defs>
        <path id="DejaVuSans-2212" d="M 678 2272 
L 4684 2272 
L 4684 1741 
L 678 1741 
L 678 2272 
z
" transform="scale(0.015625)"/>
        <path id="DejaVuSans-2e" d="M 684 794 
L 1344 794 
L 1344 0 
L 684 0 
L 684 794 
z
" transform="scale(0.015625)"/>
       </defs>
       <use xlink:href="#DejaVuSans-2212"/>
       <use xlink:href="#DejaVuSans-30" x="83.789062"/>
       <use xlink:href="#DejaVuSans-2e" x="147.412109"/>
       <use xlink:href="#DejaVuSans-35" x="179.199219"/>
      </g>
     </g>
    </g>
    <g id="ytick_2">
     <g id="line2d_9">
      <g>
       <use xlink:href="#m87ca7330ab" x="57.6" y="248.045364" style="stroke: #000000; stroke-width: 0.8"/>
      </g>
     </g>
     <g id="text_10">
      <!-- 0.0 -->
      <g transform="translate(34.696875 251.844582) scale(0.1 -0.1)">
       <use xlink:href="#DejaVuSans-30"/>
       <use xlink:href="#DejaVuSans-2e" x="63.623047"/>
       <use xlink:href="#DejaVuSans-30" x="95.410156"/>
      </g>
     </g>
    </g>
    <g id="ytick_3">
     <g id="line2d_10">
      <g>
       <use xlink:href="#m87ca7330ab" x="57.6" y="191.571629" style="stroke: #000000; stroke-width: 0.8"/>
      </g>
     </g>
     <g id="text_11">
      <!-- 0.5 -->
      <g transform="translate(34.696875 195.370848) scale(0.1 -0.1)">
       <use xlink:href="#DejaVuSans-30"/>
       <use xlink:href="#DejaVuSans-2e" x="63.623047"/>
       <use xlink:href="#DejaVuSans-35" x="95.410156"/>
      </g>
     </g>
    </g>
    <g id="ytick_4">
     <g id="line2d_11">
      <g>
       <use xlink:href="#m87ca7330ab" x="57.6" y="135.097895" style="stroke: #000000; stroke-width: 0.8"/>
      </g>
     </g>
     <g id="text_12">
      <!-- 1.0 -->
      <g transform="translate(34.696875 138.897114) scale(0.1 -0.1)">
       <use xlink:href="#DejaVuSans-31"/>
       <use xlink:href="#DejaVuSans-2e" x="63.623047"/>
       <use xlink:href="#DejaVuSans-30" x="95.410156"/>
      </g>
     </g>
    </g>
    <g id="ytick_5">
     <g id="line2d_12">
      <g>
       <use xlink:href="#m87ca7330ab" x="57.6" y="78.62416" style="stroke: #000000; stroke-width: 0.8"/>
      </g>
     </g>
     <g id="text_13">
      <!-- 1.5 -->
      <g transform="translate(34.696875 82.423379) scale(0.1 -0.1)">
       <use xlink:href="#DejaVuSans-31"/>
       <use xlink:href="#DejaVuSans-2e" x="63.623047"/>
       <use xlink:href="#DejaVuSans-35" x="95.410156"/>
      </g>
     </g>
    </g>
    <g id="text_14">
     <!-- Normalized amplitude -->
     <g transform="translate(20.2375 229.738937) rotate(-90) scale(0.1 -0.1)">
      <defs>
       <path id="DejaVuSans-4e" d="M 628 4666 
L 1478 4666 
L 3547 763 
L 3547 4666 
L 4159 4666 
L 4159 0 
L 3309 0 
L 1241 3903 
L 1241 0 
L 628 0 
L 628 4666 
z
" transform="scale(0.015625)"/>
       <path id="DejaVuSans-6f" d="M 1959 3097 
Q 1497 3097 1228 2736 
Q 959 2375 959 1747 
Q 959 1119 1226 758 
Q 1494 397 1959 397 
Q 2419 397 2687 759 
Q 2956 1122 2956 1747 
Q 2956 2369 2687 2733 
Q 2419 3097 1959 3097 
z
M 1959 3584 
Q 2709 3584 3137 3096 
Q 3566 2609 3566 1747 
Q 3566 888 3137 398 
Q 2709 -91 1959 -91 
Q 1206 -91 779 398 
Q 353 888 353 1747 
Q 353 2609 779 3096 
Q 1206 3584 1959 3584 
z
" transform="scale(0.015625)"/>
       <path id="DejaVuSans-72" d="M 2631 2963 
Q 2534 3019 2420 3045 
Q 2306 3072 2169 3072 
Q 1681 3072 1420 2755 
Q 1159 2438 1159 1844 
L 1159 0 
L 581 0 
L 581 3500 
L 1159 3500 
L 1159 2956 
Q 1341 3275 1631 3429 
Q 1922 3584 2338 3584 
Q 2397 3584 2469 3576 
Q 2541 3569 2628 3553 
L 2631 2963 
z
" transform="scale(0.015625)"/>
       <path id="DejaVuSans-61" d="M 2194 1759 
Q 1497 1759 1228 1600 
Q 959 1441 959 1056 
Q 959 750 1161 570 
Q 1363 391 1709 391 
Q 2188 391 2477 730 
Q 2766 1069 2766 1631 
L 2766 1759 
L 2194 1759 
z
M 3341 1997 
L 3341 0 
L 2766 0 
L 2766 531 
Q 2569 213 2275 61 
Q 1981 -91 1556 -91 
Q 1019 -91 701 211 
Q 384 513 384 1019 
Q 384 1609 779 1909 
Q 1175 2209 1959 2209 
L 2766 2209 
L 2766 2266 
Q 2766 2663 2505 2880 
Q 2244 3097 1772 3097 
Q 1472 3097 1187 3025 
Q 903 2953 641 2809 
L 641 3341 
Q 956 3463 1253 3523 
Q 1550 3584 1831 3584 
Q 2591 3584 2966 3190 
Q 3341 2797 3341 1997 
z
" transform="scale(0.015625)"/>
       <path id="DejaVuSans-6c" d="M 603 4863 
L 1178 4863 
L 1178 0 
L 603 0 
L 603 4863 
z
" transform="scale(0.015625)"/>
       <path id="DejaVuSans-7a" d="M 353 3500 
L 3084 3500 
L 3084 2975 
L 922 459 
L 3084 459 
L 3084 0 
L 275 0 
L 275 525 
L 2438 3041 
L 353 3041 
L 353 3500 
z
" transform="scale(0.015625)"/>
       <path id="DejaVuSans-64" d="M 2906 2969 
L 2906 4863 
L 3481 4863 
L 3481 0 
L 2906 0 
L 2906 525 
Q 2725 213 2448 61 
Q 2172 -91 1784 -91 
Q 1150 -91 751 415 
Q 353 922 353 1747 
Q 353 2572 751 3078 
Q 1150 3584 1784 3584 
Q 2172 3584 2448 3432 
Q 2725 3281 2906 2969 
z
M 947 1747 
Q 947 1113 1208 752 
Q 1469 391 1925 391 
Q 2381 391 2643 752 
Q 2906 1113 2906 1747 
Q 2906 2381 2643 2742 
Q 2381 3103 1925 3103 
Q 1469 3103 1208 2742 
Q 947 2381 947 1747 
z
" transform="scale(0.015625)"/>
       <path id="DejaVuSans-70" d="M 1159 525 
L 1159 -1331 
L 581 -1331 
L 581 3500 
L 1159 3500 
L 1159 2969 
Q 1341 3281 1617 3432 
Q 1894 3584 2278 3584 
Q 2916 3584 3314 3078 
Q 3713 2572 3713 1747 
Q 3713 922 3314 415 
Q 2916 -91 2278 -91 
Q 1894 -91 1617 61 
Q 1341 213 1159 525 
z
M 3116 1747 
Q 3116 2381 2855 2742 
Q 2594 3103 2138 3103 
Q 1681 3103 1420 2742 
Q 1159 2381 1159 1747 
Q 1159 1113 1420 752 
Q 1681 391 2138 391 
Q 2594 391 2855 752 
Q 3116 1113 3116 1747 
z
" transform="scale(0.015625)"/>
       <path id="DejaVuSans-74" d="M 1172 4494 
L 1172 3500 
L 2356 3500 
L 2356 3053 
L 1172 3053 
L 1172 1153 
Q 1172 725 1289 603 
Q 1406 481 1766 481 
L 2356 481 
L 2356 0 
L 1766 0 
Q 1100 0 847 248 
Q 594 497 594 1153 
L 594 3053 
L 172 3053 
L 172 3500 
L 594 3500 
L 594 4494 
L 1172 4494 
z
" transform="scale(0.015625)"/>
       <path id="DejaVuSans-75" d="M 544 1381 
L 544 3500 
L 1119 3500 
L 1119 1403 
Q 1119 906 1312 657 
Q 1506 409 1894 409 
Q 2359 409 2629 706 
Q 2900 1003 2900 1516 
L 2900 3500 
L 3475 3500 
L 3475 0 
L 2900 0 
L 2900 538 
Q 2691 219 2414 64 
Q 2138 -91 1772 -91 
Q 1169 -91 856 284 
Q 544 659 544 1381 
z
M 1991 3584 
L 1991 3584 
z
" transform="scale(0.015625)"/>
      </defs>
      <use xlink:href="#DejaVuSans-4e"/>
      <use xlink:href="#DejaVuSans-6f" x="74.804688"/>
      <use xlink:href="#DejaVuSans-72" x="135.986328"/>
      <use xlink:href="#DejaVuSans-6d" x="175.349609"/>
      <use xlink:href="#DejaVuSans-61" x="272.761719"/>
      <use xlink:href="#DejaVuSans-6c" x="334.041016"/>
      <use xlink:href="#DejaVuSans-69" x="361.824219"/>
      <use xlink:href="#DejaVuSans-7a" x="389.607422"/>
      <use xlink:href="#DejaVuSans-65" x="442.097656"/>
      <use xlink:href="#DejaVuSans-64" x="503.621094"/>
      <use xlink:href="#DejaVuSans-20" x="567.097656"/>
      <use xlink:href="#DejaVuSans-61" x="598.884766"/>
      <use xlink:href="#DejaVuSans-6d" x="660.164062"/>
      <use xlink:href="#DejaVuSans-70" x="757.576172"/>
      <use xlink:href="#DejaVuSans-6c" x="821.052734"/>
      <use xlink:href="#DejaVuSans-69" x="848.835938"/>
      <use xlink:href="#DejaVuSans-74" x="876.619141"/>
      <use xlink:href="#DejaVuSans-75" x="915.828125"/>
      <use xlink:href="#DejaVuSans-64" x="979.207031"/>
      <use xlink:href="#DejaVuSans-65" x="1042.683594"/>
     </g>
    </g>
   </g>
   <g id="line2d_13">
    <path d="M 73.832727 255.207643 
L 73.886845 257.708436 
L 73.940963 257.082567 
L 73.995082 253.987227 
L 74.0492 254.542664 
L 74.103318 256.831424 
L 74.157436 255.163209 
L 74.265672 253.560673 
L 74.31979 253.682842 
L 74.428026 250.015846 
L 74.482145 250.233085 
L 74.536263 253.156955 
L 74.590381 251.578311 
L 74.698617 237.404606 
L 74.915089 253.230608 
L 74.969208 253.103116 
L 75.023326 251.431948 
L 75.131562 251.320621 
L 75.18568 254.03321 
L 75.239798 254.965635 
L 75.293916 271.268815 
L 75.348034 269.102685 
L 75.456271 64.087525 
L 75.510389 97.35235 
L 75.618625 252.815202 
L 75.672743 250.820885 
L 75.780979 280.480392 
L 75.889215 275.854297 
L 76.105688 262.874905 
L 76.159806 264.820118 
L 76.430397 248.849007 
L 76.971578 199.273373 
L 77.133932 238.133977 
L 77.350404 275.394341 
L 77.458641 279.979281 
L 77.512759 279.65919 
L 78.216294 259.392264 
L 78.270412 261.256803 
L 78.32453 260.191615 
L 78.432767 259.243684 
L 78.595121 256.581225 
L 78.649239 256.046274 
L 78.703357 257.555729 
L 78.865712 253.850314 
L 78.91983 253.999942 
L 78.973948 253.752998 
L 79.028066 250.97316 
L 79.082184 251.86836 
L 79.136302 251.986096 
L 79.19042 250.041166 
L 79.244538 250.983728 
L 79.298656 251.698879 
L 79.461011 248.706041 
L 79.569247 248.885324 
L 79.623365 249.257285 
L 79.677483 248.944469 
L 79.839838 245.873017 
L 79.948074 250.033545 
L 80.05631 246.869725 
L 80.110428 248.215657 
L 80.164546 247.724495 
L 80.218664 246.159665 
L 80.272782 246.306161 
L 80.326901 247.975268 
L 80.435137 234.462546 
L 80.489255 239.105356 
L 80.651609 248.749362 
L 80.705727 248.139928 
L 80.759845 246.994754 
L 80.813964 248.837152 
L 80.868082 246.816462 
L 80.9222 247.765419 
L 80.976318 250.461525 
L 81.084554 277.630919 
L 81.19279 72.863245 
L 81.246908 77.371228 
L 81.409263 253.616831 
L 81.463381 247.526822 
L 81.517499 274.815409 
L 81.571617 269.959087 
L 81.679853 268.940277 
L 81.78809 269.095046 
L 81.842208 261.052431 
L 81.896326 260.862499 
L 82.112798 250.18248 
L 82.166916 250.078715 
L 82.708097 201.029165 
L 82.816334 218.73331 
L 83.086924 279.504447 
L 83.19516 283.048983 
L 83.411633 276.459497 
L 83.465751 276.401766 
L 83.736342 264.895265 
L 83.79046 264.350248 
L 83.844578 264.460267 
L 83.898696 264.5467 
L 84.006932 260.466305 
L 84.06105 261.987862 
L 84.115168 261.743621 
L 84.169286 260.029468 
L 84.223405 260.375031 
L 84.277523 262.190287 
L 84.385759 257.023588 
L 84.439877 258.957083 
L 84.656349 254.759583 
L 84.710468 255.606541 
L 84.981058 252.519399 
L 85.035176 252.154114 
L 85.089294 252.376761 
L 85.143412 252.456794 
L 85.19753 251.983212 
L 85.305767 247.750251 
L 85.359885 249.706096 
L 85.414003 249.064065 
L 85.468121 249.269131 
L 85.522239 250.566219 
L 85.576357 250.11997 
L 85.684593 246.270026 
L 85.738712 249.01433 
L 85.79283 247.61545 
L 85.846948 247.177564 
L 86.009302 248.577124 
L 86.117538 243.850349 
L 86.171656 245.901764 
L 86.225775 247.717724 
L 86.334011 232.328786 
L 86.388129 240.597699 
L 86.550483 250.517995 
L 86.604601 247.657718 
L 86.658719 248.257668 
L 86.712838 251.370215 
L 86.766956 248.278532 
L 86.875192 251.946014 
L 86.92931 274.303104 
L 86.983428 257.438557 
L 87.091664 60.745507 
L 87.145782 105.541255 
L 87.254019 256.540872 
L 87.308137 247.247384 
L 87.416373 278.946316 
L 87.524609 278.015652 
L 87.578727 266.128209 
L 87.632845 266.758328 
L 87.686964 269.728726 
L 87.849318 258.155736 
L 88.06579 247.780786 
L 88.552853 199.414404 
L 88.606971 202.232627 
L 88.823444 256.275743 
L 88.985798 278.435321 
L 89.094034 283.350132 
L 89.310507 272.579143 
L 89.364625 273.583654 
L 89.581097 264.525678 
L 89.635216 264.691958 
L 89.689334 266.470182 
L 89.905806 258.340174 
L 89.959924 260.104694 
L 90.014042 258.3077 
L 90.06816 257.142384 
L 90.122279 258.913649 
L 90.176397 256.668025 
L 90.230515 257.777717 
L 90.284633 258.394234 
L 90.338751 255.293788 
L 90.392869 256.889229 
L 90.555223 255.81542 
L 90.717578 252.920326 
L 90.771696 251.692752 
L 90.825814 253.978702 
L 90.879932 253.457338 
L 91.042286 250.375099 
L 91.096405 250.117078 
L 91.150523 252.025791 
L 91.204641 251.480505 
L 91.366995 247.483081 
L 91.475231 248.906264 
L 91.529349 248.291172 
L 91.583468 250.461 
L 91.691704 244.946357 
L 91.745822 245.053509 
L 91.854058 248.658777 
L 91.962294 232.42024 
L 92.016412 238.562146 
L 92.178767 248.980638 
L 92.232885 249.446967 
L 92.287003 246.903732 
L 92.341121 248.744027 
L 92.395239 247.282711 
L 92.449357 248.795004 
L 92.503475 250.377521 
L 92.557594 271.733749 
L 92.611712 260.208573 
L 92.719948 60.128751 
L 92.774066 100.376065 
L 92.882302 254.088222 
L 92.93642 247.422866 
L 93.044657 275.638157 
L 93.152893 272.706378 
L 93.315247 265.409919 
L 93.53172 256.116288 
L 93.964664 224.46391 
L 94.235255 199.309838 
L 94.722318 280.920355 
L 94.992909 272.66249 
L 95.101145 271.8053 
L 95.209381 265.715509 
L 95.263499 267.839643 
L 95.53409 261.623564 
L 95.588208 262.655778 
L 95.642326 261.858846 
L 95.696444 261.604143 
L 95.750562 261.915321 
L 95.967035 257.356947 
L 96.021153 258.489539 
L 96.129389 255.612341 
L 96.183507 257.406808 
L 96.291743 252.226655 
L 96.345861 253.786674 
L 96.399979 254.395469 
L 96.616452 248.843062 
L 96.724688 253.051199 
L 96.887042 248.059478 
L 96.94116 248.268437 
L 96.995279 248.996104 
L 97.049397 246.144205 
L 97.103515 247.285687 
L 97.157633 248.309145 
L 97.265869 246.753062 
L 97.319987 247.124778 
L 97.428223 246.35034 
L 97.482342 247.576071 
L 97.53646 246.955829 
L 97.752932 235.751323 
L 97.80705 239.775956 
L 97.969405 251.880999 
L 98.023523 249.240374 
L 98.077641 243.768441 
L 98.131759 251.316231 
L 98.185877 248.93038 
L 98.239995 248.029787 
L 98.294113 250.870765 
L 98.348231 270.309758 
L 98.402349 266.056931 
L 98.510586 59.684413 
L 98.564704 97.220069 
L 98.67294 254.834128 
L 98.727058 248.769654 
L 98.781176 254.842461 
L 98.835294 279.242277 
L 98.889412 268.180178 
L 98.943531 273.891898 
L 98.997649 268.178594 
L 99.051767 267.39387 
L 99.105885 269.366382 
L 99.268239 258.180418 
L 99.53883 245.836389 
L 99.971775 199.225134 
L 100.025893 199.415144 
L 100.134129 221.533241 
L 100.350601 276.147011 
L 100.512956 283.218228 
L 100.891783 268.76788 
L 100.945901 268.399936 
L 101.216491 262.083121 
L 101.324727 263.973959 
L 101.432964 257.853454 
L 101.487082 261.723526 
L 101.5412 259.428322 
L 101.595318 258.637723 
L 101.649436 259.634498 
L 101.865909 255.112861 
L 101.920027 255.235802 
L 101.974145 255.022656 
L 102.028263 253.932552 
L 102.082381 254.799913 
L 102.136499 254.955618 
L 102.352972 250.343312 
L 102.515326 250.10241 
L 102.623562 247.082374 
L 102.67768 249.707925 
L 102.731798 249.681322 
L 102.785916 245.965445 
L 102.840035 246.172232 
L 103.002389 247.280593 
L 103.056507 246.920474 
L 103.110625 245.511819 
L 103.218861 233.638679 
L 103.272979 236.762647 
L 103.435334 249.138371 
L 103.489452 248.864734 
L 103.54357 243.640822 
L 103.597688 249.928617 
L 103.651806 247.848504 
L 103.705924 248.296107 
L 103.760042 251.252553 
L 103.868279 278.93959 
L 103.976515 69.385675 
L 104.030633 79.499873 
L 104.192987 257.841232 
L 104.247105 246.987453 
L 104.301224 275.156492 
L 104.355342 267.320151 
L 104.40946 268.881506 
L 104.463578 268.49328 
L 104.625932 258.509439 
L 104.68005 263.712312 
L 104.950641 245.243714 
L 105.221231 224.546742 
L 105.491822 192.16606 
L 105.978885 289.167529 
L 106.249476 279.913829 
L 106.303594 280.087083 
L 106.68242 265.82292 
L 107.007129 260.193718 
L 107.115365 263.573057 
L 107.169483 261.932858 
L 107.385956 256.264553 
L 107.440074 258.649645 
L 107.602428 253.635649 
L 107.710665 255.914725 
L 107.873019 250.568282 
L 107.927137 250.98447 
L 107.981255 253.318692 
L 108.197728 236.716565 
L 108.251846 242.950383 
L 108.305964 244.020084 
L 108.4142 251.760631 
L 108.468318 249.239686 
L 108.522436 249.274358 
L 108.576554 249.486119 
L 108.68479 252.184518 
L 108.738909 249.627344 
L 108.793027 271.798706 
L 108.847145 264.632198 
L 108.955381 62.232014 
L 109.009499 101.398137 
L 109.117735 266.093627 
L 109.171853 245.869703 
L 109.225972 251.325861 
L 109.28009 270.196982 
L 109.334208 259.394187 
L 109.388326 268.585463 
L 109.442444 259.827941 
L 109.496562 260.307884 
L 109.55068 262.51621 
L 109.713035 246.507778 
L 109.767153 248.584912 
L 109.821271 246.777526 
L 110.254216 211.280341 
L 110.41657 188.121052 
L 110.470688 191.960509 
L 111.011869 284.797441 
L 111.228342 273.44652 
L 111.28246 277.635161 
L 111.336578 275.302045 
L 111.55305 261.26035 
L 111.661287 265.623607 
L 111.769523 261.014153 
L 111.823641 264.813949 
L 111.877759 261.93942 
L 111.985995 257.844112 
L 112.094231 265.226652 
L 112.14835 257.119222 
L 112.202468 257.633481 
L 112.256586 261.539069 
L 112.364822 250.983348 
L 112.473058 262.313585 
L 112.581294 254.308375 
L 112.635413 255.721676 
L 112.851885 250.086133 
L 112.960121 250.815961 
L 113.068357 241.318287 
L 113.28483 254.838156 
L 113.338948 254.212872 
L 113.501302 251.298298 
L 113.55542 251.585679 
L 113.609539 248.550322 
L 113.717775 279.327648 
L 113.826011 69.884781 
L 113.880129 82.355727 
L 114.042483 257.159793 
L 114.096602 249.430321 
L 114.15072 280.671309 
L 114.204838 269.783394 
L 114.258956 275.288893 
L 114.313074 273.984788 
L 114.367192 262.389641 
L 114.42131 269.973472 
L 114.637783 255.7197 
L 114.691901 258.416871 
L 114.908373 241.062974 
L 115.2872 197.091204 
L 115.341318 197.704784 
L 115.503672 241.742485 
L 115.720145 281.541584 
L 115.774263 282.38075 
L 115.936617 276.905692 
L 115.990735 277.501634 
L 116.044854 277.599502 
L 116.369562 264.418539 
L 116.640153 260.010546 
L 116.694271 260.457544 
L 116.748389 256.192596 
L 116.802507 257.348583 
L 116.856625 258.761217 
L 116.910743 255.842165 
L 116.964861 257.325477 
L 117.235452 252.816756 
L 117.28957 253.25707 
L 117.343688 254.28738 
L 117.451924 250.294332 
L 117.506043 251.611609 
L 117.560161 250.258934 
L 117.614279 250.71966 
L 117.722515 248.707973 
L 117.776633 250.081387 
L 117.938987 238.431173 
L 117.993106 241.635148 
L 118.15546 248.953978 
L 118.263696 247.118469 
L 118.480169 254.790977 
L 118.534287 276.859717 
L 118.588405 235.131103 
L 118.696641 62.557873 
L 118.967232 264.829405 
L 119.129586 274.762175 
L 119.29194 264.677461 
L 119.562531 249.792948 
L 119.616649 251.027738 
L 119.670767 250.08325 
L 120.103712 201.838244 
L 120.15783 202.717769 
L 120.266066 217.392717 
L 120.536657 278.640512 
L 120.590775 281.16596 
L 120.644893 280.511812 
L 121.402546 260.097009 
L 121.510783 258.808104 
L 121.564901 261.562776 
L 121.619019 259.530312 
L 121.673137 254.311401 
L 121.727255 257.303914 
L 121.781373 257.956639 
L 121.835491 256.826675 
L 121.889609 257.036806 
L 121.943728 257.158141 
L 122.214318 252.022809 
L 122.268436 253.813986 
L 122.376672 253.719563 
L 122.430791 253.692799 
L 122.484909 253.102526 
L 122.539027 248.817334 
L 122.593145 250.69442 
L 122.647263 252.477851 
L 122.701381 247.674054 
L 122.755499 250.158787 
L 122.809617 250.262806 
L 122.863735 248.451546 
L 122.917854 250.219716 
L 123.02609 248.75468 
L 123.080208 245.53042 
L 123.134326 246.245503 
L 123.188444 248.509756 
L 123.350798 236.844498 
L 123.567271 250.750317 
L 123.675507 247.952791 
L 123.89198 252.659267 
L 123.946098 276.325538 
L 124.000216 240.287923 
L 124.108452 60.607395 
L 124.270806 265.474445 
L 124.379043 262.290871 
L 124.433161 272.897763 
L 124.487279 265.207602 
L 124.541397 271.752714 
L 124.703751 259.813298 
L 124.866106 252.297644 
L 124.920224 253.342947 
L 125.136696 237.881502 
L 125.29905 220.559336 
L 125.515523 191.520145 
L 125.569641 191.746298 
L 125.677877 212.917861 
L 126.002586 287.890339 
L 126.056704 287.447931 
L 126.381413 277.260887 
L 126.760239 266.262465 
L 126.814358 267.545633 
L 126.922594 263.267082 
L 126.976712 264.514056 
L 127.03083 262.996607 
L 127.084948 263.367578 
L 127.139066 263.241604 
L 127.301421 259.778146 
L 127.355539 260.311541 
L 127.409657 260.177664 
L 127.517893 257.128936 
L 127.572011 257.870795 
L 127.626129 257.173123 
L 127.734365 252.971003 
L 127.788484 256.040868 
L 127.842602 255.104251 
L 127.89672 253.824196 
L 127.950838 255.53865 
L 128.059074 251.143144 
L 128.113192 253.974438 
L 128.16731 251.72194 
L 128.221428 251.569952 
L 128.275547 252.023106 
L 128.329665 251.430797 
L 128.383783 248.449927 
L 128.437901 248.522226 
L 128.492019 250.562979 
L 128.708491 235.13823 
L 128.924964 251.334739 
L 128.979082 251.358662 
L 129.0332 249.001842 
L 129.087318 250.001921 
L 129.141436 250.172673 
L 129.249673 246.404385 
L 129.357909 277.270703 
L 129.520263 76.627307 
L 129.682617 256.791987 
L 129.736736 242.198119 
L 129.790854 267.766642 
L 129.844972 263.323039 
L 129.953208 266.448054 
L 130.115562 255.870703 
L 130.16968 256.596642 
L 130.76498 212.939865 
L 130.927334 193.627012 
L 130.981452 194.094241 
L 131.143806 237.553214 
L 131.360279 279.735895 
L 131.414397 282.604782 
L 131.468515 281.381812 
L 131.576751 280.741755 
L 131.847342 270.629104 
L 132.063814 263.01331 
L 132.117932 263.36499 
L 132.226169 261.74071 
L 132.280287 260.313218 
L 132.334405 261.410171 
L 132.442641 259.569464 
L 132.496759 261.617048 
L 132.550877 259.467073 
L 132.875586 255.557535 
L 132.929704 257.588147 
L 132.983822 255.936404 
L 133.146176 254.16482 
L 133.308531 252.299334 
L 133.362649 253.683848 
L 133.470885 250.799219 
L 133.525003 250.845516 
L 133.579121 250.804797 
L 133.687358 248.395916 
L 133.741476 250.723069 
L 133.795594 249.664146 
L 133.90383 247.277171 
L 134.012066 248.58557 
L 134.228539 245.823729 
L 134.282657 245.858405 
L 134.390893 246.808277 
L 134.553247 244.266844 
L 134.607365 244.570853 
L 134.715602 233.545669 
L 134.932074 247.019699 
L 135.094428 249.958869 
L 135.148547 248.144717 
L 135.202665 248.387774 
L 135.256783 250.595972 
L 135.365019 273.584227 
L 135.473255 70.989541 
L 135.527373 82.376218 
L 135.689728 257.767285 
L 135.743846 249.234354 
L 135.797964 280.071481 
L 135.852082 272.647748 
L 135.9062 273.804872 
L 135.960318 273.768234 
L 136.122673 261.963143 
L 136.176791 266.347645 
L 136.393263 252.358628 
L 136.555617 245.7761 
L 136.934444 202.930529 
L 136.988562 201.000106 
L 137.04268 204.414267 
L 137.367389 283.087515 
L 137.421507 280.47881 
L 137.475625 281.425575 
L 137.529743 282.505824 
L 138.016806 266.432934 
L 138.287397 258.675813 
L 138.341515 258.685272 
L 138.395633 260.471479 
L 138.449751 258.870091 
L 138.503869 259.562785 
L 138.557988 259.224532 
L 138.720342 257.343415 
L 138.77446 257.995421 
L 138.990932 253.3933 
L 139.099169 252.55173 
L 139.207405 253.910647 
L 139.315641 249.631035 
L 139.369759 251.963008 
L 139.423877 251.182036 
L 139.477995 249.834946 
L 139.532114 250.449064 
L 139.64035 249.9492 
L 139.802704 247.54734 
L 139.91094 248.838895 
L 139.965058 246.807905 
L 140.019177 247.180128 
L 140.073295 247.227043 
L 140.127413 245.381188 
L 140.181531 246.436034 
L 140.235649 246.796984 
L 140.452121 242.169783 
L 140.560358 247.001438 
L 140.668594 245.901017 
L 140.722712 245.822985 
L 140.77683 242.506047 
L 140.830948 244.107769 
L 140.885066 244.155602 
L 140.939184 243.854172 
L 140.993303 244.653078 
L 141.047421 243.442119 
L 141.101539 245.364581 
L 141.155657 243.738176 
L 141.209775 242.185406 
L 141.263893 245.252914 
L 141.318011 244.197381 
L 141.480366 241.965253 
L 141.534484 243.803846 
L 141.588602 243.6296 
L 141.696838 232.493244 
L 141.750956 234.044081 
L 141.91331 245.606156 
L 142.075665 248.408869 
L 142.183901 246.859806 
L 142.238019 249.56004 
L 142.346255 274.215639 
L 142.454492 73.336619 
L 142.50861 79.998241 
L 142.670964 259.130898 
L 142.725082 250.369849 
L 142.7792 278.650049 
L 142.833318 271.325858 
L 142.941555 275.735176 
L 143.103909 264.280756 
L 143.158027 265.143293 
L 143.536854 247.396247 
L 143.969799 199.264419 
L 144.023917 203.191859 
L 144.456862 284.111644 
L 144.51098 284.065393 
L 144.565098 283.525584 
L 144.835688 273.503461 
L 145.052161 265.305051 
L 145.106279 267.547184 
L 145.268633 263.686968 
L 145.322751 264.246934 
L 145.430988 259.398503 
L 145.485106 262.833325 
L 145.863932 256.753114 
L 145.918051 258.083073 
L 145.972169 257.821046 
L 146.080405 254.768965 
L 146.134523 255.192326 
L 146.188641 254.212621 
L 146.242759 255.728475 
L 146.296877 254.664809 
L 146.350995 252.426604 
L 146.459232 252.475737 
L 146.51335 252.355608 
L 146.567468 251.558156 
L 146.621586 252.304247 
L 146.675704 253.23359 
L 146.729822 248.277498 
L 146.78394 249.161349 
L 146.838058 252.142781 
L 146.946295 248.928226 
L 147.000413 248.942844 
L 147.054531 248.839484 
L 147.108649 250.194413 
L 147.216885 246.398304 
L 147.271003 248.662415 
L 147.325121 246.924776 
L 147.37924 246.152348 
L 147.433358 247.413483 
L 147.487476 247.048096 
L 147.541594 247.239111 
L 147.64983 244.915021 
L 147.703948 245.705022 
L 147.758066 246.058791 
L 147.812184 245.765184 
L 148.028657 239.319075 
L 148.082775 233.039556 
L 148.136893 236.50566 
L 148.299247 248.267794 
L 148.353366 247.365298 
L 148.407484 247.326585 
L 148.461602 250.339278 
L 148.51572 247.820435 
L 148.569838 249.175738 
L 148.623956 248.668619 
L 148.732192 270.91052 
L 148.840429 68.247552 
L 148.894547 92.562756 
L 149.002783 261.469644 
L 149.056901 252.239779 
L 149.111019 246.992881 
L 149.165137 272.234949 
L 149.219255 263.20344 
L 149.273373 267.481226 
L 149.327492 266.643813 
L 149.489846 255.319149 
L 149.543964 258.422085 
L 149.760436 246.270535 
L 149.814555 244.20634 
L 150.301618 189.444014 
L 150.355736 190.894999 
L 150.463972 213.270334 
L 150.734562 283.438715 
L 150.842799 288.317345 
L 150.896917 287.067967 
L 151.329862 269.63478 
L 151.38398 270.419636 
L 151.65457 263.660113 
L 151.762807 263.352495 
L 151.816925 265.281136 
L 151.871043 265.066488 
L 152.033397 260.449921 
L 152.24987 256.152966 
L 152.303988 256.90999 
L 152.52046 254.127277 
L 152.574578 254.173338 
L 152.682814 252.825337 
L 152.791051 251.257559 
L 152.845169 252.452902 
L 152.899287 251.358788 
L 153.278114 246.667457 
L 153.332232 248.482871 
L 153.38635 248.393388 
L 153.440468 245.55552 
L 153.494586 248.435509 
L 153.548704 246.221517 
L 153.65694 235.650494 
L 153.873413 249.73431 
L 153.927531 247.964971 
L 153.981649 247.423167 
L 154.035767 252.103764 
L 154.089885 247.852462 
L 154.144003 247.421777 
L 154.198122 249.265978 
L 154.306358 275.194686 
L 154.414594 72.495928 
L 154.468712 86.124307 
L 154.631066 254.666357 
L 154.685185 247.186451 
L 154.739303 278.510255 
L 154.793421 269.23124 
L 154.901657 272.53385 
L 155.064011 259.087823 
L 155.118129 262.78272 
L 155.172247 260.367682 
L 155.929901 195.309185 
L 156.092255 232.199484 
L 156.308728 281.341154 
L 156.362846 282.949763 
L 156.416964 282.287268 
L 156.633436 278.158808 
L 156.849909 269.420767 
L 156.904027 268.814119 
L 157.228736 259.189366 
L 157.282854 260.47012 
L 157.336972 260.082309 
L 157.39109 258.026028 
L 157.445208 259.047482 
L 157.553444 257.870221 
L 157.607562 258.084171 
L 157.769917 254.78258 
L 157.878153 255.246423 
L 158.094625 250.978154 
L 158.148744 253.010961 
L 158.202862 252.652185 
L 158.311098 249.761882 
L 158.365216 249.977944 
L 158.419334 250.133766 
L 158.473452 248.934669 
L 158.52757 249.117306 
L 158.581688 249.384966 
L 158.635807 248.339423 
L 158.689925 248.465309 
L 158.744043 248.483771 
L 158.798161 246.639727 
L 158.852279 247.367079 
L 158.906397 248.85893 
L 158.960515 247.644699 
L 159.068751 245.961686 
L 159.12287 247.295895 
L 159.176988 247.067235 
L 159.231106 244.721005 
L 159.285224 246.611896 
L 159.339342 246.388613 
L 159.39346 245.680817 
L 159.447578 246.272408 
L 159.501696 246.274358 
L 159.555814 247.088185 
L 159.664051 242.568049 
L 159.772287 244.778556 
L 159.880523 233.32311 
L 160.096996 249.156743 
L 160.151114 247.16843 
L 160.205232 247.692753 
L 160.25935 251.244486 
L 160.313468 246.486984 
L 160.367586 246.657278 
L 160.421704 250.079723 
L 160.475822 273.013523 
L 160.52994 254.675764 
L 160.638177 60.244767 
L 160.692295 103.427029 
L 160.800531 257.08605 
L 160.854649 249.697141 
L 160.962885 281.169103 
L 161.071122 277.404343 
L 161.179358 267.987325 
L 161.233476 269.11195 
L 161.39583 258.252503 
L 161.449948 258.44892 
L 161.774657 236.440754 
L 161.991129 211.699166 
L 162.099366 197.299624 
L 162.153484 198.960355 
L 162.26172 218.522725 
L 162.532311 278.352763 
L 162.640547 281.638742 
L 163.344082 261.82083 
L 163.3982 262.33118 
L 163.452318 262.440723 
L 163.506437 263.559716 
L 163.560555 263.11872 
L 163.777027 258.175371 
L 163.939381 260.056888 
L 164.101736 254.862153 
L 164.155854 255.450933 
L 164.209972 255.962846 
L 164.318208 253.18158 
L 164.372326 253.40094 
L 164.426444 253.596928 
L 164.534681 252.189683 
L 164.588799 253.55619 
L 164.697035 250.400611 
L 164.751153 251.479818 
L 164.967626 248.729638 
L 165.021744 249.072108 
L 165.184098 248.331353 
L 165.238216 248.738898 
L 165.346452 247.408028 
L 165.40057 248.904445 
L 165.454689 247.506873 
L 165.508807 245.167645 
L 165.562925 246.251048 
L 165.725279 248.282205 
L 165.941752 244.222166 
L 165.99587 244.547455 
L 166.104106 246.694194 
L 166.158224 246.580343 
L 166.212342 246.37588 
L 166.26646 247.102514 
L 166.428814 234.235127 
L 166.645287 249.183209 
L 166.699405 245.030089 
L 166.753523 248.163972 
L 166.807641 248.577484 
L 166.861759 244.741957 
L 166.969996 254.28156 
L 167.024114 278.486196 
L 167.186468 65.272066 
L 167.240586 124.363771 
L 167.348822 259.437663 
L 167.40294 244.048596 
L 167.511177 277.000117 
L 167.673531 264.663885 
L 167.727649 269.415509 
L 167.944122 255.740842 
L 167.99824 256.06039 
L 168.214712 244.804096 
L 168.431185 224.149224 
L 168.647657 197.945769 
L 168.701775 198.158196 
L 168.810011 222.354474 
L 169.080602 280.333657 
L 169.13472 281.851261 
L 169.188838 281.165486 
L 169.405311 274.840417 
L 169.838255 264.460857 
L 169.946492 261.85412 
L 170.00061 260.75088 
L 170.054728 261.153998 
L 170.433555 259.033043 
L 170.541791 256.772082 
L 170.595909 258.338315 
L 170.704145 253.55633 
L 170.758263 255.455995 
L 170.812381 255.273433 
L 170.920618 253.646851 
L 170.974736 254.47448 
L 171.082972 250.119302 
L 171.13709 252.100961 
L 171.191208 253.360882 
L 171.245326 252.240441 
L 171.299444 250.779873 
L 171.353563 252.141568 
L 171.407681 251.325556 
L 171.570035 248.368255 
L 171.678271 249.729129 
L 171.732389 248.395688 
L 171.786507 250.580576 
L 171.894744 246.330199 
L 172.057098 248.898673 
L 172.219452 246.348647 
L 172.27357 245.658243 
L 172.327689 247.811241 
L 172.381807 246.610515 
L 172.435925 246.509809 
L 172.490043 244.820849 
L 172.544161 244.871682 
L 172.706515 247.424888 
L 173.085342 234.482136 
L 173.301815 250.759822 
L 173.355933 246.420112 
L 173.410051 248.528864 
L 173.464169 249.356014 
L 173.518287 246.143377 
L 173.572405 249.479166 
L 173.626523 252.057855 
L 173.680641 275.267586 
L 173.734759 247.348823 
L 173.842996 60.864287 
L 173.897114 122.001243 
L 174.00535 263.854017 
L 174.059468 243.370907 
L 174.167704 274.342917 
L 174.221822 267.5908 
L 174.275941 271.287301 
L 174.438295 262.432854 
L 174.925358 238.976036 
L 175.304185 193.242905 
L 175.358303 194.61287 
L 175.520657 238.883484 
L 175.73713 287.371824 
L 175.791248 290.894373 
L 175.845366 290.301842 
L 175.899484 286.772079 
L 175.953602 287.572388 
L 176.00772 287.515771 
L 176.278311 273.138218 
L 176.657137 265.691672 
L 176.711256 265.38227 
L 176.765374 266.939694 
L 176.87361 262.973405 
L 176.927728 263.068212 
L 177.198319 259.944343 
L 177.523027 250.715315 
L 177.577145 252.88576 
L 177.631263 251.935479 
L 177.847736 247.435 
L 178.01009 243.214286 
L 178.064208 243.324661 
L 178.334799 248.349408 
L 178.443035 242.368702 
L 178.605389 253.870019 
L 178.659507 249.940179 
L 178.713626 245.36363 
L 178.767744 248.006109 
L 178.821862 248.306951 
L 178.87598 243.968553 
L 178.930098 244.069779 
L 179.038334 268.471949 
L 179.200689 72.036408 
L 179.254807 134.525449 
L 179.363043 257.955662 
L 179.417161 240.747638 
L 179.471279 263.56119 
L 179.579515 263.226292 
L 179.633633 272.291245 
L 179.795988 257.586887 
L 180.283051 235.298186 
L 180.661878 194.649496 
L 180.715996 199.168159 
L 181.094822 284.219558 
L 181.148941 283.552574 
L 181.203059 283.886059 
L 182.068948 260.19081 
L 182.123067 260.408969 
L 182.177185 262.500028 
L 182.285421 258.821517 
L 182.339539 260.363112 
L 182.393657 258.922497 
L 182.447775 258.713022 
L 182.501893 259.351765 
L 182.772484 254.339441 
L 182.826602 254.698384 
L 182.88072 254.586881 
L 183.313665 249.167476 
L 183.367783 250.625479 
L 183.476019 238.066321 
L 183.530137 241.241918 
L 183.74661 250.801504 
L 183.854846 252.375626 
L 183.908964 249.675243 
L 183.963082 250.388132 
L 184.0172 250.745484 
L 184.125437 277.517094 
L 184.233673 72.774519 
L 184.287791 74.717907 
L 184.450145 258.988712 
L 184.504263 247.349365 
L 184.558382 275.098843 
L 184.6125 268.197341 
L 184.720736 270.5883 
L 184.88309 261.27699 
L 184.937208 261.345181 
L 185.532508 213.841742 
L 185.74898 194.747833 
L 185.857216 215.060655 
L 186.127807 280.057389 
L 186.181925 283.221902 
L 186.236043 282.356177 
L 186.290161 282.501815 
L 186.344279 282.288075 
L 186.88546 263.636459 
L 187.101933 259.719803 
L 187.156051 259.828538 
L 187.210169 260.321397 
L 187.318405 258.636017 
L 187.372523 259.135462 
L 187.426641 258.658349 
L 188.021941 252.713603 
L 188.130177 240.231277 
L 188.184295 244.755088 
L 188.346649 253.952749 
L 188.400767 253.015987 
L 188.454886 253.440062 
L 188.61724 255.0622 
L 188.671358 254.042541 
L 188.779594 273.657461 
L 188.88783 66.223672 
L 188.941949 83.272094 
L 189.050185 265.842507 
L 189.104303 259.106543 
L 189.158421 252.411403 
L 189.212539 273.06717 
L 189.266657 266.057361 
L 189.320775 271.07155 
L 189.374893 268.045273 
L 189.537248 258.576011 
L 189.591366 259.129961 
L 190.349019 188.481892 
L 190.403137 191.452849 
L 190.836082 288.271692 
L 190.944319 285.329825 
L 191.647854 263.944637 
L 191.864326 261.322119 
L 191.918445 261.525526 
L 192.189035 256.35832 
L 192.405508 244.255917 
L 192.459626 244.82116 
L 192.676098 256.346177 
L 192.730216 254.721153 
L 192.784334 255.666387 
L 192.838452 255.641266 
L 192.892571 253.039285 
L 192.946689 254.360578 
L 193.000807 255.001955 
L 193.054925 274.865675 
L 193.109043 260.843611 
L 193.217279 63.34925 
L 193.271397 105.111812 
L 193.379634 271.847651 
L 193.433752 252.114649 
L 193.541988 275.110266 
L 193.650224 271.588932 
L 193.866697 257.902969 
L 193.920815 259.106608 
L 194.137287 245.609 
L 194.299641 233.814244 
L 194.678468 191.489757 
L 194.786704 211.587098 
L 195.057295 279.510833 
L 195.165531 282.154749 
L 195.219649 281.719557 
L 196.085539 258.779946 
L 196.193775 257.90988 
L 196.247893 258.17227 
L 196.302012 258.259115 
L 196.680838 252.772527 
L 196.734956 252.638599 
L 196.897311 248.106502 
L 196.951429 249.29854 
L 197.059665 237.960605 
L 197.276138 252.022968 
L 197.438492 252.611443 
L 197.49261 252.94475 
L 197.546728 251.265365 
L 197.600846 252.177193 
L 197.654964 257.390011 
L 197.709082 279.284043 
L 197.871437 62.650185 
L 197.925555 121.508772 
L 198.033791 268.049752 
L 198.087909 247.587498 
L 198.196145 275.943194 
L 198.3585 264.464486 
L 198.412618 268.008589 
L 198.737327 248.881195 
L 198.791445 248.069018 
L 199.116153 216.198496 
L 199.332626 195.101063 
L 199.440862 216.805879 
L 199.711453 278.134025 
L 199.765571 280.718491 
L 199.819689 280.122708 
L 200.252634 267.527409 
L 200.577342 260.365349 
L 200.847933 258.087873 
L 201.064405 257.038058 
L 201.389114 252.813675 
L 201.767941 250.580935 
L 201.822059 250.745063 
L 202.255004 247.918202 
L 202.525594 246.549099 
L 202.63383 246.80736 
L 202.904421 245.343108 
L 202.958539 245.267429 
L 203.066775 245.790434 
L 203.120893 245.604883 
L 203.175012 245.658417 
L 203.283248 246.010929 
L 203.391484 245.557777 
L 203.553838 245.981089 
L 203.662075 245.188003 
L 203.716193 245.408759 
L 203.986783 246.25266 
L 204.095019 245.932232 
L 204.149138 246.357551 
L 204.203256 246.151506 
L 204.257374 245.706443 
L 204.311492 246.005154 
L 204.473846 246.38863 
L 204.582082 246.407004 
L 204.636201 246.959245 
L 204.690319 246.696081 
L 204.852673 246.401537 
L 204.906791 247.134129 
L 204.960909 246.901021 
L 205.069145 245.59872 
L 205.123264 246.007239 
L 205.177382 246.892262 
L 205.285618 235.57646 
L 205.50209 250.251703 
L 205.556208 250.710315 
L 205.610327 249.277202 
L 205.664445 251.676797 
L 205.718563 249.165441 
L 205.826799 251.819654 
L 205.935035 268.922798 
L 206.043271 66.967079 
L 206.09739 96.371882 
L 206.205626 259.443588 
L 206.313862 257.556393 
L 206.36798 284.54322 
L 206.422098 270.12603 
L 206.476216 278.07302 
L 206.530334 273.227485 
L 206.692689 263.516873 
L 206.746807 267.310427 
L 206.963279 252.957771 
L 207.017397 252.430077 
L 207.558579 199.753166 
L 207.612697 202.83434 
L 208.045642 281.832208 
L 208.09976 281.392951 
L 208.262114 277.53905 
L 208.640941 266.751894 
L 209.506831 257.204138 
L 209.777421 254.329491 
L 209.831539 254.331353 
L 210.10213 251.131849 
L 210.210366 251.363624 
L 210.480957 248.845435 
L 210.535075 249.073902 
L 210.751547 248.35207 
L 210.859783 247.137585 
L 210.913901 247.681216 
L 211.022138 246.593255 
L 211.076256 246.740081 
L 211.130374 246.536212 
L 211.184492 246.717422 
L 211.23861 246.735804 
L 211.346846 246.039607 
L 211.509201 244.049052 
L 211.617437 244.456469 
L 211.833909 243.41158 
L 211.888027 244.02435 
L 211.996264 242.279408 
L 212.050382 242.317471 
L 212.1045 242.803041 
L 212.212736 232.023514 
L 212.266854 234.405706 
L 212.483327 248.713381 
L 212.537445 246.031669 
L 212.591563 249.279918 
L 212.645681 248.169679 
L 212.699799 247.621578 
L 212.753917 248.582083 
L 212.862153 275.749262 
L 213.024508 71.735377 
L 213.186862 262.511006 
L 213.24098 243.992408 
L 213.295098 272.645181 
L 213.349216 268.06077 
L 213.403334 267.504666 
L 213.457453 269.893189 
L 213.619807 258.988086 
L 213.673925 260.866356 
L 214.215106 223.751183 
L 214.485697 191.401104 
L 214.593933 208.716858 
L 214.918642 288.086543 
L 215.026878 289.38966 
L 215.135114 286.607024 
L 215.676295 267.375381 
L 215.946886 263.189616 
L 216.217476 259.631926 
L 216.488067 255.266955 
L 216.596303 254.780799 
L 216.812775 251.677152 
L 216.866894 251.750059 
L 217.462193 247.323086 
L 217.516311 247.592255 
L 217.570429 247.488234 
L 217.84102 246.030805 
L 217.895138 245.930024 
L 218.003374 244.053242 
L 218.057492 244.717087 
L 218.165728 233.747822 
L 218.219846 237.47469 
L 218.436319 248.813232 
L 218.490437 247.181004 
L 218.544555 249.322493 
L 218.598673 248.252219 
L 218.652791 247.416286 
L 218.706909 248.993625 
L 218.815146 275.526581 
L 218.9775 73.290927 
L 219.139854 263.290495 
L 219.193972 245.220229 
L 219.24809 274.329973 
L 219.302209 269.31957 
L 219.356327 267.993843 
L 219.410445 271.816479 
L 219.572799 260.053003 
L 219.626917 260.473377 
L 220.005744 240.442084 
L 220.222216 217.499371 
L 220.438689 194.133356 
L 220.546925 210.680622 
L 220.871634 284.594782 
L 220.925752 285.199712 
L 220.97987 284.787279 
L 221.196342 278.14602 
L 221.953996 260.064752 
L 222.008114 260.034376 
L 222.170468 258.118498 
L 222.603413 253.08197 
L 222.928122 249.880412 
L 222.98224 249.951925 
L 223.036358 249.881113 
L 223.361067 248.061821 
L 223.415185 247.880355 
L 223.631657 246.463878 
L 223.685776 246.783884 
L 223.739894 246.697959 
L 224.064602 245.013508 
L 224.11872 245.146478 
L 224.281075 244.580611 
L 224.335193 244.761578 
L 224.443429 244.535143 
L 224.497547 244.910105 
L 224.551665 244.56111 
L 224.822256 242.87608 
L 224.876374 244.648328 
L 224.98461 232.928492 
L 225.038728 234.61039 
L 225.255201 249.08216 
L 225.309319 246.8092 
L 225.363437 249.076079 
L 225.471673 247.530397 
L 225.525791 249.452086 
L 225.579909 255.944869 
L 225.634027 276.559234 
L 225.796382 72.650126 
L 225.8505 140.043431 
L 225.958736 263.861482 
L 226.012854 246.676368 
L 226.066972 276.283739 
L 226.12109 273.887058 
L 226.175209 270.253206 
L 226.229327 276.600298 
L 226.391681 263.917447 
L 226.445799 263.902153 
L 226.554035 256.767467 
L 226.608153 256.905396 
L 227.257571 197.900593 
L 227.311689 199.107593 
L 227.474043 240.640779 
L 227.690516 282.734746 
L 227.798752 284.376441 
L 228.826996 261.549001 
L 229.043468 259.445837 
L 229.368177 254.926927 
L 230.179949 248.726732 
L 230.288185 248.749136 
L 230.504657 247.398554 
L 230.558776 246.842109 
L 230.612894 247.316232 
L 231.045839 245.478562 
L 231.099957 245.415144 
L 231.154075 245.716076 
L 231.208193 245.582646 
L 231.262311 245.498353 
L 231.316429 245.603854 
L 231.370547 245.088372 
L 231.424665 245.249937 
L 231.478783 245.236793 
L 231.641138 242.833885 
L 231.695256 244.044246 
L 231.803492 231.910217 
L 231.85761 234.679514 
L 232.074083 247.812928 
L 232.128201 245.884289 
L 232.182319 248.396178 
L 232.236437 247.361621 
L 232.290555 246.908649 
L 232.344673 248.391863 
L 232.452909 274.24161 
L 232.615264 76.316028 
L 232.777618 258.692207 
L 232.831736 246.225357 
L 232.885854 276.248359 
L 232.939972 269.46238 
L 232.994091 269.642256 
L 233.048209 272.832295 
L 233.210563 261.013638 
L 233.264681 262.44998 
L 233.914098 214.848915 
L 234.076453 196.317373 
L 234.130571 197.982163 
L 234.563516 283.761653 
L 234.671752 282.681848 
L 235.375287 263.424257 
L 235.537642 262.575201 
L 235.59176 262.620455 
L 236.078823 255.93518 
L 236.132941 256.150329 
L 236.187059 255.840395 
L 236.403531 252.898237 
L 236.782358 250.180543 
L 236.890594 250.575135 
L 237.052949 249.352837 
L 237.323539 246.90201 
L 237.485894 247.748657 
L 237.702366 246.292308 
L 237.756484 246.565875 
L 237.810602 246.501802 
L 237.86472 246.047472 
L 237.918839 246.236646 
L 237.972957 246.349329 
L 238.027075 245.95752 
L 238.135311 244.061285 
L 238.189429 245.064571 
L 238.297665 234.151453 
L 238.351783 235.726205 
L 238.568256 249.182083 
L 238.622374 246.984624 
L 238.676492 249.9669 
L 238.73061 248.487491 
L 238.784728 248.642808 
L 238.838846 249.972366 
L 238.947083 274.255918 
L 239.055319 74.962647 
L 239.109437 78.922666 
L 239.217673 259.102333 
L 239.271791 258.873928 
L 239.325909 246.699097 
L 239.380028 273.91761 
L 239.434146 266.640538 
L 239.488264 269.102149 
L 239.542382 269.036785 
L 239.704736 259.13936 
L 239.758854 260.776111 
L 240.46239 200.707557 
L 240.570626 191.053473 
L 240.678862 207.767932 
L 241.003571 288.101294 
L 241.057689 288.790755 
L 241.111807 288.610297 
L 241.815343 266.169351 
L 242.302406 260.813766 
L 242.681232 254.599658 
L 243.005941 251.715952 
L 243.222413 249.059828 
L 243.60124 245.364595 
L 243.655358 244.424177 
L 243.709476 245.018591 
L 243.817713 234.621495 
L 243.871831 237.36349 
L 244.088303 248.710446 
L 244.142421 246.759056 
L 244.196539 249.040773 
L 244.250658 247.309541 
L 244.304776 247.140464 
L 244.358894 248.199109 
L 244.46713 273.34442 
L 244.575366 75.282208 
L 244.629484 78.898937 
L 244.791839 258.681839 
L 244.845957 245.773481 
L 244.900075 274.246043 
L 244.954193 266.655476 
L 245.062429 269.830155 
L 245.224784 259.258218 
L 245.278902 260.339643 
L 245.928319 210.041918 
L 246.090673 194.062794 
L 246.19891 211.49059 
L 246.523618 283.994625 
L 246.577736 284.302683 
L 246.740091 280.976828 
L 247.064799 270.17642 
L 247.443626 261.670003 
L 248.309516 252.641042 
L 248.525988 250.833472 
L 248.634224 249.936485 
L 248.688343 250.029363 
L 248.958933 248.15188 
L 249.013051 248.276801 
L 249.067169 248.317225 
L 249.33776 247.012426 
L 249.445996 246.659945 
L 249.500114 246.250135 
L 249.662469 243.621216 
L 249.770705 234.38229 
L 249.987177 249.100777 
L 250.041295 247.433522 
L 250.095413 248.388284 
L 250.149532 249.491875 
L 250.20365 247.247538 
L 250.257768 249.115348 
L 250.311886 252.953692 
L 250.366004 275.358261 
L 250.420122 235.357924 
L 250.528358 62.923721 
L 250.798949 267.335954 
L 250.853067 275.888571 
L 251.015421 264.655821 
L 251.069539 267.79185 
L 251.394248 251.119422 
L 251.448366 250.202781 
L 251.773075 222.307026 
L 251.989547 197.118122 
L 252.043665 197.401891 
L 252.20602 238.709859 
L 252.422492 281.673892 
L 252.530728 283.144409 
L 252.638965 281.050257 
L 253.180146 264.636699 
L 253.504854 260.096558 
L 253.775445 257.709199 
L 254.154272 253.947152 
L 254.262508 252.971689 
L 254.803689 248.182488 
L 254.911925 248.194229 
L 255.07428 247.586883 
L 255.34487 246.762115 
L 255.398988 246.834666 
L 255.453106 246.722823 
L 255.615461 246.265207 
L 255.669579 246.611451 
L 255.723697 246.271035 
L 255.994288 243.511774 
L 256.048406 245.053043 
L 256.102524 243.653078 
L 256.21076 233.83763 
L 256.427232 249.094764 
L 256.481351 247.716986 
L 256.535469 248.796397 
L 256.589587 249.556334 
L 256.643705 247.939358 
L 256.751941 254.063528 
L 256.806059 276.472844 
L 256.968414 65.702585 
L 257.022532 125.874596 
L 257.130768 264.145943 
L 257.184886 245.706197 
L 257.293122 276.599425 
L 257.455477 265.970093 
L 257.509595 269.769669 
L 257.726067 256.934479 
L 257.780185 258.001328 
L 257.996658 244.534584 
L 258.159012 231.043358 
L 258.483721 197.942702 
L 258.646075 237.561193 
L 258.862547 280.724622 
L 258.970784 282.543882 
L 259.133138 277.752401 
L 259.620201 262.740605 
L 259.728437 260.963645 
L 259.782555 261.015384 
L 259.836673 260.939151 
L 260.2155 257.589163 
L 260.269618 257.370021 
L 260.702563 252.499555 
L 260.756681 252.528182 
L 260.810799 252.827341 
L 261.189626 249.318924 
L 261.243744 249.385119 
L 261.514335 248.041761 
L 261.568453 247.92596 
L 261.622571 248.204231 
L 261.676689 247.923004 
L 261.839043 247.459665 
L 262.109634 246.580529 
L 262.163752 246.972546 
L 262.271988 245.807714 
L 262.326106 246.212377 
L 262.434343 246.582447 
L 262.542579 243.902039 
L 262.596697 245.326467 
L 262.704933 233.177827 
L 262.759051 238.17123 
L 262.975524 249.554907 
L 263.029642 247.955654 
L 263.08376 250.058121 
L 263.137878 247.928383 
L 263.246114 250.461876 
L 263.300232 268.786766 
L 263.354351 264.168761 
L 263.462587 62.041235 
L 263.516705 97.091847 
L 263.624941 266.180486 
L 263.679059 250.946396 
L 263.733177 255.220437 
L 263.787295 277.428853 
L 263.841414 265.60944 
L 263.895532 273.05857 
L 263.94965 267.446641 
L 264.436713 247.092455 
L 264.81554 207.28734 
L 264.977894 192.624813 
L 265.08613 211.50107 
L 265.356721 284.229569 
L 265.464957 287.003951 
L 265.519075 286.800076 
L 266.22261 265.54923 
L 266.384965 264.699459 
L 267.846154 247.891333 
L 267.900272 248.075069 
L 267.95439 248.211969 
L 268.224981 241.399229 
L 268.279099 233.810297 
L 268.333217 234.613605 
L 268.549689 248.491825 
L 268.603807 246.201054 
L 268.657925 248.102457 
L 268.712044 248.022834 
L 268.766162 245.8451 
L 268.82028 247.213274 
L 268.874398 251.421444 
L 268.928516 274.067713 
L 269.09087 64.447158 
L 269.144988 128.913585 
L 269.253225 265.741523 
L 269.307343 242.191704 
L 269.415579 270.15139 
L 269.469697 262.68265 
L 269.523815 269.732861 
L 269.68617 259.008689 
L 270.173233 235.665655 
L 270.552059 193.383656 
L 270.606177 195.474191 
L 271.039122 282.897521 
L 271.147358 281.545212 
L 272.013248 262.013719 
L 272.121484 261.378957 
L 272.554429 256.461392 
L 272.770902 254.054607 
L 273.149729 251.741105 
L 273.582673 248.556604 
L 273.636792 248.531944 
L 273.745028 247.114873 
L 273.907382 244.75539 
L 274.015618 235.123276 
L 274.232091 249.722391 
L 274.286209 248.775097 
L 274.340327 248.941971 
L 274.394445 250.262808 
L 274.448563 247.886221 
L 274.502681 249.767332 
L 274.556799 251.710258 
L 274.610918 272.405935 
L 274.665036 252.727915 
L 274.773272 60.410869 
L 274.82739 107.517894 
L 274.935626 263.790817 
L 274.989744 247.869948 
L 275.097981 278.34616 
L 275.206217 275.489788 
L 275.368571 266.638494 
L 275.530925 255.971622 
L 275.585044 256.556323 
L 276.288579 197.167895 
L 276.450933 236.316696 
L 276.667406 280.752731 
L 276.775642 282.583373 
L 277.154469 271.048653 
L 277.479177 262.643566 
L 277.803886 259.606892 
L 279.265075 247.279631 
L 279.373311 247.282666 
L 279.643902 245.616944 
L 279.69802 245.804355 
L 279.806256 244.58221 
L 279.860374 243.666467 
L 279.914492 244.836947 
L 280.022729 233.723608 
L 280.076847 234.609689 
L 280.293319 248.642694 
L 280.347437 247.320514 
L 280.401555 248.475965 
L 280.455674 249.169976 
L 280.509792 247.18175 
L 280.56391 249.068407 
L 280.618028 253.041147 
L 280.672146 275.219231 
L 280.726264 235.291962 
L 280.8345 62.155208 
L 281.105091 267.418646 
L 281.159209 275.91694 
L 281.321563 264.667601 
L 281.375681 268.08839 
L 281.70039 251.333192 
L 281.862744 242.903383 
L 282.025099 229.938179 
L 282.295689 197.059144 
L 282.349807 197.449033 
L 282.512162 238.093543 
L 282.728634 279.802066 
L 282.83687 281.735414 
L 283.756878 260.263628 
L 283.919233 260.046189 
L 284.135705 257.506437 
L 284.189823 257.311065 
L 284.56865 253.583189 
L 284.785122 252.672977 
L 285.001595 250.74906 
L 285.055713 250.988905 
L 285.109831 250.770605 
L 285.218067 250.013833 
L 285.43454 248.484212 
L 285.488658 248.206466 
L 285.596894 248.682752 
L 285.70513 247.342422 
L 285.759248 247.588289 
L 285.921603 246.519135 
L 285.975721 246.662713 
L 286.029839 247.146804 
L 286.083957 246.807355 
L 286.138075 246.812019 
L 286.246311 245.974187 
L 286.300429 246.586964 
L 286.354548 245.973716 
L 286.516902 244.336945 
L 286.57102 244.942598 
L 286.679256 233.140545 
L 286.733374 236.229132 
L 286.949847 249.523944 
L 287.003965 247.234153 
L 287.058083 249.985504 
L 287.112201 248.849087 
L 287.220437 249.757724 
L 287.328674 274.365477 
L 287.43691 75.40901 
L 287.491028 78.127233 
L 287.653382 260.846557 
L 287.7075 247.469548 
L 287.761618 275.131129 
L 287.815737 267.698877 
L 287.923973 271.038574 
L 288.086327 260.090924 
L 288.140445 260.970201 
L 288.681626 223.368636 
L 288.952217 191.921388 
L 289.006335 195.434712 
L 289.43928 288.978097 
L 289.493398 287.87408 
L 289.601634 285.282441 
L 290.034579 269.117939 
L 290.359288 263.626032 
L 290.57576 261.655393 
L 291.387532 250.77999 
L 291.44165 250.767624 
L 291.874595 246.404178 
L 292.091067 244.65194 
L 292.253422 241.951316 
L 292.361658 234.202186 
L 292.57813 248.007364 
L 292.632248 246.54235 
L 292.686367 246.945612 
L 292.740485 248.811216 
L 292.794603 246.628391 
L 292.848721 248.418948 
L 292.902839 249.764161 
L 292.956957 269.798134 
L 293.011075 253.023591 
L 293.119311 62.548758 
L 293.17343 106.579694 
L 293.281666 265.599043 
L 293.335784 247.748354 
L 293.44402 276.014073 
L 293.552256 272.465192 
L 293.714611 263.920262 
L 293.876965 253.974368 
L 293.931083 254.436555 
L 294.472264 206.899965 
L 294.634618 194.577676 
L 294.796973 235.759031 
L 295.013445 281.762744 
L 295.121681 283.874385 
L 295.771099 264.895463 
L 295.987571 261.525388 
L 296.149926 260.759043 
L 296.474634 257.252072 
L 296.636989 255.908565 
L 297.17817 250.929017 
L 297.232288 250.807158 
L 297.502878 248.742408 
L 297.665233 247.846705 
L 297.935823 246.40626 
L 297.989941 246.512209 
L 298.044059 246.40829 
L 298.260532 245.69976 
L 298.31465 245.720286 
L 298.639359 243.038268 
L 298.693477 243.64376 
L 298.747595 243.736932 
L 298.855831 233.122234 
L 299.072304 248.098483 
L 299.126422 247.984966 
L 299.18054 246.672362 
L 299.234658 248.86296 
L 299.288776 246.74496 
L 299.397012 249.026756 
L 299.45113 267.024595 
L 299.505248 262.58074 
L 299.613485 63.227386 
L 299.667603 96.643412 
L 299.775839 259.376884 
L 299.829957 251.511459 
L 299.884075 255.902117 
L 299.938193 280.462035 
L 299.992311 266.497337 
L 300.04643 275.066008 
L 300.100548 269.176939 
L 300.262902 260.816361 
L 300.31702 263.853769 
L 300.533493 250.933783 
L 300.587611 249.824714 
L 301.128792 197.153683 
L 301.18291 201.138311 
L 301.615855 282.564475 
L 301.669973 282.128351 
L 302.481745 262.715424 
L 303.834697 250.481959 
L 304.32176 247.750976 
L 304.375878 248.067106 
L 304.538233 246.740501 
L 304.592351 246.787714 
L 304.646469 246.855001 
L 304.700587 246.79234 
L 305.18765 245.148016 
L 305.241768 243.640969 
L 305.295886 243.654916 
L 305.350004 244.997098 
L 305.458241 232.914967 
L 305.512359 237.14788 
L 305.728831 248.541769 
L 305.782949 246.92604 
L 305.837067 249.305733 
L 305.891186 247.709882 
L 305.999422 249.318327 
L 306.107658 273.118189 
L 306.215894 71.03449 
L 306.270012 81.504104 
L 306.432367 256.980369 
L 306.486485 248.85376 
L 306.540603 278.301786 
L 306.594721 268.522051 
L 306.648839 271.43167 
L 306.702957 271.353337 
L 306.865311 260.442645 
L 306.91943 262.639188 
L 307.244138 245.407485 
L 307.352374 238.567666 
L 307.731201 197.704043 
L 307.785319 199.547652 
L 307.947674 241.745665 
L 308.164146 281.547719 
L 308.218264 282.219433 
L 308.272382 281.849668 
L 309.19239 260.933224 
L 309.246508 260.971563 
L 309.354745 260.203614 
L 310.05828 252.545367 
L 310.328871 251.13269 
L 310.761815 248.373438 
L 310.815934 248.770042 
L 310.92417 247.864759 
L 310.978288 248.368148 
L 311.086524 246.425892 
L 311.19476 247.65191 
L 311.248878 247.293613 
L 311.465351 246.18523 
L 311.573587 245.819693 
L 311.735941 244.47147 
L 311.844178 233.877397 
L 312.06065 249.207655 
L 312.114768 248.202414 
L 312.168886 248.648685 
L 312.223004 250.541331 
L 312.277123 247.570454 
L 312.331241 249.380644 
L 312.385359 250.881943 
L 312.439477 271.199754 
L 312.493595 255.637143 
L 312.601831 60.674262 
L 312.655949 106.404472 
L 312.764186 269.903235 
L 312.818304 248.430536 
L 312.92654 275.586608 
L 313.034776 272.57137 
L 313.088894 265.152101 
L 313.19713 265.266961 
L 313.359485 255.40181 
L 313.413603 256.11012 
L 314.008902 199.514014 
L 314.117138 191.700759 
L 314.225375 211.900063 
L 314.550083 287.021012 
L 314.604201 287.786207 
L 315.253619 268.102721 
L 315.578327 263.509018 
L 315.686564 262.307668 
L 315.903036 259.073141 
L 316.119508 256.659035 
L 316.552453 251.048805 
L 316.606571 251.079704 
L 317.418343 244.233842 
L 317.580697 239.362489 
L 317.634815 232.774831 
L 317.688934 235.448564 
L 317.905406 247.766105 
L 317.959524 245.716971 
L 318.013642 247.986659 
L 318.06776 246.848464 
L 318.121878 246.676606 
L 318.175997 247.86022 
L 318.284233 274.173818 
L 318.446587 75.678329 
L 318.608941 260.60501 
L 318.66306 243.846019 
L 318.717178 271.430395 
L 318.771296 266.523207 
L 318.825414 266.701393 
L 318.879532 268.997117 
L 319.041886 258.278164 
L 319.096004 259.167053 
L 319.691304 218.970583 
L 319.907776 195.015117 
L 319.961894 196.927609 
L 320.394839 283.007718 
L 320.503075 282.132871 
L 320.66543 277.316802 
L 321.314847 262.534289 
L 321.423083 261.551296 
L 322.288973 253.144898 
L 322.613682 250.528322 
L 322.721918 248.980925 
L 322.776036 249.458363 
L 322.830154 249.672266 
L 322.93839 248.759602 
L 322.992508 249.188957 
L 323.317217 246.42828 
L 323.587808 245.765562 
L 323.641926 245.890798 
L 323.750162 244.115096 
L 323.858398 244.717924 
L 323.966634 233.198973 
L 324.020753 237.982066 
L 324.237225 248.447134 
L 324.291343 247.27095 
L 324.345461 249.963519 
L 324.399579 247.798649 
L 324.507816 250.017672 
L 324.561934 266.625472 
L 324.616052 265.599779 
L 324.724288 64.093443 
L 324.778406 93.406802 
L 324.886642 257.219707 
L 324.94076 252.778686 
L 324.994879 254.487046 
L 325.048997 280.029074 
L 325.103115 266.999945 
L 325.157233 274.118258 
L 325.211351 269.528441 
L 325.373705 260.54189 
L 325.427823 263.557489 
L 325.644296 250.865341 
L 325.698414 249.779198 
L 326.239595 196.869519 
L 326.293713 199.588647 
L 326.726658 282.788877 
L 326.780776 281.968889 
L 327.051367 273.760431 
L 327.430194 263.9374 
L 327.646666 261.014694 
L 327.700784 261.102305 
L 328.296083 254.922683 
L 328.783146 250.478984 
L 328.837264 250.087225 
L 328.891383 250.25474 
L 328.945501 250.196842 
L 329.107855 249.375686 
L 329.161973 249.265049 
L 329.432564 247.835199 
L 329.486682 247.854766 
L 329.594918 247.482768 
L 329.81139 246.438872 
L 330.027863 245.127098 
L 330.081981 244.433256 
L 330.136099 244.675791 
L 330.190217 245.878828 
L 330.298453 233.669219 
L 330.352571 237.823009 
L 330.569044 248.899211 
L 330.623162 247.101953 
L 330.67728 249.814151 
L 330.731398 247.455387 
L 330.839634 249.515953 
L 330.947871 270.826085 
L 331.056107 67.126114 
L 331.110225 87.090137 
L 331.272579 254.192592 
L 331.326697 251.057829 
L 331.380816 279.414759 
L 331.434934 268.09 
L 331.489052 272.667129 
L 331.54317 270.764104 
L 331.705524 261.019798 
L 331.759642 263.216184 
L 331.976115 250.780071 
L 332.030233 250.21952 
L 332.571414 198.047596 
L 332.625532 200.454605 
L 333.058477 282.691762 
L 333.166713 280.929887 
L 333.707894 263.752978 
L 333.870249 261.062569 
L 333.924367 259.936186 
L 334.032603 259.949585 
L 334.249075 258.902589 
L 334.844375 252.922372 
L 334.898493 252.898481 
L 335.493792 249.146254 
L 335.602028 249.195336 
L 335.710264 248.153382 
L 335.764383 248.25581 
L 335.980855 246.951151 
L 336.034973 246.874868 
L 336.089091 246.980952 
L 336.143209 247.1269 
L 336.251446 246.515597 
L 336.522036 243.667796 
L 336.576154 245.382121 
L 336.630272 244.072587 
L 336.738509 233.982586 
L 336.954981 249.494955 
L 337.009099 247.506528 
L 337.063217 248.565242 
L 337.117335 248.692892 
L 337.171453 247.736955 
L 337.27969 254.726104 
L 337.333808 275.746311 
L 337.496162 64.269006 
L 337.55028 133.877466 
L 337.658516 268.582258 
L 337.712635 245.640322 
L 337.820871 273.616985 
L 337.874989 267.174715 
L 337.929107 274.138673 
L 338.091461 263.46296 
L 338.41617 249.256842 
L 338.740879 221.488977 
L 338.957351 194.02294 
L 339.011469 194.267686 
L 339.119705 216.808933 
L 339.390296 284.009659 
L 339.498532 287.444808 
L 339.715005 280.768198 
L 340.202068 266.038065 
L 340.256186 265.910028 
L 340.472658 263.28727 
L 340.689131 260.944136 
L 341.067957 255.322785 
L 341.122075 255.748191 
L 341.500902 251.633411 
L 341.55502 251.625717 
L 341.609138 251.444286 
L 341.771493 249.675179 
L 342.042083 246.672406 
L 342.15032 235.822848 
L 342.204438 236.344728 
L 342.42091 249.518312 
L 342.475028 246.722092 
L 342.529146 248.179352 
L 342.637383 246.969085 
L 342.691501 248.057983 
L 342.745619 254.004833 
L 342.799737 275.624441 
L 342.962091 67.225903 
L 343.016209 137.624149 
L 343.124446 263.387249 
L 343.178564 240.938488 
L 343.2868 267.790221 
L 343.340918 263.0787 
L 343.395036 268.708873 
L 343.55739 258.094601 
L 343.665627 256.2446 
L 343.936217 241.739778 
L 344.15269 225.115354 
L 344.42328 194.006452 
L 344.477398 195.632509 
L 344.639753 239.61059 
L 344.856225 282.047478 
L 344.910343 283.907304 
L 344.964461 283.411337 
L 345.235052 275.303348 
L 345.776233 262.542857 
L 346.100942 259.423722 
L 346.15506 259.539324 
L 347.29154 248.36468 
L 347.453894 248.079324 
L 347.670367 247.29818 
L 347.724485 246.127647 
L 347.778603 246.517315 
L 347.832721 246.500278 
L 347.940957 234.866915 
L 347.995076 239.677142 
L 348.211548 249.820932 
L 348.265666 248.424123 
L 348.319784 250.416955 
L 348.373902 248.091525 
L 348.42802 249.195896 
L 348.482139 250.255999 
L 348.536257 266.886391 
L 348.590375 266.868551 
L 348.698611 63.542568 
L 348.752729 91.665187 
L 348.860965 256.960326 
L 348.915083 252.642907 
L 348.969202 253.548633 
L 349.02332 280.037635 
L 349.077438 266.914777 
L 349.131556 273.863001 
L 349.185674 270.080483 
L 349.348028 260.384929 
L 349.402146 263.127359 
L 349.618619 250.526477 
L 349.672737 249.308653 
L 350.213918 196.360363 
L 350.268036 200.997734 
L 350.700981 282.26147 
L 350.917454 276.497282 
L 351.675107 260.188864 
L 351.999816 257.527955 
L 352.108052 256.020372 
L 352.270406 254.221856 
L 352.703351 250.47 
L 352.757469 250.464827 
L 352.919824 249.310003 
L 352.973942 249.333253 
L 353.352768 247.562724 
L 353.839831 244.198761 
L 353.89395 245.79556 
L 354.002186 234.473392 
L 354.056304 234.907659 
L 354.272776 249.179281 
L 354.326894 247.5121 
L 354.435131 249.629794 
L 354.489249 247.767523 
L 354.597485 254.897763 
L 354.651603 276.981804 
L 354.813957 65.698427 
L 354.868076 129.186621 
L 354.976312 265.01897 
L 355.03043 246.052247 
L 355.138666 275.636154 
L 355.192784 268.185703 
L 355.246902 276.141984 
L 355.409257 264.564855 
L 355.89632 241.494209 
L 356.329265 197.273479 
L 356.491619 236.452346 
L 356.708091 279.893948 
L 356.762209 282.032779 
L 356.816328 281.933858 
L 357.086918 274.787879 
L 357.465745 263.572309 
L 357.844572 259.885693 
L 358.493989 252.925512 
L 358.602225 252.922427 
L 359.522233 247.319702 
L 359.576351 247.460233 
L 359.630469 247.15829 
L 359.684587 247.281599 
L 359.738706 247.198596 
L 359.792824 246.44545 
L 359.90106 246.477133 
L 360.117532 244.032339 
L 360.17165 244.619212 
L 360.225769 244.539551 
L 360.334005 232.918914 
L 360.388123 238.11655 
L 360.550477 249.230576 
L 360.604595 249.082069 
L 360.658713 247.667907 
L 360.712832 249.744976 
L 360.76695 247.155795 
L 360.821068 248.782289 
L 360.875186 249.576858 
L 360.929304 266.675821 
L 360.983422 265.164449 
L 361.091658 62.180801 
L 361.145776 92.146668 
L 361.254013 265.15186 
L 361.308131 252.916433 
L 361.362249 253.356205 
L 361.416367 277.361159 
L 361.470485 265.731701 
L 361.524603 273.350648 
L 361.578721 267.721586 
L 362.011666 248.360717 
L 362.119902 241.661351 
L 362.282257 229.405839 
L 362.606965 191.430482 
L 362.715202 209.735387 
L 363.03991 286.46022 
L 363.094028 288.347712 
L 363.148147 286.47877 
L 363.797564 267.120971 
L 363.851682 266.880137 
L 364.068154 264.463208 
L 364.122272 264.473141 
L 364.338745 261.356912 
L 364.392863 260.963314 
L 364.609335 257.522688 
L 365.691698 247.187607 
L 365.745816 247.252971 
L 365.854052 235.329877 
L 365.90817 238.472575 
L 366.124643 250.676483 
L 366.178761 248.257034 
L 366.232879 249.467516 
L 366.341115 247.314772 
L 366.395233 248.325024 
L 366.503469 275.889077 
L 366.665824 69.323553 
L 366.719942 143.895722 
L 366.828178 265.397873 
L 366.882296 243.083501 
L 366.990532 268.787447 
L 367.04465 265.244907 
L 367.098769 269.862746 
L 367.261123 259.081114 
L 367.369359 256.082943 
L 368.018776 202.775949 
L 368.127013 192.560086 
L 368.181131 194.792381 
L 368.668194 283.106979 
L 368.722312 281.941298 
L 369.479965 261.266119 
L 369.64232 260.329373 
L 369.696438 260.343549 
L 370.670564 249.531608 
L 370.7788 249.239279 
L 370.941154 247.459736 
L 370.995273 247.548805 
L 371.049391 247.542711 
L 371.265863 245.83985 
L 371.319981 245.814843 
L 371.590572 244.534988 
L 371.698808 242.873087 
L 371.752926 244.335806 
L 371.861162 232.021474 
L 371.91528 236.059177 
L 372.131753 247.561833 
L 372.185871 245.931265 
L 372.239989 248.19343 
L 372.294107 247.242969 
L 372.348225 247.09701 
L 372.402343 248.436236 
L 372.51058 273.823549 
L 372.618816 72.951967 
L 372.672934 76.944987 
L 372.835288 259.325345 
L 372.889406 247.198675 
L 372.943525 277.949833 
L 372.997643 270.076851 
L 373.105879 273.022164 
L 373.268233 261.461005 
L 373.322351 263.06531 
L 373.971769 214.782079 
L 374.134123 196.941061 
L 374.188241 199.10415 
L 374.404714 258.020042 
L 374.621186 283.890659 
L 374.675304 283.845759 
L 374.891777 277.72678 
L 375.37884 265.069823 
L 375.595312 263.092032 
L 375.64943 263.0979 
L 376.244729 257.360823 
L 376.352965 256.465072 
L 376.569438 254.38628 
L 376.731792 253.567885 
L 377.6518 248.323804 
L 377.705918 248.301735 
L 378.030627 247.259498 
L 378.138863 245.250421 
L 378.192981 246.978726 
L 378.301217 234.550536 
L 378.355336 237.104564 
L 378.571808 250.57105 
L 378.625926 248.665784 
L 378.680044 250.524631 
L 378.78828 248.929573 
L 378.842399 250.256121 
L 378.950635 277.424279 
L 379.112989 73.95856 
L 379.275343 261.14888 
L 379.329462 245.945461 
L 379.38358 275.546662 
L 379.437698 271.910182 
L 379.491816 269.980884 
L 379.545934 274.209031 
L 379.708288 261.626021 
L 379.762406 261.567161 
L 380.195351 237.437162 
L 380.574178 193.806469 
L 380.682414 202.542075 
L 381.061241 278.094194 
L 381.115359 278.070289 
L 381.927131 256.983349 
L 382.197721 254.427289 
L 382.414194 252.740443 
L 382.901257 248.648255 
L 382.955375 249.020258 
L 383.009493 248.987262 
L 383.117729 247.490615 
L 383.171847 247.57746 
L 383.225966 247.634014 
L 383.38832 246.707576 
L 383.442438 246.272073 
L 383.496556 246.673308 
L 383.821265 245.370151 
L 383.875383 245.347127 
L 383.983619 245.910119 
L 384.037737 245.899327 
L 384.091855 246.007112 
L 384.145973 245.953232 
L 384.200092 245.900171 
L 384.308328 246.114803 
L 384.416564 244.626928 
L 384.470682 245.479889 
L 384.578918 233.663181 
L 384.633036 235.669951 
L 384.849509 251.159047 
L 384.903627 249.369287 
L 384.957745 252.140483 
L 385.011863 250.729575 
L 385.065981 250.804158 
L 385.120099 252.456454 
L 385.228336 278.703962 
L 385.39069 75.389015 
L 385.553044 267.005805 
L 385.607162 250.604572 
L 385.661281 279.055853 
L 385.715399 274.519998 
L 385.769517 274.363176 
L 385.823635 277.385652 
L 385.985989 266.409147 
L 386.040107 266.814324 
L 386.635407 224.413702 
L 386.851879 199.293347 
L 386.905997 201.120311 
L 387.068351 246.079468 
L 387.284824 293.053989 
L 387.39306 295.488 
L 388.150714 272.888301 
L 388.367186 269.645955 
L 388.583658 265.836487 
L 389.178958 256.345479 
L 389.611903 249.233852 
L 389.828375 246.254649 
L 390.044847 240.48349 
L 390.153084 231.615369 
L 390.369556 244.854258 
L 390.423674 241.877174 
L 390.477792 242.685676 
L 390.53191 242.728855 
L 390.586029 239.796483 
L 390.640147 241.083018 
L 390.694265 243.762409 
L 390.748383 265.916477 
L 390.802501 230.11646 
L 390.910737 53.568 
L 391.073092 258.84901 
L 391.181328 251.188781 
L 391.235446 260.395105 
L 391.289564 251.052435 
L 391.343682 258.997148 
L 391.506036 248.080782 
L 392.155454 206.128477 
L 392.371926 181.278329 
L 392.426044 181.672079 
L 392.588399 223.435938 
L 392.804871 270.839651 
L 392.913107 273.963849 
L 393.346052 264.402955 
L 393.562525 261.206018 
L 393.670761 260.675638 
L 393.724879 260.98113 
L 393.99547 261.553273 
L 394.049588 261.47089 
L 394.157824 261.376199 
L 394.211942 261.535066 
L 394.26606 261.044424 
L 394.320178 261.055455 
L 394.482533 261.79891 
L 395.13195 264.666994 
L 395.186068 264.188069 
L 395.294304 265.074834 
L 395.348422 264.812689 
L 395.40254 264.142262 
L 395.456659 264.283949 
L 395.510777 265.522865 
L 395.619013 254.165681 
L 395.673131 259.356066 
L 395.889603 270.050488 
L 395.943722 268.869562 
L 395.99784 271.087141 
L 396.051958 268.895664 
L 396.160194 270.524099 
L 396.26843 291.406666 
L 396.376666 86.208301 
L 396.430785 103.515749 
L 396.593139 272.699497 
L 396.647257 267.484133 
L 396.701375 294.945744 
L 396.755493 283.400464 
L 396.809611 287.031637 
L 396.863729 284.607427 
L 397.026084 270.940722 
L 397.080202 272.266511 
L 397.891974 177.52374 
L 397.946092 179.681601 
L 398.324918 244.802937 
L 398.379037 242.786529 
L 398.487273 236.262092 
L 398.487273 236.262092 
" clip-path="url(#p04aaec561a)" style="fill: none; stroke: #1f77b4; stroke-width: 1.5; stroke-linecap: square"/>
   </g>
   <g id="patch_3">
    <path d="M 57.6 307.584 
L 57.6 41.472 
" style="fill: none; stroke: #000000; stroke-width: 0.8; stroke-linejoin: miter; stroke-linecap: square"/>
   </g>
   <g id="patch_4">
    <path d="M 414.72 307.584 
L 414.72 41.472 
" style="fill: none; stroke: #000000; stroke-width: 0.8; stroke-linejoin: miter; stroke-linecap: square"/>
   </g>
   <g id="patch_5">
    <path d="M 57.6 307.584 
L 414.72 307.584 
" style="fill: none; stroke: #000000; stroke-width: 0.8; stroke-linejoin: miter; stroke-linecap: square"/>
   </g>
   <g id="patch_6">
    <path d="M 57.6 41.472 
L 414.72 41.472 
" style="fill: none; stroke: #000000; stroke-width: 0.8; stroke-linejoin: miter; stroke-linecap: square"/>
   </g>
  </g>
 </g>
 <defs>
  <clipPath id="p04aaec561a">
   <rect x="57.6" y="41.472" width="357.12" height="266.112"/>
  </clipPath>
 </defs>
</svg>
