<?xml version="1.0" encoding="utf-8" standalone="no"?>
<!DOCTYPE svg PUBLIC "-//W3C//DTD SVG 1.1//EN"
  "http://www.w3.org/Graphics/SVG/1.1/DTD/svg11.dtd">
<svg xmlns:xlink="http://www.w3.org/1999/xlink" width="460.8pt" height="345.6pt" viewBox="0 0 460.8 345.6" xmlns="http://www.w3.org/2000/svg" version="1.1">
 <metadata>
  <rdf:RDF xmlns:dc="http://purl.org/dc/elements/1.1/" xmlns:cc="http://creativecommons.org/ns#" xmlns:rdf="http://www.w3.org/1999/02/22-rdf-syntax-ns#">
   <cc:Work>
    <dc:type rdf:resource="http://purl.org/dc/dcmitype/StillImage"/>
    <dc:date>2024-05-31T12:06:57.006800</dc:date>
    <dc:format>image/svg+xml</dc:format>
    <dc:creator>
     <cc:Agent>
      <dc:title>Matplotlib v3.8.2, https://matplotlib.org/</dc:title>
     </cc:Agent>
    </dc:creator>
   </cc:Work>
  </rdf:RDF>
 </metadata>
 <defs>
  <style type="text/css">*{stroke-linejoin: round; stroke-linecap: butt}</style>
 </defs>
 <g id="figure_1">
  <g id="patch_1">
   <path d="M 0 345.6 
L 460.8 345.6 
L 460.8 0 
L 0 0 
z
" style="fill: #ffffff"/>
  </g>
  <g id="axes_1">
   <g id="patch_2">
    <path d="M 57.6 307.584 
L 414.72 307.584 
L 414.72 41.472 
L 57.6 41.472 
z
" style="fill: #ffffff"/>
   </g>
   <g id="matplotlib.axis_1">
    <g id="xtick_1">
     <g id="line2d_1">
      <defs>
       <path id="ma049fc904d" d="M 0 0 
L 0 3.5 
" style="stroke: #000000; stroke-width: 0.8"/>
      </defs>
      <g>
       <use xlink:href="#ma049fc904d" x="93.312" y="307.584" style="stroke: #000000; stroke-width: 0.8"/>
      </g>
     </g>
     <g id="text_1">
      <!-- −40 -->
      <g transform="translate(82.759656 322.182437) scale(0.1 -0.1)">
       <defs>
        <path id="DejaVuSans-2212" d="M 678 2272 
L 4684 2272 
L 4684 1741 
L 678 1741 
L 678 2272 
z
" transform="scale(0.015625)"/>
        <path id="DejaVuSans-34" d="M 2419 4116 
L 825 1625 
L 2419 1625 
L 2419 4116 
z
M 2253 4666 
L 3047 4666 
L 3047 1625 
L 3713 1625 
L 3713 1100 
L 3047 1100 
L 3047 0 
L 2419 0 
L 2419 1100 
L 313 1100 
L 313 1709 
L 2253 4666 
z
" transform="scale(0.015625)"/>
        <path id="DejaVuSans-30" d="M 2034 4250 
Q 1547 4250 1301 3770 
Q 1056 3291 1056 2328 
Q 1056 1369 1301 889 
Q 1547 409 2034 409 
Q 2525 409 2770 889 
Q 3016 1369 3016 2328 
Q 3016 3291 2770 3770 
Q 2525 4250 2034 4250 
z
M 2034 4750 
Q 2819 4750 3233 4129 
Q 3647 3509 3647 2328 
Q 3647 1150 3233 529 
Q 2819 -91 2034 -91 
Q 1250 -91 836 529 
Q 422 1150 422 2328 
Q 422 3509 836 4129 
Q 1250 4750 2034 4750 
z
" transform="scale(0.015625)"/>
       </defs>
       <use xlink:href="#DejaVuSans-2212"/>
       <use xlink:href="#DejaVuSans-34" x="83.789062"/>
       <use xlink:href="#DejaVuSans-30" x="147.412109"/>
      </g>
     </g>
    </g>
    <g id="xtick_2">
     <g id="line2d_2">
      <g>
       <use xlink:href="#ma049fc904d" x="164.736" y="307.584" style="stroke: #000000; stroke-width: 0.8"/>
      </g>
     </g>
     <g id="text_2">
      <!-- −20 -->
      <g transform="translate(154.183656 322.182437) scale(0.1 -0.1)">
       <defs>
        <path id="DejaVuSans-32" d="M 1228 531 
L 3431 531 
L 3431 0 
L 469 0 
L 469 531 
Q 828 903 1448 1529 
Q 2069 2156 2228 2338 
Q 2531 2678 2651 2914 
Q 2772 3150 2772 3378 
Q 2772 3750 2511 3984 
Q 2250 4219 1831 4219 
Q 1534 4219 1204 4116 
Q 875 4013 500 3803 
L 500 4441 
Q 881 4594 1212 4672 
Q 1544 4750 1819 4750 
Q 2544 4750 2975 4387 
Q 3406 4025 3406 3419 
Q 3406 3131 3298 2873 
Q 3191 2616 2906 2266 
Q 2828 2175 2409 1742 
Q 1991 1309 1228 531 
z
" transform="scale(0.015625)"/>
       </defs>
       <use xlink:href="#DejaVuSans-2212"/>
       <use xlink:href="#DejaVuSans-32" x="83.789062"/>
       <use xlink:href="#DejaVuSans-30" x="147.412109"/>
      </g>
     </g>
    </g>
    <g id="xtick_3">
     <g id="line2d_3">
      <g>
       <use xlink:href="#ma049fc904d" x="236.16" y="307.584" style="stroke: #000000; stroke-width: 0.8"/>
      </g>
     </g>
     <g id="text_3">
      <!-- 0 -->
      <g transform="translate(232.97875 322.182437) scale(0.1 -0.1)">
       <use xlink:href="#DejaVuSans-30"/>
      </g>
     </g>
    </g>
    <g id="xtick_4">
     <g id="line2d_4">
      <g>
       <use xlink:href="#ma049fc904d" x="307.584" y="307.584" style="stroke: #000000; stroke-width: 0.8"/>
      </g>
     </g>
     <g id="text_4">
      <!-- 20 -->
      <g transform="translate(301.2215 322.182437) scale(0.1 -0.1)">
       <use xlink:href="#DejaVuSans-32"/>
       <use xlink:href="#DejaVuSans-30" x="63.623047"/>
      </g>
     </g>
    </g>
    <g id="xtick_5">
     <g id="line2d_5">
      <g>
       <use xlink:href="#ma049fc904d" x="379.008" y="307.584" style="stroke: #000000; stroke-width: 0.8"/>
      </g>
     </g>
     <g id="text_5">
      <!-- 40 -->
      <g transform="translate(372.6455 322.182437) scale(0.1 -0.1)">
       <use xlink:href="#DejaVuSans-34"/>
       <use xlink:href="#DejaVuSans-30" x="63.623047"/>
      </g>
     </g>
    </g>
    <g id="text_6">
     <!-- Frequency [$Hz$] -->
     <g transform="translate(197.96 335.862125) scale(0.1 -0.1)">
      <defs>
       <path id="DejaVuSans-46" d="M 628 4666 
L 3309 4666 
L 3309 4134 
L 1259 4134 
L 1259 2759 
L 3109 2759 
L 3109 2228 
L 1259 2228 
L 1259 0 
L 628 0 
L 628 4666 
z
" transform="scale(0.015625)"/>
       <path id="DejaVuSans-72" d="M 2631 2963 
Q 2534 3019 2420 3045 
Q 2306 3072 2169 3072 
Q 1681 3072 1420 2755 
Q 1159 2438 1159 1844 
L 1159 0 
L 581 0 
L 581 3500 
L 1159 3500 
L 1159 2956 
Q 1341 3275 1631 3429 
Q 1922 3584 2338 3584 
Q 2397 3584 2469 3576 
Q 2541 3569 2628 3553 
L 2631 2963 
z
" transform="scale(0.015625)"/>
       <path id="DejaVuSans-65" d="M 3597 1894 
L 3597 1613 
L 953 1613 
Q 991 1019 1311 708 
Q 1631 397 2203 397 
Q 2534 397 2845 478 
Q 3156 559 3463 722 
L 3463 178 
Q 3153 47 2828 -22 
Q 2503 -91 2169 -91 
Q 1331 -91 842 396 
Q 353 884 353 1716 
Q 353 2575 817 3079 
Q 1281 3584 2069 3584 
Q 2775 3584 3186 3129 
Q 3597 2675 3597 1894 
z
M 3022 2063 
Q 3016 2534 2758 2815 
Q 2500 3097 2075 3097 
Q 1594 3097 1305 2825 
Q 1016 2553 972 2059 
L 3022 2063 
z
" transform="scale(0.015625)"/>
       <path id="DejaVuSans-71" d="M 947 1747 
Q 947 1113 1208 752 
Q 1469 391 1925 391 
Q 2381 391 2643 752 
Q 2906 1113 2906 1747 
Q 2906 2381 2643 2742 
Q 2381 3103 1925 3103 
Q 1469 3103 1208 2742 
Q 947 2381 947 1747 
z
M 2906 525 
Q 2725 213 2448 61 
Q 2172 -91 1784 -91 
Q 1150 -91 751 415 
Q 353 922 353 1747 
Q 353 2572 751 3078 
Q 1150 3584 1784 3584 
Q 2172 3584 2448 3432 
Q 2725 3281 2906 2969 
L 2906 3500 
L 3481 3500 
L 3481 -1331 
L 2906 -1331 
L 2906 525 
z
" transform="scale(0.015625)"/>
       <path id="DejaVuSans-75" d="M 544 1381 
L 544 3500 
L 1119 3500 
L 1119 1403 
Q 1119 906 1312 657 
Q 1506 409 1894 409 
Q 2359 409 2629 706 
Q 2900 1003 2900 1516 
L 2900 3500 
L 3475 3500 
L 3475 0 
L 2900 0 
L 2900 538 
Q 2691 219 2414 64 
Q 2138 -91 1772 -91 
Q 1169 -91 856 284 
Q 544 659 544 1381 
z
M 1991 3584 
L 1991 3584 
z
" transform="scale(0.015625)"/>
       <path id="DejaVuSans-6e" d="M 3513 2113 
L 3513 0 
L 2938 0 
L 2938 2094 
Q 2938 2591 2744 2837 
Q 2550 3084 2163 3084 
Q 1697 3084 1428 2787 
Q 1159 2491 1159 1978 
L 1159 0 
L 581 0 
L 581 3500 
L 1159 3500 
L 1159 2956 
Q 1366 3272 1645 3428 
Q 1925 3584 2291 3584 
Q 2894 3584 3203 3211 
Q 3513 2838 3513 2113 
z
" transform="scale(0.015625)"/>
       <path id="DejaVuSans-63" d="M 3122 3366 
L 3122 2828 
Q 2878 2963 2633 3030 
Q 2388 3097 2138 3097 
Q 1578 3097 1268 2742 
Q 959 2388 959 1747 
Q 959 1106 1268 751 
Q 1578 397 2138 397 
Q 2388 397 2633 464 
Q 2878 531 3122 666 
L 3122 134 
Q 2881 22 2623 -34 
Q 2366 -91 2075 -91 
Q 1284 -91 818 406 
Q 353 903 353 1747 
Q 353 2603 823 3093 
Q 1294 3584 2113 3584 
Q 2378 3584 2631 3529 
Q 2884 3475 3122 3366 
z
" transform="scale(0.015625)"/>
       <path id="DejaVuSans-79" d="M 2059 -325 
Q 1816 -950 1584 -1140 
Q 1353 -1331 966 -1331 
L 506 -1331 
L 506 -850 
L 844 -850 
Q 1081 -850 1212 -737 
Q 1344 -625 1503 -206 
L 1606 56 
L 191 3500 
L 800 3500 
L 1894 763 
L 2988 3500 
L 3597 3500 
L 2059 -325 
z
" transform="scale(0.015625)"/>
       <path id="DejaVuSans-20" transform="scale(0.015625)"/>
       <path id="DejaVuSans-5b" d="M 550 4863 
L 1875 4863 
L 1875 4416 
L 1125 4416 
L 1125 -397 
L 1875 -397 
L 1875 -844 
L 550 -844 
L 550 4863 
z
" transform="scale(0.015625)"/>
       <path id="DejaVuSans-Oblique-48" d="M 1081 4666 
L 1716 4666 
L 1344 2753 
L 3634 2753 
L 4006 4666 
L 4641 4666 
L 3731 0 
L 3097 0 
L 3531 2222 
L 1241 2222 
L 806 0 
L 172 0 
L 1081 4666 
z
" transform="scale(0.015625)"/>
       <path id="DejaVuSans-Oblique-7a" d="M 744 3500 
L 3475 3500 
L 3372 2975 
L 738 459 
L 2913 459 
L 2822 0 
L -19 0 
L 84 525 
L 2719 3041 
L 653 3041 
L 744 3500 
z
" transform="scale(0.015625)"/>
       <path id="DejaVuSans-5d" d="M 1947 4863 
L 1947 -844 
L 622 -844 
L 622 -397 
L 1369 -397 
L 1369 4416 
L 622 4416 
L 622 4863 
L 1947 4863 
z
" transform="scale(0.015625)"/>
      </defs>
      <use xlink:href="#DejaVuSans-46" transform="translate(0 0.015625)"/>
      <use xlink:href="#DejaVuSans-72" transform="translate(57.519531 0.015625)"/>
      <use xlink:href="#DejaVuSans-65" transform="translate(98.632812 0.015625)"/>
      <use xlink:href="#DejaVuSans-71" transform="translate(160.15625 0.015625)"/>
      <use xlink:href="#DejaVuSans-75" transform="translate(223.632812 0.015625)"/>
      <use xlink:href="#DejaVuSans-65" transform="translate(287.011719 0.015625)"/>
      <use xlink:href="#DejaVuSans-6e" transform="translate(348.535156 0.015625)"/>
      <use xlink:href="#DejaVuSans-63" transform="translate(411.914062 0.015625)"/>
      <use xlink:href="#DejaVuSans-79" transform="translate(466.894531 0.015625)"/>
      <use xlink:href="#DejaVuSans-20" transform="translate(526.074219 0.015625)"/>
      <use xlink:href="#DejaVuSans-5b" transform="translate(557.861328 0.015625)"/>
      <use xlink:href="#DejaVuSans-Oblique-48" transform="translate(596.875 0.015625)"/>
      <use xlink:href="#DejaVuSans-Oblique-7a" transform="translate(672.070312 0.015625)"/>
      <use xlink:href="#DejaVuSans-5d" transform="translate(724.560547 0.015625)"/>
     </g>
    </g>
   </g>
   <g id="matplotlib.axis_2">
    <g id="ytick_1">
     <g id="line2d_6">
      <defs>
       <path id="m4480a78bdb" d="M 0 0 
L -3.5 0 
" style="stroke: #000000; stroke-width: 0.8"/>
      </defs>
      <g>
       <use xlink:href="#m4480a78bdb" x="57.6" y="307.584" style="stroke: #000000; stroke-width: 0.8"/>
      </g>
     </g>
     <g id="text_7">
      <!-- −25 -->
      <g transform="translate(29.495313 311.383219) scale(0.1 -0.1)">
       <defs>
        <path id="DejaVuSans-35" d="M 691 4666 
L 3169 4666 
L 3169 4134 
L 1269 4134 
L 1269 2991 
Q 1406 3038 1543 3061 
Q 1681 3084 1819 3084 
Q 2600 3084 3056 2656 
Q 3513 2228 3513 1497 
Q 3513 744 3044 326 
Q 2575 -91 1722 -91 
Q 1428 -91 1123 -41 
Q 819 9 494 109 
L 494 744 
Q 775 591 1075 516 
Q 1375 441 1709 441 
Q 2250 441 2565 725 
Q 2881 1009 2881 1497 
Q 2881 1984 2565 2268 
Q 2250 2553 1709 2553 
Q 1456 2553 1204 2497 
Q 953 2441 691 2322 
L 691 4666 
z
" transform="scale(0.015625)"/>
       </defs>
       <use xlink:href="#DejaVuSans-2212"/>
       <use xlink:href="#DejaVuSans-32" x="83.789062"/>
       <use xlink:href="#DejaVuSans-35" x="147.412109"/>
      </g>
     </g>
    </g>
    <g id="ytick_2">
     <g id="line2d_7">
      <g>
       <use xlink:href="#m4480a78bdb" x="57.6" y="277.810371" style="stroke: #000000; stroke-width: 0.8"/>
      </g>
     </g>
     <g id="text_8">
      <!-- −20 -->
      <g transform="translate(29.495313 281.609589) scale(0.1 -0.1)">
       <use xlink:href="#DejaVuSans-2212"/>
       <use xlink:href="#DejaVuSans-32" x="83.789062"/>
       <use xlink:href="#DejaVuSans-30" x="147.412109"/>
      </g>
     </g>
    </g>
    <g id="ytick_3">
     <g id="line2d_8">
      <g>
       <use xlink:href="#m4480a78bdb" x="57.6" y="248.036741" style="stroke: #000000; stroke-width: 0.8"/>
      </g>
     </g>
     <g id="text_9">
      <!-- −15 -->
      <g transform="translate(29.495313 251.83596) scale(0.1 -0.1)">
       <defs>
        <path id="DejaVuSans-31" d="M 794 531 
L 1825 531 
L 1825 4091 
L 703 3866 
L 703 4441 
L 1819 4666 
L 2450 4666 
L 2450 531 
L 3481 531 
L 3481 0 
L 794 0 
L 794 531 
z
" transform="scale(0.015625)"/>
       </defs>
       <use xlink:href="#DejaVuSans-2212"/>
       <use xlink:href="#DejaVuSans-31" x="83.789062"/>
       <use xlink:href="#DejaVuSans-35" x="147.412109"/>
      </g>
     </g>
    </g>
    <g id="ytick_4">
     <g id="line2d_9">
      <g>
       <use xlink:href="#m4480a78bdb" x="57.6" y="218.263112" style="stroke: #000000; stroke-width: 0.8"/>
      </g>
     </g>
     <g id="text_10">
      <!-- −10 -->
      <g transform="translate(29.495313 222.06233) scale(0.1 -0.1)">
       <use xlink:href="#DejaVuSans-2212"/>
       <use xlink:href="#DejaVuSans-31" x="83.789062"/>
       <use xlink:href="#DejaVuSans-30" x="147.412109"/>
      </g>
     </g>
    </g>
    <g id="ytick_5">
     <g id="line2d_10">
      <g>
       <use xlink:href="#m4480a78bdb" x="57.6" y="188.489482" style="stroke: #000000; stroke-width: 0.8"/>
      </g>
     </g>
     <g id="text_11">
      <!-- −5 -->
      <g transform="translate(35.857813 192.288701) scale(0.1 -0.1)">
       <use xlink:href="#DejaVuSans-2212"/>
       <use xlink:href="#DejaVuSans-35" x="83.789062"/>
      </g>
     </g>
    </g>
    <g id="ytick_6">
     <g id="line2d_11">
      <g>
       <use xlink:href="#m4480a78bdb" x="57.6" y="158.715853" style="stroke: #000000; stroke-width: 0.8"/>
      </g>
     </g>
     <g id="text_12">
      <!-- 0 -->
      <g transform="translate(44.2375 162.515071) scale(0.1 -0.1)">
       <use xlink:href="#DejaVuSans-30"/>
      </g>
     </g>
    </g>
    <g id="ytick_7">
     <g id="line2d_12">
      <g>
       <use xlink:href="#m4480a78bdb" x="57.6" y="128.942223" style="stroke: #000000; stroke-width: 0.8"/>
      </g>
     </g>
     <g id="text_13">
      <!-- 5 -->
      <g transform="translate(44.2375 132.741442) scale(0.1 -0.1)">
       <use xlink:href="#DejaVuSans-35"/>
      </g>
     </g>
    </g>
    <g id="ytick_8">
     <g id="line2d_13">
      <g>
       <use xlink:href="#m4480a78bdb" x="57.6" y="99.168594" style="stroke: #000000; stroke-width: 0.8"/>
      </g>
     </g>
     <g id="text_14">
      <!-- 10 -->
      <g transform="translate(37.875 102.967813) scale(0.1 -0.1)">
       <use xlink:href="#DejaVuSans-31"/>
       <use xlink:href="#DejaVuSans-30" x="63.623047"/>
      </g>
     </g>
    </g>
    <g id="ytick_9">
     <g id="line2d_14">
      <g>
       <use xlink:href="#m4480a78bdb" x="57.6" y="69.394964" style="stroke: #000000; stroke-width: 0.8"/>
      </g>
     </g>
     <g id="text_15">
      <!-- 15 -->
      <g transform="translate(37.875 73.194183) scale(0.1 -0.1)">
       <use xlink:href="#DejaVuSans-31"/>
       <use xlink:href="#DejaVuSans-35" x="63.623047"/>
      </g>
     </g>
    </g>
    <g id="text_16">
     <!-- Amplitude [dB] -->
     <g transform="translate(23.415625 212.245969) rotate(-90) scale(0.1 -0.1)">
      <defs>
       <path id="DejaVuSans-41" d="M 2188 4044 
L 1331 1722 
L 3047 1722 
L 2188 4044 
z
M 1831 4666 
L 2547 4666 
L 4325 0 
L 3669 0 
L 3244 1197 
L 1141 1197 
L 716 0 
L 50 0 
L 1831 4666 
z
" transform="scale(0.015625)"/>
       <path id="DejaVuSans-6d" d="M 3328 2828 
Q 3544 3216 3844 3400 
Q 4144 3584 4550 3584 
Q 5097 3584 5394 3201 
Q 5691 2819 5691 2113 
L 5691 0 
L 5113 0 
L 5113 2094 
Q 5113 2597 4934 2840 
Q 4756 3084 4391 3084 
Q 3944 3084 3684 2787 
Q 3425 2491 3425 1978 
L 3425 0 
L 2847 0 
L 2847 2094 
Q 2847 2600 2669 2842 
Q 2491 3084 2119 3084 
Q 1678 3084 1418 2786 
Q 1159 2488 1159 1978 
L 1159 0 
L 581 0 
L 581 3500 
L 1159 3500 
L 1159 2956 
Q 1356 3278 1631 3431 
Q 1906 3584 2284 3584 
Q 2666 3584 2933 3390 
Q 3200 3197 3328 2828 
z
" transform="scale(0.015625)"/>
       <path id="DejaVuSans-70" d="M 1159 525 
L 1159 -1331 
L 581 -1331 
L 581 3500 
L 1159 3500 
L 1159 2969 
Q 1341 3281 1617 3432 
Q 1894 3584 2278 3584 
Q 2916 3584 3314 3078 
Q 3713 2572 3713 1747 
Q 3713 922 3314 415 
Q 2916 -91 2278 -91 
Q 1894 -91 1617 61 
Q 1341 213 1159 525 
z
M 3116 1747 
Q 3116 2381 2855 2742 
Q 2594 3103 2138 3103 
Q 1681 3103 1420 2742 
Q 1159 2381 1159 1747 
Q 1159 1113 1420 752 
Q 1681 391 2138 391 
Q 2594 391 2855 752 
Q 3116 1113 3116 1747 
z
" transform="scale(0.015625)"/>
       <path id="DejaVuSans-6c" d="M 603 4863 
L 1178 4863 
L 1178 0 
L 603 0 
L 603 4863 
z
" transform="scale(0.015625)"/>
       <path id="DejaVuSans-69" d="M 603 3500 
L 1178 3500 
L 1178 0 
L 603 0 
L 603 3500 
z
M 603 4863 
L 1178 4863 
L 1178 4134 
L 603 4134 
L 603 4863 
z
" transform="scale(0.015625)"/>
       <path id="DejaVuSans-74" d="M 1172 4494 
L 1172 3500 
L 2356 3500 
L 2356 3053 
L 1172 3053 
L 1172 1153 
Q 1172 725 1289 603 
Q 1406 481 1766 481 
L 2356 481 
L 2356 0 
L 1766 0 
Q 1100 0 847 248 
Q 594 497 594 1153 
L 594 3053 
L 172 3053 
L 172 3500 
L 594 3500 
L 594 4494 
L 1172 4494 
z
" transform="scale(0.015625)"/>
       <path id="DejaVuSans-64" d="M 2906 2969 
L 2906 4863 
L 3481 4863 
L 3481 0 
L 2906 0 
L 2906 525 
Q 2725 213 2448 61 
Q 2172 -91 1784 -91 
Q 1150 -91 751 415 
Q 353 922 353 1747 
Q 353 2572 751 3078 
Q 1150 3584 1784 3584 
Q 2172 3584 2448 3432 
Q 2725 3281 2906 2969 
z
M 947 1747 
Q 947 1113 1208 752 
Q 1469 391 1925 391 
Q 2381 391 2643 752 
Q 2906 1113 2906 1747 
Q 2906 2381 2643 2742 
Q 2381 3103 1925 3103 
Q 1469 3103 1208 2742 
Q 947 2381 947 1747 
z
" transform="scale(0.015625)"/>
       <path id="DejaVuSans-42" d="M 1259 2228 
L 1259 519 
L 2272 519 
Q 2781 519 3026 730 
Q 3272 941 3272 1375 
Q 3272 1813 3026 2020 
Q 2781 2228 2272 2228 
L 1259 2228 
z
M 1259 4147 
L 1259 2741 
L 2194 2741 
Q 2656 2741 2882 2914 
Q 3109 3088 3109 3444 
Q 3109 3797 2882 3972 
Q 2656 4147 2194 4147 
L 1259 4147 
z
M 628 4666 
L 2241 4666 
Q 2963 4666 3353 4366 
Q 3744 4066 3744 3513 
Q 3744 3084 3544 2831 
Q 3344 2578 2956 2516 
Q 3422 2416 3680 2098 
Q 3938 1781 3938 1306 
Q 3938 681 3513 340 
Q 3088 0 2303 0 
L 628 0 
L 628 4666 
z
" transform="scale(0.015625)"/>
      </defs>
      <use xlink:href="#DejaVuSans-41"/>
      <use xlink:href="#DejaVuSans-6d" x="68.408203"/>
      <use xlink:href="#DejaVuSans-70" x="165.820312"/>
      <use xlink:href="#DejaVuSans-6c" x="229.296875"/>
      <use xlink:href="#DejaVuSans-69" x="257.080078"/>
      <use xlink:href="#DejaVuSans-74" x="284.863281"/>
      <use xlink:href="#DejaVuSans-75" x="324.072266"/>
      <use xlink:href="#DejaVuSans-64" x="387.451172"/>
      <use xlink:href="#DejaVuSans-65" x="450.927734"/>
      <use xlink:href="#DejaVuSans-20" x="512.451172"/>
      <use xlink:href="#DejaVuSans-5b" x="544.238281"/>
      <use xlink:href="#DejaVuSans-64" x="583.251953"/>
      <use xlink:href="#DejaVuSans-42" x="646.728516"/>
      <use xlink:href="#DejaVuSans-5d" x="715.332031"/>
     </g>
    </g>
   </g>
   <g id="line2d_15">
    <path d="M 57.6 237.771812 
L 60.18912 237.669809 
L 61.26048 237.588791 
L 61.43904 237.577531 
L 61.88544 237.351922 
L 61.97472 237.695783 
L 62.15328 237.418398 
L 62.24256 237.205341 
L 62.33184 237.269768 
L 62.42112 237.502719 
L 62.5104 237.404558 
L 62.59968 237.5407 
L 62.68896 237.442013 
L 62.77824 236.787332 
L 62.86752 237.539052 
L 62.9568 237.057322 
L 63.04608 238.148697 
L 63.49248 236.745529 
L 63.58176 236.983507 
L 63.67104 237.994684 
L 63.76032 237.759561 
L 63.8496 238.123564 
L 63.93888 237.486834 
L 64.02816 237.61475 
L 64.11744 237.530686 
L 64.20672 236.711739 
L 64.38528 238.38815 
L 64.47456 235.718477 
L 64.56384 241.465267 
L 64.65312 240.804074 
L 64.83168 236.445543 
L 64.92096 236.573942 
L 65.09952 238.611617 
L 65.1888 237.749436 
L 65.27808 240.028565 
L 65.36736 239.480071 
L 65.54592 234.377781 
L 65.6352 232.873313 
L 65.72448 240.260983 
L 65.90304 228.74865 
L 66.0816 247.381021 
L 66.26016 222.284191 
L 66.34944 247.079614 
L 66.43872 246.11193 
L 66.528 248.278213 
L 66.70656 231.228042 
L 66.88512 238.745706 
L 66.9744 239.360124 
L 67.15296 226.791115 
L 67.33152 263.591991 
L 67.4208 217.327727 
L 67.51008 217.556691 
L 67.59936 221.87916 
L 67.68864 267.233153 
L 67.8672 225.713199 
L 67.95648 233.680775 
L 68.04576 261.498074 
L 68.3136 215.002911 
L 68.40288 238.377113 
L 68.67072 220.664426 
L 68.84928 240.053526 
L 69.02784 214.229972 
L 69.11712 223.67488 
L 69.2064 218.041375 
L 69.38496 249.659965 
L 69.47424 215.628195 
L 69.56352 221.863167 
L 69.6528 230.171043 
L 69.74208 252.401737 
L 69.83136 232.372591 
L 69.92064 243.875445 
L 70.00992 211.2987 
L 70.0992 216.30607 
L 70.18848 210.531003 
L 70.27776 238.2792 
L 70.45632 204.718632 
L 70.5456 218.336199 
L 70.63488 204.848404 
L 70.72416 231.722855 
L 70.81344 203.402741 
L 70.992 213.593337 
L 71.08128 203.917664 
L 71.17056 206.389879 
L 71.25984 238.849381 
L 71.4384 196.145423 
L 71.52768 215.159387 
L 71.70624 188.951738 
L 71.79552 189.823016 
L 71.8848 182.647592 
L 71.97408 194.449374 
L 72.06336 241.564493 
L 72.15264 178.106957 
L 72.24192 222.650914 
L 72.3312 185.921971 
L 72.50976 199.915387 
L 72.59904 186.300484 
L 72.7776 199.705936 
L 72.86688 210.438796 
L 73.04544 178.396279 
L 73.13472 170.737873 
L 73.224 182.790172 
L 73.49184 164.02861 
L 73.6704 199.407811 
L 73.93824 177.150561 
L 74.02752 180.661034 
L 74.20608 168.392164 
L 74.29536 174.107816 
L 74.38464 198.011233 
L 74.65248 168.85604 
L 74.74176 201.128753 
L 74.83104 198.819435 
L 74.92032 206.854984 
L 75.0096 193.867513 
L 75.09888 203.586316 
L 75.18816 202.036451 
L 75.27744 184.730406 
L 75.36672 197.385412 
L 75.456 161.943204 
L 75.63456 194.676627 
L 75.81312 164.451267 
L 75.9024 196.010165 
L 75.99168 183.516838 
L 76.08096 204.872919 
L 76.17024 162.716248 
L 76.25952 185.5381 
L 76.3488 166.704275 
L 76.43808 189.924884 
L 76.52736 185.479133 
L 76.61664 182.134983 
L 76.7952 152.618508 
L 76.97376 179.133254 
L 77.06304 225.816341 
L 77.2416 166.139398 
L 77.33088 165.170185 
L 77.42016 192.179514 
L 77.50944 156.608987 
L 77.59872 169.031148 
L 77.688 160.530141 
L 77.77728 174.59189 
L 77.86656 172.183718 
L 78.04512 161.305771 
L 78.1344 179.983437 
L 78.22368 161.034702 
L 78.31296 171.418442 
L 78.49152 163.181209 
L 78.5808 198.439246 
L 78.75936 170.04741 
L 78.84864 155.030459 
L 79.0272 179.476952 
L 79.11648 194.331961 
L 79.20576 169.026798 
L 79.29504 171.82918 
L 79.38432 179.688321 
L 79.4736 164.841787 
L 79.56288 199.868313 
L 79.65216 162.411269 
L 79.83072 184.46096 
L 80.00928 167.242578 
L 80.09856 203.580547 
L 80.27712 171.363296 
L 80.3664 157.623045 
L 80.54496 205.485029 
L 80.72352 163.370739 
L 80.8128 200.067145 
L 80.99136 160.596659 
L 81.08064 162.98916 
L 81.16992 226.526905 
L 81.2592 154.484958 
L 81.34848 164.58769 
L 81.43776 177.146248 
L 81.52704 172.79088 
L 81.61632 175.838886 
L 81.7056 153.57645 
L 81.79488 166.886892 
L 81.88416 206.628294 
L 82.06272 151.068165 
L 82.41984 175.126418 
L 82.50912 157.680084 
L 82.5984 157.880162 
L 82.68768 157.778619 
L 82.77696 161.516017 
L 82.86624 159.143464 
L 83.0448 201.705573 
L 83.13408 161.236267 
L 83.40192 190.930225 
L 83.58048 164.050009 
L 83.75904 148.336892 
L 83.9376 182.269678 
L 84.02688 171.454254 
L 84.11616 177.930842 
L 84.29472 159.275997 
L 84.384 149.222607 
L 84.47328 203.974343 
L 84.56256 156.612711 
L 84.65184 159.969371 
L 84.74112 168.411183 
L 84.8304 158.41878 
L 84.91968 208.945241 
L 85.09824 154.462537 
L 85.18752 173.882545 
L 85.2768 157.60063 
L 85.36608 165.610521 
L 85.45536 193.631421 
L 85.63392 147.862624 
L 85.90176 171.567726 
L 86.08032 157.908626 
L 86.1696 190.104728 
L 86.25888 148.808782 
L 86.52672 240.626911 
L 86.70528 158.896433 
L 86.79456 156.019042 
L 86.88384 158.84285 
L 86.97312 149.799921 
L 87.0624 151.780763 
L 87.15168 150.526153 
L 87.33024 173.927865 
L 87.41952 153.106297 
L 87.68736 184.281746 
L 87.77664 150.676803 
L 87.86592 163.971336 
L 87.9552 145.319307 
L 88.13376 166.549824 
L 88.31232 152.44362 
L 88.49088 199.229316 
L 88.58016 143.114618 
L 88.66944 150.578024 
L 88.848 182.226704 
L 89.11584 161.825476 
L 89.20512 179.834963 
L 89.38368 158.390964 
L 89.47296 176.968213 
L 89.56224 151.648101 
L 89.7408 186.03982 
L 89.83008 174.894567 
L 89.91936 146.368122 
L 90.00864 159.41355 
L 90.09792 146.902866 
L 90.27648 180.307425 
L 90.36576 165.299571 
L 90.45504 169.525767 
L 90.72288 152.85835 
L 90.81216 153.440227 
L 90.90144 149.759248 
L 90.99072 177.321646 
L 91.08 168.214216 
L 91.16928 170.460232 
L 91.34784 153.324424 
L 91.43712 165.496751 
L 91.5264 150.463546 
L 91.61568 151.978661 
L 91.79424 155.607842 
L 91.88352 143.220155 
L 91.9728 146.772246 
L 92.24064 179.975594 
L 92.32992 198.968932 
L 92.50848 143.991699 
L 92.59776 137.399568 
L 92.77632 152.687838 
L 92.8656 177.357991 
L 92.95488 154.590264 
L 93.04416 160.938224 
L 93.13344 158.811355 
L 93.312 169.364292 
L 93.40128 157.140371 
L 93.57984 190.259001 
L 93.7584 169.132795 
L 93.84768 161.55108 
L 93.93696 142.659169 
L 94.02624 204.25272 
L 94.11552 165.196385 
L 94.2048 175.756005 
L 94.29408 155.468227 
L 94.38336 164.72308 
L 94.47264 158.052558 
L 94.56192 163.491004 
L 94.6512 154.851267 
L 94.74048 180.516015 
L 94.91904 142.886071 
L 95.00832 169.636967 
L 95.0976 142.413062 
L 95.18688 165.587351 
L 95.27616 147.035466 
L 95.544 170.841441 
L 95.63328 151.554786 
L 95.72256 168.563448 
L 95.81184 145.297209 
L 95.90112 147.728711 
L 95.9904 149.859007 
L 96.16896 169.855474 
L 96.25824 225.375815 
L 96.34752 159.544892 
L 96.4368 164.041604 
L 96.52608 144.091133 
L 96.61536 156.835781 
L 96.70464 153.842446 
L 96.79392 139.138328 
L 96.97248 167.522284 
L 97.06176 168.665519 
L 97.24032 135.587681 
L 97.41888 185.60925 
L 97.50816 158.87694 
L 97.59744 161.613156 
L 97.68672 161.823558 
L 97.776 141.190801 
L 97.86528 148.664718 
L 97.95456 171.604771 
L 98.04384 147.942787 
L 98.13312 148.815605 
L 98.2224 138.618248 
L 98.31168 167.605102 
L 98.40096 161.387451 
L 98.49024 174.642899 
L 98.6688 167.25136 
L 98.75808 205.164013 
L 98.93664 153.85018 
L 99.02592 140.499561 
L 99.1152 176.576302 
L 99.20448 170.632495 
L 99.47232 153.371954 
L 99.5616 148.668112 
L 99.65088 150.042525 
L 99.74016 157.228904 
L 99.82944 151.384667 
L 99.91872 163.445411 
L 100.008 203.931099 
L 100.27584 140.973495 
L 100.36512 151.59823 
L 100.4544 142.727385 
L 100.54368 167.501504 
L 100.63296 143.194439 
L 100.72224 164.859105 
L 100.99008 136.290317 
L 101.25792 145.795587 
L 101.3472 133.735711 
L 101.52576 151.580582 
L 101.61504 149.272075 
L 101.70432 166.590493 
L 101.7936 129.300869 
L 101.88288 131.766398 
L 101.97216 141.636542 
L 102.06144 132.744496 
L 102.15072 172.445861 
L 102.24 144.204063 
L 102.32928 189.607278 
L 102.41856 143.538749 
L 102.50784 219.94262 
L 102.59712 136.417561 
L 102.6864 166.65032 
L 102.77568 149.988012 
L 102.86496 179.389097 
L 103.04352 132.88312 
L 103.1328 195.475937 
L 103.22208 135.959747 
L 103.31136 157.900262 
L 103.40064 145.781842 
L 103.48992 177.871004 
L 103.5792 174.281023 
L 103.75776 150.218503 
L 103.84704 197.441083 
L 104.0256 133.301217 
L 104.20416 156.548881 
L 104.29344 133.006492 
L 104.38272 165.167644 
L 104.56128 136.222611 
L 104.73984 159.387339 
L 104.82912 150.879467 
L 104.9184 158.754578 
L 105.00768 150.611748 
L 105.09696 172.127442 
L 105.27552 151.197064 
L 105.3648 154.465637 
L 105.45408 133.383986 
L 105.54336 139.219113 
L 105.63264 178.898273 
L 105.8112 120.654163 
L 105.90048 153.963088 
L 105.98976 131.145189 
L 106.07904 132.688797 
L 106.16832 133.135886 
L 106.34688 144.207678 
L 106.43616 110.820915 
L 106.61472 161.088295 
L 106.704 182.972929 
L 106.79328 127.819513 
L 106.97184 155.148061 
L 107.06112 138.389062 
L 107.1504 149.193635 
L 107.41824 124.926245 
L 107.50752 144.112574 
L 107.5968 123.122822 
L 107.68608 163.815641 
L 107.95392 119.868745 
L 108.13248 150.336199 
L 108.31104 161.241195 
L 108.40032 133.371087 
L 108.4896 166.689191 
L 108.57888 137.821032 
L 108.66816 158.206846 
L 108.75744 134.469729 
L 108.84672 158.545258 
L 108.936 153.781395 
L 109.02528 125.28638 
L 109.11456 135.280181 
L 109.20384 175.52559 
L 109.29312 127.127073 
L 109.3824 135.563712 
L 109.47168 159.605271 
L 109.56096 131.738759 
L 109.73952 148.526388 
L 109.91808 131.383224 
L 110.00736 139.971279 
L 110.09664 133.688317 
L 110.18592 147.89171 
L 110.36448 126.869557 
L 110.45376 116.921281 
L 110.54304 125.625906 
L 110.63232 124.200521 
L 110.7216 195.743347 
L 110.81088 118.105375 
L 110.90016 162.088903 
L 110.98944 145.744851 
L 111.168 156.298211 
L 111.25728 155.948805 
L 111.43584 111.830734 
L 111.6144 177.968128 
L 111.70368 126.708989 
L 111.79296 139.465903 
L 111.88224 125.472917 
L 112.0608 148.655065 
L 112.32864 125.406337 
L 112.41792 143.749983 
L 112.5072 127.40808 
L 112.59648 140.065292 
L 112.68576 127.495056 
L 112.77504 166.135039 
L 112.9536 120.205046 
L 113.04288 160.592542 
L 113.31072 127.337497 
L 113.4 140.429654 
L 113.48928 124.77164 
L 113.57856 156.317821 
L 113.66784 130.721363 
L 113.75712 151.861192 
L 113.8464 135.854819 
L 113.93568 147.126277 
L 114.11424 131.536459 
L 114.20352 122.095352 
L 114.2928 136.455347 
L 114.38208 115.682715 
L 114.56064 132.903268 
L 114.64992 133.670538 
L 114.82848 121.906956 
L 114.91776 123.401205 
L 115.09632 118.068419 
L 115.1856 146.58139 
L 115.27488 115.023771 
L 115.36416 173.789719 
L 115.54272 130.026712 
L 115.632 128.719198 
L 115.72128 139.923186 
L 115.89984 125.561954 
L 115.98912 134.138724 
L 116.0784 156.944795 
L 116.25696 135.311688 
L 116.34624 140.631489 
L 116.43552 118.444391 
L 116.61408 160.534811 
L 116.79264 111.050693 
L 117.23904 148.834546 
L 117.32832 193.353285 
L 117.50688 110.350534 
L 117.68544 136.725269 
L 117.77472 117.676227 
L 117.864 140.117202 
L 117.95328 129.187762 
L 118.04256 132.604492 
L 118.13184 123.510952 
L 118.22112 134.105198 
L 118.3104 188.122599 
L 118.48896 130.564861 
L 118.57824 152.886468 
L 118.66752 107.50826 
L 118.84608 129.707276 
L 118.93536 134.359065 
L 119.02464 111.292064 
L 119.29248 142.131233 
L 119.38176 110.275736 
L 119.47104 137.144448 
L 119.56032 110.078067 
L 119.6496 111.582489 
L 119.73888 150.116631 
L 119.91744 132.286671 
L 120.096 122.958945 
L 120.18528 140.689189 
L 120.27456 119.807962 
L 120.36384 127.645342 
L 120.45312 121.988212 
L 120.63168 144.053971 
L 120.72096 121.699882 
L 120.81024 126.194911 
L 120.89952 125.459536 
L 121.16736 133.58636 
L 121.25664 112.983806 
L 121.34592 115.496141 
L 121.52448 148.054026 
L 121.61376 133.449193 
L 121.70304 148.83033 
L 121.8816 126.602996 
L 121.97088 177.609162 
L 122.06016 121.133282 
L 122.14944 125.110572 
L 122.23872 118.010287 
L 122.328 161.080637 
L 122.41728 106.476883 
L 122.50656 117.736822 
L 122.68512 146.550501 
L 122.7744 113.553825 
L 122.86368 138.930335 
L 122.95296 100.909006 
L 123.04224 126.539982 
L 123.13152 122.164739 
L 123.2208 125.569821 
L 123.31008 118.65356 
L 123.39936 119.005701 
L 123.48864 120.183675 
L 123.57792 124.650377 
L 123.6672 121.758897 
L 123.75648 121.879318 
L 123.84576 105.406774 
L 123.93504 105.922095 
L 124.20288 124.519409 
L 124.29216 113.969998 
L 124.38144 125.440418 
L 124.47072 109.625162 
L 124.56 121.529239 
L 124.64928 152.33474 
L 124.73856 119.526689 
L 124.82784 215.265656 
L 125.0064 150.243442 
L 125.09568 121.295956 
L 125.18496 159.498672 
L 125.27424 107.663013 
L 125.36352 115.798876 
L 125.4528 120.73516 
L 125.54208 152.183639 
L 125.72064 104.430161 
L 125.8992 144.762274 
L 125.98848 153.03834 
L 126.07776 116.542782 
L 126.25632 136.307259 
L 126.3456 101.775851 
L 126.61344 134.041232 
L 126.70272 102.455106 
L 126.792 108.411902 
L 126.88128 114.174438 
L 126.97056 108.989072 
L 127.05984 131.220405 
L 127.14912 110.137143 
L 127.32768 137.702285 
L 127.50624 100.450707 
L 127.77408 131.195747 
L 127.95264 100.971991 
L 128.04192 122.72915 
L 128.1312 88.552662 
L 128.22048 99.979781 
L 128.30976 134.649236 
L 128.48832 107.111894 
L 128.66688 143.313357 
L 128.75616 97.695084 
L 128.84544 128.14939 
L 128.93472 124.804221 
L 129.024 94.712571 
L 129.11328 101.616932 
L 129.20256 120.448886 
L 129.29184 118.670341 
L 129.38112 126.426715 
L 129.4704 123.830276 
L 129.55968 103.77311 
L 129.64896 154.754146 
L 129.73824 105.995977 
L 129.9168 128.715316 
L 130.00608 108.135269 
L 130.09536 126.877855 
L 130.18464 109.218998 
L 130.27392 110.272595 
L 130.3632 122.841751 
L 130.45248 119.018884 
L 130.54176 124.538325 
L 130.72032 99.776926 
L 130.89888 136.110904 
L 130.98816 107.476728 
L 131.07744 120.070343 
L 131.256 109.259091 
L 131.34528 112.980035 
L 131.43456 107.634626 
L 131.61312 124.445851 
L 131.7024 108.960331 
L 131.79168 141.321494 
L 131.97024 123.568069 
L 132.05952 117.903585 
L 132.1488 93.823685 
L 132.23808 99.554356 
L 132.32736 101.514447 
L 132.50592 110.627844 
L 132.5952 98.345562 
L 132.68448 120.45987 
L 132.77376 103.48761 
L 132.86304 109.406072 
L 132.95232 87.252136 
L 133.22016 110.90136 
L 133.30944 106.374529 
L 133.488 116.088704 
L 133.57728 99.970092 
L 133.66656 149.025744 
L 133.84512 104.997525 
L 133.9344 121.684511 
L 134.11296 94.467093 
L 134.20224 93.571813 
L 134.29152 95.343388 
L 134.47008 115.877259 
L 134.55936 98.748534 
L 134.64864 104.902472 
L 134.73792 102.476774 
L 134.91648 129.71965 
L 135.00576 114.334644 
L 135.09504 141.532973 
L 135.18432 102.460751 
L 135.2736 106.024628 
L 135.36288 104.16205 
L 135.45216 141.691536 
L 135.54144 97.226569 
L 135.63072 138.230675 
L 135.72 126.873525 
L 135.80928 128.607727 
L 135.89856 131.516477 
L 136.07712 99.717997 
L 136.1664 136.77688 
L 136.25568 112.152625 
L 136.34496 116.987242 
L 136.43424 106.153269 
L 136.52352 142.814666 
L 136.70208 92.051127 
L 136.79136 117.414059 
L 136.88064 91.833786 
L 136.96992 125.809338 
L 137.23776 87.339389 
L 137.41632 152.4439 
L 137.5056 109.34565 
L 137.59488 134.138088 
L 137.68416 108.544051 
L 137.77344 122.820166 
L 137.86272 89.487092 
L 138.04128 119.395889 
L 138.13056 85.133133 
L 138.21984 133.351371 
L 138.30912 100.430972 
L 138.48768 158.773675 
L 138.57696 84.408644 
L 138.66624 95.428138 
L 138.75552 108.870631 
L 138.8448 97.004123 
L 138.93408 108.548545 
L 139.02336 100.14657 
L 139.11264 112.217411 
L 139.20192 90.103733 
L 139.2912 115.879703 
L 139.38048 94.360014 
L 139.46976 146.012371 
L 139.64832 85.058844 
L 139.82688 129.114543 
L 139.91616 109.455997 
L 140.09472 120.271694 
L 140.184 100.942482 
L 140.27328 140.432722 
L 140.54112 93.743191 
L 140.80896 136.444423 
L 140.98752 116.812241 
L 141.16608 117.587944 
L 141.25536 116.264016 
L 141.43392 95.11645 
L 141.5232 106.424767 
L 141.61248 96.258601 
L 141.70176 103.544701 
L 141.88032 95.228929 
L 142.05888 104.737705 
L 142.14816 134.634814 
L 142.23744 92.83634 
L 142.32672 123.480556 
L 142.416 123.098563 
L 142.50528 86.600628 
L 142.77312 111.293162 
L 142.8624 106.03032 
L 142.95168 109.33009 
L 143.04096 102.96209 
L 143.13024 75.744866 
L 143.39808 117.966095 
L 143.48736 203.900389 
L 143.57664 96.942591 
L 143.66592 107.926502 
L 143.7552 90.538579 
L 143.84448 101.865833 
L 143.93376 96.234881 
L 144.02304 107.289658 
L 144.11232 94.367782 
L 144.2016 110.562372 
L 144.38016 83.252194 
L 144.46944 104.936832 
L 144.55872 101.670369 
L 144.648 105.164087 
L 144.82656 116.173412 
L 144.91584 106.637136 
L 145.00512 113.523256 
L 145.0944 110.423511 
L 145.27296 88.254737 
L 145.36224 111.634173 
L 145.45152 100.618363 
L 145.5408 105.039333 
L 145.63008 145.391517 
L 145.80864 104.811665 
L 145.89792 97.501753 
L 145.9872 98.464255 
L 146.07648 122.323656 
L 146.16576 119.825075 
L 146.34432 87.058987 
L 146.52288 111.699984 
L 146.61216 117.52799 
L 146.88 79.742497 
L 146.96928 111.052422 
L 147.05856 77.672077 
L 147.14784 157.890435 
L 147.23712 91.208829 
L 147.3264 94.150162 
L 147.41568 113.560556 
L 147.59424 86.789492 
L 147.68352 106.522298 
L 147.7728 92.878227 
L 147.95136 123.021671 
L 148.12992 77.928987 
L 148.2192 90.325686 
L 148.30848 86.169927 
L 148.39776 114.728197 
L 148.48704 97.406559 
L 148.57632 130.547876 
L 148.84416 87.507325 
L 149.02272 105.320361 
L 149.112 90.851137 
L 149.20128 99.605888 
L 149.29056 81.674256 
L 149.46912 88.433286 
L 149.5584 131.925835 
L 149.73696 101.442987 
L 149.82624 106.823834 
L 149.91552 100.986009 
L 150.0048 119.450593 
L 150.27264 80.535354 
L 150.4512 105.565962 
L 150.71904 87.712084 
L 150.8976 122.49468 
L 151.16544 77.904589 
L 151.344 113.61113 
L 151.43328 82.569282 
L 151.52256 86.722216 
L 151.61184 111.09838 
L 151.70112 84.306068 
L 151.7904 109.542661 
L 151.96896 91.053282 
L 152.05824 120.732692 
L 152.14752 107.005933 
L 152.2368 114.598285 
L 152.32608 107.451385 
L 152.50464 82.080289 
L 152.59392 82.077527 
L 152.6832 115.382268 
L 152.77248 88.313319 
L 152.86176 105.601117 
L 152.95104 102.553393 
L 153.04032 72.393161 
L 153.21888 100.185442 
L 153.30816 108.030792 
L 153.39744 103.105293 
L 153.48672 140.945903 
L 153.66528 84.322622 
L 153.75456 96.280969 
L 153.84384 75.346379 
L 153.93312 128.039304 
L 154.20096 81.634239 
L 154.29024 87.595426 
L 154.37952 81.074804 
L 154.4688 91.71164 
L 154.55808 135.434939 
L 154.73664 84.690166 
L 154.82592 98.519872 
L 154.9152 80.397422 
L 155.00448 102.010232 
L 155.09376 88.73872 
L 155.18304 137.652951 
L 155.45088 78.283591 
L 155.54016 79.917273 
L 155.62944 131.996257 
L 155.808 103.194895 
L 155.89728 143.660032 
L 156.07584 79.899963 
L 156.2544 107.066825 
L 156.34368 96.28259 
L 156.43296 74.348127 
L 156.52224 111.521332 
L 156.79008 78.342206 
L 156.87936 106.421278 
L 156.96864 95.559325 
L 157.05792 115.098932 
L 157.1472 88.842494 
L 157.23648 130.839703 
L 157.41504 78.269881 
L 157.50432 84.53237 
L 157.5936 152.680999 
L 157.68288 96.42966 
L 157.77216 101.342453 
L 157.86144 107.205014 
L 158.04 76.620568 
L 158.21856 100.418842 
L 158.30784 108.195742 
L 158.39712 81.219192 
L 158.57568 107.615261 
L 158.66496 83.759711 
L 158.75424 98.321924 
L 158.84352 90.464514 
L 158.9328 113.364953 
L 159.20064 72.855437 
L 159.28992 93.758596 
L 159.3792 66.124523 
L 159.46848 121.121042 
L 159.55776 111.929509 
L 159.73632 93.796278 
L 159.8256 87.627115 
L 159.91488 73.697588 
L 160.00416 105.088995 
L 160.09344 104.982672 
L 160.18272 76.124727 
L 160.36128 104.893897 
L 160.45056 96.240144 
L 160.53984 119.348608 
L 160.62912 111.755402 
L 160.7184 85.741755 
L 160.80768 131.573546 
L 160.89696 77.880651 
L 160.98624 164.580437 
L 161.1648 81.362025 
L 161.25408 107.076797 
L 161.34336 87.976058 
L 161.43264 91.485008 
L 161.6112 121.232426 
L 161.78976 70.125792 
L 161.96832 97.612908 
L 162.0576 93.889939 
L 162.14688 109.09912 
L 162.23616 102.866211 
L 162.32544 103.983106 
L 162.41472 66.238071 
L 162.504 110.277158 
L 162.68256 88.340838 
L 162.77184 109.16226 
L 162.86112 108.81416 
L 163.03968 102.57878 
L 163.12896 91.278861 
L 163.21824 111.832455 
L 163.3968 85.755949 
L 163.48608 105.10676 
L 163.57536 93.691563 
L 163.66464 67.157016 
L 163.8432 97.371011 
L 163.93248 81.56483 
L 164.02176 106.122001 
L 164.20032 72.552595 
L 164.46816 98.048605 
L 164.55744 72.737004 
L 164.64672 100.885016 
L 164.82528 83.111237 
L 164.91456 85.984469 
L 165.00384 118.621764 
L 165.09312 80.417443 
L 165.1824 108.093112 
L 165.27168 90.044372 
L 165.36096 100.508725 
L 165.45024 79.525274 
L 165.6288 134.656737 
L 165.80736 85.24235 
L 165.89664 115.501825 
L 165.98592 114.497743 
L 166.0752 110.228664 
L 166.16448 75.185437 
L 166.25376 101.904116 
L 166.34304 76.723446 
L 166.43232 85.898082 
L 166.5216 118.499456 
L 166.61088 91.328357 
L 166.70016 95.357985 
L 166.87872 76.140471 
L 166.968 79.992356 
L 167.05728 76.970029 
L 167.23584 130.412387 
L 167.4144 88.992618 
L 167.50368 93.320276 
L 167.59296 129.787182 
L 167.77152 74.661869 
L 167.8608 108.623937 
L 167.95008 101.265851 
L 168.03936 105.787041 
L 168.12864 67.845532 
L 168.39648 115.356077 
L 168.48576 93.990629 
L 168.57504 189.100888 
L 168.7536 75.79961 
L 168.84288 88.331414 
L 169.02144 121.712325 
L 169.11072 117.235915 
L 169.28928 64.299652 
L 169.37856 65.57591 
L 169.46784 106.512611 
L 169.6464 95.070508 
L 169.73568 91.277608 
L 169.82496 80.916151 
L 169.91424 102.665284 
L 170.00352 76.701194 
L 170.0928 99.101442 
L 170.18208 86.136269 
L 170.27136 91.237254 
L 170.36064 89.666664 
L 170.44992 77.045704 
L 170.62848 90.44201 
L 170.71776 74.189863 
L 170.80704 99.241583 
L 170.89632 95.163121 
L 170.9856 79.044579 
L 171.07488 88.296177 
L 171.16416 78.058772 
L 171.25344 139.818484 
L 171.34272 89.112811 
L 171.432 106.044103 
L 171.52128 102.439042 
L 171.61056 72.551357 
L 171.69984 95.494459 
L 171.78912 95.33345 
L 171.8784 94.711957 
L 171.96768 95.218469 
L 172.05696 80.279619 
L 172.14624 90.578149 
L 172.23552 80.061272 
L 172.3248 95.501426 
L 172.50336 73.786371 
L 172.59264 100.676697 
L 172.7712 63.418284 
L 172.86048 96.645275 
L 172.94976 95.336808 
L 173.03904 121.711714 
L 173.12832 89.851056 
L 173.2176 106.877941 
L 173.30688 71.781264 
L 173.39616 99.291946 
L 173.664 71.672378 
L 173.75328 94.465885 
L 173.84256 83.082356 
L 174.02112 117.733344 
L 174.19968 69.387866 
L 174.28896 71.644785 
L 174.37824 86.071747 
L 174.46752 70.838572 
L 174.5568 77.957616 
L 174.64608 109.174099 
L 174.91392 72.458758 
L 175.0032 71.605184 
L 175.09248 104.39951 
L 175.18176 78.832561 
L 175.36032 126.044203 
L 175.4496 87.769128 
L 175.53888 118.855307 
L 175.62816 73.755588 
L 175.71744 89.651058 
L 175.80672 161.45455 
L 175.98528 76.964265 
L 176.07456 100.097434 
L 176.16384 86.491268 
L 176.25312 89.365444 
L 176.43168 96.822211 
L 176.52096 122.799825 
L 176.61024 71.145734 
L 176.69952 95.339012 
L 176.7888 94.41456 
L 176.96736 81.007207 
L 177.05664 109.432661 
L 177.14592 67.399903 
L 177.2352 72.121354 
L 177.32448 75.693369 
L 177.41376 103.82987 
L 177.50304 86.804005 
L 177.59232 93.484069 
L 177.6816 85.834947 
L 177.77088 86.922553 
L 177.94944 90.061819 
L 178.128 71.302873 
L 178.21728 87.892425 
L 178.30656 71.28245 
L 178.39584 107.220041 
L 178.5744 74.091054 
L 178.66368 87.775575 
L 178.75296 82.925452 
L 178.84224 100.471833 
L 178.93152 89.137632 
L 179.0208 109.228881 
L 179.28864 70.118368 
L 179.37792 102.884817 
L 179.4672 71.928401 
L 179.55648 74.523186 
L 179.64576 88.408741 
L 179.73504 87.079998 
L 179.82432 63.851838 
L 179.9136 67.69163 
L 180.00288 69.760575 
L 180.09216 112.575153 
L 180.27072 74.105117 
L 180.36 85.146432 
L 180.44928 116.028473 
L 180.53856 105.98905 
L 180.62784 80.090087 
L 180.71712 124.406656 
L 180.89568 76.312357 
L 180.98496 92.427031 
L 181.07424 77.835495 
L 181.16352 130.315307 
L 181.2528 86.661926 
L 181.34208 154.483477 
L 181.52064 80.432435 
L 181.60992 84.029672 
L 181.78848 97.287644 
L 181.96704 65.064975 
L 182.05632 90.253245 
L 182.1456 68.673991 
L 182.32416 96.764496 
L 182.50272 74.882378 
L 182.592 74.918371 
L 182.77056 60.521395 
L 182.85984 97.433456 
L 182.94912 79.661944 
L 183.0384 88.814559 
L 183.12768 117.022479 
L 183.30624 67.16485 
L 183.4848 105.716178 
L 183.57408 83.750499 
L 183.66336 94.575925 
L 183.75264 122.829276 
L 183.84192 81.081676 
L 184.02048 144.290256 
L 184.10976 64.102963 
L 184.19904 75.196436 
L 184.28832 70.553036 
L 184.3776 84.296336 
L 184.46688 82.159458 
L 184.55616 90.843532 
L 184.73472 78.046022 
L 184.824 70.399634 
L 184.91328 70.859874 
L 185.00256 70.329582 
L 185.09184 95.325645 
L 185.2704 74.574165 
L 185.35968 118.243814 
L 185.53824 72.128966 
L 185.7168 118.970029 
L 185.80608 64.210191 
L 185.98464 92.30636 
L 186.1632 97.942409 
L 186.25248 91.159933 
L 186.43104 74.304125 
L 186.52032 98.568777 
L 186.6096 78.811892 
L 186.87744 117.395433 
L 187.056 64.112684 
L 187.14528 64.315029 
L 187.23456 67.85033 
L 187.41312 93.518258 
L 187.59168 60.46459 
L 187.68096 102.593582 
L 187.77024 83.925483 
L 187.85952 108.884489 
L 187.9488 82.549537 
L 188.03808 87.461805 
L 188.12736 81.548102 
L 188.21664 85.531603 
L 188.30592 149.769848 
L 188.3952 73.834056 
L 188.48448 96.981667 
L 188.57376 89.492339 
L 188.75232 100.467441 
L 188.93088 83.415927 
L 189.02016 107.089164 
L 189.19872 71.43232 
L 189.37728 99.870795 
L 189.55584 72.422393 
L 189.64512 83.65842 
L 189.7344 79.484202 
L 189.82368 79.899392 
L 189.91296 81.018497 
L 190.00224 79.722525 
L 190.09152 93.490952 
L 190.27008 74.580168 
L 190.35936 100.824908 
L 190.44864 72.539064 
L 190.53792 79.54345 
L 190.6272 70.114704 
L 190.71648 85.16524 
L 190.80576 72.386666 
L 190.89504 94.950289 
L 191.16288 73.38801 
L 191.25216 169.57392 
L 191.52 63.426223 
L 191.69856 100.806152 
L 191.87712 75.882659 
L 192.05568 62.082273 
L 192.14496 94.352875 
L 192.23424 73.400086 
L 192.32352 80.213364 
L 192.4128 78.145358 
L 192.50208 88.593574 
L 192.59136 83.83009 
L 192.68064 92.802479 
L 192.76992 79.955089 
L 192.8592 104.32142 
L 192.94848 77.455693 
L 193.03776 115.326038 
L 193.21632 72.776887 
L 193.3056 113.996167 
L 193.39488 92.200853 
L 193.48416 127.847495 
L 193.66272 82.604609 
L 194.01984 99.603984 
L 194.10912 108.15161 
L 194.1984 80.736291 
L 194.28768 100.298284 
L 194.55552 78.997788 
L 194.6448 80.838396 
L 194.73408 101.417548 
L 194.91264 66.265155 
L 195.00192 67.290484 
L 195.35904 121.212812 
L 195.5376 62.427008 
L 195.62688 74.524863 
L 195.71616 92.348814 
L 195.80544 70.897278 
L 195.89472 100.634747 
L 195.984 73.592986 
L 196.07328 103.951315 
L 196.25184 77.226035 
L 196.34112 86.402953 
L 196.51968 62.64848 
L 196.60896 140.334859 
L 196.69824 61.551028 
L 196.78752 95.362886 
L 196.8768 91.134939 
L 197.05536 76.69557 
L 197.14464 87.721258 
L 197.3232 69.510671 
L 197.41248 66.58673 
L 197.59104 100.288004 
L 197.68032 70.915617 
L 197.7696 93.866684 
L 197.85888 81.576645 
L 198.03744 88.376965 
L 198.12672 118.506768 
L 198.216 91.533385 
L 198.30528 117.500869 
L 198.6624 84.219142 
L 198.75168 85.784886 
L 198.93024 83.242877 
L 199.01952 101.486909 
L 199.1088 91.715494 
L 199.19808 68.502619 
L 199.37664 103.817193 
L 199.5552 74.49197 
L 199.64448 113.717502 
L 199.73376 61.84485 
L 199.91232 88.422584 
L 200.0016 75.831537 
L 200.09088 82.441146 
L 200.18016 104.002267 
L 200.35872 67.682685 
L 200.448 100.560406 
L 200.62656 58.905038 
L 200.8944 105.400681 
L 200.98368 69.625575 
L 201.25152 99.822342 
L 201.3408 96.247381 
L 201.43008 87.445468 
L 201.51936 65.862623 
L 201.60864 105.524483 
L 201.69792 78.79257 
L 201.7872 87.191915 
L 201.87648 76.870985 
L 201.96576 81.606792 
L 202.05504 76.894034 
L 202.14432 82.193804 
L 202.2336 98.533595 
L 202.32288 64.876815 
L 202.41216 69.780623 
L 202.50144 98.528418 
L 202.59072 75.181913 
L 202.76928 100.132029 
L 202.85856 99.818479 
L 203.03712 81.048696 
L 203.39424 95.860271 
L 203.48352 92.584765 
L 203.5728 72.347867 
L 203.66208 118.937335 
L 203.75136 71.565316 
L 203.84064 123.12863 
L 203.92992 108.351129 
L 204.0192 68.83617 
L 204.19776 102.239003 
L 204.28704 106.590446 
L 204.4656 68.6624 
L 204.64416 88.02333 
L 204.73344 69.825938 
L 204.82272 106.211901 
L 204.912 72.353064 
L 205.09056 92.629377 
L 205.17984 64.2521 
L 205.26912 77.014738 
L 205.3584 117.549144 
L 205.53696 57.784333 
L 205.62624 73.934734 
L 205.71552 64.921311 
L 205.8048 87.570509 
L 205.89408 64.20744 
L 206.07264 84.111792 
L 206.16192 91.652455 
L 206.2512 67.738127 
L 206.34048 123.170981 
L 206.51904 55.656659 
L 206.60832 57.904699 
L 206.78688 96.714039 
L 206.87616 73.539088 
L 206.96544 74.850054 
L 207.05472 65.960546 
L 207.23328 95.460224 
L 207.41184 62.275207 
L 207.50112 115.367234 
L 207.5904 62.363321 
L 207.67968 90.724945 
L 207.85824 67.851508 
L 207.94752 81.254185 
L 208.0368 63.737094 
L 208.21536 91.311628 
L 208.30464 70.315046 
L 208.57248 91.452901 
L 208.66176 92.438409 
L 208.75104 62.11643 
L 208.9296 76.901865 
L 209.01888 76.352046 
L 209.10816 88.792655 
L 209.19744 60.96749 
L 209.28672 74.172585 
L 209.376 60.033467 
L 209.46528 96.994614 
L 209.73312 61.623894 
L 209.8224 70.697773 
L 209.91168 62.72404 
L 210.00096 119.946675 
L 210.09024 72.559876 
L 210.17952 102.786542 
L 210.44736 52.514046 
L 210.98304 82.302575 
L 211.25088 52.222531 
L 211.34016 96.115255 
L 211.51872 59.069663 
L 211.608 65.082405 
L 211.69728 119.731541 
L 211.87584 56.918609 
L 212.0544 124.474932 
L 212.23296 69.453388 
L 212.32224 95.052552 
L 212.41152 68.665813 
L 212.5008 71.49102 
L 212.59008 79.017492 
L 212.67936 71.162445 
L 212.85792 102.513601 
L 212.9472 71.124866 
L 213.03648 86.518824 
L 213.12576 70.511163 
L 213.21504 104.458206 
L 213.3936 69.621715 
L 213.48288 95.699413 
L 213.66144 70.090128 
L 213.75072 100.036111 
L 213.84 78.297975 
L 213.92928 78.82157 
L 214.01856 65.95241 
L 214.10784 74.893181 
L 214.19712 103.303091 
L 214.37568 77.676205 
L 214.55424 96.346262 
L 214.7328 86.019834 
L 214.82208 115.253064 
L 214.91136 98.806719 
L 215.00064 141.98996 
L 215.1792 81.039791 
L 215.26848 81.100449 
L 215.44704 67.886083 
L 215.53632 96.822468 
L 215.6256 75.978263 
L 215.71488 93.550278 
L 215.80416 70.029406 
L 215.89344 74.341987 
L 216.072 93.375713 
L 216.25056 60.21943 
L 216.33984 86.20826 
L 216.42912 66.241605 
L 216.5184 92.786012 
L 216.60768 72.582314 
L 216.78624 124.658648 
L 216.87552 76.080964 
L 216.9648 81.504896 
L 217.23264 98.191986 
L 217.4112 79.076006 
L 217.50048 108.216969 
L 217.67904 79.669394 
L 217.76832 127.688571 
L 217.8576 79.314502 
L 217.94688 83.045079 
L 218.03616 82.375557 
L 218.21472 103.431531 
L 218.39328 73.334503 
L 218.48256 63.126101 
L 218.7504 116.810208 
L 218.92896 77.813016 
L 219.28608 108.066101 
L 219.46464 67.205051 
L 219.55392 75.74429 
L 219.6432 98.455478 
L 219.82176 67.356109 
L 220.00032 68.577919 
L 220.0896 86.140328 
L 220.17888 80.630182 
L 220.26816 104.182967 
L 220.35744 96.534153 
L 220.536 68.392792 
L 220.71456 90.464818 
L 220.80384 64.768602 
L 220.9824 85.920001 
L 221.07168 55.73571 
L 221.16096 78.920071 
L 221.25024 52.688325 
L 221.69664 84.486054 
L 221.78592 80.959596 
L 221.8752 83.690303 
L 221.96448 74.985149 
L 222.14304 98.068478 
L 222.3216 59.771293 
L 222.41088 120.458884 
L 222.768 56.220584 
L 222.85728 87.876379 
L 222.94656 87.101388 
L 223.2144 71.899533 
L 223.30368 111.399407 
L 223.39296 77.197143 
L 223.48224 115.316356 
L 223.6608 78.981433 
L 223.75008 91.25319 
L 223.92864 77.051296 
L 224.01792 137.10358 
L 224.1072 90.809224 
L 224.19648 123.376408 
L 224.28576 102.100025 
L 224.37504 113.273139 
L 224.46432 111.261226 
L 224.5536 108.531925 
L 224.64288 139.356251 
L 224.91072 87.924709 
L 225 85.392046 
L 225.08928 95.935293 
L 225.17856 81.705575 
L 225.26784 83.01623 
L 225.35712 96.481424 
L 225.4464 77.430162 
L 225.53568 77.445705 
L 225.71424 104.278607 
L 225.80352 70.51136 
L 225.98208 94.393452 
L 226.07136 63.249119 
L 226.16064 66.59062 
L 226.3392 62.158415 
L 226.42848 80.310685 
L 226.51776 66.999256 
L 226.69632 85.365685 
L 226.7856 79.948909 
L 226.87488 142.741291 
L 227.05344 74.688139 
L 227.232 88.031048 
L 227.32128 78.996827 
L 227.41056 82.780291 
L 227.49984 82.553135 
L 227.6784 87.834918 
L 227.76768 110.443724 
L 227.85696 106.275678 
L 227.94624 103.465648 
L 228.03552 108.177582 
L 228.1248 97.220422 
L 228.21408 117.013443 
L 228.30336 112.94115 
L 228.39264 122.277511 
L 228.48192 171.817454 
L 228.66048 128.183001 
L 228.83904 147.246418 
L 228.92832 146.725168 
L 229.0176 141.71474 
L 229.19616 165.787063 
L 229.28544 142.41226 
L 229.37472 142.843109 
L 229.464 146.1299 
L 229.55328 167.589252 
L 229.73184 129.345085 
L 229.82112 149.29439 
L 229.9104 146.403638 
L 229.99968 151.176496 
L 230.08896 143.400534 
L 230.26752 109.157906 
L 230.3568 121.153977 
L 230.44608 120.495402 
L 230.53536 125.938999 
L 230.8032 89.293251 
L 230.98176 114.202498 
L 231.16032 73.597558 
L 231.42816 114.167291 
L 231.60672 85.410055 
L 231.696 82.784416 
L 231.78528 90.299173 
L 231.87456 81.294201 
L 232.05312 110.86066 
L 232.1424 111.136467 
L 232.23168 114.159344 
L 232.32096 106.661306 
L 232.5888 136.39748 
L 232.67808 172.13587 
L 232.85664 127.712837 
L 232.94592 144.932949 
L 233.0352 131.958083 
L 233.21376 142.445412 
L 233.30304 130.696836 
L 233.39232 152.510994 
L 233.4816 144.434514 
L 233.57088 124.129384 
L 233.74944 141.610366 
L 233.83872 135.119403 
L 233.928 134.96433 
L 234.01728 152.739166 
L 234.10656 141.806968 
L 234.19584 159.087631 
L 234.28512 156.887552 
L 234.3744 144.471364 
L 234.55296 167.685371 
L 234.8208 180.17744 
L 234.91008 202.288505 
L 235.08864 189.223803 
L 235.2672 190.774219 
L 235.35648 190.528611 
L 235.44576 190.607397 
L 235.7136 190.662411 
L 236.96352 190.528611 
L 237.0528 190.774219 
L 237.14208 190.709094 
L 237.23136 189.223803 
L 237.32064 192.539316 
L 237.40992 202.288505 
L 237.58848 178.39547 
L 237.85632 166.995201 
L 237.9456 144.471364 
L 238.12416 159.087631 
L 238.21344 141.806968 
L 238.30272 152.739166 
L 238.392 134.96433 
L 238.48128 135.119403 
L 238.57056 141.610366 
L 238.74912 124.129384 
L 238.92768 152.510994 
L 239.01696 130.696836 
L 239.10624 142.445412 
L 239.19552 140.456505 
L 239.2848 131.958083 
L 239.37408 144.932949 
L 239.46336 127.712837 
L 239.64192 172.13587 
L 239.82048 126.183996 
L 239.99904 106.661306 
L 240.08832 114.159344 
L 240.35616 101.784583 
L 240.44544 81.294201 
L 240.53472 90.299173 
L 240.624 82.784416 
L 240.80256 85.828595 
L 240.89184 114.167291 
L 241.15968 73.597558 
L 241.33824 114.202498 
L 241.5168 89.293251 
L 241.60608 98.042334 
L 241.78464 125.938999 
L 241.87392 120.495402 
L 241.9632 121.153977 
L 242.05248 109.157906 
L 242.14176 110.466898 
L 242.32032 151.176496 
L 242.4096 146.403638 
L 242.49888 149.29439 
L 242.58816 129.345085 
L 242.76672 167.589252 
L 242.94528 142.843109 
L 243.03456 142.41226 
L 243.12384 165.787063 
L 243.21312 161.908251 
L 243.3024 141.71474 
L 243.48096 147.246418 
L 243.57024 141.432758 
L 243.65952 128.183001 
L 243.7488 131.080384 
L 243.83808 171.817454 
L 244.01664 112.94115 
L 244.10592 117.013443 
L 244.1952 97.220422 
L 244.28448 108.177582 
L 244.37376 103.465648 
L 244.55232 110.443724 
L 244.73088 84.757063 
L 244.99872 78.996827 
L 245.088 88.031048 
L 245.17728 85.687596 
L 245.26656 74.688139 
L 245.35584 75.191341 
L 245.44512 142.741291 
L 245.5344 79.948909 
L 245.62368 85.365685 
L 245.80224 66.999256 
L 245.89152 80.310685 
L 245.9808 62.158415 
L 246.07008 63.470421 
L 246.15936 66.59062 
L 246.24864 63.249119 
L 246.33792 94.393452 
L 246.4272 93.271566 
L 246.51648 70.51136 
L 246.60576 104.278607 
L 246.69504 99.725065 
L 246.8736 77.430162 
L 246.96288 96.481424 
L 247.14144 81.705575 
L 247.23072 95.935293 
L 247.32 85.392046 
L 247.40928 87.924709 
L 247.67712 139.356251 
L 247.7664 108.531925 
L 247.85568 111.261226 
L 247.94496 113.273139 
L 248.03424 102.100025 
L 248.12352 123.376408 
L 248.2128 90.809224 
L 248.30208 137.10358 
L 248.39136 77.051296 
L 248.48064 77.305958 
L 248.56992 91.25319 
L 248.6592 78.981433 
L 248.74848 82.810741 
L 248.83776 115.316356 
L 248.92704 77.197143 
L 249.01632 111.399407 
L 249.1056 71.899533 
L 249.19488 79.202718 
L 249.28416 78.538069 
L 249.46272 87.876379 
L 249.552 56.220584 
L 249.64128 76.037007 
L 249.73056 69.058683 
L 249.90912 120.458884 
L 249.9984 59.771293 
L 250.17696 98.068478 
L 250.35552 74.985149 
L 250.4448 83.690303 
L 250.53408 80.959596 
L 250.62336 84.486054 
L 250.8912 60.312185 
L 250.98048 60.221368 
L 251.06976 52.688325 
L 251.15904 78.920071 
L 251.24832 55.73571 
L 251.3376 85.920001 
L 251.42688 81.907462 
L 251.51616 64.768602 
L 251.60544 90.464818 
L 251.784 68.392792 
L 251.87328 75.265986 
L 252.05184 104.182967 
L 252.14112 80.630182 
L 252.2304 86.140328 
L 252.31968 68.577919 
L 252.40896 79.090647 
L 252.49824 67.356109 
L 252.6768 98.455478 
L 252.85536 67.205051 
L 253.03392 108.066101 
L 253.39104 77.813016 
L 253.48032 81.661768 
L 253.5696 116.810208 
L 253.83744 63.126101 
L 254.10528 103.431531 
L 254.19456 99.364028 
L 254.28384 82.375557 
L 254.37312 83.045079 
L 254.4624 79.314502 
L 254.55168 127.688571 
L 254.64096 79.669394 
L 254.73024 80.379512 
L 254.81952 108.216969 
L 254.9088 79.076006 
L 255.08736 98.191986 
L 255.17664 96.898939 
L 255.44448 76.080964 
L 255.53376 124.658648 
L 255.62304 111.525058 
L 255.71232 72.582314 
L 255.8016 92.786012 
L 255.89088 66.241605 
L 255.98016 86.20826 
L 256.06944 60.21943 
L 256.248 93.375713 
L 256.51584 70.029406 
L 256.60512 93.550278 
L 256.6944 75.978263 
L 256.78368 96.822468 
L 256.87296 67.886083 
L 256.96224 70.601831 
L 257.23008 107.475853 
L 257.31936 141.98996 
L 257.40864 98.806719 
L 257.49792 115.253064 
L 257.5872 86.019834 
L 257.67648 88.536903 
L 257.76576 96.346262 
L 257.94432 77.676205 
L 258.0336 77.803199 
L 258.12288 103.303091 
L 258.30144 65.95241 
L 258.56928 100.036111 
L 258.65856 70.090128 
L 258.83712 95.699413 
L 258.9264 69.621715 
L 259.10496 104.458206 
L 259.19424 70.511163 
L 259.28352 86.518824 
L 259.3728 71.124866 
L 259.46208 102.513601 
L 259.55136 99.351802 
L 259.64064 71.162445 
L 259.72992 79.017492 
L 259.90848 68.665813 
L 259.99776 95.052552 
L 260.08704 69.453388 
L 260.17632 73.854271 
L 260.2656 124.474932 
L 260.44416 56.918609 
L 260.62272 119.731541 
L 260.80128 59.069663 
L 260.89056 59.367241 
L 260.97984 96.115255 
L 261.06912 52.222531 
L 261.1584 58.025105 
L 261.33696 82.302575 
L 261.42624 74.156447 
L 261.51552 79.333487 
L 261.87264 52.514046 
L 262.14048 102.786542 
L 262.22976 72.559876 
L 262.31904 119.946675 
L 262.40832 62.72404 
L 262.4976 70.697773 
L 262.58688 61.623894 
L 262.85472 96.994614 
L 262.944 60.033467 
L 263.03328 74.172585 
L 263.12256 60.96749 
L 263.21184 88.792655 
L 263.30112 76.352046 
L 263.3904 76.901865 
L 263.47968 75.632931 
L 263.56896 62.11643 
L 263.65824 92.438409 
L 263.74752 91.452901 
L 264.01536 70.315046 
L 264.10464 91.311628 
L 264.2832 63.737094 
L 264.37248 81.254185 
L 264.46176 67.851508 
L 264.64032 90.724945 
L 264.7296 62.363321 
L 264.81888 115.367234 
L 264.90816 62.275207 
L 265.08672 95.460224 
L 265.176 92.634627 
L 265.26528 65.960546 
L 265.53312 96.714039 
L 265.80096 55.656659 
L 265.97952 123.170981 
L 266.0688 67.738127 
L 266.15808 91.652455 
L 266.42592 64.20744 
L 266.5152 87.570509 
L 266.60448 64.921311 
L 266.69376 73.934734 
L 266.78304 57.784333 
L 266.9616 117.549144 
L 267.14016 64.2521 
L 267.22944 92.629377 
L 267.31872 86.26906 
L 267.408 72.353064 
L 267.49728 106.211901 
L 267.58656 69.825938 
L 267.67584 88.02333 
L 267.8544 68.6624 
L 268.03296 106.590446 
L 268.21152 96.783496 
L 268.3008 68.83617 
L 268.47936 123.12863 
L 268.56864 71.565316 
L 268.65792 118.937335 
L 268.7472 72.347867 
L 268.92576 95.860271 
L 269.28288 81.048696 
L 269.37216 84.17831 
L 269.55072 100.132029 
L 269.64 94.789541 
L 269.72928 75.181913 
L 269.81856 98.528418 
L 269.99712 64.876815 
L 270.0864 98.533595 
L 270.26496 76.894034 
L 270.35424 81.606792 
L 270.44352 76.870985 
L 270.5328 87.191915 
L 270.62208 78.79257 
L 270.71136 105.524483 
L 270.80064 65.862623 
L 270.9792 96.247381 
L 271.06848 99.822342 
L 271.15776 95.926417 
L 271.33632 69.625575 
L 271.4256 105.400681 
L 271.69344 58.905038 
L 271.78272 67.678967 
L 271.872 100.560406 
L 271.96128 67.682685 
L 272.05056 74.628005 
L 272.13984 104.002267 
L 272.3184 75.831537 
L 272.40768 88.422584 
L 272.58624 61.84485 
L 272.67552 113.717502 
L 272.7648 74.49197 
L 272.85408 83.257113 
L 272.94336 103.817193 
L 273.12192 68.502619 
L 273.30048 101.486909 
L 273.38976 83.242877 
L 273.47904 83.744329 
L 273.56832 85.784886 
L 273.6576 84.219142 
L 274.01472 117.500869 
L 274.104 91.533385 
L 274.19328 118.506768 
L 274.37184 84.73794 
L 274.46112 81.576645 
L 274.5504 93.866684 
L 274.63968 70.915617 
L 274.72896 100.288004 
L 274.90752 66.58673 
L 274.9968 69.510671 
L 275.17536 87.721258 
L 275.26464 76.69557 
L 275.53248 95.362886 
L 275.62176 61.551028 
L 275.71104 140.334859 
L 275.80032 62.64848 
L 275.8896 76.553378 
L 275.97888 86.402953 
L 276.06816 77.226035 
L 276.15744 82.821533 
L 276.24672 103.951315 
L 276.336 73.592986 
L 276.42528 100.634747 
L 276.51456 70.897278 
L 276.60384 92.348814 
L 276.7824 62.427008 
L 276.96096 121.212812 
L 277.40736 66.265155 
L 277.49664 67.023611 
L 277.58592 101.417548 
L 277.76448 78.997788 
L 277.85376 94.347004 
L 277.94304 93.8981 
L 278.03232 100.298284 
L 278.1216 80.736291 
L 278.21088 108.15161 
L 278.38944 92.890445 
L 278.47872 95.581618 
L 278.65728 82.604609 
L 278.83584 127.847495 
L 278.92512 92.200853 
L 279.0144 113.996167 
L 279.10368 72.776887 
L 279.19296 83.082005 
L 279.28224 115.326038 
L 279.37152 77.455693 
L 279.4608 104.32142 
L 279.55008 79.955089 
L 279.63936 92.802479 
L 279.72864 83.83009 
L 279.81792 88.593574 
L 279.9072 78.145358 
L 279.99648 80.213364 
L 280.08576 73.400086 
L 280.17504 94.352875 
L 280.26432 62.082273 
L 280.3536 68.916549 
L 280.53216 76.693652 
L 280.62144 100.806152 
L 280.71072 91.468 
L 280.8 63.426223 
L 281.06784 169.57392 
L 281.15712 73.38801 
L 281.2464 85.340532 
L 281.42496 94.950289 
L 281.51424 72.386666 
L 281.60352 85.16524 
L 281.6928 70.114704 
L 281.78208 79.54345 
L 281.87136 72.539064 
L 281.96064 100.824908 
L 282.04992 74.580168 
L 282.1392 80.269144 
L 282.22848 93.490952 
L 282.31776 79.722525 
L 282.40704 81.018497 
L 282.5856 79.484202 
L 282.67488 83.65842 
L 282.76416 72.422393 
L 282.94272 99.870795 
L 283.12128 71.43232 
L 283.21056 73.133202 
L 283.29984 107.089164 
L 283.38912 83.415927 
L 283.4784 83.946178 
L 283.56768 100.467441 
L 283.74624 89.492339 
L 283.83552 96.981667 
L 283.9248 73.834056 
L 284.01408 149.769848 
L 284.19264 81.548102 
L 284.28192 87.461805 
L 284.3712 82.549537 
L 284.46048 108.884489 
L 284.54976 83.925483 
L 284.63904 102.593582 
L 284.72832 60.46459 
L 284.90688 93.518258 
L 284.99616 87.341324 
L 285.17472 64.315029 
L 285.264 64.112684 
L 285.35328 70.585314 
L 285.44256 117.395433 
L 285.7104 78.811892 
L 285.79968 98.568777 
L 285.88896 74.304125 
L 285.97824 75.132965 
L 286.1568 97.942409 
L 286.33536 92.30636 
L 286.42464 86.971598 
L 286.51392 64.210191 
L 286.6032 118.970029 
L 286.69248 107.494491 
L 286.78176 72.128966 
L 286.87104 83.173978 
L 286.96032 118.243814 
L 287.0496 74.574165 
L 287.13888 82.794546 
L 287.22816 95.325645 
L 287.31744 70.329582 
L 287.40672 70.859874 
L 287.496 70.399634 
L 287.76384 90.843532 
L 287.85312 82.159458 
L 287.9424 84.296336 
L 288.03168 70.553036 
L 288.12096 75.196436 
L 288.21024 64.102963 
L 288.29952 144.290256 
L 288.47808 81.081676 
L 288.56736 122.829276 
L 288.74592 83.750499 
L 288.8352 105.716178 
L 289.01376 67.16485 
L 289.19232 117.022479 
L 289.37088 79.661944 
L 289.46016 97.433456 
L 289.54944 60.521395 
L 289.63872 66.238121 
L 289.728 74.918371 
L 289.81728 74.882378 
L 289.90656 80.186857 
L 289.99584 96.764496 
L 290.08512 95.945112 
L 290.1744 68.673991 
L 290.26368 90.253245 
L 290.35296 65.064975 
L 290.53152 97.287644 
L 290.6208 95.633912 
L 290.79936 80.432435 
L 290.88864 97.204193 
L 290.97792 154.483477 
L 291.0672 86.661926 
L 291.15648 130.315307 
L 291.24576 77.835495 
L 291.33504 92.427031 
L 291.42432 76.312357 
L 291.5136 82.11164 
L 291.60288 124.406656 
L 291.69216 80.090087 
L 291.87072 116.028473 
L 292.04928 74.105117 
L 292.13856 85.469244 
L 292.22784 112.575153 
L 292.4064 67.69163 
L 292.49568 63.851838 
L 292.67424 88.408741 
L 292.8528 71.928401 
L 292.94208 102.884817 
L 293.03136 70.118368 
L 293.2992 109.228881 
L 293.38848 89.137632 
L 293.47776 100.471833 
L 293.56704 82.925452 
L 293.65632 87.775575 
L 293.7456 74.091054 
L 293.83488 80.670173 
L 293.92416 107.220041 
L 294.01344 71.28245 
L 294.10272 87.892425 
L 294.192 71.302873 
L 294.37056 90.061819 
L 294.45984 89.256929 
L 294.6384 85.834947 
L 294.72768 93.484069 
L 294.81696 86.804005 
L 294.90624 103.82987 
L 295.0848 72.121354 
L 295.17408 67.399903 
L 295.26336 109.432661 
L 295.35264 81.007207 
L 295.5312 94.41456 
L 295.62048 95.339012 
L 295.70976 71.145734 
L 295.79904 122.799825 
L 295.9776 94.949573 
L 296.15616 86.491268 
L 296.24544 100.097434 
L 296.33472 76.964265 
L 296.424 96.994632 
L 296.51328 161.45455 
L 296.69184 73.755588 
L 296.78112 118.855307 
L 296.8704 87.769128 
L 296.95968 126.044203 
L 297.13824 78.832561 
L 297.22752 104.39951 
L 297.3168 71.605184 
L 297.40608 72.458758 
L 297.49536 73.153974 
L 297.67392 109.174099 
L 297.85248 70.838572 
L 297.94176 86.071747 
L 298.12032 69.387866 
L 298.29888 117.733344 
L 298.38816 111.563904 
L 298.47744 83.082356 
L 298.56672 94.465885 
L 298.656 71.672378 
L 298.83456 91.826238 
L 298.92384 99.291946 
L 299.01312 71.781264 
L 299.1024 106.877941 
L 299.19168 89.851056 
L 299.28096 121.711714 
L 299.5488 63.418284 
L 299.72736 100.676697 
L 299.81664 73.786371 
L 299.9952 95.501426 
L 300.08448 80.061272 
L 300.17376 90.578149 
L 300.26304 80.279619 
L 300.35232 95.218469 
L 300.4416 94.711957 
L 300.62016 95.494459 
L 300.70944 72.551357 
L 300.888 106.044103 
L 300.97728 89.112811 
L 301.06656 139.818484 
L 301.15584 78.058772 
L 301.24512 88.296177 
L 301.3344 79.044579 
L 301.51296 99.241583 
L 301.60224 74.189863 
L 301.69152 90.44201 
L 301.87008 77.045704 
L 302.04864 91.237254 
L 302.13792 86.136269 
L 302.2272 99.101442 
L 302.31648 76.701194 
L 302.40576 102.665284 
L 302.49504 80.916151 
L 302.6736 95.070508 
L 302.76288 96.111273 
L 302.85216 106.512611 
L 303.03072 64.299652 
L 303.12 77.430252 
L 303.29856 121.712325 
L 303.38784 120.860048 
L 303.5664 75.79961 
L 303.65568 86.33228 
L 303.74496 189.100888 
L 303.83424 93.990629 
L 303.92352 115.356077 
L 304.10208 81.826898 
L 304.19136 67.845532 
L 304.28064 105.787041 
L 304.36992 101.265851 
L 304.4592 108.623937 
L 304.54848 74.661869 
L 304.63776 90.208603 
L 304.72704 129.787182 
L 304.9056 88.992618 
L 304.99488 92.363779 
L 305.08416 130.412387 
L 305.26272 76.970029 
L 305.352 79.992356 
L 305.44128 76.140471 
L 305.7984 118.499456 
L 305.97696 76.723446 
L 306.06624 101.904116 
L 306.15552 75.185437 
L 306.33408 114.497743 
L 306.42336 115.501825 
L 306.51264 85.24235 
L 306.6912 134.656737 
L 306.86976 79.525274 
L 306.95904 100.508725 
L 307.04832 90.044372 
L 307.1376 108.093112 
L 307.22688 80.417443 
L 307.31616 118.621764 
L 307.49472 83.111237 
L 307.584 84.370308 
L 307.67328 100.885016 
L 307.76256 72.737004 
L 307.85184 98.048605 
L 307.94112 79.199589 
L 308.0304 79.442734 
L 308.11968 72.552595 
L 308.29824 106.122001 
L 308.38752 81.56483 
L 308.4768 97.371011 
L 308.56608 93.209356 
L 308.65536 67.157016 
L 308.83392 105.10676 
L 308.9232 85.755949 
L 309.10176 111.832455 
L 309.19104 91.278861 
L 309.3696 106.467241 
L 309.54816 109.16226 
L 309.63744 88.340838 
L 309.816 110.277158 
L 309.90528 66.238071 
L 309.99456 103.983106 
L 310.08384 102.866211 
L 310.17312 109.09912 
L 310.2624 93.889939 
L 310.35168 97.612908 
L 310.53024 70.125792 
L 310.7088 121.232426 
L 310.97664 87.976058 
L 311.06592 107.076797 
L 311.1552 81.362025 
L 311.24448 91.029765 
L 311.33376 164.580437 
L 311.42304 77.880651 
L 311.51232 131.573546 
L 311.6016 85.741755 
L 311.78016 119.348608 
L 311.86944 96.240144 
L 311.95872 104.893897 
L 312.13728 76.124727 
L 312.31584 105.088995 
L 312.40512 73.697588 
L 312.58368 93.796278 
L 312.67296 96.48796 
L 312.85152 121.121042 
L 312.9408 66.124523 
L 313.03008 93.758596 
L 313.11936 72.855437 
L 313.3872 113.364953 
L 313.47648 90.464514 
L 313.56576 98.321924 
L 313.65504 83.759711 
L 313.74432 107.615261 
L 313.8336 102.237154 
L 313.92288 81.219192 
L 314.01216 108.195742 
L 314.28 76.620568 
L 314.45856 107.205014 
L 314.63712 96.42966 
L 314.7264 152.680999 
L 314.90496 78.269881 
L 315.08352 130.839703 
L 315.1728 88.842494 
L 315.26208 115.098932 
L 315.35136 95.559325 
L 315.44064 106.421278 
L 315.52992 78.342206 
L 315.79776 111.521332 
L 315.88704 74.348127 
L 316.0656 107.066825 
L 316.24416 79.899963 
L 316.33344 83.607234 
L 316.42272 143.660032 
L 316.512 103.194895 
L 316.60128 111.408763 
L 316.69056 131.996257 
L 316.86912 78.283591 
L 317.13696 137.652951 
L 317.22624 88.73872 
L 317.31552 102.010232 
L 317.4048 80.397422 
L 317.49408 98.519872 
L 317.58336 84.690166 
L 317.76192 135.434939 
L 317.94048 81.074804 
L 318.02976 87.595426 
L 318.11904 81.634239 
L 318.38688 128.039304 
L 318.47616 75.346379 
L 318.56544 96.280969 
L 318.65472 84.322622 
L 318.83328 140.945903 
L 318.92256 103.105293 
L 319.01184 108.030792 
L 319.1904 96.419369 
L 319.27968 72.393161 
L 319.45824 105.601117 
L 319.54752 88.313319 
L 319.6368 115.382268 
L 319.72608 82.077527 
L 319.81536 82.080289 
L 320.26176 120.732692 
L 320.35104 91.053282 
L 320.44032 91.860644 
L 320.5296 109.542661 
L 320.61888 84.306068 
L 320.70816 111.09838 
L 320.88672 82.569282 
L 320.976 113.61113 
L 321.15456 77.904589 
L 321.4224 122.49468 
L 321.60096 87.712084 
L 321.69024 94.813359 
L 321.8688 105.565962 
L 321.95808 105.204941 
L 322.04736 80.535354 
L 322.3152 119.450593 
L 322.40448 100.986009 
L 322.49376 106.823834 
L 322.58304 101.442987 
L 322.7616 131.925835 
L 322.94016 87.784911 
L 323.02944 81.674256 
L 323.11872 99.605888 
L 323.208 90.851137 
L 323.29728 105.320361 
L 323.47584 87.507325 
L 323.74368 130.547876 
L 323.83296 97.406559 
L 323.92224 114.728197 
L 324.01152 86.169927 
L 324.1008 90.325686 
L 324.19008 77.928987 
L 324.36864 123.021671 
L 324.5472 92.878227 
L 324.63648 106.522298 
L 324.72576 86.789492 
L 324.90432 113.560556 
L 325.08288 91.208829 
L 325.17216 157.890435 
L 325.26144 77.672077 
L 325.35072 111.052422 
L 325.44 79.742497 
L 325.52928 108.552118 
L 325.61856 106.232368 
L 325.70784 117.52799 
L 325.8864 106.318483 
L 325.97568 87.058987 
L 326.24352 122.323656 
L 326.42208 97.501753 
L 326.60064 115.926112 
L 326.68992 145.391517 
L 326.86848 100.618363 
L 326.95776 111.634173 
L 327.04704 88.254737 
L 327.13632 94.88229 
L 327.31488 113.523256 
L 327.40416 106.637136 
L 327.49344 116.173412 
L 327.58272 114.379404 
L 327.76128 101.670369 
L 327.85056 104.936832 
L 327.93984 83.252194 
L 328.02912 86.755037 
L 328.1184 110.562372 
L 328.20768 94.367782 
L 328.29696 107.289658 
L 328.38624 96.234881 
L 328.47552 101.865833 
L 328.5648 90.538579 
L 328.65408 107.926502 
L 328.74336 96.942591 
L 328.83264 203.900389 
L 329.0112 95.649808 
L 329.18976 75.744866 
L 329.36832 109.33009 
L 329.4576 106.03032 
L 329.54688 111.293162 
L 329.81472 86.600628 
L 329.99328 123.480556 
L 330.08256 92.83634 
L 330.17184 134.634814 
L 330.3504 102.785033 
L 330.43968 95.228929 
L 330.61824 103.544701 
L 330.70752 96.258601 
L 330.7968 106.424767 
L 330.88608 95.11645 
L 331.15392 117.587944 
L 331.33248 116.812241 
L 331.42176 121.206513 
L 331.51104 136.444423 
L 331.77888 93.743191 
L 331.86816 100.337701 
L 332.04672 140.432722 
L 332.136 100.942482 
L 332.22528 120.271694 
L 332.40384 109.455997 
L 332.49312 129.114543 
L 332.67168 85.058844 
L 332.85024 146.012371 
L 332.93952 94.360014 
L 333.0288 115.879703 
L 333.11808 90.103733 
L 333.20736 112.217411 
L 333.29664 100.14657 
L 333.38592 108.548545 
L 333.4752 97.004123 
L 333.56448 108.870631 
L 333.74304 84.408644 
L 333.83232 158.773675 
L 334.01088 100.430972 
L 334.10016 133.351371 
L 334.18944 85.133133 
L 334.27872 119.395889 
L 334.45728 89.487092 
L 334.54656 122.820166 
L 334.63584 108.544051 
L 334.72512 134.138088 
L 334.8144 109.34565 
L 334.90368 152.4439 
L 335.08224 87.339389 
L 335.2608 105.223809 
L 335.35008 125.809338 
L 335.43936 91.833786 
L 335.52864 117.414059 
L 335.61792 92.051127 
L 335.79648 142.814666 
L 335.88576 106.153269 
L 335.97504 116.987242 
L 336.06432 112.152625 
L 336.1536 136.77688 
L 336.24288 99.717997 
L 336.42144 131.516477 
L 336.51072 128.607727 
L 336.6 126.873525 
L 336.68928 138.230675 
L 336.77856 97.226569 
L 336.86784 141.691536 
L 336.95712 104.16205 
L 337.0464 106.024628 
L 337.13568 102.460751 
L 337.22496 141.532973 
L 337.31424 114.334644 
L 337.40352 129.71965 
L 337.58208 102.476774 
L 337.67136 104.902472 
L 337.76064 98.748534 
L 337.84992 115.877259 
L 337.9392 111.989096 
L 338.11776 93.571813 
L 338.20704 94.467093 
L 338.29632 100.01125 
L 338.3856 121.684511 
L 338.47488 104.997525 
L 338.65344 149.025744 
L 338.74272 99.970092 
L 338.832 116.088704 
L 338.92128 115.427046 
L 339.01056 106.374529 
L 339.09984 110.90136 
L 339.36768 87.252136 
L 339.45696 109.406072 
L 339.54624 103.48761 
L 339.63552 120.45987 
L 339.7248 98.345562 
L 339.81408 110.627844 
L 340.08192 99.554356 
L 340.1712 93.823685 
L 340.34976 123.568069 
L 340.43904 123.714951 
L 340.52832 141.321494 
L 340.6176 108.960331 
L 340.70688 124.445851 
L 340.88544 107.634626 
L 340.97472 112.980035 
L 341.064 109.259091 
L 341.15328 111.905254 
L 341.24256 120.070343 
L 341.33184 107.476728 
L 341.42112 136.110904 
L 341.59968 99.776926 
L 341.77824 124.538325 
L 341.86752 119.018884 
L 341.9568 122.841751 
L 342.13536 109.218998 
L 342.22464 126.877855 
L 342.31392 108.135269 
L 342.4032 128.715316 
L 342.58176 105.995977 
L 342.67104 154.754146 
L 342.76032 103.77311 
L 342.93888 126.426715 
L 343.296 94.712571 
L 343.47456 128.14939 
L 343.56384 97.695084 
L 343.65312 143.313357 
L 343.7424 133.709182 
L 343.83168 107.111894 
L 344.01024 134.649236 
L 344.1888 88.552662 
L 344.27808 122.72915 
L 344.36736 100.971991 
L 344.54592 131.195747 
L 344.6352 126.515908 
L 344.81376 100.450707 
L 344.99232 137.702285 
L 345.0816 126.986341 
L 345.17088 110.137143 
L 345.26016 131.220405 
L 345.34944 108.989072 
L 345.43872 114.174438 
L 345.61728 102.455106 
L 345.70656 134.041232 
L 345.9744 101.775851 
L 346.06368 136.307259 
L 346.15296 130.80429 
L 346.24224 116.542782 
L 346.33152 153.03834 
L 346.4208 144.762274 
L 346.51008 133.729164 
L 346.59936 104.430161 
L 346.77792 152.183639 
L 346.95648 115.798876 
L 347.04576 107.663013 
L 347.13504 159.498672 
L 347.22432 121.295956 
L 347.49216 215.265656 
L 347.58144 119.526689 
L 347.67072 152.33474 
L 347.84928 109.625162 
L 347.93856 125.440418 
L 348.02784 113.969998 
L 348.11712 124.519409 
L 348.2064 113.113769 
L 348.29568 114.416975 
L 348.47424 105.406774 
L 348.56352 121.879318 
L 348.6528 121.758897 
L 348.74208 124.650377 
L 348.92064 119.005701 
L 349.00992 118.65356 
L 349.0992 125.569821 
L 349.18848 122.164739 
L 349.27776 126.539982 
L 349.36704 100.909006 
L 349.45632 138.930335 
L 349.5456 113.553825 
L 349.63488 146.550501 
L 349.72416 140.651395 
L 349.90272 106.476883 
L 349.992 161.080637 
L 350.08128 118.010287 
L 350.17056 125.110572 
L 350.25984 121.133282 
L 350.34912 177.609162 
L 350.4384 126.602996 
L 350.52768 129.137625 
L 350.61696 148.83033 
L 350.70624 133.449193 
L 350.79552 148.054026 
L 350.8848 140.819334 
L 351.06336 112.983806 
L 351.15264 133.58636 
L 351.24192 133.460874 
L 351.59904 121.699882 
L 351.68832 144.053971 
L 352.04544 119.807962 
L 352.13472 140.689189 
L 352.224 122.958945 
L 352.58112 150.116631 
L 352.75968 110.078067 
L 352.84896 137.144448 
L 352.93824 110.275736 
L 353.02752 142.131233 
L 353.29536 111.292064 
L 353.38464 134.359065 
L 353.47392 129.707276 
L 353.5632 127.478563 
L 353.65248 107.50826 
L 353.74176 152.886468 
L 353.83104 130.564861 
L 353.92032 138.542521 
L 354.0096 188.122599 
L 354.18816 123.510952 
L 354.27744 132.604492 
L 354.36672 129.187762 
L 354.456 140.117202 
L 354.54528 117.676227 
L 354.63456 136.725269 
L 354.72384 128.843609 
L 354.81312 110.350534 
L 354.9024 121.073229 
L 354.99168 193.353285 
L 355.17024 143.242317 
L 355.52736 111.050693 
L 355.61664 119.602255 
L 355.70592 160.534811 
L 355.88448 118.444391 
L 355.97376 140.631489 
L 356.06304 135.311688 
L 356.2416 156.944795 
L 356.42016 125.561954 
L 356.50944 128.79978 
L 356.59872 139.923186 
L 356.688 128.719198 
L 356.77728 130.026712 
L 356.86656 133.250794 
L 356.95584 173.789719 
L 357.04512 115.023771 
L 357.1344 146.58139 
L 357.22368 118.068419 
L 357.31296 121.08344 
L 357.40224 123.401205 
L 357.49152 121.906956 
L 357.5808 124.235257 
L 357.67008 133.670538 
L 357.75936 132.903268 
L 357.84864 130.726904 
L 357.93792 115.682715 
L 358.0272 136.455347 
L 358.11648 122.095352 
L 358.38432 147.126277 
L 358.4736 135.854819 
L 358.56288 151.861192 
L 358.65216 130.721363 
L 358.74144 156.317821 
L 358.83072 124.77164 
L 358.92 140.429654 
L 359.00928 127.337497 
L 359.09856 149.554956 
L 359.18784 146.431476 
L 359.27712 160.592542 
L 359.3664 120.205046 
L 359.45568 121.61496 
L 359.54496 166.135039 
L 359.63424 127.495056 
L 359.72352 140.065292 
L 359.8128 127.40808 
L 359.90208 143.749983 
L 359.99136 125.406337 
L 360.08064 141.543098 
L 360.16992 140.823353 
L 360.2592 148.655065 
L 360.43776 125.472917 
L 360.52704 139.465903 
L 360.61632 126.708989 
L 360.7056 177.968128 
L 360.88416 111.830734 
L 361.152 156.298211 
L 361.33056 145.744851 
L 361.41984 162.088903 
L 361.50912 118.105375 
L 361.5984 195.743347 
L 361.68768 124.200521 
L 361.77696 125.625906 
L 361.86624 116.921281 
L 362.13408 147.89171 
L 362.22336 133.688317 
L 362.31264 139.971279 
L 362.40192 131.383224 
L 362.58048 148.526388 
L 362.66976 148.39538 
L 362.75904 131.738759 
L 362.84832 159.605271 
L 363.02688 127.127073 
L 363.11616 175.52559 
L 363.29472 125.28638 
L 363.47328 158.545258 
L 363.56256 134.469729 
L 363.65184 158.206846 
L 363.74112 137.821032 
L 363.8304 166.689191 
L 363.91968 133.371087 
L 364.00896 161.241195 
L 364.09824 156.209079 
L 364.2768 142.255216 
L 364.36608 119.868745 
L 364.63392 163.815641 
L 364.7232 123.122822 
L 364.81248 144.112574 
L 364.90176 124.926245 
L 365.1696 149.193635 
L 365.25888 138.389062 
L 365.34816 155.148061 
L 365.43744 148.449711 
L 365.52672 127.819513 
L 365.616 182.972929 
L 365.88384 110.820915 
L 365.97312 144.207678 
L 366.0624 139.749745 
L 366.24096 132.688797 
L 366.33024 131.145189 
L 366.41952 153.963088 
L 366.5088 120.654163 
L 366.68736 178.898273 
L 366.86592 133.383986 
L 366.9552 154.465637 
L 367.04448 151.197064 
L 367.13376 151.458505 
L 367.22304 172.127442 
L 367.31232 150.611748 
L 367.4016 158.754578 
L 367.49088 150.879467 
L 367.58016 159.387339 
L 367.66944 156.093688 
L 367.75872 136.222611 
L 367.93728 165.167644 
L 368.02656 133.006492 
L 368.11584 156.548881 
L 368.20512 151.547723 
L 368.2944 133.301217 
L 368.47296 197.441083 
L 368.56224 150.218503 
L 368.65152 156.163789 
L 368.83008 177.871004 
L 368.91936 145.781842 
L 369.00864 157.900262 
L 369.09792 135.959747 
L 369.1872 195.475937 
L 369.27648 132.88312 
L 369.36576 145.460738 
L 369.45504 179.389097 
L 369.54432 149.988012 
L 369.6336 166.65032 
L 369.72288 136.417561 
L 369.81216 219.94262 
L 369.90144 143.538749 
L 369.99072 189.607278 
L 370.08 144.204063 
L 370.16928 172.445861 
L 370.25856 132.744496 
L 370.34784 141.636542 
L 370.5264 129.300869 
L 370.61568 166.590493 
L 370.70496 149.272075 
L 370.79424 151.580582 
L 370.9728 133.735711 
L 371.06208 145.795587 
L 371.15136 145.323741 
L 371.32992 136.290317 
L 371.50848 150.655186 
L 371.59776 164.859105 
L 371.68704 143.194439 
L 371.77632 167.501504 
L 371.8656 142.727385 
L 371.95488 151.59823 
L 372.04416 140.973495 
L 372.13344 146.692099 
L 372.312 203.931099 
L 372.49056 151.384667 
L 372.57984 157.228904 
L 372.7584 148.668112 
L 373.2048 176.576302 
L 373.29408 140.499561 
L 373.47264 154.788511 
L 373.56192 205.164013 
L 373.6512 167.25136 
L 373.74048 169.916972 
L 373.82976 174.642899 
L 373.91904 161.387451 
L 374.00832 167.605102 
L 374.0976 138.618248 
L 374.36544 171.604771 
L 374.544 141.190801 
L 374.63328 161.823558 
L 374.72256 161.613156 
L 374.81184 158.87694 
L 374.90112 185.60925 
L 374.9904 184.238411 
L 375.07968 135.587681 
L 375.16896 146.185784 
L 375.25824 168.665519 
L 375.34752 167.522284 
L 375.52608 139.138328 
L 375.70464 156.835781 
L 375.79392 144.091133 
L 376.06176 225.375815 
L 376.24032 160.256427 
L 376.41888 147.728711 
L 376.50816 145.297209 
L 376.59744 168.563448 
L 376.68672 151.554786 
L 376.776 170.841441 
L 377.04384 147.035466 
L 377.13312 165.587351 
L 377.2224 142.413062 
L 377.31168 169.636967 
L 377.40096 142.886071 
L 377.57952 180.516015 
L 377.6688 154.851267 
L 377.75808 163.491004 
L 377.84736 158.052558 
L 377.93664 164.72308 
L 378.02592 155.468227 
L 378.1152 175.756005 
L 378.20448 165.196385 
L 378.29376 204.25272 
L 378.38304 142.659169 
L 378.5616 169.132795 
L 378.65088 172.803316 
L 378.74016 190.259001 
L 378.91872 157.140371 
L 379.008 169.364292 
L 379.18656 158.811355 
L 379.27584 160.938224 
L 379.36512 154.590264 
L 379.4544 177.357991 
L 379.63296 143.86843 
L 379.72224 137.399568 
L 379.9008 151.500664 
L 379.99008 198.968932 
L 380.25792 156.182201 
L 380.43648 143.220155 
L 380.52576 155.607842 
L 380.61504 153.600044 
L 380.7936 150.463546 
L 380.88288 165.496751 
L 380.97216 153.324424 
L 381.32928 177.321646 
L 381.41856 149.759248 
L 381.50784 153.440227 
L 381.59712 152.85835 
L 381.86496 169.525767 
L 381.95424 165.299571 
L 382.04352 180.307425 
L 382.22208 146.902866 
L 382.31136 159.41355 
L 382.40064 146.368122 
L 382.5792 186.03982 
L 382.75776 151.648101 
L 382.84704 176.968213 
L 382.93632 158.390964 
L 383.0256 158.84497 
L 383.11488 179.834963 
L 383.20416 161.825476 
L 383.29344 175.324541 
L 383.38272 173.968406 
L 383.472 182.226704 
L 383.56128 172.821708 
L 383.73984 143.114618 
L 383.82912 199.229316 
L 384.00768 152.44362 
L 384.18624 166.549824 
L 384.3648 145.319307 
L 384.45408 163.971336 
L 384.54336 150.676803 
L 384.63264 184.281746 
L 384.90048 153.106297 
L 384.98976 173.927865 
L 385.07904 170.795842 
L 385.16832 150.526153 
L 385.2576 151.780763 
L 385.34688 149.799921 
L 385.43616 158.84285 
L 385.52544 156.019042 
L 385.61472 158.896433 
L 385.704 167.66107 
L 385.79328 240.626911 
L 385.97184 181.341442 
L 386.06112 148.808782 
L 386.1504 190.104728 
L 386.23968 157.908626 
L 386.41824 171.567726 
L 386.50752 156.700969 
L 386.5968 156.890658 
L 386.68608 147.862624 
L 386.77536 152.73097 
L 386.86464 193.631421 
L 387.0432 157.60063 
L 387.13248 173.882545 
L 387.22176 154.462537 
L 387.40032 208.945241 
L 387.4896 158.41878 
L 387.57888 168.411183 
L 387.75744 156.612711 
L 387.84672 203.974343 
L 387.936 149.222607 
L 388.02528 159.275997 
L 388.20384 177.930842 
L 388.29312 171.454254 
L 388.3824 182.269678 
L 388.47168 172.289242 
L 388.56096 148.336892 
L 388.91808 190.930225 
L 389.18592 161.236267 
L 389.2752 201.705573 
L 389.45376 159.143464 
L 389.54304 161.516017 
L 389.63232 157.778619 
L 389.7216 157.880162 
L 389.81088 157.680084 
L 389.90016 175.126418 
L 389.98944 162.797194 
L 390.07872 164.994972 
L 390.25728 151.068165 
L 390.34656 164.739201 
L 390.43584 206.628294 
L 390.6144 153.57645 
L 390.70368 175.838886 
L 390.79296 172.79088 
L 390.88224 177.146248 
L 391.0608 154.484958 
L 391.15008 226.526905 
L 391.32864 160.596659 
L 391.5072 200.067145 
L 391.59648 163.370739 
L 391.77504 205.485029 
L 391.9536 157.623045 
L 392.04288 171.363296 
L 392.13216 173.721177 
L 392.22144 203.580547 
L 392.31072 167.242578 
L 392.4 174.549084 
L 392.48928 184.46096 
L 392.57856 184.371596 
L 392.66784 162.411269 
L 392.75712 199.868313 
L 392.8464 164.841787 
L 392.93568 179.688321 
L 393.11424 169.026798 
L 393.20352 194.331961 
L 393.47136 155.030459 
L 393.7392 198.439246 
L 393.82848 163.181209 
L 393.91776 168.800377 
L 394.00704 171.418442 
L 394.09632 161.034702 
L 394.1856 179.983437 
L 394.27488 161.305771 
L 394.36416 163.887517 
L 394.54272 174.59189 
L 394.632 160.530141 
L 394.72128 169.031148 
L 394.81056 156.608987 
L 394.89984 192.179514 
L 394.98912 165.170185 
L 395.0784 166.139398 
L 395.16768 172.138557 
L 395.25696 225.816341 
L 395.43552 167.810003 
L 395.5248 152.618508 
L 395.79264 185.479133 
L 395.88192 189.924884 
L 395.9712 166.704275 
L 396.06048 185.5381 
L 396.14976 162.716248 
L 396.23904 204.872919 
L 396.32832 183.516838 
L 396.4176 196.010165 
L 396.50688 164.451267 
L 396.59616 173.173713 
L 396.68544 194.676627 
L 396.864 161.943204 
L 396.95328 197.385412 
L 397.04256 184.730406 
L 397.22112 203.586316 
L 397.3104 193.867513 
L 397.39968 206.854984 
L 397.48896 198.819435 
L 397.57824 201.128753 
L 397.66752 168.85604 
L 397.7568 169.814672 
L 397.93536 198.011233 
L 398.11392 168.392164 
L 398.2032 172.058968 
L 398.29248 180.661034 
L 398.38176 177.150561 
L 398.47104 177.165284 
L 398.6496 199.407811 
L 398.82816 164.02861 
L 399.096 182.790172 
L 399.18528 170.737873 
L 399.36384 187.387629 
L 399.45312 210.438796 
L 399.72096 186.300484 
L 399.81024 199.915387 
L 399.89952 195.787672 
L 399.9888 185.921971 
L 400.07808 222.650914 
L 400.16736 178.106957 
L 400.25664 241.564493 
L 400.4352 182.647592 
L 400.79232 215.159387 
L 400.8816 196.145423 
L 400.97088 196.395085 
L 401.06016 238.849381 
L 401.23872 203.917664 
L 401.328 213.593337 
L 401.41728 211.27779 
L 401.50656 203.402741 
L 401.59584 231.722855 
L 401.68512 204.848404 
L 401.7744 218.336199 
L 401.86368 204.718632 
L 402.04224 238.2792 
L 402.13152 210.531003 
L 402.2208 216.30607 
L 402.31008 211.2987 
L 402.39936 243.875445 
L 402.48864 232.372591 
L 402.57792 252.401737 
L 402.75648 221.863167 
L 402.84576 215.628195 
L 402.93504 249.659965 
L 403.29216 214.229972 
L 403.38144 218.402168 
L 403.47072 240.053526 
L 403.56 236.339279 
L 403.64928 220.664426 
L 403.73856 221.005819 
L 403.91712 238.377113 
L 404.0064 215.002911 
L 404.09568 219.488595 
L 404.27424 261.498074 
L 404.4528 225.713199 
L 404.54208 233.417693 
L 404.63136 267.233153 
L 404.80992 217.556691 
L 404.8992 217.327727 
L 404.98848 263.591991 
L 405.07776 252.742978 
L 405.16704 226.791115 
L 405.25632 232.841628 
L 405.3456 239.360124 
L 405.43488 238.745706 
L 405.52416 236.442984 
L 405.61344 231.228042 
L 405.70272 235.273433 
L 405.792 248.278213 
L 405.88128 246.11193 
L 405.97056 247.079614 
L 406.05984 222.284191 
L 406.2384 247.381021 
L 406.41696 228.74865 
L 406.59552 240.260983 
L 406.6848 232.873313 
L 406.77408 234.377781 
L 406.86336 235.509204 
L 407.04192 240.028565 
L 407.1312 237.749436 
L 407.22048 238.611617 
L 407.30976 238.570351 
L 407.48832 236.445543 
L 407.75616 241.465267 
L 407.84544 235.718477 
L 407.93472 238.38815 
L 408.11328 236.711739 
L 408.29184 237.61475 
L 408.38112 237.486834 
L 408.4704 238.123564 
L 408.55968 237.759561 
L 408.64896 237.994684 
L 408.82752 236.745529 
L 409.00608 237.273242 
L 409.27392 238.148697 
L 409.3632 237.057322 
L 409.45248 237.539052 
L 409.54176 236.787332 
L 409.72032 237.5407 
L 409.8096 237.404558 
L 409.89888 237.502719 
L 410.07744 237.205341 
L 410.34528 237.695783 
L 410.43456 237.351922 
L 410.7024 237.582285 
L 410.88096 237.577531 
L 411.05952 237.588791 
L 411.32736 237.594613 
L 414.63072 237.771696 
L 414.63072 237.771696 
" clip-path="url(#p8137e17ec7)" style="fill: none; stroke: #1f77b4; stroke-width: 1.5; stroke-linecap: square"/>
   </g>
   <g id="patch_3">
    <path d="M 57.6 307.584 
L 57.6 41.472 
" style="fill: none; stroke: #000000; stroke-width: 0.8; stroke-linejoin: miter; stroke-linecap: square"/>
   </g>
   <g id="patch_4">
    <path d="M 414.72 307.584 
L 414.72 41.472 
" style="fill: none; stroke: #000000; stroke-width: 0.8; stroke-linejoin: miter; stroke-linecap: square"/>
   </g>
   <g id="patch_5">
    <path d="M 57.6 307.584 
L 414.72 307.584 
" style="fill: none; stroke: #000000; stroke-width: 0.8; stroke-linejoin: miter; stroke-linecap: square"/>
   </g>
   <g id="patch_6">
    <path d="M 57.6 41.472 
L 414.72 41.472 
" style="fill: none; stroke: #000000; stroke-width: 0.8; stroke-linejoin: miter; stroke-linecap: square"/>
   </g>
  </g>
 </g>
 <defs>
  <clipPath id="p8137e17ec7">
   <rect x="57.6" y="41.472" width="357.12" height="266.112"/>
  </clipPath>
 </defs>
</svg>
