<?xml version="1.0" encoding="utf-8" standalone="no"?>
<!DOCTYPE svg PUBLIC "-//W3C//DTD SVG 1.1//EN"
  "http://www.w3.org/Graphics/SVG/1.1/DTD/svg11.dtd">
<svg xmlns:xlink="http://www.w3.org/1999/xlink" width="460.8pt" height="345.6pt" viewBox="0 0 460.8 345.6" xmlns="http://www.w3.org/2000/svg" version="1.1">
 <metadata>
  <rdf:RDF xmlns:dc="http://purl.org/dc/elements/1.1/" xmlns:cc="http://creativecommons.org/ns#" xmlns:rdf="http://www.w3.org/1999/02/22-rdf-syntax-ns#">
   <cc:Work>
    <dc:type rdf:resource="http://purl.org/dc/dcmitype/StillImage"/>
    <dc:date>2024-06-18T12:22:20.056257</dc:date>
    <dc:format>image/svg+xml</dc:format>
    <dc:creator>
     <cc:Agent>
      <dc:title>Matplotlib v3.8.2, https://matplotlib.org/</dc:title>
     </cc:Agent>
    </dc:creator>
   </cc:Work>
  </rdf:RDF>
 </metadata>
 <defs>
  <style type="text/css">*{stroke-linejoin: round; stroke-linecap: butt}</style>
 </defs>
 <g id="figure_1">
  <g id="patch_1">
   <path d="M 0 345.6 
L 460.8 345.6 
L 460.8 0 
L 0 0 
z
" style="fill: #ffffff"/>
  </g>
  <g id="axes_1">
   <g id="patch_2">
    <path d="M 57.6 307.584 
L 414.72 307.584 
L 414.72 41.472 
L 57.6 41.472 
z
" style="fill: #ffffff"/>
   </g>
   <g id="matplotlib.axis_1">
    <g id="xtick_1">
     <g id="line2d_1">
      <defs>
       <path id="m77f48a084b" d="M 0 0 
L 0 3.5 
" style="stroke: #000000; stroke-width: 0.8"/>
      </defs>
      <g>
       <use xlink:href="#m77f48a084b" x="73.832727" y="307.584" style="stroke: #000000; stroke-width: 0.8"/>
      </g>
     </g>
     <g id="text_1">
      <!-- 0 -->
      <g transform="translate(70.651477 322.182437) scale(0.1 -0.1)">
       <defs>
        <path id="DejaVuSans-30" d="M 2034 4250 
Q 1547 4250 1301 3770 
Q 1056 3291 1056 2328 
Q 1056 1369 1301 889 
Q 1547 409 2034 409 
Q 2525 409 2770 889 
Q 3016 1369 3016 2328 
Q 3016 3291 2770 3770 
Q 2525 4250 2034 4250 
z
M 2034 4750 
Q 2819 4750 3233 4129 
Q 3647 3509 3647 2328 
Q 3647 1150 3233 529 
Q 2819 -91 2034 -91 
Q 1250 -91 836 529 
Q 422 1150 422 2328 
Q 422 3509 836 4129 
Q 1250 4750 2034 4750 
z
" transform="scale(0.015625)"/>
       </defs>
       <use xlink:href="#DejaVuSans-30"/>
      </g>
     </g>
    </g>
    <g id="xtick_2">
     <g id="line2d_2">
      <g>
       <use xlink:href="#m77f48a084b" x="127.941818" y="307.584" style="stroke: #000000; stroke-width: 0.8"/>
      </g>
     </g>
     <g id="text_2">
      <!-- 10 -->
      <g transform="translate(121.579318 322.182437) scale(0.1 -0.1)">
       <defs>
        <path id="DejaVuSans-31" d="M 794 531 
L 1825 531 
L 1825 4091 
L 703 3866 
L 703 4441 
L 1819 4666 
L 2450 4666 
L 2450 531 
L 3481 531 
L 3481 0 
L 794 0 
L 794 531 
z
" transform="scale(0.015625)"/>
       </defs>
       <use xlink:href="#DejaVuSans-31"/>
       <use xlink:href="#DejaVuSans-30" x="63.623047"/>
      </g>
     </g>
    </g>
    <g id="xtick_3">
     <g id="line2d_3">
      <g>
       <use xlink:href="#m77f48a084b" x="182.050909" y="307.584" style="stroke: #000000; stroke-width: 0.8"/>
      </g>
     </g>
     <g id="text_3">
      <!-- 20 -->
      <g transform="translate(175.688409 322.182437) scale(0.1 -0.1)">
       <defs>
        <path id="DejaVuSans-32" d="M 1228 531 
L 3431 531 
L 3431 0 
L 469 0 
L 469 531 
Q 828 903 1448 1529 
Q 2069 2156 2228 2338 
Q 2531 2678 2651 2914 
Q 2772 3150 2772 3378 
Q 2772 3750 2511 3984 
Q 2250 4219 1831 4219 
Q 1534 4219 1204 4116 
Q 875 4013 500 3803 
L 500 4441 
Q 881 4594 1212 4672 
Q 1544 4750 1819 4750 
Q 2544 4750 2975 4387 
Q 3406 4025 3406 3419 
Q 3406 3131 3298 2873 
Q 3191 2616 2906 2266 
Q 2828 2175 2409 1742 
Q 1991 1309 1228 531 
z
" transform="scale(0.015625)"/>
       </defs>
       <use xlink:href="#DejaVuSans-32"/>
       <use xlink:href="#DejaVuSans-30" x="63.623047"/>
      </g>
     </g>
    </g>
    <g id="xtick_4">
     <g id="line2d_4">
      <g>
       <use xlink:href="#m77f48a084b" x="236.16" y="307.584" style="stroke: #000000; stroke-width: 0.8"/>
      </g>
     </g>
     <g id="text_4">
      <!-- 30 -->
      <g transform="translate(229.7975 322.182437) scale(0.1 -0.1)">
       <defs>
        <path id="DejaVuSans-33" d="M 2597 2516 
Q 3050 2419 3304 2112 
Q 3559 1806 3559 1356 
Q 3559 666 3084 287 
Q 2609 -91 1734 -91 
Q 1441 -91 1130 -33 
Q 819 25 488 141 
L 488 750 
Q 750 597 1062 519 
Q 1375 441 1716 441 
Q 2309 441 2620 675 
Q 2931 909 2931 1356 
Q 2931 1769 2642 2001 
Q 2353 2234 1838 2234 
L 1294 2234 
L 1294 2753 
L 1863 2753 
Q 2328 2753 2575 2939 
Q 2822 3125 2822 3475 
Q 2822 3834 2567 4026 
Q 2313 4219 1838 4219 
Q 1578 4219 1281 4162 
Q 984 4106 628 3988 
L 628 4550 
Q 988 4650 1302 4700 
Q 1616 4750 1894 4750 
Q 2613 4750 3031 4423 
Q 3450 4097 3450 3541 
Q 3450 3153 3228 2886 
Q 3006 2619 2597 2516 
z
" transform="scale(0.015625)"/>
       </defs>
       <use xlink:href="#DejaVuSans-33"/>
       <use xlink:href="#DejaVuSans-30" x="63.623047"/>
      </g>
     </g>
    </g>
    <g id="xtick_5">
     <g id="line2d_5">
      <g>
       <use xlink:href="#m77f48a084b" x="290.269091" y="307.584" style="stroke: #000000; stroke-width: 0.8"/>
      </g>
     </g>
     <g id="text_5">
      <!-- 40 -->
      <g transform="translate(283.906591 322.182437) scale(0.1 -0.1)">
       <defs>
        <path id="DejaVuSans-34" d="M 2419 4116 
L 825 1625 
L 2419 1625 
L 2419 4116 
z
M 2253 4666 
L 3047 4666 
L 3047 1625 
L 3713 1625 
L 3713 1100 
L 3047 1100 
L 3047 0 
L 2419 0 
L 2419 1100 
L 313 1100 
L 313 1709 
L 2253 4666 
z
" transform="scale(0.015625)"/>
       </defs>
       <use xlink:href="#DejaVuSans-34"/>
       <use xlink:href="#DejaVuSans-30" x="63.623047"/>
      </g>
     </g>
    </g>
    <g id="xtick_6">
     <g id="line2d_6">
      <g>
       <use xlink:href="#m77f48a084b" x="344.378182" y="307.584" style="stroke: #000000; stroke-width: 0.8"/>
      </g>
     </g>
     <g id="text_6">
      <!-- 50 -->
      <g transform="translate(338.015682 322.182437) scale(0.1 -0.1)">
       <defs>
        <path id="DejaVuSans-35" d="M 691 4666 
L 3169 4666 
L 3169 4134 
L 1269 4134 
L 1269 2991 
Q 1406 3038 1543 3061 
Q 1681 3084 1819 3084 
Q 2600 3084 3056 2656 
Q 3513 2228 3513 1497 
Q 3513 744 3044 326 
Q 2575 -91 1722 -91 
Q 1428 -91 1123 -41 
Q 819 9 494 109 
L 494 744 
Q 775 591 1075 516 
Q 1375 441 1709 441 
Q 2250 441 2565 725 
Q 2881 1009 2881 1497 
Q 2881 1984 2565 2268 
Q 2250 2553 1709 2553 
Q 1456 2553 1204 2497 
Q 953 2441 691 2322 
L 691 4666 
z
" transform="scale(0.015625)"/>
       </defs>
       <use xlink:href="#DejaVuSans-35"/>
       <use xlink:href="#DejaVuSans-30" x="63.623047"/>
      </g>
     </g>
    </g>
    <g id="xtick_7">
     <g id="line2d_7">
      <g>
       <use xlink:href="#m77f48a084b" x="398.487273" y="307.584" style="stroke: #000000; stroke-width: 0.8"/>
      </g>
     </g>
     <g id="text_7">
      <!-- 60 -->
      <g transform="translate(392.124773 322.182437) scale(0.1 -0.1)">
       <defs>
        <path id="DejaVuSans-36" d="M 2113 2584 
Q 1688 2584 1439 2293 
Q 1191 2003 1191 1497 
Q 1191 994 1439 701 
Q 1688 409 2113 409 
Q 2538 409 2786 701 
Q 3034 994 3034 1497 
Q 3034 2003 2786 2293 
Q 2538 2584 2113 2584 
z
M 3366 4563 
L 3366 3988 
Q 3128 4100 2886 4159 
Q 2644 4219 2406 4219 
Q 1781 4219 1451 3797 
Q 1122 3375 1075 2522 
Q 1259 2794 1537 2939 
Q 1816 3084 2150 3084 
Q 2853 3084 3261 2657 
Q 3669 2231 3669 1497 
Q 3669 778 3244 343 
Q 2819 -91 2113 -91 
Q 1303 -91 875 529 
Q 447 1150 447 2328 
Q 447 3434 972 4092 
Q 1497 4750 2381 4750 
Q 2619 4750 2861 4703 
Q 3103 4656 3366 4563 
z
" transform="scale(0.015625)"/>
       </defs>
       <use xlink:href="#DejaVuSans-36"/>
       <use xlink:href="#DejaVuSans-30" x="63.623047"/>
      </g>
     </g>
    </g>
    <g id="text_8">
     <!-- Time [$s$] -->
     <g transform="translate(215.66 335.860562) scale(0.1 -0.1)">
      <defs>
       <path id="DejaVuSans-54" d="M -19 4666 
L 3928 4666 
L 3928 4134 
L 2272 4134 
L 2272 0 
L 1638 0 
L 1638 4134 
L -19 4134 
L -19 4666 
z
" transform="scale(0.015625)"/>
       <path id="DejaVuSans-69" d="M 603 3500 
L 1178 3500 
L 1178 0 
L 603 0 
L 603 3500 
z
M 603 4863 
L 1178 4863 
L 1178 4134 
L 603 4134 
L 603 4863 
z
" transform="scale(0.015625)"/>
       <path id="DejaVuSans-6d" d="M 3328 2828 
Q 3544 3216 3844 3400 
Q 4144 3584 4550 3584 
Q 5097 3584 5394 3201 
Q 5691 2819 5691 2113 
L 5691 0 
L 5113 0 
L 5113 2094 
Q 5113 2597 4934 2840 
Q 4756 3084 4391 3084 
Q 3944 3084 3684 2787 
Q 3425 2491 3425 1978 
L 3425 0 
L 2847 0 
L 2847 2094 
Q 2847 2600 2669 2842 
Q 2491 3084 2119 3084 
Q 1678 3084 1418 2786 
Q 1159 2488 1159 1978 
L 1159 0 
L 581 0 
L 581 3500 
L 1159 3500 
L 1159 2956 
Q 1356 3278 1631 3431 
Q 1906 3584 2284 3584 
Q 2666 3584 2933 3390 
Q 3200 3197 3328 2828 
z
" transform="scale(0.015625)"/>
       <path id="DejaVuSans-65" d="M 3597 1894 
L 3597 1613 
L 953 1613 
Q 991 1019 1311 708 
Q 1631 397 2203 397 
Q 2534 397 2845 478 
Q 3156 559 3463 722 
L 3463 178 
Q 3153 47 2828 -22 
Q 2503 -91 2169 -91 
Q 1331 -91 842 396 
Q 353 884 353 1716 
Q 353 2575 817 3079 
Q 1281 3584 2069 3584 
Q 2775 3584 3186 3129 
Q 3597 2675 3597 1894 
z
M 3022 2063 
Q 3016 2534 2758 2815 
Q 2500 3097 2075 3097 
Q 1594 3097 1305 2825 
Q 1016 2553 972 2059 
L 3022 2063 
z
" transform="scale(0.015625)"/>
       <path id="DejaVuSans-20" transform="scale(0.015625)"/>
       <path id="DejaVuSans-5b" d="M 550 4863 
L 1875 4863 
L 1875 4416 
L 1125 4416 
L 1125 -397 
L 1875 -397 
L 1875 -844 
L 550 -844 
L 550 4863 
z
" transform="scale(0.015625)"/>
       <path id="DejaVuSans-Oblique-73" d="M 3200 3397 
L 3091 2853 
Q 2863 2978 2609 3040 
Q 2356 3103 2088 3103 
Q 1634 3103 1373 2948 
Q 1113 2794 1113 2528 
Q 1113 2219 1719 2053 
Q 1766 2041 1788 2034 
L 1972 1978 
Q 2547 1819 2739 1644 
Q 2931 1469 2931 1166 
Q 2931 609 2489 259 
Q 2047 -91 1331 -91 
Q 1053 -91 747 -37 
Q 441 16 72 128 
L 184 722 
Q 500 559 806 475 
Q 1113 391 1394 391 
Q 1816 391 2080 572 
Q 2344 753 2344 1031 
Q 2344 1331 1650 1516 
L 1591 1531 
L 1394 1581 
Q 956 1697 753 1886 
Q 550 2075 550 2369 
Q 550 2928 970 3256 
Q 1391 3584 2113 3584 
Q 2397 3584 2667 3537 
Q 2938 3491 3200 3397 
z
" transform="scale(0.015625)"/>
       <path id="DejaVuSans-5d" d="M 1947 4863 
L 1947 -844 
L 622 -844 
L 622 -397 
L 1369 -397 
L 1369 4416 
L 622 4416 
L 622 4863 
L 1947 4863 
z
" transform="scale(0.015625)"/>
      </defs>
      <use xlink:href="#DejaVuSans-54" transform="translate(0 0.015625)"/>
      <use xlink:href="#DejaVuSans-69" transform="translate(61.083984 0.015625)"/>
      <use xlink:href="#DejaVuSans-6d" transform="translate(88.867188 0.015625)"/>
      <use xlink:href="#DejaVuSans-65" transform="translate(186.279297 0.015625)"/>
      <use xlink:href="#DejaVuSans-20" transform="translate(247.802734 0.015625)"/>
      <use xlink:href="#DejaVuSans-5b" transform="translate(279.589844 0.015625)"/>
      <use xlink:href="#DejaVuSans-Oblique-73" transform="translate(318.603516 0.015625)"/>
      <use xlink:href="#DejaVuSans-5d" transform="translate(370.703125 0.015625)"/>
     </g>
    </g>
   </g>
   <g id="matplotlib.axis_2">
    <g id="ytick_1">
     <g id="line2d_8">
      <defs>
       <path id="m65ce09b1f9" d="M 0 0 
L -3.5 0 
" style="stroke: #000000; stroke-width: 0.8"/>
      </defs>
      <g>
       <use xlink:href="#m65ce09b1f9" x="57.6" y="291.470327" style="stroke: #000000; stroke-width: 0.8"/>
      </g>
     </g>
     <g id="text_9">
      <!-- −0.6 -->
      <g transform="translate(26.317187 295.269546) scale(0.1 -0.1)">
       <defs>
        <path id="DejaVuSans-2212" d="M 678 2272 
L 4684 2272 
L 4684 1741 
L 678 1741 
L 678 2272 
z
" transform="scale(0.015625)"/>
        <path id="DejaVuSans-2e" d="M 684 794 
L 1344 794 
L 1344 0 
L 684 0 
L 684 794 
z
" transform="scale(0.015625)"/>
       </defs>
       <use xlink:href="#DejaVuSans-2212"/>
       <use xlink:href="#DejaVuSans-30" x="83.789062"/>
       <use xlink:href="#DejaVuSans-2e" x="147.412109"/>
       <use xlink:href="#DejaVuSans-36" x="179.199219"/>
      </g>
     </g>
    </g>
    <g id="ytick_2">
     <g id="line2d_9">
      <g>
       <use xlink:href="#m65ce09b1f9" x="57.6" y="259.115027" style="stroke: #000000; stroke-width: 0.8"/>
      </g>
     </g>
     <g id="text_10">
      <!-- −0.4 -->
      <g transform="translate(26.317187 262.914245) scale(0.1 -0.1)">
       <use xlink:href="#DejaVuSans-2212"/>
       <use xlink:href="#DejaVuSans-30" x="83.789062"/>
       <use xlink:href="#DejaVuSans-2e" x="147.412109"/>
       <use xlink:href="#DejaVuSans-34" x="179.199219"/>
      </g>
     </g>
    </g>
    <g id="ytick_3">
     <g id="line2d_10">
      <g>
       <use xlink:href="#m65ce09b1f9" x="57.6" y="226.759726" style="stroke: #000000; stroke-width: 0.8"/>
      </g>
     </g>
     <g id="text_11">
      <!-- −0.2 -->
      <g transform="translate(26.317187 230.558945) scale(0.1 -0.1)">
       <use xlink:href="#DejaVuSans-2212"/>
       <use xlink:href="#DejaVuSans-30" x="83.789062"/>
       <use xlink:href="#DejaVuSans-2e" x="147.412109"/>
       <use xlink:href="#DejaVuSans-32" x="179.199219"/>
      </g>
     </g>
    </g>
    <g id="ytick_4">
     <g id="line2d_11">
      <g>
       <use xlink:href="#m65ce09b1f9" x="57.6" y="194.404425" style="stroke: #000000; stroke-width: 0.8"/>
      </g>
     </g>
     <g id="text_12">
      <!-- 0.0 -->
      <g transform="translate(34.696875 198.203644) scale(0.1 -0.1)">
       <use xlink:href="#DejaVuSans-30"/>
       <use xlink:href="#DejaVuSans-2e" x="63.623047"/>
       <use xlink:href="#DejaVuSans-30" x="95.410156"/>
      </g>
     </g>
    </g>
    <g id="ytick_5">
     <g id="line2d_12">
      <g>
       <use xlink:href="#m65ce09b1f9" x="57.6" y="162.049125" style="stroke: #000000; stroke-width: 0.8"/>
      </g>
     </g>
     <g id="text_13">
      <!-- 0.2 -->
      <g transform="translate(34.696875 165.848344) scale(0.1 -0.1)">
       <use xlink:href="#DejaVuSans-30"/>
       <use xlink:href="#DejaVuSans-2e" x="63.623047"/>
       <use xlink:href="#DejaVuSans-32" x="95.410156"/>
      </g>
     </g>
    </g>
    <g id="ytick_6">
     <g id="line2d_13">
      <g>
       <use xlink:href="#m65ce09b1f9" x="57.6" y="129.693824" style="stroke: #000000; stroke-width: 0.8"/>
      </g>
     </g>
     <g id="text_14">
      <!-- 0.4 -->
      <g transform="translate(34.696875 133.493043) scale(0.1 -0.1)">
       <use xlink:href="#DejaVuSans-30"/>
       <use xlink:href="#DejaVuSans-2e" x="63.623047"/>
       <use xlink:href="#DejaVuSans-34" x="95.410156"/>
      </g>
     </g>
    </g>
    <g id="ytick_7">
     <g id="line2d_14">
      <g>
       <use xlink:href="#m65ce09b1f9" x="57.6" y="97.338524" style="stroke: #000000; stroke-width: 0.8"/>
      </g>
     </g>
     <g id="text_15">
      <!-- 0.6 -->
      <g transform="translate(34.696875 101.137742) scale(0.1 -0.1)">
       <use xlink:href="#DejaVuSans-30"/>
       <use xlink:href="#DejaVuSans-2e" x="63.623047"/>
       <use xlink:href="#DejaVuSans-36" x="95.410156"/>
      </g>
     </g>
    </g>
    <g id="ytick_8">
     <g id="line2d_15">
      <g>
       <use xlink:href="#m65ce09b1f9" x="57.6" y="64.983223" style="stroke: #000000; stroke-width: 0.8"/>
      </g>
     </g>
     <g id="text_16">
      <!-- 0.8 -->
      <g transform="translate(34.696875 68.782442) scale(0.1 -0.1)">
       <defs>
        <path id="DejaVuSans-38" d="M 2034 2216 
Q 1584 2216 1326 1975 
Q 1069 1734 1069 1313 
Q 1069 891 1326 650 
Q 1584 409 2034 409 
Q 2484 409 2743 651 
Q 3003 894 3003 1313 
Q 3003 1734 2745 1975 
Q 2488 2216 2034 2216 
z
M 1403 2484 
Q 997 2584 770 2862 
Q 544 3141 544 3541 
Q 544 4100 942 4425 
Q 1341 4750 2034 4750 
Q 2731 4750 3128 4425 
Q 3525 4100 3525 3541 
Q 3525 3141 3298 2862 
Q 3072 2584 2669 2484 
Q 3125 2378 3379 2068 
Q 3634 1759 3634 1313 
Q 3634 634 3220 271 
Q 2806 -91 2034 -91 
Q 1263 -91 848 271 
Q 434 634 434 1313 
Q 434 1759 690 2068 
Q 947 2378 1403 2484 
z
M 1172 3481 
Q 1172 3119 1398 2916 
Q 1625 2713 2034 2713 
Q 2441 2713 2670 2916 
Q 2900 3119 2900 3481 
Q 2900 3844 2670 4047 
Q 2441 4250 2034 4250 
Q 1625 4250 1398 4047 
Q 1172 3844 1172 3481 
z
" transform="scale(0.015625)"/>
       </defs>
       <use xlink:href="#DejaVuSans-30"/>
       <use xlink:href="#DejaVuSans-2e" x="63.623047"/>
       <use xlink:href="#DejaVuSans-38" x="95.410156"/>
      </g>
     </g>
    </g>
    <g id="text_17">
     <!-- Normalized amplitude -->
     <g transform="translate(20.2375 229.738937) rotate(-90) scale(0.1 -0.1)">
      <defs>
       <path id="DejaVuSans-4e" d="M 628 4666 
L 1478 4666 
L 3547 763 
L 3547 4666 
L 4159 4666 
L 4159 0 
L 3309 0 
L 1241 3903 
L 1241 0 
L 628 0 
L 628 4666 
z
" transform="scale(0.015625)"/>
       <path id="DejaVuSans-6f" d="M 1959 3097 
Q 1497 3097 1228 2736 
Q 959 2375 959 1747 
Q 959 1119 1226 758 
Q 1494 397 1959 397 
Q 2419 397 2687 759 
Q 2956 1122 2956 1747 
Q 2956 2369 2687 2733 
Q 2419 3097 1959 3097 
z
M 1959 3584 
Q 2709 3584 3137 3096 
Q 3566 2609 3566 1747 
Q 3566 888 3137 398 
Q 2709 -91 1959 -91 
Q 1206 -91 779 398 
Q 353 888 353 1747 
Q 353 2609 779 3096 
Q 1206 3584 1959 3584 
z
" transform="scale(0.015625)"/>
       <path id="DejaVuSans-72" d="M 2631 2963 
Q 2534 3019 2420 3045 
Q 2306 3072 2169 3072 
Q 1681 3072 1420 2755 
Q 1159 2438 1159 1844 
L 1159 0 
L 581 0 
L 581 3500 
L 1159 3500 
L 1159 2956 
Q 1341 3275 1631 3429 
Q 1922 3584 2338 3584 
Q 2397 3584 2469 3576 
Q 2541 3569 2628 3553 
L 2631 2963 
z
" transform="scale(0.015625)"/>
       <path id="DejaVuSans-61" d="M 2194 1759 
Q 1497 1759 1228 1600 
Q 959 1441 959 1056 
Q 959 750 1161 570 
Q 1363 391 1709 391 
Q 2188 391 2477 730 
Q 2766 1069 2766 1631 
L 2766 1759 
L 2194 1759 
z
M 3341 1997 
L 3341 0 
L 2766 0 
L 2766 531 
Q 2569 213 2275 61 
Q 1981 -91 1556 -91 
Q 1019 -91 701 211 
Q 384 513 384 1019 
Q 384 1609 779 1909 
Q 1175 2209 1959 2209 
L 2766 2209 
L 2766 2266 
Q 2766 2663 2505 2880 
Q 2244 3097 1772 3097 
Q 1472 3097 1187 3025 
Q 903 2953 641 2809 
L 641 3341 
Q 956 3463 1253 3523 
Q 1550 3584 1831 3584 
Q 2591 3584 2966 3190 
Q 3341 2797 3341 1997 
z
" transform="scale(0.015625)"/>
       <path id="DejaVuSans-6c" d="M 603 4863 
L 1178 4863 
L 1178 0 
L 603 0 
L 603 4863 
z
" transform="scale(0.015625)"/>
       <path id="DejaVuSans-7a" d="M 353 3500 
L 3084 3500 
L 3084 2975 
L 922 459 
L 3084 459 
L 3084 0 
L 275 0 
L 275 525 
L 2438 3041 
L 353 3041 
L 353 3500 
z
" transform="scale(0.015625)"/>
       <path id="DejaVuSans-64" d="M 2906 2969 
L 2906 4863 
L 3481 4863 
L 3481 0 
L 2906 0 
L 2906 525 
Q 2725 213 2448 61 
Q 2172 -91 1784 -91 
Q 1150 -91 751 415 
Q 353 922 353 1747 
Q 353 2572 751 3078 
Q 1150 3584 1784 3584 
Q 2172 3584 2448 3432 
Q 2725 3281 2906 2969 
z
M 947 1747 
Q 947 1113 1208 752 
Q 1469 391 1925 391 
Q 2381 391 2643 752 
Q 2906 1113 2906 1747 
Q 2906 2381 2643 2742 
Q 2381 3103 1925 3103 
Q 1469 3103 1208 2742 
Q 947 2381 947 1747 
z
" transform="scale(0.015625)"/>
       <path id="DejaVuSans-70" d="M 1159 525 
L 1159 -1331 
L 581 -1331 
L 581 3500 
L 1159 3500 
L 1159 2969 
Q 1341 3281 1617 3432 
Q 1894 3584 2278 3584 
Q 2916 3584 3314 3078 
Q 3713 2572 3713 1747 
Q 3713 922 3314 415 
Q 2916 -91 2278 -91 
Q 1894 -91 1617 61 
Q 1341 213 1159 525 
z
M 3116 1747 
Q 3116 2381 2855 2742 
Q 2594 3103 2138 3103 
Q 1681 3103 1420 2742 
Q 1159 2381 1159 1747 
Q 1159 1113 1420 752 
Q 1681 391 2138 391 
Q 2594 391 2855 752 
Q 3116 1113 3116 1747 
z
" transform="scale(0.015625)"/>
       <path id="DejaVuSans-74" d="M 1172 4494 
L 1172 3500 
L 2356 3500 
L 2356 3053 
L 1172 3053 
L 1172 1153 
Q 1172 725 1289 603 
Q 1406 481 1766 481 
L 2356 481 
L 2356 0 
L 1766 0 
Q 1100 0 847 248 
Q 594 497 594 1153 
L 594 3053 
L 172 3053 
L 172 3500 
L 594 3500 
L 594 4494 
L 1172 4494 
z
" transform="scale(0.015625)"/>
       <path id="DejaVuSans-75" d="M 544 1381 
L 544 3500 
L 1119 3500 
L 1119 1403 
Q 1119 906 1312 657 
Q 1506 409 1894 409 
Q 2359 409 2629 706 
Q 2900 1003 2900 1516 
L 2900 3500 
L 3475 3500 
L 3475 0 
L 2900 0 
L 2900 538 
Q 2691 219 2414 64 
Q 2138 -91 1772 -91 
Q 1169 -91 856 284 
Q 544 659 544 1381 
z
M 1991 3584 
L 1991 3584 
z
" transform="scale(0.015625)"/>
      </defs>
      <use xlink:href="#DejaVuSans-4e"/>
      <use xlink:href="#DejaVuSans-6f" x="74.804688"/>
      <use xlink:href="#DejaVuSans-72" x="135.986328"/>
      <use xlink:href="#DejaVuSans-6d" x="175.349609"/>
      <use xlink:href="#DejaVuSans-61" x="272.761719"/>
      <use xlink:href="#DejaVuSans-6c" x="334.041016"/>
      <use xlink:href="#DejaVuSans-69" x="361.824219"/>
      <use xlink:href="#DejaVuSans-7a" x="389.607422"/>
      <use xlink:href="#DejaVuSans-65" x="442.097656"/>
      <use xlink:href="#DejaVuSans-64" x="503.621094"/>
      <use xlink:href="#DejaVuSans-20" x="567.097656"/>
      <use xlink:href="#DejaVuSans-61" x="598.884766"/>
      <use xlink:href="#DejaVuSans-6d" x="660.164062"/>
      <use xlink:href="#DejaVuSans-70" x="757.576172"/>
      <use xlink:href="#DejaVuSans-6c" x="821.052734"/>
      <use xlink:href="#DejaVuSans-69" x="848.835938"/>
      <use xlink:href="#DejaVuSans-74" x="876.619141"/>
      <use xlink:href="#DejaVuSans-75" x="915.828125"/>
      <use xlink:href="#DejaVuSans-64" x="979.207031"/>
      <use xlink:href="#DejaVuSans-65" x="1042.683594"/>
     </g>
    </g>
   </g>
   <g id="line2d_16">
    <path d="M 73.832727 183.060475 
L 74.265672 183.377068 
L 74.698617 183.970726 
L 75.18568 185.028907 
L 75.726861 186.764622 
L 76.32216 189.4452 
L 77.025696 193.763859 
L 77.783349 199.894874 
L 78.649239 208.77833 
L 79.731601 222.387102 
L 81.409263 246.825486 
L 83.032806 269.487904 
L 83.898696 278.871422 
L 84.548113 283.860365 
L 85.035176 286.186474 
L 85.414003 287.055392 
L 85.630475 287.15846 
L 85.846948 286.964331 
L 86.117538 286.292585 
L 86.442247 284.842274 
L 86.875192 281.794223 
L 87.416373 276.179885 
L 88.06579 266.840992 
L 88.823444 252.572779 
L 89.79757 229.621046 
L 91.150523 191.723425 
L 94.181137 105.115281 
L 95.209381 82.428274 
L 96.075271 67.938444 
L 96.778806 59.713031 
L 97.319987 55.69657 
L 97.752932 53.976046 
L 98.023523 53.58329 
L 98.185877 53.600738 
L 98.402349 53.91944 
L 98.67294 54.791785 
L 99.051767 56.892654 
L 99.53883 61.080798 
L 100.134129 68.406378 
L 100.837664 80.025155 
L 101.703554 98.29523 
L 102.785916 126.151978 
L 104.517696 177.394641 
L 106.520066 235.00712 
L 107.602428 260.265452 
L 108.468318 275.893962 
L 109.225972 285.79066 
L 109.821271 291.011374 
L 110.308334 293.633133 
L 110.687161 294.681886 
L 110.957751 294.922666 
L 111.174224 294.822729 
L 111.444814 294.347551 
L 111.823641 293.064831 
L 112.310704 290.446444 
L 112.960121 285.485189 
L 113.771893 277.415325 
L 115.016609 262.50254 
L 117.993106 226.093423 
L 119.129586 215.179505 
L 120.103712 207.861657 
L 120.915483 203.284539 
L 121.619019 200.430394 
L 122.214318 198.794782 
L 122.755499 197.897166 
L 123.188444 197.560183 
L 123.567271 197.526247 
L 123.946098 197.720108 
L 124.379043 198.199233 
L 124.920224 199.144105 
L 125.623759 200.853619 
L 126.652003 204.032749 
L 128.816728 210.930195 
L 129.520263 212.399095 
L 130.007326 212.970497 
L 130.386153 213.103806 
L 130.710862 212.971412 
L 131.03557 212.588712 
L 131.414397 211.799319 
L 131.90146 210.198205 
L 132.442641 207.588931 
L 133.092058 203.236284 
L 133.849712 196.423851 
L 134.715602 186.392846 
L 135.743846 171.682319 
L 137.150917 147.973631 
L 139.91094 100.824578 
L 140.885066 88.300731 
L 141.588602 81.804108 
L 142.129783 78.557779 
L 142.562728 77.174159 
L 142.833318 76.889214 
L 142.995673 76.93907 
L 143.212145 77.267965 
L 143.536854 78.332323 
L 143.91568 80.451652 
L 144.402743 84.572943 
L 144.998043 91.718309 
L 145.701578 103.022397 
L 146.567468 120.760816 
L 147.703948 149.086573 
L 151.979279 261.234733 
L 152.899287 277.218465 
L 153.65694 286.689856 
L 154.25224 291.702568 
L 154.739303 294.23049 
L 155.118129 295.248705 
L 155.38872 295.487611 
L 155.605192 295.396605 
L 155.875783 294.943718 
L 156.25461 293.708421 
L 156.741673 291.167321 
L 157.336972 286.770276 
L 158.148744 278.881929 
L 159.231106 265.902937 
L 161.179358 239.201748 
L 163.3982 209.672097 
L 164.805271 193.840769 
L 165.941752 183.478357 
L 166.861759 176.964355 
L 167.619413 172.986849 
L 168.26883 170.630758 
L 168.810011 169.429666 
L 169.242956 168.970713 
L 169.567665 168.91716 
L 169.892374 169.108897 
L 170.2712 169.635271 
L 170.758263 170.77211 
L 171.353563 172.81655 
L 172.111216 176.333075 
L 173.085342 182.013763 
L 176.494783 203.038402 
L 177.198319 205.665215 
L 177.7395 206.909358 
L 178.118326 207.327278 
L 178.443035 207.368028 
L 178.713626 207.169293 
L 179.038334 206.644189 
L 179.471279 205.44914 
L 180.01246 203.156157 
L 180.661878 199.257349 
L 181.419531 193.233309 
L 182.393657 183.509657 
L 183.854846 166.256806 
L 185.911334 142.213246 
L 186.831342 133.859676 
L 187.534878 129.215977 
L 188.076059 126.881248 
L 188.509004 125.867825 
L 188.779594 125.640478 
L 188.996067 125.689742 
L 189.266657 126.044853 
L 189.591366 126.906026 
L 190.024311 128.795431 
L 190.565492 132.336707 
L 191.214909 138.255086 
L 192.026681 148.007045 
L 193.000807 162.614369 
L 194.407878 187.452944 
L 197.167901 236.664126 
L 198.250264 251.668405 
L 199.062035 260.16301 
L 199.765571 265.328624 
L 200.306752 267.832707 
L 200.739697 268.899587 
L 201.010287 269.144836 
L 201.22676 269.110003 
L 201.49735 268.781796 
L 201.822059 267.979137 
L 202.255004 266.239114 
L 202.796185 263.04868 
L 203.49972 257.3761 
L 204.36561 248.406806 
L 205.556208 233.522565 
L 209.398594 183.531426 
L 210.426838 173.704823 
L 211.292728 167.378055 
L 212.050382 163.387607 
L 212.699799 161.109557 
L 213.24098 159.985538 
L 213.673925 159.564928 
L 213.998634 159.511729 
L 214.323342 159.669292 
L 214.702169 160.10085 
L 215.189232 161.010685 
L 215.838649 162.756374 
L 216.704539 165.810246 
L 218.11161 171.740531 
L 220.005744 179.548986 
L 221.033988 182.902466 
L 221.899878 185.032203 
L 222.657531 186.364245 
L 223.415185 187.259161 
L 224.226957 187.862779 
L 226.283445 189.18772 
L 226.932862 190.035451 
L 227.528161 191.182934 
L 228.177579 192.93308 
L 228.881114 195.494535 
L 229.692886 199.353955 
L 230.667012 205.187258 
L 232.019965 214.859073 
L 234.130571 229.982369 
L 234.996461 234.643032 
L 235.645878 237.057586 
L 236.132941 238.135232 
L 236.511768 238.494936 
L 236.782358 238.482324 
L 237.052949 238.238771 
L 237.377657 237.636841 
L 237.810602 236.305672 
L 238.351783 233.802478 
L 239.001201 229.624399 
L 239.812972 222.793352 
L 240.895335 211.540413 
L 244.575366 171.36898 
L 245.387138 165.546694 
L 246.036555 162.292889 
L 246.577736 160.606448 
L 246.956563 159.991197 
L 247.281272 159.831727 
L 247.551862 159.95322 
L 247.876571 160.395199 
L 248.309516 161.46354 
L 248.850697 163.506898 
L 249.554232 167.171819 
L 250.528358 173.623329 
L 253.504854 194.30703 
L 254.262508 197.706237 
L 254.857807 199.418597 
L 255.290752 200.079118 
L 255.615461 200.238226 
L 255.886051 200.148158 
L 256.21076 199.773931 
L 256.589587 198.977124 
L 257.07665 197.406969 
L 257.726067 194.44317 
L 258.537839 189.588705 
L 259.890791 179.854979 
L 261.460217 168.98827 
L 262.271988 164.841973 
L 262.867288 162.831582 
L 263.300232 162.015833 
L 263.624941 161.791103 
L 263.895532 161.867828 
L 264.166122 162.189815 
L 264.544949 163.057034 
L 264.977894 164.64113 
L 265.519075 167.486158 
L 266.22261 172.517478 
L 267.0885 180.456534 
L 268.387335 194.710066 
L 270.552059 218.461 
L 271.472067 226.196628 
L 272.175603 230.521748 
L 272.770902 232.955128 
L 273.257965 234.070979 
L 273.582673 234.375829 
L 273.853264 234.365998 
L 274.123855 234.122439 
L 274.502681 233.40438 
L 274.989744 231.878035 
L 275.585044 229.198463 
L 276.396815 224.404019 
L 277.749768 214.812069 
L 279.319193 204.089264 
L 280.185083 199.540717 
L 280.888618 196.913615 
L 281.4298 195.61593 
L 281.862744 195.03791 
L 282.241571 194.858501 
L 282.56628 194.934788 
L 282.945107 195.272125 
L 283.43217 196.053358 
L 284.081587 197.577822 
L 285.272185 201.111287 
L 286.354548 204.054008 
L 286.949847 205.123042 
L 287.382792 205.525001 
L 287.7075 205.579532 
L 288.032209 205.399653 
L 288.411036 204.871364 
L 288.843981 203.823686 
L 289.385162 201.823606 
L 290.034579 198.407976 
L 290.792233 193.099611 
L 291.766359 184.516274 
L 293.389902 167.775581 
L 294.905209 152.969153 
L 295.771099 146.470695 
L 296.420516 143.051932 
L 296.907579 141.457566 
L 297.286406 140.842625 
L 297.556996 140.752553 
L 297.773469 140.894295 
L 298.044059 141.341277 
L 298.422886 142.471454 
L 298.909949 144.778215 
L 299.505248 148.848192 
L 300.262902 155.830626 
L 301.237028 167.192577 
L 302.968808 190.724828 
L 304.429997 209.315261 
L 305.350004 218.377599 
L 306.05354 223.297787 
L 306.594721 225.723516 
L 307.027666 226.766025 
L 307.298256 227.006418 
L 307.514729 226.971779 
L 307.785319 226.648224 
L 308.110028 225.858026 
L 308.542973 224.150877 
L 309.084154 221.046174 
L 309.787689 215.622201 
L 310.761815 206.222116 
L 313.630075 177.379172 
L 314.387729 172.302105 
L 314.983028 169.65088 
L 315.415973 168.542739 
L 315.740682 168.185232 
L 316.011272 168.202365 
L 316.281863 168.506535 
L 316.606571 169.247487 
L 317.039516 170.859483 
L 317.580697 173.830701 
L 318.284233 179.135608 
L 319.150123 187.522577 
L 320.448957 202.624723 
L 323.046627 233.215953 
L 324.020753 242.031034 
L 324.832524 247.471969 
L 325.481942 250.393159 
L 325.969005 251.693445 
L 326.347831 252.162593 
L 326.618422 252.204835 
L 326.889012 252.003164 
L 327.213721 251.441271 
L 327.646666 250.157354 
L 328.187847 247.718945 
L 328.837264 243.638555 
L 329.649036 236.943303 
L 330.67728 226.376163 
L 332.192587 208.148672 
L 334.465548 181.000593 
L 335.493792 171.28451 
L 336.305564 165.548532 
L 336.954981 162.404305 
L 337.442044 160.948906 
L 337.820871 160.363846 
L 338.091461 160.238559 
L 338.362052 160.354032 
L 338.686761 160.803452 
L 339.065587 161.740798 
L 339.55265 163.558804 
L 340.202068 166.936516 
L 341.067957 172.780983 
L 342.637383 185.315571 
L 343.990335 195.387013 
L 344.802107 199.974793 
L 345.451524 202.498573 
L 345.938587 203.623916 
L 346.317414 204.017108 
L 346.588005 204.03478 
L 346.858595 203.833099 
L 347.183304 203.305122 
L 347.616249 202.130624 
L 348.15743 199.954047 
L 348.860965 196.095585 
L 349.835091 189.325978 
L 352.649233 168.848231 
L 353.352768 165.519666 
L 353.89395 163.857871 
L 354.326894 163.159621 
L 354.651603 163.024833 
L 354.922194 163.173375 
L 355.246902 163.667013 
L 355.625729 164.674988 
L 356.112792 166.635682 
L 356.762209 170.333469 
L 357.573981 176.439799 
L 358.76458 187.380731 
L 360.821068 206.372674 
L 361.632839 211.913301 
L 362.282257 214.947531 
L 362.76932 216.273289 
L 363.094028 216.673431 
L 363.364619 216.70345 
L 363.63521 216.455716 
L 363.959918 215.7938 
L 364.392863 214.306447 
L 364.934044 211.527678 
L 365.63758 206.56276 
L 366.557587 198.306338 
L 369.588202 169.572031 
L 370.291737 165.418368 
L 370.832918 163.410774 
L 371.211745 162.6821 
L 371.482336 162.51714 
L 371.698808 162.601814 
L 371.969399 162.979459 
L 372.348225 164.012044 
L 372.835288 166.180795 
L 373.430588 170.036357 
L 374.188241 176.615735 
L 375.216485 187.765721 
L 378.355336 223.326947 
L 379.167107 229.500048 
L 379.816525 232.869668 
L 380.303588 234.405347 
L 380.682414 234.999072 
L 380.953005 235.102879 
L 381.223595 234.944303 
L 381.548304 234.416948 
L 381.981249 233.167759 
L 382.52243 230.797475 
L 383.225966 226.55783 
L 384.145973 219.52558 
L 386.310698 200.531639 
L 387.609532 190.439759 
L 388.583658 184.508161 
L 389.39543 180.802868 
L 390.153084 178.331159 
L 390.802501 176.888323 
L 391.451918 175.965542 
L 392.047218 175.479603 
L 392.696635 175.234699 
L 393.508407 175.190785 
L 395.186068 175.408433 
L 397.080202 175.542805 
L 398.487273 175.55248 
L 398.487273 175.55248 
" clip-path="url(#p07387804c8)" style="fill: none; stroke: #1f77b4; stroke-width: 1.5; stroke-linecap: square"/>
   </g>
   <g id="patch_3">
    <path d="M 57.6 307.584 
L 57.6 41.472 
" style="fill: none; stroke: #000000; stroke-width: 0.8; stroke-linejoin: miter; stroke-linecap: square"/>
   </g>
   <g id="patch_4">
    <path d="M 414.72 307.584 
L 414.72 41.472 
" style="fill: none; stroke: #000000; stroke-width: 0.8; stroke-linejoin: miter; stroke-linecap: square"/>
   </g>
   <g id="patch_5">
    <path d="M 57.6 307.584 
L 414.72 307.584 
" style="fill: none; stroke: #000000; stroke-width: 0.8; stroke-linejoin: miter; stroke-linecap: square"/>
   </g>
   <g id="patch_6">
    <path d="M 57.6 41.472 
L 414.72 41.472 
" style="fill: none; stroke: #000000; stroke-width: 0.8; stroke-linejoin: miter; stroke-linecap: square"/>
   </g>
  </g>
 </g>
 <defs>
  <clipPath id="p07387804c8">
   <rect x="57.6" y="41.472" width="357.12" height="266.112"/>
  </clipPath>
 </defs>
</svg>
