<?xml version="1.0" encoding="utf-8" standalone="no"?>
<!DOCTYPE svg PUBLIC "-//W3C//DTD SVG 1.1//EN"
  "http://www.w3.org/Graphics/SVG/1.1/DTD/svg11.dtd">
<svg xmlns:xlink="http://www.w3.org/1999/xlink" width="460.8pt" height="345.6pt" viewBox="0 0 460.8 345.6" xmlns="http://www.w3.org/2000/svg" version="1.1">
 <metadata>
  <rdf:RDF xmlns:dc="http://purl.org/dc/elements/1.1/" xmlns:cc="http://creativecommons.org/ns#" xmlns:rdf="http://www.w3.org/1999/02/22-rdf-syntax-ns#">
   <cc:Work>
    <dc:type rdf:resource="http://purl.org/dc/dcmitype/StillImage"/>
    <dc:date>2024-06-18T12:22:19.702101</dc:date>
    <dc:format>image/svg+xml</dc:format>
    <dc:creator>
     <cc:Agent>
      <dc:title>Matplotlib v3.8.2, https://matplotlib.org/</dc:title>
     </cc:Agent>
    </dc:creator>
   </cc:Work>
  </rdf:RDF>
 </metadata>
 <defs>
  <style type="text/css">*{stroke-linejoin: round; stroke-linecap: butt}</style>
 </defs>
 <g id="figure_1">
  <g id="patch_1">
   <path d="M 0 345.6 
L 460.8 345.6 
L 460.8 0 
L 0 0 
z
" style="fill: #ffffff"/>
  </g>
  <g id="axes_1">
   <g id="patch_2">
    <path d="M 57.6 307.584 
L 414.72 307.584 
L 414.72 41.472 
L 57.6 41.472 
z
" style="fill: #ffffff"/>
   </g>
   <g id="matplotlib.axis_1">
    <g id="xtick_1">
     <g id="line2d_1">
      <defs>
       <path id="m2b1417bdde" d="M 0 0 
L 0 3.5 
" style="stroke: #000000; stroke-width: 0.8"/>
      </defs>
      <g>
       <use xlink:href="#m2b1417bdde" x="73.832727" y="307.584" style="stroke: #000000; stroke-width: 0.8"/>
      </g>
     </g>
     <g id="text_1">
      <!-- 0 -->
      <g transform="translate(70.651477 322.182437) scale(0.1 -0.1)">
       <defs>
        <path id="DejaVuSans-30" d="M 2034 4250 
Q 1547 4250 1301 3770 
Q 1056 3291 1056 2328 
Q 1056 1369 1301 889 
Q 1547 409 2034 409 
Q 2525 409 2770 889 
Q 3016 1369 3016 2328 
Q 3016 3291 2770 3770 
Q 2525 4250 2034 4250 
z
M 2034 4750 
Q 2819 4750 3233 4129 
Q 3647 3509 3647 2328 
Q 3647 1150 3233 529 
Q 2819 -91 2034 -91 
Q 1250 -91 836 529 
Q 422 1150 422 2328 
Q 422 3509 836 4129 
Q 1250 4750 2034 4750 
z
" transform="scale(0.015625)"/>
       </defs>
       <use xlink:href="#DejaVuSans-30"/>
      </g>
     </g>
    </g>
    <g id="xtick_2">
     <g id="line2d_2">
      <g>
       <use xlink:href="#m2b1417bdde" x="127.941818" y="307.584" style="stroke: #000000; stroke-width: 0.8"/>
      </g>
     </g>
     <g id="text_2">
      <!-- 10 -->
      <g transform="translate(121.579318 322.182437) scale(0.1 -0.1)">
       <defs>
        <path id="DejaVuSans-31" d="M 794 531 
L 1825 531 
L 1825 4091 
L 703 3866 
L 703 4441 
L 1819 4666 
L 2450 4666 
L 2450 531 
L 3481 531 
L 3481 0 
L 794 0 
L 794 531 
z
" transform="scale(0.015625)"/>
       </defs>
       <use xlink:href="#DejaVuSans-31"/>
       <use xlink:href="#DejaVuSans-30" x="63.623047"/>
      </g>
     </g>
    </g>
    <g id="xtick_3">
     <g id="line2d_3">
      <g>
       <use xlink:href="#m2b1417bdde" x="182.050909" y="307.584" style="stroke: #000000; stroke-width: 0.8"/>
      </g>
     </g>
     <g id="text_3">
      <!-- 20 -->
      <g transform="translate(175.688409 322.182437) scale(0.1 -0.1)">
       <defs>
        <path id="DejaVuSans-32" d="M 1228 531 
L 3431 531 
L 3431 0 
L 469 0 
L 469 531 
Q 828 903 1448 1529 
Q 2069 2156 2228 2338 
Q 2531 2678 2651 2914 
Q 2772 3150 2772 3378 
Q 2772 3750 2511 3984 
Q 2250 4219 1831 4219 
Q 1534 4219 1204 4116 
Q 875 4013 500 3803 
L 500 4441 
Q 881 4594 1212 4672 
Q 1544 4750 1819 4750 
Q 2544 4750 2975 4387 
Q 3406 4025 3406 3419 
Q 3406 3131 3298 2873 
Q 3191 2616 2906 2266 
Q 2828 2175 2409 1742 
Q 1991 1309 1228 531 
z
" transform="scale(0.015625)"/>
       </defs>
       <use xlink:href="#DejaVuSans-32"/>
       <use xlink:href="#DejaVuSans-30" x="63.623047"/>
      </g>
     </g>
    </g>
    <g id="xtick_4">
     <g id="line2d_4">
      <g>
       <use xlink:href="#m2b1417bdde" x="236.16" y="307.584" style="stroke: #000000; stroke-width: 0.8"/>
      </g>
     </g>
     <g id="text_4">
      <!-- 30 -->
      <g transform="translate(229.7975 322.182437) scale(0.1 -0.1)">
       <defs>
        <path id="DejaVuSans-33" d="M 2597 2516 
Q 3050 2419 3304 2112 
Q 3559 1806 3559 1356 
Q 3559 666 3084 287 
Q 2609 -91 1734 -91 
Q 1441 -91 1130 -33 
Q 819 25 488 141 
L 488 750 
Q 750 597 1062 519 
Q 1375 441 1716 441 
Q 2309 441 2620 675 
Q 2931 909 2931 1356 
Q 2931 1769 2642 2001 
Q 2353 2234 1838 2234 
L 1294 2234 
L 1294 2753 
L 1863 2753 
Q 2328 2753 2575 2939 
Q 2822 3125 2822 3475 
Q 2822 3834 2567 4026 
Q 2313 4219 1838 4219 
Q 1578 4219 1281 4162 
Q 984 4106 628 3988 
L 628 4550 
Q 988 4650 1302 4700 
Q 1616 4750 1894 4750 
Q 2613 4750 3031 4423 
Q 3450 4097 3450 3541 
Q 3450 3153 3228 2886 
Q 3006 2619 2597 2516 
z
" transform="scale(0.015625)"/>
       </defs>
       <use xlink:href="#DejaVuSans-33"/>
       <use xlink:href="#DejaVuSans-30" x="63.623047"/>
      </g>
     </g>
    </g>
    <g id="xtick_5">
     <g id="line2d_5">
      <g>
       <use xlink:href="#m2b1417bdde" x="290.269091" y="307.584" style="stroke: #000000; stroke-width: 0.8"/>
      </g>
     </g>
     <g id="text_5">
      <!-- 40 -->
      <g transform="translate(283.906591 322.182437) scale(0.1 -0.1)">
       <defs>
        <path id="DejaVuSans-34" d="M 2419 4116 
L 825 1625 
L 2419 1625 
L 2419 4116 
z
M 2253 4666 
L 3047 4666 
L 3047 1625 
L 3713 1625 
L 3713 1100 
L 3047 1100 
L 3047 0 
L 2419 0 
L 2419 1100 
L 313 1100 
L 313 1709 
L 2253 4666 
z
" transform="scale(0.015625)"/>
       </defs>
       <use xlink:href="#DejaVuSans-34"/>
       <use xlink:href="#DejaVuSans-30" x="63.623047"/>
      </g>
     </g>
    </g>
    <g id="xtick_6">
     <g id="line2d_6">
      <g>
       <use xlink:href="#m2b1417bdde" x="344.378182" y="307.584" style="stroke: #000000; stroke-width: 0.8"/>
      </g>
     </g>
     <g id="text_6">
      <!-- 50 -->
      <g transform="translate(338.015682 322.182437) scale(0.1 -0.1)">
       <defs>
        <path id="DejaVuSans-35" d="M 691 4666 
L 3169 4666 
L 3169 4134 
L 1269 4134 
L 1269 2991 
Q 1406 3038 1543 3061 
Q 1681 3084 1819 3084 
Q 2600 3084 3056 2656 
Q 3513 2228 3513 1497 
Q 3513 744 3044 326 
Q 2575 -91 1722 -91 
Q 1428 -91 1123 -41 
Q 819 9 494 109 
L 494 744 
Q 775 591 1075 516 
Q 1375 441 1709 441 
Q 2250 441 2565 725 
Q 2881 1009 2881 1497 
Q 2881 1984 2565 2268 
Q 2250 2553 1709 2553 
Q 1456 2553 1204 2497 
Q 953 2441 691 2322 
L 691 4666 
z
" transform="scale(0.015625)"/>
       </defs>
       <use xlink:href="#DejaVuSans-35"/>
       <use xlink:href="#DejaVuSans-30" x="63.623047"/>
      </g>
     </g>
    </g>
    <g id="xtick_7">
     <g id="line2d_7">
      <g>
       <use xlink:href="#m2b1417bdde" x="398.487273" y="307.584" style="stroke: #000000; stroke-width: 0.8"/>
      </g>
     </g>
     <g id="text_7">
      <!-- 60 -->
      <g transform="translate(392.124773 322.182437) scale(0.1 -0.1)">
       <defs>
        <path id="DejaVuSans-36" d="M 2113 2584 
Q 1688 2584 1439 2293 
Q 1191 2003 1191 1497 
Q 1191 994 1439 701 
Q 1688 409 2113 409 
Q 2538 409 2786 701 
Q 3034 994 3034 1497 
Q 3034 2003 2786 2293 
Q 2538 2584 2113 2584 
z
M 3366 4563 
L 3366 3988 
Q 3128 4100 2886 4159 
Q 2644 4219 2406 4219 
Q 1781 4219 1451 3797 
Q 1122 3375 1075 2522 
Q 1259 2794 1537 2939 
Q 1816 3084 2150 3084 
Q 2853 3084 3261 2657 
Q 3669 2231 3669 1497 
Q 3669 778 3244 343 
Q 2819 -91 2113 -91 
Q 1303 -91 875 529 
Q 447 1150 447 2328 
Q 447 3434 972 4092 
Q 1497 4750 2381 4750 
Q 2619 4750 2861 4703 
Q 3103 4656 3366 4563 
z
" transform="scale(0.015625)"/>
       </defs>
       <use xlink:href="#DejaVuSans-36"/>
       <use xlink:href="#DejaVuSans-30" x="63.623047"/>
      </g>
     </g>
    </g>
    <g id="text_8">
     <!-- Time [$s$] -->
     <g transform="translate(215.66 335.860562) scale(0.1 -0.1)">
      <defs>
       <path id="DejaVuSans-54" d="M -19 4666 
L 3928 4666 
L 3928 4134 
L 2272 4134 
L 2272 0 
L 1638 0 
L 1638 4134 
L -19 4134 
L -19 4666 
z
" transform="scale(0.015625)"/>
       <path id="DejaVuSans-69" d="M 603 3500 
L 1178 3500 
L 1178 0 
L 603 0 
L 603 3500 
z
M 603 4863 
L 1178 4863 
L 1178 4134 
L 603 4134 
L 603 4863 
z
" transform="scale(0.015625)"/>
       <path id="DejaVuSans-6d" d="M 3328 2828 
Q 3544 3216 3844 3400 
Q 4144 3584 4550 3584 
Q 5097 3584 5394 3201 
Q 5691 2819 5691 2113 
L 5691 0 
L 5113 0 
L 5113 2094 
Q 5113 2597 4934 2840 
Q 4756 3084 4391 3084 
Q 3944 3084 3684 2787 
Q 3425 2491 3425 1978 
L 3425 0 
L 2847 0 
L 2847 2094 
Q 2847 2600 2669 2842 
Q 2491 3084 2119 3084 
Q 1678 3084 1418 2786 
Q 1159 2488 1159 1978 
L 1159 0 
L 581 0 
L 581 3500 
L 1159 3500 
L 1159 2956 
Q 1356 3278 1631 3431 
Q 1906 3584 2284 3584 
Q 2666 3584 2933 3390 
Q 3200 3197 3328 2828 
z
" transform="scale(0.015625)"/>
       <path id="DejaVuSans-65" d="M 3597 1894 
L 3597 1613 
L 953 1613 
Q 991 1019 1311 708 
Q 1631 397 2203 397 
Q 2534 397 2845 478 
Q 3156 559 3463 722 
L 3463 178 
Q 3153 47 2828 -22 
Q 2503 -91 2169 -91 
Q 1331 -91 842 396 
Q 353 884 353 1716 
Q 353 2575 817 3079 
Q 1281 3584 2069 3584 
Q 2775 3584 3186 3129 
Q 3597 2675 3597 1894 
z
M 3022 2063 
Q 3016 2534 2758 2815 
Q 2500 3097 2075 3097 
Q 1594 3097 1305 2825 
Q 1016 2553 972 2059 
L 3022 2063 
z
" transform="scale(0.015625)"/>
       <path id="DejaVuSans-20" transform="scale(0.015625)"/>
       <path id="DejaVuSans-5b" d="M 550 4863 
L 1875 4863 
L 1875 4416 
L 1125 4416 
L 1125 -397 
L 1875 -397 
L 1875 -844 
L 550 -844 
L 550 4863 
z
" transform="scale(0.015625)"/>
       <path id="DejaVuSans-Oblique-73" d="M 3200 3397 
L 3091 2853 
Q 2863 2978 2609 3040 
Q 2356 3103 2088 3103 
Q 1634 3103 1373 2948 
Q 1113 2794 1113 2528 
Q 1113 2219 1719 2053 
Q 1766 2041 1788 2034 
L 1972 1978 
Q 2547 1819 2739 1644 
Q 2931 1469 2931 1166 
Q 2931 609 2489 259 
Q 2047 -91 1331 -91 
Q 1053 -91 747 -37 
Q 441 16 72 128 
L 184 722 
Q 500 559 806 475 
Q 1113 391 1394 391 
Q 1816 391 2080 572 
Q 2344 753 2344 1031 
Q 2344 1331 1650 1516 
L 1591 1531 
L 1394 1581 
Q 956 1697 753 1886 
Q 550 2075 550 2369 
Q 550 2928 970 3256 
Q 1391 3584 2113 3584 
Q 2397 3584 2667 3537 
Q 2938 3491 3200 3397 
z
" transform="scale(0.015625)"/>
       <path id="DejaVuSans-5d" d="M 1947 4863 
L 1947 -844 
L 622 -844 
L 622 -397 
L 1369 -397 
L 1369 4416 
L 622 4416 
L 622 4863 
L 1947 4863 
z
" transform="scale(0.015625)"/>
      </defs>
      <use xlink:href="#DejaVuSans-54" transform="translate(0 0.015625)"/>
      <use xlink:href="#DejaVuSans-69" transform="translate(61.083984 0.015625)"/>
      <use xlink:href="#DejaVuSans-6d" transform="translate(88.867188 0.015625)"/>
      <use xlink:href="#DejaVuSans-65" transform="translate(186.279297 0.015625)"/>
      <use xlink:href="#DejaVuSans-20" transform="translate(247.802734 0.015625)"/>
      <use xlink:href="#DejaVuSans-5b" transform="translate(279.589844 0.015625)"/>
      <use xlink:href="#DejaVuSans-Oblique-73" transform="translate(318.603516 0.015625)"/>
      <use xlink:href="#DejaVuSans-5d" transform="translate(370.703125 0.015625)"/>
     </g>
    </g>
   </g>
   <g id="matplotlib.axis_2">
    <g id="ytick_1">
     <g id="line2d_8">
      <defs>
       <path id="m6a472a2c8e" d="M 0 0 
L -3.5 0 
" style="stroke: #000000; stroke-width: 0.8"/>
      </defs>
      <g>
       <use xlink:href="#m6a472a2c8e" x="57.6" y="294.824415" style="stroke: #000000; stroke-width: 0.8"/>
      </g>
     </g>
     <g id="text_9">
      <!-- −0.5 -->
      <g transform="translate(26.317187 298.623634) scale(0.1 -0.1)">
       <defs>
        <path id="DejaVuSans-2212" d="M 678 2272 
L 4684 2272 
L 4684 1741 
L 678 1741 
L 678 2272 
z
" transform="scale(0.015625)"/>
        <path id="DejaVuSans-2e" d="M 684 794 
L 1344 794 
L 1344 0 
L 684 0 
L 684 794 
z
" transform="scale(0.015625)"/>
       </defs>
       <use xlink:href="#DejaVuSans-2212"/>
       <use xlink:href="#DejaVuSans-30" x="83.789062"/>
       <use xlink:href="#DejaVuSans-2e" x="147.412109"/>
       <use xlink:href="#DejaVuSans-35" x="179.199219"/>
      </g>
     </g>
    </g>
    <g id="ytick_2">
     <g id="line2d_9">
      <g>
       <use xlink:href="#m6a472a2c8e" x="57.6" y="238.474414" style="stroke: #000000; stroke-width: 0.8"/>
      </g>
     </g>
     <g id="text_10">
      <!-- 0.0 -->
      <g transform="translate(34.696875 242.273632) scale(0.1 -0.1)">
       <use xlink:href="#DejaVuSans-30"/>
       <use xlink:href="#DejaVuSans-2e" x="63.623047"/>
       <use xlink:href="#DejaVuSans-30" x="95.410156"/>
      </g>
     </g>
    </g>
    <g id="ytick_3">
     <g id="line2d_10">
      <g>
       <use xlink:href="#m6a472a2c8e" x="57.6" y="182.124412" style="stroke: #000000; stroke-width: 0.8"/>
      </g>
     </g>
     <g id="text_11">
      <!-- 0.5 -->
      <g transform="translate(34.696875 185.923631) scale(0.1 -0.1)">
       <use xlink:href="#DejaVuSans-30"/>
       <use xlink:href="#DejaVuSans-2e" x="63.623047"/>
       <use xlink:href="#DejaVuSans-35" x="95.410156"/>
      </g>
     </g>
    </g>
    <g id="ytick_4">
     <g id="line2d_11">
      <g>
       <use xlink:href="#m6a472a2c8e" x="57.6" y="125.774411" style="stroke: #000000; stroke-width: 0.8"/>
      </g>
     </g>
     <g id="text_12">
      <!-- 1.0 -->
      <g transform="translate(34.696875 129.57363) scale(0.1 -0.1)">
       <use xlink:href="#DejaVuSans-31"/>
       <use xlink:href="#DejaVuSans-2e" x="63.623047"/>
       <use xlink:href="#DejaVuSans-30" x="95.410156"/>
      </g>
     </g>
    </g>
    <g id="ytick_5">
     <g id="line2d_12">
      <g>
       <use xlink:href="#m6a472a2c8e" x="57.6" y="69.424409" style="stroke: #000000; stroke-width: 0.8"/>
      </g>
     </g>
     <g id="text_13">
      <!-- 1.5 -->
      <g transform="translate(34.696875 73.223628) scale(0.1 -0.1)">
       <use xlink:href="#DejaVuSans-31"/>
       <use xlink:href="#DejaVuSans-2e" x="63.623047"/>
       <use xlink:href="#DejaVuSans-35" x="95.410156"/>
      </g>
     </g>
    </g>
    <g id="text_14">
     <!-- Normalized amplitude -->
     <g transform="translate(20.2375 229.738937) rotate(-90) scale(0.1 -0.1)">
      <defs>
       <path id="DejaVuSans-4e" d="M 628 4666 
L 1478 4666 
L 3547 763 
L 3547 4666 
L 4159 4666 
L 4159 0 
L 3309 0 
L 1241 3903 
L 1241 0 
L 628 0 
L 628 4666 
z
" transform="scale(0.015625)"/>
       <path id="DejaVuSans-6f" d="M 1959 3097 
Q 1497 3097 1228 2736 
Q 959 2375 959 1747 
Q 959 1119 1226 758 
Q 1494 397 1959 397 
Q 2419 397 2687 759 
Q 2956 1122 2956 1747 
Q 2956 2369 2687 2733 
Q 2419 3097 1959 3097 
z
M 1959 3584 
Q 2709 3584 3137 3096 
Q 3566 2609 3566 1747 
Q 3566 888 3137 398 
Q 2709 -91 1959 -91 
Q 1206 -91 779 398 
Q 353 888 353 1747 
Q 353 2609 779 3096 
Q 1206 3584 1959 3584 
z
" transform="scale(0.015625)"/>
       <path id="DejaVuSans-72" d="M 2631 2963 
Q 2534 3019 2420 3045 
Q 2306 3072 2169 3072 
Q 1681 3072 1420 2755 
Q 1159 2438 1159 1844 
L 1159 0 
L 581 0 
L 581 3500 
L 1159 3500 
L 1159 2956 
Q 1341 3275 1631 3429 
Q 1922 3584 2338 3584 
Q 2397 3584 2469 3576 
Q 2541 3569 2628 3553 
L 2631 2963 
z
" transform="scale(0.015625)"/>
       <path id="DejaVuSans-61" d="M 2194 1759 
Q 1497 1759 1228 1600 
Q 959 1441 959 1056 
Q 959 750 1161 570 
Q 1363 391 1709 391 
Q 2188 391 2477 730 
Q 2766 1069 2766 1631 
L 2766 1759 
L 2194 1759 
z
M 3341 1997 
L 3341 0 
L 2766 0 
L 2766 531 
Q 2569 213 2275 61 
Q 1981 -91 1556 -91 
Q 1019 -91 701 211 
Q 384 513 384 1019 
Q 384 1609 779 1909 
Q 1175 2209 1959 2209 
L 2766 2209 
L 2766 2266 
Q 2766 2663 2505 2880 
Q 2244 3097 1772 3097 
Q 1472 3097 1187 3025 
Q 903 2953 641 2809 
L 641 3341 
Q 956 3463 1253 3523 
Q 1550 3584 1831 3584 
Q 2591 3584 2966 3190 
Q 3341 2797 3341 1997 
z
" transform="scale(0.015625)"/>
       <path id="DejaVuSans-6c" d="M 603 4863 
L 1178 4863 
L 1178 0 
L 603 0 
L 603 4863 
z
" transform="scale(0.015625)"/>
       <path id="DejaVuSans-7a" d="M 353 3500 
L 3084 3500 
L 3084 2975 
L 922 459 
L 3084 459 
L 3084 0 
L 275 0 
L 275 525 
L 2438 3041 
L 353 3041 
L 353 3500 
z
" transform="scale(0.015625)"/>
       <path id="DejaVuSans-64" d="M 2906 2969 
L 2906 4863 
L 3481 4863 
L 3481 0 
L 2906 0 
L 2906 525 
Q 2725 213 2448 61 
Q 2172 -91 1784 -91 
Q 1150 -91 751 415 
Q 353 922 353 1747 
Q 353 2572 751 3078 
Q 1150 3584 1784 3584 
Q 2172 3584 2448 3432 
Q 2725 3281 2906 2969 
z
M 947 1747 
Q 947 1113 1208 752 
Q 1469 391 1925 391 
Q 2381 391 2643 752 
Q 2906 1113 2906 1747 
Q 2906 2381 2643 2742 
Q 2381 3103 1925 3103 
Q 1469 3103 1208 2742 
Q 947 2381 947 1747 
z
" transform="scale(0.015625)"/>
       <path id="DejaVuSans-70" d="M 1159 525 
L 1159 -1331 
L 581 -1331 
L 581 3500 
L 1159 3500 
L 1159 2969 
Q 1341 3281 1617 3432 
Q 1894 3584 2278 3584 
Q 2916 3584 3314 3078 
Q 3713 2572 3713 1747 
Q 3713 922 3314 415 
Q 2916 -91 2278 -91 
Q 1894 -91 1617 61 
Q 1341 213 1159 525 
z
M 3116 1747 
Q 3116 2381 2855 2742 
Q 2594 3103 2138 3103 
Q 1681 3103 1420 2742 
Q 1159 2381 1159 1747 
Q 1159 1113 1420 752 
Q 1681 391 2138 391 
Q 2594 391 2855 752 
Q 3116 1113 3116 1747 
z
" transform="scale(0.015625)"/>
       <path id="DejaVuSans-74" d="M 1172 4494 
L 1172 3500 
L 2356 3500 
L 2356 3053 
L 1172 3053 
L 1172 1153 
Q 1172 725 1289 603 
Q 1406 481 1766 481 
L 2356 481 
L 2356 0 
L 1766 0 
Q 1100 0 847 248 
Q 594 497 594 1153 
L 594 3053 
L 172 3053 
L 172 3500 
L 594 3500 
L 594 4494 
L 1172 4494 
z
" transform="scale(0.015625)"/>
       <path id="DejaVuSans-75" d="M 544 1381 
L 544 3500 
L 1119 3500 
L 1119 1403 
Q 1119 906 1312 657 
Q 1506 409 1894 409 
Q 2359 409 2629 706 
Q 2900 1003 2900 1516 
L 2900 3500 
L 3475 3500 
L 3475 0 
L 2900 0 
L 2900 538 
Q 2691 219 2414 64 
Q 2138 -91 1772 -91 
Q 1169 -91 856 284 
Q 544 659 544 1381 
z
M 1991 3584 
L 1991 3584 
z
" transform="scale(0.015625)"/>
      </defs>
      <use xlink:href="#DejaVuSans-4e"/>
      <use xlink:href="#DejaVuSans-6f" x="74.804688"/>
      <use xlink:href="#DejaVuSans-72" x="135.986328"/>
      <use xlink:href="#DejaVuSans-6d" x="175.349609"/>
      <use xlink:href="#DejaVuSans-61" x="272.761719"/>
      <use xlink:href="#DejaVuSans-6c" x="334.041016"/>
      <use xlink:href="#DejaVuSans-69" x="361.824219"/>
      <use xlink:href="#DejaVuSans-7a" x="389.607422"/>
      <use xlink:href="#DejaVuSans-65" x="442.097656"/>
      <use xlink:href="#DejaVuSans-64" x="503.621094"/>
      <use xlink:href="#DejaVuSans-20" x="567.097656"/>
      <use xlink:href="#DejaVuSans-61" x="598.884766"/>
      <use xlink:href="#DejaVuSans-6d" x="660.164062"/>
      <use xlink:href="#DejaVuSans-70" x="757.576172"/>
      <use xlink:href="#DejaVuSans-6c" x="821.052734"/>
      <use xlink:href="#DejaVuSans-69" x="848.835938"/>
      <use xlink:href="#DejaVuSans-74" x="876.619141"/>
      <use xlink:href="#DejaVuSans-75" x="915.828125"/>
      <use xlink:href="#DejaVuSans-64" x="979.207031"/>
      <use xlink:href="#DejaVuSans-65" x="1042.683594"/>
     </g>
    </g>
   </g>
   <g id="line2d_13">
    <path d="M 73.832727 235.79347 
L 73.886845 227.780472 
L 73.995082 61.38502 
L 74.0492 63.159628 
L 74.157436 269.812542 
L 74.211554 256.380202 
L 74.265672 243.336223 
L 74.31979 264.675915 
L 74.373908 249.215895 
L 74.428026 255.603052 
L 74.482145 252.636711 
L 74.644499 244.054546 
L 74.698617 248.371431 
L 74.860971 241.954402 
L 75.510389 210.128366 
L 75.564507 211.344998 
L 75.997452 246.940269 
L 76.05157 246.267358 
L 76.32216 242.332663 
L 76.809223 246.568809 
L 76.91746 246.487531 
L 77.025696 246.302689 
L 77.783349 242.260464 
L 77.837467 242.442276 
L 78.108058 240.860902 
L 78.378649 239.580856 
L 78.486885 239.409343 
L 78.541003 239.119247 
L 78.595121 240.322295 
L 78.703357 234.920805 
L 78.811593 230.762826 
L 78.973948 239.446026 
L 79.028066 241.325818 
L 79.082184 241.045617 
L 79.136302 240.941983 
L 79.19042 240.475266 
L 79.244538 242.924883 
L 79.298656 252.138805 
L 79.352775 242.275812 
L 79.461011 77.338653 
L 79.515129 77.868802 
L 79.623365 283.539807 
L 79.677483 270.203497 
L 79.731601 255.546596 
L 79.785719 276.73246 
L 79.839838 262.348753 
L 79.893956 267.512752 
L 79.948074 264.629201 
L 80.110428 255.845231 
L 80.164546 258.362383 
L 80.381019 248.818536 
L 80.435137 249.031422 
L 80.976318 217.222179 
L 81.030436 217.65792 
L 81.463381 252.060637 
L 81.517499 251.788069 
L 81.842208 246.69253 
L 81.896326 246.655592 
L 81.950444 246.286887 
L 82.004562 246.425104 
L 82.221034 247.809322 
L 82.329271 247.797078 
L 82.491625 247.019272 
L 82.708097 245.151371 
L 83.249279 241.5091 
L 83.357515 240.893348 
L 83.682223 238.012637 
L 83.736342 238.224309 
L 83.79046 238.082872 
L 83.952814 237.059254 
L 84.006932 237.557965 
L 84.06105 236.475486 
L 84.223405 227.561222 
L 84.439877 237.388935 
L 84.602231 236.733857 
L 84.656349 237.948214 
L 84.710468 245.933841 
L 84.764586 244.668079 
L 84.92694 61.888254 
L 85.089294 275.275243 
L 85.143412 248.480584 
L 85.19753 271.650665 
L 85.251649 261.440274 
L 85.305767 260.905216 
L 85.359885 262.992537 
L 85.522239 252.027336 
L 85.576357 253.788504 
L 86.442247 213.263749 
L 86.496365 216.854042 
L 86.821074 248.484268 
L 86.875192 248.801912 
L 86.92931 248.429388 
L 87.199901 243.202147 
L 87.254019 243.167142 
L 87.470491 244.18865 
L 87.686964 245.554028 
L 87.741082 245.185114 
L 87.7952 245.41711 
L 87.849318 245.851831 
L 87.903436 245.007014 
L 87.957554 245.03406 
L 88.011672 245.143673 
L 88.06579 244.809428 
L 88.119908 244.925398 
L 88.228145 245.263716 
L 88.282263 245.129133 
L 88.336381 245.691238 
L 88.390499 245.572452 
L 88.444617 245.520545 
L 88.606971 246.304413 
L 88.66109 245.849772 
L 88.769326 247.146509 
L 88.823444 245.75436 
L 88.877562 246.207641 
L 88.985798 245.680427 
L 89.039916 246.80091 
L 89.094034 246.332403 
L 89.148153 244.201719 
L 89.202271 245.801075 
L 89.256389 245.924735 
L 89.418743 236.418939 
L 89.472861 236.961278 
L 89.635216 244.623355 
L 89.689334 245.208478 
L 89.743452 244.826186 
L 89.851688 243.383679 
L 89.959924 253.477194 
L 90.014042 228.07245 
L 90.122279 60.472232 
L 90.176397 87.781585 
L 90.284633 295.488 
L 90.338751 260.531004 
L 90.392869 262.074525 
L 90.446987 273.756686 
L 90.609342 259.659987 
L 90.66346 259.510737 
L 90.717578 258.938334 
L 90.879932 251.378528 
L 90.93405 252.64697 
L 91.637586 216.079043 
L 91.745822 223.721003 
L 92.070531 250.585612 
L 92.232885 248.263301 
L 92.449357 244.30926 
L 92.503475 244.090261 
L 92.557594 244.294735 
L 92.611712 244.577683 
L 92.66583 243.83866 
L 92.719948 244.356444 
L 92.774066 244.948046 
L 92.828184 244.033077 
L 92.882302 244.309024 
L 92.93642 244.196623 
L 93.261129 241.208697 
L 93.477601 229.898726 
L 93.694074 243.862281 
L 93.748192 241.920203 
L 93.80231 242.900685 
L 93.910546 240.912938 
L 94.018783 251.283081 
L 94.072901 238.630427 
L 94.181137 73.44398 
L 94.235255 76.041577 
L 94.343491 287.660989 
L 94.397609 267.560365 
L 94.451727 257.195687 
L 94.505846 274.81548 
L 94.559964 261.000963 
L 94.614082 266.604647 
L 94.6682 261.72381 
L 94.830554 253.686988 
L 94.884672 256.626892 
L 95.101145 246.710603 
L 95.155263 246.6537 
L 95.642326 217.448198 
L 95.696444 217.735779 
L 96.129389 251.684222 
L 96.183507 251.533661 
L 96.291743 249.693049 
L 96.562334 243.975828 
L 96.616452 243.297982 
L 96.67057 243.617398 
L 96.887042 245.284947 
L 96.995279 246.147439 
L 97.049397 245.31217 
L 97.265869 232.673118 
L 97.482342 248.848578 
L 97.53646 246.966073 
L 97.590578 247.011974 
L 97.644696 247.924496 
L 97.698814 245.38207 
L 97.752932 247.817633 
L 97.861168 255.991725 
L 98.023523 60.897863 
L 98.077641 137.369566 
L 98.185877 285.379027 
L 98.239995 255.10637 
L 98.294113 275.318571 
L 98.510586 259.147042 
L 98.564704 263.649937 
L 98.781176 251.967533 
L 98.835294 252.700099 
L 99.051767 241.715551 
L 99.430594 217.983344 
L 99.53883 221.522872 
L 99.863538 249.785005 
L 99.917657 250.256501 
L 99.971775 249.911801 
L 100.134129 246.726738 
L 100.40472 240.953262 
L 100.458838 240.83529 
L 100.567074 241.471029 
L 100.837664 243.298894 
L 100.891783 243.546419 
L 101.108255 242.518198 
L 101.162373 242.508332 
L 101.324727 241.379655 
L 101.595318 229.436361 
L 101.81179 244.072972 
L 101.865909 241.721391 
L 101.920027 243.823609 
L 102.028263 241.390147 
L 102.136499 251.999679 
L 102.190617 238.561143 
L 102.298853 66.558624 
L 102.352972 75.91941 
L 102.461208 286.032384 
L 102.515326 265.72261 
L 102.569444 259.191146 
L 102.623562 276.21719 
L 102.67768 261.215196 
L 102.731798 267.701928 
L 102.785916 262.251589 
L 102.948271 254.653432 
L 103.002389 257.339604 
L 103.164743 249.835495 
L 103.760042 218.407498 
L 103.814161 218.522575 
L 104.247105 249.80012 
L 104.301224 249.248674 
L 104.571814 244.336547 
L 104.788287 241.864897 
L 104.842405 241.863637 
L 105.058877 244.155623 
L 105.167113 245.167886 
L 105.221231 244.941922 
L 105.329468 244.828548 
L 106.087121 240.594673 
L 106.303594 239.494106 
L 106.357712 239.555173 
L 106.465948 239.129329 
L 106.574184 238.556997 
L 106.736539 237.924725 
L 106.844775 237.576546 
L 106.898893 237.111506 
L 106.953011 237.425785 
L 107.007129 237.519824 
L 107.169483 236.853038 
L 107.223602 236.97117 
L 107.385956 237.365085 
L 107.656546 236.905158 
L 107.710665 237.826647 
L 107.764783 237.027096 
L 107.927137 229.585803 
L 108.143609 239.206552 
L 108.197728 238.920383 
L 108.251846 239.266149 
L 108.305964 238.380327 
L 108.360082 239.913038 
L 108.468318 248.610309 
L 108.630672 62.772979 
L 108.793027 280.858046 
L 108.847145 251.110965 
L 108.901263 273.090521 
L 108.955381 266.452878 
L 109.009499 262.925673 
L 109.063617 268.000602 
L 109.225972 256.764955 
L 109.28009 257.289547 
L 109.604798 246.188904 
L 109.713035 242.206159 
L 110.091861 217.380761 
L 110.145979 217.808717 
L 110.308334 234.294269 
L 110.524806 252.007157 
L 110.578924 251.997786 
L 110.687161 250.681315 
L 111.011869 244.360215 
L 111.28246 245.373159 
L 111.444814 247.421785 
L 111.498932 247.299576 
L 111.715405 246.270921 
L 111.769523 246.2245 
L 112.689531 240.052263 
L 112.743649 240.042907 
L 113.014239 239.12354 
L 113.068357 239.030672 
L 113.28483 238.056274 
L 113.338948 238.070665 
L 113.55542 237.069455 
L 113.609539 237.339346 
L 113.717775 236.720103 
L 113.771893 236.751109 
L 113.826011 236.519295 
L 113.880129 237.665847 
L 113.934247 237.651492 
L 114.096602 229.254835 
L 114.258956 236.512488 
L 114.42131 237.45554 
L 114.475428 236.34344 
L 114.529546 238.262632 
L 114.637783 245.75379 
L 114.800137 63.593016 
L 114.962491 277.767022 
L 115.016609 249.554526 
L 115.070728 272.184144 
L 115.124846 264.033841 
L 115.178964 261.688661 
L 115.233082 265.365167 
L 115.395436 255.042382 
L 115.449554 255.875499 
L 115.990735 234.222282 
L 116.261326 217.331263 
L 116.315444 217.759755 
L 116.531917 242.368043 
L 116.748389 253.99581 
L 116.802507 254.05242 
L 116.910743 251.796032 
L 117.181334 245.097342 
L 117.343688 244.894421 
L 117.614279 246.8365 
L 117.668397 246.74547 
L 117.722515 246.898685 
L 117.938987 245.665413 
L 118.209578 243.674889 
L 118.804877 239.891309 
L 118.858995 239.772049 
L 119.237822 237.606754 
L 119.346058 237.231782 
L 119.400176 236.881407 
L 119.454295 236.91693 
L 119.508413 237.005697 
L 119.562531 236.588323 
L 119.670767 238.215245 
L 119.833121 229.05085 
L 119.887239 233.430825 
L 120.15783 238.374447 
L 120.211948 237.082206 
L 120.266066 238.132238 
L 120.374302 249.456973 
L 120.536657 60.007114 
L 120.590775 113.991704 
L 120.699011 286.013562 
L 120.753129 251.350441 
L 120.861365 268.659654 
L 121.02372 257.190649 
L 121.077838 260.958979 
L 121.131956 257.428866 
L 121.781373 229.155682 
L 122.051964 215.766541 
L 122.1602 225.787213 
L 122.430791 254.028499 
L 122.539027 255.003406 
L 123.02609 245.377599 
L 123.080208 245.542436 
L 123.350798 247.360942 
L 123.404917 247.142869 
L 123.675507 245.407308 
L 123.729625 245.319216 
L 124.054334 242.44624 
L 124.108452 242.307688 
L 124.595515 238.797036 
L 124.703751 238.46527 
L 124.811987 237.804213 
L 124.866106 237.84574 
L 125.082578 237.517792 
L 125.136696 237.771322 
L 125.190814 237.621411 
L 125.244932 237.592461 
L 125.353169 238.626122 
L 125.461405 229.882026 
L 125.515523 230.357172 
L 125.677877 237.759949 
L 125.840232 238.780707 
L 125.89435 237.557913 
L 126.002586 247.869014 
L 126.056704 240.273585 
L 126.219058 70.261616 
L 126.327295 276.733992 
L 126.381413 270.765047 
L 126.435531 251.660837 
L 126.489649 273.707089 
L 126.543767 260.297196 
L 126.597885 263.997432 
L 126.652003 263.044726 
L 126.814358 253.774384 
L 126.868476 256.857924 
L 127.084948 247.282761 
L 127.139066 247.490197 
L 127.626129 217.33228 
L 127.680247 215.390469 
L 127.734365 216.682416 
L 128.16731 254.152881 
L 128.221428 253.909985 
L 128.383783 250.017433 
L 128.654373 245.385013 
L 128.708491 245.518343 
L 129.0332 247.207368 
L 129.520263 244.316829 
L 129.953208 241.310521 
L 130.710862 237.206136 
L 130.76498 237.265652 
L 130.819098 237.200653 
L 130.873216 237.212396 
L 130.981452 238.261391 
L 131.143806 229.817767 
L 131.306161 236.979064 
L 131.468515 238.218537 
L 131.522633 236.582787 
L 131.576751 238.388116 
L 131.630869 245.615443 
L 131.684987 243.418255 
L 131.847342 64.16477 
L 132.009696 275.489572 
L 132.063814 248.885202 
L 132.117932 271.500618 
L 132.17205 261.607103 
L 132.226169 261.771698 
L 132.280287 263.961232 
L 132.442641 253.879021 
L 132.496759 255.529574 
L 133.308531 215.529611 
L 133.362649 215.862526 
L 133.525003 236.467742 
L 133.741476 254.707942 
L 133.795594 254.781245 
L 134.066184 249.336415 
L 134.228539 246.02455 
L 134.390893 245.705094 
L 134.661484 246.90256 
L 135.148547 244.381885 
L 135.419137 242.218641 
L 135.581491 241.4756 
L 135.9062 239.702411 
L 135.960318 239.837378 
L 136.068554 239.190744 
L 136.176791 240.075084 
L 136.230909 238.677883 
L 136.339145 230.29888 
L 136.501499 237.615526 
L 136.663854 239.802119 
L 136.717972 238.316708 
L 136.77209 239.000989 
L 136.880326 246.543038 
L 137.04268 55.897061 
L 137.096799 121.490766 
L 137.205035 286.907454 
L 137.259153 250.547749 
L 137.313271 268.259046 
L 137.367389 266.34124 
L 137.421507 260.632051 
L 137.475625 266.772203 
L 137.63798 255.898858 
L 137.746216 254.818298 
L 137.90857 248.403021 
L 137.962688 248.344157 
L 138.233279 234.00185 
L 138.503869 215.791121 
L 138.612106 221.061973 
L 138.936814 254.347985 
L 138.990932 254.901612 
L 139.045051 254.701034 
L 139.315641 247.627206 
L 139.423877 245.645744 
L 139.477995 246.043304 
L 139.586232 245.152563 
L 139.64035 245.638531 
L 139.748586 245.467127 
L 139.856822 245.947885 
L 140.343885 241.998442 
L 140.398003 242.266869 
L 140.452121 242.281759 
L 140.560358 241.363796 
L 140.614476 242.123671 
L 140.668594 241.666681 
L 140.830948 232.038036 
L 140.993303 239.548549 
L 141.047421 242.007616 
L 141.101539 240.057576 
L 141.155657 241.396455 
L 141.209775 239.839169 
L 141.263893 240.1638 
L 141.372129 248.766567 
L 141.534484 59.765724 
L 141.588602 110.462502 
L 141.696838 288.673613 
L 141.750956 252.235847 
L 141.859192 268.585641 
L 142.021547 256.821916 
L 142.075665 260.083605 
L 142.292137 251.219785 
L 142.346255 252.26697 
L 142.562728 242.363545 
L 142.616846 240.915052 
L 142.995673 216.227276 
L 143.049791 217.255178 
L 143.482736 253.778968 
L 143.590972 252.187135 
L 144.078035 242.903543 
L 144.348625 244.454547 
L 144.51098 244.539175 
L 145.052161 241.057562 
L 145.106279 241.274596 
L 145.160397 241.266825 
L 145.322751 231.470048 
L 145.376869 234.509485 
L 145.539224 241.014073 
L 145.64746 240.2294 
L 145.701578 240.658505 
L 145.755696 239.014909 
L 145.863932 249.159981 
L 145.918051 240.400166 
L 146.080405 72.63506 
L 146.188641 278.186576 
L 146.242759 269.751337 
L 146.296877 253.926327 
L 146.350995 274.683154 
L 146.405114 260.946966 
L 146.459232 265.143832 
L 146.51335 262.7803 
L 146.675704 253.753149 
L 146.729822 256.653302 
L 146.946295 246.836334 
L 147.000413 246.805571 
L 147.487476 215.749501 
L 147.541594 215.50705 
L 147.703948 234.655722 
L 147.920421 253.351506 
L 148.082775 252.109369 
L 148.623956 241.981185 
L 148.78631 243.211427 
L 148.948665 244.451762 
L 149.002783 244.482141 
L 149.165137 243.555219 
L 149.273373 243.600061 
L 149.489846 242.239609 
L 149.760436 240.678313 
L 149.814555 240.755978 
L 149.976909 239.916391 
L 150.139263 238.943112 
L 150.463972 237.790333 
L 150.51809 237.861655 
L 150.680444 237.268783 
L 150.734562 237.289919 
L 150.788681 237.270529 
L 150.842799 237.02529 
L 150.896917 237.110417 
L 151.113389 236.909142 
L 151.167507 236.872244 
L 151.221625 236.657562 
L 151.275744 236.999708 
L 151.329862 236.780805 
L 151.38398 236.715025 
L 151.438098 237.031627 
L 151.492216 236.35811 
L 151.546334 236.777123 
L 151.65457 237.214807 
L 151.708688 238.51756 
L 151.762807 237.846576 
L 151.871043 229.584726 
L 151.925161 232.545935 
L 152.087515 238.095957 
L 152.141633 238.040913 
L 152.195751 238.700922 
L 152.24987 238.188385 
L 152.303988 238.621512 
L 152.412224 250.696687 
L 152.52046 124.547935 
L 152.574578 63.192748 
L 152.628696 99.624307 
L 152.736933 286.698703 
L 152.791051 256.824275 
L 152.899287 273.660395 
L 152.953405 260.429483 
L 153.061641 260.719146 
L 153.115759 262.305906 
L 153.169877 260.731567 
L 153.332232 253.558307 
L 153.38635 255.527047 
L 153.602822 245.703506 
L 153.65694 244.530155 
L 154.089885 215.318531 
L 154.198122 223.640556 
L 154.52283 254.85455 
L 154.739303 251.695908 
L 155.009893 245.536068 
L 155.172247 245.211953 
L 155.496956 247.079584 
L 155.551074 247.360246 
L 155.605192 247.346602 
L 155.821665 245.20865 
L 155.875783 245.229086 
L 155.929901 245.1185 
L 156.146373 243.178792 
L 156.633436 239.596146 
L 156.741673 239.260603 
L 156.849909 237.896616 
L 156.904027 238.122674 
L 157.066381 237.643662 
L 157.120499 237.689999 
L 157.174618 237.967058 
L 157.228736 237.896042 
L 157.282854 237.789517 
L 157.499326 236.754725 
L 157.553444 236.781345 
L 157.715799 236.291385 
L 157.769917 236.466207 
L 157.824035 237.467371 
L 157.878153 236.712809 
L 157.986389 227.940759 
L 158.040507 230.397433 
L 158.202862 235.957619 
L 158.25698 236.140504 
L 158.311098 236.817398 
L 158.419334 235.583264 
L 158.52757 247.260315 
L 158.581688 232.248983 
L 158.689925 67.226009 
L 158.744043 78.039151 
L 158.852279 280.922557 
L 158.906397 262.792457 
L 158.960515 254.244017 
L 159.014633 273.305315 
L 159.068751 258.017785 
L 159.12287 264.915819 
L 159.176988 259.927715 
L 159.339342 252.883053 
L 159.39346 256.201609 
L 159.555814 249.354387 
L 160.205232 214.077583 
L 160.25935 216.279195 
L 160.692295 255.767718 
L 160.746413 255.372633 
L 161.179358 246.524695 
L 161.233476 246.236895 
L 161.341712 246.887624 
L 161.39583 246.740066 
L 161.612303 248.179735 
L 161.666421 248.510791 
L 161.720539 248.355351 
L 161.774657 248.316393 
L 162.640547 241.700291 
L 162.694665 242.177349 
L 162.748783 241.950813 
L 162.911137 240.723648 
L 162.965255 240.66982 
L 163.289964 239.230051 
L 163.344082 239.32921 
L 163.3982 240.883592 
L 163.452318 240.325672 
L 163.560555 231.352333 
L 163.614673 232.509172 
L 163.777027 239.134529 
L 163.885263 237.964977 
L 164.047618 240.323991 
L 164.101736 246.316313 
L 164.155854 239.157611 
L 164.318208 65.579545 
L 164.426444 277.497093 
L 164.480563 272.811395 
L 164.534681 250.608046 
L 164.588799 272.67723 
L 164.642917 260.181251 
L 164.697035 262.47083 
L 164.751153 261.941932 
L 164.913507 252.855674 
L 164.967626 254.784343 
L 165.184098 246.24533 
L 165.238216 246.295701 
L 165.779397 212.550919 
L 165.833515 213.920151 
L 166.26646 253.991839 
L 166.320578 253.818085 
L 166.807641 244.497498 
L 167.13235 245.701143 
L 167.511177 243.915322 
L 167.781767 241.436765 
L 167.944122 240.565264 
L 168.214712 238.706892 
L 168.485303 238.023274 
L 168.593539 239.729514 
L 168.755893 230.314875 
L 168.810011 234.700657 
L 169.080602 239.587456 
L 169.13472 237.96093 
L 169.188838 238.955225 
L 169.297074 250.08237 
L 169.459429 63.268223 
L 169.513547 110.447106 
L 169.621783 288.26535 
L 169.675901 253.741291 
L 169.784137 270.496221 
L 169.946492 257.455001 
L 170.00061 260.824338 
L 170.054728 258.12269 
L 170.217082 251.419762 
L 170.2712 253.513979 
L 170.487673 243.08071 
L 170.541791 241.757374 
L 170.920618 214.180007 
L 170.974736 214.439723 
L 171.13709 234.732442 
L 171.353563 255.376601 
L 171.407681 255.753069 
L 171.461799 255.480098 
L 171.570035 253.895124 
L 171.948862 245.545786 
L 172.057098 244.853354 
L 172.327689 246.383111 
L 172.381807 246.450111 
L 172.490043 245.677321 
L 172.544161 245.832457 
L 172.598279 245.853836 
L 172.922988 242.748566 
L 172.977106 242.76083 
L 173.085342 242.422626 
L 173.193578 241.369283 
L 173.247696 241.424411 
L 173.301815 241.481815 
L 173.788878 238.080566 
L 173.897114 239.453848 
L 174.059468 230.47949 
L 174.221822 237.187693 
L 174.275941 239.027597 
L 174.330059 238.013651 
L 174.384177 238.924928 
L 174.438295 237.055648 
L 174.492413 238.653184 
L 174.600649 248.729156 
L 174.763004 61.585235 
L 174.817122 126.941217 
L 174.925358 283.296719 
L 174.979476 250.239653 
L 175.033594 269.809589 
L 175.087712 266.848468 
L 175.250067 256.176348 
L 175.304185 261.407231 
L 175.412421 254.425514 
L 175.466539 254.881096 
L 175.628893 246.977632 
L 175.683011 247.334306 
L 176.224193 212.125199 
L 176.278311 212.881871 
L 176.494783 242.303058 
L 176.657137 253.471477 
L 176.711256 253.534271 
L 176.819492 252.422422 
L 177.306555 243.647307 
L 177.631263 245.579149 
L 177.7395 245.374704 
L 178.334799 241.902395 
L 178.605389 239.642707 
L 178.87598 237.922099 
L 179.038334 237.342064 
L 179.14657 238.704392 
L 179.254807 232.98787 
L 179.308925 229.052784 
L 179.363043 232.42361 
L 179.525397 238.405627 
L 179.579515 237.740493 
L 179.633633 238.740769 
L 179.687752 238.391953 
L 179.74187 237.990476 
L 179.850106 250.559602 
L 179.904224 231.67391 
L 180.01246 64.0182 
L 180.066578 81.428404 
L 180.174815 286.871786 
L 180.228933 263.108483 
L 180.283051 259.067016 
L 180.337169 275.385173 
L 180.391287 260.515256 
L 180.445405 268.236605 
L 180.499523 262.444796 
L 181.148941 240.920565 
L 181.527767 215.955322 
L 181.581885 218.691751 
L 181.960712 254.947075 
L 182.01483 254.888787 
L 182.177185 251.740073 
L 182.501893 244.454018 
L 182.556011 245.16424 
L 182.61013 244.868852 
L 182.664248 244.219697 
L 182.718366 244.780504 
L 182.88072 245.807098 
L 182.934838 245.909543 
L 182.988956 244.658967 
L 183.043074 245.109076 
L 183.097193 245.126934 
L 183.151311 244.067581 
L 183.205429 244.601046 
L 183.638374 241.558928 
L 183.692492 241.72035 
L 183.854846 240.413473 
L 183.963082 241.839451 
L 184.125437 231.991368 
L 184.287791 239.233277 
L 184.341909 240.07598 
L 184.396027 238.64841 
L 184.450145 240.488345 
L 184.504263 238.450928 
L 184.558382 239.289405 
L 184.666618 247.350932 
L 184.828972 56.496503 
L 184.88309 110.498087 
L 184.991326 288.539581 
L 185.045445 251.687263 
L 185.153681 267.897834 
L 185.316035 256.119205 
L 185.370153 259.381981 
L 185.424271 256.048067 
L 185.586626 250.27363 
L 185.640744 252.131242 
L 185.857216 241.808466 
L 185.911334 240.536124 
L 186.290161 214.438633 
L 186.344279 215.28123 
L 186.777224 253.297901 
L 186.831342 252.517193 
L 186.993697 248.86 
L 187.264287 243.987247 
L 187.318405 243.544048 
L 187.372523 243.602832 
L 187.534878 244.425576 
L 187.588996 244.525354 
L 187.697232 245.54255 
L 187.859586 244.397725 
L 187.913704 244.325266 
L 188.130177 242.418054 
L 188.184295 242.548859 
L 188.292531 241.967316 
L 188.400767 240.936785 
L 188.454886 241.893796 
L 188.563122 236.534821 
L 188.61724 232.416119 
L 188.671358 233.949098 
L 188.833712 240.701217 
L 188.88783 241.12587 
L 188.941949 240.141379 
L 188.996067 241.238176 
L 189.050185 239.308701 
L 189.104303 241.1559 
L 189.158421 246.8173 
L 189.212539 246.006106 
L 189.374893 64.753329 
L 189.537248 280.332654 
L 189.591366 250.98285 
L 189.645484 272.216823 
L 189.699602 264.664289 
L 189.75372 262.555309 
L 189.807838 265.777556 
L 189.970193 255.018106 
L 190.024311 255.424968 
L 190.511374 235.765243 
L 190.836082 215.511837 
L 190.944319 224.467308 
L 191.214909 253.235862 
L 191.269027 253.606655 
L 191.323145 253.209971 
L 191.4855 250.857445 
L 191.75609 245.05624 
L 191.918445 244.013246 
L 191.972563 244.471945 
L 192.243153 245.239051 
L 192.459626 244.710396 
L 192.730216 241.873635 
L 192.784334 242.3026 
L 193.054925 240.25009 
L 193.109043 240.379807 
L 193.325515 239.755606 
L 193.379634 240.730206 
L 193.596106 231.19644 
L 193.75846 238.860015 
L 193.812578 240.694268 
L 193.866697 239.191827 
L 193.920815 240.240003 
L 193.974933 238.313008 
L 194.029051 239.822128 
L 194.137287 249.707342 
L 194.299641 61.973873 
L 194.35376 123.494095 
L 194.461996 284.472241 
L 194.516114 251.030597 
L 194.570232 269.774118 
L 194.62435 268.051918 
L 194.786704 256.935098 
L 194.840823 261.706626 
L 195.057295 251.45001 
L 195.111413 253.281355 
L 195.327886 242.743417 
L 195.436122 236.424282 
L 195.76083 213.810156 
L 195.814949 214.908094 
L 196.193775 253.038368 
L 196.302012 252.043403 
L 196.843193 243.717866 
L 196.897311 243.736632 
L 197.113783 244.89745 
L 197.167901 245.005254 
L 197.222019 244.755389 
L 197.276138 244.921072 
L 197.330256 244.927734 
L 197.763201 242.202715 
L 197.871437 241.629846 
L 198.845563 236.687584 
L 198.899681 237.249761 
L 198.953799 238.101829 
L 199.116153 228.154456 
L 199.170271 232.278302 
L 199.440862 237.808785 
L 199.549098 236.494193 
L 199.657334 249.286957 
L 199.711453 224.281667 
L 199.819689 62.390673 
L 199.873807 89.889274 
L 199.982043 285.793755 
L 200.036161 257.004405 
L 200.090279 259.379219 
L 200.144397 272.461952 
L 200.198516 257.625519 
L 200.306752 258.383909 
L 200.36087 258.324679 
L 200.414988 258.983765 
L 200.577342 251.48469 
L 200.63146 252.687348 
L 201.334996 216.210209 
L 201.443232 225.44377 
L 201.713823 254.90479 
L 201.767941 255.831629 
L 201.822059 255.63507 
L 202.038531 250.946066 
L 202.255004 247.330866 
L 202.309122 247.587334 
L 202.36324 247.435994 
L 202.417358 247.213431 
L 202.525594 247.878968 
L 202.579712 247.828923 
L 202.63383 247.602307 
L 202.687949 248.105874 
L 202.742067 247.770919 
L 203.012657 245.375785 
L 203.066775 245.37838 
L 203.49972 242.355596 
L 203.553838 242.155161 
L 203.770311 240.623201 
L 204.203256 238.785504 
L 204.257374 238.515765 
L 204.311492 239.410863 
L 204.36561 239.245049 
L 204.473846 229.362292 
L 204.527964 232.393429 
L 204.690319 238.395406 
L 204.744437 237.365392 
L 204.798555 238.013104 
L 204.852673 237.958907 
L 204.906791 236.244254 
L 205.015027 246.446638 
L 205.069145 234.615046 
L 205.177382 70.022367 
L 205.2315 70.613803 
L 205.339736 282.680243 
L 205.393854 267.349704 
L 205.447972 253.372498 
L 205.50209 273.598602 
L 205.556208 259.241964 
L 205.610327 264.7281 
L 205.664445 261.21882 
L 205.826799 253.162014 
L 205.880917 255.727246 
L 206.09739 246.598439 
L 206.151508 246.563731 
L 206.692689 214.613674 
L 206.746807 215.994595 
L 207.179752 253.330395 
L 207.720933 244.714271 
L 207.829169 245.716997 
L 207.883287 245.612311 
L 208.045642 246.407823 
L 208.09976 246.271228 
L 209.019768 240.286141 
L 209.073886 240.661841 
L 209.128004 241.168148 
L 209.290358 230.620651 
L 209.344476 233.823499 
L 209.506831 240.372646 
L 209.560949 239.83452 
L 209.615067 240.034955 
L 209.669185 239.893759 
L 209.723303 238.661739 
L 209.831539 248.82827 
L 209.885657 236.511074 
L 209.993894 71.846537 
L 210.048012 77.521597 
L 210.156248 283.900394 
L 210.210366 267.309029 
L 210.264484 255.449605 
L 210.318602 274.989111 
L 210.37272 259.844351 
L 210.426838 265.988043 
L 210.480957 262.05269 
L 210.643311 253.593064 
L 210.697429 256.570547 
L 210.913901 247.407636 
L 210.96802 247.550942 
L 211.509201 214.478301 
L 211.617437 223.955897 
L 211.888027 253.094072 
L 211.996264 253.387835 
L 212.1045 252.151917 
L 212.483327 244.907338 
L 212.699799 245.971141 
L 212.753917 245.849994 
L 212.808035 245.926095 
L 212.862153 246.222849 
L 212.916271 246.192336 
L 212.97039 246.047351 
L 213.295098 243.698251 
L 213.349216 243.704492 
L 213.619807 241.482087 
L 213.782161 240.367402 
L 213.836279 240.844288 
L 213.890397 240.579345 
L 214.052752 231.173475 
L 214.10687 233.008617 
L 214.269224 240.662426 
L 214.323342 241.03199 
L 214.37746 240.334961 
L 214.431579 241.357977 
L 214.485697 239.336866 
L 214.593933 248.359577 
L 214.648051 245.821568 
L 214.810405 66.697879 
L 214.97276 277.107647 
L 215.026878 251.839906 
L 215.080996 274.576497 
L 215.135114 263.465174 
L 215.189232 263.875011 
L 215.24335 265.462624 
L 215.405705 254.792895 
L 215.459823 256.745436 
L 216.271594 214.118022 
L 216.325712 216.005223 
L 216.704539 252.534825 
L 216.758657 252.437651 
L 217.029248 246.77414 
L 217.24572 244.211248 
L 217.299838 244.223282 
L 217.353957 244.05074 
L 217.408075 244.115169 
L 217.462193 244.148004 
L 217.570429 244.799037 
L 218.11161 242.381329 
L 218.544555 239.457625 
L 218.598673 239.209372 
L 218.761027 235.639375 
L 218.923382 228.583051 
L 219.085736 236.96678 
L 219.139854 240.175351 
L 219.193972 238.347158 
L 219.24809 239.973386 
L 219.302209 238.156387 
L 219.356327 238.977434 
L 219.464563 250.38983 
L 219.626917 57.76333 
L 219.681035 108.440559 
L 219.789272 286.814253 
L 219.84339 253.081683 
L 219.951626 269.930513 
L 220.11398 257.428195 
L 220.168098 260.942931 
L 220.222216 258.027806 
L 220.384571 251.500054 
L 220.438689 253.37721 
L 220.655161 244.309026 
L 220.709279 242.926594 
L 221.088106 217.237062 
L 221.142224 218.12311 
L 221.304579 236.818221 
L 221.521051 253.905827 
L 221.575169 254.084912 
L 222.11635 245.087059 
L 222.170468 245.260795 
L 222.332823 246.584251 
L 222.441059 246.693531 
L 222.495177 247.275124 
L 222.71165 245.154921 
L 222.765768 245.212063 
L 222.819886 245.587506 
L 222.98224 243.528748 
L 223.252831 242.00365 
L 223.306949 241.99988 
L 223.577539 240.36184 
L 223.631657 240.349372 
L 223.685776 239.677977 
L 223.739894 240.574399 
L 223.84813 236.147202 
L 223.956366 230.972268 
L 224.172839 240.422187 
L 224.335193 238.40644 
L 224.389311 238.653847 
L 224.497547 248.916862 
L 224.605783 122.955159 
L 224.659901 58.190735 
L 224.71402 97.293875 
L 224.822256 289.907821 
L 224.876374 254.633698 
L 224.98461 270.432822 
L 225.146964 256.86113 
L 225.201083 259.200431 
L 225.255201 257.281677 
L 225.417555 250.385927 
L 225.471673 252.038304 
L 225.688146 242.278777 
L 225.742264 241.675693 
L 226.12109 215.0417 
L 226.175209 215.312725 
L 226.337563 233.150117 
L 226.554035 251.505727 
L 226.608153 251.961307 
L 226.770508 249.264612 
L 227.041098 244.058583 
L 227.095216 243.866958 
L 227.149335 243.962042 
L 227.365807 245.229469 
L 227.419925 245.166645 
L 227.474043 245.532482 
L 227.528161 245.497506 
L 227.744634 244.485028 
L 227.961106 242.981211 
L 228.015224 243.141572 
L 228.448169 239.934477 
L 228.502287 239.888541 
L 228.556405 239.635455 
L 228.610524 240.604334 
L 228.664642 239.912044 
L 228.826996 231.152086 
L 229.043468 241.395559 
L 229.097587 239.703226 
L 229.151705 241.004634 
L 229.259941 239.216417 
L 229.368177 250.826187 
L 229.422295 227.702616 
L 229.530531 64.615872 
L 229.58465 89.721114 
L 229.692886 287.776385 
L 229.747004 259.091203 
L 229.801122 259.711596 
L 229.85524 273.33462 
L 229.909358 258.935583 
L 230.017594 259.468753 
L 230.071713 258.972834 
L 230.125831 259.204703 
L 230.288185 251.348051 
L 230.342303 252.665494 
L 231.045839 216.167037 
L 231.208193 234.430055 
L 231.424665 253.317432 
L 231.478783 253.760489 
L 231.641138 251.167372 
L 231.965846 244.445775 
L 232.019965 244.605425 
L 232.074083 244.406299 
L 232.398791 246.825334 
L 232.452909 246.707776 
L 233.264681 240.884096 
L 233.318799 241.050067 
L 233.372917 240.987469 
L 233.643508 239.212441 
L 233.805862 238.607271 
L 233.85998 239.523998 
L 233.914098 239.184774 
L 234.076453 230.272733 
L 234.292925 239.386189 
L 234.45528 238.28954 
L 234.509398 237.712073 
L 234.617634 250.227146 
L 234.671752 229.529548 
L 234.779988 64.671668 
L 234.834106 86.1915 
L 234.942343 285.820541 
L 234.996461 259.990745 
L 235.050579 258.507252 
L 235.104697 273.208195 
L 235.158815 258.56704 
L 235.212933 266.995056 
L 235.267051 259.65238 
L 235.321169 258.442627 
L 235.375287 259.931348 
L 235.537642 251.510632 
L 235.59176 252.350184 
L 236.295295 214.266642 
L 236.403531 223.902799 
L 236.674122 251.978467 
L 236.72824 252.31565 
L 236.782358 252.012223 
L 236.944713 248.584074 
L 237.215303 243.181991 
L 237.269421 242.88672 
L 237.702366 245.082543 
L 238.135311 242.745076 
L 238.243547 241.506767 
L 238.297665 241.626028 
L 238.46002 240.66285 
L 238.784728 238.633629 
L 238.838846 238.435789 
L 239.001201 239.35665 
L 239.055319 239.06167 
L 239.217673 229.749022 
L 239.434146 240.212249 
L 239.488264 239.653205 
L 239.542382 241.012745 
L 239.5965 240.332947 
L 239.650618 239.692838 
L 239.758854 251.674994 
L 239.812972 232.605578 
L 239.921209 64.486098 
L 239.975327 81.921165 
L 240.083563 287.816934 
L 240.137681 262.897488 
L 240.191799 259.977037 
L 240.245917 275.819761 
L 240.300035 261.522712 
L 240.354154 269.063717 
L 240.408272 262.760597 
L 240.570626 257.056472 
L 240.624744 260.073512 
L 240.787098 252.115009 
L 241.111807 237.888916 
L 241.436516 218.208437 
L 241.544752 227.245369 
L 241.815343 254.588127 
L 241.977697 252.980329 
L 242.194169 248.265924 
L 242.46476 243.611439 
L 242.518878 243.679217 
L 242.843587 245.819692 
L 242.897705 245.655974 
L 243.168295 243.655132 
L 243.547122 240.762277 
L 243.709476 237.962362 
L 243.871831 229.182718 
L 244.034185 237.648171 
L 244.088303 240.663627 
L 244.142421 238.808016 
L 244.196539 239.963984 
L 244.304776 237.899599 
L 244.413012 248.455444 
L 244.46713 222.657858 
L 244.575366 60.811167 
L 244.629484 91.940301 
L 244.737721 288.106236 
L 244.791839 256.269896 
L 244.845957 259.376921 
L 244.900075 270.431867 
L 245.062429 256.88441 
L 245.116547 257.351554 
L 245.170665 257.225864 
L 245.33302 248.804213 
L 245.387138 250.264938 
L 246.036555 215.415469 
L 246.090673 216.686221 
L 246.4695 252.422328 
L 246.577736 251.984202 
L 246.685973 250.174951 
L 247.064799 243.253172 
L 247.118917 242.978017 
L 247.443626 245.14597 
L 247.497744 245.401799 
L 247.551862 245.380435 
L 247.60598 245.358678 
L 247.822453 244.474638 
L 247.876571 244.413964 
L 248.20128 242.5534 
L 248.363634 240.666273 
L 248.525988 232.826388 
L 248.580106 233.445911 
L 248.742461 241.010411 
L 248.796579 242.509504 
L 248.958933 240.165364 
L 249.067169 247.60647 
L 249.121287 251.53473 
L 249.283642 62.978265 
L 249.33776 127.567289 
L 249.445996 286.304889 
L 249.500114 252.817661 
L 249.554232 271.745449 
L 249.60835 268.534755 
L 249.662469 262.205516 
L 249.716587 268.959191 
L 249.878941 257.347584 
L 249.987177 256.439428 
L 250.149532 248.655859 
L 250.20365 248.464702 
L 250.744831 215.391267 
L 250.798949 217.157171 
L 251.177776 252.980872 
L 251.231894 252.640749 
L 251.502484 247.415225 
L 251.718957 243.564361 
L 251.773075 243.608973 
L 251.989547 244.229717 
L 252.097784 244.931074 
L 252.151902 244.881806 
L 252.20602 245.374937 
L 252.260138 245.230894 
L 253.180146 238.73241 
L 253.396618 228.856782 
L 253.613091 239.980048 
L 253.667209 239.756999 
L 253.721327 239.094729 
L 253.775445 240.5546 
L 253.829563 238.344959 
L 253.883681 240.310736 
L 253.991917 250.503709 
L 254.154272 59.028448 
L 254.20839 126.749433 
L 254.316626 283.722078 
L 254.370744 250.782977 
L 254.424862 270.515796 
L 254.47898 266.469026 
L 254.533099 260.895451 
L 254.587217 266.965348 
L 254.749571 255.550006 
L 254.857807 254.239135 
L 255.020162 246.438683 
L 255.07428 246.555108 
L 255.615461 213.303536 
L 255.669579 215.557006 
L 256.102524 253.444479 
L 256.589587 245.051907 
L 256.643705 245.14769 
L 256.697823 244.507614 
L 256.751941 244.818226 
L 256.968414 246.265664 
L 257.07665 247.096286 
L 257.239004 246.275573 
L 257.726067 243.224143 
L 257.94254 241.269297 
L 257.996658 241.399531 
L 258.104894 240.860549 
L 258.321366 230.834845 
L 258.700193 242.974968 
L 258.754311 240.58938 
L 258.808429 242.442475 
L 258.916666 251.282034 
L 259.07902 55.146964 
L 259.133138 114.632654 
L 259.241374 289.97601 
L 259.295492 253.784648 
L 259.34961 270.180948 
L 259.403729 270.117033 
L 259.566083 258.238713 
L 259.620201 262.061183 
L 259.836673 251.411277 
L 259.890791 253.332935 
L 260.2155 236.370542 
L 260.540209 215.336947 
L 260.594327 216.06597 
L 261.027272 251.613605 
L 261.189626 248.732024 
L 261.460217 243.306398 
L 261.622571 242.940404 
L 261.94728 244.593996 
L 262.271988 242.169761 
L 262.326106 242.560947 
L 262.380225 242.529116 
L 262.542579 240.885608 
L 262.596697 240.957425 
L 262.704933 240.02011 
L 262.921406 230.268462 
L 263.137878 241.945232 
L 263.246114 240.755683 
L 263.300232 241.257903 
L 263.354351 239.517851 
L 263.462587 247.620572 
L 263.516705 245.209414 
L 263.679059 65.634741 
L 263.841414 276.597602 
L 263.895532 251.542801 
L 263.94965 274.308915 
L 264.003768 263.302134 
L 264.057886 263.24409 
L 264.112004 264.639884 
L 264.274358 254.526499 
L 264.328477 256.501948 
L 264.544949 247.55213 
L 264.599067 248.223571 
L 265.140248 215.928304 
L 265.248484 225.641104 
L 265.519075 252.96739 
L 265.573193 253.737207 
L 265.627311 253.221281 
L 265.897902 247.259555 
L 266.114374 244.389951 
L 266.22261 244.4427 
L 266.384965 245.700021 
L 266.439083 245.842573 
L 266.493201 245.600917 
L 266.547319 246.252344 
L 266.601437 246.129352 
L 267.142618 242.245798 
L 267.196736 242.264226 
L 267.683799 239.516924 
L 267.737918 239.467083 
L 267.95439 229.872628 
L 268.062626 237.593789 
L 268.116744 237.41042 
L 268.170862 240.656355 
L 268.224981 238.856715 
L 268.279099 240.035098 
L 268.333217 238.922575 
L 268.387335 239.297015 
L 268.495571 251.467588 
L 268.549689 222.658551 
L 268.657925 62.395978 
L 268.712044 97.645239 
L 268.82028 289.005572 
L 268.874398 256.22066 
L 268.982634 272.426673 
L 269.144988 258.759119 
L 269.199107 260.182067 
L 269.253225 259.114139 
L 269.415579 250.767551 
L 269.469697 252.418341 
L 269.68617 242.866335 
L 269.740288 241.745604 
L 270.173233 214.788838 
L 270.335587 233.126099 
L 270.552059 251.545892 
L 270.606177 251.628087 
L 270.768532 248.976288 
L 271.039122 244.22285 
L 271.147358 243.727205 
L 271.201477 243.862405 
L 271.580303 245.096154 
L 271.95913 242.62797 
L 272.175603 241.36822 
L 272.283839 240.36478 
L 272.337957 240.707849 
L 272.392075 240.660198 
L 272.662666 238.529387 
L 272.770902 238.723536 
L 272.82502 238.491356 
L 272.987374 239.50142 
L 273.203847 229.855586 
L 273.366201 238.488926 
L 273.528555 241.171135 
L 273.582673 239.526728 
L 273.636792 240.017084 
L 273.745028 251.042092 
L 273.907382 56.73265 
L 273.9615 112.612109 
L 274.069736 288.902333 
L 274.123855 253.719648 
L 274.232091 270.31884 
L 274.394445 258.674339 
L 274.448563 262.327066 
L 274.665036 252.38469 
L 274.719154 254.763833 
L 274.935626 244.589692 
L 275.097981 235.919265 
L 275.368571 216.484908 
L 275.422689 216.759482 
L 275.585044 235.108411 
L 275.801516 253.671316 
L 275.855634 253.619869 
L 276.342697 246.40951 
L 276.396815 245.901627 
L 276.450933 245.980207 
L 276.667406 247.862312 
L 276.992114 245.592007 
L 277.154469 244.144627 
L 277.479177 240.804785 
L 277.533296 240.82637 
L 277.858004 237.920396 
L 277.912122 238.561169 
L 277.96624 237.848938 
L 278.128595 228.334617 
L 278.345067 239.453381 
L 278.399185 238.095293 
L 278.453303 238.838963 
L 278.507422 238.917784 
L 278.56154 237.723639 
L 278.669776 248.748425 
L 278.723894 227.911279 
L 278.83213 63.311212 
L 278.886248 84.999794 
L 278.994485 288.166756 
L 279.048603 259.808798 
L 279.102721 257.183948 
L 279.156839 272.094661 
L 279.210957 257.385985 
L 279.265075 265.348786 
L 279.319193 258.386707 
L 279.373311 257.296396 
L 279.427429 258.462021 
L 279.589784 250.40466 
L 279.643902 251.069757 
L 280.347437 214.66991 
L 280.401555 218.016165 
L 280.780382 251.884653 
L 280.8345 251.851861 
L 280.996855 248.647958 
L 281.213327 245.46495 
L 281.321563 244.520712 
L 281.375681 244.947755 
L 281.592154 246.690844 
L 281.646272 246.816632 
L 282.187453 244.070647 
L 282.403926 242.333795 
L 282.458044 242.4058 
L 282.674516 240.807351 
L 282.728634 241.437673 
L 282.945107 231.106883 
L 283.161579 242.453607 
L 283.215697 240.919753 
L 283.269815 241.936066 
L 283.378051 240.411108 
L 283.486288 251.852427 
L 283.540406 229.959569 
L 283.648642 65.467043 
L 283.70276 90.01637 
L 283.810996 289.967884 
L 283.865114 261.374996 
L 283.919233 261.277159 
L 283.973351 274.912574 
L 284.027469 259.823071 
L 284.135705 260.490695 
L 284.189823 259.844577 
L 284.243941 260.355988 
L 284.406296 251.975684 
L 284.460414 252.638023 
L 285.163949 216.023226 
L 285.326303 234.094562 
L 285.542776 251.975909 
L 285.596894 252.508645 
L 285.651012 251.987407 
L 285.813366 248.579625 
L 286.138075 243.683829 
L 286.192193 243.833266 
L 286.408666 245.38505 
L 286.462784 245.271227 
L 286.57102 245.812895 
L 286.895729 242.885678 
L 286.949847 242.876798 
L 287.599264 238.437825 
L 287.761618 230.318861 
L 287.815737 231.198374 
L 287.978091 239.325199 
L 288.032209 239.839169 
L 288.086327 238.416176 
L 288.140445 240.538062 
L 288.194563 238.148315 
L 288.248681 239.927271 
L 288.356918 248.857443 
L 288.519272 59.399422 
L 288.57339 131.569257 
L 288.681626 281.807625 
L 288.735744 249.52641 
L 288.789863 270.45356 
L 288.843981 264.508177 
L 288.898099 260.355963 
L 288.952217 265.544802 
L 289.114571 253.692923 
L 289.168689 253.836752 
L 289.222807 253.306216 
L 289.385162 246.622837 
L 289.43928 246.968382 
L 289.980461 214.662367 
L 290.034579 216.101022 
L 290.413406 253.21342 
L 290.467524 252.805108 
L 290.954587 245.735781 
L 291.008705 246.146395 
L 291.062823 246.064121 
L 291.279296 248.086604 
L 291.333414 248.038935 
L 291.495768 247.348364 
L 291.928713 243.931921 
L 291.982831 244.143388 
L 292.145185 241.302209 
L 292.361658 232.651514 
L 292.524012 241.022361 
L 292.57813 244.100818 
L 292.632248 241.803057 
L 292.686367 243.627836 
L 292.794603 241.393891 
L 292.902839 251.412306 
L 292.956957 229.748835 
L 293.065193 61.448487 
L 293.119311 84.331521 
L 293.227548 293.155358 
L 293.281666 261.437951 
L 293.335784 260.917131 
L 293.389902 274.211307 
L 293.44402 261.053313 
L 293.498138 268.560201 
L 293.606374 259.460052 
L 293.660493 259.707316 
L 293.822847 251.24633 
L 293.876965 252.735204 
L 294.526382 216.950203 
L 294.5805 217.494408 
L 294.742855 236.194 
L 294.959327 251.839757 
L 295.013445 251.848453 
L 295.229918 247.502674 
L 295.44639 242.843415 
L 295.500508 243.022813 
L 295.554626 242.993358 
L 295.608744 242.986543 
L 295.933453 244.513039 
L 296.149926 242.765474 
L 296.204044 242.860995 
L 296.366398 241.488229 
L 296.420516 240.427933 
L 296.636989 229.987618 
L 296.853461 243.363395 
L 296.961697 241.411176 
L 297.015815 243.0934 
L 297.069933 240.655144 
L 297.124052 242.317036 
L 297.232288 250.702165 
L 297.394642 60.184751 
L 297.44876 117.702805 
L 297.556996 288.160668 
L 297.611115 252.985557 
L 297.719351 269.121224 
L 297.881705 256.870497 
L 297.935823 261.024686 
L 298.152296 250.052623 
L 298.206414 251.894774 
L 298.531122 235.091302 
L 298.855831 216.267201 
L 298.964067 225.166538 
L 299.234658 251.280672 
L 299.342894 251.912466 
L 299.45113 250.25697 
L 299.829957 243.612099 
L 300.262902 246.094274 
L 300.533493 244.356494 
L 300.587611 244.645825 
L 300.858201 241.381406 
L 301.074674 232.228783 
L 301.291146 245.075979 
L 301.345264 242.921231 
L 301.399382 243.678836 
L 301.4535 243.253805 
L 301.507619 241.729035 
L 301.615855 250.650177 
L 301.669973 249.544511 
L 301.832327 66.348921 
L 301.994682 278.167047 
L 302.0488 253.574617 
L 302.102918 275.513202 
L 302.157036 264.652661 
L 302.265272 266.740041 
L 302.427626 255.975218 
L 302.481745 257.818841 
L 303.293516 215.980254 
L 303.401752 226.082633 
L 303.672343 250.849741 
L 303.726461 251.006043 
L 303.888815 248.858064 
L 304.213524 242.486212 
L 304.32176 242.678084 
L 304.429997 242.181832 
L 304.538233 242.904708 
L 304.592351 242.849369 
L 304.700587 243.374559 
L 304.754705 243.296115 
L 305.350004 239.615006 
L 305.404123 239.659818 
L 305.566477 239.141924 
L 305.674713 238.259993 
L 305.891186 228.687911 
L 306.107658 239.287035 
L 306.161776 239.15519 
L 306.215894 237.93832 
L 306.270012 239.88966 
L 306.32413 237.195042 
L 306.378248 239.270681 
L 306.486485 249.958615 
L 306.648839 58.995997 
L 306.702957 124.571016 
L 306.811193 283.214045 
L 306.865311 249.967328 
L 306.91943 269.619163 
L 306.973548 267.300919 
L 307.135902 257.018751 
L 307.19002 261.166226 
L 307.352374 255.61625 
L 307.514729 248.556424 
L 307.568847 249.14219 
L 308.110028 218.814696 
L 308.164146 220.534536 
L 308.542973 253.453279 
L 308.597091 252.953567 
L 308.9218 247.040694 
L 309.084154 244.920027 
L 309.408863 246.223051 
L 309.462981 246.273816 
L 309.517099 246.482864 
L 309.571217 246.405503 
L 310.274752 241.975257 
L 310.491225 232.383743 
L 310.707697 242.720459 
L 310.815934 241.427272 
L 310.870052 242.646643 
L 310.92417 240.346813 
L 310.978288 242.696995 
L 311.086524 247.964332 
L 311.248878 58.977288 
L 311.411233 282.665746 
L 311.465351 252.465638 
L 311.519469 273.997415 
L 311.573587 266.004881 
L 311.627705 264.218807 
L 311.681823 266.896579 
L 311.844178 255.770545 
L 311.898296 256.398902 
L 312.114768 247.589143 
L 312.168886 248.031628 
L 312.601831 220.141143 
L 312.710067 217.283923 
L 312.818304 225.406551 
L 313.088894 249.520721 
L 313.143012 250.365279 
L 313.19713 250.133626 
L 313.305367 247.741621 
L 313.575957 242.227313 
L 313.684193 240.964478 
L 313.738312 241.201839 
L 313.79243 241.383557 
L 314.008902 242.80998 
L 314.117138 243.522799 
L 314.171256 243.07788 
L 314.333611 241.876374 
L 314.387729 241.925687 
L 314.441847 241.864988 
L 314.604201 237.612893 
L 314.766556 231.126879 
L 314.983028 242.477385 
L 315.037146 241.466932 
L 315.091264 241.715468 
L 315.145382 242.243918 
L 315.199501 240.06761 
L 315.307737 248.330134 
L 315.361855 247.309772 
L 315.524209 65.450963 
L 315.686564 278.813352 
L 315.740682 252.788294 
L 315.7948 274.688026 
L 315.848918 264.220359 
L 315.903036 264.01332 
L 315.957154 265.938641 
L 316.119508 255.519395 
L 316.173627 256.520076 
L 316.714808 232.219713 
L 316.93128 218.699297 
L 316.985398 218.523082 
L 317.147753 235.838111 
L 317.364225 251.975311 
L 317.418343 252.288081 
L 317.580697 249.968646 
L 317.959524 243.610105 
L 318.013642 243.52998 
L 318.06776 243.578805 
L 318.338351 245.416397 
L 318.392469 245.53732 
L 318.446587 245.398312 
L 318.608941 244.785369 
L 319.041886 242.085965 
L 319.096004 242.077465 
L 319.204241 241.393176 
L 319.420713 231.543928 
L 319.528949 239.736424 
L 319.583067 238.677588 
L 319.637186 242.93341 
L 319.691304 240.78689 
L 319.745422 241.738817 
L 319.79954 241.467419 
L 319.853658 240.053262 
L 319.961894 251.521704 
L 320.016012 238.202581 
L 320.124249 69.493497 
L 320.178367 78.514105 
L 320.286603 285.352366 
L 320.340721 265.380137 
L 320.394839 257.274091 
L 320.448957 275.750976 
L 320.503075 260.179749 
L 320.557193 266.967719 
L 320.611312 261.788334 
L 320.773666 254.127729 
L 320.827784 257.270544 
L 321.044256 247.1544 
L 321.098375 247.171812 
L 321.585438 215.868082 
L 321.639556 216.071834 
L 321.80191 234.268595 
L 322.018382 251.307787 
L 322.126619 250.383669 
L 322.288973 247.024196 
L 322.505445 243.373811 
L 322.613682 243.212493 
L 322.93839 245.057543 
L 323.046627 244.474533 
L 323.100745 244.918203 
L 323.154863 244.575912 
L 323.317217 243.696863 
L 323.696044 241.134204 
L 323.750162 241.037284 
L 323.912516 240.02314 
L 324.128989 230.878711 
L 324.291343 239.379532 
L 324.345461 241.726454 
L 324.399579 239.552433 
L 324.453697 241.306227 
L 324.507816 239.37597 
L 324.561934 239.74535 
L 324.67017 252.004831 
L 324.778406 123.195749 
L 324.832524 61.187631 
L 324.886642 102.350599 
L 324.994879 289.0469 
L 325.048997 254.442852 
L 325.157233 271.279401 
L 325.319587 257.418618 
L 325.373705 259.961095 
L 325.427823 257.848993 
L 325.590178 250.235994 
L 325.644296 252.067033 
L 325.860768 242.365603 
L 325.914886 241.143642 
L 326.293713 216.143587 
L 326.347831 216.427745 
L 326.726658 250.244224 
L 326.834894 249.859548 
L 326.889012 249.410581 
L 327.105485 244.289052 
L 327.159603 244.550611 
L 327.213721 243.931664 
L 327.267839 243.965515 
L 327.321957 244.216991 
L 327.376075 243.635957 
L 327.646666 246.106796 
L 327.700784 246.425831 
L 328.025493 244.937916 
L 328.079611 244.987583 
L 328.241965 243.263462 
L 328.296083 243.315795 
L 328.458438 242.396527 
L 328.620792 239.568455 
L 328.783146 231.806773 
L 328.891383 240.861524 
L 328.945501 240.147068 
L 328.999619 243.49615 
L 329.053737 241.688133 
L 329.107855 242.389765 
L 329.161973 241.801931 
L 329.216091 241.398388 
L 329.324327 251.707546 
L 329.378445 232.119209 
L 329.486682 63.731758 
L 329.5408 80.896158 
L 329.649036 291.36244 
L 329.703154 261.786616 
L 329.757272 260.302069 
L 329.81139 274.768614 
L 329.865508 260.124137 
L 329.919627 268.148533 
L 329.973745 261.19853 
L 330.569044 244.156093 
L 330.947871 218.849069 
L 331.001989 218.603036 
L 331.434934 251.733262 
L 331.489052 251.353783 
L 331.867879 244.748366 
L 331.921997 243.66615 
L 331.976115 243.883688 
L 332.030233 244.025331 
L 332.246705 245.817678 
L 332.300823 245.784135 
L 332.517296 244.189123 
L 332.787886 241.81954 
L 332.896123 241.634702 
L 333.058477 231.173911 
L 333.112595 233.16673 
L 333.274949 240.536412 
L 333.329068 240.690436 
L 333.383186 239.726707 
L 333.437304 241.227392 
L 333.491422 238.820923 
L 333.54554 240.87891 
L 333.653776 247.944486 
L 333.816131 58.552281 
L 333.870249 128.367037 
L 333.978485 283.504131 
L 334.032603 249.258996 
L 334.086721 269.390335 
L 334.303194 254.996628 
L 334.357312 259.259724 
L 334.519666 252.894015 
L 334.68202 245.926765 
L 334.736138 246.500727 
L 335.27732 217.68699 
L 335.385556 225.98354 
L 335.656146 250.664725 
L 335.710264 251.41697 
L 335.764383 250.985868 
L 335.926737 247.731008 
L 336.143209 244.043557 
L 336.197327 243.823024 
L 336.251446 243.909471 
L 336.576154 245.36178 
L 336.630272 245.036512 
L 336.68439 245.177017 
L 336.738509 245.394186 
L 336.900863 244.160673 
L 336.954981 244.186946 
L 337.171453 233.665992 
L 337.225572 236.661099 
L 337.387926 245.066806 
L 337.442044 244.807996 
L 337.496162 243.713904 
L 337.55028 245.060139 
L 337.604398 242.320636 
L 337.658516 244.246911 
L 337.766753 252.745218 
L 337.929107 62.887899 
L 337.983225 133.983418 
L 338.091461 285.15241 
L 338.145579 252.869427 
L 338.199698 273.501319 
L 338.307934 262.997108 
L 338.362052 268.1734 
L 338.524406 257.067335 
L 338.578524 257.072212 
L 338.632642 256.062944 
L 338.794997 248.271259 
L 338.849115 248.669266 
L 339.390296 218.959148 
L 339.498532 228.457203 
L 339.769123 251.286848 
L 339.823241 251.334904 
L 339.931477 249.958266 
L 340.256186 244.060962 
L 340.41854 242.925113 
L 340.472658 243.259631 
L 340.635013 244.666914 
L 340.689131 245.199608 
L 340.743249 245.189023 
L 341.122075 242.070556 
L 341.338548 232.014653 
L 341.392666 233.525385 
L 341.55502 242.464217 
L 341.609138 243.716002 
L 341.771493 240.880554 
L 341.825611 241.643889 
L 341.933847 253.198054 
L 342.042083 125.250539 
L 342.096201 59.983453 
L 342.15032 100.959307 
L 342.258556 288.568983 
L 342.312674 254.872017 
L 342.42091 270.92915 
L 342.583264 257.480784 
L 342.637383 259.884969 
L 342.691501 257.801253 
L 342.853855 250.556906 
L 342.907973 251.985426 
L 343.232682 235.946452 
L 343.55739 216.814033 
L 343.611509 218.469734 
L 343.990335 248.378986 
L 344.369162 242.209395 
L 344.42328 241.184229 
L 344.477398 241.608713 
L 344.693871 242.177775 
L 344.856225 243.787716 
L 344.910343 244.029928 
L 345.072698 243.522661 
L 345.126816 243.296284 
L 345.180934 243.793948 
L 345.235052 243.369355 
L 345.28917 243.405764 
L 345.343288 243.297385 
L 345.613879 238.490094 
L 345.776233 232.117659 
L 345.992705 244.95427 
L 346.046824 243.225157 
L 346.100942 244.21059 
L 346.15506 244.512284 
L 346.209178 241.860734 
L 346.317414 251.235019 
L 346.371532 247.410961 
L 346.533887 62.969807 
L 346.642123 279.748081 
L 346.696241 275.268878 
L 346.750359 255.264087 
L 346.804477 276.468345 
L 346.858595 264.191065 
L 346.912713 266.594524 
L 346.966831 265.513381 
L 347.129186 256.14113 
L 347.183304 258.212181 
L 347.399776 249.70247 
L 347.453894 249.923933 
L 347.940957 221.495603 
L 347.995076 220.873868 
L 348.211548 242.445442 
L 348.373902 251.057205 
L 348.42802 251.108338 
L 348.482139 250.977299 
L 348.644493 247.668873 
L 348.969202 243.214998 
L 349.077438 244.685589 
L 349.131556 244.472564 
L 349.185674 244.996433 
L 349.239792 244.811515 
L 349.348028 244.964303 
L 349.726855 241.480707 
L 349.943328 231.491063 
L 350.105682 240.066675 
L 350.1598 243.709117 
L 350.213918 241.023074 
L 350.268036 242.549675 
L 350.322154 241.374031 
L 350.376272 239.463358 
L 350.484509 248.379109 
L 350.538627 239.959405 
L 350.700981 68.712614 
L 350.809217 283.476448 
L 350.863335 269.89528 
L 350.917454 252.953992 
L 350.971572 273.330041 
L 351.02569 259.805854 
L 351.079808 263.928129 
L 351.133926 261.059416 
L 351.29628 252.134189 
L 351.350398 254.763207 
L 351.566871 245.380704 
L 351.620989 245.401339 
L 352.053934 220.55212 
L 352.108052 219.203659 
L 352.16217 220.489496 
L 352.595115 249.903213 
L 352.649233 249.597933 
L 353.02806 242.430382 
L 353.190414 242.820857 
L 353.461005 244.765536 
L 353.515123 244.914966 
L 353.839831 243.362647 
L 353.948068 242.612738 
L 354.056304 241.213994 
L 354.218658 232.76479 
L 354.272776 233.947456 
L 354.435131 242.209404 
L 354.489249 243.967591 
L 354.651603 240.993372 
L 354.759839 247.428374 
L 354.813957 253.593987 
L 354.976312 62.263048 
L 355.03043 114.801909 
L 355.138666 289.306247 
L 355.192784 254.198246 
L 355.30102 271.06163 
L 355.463375 258.561694 
L 355.517493 262.302217 
L 355.571611 258.390936 
L 356.275146 226.129992 
L 356.437501 218.964737 
L 356.545737 227.932353 
L 356.816328 251.184359 
L 356.870446 251.109091 
L 357.086918 247.882834 
L 357.357509 243.530661 
L 357.465745 243.189169 
L 357.519863 243.226884 
L 357.736335 244.592385 
L 358.006926 243.846484 
L 358.385753 239.691171 
L 358.548107 231.650347 
L 358.602225 232.620256 
L 358.76458 241.209739 
L 358.818698 243.163696 
L 358.981052 240.24694 
L 359.03517 241.03623 
L 359.143406 252.745505 
L 359.251643 118.224696 
L 359.305761 58.159546 
L 359.359879 107.004759 
L 359.468115 287.156577 
L 359.522233 252.512841 
L 359.630469 269.49555 
L 359.792824 256.784222 
L 359.846942 259.839713 
L 359.90106 256.778691 
L 360.063414 250.070525 
L 360.117532 251.576842 
L 360.334005 241.568526 
L 360.388123 240.089085 
L 360.712832 217.920745 
L 360.76695 217.499647 
L 360.821068 219.466104 
L 361.145776 248.265574 
L 361.199895 248.417781 
L 361.470485 244.391731 
L 361.741076 241.359383 
L 362.119902 244.558079 
L 362.282257 244.470766 
L 362.336375 244.085049 
L 362.390493 244.605922 
L 362.444611 244.058739 
L 362.661084 243.070372 
L 362.985792 241.145071 
L 363.03991 241.316515 
L 363.094028 241.207317 
L 363.256383 240.383498 
L 363.310501 240.713912 
L 363.526973 231.129846 
L 363.689328 239.356231 
L 363.743446 241.999926 
L 363.797564 239.912113 
L 363.851682 241.588126 
L 363.9058 240.205271 
L 363.959918 240.025895 
L 364.068154 251.946914 
L 364.176391 124.71696 
L 364.230509 57.37185 
L 364.284627 97.877915 
L 364.392863 291.210701 
L 364.446981 254.97317 
L 364.555217 271.949509 
L 364.717572 258.923401 
L 364.77169 261.255265 
L 364.825808 259.245527 
L 364.988162 252.113343 
L 365.04228 253.852567 
L 365.691698 220.456103 
L 365.745816 221.762695 
L 366.178761 253.513705 
L 366.395233 249.276569 
L 366.611706 244.457035 
L 366.77406 245.368408 
L 366.828178 245.455623 
L 366.882296 245.310175 
L 367.04465 246.40778 
L 367.748186 241.231942 
L 367.802304 241.498173 
L 368.018776 231.200916 
L 368.127013 238.927084 
L 368.181131 238.486021 
L 368.235249 241.724392 
L 368.289367 239.731556 
L 368.343485 241.262944 
L 368.397603 239.676538 
L 368.451721 238.397889 
L 368.559958 249.071844 
L 368.614076 230.208118 
L 368.722312 64.923726 
L 368.77643 81.955882 
L 368.884666 287.823411 
L 368.938784 260.343942 
L 368.992902 256.945818 
L 369.047021 271.639229 
L 369.101139 257.002876 
L 369.155257 264.947669 
L 369.209375 257.700714 
L 369.371729 251.519662 
L 369.425847 254.53983 
L 369.588202 247.709822 
L 369.967028 228.047441 
L 370.183501 217.634377 
L 370.237619 218.616719 
L 370.616446 250.685215 
L 370.670564 250.79924 
L 370.7788 249.487649 
L 371.157627 241.670869 
L 371.211745 241.69445 
L 371.319981 242.291645 
L 371.536454 243.727531 
L 371.752926 242.924865 
L 371.807044 242.94154 
L 371.91528 242.178885 
L 371.969399 242.244603 
L 372.023517 242.233285 
L 372.456462 239.753354 
L 372.618816 230.313458 
L 372.835288 240.97505 
L 372.889406 240.714822 
L 372.943525 239.843096 
L 372.997643 240.973663 
L 373.051761 238.779485 
L 373.214115 248.625038 
L 373.376469 64.862976 
L 373.538824 278.310796 
L 373.592942 251.209568 
L 373.64706 273.365763 
L 373.701178 263.75 
L 373.755296 263.104731 
L 373.809414 265.907019 
L 373.971769 255.435845 
L 374.025887 257.124764 
L 374.621186 227.702423 
L 374.837658 219.403953 
L 375.000013 237.513509 
L 375.216485 253.385796 
L 375.270603 253.782751 
L 375.487076 250.248304 
L 375.757666 243.957401 
L 375.811784 243.6163 
L 376.136493 246.349891 
L 376.190611 246.253083 
L 376.244729 246.037718 
L 376.298847 246.442521 
L 376.352965 246.363876 
L 376.569438 244.856392 
L 376.623556 244.960692 
L 376.948265 243.393388 
L 377.164737 241.280913 
L 377.218855 241.48774 
L 377.435328 240.050858 
L 377.543564 240.015416 
L 377.597682 241.24754 
L 377.6518 239.920225 
L 377.760036 231.253994 
L 377.814154 232.723316 
L 377.976509 240.130568 
L 378.030627 240.747968 
L 378.192981 238.915913 
L 378.301217 246.632265 
L 378.355336 250.633182 
L 378.51769 62.193849 
L 378.571808 132.217382 
L 378.680044 282.192931 
L 378.734162 250.072449 
L 378.78828 271.265725 
L 378.842399 265.769956 
L 378.896517 260.960641 
L 378.950635 266.526728 
L 379.112989 255.467947 
L 379.221225 254.241088 
L 379.38358 246.969452 
L 379.437698 246.927065 
L 379.978879 213.847008 
L 380.087115 222.235719 
L 380.357706 249.528752 
L 380.411824 249.970991 
L 380.465942 249.773216 
L 380.682414 245.97263 
L 380.953005 240.388456 
L 381.169477 241.875118 
L 381.277714 243.123701 
L 381.331832 243.07286 
L 381.440068 243.254512 
L 381.65654 242.860618 
L 381.873013 241.087908 
L 382.143603 239.94087 
L 382.414194 238.258509 
L 382.468312 238.849071 
L 382.630666 237.465181 
L 382.684784 237.306718 
L 382.738903 238.743466 
L 382.793021 237.655576 
L 382.901257 229.950387 
L 382.955375 230.106167 
L 383.117729 236.67279 
L 383.225966 236.640975 
L 383.280084 237.953022 
L 383.334202 236.333913 
L 383.38832 237.240541 
L 383.496556 247.752926 
L 383.65891 53.568 
L 383.713029 116.932772 
L 383.821265 284.81933 
L 383.875383 249.302546 
L 383.929501 266.87294 
L 383.983619 265.381684 
L 384.145973 255.216942 
L 384.200092 259.405294 
L 384.25421 255.037273 
L 384.308328 254.166801 
L 384.362446 254.279577 
L 384.5248 248.004918 
L 384.578918 247.792571 
L 384.957745 226.040562 
L 385.120099 219.279176 
L 385.174218 220.60028 
L 385.553044 255.034152 
L 385.607162 254.924164 
L 385.715399 253.280049 
L 386.040107 247.356847 
L 386.094225 247.442534 
L 386.418934 249.509705 
L 386.689525 249.046422 
L 386.960115 247.052618 
L 387.338942 245.013082 
L 387.39306 245.268712 
L 387.555414 235.871755 
L 387.609532 236.630099 
L 387.771887 244.338719 
L 387.826005 245.376094 
L 387.880123 243.721941 
L 387.934241 245.581633 
L 387.988359 243.268287 
L 388.042477 244.379865 
L 388.150714 252.93469 
L 388.313068 63.520094 
L 388.367186 126.767717 
L 388.475422 289.245281 
L 388.52954 253.343464 
L 388.583658 271.52492 
L 388.637777 269.639155 
L 388.800131 258.198707 
L 388.854249 262.803565 
L 389.070721 251.926075 
L 389.12484 253.339393 
L 389.341312 242.876109 
L 389.449548 236.467019 
L 389.774257 216.799681 
L 389.828375 218.978317 
L 390.207202 251.75174 
L 390.26132 251.489677 
L 390.423674 247.31181 
L 390.694265 241.647516 
L 390.802501 240.344593 
L 390.856619 240.488487 
L 391.018973 241.222539 
L 391.343682 239.41025 
L 391.776627 235.498207 
L 391.993099 234.016464 
L 392.209572 224.756735 
L 392.371926 232.563143 
L 392.426044 235.617356 
L 392.480162 233.319086 
L 392.534281 234.976454 
L 392.588399 233.344368 
L 392.642517 234.184907 
L 392.750753 245.232333 
L 392.858989 113.088486 
L 392.913107 54.301612 
L 392.967225 99.748586 
L 393.075462 283.272475 
L 393.12958 248.22693 
L 393.237816 265.813324 
L 393.40017 253.210775 
L 393.454288 256.211547 
L 393.508407 253.767467 
L 393.670761 247.492101 
L 393.724879 249.099564 
L 393.941351 240.482158 
L 394.049588 234.580904 
L 394.26606 220.185964 
L 394.374296 216.748817 
L 394.482533 225.289052 
L 394.807241 256.417092 
L 394.861359 256.862648 
L 394.915477 256.738963 
L 395.13195 252.576518 
L 395.240186 251.205092 
L 395.294304 251.396816 
L 395.348422 251.189376 
L 395.40254 251.365658 
L 395.889603 255.216491 
L 395.99784 254.772465 
L 396.051958 254.883128 
L 396.376666 252.260787 
L 396.484903 251.792957 
L 396.593139 250.463689 
L 396.809611 239.793073 
L 396.971966 247.370807 
L 397.026084 249.81045 
L 397.188438 245.805479 
L 397.242556 245.32925 
L 397.350792 256.177455 
L 397.404911 228.632066 
L 397.513147 62.767145 
L 397.567265 95.507977 
L 397.675501 287.73877 
L 397.729619 254.252141 
L 397.837855 268.625661 
L 398.00021 251.68088 
L 398.054328 251.64869 
L 398.108446 249.85151 
L 398.2708 238.492744 
L 398.324918 238.838285 
L 398.487273 229.504071 
L 398.487273 229.504071 
" clip-path="url(#pcd63e83f7e)" style="fill: none; stroke: #1f77b4; stroke-width: 1.5; stroke-linecap: square"/>
   </g>
   <g id="patch_3">
    <path d="M 57.6 307.584 
L 57.6 41.472 
" style="fill: none; stroke: #000000; stroke-width: 0.8; stroke-linejoin: miter; stroke-linecap: square"/>
   </g>
   <g id="patch_4">
    <path d="M 414.72 307.584 
L 414.72 41.472 
" style="fill: none; stroke: #000000; stroke-width: 0.8; stroke-linejoin: miter; stroke-linecap: square"/>
   </g>
   <g id="patch_5">
    <path d="M 57.6 307.584 
L 414.72 307.584 
" style="fill: none; stroke: #000000; stroke-width: 0.8; stroke-linejoin: miter; stroke-linecap: square"/>
   </g>
   <g id="patch_6">
    <path d="M 57.6 41.472 
L 414.72 41.472 
" style="fill: none; stroke: #000000; stroke-width: 0.8; stroke-linejoin: miter; stroke-linecap: square"/>
   </g>
  </g>
 </g>
 <defs>
  <clipPath id="pcd63e83f7e">
   <rect x="57.6" y="41.472" width="357.12" height="266.112"/>
  </clipPath>
 </defs>
</svg>
