<?xml version="1.0" encoding="utf-8" standalone="no"?>
<!DOCTYPE svg PUBLIC "-//W3C//DTD SVG 1.1//EN"
  "http://www.w3.org/Graphics/SVG/1.1/DTD/svg11.dtd">
<svg xmlns:xlink="http://www.w3.org/1999/xlink" width="460.8pt" height="345.6pt" viewBox="0 0 460.8 345.6" xmlns="http://www.w3.org/2000/svg" version="1.1">
 <metadata>
  <rdf:RDF xmlns:dc="http://purl.org/dc/elements/1.1/" xmlns:cc="http://creativecommons.org/ns#" xmlns:rdf="http://www.w3.org/1999/02/22-rdf-syntax-ns#">
   <cc:Work>
    <dc:type rdf:resource="http://purl.org/dc/dcmitype/StillImage"/>
    <dc:date>2024-06-05T08:34:00.196188</dc:date>
    <dc:format>image/svg+xml</dc:format>
    <dc:creator>
     <cc:Agent>
      <dc:title>Matplotlib v3.8.2, https://matplotlib.org/</dc:title>
     </cc:Agent>
    </dc:creator>
   </cc:Work>
  </rdf:RDF>
 </metadata>
 <defs>
  <style type="text/css">*{stroke-linejoin: round; stroke-linecap: butt}</style>
 </defs>
 <g id="figure_1">
  <g id="patch_1">
   <path d="M 0 345.6 
L 460.8 345.6 
L 460.8 0 
L 0 0 
z
" style="fill: #ffffff"/>
  </g>
  <g id="axes_1">
   <g id="patch_2">
    <path d="M 57.6 307.584 
L 414.72 307.584 
L 414.72 41.472 
L 57.6 41.472 
z
" style="fill: #ffffff"/>
   </g>
   <g id="matplotlib.axis_1">
    <g id="xtick_1">
     <g id="line2d_1">
      <defs>
       <path id="m6702524dde" d="M 0 0 
L 0 3.5 
" style="stroke: #000000; stroke-width: 0.8"/>
      </defs>
      <g>
       <use xlink:href="#m6702524dde" x="93.312" y="307.584" style="stroke: #000000; stroke-width: 0.8"/>
      </g>
     </g>
     <g id="text_1">
      <!-- −40 -->
      <g transform="translate(82.759656 322.182437) scale(0.1 -0.1)">
       <defs>
        <path id="DejaVuSans-2212" d="M 678 2272 
L 4684 2272 
L 4684 1741 
L 678 1741 
L 678 2272 
z
" transform="scale(0.015625)"/>
        <path id="DejaVuSans-34" d="M 2419 4116 
L 825 1625 
L 2419 1625 
L 2419 4116 
z
M 2253 4666 
L 3047 4666 
L 3047 1625 
L 3713 1625 
L 3713 1100 
L 3047 1100 
L 3047 0 
L 2419 0 
L 2419 1100 
L 313 1100 
L 313 1709 
L 2253 4666 
z
" transform="scale(0.015625)"/>
        <path id="DejaVuSans-30" d="M 2034 4250 
Q 1547 4250 1301 3770 
Q 1056 3291 1056 2328 
Q 1056 1369 1301 889 
Q 1547 409 2034 409 
Q 2525 409 2770 889 
Q 3016 1369 3016 2328 
Q 3016 3291 2770 3770 
Q 2525 4250 2034 4250 
z
M 2034 4750 
Q 2819 4750 3233 4129 
Q 3647 3509 3647 2328 
Q 3647 1150 3233 529 
Q 2819 -91 2034 -91 
Q 1250 -91 836 529 
Q 422 1150 422 2328 
Q 422 3509 836 4129 
Q 1250 4750 2034 4750 
z
" transform="scale(0.015625)"/>
       </defs>
       <use xlink:href="#DejaVuSans-2212"/>
       <use xlink:href="#DejaVuSans-34" x="83.789062"/>
       <use xlink:href="#DejaVuSans-30" x="147.412109"/>
      </g>
     </g>
    </g>
    <g id="xtick_2">
     <g id="line2d_2">
      <g>
       <use xlink:href="#m6702524dde" x="164.736" y="307.584" style="stroke: #000000; stroke-width: 0.8"/>
      </g>
     </g>
     <g id="text_2">
      <!-- −20 -->
      <g transform="translate(154.183656 322.182437) scale(0.1 -0.1)">
       <defs>
        <path id="DejaVuSans-32" d="M 1228 531 
L 3431 531 
L 3431 0 
L 469 0 
L 469 531 
Q 828 903 1448 1529 
Q 2069 2156 2228 2338 
Q 2531 2678 2651 2914 
Q 2772 3150 2772 3378 
Q 2772 3750 2511 3984 
Q 2250 4219 1831 4219 
Q 1534 4219 1204 4116 
Q 875 4013 500 3803 
L 500 4441 
Q 881 4594 1212 4672 
Q 1544 4750 1819 4750 
Q 2544 4750 2975 4387 
Q 3406 4025 3406 3419 
Q 3406 3131 3298 2873 
Q 3191 2616 2906 2266 
Q 2828 2175 2409 1742 
Q 1991 1309 1228 531 
z
" transform="scale(0.015625)"/>
       </defs>
       <use xlink:href="#DejaVuSans-2212"/>
       <use xlink:href="#DejaVuSans-32" x="83.789062"/>
       <use xlink:href="#DejaVuSans-30" x="147.412109"/>
      </g>
     </g>
    </g>
    <g id="xtick_3">
     <g id="line2d_3">
      <g>
       <use xlink:href="#m6702524dde" x="236.16" y="307.584" style="stroke: #000000; stroke-width: 0.8"/>
      </g>
     </g>
     <g id="text_3">
      <!-- 0 -->
      <g transform="translate(232.97875 322.182437) scale(0.1 -0.1)">
       <use xlink:href="#DejaVuSans-30"/>
      </g>
     </g>
    </g>
    <g id="xtick_4">
     <g id="line2d_4">
      <g>
       <use xlink:href="#m6702524dde" x="307.584" y="307.584" style="stroke: #000000; stroke-width: 0.8"/>
      </g>
     </g>
     <g id="text_4">
      <!-- 20 -->
      <g transform="translate(301.2215 322.182437) scale(0.1 -0.1)">
       <use xlink:href="#DejaVuSans-32"/>
       <use xlink:href="#DejaVuSans-30" x="63.623047"/>
      </g>
     </g>
    </g>
    <g id="xtick_5">
     <g id="line2d_5">
      <g>
       <use xlink:href="#m6702524dde" x="379.008" y="307.584" style="stroke: #000000; stroke-width: 0.8"/>
      </g>
     </g>
     <g id="text_5">
      <!-- 40 -->
      <g transform="translate(372.6455 322.182437) scale(0.1 -0.1)">
       <use xlink:href="#DejaVuSans-34"/>
       <use xlink:href="#DejaVuSans-30" x="63.623047"/>
      </g>
     </g>
    </g>
    <g id="text_6">
     <!-- Frequency [$Hz$] -->
     <g transform="translate(197.96 335.862125) scale(0.1 -0.1)">
      <defs>
       <path id="DejaVuSans-46" d="M 628 4666 
L 3309 4666 
L 3309 4134 
L 1259 4134 
L 1259 2759 
L 3109 2759 
L 3109 2228 
L 1259 2228 
L 1259 0 
L 628 0 
L 628 4666 
z
" transform="scale(0.015625)"/>
       <path id="DejaVuSans-72" d="M 2631 2963 
Q 2534 3019 2420 3045 
Q 2306 3072 2169 3072 
Q 1681 3072 1420 2755 
Q 1159 2438 1159 1844 
L 1159 0 
L 581 0 
L 581 3500 
L 1159 3500 
L 1159 2956 
Q 1341 3275 1631 3429 
Q 1922 3584 2338 3584 
Q 2397 3584 2469 3576 
Q 2541 3569 2628 3553 
L 2631 2963 
z
" transform="scale(0.015625)"/>
       <path id="DejaVuSans-65" d="M 3597 1894 
L 3597 1613 
L 953 1613 
Q 991 1019 1311 708 
Q 1631 397 2203 397 
Q 2534 397 2845 478 
Q 3156 559 3463 722 
L 3463 178 
Q 3153 47 2828 -22 
Q 2503 -91 2169 -91 
Q 1331 -91 842 396 
Q 353 884 353 1716 
Q 353 2575 817 3079 
Q 1281 3584 2069 3584 
Q 2775 3584 3186 3129 
Q 3597 2675 3597 1894 
z
M 3022 2063 
Q 3016 2534 2758 2815 
Q 2500 3097 2075 3097 
Q 1594 3097 1305 2825 
Q 1016 2553 972 2059 
L 3022 2063 
z
" transform="scale(0.015625)"/>
       <path id="DejaVuSans-71" d="M 947 1747 
Q 947 1113 1208 752 
Q 1469 391 1925 391 
Q 2381 391 2643 752 
Q 2906 1113 2906 1747 
Q 2906 2381 2643 2742 
Q 2381 3103 1925 3103 
Q 1469 3103 1208 2742 
Q 947 2381 947 1747 
z
M 2906 525 
Q 2725 213 2448 61 
Q 2172 -91 1784 -91 
Q 1150 -91 751 415 
Q 353 922 353 1747 
Q 353 2572 751 3078 
Q 1150 3584 1784 3584 
Q 2172 3584 2448 3432 
Q 2725 3281 2906 2969 
L 2906 3500 
L 3481 3500 
L 3481 -1331 
L 2906 -1331 
L 2906 525 
z
" transform="scale(0.015625)"/>
       <path id="DejaVuSans-75" d="M 544 1381 
L 544 3500 
L 1119 3500 
L 1119 1403 
Q 1119 906 1312 657 
Q 1506 409 1894 409 
Q 2359 409 2629 706 
Q 2900 1003 2900 1516 
L 2900 3500 
L 3475 3500 
L 3475 0 
L 2900 0 
L 2900 538 
Q 2691 219 2414 64 
Q 2138 -91 1772 -91 
Q 1169 -91 856 284 
Q 544 659 544 1381 
z
M 1991 3584 
L 1991 3584 
z
" transform="scale(0.015625)"/>
       <path id="DejaVuSans-6e" d="M 3513 2113 
L 3513 0 
L 2938 0 
L 2938 2094 
Q 2938 2591 2744 2837 
Q 2550 3084 2163 3084 
Q 1697 3084 1428 2787 
Q 1159 2491 1159 1978 
L 1159 0 
L 581 0 
L 581 3500 
L 1159 3500 
L 1159 2956 
Q 1366 3272 1645 3428 
Q 1925 3584 2291 3584 
Q 2894 3584 3203 3211 
Q 3513 2838 3513 2113 
z
" transform="scale(0.015625)"/>
       <path id="DejaVuSans-63" d="M 3122 3366 
L 3122 2828 
Q 2878 2963 2633 3030 
Q 2388 3097 2138 3097 
Q 1578 3097 1268 2742 
Q 959 2388 959 1747 
Q 959 1106 1268 751 
Q 1578 397 2138 397 
Q 2388 397 2633 464 
Q 2878 531 3122 666 
L 3122 134 
Q 2881 22 2623 -34 
Q 2366 -91 2075 -91 
Q 1284 -91 818 406 
Q 353 903 353 1747 
Q 353 2603 823 3093 
Q 1294 3584 2113 3584 
Q 2378 3584 2631 3529 
Q 2884 3475 3122 3366 
z
" transform="scale(0.015625)"/>
       <path id="DejaVuSans-79" d="M 2059 -325 
Q 1816 -950 1584 -1140 
Q 1353 -1331 966 -1331 
L 506 -1331 
L 506 -850 
L 844 -850 
Q 1081 -850 1212 -737 
Q 1344 -625 1503 -206 
L 1606 56 
L 191 3500 
L 800 3500 
L 1894 763 
L 2988 3500 
L 3597 3500 
L 2059 -325 
z
" transform="scale(0.015625)"/>
       <path id="DejaVuSans-20" transform="scale(0.015625)"/>
       <path id="DejaVuSans-5b" d="M 550 4863 
L 1875 4863 
L 1875 4416 
L 1125 4416 
L 1125 -397 
L 1875 -397 
L 1875 -844 
L 550 -844 
L 550 4863 
z
" transform="scale(0.015625)"/>
       <path id="DejaVuSans-Oblique-48" d="M 1081 4666 
L 1716 4666 
L 1344 2753 
L 3634 2753 
L 4006 4666 
L 4641 4666 
L 3731 0 
L 3097 0 
L 3531 2222 
L 1241 2222 
L 806 0 
L 172 0 
L 1081 4666 
z
" transform="scale(0.015625)"/>
       <path id="DejaVuSans-Oblique-7a" d="M 744 3500 
L 3475 3500 
L 3372 2975 
L 738 459 
L 2913 459 
L 2822 0 
L -19 0 
L 84 525 
L 2719 3041 
L 653 3041 
L 744 3500 
z
" transform="scale(0.015625)"/>
       <path id="DejaVuSans-5d" d="M 1947 4863 
L 1947 -844 
L 622 -844 
L 622 -397 
L 1369 -397 
L 1369 4416 
L 622 4416 
L 622 4863 
L 1947 4863 
z
" transform="scale(0.015625)"/>
      </defs>
      <use xlink:href="#DejaVuSans-46" transform="translate(0 0.015625)"/>
      <use xlink:href="#DejaVuSans-72" transform="translate(57.519531 0.015625)"/>
      <use xlink:href="#DejaVuSans-65" transform="translate(98.632812 0.015625)"/>
      <use xlink:href="#DejaVuSans-71" transform="translate(160.15625 0.015625)"/>
      <use xlink:href="#DejaVuSans-75" transform="translate(223.632812 0.015625)"/>
      <use xlink:href="#DejaVuSans-65" transform="translate(287.011719 0.015625)"/>
      <use xlink:href="#DejaVuSans-6e" transform="translate(348.535156 0.015625)"/>
      <use xlink:href="#DejaVuSans-63" transform="translate(411.914062 0.015625)"/>
      <use xlink:href="#DejaVuSans-79" transform="translate(466.894531 0.015625)"/>
      <use xlink:href="#DejaVuSans-20" transform="translate(526.074219 0.015625)"/>
      <use xlink:href="#DejaVuSans-5b" transform="translate(557.861328 0.015625)"/>
      <use xlink:href="#DejaVuSans-Oblique-48" transform="translate(596.875 0.015625)"/>
      <use xlink:href="#DejaVuSans-Oblique-7a" transform="translate(672.070312 0.015625)"/>
      <use xlink:href="#DejaVuSans-5d" transform="translate(724.560547 0.015625)"/>
     </g>
    </g>
   </g>
   <g id="matplotlib.axis_2">
    <g id="ytick_1">
     <g id="line2d_6">
      <defs>
       <path id="m3f744a36fa" d="M 0 0 
L -3.5 0 
" style="stroke: #000000; stroke-width: 0.8"/>
      </defs>
      <g>
       <use xlink:href="#m3f744a36fa" x="57.6" y="278.728708" style="stroke: #000000; stroke-width: 0.8"/>
      </g>
     </g>
     <g id="text_7">
      <!-- −20 -->
      <g transform="translate(29.495313 282.527926) scale(0.1 -0.1)">
       <use xlink:href="#DejaVuSans-2212"/>
       <use xlink:href="#DejaVuSans-32" x="83.789062"/>
       <use xlink:href="#DejaVuSans-30" x="147.412109"/>
      </g>
     </g>
    </g>
    <g id="ytick_2">
     <g id="line2d_7">
      <g>
       <use xlink:href="#m3f744a36fa" x="57.6" y="221.018123" style="stroke: #000000; stroke-width: 0.8"/>
      </g>
     </g>
     <g id="text_8">
      <!-- −10 -->
      <g transform="translate(29.495313 224.817341) scale(0.1 -0.1)">
       <defs>
        <path id="DejaVuSans-31" d="M 794 531 
L 1825 531 
L 1825 4091 
L 703 3866 
L 703 4441 
L 1819 4666 
L 2450 4666 
L 2450 531 
L 3481 531 
L 3481 0 
L 794 0 
L 794 531 
z
" transform="scale(0.015625)"/>
       </defs>
       <use xlink:href="#DejaVuSans-2212"/>
       <use xlink:href="#DejaVuSans-31" x="83.789062"/>
       <use xlink:href="#DejaVuSans-30" x="147.412109"/>
      </g>
     </g>
    </g>
    <g id="ytick_3">
     <g id="line2d_8">
      <g>
       <use xlink:href="#m3f744a36fa" x="57.6" y="163.307538" style="stroke: #000000; stroke-width: 0.8"/>
      </g>
     </g>
     <g id="text_9">
      <!-- 0 -->
      <g transform="translate(44.2375 167.106756) scale(0.1 -0.1)">
       <use xlink:href="#DejaVuSans-30"/>
      </g>
     </g>
    </g>
    <g id="ytick_4">
     <g id="line2d_9">
      <g>
       <use xlink:href="#m3f744a36fa" x="57.6" y="105.596953" style="stroke: #000000; stroke-width: 0.8"/>
      </g>
     </g>
     <g id="text_10">
      <!-- 10 -->
      <g transform="translate(37.875 109.396172) scale(0.1 -0.1)">
       <use xlink:href="#DejaVuSans-31"/>
       <use xlink:href="#DejaVuSans-30" x="63.623047"/>
      </g>
     </g>
    </g>
    <g id="ytick_5">
     <g id="line2d_10">
      <g>
       <use xlink:href="#m3f744a36fa" x="57.6" y="47.886368" style="stroke: #000000; stroke-width: 0.8"/>
      </g>
     </g>
     <g id="text_11">
      <!-- 20 -->
      <g transform="translate(37.875 51.685587) scale(0.1 -0.1)">
       <use xlink:href="#DejaVuSans-32"/>
       <use xlink:href="#DejaVuSans-30" x="63.623047"/>
      </g>
     </g>
    </g>
    <g id="text_12">
     <!-- Amplitude [dB] -->
     <g transform="translate(23.415625 212.245969) rotate(-90) scale(0.1 -0.1)">
      <defs>
       <path id="DejaVuSans-41" d="M 2188 4044 
L 1331 1722 
L 3047 1722 
L 2188 4044 
z
M 1831 4666 
L 2547 4666 
L 4325 0 
L 3669 0 
L 3244 1197 
L 1141 1197 
L 716 0 
L 50 0 
L 1831 4666 
z
" transform="scale(0.015625)"/>
       <path id="DejaVuSans-6d" d="M 3328 2828 
Q 3544 3216 3844 3400 
Q 4144 3584 4550 3584 
Q 5097 3584 5394 3201 
Q 5691 2819 5691 2113 
L 5691 0 
L 5113 0 
L 5113 2094 
Q 5113 2597 4934 2840 
Q 4756 3084 4391 3084 
Q 3944 3084 3684 2787 
Q 3425 2491 3425 1978 
L 3425 0 
L 2847 0 
L 2847 2094 
Q 2847 2600 2669 2842 
Q 2491 3084 2119 3084 
Q 1678 3084 1418 2786 
Q 1159 2488 1159 1978 
L 1159 0 
L 581 0 
L 581 3500 
L 1159 3500 
L 1159 2956 
Q 1356 3278 1631 3431 
Q 1906 3584 2284 3584 
Q 2666 3584 2933 3390 
Q 3200 3197 3328 2828 
z
" transform="scale(0.015625)"/>
       <path id="DejaVuSans-70" d="M 1159 525 
L 1159 -1331 
L 581 -1331 
L 581 3500 
L 1159 3500 
L 1159 2969 
Q 1341 3281 1617 3432 
Q 1894 3584 2278 3584 
Q 2916 3584 3314 3078 
Q 3713 2572 3713 1747 
Q 3713 922 3314 415 
Q 2916 -91 2278 -91 
Q 1894 -91 1617 61 
Q 1341 213 1159 525 
z
M 3116 1747 
Q 3116 2381 2855 2742 
Q 2594 3103 2138 3103 
Q 1681 3103 1420 2742 
Q 1159 2381 1159 1747 
Q 1159 1113 1420 752 
Q 1681 391 2138 391 
Q 2594 391 2855 752 
Q 3116 1113 3116 1747 
z
" transform="scale(0.015625)"/>
       <path id="DejaVuSans-6c" d="M 603 4863 
L 1178 4863 
L 1178 0 
L 603 0 
L 603 4863 
z
" transform="scale(0.015625)"/>
       <path id="DejaVuSans-69" d="M 603 3500 
L 1178 3500 
L 1178 0 
L 603 0 
L 603 3500 
z
M 603 4863 
L 1178 4863 
L 1178 4134 
L 603 4134 
L 603 4863 
z
" transform="scale(0.015625)"/>
       <path id="DejaVuSans-74" d="M 1172 4494 
L 1172 3500 
L 2356 3500 
L 2356 3053 
L 1172 3053 
L 1172 1153 
Q 1172 725 1289 603 
Q 1406 481 1766 481 
L 2356 481 
L 2356 0 
L 1766 0 
Q 1100 0 847 248 
Q 594 497 594 1153 
L 594 3053 
L 172 3053 
L 172 3500 
L 594 3500 
L 594 4494 
L 1172 4494 
z
" transform="scale(0.015625)"/>
       <path id="DejaVuSans-64" d="M 2906 2969 
L 2906 4863 
L 3481 4863 
L 3481 0 
L 2906 0 
L 2906 525 
Q 2725 213 2448 61 
Q 2172 -91 1784 -91 
Q 1150 -91 751 415 
Q 353 922 353 1747 
Q 353 2572 751 3078 
Q 1150 3584 1784 3584 
Q 2172 3584 2448 3432 
Q 2725 3281 2906 2969 
z
M 947 1747 
Q 947 1113 1208 752 
Q 1469 391 1925 391 
Q 2381 391 2643 752 
Q 2906 1113 2906 1747 
Q 2906 2381 2643 2742 
Q 2381 3103 1925 3103 
Q 1469 3103 1208 2742 
Q 947 2381 947 1747 
z
" transform="scale(0.015625)"/>
       <path id="DejaVuSans-42" d="M 1259 2228 
L 1259 519 
L 2272 519 
Q 2781 519 3026 730 
Q 3272 941 3272 1375 
Q 3272 1813 3026 2020 
Q 2781 2228 2272 2228 
L 1259 2228 
z
M 1259 4147 
L 1259 2741 
L 2194 2741 
Q 2656 2741 2882 2914 
Q 3109 3088 3109 3444 
Q 3109 3797 2882 3972 
Q 2656 4147 2194 4147 
L 1259 4147 
z
M 628 4666 
L 2241 4666 
Q 2963 4666 3353 4366 
Q 3744 4066 3744 3513 
Q 3744 3084 3544 2831 
Q 3344 2578 2956 2516 
Q 3422 2416 3680 2098 
Q 3938 1781 3938 1306 
Q 3938 681 3513 340 
Q 3088 0 2303 0 
L 628 0 
L 628 4666 
z
" transform="scale(0.015625)"/>
      </defs>
      <use xlink:href="#DejaVuSans-41"/>
      <use xlink:href="#DejaVuSans-6d" x="68.408203"/>
      <use xlink:href="#DejaVuSans-70" x="165.820312"/>
      <use xlink:href="#DejaVuSans-6c" x="229.296875"/>
      <use xlink:href="#DejaVuSans-69" x="257.080078"/>
      <use xlink:href="#DejaVuSans-74" x="284.863281"/>
      <use xlink:href="#DejaVuSans-75" x="324.072266"/>
      <use xlink:href="#DejaVuSans-64" x="387.451172"/>
      <use xlink:href="#DejaVuSans-65" x="450.927734"/>
      <use xlink:href="#DejaVuSans-20" x="512.451172"/>
      <use xlink:href="#DejaVuSans-5b" x="544.238281"/>
      <use xlink:href="#DejaVuSans-64" x="583.251953"/>
      <use xlink:href="#DejaVuSans-42" x="646.728516"/>
      <use xlink:href="#DejaVuSans-5d" x="715.332031"/>
     </g>
    </g>
   </g>
   <g id="line2d_11">
    <path d="M 57.6 245.749595 
L 58.31424 245.646969 
L 59.11776 245.285263 
L 60.45696 244.156567 
L 60.54624 243.810527 
L 60.63552 244.0415 
L 60.81408 243.46351 
L 60.90336 243.510395 
L 60.99264 243.41834 
L 61.08192 244.093422 
L 61.1712 242.742334 
L 61.26048 243.826642 
L 61.34976 242.585225 
L 61.43904 242.928236 
L 61.52832 244.446258 
L 61.6176 242.21928 
L 61.70688 244.160147 
L 61.79616 241.826759 
L 61.88544 242.171118 
L 61.97472 243.145764 
L 62.064 241.021801 
L 62.15328 241.376243 
L 62.24256 240.206756 
L 62.33184 243.155385 
L 62.59968 239.392968 
L 62.68896 240.901349 
L 62.77824 240.020263 
L 62.86752 243.388456 
L 62.9568 235.157869 
L 63.04608 238.955358 
L 63.13536 238.489579 
L 63.22464 227.814664 
L 63.31392 250.34155 
L 63.49248 230.681586 
L 63.58176 237.297991 
L 63.67104 230.464745 
L 63.76032 249.59081 
L 63.8496 227.821491 
L 63.93888 241.579856 
L 64.11744 223.758801 
L 64.20672 253.150634 
L 64.38528 231.010446 
L 64.56384 242.553844 
L 64.65312 228.672345 
L 64.7424 232.161787 
L 64.83168 255.702838 
L 64.92096 214.367894 
L 65.01024 258.466029 
L 65.09952 217.605509 
L 65.1888 238.295603 
L 65.27808 218.504179 
L 65.36736 218.656903 
L 65.45664 211.250778 
L 65.54592 220.047711 
L 65.6352 249.028999 
L 65.81376 206.254266 
L 65.99232 242.883747 
L 66.0816 203.981325 
L 66.17088 260.232234 
L 66.26016 209.317565 
L 66.34944 213.607233 
L 66.43872 249.671398 
L 66.61728 205.419753 
L 66.79584 190.782556 
L 66.9744 210.778358 
L 67.15296 190.576606 
L 67.24224 198.180181 
L 67.33152 193.393342 
L 67.51008 220.791812 
L 67.59936 193.424641 
L 67.68864 235.160103 
L 67.8672 172.94281 
L 67.95648 196.762948 
L 68.04576 164.431393 
L 68.13504 188.613267 
L 68.22432 172.878929 
L 68.3136 181.842579 
L 68.40288 181.473427 
L 68.49216 173.118682 
L 68.58144 190.936504 
L 68.67072 185.411476 
L 68.76 189.539212 
L 68.84928 183.584525 
L 69.02784 224.145919 
L 69.11712 179.182105 
L 69.2064 204.373833 
L 69.38496 176.919171 
L 69.47424 196.452202 
L 69.6528 169.853635 
L 69.74208 193.297621 
L 69.92064 160.282526 
L 70.00992 160.402173 
L 70.18848 186.347889 
L 70.36704 152.755469 
L 70.45632 146.072592 
L 70.5456 174.705925 
L 70.72416 140.01023 
L 70.81344 171.70792 
L 70.90272 167.745289 
L 70.992 176.565315 
L 71.08128 154.156849 
L 71.17056 167.901245 
L 71.34912 140.605208 
L 71.4384 140.87671 
L 71.52768 133.162175 
L 71.61696 158.43569 
L 71.8848 126.600927 
L 72.06336 157.665866 
L 72.15264 156.071855 
L 72.3312 144.064417 
L 72.42048 173.077324 
L 72.50976 135.26898 
L 72.59904 144.697444 
L 72.68832 137.820895 
L 72.86688 151.913683 
L 72.95616 132.259816 
L 73.04544 140.44299 
L 73.13472 140.401067 
L 73.224 123.924174 
L 73.31328 149.733648 
L 73.40256 131.449431 
L 73.49184 148.298671 
L 73.58112 135.766372 
L 73.6704 136.290198 
L 74.02752 121.587594 
L 74.20608 174.116645 
L 74.38464 120.730868 
L 74.5632 114.40512 
L 74.65248 115.505662 
L 74.74176 135.346138 
L 74.83104 128.935398 
L 74.92032 132.506153 
L 75.0096 107.880074 
L 75.18816 117.690568 
L 75.27744 118.631708 
L 75.456 144.327865 
L 75.72384 109.178818 
L 75.81312 128.25646 
L 75.9024 108.144204 
L 76.08096 129.339263 
L 76.25952 121.457267 
L 76.3488 95.926737 
L 76.61664 130.983573 
L 76.70592 114.170445 
L 76.7952 137.51242 
L 76.97376 93.480298 
L 77.06304 152.889193 
L 77.15232 139.918762 
L 77.2416 121.810142 
L 77.33088 130.369448 
L 77.42016 124.490243 
L 77.50944 125.862261 
L 77.59872 160.759838 
L 77.688 137.729296 
L 77.77728 159.79749 
L 77.86656 116.110842 
L 77.95584 197.935447 
L 78.04512 133.517466 
L 78.1344 150.863509 
L 78.22368 125.672031 
L 78.31296 154.618852 
L 78.5808 119.576553 
L 78.67008 142.082364 
L 78.84864 119.45937 
L 78.93792 116.381335 
L 79.11648 131.572466 
L 79.20576 117.706919 
L 79.38432 135.77549 
L 79.4736 111.702572 
L 79.56288 133.893008 
L 79.74144 106.847012 
L 79.83072 124.102787 
L 80.00928 110.053095 
L 80.09856 102.672189 
L 80.27712 124.23314 
L 80.3664 122.293604 
L 80.45568 110.98697 
L 80.54496 129.242636 
L 80.63424 202.236844 
L 80.72352 114.605498 
L 80.8128 125.494228 
L 80.90208 150.470042 
L 80.99136 143.514653 
L 81.08064 118.645603 
L 81.16992 130.707172 
L 81.2592 101.781386 
L 81.34848 107.34032 
L 81.43776 116.838191 
L 81.52704 139.227904 
L 81.61632 110.05596 
L 81.79488 131.575932 
L 81.88416 157.442324 
L 81.97344 112.505751 
L 82.06272 123.226716 
L 82.152 123.191694 
L 82.24128 114.10426 
L 82.33056 135.358073 
L 82.68768 111.666986 
L 82.86624 123.267591 
L 82.95552 109.944332 
L 83.0448 114.606344 
L 83.13408 114.120849 
L 83.22336 134.098437 
L 83.40192 107.887136 
L 83.4912 108.662622 
L 83.58048 119.441457 
L 83.66976 110.038592 
L 83.75904 113.550683 
L 83.9376 140.979495 
L 84.11616 109.548954 
L 84.20544 99.965828 
L 84.384 137.446573 
L 84.65184 121.389105 
L 84.74112 122.661708 
L 84.8304 131.415022 
L 84.91968 160.489705 
L 85.00896 113.409564 
L 85.2768 147.501781 
L 85.36608 105.53587 
L 85.45536 110.910354 
L 85.54464 135.476877 
L 85.63392 103.755252 
L 85.7232 147.488569 
L 85.81248 145.20275 
L 85.99104 93.847672 
L 86.08032 151.317201 
L 86.1696 111.718896 
L 86.25888 117.772261 
L 86.34816 97.564584 
L 86.43744 115.531397 
L 86.52672 106.943332 
L 86.616 110.210844 
L 86.88384 94.254018 
L 86.97312 97.038178 
L 87.0624 137.456629 
L 87.24096 100.384623 
L 87.33024 97.013783 
L 87.41952 99.922448 
L 87.59808 124.629433 
L 87.68736 106.170472 
L 87.77664 118.358117 
L 87.9552 98.252284 
L 88.04448 111.150567 
L 88.13376 102.127073 
L 88.22304 105.108075 
L 88.4016 120.51161 
L 88.49088 107.208725 
L 88.58016 108.561025 
L 88.66944 114.24394 
L 88.75872 171.992386 
L 88.848 115.444624 
L 88.93728 130.878595 
L 89.02656 114.85556 
L 89.11584 145.642699 
L 89.20512 110.819393 
L 89.2944 114.097616 
L 89.38368 95.63867 
L 89.47296 106.138928 
L 89.56224 142.901071 
L 89.65152 108.074389 
L 89.7408 139.753165 
L 89.83008 101.010544 
L 90.00864 153.431359 
L 90.1872 100.852198 
L 90.27648 114.89394 
L 90.45504 125.251835 
L 90.54432 113.491463 
L 90.6336 131.473284 
L 90.72288 104.938877 
L 90.81216 126.218929 
L 90.99072 100.680926 
L 91.08 128.338731 
L 91.16928 102.569903 
L 91.25856 168.338101 
L 91.34784 120.747497 
L 91.5264 150.049827 
L 91.61568 149.500675 
L 91.70496 142.313014 
L 91.79424 106.774266 
L 91.88352 109.537465 
L 91.9728 111.928635 
L 92.06208 106.998279 
L 92.15136 116.404271 
L 92.24064 106.171233 
L 92.32992 111.061981 
L 92.4192 160.842947 
L 92.50848 114.575796 
L 92.59776 146.458425 
L 92.77632 102.944239 
L 92.8656 133.341827 
L 92.95488 125.992712 
L 93.04416 145.882414 
L 93.13344 116.361307 
L 93.22272 120.286588 
L 93.312 124.273189 
L 93.40128 162.690371 
L 93.49056 105.161811 
L 93.57984 119.32893 
L 93.66912 105.291007 
L 93.7584 127.212235 
L 93.84768 119.358041 
L 93.93696 136.95039 
L 94.02624 111.879283 
L 94.11552 115.492799 
L 94.38336 135.095684 
L 94.47264 105.21271 
L 94.6512 143.333895 
L 94.82976 108.379196 
L 94.91904 130.822701 
L 95.00832 102.983779 
L 95.0976 106.167101 
L 95.18688 110.210348 
L 95.36544 130.617959 
L 95.45472 103.381505 
L 95.63328 125.976879 
L 95.72256 149.408787 
L 95.90112 122.510748 
L 95.9904 108.164746 
L 96.16896 132.182922 
L 96.25824 95.814831 
L 96.4368 124.197044 
L 96.52608 100.014781 
L 96.61536 113.220233 
L 96.70464 143.629397 
L 96.79392 116.020045 
L 96.8832 120.71111 
L 96.97248 117.84332 
L 97.15104 135.622508 
L 97.24032 137.956746 
L 97.3296 136.908462 
L 97.41888 117.057179 
L 97.68672 136.063227 
L 97.776 124.174732 
L 97.86528 153.328492 
L 97.95456 119.323717 
L 98.04384 133.102164 
L 98.13312 122.889245 
L 98.2224 135.470516 
L 98.40096 99.754608 
L 98.6688 128.843773 
L 98.84736 106.542253 
L 98.93664 132.863053 
L 99.20448 100.2468 
L 99.29376 111.666464 
L 99.38304 104.210845 
L 99.47232 132.833736 
L 99.65088 112.079576 
L 99.74016 109.14337 
L 99.82944 112.139615 
L 99.91872 119.099001 
L 100.008 98.450763 
L 100.09728 99.566479 
L 100.18656 96.103664 
L 100.27584 116.58975 
L 100.36512 115.794926 
L 100.4544 115.803463 
L 100.54368 108.458589 
L 100.63296 113.900565 
L 100.72224 138.138261 
L 100.9008 106.325991 
L 100.99008 123.04184 
L 101.16864 97.95786 
L 101.25792 157.991382 
L 101.43648 111.029167 
L 101.52576 135.693985 
L 101.61504 130.186832 
L 101.70432 108.028801 
L 101.7936 128.86042 
L 102.06144 100.665089 
L 102.24 119.88759 
L 102.32928 119.780986 
L 102.41856 145.917913 
L 102.50784 101.116603 
L 102.6864 154.689715 
L 102.86496 104.705445 
L 102.95424 124.810462 
L 103.04352 124.221757 
L 103.1328 104.9619 
L 103.22208 170.011617 
L 103.40064 109.46538 
L 103.48992 95.74041 
L 103.5792 107.7217 
L 103.66848 100.30382 
L 103.75776 102.654235 
L 103.84704 133.588521 
L 103.93632 105.417483 
L 104.0256 118.106365 
L 104.11488 114.908565 
L 104.20416 119.433149 
L 104.29344 108.061076 
L 104.38272 160.097408 
L 104.472 106.324393 
L 104.56128 109.273501 
L 104.73984 100.629489 
L 104.82912 162.481512 
L 104.9184 95.901437 
L 105.18624 146.881427 
L 105.27552 95.572994 
L 105.3648 126.053567 
L 105.45408 125.325872 
L 105.72192 94.685192 
L 105.8112 100.677768 
L 105.98976 123.66193 
L 106.2576 111.62755 
L 106.34688 111.772325 
L 106.43616 119.433879 
L 106.52544 105.545532 
L 106.79328 137.28296 
L 106.88256 110.431235 
L 106.97184 112.626137 
L 107.06112 152.256308 
L 107.1504 144.413004 
L 107.23968 181.100008 
L 107.32896 106.639193 
L 107.41824 107.660281 
L 107.50752 112.566759 
L 107.5968 185.816944 
L 107.77536 104.853005 
L 107.86464 140.127134 
L 108.22176 87.482815 
L 108.31104 129.394357 
L 108.57888 106.407587 
L 108.66816 119.711226 
L 108.75744 105.298789 
L 108.84672 107.136414 
L 108.936 134.220354 
L 109.02528 102.155007 
L 109.11456 127.516201 
L 109.29312 95.295341 
L 109.3824 127.293768 
L 109.56096 90.26981 
L 109.73952 119.670156 
L 109.8288 119.75865 
L 110.00736 90.446566 
L 110.09664 109.880176 
L 110.18592 107.209999 
L 110.2752 102.288308 
L 110.36448 84.310629 
L 110.54304 105.563304 
L 110.81088 93.529379 
L 110.90016 109.24117 
L 110.98944 91.236518 
L 111.07872 97.741613 
L 111.168 89.306508 
L 111.34656 92.946551 
L 111.43584 87.339742 
L 111.52512 117.063676 
L 111.70368 87.421094 
L 111.88224 93.395225 
L 112.0608 116.297503 
L 112.15008 100.654121 
L 112.32864 134.578313 
L 112.41792 105.474231 
L 112.5072 106.630449 
L 112.59648 104.606673 
L 112.68576 150.715102 
L 112.77504 113.028008 
L 112.86432 115.120089 
L 112.9536 97.161384 
L 113.04288 98.720435 
L 113.13216 136.589195 
L 113.22144 107.764573 
L 113.31072 129.820101 
L 113.4 99.067173 
L 113.57856 124.145554 
L 113.66784 103.308962 
L 113.93568 157.115738 
L 114.02496 121.278374 
L 114.11424 124.350671 
L 114.20352 131.401109 
L 114.38208 100.965897 
L 114.47136 149.595008 
L 114.56064 94.507039 
L 114.64992 98.664467 
L 114.7392 104.036661 
L 114.82848 102.513096 
L 114.91776 114.973027 
L 115.00704 108.210672 
L 115.09632 89.481407 
L 115.27488 124.608967 
L 115.36416 107.296228 
L 115.45344 125.416436 
L 115.632 112.820174 
L 115.81056 126.264403 
L 116.0784 108.064813 
L 116.16768 139.976963 
L 116.25696 125.764945 
L 116.34624 135.535876 
L 116.43552 167.856773 
L 116.5248 115.77466 
L 116.61408 117.887487 
L 116.70336 113.613514 
L 116.79264 90.38418 
L 116.9712 122.366483 
L 117.06048 99.36504 
L 117.14976 112.098452 
L 117.32832 95.575387 
L 117.4176 112.182366 
L 117.50688 96.024681 
L 117.68544 148.319561 
L 117.77472 102.432807 
L 117.864 105.998551 
L 117.95328 108.158915 
L 118.04256 102.492075 
L 118.13184 88.88055 
L 118.22112 93.988564 
L 118.3104 135.208704 
L 118.48896 102.044568 
L 118.57824 105.118785 
L 118.66752 99.66225 
L 118.84608 132.531285 
L 118.93536 121.614338 
L 119.11392 105.803377 
L 119.2032 124.059919 
L 119.29248 120.504411 
L 119.47104 136.746715 
L 119.56032 119.243123 
L 119.6496 121.755963 
L 119.73888 123.800258 
L 120.00672 96.165577 
L 120.096 154.003353 
L 120.27456 106.531576 
L 120.36384 94.291332 
L 120.45312 120.230839 
L 120.5424 102.326405 
L 120.63168 111.90946 
L 120.72096 103.568572 
L 120.89952 113.356411 
L 120.9888 109.895439 
L 121.07808 134.004468 
L 121.25664 110.242675 
L 121.34592 139.428938 
L 121.4352 105.161248 
L 121.52448 108.57236 
L 121.61376 120.669062 
L 121.70304 92.596131 
L 121.8816 166.544046 
L 121.97088 124.900237 
L 122.06016 139.914608 
L 122.23872 110.702987 
L 122.41728 108.380286 
L 122.50656 122.398122 
L 122.59584 97.133926 
L 122.68512 118.373205 
L 122.7744 105.17535 
L 122.86368 139.726238 
L 122.95296 102.521638 
L 123.04224 133.107836 
L 123.2208 97.709088 
L 123.31008 104.408081 
L 123.48864 135.50552 
L 123.6672 109.721507 
L 123.75648 102.669286 
L 123.93504 106.649353 
L 124.02432 118.152604 
L 124.1136 102.020396 
L 124.29216 162.554798 
L 124.47072 110.771484 
L 124.56 121.593141 
L 124.64928 114.546644 
L 124.73856 140.460168 
L 124.82784 111.70415 
L 124.91712 135.088103 
L 125.0064 125.643142 
L 125.09568 130.025254 
L 125.36352 101.596785 
L 125.4528 124.889138 
L 125.54208 123.578812 
L 125.72064 111.730895 
L 125.80992 126.634167 
L 125.8992 125.213852 
L 125.98848 112.028051 
L 126.07776 121.812798 
L 126.16704 115.462944 
L 126.25632 101.151395 
L 126.3456 114.240506 
L 126.43488 108.830922 
L 126.52416 119.029675 
L 126.61344 117.297597 
L 126.70272 101.881999 
L 126.792 114.27398 
L 127.05984 97.113817 
L 127.14912 91.516966 
L 127.2384 113.749067 
L 127.32768 92.616162 
L 127.41696 135.553859 
L 127.50624 106.137194 
L 127.59552 107.503538 
L 127.6848 120.957588 
L 127.77408 91.030373 
L 128.04192 125.827436 
L 128.1312 91.183695 
L 128.22048 113.657901 
L 128.30976 106.967001 
L 128.5776 138.105148 
L 128.84544 97.647905 
L 128.93472 109.366128 
L 129.024 139.32744 
L 129.29184 100.388741 
L 129.38112 103.412101 
L 129.4704 122.696632 
L 129.64896 115.829998 
L 129.73824 140.491012 
L 129.82752 96.815998 
L 129.9168 116.163609 
L 130.00608 104.881985 
L 130.09536 132.596427 
L 130.27392 95.104424 
L 130.45248 97.626105 
L 130.54176 99.760863 
L 130.63104 122.601275 
L 130.72032 119.533552 
L 130.8096 129.783299 
L 130.98816 96.572727 
L 131.07744 132.972934 
L 131.256 87.897687 
L 131.43456 104.605788 
L 131.52384 85.954915 
L 131.61312 130.215085 
L 131.88096 98.029386 
L 131.97024 151.013433 
L 132.1488 99.627853 
L 132.23808 97.746148 
L 132.50592 151.416148 
L 132.68448 97.36201 
L 132.95232 145.255141 
L 133.0416 102.395239 
L 133.13088 107.371174 
L 133.30944 98.10178 
L 133.39872 100.02416 
L 133.488 117.949937 
L 133.57728 100.528339 
L 133.75584 128.41404 
L 133.9344 90.104221 
L 134.02368 123.212333 
L 134.11296 113.569103 
L 134.20224 91.591627 
L 134.3808 105.61966 
L 134.47008 105.149802 
L 134.55936 105.963876 
L 134.64864 93.045279 
L 134.73792 135.59773 
L 134.8272 103.75322 
L 135.00576 118.045467 
L 135.09504 92.20914 
L 135.2736 107.049151 
L 135.36288 99.832021 
L 135.45216 122.929782 
L 135.63072 96.621277 
L 135.72 98.451167 
L 135.89856 117.089014 
L 135.98784 92.674 
L 136.07712 159.616745 
L 136.34496 98.069964 
L 136.43424 98.97974 
L 136.52352 92.429453 
L 136.70208 110.732994 
L 136.79136 145.549314 
L 136.96992 105.265266 
L 137.0592 114.503135 
L 137.14848 99.908755 
L 137.23776 122.903089 
L 137.32704 103.894197 
L 137.41632 179.04635 
L 137.59488 110.160301 
L 137.68416 107.475089 
L 137.77344 92.230534 
L 137.86272 156.76175 
L 138.04128 116.823209 
L 138.13056 116.334555 
L 138.30912 122.193548 
L 138.3984 132.054763 
L 138.48768 130.355981 
L 138.57696 100.718068 
L 138.75552 122.389453 
L 138.93408 103.53018 
L 139.02336 107.385474 
L 139.11264 133.283461 
L 139.20192 92.087639 
L 139.2912 100.021079 
L 139.38048 100.040294 
L 139.55904 122.868308 
L 139.64832 120.418021 
L 139.82688 100.805364 
L 139.91616 102.183693 
L 140.09472 116.63181 
L 140.27328 100.909747 
L 140.36256 105.073268 
L 140.54112 82.81056 
L 140.80896 117.874697 
L 140.89824 95.389993 
L 140.98752 95.884093 
L 141.0768 110.770672 
L 141.16608 101.783202 
L 141.25536 121.719613 
L 141.34464 93.82543 
L 141.5232 117.875979 
L 141.61248 89.210759 
L 141.70176 120.214731 
L 141.9696 90.717665 
L 142.05888 132.840831 
L 142.14816 93.344166 
L 142.32672 133.203615 
L 142.416 96.740716 
L 142.59456 129.393944 
L 142.68384 95.927736 
L 142.77312 99.465751 
L 142.8624 103.398325 
L 142.95168 92.4404 
L 143.04096 93.361751 
L 143.13024 120.715467 
L 143.3088 99.32239 
L 143.39808 99.565555 
L 143.48736 117.547725 
L 143.66592 99.726659 
L 143.7552 126.009342 
L 143.84448 83.841881 
L 144.02304 104.29591 
L 144.11232 103.102601 
L 144.2016 113.112235 
L 144.29088 100.121059 
L 144.38016 106.962428 
L 144.46944 140.983392 
L 144.648 85.862479 
L 144.91584 112.078293 
L 145.0944 83.862804 
L 145.18368 94.128898 
L 145.27296 95.332293 
L 145.36224 148.200049 
L 145.5408 93.075461 
L 145.63008 113.965862 
L 145.71936 93.666729 
L 145.89792 122.115537 
L 145.9872 94.689544 
L 146.07648 97.469475 
L 146.25504 113.985186 
L 146.34432 79.998886 
L 146.52288 99.377486 
L 146.70144 110.877572 
L 146.79072 139.834031 
L 146.88 96.768616 
L 146.96928 109.22507 
L 147.05856 92.687435 
L 147.3264 137.366084 
L 147.41568 93.071029 
L 147.50496 109.6329 
L 147.59424 82.754066 
L 147.68352 86.58193 
L 147.7728 93.139992 
L 147.86208 134.940584 
L 148.04064 106.006418 
L 148.12992 118.577348 
L 148.39776 96.384163 
L 148.48704 97.273442 
L 148.57632 103.770239 
L 148.6656 99.454529 
L 148.75488 105.197756 
L 148.84416 97.996624 
L 148.93344 110.933319 
L 149.112 75.340129 
L 149.20128 113.187172 
L 149.37984 86.244822 
L 149.5584 132.06481 
L 149.64768 126.755339 
L 149.91552 86.89549 
L 150.09408 103.016012 
L 150.18336 101.621135 
L 150.36192 91.65624 
L 150.4512 123.808425 
L 150.54048 88.625724 
L 150.62976 128.410667 
L 150.71904 106.253369 
L 150.8976 115.225715 
L 151.07616 91.98493 
L 151.25472 143.665111 
L 151.43328 97.071588 
L 151.52256 101.989051 
L 151.61184 107.00259 
L 151.70112 91.185344 
L 151.7904 113.981078 
L 151.87968 103.748103 
L 151.96896 116.088263 
L 152.05824 91.454818 
L 152.14752 117.724236 
L 152.2368 178.499978 
L 152.41536 103.310769 
L 152.50464 86.286639 
L 152.59392 103.376238 
L 152.6832 96.259191 
L 152.77248 123.905625 
L 152.95104 87.278983 
L 153.21888 110.282097 
L 153.30816 85.396987 
L 153.48672 109.823801 
L 153.66528 111.918257 
L 153.84384 84.479506 
L 153.93312 116.527983 
L 154.0224 113.717149 
L 154.11168 103.810067 
L 154.20096 73.36206 
L 154.37952 105.412609 
L 154.4688 105.47241 
L 154.55808 147.4198 
L 154.73664 101.634933 
L 154.82592 85.021845 
L 154.9152 130.302355 
L 155.00448 111.24323 
L 155.09376 123.249241 
L 155.18304 93.103087 
L 155.27232 108.339218 
L 155.3616 151.543642 
L 155.54016 92.793802 
L 155.62944 115.024084 
L 155.808 87.489343 
L 155.89728 92.553932 
L 155.98656 111.786426 
L 156.07584 96.740304 
L 156.16512 108.17874 
L 156.34368 94.557271 
L 156.43296 112.334846 
L 156.52224 99.560879 
L 156.61152 106.093106 
L 156.7008 121.588232 
L 156.87936 81.47765 
L 156.96864 99.864957 
L 157.05792 96.50008 
L 157.23648 107.761325 
L 157.50432 80.180987 
L 157.77216 121.900888 
L 157.86144 93.536129 
L 157.95072 111.574807 
L 158.04 92.066483 
L 158.21856 115.60519 
L 158.30784 105.320599 
L 158.39712 126.264028 
L 158.4864 98.908244 
L 158.57568 109.92761 
L 158.66496 106.412387 
L 158.84352 92.532998 
L 158.9328 134.014844 
L 159.02208 94.193838 
L 159.11136 117.451966 
L 159.28992 88.379309 
L 159.3792 108.635007 
L 159.46848 107.246236 
L 159.64704 85.822625 
L 159.8256 116.407531 
L 160.00416 87.509274 
L 160.09344 120.553121 
L 160.18272 88.679196 
L 160.272 108.353726 
L 160.45056 99.978325 
L 160.62912 107.942621 
L 160.7184 96.854706 
L 160.80768 122.04194 
L 161.07552 79.340295 
L 161.25408 91.918663 
L 161.34336 133.947853 
L 161.43264 110.258082 
L 161.52192 111.669558 
L 161.6112 100.638304 
L 161.70048 101.009419 
L 161.78976 110.837456 
L 161.87904 105.81216 
L 161.96832 108.337203 
L 162.14688 78.839991 
L 162.23616 139.997524 
L 162.41472 92.506527 
L 162.504 102.215541 
L 162.59328 89.018689 
L 162.68256 130.168959 
L 162.86112 94.956329 
L 162.9504 104.287751 
L 163.12896 94.38708 
L 163.21824 102.782789 
L 163.30752 84.722114 
L 163.48608 113.634757 
L 163.57536 113.257767 
L 163.66464 105.75673 
L 163.75392 160.666715 
L 163.93248 81.675276 
L 164.11104 136.270983 
L 164.37888 79.970502 
L 164.46816 150.002567 
L 164.64672 82.061611 
L 164.736 101.276535 
L 164.82528 83.214612 
L 165.00384 127.402172 
L 165.09312 90.130025 
L 165.1824 114.636264 
L 165.36096 88.87073 
L 165.45024 109.752382 
L 165.53952 78.940116 
L 165.6288 125.408122 
L 165.71808 89.699471 
L 165.80736 95.454137 
L 165.89664 81.531945 
L 166.0752 117.92005 
L 166.16448 89.833218 
L 166.25376 90.959535 
L 166.34304 85.877881 
L 166.43232 97.389839 
L 166.61088 87.124103 
L 166.70016 87.165447 
L 166.78944 78.582714 
L 167.14656 124.406353 
L 167.32512 92.695722 
L 167.4144 99.992692 
L 167.50368 73.042984 
L 167.68224 116.603487 
L 167.77152 83.490198 
L 167.8608 94.057515 
L 167.95008 78.231943 
L 168.21792 106.775084 
L 168.3072 78.620929 
L 168.66432 115.398807 
L 168.7536 104.999873 
L 168.84288 79.194895 
L 169.02144 118.726026 
L 169.11072 84.14759 
L 169.28928 107.290722 
L 169.46784 79.909373 
L 169.55712 93.413283 
L 169.6464 89.67439 
L 169.73568 97.638244 
L 169.91424 87.655867 
L 170.00352 88.773626 
L 170.0928 92.217169 
L 170.18208 138.405898 
L 170.36064 110.166331 
L 170.5392 85.363608 
L 170.62848 100.817252 
L 170.80704 68.989081 
L 170.89632 102.075276 
L 171.07488 78.828846 
L 171.16416 107.821317 
L 171.25344 85.158729 
L 171.432 97.791791 
L 171.52128 173.160105 
L 171.61056 86.665196 
L 171.69984 106.743321 
L 171.78912 82.782607 
L 171.8784 114.171849 
L 172.14624 81.975729 
L 172.23552 83.592691 
L 172.3248 110.676733 
L 172.41408 81.066642 
L 172.50336 88.223323 
L 172.59264 94.195533 
L 172.68192 93.206629 
L 172.7712 93.994318 
L 172.86048 84.05214 
L 172.94976 88.254292 
L 173.03904 80.445498 
L 173.12832 134.414292 
L 173.30688 76.26786 
L 173.39616 91.919621 
L 173.48544 150.046685 
L 173.664 75.556418 
L 173.75328 95.711597 
L 173.84256 83.446448 
L 173.93184 115.385619 
L 174.1104 85.384037 
L 174.19968 105.021575 
L 174.28896 89.400563 
L 174.46752 115.063493 
L 174.5568 99.961793 
L 174.64608 113.275297 
L 174.73536 81.156924 
L 174.82464 101.798412 
L 175.0032 80.996309 
L 175.09248 86.097601 
L 175.18176 72.436196 
L 175.4496 116.755771 
L 175.62816 84.473322 
L 175.71744 88.673784 
L 175.80672 121.165129 
L 175.896 113.069757 
L 176.07456 77.215648 
L 176.16384 99.831902 
L 176.25312 94.99531 
L 176.43168 83.065741 
L 176.52096 86.477196 
L 176.61024 102.401127 
L 176.69952 88.590573 
L 176.7888 112.216515 
L 176.96736 71.198479 
L 177.05664 111.480127 
L 177.2352 73.800475 
L 177.32448 140.385717 
L 177.50304 90.744759 
L 177.59232 95.834674 
L 177.6816 81.371507 
L 177.86016 133.216567 
L 177.94944 73.128371 
L 178.03872 139.929273 
L 178.128 78.021972 
L 178.21728 85.987389 
L 178.30656 89.39228 
L 178.5744 80.356688 
L 178.75296 111.277444 
L 178.84224 70.925272 
L 179.11008 108.314712 
L 179.28864 70.11033 
L 179.37792 85.107471 
L 179.4672 83.960162 
L 179.55648 89.895942 
L 179.73504 79.780823 
L 179.9136 115.856565 
L 180.09216 90.055429 
L 180.18144 104.722054 
L 180.27072 84.097553 
L 180.36 107.375413 
L 180.53856 76.606655 
L 180.71712 101.787906 
L 180.8064 101.372005 
L 180.98496 78.288703 
L 181.16352 113.432393 
L 181.2528 75.924284 
L 181.34208 81.302145 
L 181.52064 103.385929 
L 181.60992 74.530667 
L 181.6992 89.950355 
L 181.78848 88.20199 
L 181.96704 77.329594 
L 182.23488 114.060181 
L 182.50272 79.618335 
L 182.68128 113.525763 
L 182.77056 80.009762 
L 182.85984 101.180721 
L 183.0384 89.982132 
L 183.12768 128.090251 
L 183.39552 84.14932 
L 183.4848 103.701338 
L 183.57408 72.891861 
L 183.66336 106.795793 
L 183.75264 65.166538 
L 183.84192 67.457065 
L 184.02048 127.700843 
L 184.10976 81.944401 
L 184.19904 102.862632 
L 184.3776 73.277604 
L 184.46688 83.758241 
L 184.55616 80.96556 
L 184.73472 96.550015 
L 184.824 76.157446 
L 185.09184 100.434345 
L 185.18112 150.171405 
L 185.35968 111.074488 
L 185.53824 81.295234 
L 185.62752 99.37417 
L 185.89536 85.332408 
L 186.07392 133.116608 
L 186.1632 89.098048 
L 186.25248 124.356267 
L 186.34176 96.998401 
L 186.43104 97.171219 
L 186.52032 76.379392 
L 186.6096 92.336575 
L 186.69888 89.257452 
L 186.87744 92.778919 
L 186.96672 102.60013 
L 187.23456 74.928041 
L 187.32384 82.5148 
L 187.5024 78.047821 
L 187.59168 97.693349 
L 187.68096 74.637688 
L 187.77024 125.974491 
L 188.03808 72.501682 
L 188.21664 89.816415 
L 188.3952 78.068521 
L 188.66304 115.04637 
L 188.8416 87.327781 
L 188.93088 104.068783 
L 189.02016 83.434502 
L 189.10944 87.489819 
L 189.19872 100.230557 
L 189.288 73.425069 
L 189.37728 80.254305 
L 189.46656 64.264644 
L 189.55584 93.285413 
L 189.64512 88.423764 
L 189.7344 93.339147 
L 189.82368 91.791878 
L 189.91296 99.939464 
L 190.00224 91.19307 
L 190.09152 64.23697 
L 190.1808 124.047917 
L 190.27008 99.522013 
L 190.35936 107.31137 
L 190.53792 84.076115 
L 190.6272 149.45992 
L 190.80576 75.037141 
L 190.98432 102.499428 
L 191.0736 73.25649 
L 191.16288 91.834409 
L 191.25216 82.125741 
L 191.43072 106.413772 
L 191.52 106.7061 
L 191.60928 68.944791 
L 191.69856 89.176849 
L 191.78784 84.228627 
L 191.87712 94.718425 
L 191.9664 73.77855 
L 192.05568 81.319378 
L 192.14496 61.674796 
L 192.23424 124.794565 
L 192.32352 70.55763 
L 192.50208 89.331468 
L 192.59136 92.681108 
L 192.76992 68.255123 
L 193.03776 88.725671 
L 193.21632 80.416426 
L 193.3056 112.163275 
L 193.39488 109.932406 
L 193.48416 82.748043 
L 193.57344 94.105447 
L 193.66272 85.112035 
L 193.84128 112.772029 
L 193.93056 84.267363 
L 194.01984 104.347767 
L 194.1984 77.721934 
L 194.28768 89.151544 
L 194.37696 140.754106 
L 194.55552 94.689108 
L 194.73408 79.457855 
L 194.91264 91.206974 
L 195.00192 83.951495 
L 195.0912 90.558883 
L 195.35904 69.980755 
L 195.44832 74.440488 
L 195.5376 91.876071 
L 195.62688 70.464548 
L 195.71616 98.597183 
L 195.80544 88.884014 
L 195.89472 139.564383 
L 195.984 95.394879 
L 196.07328 100.83609 
L 196.16256 106.961238 
L 196.25184 94.139237 
L 196.34112 64.235303 
L 196.4304 80.481896 
L 196.51968 130.98058 
L 196.69824 65.973488 
L 196.8768 93.790274 
L 196.96608 78.583711 
L 197.05536 103.028114 
L 197.14464 79.632558 
L 197.23392 90.217803 
L 197.3232 77.06188 
L 197.41248 135.545861 
L 197.50176 85.100623 
L 197.59104 95.962288 
L 197.7696 72.364559 
L 197.85888 104.93856 
L 198.03744 71.220511 
L 198.12672 91.904781 
L 198.216 83.64515 
L 198.30528 87.244878 
L 198.39456 186.009037 
L 198.48384 110.422617 
L 198.57312 130.675274 
L 198.75168 79.687585 
L 198.84096 97.540525 
L 199.01952 83.048796 
L 199.1088 95.2734 
L 199.19808 124.58439 
L 199.28736 90.888321 
L 199.37664 121.046914 
L 199.46592 99.016065 
L 199.5552 144.799515 
L 199.82304 82.32273 
L 199.91232 102.988435 
L 200.0016 80.37161 
L 200.18016 102.537004 
L 200.35872 82.874057 
L 200.448 101.795178 
L 200.53728 69.057306 
L 200.62656 128.332925 
L 200.71584 83.187026 
L 200.80512 91.394539 
L 200.8944 86.702251 
L 200.98368 72.273423 
L 201.07296 127.783824 
L 201.16224 82.207638 
L 201.3408 119.688321 
L 201.51936 69.946351 
L 201.60864 107.696341 
L 201.69792 67.499777 
L 201.7872 91.998479 
L 201.96576 63.692494 
L 202.05504 94.043005 
L 202.14432 91.577373 
L 202.2336 65.655945 
L 202.41216 128.766134 
L 202.50144 82.394299 
L 202.59072 106.556316 
L 202.76928 79.899556 
L 202.85856 79.539182 
L 202.94784 75.953361 
L 203.21568 101.629063 
L 203.39424 68.034504 
L 203.48352 100.906935 
L 203.5728 74.943264 
L 203.66208 77.045105 
L 203.75136 108.595303 
L 203.84064 66.495624 
L 204.0192 119.833411 
L 204.28704 73.461146 
L 204.37632 92.47346 
L 204.4656 65.696102 
L 204.64416 104.894294 
L 204.73344 115.307226 
L 204.912 85.335529 
L 205.00128 101.488595 
L 205.17984 67.277957 
L 205.44768 76.365588 
L 205.53696 69.928784 
L 205.62624 105.123745 
L 205.71552 70.717109 
L 205.8048 101.4078 
L 205.98336 59.636053 
L 206.07264 78.67924 
L 206.16192 70.466111 
L 206.2512 95.084048 
L 206.34048 67.751989 
L 206.42976 81.598193 
L 206.60832 69.106284 
L 206.78688 100.748045 
L 206.87616 102.78323 
L 207.05472 64.801476 
L 207.144 67.68892 
L 207.23328 54.388499 
L 207.41184 82.243212 
L 207.50112 55.176514 
L 207.5904 61.254188 
L 207.76896 91.161365 
L 207.85824 77.37513 
L 207.94752 80.284195 
L 208.21536 92.762437 
L 208.30464 63.077309 
L 208.39392 68.259076 
L 208.4832 92.358156 
L 208.57248 74.3328 
L 208.66176 82.45759 
L 208.75104 109.92851 
L 208.84032 60.37846 
L 208.9296 67.117534 
L 209.01888 68.636747 
L 209.10816 91.647568 
L 209.19744 71.495575 
L 209.376 85.072966 
L 209.46528 82.202712 
L 209.55456 86.551731 
L 209.64384 96.602198 
L 209.73312 67.307779 
L 209.8224 82.406155 
L 210.00096 72.86956 
L 210.09024 91.52232 
L 210.2688 72.341602 
L 210.44736 87.532481 
L 210.53664 64.509555 
L 210.62592 82.736428 
L 210.7152 74.72143 
L 210.89376 112.628363 
L 210.98304 80.044148 
L 211.1616 102.841554 
L 211.25088 75.802886 
L 211.34016 106.94928 
L 211.42944 71.530459 
L 211.51872 89.537918 
L 211.69728 78.001469 
L 211.87584 122.955966 
L 211.96512 85.739624 
L 212.0544 99.713131 
L 212.23296 88.709094 
L 212.32224 117.107191 
L 212.41152 75.400248 
L 212.5008 127.129177 
L 212.67936 70.199012 
L 212.76864 77.571863 
L 212.9472 119.30775 
L 213.12576 71.150184 
L 213.21504 83.501691 
L 213.30432 79.210796 
L 213.3936 83.546065 
L 213.48288 70.611854 
L 213.66144 100.321362 
L 213.84 86.570303 
L 213.92928 86.857377 
L 214.01856 73.517016 
L 214.10784 92.393018 
L 214.19712 68.758508 
L 214.2864 91.035027 
L 214.37568 65.375334 
L 214.46496 83.18917 
L 214.64352 75.99512 
L 214.91136 89.120477 
L 215.00064 110.096103 
L 215.08992 102.767881 
L 215.1792 64.847599 
L 215.26848 96.296749 
L 215.35776 68.629496 
L 215.44704 85.176926 
L 215.53632 75.756387 
L 215.6256 92.507616 
L 215.71488 75.717457 
L 215.80416 92.434374 
L 215.89344 72.503341 
L 215.98272 85.364718 
L 216.072 62.522462 
L 216.16128 107.107323 
L 216.33984 60.587557 
L 216.5184 90.13814 
L 216.78624 73.505357 
L 216.87552 125.800616 
L 216.9648 87.362324 
L 217.05408 110.191438 
L 217.14336 86.257965 
L 217.23264 93.752312 
L 217.32192 89.168273 
L 217.4112 114.800132 
L 217.58976 86.013042 
L 217.76832 82.278962 
L 217.8576 81.719861 
L 217.94688 77.100287 
L 218.03616 80.096899 
L 218.21472 70.519578 
L 218.304 72.170236 
L 218.39328 71.189888 
L 218.48256 73.364176 
L 218.57184 99.42756 
L 218.7504 52.054071 
L 218.83968 74.041182 
L 218.92896 65.115011 
L 219.01824 113.395927 
L 219.10752 64.605 
L 219.1968 85.419346 
L 219.37536 51.891384 
L 219.6432 110.531344 
L 219.73248 53.967352 
L 219.91104 79.018561 
L 220.00032 72.198581 
L 220.0896 74.770332 
L 220.17888 138.954767 
L 220.26816 51.889154 
L 220.35744 65.271009 
L 220.44672 90.223091 
L 220.62528 75.471483 
L 220.71456 73.911924 
L 220.80384 62.208059 
L 220.89312 87.196577 
L 221.07168 55.424007 
L 221.16096 59.616856 
L 221.25024 92.281015 
L 221.33952 88.148049 
L 221.4288 80.879751 
L 221.51808 84.617188 
L 221.60736 68.820287 
L 221.69664 88.61937 
L 221.78592 73.072902 
L 221.8752 98.53521 
L 222.05376 83.409191 
L 222.14304 75.062756 
L 222.23232 134.836773 
L 222.3216 69.704834 
L 222.50016 97.630482 
L 222.58944 95.483755 
L 222.67872 74.680529 
L 222.768 90.687149 
L 222.85728 79.65016 
L 222.94656 81.663792 
L 223.03584 127.462567 
L 223.2144 68.856346 
L 223.30368 74.033581 
L 223.39296 109.910843 
L 223.57152 71.348633 
L 223.92864 104.665306 
L 224.01792 88.669219 
L 224.1072 95.877604 
L 224.19648 124.40775 
L 224.28576 70.675718 
L 224.37504 95.458418 
L 224.46432 83.571248 
L 224.5536 101.462923 
L 224.64288 75.642904 
L 224.82144 96.24636 
L 224.91072 59.409276 
L 225 63.502267 
L 225.08928 65.541222 
L 225.17856 96.591621 
L 225.26784 73.888513 
L 225.35712 74.469328 
L 225.4464 114.749461 
L 225.53568 75.764523 
L 225.62496 87.510068 
L 225.80352 72.08693 
L 225.8928 86.212031 
L 225.98208 82.765229 
L 226.07136 74.403143 
L 226.16064 103.101383 
L 226.24992 79.681955 
L 226.3392 91.099754 
L 226.42848 84.401141 
L 226.51776 113.264219 
L 226.69632 82.708283 
L 226.87488 141.960785 
L 226.96416 84.436032 
L 227.05344 97.630819 
L 227.14272 82.348288 
L 227.232 150.533423 
L 227.32128 89.775736 
L 227.41056 91.669388 
L 227.49984 90.04563 
L 227.58912 123.250143 
L 227.6784 98.768091 
L 227.76768 101.670434 
L 227.85696 104.001085 
L 227.94624 131.726922 
L 228.03552 102.077239 
L 228.1248 116.750117 
L 228.30336 102.107614 
L 228.39264 107.656254 
L 228.48192 97.958983 
L 228.5712 109.5442 
L 228.66048 100.108355 
L 228.74976 111.864095 
L 228.83904 99.865274 
L 228.92832 110.945018 
L 229.0176 101.988387 
L 229.10688 105.182647 
L 229.19616 116.340347 
L 229.28544 108.731957 
L 229.37472 131.579814 
L 229.464 97.396474 
L 229.55328 112.159166 
L 229.64256 100.71851 
L 229.73184 107.767596 
L 229.82112 149.370253 
L 229.9104 106.532943 
L 229.99968 109.156599 
L 230.17824 84.057702 
L 230.53536 94.60003 
L 230.62464 67.786822 
L 230.71392 111.515197 
L 230.89248 72.048683 
L 230.98176 75.773766 
L 231.07104 75.575594 
L 231.16032 65.527335 
L 231.2496 100.78471 
L 231.33888 83.486323 
L 231.42816 110.15755 
L 231.51744 66.316179 
L 231.696 111.353359 
L 231.87456 80.537901 
L 232.05312 100.710391 
L 232.1424 98.792228 
L 232.23168 124.09794 
L 232.32096 107.802902 
L 232.41024 109.259613 
L 232.49952 127.929394 
L 232.67808 106.923475 
L 232.76736 118.246783 
L 232.85664 117.390992 
L 232.94592 112.076287 
L 233.0352 115.430241 
L 233.12448 123.303129 
L 233.21376 122.28015 
L 233.30304 126.181625 
L 233.39232 118.479571 
L 233.4816 119.308976 
L 233.57088 117.0763 
L 233.66016 117.701023 
L 233.74944 127.035827 
L 233.83872 118.530719 
L 233.928 125.839967 
L 234.01728 118.241755 
L 234.10656 126.13083 
L 234.19584 117.416476 
L 234.55296 143.819986 
L 234.91008 216.27584 
L 234.99936 212.807042 
L 235.17792 241.311283 
L 235.2672 237.885448 
L 235.35648 253.927038 
L 235.53504 245.397518 
L 235.62432 245.185575 
L 235.98144 243.053856 
L 236.16 242.75085 
L 236.24928 242.827079 
L 236.42784 243.423777 
L 236.87424 245.449424 
L 236.96352 253.927038 
L 237.0528 237.885448 
L 237.14208 241.311283 
L 237.23136 240.956861 
L 237.32064 212.807042 
L 237.40992 216.27584 
L 237.85632 134.022218 
L 238.12416 117.416476 
L 238.21344 126.13083 
L 238.30272 118.241755 
L 238.392 125.839967 
L 238.48128 118.530719 
L 238.57056 127.035827 
L 238.74912 117.0763 
L 238.8384 119.308976 
L 238.92768 118.479571 
L 239.01696 126.181625 
L 239.10624 122.28015 
L 239.19552 123.303129 
L 239.37408 112.076287 
L 239.55264 118.246783 
L 239.64192 106.923475 
L 239.7312 110.438905 
L 239.82048 127.929394 
L 239.99904 107.802902 
L 240.08832 124.09794 
L 240.1776 98.792228 
L 240.26688 100.710391 
L 240.35616 98.882859 
L 240.44544 80.537901 
L 240.53472 86.1365 
L 240.624 111.353359 
L 240.80256 66.316179 
L 240.89184 110.15755 
L 240.98112 83.486323 
L 241.0704 100.78471 
L 241.15968 65.527335 
L 241.33824 75.773766 
L 241.42752 72.048683 
L 241.5168 82.414411 
L 241.60608 111.515197 
L 241.69536 67.786822 
L 241.78464 94.60003 
L 241.87392 91.333399 
L 242.14176 84.057702 
L 242.32032 109.156599 
L 242.4096 106.532943 
L 242.49888 149.370253 
L 242.67744 100.71851 
L 242.76672 112.159166 
L 242.856 97.396474 
L 242.94528 131.579814 
L 243.03456 108.731957 
L 243.12384 116.340347 
L 243.3024 101.988387 
L 243.39168 110.945018 
L 243.48096 99.865274 
L 243.57024 111.864095 
L 243.65952 100.108355 
L 243.7488 109.5442 
L 243.83808 97.958983 
L 243.92736 107.656254 
L 244.01664 102.107614 
L 244.1952 116.750117 
L 244.28448 102.077239 
L 244.37376 131.726922 
L 244.55232 101.670434 
L 244.6416 98.768091 
L 244.73088 123.250143 
L 244.82016 90.04563 
L 244.90944 91.669388 
L 244.99872 89.775736 
L 245.088 150.533423 
L 245.17728 82.348288 
L 245.26656 97.630819 
L 245.35584 84.436032 
L 245.44512 141.960785 
L 245.62368 82.708283 
L 245.80224 113.264219 
L 245.89152 84.401141 
L 245.9808 91.099754 
L 246.07008 79.681955 
L 246.15936 103.101383 
L 246.24864 74.403143 
L 246.4272 86.212031 
L 246.51648 72.08693 
L 246.60576 74.618962 
L 246.69504 87.510068 
L 246.78432 75.764523 
L 246.8736 114.749461 
L 247.05216 73.888513 
L 247.14144 96.591621 
L 247.32 63.502267 
L 247.40928 59.409276 
L 247.49856 96.24636 
L 247.67712 75.642904 
L 247.7664 101.462923 
L 247.85568 83.571248 
L 247.94496 95.458418 
L 248.03424 70.675718 
L 248.12352 124.40775 
L 248.30208 88.669219 
L 248.39136 104.665306 
L 248.48064 90.410981 
L 248.56992 100.746022 
L 248.74848 71.348633 
L 248.92704 109.910843 
L 249.1056 68.856346 
L 249.28416 127.462567 
L 249.46272 79.65016 
L 249.552 90.687149 
L 249.64128 74.680529 
L 249.81984 97.630482 
L 249.90912 91.265965 
L 249.9984 69.704834 
L 250.08768 134.836773 
L 250.17696 75.062756 
L 250.26624 83.409191 
L 250.35552 83.721977 
L 250.4448 98.53521 
L 250.53408 73.072902 
L 250.62336 88.61937 
L 250.71264 68.820287 
L 250.80192 84.617188 
L 250.8912 80.879751 
L 251.06976 92.281015 
L 251.24832 55.424007 
L 251.42688 87.196577 
L 251.51616 62.208059 
L 251.69472 75.471483 
L 251.784 76.093306 
L 251.87328 90.223091 
L 252.05184 51.889154 
L 252.14112 138.954767 
L 252.31968 72.198581 
L 252.40896 79.018561 
L 252.49824 78.53329 
L 252.58752 53.967352 
L 252.6768 110.531344 
L 252.94464 51.891384 
L 253.1232 85.419346 
L 253.21248 64.605 
L 253.30176 113.395927 
L 253.39104 65.115011 
L 253.48032 74.041182 
L 253.5696 52.054071 
L 253.74816 99.42756 
L 253.92672 71.189888 
L 254.016 72.170236 
L 254.10528 70.519578 
L 254.19456 71.082249 
L 254.28384 80.096899 
L 254.37312 77.100287 
L 254.55168 82.278962 
L 254.64096 82.560278 
L 254.81952 91.656622 
L 254.9088 114.800132 
L 254.99808 89.168273 
L 255.08736 93.752312 
L 255.17664 86.257965 
L 255.26592 110.191438 
L 255.3552 87.362324 
L 255.44448 125.800616 
L 255.53376 73.505357 
L 255.62304 82.44928 
L 255.71232 84.414787 
L 255.8016 90.13814 
L 255.98016 60.587557 
L 256.15872 107.107323 
L 256.248 62.522462 
L 256.33728 85.364718 
L 256.42656 72.503341 
L 256.51584 92.434374 
L 256.60512 75.717457 
L 256.6944 92.507616 
L 256.78368 75.756387 
L 256.87296 85.176926 
L 256.96224 68.629496 
L 257.05152 96.296749 
L 257.1408 64.847599 
L 257.31936 110.096103 
L 257.49792 84.827188 
L 257.67648 75.99512 
L 257.76576 77.199333 
L 257.85504 83.18917 
L 257.94432 65.375334 
L 258.0336 91.035027 
L 258.12288 68.758508 
L 258.21216 92.393018 
L 258.30144 73.517016 
L 258.39072 86.857377 
L 258.48 86.570303 
L 258.56928 87.449183 
L 258.65856 100.321362 
L 258.83712 70.611854 
L 258.9264 83.546065 
L 259.01568 79.210796 
L 259.10496 83.501691 
L 259.19424 71.150184 
L 259.28352 73.716023 
L 259.3728 119.30775 
L 259.64064 70.199012 
L 259.72992 77.312511 
L 259.8192 127.129177 
L 259.90848 75.400248 
L 259.99776 117.107191 
L 260.08704 88.709094 
L 260.17632 92.940534 
L 260.2656 99.713131 
L 260.35488 85.739624 
L 260.44416 122.955966 
L 260.62272 78.001469 
L 260.712 79.933414 
L 260.80128 89.537918 
L 260.89056 71.530459 
L 260.97984 106.94928 
L 261.06912 75.802886 
L 261.1584 102.841554 
L 261.33696 80.044148 
L 261.42624 112.628363 
L 261.6048 74.72143 
L 261.69408 82.736428 
L 261.78336 64.509555 
L 261.87264 87.532481 
L 261.96192 86.064126 
L 262.0512 72.341602 
L 262.14048 77.449197 
L 262.22976 91.52232 
L 262.31904 72.86956 
L 262.40832 72.92081 
L 262.4976 82.406155 
L 262.58688 67.307779 
L 262.67616 96.602198 
L 262.85472 82.202712 
L 262.944 85.072966 
L 263.03328 83.530491 
L 263.12256 71.495575 
L 263.21184 91.647568 
L 263.3904 67.117534 
L 263.47968 60.37846 
L 263.56896 109.92851 
L 263.74752 74.3328 
L 263.8368 92.358156 
L 264.01536 63.077309 
L 264.10464 92.762437 
L 264.19392 84.301873 
L 264.2832 84.942104 
L 264.46176 77.37513 
L 264.55104 91.161365 
L 264.64032 87.206058 
L 264.81888 55.176514 
L 264.90816 82.243212 
L 264.99744 81.98356 
L 265.08672 54.388499 
L 265.176 67.68892 
L 265.26528 64.801476 
L 265.35456 76.148036 
L 265.44384 102.78323 
L 265.53312 100.748045 
L 265.6224 100.409038 
L 265.71168 69.106284 
L 265.80096 76.595123 
L 265.89024 81.598193 
L 265.97952 67.751989 
L 266.0688 95.084048 
L 266.15808 70.466111 
L 266.24736 78.67924 
L 266.33664 59.636053 
L 266.5152 101.4078 
L 266.60448 70.717109 
L 266.69376 105.123745 
L 266.78304 69.928784 
L 266.87232 76.365588 
L 267.05088 72.293 
L 267.14016 67.277957 
L 267.22944 73.319396 
L 267.31872 101.488595 
L 267.408 85.335529 
L 267.58656 115.307226 
L 267.76512 99.079801 
L 267.8544 65.696102 
L 267.94368 92.47346 
L 268.03296 73.461146 
L 268.3008 119.833411 
L 268.47936 66.495624 
L 268.56864 108.595303 
L 268.7472 74.943264 
L 268.83648 100.906935 
L 268.92576 68.034504 
L 269.01504 68.206123 
L 269.10432 101.629063 
L 269.1936 98.701533 
L 269.37216 75.953361 
L 269.46144 79.539182 
L 269.55072 79.899556 
L 269.64 86.061563 
L 269.72928 106.556316 
L 269.81856 82.394299 
L 269.90784 128.766134 
L 270.0864 65.655945 
L 270.26496 94.043005 
L 270.35424 63.692494 
L 270.44352 66.351517 
L 270.5328 91.998479 
L 270.62208 67.499777 
L 270.71136 107.696341 
L 270.80064 69.946351 
L 270.88992 80.949093 
L 270.9792 119.688321 
L 271.15776 82.207638 
L 271.24704 127.783824 
L 271.33632 72.273423 
L 271.51488 91.394539 
L 271.60416 83.187026 
L 271.69344 128.332925 
L 271.78272 69.057306 
L 271.872 101.795178 
L 271.96128 82.874057 
L 272.05056 85.819313 
L 272.13984 102.537004 
L 272.3184 80.37161 
L 272.40768 102.988435 
L 272.49696 82.32273 
L 272.58624 85.493485 
L 272.7648 144.799515 
L 272.85408 99.016065 
L 272.94336 121.046914 
L 273.03264 90.888321 
L 273.12192 124.58439 
L 273.30048 83.048796 
L 273.47904 97.540525 
L 273.56832 79.687585 
L 273.74688 130.675274 
L 273.83616 110.422617 
L 273.92544 186.009037 
L 274.104 83.64515 
L 274.19328 91.904781 
L 274.28256 71.220511 
L 274.37184 71.308742 
L 274.46112 104.93856 
L 274.5504 72.364559 
L 274.72896 95.962288 
L 274.81824 85.100623 
L 274.90752 135.545861 
L 274.9968 77.06188 
L 275.08608 90.217803 
L 275.17536 79.632558 
L 275.26464 103.028114 
L 275.35392 78.583711 
L 275.4432 93.790274 
L 275.53248 87.172458 
L 275.62176 65.973488 
L 275.71104 77.108065 
L 275.80032 130.98058 
L 275.97888 64.235303 
L 276.15744 106.961238 
L 276.336 95.394879 
L 276.42528 139.564383 
L 276.51456 88.884014 
L 276.60384 98.597183 
L 276.69312 70.464548 
L 276.7824 91.876071 
L 276.96096 69.980755 
L 277.05024 71.156543 
L 277.2288 90.558883 
L 277.31808 83.951495 
L 277.40736 91.206974 
L 277.58592 79.457855 
L 277.85376 95.309666 
L 277.94304 140.754106 
L 278.1216 77.721934 
L 278.21088 82.451774 
L 278.30016 104.347767 
L 278.38944 84.267363 
L 278.47872 112.772029 
L 278.65728 85.112035 
L 278.74656 94.105447 
L 278.83584 82.748043 
L 279.0144 112.163275 
L 279.10368 80.416426 
L 279.19296 82.924619 
L 279.28224 88.725671 
L 279.55008 68.255123 
L 279.63936 74.508529 
L 279.72864 92.681108 
L 279.81792 89.331468 
L 279.9072 87.913535 
L 279.99648 70.55763 
L 280.08576 124.794565 
L 280.17504 61.674796 
L 280.26432 81.319378 
L 280.3536 73.77855 
L 280.44288 94.718425 
L 280.53216 84.228627 
L 280.62144 89.176849 
L 280.71072 68.944791 
L 280.8 106.7061 
L 280.88928 106.413772 
L 280.97856 99.929838 
L 281.06784 82.125741 
L 281.15712 91.834409 
L 281.2464 73.25649 
L 281.33568 102.499428 
L 281.42496 99.360936 
L 281.51424 75.037141 
L 281.60352 90.335673 
L 281.6928 149.45992 
L 281.78208 84.076115 
L 281.87136 84.518486 
L 281.96064 107.31137 
L 282.04992 99.522013 
L 282.1392 124.047917 
L 282.22848 64.23697 
L 282.40704 99.939464 
L 282.49632 91.791878 
L 282.5856 93.339147 
L 282.67488 88.423764 
L 282.76416 93.285413 
L 282.85344 64.264644 
L 282.94272 80.254305 
L 283.032 73.425069 
L 283.12128 100.230557 
L 283.29984 83.434502 
L 283.38912 104.068783 
L 283.4784 87.327781 
L 283.56768 89.736576 
L 283.65696 115.04637 
L 283.83552 95.174647 
L 283.9248 78.068521 
L 284.10336 89.816415 
L 284.19264 85.21156 
L 284.28192 72.501682 
L 284.54976 125.974491 
L 284.63904 74.637688 
L 284.72832 97.693349 
L 284.8176 78.047821 
L 284.90688 79.023689 
L 284.99616 82.5148 
L 285.08544 74.928041 
L 285.35328 102.60013 
L 285.53184 90.402502 
L 285.62112 89.257452 
L 285.7104 92.336575 
L 285.79968 76.379392 
L 286.06752 124.356267 
L 286.1568 89.098048 
L 286.24608 133.116608 
L 286.42464 85.332408 
L 286.51392 85.477689 
L 286.69248 99.37417 
L 286.78176 81.295234 
L 287.0496 112.811962 
L 287.13888 150.171405 
L 287.31744 84.476393 
L 287.40672 86.958199 
L 287.496 76.157446 
L 287.58528 96.550015 
L 287.9424 73.277604 
L 288.12096 102.862632 
L 288.21024 81.944401 
L 288.29952 127.700843 
L 288.47808 67.457065 
L 288.56736 65.166538 
L 288.65664 106.795793 
L 288.74592 72.891861 
L 288.8352 103.701338 
L 288.92448 84.14932 
L 289.10304 109.474888 
L 289.19232 128.090251 
L 289.2816 89.982132 
L 289.37088 91.222187 
L 289.46016 101.180721 
L 289.54944 80.009762 
L 289.63872 113.525763 
L 289.81728 79.618335 
L 290.08512 114.060181 
L 290.35296 77.329594 
L 290.44224 79.087272 
L 290.6208 89.950355 
L 290.71008 74.530667 
L 290.79936 103.385929 
L 290.88864 102.006648 
L 291.0672 75.924284 
L 291.15648 113.432393 
L 291.24576 102.818357 
L 291.33504 78.288703 
L 291.42432 82.035078 
L 291.60288 101.787906 
L 291.69216 97.124575 
L 291.78144 76.606655 
L 291.87072 81.338578 
L 291.96 107.375413 
L 292.04928 84.097553 
L 292.13856 104.722054 
L 292.22784 90.055429 
L 292.4064 115.856565 
L 292.58496 79.780823 
L 292.67424 83.463337 
L 292.76352 89.895942 
L 293.03136 70.11033 
L 293.20992 108.314712 
L 293.47776 70.925272 
L 293.56704 111.277444 
L 293.7456 80.356688 
L 293.83488 86.208853 
L 293.92416 86.059129 
L 294.01344 89.39228 
L 294.10272 85.987389 
L 294.192 78.021972 
L 294.28128 139.929273 
L 294.37056 73.128371 
L 294.45984 133.216567 
L 294.54912 124.847565 
L 294.6384 81.371507 
L 294.72768 95.834674 
L 294.81696 90.744759 
L 294.99552 140.385717 
L 295.0848 73.800475 
L 295.17408 76.66035 
L 295.26336 111.480127 
L 295.35264 71.198479 
L 295.5312 112.216515 
L 295.62048 88.590573 
L 295.70976 102.401127 
L 295.88832 83.065741 
L 295.9776 85.297632 
L 296.15616 99.831902 
L 296.24544 77.215648 
L 296.51328 121.165129 
L 296.69184 84.473322 
L 296.78112 85.008412 
L 296.8704 116.755771 
L 297.13824 72.436196 
L 297.22752 86.097601 
L 297.3168 80.996309 
L 297.40608 81.345444 
L 297.49536 101.798412 
L 297.58464 81.156924 
L 297.67392 113.275297 
L 297.7632 99.961793 
L 297.85248 115.063493 
L 297.94176 114.673357 
L 298.03104 89.400563 
L 298.12032 105.021575 
L 298.2096 85.384037 
L 298.29888 92.802411 
L 298.38816 115.385619 
L 298.47744 83.446448 
L 298.56672 95.711597 
L 298.656 75.556418 
L 298.83456 150.046685 
L 299.01312 76.26786 
L 299.1024 88.111137 
L 299.19168 134.414292 
L 299.28096 80.445498 
L 299.37024 88.254292 
L 299.45952 84.05214 
L 299.5488 93.994318 
L 299.63808 93.206629 
L 299.72736 94.195533 
L 299.90592 81.066642 
L 299.9952 110.676733 
L 300.17376 81.975729 
L 300.26304 105.5063 
L 300.35232 103.702615 
L 300.4416 114.171849 
L 300.53088 82.782607 
L 300.62016 106.743321 
L 300.70944 86.665196 
L 300.79872 173.160105 
L 300.97728 93.123555 
L 301.06656 85.158729 
L 301.15584 107.821317 
L 301.24512 78.828846 
L 301.3344 83.819792 
L 301.42368 102.075276 
L 301.51296 68.989081 
L 301.69152 100.817252 
L 301.7808 85.363608 
L 301.87008 92.315447 
L 302.13792 138.405898 
L 302.31648 88.773626 
L 302.40576 87.655867 
L 302.49504 89.793106 
L 302.58432 97.638244 
L 302.6736 89.67439 
L 302.76288 93.413283 
L 302.85216 79.909373 
L 303.03072 107.290722 
L 303.12 104.67879 
L 303.20928 84.14759 
L 303.29856 118.726026 
L 303.38784 113.051242 
L 303.47712 79.194895 
L 303.65568 115.398807 
L 303.74496 113.268849 
L 303.92352 91.731067 
L 304.0128 78.620929 
L 304.10208 106.775084 
L 304.36992 78.231943 
L 304.4592 94.057515 
L 304.54848 83.490198 
L 304.63776 116.603487 
L 304.81632 73.042984 
L 304.9056 99.992692 
L 304.99488 92.695722 
L 305.17344 124.406353 
L 305.44128 88.48661 
L 305.53056 78.582714 
L 305.7984 93.903683 
L 305.88768 97.389839 
L 305.97696 85.877881 
L 306.06624 90.959535 
L 306.15552 89.833218 
L 306.2448 117.92005 
L 306.42336 81.531945 
L 306.51264 95.454137 
L 306.60192 89.699471 
L 306.6912 125.408122 
L 306.78048 78.940116 
L 306.86976 109.752382 
L 306.95904 88.87073 
L 307.1376 114.636264 
L 307.22688 90.130025 
L 307.31616 127.402172 
L 307.67328 82.061611 
L 307.76256 92.77185 
L 307.85184 150.002567 
L 307.94112 79.970502 
L 308.20896 136.270983 
L 308.38752 81.675276 
L 308.4768 103.805456 
L 308.56608 160.666715 
L 308.65536 105.75673 
L 308.74464 113.257767 
L 308.83392 113.634757 
L 309.01248 84.722114 
L 309.10176 102.782789 
L 309.19104 94.38708 
L 309.3696 104.287751 
L 309.45888 94.956329 
L 309.63744 130.168959 
L 309.72672 89.018689 
L 309.816 102.215541 
L 309.90528 92.506527 
L 309.99456 100.885071 
L 310.08384 139.997524 
L 310.17312 78.839991 
L 310.2624 89.918827 
L 310.35168 108.337203 
L 310.44096 105.81216 
L 310.53024 110.837456 
L 310.7088 100.638304 
L 310.97664 133.947853 
L 311.1552 85.273078 
L 311.24448 79.340295 
L 311.51232 122.04194 
L 311.6016 96.854706 
L 311.69088 107.942621 
L 311.78016 105.673871 
L 311.86944 99.978325 
L 311.95872 101.432681 
L 312.048 108.353726 
L 312.13728 88.679196 
L 312.22656 120.553121 
L 312.31584 87.509274 
L 312.4944 116.407531 
L 312.67296 85.822625 
L 312.9408 108.635007 
L 313.03008 88.379309 
L 313.20864 117.451966 
L 313.29792 94.193838 
L 313.3872 134.014844 
L 313.47648 92.532998 
L 313.56576 97.224929 
L 313.74432 109.92761 
L 313.8336 98.908244 
L 313.92288 126.264028 
L 314.01216 105.320599 
L 314.10144 115.60519 
L 314.28 92.066483 
L 314.36928 111.574807 
L 314.45856 93.536129 
L 314.54784 121.900888 
L 314.81568 80.180987 
L 314.99424 100.47093 
L 315.08352 107.761325 
L 315.1728 104.815586 
L 315.26208 96.50008 
L 315.35136 99.864957 
L 315.44064 81.47765 
L 315.52992 93.053477 
L 315.6192 121.588232 
L 315.79776 99.560879 
L 315.88704 112.334846 
L 315.97632 94.557271 
L 316.0656 95.458815 
L 316.15488 108.17874 
L 316.24416 96.740304 
L 316.33344 111.786426 
L 316.512 87.489343 
L 316.60128 89.761225 
L 316.69056 115.024084 
L 316.77984 92.793802 
L 316.9584 151.543642 
L 317.13696 93.103087 
L 317.22624 123.249241 
L 317.31552 111.24323 
L 317.4048 130.302355 
L 317.49408 85.021845 
L 317.76192 147.4198 
L 317.94048 105.412609 
L 318.02976 96.902056 
L 318.11904 73.36206 
L 318.2976 113.717149 
L 318.38688 116.527983 
L 318.47616 84.479506 
L 318.56544 92.297033 
L 318.65472 111.918257 
L 318.744 110.721365 
L 318.83328 109.823801 
L 318.92256 106.570241 
L 319.01184 85.396987 
L 319.10112 110.282097 
L 319.1904 94.767944 
L 319.27968 96.920082 
L 319.36896 87.278983 
L 319.54752 123.905625 
L 319.6368 96.259191 
L 319.72608 103.376238 
L 319.81536 86.286639 
L 319.99392 109.809665 
L 320.0832 178.499978 
L 320.26176 91.454818 
L 320.35104 116.088263 
L 320.44032 103.748103 
L 320.5296 113.981078 
L 320.61888 91.185344 
L 320.70816 107.00259 
L 320.88672 97.071588 
L 321.06528 143.665111 
L 321.24384 91.98493 
L 321.33312 94.105216 
L 321.4224 115.225715 
L 321.51168 113.95931 
L 321.60096 106.253369 
L 321.69024 128.410667 
L 321.77952 88.625724 
L 321.8688 123.808425 
L 321.95808 91.65624 
L 322.04736 95.797515 
L 322.22592 103.016012 
L 322.40448 86.89549 
L 322.58304 104.564328 
L 322.7616 132.06481 
L 322.85088 128.332018 
L 322.94016 86.244822 
L 323.11872 113.187172 
L 323.208 75.340129 
L 323.29728 84.77063 
L 323.38656 110.933319 
L 323.47584 97.996624 
L 323.56512 105.197756 
L 323.6544 99.454529 
L 323.74368 103.770239 
L 323.92224 96.384163 
L 324.19008 118.577348 
L 324.27936 106.006418 
L 324.45792 134.940584 
L 324.63648 86.58193 
L 324.72576 82.754066 
L 324.81504 109.6329 
L 324.90432 93.071029 
L 324.9936 137.366084 
L 325.17216 107.533623 
L 325.26144 92.687435 
L 325.35072 109.22507 
L 325.44 96.768616 
L 325.52928 139.834031 
L 325.70784 104.800798 
L 325.8864 94.901148 
L 325.97568 79.998886 
L 326.06496 113.985186 
L 326.3328 94.689544 
L 326.42208 122.115537 
L 326.60064 93.666729 
L 326.68992 113.965862 
L 326.7792 93.075461 
L 326.86848 108.487145 
L 326.95776 148.200049 
L 327.13632 94.128898 
L 327.2256 83.862804 
L 327.40416 112.078293 
L 327.49344 108.627929 
L 327.672 85.862479 
L 327.85056 140.983392 
L 328.02912 100.121059 
L 328.1184 113.112235 
L 328.20768 103.102601 
L 328.29696 104.29591 
L 328.38624 102.920536 
L 328.47552 83.841881 
L 328.5648 126.009342 
L 328.65408 99.726659 
L 328.74336 99.939915 
L 328.83264 117.547725 
L 329.0112 99.32239 
L 329.18976 120.715467 
L 329.36832 92.4404 
L 329.4576 103.398325 
L 329.63616 95.927736 
L 329.72544 129.393944 
L 329.81472 119.729689 
L 329.904 96.740716 
L 329.99328 133.203615 
L 330.08256 129.007164 
L 330.17184 93.344166 
L 330.26112 132.840831 
L 330.3504 90.717665 
L 330.61824 120.214731 
L 330.70752 89.210759 
L 330.7968 117.875979 
L 330.97536 93.82543 
L 331.06464 121.719613 
L 331.15392 101.783202 
L 331.2432 110.770672 
L 331.42176 95.389993 
L 331.51104 117.874697 
L 331.6896 92.480623 
L 331.77888 82.81056 
L 331.95744 105.073268 
L 332.04672 100.909747 
L 332.136 101.449061 
L 332.22528 116.63181 
L 332.40384 102.183693 
L 332.49312 100.805364 
L 332.5824 103.27674 
L 332.76096 122.868308 
L 333.0288 100.021079 
L 333.11808 92.087639 
L 333.20736 133.283461 
L 333.38592 103.53018 
L 333.56448 122.389453 
L 333.65376 119.920642 
L 333.74304 100.718068 
L 333.9216 132.054763 
L 334.10016 118.8859 
L 334.18944 116.334555 
L 334.27872 116.823209 
L 334.368 118.907833 
L 334.45728 156.76175 
L 334.54656 92.230534 
L 334.63584 107.475089 
L 334.72512 110.160301 
L 334.8144 123.775533 
L 334.90368 179.04635 
L 334.99296 103.894197 
L 335.08224 122.903089 
L 335.17152 99.908755 
L 335.2608 114.503135 
L 335.35008 105.265266 
L 335.43936 112.527655 
L 335.52864 145.549314 
L 335.7072 101.908565 
L 335.79648 92.429453 
L 336.1536 126.662652 
L 336.24288 159.616745 
L 336.33216 92.674 
L 336.42144 117.089014 
L 336.6 98.451167 
L 336.68928 96.621277 
L 336.77856 99.340184 
L 336.86784 122.929782 
L 336.95712 99.832021 
L 337.0464 107.049151 
L 337.13568 106.695746 
L 337.22496 92.20914 
L 337.31424 118.045467 
L 337.40352 114.366991 
L 337.4928 103.75322 
L 337.58208 135.59773 
L 337.67136 93.045279 
L 337.76064 105.963876 
L 337.84992 105.149802 
L 337.9392 105.61966 
L 338.11776 91.591627 
L 338.29632 123.212333 
L 338.3856 90.104221 
L 338.56416 128.41404 
L 338.74272 100.528339 
L 338.832 117.949937 
L 339.01056 98.10178 
L 339.18912 107.371174 
L 339.2784 102.395239 
L 339.36768 145.255141 
L 339.63552 97.36201 
L 339.81408 151.416148 
L 339.99264 113.582627 
L 340.08192 97.746148 
L 340.1712 99.627853 
L 340.26048 112.11892 
L 340.34976 151.013433 
L 340.43904 98.029386 
L 340.70688 130.215085 
L 340.79616 85.954915 
L 340.88544 104.605788 
L 340.97472 101.278794 
L 341.064 87.897687 
L 341.15328 101.641583 
L 341.24256 132.972934 
L 341.33184 96.572727 
L 341.5104 129.783299 
L 341.59968 119.533552 
L 341.68896 122.601275 
L 341.86752 97.626105 
L 341.9568 99.192447 
L 342.04608 95.104424 
L 342.22464 132.596427 
L 342.31392 104.881985 
L 342.4032 116.163609 
L 342.49248 96.815998 
L 342.58176 140.491012 
L 342.67104 115.829998 
L 342.76032 116.21782 
L 342.8496 122.696632 
L 343.02816 100.388741 
L 343.296 139.32744 
L 343.47456 97.647905 
L 343.7424 138.105148 
L 344.01024 106.967001 
L 344.09952 113.657901 
L 344.1888 91.183695 
L 344.27808 125.827436 
L 344.36736 97.820043 
L 344.45664 99.964146 
L 344.54592 91.030373 
L 344.6352 120.957588 
L 344.81376 106.137194 
L 344.90304 135.553859 
L 344.99232 92.616162 
L 345.0816 113.749067 
L 345.17088 91.516966 
L 345.528 114.27398 
L 345.61728 101.881999 
L 345.79584 119.029675 
L 345.88512 108.830922 
L 345.9744 114.240506 
L 346.06368 101.151395 
L 346.24224 121.812798 
L 346.33152 112.028051 
L 346.51008 126.634167 
L 346.59936 111.730895 
L 346.77792 123.578812 
L 346.8672 124.889138 
L 346.95648 101.596785 
L 347.04576 104.058221 
L 347.22432 130.025254 
L 347.3136 125.643142 
L 347.40288 135.088103 
L 347.49216 111.70415 
L 347.58144 140.460168 
L 347.67072 114.546644 
L 347.76 121.593141 
L 347.84928 110.771484 
L 347.93856 115.480982 
L 348.02784 162.554798 
L 348.11712 143.905543 
L 348.2064 102.020396 
L 348.29568 118.152604 
L 348.47424 106.213247 
L 348.56352 102.669286 
L 348.74208 115.823263 
L 348.83136 135.50552 
L 349.0992 97.709088 
L 349.27776 133.107836 
L 349.36704 102.521638 
L 349.45632 139.726238 
L 349.5456 105.17535 
L 349.63488 118.373205 
L 349.72416 97.133926 
L 349.81344 122.398122 
L 349.90272 108.380286 
L 349.992 108.647473 
L 350.08128 110.702987 
L 350.17056 119.675543 
L 350.25984 139.914608 
L 350.34912 124.900237 
L 350.4384 166.544046 
L 350.61696 92.596131 
L 350.70624 120.669062 
L 350.8848 105.161248 
L 350.97408 139.428938 
L 351.06336 110.242675 
L 351.24192 134.004468 
L 351.3312 109.895439 
L 351.42048 113.356411 
L 351.59904 103.568572 
L 351.68832 111.90946 
L 351.7776 102.326405 
L 351.86688 120.230839 
L 351.95616 94.291332 
L 352.13472 111.009969 
L 352.224 154.003353 
L 352.31328 96.165577 
L 352.40256 115.113674 
L 352.49184 114.996614 
L 352.58112 123.800258 
L 352.6704 121.755963 
L 352.75968 119.243123 
L 352.84896 136.746715 
L 353.02752 120.504411 
L 353.1168 124.059919 
L 353.20608 105.803377 
L 353.47392 132.531285 
L 353.65248 99.66225 
L 353.74176 105.118785 
L 353.83104 102.044568 
L 354.0096 135.208704 
L 354.18816 88.88055 
L 354.36672 108.158915 
L 354.54528 102.432807 
L 354.63456 148.319561 
L 354.81312 96.024681 
L 354.9024 112.182366 
L 354.99168 95.575387 
L 355.17024 112.098452 
L 355.25952 99.36504 
L 355.3488 122.366483 
L 355.52736 90.38418 
L 355.70592 117.887487 
L 355.7952 115.77466 
L 355.88448 167.856773 
L 356.06304 125.764945 
L 356.15232 139.976963 
L 356.2416 108.064813 
L 356.33088 119.508386 
L 356.42016 117.606642 
L 356.50944 126.264403 
L 356.59872 125.159565 
L 356.688 112.820174 
L 356.77728 113.64887 
L 356.86656 125.416436 
L 356.95584 107.296228 
L 357.04512 124.608967 
L 357.22368 89.481407 
L 357.40224 114.973027 
L 357.49152 102.513096 
L 357.5808 104.036661 
L 357.75936 94.507039 
L 357.84864 149.595008 
L 357.93792 100.965897 
L 358.11648 131.401109 
L 358.29504 121.278374 
L 358.38432 157.115738 
L 358.65216 103.308962 
L 358.74144 124.145554 
L 358.92 99.067173 
L 359.00928 129.820101 
L 359.09856 107.764573 
L 359.18784 136.589195 
L 359.3664 97.161384 
L 359.63424 150.715102 
L 359.72352 104.606673 
L 359.8128 106.630449 
L 359.90208 105.474231 
L 359.99136 134.578313 
L 360.16992 100.654121 
L 360.2592 116.297503 
L 360.34848 112.512529 
L 360.52704 90.848675 
L 360.61632 87.421094 
L 360.79488 117.063676 
L 360.88416 87.339742 
L 360.97344 92.946551 
L 361.06272 92.9001 
L 361.152 89.306508 
L 361.24128 97.741613 
L 361.33056 91.236518 
L 361.41984 109.24117 
L 361.50912 93.529379 
L 361.5984 95.255228 
L 361.77696 105.563304 
L 361.95552 84.310629 
L 362.13408 107.209999 
L 362.22336 109.880176 
L 362.31264 90.446566 
L 362.4912 119.75865 
L 362.58048 119.670156 
L 362.66976 111.468909 
L 362.75904 90.26981 
L 362.9376 127.293768 
L 363.02688 95.295341 
L 363.20544 127.516201 
L 363.29472 102.155007 
L 363.384 134.220354 
L 363.56256 105.298789 
L 363.65184 119.711226 
L 363.74112 106.407587 
L 364.00896 129.394357 
L 364.09824 87.482815 
L 364.45536 140.127134 
L 364.54464 104.853005 
L 364.63392 117.534372 
L 364.7232 185.816944 
L 364.90176 107.660281 
L 364.99104 106.639193 
L 365.08032 181.100008 
L 365.34816 112.626137 
L 365.43744 110.431235 
L 365.52672 137.28296 
L 365.70528 118.366508 
L 365.79456 105.545532 
L 365.88384 119.433879 
L 366.0624 111.62755 
L 366.33024 123.66193 
L 366.41952 120.307487 
L 366.59808 94.685192 
L 366.68736 112.567409 
L 366.77664 110.215444 
L 366.9552 126.053567 
L 367.04448 95.572994 
L 367.13376 146.881427 
L 367.22304 117.095478 
L 367.31232 119.387598 
L 367.4016 95.901437 
L 367.49088 162.481512 
L 367.58016 100.629489 
L 367.66944 100.799103 
L 367.75872 109.273501 
L 367.848 106.324393 
L 367.93728 160.097408 
L 368.02656 108.061076 
L 368.11584 119.433149 
L 368.20512 114.908565 
L 368.2944 118.106365 
L 368.38368 105.417483 
L 368.47296 133.588521 
L 368.65152 100.30382 
L 368.7408 107.7217 
L 368.83008 95.74041 
L 369.00864 112.715388 
L 369.09792 170.011617 
L 369.1872 104.9619 
L 369.36576 124.810462 
L 369.45504 104.705445 
L 369.54432 106.605445 
L 369.6336 154.689715 
L 369.72288 147.352373 
L 369.81216 101.116603 
L 369.90144 145.917913 
L 369.99072 119.780986 
L 370.08 119.88759 
L 370.25856 100.665089 
L 370.5264 128.86042 
L 370.61568 108.028801 
L 370.79424 135.693985 
L 370.88352 111.029167 
L 371.06208 157.991382 
L 371.15136 97.95786 
L 371.24064 111.578896 
L 371.32992 123.04184 
L 371.4192 106.325991 
L 371.50848 109.667969 
L 371.59776 138.138261 
L 371.77632 108.458589 
L 371.8656 115.803463 
L 371.95488 115.794926 
L 372.04416 116.58975 
L 372.13344 96.103664 
L 372.22272 99.566479 
L 372.312 98.450763 
L 372.40128 119.099001 
L 372.57984 109.14337 
L 372.7584 118.612497 
L 372.84768 132.833736 
L 372.93696 104.210845 
L 373.02624 111.666464 
L 373.11552 100.2468 
L 373.2048 106.12495 
L 373.38336 132.863053 
L 373.47264 106.542253 
L 373.6512 128.843773 
L 373.91904 99.754608 
L 374.00832 101.727596 
L 374.0976 135.470516 
L 374.18688 122.889245 
L 374.27616 133.102164 
L 374.36544 119.323717 
L 374.45472 153.328492 
L 374.544 124.174732 
L 374.63328 136.063227 
L 374.90112 117.057179 
L 375.07968 137.956746 
L 375.25824 134.524788 
L 375.34752 117.84332 
L 375.4368 120.71111 
L 375.52608 116.020045 
L 375.61536 143.629397 
L 375.79392 100.014781 
L 375.8832 124.197044 
L 376.06176 95.814831 
L 376.15104 132.182922 
L 376.3296 108.164746 
L 376.59744 149.408787 
L 376.86528 103.381505 
L 376.95456 130.617959 
L 377.31168 102.983779 
L 377.40096 130.822701 
L 377.49024 108.379196 
L 377.6688 143.333895 
L 377.84736 105.21271 
L 377.93664 135.095684 
L 378.20448 115.492799 
L 378.29376 111.879283 
L 378.38304 136.95039 
L 378.47232 119.358041 
L 378.5616 127.212235 
L 378.65088 105.291007 
L 378.74016 119.32893 
L 378.82944 105.161811 
L 378.91872 162.690371 
L 379.09728 120.286588 
L 379.18656 116.361307 
L 379.27584 145.882414 
L 379.36512 125.992712 
L 379.4544 133.341827 
L 379.54368 102.944239 
L 379.72224 146.458425 
L 379.81152 114.575796 
L 379.9008 160.842947 
L 380.07936 106.171233 
L 380.16864 116.404271 
L 380.25792 106.998279 
L 380.3472 111.928635 
L 380.52576 106.774266 
L 380.70432 149.500675 
L 380.7936 150.049827 
L 380.88288 146.838982 
L 380.97216 120.747497 
L 381.06144 168.338101 
L 381.15072 102.569903 
L 381.24 128.338731 
L 381.32928 100.680926 
L 381.41856 103.490315 
L 381.50784 126.218929 
L 381.59712 104.938877 
L 381.6864 131.473284 
L 381.77568 113.491463 
L 381.86496 125.251835 
L 382.04352 114.89394 
L 382.1328 100.852198 
L 382.31136 153.431359 
L 382.48992 101.010544 
L 382.5792 139.753165 
L 382.66848 108.074389 
L 382.75776 142.901071 
L 382.93632 95.63867 
L 383.20416 145.642699 
L 383.29344 114.85556 
L 383.38272 130.878595 
L 383.472 115.444624 
L 383.56128 171.992386 
L 383.73984 108.561025 
L 383.82912 107.208725 
L 383.9184 120.51161 
L 384.00768 118.51151 
L 384.18624 102.127073 
L 384.27552 111.150567 
L 384.3648 98.252284 
L 384.45408 101.983657 
L 384.54336 118.358117 
L 384.63264 106.170472 
L 384.72192 124.629433 
L 384.98976 97.013783 
L 385.16832 106.263968 
L 385.2576 137.456629 
L 385.43616 94.254018 
L 385.88256 115.531397 
L 385.97184 97.564584 
L 386.06112 117.772261 
L 386.1504 111.718896 
L 386.23968 151.317201 
L 386.32896 93.847672 
L 386.41824 108.373253 
L 386.5968 147.488569 
L 386.68608 103.755252 
L 386.77536 135.476877 
L 386.95392 105.53587 
L 387.0432 147.501781 
L 387.13248 144.661421 
L 387.31104 113.409564 
L 387.40032 160.489705 
L 387.57888 122.661708 
L 387.66816 121.389105 
L 387.75744 124.533025 
L 387.936 137.446573 
L 388.11456 99.965828 
L 388.20384 109.548954 
L 388.29312 115.071638 
L 388.3824 140.979495 
L 388.65024 110.038592 
L 388.73952 119.441457 
L 388.91808 107.887136 
L 389.09664 134.098437 
L 389.18592 114.120849 
L 389.2752 114.606344 
L 389.36448 109.944332 
L 389.45376 123.267591 
L 389.63232 111.666986 
L 389.98944 135.358073 
L 390.07872 114.10426 
L 390.25728 123.226716 
L 390.34656 112.505751 
L 390.43584 157.442324 
L 390.70368 110.05596 
L 390.79296 139.227904 
L 390.97152 107.34032 
L 391.0608 101.781386 
L 391.15008 130.707172 
L 391.23936 118.645603 
L 391.41792 150.470042 
L 391.59648 114.605498 
L 391.68576 202.236844 
L 391.86432 110.98697 
L 392.04288 124.23314 
L 392.13216 122.225128 
L 392.22144 102.672189 
L 392.48928 124.102787 
L 392.57856 106.847012 
L 392.75712 133.893008 
L 392.8464 111.702572 
L 392.93568 135.77549 
L 393.02496 132.72671 
L 393.11424 117.706919 
L 393.20352 131.572466 
L 393.2928 130.353951 
L 393.38208 116.381335 
L 393.47136 119.45937 
L 393.56064 121.93418 
L 393.64992 142.082364 
L 393.7392 119.576553 
L 393.82848 121.212048 
L 394.00704 154.618852 
L 394.09632 125.672031 
L 394.1856 150.863509 
L 394.27488 133.517466 
L 394.36416 197.935447 
L 394.45344 116.110842 
L 394.54272 159.79749 
L 394.632 137.729296 
L 394.72128 160.759838 
L 394.89984 124.490243 
L 394.98912 130.369448 
L 395.0784 121.810142 
L 395.25696 152.889193 
L 395.34624 93.480298 
L 395.5248 137.51242 
L 395.61408 114.170445 
L 395.70336 130.983573 
L 395.9712 95.926737 
L 396.14976 125.140046 
L 396.23904 129.339263 
L 396.32832 126.007686 
L 396.4176 108.144204 
L 396.50688 128.25646 
L 396.59616 109.178818 
L 396.864 144.327865 
L 397.13184 117.690568 
L 397.22112 116.8675 
L 397.3104 107.880074 
L 397.39968 132.506153 
L 397.48896 128.935398 
L 397.57824 135.346138 
L 397.7568 114.40512 
L 397.93536 120.730868 
L 398.02464 134.009224 
L 398.11392 174.116645 
L 398.29248 121.587594 
L 398.38176 123.69161 
L 398.56032 131.89705 
L 398.82816 148.298671 
L 398.91744 131.449431 
L 399.00672 149.733648 
L 399.096 123.924174 
L 399.27456 140.44299 
L 399.36384 132.259816 
L 399.45312 151.913683 
L 399.63168 137.820895 
L 399.72096 144.697444 
L 399.81024 135.26898 
L 399.89952 173.077324 
L 399.9888 144.064417 
L 400.07808 148.605499 
L 400.25664 157.665866 
L 400.4352 126.600927 
L 400.70304 158.43569 
L 400.79232 133.162175 
L 401.14944 167.901245 
L 401.23872 154.156849 
L 401.328 176.565315 
L 401.41728 167.745289 
L 401.50656 171.70792 
L 401.59584 140.01023 
L 401.7744 174.705925 
L 401.86368 146.072592 
L 401.95296 152.755469 
L 402.04224 156.407478 
L 402.13152 186.347889 
L 402.2208 179.645979 
L 402.39936 160.282526 
L 402.57792 193.297621 
L 402.6672 169.853635 
L 402.84576 196.452202 
L 402.93504 176.919171 
L 403.02432 177.564374 
L 403.1136 204.373833 
L 403.20288 179.182105 
L 403.29216 224.145919 
L 403.38144 214.85903 
L 403.47072 183.584525 
L 403.56 189.539212 
L 403.64928 185.411476 
L 403.73856 190.936504 
L 403.82784 173.118682 
L 404.0064 181.842579 
L 404.09568 172.878929 
L 404.18496 188.613267 
L 404.27424 164.431393 
L 404.36352 196.762948 
L 404.4528 172.94281 
L 404.63136 235.160103 
L 404.72064 193.424641 
L 404.80992 220.791812 
L 404.98848 193.393342 
L 405.07776 198.180181 
L 405.16704 190.576606 
L 405.25632 196.023017 
L 405.3456 210.778358 
L 405.43488 205.207808 
L 405.52416 190.782556 
L 405.61344 195.087095 
L 405.792 206.90362 
L 405.88128 249.671398 
L 406.05984 209.317565 
L 406.14912 260.232234 
L 406.2384 203.981325 
L 406.32768 242.883747 
L 406.50624 206.254266 
L 406.59552 214.155151 
L 406.6848 249.028999 
L 406.86336 211.250778 
L 407.1312 238.295603 
L 407.22048 217.605509 
L 407.30976 258.466029 
L 407.39904 214.367894 
L 407.48832 255.702838 
L 407.66688 228.672345 
L 407.75616 242.553844 
L 407.93472 231.010446 
L 408.024 232.327515 
L 408.11328 253.150634 
L 408.20256 223.758801 
L 408.29184 230.915936 
L 408.38112 241.579856 
L 408.4704 227.821491 
L 408.55968 249.59081 
L 408.64896 230.464745 
L 408.73824 237.297991 
L 408.82752 230.681586 
L 408.9168 233.032367 
L 409.00608 250.34155 
L 409.09536 227.814664 
L 409.27392 238.955358 
L 409.3632 235.157869 
L 409.45248 243.388456 
L 409.54176 240.020263 
L 409.63104 240.901349 
L 409.72032 239.392968 
L 409.8096 241.70304 
L 409.89888 241.617272 
L 409.98816 243.155385 
L 410.07744 240.206756 
L 410.16672 241.376243 
L 410.256 241.021801 
L 410.34528 243.145764 
L 410.52384 241.826759 
L 410.61312 244.160147 
L 410.7024 242.21928 
L 410.79168 244.446258 
L 410.97024 242.585225 
L 411.05952 243.826642 
L 411.1488 242.742334 
L 411.23808 244.093422 
L 411.32736 243.41834 
L 411.41664 243.510395 
L 411.5952 243.468877 
L 411.68448 244.0415 
L 411.77376 243.810527 
L 411.95232 244.264647 
L 412.22016 244.509604 
L 413.91648 245.619686 
L 414.63072 245.747989 
L 414.63072 245.747989 
" clip-path="url(#pb208c2acab)" style="fill: none; stroke: #1f77b4; stroke-width: 1.5; stroke-linecap: square"/>
   </g>
   <g id="patch_3">
    <path d="M 57.6 307.584 
L 57.6 41.472 
" style="fill: none; stroke: #000000; stroke-width: 0.8; stroke-linejoin: miter; stroke-linecap: square"/>
   </g>
   <g id="patch_4">
    <path d="M 414.72 307.584 
L 414.72 41.472 
" style="fill: none; stroke: #000000; stroke-width: 0.8; stroke-linejoin: miter; stroke-linecap: square"/>
   </g>
   <g id="patch_5">
    <path d="M 57.6 307.584 
L 414.72 307.584 
" style="fill: none; stroke: #000000; stroke-width: 0.8; stroke-linejoin: miter; stroke-linecap: square"/>
   </g>
   <g id="patch_6">
    <path d="M 57.6 41.472 
L 414.72 41.472 
" style="fill: none; stroke: #000000; stroke-width: 0.8; stroke-linejoin: miter; stroke-linecap: square"/>
   </g>
  </g>
 </g>
 <defs>
  <clipPath id="pb208c2acab">
   <rect x="57.6" y="41.472" width="357.12" height="266.112"/>
  </clipPath>
 </defs>
</svg>
