<?xml version="1.0" encoding="utf-8" standalone="no"?>
<!DOCTYPE svg PUBLIC "-//W3C//DTD SVG 1.1//EN"
  "http://www.w3.org/Graphics/SVG/1.1/DTD/svg11.dtd">
<svg xmlns:xlink="http://www.w3.org/1999/xlink" width="460.8pt" height="345.6pt" viewBox="0 0 460.8 345.6" xmlns="http://www.w3.org/2000/svg" version="1.1">
 <metadata>
  <rdf:RDF xmlns:dc="http://purl.org/dc/elements/1.1/" xmlns:cc="http://creativecommons.org/ns#" xmlns:rdf="http://www.w3.org/1999/02/22-rdf-syntax-ns#">
   <cc:Work>
    <dc:type rdf:resource="http://purl.org/dc/dcmitype/StillImage"/>
    <dc:date>2024-05-31T12:06:56.861367</dc:date>
    <dc:format>image/svg+xml</dc:format>
    <dc:creator>
     <cc:Agent>
      <dc:title>Matplotlib v3.8.2, https://matplotlib.org/</dc:title>
     </cc:Agent>
    </dc:creator>
   </cc:Work>
  </rdf:RDF>
 </metadata>
 <defs>
  <style type="text/css">*{stroke-linejoin: round; stroke-linecap: butt}</style>
 </defs>
 <g id="figure_1">
  <g id="patch_1">
   <path d="M 0 345.6 
L 460.8 345.6 
L 460.8 0 
L 0 0 
z
" style="fill: #ffffff"/>
  </g>
  <g id="axes_1">
   <g id="patch_2">
    <path d="M 57.6 307.584 
L 414.72 307.584 
L 414.72 41.472 
L 57.6 41.472 
z
" style="fill: #ffffff"/>
   </g>
   <g id="matplotlib.axis_1">
    <g id="xtick_1">
     <g id="line2d_1">
      <defs>
       <path id="m46822c340e" d="M 0 0 
L 0 3.5 
" style="stroke: #000000; stroke-width: 0.8"/>
      </defs>
      <g>
       <use xlink:href="#m46822c340e" x="73.832727" y="307.584" style="stroke: #000000; stroke-width: 0.8"/>
      </g>
     </g>
     <g id="text_1">
      <!-- 0 -->
      <g transform="translate(70.651477 322.182437) scale(0.1 -0.1)">
       <defs>
        <path id="DejaVuSans-30" d="M 2034 4250 
Q 1547 4250 1301 3770 
Q 1056 3291 1056 2328 
Q 1056 1369 1301 889 
Q 1547 409 2034 409 
Q 2525 409 2770 889 
Q 3016 1369 3016 2328 
Q 3016 3291 2770 3770 
Q 2525 4250 2034 4250 
z
M 2034 4750 
Q 2819 4750 3233 4129 
Q 3647 3509 3647 2328 
Q 3647 1150 3233 529 
Q 2819 -91 2034 -91 
Q 1250 -91 836 529 
Q 422 1150 422 2328 
Q 422 3509 836 4129 
Q 1250 4750 2034 4750 
z
" transform="scale(0.015625)"/>
       </defs>
       <use xlink:href="#DejaVuSans-30"/>
      </g>
     </g>
    </g>
    <g id="xtick_2">
     <g id="line2d_2">
      <g>
       <use xlink:href="#m46822c340e" x="114.414545" y="307.584" style="stroke: #000000; stroke-width: 0.8"/>
      </g>
     </g>
     <g id="text_2">
      <!-- 5 -->
      <g transform="translate(111.233295 322.182437) scale(0.1 -0.1)">
       <defs>
        <path id="DejaVuSans-35" d="M 691 4666 
L 3169 4666 
L 3169 4134 
L 1269 4134 
L 1269 2991 
Q 1406 3038 1543 3061 
Q 1681 3084 1819 3084 
Q 2600 3084 3056 2656 
Q 3513 2228 3513 1497 
Q 3513 744 3044 326 
Q 2575 -91 1722 -91 
Q 1428 -91 1123 -41 
Q 819 9 494 109 
L 494 744 
Q 775 591 1075 516 
Q 1375 441 1709 441 
Q 2250 441 2565 725 
Q 2881 1009 2881 1497 
Q 2881 1984 2565 2268 
Q 2250 2553 1709 2553 
Q 1456 2553 1204 2497 
Q 953 2441 691 2322 
L 691 4666 
z
" transform="scale(0.015625)"/>
       </defs>
       <use xlink:href="#DejaVuSans-35"/>
      </g>
     </g>
    </g>
    <g id="xtick_3">
     <g id="line2d_3">
      <g>
       <use xlink:href="#m46822c340e" x="154.996364" y="307.584" style="stroke: #000000; stroke-width: 0.8"/>
      </g>
     </g>
     <g id="text_3">
      <!-- 10 -->
      <g transform="translate(148.633864 322.182437) scale(0.1 -0.1)">
       <defs>
        <path id="DejaVuSans-31" d="M 794 531 
L 1825 531 
L 1825 4091 
L 703 3866 
L 703 4441 
L 1819 4666 
L 2450 4666 
L 2450 531 
L 3481 531 
L 3481 0 
L 794 0 
L 794 531 
z
" transform="scale(0.015625)"/>
       </defs>
       <use xlink:href="#DejaVuSans-31"/>
       <use xlink:href="#DejaVuSans-30" x="63.623047"/>
      </g>
     </g>
    </g>
    <g id="xtick_4">
     <g id="line2d_4">
      <g>
       <use xlink:href="#m46822c340e" x="195.578182" y="307.584" style="stroke: #000000; stroke-width: 0.8"/>
      </g>
     </g>
     <g id="text_4">
      <!-- 15 -->
      <g transform="translate(189.215682 322.182437) scale(0.1 -0.1)">
       <use xlink:href="#DejaVuSans-31"/>
       <use xlink:href="#DejaVuSans-35" x="63.623047"/>
      </g>
     </g>
    </g>
    <g id="xtick_5">
     <g id="line2d_5">
      <g>
       <use xlink:href="#m46822c340e" x="236.16" y="307.584" style="stroke: #000000; stroke-width: 0.8"/>
      </g>
     </g>
     <g id="text_5">
      <!-- 20 -->
      <g transform="translate(229.7975 322.182437) scale(0.1 -0.1)">
       <defs>
        <path id="DejaVuSans-32" d="M 1228 531 
L 3431 531 
L 3431 0 
L 469 0 
L 469 531 
Q 828 903 1448 1529 
Q 2069 2156 2228 2338 
Q 2531 2678 2651 2914 
Q 2772 3150 2772 3378 
Q 2772 3750 2511 3984 
Q 2250 4219 1831 4219 
Q 1534 4219 1204 4116 
Q 875 4013 500 3803 
L 500 4441 
Q 881 4594 1212 4672 
Q 1544 4750 1819 4750 
Q 2544 4750 2975 4387 
Q 3406 4025 3406 3419 
Q 3406 3131 3298 2873 
Q 3191 2616 2906 2266 
Q 2828 2175 2409 1742 
Q 1991 1309 1228 531 
z
" transform="scale(0.015625)"/>
       </defs>
       <use xlink:href="#DejaVuSans-32"/>
       <use xlink:href="#DejaVuSans-30" x="63.623047"/>
      </g>
     </g>
    </g>
    <g id="xtick_6">
     <g id="line2d_6">
      <g>
       <use xlink:href="#m46822c340e" x="276.741818" y="307.584" style="stroke: #000000; stroke-width: 0.8"/>
      </g>
     </g>
     <g id="text_6">
      <!-- 25 -->
      <g transform="translate(270.379318 322.182437) scale(0.1 -0.1)">
       <use xlink:href="#DejaVuSans-32"/>
       <use xlink:href="#DejaVuSans-35" x="63.623047"/>
      </g>
     </g>
    </g>
    <g id="xtick_7">
     <g id="line2d_7">
      <g>
       <use xlink:href="#m46822c340e" x="317.323636" y="307.584" style="stroke: #000000; stroke-width: 0.8"/>
      </g>
     </g>
     <g id="text_7">
      <!-- 30 -->
      <g transform="translate(310.961136 322.182437) scale(0.1 -0.1)">
       <defs>
        <path id="DejaVuSans-33" d="M 2597 2516 
Q 3050 2419 3304 2112 
Q 3559 1806 3559 1356 
Q 3559 666 3084 287 
Q 2609 -91 1734 -91 
Q 1441 -91 1130 -33 
Q 819 25 488 141 
L 488 750 
Q 750 597 1062 519 
Q 1375 441 1716 441 
Q 2309 441 2620 675 
Q 2931 909 2931 1356 
Q 2931 1769 2642 2001 
Q 2353 2234 1838 2234 
L 1294 2234 
L 1294 2753 
L 1863 2753 
Q 2328 2753 2575 2939 
Q 2822 3125 2822 3475 
Q 2822 3834 2567 4026 
Q 2313 4219 1838 4219 
Q 1578 4219 1281 4162 
Q 984 4106 628 3988 
L 628 4550 
Q 988 4650 1302 4700 
Q 1616 4750 1894 4750 
Q 2613 4750 3031 4423 
Q 3450 4097 3450 3541 
Q 3450 3153 3228 2886 
Q 3006 2619 2597 2516 
z
" transform="scale(0.015625)"/>
       </defs>
       <use xlink:href="#DejaVuSans-33"/>
       <use xlink:href="#DejaVuSans-30" x="63.623047"/>
      </g>
     </g>
    </g>
    <g id="xtick_8">
     <g id="line2d_8">
      <g>
       <use xlink:href="#m46822c340e" x="357.905455" y="307.584" style="stroke: #000000; stroke-width: 0.8"/>
      </g>
     </g>
     <g id="text_8">
      <!-- 35 -->
      <g transform="translate(351.542955 322.182437) scale(0.1 -0.1)">
       <use xlink:href="#DejaVuSans-33"/>
       <use xlink:href="#DejaVuSans-35" x="63.623047"/>
      </g>
     </g>
    </g>
    <g id="xtick_9">
     <g id="line2d_9">
      <g>
       <use xlink:href="#m46822c340e" x="398.487273" y="307.584" style="stroke: #000000; stroke-width: 0.8"/>
      </g>
     </g>
     <g id="text_9">
      <!-- 40 -->
      <g transform="translate(392.124773 322.182437) scale(0.1 -0.1)">
       <defs>
        <path id="DejaVuSans-34" d="M 2419 4116 
L 825 1625 
L 2419 1625 
L 2419 4116 
z
M 2253 4666 
L 3047 4666 
L 3047 1625 
L 3713 1625 
L 3713 1100 
L 3047 1100 
L 3047 0 
L 2419 0 
L 2419 1100 
L 313 1100 
L 313 1709 
L 2253 4666 
z
" transform="scale(0.015625)"/>
       </defs>
       <use xlink:href="#DejaVuSans-34"/>
       <use xlink:href="#DejaVuSans-30" x="63.623047"/>
      </g>
     </g>
    </g>
    <g id="text_10">
     <!-- Time [$s$] -->
     <g transform="translate(215.66 335.860562) scale(0.1 -0.1)">
      <defs>
       <path id="DejaVuSans-54" d="M -19 4666 
L 3928 4666 
L 3928 4134 
L 2272 4134 
L 2272 0 
L 1638 0 
L 1638 4134 
L -19 4134 
L -19 4666 
z
" transform="scale(0.015625)"/>
       <path id="DejaVuSans-69" d="M 603 3500 
L 1178 3500 
L 1178 0 
L 603 0 
L 603 3500 
z
M 603 4863 
L 1178 4863 
L 1178 4134 
L 603 4134 
L 603 4863 
z
" transform="scale(0.015625)"/>
       <path id="DejaVuSans-6d" d="M 3328 2828 
Q 3544 3216 3844 3400 
Q 4144 3584 4550 3584 
Q 5097 3584 5394 3201 
Q 5691 2819 5691 2113 
L 5691 0 
L 5113 0 
L 5113 2094 
Q 5113 2597 4934 2840 
Q 4756 3084 4391 3084 
Q 3944 3084 3684 2787 
Q 3425 2491 3425 1978 
L 3425 0 
L 2847 0 
L 2847 2094 
Q 2847 2600 2669 2842 
Q 2491 3084 2119 3084 
Q 1678 3084 1418 2786 
Q 1159 2488 1159 1978 
L 1159 0 
L 581 0 
L 581 3500 
L 1159 3500 
L 1159 2956 
Q 1356 3278 1631 3431 
Q 1906 3584 2284 3584 
Q 2666 3584 2933 3390 
Q 3200 3197 3328 2828 
z
" transform="scale(0.015625)"/>
       <path id="DejaVuSans-65" d="M 3597 1894 
L 3597 1613 
L 953 1613 
Q 991 1019 1311 708 
Q 1631 397 2203 397 
Q 2534 397 2845 478 
Q 3156 559 3463 722 
L 3463 178 
Q 3153 47 2828 -22 
Q 2503 -91 2169 -91 
Q 1331 -91 842 396 
Q 353 884 353 1716 
Q 353 2575 817 3079 
Q 1281 3584 2069 3584 
Q 2775 3584 3186 3129 
Q 3597 2675 3597 1894 
z
M 3022 2063 
Q 3016 2534 2758 2815 
Q 2500 3097 2075 3097 
Q 1594 3097 1305 2825 
Q 1016 2553 972 2059 
L 3022 2063 
z
" transform="scale(0.015625)"/>
       <path id="DejaVuSans-20" transform="scale(0.015625)"/>
       <path id="DejaVuSans-5b" d="M 550 4863 
L 1875 4863 
L 1875 4416 
L 1125 4416 
L 1125 -397 
L 1875 -397 
L 1875 -844 
L 550 -844 
L 550 4863 
z
" transform="scale(0.015625)"/>
       <path id="DejaVuSans-Oblique-73" d="M 3200 3397 
L 3091 2853 
Q 2863 2978 2609 3040 
Q 2356 3103 2088 3103 
Q 1634 3103 1373 2948 
Q 1113 2794 1113 2528 
Q 1113 2219 1719 2053 
Q 1766 2041 1788 2034 
L 1972 1978 
Q 2547 1819 2739 1644 
Q 2931 1469 2931 1166 
Q 2931 609 2489 259 
Q 2047 -91 1331 -91 
Q 1053 -91 747 -37 
Q 441 16 72 128 
L 184 722 
Q 500 559 806 475 
Q 1113 391 1394 391 
Q 1816 391 2080 572 
Q 2344 753 2344 1031 
Q 2344 1331 1650 1516 
L 1591 1531 
L 1394 1581 
Q 956 1697 753 1886 
Q 550 2075 550 2369 
Q 550 2928 970 3256 
Q 1391 3584 2113 3584 
Q 2397 3584 2667 3537 
Q 2938 3491 3200 3397 
z
" transform="scale(0.015625)"/>
       <path id="DejaVuSans-5d" d="M 1947 4863 
L 1947 -844 
L 622 -844 
L 622 -397 
L 1369 -397 
L 1369 4416 
L 622 4416 
L 622 4863 
L 1947 4863 
z
" transform="scale(0.015625)"/>
      </defs>
      <use xlink:href="#DejaVuSans-54" transform="translate(0 0.015625)"/>
      <use xlink:href="#DejaVuSans-69" transform="translate(61.083984 0.015625)"/>
      <use xlink:href="#DejaVuSans-6d" transform="translate(88.867188 0.015625)"/>
      <use xlink:href="#DejaVuSans-65" transform="translate(186.279297 0.015625)"/>
      <use xlink:href="#DejaVuSans-20" transform="translate(247.802734 0.015625)"/>
      <use xlink:href="#DejaVuSans-5b" transform="translate(279.589844 0.015625)"/>
      <use xlink:href="#DejaVuSans-Oblique-73" transform="translate(318.603516 0.015625)"/>
      <use xlink:href="#DejaVuSans-5d" transform="translate(370.703125 0.015625)"/>
     </g>
    </g>
   </g>
   <g id="matplotlib.axis_2">
    <g id="ytick_1">
     <g id="line2d_10">
      <defs>
       <path id="m3069c3b288" d="M 0 0 
L -3.5 0 
" style="stroke: #000000; stroke-width: 0.8"/>
      </defs>
      <g>
       <use xlink:href="#m3069c3b288" x="57.6" y="298.35307" style="stroke: #000000; stroke-width: 0.8"/>
      </g>
     </g>
     <g id="text_11">
      <!-- −1.0 -->
      <g transform="translate(26.317187 302.152289) scale(0.1 -0.1)">
       <defs>
        <path id="DejaVuSans-2212" d="M 678 2272 
L 4684 2272 
L 4684 1741 
L 678 1741 
L 678 2272 
z
" transform="scale(0.015625)"/>
        <path id="DejaVuSans-2e" d="M 684 794 
L 1344 794 
L 1344 0 
L 684 0 
L 684 794 
z
" transform="scale(0.015625)"/>
       </defs>
       <use xlink:href="#DejaVuSans-2212"/>
       <use xlink:href="#DejaVuSans-31" x="83.789062"/>
       <use xlink:href="#DejaVuSans-2e" x="147.412109"/>
       <use xlink:href="#DejaVuSans-30" x="179.199219"/>
      </g>
     </g>
    </g>
    <g id="ytick_2">
     <g id="line2d_11">
      <g>
       <use xlink:href="#m3069c3b288" x="57.6" y="242.175631" style="stroke: #000000; stroke-width: 0.8"/>
      </g>
     </g>
     <g id="text_12">
      <!-- −0.5 -->
      <g transform="translate(26.317187 245.97485) scale(0.1 -0.1)">
       <use xlink:href="#DejaVuSans-2212"/>
       <use xlink:href="#DejaVuSans-30" x="83.789062"/>
       <use xlink:href="#DejaVuSans-2e" x="147.412109"/>
       <use xlink:href="#DejaVuSans-35" x="179.199219"/>
      </g>
     </g>
    </g>
    <g id="ytick_3">
     <g id="line2d_12">
      <g>
       <use xlink:href="#m3069c3b288" x="57.6" y="185.998192" style="stroke: #000000; stroke-width: 0.8"/>
      </g>
     </g>
     <g id="text_13">
      <!-- 0.0 -->
      <g transform="translate(34.696875 189.797411) scale(0.1 -0.1)">
       <use xlink:href="#DejaVuSans-30"/>
       <use xlink:href="#DejaVuSans-2e" x="63.623047"/>
       <use xlink:href="#DejaVuSans-30" x="95.410156"/>
      </g>
     </g>
    </g>
    <g id="ytick_4">
     <g id="line2d_13">
      <g>
       <use xlink:href="#m3069c3b288" x="57.6" y="129.820753" style="stroke: #000000; stroke-width: 0.8"/>
      </g>
     </g>
     <g id="text_14">
      <!-- 0.5 -->
      <g transform="translate(34.696875 133.619972) scale(0.1 -0.1)">
       <use xlink:href="#DejaVuSans-30"/>
       <use xlink:href="#DejaVuSans-2e" x="63.623047"/>
       <use xlink:href="#DejaVuSans-35" x="95.410156"/>
      </g>
     </g>
    </g>
    <g id="ytick_5">
     <g id="line2d_14">
      <g>
       <use xlink:href="#m3069c3b288" x="57.6" y="73.643314" style="stroke: #000000; stroke-width: 0.8"/>
      </g>
     </g>
     <g id="text_15">
      <!-- 1.0 -->
      <g transform="translate(34.696875 77.442533) scale(0.1 -0.1)">
       <use xlink:href="#DejaVuSans-31"/>
       <use xlink:href="#DejaVuSans-2e" x="63.623047"/>
       <use xlink:href="#DejaVuSans-30" x="95.410156"/>
      </g>
     </g>
    </g>
    <g id="text_16">
     <!-- ? -->
     <g transform="translate(20.2375 177.181906) rotate(-90) scale(0.1 -0.1)">
      <defs>
       <path id="DejaVuSans-3f" d="M 1222 794 
L 1856 794 
L 1856 0 
L 1222 0 
L 1222 794 
z
M 1838 1253 
L 1241 1253 
L 1241 1734 
Q 1241 2050 1328 2253 
Q 1416 2456 1697 2725 
L 1978 3003 
Q 2156 3169 2236 3316 
Q 2316 3463 2316 3616 
Q 2316 3894 2111 4066 
Q 1906 4238 1569 4238 
Q 1322 4238 1042 4128 
Q 763 4019 459 3809 
L 459 4397 
Q 753 4575 1054 4662 
Q 1356 4750 1678 4750 
Q 2253 4750 2601 4447 
Q 2950 4144 2950 3647 
Q 2950 3409 2837 3195 
Q 2725 2981 2444 2713 
L 2169 2444 
Q 2022 2297 1961 2214 
Q 1900 2131 1875 2053 
Q 1856 1988 1847 1894 
Q 1838 1800 1838 1638 
L 1838 1253 
z
" transform="scale(0.015625)"/>
      </defs>
      <use xlink:href="#DejaVuSans-3f"/>
     </g>
    </g>
   </g>
   <g id="line2d_15">
    <path d="M 73.832727 191.365162 
L 73.913911 196.139107 
L 74.076279 189.614651 
L 74.238647 187.490028 
L 74.319831 183.820685 
L 74.482199 67.193592 
L 74.563383 94.026867 
L 74.725751 285.630782 
L 74.888118 227.983066 
L 75.13167 207.705344 
L 75.375222 187.929171 
L 75.699958 177.8208 
L 75.862326 174.268346 
L 76.105877 172.474293 
L 76.187061 172.457869 
L 76.268245 172.034591 
L 76.430613 173.010473 
L 76.592981 171.195088 
L 76.674165 172.599477 
L 76.917717 189.559912 
L 77.161268 201.889677 
L 77.648372 187.486441 
L 77.729556 187.587879 
L 78.21666 180.781028 
L 78.297844 180.837215 
L 78.541395 183.890224 
L 78.622579 183.116434 
L 78.947315 185.333607 
L 79.190867 184.653788 
L 79.272051 186.004688 
L 79.434419 183.660578 
L 79.596786 185.386493 
L 79.759154 179.919537 
L 79.840338 180.953964 
L 80.002706 177.130207 
L 80.408626 199.961823 
L 80.895729 186.8296 
L 81.139281 86.022413 
L 81.301649 284.073715 
L 81.545201 223.884614 
L 81.869937 196.481405 
L 82.194672 181.794277 
L 82.76296 173.95126 
L 83.006512 173.407176 
L 83.087696 172.298905 
L 83.168879 172.82193 
L 83.250063 174.134471 
L 83.412431 182.894431 
L 83.655983 198.408886 
L 83.737167 198.944962 
L 83.980719 193.890832 
L 84.386638 182.723285 
L 84.467822 182.029368 
L 84.63019 179.045938 
L 84.711374 179.658507 
L 84.792558 179.642224 
L 84.873742 179.579655 
L 85.03611 181.090505 
L 85.117294 181.194845 
L 85.44203 182.63837 
L 85.523214 182.755729 
L 85.604397 182.565991 
L 85.766765 183.704225 
L 85.847949 183.650418 
L 85.929133 182.544801 
L 86.091501 177.386023 
L 86.172685 176.602124 
L 86.253869 174.165442 
L 86.659789 198.578925 
L 87.065708 188.445479 
L 87.146892 187.2713 
L 87.228076 162.258057 
L 87.390444 65.662894 
L 87.552812 283.943273 
L 87.633996 260.081789 
L 87.796364 227.498273 
L 88.121099 198.236658 
L 88.445835 181.868912 
L 89.014123 172.80226 
L 89.095307 173.059705 
L 89.257674 172.080126 
L 89.338858 172.117801 
L 89.501226 173.361764 
L 89.663594 182.57911 
L 89.907146 201.918072 
L 89.98833 201.701407 
L 90.069514 200.794238 
L 90.718985 183.162098 
L 90.962537 180.108141 
L 91.043721 179.550919 
L 91.449641 182.548449 
L 91.530825 182.683682 
L 91.612008 183.241661 
L 91.774376 184.813469 
L 91.85556 185.364164 
L 91.936744 185.265264 
L 92.423848 175.759341 
L 92.748584 200.584103 
L 92.910951 198.202284 
L 93.316871 186.021086 
L 93.479239 73.015846 
L 93.560423 91.111479 
L 93.722791 288.621319 
L 93.885159 229.881975 
L 94.12871 209.860546 
L 94.372262 191.999913 
L 94.615814 180.466406 
L 94.859366 176.78914 
L 95.102918 173.145718 
L 95.184101 173.589202 
L 95.265285 173.126807 
L 95.346469 171.683916 
L 95.427653 171.909012 
L 95.508837 172.271642 
L 95.671205 173.963951 
L 96.158309 200.357665 
L 96.888964 181.857115 
L 97.132516 179.850831 
L 97.294884 179.30832 
L 97.457252 180.973172 
L 97.538436 180.762862 
L 97.700803 181.898264 
L 97.863171 176.409076 
L 97.944355 176.624728 
L 98.025539 176.83419 
L 98.106723 173.699755 
L 98.269091 186.400377 
L 98.512643 197.41552 
L 98.918562 188.330705 
L 98.999746 189.278775 
L 99.08093 174.581933 
L 99.243298 65.520087 
L 99.48685 270.328268 
L 99.649218 220.58002 
L 100.298689 182.19684 
L 100.623425 176.398371 
L 100.704609 175.28963 
L 100.785793 175.56555 
L 100.948161 173.802034 
L 101.029345 174.637833 
L 101.110529 173.607906 
L 101.272896 175.013056 
L 101.35408 174.951349 
L 101.841184 199.721565 
L 101.922368 198.138888 
L 102.084736 194.519028 
L 102.571839 183.408381 
L 102.653023 183.242751 
L 102.815391 181.555949 
L 102.896575 182.171832 
L 102.977759 181.449158 
L 103.058943 181.548513 
L 103.221311 183.023818 
L 103.302495 182.783971 
L 103.708414 174.275336 
L 104.03315 197.835976 
L 104.114334 197.804948 
L 104.43907 190.120413 
L 104.520254 187.499626 
L 104.601438 187.789092 
L 104.682622 165.789546 
L 104.844989 68.040039 
L 105.007357 275.982665 
L 105.088541 263.786933 
L 105.250909 223.604705 
L 105.656829 190.510336 
L 106.143932 176.330483 
L 106.3063 174.663709 
L 106.468668 173.565966 
L 106.631036 172.396204 
L 106.874588 173.962081 
L 107.036956 177.867283 
L 107.361691 199.526733 
L 107.442875 200.175709 
L 107.605243 197.135393 
L 108.092347 185.107051 
L 108.417082 180.69627 
L 108.498266 181.781656 
L 108.57945 181.132518 
L 108.741818 182.487593 
L 108.823002 182.482263 
L 108.904186 182.637453 
L 108.98537 182.230583 
L 109.147738 183.400317 
L 109.310106 175.281711 
L 109.39129 176.785229 
L 109.472474 175.326166 
L 109.553658 177.354607 
L 109.797209 197.489798 
L 109.878393 199.94201 
L 110.203129 192.609025 
L 110.446681 182.374173 
L 110.609049 63.165039 
L 110.690233 116.14326 
L 110.8526 283.175542 
L 111.014968 227.697195 
L 111.745624 179.55615 
L 111.826808 178.593998 
L 112.070359 172.746721 
L 112.151543 173.379429 
L 112.232727 173.309616 
L 112.313911 173.137142 
L 112.476279 171.467825 
L 112.557463 172.273916 
L 112.638647 171.318832 
L 112.719831 172.235396 
L 112.801015 174.411833 
L 113.125751 198.540146 
L 113.206934 201.389923 
L 113.288118 201.349503 
L 113.450486 196.468662 
L 113.694038 187.797422 
L 113.775222 187.73753 
L 113.93759 184.643761 
L 114.018774 184.435269 
L 114.099958 182.231229 
L 114.181142 182.746736 
L 114.262326 181.863611 
L 114.34351 182.631586 
L 114.424693 181.793703 
L 114.505877 182.431733 
L 114.587061 181.034544 
L 114.668245 181.048854 
L 114.749429 182.652154 
L 114.830613 181.421311 
L 114.911797 183.28138 
L 114.992981 182.402844 
L 115.155349 183.536811 
L 115.317717 183.34404 
L 115.642452 175.551551 
L 115.723636 175.371185 
L 116.048372 198.713252 
L 116.129556 199.958623 
L 116.291924 196.464928 
L 116.454292 191.764103 
L 116.61666 188.375587 
L 116.697844 172.812656 
L 116.860211 62.546912 
L 117.022579 276.410962 
L 117.103763 265.424877 
L 117.266131 224.755584 
L 117.672051 191.371483 
L 117.996786 180.247945 
L 118.07797 179.431369 
L 118.240338 176.553442 
L 118.402706 174.52151 
L 118.48389 175.102434 
L 118.565074 174.83921 
L 118.646258 172.578798 
L 118.727442 172.958013 
L 119.052178 175.315739 
L 119.376913 201.500739 
L 119.620465 197.925566 
L 119.945201 187.104447 
L 120.107569 184.84646 
L 120.269937 182.355074 
L 120.594672 180.429731 
L 120.675856 181.304314 
L 120.75704 180.741856 
L 120.919408 181.929461 
L 121.000592 181.811635 
L 121.16296 182.927004 
L 121.244144 183.728396 
L 121.650063 175.069047 
L 121.731247 174.572081 
L 121.812431 175.092603 
L 122.137167 197.757111 
L 122.218351 198.764036 
L 122.705455 185.460279 
L 122.867822 82.170697 
L 122.949006 93.472708 
L 123.111374 282.455643 
L 123.354926 221.84373 
L 123.598478 200.83144 
L 123.923214 184.309913 
L 124.166765 177.728354 
L 124.247949 178.604251 
L 124.572685 173.984149 
L 124.653869 176.503001 
L 124.816237 174.918888 
L 124.978605 175.230749 
L 125.059789 176.458144 
L 125.222156 185.485381 
L 125.465708 198.102061 
L 125.628076 199.565142 
L 125.952812 188.053516 
L 126.358732 182.351582 
L 126.439915 182.292643 
L 126.602283 180.222308 
L 126.683467 181.758013 
L 126.764651 181.248999 
L 126.845835 181.609964 
L 126.927019 182.579316 
L 127.414123 174.351961 
L 127.820042 198.600159 
L 128.225962 186.87767 
L 128.307146 188.397121 
L 128.38833 173.492056 
L 128.550698 66.941047 
L 128.794249 269.82907 
L 128.956617 221.588203 
L 129.443721 187.423125 
L 129.687273 179.572368 
L 129.849641 178.3123 
L 130.012008 175.517439 
L 130.093192 176.003789 
L 130.25556 173.977083 
L 130.336744 176.137819 
L 130.417928 175.39433 
L 130.499112 173.980981 
L 130.580296 174.18394 
L 130.66148 175.705178 
L 131.148584 201.017641 
L 131.554503 188.447755 
L 131.635687 189.060092 
L 132.041607 181.750684 
L 132.122791 181.608393 
L 132.203975 181.656622 
L 132.285159 181.627425 
L 132.447526 182.854303 
L 132.52871 183.25128 
L 132.609894 184.740582 
L 132.772262 180.6156 
L 133.015814 173.562577 
L 133.096998 175.429076 
L 133.34055 195.04063 
L 133.421734 199.14159 
L 133.502918 197.775714 
L 133.990021 184.308065 
L 134.152389 70.183646 
L 134.233573 100.615387 
L 134.395941 285.433081 
L 134.558309 225.77706 
L 134.80186 205.666347 
L 135.045412 186.87279 
L 135.6137 175.144568 
L 135.694884 174.971248 
L 135.776068 174.179792 
L 135.938436 174.861833 
L 136.181987 172.77865 
L 136.425539 179.716316 
L 136.750275 198.950995 
L 136.831459 200.004341 
L 137.156195 190.175496 
L 137.48093 183.139595 
L 137.562114 183.622526 
L 137.724482 182.209785 
L 137.805666 182.709565 
L 137.88685 182.255989 
L 137.968034 182.648 
L 138.049218 182.134082 
L 138.29277 183.91639 
L 138.455137 181.862629 
L 138.617505 176.557856 
L 138.698689 178.145344 
L 138.779873 173.694695 
L 138.861057 175.93551 
L 139.104609 196.193101 
L 139.185793 198.857237 
L 139.266977 198.177277 
L 139.75408 183.92975 
L 139.916448 65.800291 
L 139.997632 100.712994 
L 140.16 286.823245 
L 140.322368 227.954141 
L 140.403552 224.181825 
L 140.647104 198.479593 
L 140.809471 189.156932 
L 141.215391 175.883811 
L 141.377759 174.037678 
L 141.458943 174.438681 
L 141.540127 174.359209 
L 141.621311 173.648345 
L 141.702495 174.493949 
L 141.864863 172.414566 
L 141.946047 172.145657 
L 142.108414 175.123815 
L 142.595518 200.458275 
L 142.676702 199.428488 
L 143.001438 187.890685 
L 143.082622 187.702906 
L 143.244989 184.094084 
L 143.569725 181.313716 
L 143.650909 181.7427 
L 143.732093 180.688214 
L 143.813277 182.403812 
L 143.894461 182.033823 
L 143.975645 182.856002 
L 144.056829 182.839487 
L 144.138013 182.636874 
L 144.219197 183.472096 
L 144.300381 183.153118 
L 144.381564 183.242752 
L 144.787484 173.94851 
L 144.868668 176.896519 
L 145.11222 197.226873 
L 145.274588 199.205414 
L 145.761691 183.984836 
L 145.924059 67.567469 
L 146.005243 104.380678 
L 146.167611 286.341409 
L 146.329979 226.934952 
L 146.411163 222.546587 
L 146.654715 198.046026 
L 147.223002 176.9106 
L 147.304186 177.201117 
L 147.38537 175.416047 
L 147.466554 175.884773 
L 147.547738 175.023616 
L 147.628922 175.426931 
L 147.79129 173.165656 
L 147.872474 174.401829 
L 147.953658 173.38471 
L 148.116025 175.457089 
L 148.278393 187.197654 
L 148.521945 201.068423 
L 148.603129 201.066806 
L 148.765497 196.548058 
L 149.090233 187.393183 
L 149.333784 183.248149 
L 149.577336 180.812869 
L 149.739704 181.887984 
L 149.820888 181.645643 
L 149.983256 182.117108 
L 150.06444 181.231788 
L 150.145624 182.908751 
L 150.226808 182.043961 
L 150.389175 183.678989 
L 150.795095 173.577432 
L 151.038647 191.212707 
L 151.201015 199.530211 
L 151.688118 188.998632 
L 151.769302 182.501561 
L 151.93167 69.834217 
L 152.012854 116.73673 
L 152.175222 281.683753 
L 152.33759 223.45281 
L 152.418774 219.958923 
L 152.662326 196.655773 
L 152.74351 194.138807 
L 152.905877 185.357609 
L 152.987061 184.178669 
L 153.230613 176.430835 
L 153.311797 177.094193 
L 153.474165 174.667078 
L 153.555349 174.767202 
L 153.636533 172.951202 
L 153.798901 174.113665 
L 153.880085 174.262232 
L 154.042452 176.272968 
L 154.123636 175.856532 
L 154.286004 186.46715 
L 154.448372 196.714745 
L 154.529556 197.243737 
L 154.61074 199.027287 
L 154.691924 198.40568 
L 155.097844 185.853741 
L 155.260211 185.151449 
L 155.422579 182.682327 
L 155.503763 182.20979 
L 155.584947 182.821887 
L 155.747315 181.027255 
L 155.990867 183.585458 
L 156.072051 183.654654 
L 156.234419 182.149012 
L 156.315603 181.699897 
L 156.47797 176.725324 
L 156.559154 176.165438 
L 156.640338 173.117466 
L 157.046258 199.267589 
L 157.127442 197.271169 
L 157.452178 187.483016 
L 157.533362 188.786695 
L 157.614545 176.993984 
L 157.776913 63.037745 
L 158.020465 273.066164 
L 158.182833 222.622079 
L 158.832304 182.428034 
L 159.15704 176.165581 
L 159.319408 175.11603 
L 159.400592 174.10712 
L 159.56296 175.40377 
L 159.725328 174.26462 
L 159.968879 177.827446 
L 160.374799 198.938681 
L 160.455983 197.423322 
L 160.537167 196.447989 
L 161.024271 183.990049 
L 161.186638 181.517259 
L 161.267822 182.215907 
L 161.349006 182.429747 
L 161.43019 181.340622 
L 161.511374 182.364794 
L 161.592558 182.20644 
L 161.673742 181.960152 
L 161.917294 184.262354 
L 162.079662 183.620818 
L 162.160846 184.086277 
L 162.323214 176.943356 
L 162.404397 177.371035 
L 162.485581 176.156725 
L 162.566765 176.463006 
L 162.891501 199.113154 
L 163.459789 185.60307 
L 163.622156 74.278108 
L 163.70334 92.339568 
L 163.865708 286.18586 
L 164.10926 223.874194 
L 164.433996 196.373253 
L 164.758732 180.416532 
L 164.839915 179.852953 
L 165.245835 174.073229 
L 165.327019 173.792029 
L 165.408203 173.907112 
L 165.489387 173.63499 
L 165.570571 174.530146 
L 165.651755 173.65526 
L 165.895307 179.155099 
L 166.220042 198.856094 
L 166.301226 199.023261 
L 166.463594 195.86286 
L 166.950698 183.280204 
L 167.194249 180.410333 
L 167.356617 179.502932 
L 167.518985 181.654156 
L 167.681353 181.864484 
L 167.762537 182.593064 
L 167.843721 182.030863 
L 168.006089 175.557152 
L 168.087273 175.179437 
L 168.168457 173.972387 
L 168.330825 186.509055 
L 168.574376 198.713772 
L 168.980296 187.789945 
L 169.06148 187.344744 
L 169.142664 177.915501 
L 169.305032 57.655133 
L 169.548584 276.413772 
L 169.710951 226.25948 
L 170.441607 179.720937 
L 170.522791 179.285231 
L 170.685159 176.447689 
L 170.766342 176.035441 
L 170.92871 174.069661 
L 171.009894 174.339607 
L 171.091078 173.973862 
L 171.172262 172.777575 
L 171.253446 173.134021 
L 171.415814 173.907719 
L 171.578182 183.875914 
L 171.902918 200.613757 
L 172.146469 195.810471 
L 172.471205 186.574374 
L 172.795941 181.966566 
L 172.877125 181.841262 
L 172.958309 180.826955 
L 173.039493 181.48382 
L 173.120677 181.1793 
L 173.20186 181.710923 
L 173.364228 183.938874 
L 173.526596 180.215792 
L 173.688964 177.009482 
L 173.851332 174.265373 
L 174.176068 198.44397 
L 174.338436 196.328745 
L 174.663171 187.749219 
L 174.744355 187.824989 
L 174.825539 160.540999 
L 174.987907 64.962452 
L 175.150275 289.339598 
L 175.393827 226.883532 
L 175.637378 201.395629 
L 176.124482 181.017313 
L 176.368034 174.593794 
L 176.449218 175.095601 
L 176.530402 174.342699 
L 176.611586 174.429763 
L 176.773953 174.008038 
L 176.855137 175.373135 
L 176.936321 173.236362 
L 177.017505 173.769608 
L 177.098689 174.781678 
L 177.585793 200.091284 
L 178.478816 180.897768 
L 178.56 181.45145 
L 178.641184 181.186887 
L 178.722368 180.535188 
L 179.047104 182.313701 
L 179.128288 181.533917 
L 179.290655 176.468217 
L 179.371839 176.210225 
L 179.453023 173.979881 
L 179.615391 186.156505 
L 179.858943 199.365957 
L 180.183679 189.364366 
L 180.264863 186.520623 
L 180.346047 188.433858 
L 180.42723 177.863967 
L 180.589598 61.121119 
L 180.83315 270.725009 
L 180.995518 223.159595 
L 181.563805 185.269367 
L 181.888541 177.94825 
L 181.969725 177.470551 
L 182.213277 175.169724 
L 182.294461 175.227823 
L 182.456829 172.780496 
L 182.862748 182.899297 
L 183.1063 197.099318 
L 183.187484 198.884644 
L 183.431036 194.880038 
L 183.755772 186.596339 
L 183.999323 182.881079 
L 184.242875 181.818292 
L 184.405243 183.480327 
L 184.486427 183.803061 
L 184.567611 183.596484 
L 184.648795 184.195948 
L 184.729979 182.921796 
L 184.892347 177.234242 
L 184.973531 176.742199 
L 185.054715 174.062077 
L 185.135899 175.748763 
L 185.37945 197.381614 
L 185.460634 198.592733 
L 185.78537 190.481872 
L 185.947738 188.96886 
L 186.028922 180.974975 
L 186.19129 67.445764 
L 186.434841 275.885271 
L 186.516025 238.240516 
L 186.759577 208.528764 
L 187.327865 179.855333 
L 187.6526 174.611193 
L 187.733784 175.057407 
L 187.814968 175.253379 
L 187.896152 174.331761 
L 187.977336 174.851222 
L 188.05852 174.457119 
L 188.220888 175.768673 
L 188.383256 178.711808 
L 188.789175 198.692074 
L 188.870359 198.138824 
L 189.682199 182.183209 
L 189.763383 182.636139 
L 189.844567 182.523942 
L 190.006934 182.964592 
L 190.088118 183.115304 
L 190.169302 182.693741 
L 190.250486 183.058459 
L 190.33167 184.279681 
L 190.575222 179.701691 
L 190.656406 174.781406 
L 190.73759 175.79568 
L 190.818774 174.451456 
L 190.899958 174.655578 
L 191.224693 198.771685 
L 191.305877 198.440019 
L 191.792981 187.031559 
L 191.955349 74.892913 
L 192.036533 76.813588 
L 192.198901 289.754918 
L 192.361268 229.801813 
L 192.442452 227.000691 
L 192.686004 200.457546 
L 193.254292 177.079486 
L 193.335476 177.541167 
L 193.497844 175.111875 
L 193.660211 174.185564 
L 193.741395 174.271722 
L 193.822579 172.916795 
L 193.903763 174.574102 
L 194.066131 173.303203 
L 194.147315 174.248397 
L 194.634419 198.638766 
L 195.527442 181.428707 
L 195.608626 180.659754 
L 196.095729 183.351964 
L 196.176913 183.407681 
L 196.258097 183.984523 
L 196.339281 183.274119 
L 196.420465 183.962209 
L 196.501649 182.260862 
L 196.664017 176.222103 
L 196.745201 176.731447 
L 196.826385 175.355935 
L 196.907569 178.214488 
L 197.151121 197.55974 
L 197.232304 199.887234 
L 197.800592 183.639762 
L 197.96296 61.327672 
L 198.044144 116.187009 
L 198.206512 281.99807 
L 198.368879 227.68509 
L 199.099535 179.742264 
L 199.586638 174.361017 
L 199.667822 174.930772 
L 199.83019 173.351801 
L 199.911374 173.758703 
L 199.992558 173.02086 
L 200.23611 181.787903 
L 200.560846 198.751861 
L 200.64203 198.640839 
L 201.453869 181.863528 
L 201.697421 180.643005 
L 201.778605 181.042668 
L 202.022156 182.909685 
L 202.10334 182.579117 
L 202.428076 184.383432 
L 202.50926 183.970118 
L 202.590444 184.270281 
L 202.752812 183.361854 
L 202.91518 184.252317 
L 202.996364 183.327535 
L 203.158732 178.311943 
L 203.239915 178.366933 
L 203.321099 176.980396 
L 203.402283 177.396837 
L 203.727019 200.471502 
L 203.808203 200.442937 
L 204.051755 193.537901 
L 204.295307 188.049854 
L 204.457674 76.934589 
L 204.538858 79.514879 
L 204.701226 289.819553 
L 204.863594 229.636605 
L 204.944778 226.46289 
L 205.18833 201.530245 
L 205.756617 176.364264 
L 205.837801 177.39897 
L 206.000169 174.488543 
L 206.162537 174.314969 
L 206.324905 171.937807 
L 206.406089 172.978165 
L 206.487273 172.642287 
L 206.649641 172.954784 
L 207.136744 198.991848 
L 207.299112 195.453087 
L 207.623848 185.875815 
L 207.705032 185.399881 
L 207.948584 181.185926 
L 208.029767 181.57237 
L 208.110951 181.420869 
L 208.273319 180.248988 
L 208.435687 182.219447 
L 208.516871 181.76914 
L 208.598055 182.209684 
L 208.679239 183.832036 
L 208.760423 183.446336 
L 208.922791 184.555664 
L 209.003975 182.855214 
L 209.085159 183.357559 
L 209.166342 182.609211 
L 209.32871 184.919315 
L 209.409894 183.8597 
L 209.572262 178.087975 
L 209.653446 180.081817 
L 209.815814 175.788644 
L 210.14055 199.244191 
L 210.221734 199.242317 
L 210.708837 186.663014 
L 210.871205 78.794631 
L 210.952389 93.208811 
L 211.114757 284.305477 
L 211.358309 222.596465 
L 211.683044 194.762247 
L 212.00778 180.9867 
L 212.170148 179.040971 
L 212.332516 175.671478 
L 212.4137 176.345761 
L 212.576068 173.856228 
L 212.657252 174.190744 
L 212.738436 175.362955 
L 212.900803 173.850692 
L 212.981987 174.291277 
L 213.063171 175.662147 
L 213.550275 199.250381 
L 213.631459 198.846767 
L 214.118562 184.408972 
L 214.605666 180.580469 
L 214.768034 182.272101 
L 214.849218 181.754841 
L 215.09277 183.669426 
L 215.255137 182.910637 
L 215.417505 183.786015 
L 215.498689 183.567466 
L 215.661057 182.075006 
L 215.904609 176.921871 
L 215.985793 175.595344 
L 216.391712 199.21148 
L 216.797632 189.230737 
L 216.878816 189.821473 
L 216.96 172.124278 
L 217.122368 60.974757 
L 217.284736 275.404181 
L 217.36592 266.957794 
L 217.528288 225.38201 
L 218.015391 187.262775 
L 218.421311 176.189824 
L 218.583679 175.278169 
L 218.746047 174.96223 
L 218.908414 173.571822 
L 218.989598 173.423371 
L 219.070782 172.579573 
L 219.314334 178.16971 
L 219.720254 199.302283 
L 220.044989 192.311764 
L 220.288541 186.051484 
L 220.532093 181.737913 
L 220.613277 181.473603 
L 220.694461 180.222298 
L 220.856829 181.591809 
L 220.938013 181.586029 
L 221.019197 182.430897 
L 221.100381 182.042727 
L 221.425116 183.606688 
L 221.5063 183.487674 
L 221.587484 183.957655 
L 221.668668 183.628912 
L 221.831036 184.349951 
L 221.91222 184.817128 
L 222.074588 183.476175 
L 222.31814 178.938413 
L 222.399323 179.128577 
L 222.480507 178.447633 
L 222.886427 200.163333 
L 223.211163 190.985628 
L 223.292347 191.060344 
L 223.373531 188.735398 
L 223.617082 70.193512 
L 223.77945 290.649839 
L 223.941818 231.565151 
L 224.023002 229.114275 
L 224.266554 201.434261 
L 224.347738 198.577589 
L 224.672474 180.101268 
L 224.753658 180.324315 
L 224.997209 175.080104 
L 225.078393 174.737669 
L 225.403129 171.651122 
L 225.484313 172.906194 
L 225.565497 172.206669 
L 225.727865 173.942625 
L 225.890233 183.402676 
L 226.133784 199.402279 
L 226.214968 200.41247 
L 226.45852 193.887345 
L 227.026808 180.082087 
L 227.189175 179.015434 
L 227.351543 180.276286 
L 227.432727 179.839681 
L 227.757463 182.403058 
L 227.838647 182.650842 
L 228.001015 184.505279 
L 228.082199 184.160693 
L 228.244567 182.97222 
L 228.325751 183.14815 
L 228.569302 184.999409 
L 228.650486 184.731262 
L 228.73167 184.437047 
L 228.894038 186.443878 
L 228.975222 185.575173 
L 229.13759 179.255988 
L 229.218774 179.575715 
L 229.381142 178.38164 
L 229.705877 200.999314 
L 229.787061 200.555074 
L 230.111797 192.190858 
L 230.192981 193.02531 
L 230.274165 188.160963 
L 230.436533 72.792157 
L 230.517717 87.821628 
L 230.680085 289.50037 
L 230.842452 229.935514 
L 230.923636 226.399707 
L 231.167188 200.407546 
L 231.735476 176.283712 
L 231.81666 176.788918 
L 231.897844 174.374874 
L 231.979027 174.605271 
L 232.141395 172.519941 
L 232.222579 172.75183 
L 232.303763 171.936826 
L 232.384947 172.330835 
L 232.466131 171.453547 
L 232.628499 173.802486 
L 232.872051 191.263219 
L 233.034419 199.455599 
L 233.115603 200.207449 
L 233.196786 199.021328 
L 233.602706 186.869749 
L 233.927442 180.788212 
L 234.08981 179.80998 
L 234.170994 180.903752 
L 234.333362 179.872853 
L 234.658097 184.130529 
L 234.820465 183.33305 
L 234.901649 182.308622 
L 234.982833 182.534355 
L 235.064017 183.506647 
L 235.307569 182.688439 
L 235.469937 184.097415 
L 235.551121 184.341344 
L 235.632304 185.374862 
L 235.713488 184.771002 
L 235.875856 186.830312 
L 235.95704 186.035512 
L 236.038224 186.462025 
L 236.200592 183.536441 
L 236.36296 179.752191 
L 236.444144 179.996191 
L 236.525328 178.86277 
L 236.850063 200.14569 
L 236.931247 200.248489 
L 237.093615 197.153277 
L 237.418351 187.797124 
L 237.580719 67.86564 
L 237.661903 108.260882 
L 237.824271 285.124733 
L 237.986638 228.813472 
L 238.067822 224.990684 
L 238.311374 199.218161 
L 238.798478 178.014227 
L 238.879662 175.714146 
L 238.960846 176.179545 
L 239.204397 172.572914 
L 239.285581 173.455711 
L 239.447949 171.663275 
L 239.529133 172.687519 
L 239.610317 171.880612 
L 239.691501 171.961009 
L 239.772685 173.513919 
L 240.259789 200.85403 
L 241.071628 181.43103 
L 241.396364 179.454373 
L 241.558732 182.268725 
L 241.639915 182.257742 
L 241.721099 181.386221 
L 241.883467 182.505946 
L 241.964651 182.557215 
L 242.045835 183.356311 
L 242.127019 182.282613 
L 242.370571 183.818627 
L 242.451755 183.312323 
L 242.532939 183.453732 
L 242.614123 184.255767 
L 242.695307 183.445943 
L 242.77649 184.212857 
L 242.857674 183.839215 
L 243.020042 185.685704 
L 243.101226 185.613889 
L 243.18241 186.045754 
L 243.263594 185.828572 
L 243.344778 184.780253 
L 243.507146 179.438835 
L 243.58833 179.239482 
L 243.669514 177.956652 
L 244.075433 200.525656 
L 244.237801 197.83763 
L 244.562537 187.859005 
L 244.724905 71.319154 
L 244.806089 98.484031 
L 244.968457 287.118302 
L 245.130825 228.871804 
L 245.212008 225.699676 
L 245.45556 200.287663 
L 245.86148 179.555145 
L 245.942664 179.053168 
L 246.186216 174.43114 
L 246.2674 174.487793 
L 246.592135 171.278517 
L 246.673319 172.064747 
L 246.754503 171.255665 
L 246.835687 171.37156 
L 246.916871 172.703578 
L 247.160423 191.275139 
L 247.322791 199.927992 
L 247.403975 201.359358 
L 247.647526 194.943813 
L 247.972262 184.60786 
L 248.378182 180.035017 
L 248.54055 180.496197 
L 248.621734 180.33994 
L 248.946469 182.408695 
L 249.027653 182.599866 
L 249.108837 182.285448 
L 249.271205 183.422536 
L 249.352389 182.544608 
L 249.433573 182.79859 
L 249.514757 182.735759 
L 249.595941 183.002639 
L 249.677125 183.765887 
L 249.758309 183.562178 
L 249.839493 183.700645 
L 250.00186 184.817656 
L 250.083044 184.520917 
L 250.164228 184.567833 
L 250.245412 184.914152 
L 250.651332 178.322945 
L 250.976068 201.683749 
L 251.057252 201.212212 
L 251.219619 197.544484 
L 251.544355 184.166023 
L 251.706723 64.551308 
L 251.950275 279.128879 
L 252.031459 237.792567 
L 252.356195 206.149965 
L 252.68093 185.247763 
L 253.168034 174.133382 
L 253.249218 173.984614 
L 253.330402 173.485705 
L 253.411586 171.903872 
L 253.49277 172.277487 
L 253.573953 171.323418 
L 253.817505 172.382655 
L 253.979873 179.277366 
L 254.304609 201.330091 
L 254.385793 201.645169 
L 255.197632 180.672363 
L 255.278816 180.49391 
L 255.36 179.714167 
L 255.441184 180.022083 
L 255.684736 181.79125 
L 255.76592 181.274526 
L 255.847104 181.705665 
L 255.928288 182.9003 
L 256.009471 182.042702 
L 256.090655 183.530593 
L 256.171839 183.514201 
L 256.253023 182.975712 
L 256.334207 183.868255 
L 256.415391 183.263282 
L 256.577759 184.471818 
L 256.658943 184.182408 
L 256.740127 184.312107 
L 256.821311 183.962801 
L 256.902495 184.199679 
L 257.064863 178.241234 
L 257.146047 178.806348 
L 257.22723 179.168661 
L 257.308414 176.930433 
L 257.63315 199.886788 
L 257.714334 200.099774 
L 258.03907 191.223745 
L 258.120254 191.707015 
L 258.201438 186.016883 
L 258.363805 65.695235 
L 258.444989 112.575396 
L 258.607357 284.144161 
L 258.769725 228.109629 
L 259.500381 180.028002 
L 259.581564 179.542275 
L 259.662748 176.989633 
L 259.743932 177.023652 
L 260.231036 171.734124 
L 260.31222 172.59623 
L 260.393404 172.238903 
L 260.555772 175.53285 
L 260.961691 201.22238 
L 261.042875 201.133208 
L 261.448795 188.363233 
L 261.773531 181.051138 
L 261.935899 179.934067 
L 262.098266 180.260692 
L 262.17945 180.093268 
L 262.504186 182.720367 
L 262.58537 181.903049 
L 262.747738 182.832558 
L 262.828922 182.267229 
L 262.910106 182.436953 
L 263.153658 183.712462 
L 263.234841 183.236854 
L 263.316025 183.479169 
L 263.397209 183.321728 
L 263.640761 177.433658 
L 263.721945 178.028565 
L 263.803129 176.430404 
L 264.127865 200.159739 
L 264.209049 199.894895 
L 264.4526 193.630019 
L 264.696152 185.256394 
L 264.85852 65.133054 
L 264.939704 115.441506 
L 265.102072 282.669557 
L 265.26444 228.332803 
L 265.995095 179.988181 
L 266.076279 179.087365 
L 266.319831 174.679615 
L 266.482199 174.033866 
L 266.725751 172.22824 
L 266.806934 173.216771 
L 266.888118 173.184225 
L 266.969302 173.433785 
L 267.050486 174.653063 
L 267.53759 202.15028 
L 268.430613 180.314857 
L 268.511797 180.892109 
L 268.674165 179.687874 
L 268.917717 181.98285 
L 268.998901 181.545447 
L 269.080085 181.797999 
L 269.161268 182.593298 
L 269.242452 182.582611 
L 269.323636 182.381151 
L 269.486004 183.037256 
L 269.567188 183.11146 
L 269.729556 183.823996 
L 269.81074 184.371688 
L 270.054292 177.494628 
L 270.135476 178.942256 
L 270.21666 177.529829 
L 270.297844 178.888837 
L 270.622579 201.025543 
L 271.028499 190.112864 
L 271.109683 190.183699 
L 271.190867 168.232576 
L 271.353235 63.969668 
L 271.515603 283.01168 
L 271.596786 261.25838 
L 271.759154 227.568727 
L 272.08389 198.348945 
L 272.408626 181.675469 
L 272.733362 175.721241 
L 272.976913 172.953472 
L 273.058097 172.575716 
L 273.139281 172.922146 
L 273.220465 172.814241 
L 273.382833 173.286709 
L 273.464017 173.933088 
L 273.626385 182.510262 
L 273.869937 200.424842 
L 273.951121 200.417489 
L 274.032304 199.92063 
L 274.76296 180.808356 
L 274.844144 180.675042 
L 274.925328 180.021802 
L 275.006512 180.043143 
L 275.087696 180.445616 
L 275.168879 180.150175 
L 275.250063 181.00264 
L 275.331247 180.747077 
L 275.412431 180.976825 
L 275.493615 182.241057 
L 275.574799 182.047519 
L 275.899535 183.736607 
L 275.980719 183.818769 
L 276.061903 182.930638 
L 276.305455 184.583174 
L 276.711374 177.310159 
L 277.117294 201.231026 
L 277.44203 190.123885 
L 277.523214 190.616633 
L 277.604397 189.161953 
L 277.766765 74.74791 
L 277.847949 85.936204 
L 278.010317 287.83554 
L 278.172685 229.618728 
L 278.253869 227.47032 
L 278.578605 196.921844 
L 278.90334 179.816156 
L 278.984524 179.064175 
L 279.228076 173.250148 
L 279.390444 174.235275 
L 279.471628 170.18594 
L 279.552812 171.345783 
L 279.633996 173.074325 
L 279.71518 169.862917 
L 280.039915 177.49589 
L 280.364651 201.290323 
L 280.445835 201.884625 
L 281.014123 181.920535 
L 281.17649 182.30169 
L 281.501226 180.225873 
L 281.58241 179.992143 
L 281.825962 184.200641 
L 281.907146 182.057038 
L 282.231882 187.30934 
L 282.313066 184.384123 
L 282.394249 186.896469 
L 282.475433 185.585959 
L 282.637801 188.191206 
L 282.718985 185.710824 
L 282.800169 187.206378 
L 282.881353 184.412198 
L 282.962537 187.948863 
L 283.043721 186.998674 
L 283.287273 178.817755 
L 283.368457 180.615698 
L 283.449641 176.690458 
L 283.774376 198.548307 
L 283.85556 198.038257 
L 283.936744 198.438437 
L 284.180296 191.09747 
L 284.26148 192.403646 
L 284.342664 183.882735 
L 284.505032 66.769109 
L 284.586216 111.639621 
L 284.748584 279.606062 
L 284.992135 221.063185 
L 285.479239 183.437183 
L 285.722791 177.630611 
L 285.966342 171.293003 
L 286.047526 172.922005 
L 286.12871 173.092772 
L 286.209894 170.073866 
L 286.291078 171.260569 
L 286.372262 170.401105 
L 286.453446 171.537913 
L 286.53463 170.918903 
L 286.615814 171.379472 
L 286.696998 172.593888 
L 287.102918 200.365516 
L 287.184101 200.111701 
L 287.671205 186.528677 
L 287.914757 180.880255 
L 287.995941 180.529346 
L 288.077125 180.661248 
L 288.158309 180.505777 
L 288.239493 178.885905 
L 288.320677 179.244833 
L 288.483044 182.805822 
L 288.564228 182.312183 
L 288.726596 183.859325 
L 288.80778 183.760515 
L 288.888964 185.317005 
L 288.970148 184.960475 
L 289.051332 185.208429 
L 289.132516 184.864815 
L 289.2137 183.368465 
L 289.376068 185.361568 
L 289.457252 185.170734 
L 289.538436 184.386454 
L 289.700803 186.173038 
L 289.863171 180.625698 
L 289.944355 180.745913 
L 290.025539 179.060555 
L 290.106723 180.258606 
L 290.512643 199.203165 
L 290.837378 192.164928 
L 290.918562 192.170517 
L 290.999746 185.8562 
L 291.162114 69.137159 
L 291.243298 112.093921 
L 291.405666 282.71955 
L 291.568034 228.581227 
L 292.136321 187.991767 
L 292.217505 186.376224 
L 292.461057 178.104437 
L 292.542241 177.475881 
L 292.623425 174.317086 
L 292.704609 175.252838 
L 292.785793 176.612763 
L 292.866977 173.833106 
L 292.948161 174.096756 
L 293.110529 172.531396 
L 293.191712 172.491176 
L 293.272896 173.40782 
L 293.435264 179.025177 
L 293.76 201.163072 
L 293.841184 202.553798 
L 294.084736 194.842755 
L 294.734207 177.765869 
L 294.896575 179.205301 
L 294.977759 181.384833 
L 295.058943 180.404602 
L 295.221311 182.941943 
L 295.302495 182.059824 
L 295.383679 183.271532 
L 295.464863 181.96458 
L 295.546047 182.845464 
L 295.62723 182.546035 
L 295.708414 182.664103 
L 295.870782 184.45758 
L 296.03315 175.831833 
L 296.114334 177.419067 
L 296.276702 174.187352 
L 296.601438 198.321159 
L 296.682622 198.380947 
L 297.007357 189.267318 
L 297.088541 188.613792 
L 297.169725 182.005268 
L 297.332093 70.86438 
L 297.413277 117.595256 
L 297.575645 276.963682 
L 297.819197 217.936382 
L 298.225116 189.512646 
L 298.549852 177.863233 
L 298.955772 174.031315 
L 299.036956 174.710207 
L 299.199323 171.509175 
L 299.280507 171.538832 
L 299.524059 176.193539 
L 299.848795 198.837622 
L 299.929979 198.473517 
L 300.011163 198.939729 
L 300.254715 193.213107 
L 300.57945 184.033137 
L 300.660634 182.139491 
L 300.741818 183.721884 
L 300.904186 180.749563 
L 300.98537 181.358185 
L 301.147738 179.906441 
L 301.228922 180.44988 
L 301.472474 182.619464 
L 301.553658 182.771429 
L 301.634841 182.605944 
L 301.716025 183.135659 
L 301.797209 182.664775 
L 301.959577 174.629087 
L 302.040761 175.615384 
L 302.121945 176.104994 
L 302.203129 175.049076 
L 302.527865 199.462387 
L 302.609049 200.267304 
L 302.690233 198.845637 
L 302.8526 190.267193 
L 302.933784 190.2931 
L 303.014968 191.778971 
L 303.096152 181.218307 
L 303.25852 62.08201 
L 303.502072 279.86441 
L 303.583256 235.446329 
L 304.070359 195.178972 
L 304.313911 183.368535 
L 304.557463 176.456334 
L 304.638647 176.862735 
L 304.882199 173.760998 
L 305.125751 172.613013 
L 305.288118 173.246577 
L 305.450486 178.356428 
L 305.856406 206.24322 
L 305.93759 205.211929 
L 306.262326 189.15867 
L 306.34351 189.456759 
L 306.424693 192.117126 
L 306.749429 170.153824 
L 306.911797 186.247845 
L 306.992981 175.132025 
L 307.155349 188.15705 
L 307.236533 180.53837 
L 307.317717 185.357688 
L 307.398901 181.249542 
L 307.480085 182.811166 
L 307.561268 177.622674 
L 307.723636 182.431414 
L 307.967188 171.64106 
L 308.048372 171.948397 
L 308.129556 177.147986 
L 308.291924 195.553857 
L 308.373108 193.48735 
L 308.454292 200.533894 
L 308.697844 190.514417 
L 308.941395 185.733446 
L 309.022579 162.877677 
L 309.184947 64.814309 
L 309.347315 287.960098 
L 309.590867 226.942635 
L 309.996786 191.503076 
L 310.07797 190.138866 
L 310.240338 182.028552 
L 310.321522 184.540105 
L 310.48389 176.533963 
L 310.565074 179.387005 
L 310.646258 173.920003 
L 310.727442 174.468661 
L 310.808626 175.796114 
L 310.88981 170.487678 
L 311.052178 174.751935 
L 311.214545 168.463216 
L 311.701649 201.354313 
L 311.782833 197.160324 
L 312.026385 193.962939 
L 312.188753 186.114323 
L 312.269937 186.386642 
L 312.432304 182.347183 
L 312.513488 178.970737 
L 312.594672 180.690411 
L 312.75704 175.945888 
L 312.919408 186.196699 
L 313.081776 175.830056 
L 313.16296 183.572887 
L 313.244144 180.800314 
L 313.325328 181.363297 
L 313.406512 183.862261 
L 313.650063 180.355081 
L 313.731247 174.025144 
L 313.893615 181.558011 
L 313.974799 173.852545 
L 314.137167 180.236769 
L 314.461903 202.022148 
L 314.543087 193.102211 
L 314.624271 195.779277 
L 314.705455 194.77715 
L 314.867822 191.909156 
L 314.949006 181.423256 
L 315.192558 76.789232 
L 315.354926 294.95358 
L 315.598478 225.177949 
L 316.247949 176.552611 
L 316.329133 181.225116 
L 316.410317 176.726862 
L 316.491501 178.100646 
L 316.653869 176.466957 
L 316.735053 176.257363 
L 316.816237 169.520192 
L 316.978605 175.304676 
L 317.059789 171.345285 
L 317.222156 179.289639 
L 317.30334 171.985041 
L 317.628076 195.898845 
L 317.790444 202.56326 
L 317.952812 192.404526 
L 318.033996 192.589896 
L 318.11518 194.486419 
L 318.196364 186.77662 
L 318.277548 190.410402 
L 318.439915 177.389282 
L 318.521099 180.643047 
L 318.602283 179.298163 
L 318.683467 183.681024 
L 318.764651 183.387057 
L 318.845835 182.803583 
L 319.008203 178.145777 
L 319.170571 180.397504 
L 319.251755 187.87583 
L 319.332939 185.051986 
L 319.414123 177.467846 
L 319.495307 178.547145 
L 319.657674 169.226591 
L 320.063594 199.691495 
L 320.307146 189.300714 
L 320.38833 194.662357 
L 320.550698 181.812098 
L 320.631882 185.334522 
L 320.794249 65.697313 
L 320.875433 100.702447 
L 321.037801 290.831121 
L 321.200169 229.986502 
L 321.281353 225.244892 
L 321.606089 187.524157 
L 321.768457 193.258751 
L 322.093192 174.680365 
L 322.174376 178.236537 
L 322.25556 172.514204 
L 322.336744 173.906939 
L 322.417928 173.546882 
L 322.499112 175.292834 
L 322.580296 175.104884 
L 322.66148 171.178325 
L 322.742664 172.868766 
L 322.823848 171.530906 
L 322.905032 172.564857 
L 322.986216 175.433336 
L 323.148584 190.223423 
L 323.310951 202.139538 
L 323.392135 200.450427 
L 323.473319 200.193348 
L 323.554503 197.003284 
L 323.635687 200.008693 
L 323.879239 187.117722 
L 323.960423 188.906405 
L 324.041607 187.873162 
L 324.122791 182.361261 
L 324.203975 183.507482 
L 324.285159 182.160161 
L 324.447526 177.174385 
L 324.52871 179.13541 
L 324.609894 177.721439 
L 324.691078 178.572842 
L 324.772262 182.012684 
L 324.93463 175.228008 
L 325.096998 179.839248 
L 325.178182 179.739237 
L 325.259366 176.310599 
L 325.584101 196.505843 
L 325.665285 192.892951 
L 325.746469 195.777559 
L 325.908837 188.731771 
L 325.990021 192.408262 
L 326.071205 192.236476 
L 326.152389 183.432196 
L 326.314757 64.935991 
L 326.395941 119.096594 
L 326.558309 278.193174 
L 326.80186 217.738376 
L 327.451332 178.717477 
L 327.532516 178.701632 
L 327.938436 172.446146 
L 328.100803 174.668158 
L 328.181987 174.111451 
L 328.263171 175.382651 
L 328.344355 172.685657 
L 328.425539 173.96637 
L 328.912643 201.999649 
L 329.237378 189.479748 
L 329.48093 186.176769 
L 329.562114 186.566134 
L 329.724482 180.393037 
L 329.805666 182.820744 
L 329.88685 182.46859 
L 329.968034 180.096344 
L 330.049218 181.009955 
L 330.130402 180.877456 
L 330.29277 177.904345 
L 330.373953 174.356786 
L 330.942241 199.421041 
L 331.023425 196.960493 
L 331.348161 187.98329 
L 331.429345 187.687065 
L 331.510529 171.93147 
L 331.672896 69.496077 
L 331.916448 267.88837 
L 332.16 213.685272 
L 332.647104 181.673328 
L 332.809471 179.248235 
L 332.971839 176.252746 
L 333.053023 175.572554 
L 333.134207 175.900738 
L 333.296575 174.156418 
L 333.540127 175.882193 
L 333.621311 175.649272 
L 333.783679 177.499367 
L 333.864863 176.319033 
L 334.189598 195.764475 
L 334.514334 189.175612 
L 334.595518 191.505062 
L 334.676702 191.359271 
L 334.920254 185.375461 
L 335.082622 183.653818 
L 335.244989 185.070643 
L 335.326173 185.205179 
L 335.488541 178.520834 
L 335.569725 180.200184 
L 335.732093 177.94059 
L 336.138013 198.435864 
L 336.462748 190.47033 
L 336.625116 184.063207 
L 336.7063 159.200004 
L 336.868668 79.513462 
L 337.031036 270.151175 
L 337.11222 264.11621 
L 337.355772 214.235651 
L 337.680507 190.528274 
L 337.924059 182.324604 
L 338.167611 173.043018 
L 338.248795 173.486263 
L 338.411163 178.86868 
L 338.492347 174.845145 
L 338.573531 175.642222 
L 338.654715 176.13351 
L 338.817082 174.033208 
L 338.898266 172.569735 
L 339.304186 192.265559 
L 339.38537 191.064355 
L 339.466554 192.444934 
L 339.547738 192.014577 
L 339.79129 187.486282 
L 339.872474 187.828745 
L 339.953658 184.94434 
L 340.034841 185.139254 
L 340.197209 183.525547 
L 340.278393 184.909939 
L 340.359577 183.959393 
L 340.521945 180.604629 
L 340.603129 180.038602 
L 340.765497 176.517465 
L 340.927865 187.403943 
L 341.090233 198.471047 
L 341.171416 199.693951 
L 341.2526 198.784929 
L 341.65852 186.51144 
L 341.739704 165.899922 
L 341.902072 73.180411 
L 342.06444 267.784596 
L 342.145624 265.906743 
L 342.307992 221.404436 
L 342.957463 180.031166 
L 343.444567 173.081317 
L 343.525751 172.708809 
L 343.606934 172.75415 
L 343.688118 174.325746 
L 343.769302 174.305957 
L 343.850486 173.46367 
L 344.012854 175.004422 
L 344.499958 194.136962 
L 344.581142 193.511965 
L 344.662326 194.087708 
L 344.824693 188.687529 
L 344.905877 189.337768 
L 345.149429 185.624827 
L 345.311797 183.25654 
L 345.392981 182.642747 
L 345.555349 183.783325 
L 345.717717 183.411393 
L 345.798901 183.784011 
L 345.880085 182.640954 
L 345.961268 177.908129 
L 346.042452 178.826166 
L 346.123636 177.52079 
L 346.20482 178.288487 
L 346.448372 197.143097 
L 346.529556 199.753776 
L 346.61074 198.882717 
L 346.935476 188.364497 
L 347.01666 189.815861 
L 347.097844 179.3929 
L 347.260211 53.568 
L 347.503763 280.93939 
L 347.666131 228.731945 
L 348.072051 193.636127 
L 348.315603 182.610765 
L 348.559154 175.810003 
L 348.640338 176.484086 
L 348.802706 173.804523 
L 348.88389 173.820409 
L 348.965074 173.144285 
L 349.046258 173.785522 
L 349.208626 172.701058 
L 349.28981 172.676684 
L 349.452178 176.589243 
L 349.858097 199.436667 
L 349.939281 198.572624 
L 350.345201 186.30742 
L 350.669937 181.875467 
L 350.751121 182.195751 
L 350.913488 180.391225 
L 350.994672 181.657674 
L 351.075856 181.479595 
L 351.319408 183.157554 
L 351.481776 182.525249 
L 351.56296 184.238302 
L 351.644144 183.088547 
L 351.806512 176.442691 
L 351.887696 177.524297 
L 351.968879 175.274555 
L 352.050063 176.800002 
L 352.293615 195.237673 
L 352.374799 197.536011 
L 352.455983 197.210234 
L 352.537167 196.685667 
L 352.943087 185.038371 
L 353.105455 63.703225 
L 353.186638 76.036624 
L 353.349006 295.488 
L 353.511374 233.95146 
L 353.592558 230.423814 
L 353.83611 201.58446 
L 354.160846 185.503167 
L 354.404397 177.653837 
L 354.485581 177.032695 
L 354.566765 173.513515 
L 354.647949 175.370333 
L 354.729133 173.529933 
L 354.810317 174.048607 
L 355.135053 171.048544 
L 355.297421 173.343873 
L 355.622156 196.807773 
L 355.70334 199.883731 
L 355.784524 199.655302 
L 356.352812 184.913493 
L 356.596364 180.869628 
L 356.758732 181.718016 
L 356.921099 180.528176 
L 357.083467 182.617533 
L 357.164651 183.18783 
L 357.245835 181.752588 
L 357.327019 183.127683 
L 357.489387 181.67951 
L 357.570571 185.496686 
L 357.651755 182.678203 
L 357.732939 183.12522 
L 357.814123 183.280787 
L 357.895307 182.899137 
L 357.97649 185.551273 
L 358.057674 183.988814 
L 358.220042 186.384172 
L 358.301226 184.985606 
L 358.463594 186.694696 
L 358.544778 186.420469 
L 358.625962 185.606311 
L 358.78833 188.251865 
L 359.113066 179.81469 
L 359.194249 181.458117 
L 359.275433 179.467949 
L 359.600169 200.745107 
L 359.762537 197.998819 
L 360.006089 191.470214 
L 360.087273 191.735112 
L 360.168457 187.46781 
L 360.330825 71.93171 
L 360.412008 88.069981 
L 360.574376 291.724248 
L 360.736744 231.566149 
L 360.817928 228.928506 
L 361.06148 201.054598 
L 361.4674 178.593984 
L 361.548584 178.433588 
L 361.629767 174.496813 
L 361.710951 175.086347 
L 361.873319 173.555656 
L 361.954503 173.775125 
L 362.198055 170.728381 
L 362.279239 170.973681 
L 362.360423 171.223727 
L 362.441607 172.618357 
L 362.522791 171.770644 
L 362.766342 188.649856 
L 363.009894 199.765116 
L 363.172262 197.169122 
L 363.496998 185.005745 
L 363.821734 181.055959 
L 363.902918 181.052161 
L 364.065285 178.759863 
L 364.227653 180.065353 
L 364.308837 180.028615 
L 364.390021 180.177911 
L 364.471205 182.49008 
L 364.552389 182.137286 
L 364.633573 180.955333 
L 364.714757 183.304424 
L 364.877125 181.929746 
L 365.120677 183.235924 
L 365.20186 182.440437 
L 365.364228 183.72291 
L 365.688964 176.564041 
L 365.770148 176.727901 
L 366.0137 197.843248 
L 366.094884 200.588347 
L 366.176068 200.141717 
L 366.338436 195.342051 
L 366.500803 191.456762 
L 366.581987 192.754505 
L 366.663171 185.830643 
L 366.825539 74.385717 
L 366.906723 106.375848 
L 367.069091 284.369436 
L 367.231459 226.376962 
L 367.312643 222.765805 
L 367.718562 190.331326 
L 368.205666 177.47654 
L 368.28685 175.276914 
L 368.368034 175.610034 
L 368.449218 174.208903 
L 368.611586 174.970684 
L 368.69277 172.086534 
L 368.773953 172.300634 
L 368.855137 173.84019 
L 368.936321 173.718423 
L 369.017505 174.154027 
L 369.504609 199.182538 
L 369.585793 198.222338 
L 369.991712 188.172422 
L 370.072896 187.382369 
L 370.235264 182.517038 
L 370.316448 182.556047 
L 370.56 180.461537 
L 370.641184 180.462749 
L 370.803552 182.327573 
L 370.884736 182.514183 
L 371.128288 182.059269 
L 371.290655 184.427148 
L 371.696575 174.313006 
L 371.858943 185.171338 
L 372.102495 199.100378 
L 372.589598 187.961681 
L 372.670782 164.03023 
L 372.83315 67.362982 
L 372.995518 279.946693 
L 373.076702 258.765653 
L 373.23907 223.368901 
L 373.563805 197.443357 
L 373.807357 183.530551 
L 374.213277 175.678228 
L 374.294461 176.450544 
L 374.456829 173.068005 
L 374.538013 174.457472 
L 374.619197 173.201022 
L 374.700381 173.482863 
L 374.943932 175.338642 
L 375.1063 184.126304 
L 375.349852 199.665977 
L 375.431036 200.700053 
L 375.755772 191.680496 
L 375.999323 185.331556 
L 376.080507 185.012537 
L 376.242875 181.104085 
L 376.324059 182.13259 
L 376.405243 180.413943 
L 376.486427 180.72003 
L 376.567611 180.735566 
L 376.648795 180.37068 
L 376.892347 182.276301 
L 376.973531 183.887258 
L 377.054715 183.63746 
L 377.135899 183.592762 
L 377.217082 184.506488 
L 377.37945 181.191904 
L 377.541818 175.376551 
L 377.623002 177.247689 
L 377.704186 175.454938 
L 378.110106 198.758657 
L 378.597209 188.081181 
L 378.678393 162.873865 
L 378.840761 64.956698 
L 379.003129 287.62296 
L 379.246681 227.58687 
L 379.490233 203.969424 
L 380.139704 178.12517 
L 380.220888 175.783428 
L 380.302072 175.897596 
L 380.46444 173.688694 
L 380.626808 173.789118 
L 380.707992 173.627362 
L 380.789175 172.859967 
L 380.951543 174.425038 
L 381.438647 201.184861 
L 382.006934 184.167459 
L 382.088118 184.341363 
L 382.169302 183.44647 
L 382.412854 179.147905 
L 382.575222 181.952886 
L 382.73759 179.751871 
L 382.899958 183.080605 
L 382.981142 181.472319 
L 383.14351 182.97264 
L 383.549429 173.018977 
L 383.630613 174.016296 
L 383.874165 195.886558 
L 383.955349 198.835199 
L 384.198901 193.612187 
L 384.280085 193.069262 
L 384.442452 188.946219 
L 384.523636 177.365411 
L 384.686004 61.285487 
L 384.848372 273.542864 
L 384.929556 269.127287 
L 385.091924 227.849822 
L 385.579027 190.119545 
L 385.822579 181.729626 
L 386.066131 175.836179 
L 386.147315 176.05203 
L 386.472051 172.782952 
L 386.553235 174.663706 
L 386.634419 174.015793 
L 386.715603 173.746889 
L 386.796786 174.7501 
L 386.959154 182.931388 
L 387.202706 197.244601 
L 387.365074 200.101229 
L 387.770994 185.859004 
L 387.852178 186.260048 
L 388.176913 180.222718 
L 388.258097 180.461181 
L 388.420465 183.297528 
L 388.582833 181.034403 
L 388.664017 182.987224 
L 388.745201 181.553918 
L 388.826385 183.687067 
L 389.069937 180.576171 
L 389.151121 175.81117 
L 389.232304 175.856386 
L 389.394672 172.613036 
L 389.719408 198.843777 
L 389.881776 196.083536 
L 390.287696 183.782149 
L 390.450063 68.620463 
L 390.531247 97.893219 
L 390.693615 284.144803 
L 390.855983 228.48064 
L 391.424271 186.612619 
L 391.992558 173.882092 
L 392.073742 175.351129 
L 392.317294 172.429579 
L 392.479662 173.795456 
L 392.723214 180.580993 
L 392.966765 196.711107 
L 393.129133 199.074507 
L 393.859789 180.551893 
L 394.022156 182.048442 
L 394.10334 181.898725 
L 394.184524 180.469324 
L 394.346892 182.98531 
L 394.428076 181.276883 
L 394.50926 182.769378 
L 394.996364 172.95818 
L 395.402283 198.277257 
L 395.564651 194.555589 
L 395.889387 184.253871 
L 396.051755 80.082147 
L 396.132939 91.080082 
L 396.295307 282.542564 
L 396.538858 218.535239 
L 396.944778 189.255474 
L 397.025962 187.982902 
L 397.18833 180.175373 
L 397.269514 180.701189 
L 397.350698 177.510347 
L 397.431882 177.962157 
L 397.594249 175.079854 
L 397.675433 175.902046 
L 397.756617 175.797547 
L 397.837801 174.887987 
L 397.918985 176.029518 
L 398.000169 175.222441 
L 398.081353 176.093086 
L 398.406089 184.657907 
L 398.487273 192.634783 
L 398.487273 192.634783 
" clip-path="url(#p3a4990bfb7)" style="fill: none; stroke: #1f77b4; stroke-width: 1.5; stroke-linecap: square"/>
   </g>
   <g id="patch_3">
    <path d="M 57.6 307.584 
L 57.6 41.472 
" style="fill: none; stroke: #000000; stroke-width: 0.8; stroke-linejoin: miter; stroke-linecap: square"/>
   </g>
   <g id="patch_4">
    <path d="M 414.72 307.584 
L 414.72 41.472 
" style="fill: none; stroke: #000000; stroke-width: 0.8; stroke-linejoin: miter; stroke-linecap: square"/>
   </g>
   <g id="patch_5">
    <path d="M 57.6 307.584 
L 414.72 307.584 
" style="fill: none; stroke: #000000; stroke-width: 0.8; stroke-linejoin: miter; stroke-linecap: square"/>
   </g>
   <g id="patch_6">
    <path d="M 57.6 41.472 
L 414.72 41.472 
" style="fill: none; stroke: #000000; stroke-width: 0.8; stroke-linejoin: miter; stroke-linecap: square"/>
   </g>
  </g>
 </g>
 <defs>
  <clipPath id="p3a4990bfb7">
   <rect x="57.6" y="41.472" width="357.12" height="266.112"/>
  </clipPath>
 </defs>
</svg>
