<?xml version="1.0" encoding="utf-8" standalone="no"?>
<!DOCTYPE svg PUBLIC "-//W3C//DTD SVG 1.1//EN"
  "http://www.w3.org/Graphics/SVG/1.1/DTD/svg11.dtd">
<svg xmlns:xlink="http://www.w3.org/1999/xlink" width="460.8pt" height="345.6pt" viewBox="0 0 460.8 345.6" xmlns="http://www.w3.org/2000/svg" version="1.1">
 <metadata>
  <rdf:RDF xmlns:dc="http://purl.org/dc/elements/1.1/" xmlns:cc="http://creativecommons.org/ns#" xmlns:rdf="http://www.w3.org/1999/02/22-rdf-syntax-ns#">
   <cc:Work>
    <dc:type rdf:resource="http://purl.org/dc/dcmitype/StillImage"/>
    <dc:date>2024-05-31T12:06:57.436721</dc:date>
    <dc:format>image/svg+xml</dc:format>
    <dc:creator>
     <cc:Agent>
      <dc:title>Matplotlib v3.8.2, https://matplotlib.org/</dc:title>
     </cc:Agent>
    </dc:creator>
   </cc:Work>
  </rdf:RDF>
 </metadata>
 <defs>
  <style type="text/css">*{stroke-linejoin: round; stroke-linecap: butt}</style>
 </defs>
 <g id="figure_1">
  <g id="patch_1">
   <path d="M 0 345.6 
L 460.8 345.6 
L 460.8 0 
L 0 0 
z
" style="fill: #ffffff"/>
  </g>
  <g id="axes_1">
   <g id="patch_2">
    <path d="M 57.6 307.584 
L 414.72 307.584 
L 414.72 41.472 
L 57.6 41.472 
z
" style="fill: #ffffff"/>
   </g>
   <g id="matplotlib.axis_1">
    <g id="xtick_1">
     <g id="line2d_1">
      <defs>
       <path id="mf405f0dddc" d="M 0 0 
L 0 3.5 
" style="stroke: #000000; stroke-width: 0.8"/>
      </defs>
      <g>
       <use xlink:href="#mf405f0dddc" x="73.832727" y="307.584" style="stroke: #000000; stroke-width: 0.8"/>
      </g>
     </g>
     <g id="text_1">
      <!-- 0 -->
      <g transform="translate(70.651477 322.182437) scale(0.1 -0.1)">
       <defs>
        <path id="DejaVuSans-30" d="M 2034 4250 
Q 1547 4250 1301 3770 
Q 1056 3291 1056 2328 
Q 1056 1369 1301 889 
Q 1547 409 2034 409 
Q 2525 409 2770 889 
Q 3016 1369 3016 2328 
Q 3016 3291 2770 3770 
Q 2525 4250 2034 4250 
z
M 2034 4750 
Q 2819 4750 3233 4129 
Q 3647 3509 3647 2328 
Q 3647 1150 3233 529 
Q 2819 -91 2034 -91 
Q 1250 -91 836 529 
Q 422 1150 422 2328 
Q 422 3509 836 4129 
Q 1250 4750 2034 4750 
z
" transform="scale(0.015625)"/>
       </defs>
       <use xlink:href="#DejaVuSans-30"/>
      </g>
     </g>
    </g>
    <g id="xtick_2">
     <g id="line2d_2">
      <g>
       <use xlink:href="#mf405f0dddc" x="114.414545" y="307.584" style="stroke: #000000; stroke-width: 0.8"/>
      </g>
     </g>
     <g id="text_2">
      <!-- 5 -->
      <g transform="translate(111.233295 322.182437) scale(0.1 -0.1)">
       <defs>
        <path id="DejaVuSans-35" d="M 691 4666 
L 3169 4666 
L 3169 4134 
L 1269 4134 
L 1269 2991 
Q 1406 3038 1543 3061 
Q 1681 3084 1819 3084 
Q 2600 3084 3056 2656 
Q 3513 2228 3513 1497 
Q 3513 744 3044 326 
Q 2575 -91 1722 -91 
Q 1428 -91 1123 -41 
Q 819 9 494 109 
L 494 744 
Q 775 591 1075 516 
Q 1375 441 1709 441 
Q 2250 441 2565 725 
Q 2881 1009 2881 1497 
Q 2881 1984 2565 2268 
Q 2250 2553 1709 2553 
Q 1456 2553 1204 2497 
Q 953 2441 691 2322 
L 691 4666 
z
" transform="scale(0.015625)"/>
       </defs>
       <use xlink:href="#DejaVuSans-35"/>
      </g>
     </g>
    </g>
    <g id="xtick_3">
     <g id="line2d_3">
      <g>
       <use xlink:href="#mf405f0dddc" x="154.996364" y="307.584" style="stroke: #000000; stroke-width: 0.8"/>
      </g>
     </g>
     <g id="text_3">
      <!-- 10 -->
      <g transform="translate(148.633864 322.182437) scale(0.1 -0.1)">
       <defs>
        <path id="DejaVuSans-31" d="M 794 531 
L 1825 531 
L 1825 4091 
L 703 3866 
L 703 4441 
L 1819 4666 
L 2450 4666 
L 2450 531 
L 3481 531 
L 3481 0 
L 794 0 
L 794 531 
z
" transform="scale(0.015625)"/>
       </defs>
       <use xlink:href="#DejaVuSans-31"/>
       <use xlink:href="#DejaVuSans-30" x="63.623047"/>
      </g>
     </g>
    </g>
    <g id="xtick_4">
     <g id="line2d_4">
      <g>
       <use xlink:href="#mf405f0dddc" x="195.578182" y="307.584" style="stroke: #000000; stroke-width: 0.8"/>
      </g>
     </g>
     <g id="text_4">
      <!-- 15 -->
      <g transform="translate(189.215682 322.182437) scale(0.1 -0.1)">
       <use xlink:href="#DejaVuSans-31"/>
       <use xlink:href="#DejaVuSans-35" x="63.623047"/>
      </g>
     </g>
    </g>
    <g id="xtick_5">
     <g id="line2d_5">
      <g>
       <use xlink:href="#mf405f0dddc" x="236.16" y="307.584" style="stroke: #000000; stroke-width: 0.8"/>
      </g>
     </g>
     <g id="text_5">
      <!-- 20 -->
      <g transform="translate(229.7975 322.182437) scale(0.1 -0.1)">
       <defs>
        <path id="DejaVuSans-32" d="M 1228 531 
L 3431 531 
L 3431 0 
L 469 0 
L 469 531 
Q 828 903 1448 1529 
Q 2069 2156 2228 2338 
Q 2531 2678 2651 2914 
Q 2772 3150 2772 3378 
Q 2772 3750 2511 3984 
Q 2250 4219 1831 4219 
Q 1534 4219 1204 4116 
Q 875 4013 500 3803 
L 500 4441 
Q 881 4594 1212 4672 
Q 1544 4750 1819 4750 
Q 2544 4750 2975 4387 
Q 3406 4025 3406 3419 
Q 3406 3131 3298 2873 
Q 3191 2616 2906 2266 
Q 2828 2175 2409 1742 
Q 1991 1309 1228 531 
z
" transform="scale(0.015625)"/>
       </defs>
       <use xlink:href="#DejaVuSans-32"/>
       <use xlink:href="#DejaVuSans-30" x="63.623047"/>
      </g>
     </g>
    </g>
    <g id="xtick_6">
     <g id="line2d_6">
      <g>
       <use xlink:href="#mf405f0dddc" x="276.741818" y="307.584" style="stroke: #000000; stroke-width: 0.8"/>
      </g>
     </g>
     <g id="text_6">
      <!-- 25 -->
      <g transform="translate(270.379318 322.182437) scale(0.1 -0.1)">
       <use xlink:href="#DejaVuSans-32"/>
       <use xlink:href="#DejaVuSans-35" x="63.623047"/>
      </g>
     </g>
    </g>
    <g id="xtick_7">
     <g id="line2d_7">
      <g>
       <use xlink:href="#mf405f0dddc" x="317.323636" y="307.584" style="stroke: #000000; stroke-width: 0.8"/>
      </g>
     </g>
     <g id="text_7">
      <!-- 30 -->
      <g transform="translate(310.961136 322.182437) scale(0.1 -0.1)">
       <defs>
        <path id="DejaVuSans-33" d="M 2597 2516 
Q 3050 2419 3304 2112 
Q 3559 1806 3559 1356 
Q 3559 666 3084 287 
Q 2609 -91 1734 -91 
Q 1441 -91 1130 -33 
Q 819 25 488 141 
L 488 750 
Q 750 597 1062 519 
Q 1375 441 1716 441 
Q 2309 441 2620 675 
Q 2931 909 2931 1356 
Q 2931 1769 2642 2001 
Q 2353 2234 1838 2234 
L 1294 2234 
L 1294 2753 
L 1863 2753 
Q 2328 2753 2575 2939 
Q 2822 3125 2822 3475 
Q 2822 3834 2567 4026 
Q 2313 4219 1838 4219 
Q 1578 4219 1281 4162 
Q 984 4106 628 3988 
L 628 4550 
Q 988 4650 1302 4700 
Q 1616 4750 1894 4750 
Q 2613 4750 3031 4423 
Q 3450 4097 3450 3541 
Q 3450 3153 3228 2886 
Q 3006 2619 2597 2516 
z
" transform="scale(0.015625)"/>
       </defs>
       <use xlink:href="#DejaVuSans-33"/>
       <use xlink:href="#DejaVuSans-30" x="63.623047"/>
      </g>
     </g>
    </g>
    <g id="xtick_8">
     <g id="line2d_8">
      <g>
       <use xlink:href="#mf405f0dddc" x="357.905455" y="307.584" style="stroke: #000000; stroke-width: 0.8"/>
      </g>
     </g>
     <g id="text_8">
      <!-- 35 -->
      <g transform="translate(351.542955 322.182437) scale(0.1 -0.1)">
       <use xlink:href="#DejaVuSans-33"/>
       <use xlink:href="#DejaVuSans-35" x="63.623047"/>
      </g>
     </g>
    </g>
    <g id="xtick_9">
     <g id="line2d_9">
      <g>
       <use xlink:href="#mf405f0dddc" x="398.487273" y="307.584" style="stroke: #000000; stroke-width: 0.8"/>
      </g>
     </g>
     <g id="text_9">
      <!-- 40 -->
      <g transform="translate(392.124773 322.182437) scale(0.1 -0.1)">
       <defs>
        <path id="DejaVuSans-34" d="M 2419 4116 
L 825 1625 
L 2419 1625 
L 2419 4116 
z
M 2253 4666 
L 3047 4666 
L 3047 1625 
L 3713 1625 
L 3713 1100 
L 3047 1100 
L 3047 0 
L 2419 0 
L 2419 1100 
L 313 1100 
L 313 1709 
L 2253 4666 
z
" transform="scale(0.015625)"/>
       </defs>
       <use xlink:href="#DejaVuSans-34"/>
       <use xlink:href="#DejaVuSans-30" x="63.623047"/>
      </g>
     </g>
    </g>
    <g id="text_10">
     <!-- Time [$s$] -->
     <g transform="translate(215.66 335.860562) scale(0.1 -0.1)">
      <defs>
       <path id="DejaVuSans-54" d="M -19 4666 
L 3928 4666 
L 3928 4134 
L 2272 4134 
L 2272 0 
L 1638 0 
L 1638 4134 
L -19 4134 
L -19 4666 
z
" transform="scale(0.015625)"/>
       <path id="DejaVuSans-69" d="M 603 3500 
L 1178 3500 
L 1178 0 
L 603 0 
L 603 3500 
z
M 603 4863 
L 1178 4863 
L 1178 4134 
L 603 4134 
L 603 4863 
z
" transform="scale(0.015625)"/>
       <path id="DejaVuSans-6d" d="M 3328 2828 
Q 3544 3216 3844 3400 
Q 4144 3584 4550 3584 
Q 5097 3584 5394 3201 
Q 5691 2819 5691 2113 
L 5691 0 
L 5113 0 
L 5113 2094 
Q 5113 2597 4934 2840 
Q 4756 3084 4391 3084 
Q 3944 3084 3684 2787 
Q 3425 2491 3425 1978 
L 3425 0 
L 2847 0 
L 2847 2094 
Q 2847 2600 2669 2842 
Q 2491 3084 2119 3084 
Q 1678 3084 1418 2786 
Q 1159 2488 1159 1978 
L 1159 0 
L 581 0 
L 581 3500 
L 1159 3500 
L 1159 2956 
Q 1356 3278 1631 3431 
Q 1906 3584 2284 3584 
Q 2666 3584 2933 3390 
Q 3200 3197 3328 2828 
z
" transform="scale(0.015625)"/>
       <path id="DejaVuSans-65" d="M 3597 1894 
L 3597 1613 
L 953 1613 
Q 991 1019 1311 708 
Q 1631 397 2203 397 
Q 2534 397 2845 478 
Q 3156 559 3463 722 
L 3463 178 
Q 3153 47 2828 -22 
Q 2503 -91 2169 -91 
Q 1331 -91 842 396 
Q 353 884 353 1716 
Q 353 2575 817 3079 
Q 1281 3584 2069 3584 
Q 2775 3584 3186 3129 
Q 3597 2675 3597 1894 
z
M 3022 2063 
Q 3016 2534 2758 2815 
Q 2500 3097 2075 3097 
Q 1594 3097 1305 2825 
Q 1016 2553 972 2059 
L 3022 2063 
z
" transform="scale(0.015625)"/>
       <path id="DejaVuSans-20" transform="scale(0.015625)"/>
       <path id="DejaVuSans-5b" d="M 550 4863 
L 1875 4863 
L 1875 4416 
L 1125 4416 
L 1125 -397 
L 1875 -397 
L 1875 -844 
L 550 -844 
L 550 4863 
z
" transform="scale(0.015625)"/>
       <path id="DejaVuSans-Oblique-73" d="M 3200 3397 
L 3091 2853 
Q 2863 2978 2609 3040 
Q 2356 3103 2088 3103 
Q 1634 3103 1373 2948 
Q 1113 2794 1113 2528 
Q 1113 2219 1719 2053 
Q 1766 2041 1788 2034 
L 1972 1978 
Q 2547 1819 2739 1644 
Q 2931 1469 2931 1166 
Q 2931 609 2489 259 
Q 2047 -91 1331 -91 
Q 1053 -91 747 -37 
Q 441 16 72 128 
L 184 722 
Q 500 559 806 475 
Q 1113 391 1394 391 
Q 1816 391 2080 572 
Q 2344 753 2344 1031 
Q 2344 1331 1650 1516 
L 1591 1531 
L 1394 1581 
Q 956 1697 753 1886 
Q 550 2075 550 2369 
Q 550 2928 970 3256 
Q 1391 3584 2113 3584 
Q 2397 3584 2667 3537 
Q 2938 3491 3200 3397 
z
" transform="scale(0.015625)"/>
       <path id="DejaVuSans-5d" d="M 1947 4863 
L 1947 -844 
L 622 -844 
L 622 -397 
L 1369 -397 
L 1369 4416 
L 622 4416 
L 622 4863 
L 1947 4863 
z
" transform="scale(0.015625)"/>
      </defs>
      <use xlink:href="#DejaVuSans-54" transform="translate(0 0.015625)"/>
      <use xlink:href="#DejaVuSans-69" transform="translate(61.083984 0.015625)"/>
      <use xlink:href="#DejaVuSans-6d" transform="translate(88.867188 0.015625)"/>
      <use xlink:href="#DejaVuSans-65" transform="translate(186.279297 0.015625)"/>
      <use xlink:href="#DejaVuSans-20" transform="translate(247.802734 0.015625)"/>
      <use xlink:href="#DejaVuSans-5b" transform="translate(279.589844 0.015625)"/>
      <use xlink:href="#DejaVuSans-Oblique-73" transform="translate(318.603516 0.015625)"/>
      <use xlink:href="#DejaVuSans-5d" transform="translate(370.703125 0.015625)"/>
     </g>
    </g>
   </g>
   <g id="matplotlib.axis_2">
    <g id="ytick_1">
     <g id="line2d_10">
      <defs>
       <path id="ma5fff552f3" d="M 0 0 
L -3.5 0 
" style="stroke: #000000; stroke-width: 0.8"/>
      </defs>
      <g>
       <use xlink:href="#ma5fff552f3" x="57.6" y="293.178072" style="stroke: #000000; stroke-width: 0.8"/>
      </g>
     </g>
     <g id="text_11">
      <!-- −1.00 -->
      <g transform="translate(19.954687 296.977291) scale(0.1 -0.1)">
       <defs>
        <path id="DejaVuSans-2212" d="M 678 2272 
L 4684 2272 
L 4684 1741 
L 678 1741 
L 678 2272 
z
" transform="scale(0.015625)"/>
        <path id="DejaVuSans-2e" d="M 684 794 
L 1344 794 
L 1344 0 
L 684 0 
L 684 794 
z
" transform="scale(0.015625)"/>
       </defs>
       <use xlink:href="#DejaVuSans-2212"/>
       <use xlink:href="#DejaVuSans-31" x="83.789062"/>
       <use xlink:href="#DejaVuSans-2e" x="147.412109"/>
       <use xlink:href="#DejaVuSans-30" x="179.199219"/>
       <use xlink:href="#DejaVuSans-30" x="242.822266"/>
      </g>
     </g>
    </g>
    <g id="ytick_2">
     <g id="line2d_11">
      <g>
       <use xlink:href="#ma5fff552f3" x="57.6" y="262.938072" style="stroke: #000000; stroke-width: 0.8"/>
      </g>
     </g>
     <g id="text_12">
      <!-- −0.75 -->
      <g transform="translate(19.954687 266.737291) scale(0.1 -0.1)">
       <defs>
        <path id="DejaVuSans-37" d="M 525 4666 
L 3525 4666 
L 3525 4397 
L 1831 0 
L 1172 0 
L 2766 4134 
L 525 4134 
L 525 4666 
z
" transform="scale(0.015625)"/>
       </defs>
       <use xlink:href="#DejaVuSans-2212"/>
       <use xlink:href="#DejaVuSans-30" x="83.789062"/>
       <use xlink:href="#DejaVuSans-2e" x="147.412109"/>
       <use xlink:href="#DejaVuSans-37" x="179.199219"/>
       <use xlink:href="#DejaVuSans-35" x="242.822266"/>
      </g>
     </g>
    </g>
    <g id="ytick_3">
     <g id="line2d_12">
      <g>
       <use xlink:href="#ma5fff552f3" x="57.6" y="232.698072" style="stroke: #000000; stroke-width: 0.8"/>
      </g>
     </g>
     <g id="text_13">
      <!-- −0.50 -->
      <g transform="translate(19.954687 236.497291) scale(0.1 -0.1)">
       <use xlink:href="#DejaVuSans-2212"/>
       <use xlink:href="#DejaVuSans-30" x="83.789062"/>
       <use xlink:href="#DejaVuSans-2e" x="147.412109"/>
       <use xlink:href="#DejaVuSans-35" x="179.199219"/>
       <use xlink:href="#DejaVuSans-30" x="242.822266"/>
      </g>
     </g>
    </g>
    <g id="ytick_4">
     <g id="line2d_13">
      <g>
       <use xlink:href="#ma5fff552f3" x="57.6" y="202.458072" style="stroke: #000000; stroke-width: 0.8"/>
      </g>
     </g>
     <g id="text_14">
      <!-- −0.25 -->
      <g transform="translate(19.954687 206.257291) scale(0.1 -0.1)">
       <use xlink:href="#DejaVuSans-2212"/>
       <use xlink:href="#DejaVuSans-30" x="83.789062"/>
       <use xlink:href="#DejaVuSans-2e" x="147.412109"/>
       <use xlink:href="#DejaVuSans-32" x="179.199219"/>
       <use xlink:href="#DejaVuSans-35" x="242.822266"/>
      </g>
     </g>
    </g>
    <g id="ytick_5">
     <g id="line2d_14">
      <g>
       <use xlink:href="#ma5fff552f3" x="57.6" y="172.218072" style="stroke: #000000; stroke-width: 0.8"/>
      </g>
     </g>
     <g id="text_15">
      <!-- 0.00 -->
      <g transform="translate(28.334375 176.017291) scale(0.1 -0.1)">
       <use xlink:href="#DejaVuSans-30"/>
       <use xlink:href="#DejaVuSans-2e" x="63.623047"/>
       <use xlink:href="#DejaVuSans-30" x="95.410156"/>
       <use xlink:href="#DejaVuSans-30" x="159.033203"/>
      </g>
     </g>
    </g>
    <g id="ytick_6">
     <g id="line2d_15">
      <g>
       <use xlink:href="#ma5fff552f3" x="57.6" y="141.978072" style="stroke: #000000; stroke-width: 0.8"/>
      </g>
     </g>
     <g id="text_16">
      <!-- 0.25 -->
      <g transform="translate(28.334375 145.777291) scale(0.1 -0.1)">
       <use xlink:href="#DejaVuSans-30"/>
       <use xlink:href="#DejaVuSans-2e" x="63.623047"/>
       <use xlink:href="#DejaVuSans-32" x="95.410156"/>
       <use xlink:href="#DejaVuSans-35" x="159.033203"/>
      </g>
     </g>
    </g>
    <g id="ytick_7">
     <g id="line2d_16">
      <g>
       <use xlink:href="#ma5fff552f3" x="57.6" y="111.738072" style="stroke: #000000; stroke-width: 0.8"/>
      </g>
     </g>
     <g id="text_17">
      <!-- 0.50 -->
      <g transform="translate(28.334375 115.537291) scale(0.1 -0.1)">
       <use xlink:href="#DejaVuSans-30"/>
       <use xlink:href="#DejaVuSans-2e" x="63.623047"/>
       <use xlink:href="#DejaVuSans-35" x="95.410156"/>
       <use xlink:href="#DejaVuSans-30" x="159.033203"/>
      </g>
     </g>
    </g>
    <g id="ytick_8">
     <g id="line2d_17">
      <g>
       <use xlink:href="#ma5fff552f3" x="57.6" y="81.498072" style="stroke: #000000; stroke-width: 0.8"/>
      </g>
     </g>
     <g id="text_18">
      <!-- 0.75 -->
      <g transform="translate(28.334375 85.297291) scale(0.1 -0.1)">
       <use xlink:href="#DejaVuSans-30"/>
       <use xlink:href="#DejaVuSans-2e" x="63.623047"/>
       <use xlink:href="#DejaVuSans-37" x="95.410156"/>
       <use xlink:href="#DejaVuSans-35" x="159.033203"/>
      </g>
     </g>
    </g>
    <g id="ytick_9">
     <g id="line2d_18">
      <g>
       <use xlink:href="#ma5fff552f3" x="57.6" y="51.258072" style="stroke: #000000; stroke-width: 0.8"/>
      </g>
     </g>
     <g id="text_19">
      <!-- 1.00 -->
      <g transform="translate(28.334375 55.057291) scale(0.1 -0.1)">
       <use xlink:href="#DejaVuSans-31"/>
       <use xlink:href="#DejaVuSans-2e" x="63.623047"/>
       <use xlink:href="#DejaVuSans-30" x="95.410156"/>
       <use xlink:href="#DejaVuSans-30" x="159.033203"/>
      </g>
     </g>
    </g>
    <g id="text_20">
     <!-- ? -->
     <g transform="translate(13.875 177.181906) rotate(-90) scale(0.1 -0.1)">
      <defs>
       <path id="DejaVuSans-3f" d="M 1222 794 
L 1856 794 
L 1856 0 
L 1222 0 
L 1222 794 
z
M 1838 1253 
L 1241 1253 
L 1241 1734 
Q 1241 2050 1328 2253 
Q 1416 2456 1697 2725 
L 1978 3003 
Q 2156 3169 2236 3316 
Q 2316 3463 2316 3616 
Q 2316 3894 2111 4066 
Q 1906 4238 1569 4238 
Q 1322 4238 1042 4128 
Q 763 4019 459 3809 
L 459 4397 
Q 753 4575 1054 4662 
Q 1356 4750 1678 4750 
Q 2253 4750 2601 4447 
Q 2950 4144 2950 3647 
Q 2950 3409 2837 3195 
Q 2725 2981 2444 2713 
L 2169 2444 
Q 2022 2297 1961 2214 
Q 1900 2131 1875 2053 
Q 1856 1988 1847 1894 
Q 1838 1800 1838 1638 
L 1838 1253 
z
" transform="scale(0.015625)"/>
      </defs>
      <use xlink:href="#DejaVuSans-3f"/>
     </g>
    </g>
   </g>
   <g id="line2d_19">
    <path d="M 73.832727 172.78584 
L 76.268245 172.67838 
L 77.486004 172.363828 
L 79.515603 171.771946 
L 80.165074 171.848468 
L 80.733362 172.154974 
L 81.301649 172.762144 
L 81.869937 173.743091 
L 82.438224 175.166311 
L 83.087696 177.40988 
L 83.818351 180.796614 
L 84.63019 185.675758 
L 85.604397 193.011736 
L 86.90334 204.763754 
L 89.744778 231.285343 
L 90.637801 237.429928 
L 91.368457 240.978987 
L 91.936744 242.669899 
L 92.342664 243.26168 
L 92.6674 243.353035 
L 92.910951 243.195627 
L 93.235687 242.683183 
L 93.641607 241.558048 
L 94.12871 239.508018 
L 94.778182 235.629521 
L 95.508837 229.805055 
L 96.40186 220.819652 
L 97.538436 206.950208 
L 99.08093 185.113977 
L 104.195518 110.306568 
L 105.494461 95.301034 
L 106.549852 85.370935 
L 107.442875 78.896838 
L 108.173531 75.137883 
L 108.741818 73.298977 
L 109.147738 72.623667 
L 109.472474 72.493203 
L 109.716025 72.64616 
L 110.040761 73.198624 
L 110.446681 74.473114 
L 110.933784 76.899246 
L 111.502072 81.023116 
L 112.151543 87.504022 
L 112.882199 97.082407 
L 113.775222 111.988981 
L 114.830613 133.651257 
L 116.291924 168.702626 
L 118.727442 227.352082 
L 119.701649 245.772674 
L 120.513488 257.197265 
L 121.16296 263.328296 
L 121.650063 266.052177 
L 121.974799 266.958846 
L 122.218351 267.162664 
L 122.380719 267.073913 
L 122.624271 266.60847 
L 122.949006 265.380902 
L 123.354926 262.908082 
L 123.923214 257.813197 
L 124.653869 248.795667 
L 125.546892 234.776935 
L 126.927019 209.129641 
L 129.768457 155.643053 
L 131.0674 135.527149 
L 132.203975 121.078766 
L 133.259366 110.312861 
L 134.233573 102.567525 
L 135.045412 97.691663 
L 135.776068 94.544696 
L 136.344355 92.936906 
L 136.831459 92.16749 
L 137.156195 91.977822 
L 137.48093 92.054486 
L 137.805666 92.403991 
L 138.211586 93.233798 
L 138.698689 94.819211 
L 139.266977 97.497384 
L 139.916448 101.658541 
L 140.728288 108.481608 
L 141.621311 117.939174 
L 142.757886 132.503227 
L 144.381564 156.603414 
L 147.466554 202.787918 
L 148.765497 218.648019 
L 149.820888 228.991244 
L 150.713911 235.771634 
L 151.525751 240.314839 
L 152.175222 242.836287 
L 152.74351 244.24277 
L 153.230613 244.868208 
L 153.555349 244.995829 
L 153.880085 244.898798 
L 154.286004 244.472397 
L 154.773108 243.535119 
L 155.341395 241.898707 
L 156.072051 239.040354 
L 157.046258 234.200389 
L 160.861903 213.990377 
L 161.673742 211.415431 
L 162.323214 210.043713 
L 162.891501 209.315956 
L 163.459789 208.963177 
L 164.028076 208.889646 
L 165.083467 209.068073 
L 165.732939 209.058009 
L 166.220042 208.833277 
L 166.707146 208.332153 
L 167.194249 207.48709 
L 167.762537 206.000171 
L 168.412008 203.588273 
L 169.142664 199.970228 
L 170.116871 193.852169 
L 171.74055 181.813886 
L 173.283044 170.918538 
L 174.257252 165.48501 
L 175.069091 162.101127 
L 175.799746 159.932868 
L 176.530402 158.462657 
L 177.261057 157.473037 
L 179.047104 155.328328 
L 179.696575 154.043636 
L 180.346047 152.23879 
L 181.076702 149.475822 
L 181.888541 145.455681 
L 182.862748 139.440144 
L 184.405243 128.254824 
L 186.19129 115.606193 
L 187.165497 110.15305 
L 187.977336 106.832146 
L 188.626808 105.084662 
L 189.113911 104.321783 
L 189.519831 104.039911 
L 189.844567 104.038294 
L 190.250486 104.302288 
L 190.73759 104.980975 
L 191.305877 106.2155 
L 192.036533 108.379407 
L 193.091924 112.310425 
L 194.959154 120.318279 
L 197.151121 130.499557 
L 198.287696 136.853202 
L 199.261903 143.591377 
L 200.23611 151.993522 
L 201.291501 163.280136 
L 202.50926 179.031668 
L 204.538858 209.00558 
L 206.081353 230.241935 
L 207.05556 240.682326 
L 207.786216 246.289388 
L 208.354503 249.126244 
L 208.760423 250.285327 
L 209.085159 250.681047 
L 209.32871 250.666859 
L 209.572262 250.387656 
L 209.896998 249.608575 
L 210.302918 247.997299 
L 210.871205 244.609273 
L 211.520677 239.255051 
L 212.332516 230.650345 
L 213.469091 215.883836 
L 215.336321 187.984627 
L 217.690655 153.55168 
L 218.989598 137.813517 
L 219.963805 128.446926 
L 220.775645 122.543674 
L 221.425116 119.17559 
L 221.993404 117.251137 
L 222.399323 116.463184 
L 222.724059 116.180247 
L 223.048795 116.199332 
L 223.373531 116.511445 
L 223.77945 117.295968 
L 224.266554 118.778881 
L 224.916025 121.579754 
L 225.727865 126.180685 
L 226.86444 134.070134 
L 229.381142 153.722294 
L 235.632304 203.279548 
L 238.311374 225.71062 
L 239.447949 233.343318 
L 240.340973 237.931155 
L 241.071628 240.628715 
L 241.721099 242.209359 
L 242.208203 242.907809 
L 242.614123 243.19187 
L 243.020042 243.227425 
L 243.425962 243.039634 
L 243.913066 242.559123 
L 244.562537 241.570587 
L 245.536744 239.590299 
L 249.027653 231.49864 
L 250.40778 228.035081 
L 251.381987 225.001561 
L 252.275011 221.503751 
L 253.168034 217.124631 
L 254.142241 211.203497 
L 255.197632 203.400643 
L 256.496575 191.979781 
L 258.201438 174.71241 
L 263.234841 122.195146 
L 264.533784 111.538957 
L 265.589175 104.618797 
L 266.482199 100.200489 
L 267.212854 97.647802 
L 267.781142 96.338361 
L 268.268245 95.679091 
L 268.674165 95.443112 
L 269.080085 95.475077 
L 269.486004 95.753582 
L 269.973108 96.375619 
L 270.622579 97.602065 
L 271.67797 100.190239 
L 273.220465 103.958874 
L 273.951121 105.214706 
L 274.519408 105.813614 
L 275.006512 106.035347 
L 275.493615 105.988322 
L 275.980719 105.694018 
L 276.63019 104.992299 
L 278.740973 102.386373 
L 279.146892 102.298727 
L 279.471628 102.432078 
L 279.796364 102.780401 
L 280.202283 103.562543 
L 280.689387 105.076125 
L 281.257674 107.723508 
L 281.907146 112.001656 
L 282.637801 118.454405 
L 283.530825 128.588396 
L 284.6674 144.449974 
L 286.696998 176.892168 
L 288.40186 202.58266 
L 289.538436 216.535223 
L 290.431459 225.09897 
L 291.243298 230.886572 
L 291.89277 234.116364 
L 292.461057 235.924192 
L 292.866977 236.640007 
L 293.191712 236.871584 
L 293.516448 236.803504 
L 293.841184 236.439328 
L 294.247104 235.573678 
L 294.734207 233.94434 
L 295.302495 231.251766 
L 296.03315 226.593898 
L 296.926173 219.224008 
L 297.981564 208.519724 
L 299.605243 189.44626 
L 301.634841 166.0029 
L 302.690233 156.217313 
L 303.502072 150.500875 
L 304.151543 147.232022 
L 304.719831 145.372354 
L 305.125751 144.621064 
L 305.450486 144.362968 
L 305.775222 144.40441 
L 306.099958 144.738687 
L 306.505877 145.556053 
L 306.992981 147.099579 
L 307.642452 150.060043 
L 308.373108 154.540121 
L 309.266131 161.545073 
L 310.321522 171.839462 
L 311.458097 185.195915 
L 312.838224 204.154304 
L 316.816237 260.957851 
L 317.628076 268.624628 
L 318.277548 272.794266 
L 318.683467 274.356569 
L 319.008203 274.987236 
L 319.251755 275.153198 
L 319.495307 275.072397 
L 319.738858 274.740445 
L 320.063594 273.864586 
L 320.469514 271.999045 
L 321.037801 268.181555 
L 321.768457 261.546802 
L 322.823848 249.590587 
L 325.34055 220.104362 
L 326.233573 212.313002 
L 327.045412 207.085929 
L 327.776068 203.838799 
L 328.425539 201.930919 
L 329.075011 200.701202 
L 329.88685 199.68935 
L 330.861057 198.487648 
L 331.510529 197.267372 
L 332.078816 195.712931 
L 332.728288 193.22216 
L 333.377759 189.847705 
L 334.108414 184.893022 
L 334.920254 177.876758 
L 335.894461 167.317532 
L 336.949852 153.257165 
L 338.167611 133.765152 
L 339.628922 106.319022 
L 341.739704 65.465733 
L 342.226808 61.640146 
L 342.795095 58.867548 
L 343.444567 56.813111 
L 344.094038 55.445389 
L 344.74351 54.530092 
L 345.392981 53.949984 
L 346.042452 53.641858 
L 346.691924 53.57162 
L 347.341395 53.723347 
L 347.990867 54.094627 
L 348.721522 54.787922 
L 349.452178 55.810058 
L 350.182833 57.238143 
L 350.832304 58.97208 
L 351.481776 61.381072 
L 352.050063 64.463173 
L 352.537167 68.584726 
L 352.943087 74.242394 
L 354.404397 99.073746 
L 355.459789 120.76993 
L 356.433996 145.314788 
L 357.489387 177.865696 
L 358.707146 222.920917 
L 360.249641 281.722749 
L 360.65556 286.484453 
L 361.142664 289.63319 
L 361.710951 291.864563 
L 362.360423 293.473556 
L 363.009894 294.496128 
L 363.659366 295.1202 
L 364.308837 295.432838 
L 364.877125 295.480888 
L 365.445412 295.32311 
L 366.0137 294.945182 
L 366.581987 294.309924 
L 367.150275 293.343244 
L 367.718562 291.898031 
L 368.205666 290.042261 
L 368.611586 287.711813 
L 369.017505 283.882166 
L 369.342241 277.973581 
L 369.666977 265.161661 
L 371.696575 181.751536 
L 372.83315 144.360066 
L 373.726173 121.721733 
L 374.538013 106.574312 
L 375.187484 98.061884 
L 375.755772 93.050626 
L 376.242875 90.399722 
L 376.648795 89.233668 
L 376.973531 88.915171 
L 377.217082 89.001727 
L 377.541818 89.510363 
L 377.947738 90.707178 
L 378.516025 93.257588 
L 379.246681 97.671021 
L 380.383256 106.053913 
L 384.523636 137.734604 
L 390.531247 179.723112 
L 391.505455 184.597945 
L 392.23611 187.223751 
L 392.804397 188.574078 
L 393.291501 189.233079 
L 393.697421 189.435923 
L 394.022156 189.380958 
L 394.428076 189.058483 
L 394.91518 188.336867 
L 395.564651 186.907211 
L 396.538858 184.106491 
L 398.487273 178.27854 
L 398.487273 178.27854 
" clip-path="url(#p231113f13f)" style="fill: none; stroke: #1f77b4; stroke-width: 1.5; stroke-linecap: square"/>
   </g>
   <g id="patch_3">
    <path d="M 57.6 307.584 
L 57.6 41.472 
" style="fill: none; stroke: #000000; stroke-width: 0.8; stroke-linejoin: miter; stroke-linecap: square"/>
   </g>
   <g id="patch_4">
    <path d="M 414.72 307.584 
L 414.72 41.472 
" style="fill: none; stroke: #000000; stroke-width: 0.8; stroke-linejoin: miter; stroke-linecap: square"/>
   </g>
   <g id="patch_5">
    <path d="M 57.6 307.584 
L 414.72 307.584 
" style="fill: none; stroke: #000000; stroke-width: 0.8; stroke-linejoin: miter; stroke-linecap: square"/>
   </g>
   <g id="patch_6">
    <path d="M 57.6 41.472 
L 414.72 41.472 
" style="fill: none; stroke: #000000; stroke-width: 0.8; stroke-linejoin: miter; stroke-linecap: square"/>
   </g>
  </g>
 </g>
 <defs>
  <clipPath id="p231113f13f">
   <rect x="57.6" y="41.472" width="357.12" height="266.112"/>
  </clipPath>
 </defs>
</svg>
