<?xml version="1.0" encoding="utf-8" standalone="no"?>
<!DOCTYPE svg PUBLIC "-//W3C//DTD SVG 1.1//EN"
  "http://www.w3.org/Graphics/SVG/1.1/DTD/svg11.dtd">
<svg xmlns:xlink="http://www.w3.org/1999/xlink" width="460.8pt" height="345.6pt" viewBox="0 0 460.8 345.6" xmlns="http://www.w3.org/2000/svg" version="1.1">
 <metadata>
  <rdf:RDF xmlns:dc="http://purl.org/dc/elements/1.1/" xmlns:cc="http://creativecommons.org/ns#" xmlns:rdf="http://www.w3.org/1999/02/22-rdf-syntax-ns#">
   <cc:Work>
    <dc:type rdf:resource="http://purl.org/dc/dcmitype/StillImage"/>
    <dc:date>2024-05-31T12:06:57.593257</dc:date>
    <dc:format>image/svg+xml</dc:format>
    <dc:creator>
     <cc:Agent>
      <dc:title>Matplotlib v3.8.2, https://matplotlib.org/</dc:title>
     </cc:Agent>
    </dc:creator>
   </cc:Work>
  </rdf:RDF>
 </metadata>
 <defs>
  <style type="text/css">*{stroke-linejoin: round; stroke-linecap: butt}</style>
 </defs>
 <g id="figure_1">
  <g id="patch_1">
   <path d="M 0 345.6 
L 460.8 345.6 
L 460.8 0 
L 0 0 
z
" style="fill: #ffffff"/>
  </g>
  <g id="axes_1">
   <g id="patch_2">
    <path d="M 57.6 307.584 
L 414.72 307.584 
L 414.72 41.472 
L 57.6 41.472 
z
" style="fill: #ffffff"/>
   </g>
   <g id="matplotlib.axis_1">
    <g id="xtick_1">
     <g id="line2d_1">
      <defs>
       <path id="m07a9d71c88" d="M 0 0 
L 0 3.5 
" style="stroke: #000000; stroke-width: 0.8"/>
      </defs>
      <g>
       <use xlink:href="#m07a9d71c88" x="73.832727" y="307.584" style="stroke: #000000; stroke-width: 0.8"/>
      </g>
     </g>
     <g id="text_1">
      <!-- 0 -->
      <g transform="translate(70.651477 322.182437) scale(0.1 -0.1)">
       <defs>
        <path id="DejaVuSans-30" d="M 2034 4250 
Q 1547 4250 1301 3770 
Q 1056 3291 1056 2328 
Q 1056 1369 1301 889 
Q 1547 409 2034 409 
Q 2525 409 2770 889 
Q 3016 1369 3016 2328 
Q 3016 3291 2770 3770 
Q 2525 4250 2034 4250 
z
M 2034 4750 
Q 2819 4750 3233 4129 
Q 3647 3509 3647 2328 
Q 3647 1150 3233 529 
Q 2819 -91 2034 -91 
Q 1250 -91 836 529 
Q 422 1150 422 2328 
Q 422 3509 836 4129 
Q 1250 4750 2034 4750 
z
" transform="scale(0.015625)"/>
       </defs>
       <use xlink:href="#DejaVuSans-30"/>
      </g>
     </g>
    </g>
    <g id="xtick_2">
     <g id="line2d_2">
      <g>
       <use xlink:href="#m07a9d71c88" x="114.414545" y="307.584" style="stroke: #000000; stroke-width: 0.8"/>
      </g>
     </g>
     <g id="text_2">
      <!-- 5 -->
      <g transform="translate(111.233295 322.182437) scale(0.1 -0.1)">
       <defs>
        <path id="DejaVuSans-35" d="M 691 4666 
L 3169 4666 
L 3169 4134 
L 1269 4134 
L 1269 2991 
Q 1406 3038 1543 3061 
Q 1681 3084 1819 3084 
Q 2600 3084 3056 2656 
Q 3513 2228 3513 1497 
Q 3513 744 3044 326 
Q 2575 -91 1722 -91 
Q 1428 -91 1123 -41 
Q 819 9 494 109 
L 494 744 
Q 775 591 1075 516 
Q 1375 441 1709 441 
Q 2250 441 2565 725 
Q 2881 1009 2881 1497 
Q 2881 1984 2565 2268 
Q 2250 2553 1709 2553 
Q 1456 2553 1204 2497 
Q 953 2441 691 2322 
L 691 4666 
z
" transform="scale(0.015625)"/>
       </defs>
       <use xlink:href="#DejaVuSans-35"/>
      </g>
     </g>
    </g>
    <g id="xtick_3">
     <g id="line2d_3">
      <g>
       <use xlink:href="#m07a9d71c88" x="154.996364" y="307.584" style="stroke: #000000; stroke-width: 0.8"/>
      </g>
     </g>
     <g id="text_3">
      <!-- 10 -->
      <g transform="translate(148.633864 322.182437) scale(0.1 -0.1)">
       <defs>
        <path id="DejaVuSans-31" d="M 794 531 
L 1825 531 
L 1825 4091 
L 703 3866 
L 703 4441 
L 1819 4666 
L 2450 4666 
L 2450 531 
L 3481 531 
L 3481 0 
L 794 0 
L 794 531 
z
" transform="scale(0.015625)"/>
       </defs>
       <use xlink:href="#DejaVuSans-31"/>
       <use xlink:href="#DejaVuSans-30" x="63.623047"/>
      </g>
     </g>
    </g>
    <g id="xtick_4">
     <g id="line2d_4">
      <g>
       <use xlink:href="#m07a9d71c88" x="195.578182" y="307.584" style="stroke: #000000; stroke-width: 0.8"/>
      </g>
     </g>
     <g id="text_4">
      <!-- 15 -->
      <g transform="translate(189.215682 322.182437) scale(0.1 -0.1)">
       <use xlink:href="#DejaVuSans-31"/>
       <use xlink:href="#DejaVuSans-35" x="63.623047"/>
      </g>
     </g>
    </g>
    <g id="xtick_5">
     <g id="line2d_5">
      <g>
       <use xlink:href="#m07a9d71c88" x="236.16" y="307.584" style="stroke: #000000; stroke-width: 0.8"/>
      </g>
     </g>
     <g id="text_5">
      <!-- 20 -->
      <g transform="translate(229.7975 322.182437) scale(0.1 -0.1)">
       <defs>
        <path id="DejaVuSans-32" d="M 1228 531 
L 3431 531 
L 3431 0 
L 469 0 
L 469 531 
Q 828 903 1448 1529 
Q 2069 2156 2228 2338 
Q 2531 2678 2651 2914 
Q 2772 3150 2772 3378 
Q 2772 3750 2511 3984 
Q 2250 4219 1831 4219 
Q 1534 4219 1204 4116 
Q 875 4013 500 3803 
L 500 4441 
Q 881 4594 1212 4672 
Q 1544 4750 1819 4750 
Q 2544 4750 2975 4387 
Q 3406 4025 3406 3419 
Q 3406 3131 3298 2873 
Q 3191 2616 2906 2266 
Q 2828 2175 2409 1742 
Q 1991 1309 1228 531 
z
" transform="scale(0.015625)"/>
       </defs>
       <use xlink:href="#DejaVuSans-32"/>
       <use xlink:href="#DejaVuSans-30" x="63.623047"/>
      </g>
     </g>
    </g>
    <g id="xtick_6">
     <g id="line2d_6">
      <g>
       <use xlink:href="#m07a9d71c88" x="276.741818" y="307.584" style="stroke: #000000; stroke-width: 0.8"/>
      </g>
     </g>
     <g id="text_6">
      <!-- 25 -->
      <g transform="translate(270.379318 322.182437) scale(0.1 -0.1)">
       <use xlink:href="#DejaVuSans-32"/>
       <use xlink:href="#DejaVuSans-35" x="63.623047"/>
      </g>
     </g>
    </g>
    <g id="xtick_7">
     <g id="line2d_7">
      <g>
       <use xlink:href="#m07a9d71c88" x="317.323636" y="307.584" style="stroke: #000000; stroke-width: 0.8"/>
      </g>
     </g>
     <g id="text_7">
      <!-- 30 -->
      <g transform="translate(310.961136 322.182437) scale(0.1 -0.1)">
       <defs>
        <path id="DejaVuSans-33" d="M 2597 2516 
Q 3050 2419 3304 2112 
Q 3559 1806 3559 1356 
Q 3559 666 3084 287 
Q 2609 -91 1734 -91 
Q 1441 -91 1130 -33 
Q 819 25 488 141 
L 488 750 
Q 750 597 1062 519 
Q 1375 441 1716 441 
Q 2309 441 2620 675 
Q 2931 909 2931 1356 
Q 2931 1769 2642 2001 
Q 2353 2234 1838 2234 
L 1294 2234 
L 1294 2753 
L 1863 2753 
Q 2328 2753 2575 2939 
Q 2822 3125 2822 3475 
Q 2822 3834 2567 4026 
Q 2313 4219 1838 4219 
Q 1578 4219 1281 4162 
Q 984 4106 628 3988 
L 628 4550 
Q 988 4650 1302 4700 
Q 1616 4750 1894 4750 
Q 2613 4750 3031 4423 
Q 3450 4097 3450 3541 
Q 3450 3153 3228 2886 
Q 3006 2619 2597 2516 
z
" transform="scale(0.015625)"/>
       </defs>
       <use xlink:href="#DejaVuSans-33"/>
       <use xlink:href="#DejaVuSans-30" x="63.623047"/>
      </g>
     </g>
    </g>
    <g id="xtick_8">
     <g id="line2d_8">
      <g>
       <use xlink:href="#m07a9d71c88" x="357.905455" y="307.584" style="stroke: #000000; stroke-width: 0.8"/>
      </g>
     </g>
     <g id="text_8">
      <!-- 35 -->
      <g transform="translate(351.542955 322.182437) scale(0.1 -0.1)">
       <use xlink:href="#DejaVuSans-33"/>
       <use xlink:href="#DejaVuSans-35" x="63.623047"/>
      </g>
     </g>
    </g>
    <g id="xtick_9">
     <g id="line2d_9">
      <g>
       <use xlink:href="#m07a9d71c88" x="398.487273" y="307.584" style="stroke: #000000; stroke-width: 0.8"/>
      </g>
     </g>
     <g id="text_9">
      <!-- 40 -->
      <g transform="translate(392.124773 322.182437) scale(0.1 -0.1)">
       <defs>
        <path id="DejaVuSans-34" d="M 2419 4116 
L 825 1625 
L 2419 1625 
L 2419 4116 
z
M 2253 4666 
L 3047 4666 
L 3047 1625 
L 3713 1625 
L 3713 1100 
L 3047 1100 
L 3047 0 
L 2419 0 
L 2419 1100 
L 313 1100 
L 313 1709 
L 2253 4666 
z
" transform="scale(0.015625)"/>
       </defs>
       <use xlink:href="#DejaVuSans-34"/>
       <use xlink:href="#DejaVuSans-30" x="63.623047"/>
      </g>
     </g>
    </g>
    <g id="text_10">
     <!-- Time [$s$] -->
     <g transform="translate(215.66 335.860562) scale(0.1 -0.1)">
      <defs>
       <path id="DejaVuSans-54" d="M -19 4666 
L 3928 4666 
L 3928 4134 
L 2272 4134 
L 2272 0 
L 1638 0 
L 1638 4134 
L -19 4134 
L -19 4666 
z
" transform="scale(0.015625)"/>
       <path id="DejaVuSans-69" d="M 603 3500 
L 1178 3500 
L 1178 0 
L 603 0 
L 603 3500 
z
M 603 4863 
L 1178 4863 
L 1178 4134 
L 603 4134 
L 603 4863 
z
" transform="scale(0.015625)"/>
       <path id="DejaVuSans-6d" d="M 3328 2828 
Q 3544 3216 3844 3400 
Q 4144 3584 4550 3584 
Q 5097 3584 5394 3201 
Q 5691 2819 5691 2113 
L 5691 0 
L 5113 0 
L 5113 2094 
Q 5113 2597 4934 2840 
Q 4756 3084 4391 3084 
Q 3944 3084 3684 2787 
Q 3425 2491 3425 1978 
L 3425 0 
L 2847 0 
L 2847 2094 
Q 2847 2600 2669 2842 
Q 2491 3084 2119 3084 
Q 1678 3084 1418 2786 
Q 1159 2488 1159 1978 
L 1159 0 
L 581 0 
L 581 3500 
L 1159 3500 
L 1159 2956 
Q 1356 3278 1631 3431 
Q 1906 3584 2284 3584 
Q 2666 3584 2933 3390 
Q 3200 3197 3328 2828 
z
" transform="scale(0.015625)"/>
       <path id="DejaVuSans-65" d="M 3597 1894 
L 3597 1613 
L 953 1613 
Q 991 1019 1311 708 
Q 1631 397 2203 397 
Q 2534 397 2845 478 
Q 3156 559 3463 722 
L 3463 178 
Q 3153 47 2828 -22 
Q 2503 -91 2169 -91 
Q 1331 -91 842 396 
Q 353 884 353 1716 
Q 353 2575 817 3079 
Q 1281 3584 2069 3584 
Q 2775 3584 3186 3129 
Q 3597 2675 3597 1894 
z
M 3022 2063 
Q 3016 2534 2758 2815 
Q 2500 3097 2075 3097 
Q 1594 3097 1305 2825 
Q 1016 2553 972 2059 
L 3022 2063 
z
" transform="scale(0.015625)"/>
       <path id="DejaVuSans-20" transform="scale(0.015625)"/>
       <path id="DejaVuSans-5b" d="M 550 4863 
L 1875 4863 
L 1875 4416 
L 1125 4416 
L 1125 -397 
L 1875 -397 
L 1875 -844 
L 550 -844 
L 550 4863 
z
" transform="scale(0.015625)"/>
       <path id="DejaVuSans-Oblique-73" d="M 3200 3397 
L 3091 2853 
Q 2863 2978 2609 3040 
Q 2356 3103 2088 3103 
Q 1634 3103 1373 2948 
Q 1113 2794 1113 2528 
Q 1113 2219 1719 2053 
Q 1766 2041 1788 2034 
L 1972 1978 
Q 2547 1819 2739 1644 
Q 2931 1469 2931 1166 
Q 2931 609 2489 259 
Q 2047 -91 1331 -91 
Q 1053 -91 747 -37 
Q 441 16 72 128 
L 184 722 
Q 500 559 806 475 
Q 1113 391 1394 391 
Q 1816 391 2080 572 
Q 2344 753 2344 1031 
Q 2344 1331 1650 1516 
L 1591 1531 
L 1394 1581 
Q 956 1697 753 1886 
Q 550 2075 550 2369 
Q 550 2928 970 3256 
Q 1391 3584 2113 3584 
Q 2397 3584 2667 3537 
Q 2938 3491 3200 3397 
z
" transform="scale(0.015625)"/>
       <path id="DejaVuSans-5d" d="M 1947 4863 
L 1947 -844 
L 622 -844 
L 622 -397 
L 1369 -397 
L 1369 4416 
L 622 4416 
L 622 4863 
L 1947 4863 
z
" transform="scale(0.015625)"/>
      </defs>
      <use xlink:href="#DejaVuSans-54" transform="translate(0 0.015625)"/>
      <use xlink:href="#DejaVuSans-69" transform="translate(61.083984 0.015625)"/>
      <use xlink:href="#DejaVuSans-6d" transform="translate(88.867188 0.015625)"/>
      <use xlink:href="#DejaVuSans-65" transform="translate(186.279297 0.015625)"/>
      <use xlink:href="#DejaVuSans-20" transform="translate(247.802734 0.015625)"/>
      <use xlink:href="#DejaVuSans-5b" transform="translate(279.589844 0.015625)"/>
      <use xlink:href="#DejaVuSans-Oblique-73" transform="translate(318.603516 0.015625)"/>
      <use xlink:href="#DejaVuSans-5d" transform="translate(370.703125 0.015625)"/>
     </g>
    </g>
   </g>
   <g id="matplotlib.axis_2">
    <g id="ytick_1">
     <g id="line2d_10">
      <defs>
       <path id="mdfc474f702" d="M 0 0 
L -3.5 0 
" style="stroke: #000000; stroke-width: 0.8"/>
      </defs>
      <g>
       <use xlink:href="#mdfc474f702" x="57.6" y="295.488" style="stroke: #000000; stroke-width: 0.8"/>
      </g>
     </g>
     <g id="text_11">
      <!-- −1.00 -->
      <g transform="translate(19.954687 299.287219) scale(0.1 -0.1)">
       <defs>
        <path id="DejaVuSans-2212" d="M 678 2272 
L 4684 2272 
L 4684 1741 
L 678 1741 
L 678 2272 
z
" transform="scale(0.015625)"/>
        <path id="DejaVuSans-2e" d="M 684 794 
L 1344 794 
L 1344 0 
L 684 0 
L 684 794 
z
" transform="scale(0.015625)"/>
       </defs>
       <use xlink:href="#DejaVuSans-2212"/>
       <use xlink:href="#DejaVuSans-31" x="83.789062"/>
       <use xlink:href="#DejaVuSans-2e" x="147.412109"/>
       <use xlink:href="#DejaVuSans-30" x="179.199219"/>
       <use xlink:href="#DejaVuSans-30" x="242.822266"/>
      </g>
     </g>
    </g>
    <g id="ytick_2">
     <g id="line2d_11">
      <g>
       <use xlink:href="#mdfc474f702" x="57.6" y="265.248" style="stroke: #000000; stroke-width: 0.8"/>
      </g>
     </g>
     <g id="text_12">
      <!-- −0.75 -->
      <g transform="translate(19.954687 269.047219) scale(0.1 -0.1)">
       <defs>
        <path id="DejaVuSans-37" d="M 525 4666 
L 3525 4666 
L 3525 4397 
L 1831 0 
L 1172 0 
L 2766 4134 
L 525 4134 
L 525 4666 
z
" transform="scale(0.015625)"/>
       </defs>
       <use xlink:href="#DejaVuSans-2212"/>
       <use xlink:href="#DejaVuSans-30" x="83.789062"/>
       <use xlink:href="#DejaVuSans-2e" x="147.412109"/>
       <use xlink:href="#DejaVuSans-37" x="179.199219"/>
       <use xlink:href="#DejaVuSans-35" x="242.822266"/>
      </g>
     </g>
    </g>
    <g id="ytick_3">
     <g id="line2d_12">
      <g>
       <use xlink:href="#mdfc474f702" x="57.6" y="235.008" style="stroke: #000000; stroke-width: 0.8"/>
      </g>
     </g>
     <g id="text_13">
      <!-- −0.50 -->
      <g transform="translate(19.954687 238.807219) scale(0.1 -0.1)">
       <use xlink:href="#DejaVuSans-2212"/>
       <use xlink:href="#DejaVuSans-30" x="83.789062"/>
       <use xlink:href="#DejaVuSans-2e" x="147.412109"/>
       <use xlink:href="#DejaVuSans-35" x="179.199219"/>
       <use xlink:href="#DejaVuSans-30" x="242.822266"/>
      </g>
     </g>
    </g>
    <g id="ytick_4">
     <g id="line2d_13">
      <g>
       <use xlink:href="#mdfc474f702" x="57.6" y="204.768" style="stroke: #000000; stroke-width: 0.8"/>
      </g>
     </g>
     <g id="text_14">
      <!-- −0.25 -->
      <g transform="translate(19.954687 208.567219) scale(0.1 -0.1)">
       <use xlink:href="#DejaVuSans-2212"/>
       <use xlink:href="#DejaVuSans-30" x="83.789062"/>
       <use xlink:href="#DejaVuSans-2e" x="147.412109"/>
       <use xlink:href="#DejaVuSans-32" x="179.199219"/>
       <use xlink:href="#DejaVuSans-35" x="242.822266"/>
      </g>
     </g>
    </g>
    <g id="ytick_5">
     <g id="line2d_14">
      <g>
       <use xlink:href="#mdfc474f702" x="57.6" y="174.528" style="stroke: #000000; stroke-width: 0.8"/>
      </g>
     </g>
     <g id="text_15">
      <!-- 0.00 -->
      <g transform="translate(28.334375 178.327219) scale(0.1 -0.1)">
       <use xlink:href="#DejaVuSans-30"/>
       <use xlink:href="#DejaVuSans-2e" x="63.623047"/>
       <use xlink:href="#DejaVuSans-30" x="95.410156"/>
       <use xlink:href="#DejaVuSans-30" x="159.033203"/>
      </g>
     </g>
    </g>
    <g id="ytick_6">
     <g id="line2d_15">
      <g>
       <use xlink:href="#mdfc474f702" x="57.6" y="144.288" style="stroke: #000000; stroke-width: 0.8"/>
      </g>
     </g>
     <g id="text_16">
      <!-- 0.25 -->
      <g transform="translate(28.334375 148.087219) scale(0.1 -0.1)">
       <use xlink:href="#DejaVuSans-30"/>
       <use xlink:href="#DejaVuSans-2e" x="63.623047"/>
       <use xlink:href="#DejaVuSans-32" x="95.410156"/>
       <use xlink:href="#DejaVuSans-35" x="159.033203"/>
      </g>
     </g>
    </g>
    <g id="ytick_7">
     <g id="line2d_16">
      <g>
       <use xlink:href="#mdfc474f702" x="57.6" y="114.048" style="stroke: #000000; stroke-width: 0.8"/>
      </g>
     </g>
     <g id="text_17">
      <!-- 0.50 -->
      <g transform="translate(28.334375 117.847219) scale(0.1 -0.1)">
       <use xlink:href="#DejaVuSans-30"/>
       <use xlink:href="#DejaVuSans-2e" x="63.623047"/>
       <use xlink:href="#DejaVuSans-35" x="95.410156"/>
       <use xlink:href="#DejaVuSans-30" x="159.033203"/>
      </g>
     </g>
    </g>
    <g id="ytick_8">
     <g id="line2d_17">
      <g>
       <use xlink:href="#mdfc474f702" x="57.6" y="83.808" style="stroke: #000000; stroke-width: 0.8"/>
      </g>
     </g>
     <g id="text_18">
      <!-- 0.75 -->
      <g transform="translate(28.334375 87.607219) scale(0.1 -0.1)">
       <use xlink:href="#DejaVuSans-30"/>
       <use xlink:href="#DejaVuSans-2e" x="63.623047"/>
       <use xlink:href="#DejaVuSans-37" x="95.410156"/>
       <use xlink:href="#DejaVuSans-35" x="159.033203"/>
      </g>
     </g>
    </g>
    <g id="ytick_9">
     <g id="line2d_18">
      <g>
       <use xlink:href="#mdfc474f702" x="57.6" y="53.568" style="stroke: #000000; stroke-width: 0.8"/>
      </g>
     </g>
     <g id="text_19">
      <!-- 1.00 -->
      <g transform="translate(28.334375 57.367219) scale(0.1 -0.1)">
       <use xlink:href="#DejaVuSans-31"/>
       <use xlink:href="#DejaVuSans-2e" x="63.623047"/>
       <use xlink:href="#DejaVuSans-30" x="95.410156"/>
       <use xlink:href="#DejaVuSans-30" x="159.033203"/>
      </g>
     </g>
    </g>
    <g id="text_20">
     <!-- ? -->
     <g transform="translate(13.875 177.181906) rotate(-90) scale(0.1 -0.1)">
      <defs>
       <path id="DejaVuSans-3f" d="M 1222 794 
L 1856 794 
L 1856 0 
L 1222 0 
L 1222 794 
z
M 1838 1253 
L 1241 1253 
L 1241 1734 
Q 1241 2050 1328 2253 
Q 1416 2456 1697 2725 
L 1978 3003 
Q 2156 3169 2236 3316 
Q 2316 3463 2316 3616 
Q 2316 3894 2111 4066 
Q 1906 4238 1569 4238 
Q 1322 4238 1042 4128 
Q 763 4019 459 3809 
L 459 4397 
Q 753 4575 1054 4662 
Q 1356 4750 1678 4750 
Q 2253 4750 2601 4447 
Q 2950 4144 2950 3647 
Q 2950 3409 2837 3195 
Q 2725 2981 2444 2713 
L 2169 2444 
Q 2022 2297 1961 2214 
Q 1900 2131 1875 2053 
Q 1856 1988 1847 1894 
Q 1838 1800 1838 1638 
L 1838 1253 
z
" transform="scale(0.015625)"/>
      </defs>
      <use xlink:href="#DejaVuSans-3f"/>
     </g>
    </g>
   </g>
   <g id="line2d_19">
    <path d="M 73.832727 157.731899 
L 76.511797 157.875576 
L 77.161268 158.251864 
L 77.729556 158.825197 
L 78.379027 159.827623 
L 79.028499 161.258608 
L 79.759154 163.428146 
L 80.570994 166.545537 
L 81.545201 171.183526 
L 83.006512 179.413604 
L 85.198478 191.752089 
L 86.172685 195.979863 
L 86.90334 198.266291 
L 87.471628 199.425877 
L 87.958732 199.95283 
L 88.364651 200.049427 
L 88.689387 199.898599 
L 89.095307 199.423766 
L 89.58241 198.43723 
L 90.150698 196.725233 
L 90.881353 193.679776 
L 91.693192 189.275795 
L 92.748584 182.172181 
L 94.047526 171.782333 
L 96.077125 153.494117 
L 99.162114 125.887988 
L 100.704609 114.083274 
L 101.922368 106.352694 
L 102.896575 101.451583 
L 103.708414 98.418691 
L 104.357886 96.793418 
L 104.844989 96.10034 
L 105.250909 95.899071 
L 105.575645 96.001033 
L 105.900381 96.349345 
L 106.3063 97.148042 
L 106.793404 98.66539 
L 107.361691 101.242301 
L 108.011163 105.28865 
L 108.741818 111.259798 
L 109.634841 120.524841 
L 110.690233 133.915353 
L 112.313911 157.836947 
L 114.34351 187.300217 
L 115.398901 199.441545 
L 116.21074 206.309599 
L 116.860211 209.990816 
L 117.347315 211.627998 
L 117.672051 212.176467 
L 117.915603 212.304238 
L 118.159154 212.1921 
L 118.48389 211.677141 
L 118.88981 210.466574 
L 119.376913 208.230993 
L 120.026385 204.051876 
L 120.838224 197.216903 
L 121.974799 185.516205 
L 126.439915 137.230017 
L 127.657674 127.330648 
L 128.794249 119.843406 
L 129.768457 114.757234 
L 130.66148 111.171875 
L 131.392135 109.023856 
L 132.041607 107.735016 
L 132.52871 107.170447 
L 132.93463 106.974694 
L 133.34055 107.037585 
L 133.746469 107.366946 
L 134.233573 108.123383 
L 134.80186 109.51449 
L 135.451332 111.781558 
L 136.181987 115.184648 
L 137.075011 120.505701 
L 138.130402 128.239623 
L 139.591712 140.833584 
L 143.569725 176.229131 
L 144.787484 184.726017 
L 145.842875 190.604118 
L 146.735899 194.406907 
L 147.466554 196.694362 
L 148.116025 198.100867 
L 148.684313 198.851232 
L 149.171416 199.143936 
L 149.577336 199.147093 
L 149.983256 198.938668 
L 150.470359 198.42207 
L 151.038647 197.477624 
L 151.769302 195.786705 
L 152.74351 192.8828 
L 156.396786 181.217749 
L 157.208626 179.659658 
L 157.858097 178.842983 
L 158.507569 178.385499 
L 159.15704 178.225942 
L 159.968879 178.299307 
L 161.349006 178.470606 
L 161.917294 178.313136 
L 162.485581 177.905576 
L 163.053869 177.188919 
L 163.70334 175.944493 
L 164.433996 173.986081 
L 165.327019 170.858527 
L 166.544778 165.675684 
L 168.899112 155.552912 
L 169.873319 152.383764 
L 170.685159 150.428908 
L 171.415814 149.184841 
L 172.146469 148.342162 
L 173.039493 147.659118 
L 174.500803 146.604207 
L 175.231459 145.757664 
L 175.962114 144.524498 
L 176.69277 142.830552 
L 177.504609 140.386146 
L 178.56 136.420622 
L 180.264863 128.925404 
L 181.888541 122.089603 
L 182.862748 118.841537 
L 183.674588 116.863997 
L 184.324059 115.820833 
L 184.892347 115.312296 
L 185.37945 115.170194 
L 185.866554 115.284739 
L 186.353658 115.635197 
L 187.003129 116.423662 
L 187.814968 117.822685 
L 188.951543 120.285939 
L 191.468245 126.440329 
L 193.091924 130.832359 
L 194.147315 134.366017 
L 195.040338 138.11627 
L 195.933362 142.78588 
L 196.907569 149.064017 
L 198.044144 157.891083 
L 199.83019 173.848657 
L 201.616237 189.175007 
L 202.590444 195.7493 
L 203.321099 199.382305 
L 203.889387 201.312871 
L 204.37649 202.302225 
L 204.78241 202.64629 
L 205.107146 202.606716 
L 205.431882 202.29062 
L 205.837801 201.515783 
L 206.324905 200.051681 
L 206.974376 197.257322 
L 207.786216 192.572765 
L 208.760423 185.544941 
L 210.14055 173.840082 
L 214.037378 139.87095 
L 215.173953 132.223657 
L 216.066977 127.543138 
L 216.797632 124.710675 
L 217.447104 122.99371 
L 217.934207 122.208613 
L 218.340127 121.879993 
L 218.746047 121.839501 
L 219.151966 122.075551 
L 219.63907 122.702047 
L 220.207357 123.8642 
L 220.938013 125.944907 
L 221.91222 129.507751 
L 223.373531 135.835125 
L 229.868245 165.818447 
L 234.820465 190.601223 
L 235.794672 193.877766 
L 236.606512 195.842446 
L 237.255983 196.897009 
L 237.824271 197.457231 
L 238.392558 197.706737 
L 238.960846 197.682851 
L 239.529133 197.430294 
L 240.259789 196.847803 
L 241.31518 195.685771 
L 245.130825 190.896853 
L 246.348584 189.068831 
L 247.322791 187.185723 
L 248.215814 184.979703 
L 249.190021 181.936703 
L 250.245412 177.823684 
L 251.381987 172.46082 
L 252.762114 164.828366 
L 254.710529 152.668141 
L 258.526173 128.676615 
L 259.9063 121.441671 
L 261.042875 116.604755 
L 261.935899 113.685635 
L 262.666554 111.941011 
L 263.316025 110.897061 
L 263.884313 110.372655 
L 264.371416 110.200422 
L 264.85852 110.266003 
L 265.426808 110.610046 
L 266.076279 111.293515 
L 267.050486 112.701492 
L 268.917717 115.486655 
L 269.648372 116.199115 
L 270.297844 116.531638 
L 270.866131 116.570573 
L 271.434419 116.38355 
L 272.165074 115.867604 
L 274.600592 113.854649 
L 275.087696 113.869093 
L 275.493615 114.104179 
L 275.899535 114.578981 
L 276.386638 115.506965 
L 276.954926 117.133941 
L 277.604397 119.759114 
L 278.335053 123.703613 
L 279.228076 129.864158 
L 280.364651 139.437426 
L 282.637801 161.154589 
L 284.180296 174.77941 
L 285.316871 183.001793 
L 286.291078 188.475289 
L 287.102918 191.833067 
L 287.752389 193.709994 
L 288.320677 194.757522 
L 288.80778 195.212988 
L 289.2137 195.281025 
L 289.619619 195.06683 
L 290.025539 194.572051 
L 290.512643 193.611825 
L 291.08093 191.996067 
L 291.811586 189.1656 
L 292.704609 184.650119 
L 293.76 178.072413 
L 295.464863 165.805817 
L 297.332093 152.787077 
L 298.387484 146.877298 
L 299.199323 143.41756 
L 299.929979 141.219204 
L 300.498266 140.131951 
L 300.98537 139.632535 
L 301.39129 139.51506 
L 301.797209 139.661269 
L 302.203129 140.062281 
L 302.690233 140.866418 
L 303.25852 142.229373 
L 303.989175 144.619212 
L 304.801015 148.075461 
L 305.775222 153.296889 
L 306.830613 160.241399 
L 308.048372 169.807883 
L 309.753235 185.226317 
L 311.864017 204.031697 
L 312.838224 210.782836 
L 313.568879 214.429912 
L 314.137167 216.262008 
L 314.543087 216.990019 
L 314.867822 217.214714 
L 315.111374 217.174136 
L 315.43611 216.844584 
L 315.84203 216.002639 
L 316.329133 214.398475 
L 316.978605 211.36555 
L 317.871628 205.89737 
L 319.657674 193.01016 
L 320.956617 184.487764 
L 321.849641 179.908287 
L 322.66148 176.82181 
L 323.392135 174.875314 
L 324.122791 173.576823 
L 324.853446 172.728592 
L 327.20778 170.369054 
L 327.857252 169.186094 
L 328.587907 167.34157 
L 329.318562 164.868427 
L 330.130402 161.312237 
L 331.023425 156.356721 
L 331.997632 149.644883 
L 333.053023 140.782644 
L 334.270782 128.509779 
L 335.732093 111.280006 
L 339.141818 69.846325 
L 340.034841 61.960929 
L 340.765497 57.304735 
L 341.333784 54.946195 
L 341.739704 53.967158 
L 342.06444 53.60808 
L 342.307992 53.5823 
L 342.551543 53.760158 
L 342.876279 54.302941 
L 343.282199 55.445126 
L 343.850486 57.825015 
L 344.581142 61.997412 
L 345.636533 69.560573 
L 347.584947 85.549974 
L 349.452178 102.226633 
L 350.507569 113.541875 
L 351.481776 126.432664 
L 352.455983 142.477469 
L 353.511374 163.792281 
L 354.810317 194.862797 
L 357.732939 266.41656 
L 358.625962 282.024427 
L 359.275433 289.907683 
L 359.762537 293.63014 
L 360.168457 295.213954 
L 360.412008 295.488 
L 360.574376 295.387814 
L 360.817928 294.814777 
L 361.142664 293.270403 
L 361.548584 290.118194 
L 362.116871 283.547841 
L 362.766342 273.263753 
L 363.659366 255.188466 
L 364.958309 223.745677 
L 367.475011 162.346714 
L 368.611586 140.471841 
L 369.504609 127.204685 
L 370.316448 118.290569 
L 370.96592 113.2471 
L 371.534207 110.246975 
L 372.021311 108.630401 
L 372.42723 107.890008 
L 372.751966 107.655622 
L 373.076702 107.708071 
L 373.401438 108.018085 
L 373.807357 108.723415 
L 374.375645 110.204741 
L 375.187484 113.061243 
L 376.486427 118.632799 
L 380.220888 135.035037 
L 383.874165 150.790956 
L 385.741395 158.552508 
L 386.796786 162.037565 
L 387.608626 163.986564 
L 388.258097 165.005685 
L 388.826385 165.484928 
L 389.313488 165.595198 
L 389.800592 165.445951 
L 390.368879 164.980857 
L 391.018351 164.137479 
L 391.992558 162.469298 
L 394.184524 158.619983 
L 395.077548 157.517557 
L 395.889387 156.835063 
L 396.701226 156.421256 
L 397.675433 156.181897 
L 398.487273 156.108878 
L 398.487273 156.108878 
" clip-path="url(#p7b23d78321)" style="fill: none; stroke: #1f77b4; stroke-width: 1.5; stroke-linecap: square"/>
   </g>
   <g id="line2d_20">
    <defs>
     <path id="m9fbd34b490" d="M 0 3 
C 0.795609 3 1.55874 2.683901 2.12132 2.12132 
C 2.683901 1.55874 3 0.795609 3 0 
C 3 -0.795609 2.683901 -1.55874 2.12132 -2.12132 
C 1.55874 -2.683901 0.795609 -3 0 -3 
C -0.795609 -3 -1.55874 -2.683901 -2.12132 -2.12132 
C -2.683901 -1.55874 -3 -0.795609 -3 0 
C -3 0.795609 -2.683901 1.55874 -2.12132 2.12132 
C -1.55874 2.683901 -0.795609 3 0 3 
z
" style="stroke: #ff7f0e"/>
    </defs>
    <g clip-path="url(#p7b23d78321)">
     <use xlink:href="#m9fbd34b490" x="109.39129" y="74.800475" style="fill: #ff7f0e; stroke: #ff7f0e"/>
     <use xlink:href="#m9fbd34b490" x="137.237378" y="94.281689" style="fill: #ff7f0e; stroke: #ff7f0e"/>
     <use xlink:href="#m9fbd34b490" x="189.682199" y="106.324699" style="fill: #ff7f0e; stroke: #ff7f0e"/>
     <use xlink:href="#m9fbd34b490" x="222.886427" y="118.462468" style="fill: #ff7f0e; stroke: #ff7f0e"/>
     <use xlink:href="#m9fbd34b490" x="268.836533" y="97.734755" style="fill: #ff7f0e; stroke: #ff7f0e"/>
     <use xlink:href="#m9fbd34b490" x="305.53167" y="146.655411" style="fill: #ff7f0e; stroke: #ff7f0e"/>
     <use xlink:href="#m9fbd34b490" x="346.529556" y="55.877928" style="fill: #ff7f0e; stroke: #ff7f0e"/>
    </g>
   </g>
   <g id="line2d_21">
    <defs>
     <path id="m97a256fcc5" d="M 0 3 
C 0.795609 3 1.55874 2.683901 2.12132 2.12132 
C 2.683901 1.55874 3 0.795609 3 0 
C 3 -0.795609 2.683901 -1.55874 2.12132 -2.12132 
C 1.55874 -2.683901 0.795609 -3 0 -3 
C -0.795609 -3 -1.55874 -2.683901 -2.12132 -2.12132 
C -2.683901 -1.55874 -3 -0.795609 -3 0 
C -3 0.795609 -2.683901 1.55874 -2.12132 2.12132 
C -1.55874 2.683901 -0.795609 3 0 3 
z
" style="stroke: #2ca02c"/>
    </defs>
    <g clip-path="url(#p7b23d78321)">
     <use xlink:href="#m97a256fcc5" x="92.586216" y="245.672302" style="fill: #2ca02c; stroke: #2ca02c"/>
     <use xlink:href="#m97a256fcc5" x="122.218351" y="269.472592" style="fill: #2ca02c; stroke: #2ca02c"/>
     <use xlink:href="#m97a256fcc5" x="153.555349" y="247.305757" style="fill: #2ca02c; stroke: #2ca02c"/>
     <use xlink:href="#m97a256fcc5" x="209.166342" y="253.015817" style="fill: #2ca02c; stroke: #2ca02c"/>
     <use xlink:href="#m97a256fcc5" x="242.857674" y="245.551418" style="fill: #2ca02c; stroke: #2ca02c"/>
     <use xlink:href="#m97a256fcc5" x="293.272896" y="239.192451" style="fill: #2ca02c; stroke: #2ca02c"/>
     <use xlink:href="#m97a256fcc5" x="319.332939" y="277.463474" style="fill: #2ca02c; stroke: #2ca02c"/>
    </g>
   </g>
   <g id="patch_3">
    <path d="M 57.6 307.584 
L 57.6 41.472 
" style="fill: none; stroke: #000000; stroke-width: 0.8; stroke-linejoin: miter; stroke-linecap: square"/>
   </g>
   <g id="patch_4">
    <path d="M 414.72 307.584 
L 414.72 41.472 
" style="fill: none; stroke: #000000; stroke-width: 0.8; stroke-linejoin: miter; stroke-linecap: square"/>
   </g>
   <g id="patch_5">
    <path d="M 57.6 307.584 
L 414.72 307.584 
" style="fill: none; stroke: #000000; stroke-width: 0.8; stroke-linejoin: miter; stroke-linecap: square"/>
   </g>
   <g id="patch_6">
    <path d="M 57.6 41.472 
L 414.72 41.472 
" style="fill: none; stroke: #000000; stroke-width: 0.8; stroke-linejoin: miter; stroke-linecap: square"/>
   </g>
  </g>
 </g>
 <defs>
  <clipPath id="p7b23d78321">
   <rect x="57.6" y="41.472" width="357.12" height="266.112"/>
  </clipPath>
 </defs>
</svg>
