<?xml version="1.0" encoding="utf-8" standalone="no"?>
<!DOCTYPE svg PUBLIC "-//W3C//DTD SVG 1.1//EN"
  "http://www.w3.org/Graphics/SVG/1.1/DTD/svg11.dtd">
<svg xmlns:xlink="http://www.w3.org/1999/xlink" width="460.8pt" height="345.6pt" viewBox="0 0 460.8 345.6" xmlns="http://www.w3.org/2000/svg" version="1.1">
 <metadata>
  <rdf:RDF xmlns:dc="http://purl.org/dc/elements/1.1/" xmlns:cc="http://creativecommons.org/ns#" xmlns:rdf="http://www.w3.org/1999/02/22-rdf-syntax-ns#">
   <cc:Work>
    <dc:type rdf:resource="http://purl.org/dc/dcmitype/StillImage"/>
    <dc:date>2024-06-05T15:50:42.971991</dc:date>
    <dc:format>image/svg+xml</dc:format>
    <dc:creator>
     <cc:Agent>
      <dc:title>Matplotlib v3.8.2, https://matplotlib.org/</dc:title>
     </cc:Agent>
    </dc:creator>
   </cc:Work>
  </rdf:RDF>
 </metadata>
 <defs>
  <style type="text/css">*{stroke-linejoin: round; stroke-linecap: butt}</style>
 </defs>
 <g id="figure_1">
  <g id="patch_1">
   <path d="M 0 345.6 
L 460.8 345.6 
L 460.8 0 
L 0 0 
z
" style="fill: #ffffff"/>
  </g>
  <g id="axes_1">
   <g id="patch_2">
    <path d="M 57.6 307.584 
L 414.72 307.584 
L 414.72 41.472 
L 57.6 41.472 
z
" style="fill: #ffffff"/>
   </g>
   <g id="matplotlib.axis_1">
    <g id="xtick_1">
     <g id="line2d_1">
      <defs>
       <path id="mbdc67a9c5c" d="M 0 0 
L 0 3.5 
" style="stroke: #000000; stroke-width: 0.8"/>
      </defs>
      <g>
       <use xlink:href="#mbdc67a9c5c" x="73.832727" y="307.584" style="stroke: #000000; stroke-width: 0.8"/>
      </g>
     </g>
     <g id="text_1">
      <!-- 0 -->
      <g transform="translate(70.651477 322.182437) scale(0.1 -0.1)">
       <defs>
        <path id="DejaVuSans-30" d="M 2034 4250 
Q 1547 4250 1301 3770 
Q 1056 3291 1056 2328 
Q 1056 1369 1301 889 
Q 1547 409 2034 409 
Q 2525 409 2770 889 
Q 3016 1369 3016 2328 
Q 3016 3291 2770 3770 
Q 2525 4250 2034 4250 
z
M 2034 4750 
Q 2819 4750 3233 4129 
Q 3647 3509 3647 2328 
Q 3647 1150 3233 529 
Q 2819 -91 2034 -91 
Q 1250 -91 836 529 
Q 422 1150 422 2328 
Q 422 3509 836 4129 
Q 1250 4750 2034 4750 
z
" transform="scale(0.015625)"/>
       </defs>
       <use xlink:href="#DejaVuSans-30"/>
      </g>
     </g>
    </g>
    <g id="xtick_2">
     <g id="line2d_2">
      <g>
       <use xlink:href="#mbdc67a9c5c" x="127.941818" y="307.584" style="stroke: #000000; stroke-width: 0.8"/>
      </g>
     </g>
     <g id="text_2">
      <!-- 10 -->
      <g transform="translate(121.579318 322.182437) scale(0.1 -0.1)">
       <defs>
        <path id="DejaVuSans-31" d="M 794 531 
L 1825 531 
L 1825 4091 
L 703 3866 
L 703 4441 
L 1819 4666 
L 2450 4666 
L 2450 531 
L 3481 531 
L 3481 0 
L 794 0 
L 794 531 
z
" transform="scale(0.015625)"/>
       </defs>
       <use xlink:href="#DejaVuSans-31"/>
       <use xlink:href="#DejaVuSans-30" x="63.623047"/>
      </g>
     </g>
    </g>
    <g id="xtick_3">
     <g id="line2d_3">
      <g>
       <use xlink:href="#mbdc67a9c5c" x="182.050909" y="307.584" style="stroke: #000000; stroke-width: 0.8"/>
      </g>
     </g>
     <g id="text_3">
      <!-- 20 -->
      <g transform="translate(175.688409 322.182437) scale(0.1 -0.1)">
       <defs>
        <path id="DejaVuSans-32" d="M 1228 531 
L 3431 531 
L 3431 0 
L 469 0 
L 469 531 
Q 828 903 1448 1529 
Q 2069 2156 2228 2338 
Q 2531 2678 2651 2914 
Q 2772 3150 2772 3378 
Q 2772 3750 2511 3984 
Q 2250 4219 1831 4219 
Q 1534 4219 1204 4116 
Q 875 4013 500 3803 
L 500 4441 
Q 881 4594 1212 4672 
Q 1544 4750 1819 4750 
Q 2544 4750 2975 4387 
Q 3406 4025 3406 3419 
Q 3406 3131 3298 2873 
Q 3191 2616 2906 2266 
Q 2828 2175 2409 1742 
Q 1991 1309 1228 531 
z
" transform="scale(0.015625)"/>
       </defs>
       <use xlink:href="#DejaVuSans-32"/>
       <use xlink:href="#DejaVuSans-30" x="63.623047"/>
      </g>
     </g>
    </g>
    <g id="xtick_4">
     <g id="line2d_4">
      <g>
       <use xlink:href="#mbdc67a9c5c" x="236.16" y="307.584" style="stroke: #000000; stroke-width: 0.8"/>
      </g>
     </g>
     <g id="text_4">
      <!-- 30 -->
      <g transform="translate(229.7975 322.182437) scale(0.1 -0.1)">
       <defs>
        <path id="DejaVuSans-33" d="M 2597 2516 
Q 3050 2419 3304 2112 
Q 3559 1806 3559 1356 
Q 3559 666 3084 287 
Q 2609 -91 1734 -91 
Q 1441 -91 1130 -33 
Q 819 25 488 141 
L 488 750 
Q 750 597 1062 519 
Q 1375 441 1716 441 
Q 2309 441 2620 675 
Q 2931 909 2931 1356 
Q 2931 1769 2642 2001 
Q 2353 2234 1838 2234 
L 1294 2234 
L 1294 2753 
L 1863 2753 
Q 2328 2753 2575 2939 
Q 2822 3125 2822 3475 
Q 2822 3834 2567 4026 
Q 2313 4219 1838 4219 
Q 1578 4219 1281 4162 
Q 984 4106 628 3988 
L 628 4550 
Q 988 4650 1302 4700 
Q 1616 4750 1894 4750 
Q 2613 4750 3031 4423 
Q 3450 4097 3450 3541 
Q 3450 3153 3228 2886 
Q 3006 2619 2597 2516 
z
" transform="scale(0.015625)"/>
       </defs>
       <use xlink:href="#DejaVuSans-33"/>
       <use xlink:href="#DejaVuSans-30" x="63.623047"/>
      </g>
     </g>
    </g>
    <g id="xtick_5">
     <g id="line2d_5">
      <g>
       <use xlink:href="#mbdc67a9c5c" x="290.269091" y="307.584" style="stroke: #000000; stroke-width: 0.8"/>
      </g>
     </g>
     <g id="text_5">
      <!-- 40 -->
      <g transform="translate(283.906591 322.182437) scale(0.1 -0.1)">
       <defs>
        <path id="DejaVuSans-34" d="M 2419 4116 
L 825 1625 
L 2419 1625 
L 2419 4116 
z
M 2253 4666 
L 3047 4666 
L 3047 1625 
L 3713 1625 
L 3713 1100 
L 3047 1100 
L 3047 0 
L 2419 0 
L 2419 1100 
L 313 1100 
L 313 1709 
L 2253 4666 
z
" transform="scale(0.015625)"/>
       </defs>
       <use xlink:href="#DejaVuSans-34"/>
       <use xlink:href="#DejaVuSans-30" x="63.623047"/>
      </g>
     </g>
    </g>
    <g id="xtick_6">
     <g id="line2d_6">
      <g>
       <use xlink:href="#mbdc67a9c5c" x="344.378182" y="307.584" style="stroke: #000000; stroke-width: 0.8"/>
      </g>
     </g>
     <g id="text_6">
      <!-- 50 -->
      <g transform="translate(338.015682 322.182437) scale(0.1 -0.1)">
       <defs>
        <path id="DejaVuSans-35" d="M 691 4666 
L 3169 4666 
L 3169 4134 
L 1269 4134 
L 1269 2991 
Q 1406 3038 1543 3061 
Q 1681 3084 1819 3084 
Q 2600 3084 3056 2656 
Q 3513 2228 3513 1497 
Q 3513 744 3044 326 
Q 2575 -91 1722 -91 
Q 1428 -91 1123 -41 
Q 819 9 494 109 
L 494 744 
Q 775 591 1075 516 
Q 1375 441 1709 441 
Q 2250 441 2565 725 
Q 2881 1009 2881 1497 
Q 2881 1984 2565 2268 
Q 2250 2553 1709 2553 
Q 1456 2553 1204 2497 
Q 953 2441 691 2322 
L 691 4666 
z
" transform="scale(0.015625)"/>
       </defs>
       <use xlink:href="#DejaVuSans-35"/>
       <use xlink:href="#DejaVuSans-30" x="63.623047"/>
      </g>
     </g>
    </g>
    <g id="xtick_7">
     <g id="line2d_7">
      <g>
       <use xlink:href="#mbdc67a9c5c" x="398.487273" y="307.584" style="stroke: #000000; stroke-width: 0.8"/>
      </g>
     </g>
     <g id="text_7">
      <!-- 60 -->
      <g transform="translate(392.124773 322.182437) scale(0.1 -0.1)">
       <defs>
        <path id="DejaVuSans-36" d="M 2113 2584 
Q 1688 2584 1439 2293 
Q 1191 2003 1191 1497 
Q 1191 994 1439 701 
Q 1688 409 2113 409 
Q 2538 409 2786 701 
Q 3034 994 3034 1497 
Q 3034 2003 2786 2293 
Q 2538 2584 2113 2584 
z
M 3366 4563 
L 3366 3988 
Q 3128 4100 2886 4159 
Q 2644 4219 2406 4219 
Q 1781 4219 1451 3797 
Q 1122 3375 1075 2522 
Q 1259 2794 1537 2939 
Q 1816 3084 2150 3084 
Q 2853 3084 3261 2657 
Q 3669 2231 3669 1497 
Q 3669 778 3244 343 
Q 2819 -91 2113 -91 
Q 1303 -91 875 529 
Q 447 1150 447 2328 
Q 447 3434 972 4092 
Q 1497 4750 2381 4750 
Q 2619 4750 2861 4703 
Q 3103 4656 3366 4563 
z
" transform="scale(0.015625)"/>
       </defs>
       <use xlink:href="#DejaVuSans-36"/>
       <use xlink:href="#DejaVuSans-30" x="63.623047"/>
      </g>
     </g>
    </g>
    <g id="text_8">
     <!-- Time [$s$] -->
     <g transform="translate(215.66 335.860562) scale(0.1 -0.1)">
      <defs>
       <path id="DejaVuSans-54" d="M -19 4666 
L 3928 4666 
L 3928 4134 
L 2272 4134 
L 2272 0 
L 1638 0 
L 1638 4134 
L -19 4134 
L -19 4666 
z
" transform="scale(0.015625)"/>
       <path id="DejaVuSans-69" d="M 603 3500 
L 1178 3500 
L 1178 0 
L 603 0 
L 603 3500 
z
M 603 4863 
L 1178 4863 
L 1178 4134 
L 603 4134 
L 603 4863 
z
" transform="scale(0.015625)"/>
       <path id="DejaVuSans-6d" d="M 3328 2828 
Q 3544 3216 3844 3400 
Q 4144 3584 4550 3584 
Q 5097 3584 5394 3201 
Q 5691 2819 5691 2113 
L 5691 0 
L 5113 0 
L 5113 2094 
Q 5113 2597 4934 2840 
Q 4756 3084 4391 3084 
Q 3944 3084 3684 2787 
Q 3425 2491 3425 1978 
L 3425 0 
L 2847 0 
L 2847 2094 
Q 2847 2600 2669 2842 
Q 2491 3084 2119 3084 
Q 1678 3084 1418 2786 
Q 1159 2488 1159 1978 
L 1159 0 
L 581 0 
L 581 3500 
L 1159 3500 
L 1159 2956 
Q 1356 3278 1631 3431 
Q 1906 3584 2284 3584 
Q 2666 3584 2933 3390 
Q 3200 3197 3328 2828 
z
" transform="scale(0.015625)"/>
       <path id="DejaVuSans-65" d="M 3597 1894 
L 3597 1613 
L 953 1613 
Q 991 1019 1311 708 
Q 1631 397 2203 397 
Q 2534 397 2845 478 
Q 3156 559 3463 722 
L 3463 178 
Q 3153 47 2828 -22 
Q 2503 -91 2169 -91 
Q 1331 -91 842 396 
Q 353 884 353 1716 
Q 353 2575 817 3079 
Q 1281 3584 2069 3584 
Q 2775 3584 3186 3129 
Q 3597 2675 3597 1894 
z
M 3022 2063 
Q 3016 2534 2758 2815 
Q 2500 3097 2075 3097 
Q 1594 3097 1305 2825 
Q 1016 2553 972 2059 
L 3022 2063 
z
" transform="scale(0.015625)"/>
       <path id="DejaVuSans-20" transform="scale(0.015625)"/>
       <path id="DejaVuSans-5b" d="M 550 4863 
L 1875 4863 
L 1875 4416 
L 1125 4416 
L 1125 -397 
L 1875 -397 
L 1875 -844 
L 550 -844 
L 550 4863 
z
" transform="scale(0.015625)"/>
       <path id="DejaVuSans-Oblique-73" d="M 3200 3397 
L 3091 2853 
Q 2863 2978 2609 3040 
Q 2356 3103 2088 3103 
Q 1634 3103 1373 2948 
Q 1113 2794 1113 2528 
Q 1113 2219 1719 2053 
Q 1766 2041 1788 2034 
L 1972 1978 
Q 2547 1819 2739 1644 
Q 2931 1469 2931 1166 
Q 2931 609 2489 259 
Q 2047 -91 1331 -91 
Q 1053 -91 747 -37 
Q 441 16 72 128 
L 184 722 
Q 500 559 806 475 
Q 1113 391 1394 391 
Q 1816 391 2080 572 
Q 2344 753 2344 1031 
Q 2344 1331 1650 1516 
L 1591 1531 
L 1394 1581 
Q 956 1697 753 1886 
Q 550 2075 550 2369 
Q 550 2928 970 3256 
Q 1391 3584 2113 3584 
Q 2397 3584 2667 3537 
Q 2938 3491 3200 3397 
z
" transform="scale(0.015625)"/>
       <path id="DejaVuSans-5d" d="M 1947 4863 
L 1947 -844 
L 622 -844 
L 622 -397 
L 1369 -397 
L 1369 4416 
L 622 4416 
L 622 4863 
L 1947 4863 
z
" transform="scale(0.015625)"/>
      </defs>
      <use xlink:href="#DejaVuSans-54" transform="translate(0 0.015625)"/>
      <use xlink:href="#DejaVuSans-69" transform="translate(61.083984 0.015625)"/>
      <use xlink:href="#DejaVuSans-6d" transform="translate(88.867188 0.015625)"/>
      <use xlink:href="#DejaVuSans-65" transform="translate(186.279297 0.015625)"/>
      <use xlink:href="#DejaVuSans-20" transform="translate(247.802734 0.015625)"/>
      <use xlink:href="#DejaVuSans-5b" transform="translate(279.589844 0.015625)"/>
      <use xlink:href="#DejaVuSans-Oblique-73" transform="translate(318.603516 0.015625)"/>
      <use xlink:href="#DejaVuSans-5d" transform="translate(370.703125 0.015625)"/>
     </g>
    </g>
   </g>
   <g id="matplotlib.axis_2">
    <g id="ytick_1">
     <g id="line2d_8">
      <defs>
       <path id="m29592afd96" d="M 0 0 
L -3.5 0 
" style="stroke: #000000; stroke-width: 0.8"/>
      </defs>
      <g>
       <use xlink:href="#m29592afd96" x="57.6" y="279.214572" style="stroke: #000000; stroke-width: 0.8"/>
      </g>
     </g>
     <g id="text_9">
      <!-- −0.75 -->
      <g transform="translate(19.954687 283.013791) scale(0.1 -0.1)">
       <defs>
        <path id="DejaVuSans-2212" d="M 678 2272 
L 4684 2272 
L 4684 1741 
L 678 1741 
L 678 2272 
z
" transform="scale(0.015625)"/>
        <path id="DejaVuSans-2e" d="M 684 794 
L 1344 794 
L 1344 0 
L 684 0 
L 684 794 
z
" transform="scale(0.015625)"/>
        <path id="DejaVuSans-37" d="M 525 4666 
L 3525 4666 
L 3525 4397 
L 1831 0 
L 1172 0 
L 2766 4134 
L 525 4134 
L 525 4666 
z
" transform="scale(0.015625)"/>
       </defs>
       <use xlink:href="#DejaVuSans-2212"/>
       <use xlink:href="#DejaVuSans-30" x="83.789062"/>
       <use xlink:href="#DejaVuSans-2e" x="147.412109"/>
       <use xlink:href="#DejaVuSans-37" x="179.199219"/>
       <use xlink:href="#DejaVuSans-35" x="242.822266"/>
      </g>
     </g>
    </g>
    <g id="ytick_2">
     <g id="line2d_9">
      <g>
       <use xlink:href="#m29592afd96" x="57.6" y="248.974572" style="stroke: #000000; stroke-width: 0.8"/>
      </g>
     </g>
     <g id="text_10">
      <!-- −0.50 -->
      <g transform="translate(19.954687 252.773791) scale(0.1 -0.1)">
       <use xlink:href="#DejaVuSans-2212"/>
       <use xlink:href="#DejaVuSans-30" x="83.789062"/>
       <use xlink:href="#DejaVuSans-2e" x="147.412109"/>
       <use xlink:href="#DejaVuSans-35" x="179.199219"/>
       <use xlink:href="#DejaVuSans-30" x="242.822266"/>
      </g>
     </g>
    </g>
    <g id="ytick_3">
     <g id="line2d_10">
      <g>
       <use xlink:href="#m29592afd96" x="57.6" y="218.734572" style="stroke: #000000; stroke-width: 0.8"/>
      </g>
     </g>
     <g id="text_11">
      <!-- −0.25 -->
      <g transform="translate(19.954687 222.533791) scale(0.1 -0.1)">
       <use xlink:href="#DejaVuSans-2212"/>
       <use xlink:href="#DejaVuSans-30" x="83.789062"/>
       <use xlink:href="#DejaVuSans-2e" x="147.412109"/>
       <use xlink:href="#DejaVuSans-32" x="179.199219"/>
       <use xlink:href="#DejaVuSans-35" x="242.822266"/>
      </g>
     </g>
    </g>
    <g id="ytick_4">
     <g id="line2d_11">
      <g>
       <use xlink:href="#m29592afd96" x="57.6" y="188.494572" style="stroke: #000000; stroke-width: 0.8"/>
      </g>
     </g>
     <g id="text_12">
      <!-- 0.00 -->
      <g transform="translate(28.334375 192.293791) scale(0.1 -0.1)">
       <use xlink:href="#DejaVuSans-30"/>
       <use xlink:href="#DejaVuSans-2e" x="63.623047"/>
       <use xlink:href="#DejaVuSans-30" x="95.410156"/>
       <use xlink:href="#DejaVuSans-30" x="159.033203"/>
      </g>
     </g>
    </g>
    <g id="ytick_5">
     <g id="line2d_12">
      <g>
       <use xlink:href="#m29592afd96" x="57.6" y="158.254572" style="stroke: #000000; stroke-width: 0.8"/>
      </g>
     </g>
     <g id="text_13">
      <!-- 0.25 -->
      <g transform="translate(28.334375 162.053791) scale(0.1 -0.1)">
       <use xlink:href="#DejaVuSans-30"/>
       <use xlink:href="#DejaVuSans-2e" x="63.623047"/>
       <use xlink:href="#DejaVuSans-32" x="95.410156"/>
       <use xlink:href="#DejaVuSans-35" x="159.033203"/>
      </g>
     </g>
    </g>
    <g id="ytick_6">
     <g id="line2d_13">
      <g>
       <use xlink:href="#m29592afd96" x="57.6" y="128.014572" style="stroke: #000000; stroke-width: 0.8"/>
      </g>
     </g>
     <g id="text_14">
      <!-- 0.50 -->
      <g transform="translate(28.334375 131.813791) scale(0.1 -0.1)">
       <use xlink:href="#DejaVuSans-30"/>
       <use xlink:href="#DejaVuSans-2e" x="63.623047"/>
       <use xlink:href="#DejaVuSans-35" x="95.410156"/>
       <use xlink:href="#DejaVuSans-30" x="159.033203"/>
      </g>
     </g>
    </g>
    <g id="ytick_7">
     <g id="line2d_14">
      <g>
       <use xlink:href="#m29592afd96" x="57.6" y="97.774572" style="stroke: #000000; stroke-width: 0.8"/>
      </g>
     </g>
     <g id="text_15">
      <!-- 0.75 -->
      <g transform="translate(28.334375 101.573791) scale(0.1 -0.1)">
       <use xlink:href="#DejaVuSans-30"/>
       <use xlink:href="#DejaVuSans-2e" x="63.623047"/>
       <use xlink:href="#DejaVuSans-37" x="95.410156"/>
       <use xlink:href="#DejaVuSans-35" x="159.033203"/>
      </g>
     </g>
    </g>
    <g id="ytick_8">
     <g id="line2d_15">
      <g>
       <use xlink:href="#m29592afd96" x="57.6" y="67.534572" style="stroke: #000000; stroke-width: 0.8"/>
      </g>
     </g>
     <g id="text_16">
      <!-- 1.00 -->
      <g transform="translate(28.334375 71.333791) scale(0.1 -0.1)">
       <use xlink:href="#DejaVuSans-31"/>
       <use xlink:href="#DejaVuSans-2e" x="63.623047"/>
       <use xlink:href="#DejaVuSans-30" x="95.410156"/>
       <use xlink:href="#DejaVuSans-30" x="159.033203"/>
      </g>
     </g>
    </g>
    <g id="text_17">
     <!-- Normalized amplitude -->
     <g transform="translate(13.875 229.738937) rotate(-90) scale(0.1 -0.1)">
      <defs>
       <path id="DejaVuSans-4e" d="M 628 4666 
L 1478 4666 
L 3547 763 
L 3547 4666 
L 4159 4666 
L 4159 0 
L 3309 0 
L 1241 3903 
L 1241 0 
L 628 0 
L 628 4666 
z
" transform="scale(0.015625)"/>
       <path id="DejaVuSans-6f" d="M 1959 3097 
Q 1497 3097 1228 2736 
Q 959 2375 959 1747 
Q 959 1119 1226 758 
Q 1494 397 1959 397 
Q 2419 397 2687 759 
Q 2956 1122 2956 1747 
Q 2956 2369 2687 2733 
Q 2419 3097 1959 3097 
z
M 1959 3584 
Q 2709 3584 3137 3096 
Q 3566 2609 3566 1747 
Q 3566 888 3137 398 
Q 2709 -91 1959 -91 
Q 1206 -91 779 398 
Q 353 888 353 1747 
Q 353 2609 779 3096 
Q 1206 3584 1959 3584 
z
" transform="scale(0.015625)"/>
       <path id="DejaVuSans-72" d="M 2631 2963 
Q 2534 3019 2420 3045 
Q 2306 3072 2169 3072 
Q 1681 3072 1420 2755 
Q 1159 2438 1159 1844 
L 1159 0 
L 581 0 
L 581 3500 
L 1159 3500 
L 1159 2956 
Q 1341 3275 1631 3429 
Q 1922 3584 2338 3584 
Q 2397 3584 2469 3576 
Q 2541 3569 2628 3553 
L 2631 2963 
z
" transform="scale(0.015625)"/>
       <path id="DejaVuSans-61" d="M 2194 1759 
Q 1497 1759 1228 1600 
Q 959 1441 959 1056 
Q 959 750 1161 570 
Q 1363 391 1709 391 
Q 2188 391 2477 730 
Q 2766 1069 2766 1631 
L 2766 1759 
L 2194 1759 
z
M 3341 1997 
L 3341 0 
L 2766 0 
L 2766 531 
Q 2569 213 2275 61 
Q 1981 -91 1556 -91 
Q 1019 -91 701 211 
Q 384 513 384 1019 
Q 384 1609 779 1909 
Q 1175 2209 1959 2209 
L 2766 2209 
L 2766 2266 
Q 2766 2663 2505 2880 
Q 2244 3097 1772 3097 
Q 1472 3097 1187 3025 
Q 903 2953 641 2809 
L 641 3341 
Q 956 3463 1253 3523 
Q 1550 3584 1831 3584 
Q 2591 3584 2966 3190 
Q 3341 2797 3341 1997 
z
" transform="scale(0.015625)"/>
       <path id="DejaVuSans-6c" d="M 603 4863 
L 1178 4863 
L 1178 0 
L 603 0 
L 603 4863 
z
" transform="scale(0.015625)"/>
       <path id="DejaVuSans-7a" d="M 353 3500 
L 3084 3500 
L 3084 2975 
L 922 459 
L 3084 459 
L 3084 0 
L 275 0 
L 275 525 
L 2438 3041 
L 353 3041 
L 353 3500 
z
" transform="scale(0.015625)"/>
       <path id="DejaVuSans-64" d="M 2906 2969 
L 2906 4863 
L 3481 4863 
L 3481 0 
L 2906 0 
L 2906 525 
Q 2725 213 2448 61 
Q 2172 -91 1784 -91 
Q 1150 -91 751 415 
Q 353 922 353 1747 
Q 353 2572 751 3078 
Q 1150 3584 1784 3584 
Q 2172 3584 2448 3432 
Q 2725 3281 2906 2969 
z
M 947 1747 
Q 947 1113 1208 752 
Q 1469 391 1925 391 
Q 2381 391 2643 752 
Q 2906 1113 2906 1747 
Q 2906 2381 2643 2742 
Q 2381 3103 1925 3103 
Q 1469 3103 1208 2742 
Q 947 2381 947 1747 
z
" transform="scale(0.015625)"/>
       <path id="DejaVuSans-70" d="M 1159 525 
L 1159 -1331 
L 581 -1331 
L 581 3500 
L 1159 3500 
L 1159 2969 
Q 1341 3281 1617 3432 
Q 1894 3584 2278 3584 
Q 2916 3584 3314 3078 
Q 3713 2572 3713 1747 
Q 3713 922 3314 415 
Q 2916 -91 2278 -91 
Q 1894 -91 1617 61 
Q 1341 213 1159 525 
z
M 3116 1747 
Q 3116 2381 2855 2742 
Q 2594 3103 2138 3103 
Q 1681 3103 1420 2742 
Q 1159 2381 1159 1747 
Q 1159 1113 1420 752 
Q 1681 391 2138 391 
Q 2594 391 2855 752 
Q 3116 1113 3116 1747 
z
" transform="scale(0.015625)"/>
       <path id="DejaVuSans-74" d="M 1172 4494 
L 1172 3500 
L 2356 3500 
L 2356 3053 
L 1172 3053 
L 1172 1153 
Q 1172 725 1289 603 
Q 1406 481 1766 481 
L 2356 481 
L 2356 0 
L 1766 0 
Q 1100 0 847 248 
Q 594 497 594 1153 
L 594 3053 
L 172 3053 
L 172 3500 
L 594 3500 
L 594 4494 
L 1172 4494 
z
" transform="scale(0.015625)"/>
       <path id="DejaVuSans-75" d="M 544 1381 
L 544 3500 
L 1119 3500 
L 1119 1403 
Q 1119 906 1312 657 
Q 1506 409 1894 409 
Q 2359 409 2629 706 
Q 2900 1003 2900 1516 
L 2900 3500 
L 3475 3500 
L 3475 0 
L 2900 0 
L 2900 538 
Q 2691 219 2414 64 
Q 2138 -91 1772 -91 
Q 1169 -91 856 284 
Q 544 659 544 1381 
z
M 1991 3584 
L 1991 3584 
z
" transform="scale(0.015625)"/>
      </defs>
      <use xlink:href="#DejaVuSans-4e"/>
      <use xlink:href="#DejaVuSans-6f" x="74.804688"/>
      <use xlink:href="#DejaVuSans-72" x="135.986328"/>
      <use xlink:href="#DejaVuSans-6d" x="175.349609"/>
      <use xlink:href="#DejaVuSans-61" x="272.761719"/>
      <use xlink:href="#DejaVuSans-6c" x="334.041016"/>
      <use xlink:href="#DejaVuSans-69" x="361.824219"/>
      <use xlink:href="#DejaVuSans-7a" x="389.607422"/>
      <use xlink:href="#DejaVuSans-65" x="442.097656"/>
      <use xlink:href="#DejaVuSans-64" x="503.621094"/>
      <use xlink:href="#DejaVuSans-20" x="567.097656"/>
      <use xlink:href="#DejaVuSans-61" x="598.884766"/>
      <use xlink:href="#DejaVuSans-6d" x="660.164062"/>
      <use xlink:href="#DejaVuSans-70" x="757.576172"/>
      <use xlink:href="#DejaVuSans-6c" x="821.052734"/>
      <use xlink:href="#DejaVuSans-69" x="848.835938"/>
      <use xlink:href="#DejaVuSans-74" x="876.619141"/>
      <use xlink:href="#DejaVuSans-75" x="915.828125"/>
      <use xlink:href="#DejaVuSans-64" x="979.207031"/>
      <use xlink:href="#DejaVuSans-65" x="1042.683594"/>
     </g>
    </g>
   </g>
   <g id="line2d_16">
    <path d="M 73.832727 114.41335 
L 74.698617 80.769805 
L 75.18568 72.060311 
L 75.780979 65.288123 
L 76.430397 60.382398 
L 77.079814 57.087522 
L 77.675113 55.108522 
L 78.216294 54.031925 
L 78.649239 53.624597 
L 78.973948 53.576414 
L 79.298656 53.750055 
L 79.677483 54.241803 
L 80.110428 55.210279 
L 80.597491 56.880974 
L 81.138672 59.610717 
L 81.679853 63.576227 
L 82.166916 68.756647 
L 82.599861 75.625484 
L 82.978688 85.40592 
L 83.303397 100.876401 
L 85.468121 213.63745 
L 86.442247 253.21225 
L 87.254019 277.818232 
L 87.686964 286.400143 
L 88.119908 291.060644 
L 88.552853 293.710663 
L 88.985798 295.078441 
L 89.310507 295.465192 
L 89.526979 295.460811 
L 89.79757 295.181687 
L 90.122279 294.459025 
L 90.555223 292.830343 
L 91.042286 289.99749 
L 91.529349 285.83476 
L 92.016412 279.691739 
L 94.830554 238.611137 
L 95.696444 229.764559 
L 96.454098 224.127811 
L 97.103515 220.776401 
L 97.698814 218.751953 
L 98.239995 217.626556 
L 98.727058 217.065472 
L 99.214121 216.811973 
L 99.863538 216.755241 
L 101.108255 216.715694 
L 101.649436 216.44144 
L 102.190617 215.890353 
L 102.731798 215.009378 
L 103.381216 213.475556 
L 104.084751 211.215136 
L 104.950641 207.627079 
L 106.033003 202.096482 
L 107.656546 192.44725 
L 110.200098 177.373176 
L 111.390696 171.644149 
L 112.364822 168.006607 
L 113.176594 165.807805 
L 113.826011 164.621687 
L 114.367192 164.022773 
L 114.854255 163.778737 
L 115.2872 163.786617 
L 115.774263 164.033838 
L 116.315444 164.581539 
L 116.964861 165.575913 
L 117.776633 167.251614 
L 118.858995 170.044765 
L 120.482539 174.92701 
L 124.649633 187.678695 
L 126.002586 191.036784 
L 127.03083 193.0296 
L 127.842602 194.162529 
L 128.546137 194.788414 
L 129.141436 195.049185 
L 129.736736 195.069123 
L 130.332035 194.868306 
L 131.089688 194.35093 
L 132.280287 193.206839 
L 133.416767 192.218563 
L 134.066184 191.932504 
L 134.553247 191.936176 
L 135.04031 192.174075 
L 135.527373 192.682267 
L 136.068554 193.597806 
L 136.663854 195.05879 
L 137.367389 197.407336 
L 138.233279 201.164653 
L 139.369759 207.232619 
L 142.129783 222.474303 
L 142.887436 225.283176 
L 143.428617 226.578666 
L 143.861562 227.114223 
L 144.186271 227.196802 
L 144.456862 227.045378 
L 144.78157 226.589981 
L 145.214515 225.506172 
L 145.701578 223.626826 
L 146.296877 220.389939 
L 147.000413 215.298513 
L 147.920421 206.832831 
L 149.165137 193.067159 
L 151.816925 163.200681 
L 152.736933 155.432227 
L 153.494586 150.805595 
L 154.089885 148.433075 
L 154.576948 147.348754 
L 154.901657 147.052065 
L 155.172247 147.059244 
L 155.442838 147.290515 
L 155.821665 147.973575 
L 156.308728 149.421743 
L 156.904027 151.952178 
L 157.715799 156.450973 
L 159.12287 165.760994 
L 160.800531 176.453148 
L 161.828775 181.622293 
L 162.748783 185.127001 
L 163.614673 187.58475 
L 164.697035 189.956732 
L 166.104106 193.051165 
L 166.915877 195.428955 
L 167.727649 198.529117 
L 168.647657 203.027612 
L 169.784137 209.871367 
L 172.814752 228.904659 
L 173.518287 231.754514 
L 174.059468 233.165756 
L 174.492413 233.739286 
L 174.817122 233.823848 
L 175.087712 233.660724 
L 175.412421 233.180604 
L 175.845366 232.057583 
L 176.386547 229.894724 
L 177.035964 226.255787 
L 177.847736 220.322074 
L 178.984216 210.159916 
L 182.123067 181.093007 
L 183.151311 174.012472 
L 184.071319 169.135745 
L 184.991326 165.437932 
L 186.127807 161.877419 
L 187.697232 157.014483 
L 188.61724 153.306995 
L 189.537248 148.596918 
L 190.61961 141.796307 
L 193.650224 121.896117 
L 194.299641 119.396984 
L 194.732586 118.444872 
L 195.057295 118.164587 
L 195.273767 118.201501 
L 195.544358 118.513543 
L 195.869067 119.295754 
L 196.302012 121.061113 
L 196.789075 124.067424 
L 197.384374 129.228851 
L 198.087909 137.390077 
L 198.953799 150.240855 
L 200.090279 170.848477 
L 204.257374 250.319643 
L 205.123264 261.074899 
L 205.826799 267.24594 
L 206.36798 270.328368 
L 206.800925 271.738079 
L 207.125634 272.184818 
L 207.342106 272.196969 
L 207.558579 271.985141 
L 207.883287 271.258247 
L 208.316232 269.556734 
L 208.857413 266.3337 
L 209.506831 261.033298 
L 210.37272 251.965917 
L 211.563319 236.923997 
L 215.24335 188.773549 
L 216.325712 178.082754 
L 217.24572 171.005027 
L 218.057492 166.369048 
L 218.761027 163.554778 
L 219.356327 162.005697 
L 219.84339 161.270009 
L 220.276335 160.989662 
L 220.655161 161.011868 
L 221.033988 161.264572 
L 221.521051 161.897424 
L 222.11635 163.085055 
L 222.874004 165.143211 
L 223.902248 168.668889 
L 225.417555 174.785269 
L 231.749374 201.217649 
L 233.102327 205.692926 
L 234.076453 208.197994 
L 234.834106 209.575363 
L 235.429406 210.234874 
L 235.916469 210.464446 
L 236.349413 210.41723 
L 236.782358 210.122857 
L 237.269421 209.488532 
L 237.810602 208.404805 
L 238.46002 206.589297 
L 239.271791 203.585451 
L 240.300035 198.800393 
L 241.815343 190.517435 
L 244.034185 178.542143 
L 245.116547 173.879404 
L 246.036555 170.857322 
L 246.794209 169.080559 
L 247.443626 168.07396 
L 247.984807 167.589291 
L 248.47187 167.417208 
L 248.958933 167.484232 
L 249.445996 167.779719 
L 250.041295 168.437544 
L 250.690713 169.513532 
L 251.448366 171.230838 
L 252.314256 173.803614 
L 253.234264 177.265048 
L 254.262508 182.028639 
L 255.453106 188.637064 
L 257.401358 200.980601 
L 258.916666 209.989609 
L 259.782555 213.951776 
L 260.431973 216.022593 
L 260.919036 216.960692 
L 261.297862 217.287008 
L 261.622571 217.269975 
L 261.94728 216.970541 
L 262.326106 216.258902 
L 262.813169 214.772052 
L 263.408469 212.109671 
L 264.112004 207.868798 
L 265.032012 200.875217 
L 266.763792 185.521698 
L 268.170862 173.99427 
L 269.036752 168.562427 
L 269.740288 165.448381 
L 270.281469 163.932179 
L 270.714414 163.28386 
L 271.039122 163.123173 
L 271.309713 163.196495 
L 271.634421 163.523391 
L 272.067366 164.340349 
L 272.608547 165.912859 
L 273.312083 168.716519 
L 274.340327 173.872178 
L 277.370941 189.722159 
L 278.399185 193.676592 
L 279.319193 196.356486 
L 280.130965 198.095908 
L 280.942737 199.328913 
L 281.70039 200.093295 
L 282.403926 200.513845 
L 283.107461 200.676781 
L 283.756878 200.597872 
L 284.406296 200.283525 
L 285.055713 199.709295 
L 285.759248 198.762061 
L 286.516902 197.3316 
L 287.382792 195.159129 
L 288.356918 192.076145 
L 289.763989 186.778103 
L 291.874595 178.877987 
L 292.794603 176.299426 
L 293.498138 174.937135 
L 294.039319 174.304181 
L 294.526382 174.059544 
L 294.959327 174.101843 
L 295.392272 174.382196 
L 295.879335 174.966156 
L 296.528752 176.141084 
L 297.340524 178.125199 
L 298.585241 181.843135 
L 300.749965 188.311171 
L 301.832327 190.841526 
L 302.806453 192.585022 
L 303.780579 193.888035 
L 304.91706 195.033183 
L 307.893556 197.545455 
L 309.354745 198.630238 
L 310.166516 198.987996 
L 310.815934 199.052335 
L 311.411233 198.887633 
L 312.006532 198.474313 
L 312.655949 197.7148 
L 313.359485 196.520829 
L 314.225375 194.556706 
L 315.361855 191.340246 
L 318.06776 183.395575 
L 318.879532 181.76414 
L 319.528949 180.924884 
L 320.016012 180.605631 
L 320.448957 180.558896 
L 320.881902 180.740343 
L 321.368965 181.216467 
L 321.910146 182.07309 
L 322.559564 183.524795 
L 323.371335 185.903244 
L 324.507816 190.008745 
L 328.025493 203.29589 
L 328.945501 205.672794 
L 329.649036 206.933203 
L 330.244335 207.576663 
L 330.731398 207.797728 
L 331.164343 207.757149 
L 331.597288 207.491616 
L 332.084351 206.925935 
L 332.67965 205.861064 
L 333.383186 204.104459 
L 334.249075 201.28962 
L 335.385556 196.764617 
L 338.849115 182.394576 
L 339.715005 179.988816 
L 340.41854 178.666081 
L 340.959721 178.065257 
L 341.446784 177.836887 
L 341.879729 177.874341 
L 342.366792 178.168882 
L 342.907973 178.774708 
L 343.611509 179.914456 
L 344.802107 182.361484 
L 346.209178 185.151815 
L 346.966831 186.215748 
L 347.562131 186.722929 
L 348.103312 186.90431 
L 348.590375 186.838319 
L 349.131556 186.527546 
L 349.780973 185.878132 
L 350.809217 184.478037 
L 352.053934 182.86867 
L 352.649233 182.420785 
L 353.136296 182.314475 
L 353.569241 182.458864 
L 354.002186 182.855152 
L 354.489249 183.622773 
L 355.084548 185.034598 
L 355.788083 187.347297 
L 356.708091 191.255011 
L 360.063414 206.498399 
L 360.658713 207.904564 
L 361.091658 208.459111 
L 361.416367 208.591839 
L 361.741076 208.46995 
L 362.065784 208.086733 
L 362.498729 207.164835 
L 363.03991 205.359668 
L 363.689328 202.285127 
L 364.501099 197.218945 
L 365.583461 188.906832 
L 368.614076 164.786966 
L 369.479965 160.01787 
L 370.129383 157.547512 
L 370.670564 156.295986 
L 371.049391 155.87628 
L 371.374099 155.820124 
L 371.698808 156.04401 
L 372.077635 156.654969 
L 372.51058 157.802659 
L 373.051761 159.879576 
L 373.755296 163.556136 
L 374.621186 169.369311 
L 375.811784 179.029118 
L 379.275343 208.201292 
L 380.195351 213.816034 
L 380.953005 217.214615 
L 381.548304 219.016524 
L 382.035367 219.89456 
L 382.414194 220.20166 
L 382.738903 220.204644 
L 383.063611 219.971462 
L 383.442438 219.40939 
L 383.929501 218.249669 
L 384.5248 216.21884 
L 385.282454 212.796679 
L 386.310698 207.042667 
L 390.098966 184.788201 
L 391.073092 180.868401 
L 391.884863 178.433874 
L 392.642517 176.800402 
L 393.346052 175.760106 
L 394.049588 175.08842 
L 394.807241 174.669752 
L 395.727249 174.434469 
L 397.13432 174.343593 
L 398.487273 174.337353 
L 398.487273 174.337353 
" clip-path="url(#p9ac90b0e35)" style="fill: none; stroke: #1f77b4; stroke-width: 1.5; stroke-linecap: square"/>
   </g>
   <g id="line2d_17">
    <defs>
     <path id="med8355a967" d="M 0 3 
C 0.795609 3 1.55874 2.683901 2.12132 2.12132 
C 2.683901 1.55874 3 0.795609 3 0 
C 3 -0.795609 2.683901 -1.55874 2.12132 -2.12132 
C 1.55874 -2.683901 0.795609 -3 0 -3 
C -0.795609 -3 -1.55874 -2.683901 -2.12132 -2.12132 
C -2.683901 -1.55874 -3 -0.795609 -3 0 
C -3 0.795609 -2.683901 1.55874 -2.12132 2.12132 
C -1.55874 2.683901 -0.795609 3 0 3 
z
" style="stroke: #ff7f0e"/>
    </defs>
    <g clip-path="url(#p9ac90b0e35)">
     <use xlink:href="#med8355a967" x="78.865712" y="53.568" style="fill: #ff7f0e; stroke: #ff7f0e"/>
     <use xlink:href="#med8355a967" x="115.070728" y="163.756921" style="fill: #ff7f0e; stroke: #ff7f0e"/>
     <use xlink:href="#med8355a967" x="155.009893" y="147.027561" style="fill: #ff7f0e; stroke: #ff7f0e"/>
     <use xlink:href="#med8355a967" x="195.111413" y="118.15657" style="fill: #ff7f0e; stroke: #ff7f0e"/>
     <use xlink:href="#med8355a967" x="220.438689" y="160.969757" style="fill: #ff7f0e; stroke: #ff7f0e"/>
     <use xlink:href="#med8355a967" x="248.580106" y="167.411823" style="fill: #ff7f0e; stroke: #ff7f0e"/>
     <use xlink:href="#med8355a967" x="271.09324" y="163.122978" style="fill: #ff7f0e; stroke: #ff7f0e"/>
     <use xlink:href="#med8355a967" x="294.688737" y="174.046963" style="fill: #ff7f0e; stroke: #ff7f0e"/>
     <use xlink:href="#med8355a967" x="320.340721" y="180.549283" style="fill: #ff7f0e; stroke: #ff7f0e"/>
     <use xlink:href="#med8355a967" x="341.609138" y="177.825067" style="fill: #ff7f0e; stroke: #ff7f0e"/>
     <use xlink:href="#med8355a967" x="371.265863" y="155.807655" style="fill: #ff7f0e; stroke: #ff7f0e"/>
    </g>
   </g>
   <g id="line2d_18">
    <defs>
     <path id="m33e3fd3523" d="M 0 3 
C 0.795609 3 1.55874 2.683901 2.12132 2.12132 
C 2.683901 1.55874 3 0.795609 3 0 
C 3 -0.795609 2.683901 -1.55874 2.12132 -2.12132 
C 1.55874 -2.683901 0.795609 -3 0 -3 
C -0.795609 -3 -1.55874 -2.683901 -2.12132 -2.12132 
C -2.683901 -1.55874 -3 -0.795609 -3 0 
C -3 0.795609 -2.683901 1.55874 -2.12132 2.12132 
C -1.55874 2.683901 -0.795609 3 0 3 
z
" style="stroke: #2ca02c"/>
    </defs>
    <g clip-path="url(#p9ac90b0e35)">
     <use xlink:href="#m33e3fd3523" x="89.418743" y="295.488" style="fill: #2ca02c; stroke: #2ca02c"/>
     <use xlink:href="#m33e3fd3523" x="144.132153" y="227.202773" style="fill: #2ca02c; stroke: #2ca02c"/>
     <use xlink:href="#m33e3fd3523" x="174.763004" y="233.830832" style="fill: #2ca02c; stroke: #2ca02c"/>
     <use xlink:href="#m33e3fd3523" x="207.23387" y="272.219162" style="fill: #2ca02c; stroke: #2ca02c"/>
     <use xlink:href="#m33e3fd3523" x="236.024705" y="210.475318" style="fill: #2ca02c; stroke: #2ca02c"/>
     <use xlink:href="#m33e3fd3523" x="261.460217" y="217.313382" style="fill: #2ca02c; stroke: #2ca02c"/>
     <use xlink:href="#m33e3fd3523" x="283.215697" y="200.679185" style="fill: #2ca02c; stroke: #2ca02c"/>
     <use xlink:href="#m33e3fd3523" x="310.653579" y="199.05828" style="fill: #2ca02c; stroke: #2ca02c"/>
     <use xlink:href="#m33e3fd3523" x="330.893753" y="207.808835" style="fill: #2ca02c; stroke: #2ca02c"/>
     <use xlink:href="#m33e3fd3523" x="361.416367" y="208.591839" style="fill: #2ca02c; stroke: #2ca02c"/>
     <use xlink:href="#m33e3fd3523" x="382.576548" y="220.232974" style="fill: #2ca02c; stroke: #2ca02c"/>
    </g>
   </g>
   <g id="patch_3">
    <path d="M 57.6 307.584 
L 57.6 41.472 
" style="fill: none; stroke: #000000; stroke-width: 0.8; stroke-linejoin: miter; stroke-linecap: square"/>
   </g>
   <g id="patch_4">
    <path d="M 414.72 307.584 
L 414.72 41.472 
" style="fill: none; stroke: #000000; stroke-width: 0.8; stroke-linejoin: miter; stroke-linecap: square"/>
   </g>
   <g id="patch_5">
    <path d="M 57.6 307.584 
L 414.72 307.584 
" style="fill: none; stroke: #000000; stroke-width: 0.8; stroke-linejoin: miter; stroke-linecap: square"/>
   </g>
   <g id="patch_6">
    <path d="M 57.6 41.472 
L 414.72 41.472 
" style="fill: none; stroke: #000000; stroke-width: 0.8; stroke-linejoin: miter; stroke-linecap: square"/>
   </g>
  </g>
 </g>
 <defs>
  <clipPath id="p9ac90b0e35">
   <rect x="57.6" y="41.472" width="357.12" height="266.112"/>
  </clipPath>
 </defs>
</svg>
