<?xml version="1.0" encoding="utf-8" standalone="no"?>
<!DOCTYPE svg PUBLIC "-//W3C//DTD SVG 1.1//EN"
  "http://www.w3.org/Graphics/SVG/1.1/DTD/svg11.dtd">
<svg xmlns:xlink="http://www.w3.org/1999/xlink" width="460.8pt" height="345.6pt" viewBox="0 0 460.8 345.6" xmlns="http://www.w3.org/2000/svg" version="1.1">
 <metadata>
  <rdf:RDF xmlns:dc="http://purl.org/dc/elements/1.1/" xmlns:cc="http://creativecommons.org/ns#" xmlns:rdf="http://www.w3.org/1999/02/22-rdf-syntax-ns#">
   <cc:Work>
    <dc:type rdf:resource="http://purl.org/dc/dcmitype/StillImage"/>
    <dc:date>2024-06-05T08:34:00.034935</dc:date>
    <dc:format>image/svg+xml</dc:format>
    <dc:creator>
     <cc:Agent>
      <dc:title>Matplotlib v3.8.2, https://matplotlib.org/</dc:title>
     </cc:Agent>
    </dc:creator>
   </cc:Work>
  </rdf:RDF>
 </metadata>
 <defs>
  <style type="text/css">*{stroke-linejoin: round; stroke-linecap: butt}</style>
 </defs>
 <g id="figure_1">
  <g id="patch_1">
   <path d="M 0 345.6 
L 460.8 345.6 
L 460.8 0 
L 0 0 
z
" style="fill: #ffffff"/>
  </g>
  <g id="axes_1">
   <g id="patch_2">
    <path d="M 57.6 307.584 
L 414.72 307.584 
L 414.72 41.472 
L 57.6 41.472 
z
" style="fill: #ffffff"/>
   </g>
   <g id="matplotlib.axis_1">
    <g id="xtick_1">
     <g id="line2d_1">
      <defs>
       <path id="m4119dbd37d" d="M 0 0 
L 0 3.5 
" style="stroke: #000000; stroke-width: 0.8"/>
      </defs>
      <g>
       <use xlink:href="#m4119dbd37d" x="73.832727" y="307.584" style="stroke: #000000; stroke-width: 0.8"/>
      </g>
     </g>
     <g id="text_1">
      <!-- 0 -->
      <g transform="translate(70.651477 322.182437) scale(0.1 -0.1)">
       <defs>
        <path id="DejaVuSans-30" d="M 2034 4250 
Q 1547 4250 1301 3770 
Q 1056 3291 1056 2328 
Q 1056 1369 1301 889 
Q 1547 409 2034 409 
Q 2525 409 2770 889 
Q 3016 1369 3016 2328 
Q 3016 3291 2770 3770 
Q 2525 4250 2034 4250 
z
M 2034 4750 
Q 2819 4750 3233 4129 
Q 3647 3509 3647 2328 
Q 3647 1150 3233 529 
Q 2819 -91 2034 -91 
Q 1250 -91 836 529 
Q 422 1150 422 2328 
Q 422 3509 836 4129 
Q 1250 4750 2034 4750 
z
" transform="scale(0.015625)"/>
       </defs>
       <use xlink:href="#DejaVuSans-30"/>
      </g>
     </g>
    </g>
    <g id="xtick_2">
     <g id="line2d_2">
      <g>
       <use xlink:href="#m4119dbd37d" x="114.414545" y="307.584" style="stroke: #000000; stroke-width: 0.8"/>
      </g>
     </g>
     <g id="text_2">
      <!-- 5 -->
      <g transform="translate(111.233295 322.182437) scale(0.1 -0.1)">
       <defs>
        <path id="DejaVuSans-35" d="M 691 4666 
L 3169 4666 
L 3169 4134 
L 1269 4134 
L 1269 2991 
Q 1406 3038 1543 3061 
Q 1681 3084 1819 3084 
Q 2600 3084 3056 2656 
Q 3513 2228 3513 1497 
Q 3513 744 3044 326 
Q 2575 -91 1722 -91 
Q 1428 -91 1123 -41 
Q 819 9 494 109 
L 494 744 
Q 775 591 1075 516 
Q 1375 441 1709 441 
Q 2250 441 2565 725 
Q 2881 1009 2881 1497 
Q 2881 1984 2565 2268 
Q 2250 2553 1709 2553 
Q 1456 2553 1204 2497 
Q 953 2441 691 2322 
L 691 4666 
z
" transform="scale(0.015625)"/>
       </defs>
       <use xlink:href="#DejaVuSans-35"/>
      </g>
     </g>
    </g>
    <g id="xtick_3">
     <g id="line2d_3">
      <g>
       <use xlink:href="#m4119dbd37d" x="154.996364" y="307.584" style="stroke: #000000; stroke-width: 0.8"/>
      </g>
     </g>
     <g id="text_3">
      <!-- 10 -->
      <g transform="translate(148.633864 322.182437) scale(0.1 -0.1)">
       <defs>
        <path id="DejaVuSans-31" d="M 794 531 
L 1825 531 
L 1825 4091 
L 703 3866 
L 703 4441 
L 1819 4666 
L 2450 4666 
L 2450 531 
L 3481 531 
L 3481 0 
L 794 0 
L 794 531 
z
" transform="scale(0.015625)"/>
       </defs>
       <use xlink:href="#DejaVuSans-31"/>
       <use xlink:href="#DejaVuSans-30" x="63.623047"/>
      </g>
     </g>
    </g>
    <g id="xtick_4">
     <g id="line2d_4">
      <g>
       <use xlink:href="#m4119dbd37d" x="195.578182" y="307.584" style="stroke: #000000; stroke-width: 0.8"/>
      </g>
     </g>
     <g id="text_4">
      <!-- 15 -->
      <g transform="translate(189.215682 322.182437) scale(0.1 -0.1)">
       <use xlink:href="#DejaVuSans-31"/>
       <use xlink:href="#DejaVuSans-35" x="63.623047"/>
      </g>
     </g>
    </g>
    <g id="xtick_5">
     <g id="line2d_5">
      <g>
       <use xlink:href="#m4119dbd37d" x="236.16" y="307.584" style="stroke: #000000; stroke-width: 0.8"/>
      </g>
     </g>
     <g id="text_5">
      <!-- 20 -->
      <g transform="translate(229.7975 322.182437) scale(0.1 -0.1)">
       <defs>
        <path id="DejaVuSans-32" d="M 1228 531 
L 3431 531 
L 3431 0 
L 469 0 
L 469 531 
Q 828 903 1448 1529 
Q 2069 2156 2228 2338 
Q 2531 2678 2651 2914 
Q 2772 3150 2772 3378 
Q 2772 3750 2511 3984 
Q 2250 4219 1831 4219 
Q 1534 4219 1204 4116 
Q 875 4013 500 3803 
L 500 4441 
Q 881 4594 1212 4672 
Q 1544 4750 1819 4750 
Q 2544 4750 2975 4387 
Q 3406 4025 3406 3419 
Q 3406 3131 3298 2873 
Q 3191 2616 2906 2266 
Q 2828 2175 2409 1742 
Q 1991 1309 1228 531 
z
" transform="scale(0.015625)"/>
       </defs>
       <use xlink:href="#DejaVuSans-32"/>
       <use xlink:href="#DejaVuSans-30" x="63.623047"/>
      </g>
     </g>
    </g>
    <g id="xtick_6">
     <g id="line2d_6">
      <g>
       <use xlink:href="#m4119dbd37d" x="276.741818" y="307.584" style="stroke: #000000; stroke-width: 0.8"/>
      </g>
     </g>
     <g id="text_6">
      <!-- 25 -->
      <g transform="translate(270.379318 322.182437) scale(0.1 -0.1)">
       <use xlink:href="#DejaVuSans-32"/>
       <use xlink:href="#DejaVuSans-35" x="63.623047"/>
      </g>
     </g>
    </g>
    <g id="xtick_7">
     <g id="line2d_7">
      <g>
       <use xlink:href="#m4119dbd37d" x="317.323636" y="307.584" style="stroke: #000000; stroke-width: 0.8"/>
      </g>
     </g>
     <g id="text_7">
      <!-- 30 -->
      <g transform="translate(310.961136 322.182437) scale(0.1 -0.1)">
       <defs>
        <path id="DejaVuSans-33" d="M 2597 2516 
Q 3050 2419 3304 2112 
Q 3559 1806 3559 1356 
Q 3559 666 3084 287 
Q 2609 -91 1734 -91 
Q 1441 -91 1130 -33 
Q 819 25 488 141 
L 488 750 
Q 750 597 1062 519 
Q 1375 441 1716 441 
Q 2309 441 2620 675 
Q 2931 909 2931 1356 
Q 2931 1769 2642 2001 
Q 2353 2234 1838 2234 
L 1294 2234 
L 1294 2753 
L 1863 2753 
Q 2328 2753 2575 2939 
Q 2822 3125 2822 3475 
Q 2822 3834 2567 4026 
Q 2313 4219 1838 4219 
Q 1578 4219 1281 4162 
Q 984 4106 628 3988 
L 628 4550 
Q 988 4650 1302 4700 
Q 1616 4750 1894 4750 
Q 2613 4750 3031 4423 
Q 3450 4097 3450 3541 
Q 3450 3153 3228 2886 
Q 3006 2619 2597 2516 
z
" transform="scale(0.015625)"/>
       </defs>
       <use xlink:href="#DejaVuSans-33"/>
       <use xlink:href="#DejaVuSans-30" x="63.623047"/>
      </g>
     </g>
    </g>
    <g id="xtick_8">
     <g id="line2d_8">
      <g>
       <use xlink:href="#m4119dbd37d" x="357.905455" y="307.584" style="stroke: #000000; stroke-width: 0.8"/>
      </g>
     </g>
     <g id="text_8">
      <!-- 35 -->
      <g transform="translate(351.542955 322.182437) scale(0.1 -0.1)">
       <use xlink:href="#DejaVuSans-33"/>
       <use xlink:href="#DejaVuSans-35" x="63.623047"/>
      </g>
     </g>
    </g>
    <g id="xtick_9">
     <g id="line2d_9">
      <g>
       <use xlink:href="#m4119dbd37d" x="398.487273" y="307.584" style="stroke: #000000; stroke-width: 0.8"/>
      </g>
     </g>
     <g id="text_9">
      <!-- 40 -->
      <g transform="translate(392.124773 322.182437) scale(0.1 -0.1)">
       <defs>
        <path id="DejaVuSans-34" d="M 2419 4116 
L 825 1625 
L 2419 1625 
L 2419 4116 
z
M 2253 4666 
L 3047 4666 
L 3047 1625 
L 3713 1625 
L 3713 1100 
L 3047 1100 
L 3047 0 
L 2419 0 
L 2419 1100 
L 313 1100 
L 313 1709 
L 2253 4666 
z
" transform="scale(0.015625)"/>
       </defs>
       <use xlink:href="#DejaVuSans-34"/>
       <use xlink:href="#DejaVuSans-30" x="63.623047"/>
      </g>
     </g>
    </g>
    <g id="text_10">
     <!-- Time [$s$] -->
     <g transform="translate(215.66 335.860562) scale(0.1 -0.1)">
      <defs>
       <path id="DejaVuSans-54" d="M -19 4666 
L 3928 4666 
L 3928 4134 
L 2272 4134 
L 2272 0 
L 1638 0 
L 1638 4134 
L -19 4134 
L -19 4666 
z
" transform="scale(0.015625)"/>
       <path id="DejaVuSans-69" d="M 603 3500 
L 1178 3500 
L 1178 0 
L 603 0 
L 603 3500 
z
M 603 4863 
L 1178 4863 
L 1178 4134 
L 603 4134 
L 603 4863 
z
" transform="scale(0.015625)"/>
       <path id="DejaVuSans-6d" d="M 3328 2828 
Q 3544 3216 3844 3400 
Q 4144 3584 4550 3584 
Q 5097 3584 5394 3201 
Q 5691 2819 5691 2113 
L 5691 0 
L 5113 0 
L 5113 2094 
Q 5113 2597 4934 2840 
Q 4756 3084 4391 3084 
Q 3944 3084 3684 2787 
Q 3425 2491 3425 1978 
L 3425 0 
L 2847 0 
L 2847 2094 
Q 2847 2600 2669 2842 
Q 2491 3084 2119 3084 
Q 1678 3084 1418 2786 
Q 1159 2488 1159 1978 
L 1159 0 
L 581 0 
L 581 3500 
L 1159 3500 
L 1159 2956 
Q 1356 3278 1631 3431 
Q 1906 3584 2284 3584 
Q 2666 3584 2933 3390 
Q 3200 3197 3328 2828 
z
" transform="scale(0.015625)"/>
       <path id="DejaVuSans-65" d="M 3597 1894 
L 3597 1613 
L 953 1613 
Q 991 1019 1311 708 
Q 1631 397 2203 397 
Q 2534 397 2845 478 
Q 3156 559 3463 722 
L 3463 178 
Q 3153 47 2828 -22 
Q 2503 -91 2169 -91 
Q 1331 -91 842 396 
Q 353 884 353 1716 
Q 353 2575 817 3079 
Q 1281 3584 2069 3584 
Q 2775 3584 3186 3129 
Q 3597 2675 3597 1894 
z
M 3022 2063 
Q 3016 2534 2758 2815 
Q 2500 3097 2075 3097 
Q 1594 3097 1305 2825 
Q 1016 2553 972 2059 
L 3022 2063 
z
" transform="scale(0.015625)"/>
       <path id="DejaVuSans-20" transform="scale(0.015625)"/>
       <path id="DejaVuSans-5b" d="M 550 4863 
L 1875 4863 
L 1875 4416 
L 1125 4416 
L 1125 -397 
L 1875 -397 
L 1875 -844 
L 550 -844 
L 550 4863 
z
" transform="scale(0.015625)"/>
       <path id="DejaVuSans-Oblique-73" d="M 3200 3397 
L 3091 2853 
Q 2863 2978 2609 3040 
Q 2356 3103 2088 3103 
Q 1634 3103 1373 2948 
Q 1113 2794 1113 2528 
Q 1113 2219 1719 2053 
Q 1766 2041 1788 2034 
L 1972 1978 
Q 2547 1819 2739 1644 
Q 2931 1469 2931 1166 
Q 2931 609 2489 259 
Q 2047 -91 1331 -91 
Q 1053 -91 747 -37 
Q 441 16 72 128 
L 184 722 
Q 500 559 806 475 
Q 1113 391 1394 391 
Q 1816 391 2080 572 
Q 2344 753 2344 1031 
Q 2344 1331 1650 1516 
L 1591 1531 
L 1394 1581 
Q 956 1697 753 1886 
Q 550 2075 550 2369 
Q 550 2928 970 3256 
Q 1391 3584 2113 3584 
Q 2397 3584 2667 3537 
Q 2938 3491 3200 3397 
z
" transform="scale(0.015625)"/>
       <path id="DejaVuSans-5d" d="M 1947 4863 
L 1947 -844 
L 622 -844 
L 622 -397 
L 1369 -397 
L 1369 4416 
L 622 4416 
L 622 4863 
L 1947 4863 
z
" transform="scale(0.015625)"/>
      </defs>
      <use xlink:href="#DejaVuSans-54" transform="translate(0 0.015625)"/>
      <use xlink:href="#DejaVuSans-69" transform="translate(61.083984 0.015625)"/>
      <use xlink:href="#DejaVuSans-6d" transform="translate(88.867188 0.015625)"/>
      <use xlink:href="#DejaVuSans-65" transform="translate(186.279297 0.015625)"/>
      <use xlink:href="#DejaVuSans-20" transform="translate(247.802734 0.015625)"/>
      <use xlink:href="#DejaVuSans-5b" transform="translate(279.589844 0.015625)"/>
      <use xlink:href="#DejaVuSans-Oblique-73" transform="translate(318.603516 0.015625)"/>
      <use xlink:href="#DejaVuSans-5d" transform="translate(370.703125 0.015625)"/>
     </g>
    </g>
   </g>
   <g id="matplotlib.axis_2">
    <g id="ytick_1">
     <g id="line2d_10">
      <defs>
       <path id="m0a66dbcaa1" d="M 0 0 
L -3.5 0 
" style="stroke: #000000; stroke-width: 0.8"/>
      </defs>
      <g>
       <use xlink:href="#m0a66dbcaa1" x="57.6" y="287.663292" style="stroke: #000000; stroke-width: 0.8"/>
      </g>
     </g>
     <g id="text_11">
      <!-- −1.0 -->
      <g transform="translate(26.317187 291.462511) scale(0.1 -0.1)">
       <defs>
        <path id="DejaVuSans-2212" d="M 678 2272 
L 4684 2272 
L 4684 1741 
L 678 1741 
L 678 2272 
z
" transform="scale(0.015625)"/>
        <path id="DejaVuSans-2e" d="M 684 794 
L 1344 794 
L 1344 0 
L 684 0 
L 684 794 
z
" transform="scale(0.015625)"/>
       </defs>
       <use xlink:href="#DejaVuSans-2212"/>
       <use xlink:href="#DejaVuSans-31" x="83.789062"/>
       <use xlink:href="#DejaVuSans-2e" x="147.412109"/>
       <use xlink:href="#DejaVuSans-30" x="179.199219"/>
      </g>
     </g>
    </g>
    <g id="ytick_2">
     <g id="line2d_11">
      <g>
       <use xlink:href="#m0a66dbcaa1" x="57.6" y="240.024892" style="stroke: #000000; stroke-width: 0.8"/>
      </g>
     </g>
     <g id="text_12">
      <!-- −0.5 -->
      <g transform="translate(26.317187 243.824111) scale(0.1 -0.1)">
       <use xlink:href="#DejaVuSans-2212"/>
       <use xlink:href="#DejaVuSans-30" x="83.789062"/>
       <use xlink:href="#DejaVuSans-2e" x="147.412109"/>
       <use xlink:href="#DejaVuSans-35" x="179.199219"/>
      </g>
     </g>
    </g>
    <g id="ytick_3">
     <g id="line2d_12">
      <g>
       <use xlink:href="#m0a66dbcaa1" x="57.6" y="192.386492" style="stroke: #000000; stroke-width: 0.8"/>
      </g>
     </g>
     <g id="text_13">
      <!-- 0.0 -->
      <g transform="translate(34.696875 196.185711) scale(0.1 -0.1)">
       <use xlink:href="#DejaVuSans-30"/>
       <use xlink:href="#DejaVuSans-2e" x="63.623047"/>
       <use xlink:href="#DejaVuSans-30" x="95.410156"/>
      </g>
     </g>
    </g>
    <g id="ytick_4">
     <g id="line2d_13">
      <g>
       <use xlink:href="#m0a66dbcaa1" x="57.6" y="144.748092" style="stroke: #000000; stroke-width: 0.8"/>
      </g>
     </g>
     <g id="text_14">
      <!-- 0.5 -->
      <g transform="translate(34.696875 148.547311) scale(0.1 -0.1)">
       <use xlink:href="#DejaVuSans-30"/>
       <use xlink:href="#DejaVuSans-2e" x="63.623047"/>
       <use xlink:href="#DejaVuSans-35" x="95.410156"/>
      </g>
     </g>
    </g>
    <g id="ytick_5">
     <g id="line2d_14">
      <g>
       <use xlink:href="#m0a66dbcaa1" x="57.6" y="97.109692" style="stroke: #000000; stroke-width: 0.8"/>
      </g>
     </g>
     <g id="text_15">
      <!-- 1.0 -->
      <g transform="translate(34.696875 100.90891) scale(0.1 -0.1)">
       <use xlink:href="#DejaVuSans-31"/>
       <use xlink:href="#DejaVuSans-2e" x="63.623047"/>
       <use xlink:href="#DejaVuSans-30" x="95.410156"/>
      </g>
     </g>
    </g>
    <g id="ytick_6">
     <g id="line2d_15">
      <g>
       <use xlink:href="#m0a66dbcaa1" x="57.6" y="49.471291" style="stroke: #000000; stroke-width: 0.8"/>
      </g>
     </g>
     <g id="text_16">
      <!-- 1.5 -->
      <g transform="translate(34.696875 53.27051) scale(0.1 -0.1)">
       <use xlink:href="#DejaVuSans-31"/>
       <use xlink:href="#DejaVuSans-2e" x="63.623047"/>
       <use xlink:href="#DejaVuSans-35" x="95.410156"/>
      </g>
     </g>
    </g>
    <g id="text_17">
     <!-- Normalized amplitude -->
     <g transform="translate(20.2375 229.738937) rotate(-90) scale(0.1 -0.1)">
      <defs>
       <path id="DejaVuSans-4e" d="M 628 4666 
L 1478 4666 
L 3547 763 
L 3547 4666 
L 4159 4666 
L 4159 0 
L 3309 0 
L 1241 3903 
L 1241 0 
L 628 0 
L 628 4666 
z
" transform="scale(0.015625)"/>
       <path id="DejaVuSans-6f" d="M 1959 3097 
Q 1497 3097 1228 2736 
Q 959 2375 959 1747 
Q 959 1119 1226 758 
Q 1494 397 1959 397 
Q 2419 397 2687 759 
Q 2956 1122 2956 1747 
Q 2956 2369 2687 2733 
Q 2419 3097 1959 3097 
z
M 1959 3584 
Q 2709 3584 3137 3096 
Q 3566 2609 3566 1747 
Q 3566 888 3137 398 
Q 2709 -91 1959 -91 
Q 1206 -91 779 398 
Q 353 888 353 1747 
Q 353 2609 779 3096 
Q 1206 3584 1959 3584 
z
" transform="scale(0.015625)"/>
       <path id="DejaVuSans-72" d="M 2631 2963 
Q 2534 3019 2420 3045 
Q 2306 3072 2169 3072 
Q 1681 3072 1420 2755 
Q 1159 2438 1159 1844 
L 1159 0 
L 581 0 
L 581 3500 
L 1159 3500 
L 1159 2956 
Q 1341 3275 1631 3429 
Q 1922 3584 2338 3584 
Q 2397 3584 2469 3576 
Q 2541 3569 2628 3553 
L 2631 2963 
z
" transform="scale(0.015625)"/>
       <path id="DejaVuSans-61" d="M 2194 1759 
Q 1497 1759 1228 1600 
Q 959 1441 959 1056 
Q 959 750 1161 570 
Q 1363 391 1709 391 
Q 2188 391 2477 730 
Q 2766 1069 2766 1631 
L 2766 1759 
L 2194 1759 
z
M 3341 1997 
L 3341 0 
L 2766 0 
L 2766 531 
Q 2569 213 2275 61 
Q 1981 -91 1556 -91 
Q 1019 -91 701 211 
Q 384 513 384 1019 
Q 384 1609 779 1909 
Q 1175 2209 1959 2209 
L 2766 2209 
L 2766 2266 
Q 2766 2663 2505 2880 
Q 2244 3097 1772 3097 
Q 1472 3097 1187 3025 
Q 903 2953 641 2809 
L 641 3341 
Q 956 3463 1253 3523 
Q 1550 3584 1831 3584 
Q 2591 3584 2966 3190 
Q 3341 2797 3341 1997 
z
" transform="scale(0.015625)"/>
       <path id="DejaVuSans-6c" d="M 603 4863 
L 1178 4863 
L 1178 0 
L 603 0 
L 603 4863 
z
" transform="scale(0.015625)"/>
       <path id="DejaVuSans-7a" d="M 353 3500 
L 3084 3500 
L 3084 2975 
L 922 459 
L 3084 459 
L 3084 0 
L 275 0 
L 275 525 
L 2438 3041 
L 353 3041 
L 353 3500 
z
" transform="scale(0.015625)"/>
       <path id="DejaVuSans-64" d="M 2906 2969 
L 2906 4863 
L 3481 4863 
L 3481 0 
L 2906 0 
L 2906 525 
Q 2725 213 2448 61 
Q 2172 -91 1784 -91 
Q 1150 -91 751 415 
Q 353 922 353 1747 
Q 353 2572 751 3078 
Q 1150 3584 1784 3584 
Q 2172 3584 2448 3432 
Q 2725 3281 2906 2969 
z
M 947 1747 
Q 947 1113 1208 752 
Q 1469 391 1925 391 
Q 2381 391 2643 752 
Q 2906 1113 2906 1747 
Q 2906 2381 2643 2742 
Q 2381 3103 1925 3103 
Q 1469 3103 1208 2742 
Q 947 2381 947 1747 
z
" transform="scale(0.015625)"/>
       <path id="DejaVuSans-70" d="M 1159 525 
L 1159 -1331 
L 581 -1331 
L 581 3500 
L 1159 3500 
L 1159 2969 
Q 1341 3281 1617 3432 
Q 1894 3584 2278 3584 
Q 2916 3584 3314 3078 
Q 3713 2572 3713 1747 
Q 3713 922 3314 415 
Q 2916 -91 2278 -91 
Q 1894 -91 1617 61 
Q 1341 213 1159 525 
z
M 3116 1747 
Q 3116 2381 2855 2742 
Q 2594 3103 2138 3103 
Q 1681 3103 1420 2742 
Q 1159 2381 1159 1747 
Q 1159 1113 1420 752 
Q 1681 391 2138 391 
Q 2594 391 2855 752 
Q 3116 1113 3116 1747 
z
" transform="scale(0.015625)"/>
       <path id="DejaVuSans-74" d="M 1172 4494 
L 1172 3500 
L 2356 3500 
L 2356 3053 
L 1172 3053 
L 1172 1153 
Q 1172 725 1289 603 
Q 1406 481 1766 481 
L 2356 481 
L 2356 0 
L 1766 0 
Q 1100 0 847 248 
Q 594 497 594 1153 
L 594 3053 
L 172 3053 
L 172 3500 
L 594 3500 
L 594 4494 
L 1172 4494 
z
" transform="scale(0.015625)"/>
       <path id="DejaVuSans-75" d="M 544 1381 
L 544 3500 
L 1119 3500 
L 1119 1403 
Q 1119 906 1312 657 
Q 1506 409 1894 409 
Q 2359 409 2629 706 
Q 2900 1003 2900 1516 
L 2900 3500 
L 3475 3500 
L 3475 0 
L 2900 0 
L 2900 538 
Q 2691 219 2414 64 
Q 2138 -91 1772 -91 
Q 1169 -91 856 284 
Q 544 659 544 1381 
z
M 1991 3584 
L 1991 3584 
z
" transform="scale(0.015625)"/>
      </defs>
      <use xlink:href="#DejaVuSans-4e"/>
      <use xlink:href="#DejaVuSans-6f" x="74.804688"/>
      <use xlink:href="#DejaVuSans-72" x="135.986328"/>
      <use xlink:href="#DejaVuSans-6d" x="175.349609"/>
      <use xlink:href="#DejaVuSans-61" x="272.761719"/>
      <use xlink:href="#DejaVuSans-6c" x="334.041016"/>
      <use xlink:href="#DejaVuSans-69" x="361.824219"/>
      <use xlink:href="#DejaVuSans-7a" x="389.607422"/>
      <use xlink:href="#DejaVuSans-65" x="442.097656"/>
      <use xlink:href="#DejaVuSans-64" x="503.621094"/>
      <use xlink:href="#DejaVuSans-20" x="567.097656"/>
      <use xlink:href="#DejaVuSans-61" x="598.884766"/>
      <use xlink:href="#DejaVuSans-6d" x="660.164062"/>
      <use xlink:href="#DejaVuSans-70" x="757.576172"/>
      <use xlink:href="#DejaVuSans-6c" x="821.052734"/>
      <use xlink:href="#DejaVuSans-69" x="848.835938"/>
      <use xlink:href="#DejaVuSans-74" x="876.619141"/>
      <use xlink:href="#DejaVuSans-75" x="915.828125"/>
      <use xlink:href="#DejaVuSans-64" x="979.207031"/>
      <use xlink:href="#DejaVuSans-65" x="1042.683594"/>
     </g>
    </g>
   </g>
   <g id="line2d_16">
    <path d="M 73.832727 194.295053 
L 74.157463 185.351675 
L 74.238647 186.420891 
L 74.319831 179.414154 
L 74.482199 196.613702 
L 74.563383 187.192629 
L 74.725751 204.178512 
L 74.806934 203.255155 
L 74.969302 213.921789 
L 75.53759 184.759032 
L 75.781142 191.537291 
L 75.862326 189.845729 
L 75.94351 182.229089 
L 76.024693 190.707204 
L 76.187061 182.593561 
L 76.268245 188.398694 
L 76.430613 181.903763 
L 76.592981 192.731854 
L 76.674165 187.984712 
L 76.755349 193.717959 
L 76.917717 183.225637 
L 76.998901 196.575881 
L 77.080085 186.504372 
L 77.161268 186.692205 
L 77.323636 188.669457 
L 77.486004 180.146686 
L 77.648372 193.906501 
L 77.729556 190.22814 
L 77.973108 196.168249 
L 78.135476 209.957218 
L 78.297844 194.335842 
L 78.379027 200.948609 
L 78.460211 198.968978 
L 78.622579 78.645222 
L 78.784947 214.552817 
L 78.866131 179.684955 
L 78.947315 270.279525 
L 79.028499 254.947975 
L 79.109683 224.763656 
L 79.190867 255.40554 
L 79.272051 208.672683 
L 79.353235 233.894595 
L 79.515603 205.000204 
L 79.596786 205.123828 
L 79.67797 188.794149 
L 79.759154 200.543319 
L 80.002706 172.093848 
L 80.08389 187.604561 
L 80.165074 182.401227 
L 80.246258 186.990628 
L 80.408626 173.375476 
L 80.48981 180.117698 
L 80.570994 169.553452 
L 80.652178 185.364795 
L 80.733362 175.179073 
L 81.139281 212.581117 
L 81.301649 196.451902 
L 81.382833 211.02908 
L 81.626385 182.923077 
L 81.707569 190.154468 
L 81.788753 189.907157 
L 81.869937 182.019741 
L 81.951121 182.039325 
L 82.032304 187.96241 
L 82.113488 187.905149 
L 82.194672 180.956816 
L 82.35704 193.342105 
L 82.519408 179.927792 
L 82.600592 188.767437 
L 82.681776 188.148957 
L 82.76296 186.079339 
L 82.844144 181.053568 
L 83.006512 192.823747 
L 83.087696 187.47083 
L 83.331247 190.636526 
L 83.493615 184.488111 
L 83.574799 184.429753 
L 83.737167 192.126587 
L 83.818351 191.633348 
L 83.899535 187.764795 
L 84.386638 209.591069 
L 84.549006 196.495668 
L 84.63019 196.614813 
L 84.792558 134.201758 
L 84.954926 139.619193 
L 85.03611 160.485665 
L 85.117294 289.044377 
L 85.198478 251.560003 
L 85.279662 224.305388 
L 85.360846 251.82858 
L 85.44203 207.954222 
L 85.523214 240.019283 
L 85.604397 197.857744 
L 85.685581 211.432104 
L 86.010317 176.949478 
L 86.091501 204.792622 
L 86.172685 180.616529 
L 86.253869 188.975195 
L 86.335053 174.951336 
L 86.416237 179.814666 
L 86.497421 182.130902 
L 86.578605 171.961916 
L 86.659789 183.877612 
L 86.740973 175.820317 
L 86.822156 182.228881 
L 86.90334 179.845242 
L 87.065708 199.063096 
L 87.146892 197.656899 
L 87.228076 212.125509 
L 87.30926 210.689793 
L 87.390444 199.845814 
L 87.552812 208.039114 
L 87.796364 184.718728 
L 87.958732 191.593232 
L 88.121099 179.422384 
L 88.445835 191.508355 
L 88.527019 182.224382 
L 88.689387 192.652714 
L 88.770571 181.452619 
L 88.851755 185.358213 
L 88.932939 185.985315 
L 89.014123 185.875901 
L 89.095307 182.767007 
L 89.17649 184.493844 
L 89.257674 191.353486 
L 89.338858 190.870959 
L 89.420042 192.608087 
L 89.58241 183.494492 
L 89.663594 185.946331 
L 89.744778 193.660954 
L 89.907146 182.559905 
L 90.069514 202.914553 
L 90.150698 199.950082 
L 90.231882 192.622071 
L 90.394249 200.338838 
L 90.475433 201.983082 
L 90.718985 188.207791 
L 90.881353 83.72485 
L 91.124905 252.114534 
L 91.206089 244.135607 
L 91.287273 249.148824 
L 91.368457 219.848114 
L 91.449641 234.157745 
L 91.612008 195.078315 
L 91.774376 213.919523 
L 92.180296 177.096982 
L 92.26148 179.30155 
L 92.342664 175.936893 
L 92.505032 197.678374 
L 92.6674 173.259848 
L 92.748584 176.530677 
L 92.829767 166.039555 
L 93.073319 201.418229 
L 93.154503 211.205144 
L 93.235687 210.217223 
L 93.316871 211.013119 
L 93.560423 196.018966 
L 93.641607 196.960717 
L 94.047526 183.835116 
L 94.209894 188.249055 
L 94.291078 182.625905 
L 94.453446 192.882381 
L 94.53463 191.194118 
L 94.778182 182.127878 
L 94.94055 188.201349 
L 95.021734 184.500778 
L 95.265285 193.377561 
L 95.427653 176.825453 
L 95.508837 191.858156 
L 95.590021 190.910768 
L 95.752389 184.650782 
L 95.995941 202.826059 
L 96.077125 200.546371 
L 96.320677 188.651839 
L 96.40186 195.278618 
L 96.483044 188.51203 
L 96.645412 86.237221 
L 96.888964 256.782277 
L 96.970148 249.507745 
L 97.051332 245.23472 
L 97.294884 218.798907 
L 97.376068 214.696894 
L 97.538436 197.56132 
L 97.619619 200.954483 
L 97.700803 192.454738 
L 97.781987 196.062585 
L 97.944355 178.868643 
L 98.025539 180.934469 
L 98.187907 187.270064 
L 98.350275 177.683418 
L 98.431459 179.782642 
L 98.593827 178.069056 
L 98.675011 180.875911 
L 98.999746 212.88356 
L 99.568034 185.85971 
L 99.649218 197.322562 
L 99.730402 186.03539 
L 99.811586 188.308749 
L 99.89277 196.493263 
L 100.055137 185.197845 
L 100.136321 181.926695 
L 100.298689 186.238764 
L 100.379873 189.997409 
L 100.461057 189.636303 
L 100.542241 190.124574 
L 100.623425 191.735275 
L 100.704609 185.715762 
L 100.785793 190.097365 
L 100.866977 186.305683 
L 100.948161 176.991323 
L 101.029345 178.270995 
L 101.110529 192.175121 
L 101.272896 181.58714 
L 101.35408 199.093474 
L 101.435264 195.333172 
L 101.678816 200.963938 
L 101.841184 186.64475 
L 102.003552 198.705966 
L 102.084736 176.70474 
L 102.247104 83.308563 
L 102.409471 258.054075 
L 102.490655 250.594459 
L 103.140127 198.953741 
L 103.221311 198.261592 
L 103.302495 190.542489 
L 103.383679 194.905587 
L 103.62723 176.832518 
L 103.708414 182.451184 
L 103.789598 180.990033 
L 103.951966 175.716607 
L 104.03315 180.583115 
L 104.195518 177.003252 
L 104.601438 215.073441 
L 104.682622 209.640295 
L 104.926173 193.643415 
L 105.007357 196.088651 
L 105.088541 187.342754 
L 105.250909 194.468842 
L 105.413277 182.718313 
L 105.575645 192.581823 
L 105.738013 186.192868 
L 105.819197 188.741702 
L 106.062748 184.340593 
L 106.143932 187.380026 
L 106.225116 187.133062 
L 106.3063 185.876022 
L 106.387484 188.959164 
L 106.468668 184.013992 
L 106.549852 184.733248 
L 106.631036 181.680646 
L 106.874588 189.695865 
L 107.036956 201.292373 
L 107.11814 198.56549 
L 107.199323 192.076863 
L 107.280507 194.773377 
L 107.361691 193.974829 
L 107.524059 192.549021 
L 107.767611 98.007516 
L 107.929979 263.03917 
L 108.092347 243.848376 
L 108.173531 240.607023 
L 108.417082 207.505777 
L 108.498266 208.621779 
L 108.660634 199.67205 
L 108.741818 202.341507 
L 108.904186 187.982616 
L 108.98537 183.835513 
L 109.066554 185.071617 
L 109.147738 187.077374 
L 109.310106 177.648179 
L 109.39129 176.937409 
L 109.472474 179.106872 
L 109.553658 178.839664 
L 109.634841 179.602136 
L 109.797209 186.941263 
L 110.040761 207.09243 
L 110.121945 211.628937 
L 110.284313 203.225242 
L 110.527865 187.536082 
L 110.690233 196.769076 
L 111.014968 184.178812 
L 111.177336 187.762372 
L 111.25852 184.86407 
L 111.420888 187.878133 
L 111.502072 187.280768 
L 111.66444 181.206989 
L 111.826808 188.624961 
L 111.907992 182.06112 
L 112.151543 198.225531 
L 112.476279 192.56796 
L 112.638647 194.332034 
L 112.719831 180.597474 
L 112.882199 70.639247 
L 113.125751 257.302441 
L 113.856406 194.811 
L 113.93759 189.119526 
L 114.018774 189.71117 
L 114.181142 185.258427 
L 114.262326 180.993566 
L 114.34351 181.073844 
L 114.424693 180.451497 
L 114.505877 178.901674 
L 114.830613 180.87377 
L 115.155349 207.738354 
L 115.236533 207.506063 
L 115.317717 208.291798 
L 115.480085 199.797806 
L 115.561268 201.246402 
L 115.886004 185.974587 
L 115.967188 186.260516 
L 116.129556 187.233234 
L 116.21074 186.626138 
L 116.291924 187.237166 
L 116.373108 189.188544 
L 116.61666 183.915281 
L 116.697844 185.987436 
L 116.779027 192.025681 
L 116.941395 184.303942 
L 117.184947 198.992703 
L 117.428499 192.49841 
L 117.590867 196.806826 
L 117.672051 194.326695 
L 117.915603 78.842161 
L 118.07797 265.561713 
L 118.159154 256.486311 
L 118.88981 193.193934 
L 119.133362 183.231349 
L 119.214545 185.723323 
L 119.295729 178.703102 
L 119.376913 180.556939 
L 119.539281 174.927157 
L 119.620465 177.292197 
L 119.701649 175.828479 
L 119.945201 188.321944 
L 120.188753 203.912003 
L 120.269937 204.122368 
L 120.351121 203.487297 
L 120.675856 190.832257 
L 120.75704 187.341716 
L 120.838224 187.730761 
L 120.919408 187.395725 
L 121.000592 187.652646 
L 121.081776 187.582051 
L 121.16296 188.679521 
L 121.244144 185.652026 
L 121.325328 185.791301 
L 121.406512 186.449414 
L 121.487696 184.498808 
L 121.568879 184.548061 
L 121.731247 190.321883 
L 121.812431 182.710716 
L 122.055983 198.51777 
L 122.218351 196.399886 
L 122.299535 196.83213 
L 122.380719 191.467137 
L 122.543087 197.328805 
L 122.624271 184.520661 
L 122.786638 71.074871 
L 123.03019 266.557474 
L 123.111374 250.187074 
L 123.192558 250.123427 
L 123.598478 204.273796 
L 123.84203 190.04029 
L 124.247949 179.786545 
L 124.329133 179.281837 
L 124.410317 176.895592 
L 124.491501 179.15723 
L 124.572685 179.041887 
L 124.653869 178.346133 
L 124.816237 184.02979 
L 125.059789 205.654041 
L 125.140973 205.253732 
L 125.465708 196.180148 
L 125.70926 186.807976 
L 125.790444 186.522047 
L 125.871628 187.988895 
L 126.033996 186.398435 
L 126.196364 188.844595 
L 126.358732 183.180144 
L 126.521099 189.383044 
L 126.602283 184.072505 
L 126.683467 185.638889 
L 126.845835 192.764008 
L 126.927019 200.887544 
L 127.008203 198.983819 
L 127.332939 193.007945 
L 127.414123 185.604383 
L 127.495307 192.703174 
L 127.657674 66.288279 
L 127.738858 110.999785 
L 127.901226 266.722761 
L 128.794249 186.456002 
L 128.875433 190.566038 
L 128.956617 181.963348 
L 129.037801 182.418417 
L 129.362537 177.781089 
L 129.443721 177.515854 
L 129.524905 175.107199 
L 130.012008 204.62073 
L 130.174376 202.073562 
L 130.417928 192.286548 
L 130.499112 192.465359 
L 130.742664 186.471481 
L 130.823848 184.884544 
L 130.905032 184.935896 
L 131.148584 188.608161 
L 131.310951 187.225757 
L 131.392135 187.462044 
L 131.554503 182.384055 
L 131.716871 189.096393 
L 131.798055 183.438187 
L 132.041607 199.396672 
L 132.122791 199.968261 
L 132.203975 195.31516 
L 132.285159 196.688039 
L 132.366342 193.766795 
L 132.447526 194.1881 
L 132.52871 197.422791 
L 132.609894 184.306683 
L 132.772262 74.182941 
L 133.015814 271.012561 
L 133.178182 251.465356 
L 133.665285 198.756238 
L 133.908837 187.030753 
L 134.071205 182.032858 
L 134.152389 183.309688 
L 134.395941 175.896186 
L 134.558309 173.978979 
L 134.883044 191.484165 
L 135.045412 206.083462 
L 135.126596 199.52927 
L 135.20778 208.648437 
L 135.370148 194.424109 
L 135.451332 195.117012 
L 135.694884 185.236913 
L 135.776068 186.174945 
L 135.857252 184.090237 
L 136.019619 189.218007 
L 136.100803 188.209328 
L 136.263171 184.932615 
L 136.506723 190.093969 
L 136.750275 187.131705 
L 136.831459 192.828705 
L 136.912643 191.10455 
L 136.993827 187.247622 
L 137.075011 193.752851 
L 137.156195 192.912354 
L 137.237378 192.516285 
L 137.399746 184.050784 
L 137.48093 184.367135 
L 137.562114 190.89002 
L 137.643298 190.245678 
L 137.724482 190.599965 
L 137.805666 189.351412 
L 137.88685 189.771405 
L 138.049218 202.235035 
L 138.130402 204.010011 
L 138.211586 203.698381 
L 138.373953 194.412153 
L 138.455137 197.407334 
L 138.536321 196.487573 
L 138.617505 184.929501 
L 138.779873 81.689925 
L 138.861057 107.166401 
L 139.023425 275.755896 
L 139.104609 250.307166 
L 139.185793 251.590933 
L 139.75408 198.44715 
L 140.078816 182.902525 
L 140.16 188.934117 
L 140.241184 179.412167 
L 140.322368 180.576737 
L 140.56592 175.806419 
L 140.728288 174.207709 
L 140.809471 175.950468 
L 140.971839 197.886625 
L 141.134207 209.165937 
L 141.215391 204.96324 
L 141.296575 210.835966 
L 141.540127 194.719781 
L 141.621311 191.272757 
L 141.702495 191.542525 
L 141.783679 192.844444 
L 141.946047 187.550691 
L 142.02723 181.160424 
L 142.108414 183.696876 
L 142.189598 193.057435 
L 142.270782 184.253524 
L 142.43315 191.864641 
L 142.514334 180.317715 
L 142.676702 193.372572 
L 142.757886 183.446368 
L 142.83907 185.897364 
L 142.920254 188.797247 
L 143.001438 186.465284 
L 143.082622 197.810062 
L 143.244989 184.806681 
L 143.326173 193.045903 
L 143.407357 182.67802 
L 143.650909 193.04785 
L 143.894461 187.046017 
L 143.975645 186.180592 
L 144.056829 194.969853 
L 144.138013 191.692819 
L 144.300381 197.110602 
L 144.543932 183.901491 
L 144.625116 185.66356 
L 144.7063 206.525606 
L 144.787484 202.026969 
L 144.868668 188.29483 
L 144.949852 195.054907 
L 145.11222 182.729224 
L 145.355772 213.504428 
L 145.51814 194.400698 
L 145.680507 198.16229 
L 145.761691 195.733479 
L 145.924059 199.533931 
L 146.086427 85.091708 
L 146.167611 113.483132 
L 146.329979 263.251521 
L 146.411163 238.04105 
L 146.492347 256.286967 
L 146.817082 206.327317 
L 146.898266 225.651859 
L 147.060634 190.269441 
L 147.223002 185.717265 
L 147.304186 192.365054 
L 147.38537 178.367631 
L 147.466554 190.785103 
L 147.628922 175.354034 
L 147.710106 187.233431 
L 147.872474 163.85696 
L 147.953658 170.184989 
L 148.034841 188.515795 
L 148.116025 184.828935 
L 148.197209 179.063027 
L 148.278393 198.126902 
L 148.359577 193.97798 
L 148.440761 198.439104 
L 148.521945 219.708993 
L 148.684313 201.007353 
L 148.765497 213.609082 
L 148.846681 190.95723 
L 148.927865 193.459476 
L 149.090233 175.822432 
L 149.171416 191.165095 
L 149.2526 189.160893 
L 149.333784 185.012834 
L 149.414968 186.562893 
L 149.496152 184.107333 
L 149.577336 174.606469 
L 149.65852 185.644983 
L 149.739704 184.690391 
L 149.820888 180.158919 
L 149.983256 188.322156 
L 150.06444 183.762089 
L 150.226808 186.340103 
L 150.307992 178.618922 
L 150.389175 191.108001 
L 150.470359 180.133268 
L 150.551543 192.408792 
L 150.632727 188.991572 
L 150.713911 185.996876 
L 150.795095 198.239208 
L 150.957463 188.511206 
L 151.038647 185.980849 
L 151.119831 197.463539 
L 151.363383 185.212986 
L 151.525751 200.835052 
L 151.606934 192.582622 
L 151.688118 194.382849 
L 151.769302 188.555623 
L 151.850486 190.237199 
L 152.012854 194.182222 
L 152.094038 194.42582 
L 152.175222 194.166441 
L 152.33759 205.0005 
L 152.418774 203.817877 
L 152.499958 199.09284 
L 152.581142 199.625738 
L 152.74351 203.071271 
L 152.824693 198.938356 
L 152.905877 202.946515 
L 152.987061 181.447017 
L 153.149429 75.555085 
L 153.311797 272.031 
L 153.392981 264.377511 
L 153.555349 243.447586 
L 153.798901 213.419276 
L 153.961268 199.932163 
L 154.042452 203.990178 
L 154.20482 186.905822 
L 154.286004 188.615342 
L 154.367188 178.424394 
L 154.529556 198.497648 
L 154.691924 175.785509 
L 154.773108 178.254351 
L 154.854292 168.084555 
L 154.935476 176.49824 
L 155.01666 169.960551 
L 155.097844 170.737623 
L 155.422579 216.657773 
L 155.584947 209.390957 
L 155.666131 207.695888 
L 155.909683 191.727376 
L 155.990867 189.927585 
L 156.072051 175.152141 
L 156.153235 180.208717 
L 156.234419 205.732251 
L 156.396786 185.608719 
L 156.47797 187.604844 
L 156.559154 179.782416 
L 156.640338 183.693182 
L 156.721522 175.204434 
L 156.802706 176.688182 
L 156.965074 193.066067 
L 157.046258 191.566741 
L 157.208626 185.469831 
L 157.28981 185.487081 
L 157.370994 182.940343 
L 157.452178 183.805263 
L 157.533362 186.79543 
L 157.614545 182.851406 
L 157.776913 191.93515 
L 157.858097 187.987742 
L 157.939281 189.621379 
L 158.182833 185.530198 
L 158.264017 194.412565 
L 158.426385 188.489226 
L 158.588753 190.61541 
L 158.669937 197.551795 
L 158.832304 189.370717 
L 158.913488 190.123173 
L 159.075856 212.752542 
L 159.15704 200.590817 
L 159.238224 200.859253 
L 159.400592 195.245382 
L 159.481776 204.711659 
L 159.56296 196.850346 
L 159.806512 96.384375 
L 159.968879 265.537777 
L 160.050063 248.385617 
L 160.131247 244.230776 
L 160.212431 250.494691 
L 160.293615 222.003791 
L 160.374799 223.06622 
L 160.455983 222.970954 
L 160.780719 192.327576 
L 160.861903 185.307585 
L 161.024271 190.035332 
L 161.186638 174.783146 
L 161.349006 186.370488 
L 161.511374 172.559435 
L 161.673742 177.730276 
L 161.754926 174.828259 
L 161.83611 177.93507 
L 161.998478 211.094573 
L 162.079662 206.406136 
L 162.160846 207.977881 
L 162.24203 210.023837 
L 162.404397 198.191604 
L 162.485581 198.728736 
L 162.566765 206.883399 
L 162.729133 185.933177 
L 162.891501 184.851351 
L 162.972685 188.507006 
L 163.053869 179.933435 
L 163.135053 183.750256 
L 163.216237 182.948345 
L 163.297421 184.377743 
L 163.378605 193.491687 
L 163.540973 183.483361 
L 163.622156 186.127844 
L 163.784524 181.267967 
L 163.946892 190.457473 
L 164.028076 186.141267 
L 164.190444 190.715555 
L 164.352812 184.736468 
L 164.51518 187.031121 
L 164.596364 182.523185 
L 164.758732 195.689717 
L 164.839915 184.041529 
L 165.002283 194.91295 
L 165.164651 186.289576 
L 165.245835 186.772368 
L 165.327019 189.689796 
L 165.408203 184.884633 
L 165.489387 184.965161 
L 165.732939 211.135952 
L 165.895307 199.555256 
L 165.97649 198.01283 
L 166.057674 191.275526 
L 166.138858 199.172264 
L 166.220042 196.804616 
L 166.38241 88.88896 
L 166.463594 113.581812 
L 166.625962 271.028556 
L 166.78833 248.240622 
L 167.113066 209.803566 
L 167.194249 216.062073 
L 167.437801 195.540542 
L 167.762537 180.04744 
L 167.924905 185.670329 
L 168.087273 176.922085 
L 168.168457 177.444407 
L 168.412008 175.247242 
L 168.493192 179.203984 
L 168.65556 210.465564 
L 168.736744 207.275144 
L 168.817928 208.826665 
L 168.980296 203.515699 
L 169.06148 205.718794 
L 169.223848 191.473896 
L 169.305032 199.382397 
L 169.4674 182.702022 
L 169.548584 185.394049 
L 169.629767 183.174924 
L 169.710951 189.694922 
L 169.792135 184.578003 
L 169.873319 184.72887 
L 169.954503 185.027376 
L 170.035687 179.880462 
L 170.198055 186.238981 
L 170.279239 185.244346 
L 170.360423 186.688104 
L 170.441607 185.342828 
L 170.522791 188.844839 
L 170.685159 183.52177 
L 170.766342 187.676971 
L 170.847526 184.361065 
L 170.92871 192.790235 
L 171.009894 189.891543 
L 171.091078 182.806483 
L 171.253446 193.924158 
L 171.415814 186.396845 
L 171.496998 196.198749 
L 171.578182 194.20847 
L 171.659366 185.303081 
L 171.74055 187.760034 
L 171.821734 195.213973 
L 171.902918 193.659429 
L 171.984101 187.806412 
L 172.065285 192.320534 
L 172.146469 187.451706 
L 172.227653 192.49498 
L 172.390021 210.124423 
L 172.552389 195.743755 
L 172.714757 196.267435 
L 172.877125 202.611749 
L 172.958309 181.130027 
L 173.120677 80.588844 
L 173.283044 265.099509 
L 173.364228 252.067103 
L 173.445412 240.941672 
L 173.526596 247.267472 
L 173.60778 225.583624 
L 173.688964 225.68911 
L 173.932516 204.00349 
L 174.0137 202.709061 
L 174.176068 188.012784 
L 174.257252 198.559585 
L 174.419619 176.587841 
L 174.500803 182.955855 
L 174.581987 180.983691 
L 174.663171 180.19891 
L 174.744355 180.821336 
L 174.987907 169.636246 
L 175.069091 171.332009 
L 175.231459 189.635817 
L 175.312643 207.392294 
L 175.393827 204.542636 
L 175.475011 214.716888 
L 175.718562 203.467407 
L 175.799746 181.376549 
L 175.962114 211.492297 
L 176.124482 185.590985 
L 176.205666 187.892084 
L 176.28685 180.329255 
L 176.368034 189.414863 
L 176.449218 189.177837 
L 176.773953 178.512181 
L 176.936321 193.183323 
L 177.017505 190.492478 
L 177.098689 189.558019 
L 177.423425 175.430433 
L 177.585793 198.544933 
L 177.666977 190.504287 
L 177.748161 191.469478 
L 177.829345 199.755118 
L 177.910529 182.603355 
L 177.991712 187.299686 
L 178.072896 186.807578 
L 178.235264 196.581651 
L 178.316448 191.160997 
L 178.397632 194.514932 
L 178.478816 185.116195 
L 178.56 194.193285 
L 178.641184 193.84384 
L 178.722368 181.004702 
L 178.803552 186.173457 
L 178.96592 202.66214 
L 179.047104 197.873792 
L 179.209471 209.29898 
L 179.290655 195.194654 
L 179.371839 196.224127 
L 179.453023 187.564321 
L 179.534207 132.404526 
L 179.615391 164.266197 
L 179.696575 163.873519 
L 179.777759 102.370574 
L 179.940127 265.934915 
L 180.021311 220.332747 
L 180.102495 263.456641 
L 180.183679 218.770355 
L 180.264863 247.143023 
L 180.346047 214.155896 
L 180.42723 214.542243 
L 180.589598 189.704952 
L 180.670782 202.452643 
L 180.751966 176.263826 
L 180.83315 200.598759 
L 180.914334 181.28211 
L 180.995518 188.4965 
L 181.076702 175.699726 
L 181.23907 182.876362 
L 181.320254 169.847075 
L 181.401438 181.00918 
L 181.482622 176.203966 
L 181.563805 180.751968 
L 181.644989 168.770751 
L 181.888541 199.653986 
L 182.050909 212.843199 
L 182.132093 205.837451 
L 182.213277 211.74823 
L 182.538013 185.340915 
L 182.619197 200.520883 
L 182.700381 195.934213 
L 182.781564 184.081939 
L 182.862748 186.874341 
L 182.943932 186.675716 
L 183.1063 178.344067 
L 183.268668 186.048428 
L 183.349852 180.864831 
L 183.51222 195.067536 
L 183.674588 181.914392 
L 183.836956 191.656114 
L 183.91814 188.308897 
L 183.999323 179.888164 
L 184.324059 198.85803 
L 184.648795 181.461591 
L 184.729979 190.265956 
L 184.811163 186.596982 
L 184.973531 191.151311 
L 185.135899 207.703258 
L 185.217082 201.790484 
L 185.298266 200.253006 
L 185.37945 191.127635 
L 185.623002 206.015139 
L 185.78537 121.17452 
L 185.866554 87.540545 
L 186.028922 257.560591 
L 186.110106 249.339369 
L 186.19129 245.322846 
L 186.272474 250.551091 
L 186.353658 229.50722 
L 186.434841 234.964816 
L 186.678393 204.42331 
L 186.759577 192.292585 
L 186.840761 195.641666 
L 186.921945 196.114171 
L 187.003129 194.350363 
L 187.084313 182.673047 
L 187.165497 183.515332 
L 187.246681 183.683833 
L 187.327865 183.006194 
L 187.490233 176.887659 
L 187.6526 174.888069 
L 187.733784 182.434508 
L 187.814968 181.018998 
L 187.977336 184.213032 
L 188.139704 208.972207 
L 188.220888 205.76814 
L 188.383256 211.552364 
L 188.545624 200.618071 
L 188.626808 203.235089 
L 188.789175 186.024351 
L 188.870359 189.195386 
L 189.032727 181.49804 
L 189.113911 187.087182 
L 189.195095 185.032489 
L 189.276279 179.93542 
L 189.357463 191.339309 
L 189.438647 189.881083 
L 189.682199 180.013633 
L 189.763383 188.110957 
L 189.844567 181.55061 
L 190.006934 188.769573 
L 190.088118 177.097039 
L 190.169302 180.270577 
L 190.33167 194.330481 
L 190.575222 184.304489 
L 190.656406 186.747398 
L 190.73759 185.692835 
L 190.818774 182.838203 
L 190.981142 200.36523 
L 191.062326 196.109275 
L 191.14351 202.427268 
L 191.305877 197.311435 
L 191.387061 202.380402 
L 191.549429 196.700384 
L 191.711797 93.802245 
L 191.792981 101.819449 
L 191.955349 261.064689 
L 192.686004 197.165008 
L 192.767188 197.119943 
L 192.848372 196.1716 
L 193.173108 179.044829 
L 193.254292 191.938094 
L 193.41666 174.888597 
L 193.497844 178.84069 
L 193.579027 175.416139 
L 193.660211 179.841356 
L 193.741395 171.439239 
L 193.903763 194.798087 
L 194.066131 212.944965 
L 194.147315 214.433032 
L 194.228499 212.752948 
L 194.390867 196.99819 
L 194.553235 204.421243 
L 194.87797 178.088329 
L 195.121522 194.209889 
L 195.202706 178.696567 
L 195.365074 190.020566 
L 195.527442 174.364191 
L 195.68981 190.682079 
L 195.770994 184.976391 
L 195.852178 190.468046 
L 195.933362 182.646611 
L 196.014545 186.337989 
L 196.095729 184.524456 
L 196.176913 178.327893 
L 196.258097 180.209324 
L 196.582833 198.166959 
L 196.664017 203.166121 
L 197.069937 189.125784 
L 197.151121 199.623122 
L 197.232304 192.711296 
L 197.394672 84.10683 
L 197.475856 113.278918 
L 197.638224 261.039577 
L 197.719408 245.101133 
L 197.800592 248.025464 
L 198.125328 207.085191 
L 198.206512 216.633803 
L 198.450063 189.502691 
L 198.531247 193.490698 
L 198.612431 188.973005 
L 198.693615 189.357072 
L 198.774799 188.374843 
L 198.855983 177.292894 
L 198.937167 184.943393 
L 199.180719 174.456126 
L 199.343087 182.039048 
L 199.424271 178.045864 
L 199.749006 213.653532 
L 199.83019 209.551713 
L 199.911374 213.432769 
L 200.23611 190.032625 
L 200.317294 189.057357 
L 200.398478 189.489725 
L 200.479662 196.62087 
L 200.64203 184.007609 
L 200.723214 185.618946 
L 200.804397 180.12461 
L 200.885581 186.611817 
L 200.966765 180.972576 
L 201.129133 197.68026 
L 201.210317 184.766953 
L 201.291501 185.466562 
L 201.372685 192.392173 
L 201.616237 174.347429 
L 201.778605 198.39999 
L 201.859789 185.522795 
L 201.940973 186.202328 
L 202.10334 199.117227 
L 202.265708 189.905199 
L 202.346892 190.935804 
L 202.50926 199.331217 
L 202.590444 195.956366 
L 202.833996 89.596145 
L 202.996364 255.559975 
L 203.077548 252.097218 
L 203.402283 228.941015 
L 203.483467 211.287148 
L 203.564651 213.922184 
L 203.808203 193.87561 
L 203.889387 185.503139 
L 203.970571 188.673375 
L 204.051755 181.500505 
L 204.132939 189.212606 
L 204.295307 178.23113 
L 204.37649 178.093499 
L 204.457674 176.030872 
L 204.620042 179.299836 
L 204.78241 176.634917 
L 205.025962 205.178558 
L 205.107146 208.458585 
L 205.18833 207.616594 
L 205.350698 209.368051 
L 205.675433 188.727331 
L 205.756617 188.756539 
L 205.837801 188.048449 
L 205.918985 191.087671 
L 206.243721 183.868547 
L 206.324905 189.332513 
L 206.406089 187.309946 
L 206.487273 187.841617 
L 206.649641 184.212598 
L 206.730825 184.386389 
L 206.812008 187.045851 
L 206.893192 186.495572 
L 206.974376 181.748288 
L 207.217928 202.538308 
L 207.299112 198.814048 
L 207.380296 192.487554 
L 207.46148 196.632914 
L 207.542664 192.253527 
L 207.623848 193.050404 
L 207.705032 196.313596 
L 207.786216 176.444108 
L 207.948584 70.27967 
L 208.192135 256.63103 
L 208.516871 230.833817 
L 208.760423 204.983782 
L 209.166342 185.352377 
L 209.247526 184.860464 
L 209.491078 177.74402 
L 209.572262 178.110424 
L 209.653446 179.766714 
L 209.73463 175.863848 
L 209.978182 185.269896 
L 210.384101 208.540989 
L 210.871205 187.957864 
L 210.952389 191.063107 
L 211.195941 184.190655 
L 211.277125 184.540132 
L 211.358309 190.337034 
L 211.439493 185.51243 
L 211.520677 188.895979 
L 211.683044 179.88193 
L 211.845412 187.923318 
L 211.926596 186.129874 
L 212.00778 180.752733 
L 212.251332 198.705738 
L 212.332516 198.949422 
L 212.494884 193.57608 
L 212.576068 193.434168 
L 212.657252 193.672253 
L 212.738436 195.29787 
L 212.819619 175.7316 
L 212.981987 70.94444 
L 213.225539 262.280644 
L 213.631459 217.713271 
L 214.037378 189.877296 
L 214.118562 189.681095 
L 214.362114 180.784658 
L 214.443298 180.070718 
L 214.605666 176.963871 
L 214.849218 178.802095 
L 214.930402 178.246998 
L 215.336321 206.846918 
L 215.579873 201.642894 
L 215.742241 194.357929 
L 215.985793 187.217183 
L 216.066977 187.198959 
L 216.148161 186.244089 
L 216.391712 187.852056 
L 216.55408 186.175513 
L 216.635264 186.221313 
L 216.716448 182.856859 
L 216.878816 190.244988 
L 216.96 183.634597 
L 217.041184 185.02007 
L 217.203552 199.304242 
L 217.284736 199.282036 
L 217.447104 195.378013 
L 217.528288 195.141812 
L 217.609471 192.753974 
L 217.771839 196.701734 
L 218.015391 79.750841 
L 218.177759 273.09196 
L 218.258943 260.991748 
L 218.421311 249.124561 
L 218.664863 212.391182 
L 218.746047 214.073716 
L 218.989598 196.99274 
L 219.23315 182.28613 
L 219.314334 183.344964 
L 219.395518 180.092617 
L 219.476702 180.887178 
L 219.557886 178.288384 
L 219.63907 178.465951 
L 219.720254 177.512138 
L 219.801438 174.437635 
L 220.044989 189.553778 
L 220.369725 208.446299 
L 221.100381 185.68268 
L 221.262748 186.795206 
L 221.343932 185.461141 
L 221.5063 187.822495 
L 221.587484 186.550172 
L 221.668668 186.696489 
L 221.831036 185.674339 
L 221.91222 184.453383 
L 222.074588 188.905962 
L 222.236956 184.109716 
L 222.399323 197.904801 
L 222.480507 198.940704 
L 222.805243 193.488357 
L 222.886427 196.278044 
L 222.967611 193.152578 
L 223.211163 72.595305 
L 223.373531 271.074558 
L 223.454715 258.810633 
L 224.18537 194.453528 
L 224.428922 180.460447 
L 224.510106 183.19991 
L 224.753658 177.096682 
L 224.834841 177.192148 
L 224.916025 177.892346 
L 224.997209 175.019958 
L 225.159577 177.684441 
L 225.484313 206.818878 
L 225.565497 208.251204 
L 225.727865 201.735868 
L 225.971416 192.624604 
L 226.214968 187.242461 
L 226.296152 190.343347 
L 226.377336 184.651317 
L 226.45852 185.306545 
L 226.539704 187.933043 
L 226.620888 186.430882 
L 226.783256 188.617656 
L 226.86444 188.095333 
L 226.945624 188.152778 
L 227.026808 192.549444 
L 227.107992 191.086009 
L 227.270359 187.56497 
L 227.351543 187.49835 
L 227.513911 189.538673 
L 227.595095 189.048629 
L 227.676279 186.91045 
L 227.757463 191.838383 
L 227.838647 190.323224 
L 227.919831 185.725327 
L 228.001015 191.079227 
L 228.163383 184.763631 
L 228.325751 200.06695 
L 228.406934 200.027743 
L 228.73167 195.16447 
L 228.894038 196.847002 
L 228.975222 185.588822 
L 229.13759 81.49522 
L 229.218774 124.713749 
L 229.381142 267.358821 
L 229.462326 244.657877 
L 229.54351 254.520643 
L 229.868245 209.291104 
L 229.949429 204.926953 
L 230.030613 193.440455 
L 230.111797 196.857909 
L 230.274165 191.564215 
L 230.355349 191.512478 
L 230.436533 176.473522 
L 230.517717 180.467818 
L 230.598901 184.008195 
L 230.680085 175.150604 
L 230.761268 183.788294 
L 230.842452 180.911291 
L 230.923636 173.953255 
L 231.00482 177.0992 
L 231.086004 172.546663 
L 231.248372 185.302821 
L 231.41074 213.518479 
L 231.491924 206.195682 
L 231.573108 208.576386 
L 231.897844 191.389676 
L 231.979027 194.511189 
L 232.060211 191.748491 
L 232.141395 192.415128 
L 232.222579 192.26692 
L 232.303763 184.268768 
L 232.384947 184.863729 
L 232.466131 182.105249 
L 232.628499 186.832039 
L 232.709683 183.299921 
L 232.953235 189.468156 
L 233.034419 182.80619 
L 233.196786 194.070891 
L 233.27797 184.261015 
L 233.359154 186.780179 
L 233.440338 184.753029 
L 233.602706 188.388712 
L 233.68389 182.512997 
L 233.765074 184.007294 
L 233.927442 198.282112 
L 234.08981 189.4549 
L 234.170994 190.227887 
L 234.252178 194.7524 
L 234.495729 184.942929 
L 234.658097 189.040716 
L 234.739281 185.999436 
L 234.820465 188.381773 
L 234.901649 195.509882 
L 234.982833 213.34068 
L 235.145201 197.903232 
L 235.226385 202.772392 
L 235.307569 197.133002 
L 235.388753 199.816445 
L 235.551121 193.693457 
L 235.632304 164.957489 
L 235.713488 95.312385 
L 235.794672 103.341006 
L 235.95704 264.109057 
L 236.038224 262.883018 
L 236.200592 237.927201 
L 236.36296 231.597157 
L 236.525328 199.828825 
L 236.606512 209.08328 
L 236.687696 206.532188 
L 236.850063 181.350949 
L 236.931247 182.947089 
L 237.012431 177.000994 
L 237.093615 190.83617 
L 237.174799 186.918187 
L 237.418351 167.708365 
L 237.499535 173.372708 
L 237.580719 191.34594 
L 237.661903 183.624586 
L 237.743087 163.175569 
L 238.067822 222.23924 
L 238.149006 218.47893 
L 238.311374 192.233675 
L 238.392558 195.484016 
L 238.473742 207.021764 
L 238.554926 201.189531 
L 238.63611 182.193479 
L 238.717294 193.891218 
L 238.879662 174.737079 
L 239.123214 203.944824 
L 239.204397 176.485035 
L 239.285581 177.874965 
L 239.366765 190.639296 
L 239.447949 178.235908 
L 239.529133 186.534038 
L 239.610317 178.432225 
L 239.772685 198.315723 
L 239.853869 183.201121 
L 240.016237 191.936925 
L 240.097421 177.152802 
L 240.178605 182.174173 
L 240.259789 189.581429 
L 240.340973 182.540266 
L 240.422156 186.691857 
L 240.50334 198.849403 
L 240.584524 185.803448 
L 240.746892 198.249536 
L 240.990444 179.012859 
L 241.071628 199.782261 
L 241.152812 192.129707 
L 241.233996 183.17671 
L 241.31518 194.566004 
L 241.396364 189.160841 
L 241.558732 201.007463 
L 241.639915 190.394358 
L 241.802283 209.43108 
L 241.883467 203.763228 
L 242.127019 185.884391 
L 242.289387 84.045932 
L 242.532939 257.088571 
L 242.614123 244.314162 
L 242.695307 249.202553 
L 242.938858 221.944382 
L 243.020042 218.914998 
L 243.18241 194.139726 
L 243.263594 199.801748 
L 243.344778 194.550951 
L 243.425962 196.866816 
L 243.507146 183.399395 
L 243.58833 191.235579 
L 243.750698 181.277729 
L 243.994249 186.104012 
L 244.075433 170.20896 
L 244.156617 173.773871 
L 244.237801 168.934202 
L 244.400169 211.878929 
L 244.562537 197.110352 
L 244.643721 200.052894 
L 244.724905 220.250151 
L 244.806089 213.73585 
L 245.212008 164.252166 
L 245.374376 195.867988 
L 245.536744 174.071618 
L 245.617928 168.802538 
L 245.699112 174.412562 
L 245.86148 201.726617 
L 246.023848 185.892062 
L 246.105032 196.20842 
L 246.2674 177.624101 
L 246.429767 201.303775 
L 246.592135 188.954418 
L 246.673319 202.725265 
L 246.835687 184.353399 
L 246.916871 197.81729 
L 247.079239 175.585661 
L 247.241607 195.652134 
L 247.485159 183.36161 
L 247.566342 203.682849 
L 247.647526 202.319819 
L 247.72871 180.610423 
L 247.809894 212.021272 
L 247.972262 178.64811 
L 248.053446 206.227469 
L 248.13463 202.524622 
L 248.215814 203.610515 
L 248.378182 72.640466 
L 248.621734 251.269727 
L 248.702918 252.548855 
L 249.271205 190.45717 
L 249.352389 200.623911 
L 249.433573 210.392902 
L 249.595941 156.054354 
L 249.758309 235.605008 
L 249.920677 177.662415 
L 250.00186 185.23973 
L 250.083044 165.408292 
L 250.245412 211.047677 
L 250.326596 227.839887 
L 250.40778 215.738262 
L 250.488964 225.623892 
L 250.570148 253.26931 
L 250.651332 158.365578 
L 250.732516 169.292807 
L 250.8137 170.080063 
L 250.976068 125.58954 
L 251.057252 108.164929 
L 251.544355 169.740079 
L 251.625539 154.377128 
L 251.787907 205.486856 
L 251.869091 206.587021 
L 251.950275 225.135215 
L 252.031459 189.855137 
L 252.275011 224.821274 
L 252.437378 194.174447 
L 252.518562 200.452715 
L 252.599746 202.785758 
L 252.68093 230.71097 
L 252.843298 204.678608 
L 252.924482 230.998544 
L 253.005666 185.08631 
L 253.08685 189.22355 
L 253.168034 248.004075 
L 253.330402 200.812087 
L 253.411586 234.13317 
L 253.49277 226.687029 
L 253.655137 203.935142 
L 253.898689 110.606896 
L 253.979873 129.564357 
L 254.061057 265.343582 
L 254.142241 258.196406 
L 254.223425 227.445535 
L 254.304609 269.977745 
L 254.385793 221.027076 
L 254.466977 228.634107 
L 254.548161 223.467703 
L 254.791712 187.602682 
L 254.872896 200.997002 
L 255.035264 167.787823 
L 255.116448 172.300128 
L 255.278816 209.652822 
L 255.441184 165.846998 
L 255.603552 146.537435 
L 255.684736 200.353079 
L 255.847104 151.868438 
L 256.090655 194.062967 
L 256.171839 198.963024 
L 256.253023 145.947741 
L 256.415391 237.7474 
L 256.496575 144.918133 
L 256.577759 212.065018 
L 256.740127 168.06017 
L 256.821311 192.621326 
L 256.902495 151.302705 
L 256.983679 210.604211 
L 257.064863 167.429458 
L 257.22723 196.096119 
L 257.308414 151.389329 
L 257.389598 156.304265 
L 257.551966 235.709484 
L 257.63315 123.044814 
L 257.795518 209.587505 
L 257.876702 170.438128 
L 257.957886 211.57333 
L 258.03907 199.356138 
L 258.120254 170.897326 
L 258.201438 173.169112 
L 258.282622 190.319425 
L 258.363805 158.941377 
L 258.526173 261.396769 
L 258.607357 198.676 
L 258.688541 199.083859 
L 258.769725 166.639844 
L 258.850909 175.854899 
L 258.932093 279.80291 
L 259.013277 147.683085 
L 259.094461 190.701588 
L 259.175645 225.957095 
L 259.256829 84.413125 
L 259.338013 84.623024 
L 259.500381 248.841553 
L 259.581564 233.374588 
L 259.662748 267.057345 
L 259.743932 230.232514 
L 259.9063 259.828451 
L 259.987484 196.154168 
L 260.068668 253.260944 
L 260.149852 154.968683 
L 260.231036 187.461771 
L 260.31222 258.98998 
L 260.393404 169.808029 
L 260.474588 183.762622 
L 260.555772 207.303222 
L 260.636956 158.446016 
L 260.71814 171.154526 
L 260.799323 175.436894 
L 260.880507 149.395851 
L 260.961691 207.630429 
L 261.042875 206.242762 
L 261.124059 151.142937 
L 261.205243 185.787581 
L 261.286427 175.331922 
L 261.367611 150.164253 
L 261.448795 275.151754 
L 261.611163 194.698711 
L 261.692347 248.797522 
L 261.773531 177.360424 
L 261.854715 227.854579 
L 261.935899 226.876863 
L 262.017082 182.30681 
L 262.098266 214.472293 
L 262.17945 209.522119 
L 262.260634 180.452881 
L 262.341818 189.881952 
L 262.423002 183.004524 
L 262.504186 201.939139 
L 262.58537 161.151455 
L 262.666554 162.004168 
L 262.747738 226.163588 
L 262.828922 180.967445 
L 262.910106 187.554109 
L 263.072474 169.32634 
L 263.153658 176.186841 
L 263.234841 147.479317 
L 263.316025 167.587991 
L 263.397209 242.956004 
L 263.559577 169.59612 
L 263.640761 212.789713 
L 263.721945 176.69847 
L 263.803129 221.138615 
L 263.884313 178.234271 
L 264.046681 221.577284 
L 264.127865 198.16067 
L 264.209049 206.807963 
L 264.290233 174.224641 
L 264.371416 200.18577 
L 264.533784 53.568 
L 264.696152 261.468006 
L 264.777336 231.486349 
L 264.85852 232.526703 
L 264.939704 295.488 
L 265.102072 206.26636 
L 265.183256 239.958043 
L 265.26444 204.892793 
L 265.345624 224.685327 
L 265.507992 187.101433 
L 265.589175 193.081618 
L 265.670359 152.15258 
L 265.832727 213.452581 
L 265.913911 169.804902 
L 265.995095 182.614321 
L 266.076279 180.147067 
L 266.157463 142.612011 
L 266.238647 156.261979 
L 266.319831 199.243567 
L 266.482199 158.27021 
L 266.563383 204.683187 
L 266.725751 161.915323 
L 266.806934 213.286911 
L 266.888118 201.954784 
L 266.969302 200.473009 
L 267.050486 225.178662 
L 267.212854 155.119116 
L 267.294038 219.223947 
L 267.456406 161.890783 
L 267.53759 193.827837 
L 267.618774 188.627463 
L 267.699958 189.230599 
L 267.862326 146.051572 
L 268.024693 259.920282 
L 268.105877 190.684228 
L 268.187061 191.870321 
L 268.268245 189.270337 
L 268.349429 151.269972 
L 268.511797 206.654301 
L 268.592981 189.854689 
L 268.674165 169.382653 
L 268.755349 192.456562 
L 268.836533 171.040543 
L 268.917717 200.06971 
L 268.998901 194.852857 
L 269.080085 187.321572 
L 269.161268 210.323381 
L 269.323636 163.986414 
L 269.40482 174.840309 
L 269.486004 239.924087 
L 269.729556 72.726512 
L 269.891924 250.998078 
L 269.973108 232.244364 
L 270.054292 256.831298 
L 270.135476 231.727163 
L 270.21666 232.332442 
L 270.379027 193.993799 
L 270.460211 209.321954 
L 270.541395 208.673266 
L 270.703763 188.032408 
L 270.784947 202.374733 
L 270.866131 165.959019 
L 270.947315 178.539271 
L 271.028499 193.183722 
L 271.190867 174.838407 
L 271.272051 197.216933 
L 271.434419 168.285529 
L 271.515603 204.385998 
L 271.759154 155.532442 
L 271.921522 218.095502 
L 272.165074 187.947936 
L 272.246258 223.103556 
L 272.327442 199.708973 
L 272.408626 220.104311 
L 272.570994 182.125202 
L 272.733362 212.187008 
L 272.895729 184.236941 
L 273.058097 196.878983 
L 273.139281 186.451834 
L 273.301649 203.843832 
L 273.382833 164.102111 
L 273.464017 195.787518 
L 273.545201 195.370926 
L 273.707569 176.341186 
L 273.788753 173.909734 
L 273.869937 194.963955 
L 273.951121 187.825477 
L 274.032304 197.91598 
L 274.113488 178.656866 
L 274.194672 184.871571 
L 274.275856 206.217152 
L 274.35704 195.497959 
L 274.438224 198.705544 
L 274.519408 203.2107 
L 274.600592 176.280031 
L 274.76296 205.91028 
L 274.844144 203.518283 
L 274.925328 170.483846 
L 275.006512 76.812976 
L 275.087696 86.39972 
L 275.250063 266.926163 
L 275.331247 263.064701 
L 275.412431 266.131315 
L 275.574799 212.737109 
L 275.655983 237.872972 
L 275.737167 210.89972 
L 275.818351 218.254214 
L 275.980719 193.722489 
L 276.061903 187.750771 
L 276.143087 211.183929 
L 276.224271 200.327082 
L 276.305455 164.339986 
L 276.467822 195.777311 
L 276.549006 192.441098 
L 276.63019 172.152157 
L 276.711374 178.377041 
L 276.792558 166.326929 
L 276.873742 200.774088 
L 277.03611 160.07393 
L 277.117294 213.787555 
L 277.198478 193.552522 
L 277.279662 211.484198 
L 277.360846 195.012395 
L 277.523214 216.36812 
L 277.766765 191.723918 
L 277.847949 205.784315 
L 277.929133 187.615052 
L 278.010317 205.697956 
L 278.091501 199.7535 
L 278.172685 188.332403 
L 278.253869 196.487787 
L 278.416237 186.547514 
L 278.497421 206.42549 
L 278.822156 169.354882 
L 278.984524 202.369106 
L 279.065708 176.328711 
L 279.146892 177.629426 
L 279.228076 183.514363 
L 279.30926 181.272227 
L 279.471628 202.00123 
L 279.552812 169.773345 
L 279.71518 204.43755 
L 279.877548 179.565456 
L 280.039915 214.170392 
L 280.121099 193.837612 
L 280.202283 198.722662 
L 280.283467 186.247091 
L 280.445835 87.91632 
L 280.527019 105.003429 
L 280.689387 255.015385 
L 280.770571 240.691784 
L 280.851755 267.610985 
L 281.014123 213.817436 
L 281.095307 212.49162 
L 281.17649 208.637307 
L 281.257674 222.152741 
L 281.501226 172.329818 
L 281.663594 206.509035 
L 281.744778 172.371955 
L 281.825962 184.604599 
L 281.907146 178.898378 
L 281.98833 180.045182 
L 282.069514 189.242057 
L 282.150698 158.495715 
L 282.231882 163.410487 
L 282.313066 183.835956 
L 282.394249 182.147238 
L 282.475433 186.85226 
L 282.556617 178.197113 
L 282.881353 208.967049 
L 283.043721 197.482909 
L 283.124905 181.234106 
L 283.287273 203.297307 
L 283.368457 179.968122 
L 283.530825 202.379644 
L 283.612008 180.582029 
L 283.693192 180.670777 
L 283.85556 192.473842 
L 283.936744 190.696391 
L 284.180296 171.621903 
L 284.26148 201.027987 
L 284.342664 195.435374 
L 284.423848 179.867167 
L 284.505032 195.897295 
L 284.6674 180.888163 
L 284.910951 190.421375 
L 284.992135 187.234169 
L 285.073319 188.502558 
L 285.154503 202.934582 
L 285.235687 199.329029 
L 285.316871 202.327678 
L 285.398055 197.096055 
L 285.479239 179.357006 
L 285.560423 208.428931 
L 285.641607 202.758217 
L 285.803975 78.528736 
L 285.885159 104.226289 
L 286.047526 252.882511 
L 286.12871 258.539732 
L 286.453446 210.686472 
L 286.53463 216.219933 
L 286.615814 212.932802 
L 286.859366 190.192938 
L 287.021734 199.120698 
L 287.102918 182.319555 
L 287.184101 186.400974 
L 287.265285 179.063373 
L 287.346469 187.317817 
L 287.508837 171.933357 
L 287.752389 197.777066 
L 287.833573 178.019253 
L 287.914757 193.012493 
L 287.995941 185.67584 
L 288.077125 191.396594 
L 288.239493 216.284918 
L 288.564228 192.626118 
L 288.645412 199.249205 
L 288.80778 180.636555 
L 288.888964 197.757746 
L 289.051332 185.307712 
L 289.132516 201.145639 
L 289.2137 181.043422 
L 289.294884 188.908477 
L 289.376068 185.815079 
L 289.457252 190.058196 
L 289.619619 178.317276 
L 289.700803 193.18942 
L 289.781987 180.929746 
L 289.863171 205.692454 
L 289.944355 174.077015 
L 290.106723 210.167029 
L 290.187907 187.632161 
L 290.269091 203.647849 
L 290.350275 186.242962 
L 290.431459 204.179385 
L 290.512643 202.984895 
L 290.593827 180.223867 
L 290.675011 214.980679 
L 290.756195 206.688834 
L 290.999746 75.616322 
L 291.243298 259.390169 
L 291.324482 243.222586 
L 291.405666 236.933461 
L 291.568034 246.097129 
L 291.730402 198.101285 
L 291.811586 223.606199 
L 291.973953 180.867609 
L 292.136321 200.723846 
L 292.217505 172.661887 
L 292.379873 199.067734 
L 292.461057 175.121333 
L 292.542241 182.838599 
L 292.623425 163.389749 
L 292.704609 164.795393 
L 292.866977 195.549939 
L 293.029345 171.457957 
L 293.191712 211.196678 
L 293.35408 189.0732 
L 293.435264 234.701957 
L 293.516448 186.393505 
L 293.597632 187.759729 
L 293.678816 216.49738 
L 293.76 180.562119 
L 293.841184 200.28376 
L 293.922368 193.039629 
L 294.003552 188.730213 
L 294.084736 197.915405 
L 294.247104 174.532661 
L 294.328288 177.279026 
L 294.490655 200.865633 
L 294.571839 187.293149 
L 294.653023 188.987594 
L 294.734207 195.627703 
L 294.815391 172.535095 
L 294.896575 178.033529 
L 294.977759 199.458745 
L 295.058943 177.600083 
L 295.383679 209.72078 
L 295.464863 187.904605 
L 295.546047 195.463072 
L 295.62723 182.787996 
L 295.789598 201.041156 
L 295.870782 180.095858 
L 296.03315 68.770574 
L 296.276702 272.559614 
L 296.520254 231.451882 
L 296.763805 204.770645 
L 296.844989 203.82872 
L 297.007357 188.825505 
L 297.088541 190.890213 
L 297.169725 202.461047 
L 297.332093 171.092153 
L 297.413277 192.764863 
L 297.494461 187.815175 
L 297.656829 172.604267 
L 297.819197 183.116436 
L 297.900381 184.07618 
L 297.981564 173.014799 
L 298.387484 212.653599 
L 298.468668 209.446242 
L 298.631036 195.777579 
L 298.71222 193.810926 
L 298.874588 182.499534 
L 299.036956 197.780452 
L 299.199323 181.689788 
L 299.442875 195.257324 
L 299.524059 194.406388 
L 299.605243 174.846751 
L 299.686427 181.780472 
L 299.767611 195.403447 
L 299.848795 177.058852 
L 299.929979 188.937936 
L 300.092347 178.57634 
L 300.254715 198.806458 
L 300.335899 204.665303 
L 300.498266 188.393062 
L 300.57945 189.903119 
L 300.741818 202.150315 
L 300.823002 195.227826 
L 300.98537 74.670268 
L 301.066554 102.632485 
L 301.228922 273.677725 
L 301.310106 251.481265 
L 301.39129 254.955785 
L 301.472474 248.399543 
L 301.716025 200.850881 
L 301.797209 220.258272 
L 301.878393 200.905893 
L 301.959577 210.544076 
L 302.121945 169.85303 
L 302.203129 203.665945 
L 302.284313 192.299725 
L 302.365497 188.188315 
L 302.609049 158.297493 
L 302.771416 205.82426 
L 302.8526 172.601973 
L 302.933784 173.346285 
L 303.014968 183.370595 
L 303.096152 177.296724 
L 303.420888 218.052998 
L 303.583256 191.528646 
L 303.66444 205.038256 
L 303.745624 202.922626 
L 303.826808 172.553656 
L 303.989175 202.594846 
L 304.151543 178.054766 
L 304.232727 196.141881 
L 304.313911 179.341443 
L 304.395095 182.862656 
L 304.476279 211.27276 
L 304.557463 167.053085 
L 304.719831 200.978325 
L 304.801015 174.025621 
L 304.882199 190.172025 
L 304.963383 171.885281 
L 305.125751 192.946474 
L 305.206934 193.842716 
L 305.288118 200.907034 
L 305.369302 195.043746 
L 305.450486 204.193695 
L 305.612854 191.568303 
L 305.694038 194.312352 
L 305.775222 201.596446 
L 305.856406 195.171957 
L 306.018774 81.739095 
L 306.099958 91.089124 
L 306.262326 286.552111 
L 306.34351 240.118704 
L 306.424693 247.35754 
L 306.505877 265.186134 
L 306.668245 215.223428 
L 306.830613 209.395201 
L 306.911797 191.990659 
L 306.992981 224.758383 
L 307.155349 167.819755 
L 307.236533 196.761522 
L 307.398901 183.66869 
L 307.480085 182.598936 
L 307.561268 189.554069 
L 307.642452 167.602271 
L 307.723636 168.413227 
L 307.80482 179.241206 
L 307.886004 176.088508 
L 307.967188 175.013355 
L 308.129556 193.671066 
L 308.21074 181.026412 
L 308.291924 210.398569 
L 308.373108 193.764378 
L 308.454292 193.966567 
L 308.535476 220.110882 
L 308.697844 182.290015 
L 308.860211 183.128306 
L 308.941395 182.448564 
L 309.022579 210.390169 
L 309.103763 177.247348 
L 309.184947 184.046071 
L 309.266131 191.030925 
L 309.347315 182.02874 
L 309.428499 198.383778 
L 309.509683 171.177282 
L 309.672051 217.301176 
L 309.834419 183.151881 
L 309.915603 180.768161 
L 309.996786 182.432344 
L 310.07797 174.483741 
L 310.240338 213.79257 
L 310.402706 181.927901 
L 310.565074 196.479169 
L 310.646258 189.90017 
L 310.727442 192.245387 
L 310.808626 205.918356 
L 310.88981 193.593105 
L 310.970994 203.701375 
L 311.133362 179.225893 
L 311.214545 200.204175 
L 311.376913 83.004335 
L 311.458097 127.72721 
L 311.620465 264.311373 
L 311.701649 248.566247 
L 311.782833 256.107796 
L 312.026385 197.158808 
L 312.107569 217.571116 
L 312.188753 214.740724 
L 312.351121 190.911533 
L 312.432304 185.220117 
L 312.513488 191.506012 
L 312.594672 181.174434 
L 312.675856 196.722674 
L 312.75704 171.655897 
L 312.838224 173.380496 
L 312.919408 195.385847 
L 313.081776 173.330348 
L 313.16296 170.077209 
L 313.244144 178.659965 
L 313.325328 170.308542 
L 313.487696 212.421583 
L 313.568879 185.680975 
L 313.731247 217.649565 
L 313.812431 185.829146 
L 313.893615 191.315666 
L 314.055983 204.459056 
L 314.137167 203.110457 
L 314.218351 181.231737 
L 314.299535 187.364578 
L 314.380719 200.812278 
L 314.543087 174.968055 
L 314.705455 206.183695 
L 314.786638 178.992191 
L 314.867822 185.128722 
L 314.949006 197.798857 
L 315.03019 166.388401 
L 315.192558 201.019358 
L 315.43611 183.810453 
L 315.598478 193.988899 
L 315.679662 190.434703 
L 315.760846 174.106614 
L 315.84203 178.968832 
L 316.085581 201.442463 
L 316.166765 172.456011 
L 316.329133 212.245134 
L 316.410317 209.081741 
L 316.572685 185.743472 
L 316.653869 202.633786 
L 316.735053 200.423018 
L 316.897421 184.555873 
L 316.978605 201.622023 
L 317.140973 91.143911 
L 317.222156 112.183128 
L 317.384524 284.287744 
L 317.465708 258.660088 
L 317.70926 214.737426 
L 317.790444 253.241738 
L 317.952812 190.8165 
L 318.11518 217.828383 
L 318.277548 189.893404 
L 318.358732 189.61515 
L 318.439915 182.280588 
L 318.521099 190.507405 
L 318.602283 171.230336 
L 318.683467 178.728392 
L 318.764651 173.109983 
L 318.845835 194.816315 
L 319.008203 166.453082 
L 319.170571 189.032756 
L 319.332939 175.731205 
L 319.495307 215.933285 
L 319.657674 194.96267 
L 319.738858 196.439263 
L 319.820042 193.306182 
L 319.901226 199.112927 
L 319.98241 198.40972 
L 320.063594 198.288549 
L 320.225962 185.068714 
L 320.307146 188.219034 
L 320.38833 183.202686 
L 320.469514 195.824072 
L 320.550698 167.206037 
L 320.631882 193.296668 
L 320.713066 190.118217 
L 320.794249 176.962824 
L 320.875433 200.394151 
L 321.118985 182.969916 
L 321.200169 194.205195 
L 321.281353 172.31613 
L 321.443721 207.414512 
L 321.524905 177.27163 
L 321.606089 187.72299 
L 321.687273 205.52415 
L 321.768457 172.975274 
L 321.849641 184.664107 
L 321.930825 191.367018 
L 322.012008 181.349567 
L 322.093192 192.74922 
L 322.174376 185.38966 
L 322.25556 208.477511 
L 322.417928 186.217582 
L 322.580296 208.562591 
L 322.66148 181.262951 
L 322.823848 221.688334 
L 322.986216 169.845326 
L 323.0674 87.396096 
L 323.148584 91.45021 
L 323.310951 266.950576 
L 323.473319 231.312758 
L 323.554503 250.858723 
L 323.798055 200.061257 
L 323.879239 201.996796 
L 323.960423 214.283836 
L 324.203975 183.725446 
L 324.285159 203.501405 
L 324.447526 177.643981 
L 324.691078 180.814792 
L 324.772262 185.392977 
L 324.853446 185.244041 
L 324.93463 183.514944 
L 325.015814 175.609232 
L 325.096998 176.231849 
L 325.34055 206.909477 
L 325.421734 200.27009 
L 325.584101 216.157964 
L 325.665285 192.044745 
L 325.746469 196.69639 
L 325.827653 210.24513 
L 325.990021 175.23746 
L 326.071205 209.205029 
L 326.152389 187.175407 
L 326.233573 196.125152 
L 326.395941 172.686417 
L 326.477125 195.037781 
L 326.558309 185.478117 
L 326.639493 192.576591 
L 326.720677 184.510652 
L 326.80186 185.572798 
L 326.883044 180.127926 
L 326.964228 198.191367 
L 327.126596 178.165545 
L 327.20778 207.974275 
L 327.288964 179.464187 
L 327.370148 184.753146 
L 327.451332 185.728121 
L 327.532516 188.4881 
L 327.6137 200.341963 
L 327.857252 175.012852 
L 327.938436 181.777082 
L 328.019619 204.807511 
L 328.181987 172.119409 
L 328.344355 212.938119 
L 328.506723 190.94537 
L 328.587907 208.20254 
L 328.750275 197.052497 
L 328.831459 208.135369 
L 328.993827 138.337308 
L 329.075011 80.342328 
L 329.156195 120.103033 
L 329.318562 250.275096 
L 329.48093 262.609863 
L 329.643298 213.407589 
L 329.724482 219.130534 
L 329.805666 217.112532 
L 329.88685 215.635456 
L 330.049218 190.586167 
L 330.130402 190.383722 
L 330.211586 188.365659 
L 330.29277 208.588408 
L 330.373953 174.388272 
L 330.455137 177.122789 
L 330.536321 188.817892 
L 330.617505 182.640084 
L 330.698689 189.687466 
L 330.861057 171.7133 
L 331.023425 183.105929 
L 331.104609 153.834017 
L 331.266977 229.922247 
L 331.348161 205.966676 
L 331.429345 206.595957 
L 331.510529 203.615267 
L 331.591712 188.755993 
L 331.75408 201.203646 
L 331.835264 202.177686 
L 331.997632 181.896024 
L 332.16 197.133856 
L 332.322368 185.137677 
L 332.403552 195.905305 
L 332.484736 180.336192 
L 332.56592 189.249831 
L 332.647104 180.689036 
L 332.971839 203.245979 
L 333.053023 170.255658 
L 333.134207 182.149771 
L 333.296575 193.574696 
L 333.377759 179.104029 
L 333.458943 183.156131 
L 333.540127 199.632448 
L 333.621311 180.169491 
L 333.702495 184.744306 
L 333.783679 184.102012 
L 333.864863 195.627929 
L 333.946047 173.440988 
L 334.02723 179.455109 
L 334.108414 212.323384 
L 334.189598 189.43246 
L 334.270782 207.162047 
L 334.351966 203.213145 
L 334.43315 181.549848 
L 334.514334 202.892806 
L 334.595518 196.870654 
L 334.676702 193.681031 
L 334.757886 207.407146 
L 334.920254 89.358977 
L 335.001438 101.706519 
L 335.163805 264.454103 
L 335.244989 248.424266 
L 335.326173 248.987506 
L 335.650909 204.24232 
L 335.732093 243.303112 
L 335.894461 192.273717 
L 335.975645 196.464689 
L 336.056829 171.658752 
L 336.138013 204.38194 
L 336.219197 180.421852 
L 336.300381 198.589595 
L 336.462748 174.64602 
L 336.543932 179.571942 
L 336.625116 173.115779 
L 336.7063 180.797293 
L 336.787484 170.812377 
L 336.868668 190.009168 
L 336.949852 178.922695 
L 337.193404 203.254476 
L 337.274588 213.345417 
L 337.355772 202.58305 
L 337.436956 210.803958 
L 337.599323 192.04727 
L 337.761691 197.382302 
L 337.924059 182.969807 
L 338.005243 193.880485 
L 338.167611 180.444279 
L 338.248795 191.035847 
L 338.411163 182.339047 
L 338.492347 180.369732 
L 338.573531 186.070183 
L 338.654715 201.032371 
L 338.817082 188.8405 
L 338.898266 185.085322 
L 338.97945 171.935842 
L 339.141818 204.412711 
L 339.304186 182.339582 
L 339.38537 186.347993 
L 339.466554 183.480185 
L 339.547738 190.493389 
L 339.628922 182.672622 
L 339.710106 183.937053 
L 339.79129 199.242043 
L 339.872474 183.840002 
L 340.034841 210.100907 
L 340.116025 187.143541 
L 340.278393 199.767935 
L 340.359577 183.100059 
L 340.440761 205.813091 
L 340.521945 202.13529 
L 340.684313 79.329714 
L 340.927865 271.593059 
L 341.171416 233.221411 
L 341.2526 238.678793 
L 341.496152 192.634382 
L 341.577336 206.085646 
L 341.65852 204.351322 
L 341.739704 177.359391 
L 341.820888 205.807745 
L 341.983256 177.796093 
L 342.06444 195.07057 
L 342.145624 167.024235 
L 342.226808 176.091554 
L 342.307992 197.055077 
L 342.470359 168.270497 
L 342.551543 187.361907 
L 342.632727 178.456875 
L 342.713911 178.731173 
L 342.957463 203.161729 
L 343.038647 204.826911 
L 343.119831 212.472114 
L 343.363383 191.186774 
L 343.444567 199.064219 
L 343.606934 176.661846 
L 343.769302 198.441546 
L 343.850486 175.943854 
L 343.93167 179.001443 
L 344.012854 203.144886 
L 344.094038 177.811424 
L 344.175222 189.082015 
L 344.256406 188.250379 
L 344.33759 177.13797 
L 344.418774 193.613313 
L 344.499958 191.363971 
L 344.662326 183.388202 
L 344.824693 190.165323 
L 344.905877 188.656398 
L 344.987061 181.726758 
L 345.068245 190.738717 
L 345.230613 180.570652 
L 345.392981 194.522057 
L 345.555349 181.064871 
L 345.636533 204.794773 
L 345.717717 201.730466 
L 345.798901 204.705243 
L 345.880085 201.676984 
L 345.961268 186.617759 
L 346.123636 200.468654 
L 346.20482 186.434267 
L 346.367188 88.913829 
L 346.448372 118.307071 
L 346.61074 251.377911 
L 346.691924 244.103097 
L 346.773108 257.992798 
L 346.854292 229.732499 
L 346.935476 232.427352 
L 347.01666 227.054432 
L 347.260211 192.703904 
L 347.341395 199.027449 
L 347.666131 186.863408 
L 347.828499 165.647723 
L 347.909683 193.244572 
L 347.990867 184.618699 
L 348.072051 170.856358 
L 348.153235 184.465106 
L 348.234419 181.491805 
L 348.315603 172.038412 
L 348.47797 194.457956 
L 348.559154 191.875191 
L 348.640338 209.959966 
L 348.802706 202.6756 
L 348.88389 216.148096 
L 349.046258 189.009188 
L 349.127442 189.325489 
L 349.28981 200.653638 
L 349.452178 177.722759 
L 349.614545 188.969324 
L 349.776913 184.497525 
L 349.858097 190.926328 
L 349.939281 180.804061 
L 350.101649 196.119639 
L 350.182833 186.231042 
L 350.264017 187.766077 
L 350.345201 187.408037 
L 350.507569 176.196028 
L 350.669937 197.196521 
L 350.832304 173.123069 
L 350.994672 194.638382 
L 351.075856 183.736542 
L 351.238224 192.328912 
L 351.319408 192.033655 
L 351.56296 205.15696 
L 351.725328 189.058103 
L 351.806512 207.266068 
L 351.887696 184.404703 
L 352.050063 75.67259 
L 352.212431 254.318808 
L 352.293615 252.29454 
L 352.374799 244.947987 
L 352.455983 248.281262 
L 352.537167 240.405179 
L 352.699535 202.719725 
L 352.780719 224.661066 
L 352.943087 203.578602 
L 353.105455 189.597327 
L 353.186638 198.223092 
L 353.267822 175.893971 
L 353.349006 186.997102 
L 353.511374 175.588948 
L 353.592558 190.053081 
L 353.754926 169.827935 
L 353.83611 187.616207 
L 353.917294 184.460092 
L 353.998478 176.105323 
L 354.079662 185.168573 
L 354.160846 179.529576 
L 354.404397 213.905661 
L 354.485581 221.794856 
L 354.647949 195.395245 
L 354.729133 201.59652 
L 354.810317 198.248222 
L 354.972685 184.278407 
L 355.053869 192.249025 
L 355.216237 175.315707 
L 355.297421 198.655543 
L 355.378605 196.671474 
L 355.459789 182.15102 
L 355.622156 196.344994 
L 355.70334 179.12691 
L 355.784524 184.392468 
L 355.865708 189.106127 
L 355.946892 181.903577 
L 356.028076 195.708939 
L 356.10926 185.536674 
L 356.190444 187.841043 
L 356.271628 187.188615 
L 356.433996 175.910068 
L 356.51518 181.953331 
L 356.596364 201.975921 
L 356.677548 184.062215 
L 356.839915 200.163902 
L 356.921099 187.215925 
L 357.083467 212.815944 
L 357.245835 185.898769 
L 357.327019 193.378473 
L 357.408203 192.85992 
L 357.489387 193.281903 
L 357.651755 73.42514 
L 357.895307 266.051772 
L 357.97649 241.246083 
L 358.057674 253.949065 
L 358.301226 218.554224 
L 358.38241 218.539487 
L 358.544778 189.567491 
L 358.625962 205.167507 
L 358.707146 190.802887 
L 358.78833 190.925769 
L 358.869514 194.971126 
L 358.950698 178.752748 
L 359.031882 181.475658 
L 359.113066 168.727887 
L 359.194249 175.864412 
L 359.275433 193.024514 
L 359.356617 178.376415 
L 359.437801 186.316664 
L 359.600169 169.917022 
L 359.681353 187.83387 
L 359.762537 186.816914 
L 359.924905 212.655985 
L 360.006089 210.213421 
L 360.087273 202.672459 
L 360.168457 210.496696 
L 360.330825 193.610072 
L 360.412008 194.511728 
L 360.493192 189.94668 
L 360.574376 192.774008 
L 360.65556 184.810321 
L 360.736744 185.784379 
L 360.817928 184.989333 
L 360.899112 183.05561 
L 361.06148 186.656191 
L 361.142664 184.440927 
L 361.223848 192.960891 
L 361.305032 192.837136 
L 361.386216 179.414677 
L 361.4674 193.640708 
L 361.548584 189.566813 
L 361.629767 187.618485 
L 361.710951 193.873521 
L 361.792135 176.549565 
L 361.873319 186.638377 
L 361.954503 185.421376 
L 362.035687 173.279491 
L 362.198055 207.467983 
L 362.360423 180.231827 
L 362.441607 197.572456 
L 362.522791 193.702337 
L 362.685159 197.541979 
L 362.766342 197.325635 
L 362.92871 191.285923 
L 363.091078 206.698694 
L 363.33463 88.841802 
L 363.578182 258.436197 
L 363.984101 210.127228 
L 364.065285 213.36826 
L 364.227653 197.200341 
L 364.308837 202.178781 
L 364.471205 184.433673 
L 364.552389 184.497257 
L 364.633573 173.252046 
L 364.714757 190.791136 
L 364.795941 185.827879 
L 364.958309 173.628085 
L 365.039493 178.590946 
L 365.120677 194.463146 
L 365.20186 162.907953 
L 365.364228 199.7424 
L 365.445412 176.773684 
L 365.60778 217.971028 
L 365.688964 216.720621 
L 365.770148 206.755413 
L 365.851332 211.903147 
L 365.932516 185.553386 
L 366.0137 186.557958 
L 366.094884 207.841855 
L 366.257252 184.32937 
L 366.338436 202.116876 
L 366.500803 180.396517 
L 366.663171 187.23149 
L 366.744355 191.769885 
L 366.987907 176.857044 
L 367.150275 201.655299 
L 367.231459 183.830906 
L 367.312643 184.608605 
L 367.475011 182.456876 
L 367.556195 177.310374 
L 367.637378 185.981638 
L 367.718562 207.506005 
L 367.88093 183.334206 
L 367.962114 203.804919 
L 368.043298 200.847123 
L 368.124482 197.861312 
L 368.205666 184.371177 
L 368.368034 195.750199 
L 368.449218 195.353212 
L 368.530402 194.220366 
L 368.69277 73.09931 
L 369.017505 251.686534 
L 369.098689 261.642194 
L 369.179873 220.406498 
L 369.261057 222.406202 
L 369.423425 205.794774 
L 369.504609 225.026926 
L 369.666977 185.351779 
L 369.748161 199.626278 
L 369.910529 184.437247 
L 369.991712 174.494285 
L 370.15408 190.804908 
L 370.316448 177.623516 
L 370.397632 176.909503 
L 370.478816 169.366201 
L 370.56 171.892392 
L 370.722368 185.942704 
L 370.884736 201.980155 
L 370.96592 193.342312 
L 371.047104 219.498606 
L 371.128288 210.041907 
L 371.371839 187.153518 
L 371.453023 199.123507 
L 371.534207 195.191938 
L 371.615391 194.270781 
L 371.696575 183.089025 
L 371.858943 194.791643 
L 371.940127 184.611979 
L 372.021311 190.14764 
L 372.102495 185.312097 
L 372.183679 204.790115 
L 372.346047 180.153105 
L 372.42723 179.399197 
L 372.508414 181.61759 
L 372.589598 197.635308 
L 372.670782 173.88629 
L 372.751966 196.032019 
L 372.995518 180.274325 
L 373.076702 180.884951 
L 373.157886 207.599111 
L 373.23907 192.391474 
L 373.320254 201.486527 
L 373.401438 199.922394 
L 373.482622 179.813438 
L 373.726173 201.262265 
L 373.807357 179.005724 
L 373.969725 74.951731 
L 374.213277 266.1846 
L 374.294461 241.437625 
L 374.375645 243.405142 
L 374.700381 215.609965 
L 374.781564 195.943971 
L 374.862748 199.992311 
L 374.943932 203.485713 
L 375.025116 182.537598 
L 375.1063 197.064534 
L 375.187484 183.290936 
L 375.268668 183.864448 
L 375.349852 177.206032 
L 375.51222 188.884561 
L 375.593404 170.648166 
L 375.674588 180.905611 
L 375.755772 169.043833 
L 376.242875 208.243791 
L 376.324059 209.011276 
L 376.405243 195.647419 
L 376.486427 201.34922 
L 376.567611 215.708075 
L 376.648795 192.326285 
L 376.729979 192.797749 
L 376.811163 196.405717 
L 376.892347 186.623788 
L 376.973531 193.489941 
L 377.054715 173.942991 
L 377.217082 198.872034 
L 377.37945 185.124706 
L 377.460634 188.94466 
L 377.541818 181.626128 
L 377.704186 204.937361 
L 377.78537 181.028326 
L 377.866554 188.421007 
L 377.947738 186.051821 
L 378.028922 170.683474 
L 378.19129 194.309131 
L 378.272474 192.004489 
L 378.353658 185.478599 
L 378.597209 207.898942 
L 378.759577 188.060399 
L 378.840761 211.712947 
L 378.921945 182.305436 
L 379.003129 202.262154 
L 379.084313 177.278773 
L 379.246681 77.609806 
L 379.490233 266.455661 
L 379.6526 244.799427 
L 379.896152 213.061832 
L 379.977336 201.86927 
L 380.139704 213.227249 
L 380.220888 191.252272 
L 380.302072 195.750277 
L 380.46444 179.700505 
L 380.545624 192.020615 
L 380.626808 170.451271 
L 380.789175 187.600414 
L 380.870359 174.642754 
L 380.951543 183.681939 
L 381.032727 181.539666 
L 381.113911 172.713139 
L 381.195095 174.664348 
L 381.519831 216.426367 
L 381.601015 203.406384 
L 381.682199 205.530814 
L 381.844567 193.785147 
L 382.006934 198.897271 
L 382.169302 184.153654 
L 382.250486 187.216287 
L 382.33167 177.798624 
L 382.494038 199.446273 
L 382.575222 193.368102 
L 382.656406 181.947392 
L 382.73759 183.282236 
L 383.062326 194.116638 
L 383.224693 182.165521 
L 383.305877 196.318051 
L 383.468245 172.073421 
L 383.630613 204.263586 
L 383.711797 180.539239 
L 383.792981 186.135113 
L 383.874165 202.131343 
L 383.955349 189.055979 
L 384.117717 200.573736 
L 384.198901 190.201849 
L 384.280085 193.369697 
L 384.361268 205.051418 
L 384.60482 166.670575 
L 384.686004 83.697824 
L 384.767188 92.036889 
L 384.929556 271.502546 
L 385.091924 250.604897 
L 385.497844 203.149645 
L 385.579027 213.301445 
L 385.741395 188.128932 
L 385.822579 207.920835 
L 385.984947 173.580011 
L 386.066131 196.118744 
L 386.147315 168.150723 
L 386.228499 179.211008 
L 386.309683 179.201504 
L 386.390867 167.116704 
L 386.472051 191.525113 
L 386.634419 176.900636 
L 386.715603 176.08353 
L 386.87797 201.956819 
L 386.959154 176.493283 
L 387.121522 232.72546 
L 387.202706 194.740757 
L 387.28389 204.331745 
L 387.365074 203.411499 
L 387.446258 187.823497 
L 387.527442 197.613224 
L 387.608626 186.11081 
L 387.68981 189.232529 
L 387.770994 189.461479 
L 387.852178 179.940744 
L 388.014545 194.464585 
L 388.095729 180.785094 
L 388.176913 185.154294 
L 388.339281 190.05739 
L 388.501649 183.208581 
L 388.582833 191.087078 
L 388.826385 183.12667 
L 388.907569 199.730216 
L 389.069937 181.046148 
L 389.151121 196.296241 
L 389.313488 181.40152 
L 389.394672 183.174992 
L 389.475856 201.817861 
L 389.638224 177.118816 
L 389.719408 203.769568 
L 389.800592 200.790686 
L 389.881776 206.507786 
L 390.206512 185.66228 
L 390.368879 201.692967 
L 390.531247 91.337077 
L 390.612431 109.923212 
L 390.774799 264.722665 
L 390.855983 244.513892 
L 390.937167 251.541554 
L 391.180719 219.220713 
L 391.261903 219.913947 
L 391.343087 201.139323 
L 391.424271 206.396479 
L 391.505455 210.259009 
L 391.586638 176.15759 
L 391.667822 203.29327 
L 391.83019 188.119104 
L 391.992558 172.058223 
L 392.073742 186.380623 
L 392.154926 167.57308 
L 392.23611 182.222879 
L 392.317294 181.160057 
L 392.479662 174.837172 
L 392.804397 208.700889 
L 392.966765 191.972929 
L 393.129133 219.933601 
L 393.210317 192.734566 
L 393.291501 204.738862 
L 393.372685 198.888384 
L 393.616237 174.081069 
L 393.697421 195.455037 
L 393.859789 182.729669 
L 393.940973 199.363216 
L 394.10334 181.095106 
L 394.184524 192.825692 
L 394.265708 189.551821 
L 394.428076 187.012619 
L 394.50926 180.635749 
L 394.590444 185.220953 
L 394.752812 181.509286 
L 394.833996 176.054172 
L 394.91518 183.186518 
L 394.996364 203.83242 
L 395.077548 186.169769 
L 395.158732 194.745504 
L 395.321099 179.025316 
L 395.402283 196.313069 
L 395.483467 183.139307 
L 395.564651 192.871039 
L 395.645835 181.979568 
L 395.808203 200.027667 
L 395.889387 188.78496 
L 395.970571 205.988816 
L 396.051755 205.944829 
L 396.214123 195.503594 
L 396.295307 202.75377 
L 396.37649 198.584694 
L 396.457674 183.091331 
L 396.620042 74.819003 
L 396.78241 250.431574 
L 396.863594 249.76741 
L 396.944778 242.253897 
L 397.025962 253.681655 
L 397.18833 221.763126 
L 397.269514 219.692097 
L 397.350698 223.300679 
L 397.513066 189.060902 
L 397.594249 203.138603 
L 397.756617 190.879763 
L 397.837801 189.848489 
L 398.000169 170.173594 
L 398.081353 196.253797 
L 398.243721 167.731379 
L 398.324905 181.414721 
L 398.406089 171.344545 
L 398.487273 180.367139 
L 398.487273 180.367139 
" clip-path="url(#p6ae2431ede)" style="fill: none; stroke: #1f77b4; stroke-width: 1.5; stroke-linecap: square"/>
   </g>
   <g id="patch_3">
    <path d="M 57.6 307.584 
L 57.6 41.472 
" style="fill: none; stroke: #000000; stroke-width: 0.8; stroke-linejoin: miter; stroke-linecap: square"/>
   </g>
   <g id="patch_4">
    <path d="M 414.72 307.584 
L 414.72 41.472 
" style="fill: none; stroke: #000000; stroke-width: 0.8; stroke-linejoin: miter; stroke-linecap: square"/>
   </g>
   <g id="patch_5">
    <path d="M 57.6 307.584 
L 414.72 307.584 
" style="fill: none; stroke: #000000; stroke-width: 0.8; stroke-linejoin: miter; stroke-linecap: square"/>
   </g>
   <g id="patch_6">
    <path d="M 57.6 41.472 
L 414.72 41.472 
" style="fill: none; stroke: #000000; stroke-width: 0.8; stroke-linejoin: miter; stroke-linecap: square"/>
   </g>
  </g>
 </g>
 <defs>
  <clipPath id="p6ae2431ede">
   <rect x="57.6" y="41.472" width="357.12" height="266.112"/>
  </clipPath>
 </defs>
</svg>
