<?xml version="1.0" encoding="utf-8" standalone="no"?>
<!DOCTYPE svg PUBLIC "-//W3C//DTD SVG 1.1//EN"
  "http://www.w3.org/Graphics/SVG/1.1/DTD/svg11.dtd">
<svg xmlns:xlink="http://www.w3.org/1999/xlink" width="460.8pt" height="345.6pt" viewBox="0 0 460.8 345.6" xmlns="http://www.w3.org/2000/svg" version="1.1">
 <metadata>
  <rdf:RDF xmlns:dc="http://purl.org/dc/elements/1.1/" xmlns:cc="http://creativecommons.org/ns#" xmlns:rdf="http://www.w3.org/1999/02/22-rdf-syntax-ns#">
   <cc:Work>
    <dc:type rdf:resource="http://purl.org/dc/dcmitype/StillImage"/>
    <dc:date>2024-06-05T15:50:42.520152</dc:date>
    <dc:format>image/svg+xml</dc:format>
    <dc:creator>
     <cc:Agent>
      <dc:title>Matplotlib v3.8.2, https://matplotlib.org/</dc:title>
     </cc:Agent>
    </dc:creator>
   </cc:Work>
  </rdf:RDF>
 </metadata>
 <defs>
  <style type="text/css">*{stroke-linejoin: round; stroke-linecap: butt}</style>
 </defs>
 <g id="figure_1">
  <g id="patch_1">
   <path d="M 0 345.6 
L 460.8 345.6 
L 460.8 0 
L 0 0 
z
" style="fill: #ffffff"/>
  </g>
  <g id="axes_1">
   <g id="patch_2">
    <path d="M 57.6 307.584 
L 414.72 307.584 
L 414.72 41.472 
L 57.6 41.472 
z
" style="fill: #ffffff"/>
   </g>
   <g id="matplotlib.axis_1">
    <g id="xtick_1">
     <g id="line2d_1">
      <defs>
       <path id="mc83b4e0b8d" d="M 0 0 
L 0 3.5 
" style="stroke: #000000; stroke-width: 0.8"/>
      </defs>
      <g>
       <use xlink:href="#mc83b4e0b8d" x="73.832727" y="307.584" style="stroke: #000000; stroke-width: 0.8"/>
      </g>
     </g>
     <g id="text_1">
      <!-- 0 -->
      <g transform="translate(70.651477 322.182437) scale(0.1 -0.1)">
       <defs>
        <path id="DejaVuSans-30" d="M 2034 4250 
Q 1547 4250 1301 3770 
Q 1056 3291 1056 2328 
Q 1056 1369 1301 889 
Q 1547 409 2034 409 
Q 2525 409 2770 889 
Q 3016 1369 3016 2328 
Q 3016 3291 2770 3770 
Q 2525 4250 2034 4250 
z
M 2034 4750 
Q 2819 4750 3233 4129 
Q 3647 3509 3647 2328 
Q 3647 1150 3233 529 
Q 2819 -91 2034 -91 
Q 1250 -91 836 529 
Q 422 1150 422 2328 
Q 422 3509 836 4129 
Q 1250 4750 2034 4750 
z
" transform="scale(0.015625)"/>
       </defs>
       <use xlink:href="#DejaVuSans-30"/>
      </g>
     </g>
    </g>
    <g id="xtick_2">
     <g id="line2d_2">
      <g>
       <use xlink:href="#mc83b4e0b8d" x="127.941818" y="307.584" style="stroke: #000000; stroke-width: 0.8"/>
      </g>
     </g>
     <g id="text_2">
      <!-- 10 -->
      <g transform="translate(121.579318 322.182437) scale(0.1 -0.1)">
       <defs>
        <path id="DejaVuSans-31" d="M 794 531 
L 1825 531 
L 1825 4091 
L 703 3866 
L 703 4441 
L 1819 4666 
L 2450 4666 
L 2450 531 
L 3481 531 
L 3481 0 
L 794 0 
L 794 531 
z
" transform="scale(0.015625)"/>
       </defs>
       <use xlink:href="#DejaVuSans-31"/>
       <use xlink:href="#DejaVuSans-30" x="63.623047"/>
      </g>
     </g>
    </g>
    <g id="xtick_3">
     <g id="line2d_3">
      <g>
       <use xlink:href="#mc83b4e0b8d" x="182.050909" y="307.584" style="stroke: #000000; stroke-width: 0.8"/>
      </g>
     </g>
     <g id="text_3">
      <!-- 20 -->
      <g transform="translate(175.688409 322.182437) scale(0.1 -0.1)">
       <defs>
        <path id="DejaVuSans-32" d="M 1228 531 
L 3431 531 
L 3431 0 
L 469 0 
L 469 531 
Q 828 903 1448 1529 
Q 2069 2156 2228 2338 
Q 2531 2678 2651 2914 
Q 2772 3150 2772 3378 
Q 2772 3750 2511 3984 
Q 2250 4219 1831 4219 
Q 1534 4219 1204 4116 
Q 875 4013 500 3803 
L 500 4441 
Q 881 4594 1212 4672 
Q 1544 4750 1819 4750 
Q 2544 4750 2975 4387 
Q 3406 4025 3406 3419 
Q 3406 3131 3298 2873 
Q 3191 2616 2906 2266 
Q 2828 2175 2409 1742 
Q 1991 1309 1228 531 
z
" transform="scale(0.015625)"/>
       </defs>
       <use xlink:href="#DejaVuSans-32"/>
       <use xlink:href="#DejaVuSans-30" x="63.623047"/>
      </g>
     </g>
    </g>
    <g id="xtick_4">
     <g id="line2d_4">
      <g>
       <use xlink:href="#mc83b4e0b8d" x="236.16" y="307.584" style="stroke: #000000; stroke-width: 0.8"/>
      </g>
     </g>
     <g id="text_4">
      <!-- 30 -->
      <g transform="translate(229.7975 322.182437) scale(0.1 -0.1)">
       <defs>
        <path id="DejaVuSans-33" d="M 2597 2516 
Q 3050 2419 3304 2112 
Q 3559 1806 3559 1356 
Q 3559 666 3084 287 
Q 2609 -91 1734 -91 
Q 1441 -91 1130 -33 
Q 819 25 488 141 
L 488 750 
Q 750 597 1062 519 
Q 1375 441 1716 441 
Q 2309 441 2620 675 
Q 2931 909 2931 1356 
Q 2931 1769 2642 2001 
Q 2353 2234 1838 2234 
L 1294 2234 
L 1294 2753 
L 1863 2753 
Q 2328 2753 2575 2939 
Q 2822 3125 2822 3475 
Q 2822 3834 2567 4026 
Q 2313 4219 1838 4219 
Q 1578 4219 1281 4162 
Q 984 4106 628 3988 
L 628 4550 
Q 988 4650 1302 4700 
Q 1616 4750 1894 4750 
Q 2613 4750 3031 4423 
Q 3450 4097 3450 3541 
Q 3450 3153 3228 2886 
Q 3006 2619 2597 2516 
z
" transform="scale(0.015625)"/>
       </defs>
       <use xlink:href="#DejaVuSans-33"/>
       <use xlink:href="#DejaVuSans-30" x="63.623047"/>
      </g>
     </g>
    </g>
    <g id="xtick_5">
     <g id="line2d_5">
      <g>
       <use xlink:href="#mc83b4e0b8d" x="290.269091" y="307.584" style="stroke: #000000; stroke-width: 0.8"/>
      </g>
     </g>
     <g id="text_5">
      <!-- 40 -->
      <g transform="translate(283.906591 322.182437) scale(0.1 -0.1)">
       <defs>
        <path id="DejaVuSans-34" d="M 2419 4116 
L 825 1625 
L 2419 1625 
L 2419 4116 
z
M 2253 4666 
L 3047 4666 
L 3047 1625 
L 3713 1625 
L 3713 1100 
L 3047 1100 
L 3047 0 
L 2419 0 
L 2419 1100 
L 313 1100 
L 313 1709 
L 2253 4666 
z
" transform="scale(0.015625)"/>
       </defs>
       <use xlink:href="#DejaVuSans-34"/>
       <use xlink:href="#DejaVuSans-30" x="63.623047"/>
      </g>
     </g>
    </g>
    <g id="xtick_6">
     <g id="line2d_6">
      <g>
       <use xlink:href="#mc83b4e0b8d" x="344.378182" y="307.584" style="stroke: #000000; stroke-width: 0.8"/>
      </g>
     </g>
     <g id="text_6">
      <!-- 50 -->
      <g transform="translate(338.015682 322.182437) scale(0.1 -0.1)">
       <defs>
        <path id="DejaVuSans-35" d="M 691 4666 
L 3169 4666 
L 3169 4134 
L 1269 4134 
L 1269 2991 
Q 1406 3038 1543 3061 
Q 1681 3084 1819 3084 
Q 2600 3084 3056 2656 
Q 3513 2228 3513 1497 
Q 3513 744 3044 326 
Q 2575 -91 1722 -91 
Q 1428 -91 1123 -41 
Q 819 9 494 109 
L 494 744 
Q 775 591 1075 516 
Q 1375 441 1709 441 
Q 2250 441 2565 725 
Q 2881 1009 2881 1497 
Q 2881 1984 2565 2268 
Q 2250 2553 1709 2553 
Q 1456 2553 1204 2497 
Q 953 2441 691 2322 
L 691 4666 
z
" transform="scale(0.015625)"/>
       </defs>
       <use xlink:href="#DejaVuSans-35"/>
       <use xlink:href="#DejaVuSans-30" x="63.623047"/>
      </g>
     </g>
    </g>
    <g id="xtick_7">
     <g id="line2d_7">
      <g>
       <use xlink:href="#mc83b4e0b8d" x="398.487273" y="307.584" style="stroke: #000000; stroke-width: 0.8"/>
      </g>
     </g>
     <g id="text_7">
      <!-- 60 -->
      <g transform="translate(392.124773 322.182437) scale(0.1 -0.1)">
       <defs>
        <path id="DejaVuSans-36" d="M 2113 2584 
Q 1688 2584 1439 2293 
Q 1191 2003 1191 1497 
Q 1191 994 1439 701 
Q 1688 409 2113 409 
Q 2538 409 2786 701 
Q 3034 994 3034 1497 
Q 3034 2003 2786 2293 
Q 2538 2584 2113 2584 
z
M 3366 4563 
L 3366 3988 
Q 3128 4100 2886 4159 
Q 2644 4219 2406 4219 
Q 1781 4219 1451 3797 
Q 1122 3375 1075 2522 
Q 1259 2794 1537 2939 
Q 1816 3084 2150 3084 
Q 2853 3084 3261 2657 
Q 3669 2231 3669 1497 
Q 3669 778 3244 343 
Q 2819 -91 2113 -91 
Q 1303 -91 875 529 
Q 447 1150 447 2328 
Q 447 3434 972 4092 
Q 1497 4750 2381 4750 
Q 2619 4750 2861 4703 
Q 3103 4656 3366 4563 
z
" transform="scale(0.015625)"/>
       </defs>
       <use xlink:href="#DejaVuSans-36"/>
       <use xlink:href="#DejaVuSans-30" x="63.623047"/>
      </g>
     </g>
    </g>
    <g id="text_8">
     <!-- Time [$s$] -->
     <g transform="translate(215.66 335.860562) scale(0.1 -0.1)">
      <defs>
       <path id="DejaVuSans-54" d="M -19 4666 
L 3928 4666 
L 3928 4134 
L 2272 4134 
L 2272 0 
L 1638 0 
L 1638 4134 
L -19 4134 
L -19 4666 
z
" transform="scale(0.015625)"/>
       <path id="DejaVuSans-69" d="M 603 3500 
L 1178 3500 
L 1178 0 
L 603 0 
L 603 3500 
z
M 603 4863 
L 1178 4863 
L 1178 4134 
L 603 4134 
L 603 4863 
z
" transform="scale(0.015625)"/>
       <path id="DejaVuSans-6d" d="M 3328 2828 
Q 3544 3216 3844 3400 
Q 4144 3584 4550 3584 
Q 5097 3584 5394 3201 
Q 5691 2819 5691 2113 
L 5691 0 
L 5113 0 
L 5113 2094 
Q 5113 2597 4934 2840 
Q 4756 3084 4391 3084 
Q 3944 3084 3684 2787 
Q 3425 2491 3425 1978 
L 3425 0 
L 2847 0 
L 2847 2094 
Q 2847 2600 2669 2842 
Q 2491 3084 2119 3084 
Q 1678 3084 1418 2786 
Q 1159 2488 1159 1978 
L 1159 0 
L 581 0 
L 581 3500 
L 1159 3500 
L 1159 2956 
Q 1356 3278 1631 3431 
Q 1906 3584 2284 3584 
Q 2666 3584 2933 3390 
Q 3200 3197 3328 2828 
z
" transform="scale(0.015625)"/>
       <path id="DejaVuSans-65" d="M 3597 1894 
L 3597 1613 
L 953 1613 
Q 991 1019 1311 708 
Q 1631 397 2203 397 
Q 2534 397 2845 478 
Q 3156 559 3463 722 
L 3463 178 
Q 3153 47 2828 -22 
Q 2503 -91 2169 -91 
Q 1331 -91 842 396 
Q 353 884 353 1716 
Q 353 2575 817 3079 
Q 1281 3584 2069 3584 
Q 2775 3584 3186 3129 
Q 3597 2675 3597 1894 
z
M 3022 2063 
Q 3016 2534 2758 2815 
Q 2500 3097 2075 3097 
Q 1594 3097 1305 2825 
Q 1016 2553 972 2059 
L 3022 2063 
z
" transform="scale(0.015625)"/>
       <path id="DejaVuSans-20" transform="scale(0.015625)"/>
       <path id="DejaVuSans-5b" d="M 550 4863 
L 1875 4863 
L 1875 4416 
L 1125 4416 
L 1125 -397 
L 1875 -397 
L 1875 -844 
L 550 -844 
L 550 4863 
z
" transform="scale(0.015625)"/>
       <path id="DejaVuSans-Oblique-73" d="M 3200 3397 
L 3091 2853 
Q 2863 2978 2609 3040 
Q 2356 3103 2088 3103 
Q 1634 3103 1373 2948 
Q 1113 2794 1113 2528 
Q 1113 2219 1719 2053 
Q 1766 2041 1788 2034 
L 1972 1978 
Q 2547 1819 2739 1644 
Q 2931 1469 2931 1166 
Q 2931 609 2489 259 
Q 2047 -91 1331 -91 
Q 1053 -91 747 -37 
Q 441 16 72 128 
L 184 722 
Q 500 559 806 475 
Q 1113 391 1394 391 
Q 1816 391 2080 572 
Q 2344 753 2344 1031 
Q 2344 1331 1650 1516 
L 1591 1531 
L 1394 1581 
Q 956 1697 753 1886 
Q 550 2075 550 2369 
Q 550 2928 970 3256 
Q 1391 3584 2113 3584 
Q 2397 3584 2667 3537 
Q 2938 3491 3200 3397 
z
" transform="scale(0.015625)"/>
       <path id="DejaVuSans-5d" d="M 1947 4863 
L 1947 -844 
L 622 -844 
L 622 -397 
L 1369 -397 
L 1369 4416 
L 622 4416 
L 622 4863 
L 1947 4863 
z
" transform="scale(0.015625)"/>
      </defs>
      <use xlink:href="#DejaVuSans-54" transform="translate(0 0.015625)"/>
      <use xlink:href="#DejaVuSans-69" transform="translate(61.083984 0.015625)"/>
      <use xlink:href="#DejaVuSans-6d" transform="translate(88.867188 0.015625)"/>
      <use xlink:href="#DejaVuSans-65" transform="translate(186.279297 0.015625)"/>
      <use xlink:href="#DejaVuSans-20" transform="translate(247.802734 0.015625)"/>
      <use xlink:href="#DejaVuSans-5b" transform="translate(279.589844 0.015625)"/>
      <use xlink:href="#DejaVuSans-Oblique-73" transform="translate(318.603516 0.015625)"/>
      <use xlink:href="#DejaVuSans-5d" transform="translate(370.703125 0.015625)"/>
     </g>
    </g>
   </g>
   <g id="matplotlib.axis_2">
    <g id="ytick_1">
     <g id="line2d_8">
      <defs>
       <path id="mb0629e28a7" d="M 0 0 
L -3.5 0 
" style="stroke: #000000; stroke-width: 0.8"/>
      </defs>
      <g>
       <use xlink:href="#mb0629e28a7" x="57.6" y="295.488" style="stroke: #000000; stroke-width: 0.8"/>
      </g>
     </g>
     <g id="text_9">
      <!-- −1.00 -->
      <g transform="translate(19.954687 299.287219) scale(0.1 -0.1)">
       <defs>
        <path id="DejaVuSans-2212" d="M 678 2272 
L 4684 2272 
L 4684 1741 
L 678 1741 
L 678 2272 
z
" transform="scale(0.015625)"/>
        <path id="DejaVuSans-2e" d="M 684 794 
L 1344 794 
L 1344 0 
L 684 0 
L 684 794 
z
" transform="scale(0.015625)"/>
       </defs>
       <use xlink:href="#DejaVuSans-2212"/>
       <use xlink:href="#DejaVuSans-31" x="83.789062"/>
       <use xlink:href="#DejaVuSans-2e" x="147.412109"/>
       <use xlink:href="#DejaVuSans-30" x="179.199219"/>
       <use xlink:href="#DejaVuSans-30" x="242.822266"/>
      </g>
     </g>
    </g>
    <g id="ytick_2">
     <g id="line2d_9">
      <g>
       <use xlink:href="#mb0629e28a7" x="57.6" y="265.248" style="stroke: #000000; stroke-width: 0.8"/>
      </g>
     </g>
     <g id="text_10">
      <!-- −0.75 -->
      <g transform="translate(19.954687 269.047219) scale(0.1 -0.1)">
       <defs>
        <path id="DejaVuSans-37" d="M 525 4666 
L 3525 4666 
L 3525 4397 
L 1831 0 
L 1172 0 
L 2766 4134 
L 525 4134 
L 525 4666 
z
" transform="scale(0.015625)"/>
       </defs>
       <use xlink:href="#DejaVuSans-2212"/>
       <use xlink:href="#DejaVuSans-30" x="83.789062"/>
       <use xlink:href="#DejaVuSans-2e" x="147.412109"/>
       <use xlink:href="#DejaVuSans-37" x="179.199219"/>
       <use xlink:href="#DejaVuSans-35" x="242.822266"/>
      </g>
     </g>
    </g>
    <g id="ytick_3">
     <g id="line2d_10">
      <g>
       <use xlink:href="#mb0629e28a7" x="57.6" y="235.008" style="stroke: #000000; stroke-width: 0.8"/>
      </g>
     </g>
     <g id="text_11">
      <!-- −0.50 -->
      <g transform="translate(19.954687 238.807219) scale(0.1 -0.1)">
       <use xlink:href="#DejaVuSans-2212"/>
       <use xlink:href="#DejaVuSans-30" x="83.789062"/>
       <use xlink:href="#DejaVuSans-2e" x="147.412109"/>
       <use xlink:href="#DejaVuSans-35" x="179.199219"/>
       <use xlink:href="#DejaVuSans-30" x="242.822266"/>
      </g>
     </g>
    </g>
    <g id="ytick_4">
     <g id="line2d_11">
      <g>
       <use xlink:href="#mb0629e28a7" x="57.6" y="204.768" style="stroke: #000000; stroke-width: 0.8"/>
      </g>
     </g>
     <g id="text_12">
      <!-- −0.25 -->
      <g transform="translate(19.954687 208.567219) scale(0.1 -0.1)">
       <use xlink:href="#DejaVuSans-2212"/>
       <use xlink:href="#DejaVuSans-30" x="83.789062"/>
       <use xlink:href="#DejaVuSans-2e" x="147.412109"/>
       <use xlink:href="#DejaVuSans-32" x="179.199219"/>
       <use xlink:href="#DejaVuSans-35" x="242.822266"/>
      </g>
     </g>
    </g>
    <g id="ytick_5">
     <g id="line2d_12">
      <g>
       <use xlink:href="#mb0629e28a7" x="57.6" y="174.528" style="stroke: #000000; stroke-width: 0.8"/>
      </g>
     </g>
     <g id="text_13">
      <!-- 0.00 -->
      <g transform="translate(28.334375 178.327219) scale(0.1 -0.1)">
       <use xlink:href="#DejaVuSans-30"/>
       <use xlink:href="#DejaVuSans-2e" x="63.623047"/>
       <use xlink:href="#DejaVuSans-30" x="95.410156"/>
       <use xlink:href="#DejaVuSans-30" x="159.033203"/>
      </g>
     </g>
    </g>
    <g id="ytick_6">
     <g id="line2d_13">
      <g>
       <use xlink:href="#mb0629e28a7" x="57.6" y="144.288" style="stroke: #000000; stroke-width: 0.8"/>
      </g>
     </g>
     <g id="text_14">
      <!-- 0.25 -->
      <g transform="translate(28.334375 148.087219) scale(0.1 -0.1)">
       <use xlink:href="#DejaVuSans-30"/>
       <use xlink:href="#DejaVuSans-2e" x="63.623047"/>
       <use xlink:href="#DejaVuSans-32" x="95.410156"/>
       <use xlink:href="#DejaVuSans-35" x="159.033203"/>
      </g>
     </g>
    </g>
    <g id="ytick_7">
     <g id="line2d_14">
      <g>
       <use xlink:href="#mb0629e28a7" x="57.6" y="114.048" style="stroke: #000000; stroke-width: 0.8"/>
      </g>
     </g>
     <g id="text_15">
      <!-- 0.50 -->
      <g transform="translate(28.334375 117.847219) scale(0.1 -0.1)">
       <use xlink:href="#DejaVuSans-30"/>
       <use xlink:href="#DejaVuSans-2e" x="63.623047"/>
       <use xlink:href="#DejaVuSans-35" x="95.410156"/>
       <use xlink:href="#DejaVuSans-30" x="159.033203"/>
      </g>
     </g>
    </g>
    <g id="ytick_8">
     <g id="line2d_15">
      <g>
       <use xlink:href="#mb0629e28a7" x="57.6" y="83.808" style="stroke: #000000; stroke-width: 0.8"/>
      </g>
     </g>
     <g id="text_16">
      <!-- 0.75 -->
      <g transform="translate(28.334375 87.607219) scale(0.1 -0.1)">
       <use xlink:href="#DejaVuSans-30"/>
       <use xlink:href="#DejaVuSans-2e" x="63.623047"/>
       <use xlink:href="#DejaVuSans-37" x="95.410156"/>
       <use xlink:href="#DejaVuSans-35" x="159.033203"/>
      </g>
     </g>
    </g>
    <g id="ytick_9">
     <g id="line2d_16">
      <g>
       <use xlink:href="#mb0629e28a7" x="57.6" y="53.568" style="stroke: #000000; stroke-width: 0.8"/>
      </g>
     </g>
     <g id="text_17">
      <!-- 1.00 -->
      <g transform="translate(28.334375 57.367219) scale(0.1 -0.1)">
       <use xlink:href="#DejaVuSans-31"/>
       <use xlink:href="#DejaVuSans-2e" x="63.623047"/>
       <use xlink:href="#DejaVuSans-30" x="95.410156"/>
       <use xlink:href="#DejaVuSans-30" x="159.033203"/>
      </g>
     </g>
    </g>
    <g id="text_18">
     <!-- Normalized amplitude -->
     <g transform="translate(13.875 229.738937) rotate(-90) scale(0.1 -0.1)">
      <defs>
       <path id="DejaVuSans-4e" d="M 628 4666 
L 1478 4666 
L 3547 763 
L 3547 4666 
L 4159 4666 
L 4159 0 
L 3309 0 
L 1241 3903 
L 1241 0 
L 628 0 
L 628 4666 
z
" transform="scale(0.015625)"/>
       <path id="DejaVuSans-6f" d="M 1959 3097 
Q 1497 3097 1228 2736 
Q 959 2375 959 1747 
Q 959 1119 1226 758 
Q 1494 397 1959 397 
Q 2419 397 2687 759 
Q 2956 1122 2956 1747 
Q 2956 2369 2687 2733 
Q 2419 3097 1959 3097 
z
M 1959 3584 
Q 2709 3584 3137 3096 
Q 3566 2609 3566 1747 
Q 3566 888 3137 398 
Q 2709 -91 1959 -91 
Q 1206 -91 779 398 
Q 353 888 353 1747 
Q 353 2609 779 3096 
Q 1206 3584 1959 3584 
z
" transform="scale(0.015625)"/>
       <path id="DejaVuSans-72" d="M 2631 2963 
Q 2534 3019 2420 3045 
Q 2306 3072 2169 3072 
Q 1681 3072 1420 2755 
Q 1159 2438 1159 1844 
L 1159 0 
L 581 0 
L 581 3500 
L 1159 3500 
L 1159 2956 
Q 1341 3275 1631 3429 
Q 1922 3584 2338 3584 
Q 2397 3584 2469 3576 
Q 2541 3569 2628 3553 
L 2631 2963 
z
" transform="scale(0.015625)"/>
       <path id="DejaVuSans-61" d="M 2194 1759 
Q 1497 1759 1228 1600 
Q 959 1441 959 1056 
Q 959 750 1161 570 
Q 1363 391 1709 391 
Q 2188 391 2477 730 
Q 2766 1069 2766 1631 
L 2766 1759 
L 2194 1759 
z
M 3341 1997 
L 3341 0 
L 2766 0 
L 2766 531 
Q 2569 213 2275 61 
Q 1981 -91 1556 -91 
Q 1019 -91 701 211 
Q 384 513 384 1019 
Q 384 1609 779 1909 
Q 1175 2209 1959 2209 
L 2766 2209 
L 2766 2266 
Q 2766 2663 2505 2880 
Q 2244 3097 1772 3097 
Q 1472 3097 1187 3025 
Q 903 2953 641 2809 
L 641 3341 
Q 956 3463 1253 3523 
Q 1550 3584 1831 3584 
Q 2591 3584 2966 3190 
Q 3341 2797 3341 1997 
z
" transform="scale(0.015625)"/>
       <path id="DejaVuSans-6c" d="M 603 4863 
L 1178 4863 
L 1178 0 
L 603 0 
L 603 4863 
z
" transform="scale(0.015625)"/>
       <path id="DejaVuSans-7a" d="M 353 3500 
L 3084 3500 
L 3084 2975 
L 922 459 
L 3084 459 
L 3084 0 
L 275 0 
L 275 525 
L 2438 3041 
L 353 3041 
L 353 3500 
z
" transform="scale(0.015625)"/>
       <path id="DejaVuSans-64" d="M 2906 2969 
L 2906 4863 
L 3481 4863 
L 3481 0 
L 2906 0 
L 2906 525 
Q 2725 213 2448 61 
Q 2172 -91 1784 -91 
Q 1150 -91 751 415 
Q 353 922 353 1747 
Q 353 2572 751 3078 
Q 1150 3584 1784 3584 
Q 2172 3584 2448 3432 
Q 2725 3281 2906 2969 
z
M 947 1747 
Q 947 1113 1208 752 
Q 1469 391 1925 391 
Q 2381 391 2643 752 
Q 2906 1113 2906 1747 
Q 2906 2381 2643 2742 
Q 2381 3103 1925 3103 
Q 1469 3103 1208 2742 
Q 947 2381 947 1747 
z
" transform="scale(0.015625)"/>
       <path id="DejaVuSans-70" d="M 1159 525 
L 1159 -1331 
L 581 -1331 
L 581 3500 
L 1159 3500 
L 1159 2969 
Q 1341 3281 1617 3432 
Q 1894 3584 2278 3584 
Q 2916 3584 3314 3078 
Q 3713 2572 3713 1747 
Q 3713 922 3314 415 
Q 2916 -91 2278 -91 
Q 1894 -91 1617 61 
Q 1341 213 1159 525 
z
M 3116 1747 
Q 3116 2381 2855 2742 
Q 2594 3103 2138 3103 
Q 1681 3103 1420 2742 
Q 1159 2381 1159 1747 
Q 1159 1113 1420 752 
Q 1681 391 2138 391 
Q 2594 391 2855 752 
Q 3116 1113 3116 1747 
z
" transform="scale(0.015625)"/>
       <path id="DejaVuSans-74" d="M 1172 4494 
L 1172 3500 
L 2356 3500 
L 2356 3053 
L 1172 3053 
L 1172 1153 
Q 1172 725 1289 603 
Q 1406 481 1766 481 
L 2356 481 
L 2356 0 
L 1766 0 
Q 1100 0 847 248 
Q 594 497 594 1153 
L 594 3053 
L 172 3053 
L 172 3500 
L 594 3500 
L 594 4494 
L 1172 4494 
z
" transform="scale(0.015625)"/>
       <path id="DejaVuSans-75" d="M 544 1381 
L 544 3500 
L 1119 3500 
L 1119 1403 
Q 1119 906 1312 657 
Q 1506 409 1894 409 
Q 2359 409 2629 706 
Q 2900 1003 2900 1516 
L 2900 3500 
L 3475 3500 
L 3475 0 
L 2900 0 
L 2900 538 
Q 2691 219 2414 64 
Q 2138 -91 1772 -91 
Q 1169 -91 856 284 
Q 544 659 544 1381 
z
M 1991 3584 
L 1991 3584 
z
" transform="scale(0.015625)"/>
      </defs>
      <use xlink:href="#DejaVuSans-4e"/>
      <use xlink:href="#DejaVuSans-6f" x="74.804688"/>
      <use xlink:href="#DejaVuSans-72" x="135.986328"/>
      <use xlink:href="#DejaVuSans-6d" x="175.349609"/>
      <use xlink:href="#DejaVuSans-61" x="272.761719"/>
      <use xlink:href="#DejaVuSans-6c" x="334.041016"/>
      <use xlink:href="#DejaVuSans-69" x="361.824219"/>
      <use xlink:href="#DejaVuSans-7a" x="389.607422"/>
      <use xlink:href="#DejaVuSans-65" x="442.097656"/>
      <use xlink:href="#DejaVuSans-64" x="503.621094"/>
      <use xlink:href="#DejaVuSans-20" x="567.097656"/>
      <use xlink:href="#DejaVuSans-61" x="598.884766"/>
      <use xlink:href="#DejaVuSans-6d" x="660.164062"/>
      <use xlink:href="#DejaVuSans-70" x="757.576172"/>
      <use xlink:href="#DejaVuSans-6c" x="821.052734"/>
      <use xlink:href="#DejaVuSans-69" x="848.835938"/>
      <use xlink:href="#DejaVuSans-74" x="876.619141"/>
      <use xlink:href="#DejaVuSans-75" x="915.828125"/>
      <use xlink:href="#DejaVuSans-64" x="979.207031"/>
      <use xlink:href="#DejaVuSans-65" x="1042.683594"/>
     </g>
    </g>
   </g>
   <g id="line2d_17">
    <path d="M 73.832727 213.516894 
L 75.023326 165.37954 
L 76.971578 86.208182 
L 77.675113 66.442289 
L 78.162176 57.812027 
L 78.541003 54.309268 
L 78.757475 53.599244 
L 78.865712 53.594867 
L 79.028066 54.021241 
L 79.244538 55.382551 
L 79.569247 59.059081 
L 80.002192 66.795204 
L 80.597491 82.023034 
L 81.409263 109.305874 
L 82.870452 167.693477 
L 84.439877 227.40337 
L 85.414003 256.595208 
L 86.225775 274.71968 
L 86.92931 285.65873 
L 87.524609 291.591682 
L 88.011672 294.361336 
L 88.390499 295.344243 
L 88.606971 295.488 
L 88.823444 295.352592 
L 89.094034 294.822163 
L 89.472861 293.479276 
L 90.014042 290.5538 
L 90.771696 285.035569 
L 92.719948 268.362431 
L 93.910546 259.535533 
L 94.830554 254.259109 
L 95.696444 250.54641 
L 96.508216 247.992053 
L 97.374105 245.963133 
L 98.727058 243.441475 
L 100.134129 240.682097 
L 101.378846 237.717555 
L 108.035373 220.301078 
L 109.225972 216.224232 
L 110.849515 209.723432 
L 112.364822 203.934043 
L 113.176594 201.629658 
L 113.826011 200.417247 
L 114.313074 199.92452 
L 114.746019 199.79219 
L 115.124846 199.90415 
L 115.557791 200.272664 
L 116.098972 201.046949 
L 116.856625 202.573733 
L 118.480169 206.543864 
L 119.724885 209.256797 
L 120.753129 210.965447 
L 121.889609 212.400151 
L 123.89198 214.83663 
L 124.920224 216.530885 
L 126.16494 219.060991 
L 128.113192 223.035505 
L 128.924964 224.192156 
L 129.574381 224.758869 
L 130.115562 224.964209 
L 130.656743 224.932108 
L 131.252043 224.652515 
L 132.009696 224.016129 
L 134.228539 221.958543 
L 134.76972 221.81533 
L 135.256783 221.919743 
L 135.743846 222.280489 
L 136.285027 223.00835 
L 136.880326 224.217507 
L 137.583862 226.172994 
L 138.503869 229.44931 
L 140.127413 236.268818 
L 141.588602 242.000098 
L 142.454492 244.581292 
L 143.158027 246.028279 
L 143.699208 246.682975 
L 144.132153 246.896793 
L 144.51098 246.847512 
L 144.889806 246.571021 
L 145.322751 245.97082 
L 145.863932 244.787802 
L 146.459232 242.928212 
L 147.162767 239.986143 
L 148.028657 235.311751 
L 149.056901 228.440587 
L 150.626326 216.187547 
L 152.358106 203.12321 
L 153.223996 198.179919 
L 153.873413 195.616432 
L 154.360476 194.442744 
L 154.739303 193.998127 
L 155.064011 193.945458 
L 155.334602 194.129321 
L 155.713429 194.72165 
L 156.200492 196.017403 
L 156.795791 198.310151 
L 157.661681 202.680788 
L 160.746413 219.315106 
L 161.504066 221.929252 
L 162.153484 223.490092 
L 162.748783 224.411732 
L 163.344082 224.93006 
L 163.939381 225.159053 
L 165.99587 225.66484 
L 166.537051 226.204955 
L 167.078232 227.069884 
L 167.673531 228.447919 
L 168.377066 230.675828 
L 169.242956 234.241678 
L 170.487673 240.48373 
L 172.490043 250.520796 
L 173.301815 253.506512 
L 173.951232 255.105198 
L 174.438295 255.762953 
L 174.817122 255.928302 
L 175.14183 255.820469 
L 175.520657 255.399739 
L 175.953602 254.5317 
L 176.494783 252.882264 
L 177.1442 250.130666 
L 177.955972 245.666277 
L 179.092452 238.028174 
L 182.177185 216.532459 
L 183.097193 211.952965 
L 183.854846 209.224542 
L 184.504263 207.626642 
L 185.099563 206.683462 
L 185.694862 206.117993 
L 186.506634 205.675109 
L 187.372523 205.1628 
L 187.913704 204.590935 
L 188.454886 203.691437 
L 189.050185 202.227093 
L 189.699602 199.997975 
L 190.511374 196.306557 
L 191.647854 189.894956 
L 193.433752 179.795769 
L 194.191405 176.765971 
L 194.732586 175.410375 
L 195.111413 174.936028 
L 195.382004 174.857651 
L 195.652594 175.007288 
L 195.977303 175.498586 
L 196.35613 176.513709 
L 196.843193 178.531156 
L 197.438492 182.084993 
L 198.142027 187.775579 
L 199.007917 196.783576 
L 200.144397 211.206967 
L 203.662075 257.866294 
L 204.582082 266.367298 
L 205.339736 271.37713 
L 205.935035 273.969481 
L 206.422098 275.206898 
L 206.800925 275.63203 
L 207.071516 275.657204 
L 207.342106 275.458576 
L 207.666815 274.936935 
L 208.09976 273.788376 
L 208.640941 271.687122 
L 209.344476 267.996166 
L 210.264484 261.872198 
L 211.617437 251.147675 
L 215.24335 221.60274 
L 216.433949 213.946843 
L 217.408075 209.001976 
L 218.219846 205.910545 
L 218.923382 204.024057 
L 219.518681 203.000228 
L 220.005744 202.53878 
L 220.438689 202.397353 
L 220.871634 202.491681 
L 221.358697 202.855257 
L 221.953996 203.625827 
L 222.71165 205.034138 
L 223.739894 207.496636 
L 225.525791 212.496759 
L 228.285815 220.10458 
L 230.396421 225.235473 
L 232.615264 230.056469 
L 234.130571 232.875722 
L 235.158815 234.361168 
L 235.916469 235.105886 
L 236.511768 235.415996 
L 237.052949 235.445926 
L 237.540012 235.240032 
L 238.027075 234.792369 
L 238.568256 233.99257 
L 239.217673 232.59745 
L 239.975327 230.378038 
L 240.895335 226.924883 
L 242.356524 220.400097 
L 243.925949 213.671787 
L 244.791839 210.838287 
L 245.495374 209.209188 
L 246.090673 208.335522 
L 246.577736 207.955416 
L 247.064799 207.852954 
L 247.551862 207.995799 
L 248.093043 208.394681 
L 248.850697 209.270001 
L 250.041295 211.055471 
L 254.154272 217.819608 
L 255.128398 220.033748 
L 256.048406 222.701777 
L 257.07665 226.436854 
L 258.429603 232.334621 
L 260.269618 240.290023 
L 261.027272 242.649789 
L 261.568453 243.730526 
L 262.001398 244.151511 
L 262.326106 244.179726 
L 262.650815 243.94588 
L 263.029642 243.329442 
L 263.462587 242.164225 
L 264.003768 240.026771 
L 264.707303 236.202377 
L 265.627311 229.788841 
L 268.387335 209.502991 
L 269.09087 206.285059 
L 269.632051 204.734855 
L 270.064996 204.098421 
L 270.389705 203.967256 
L 270.660296 204.07516 
L 270.985004 204.449995 
L 271.417949 205.328827 
L 272.013248 207.133946 
L 272.879138 210.626259 
L 275.585044 222.185332 
L 276.450933 224.678018 
L 277.154469 226.099672 
L 277.803886 226.975948 
L 278.453303 227.511959 
L 279.210957 227.838411 
L 282.079217 228.743147 
L 283.053343 229.495921 
L 285.218067 231.282397 
L 285.813366 231.457403 
L 286.300429 231.394225 
L 286.787492 231.107811 
L 287.328674 230.49704 
L 287.923973 229.449379 
L 288.627508 227.712386 
L 289.493398 224.935834 
L 291.171059 218.571355 
L 292.30754 214.699921 
L 293.065193 212.825868 
L 293.660493 211.893239 
L 294.147556 211.519255 
L 294.526382 211.474029 
L 294.905209 211.637786 
L 295.338154 212.065354 
L 295.879335 212.921031 
L 296.636989 214.594727 
L 297.935823 218.153731 
L 299.397012 221.982553 
L 300.262902 223.689564 
L 301.020556 224.722716 
L 301.669973 225.267362 
L 302.31939 225.534997 
L 303.022926 225.582517 
L 304.05117 225.396215 
L 305.458241 225.169573 
L 306.270012 225.284659 
L 307.027666 225.62991 
L 307.893556 226.299661 
L 309.19239 227.652125 
L 310.491225 228.904811 
L 311.19476 229.294361 
L 311.735941 229.369952 
L 312.277123 229.210032 
L 312.818304 228.79046 
L 313.413603 228.018396 
L 314.117138 226.703616 
L 315.037146 224.43817 
L 318.284233 215.868513 
L 318.93365 214.937388 
L 319.474831 214.507573 
L 319.961894 214.400778 
L 320.394839 214.525694 
L 320.881902 214.900979 
L 321.477201 215.665109 
L 322.234855 217.040802 
L 323.317217 219.538264 
L 326.618422 227.478066 
L 327.700784 229.398872 
L 328.67491 230.703128 
L 329.5408 231.506918 
L 330.298453 231.924749 
L 331.001989 232.063379 
L 331.651406 231.967798 
L 332.300823 231.647556 
L 333.004359 231.037632 
L 333.762012 230.069393 
L 334.627902 228.574393 
L 335.656146 226.307386 
L 337.009099 222.710548 
L 339.660887 215.523047 
L 340.526776 213.857338 
L 341.176194 213.037215 
L 341.717375 212.685471 
L 342.15032 212.637213 
L 342.583264 212.800239 
L 343.070327 213.230805 
L 343.665627 214.085995 
L 344.42328 215.606892 
L 345.722115 218.826751 
L 346.966831 221.705754 
L 347.724485 222.924094 
L 348.265666 223.430241 
L 348.752729 223.594609 
L 349.185674 223.504292 
L 349.672737 223.147714 
L 350.268036 222.388371 
L 351.079808 220.936784 
L 352.865705 217.604208 
L 353.461005 216.980489 
L 353.89395 216.812594 
L 354.272776 216.896304 
L 354.651603 217.213055 
L 355.084548 217.871346 
L 355.625729 219.135977 
L 356.275146 221.252791 
L 357.195154 225.127065 
L 359.792824 236.677249 
L 360.442241 238.452386 
L 360.929304 239.246753 
L 361.308131 239.511323 
L 361.632839 239.480763 
L 361.957548 239.209159 
L 362.336375 238.589797 
L 362.823438 237.331568 
L 363.418737 235.146002 
L 364.230509 231.21739 
L 365.475225 223.894701 
L 367.423477 212.541454 
L 368.397603 208.169565 
L 369.155257 205.674779 
L 369.804674 204.227347 
L 370.345855 203.520318 
L 370.7788 203.279973 
L 371.157627 203.302686 
L 371.536454 203.537497 
L 372.023517 204.140251 
L 372.564698 205.187152 
L 373.268233 207.09524 
L 374.134123 210.185209 
L 375.216485 214.941708 
L 377.110619 224.4799 
L 379.004753 233.619425 
L 380.141233 238.087389 
L 381.061241 240.849397 
L 381.764777 242.333766 
L 382.360076 243.10781 
L 382.847139 243.3839 
L 383.225966 243.363677 
L 383.604792 243.130186 
L 384.037737 242.595805 
L 384.578918 241.521616 
L 385.228336 239.643627 
L 385.985989 236.690144 
L 386.960115 231.894347 
L 390.207202 214.974927 
L 390.910737 212.823418 
L 391.451918 211.804552 
L 391.884863 211.398794 
L 392.26369 211.334076 
L 392.642517 211.524337 
L 393.075462 212.024888 
L 393.616643 213.010818 
L 394.428414 215.024209 
L 396.701375 220.964204 
L 397.404911 222.082836 
L 398.00021 222.639599 
L 398.487273 222.861704 
L 398.487273 222.861704 
" clip-path="url(#p5a7c502677)" style="fill: none; stroke: #1f77b4; stroke-width: 1.5; stroke-linecap: square"/>
   </g>
   <g id="patch_3">
    <path d="M 57.6 307.584 
L 57.6 41.472 
" style="fill: none; stroke: #000000; stroke-width: 0.8; stroke-linejoin: miter; stroke-linecap: square"/>
   </g>
   <g id="patch_4">
    <path d="M 414.72 307.584 
L 414.72 41.472 
" style="fill: none; stroke: #000000; stroke-width: 0.8; stroke-linejoin: miter; stroke-linecap: square"/>
   </g>
   <g id="patch_5">
    <path d="M 57.6 307.584 
L 414.72 307.584 
" style="fill: none; stroke: #000000; stroke-width: 0.8; stroke-linejoin: miter; stroke-linecap: square"/>
   </g>
   <g id="patch_6">
    <path d="M 57.6 41.472 
L 414.72 41.472 
" style="fill: none; stroke: #000000; stroke-width: 0.8; stroke-linejoin: miter; stroke-linecap: square"/>
   </g>
  </g>
 </g>
 <defs>
  <clipPath id="p5a7c502677">
   <rect x="57.6" y="41.472" width="357.12" height="266.112"/>
  </clipPath>
 </defs>
</svg>
