<?xml version="1.0" encoding="utf-8" standalone="no"?>
<!DOCTYPE svg PUBLIC "-//W3C//DTD SVG 1.1//EN"
  "http://www.w3.org/Graphics/SVG/1.1/DTD/svg11.dtd">
<svg xmlns:xlink="http://www.w3.org/1999/xlink" width="460.8pt" height="345.6pt" viewBox="0 0 460.8 345.6" xmlns="http://www.w3.org/2000/svg" version="1.1">
 <metadata>
  <rdf:RDF xmlns:dc="http://purl.org/dc/elements/1.1/" xmlns:cc="http://creativecommons.org/ns#" xmlns:rdf="http://www.w3.org/1999/02/22-rdf-syntax-ns#">
   <cc:Work>
    <dc:type rdf:resource="http://purl.org/dc/dcmitype/StillImage"/>
    <dc:date>2024-06-18T12:22:19.897828</dc:date>
    <dc:format>image/svg+xml</dc:format>
    <dc:creator>
     <cc:Agent>
      <dc:title>Matplotlib v3.8.2, https://matplotlib.org/</dc:title>
     </cc:Agent>
    </dc:creator>
   </cc:Work>
  </rdf:RDF>
 </metadata>
 <defs>
  <style type="text/css">*{stroke-linejoin: round; stroke-linecap: butt}</style>
 </defs>
 <g id="figure_1">
  <g id="patch_1">
   <path d="M 0 345.6 
L 460.8 345.6 
L 460.8 0 
L 0 0 
z
" style="fill: #ffffff"/>
  </g>
  <g id="axes_1">
   <g id="patch_2">
    <path d="M 57.6 307.584 
L 414.72 307.584 
L 414.72 41.472 
L 57.6 41.472 
z
" style="fill: #ffffff"/>
   </g>
   <g id="matplotlib.axis_1">
    <g id="xtick_1">
     <g id="line2d_1">
      <defs>
       <path id="m2fec7a0f9e" d="M 0 0 
L 0 3.5 
" style="stroke: #000000; stroke-width: 0.8"/>
      </defs>
      <g>
       <use xlink:href="#m2fec7a0f9e" x="73.832727" y="307.584" style="stroke: #000000; stroke-width: 0.8"/>
      </g>
     </g>
     <g id="text_1">
      <!-- 0 -->
      <g transform="translate(70.651477 322.182437) scale(0.1 -0.1)">
       <defs>
        <path id="DejaVuSans-30" d="M 2034 4250 
Q 1547 4250 1301 3770 
Q 1056 3291 1056 2328 
Q 1056 1369 1301 889 
Q 1547 409 2034 409 
Q 2525 409 2770 889 
Q 3016 1369 3016 2328 
Q 3016 3291 2770 3770 
Q 2525 4250 2034 4250 
z
M 2034 4750 
Q 2819 4750 3233 4129 
Q 3647 3509 3647 2328 
Q 3647 1150 3233 529 
Q 2819 -91 2034 -91 
Q 1250 -91 836 529 
Q 422 1150 422 2328 
Q 422 3509 836 4129 
Q 1250 4750 2034 4750 
z
" transform="scale(0.015625)"/>
       </defs>
       <use xlink:href="#DejaVuSans-30"/>
      </g>
     </g>
    </g>
    <g id="xtick_2">
     <g id="line2d_2">
      <g>
       <use xlink:href="#m2fec7a0f9e" x="127.941818" y="307.584" style="stroke: #000000; stroke-width: 0.8"/>
      </g>
     </g>
     <g id="text_2">
      <!-- 10 -->
      <g transform="translate(121.579318 322.182437) scale(0.1 -0.1)">
       <defs>
        <path id="DejaVuSans-31" d="M 794 531 
L 1825 531 
L 1825 4091 
L 703 3866 
L 703 4441 
L 1819 4666 
L 2450 4666 
L 2450 531 
L 3481 531 
L 3481 0 
L 794 0 
L 794 531 
z
" transform="scale(0.015625)"/>
       </defs>
       <use xlink:href="#DejaVuSans-31"/>
       <use xlink:href="#DejaVuSans-30" x="63.623047"/>
      </g>
     </g>
    </g>
    <g id="xtick_3">
     <g id="line2d_3">
      <g>
       <use xlink:href="#m2fec7a0f9e" x="182.050909" y="307.584" style="stroke: #000000; stroke-width: 0.8"/>
      </g>
     </g>
     <g id="text_3">
      <!-- 20 -->
      <g transform="translate(175.688409 322.182437) scale(0.1 -0.1)">
       <defs>
        <path id="DejaVuSans-32" d="M 1228 531 
L 3431 531 
L 3431 0 
L 469 0 
L 469 531 
Q 828 903 1448 1529 
Q 2069 2156 2228 2338 
Q 2531 2678 2651 2914 
Q 2772 3150 2772 3378 
Q 2772 3750 2511 3984 
Q 2250 4219 1831 4219 
Q 1534 4219 1204 4116 
Q 875 4013 500 3803 
L 500 4441 
Q 881 4594 1212 4672 
Q 1544 4750 1819 4750 
Q 2544 4750 2975 4387 
Q 3406 4025 3406 3419 
Q 3406 3131 3298 2873 
Q 3191 2616 2906 2266 
Q 2828 2175 2409 1742 
Q 1991 1309 1228 531 
z
" transform="scale(0.015625)"/>
       </defs>
       <use xlink:href="#DejaVuSans-32"/>
       <use xlink:href="#DejaVuSans-30" x="63.623047"/>
      </g>
     </g>
    </g>
    <g id="xtick_4">
     <g id="line2d_4">
      <g>
       <use xlink:href="#m2fec7a0f9e" x="236.16" y="307.584" style="stroke: #000000; stroke-width: 0.8"/>
      </g>
     </g>
     <g id="text_4">
      <!-- 30 -->
      <g transform="translate(229.7975 322.182437) scale(0.1 -0.1)">
       <defs>
        <path id="DejaVuSans-33" d="M 2597 2516 
Q 3050 2419 3304 2112 
Q 3559 1806 3559 1356 
Q 3559 666 3084 287 
Q 2609 -91 1734 -91 
Q 1441 -91 1130 -33 
Q 819 25 488 141 
L 488 750 
Q 750 597 1062 519 
Q 1375 441 1716 441 
Q 2309 441 2620 675 
Q 2931 909 2931 1356 
Q 2931 1769 2642 2001 
Q 2353 2234 1838 2234 
L 1294 2234 
L 1294 2753 
L 1863 2753 
Q 2328 2753 2575 2939 
Q 2822 3125 2822 3475 
Q 2822 3834 2567 4026 
Q 2313 4219 1838 4219 
Q 1578 4219 1281 4162 
Q 984 4106 628 3988 
L 628 4550 
Q 988 4650 1302 4700 
Q 1616 4750 1894 4750 
Q 2613 4750 3031 4423 
Q 3450 4097 3450 3541 
Q 3450 3153 3228 2886 
Q 3006 2619 2597 2516 
z
" transform="scale(0.015625)"/>
       </defs>
       <use xlink:href="#DejaVuSans-33"/>
       <use xlink:href="#DejaVuSans-30" x="63.623047"/>
      </g>
     </g>
    </g>
    <g id="xtick_5">
     <g id="line2d_5">
      <g>
       <use xlink:href="#m2fec7a0f9e" x="290.269091" y="307.584" style="stroke: #000000; stroke-width: 0.8"/>
      </g>
     </g>
     <g id="text_5">
      <!-- 40 -->
      <g transform="translate(283.906591 322.182437) scale(0.1 -0.1)">
       <defs>
        <path id="DejaVuSans-34" d="M 2419 4116 
L 825 1625 
L 2419 1625 
L 2419 4116 
z
M 2253 4666 
L 3047 4666 
L 3047 1625 
L 3713 1625 
L 3713 1100 
L 3047 1100 
L 3047 0 
L 2419 0 
L 2419 1100 
L 313 1100 
L 313 1709 
L 2253 4666 
z
" transform="scale(0.015625)"/>
       </defs>
       <use xlink:href="#DejaVuSans-34"/>
       <use xlink:href="#DejaVuSans-30" x="63.623047"/>
      </g>
     </g>
    </g>
    <g id="xtick_6">
     <g id="line2d_6">
      <g>
       <use xlink:href="#m2fec7a0f9e" x="344.378182" y="307.584" style="stroke: #000000; stroke-width: 0.8"/>
      </g>
     </g>
     <g id="text_6">
      <!-- 50 -->
      <g transform="translate(338.015682 322.182437) scale(0.1 -0.1)">
       <defs>
        <path id="DejaVuSans-35" d="M 691 4666 
L 3169 4666 
L 3169 4134 
L 1269 4134 
L 1269 2991 
Q 1406 3038 1543 3061 
Q 1681 3084 1819 3084 
Q 2600 3084 3056 2656 
Q 3513 2228 3513 1497 
Q 3513 744 3044 326 
Q 2575 -91 1722 -91 
Q 1428 -91 1123 -41 
Q 819 9 494 109 
L 494 744 
Q 775 591 1075 516 
Q 1375 441 1709 441 
Q 2250 441 2565 725 
Q 2881 1009 2881 1497 
Q 2881 1984 2565 2268 
Q 2250 2553 1709 2553 
Q 1456 2553 1204 2497 
Q 953 2441 691 2322 
L 691 4666 
z
" transform="scale(0.015625)"/>
       </defs>
       <use xlink:href="#DejaVuSans-35"/>
       <use xlink:href="#DejaVuSans-30" x="63.623047"/>
      </g>
     </g>
    </g>
    <g id="xtick_7">
     <g id="line2d_7">
      <g>
       <use xlink:href="#m2fec7a0f9e" x="398.487273" y="307.584" style="stroke: #000000; stroke-width: 0.8"/>
      </g>
     </g>
     <g id="text_7">
      <!-- 60 -->
      <g transform="translate(392.124773 322.182437) scale(0.1 -0.1)">
       <defs>
        <path id="DejaVuSans-36" d="M 2113 2584 
Q 1688 2584 1439 2293 
Q 1191 2003 1191 1497 
Q 1191 994 1439 701 
Q 1688 409 2113 409 
Q 2538 409 2786 701 
Q 3034 994 3034 1497 
Q 3034 2003 2786 2293 
Q 2538 2584 2113 2584 
z
M 3366 4563 
L 3366 3988 
Q 3128 4100 2886 4159 
Q 2644 4219 2406 4219 
Q 1781 4219 1451 3797 
Q 1122 3375 1075 2522 
Q 1259 2794 1537 2939 
Q 1816 3084 2150 3084 
Q 2853 3084 3261 2657 
Q 3669 2231 3669 1497 
Q 3669 778 3244 343 
Q 2819 -91 2113 -91 
Q 1303 -91 875 529 
Q 447 1150 447 2328 
Q 447 3434 972 4092 
Q 1497 4750 2381 4750 
Q 2619 4750 2861 4703 
Q 3103 4656 3366 4563 
z
" transform="scale(0.015625)"/>
       </defs>
       <use xlink:href="#DejaVuSans-36"/>
       <use xlink:href="#DejaVuSans-30" x="63.623047"/>
      </g>
     </g>
    </g>
    <g id="text_8">
     <!-- Time [$s$] -->
     <g transform="translate(215.66 335.860562) scale(0.1 -0.1)">
      <defs>
       <path id="DejaVuSans-54" d="M -19 4666 
L 3928 4666 
L 3928 4134 
L 2272 4134 
L 2272 0 
L 1638 0 
L 1638 4134 
L -19 4134 
L -19 4666 
z
" transform="scale(0.015625)"/>
       <path id="DejaVuSans-69" d="M 603 3500 
L 1178 3500 
L 1178 0 
L 603 0 
L 603 3500 
z
M 603 4863 
L 1178 4863 
L 1178 4134 
L 603 4134 
L 603 4863 
z
" transform="scale(0.015625)"/>
       <path id="DejaVuSans-6d" d="M 3328 2828 
Q 3544 3216 3844 3400 
Q 4144 3584 4550 3584 
Q 5097 3584 5394 3201 
Q 5691 2819 5691 2113 
L 5691 0 
L 5113 0 
L 5113 2094 
Q 5113 2597 4934 2840 
Q 4756 3084 4391 3084 
Q 3944 3084 3684 2787 
Q 3425 2491 3425 1978 
L 3425 0 
L 2847 0 
L 2847 2094 
Q 2847 2600 2669 2842 
Q 2491 3084 2119 3084 
Q 1678 3084 1418 2786 
Q 1159 2488 1159 1978 
L 1159 0 
L 581 0 
L 581 3500 
L 1159 3500 
L 1159 2956 
Q 1356 3278 1631 3431 
Q 1906 3584 2284 3584 
Q 2666 3584 2933 3390 
Q 3200 3197 3328 2828 
z
" transform="scale(0.015625)"/>
       <path id="DejaVuSans-65" d="M 3597 1894 
L 3597 1613 
L 953 1613 
Q 991 1019 1311 708 
Q 1631 397 2203 397 
Q 2534 397 2845 478 
Q 3156 559 3463 722 
L 3463 178 
Q 3153 47 2828 -22 
Q 2503 -91 2169 -91 
Q 1331 -91 842 396 
Q 353 884 353 1716 
Q 353 2575 817 3079 
Q 1281 3584 2069 3584 
Q 2775 3584 3186 3129 
Q 3597 2675 3597 1894 
z
M 3022 2063 
Q 3016 2534 2758 2815 
Q 2500 3097 2075 3097 
Q 1594 3097 1305 2825 
Q 1016 2553 972 2059 
L 3022 2063 
z
" transform="scale(0.015625)"/>
       <path id="DejaVuSans-20" transform="scale(0.015625)"/>
       <path id="DejaVuSans-5b" d="M 550 4863 
L 1875 4863 
L 1875 4416 
L 1125 4416 
L 1125 -397 
L 1875 -397 
L 1875 -844 
L 550 -844 
L 550 4863 
z
" transform="scale(0.015625)"/>
       <path id="DejaVuSans-Oblique-73" d="M 3200 3397 
L 3091 2853 
Q 2863 2978 2609 3040 
Q 2356 3103 2088 3103 
Q 1634 3103 1373 2948 
Q 1113 2794 1113 2528 
Q 1113 2219 1719 2053 
Q 1766 2041 1788 2034 
L 1972 1978 
Q 2547 1819 2739 1644 
Q 2931 1469 2931 1166 
Q 2931 609 2489 259 
Q 2047 -91 1331 -91 
Q 1053 -91 747 -37 
Q 441 16 72 128 
L 184 722 
Q 500 559 806 475 
Q 1113 391 1394 391 
Q 1816 391 2080 572 
Q 2344 753 2344 1031 
Q 2344 1331 1650 1516 
L 1591 1531 
L 1394 1581 
Q 956 1697 753 1886 
Q 550 2075 550 2369 
Q 550 2928 970 3256 
Q 1391 3584 2113 3584 
Q 2397 3584 2667 3537 
Q 2938 3491 3200 3397 
z
" transform="scale(0.015625)"/>
       <path id="DejaVuSans-5d" d="M 1947 4863 
L 1947 -844 
L 622 -844 
L 622 -397 
L 1369 -397 
L 1369 4416 
L 622 4416 
L 622 4863 
L 1947 4863 
z
" transform="scale(0.015625)"/>
      </defs>
      <use xlink:href="#DejaVuSans-54" transform="translate(0 0.015625)"/>
      <use xlink:href="#DejaVuSans-69" transform="translate(61.083984 0.015625)"/>
      <use xlink:href="#DejaVuSans-6d" transform="translate(88.867188 0.015625)"/>
      <use xlink:href="#DejaVuSans-65" transform="translate(186.279297 0.015625)"/>
      <use xlink:href="#DejaVuSans-20" transform="translate(247.802734 0.015625)"/>
      <use xlink:href="#DejaVuSans-5b" transform="translate(279.589844 0.015625)"/>
      <use xlink:href="#DejaVuSans-Oblique-73" transform="translate(318.603516 0.015625)"/>
      <use xlink:href="#DejaVuSans-5d" transform="translate(370.703125 0.015625)"/>
     </g>
    </g>
   </g>
   <g id="matplotlib.axis_2">
    <g id="ytick_1">
     <g id="line2d_8">
      <defs>
       <path id="m0cc9a622f0" d="M 0 0 
L -3.5 0 
" style="stroke: #000000; stroke-width: 0.8"/>
      </defs>
      <g>
       <use xlink:href="#m0cc9a622f0" x="57.6" y="295.488" style="stroke: #000000; stroke-width: 0.8"/>
      </g>
     </g>
     <g id="text_9">
      <!-- −1.00 -->
      <g transform="translate(19.954687 299.287219) scale(0.1 -0.1)">
       <defs>
        <path id="DejaVuSans-2212" d="M 678 2272 
L 4684 2272 
L 4684 1741 
L 678 1741 
L 678 2272 
z
" transform="scale(0.015625)"/>
        <path id="DejaVuSans-2e" d="M 684 794 
L 1344 794 
L 1344 0 
L 684 0 
L 684 794 
z
" transform="scale(0.015625)"/>
       </defs>
       <use xlink:href="#DejaVuSans-2212"/>
       <use xlink:href="#DejaVuSans-31" x="83.789062"/>
       <use xlink:href="#DejaVuSans-2e" x="147.412109"/>
       <use xlink:href="#DejaVuSans-30" x="179.199219"/>
       <use xlink:href="#DejaVuSans-30" x="242.822266"/>
      </g>
     </g>
    </g>
    <g id="ytick_2">
     <g id="line2d_9">
      <g>
       <use xlink:href="#m0cc9a622f0" x="57.6" y="265.248" style="stroke: #000000; stroke-width: 0.8"/>
      </g>
     </g>
     <g id="text_10">
      <!-- −0.75 -->
      <g transform="translate(19.954687 269.047219) scale(0.1 -0.1)">
       <defs>
        <path id="DejaVuSans-37" d="M 525 4666 
L 3525 4666 
L 3525 4397 
L 1831 0 
L 1172 0 
L 2766 4134 
L 525 4134 
L 525 4666 
z
" transform="scale(0.015625)"/>
       </defs>
       <use xlink:href="#DejaVuSans-2212"/>
       <use xlink:href="#DejaVuSans-30" x="83.789062"/>
       <use xlink:href="#DejaVuSans-2e" x="147.412109"/>
       <use xlink:href="#DejaVuSans-37" x="179.199219"/>
       <use xlink:href="#DejaVuSans-35" x="242.822266"/>
      </g>
     </g>
    </g>
    <g id="ytick_3">
     <g id="line2d_10">
      <g>
       <use xlink:href="#m0cc9a622f0" x="57.6" y="235.008" style="stroke: #000000; stroke-width: 0.8"/>
      </g>
     </g>
     <g id="text_11">
      <!-- −0.50 -->
      <g transform="translate(19.954687 238.807219) scale(0.1 -0.1)">
       <use xlink:href="#DejaVuSans-2212"/>
       <use xlink:href="#DejaVuSans-30" x="83.789062"/>
       <use xlink:href="#DejaVuSans-2e" x="147.412109"/>
       <use xlink:href="#DejaVuSans-35" x="179.199219"/>
       <use xlink:href="#DejaVuSans-30" x="242.822266"/>
      </g>
     </g>
    </g>
    <g id="ytick_4">
     <g id="line2d_11">
      <g>
       <use xlink:href="#m0cc9a622f0" x="57.6" y="204.768" style="stroke: #000000; stroke-width: 0.8"/>
      </g>
     </g>
     <g id="text_12">
      <!-- −0.25 -->
      <g transform="translate(19.954687 208.567219) scale(0.1 -0.1)">
       <use xlink:href="#DejaVuSans-2212"/>
       <use xlink:href="#DejaVuSans-30" x="83.789062"/>
       <use xlink:href="#DejaVuSans-2e" x="147.412109"/>
       <use xlink:href="#DejaVuSans-32" x="179.199219"/>
       <use xlink:href="#DejaVuSans-35" x="242.822266"/>
      </g>
     </g>
    </g>
    <g id="ytick_5">
     <g id="line2d_12">
      <g>
       <use xlink:href="#m0cc9a622f0" x="57.6" y="174.528" style="stroke: #000000; stroke-width: 0.8"/>
      </g>
     </g>
     <g id="text_13">
      <!-- 0.00 -->
      <g transform="translate(28.334375 178.327219) scale(0.1 -0.1)">
       <use xlink:href="#DejaVuSans-30"/>
       <use xlink:href="#DejaVuSans-2e" x="63.623047"/>
       <use xlink:href="#DejaVuSans-30" x="95.410156"/>
       <use xlink:href="#DejaVuSans-30" x="159.033203"/>
      </g>
     </g>
    </g>
    <g id="ytick_6">
     <g id="line2d_13">
      <g>
       <use xlink:href="#m0cc9a622f0" x="57.6" y="144.288" style="stroke: #000000; stroke-width: 0.8"/>
      </g>
     </g>
     <g id="text_14">
      <!-- 0.25 -->
      <g transform="translate(28.334375 148.087219) scale(0.1 -0.1)">
       <use xlink:href="#DejaVuSans-30"/>
       <use xlink:href="#DejaVuSans-2e" x="63.623047"/>
       <use xlink:href="#DejaVuSans-32" x="95.410156"/>
       <use xlink:href="#DejaVuSans-35" x="159.033203"/>
      </g>
     </g>
    </g>
    <g id="ytick_7">
     <g id="line2d_14">
      <g>
       <use xlink:href="#m0cc9a622f0" x="57.6" y="114.048" style="stroke: #000000; stroke-width: 0.8"/>
      </g>
     </g>
     <g id="text_15">
      <!-- 0.50 -->
      <g transform="translate(28.334375 117.847219) scale(0.1 -0.1)">
       <use xlink:href="#DejaVuSans-30"/>
       <use xlink:href="#DejaVuSans-2e" x="63.623047"/>
       <use xlink:href="#DejaVuSans-35" x="95.410156"/>
       <use xlink:href="#DejaVuSans-30" x="159.033203"/>
      </g>
     </g>
    </g>
    <g id="ytick_8">
     <g id="line2d_15">
      <g>
       <use xlink:href="#m0cc9a622f0" x="57.6" y="83.808" style="stroke: #000000; stroke-width: 0.8"/>
      </g>
     </g>
     <g id="text_16">
      <!-- 0.75 -->
      <g transform="translate(28.334375 87.607219) scale(0.1 -0.1)">
       <use xlink:href="#DejaVuSans-30"/>
       <use xlink:href="#DejaVuSans-2e" x="63.623047"/>
       <use xlink:href="#DejaVuSans-37" x="95.410156"/>
       <use xlink:href="#DejaVuSans-35" x="159.033203"/>
      </g>
     </g>
    </g>
    <g id="ytick_9">
     <g id="line2d_16">
      <g>
       <use xlink:href="#m0cc9a622f0" x="57.6" y="53.568" style="stroke: #000000; stroke-width: 0.8"/>
      </g>
     </g>
     <g id="text_17">
      <!-- 1.00 -->
      <g transform="translate(28.334375 57.367219) scale(0.1 -0.1)">
       <use xlink:href="#DejaVuSans-31"/>
       <use xlink:href="#DejaVuSans-2e" x="63.623047"/>
       <use xlink:href="#DejaVuSans-30" x="95.410156"/>
       <use xlink:href="#DejaVuSans-30" x="159.033203"/>
      </g>
     </g>
    </g>
    <g id="text_18">
     <!-- Normalized amplitude -->
     <g transform="translate(13.875 229.738937) rotate(-90) scale(0.1 -0.1)">
      <defs>
       <path id="DejaVuSans-4e" d="M 628 4666 
L 1478 4666 
L 3547 763 
L 3547 4666 
L 4159 4666 
L 4159 0 
L 3309 0 
L 1241 3903 
L 1241 0 
L 628 0 
L 628 4666 
z
" transform="scale(0.015625)"/>
       <path id="DejaVuSans-6f" d="M 1959 3097 
Q 1497 3097 1228 2736 
Q 959 2375 959 1747 
Q 959 1119 1226 758 
Q 1494 397 1959 397 
Q 2419 397 2687 759 
Q 2956 1122 2956 1747 
Q 2956 2369 2687 2733 
Q 2419 3097 1959 3097 
z
M 1959 3584 
Q 2709 3584 3137 3096 
Q 3566 2609 3566 1747 
Q 3566 888 3137 398 
Q 2709 -91 1959 -91 
Q 1206 -91 779 398 
Q 353 888 353 1747 
Q 353 2609 779 3096 
Q 1206 3584 1959 3584 
z
" transform="scale(0.015625)"/>
       <path id="DejaVuSans-72" d="M 2631 2963 
Q 2534 3019 2420 3045 
Q 2306 3072 2169 3072 
Q 1681 3072 1420 2755 
Q 1159 2438 1159 1844 
L 1159 0 
L 581 0 
L 581 3500 
L 1159 3500 
L 1159 2956 
Q 1341 3275 1631 3429 
Q 1922 3584 2338 3584 
Q 2397 3584 2469 3576 
Q 2541 3569 2628 3553 
L 2631 2963 
z
" transform="scale(0.015625)"/>
       <path id="DejaVuSans-61" d="M 2194 1759 
Q 1497 1759 1228 1600 
Q 959 1441 959 1056 
Q 959 750 1161 570 
Q 1363 391 1709 391 
Q 2188 391 2477 730 
Q 2766 1069 2766 1631 
L 2766 1759 
L 2194 1759 
z
M 3341 1997 
L 3341 0 
L 2766 0 
L 2766 531 
Q 2569 213 2275 61 
Q 1981 -91 1556 -91 
Q 1019 -91 701 211 
Q 384 513 384 1019 
Q 384 1609 779 1909 
Q 1175 2209 1959 2209 
L 2766 2209 
L 2766 2266 
Q 2766 2663 2505 2880 
Q 2244 3097 1772 3097 
Q 1472 3097 1187 3025 
Q 903 2953 641 2809 
L 641 3341 
Q 956 3463 1253 3523 
Q 1550 3584 1831 3584 
Q 2591 3584 2966 3190 
Q 3341 2797 3341 1997 
z
" transform="scale(0.015625)"/>
       <path id="DejaVuSans-6c" d="M 603 4863 
L 1178 4863 
L 1178 0 
L 603 0 
L 603 4863 
z
" transform="scale(0.015625)"/>
       <path id="DejaVuSans-7a" d="M 353 3500 
L 3084 3500 
L 3084 2975 
L 922 459 
L 3084 459 
L 3084 0 
L 275 0 
L 275 525 
L 2438 3041 
L 353 3041 
L 353 3500 
z
" transform="scale(0.015625)"/>
       <path id="DejaVuSans-64" d="M 2906 2969 
L 2906 4863 
L 3481 4863 
L 3481 0 
L 2906 0 
L 2906 525 
Q 2725 213 2448 61 
Q 2172 -91 1784 -91 
Q 1150 -91 751 415 
Q 353 922 353 1747 
Q 353 2572 751 3078 
Q 1150 3584 1784 3584 
Q 2172 3584 2448 3432 
Q 2725 3281 2906 2969 
z
M 947 1747 
Q 947 1113 1208 752 
Q 1469 391 1925 391 
Q 2381 391 2643 752 
Q 2906 1113 2906 1747 
Q 2906 2381 2643 2742 
Q 2381 3103 1925 3103 
Q 1469 3103 1208 2742 
Q 947 2381 947 1747 
z
" transform="scale(0.015625)"/>
       <path id="DejaVuSans-70" d="M 1159 525 
L 1159 -1331 
L 581 -1331 
L 581 3500 
L 1159 3500 
L 1159 2969 
Q 1341 3281 1617 3432 
Q 1894 3584 2278 3584 
Q 2916 3584 3314 3078 
Q 3713 2572 3713 1747 
Q 3713 922 3314 415 
Q 2916 -91 2278 -91 
Q 1894 -91 1617 61 
Q 1341 213 1159 525 
z
M 3116 1747 
Q 3116 2381 2855 2742 
Q 2594 3103 2138 3103 
Q 1681 3103 1420 2742 
Q 1159 2381 1159 1747 
Q 1159 1113 1420 752 
Q 1681 391 2138 391 
Q 2594 391 2855 752 
Q 3116 1113 3116 1747 
z
" transform="scale(0.015625)"/>
       <path id="DejaVuSans-74" d="M 1172 4494 
L 1172 3500 
L 2356 3500 
L 2356 3053 
L 1172 3053 
L 1172 1153 
Q 1172 725 1289 603 
Q 1406 481 1766 481 
L 2356 481 
L 2356 0 
L 1766 0 
Q 1100 0 847 248 
Q 594 497 594 1153 
L 594 3053 
L 172 3053 
L 172 3500 
L 594 3500 
L 594 4494 
L 1172 4494 
z
" transform="scale(0.015625)"/>
       <path id="DejaVuSans-75" d="M 544 1381 
L 544 3500 
L 1119 3500 
L 1119 1403 
Q 1119 906 1312 657 
Q 1506 409 1894 409 
Q 2359 409 2629 706 
Q 2900 1003 2900 1516 
L 2900 3500 
L 3475 3500 
L 3475 0 
L 2900 0 
L 2900 538 
Q 2691 219 2414 64 
Q 2138 -91 1772 -91 
Q 1169 -91 856 284 
Q 544 659 544 1381 
z
M 1991 3584 
L 1991 3584 
z
" transform="scale(0.015625)"/>
      </defs>
      <use xlink:href="#DejaVuSans-4e"/>
      <use xlink:href="#DejaVuSans-6f" x="74.804688"/>
      <use xlink:href="#DejaVuSans-72" x="135.986328"/>
      <use xlink:href="#DejaVuSans-6d" x="175.349609"/>
      <use xlink:href="#DejaVuSans-61" x="272.761719"/>
      <use xlink:href="#DejaVuSans-6c" x="334.041016"/>
      <use xlink:href="#DejaVuSans-69" x="361.824219"/>
      <use xlink:href="#DejaVuSans-7a" x="389.607422"/>
      <use xlink:href="#DejaVuSans-65" x="442.097656"/>
      <use xlink:href="#DejaVuSans-64" x="503.621094"/>
      <use xlink:href="#DejaVuSans-20" x="567.097656"/>
      <use xlink:href="#DejaVuSans-61" x="598.884766"/>
      <use xlink:href="#DejaVuSans-6d" x="660.164062"/>
      <use xlink:href="#DejaVuSans-70" x="757.576172"/>
      <use xlink:href="#DejaVuSans-6c" x="821.052734"/>
      <use xlink:href="#DejaVuSans-69" x="848.835938"/>
      <use xlink:href="#DejaVuSans-74" x="876.619141"/>
      <use xlink:href="#DejaVuSans-75" x="915.828125"/>
      <use xlink:href="#DejaVuSans-64" x="979.207031"/>
      <use xlink:href="#DejaVuSans-65" x="1042.683594"/>
     </g>
    </g>
   </g>
   <g id="line2d_17">
    <path d="M 73.832727 200.980689 
L 74.428026 201.28035 
L 74.969208 201.814797 
L 75.510389 202.675045 
L 76.105688 204.087789 
L 76.755105 206.297009 
L 77.458641 209.602056 
L 78.216294 214.336055 
L 79.082184 221.29429 
L 80.110428 231.529792 
L 81.733971 250.399105 
L 83.411633 269.217543 
L 84.331641 277.233602 
L 84.981058 281.257568 
L 85.468121 283.179488 
L 85.846948 283.9405 
L 86.117538 284.059473 
L 86.334011 283.886446 
L 86.604601 283.321198 
L 86.983428 281.851619 
L 87.416373 279.160886 
L 87.957554 274.216662 
L 88.606971 265.892571 
L 89.364625 252.861925 
L 90.230515 233.77905 
L 91.312877 204.554514 
L 93.207011 145.827476 
L 94.776436 100.323042 
L 95.750562 78.022463 
L 96.508216 65.187855 
L 97.103515 58.294599 
L 97.590578 54.895009 
L 97.915286 53.78604 
L 98.131759 53.568 
L 98.294113 53.679188 
L 98.510586 54.193665 
L 98.835294 55.746792 
L 99.268239 59.257456 
L 99.80942 65.891055 
L 100.458838 76.954045 
L 101.270609 95.040434 
L 102.298853 123.429144 
L 103.976515 177.159812 
L 105.816531 234.147007 
L 106.844775 259.731106 
L 107.710665 276.136654 
L 108.4142 285.694023 
L 109.009499 291.158379 
L 109.496562 293.932657 
L 109.875389 295.107388 
L 110.145979 295.456475 
L 110.362452 295.460138 
L 110.578924 295.232795 
L 110.903633 294.487765 
L 111.336578 292.81149 
L 111.931877 289.417537 
L 112.689531 283.672081 
L 113.826011 273.123028 
L 117.722515 235.481113 
L 118.858995 227.16914 
L 119.833121 221.549137 
L 120.699011 217.752437 
L 121.456665 215.319968 
L 122.1602 213.749803 
L 122.755499 212.893227 
L 123.29668 212.454729 
L 123.783743 212.311343 
L 124.270806 212.383361 
L 124.811987 212.689714 
L 125.461405 213.331199 
L 126.273176 214.475729 
L 127.409657 216.505822 
L 129.357909 220.002699 
L 130.061444 220.807164 
L 130.548507 221.072273 
L 130.927334 221.065436 
L 131.306161 220.837721 
L 131.739106 220.266389 
L 132.226169 219.171663 
L 132.76735 217.321215 
L 133.362649 214.427984 
L 134.066184 209.7461 
L 134.823838 203.090726 
L 135.689728 193.43127 
L 136.717972 179.359898 
L 138.179161 155.926102 
L 140.343885 121.447852 
L 141.263893 110.313282 
L 141.967429 104.314526 
L 142.50861 101.473059 
L 142.887436 100.48988 
L 143.158027 100.320846 
L 143.374499 100.514723 
L 143.64509 101.17643 
L 144.023917 102.89809 
L 144.456862 106.014184 
L 144.998043 111.630222 
L 145.64746 120.830026 
L 146.459232 135.826313 
L 147.487476 159.400181 
L 149.598082 214.793526 
L 150.951035 246.703248 
L 151.871043 263.666011 
L 152.628696 274.039237 
L 153.278114 280.236472 
L 153.819295 283.554874 
L 154.25224 285.072903 
L 154.576948 285.593975 
L 154.847539 285.651338 
L 155.118129 285.388811 
L 155.442838 284.6829 
L 155.875783 283.143301 
L 156.471082 280.069811 
L 157.282854 274.485461 
L 158.419334 264.898802 
L 160.800531 242.347118 
L 163.668791 215.972516 
L 165.40057 201.922879 
L 166.591169 193.934445 
L 167.511177 189.194791 
L 168.214712 186.627483 
L 168.755893 185.348149 
L 169.188838 184.779133 
L 169.567665 184.614651 
L 169.892374 184.717661 
L 170.2712 185.113517 
L 170.704145 185.910658 
L 171.299444 187.552572 
L 172.057098 190.409573 
L 173.13946 195.518146 
L 175.899484 208.994462 
L 176.765374 211.960247 
L 177.414791 213.456099 
L 177.901854 214.097613 
L 178.280681 214.284763 
L 178.605389 214.215416 
L 178.930098 213.925636 
L 179.363043 213.18581 
L 179.850106 211.860146 
L 180.445405 209.526614 
L 181.148941 205.785257 
L 182.01483 199.851723 
L 183.151311 190.33535 
L 186.560752 160.551874 
L 187.372523 155.829196 
L 187.967823 153.49393 
L 188.454886 152.397512 
L 188.779594 152.103594 
L 189.050185 152.136077 
L 189.320775 152.425887 
L 189.645484 153.117168 
L 190.078429 154.622895 
L 190.61961 157.429519 
L 191.269027 162.091584 
L 192.080799 169.711093 
L 193.109043 181.684619 
L 194.678468 202.987322 
L 196.951429 233.566472 
L 198.033791 245.239942 
L 198.899681 252.346837 
L 199.603216 256.43362 
L 200.144397 258.490872 
L 200.577342 259.448583 
L 200.902051 259.768328 
L 201.172642 259.777573 
L 201.443232 259.557124 
L 201.767941 258.99623 
L 202.200886 257.761985 
L 202.742067 255.477081 
L 203.391484 251.731815 
L 204.203256 245.699034 
L 205.285618 235.807725 
L 207.125634 216.466358 
L 208.803295 199.737725 
L 209.885657 191.096156 
L 210.751547 185.821086 
L 211.509201 182.438933 
L 212.212736 180.273875 
L 212.808035 179.108413 
L 213.349216 178.520663 
L 213.782161 178.337679 
L 214.215106 178.381288 
L 214.702169 178.6697 
L 215.297468 179.319592 
L 216.001004 180.440321 
L 216.921012 182.365287 
L 218.11161 185.429713 
L 219.951626 190.888533 
L 221.791642 196.16038 
L 222.765768 198.316819 
L 223.523421 199.504126 
L 224.172839 200.147844 
L 224.768138 200.455139 
L 225.417555 200.547936 
L 227.419925 200.624123 
L 227.906988 200.976848 
L 228.394051 201.601396 
L 228.935232 202.679666 
L 229.530531 204.390394 
L 230.234067 207.149574 
L 231.099957 211.557772 
L 232.344673 219.235972 
L 234.238807 230.831857 
L 235.104697 234.748072 
L 235.754114 236.722667 
L 236.241177 237.571482 
L 236.620004 237.828264 
L 236.890594 237.787637 
L 237.215303 237.487805 
L 237.59413 236.789098 
L 238.081193 235.341154 
L 238.676492 232.754517 
L 239.380028 228.617192 
L 240.300035 221.700363 
L 241.652988 209.512836 
L 243.655358 191.634534 
L 244.575366 185.306102 
L 245.33302 181.502978 
L 245.928319 179.495011 
L 246.415382 178.503235 
L 246.794209 178.129186 
L 247.118917 178.075992 
L 247.443626 178.259408 
L 247.822453 178.75664 
L 248.309516 179.81038 
L 248.904815 181.659299 
L 249.716587 184.988837 
L 250.907185 190.968603 
L 253.234264 202.821871 
L 254.154272 206.289633 
L 254.857807 208.115643 
L 255.398988 208.949736 
L 255.831933 209.23054 
L 256.156642 209.206862 
L 256.535469 208.920903 
L 256.968414 208.25266 
L 257.509595 206.914708 
L 258.159012 204.613732 
L 258.970784 200.813158 
L 260.161382 194.000939 
L 261.839043 184.496043 
L 262.596697 181.400819 
L 263.137878 179.986035 
L 263.570823 179.420774 
L 263.841414 179.343377 
L 264.112004 179.485836 
L 264.436713 179.951238 
L 264.869658 181.070508 
L 265.410839 183.246832 
L 266.060256 186.907283 
L 266.926146 193.265963 
L 268.224981 204.806496 
L 270.389705 224.079851 
L 271.363831 230.738014 
L 272.121484 234.464531 
L 272.716784 236.370384 
L 273.149729 237.163401 
L 273.528555 237.445035 
L 273.799146 237.413989 
L 274.123855 237.128389 
L 274.502681 236.467477 
L 274.989744 235.137472 
L 275.639162 232.634137 
L 276.505051 228.319408 
L 279.860374 210.577458 
L 280.618028 208.143603 
L 281.213327 206.895917 
L 281.70039 206.32353 
L 282.133335 206.147069 
L 282.512162 206.236902 
L 282.945107 206.597399 
L 283.486288 207.387678 
L 284.189823 208.855581 
L 286.949847 215.169836 
L 287.43691 215.618707 
L 287.815737 215.697159 
L 288.140445 215.552919 
L 288.519272 215.118552 
L 288.952217 214.252213 
L 289.493398 212.597595 
L 290.142815 209.782409 
L 290.900469 205.443761 
L 291.928713 198.111828 
L 295.554626 170.825609 
L 296.258162 167.566437 
L 296.853461 165.782819 
L 297.286406 165.104861 
L 297.611115 164.955677 
L 297.881705 165.071748 
L 298.206414 165.501999 
L 298.585241 166.404566 
L 299.072304 168.188792 
L 299.667603 171.28323 
L 300.425256 176.547824 
L 301.399382 185.111617 
L 302.968808 201.333182 
L 304.592351 217.416207 
L 305.458241 224.028556 
L 306.161776 227.818599 
L 306.702957 229.611504 
L 307.081784 230.249666 
L 307.352374 230.38909 
L 307.622965 230.265342 
L 307.947674 229.774173 
L 308.3265 228.742127 
L 308.813563 226.728102 
L 309.462981 222.961847 
L 310.328871 216.394385 
L 311.735941 203.641947 
L 313.251249 190.519113 
L 314.06302 185.219098 
L 314.712438 182.335834 
L 315.199501 181.089069 
L 315.524209 180.718996 
L 315.7948 180.696431 
L 316.06539 180.93243 
L 316.390099 181.550472 
L 316.823044 182.919882 
L 317.364225 185.440194 
L 318.06776 189.866605 
L 319.041886 197.566607 
L 323.046627 231.042656 
L 323.966634 236.252405 
L 324.724288 239.422933 
L 325.373705 241.28549 
L 325.914886 242.216197 
L 326.347831 242.547185 
L 326.67254 242.55189 
L 326.997249 242.346692 
L 327.376075 241.841153 
L 327.863138 240.76974 
L 328.458438 238.819588 
L 329.161973 235.623119 
L 329.973745 230.792647 
L 330.947871 223.566733 
L 332.300823 211.677873 
L 335.006729 187.583532 
L 335.980855 181.037943 
L 336.738509 177.365864 
L 337.333808 175.492041 
L 337.766753 174.723698 
L 338.091461 174.481979 
L 338.362052 174.499112 
L 338.686761 174.778384 
L 339.065587 175.451561 
L 339.55265 176.840052 
L 340.14795 179.267364 
L 340.905603 183.33781 
L 342.042083 190.846049 
L 344.206808 205.330535 
L 344.964461 208.958414 
L 345.559761 210.874886 
L 345.992705 211.680169 
L 346.371532 211.957967 
L 346.642123 211.910822 
L 346.966831 211.588691 
L 347.345658 210.861179 
L 347.832721 209.413136 
L 348.482139 206.721208 
L 349.456265 201.565839 
L 351.837461 188.530208 
L 352.703351 185.161242 
L 353.352768 183.413348 
L 353.89395 182.518578 
L 354.326894 182.187748 
L 354.705721 182.186239 
L 355.084548 182.457706 
L 355.517493 183.105575 
L 356.004556 184.266748 
L 356.599855 186.303865 
L 357.303391 189.56281 
L 358.16928 194.737915 
L 359.305761 203.055344 
L 361.741076 221.369279 
L 362.444611 224.930892 
L 362.985792 226.647732 
L 363.364619 227.239252 
L 363.63521 227.334393 
L 363.9058 227.150034 
L 364.230509 226.558378 
L 364.609335 225.365999 
L 365.096398 223.079667 
L 365.745816 218.869524 
L 366.665824 211.236231 
L 369.155257 189.637009 
L 369.91291 185.234893 
L 370.50821 182.997412 
L 370.941154 182.108421 
L 371.265863 181.862043 
L 371.536454 181.932971 
L 371.807044 182.252791 
L 372.185871 183.109797 
L 372.672934 184.883437 
L 373.268233 187.994337 
L 374.025887 193.230314 
L 375.108249 202.452929 
L 377.760036 225.772952 
L 378.625926 231.336852 
L 379.329462 234.598318 
L 379.924761 236.387992 
L 380.357706 237.11101 
L 380.682414 237.330904 
L 380.953005 237.30388 
L 381.277714 237.021763 
L 381.65654 236.354591 
L 382.143603 234.979072 
L 382.738903 232.551118 
L 383.496556 228.393383 
L 384.470682 221.636094 
L 386.581288 204.759183 
L 387.717769 196.791281 
L 388.583658 192.200457 
L 389.233076 189.792678 
L 389.774257 188.49738 
L 390.207202 187.919455 
L 390.586029 187.733093 
L 390.910737 187.796487 
L 391.289564 188.110963 
L 391.776627 188.855108 
L 392.426044 190.338317 
L 393.346052 193.095989 
L 395.835485 200.89873 
L 396.647257 202.62868 
L 397.350792 203.62386 
L 397.946092 204.113318 
L 398.487273 204.324805 
L 398.487273 204.324805 
" clip-path="url(#p105f56ece9)" style="fill: none; stroke: #1f77b4; stroke-width: 1.5; stroke-linecap: square"/>
   </g>
   <g id="patch_3">
    <path d="M 57.6 307.584 
L 57.6 41.472 
" style="fill: none; stroke: #000000; stroke-width: 0.8; stroke-linejoin: miter; stroke-linecap: square"/>
   </g>
   <g id="patch_4">
    <path d="M 414.72 307.584 
L 414.72 41.472 
" style="fill: none; stroke: #000000; stroke-width: 0.8; stroke-linejoin: miter; stroke-linecap: square"/>
   </g>
   <g id="patch_5">
    <path d="M 57.6 307.584 
L 414.72 307.584 
" style="fill: none; stroke: #000000; stroke-width: 0.8; stroke-linejoin: miter; stroke-linecap: square"/>
   </g>
   <g id="patch_6">
    <path d="M 57.6 41.472 
L 414.72 41.472 
" style="fill: none; stroke: #000000; stroke-width: 0.8; stroke-linejoin: miter; stroke-linecap: square"/>
   </g>
  </g>
 </g>
 <defs>
  <clipPath id="p105f56ece9">
   <rect x="57.6" y="41.472" width="357.12" height="266.112"/>
  </clipPath>
 </defs>
</svg>
